<?xml version="1.0" encoding="UTF-8"?>
<svg id="_10" data-name="10" xmlns="http://www.w3.org/2000/svg" viewBox="0 0 1080 1080">
  <rect x="474.03" y="46.38" width="40.84" height="40.84" fill="#231f20"/>
  <rect x="517.15" y="46.38" width="40.84" height="40.84" fill="#231f20"/>
  <rect x="517.15" y="3.08" width="40.84" height="40.84" fill="#231f20"/>
  <rect x="474.03" y="3.08" width="40.84" height="40.84" fill="#231f20"/>
  <rect x="474.03" y="132.98" width="40.84" height="40.84" fill="#231f20"/>
  <rect x="517.15" y="132.98" width="40.84" height="40.84" fill="#231f20"/>
  <rect x="517.15" y="89.68" width="40.84" height="40.84" fill="#231f20"/>
  <rect x="474.03" y="89.68" width="40.84" height="40.84" fill="#231f20"/>
  <rect x="474.03" y="219.52" width="40.84" height="40.84" fill="#231f20"/>
  <rect x="430.92" y="219.52" width="40.84" height="40.84" fill="#231f20"/>
  <rect x="517.15" y="219.52" width="40.84" height="40.84" fill="#231f20"/>
  <rect x="517.15" y="176.22" width="40.84" height="40.84" fill="#231f20"/>
  <rect x="474.03" y="176.22" width="40.84" height="40.84" fill="#231f20"/>
  <rect x="430.92" y="305.92" width="40.84" height="40.84" fill="#231f20"/>
  <rect x="387.8" y="305.92" width="40.84" height="40.84" fill="#231f20"/>
  <rect x="517.15" y="305.92" width="40.84" height="40.84" fill="#231f20"/>
  <rect x="517.15" y="262.62" width="40.84" height="40.84" fill="#231f20"/>
  <rect x="474.03" y="262.62" width="40.84" height="40.84" fill="#231f20"/>
  <rect x="171.47" y="219.52" width="40.84" height="40.84" fill="#231f20"/>
  <rect x="171.47" y="176.22" width="40.84" height="40.84" fill="#231f20"/>
  <rect x="171.47" y="306.05" width="40.84" height="40.84" fill="#231f20"/>
  <rect x="171.47" y="262.75" width="40.84" height="40.84" fill="#231f20"/>
  <rect x="171.47" y="349.15" width="40.84" height="40.84" fill="#231f20"/>
  <rect x="430.92" y="262.62" width="40.84" height="40.84" fill="#231f20"/>
  <rect x="430.92" y="89.78" width="40.84" height="40.84" fill="#231f20"/>
  <rect x="430.92" y="176.18" width="40.84" height="40.84" fill="#231f20"/>
  <rect x="430.92" y="132.88" width="40.84" height="40.84" fill="#231f20"/>
  <rect x="172.34" y="132.88" width="40.84" height="40.84" fill="#231f20"/>
  <rect x="171.47" y="89.7" width="40.84" height="40.84" fill="#231f20"/>
  <rect x="171.47" y="522.48" width="40.84" height="40.84" fill="#231f20"/>
  <rect x="171.47" y="479.18" width="40.84" height="40.84" fill="#231f20"/>
  <rect x="171.47" y="609.01" width="40.84" height="40.84" fill="#231f20"/>
  <rect x="171.47" y="565.71" width="40.84" height="40.84" fill="#231f20"/>
  <rect x="171.47" y="652.11" width="40.84" height="40.84" fill="#231f20"/>
  <rect x="172.34" y="435.84" width="40.84" height="40.84" fill="#231f20"/>
  <rect x="171.47" y="781.17" width="40.84" height="40.84" fill="#231f20"/>
  <rect x="171.47" y="737.87" width="40.84" height="40.84" fill="#231f20"/>
  <rect x="171.47" y="867.71" width="40.84" height="40.84" fill="#231f20"/>
  <rect x="171.47" y="824.4" width="40.84" height="40.84" fill="#231f20"/>
  <rect x="171.47" y="910.8" width="40.84" height="40.84" fill="#231f20"/>
  <rect x="171.47" y="997.08" width="40.84" height="40.84" fill="#231f20"/>
  <rect x="257.87" y="996.97" width="40.84" height="40.84" fill="#231f20"/>
  <rect x="171.47" y="953.77" width="40.84" height="40.84" fill="#231f20"/>
  <rect x="214.67" y="953.77" width="40.84" height="40.84" fill="#231f20"/>
  <rect x="257.87" y="953.77" width="40.84" height="40.84" fill="#231f20"/>
  <rect x="171.47" y="1040.17" width="40.84" height="40.84" fill="#231f20"/>
  <rect x="41.62" y="867.63" width="40.84" height="40.84" fill="#231f20"/>
  <rect x="41.62" y="910.73" width="40.84" height="40.84" fill="#231f20"/>
  <rect x="41.62" y="997" width="40.84" height="40.84" fill="#231f20"/>
  <rect x="41.62" y="953.7" width="40.84" height="40.84" fill="#231f20"/>
  <rect x="41.62" y="694.78" width="40.84" height="40.84" fill="#231f20"/>
  <rect x="41.62" y="737.88" width="40.84" height="40.84" fill="#231f20"/>
  <rect x="41.62" y="824.15" width="40.84" height="40.84" fill="#231f20"/>
  <rect x="41.62" y="780.85" width="40.84" height="40.84" fill="#231f20"/>
  <rect x="41.62" y="521.98" width="40.84" height="40.84" fill="#231f20"/>
  <rect x="41.62" y="565.08" width="40.84" height="40.84" fill="#231f20"/>
  <rect x="41.62" y="651.35" width="40.84" height="40.84" fill="#231f20"/>
  <rect x="41.62" y="608.05" width="40.84" height="40.84" fill="#231f20"/>
  <rect x="41.62" y="1040.1" width="40.84" height="40.84" fill="#231f20"/>
  <rect x="83.97" y="867.71" width="40.84" height="40.84" fill="#231f20"/>
  <rect x="83.97" y="910.8" width="40.84" height="40.84" fill="#231f20"/>
  <rect x="83.97" y="997.08" width="40.84" height="40.84" fill="#231f20"/>
  <rect x="83.97" y="953.77" width="40.84" height="40.84" fill="#231f20"/>
  <rect x="83.97" y="1040.17" width="40.84" height="40.84" fill="#231f20"/>
  <rect x="83.97" y="652.33" width="40.84" height="40.84" fill="#231f20"/>
  <rect x="83.97" y="695.43" width="40.84" height="40.84" fill="#231f20"/>
  <rect x="83.97" y="781.7" width="40.84" height="40.84" fill="#231f20"/>
  <rect x="83.97" y="738.4" width="40.84" height="40.84" fill="#231f20"/>
  <rect x="83.97" y="824.8" width="40.84" height="40.84" fill="#231f20"/>
  <rect x="172.34" y="694.53" width="40.84" height="40.84" fill="#231f20"/>
  <rect x="171.47" y="392.66" width="40.84" height="40.84" fill="#231f20"/>
  <rect x="171.47" y="46.39" width="40.84" height="40.84" fill="#231f20"/>
  <rect x="172.34" y="3.06" width="40.84" height="40.84" fill="#231f20"/>
  <rect x="603.39" y="46.38" width="40.84" height="40.84" fill="#231f20"/>
  <rect x="646.5" y="46.38" width="40.84" height="40.84" fill="#231f20"/>
  <rect x="646.5" y="3.08" width="40.84" height="40.84" fill="#231f20"/>
  <rect x="603.39" y="3.08" width="40.84" height="40.84" fill="#231f20"/>
  <rect x="560.27" y="46.38" width="40.84" height="40.84" fill="#231f20"/>
  <rect x="560.27" y="3.08" width="40.84" height="40.84" fill="#231f20"/>
  <rect x="603.39" y="132.98" width="40.84" height="40.84" fill="#231f20"/>
  <rect x="646.5" y="132.98" width="40.84" height="40.84" fill="#231f20"/>
  <rect x="646.5" y="89.68" width="40.84" height="40.84" fill="#231f20"/>
  <rect x="603.39" y="89.68" width="40.84" height="40.84" fill="#231f20"/>
  <rect x="603.39" y="219.52" width="40.84" height="40.84" fill="#231f20"/>
  <rect x="560.27" y="219.52" width="40.84" height="40.84" fill="#231f20"/>
  <rect x="646.5" y="219.52" width="40.84" height="40.84" fill="#231f20"/>
  <rect x="646.5" y="176.22" width="40.84" height="40.84" fill="#231f20"/>
  <rect x="603.39" y="176.22" width="40.84" height="40.84" fill="#231f20"/>
  <rect x="646.5" y="262.62" width="40.84" height="40.84" fill="#231f20"/>
  <rect x="603.39" y="262.62" width="40.84" height="40.84" fill="#231f20"/>
  <rect x="560.27" y="262.62" width="40.84" height="40.84" fill="#231f20"/>
  <rect x="560.27" y="89.78" width="40.84" height="40.84" fill="#231f20"/>
  <rect x="560.27" y="176.18" width="40.84" height="40.84" fill="#231f20"/>
  <rect x="560.27" y="132.88" width="40.84" height="40.84" fill="#231f20"/>
  <rect x="733.28" y="46.38" width="40.84" height="40.84" fill="#231f20"/>
  <rect x="776.39" y="46.38" width="40.84" height="40.84" fill="#231f20"/>
  <rect x="776.39" y="3.08" width="40.84" height="40.84" fill="#231f20"/>
  <rect x="733.28" y="3.08" width="40.84" height="40.84" fill="#231f20"/>
  <rect x="689.89" y="46.38" width="40.84" height="40.84" fill="#231f20"/>
  <rect x="689.89" y="3.08" width="40.84" height="40.84" fill="#231f20"/>
  <rect x="733.28" y="132.98" width="40.84" height="40.84" fill="#231f20"/>
  <rect x="776.39" y="132.98" width="40.84" height="40.84" fill="#231f20"/>
  <rect x="776.39" y="89.68" width="40.84" height="40.84" fill="#231f20"/>
  <rect x="733.28" y="89.68" width="40.84" height="40.84" fill="#231f20"/>
  <rect x="733.28" y="219.52" width="40.84" height="40.84" fill="#231f20"/>
  <rect x="690.16" y="219.52" width="40.84" height="40.84" fill="#231f20"/>
  <rect x="776.39" y="219.52" width="40.84" height="40.84" fill="#231f20"/>
  <rect x="776.39" y="176.22" width="40.84" height="40.84" fill="#231f20"/>
  <rect x="733.28" y="176.22" width="40.84" height="40.84" fill="#231f20"/>
  <rect x="776.39" y="262.62" width="40.84" height="40.84" fill="#231f20"/>
  <rect x="733.28" y="262.62" width="40.84" height="40.84" fill="#231f20"/>
  <rect x="690.16" y="262.62" width="40.84" height="40.84" fill="#231f20"/>
  <rect x="690.16" y="89.78" width="40.84" height="40.84" fill="#231f20"/>
  <rect x="690.16" y="176.18" width="40.84" height="40.84" fill="#231f20"/>
  <rect x="690.16" y="132.88" width="40.84" height="40.84" fill="#231f20"/>
  <rect x="862.63" y="46.38" width="40.84" height="40.84" fill="#231f20"/>
  <rect x="905.74" y="46.38" width="40.84" height="40.84" fill="#231f20"/>
  <rect x="905.74" y="3.08" width="40.84" height="40.84" fill="#231f20"/>
  <rect x="862.63" y="3.08" width="40.84" height="40.84" fill="#231f20"/>
  <rect x="819.51" y="46.38" width="40.84" height="40.84" fill="#231f20"/>
  <rect x="819.51" y="3.08" width="40.84" height="40.84" fill="#231f20"/>
  <rect x="862.63" y="132.98" width="40.84" height="40.84" fill="#231f20"/>
  <rect x="905.74" y="132.98" width="40.84" height="40.84" fill="#231f20"/>
  <rect x="905.74" y="89.68" width="40.84" height="40.84" fill="#231f20"/>
  <rect x="862.63" y="89.68" width="40.84" height="40.84" fill="#231f20"/>
  <rect x="862.63" y="219.52" width="40.84" height="40.84" fill="#231f20"/>
  <rect x="819.51" y="219.52" width="40.84" height="40.84" fill="#231f20"/>
  <rect x="905.74" y="219.52" width="40.84" height="40.84" fill="#231f20"/>
  <rect x="905.74" y="176.22" width="40.84" height="40.84" fill="#231f20"/>
  <rect x="862.63" y="176.22" width="40.84" height="40.84" fill="#231f20"/>
  <rect x="905.74" y="262.62" width="40.84" height="40.84" fill="#231f20"/>
  <rect x="862.63" y="262.62" width="40.84" height="40.84" fill="#231f20"/>
  <rect x="819.51" y="262.62" width="40.84" height="40.84" fill="#231f20"/>
  <rect x="819.51" y="89.78" width="40.84" height="40.84" fill="#231f20"/>
  <rect x="819.51" y="176.18" width="40.84" height="40.84" fill="#231f20"/>
  <rect x="819.51" y="132.88" width="40.84" height="40.84" fill="#231f20"/>
  <rect x="991.81" y="46.61" width="40.84" height="40.84" fill="#231f20"/>
  <rect x="1034.92" y="46.61" width="40.84" height="40.84" fill="#231f20"/>
  <rect x="1034.92" y="3.3" width="40.84" height="40.84" fill="#231f20"/>
  <rect x="991.81" y="3.3" width="40.84" height="40.84" fill="#231f20"/>
  <rect x="948.69" y="46.61" width="40.84" height="40.84" fill="#231f20"/>
  <rect x="948.69" y="3.3" width="40.84" height="40.84" fill="#231f20"/>
  <rect x="991.81" y="133.21" width="40.84" height="40.84" fill="#231f20"/>
  <rect x="1034.92" y="133.21" width="40.84" height="40.84" fill="#231f20"/>
  <rect x="1034.92" y="89.91" width="40.84" height="40.84" fill="#231f20"/>
  <rect x="991.81" y="89.91" width="40.84" height="40.84" fill="#231f20"/>
  <rect x="991.81" y="219.75" width="40.84" height="40.84" fill="#231f20"/>
  <rect x="948.69" y="219.75" width="40.84" height="40.84" fill="#231f20"/>
  <rect x="1034.92" y="219.75" width="40.84" height="40.84" fill="#231f20"/>
  <rect x="1034.92" y="176.44" width="40.84" height="40.84" fill="#231f20"/>
  <rect x="991.81" y="176.44" width="40.84" height="40.84" fill="#231f20"/>
  <rect x="1034.92" y="262.84" width="40.84" height="40.84" fill="#231f20"/>
  <rect x="991.81" y="262.84" width="40.84" height="40.84" fill="#231f20"/>
  <rect x="948.69" y="262.84" width="40.84" height="40.84" fill="#231f20"/>
  <rect x="948.69" y="90.01" width="40.84" height="40.84" fill="#231f20"/>
  <rect x="948.69" y="176.41" width="40.84" height="40.84" fill="#231f20"/>
  <rect x="948.69" y="133.11" width="40.84" height="40.84" fill="#231f20"/>
  <rect x="733.28" y="349.24" width="40.84" height="40.84" fill="#231f20"/>
  <rect x="776.39" y="349.24" width="40.84" height="40.84" fill="#231f20"/>
  <rect x="776.39" y="305.94" width="40.84" height="40.84" fill="#231f20"/>
  <rect x="733.28" y="305.94" width="40.84" height="40.84" fill="#231f20"/>
  <rect x="689.89" y="349.24" width="40.84" height="40.84" fill="#231f20"/>
  <rect x="689.89" y="305.94" width="40.84" height="40.84" fill="#231f20"/>
  <rect x="733.28" y="435.85" width="40.84" height="40.84" fill="#231f20"/>
  <rect x="776.39" y="435.85" width="40.84" height="40.84" fill="#231f20"/>
  <rect x="776.39" y="392.55" width="40.84" height="40.84" fill="#231f20"/>
  <rect x="733.28" y="392.55" width="40.84" height="40.84" fill="#231f20"/>
  <rect x="733.28" y="522.38" width="40.84" height="40.84" fill="#231f20"/>
  <rect x="690.16" y="522.38" width="40.84" height="40.84" fill="#231f20"/>
  <rect x="776.39" y="522.38" width="40.84" height="40.84" fill="#231f20"/>
  <rect x="776.39" y="479.08" width="40.84" height="40.84" fill="#231f20"/>
  <rect x="733.28" y="479.08" width="40.84" height="40.84" fill="#231f20"/>
  <rect x="776.39" y="565.48" width="40.84" height="40.84" fill="#231f20"/>
  <rect x="733.28" y="565.48" width="40.84" height="40.84" fill="#231f20"/>
  <rect x="690.16" y="392.65" width="40.84" height="40.84" fill="#231f20"/>
  <rect x="603.65" y="349.24" width="40.84" height="40.84" fill="#231f20"/>
  <rect x="646.77" y="349.24" width="40.84" height="40.84" fill="#231f20"/>
  <rect x="646.77" y="305.94" width="40.84" height="40.84" fill="#231f20"/>
  <rect x="603.65" y="305.94" width="40.84" height="40.84" fill="#231f20"/>
  <rect x="560.27" y="349.24" width="40.84" height="40.84" fill="#231f20"/>
  <rect x="517.15" y="349.24" width="40.84" height="40.84" fill="#231f20"/>
  <rect x="560.27" y="305.94" width="40.84" height="40.84" fill="#231f20"/>
  <rect x="646.77" y="392.55" width="40.84" height="40.84" fill="#231f20"/>
  <rect x="603.65" y="392.55" width="40.84" height="40.84" fill="#231f20"/>
  <rect x="560.54" y="392.65" width="40.84" height="40.84" fill="#231f20"/>
  <rect x="690.16" y="435.75" width="40.84" height="40.84" fill="#231f20"/>
  <rect x="690.16" y="479.31" width="40.84" height="40.84" fill="#231f20"/>
  <rect x="862.63" y="349.24" width="40.84" height="40.84" fill="#231f20"/>
  <rect x="905.74" y="349.24" width="40.84" height="40.84" fill="#231f20"/>
  <rect x="905.74" y="305.94" width="40.84" height="40.84" fill="#231f20"/>
  <rect x="862.63" y="305.94" width="40.84" height="40.84" fill="#231f20"/>
  <rect x="819.51" y="349.24" width="40.84" height="40.84" fill="#231f20"/>
  <rect x="819.51" y="305.94" width="40.84" height="40.84" fill="#231f20"/>
  <rect x="862.63" y="435.85" width="40.84" height="40.84" fill="#231f20"/>
  <rect x="905.74" y="435.85" width="40.84" height="40.84" fill="#231f20"/>
  <rect x="905.74" y="392.55" width="40.84" height="40.84" fill="#231f20"/>
  <rect x="862.63" y="392.55" width="40.84" height="40.84" fill="#231f20"/>
  <rect x="862.63" y="522.38" width="40.84" height="40.84" fill="#231f20"/>
  <rect x="819.51" y="522.38" width="40.84" height="40.84" fill="#231f20"/>
  <rect x="905.74" y="522.38" width="40.84" height="40.84" fill="#231f20"/>
  <rect x="905.74" y="479.08" width="40.84" height="40.84" fill="#231f20"/>
  <rect x="862.63" y="479.08" width="40.84" height="40.84" fill="#231f20"/>
  <rect x="905.74" y="565.48" width="40.84" height="40.84" fill="#231f20"/>
  <rect x="862.63" y="565.48" width="40.84" height="40.84" fill="#231f20"/>
  <rect x="819.51" y="565.48" width="40.84" height="40.84" fill="#231f20"/>
  <rect x="819.51" y="392.65" width="40.84" height="40.84" fill="#231f20"/>
  <rect x="819.51" y="479.05" width="40.84" height="40.84" fill="#231f20"/>
  <rect x="819.51" y="435.75" width="40.84" height="40.84" fill="#231f20"/>
  <rect x="991.81" y="349.47" width="40.84" height="40.84" fill="#231f20"/>
  <rect x="1034.92" y="349.47" width="40.84" height="40.84" fill="#231f20"/>
  <rect x="1034.92" y="306.17" width="40.84" height="40.84" fill="#231f20"/>
  <rect x="991.81" y="306.17" width="40.84" height="40.84" fill="#231f20"/>
  <rect x="948.69" y="349.47" width="40.84" height="40.84" fill="#231f20"/>
  <rect x="948.69" y="306.17" width="40.84" height="40.84" fill="#231f20"/>
  <rect x="991.81" y="436.08" width="40.84" height="40.84" fill="#231f20"/>
  <rect x="1034.92" y="436.08" width="40.84" height="40.84" fill="#231f20"/>
  <rect x="1034.92" y="392.77" width="40.84" height="40.84" fill="#231f20"/>
  <rect x="991.81" y="392.77" width="40.84" height="40.84" fill="#231f20"/>
  <rect x="991.81" y="522.61" width="40.84" height="40.84" fill="#231f20"/>
  <rect x="948.69" y="522.61" width="40.84" height="40.84" fill="#231f20"/>
  <rect x="1034.92" y="522.61" width="40.84" height="40.84" fill="#231f20"/>
  <rect x="1034.92" y="479.31" width="40.84" height="40.84" fill="#231f20"/>
  <rect x="991.81" y="479.31" width="40.84" height="40.84" fill="#231f20"/>
  <rect x="1034.92" y="565.71" width="40.84" height="40.84" fill="#231f20"/>
  <rect x="991.81" y="565.71" width="40.84" height="40.84" fill="#231f20"/>
  <rect x="948.69" y="565.71" width="40.84" height="40.84" fill="#231f20"/>
  <rect x="948.69" y="392.88" width="40.84" height="40.84" fill="#231f20"/>
  <rect x="948.69" y="479.28" width="40.84" height="40.84" fill="#231f20"/>
  <rect x="948.69" y="435.97" width="40.84" height="40.84" fill="#231f20"/>
  <rect x="776.39" y="652.03" width="40.84" height="40.84" fill="#231f20"/>
  <rect x="776.39" y="608.73" width="40.84" height="40.84" fill="#231f20"/>
  <rect x="776.39" y="738.57" width="40.84" height="40.84" fill="#231f20"/>
  <rect x="776.39" y="695.26" width="40.84" height="40.84" fill="#231f20"/>
  <rect x="733.28" y="652.03" width="40.84" height="40.84" fill="#231f20"/>
  <rect x="733.28" y="608.73" width="40.84" height="40.84" fill="#231f20"/>
  <rect x="733.28" y="738.57" width="40.84" height="40.84" fill="#231f20"/>
  <rect x="733.28" y="695.26" width="40.84" height="40.84" fill="#231f20"/>
  <rect x="690.16" y="652.03" width="40.84" height="40.84" fill="#231f20"/>
  <rect x="431.23" y="608.35" width="40.84" height="40.84" fill="#231f20"/>
  <rect x="690.16" y="695.26" width="40.84" height="40.84" fill="#231f20"/>
  <rect x="647.04" y="695.26" width="40.84" height="40.84" fill="#231f20"/>
  <rect x="776.39" y="781.66" width="40.84" height="40.84" fill="#231f20"/>
  <rect x="862.63" y="652.03" width="40.84" height="40.84" fill="#231f20"/>
  <rect x="905.74" y="652.03" width="40.84" height="40.84" fill="#231f20"/>
  <rect x="905.74" y="608.73" width="40.84" height="40.84" fill="#231f20"/>
  <rect x="862.63" y="608.73" width="40.84" height="40.84" fill="#231f20"/>
  <rect x="862.63" y="738.57" width="40.84" height="40.84" fill="#231f20"/>
  <rect x="819.51" y="738.57" width="40.84" height="40.84" fill="#231f20"/>
  <rect x="905.74" y="738.57" width="40.84" height="40.84" fill="#231f20"/>
  <rect x="905.74" y="695.26" width="40.84" height="40.84" fill="#231f20"/>
  <rect x="862.63" y="695.26" width="40.84" height="40.84" fill="#231f20"/>
  <rect x="905.74" y="781.66" width="40.84" height="40.84" fill="#231f20"/>
  <rect x="862.63" y="781.66" width="40.84" height="40.84" fill="#231f20"/>
  <rect x="819.51" y="781.66" width="40.84" height="40.84" fill="#231f20"/>
  <rect x="819.51" y="608.83" width="40.84" height="40.84" fill="#231f20"/>
  <rect x="819.51" y="695.23" width="40.84" height="40.84" fill="#231f20"/>
  <rect x="819.51" y="651.93" width="40.84" height="40.84" fill="#231f20"/>
  <rect x="991.81" y="652.26" width="40.84" height="40.84" fill="#231f20"/>
  <rect x="1034.92" y="652.26" width="40.84" height="40.84" fill="#231f20"/>
  <rect x="1034.92" y="608.96" width="40.84" height="40.84" fill="#231f20"/>
  <rect x="991.81" y="608.96" width="40.84" height="40.84" fill="#231f20"/>
  <rect x="991.81" y="738.79" width="40.84" height="40.84" fill="#231f20"/>
  <rect x="948.69" y="738.79" width="40.84" height="40.84" fill="#231f20"/>
  <rect x="1034.92" y="738.79" width="40.84" height="40.84" fill="#231f20"/>
  <rect x="1034.92" y="695.49" width="40.84" height="40.84" fill="#231f20"/>
  <rect x="991.81" y="695.49" width="40.84" height="40.84" fill="#231f20"/>
  <rect x="1034.92" y="781.89" width="40.84" height="40.84" fill="#231f20"/>
  <rect x="991.81" y="781.89" width="40.84" height="40.84" fill="#231f20"/>
  <rect x="948.69" y="781.89" width="40.84" height="40.84" fill="#231f20"/>
  <rect x="948.69" y="609.06" width="40.84" height="40.84" fill="#231f20"/>
  <rect x="948.69" y="695.46" width="40.84" height="40.84" fill="#231f20"/>
  <rect x="948.69" y="652.16" width="40.84" height="40.84" fill="#231f20"/>
  <rect x="776.39" y="825.09" width="40.84" height="40.84" fill="#231f20"/>
  <rect x="733.28" y="781.66" width="40.84" height="40.84" fill="#231f20"/>
  <rect x="560.81" y="781.66" width="40.84" height="40.84" fill="#231f20"/>
  <rect x="733.28" y="825.09" width="40.84" height="40.84" fill="#231f20"/>
  <rect x="776.39" y="911.62" width="40.84" height="40.84" fill="#231f20"/>
  <rect x="776.39" y="868.32" width="40.84" height="40.84" fill="#231f20"/>
  <rect x="776.39" y="954.72" width="40.84" height="40.84" fill="#231f20"/>
  <rect x="776.39" y="1040.22" width="40.84" height="40.84" fill="#231f20"/>
  <rect x="862.63" y="825.09" width="40.84" height="40.84" fill="#231f20"/>
  <rect x="905.74" y="825.09" width="40.84" height="40.84" fill="#231f20"/>
  <rect x="862.63" y="911.62" width="40.84" height="40.84" fill="#231f20"/>
  <rect x="819.51" y="911.62" width="40.84" height="40.84" fill="#231f20"/>
  <rect x="905.74" y="911.62" width="40.84" height="40.84" fill="#231f20"/>
  <rect x="905.74" y="868.32" width="40.84" height="40.84" fill="#231f20"/>
  <rect x="862.63" y="868.32" width="40.84" height="40.84" fill="#231f20"/>
  <rect x="905.74" y="954.72" width="40.84" height="40.84" fill="#231f20"/>
  <rect x="905.74" y="997.12" width="40.84" height="40.84" fill="#231f20"/>
  <rect x="905.74" y="1040.22" width="40.84" height="40.84" fill="#231f20"/>
  <rect x="819.51" y="954.72" width="40.84" height="40.84" fill="#231f20"/>
  <rect x="819.51" y="868.29" width="40.84" height="40.84" fill="#231f20"/>
  <rect x="690.16" y="911.62" width="40.84" height="40.84" fill="#231f20"/>
  <rect x="690.16" y="868.32" width="40.84" height="40.84" fill="#231f20"/>
  <rect x="690.16" y="824.99" width="40.84" height="40.84" fill="#231f20"/>
  <rect x="690.16" y="954.72" width="40.84" height="40.84" fill="#231f20"/>
  <rect x="647.04" y="911.62" width="40.84" height="40.84" fill="#231f20"/>
  <rect x="647.04" y="868.29" width="40.84" height="40.84" fill="#231f20"/>
  <rect x="474.03" y="910.58" width="40.84" height="40.84" fill="#231f20"/>
  <rect x="431.04" y="867.37" width="40.84" height="40.84" fill="#231f20"/>
  <rect x="647.04" y="954.72" width="40.84" height="40.84" fill="#231f20"/>
  <rect x="603.59" y="954.72" width="40.84" height="40.84" fill="#231f20"/>
  <rect x="646.71" y="997.12" width="40.84" height="40.84" fill="#231f20"/>
  <rect x="646.71" y="1040.22" width="40.84" height="40.84" fill="#231f20"/>
  <rect x="603.59" y="997.12" width="40.84" height="40.84" fill="#231f20"/>
  <rect x="603.59" y="1040.22" width="40.84" height="40.84" fill="#231f20"/>
  <rect x="733.28" y="911.62" width="40.84" height="40.84" fill="#231f20"/>
  <rect x="733.28" y="954.72" width="40.84" height="40.84" fill="#231f20"/>
  <rect x="733.33" y="997.07" width="40.84" height="40.84" fill="#231f20"/>
  <rect x="733.28" y="868.29" width="40.84" height="40.84" fill="#231f20"/>
  <rect x="819.51" y="824.99" width="40.84" height="40.84" fill="#231f20"/>
  <rect x="991.81" y="825.32" width="40.84" height="40.84" fill="#231f20"/>
  <rect x="1034.92" y="825.32" width="40.84" height="40.84" fill="#231f20"/>
  <rect x="991.81" y="911.85" width="40.84" height="40.84" fill="#231f20"/>
  <rect x="948.69" y="911.85" width="40.84" height="40.84" fill="#231f20"/>
  <rect x="1034.92" y="911.85" width="40.84" height="40.84" fill="#231f20"/>
  <rect x="1034.92" y="868.55" width="40.84" height="40.84" fill="#231f20"/>
  <rect x="991.81" y="868.55" width="40.84" height="40.84" fill="#231f20"/>
  <rect x="1034.92" y="954.95" width="40.84" height="40.84" fill="#231f20"/>
  <rect x="991.81" y="954.95" width="40.84" height="40.84" fill="#231f20"/>
  <rect x="948.69" y="954.95" width="40.84" height="40.84" fill="#231f20"/>
  <rect x="991.81" y="997.12" width="40.84" height="40.84" fill="#231f20"/>
  <rect x="948.69" y="997.12" width="40.84" height="40.84" fill="#231f20"/>
  <rect x="1034.92" y="997.12" width="40.84" height="40.84" fill="#231f20"/>
  <rect x="1034.92" y="1040.22" width="40.84" height="40.84" fill="#231f20"/>
  <rect x="991.81" y="1040.22" width="40.84" height="40.84" fill="#231f20"/>
  <rect x="948.69" y="1040.22" width="40.84" height="40.84" fill="#231f20"/>
  <rect x="948.69" y="868.52" width="40.84" height="40.84" fill="#231f20"/>
  <rect x="948.69" y="825.21" width="40.84" height="40.84" fill="#231f20"/>
  <rect x="487.76" y="319.89" width="13.39" height="13.39" fill="#231f20"/>
  <rect x="487.76" y="362.87" width="13.39" height="13.39" fill="#231f20"/>
  <rect x="401.52" y="362.87" width="13.39" height="13.39" fill="#231f20"/>
  <rect x="358.27" y="362.87" width="13.39" height="13.39" fill="#231f20"/>
  <rect x="574.1" y="449.57" width="13.39" height="13.39" fill="#231f20"/>
  <rect x="530.85" y="449.57" width="13.39" height="13.39" fill="#231f20"/>
  <rect x="661.7" y="449.57" width="13.39" height="13.39" fill="#231f20"/>
  <rect x="661.7" y="493.03" width="13.39" height="13.39" fill="#231f20"/>
  <rect x="703.61" y="577.9" width="13.39" height="13.39" fill="#231f20"/>
  <rect x="661.7" y="577.9" width="13.39" height="13.39" fill="#231f20"/>
  <rect x="703.61" y="621.36" width="13.39" height="13.39" fill="#231f20"/>
  <rect x="703.61" y="752.12" width="13.39" height="13.39" fill="#231f20"/>
  <rect x="703.61" y="795.58" width="13.39" height="13.39" fill="#231f20"/>
  <rect x="660.4" y="752.12" width="13.39" height="13.39" fill="#231f20"/>
  <rect x="660.4" y="795.58" width="13.39" height="13.39" fill="#231f20"/>
  <rect x="660.4" y="838.81" width="13.39" height="13.39" fill="#231f20"/>
  <rect x="574.53" y="838.81" width="13.39" height="13.39" fill="#231f20"/>
  <rect x="574.53" y="924.3" width="13.39" height="13.39" fill="#231f20"/>
  <rect x="530.88" y="924.3" width="13.39" height="13.39" fill="#231f20"/>
  <rect x="444.76" y="924.3" width="13.39" height="13.39" fill="#231f20"/>
  <rect x="401.77" y="924.3" width="13.39" height="13.39" fill="#231f20"/>
  <rect x="401.77" y="881.17" width="13.39" height="13.39" fill="#231f20"/>
  <rect x="401.77" y="837.89" width="13.39" height="13.39" fill="#231f20"/>
  <rect x="228.02" y="924.3" width="13.39" height="13.39" fill="#231f20"/>
  <rect x="228.02" y="881.17" width="13.39" height="13.39" fill="#231f20"/>
  <rect x="228.02" y="837.89" width="13.39" height="13.39" fill="#231f20"/>
  <rect x="228.02" y="622.41" width="13.39" height="13.39" fill="#231f20"/>
  <rect x="228.02" y="665.84" width="13.39" height="13.39" fill="#231f20"/>
  <rect x="228.02" y="579.28" width="13.39" height="13.39" fill="#231f20"/>
  <rect x="228.02" y="536" width="13.39" height="13.39" fill="#231f20"/>
  <rect x="401.77" y="794.9" width="13.39" height="13.39" fill="#231f20"/>
  <rect x="444.95" y="837.89" width="13.39" height="13.39" fill="#231f20"/>
  <rect x="488.15" y="837.89" width="13.39" height="13.39" fill="#231f20"/>
  <rect x="487.71" y="881.17" width="13.39" height="13.39" fill="#231f20"/>
  <rect x="488.15" y="707.04" width="13.39" height="13.39" fill="#231f20"/>
  <rect x="487.71" y="750.32" width="13.39" height="13.39" fill="#231f20"/>
  <rect x="445.17" y="707.04" width="13.39" height="13.39" fill="#231f20"/>
  <rect x="488.15" y="664.57" width="13.39" height="13.39" fill="#231f20"/>
  <rect x="488.15" y="622.74" width="13.39" height="13.39" fill="#231f20"/>
  <rect x="530.88" y="664.57" width="13.39" height="13.39" fill="#231f20"/>
  <rect x="573.59" y="664.57" width="13.39" height="13.39" fill="#231f20"/>
  <rect x="616.31" y="664.57" width="13.39" height="13.39" fill="#231f20"/>
  <rect x="445.17" y="664.57" width="13.39" height="13.39" fill="#231f20"/>
  <rect x="401.92" y="620.86" width="13.39" height="13.39" fill="#231f20"/>
  <rect x="401.92" y="578.39" width="13.39" height="13.39" fill="#231f20"/>
  <rect x="444.95" y="578.39" width="13.39" height="13.39" fill="#231f20"/>
  <rect x="444.74" y="750.32" width="13.39" height="13.39" fill="#231f20"/>
  <rect x="358.04" y="881.17" width="13.39" height="13.39" fill="#231f20"/>
  <rect x="315.18" y="881.17" width="13.39" height="13.39" fill="#231f20"/>
  <rect x="617.38" y="881.17" width="13.39" height="13.39" fill="#231f20"/>
  <rect x="617.38" y="924.41" width="13.39" height="13.39" fill="#231f20"/>
  <rect x="530.88" y="968.45" width="13.39" height="13.39" fill="#231f20"/>
  <rect x="530.88" y="1010.7" width="13.39" height="13.39" fill="#231f20"/>
  <rect x="574.53" y="968.45" width="13.39" height="13.39" fill="#231f20"/>
  <rect x="574.53" y="1010.7" width="13.39" height="13.39" fill="#231f20"/>
  <rect x="876.35" y="968.45" width="13.39" height="13.39" fill="#231f20"/>
  <rect x="876.35" y="1010.7" width="13.39" height="13.39" fill="#231f20"/>
  <rect x="574.53" y="1053.94" width="13.39" height="13.39" fill="#231f20"/>
  <rect x="790.99" y="1010.7" width="13.39" height="13.39" fill="#231f20"/>
  <rect x="834.64" y="1010.7" width="13.39" height="13.39" fill="#231f20"/>
  <rect x="834.64" y="1053.94" width="13.39" height="13.39" fill="#231f20"/>
  <rect x="487.76" y="968.45" width="13.39" height="13.39" fill="#231f20"/>
  <rect x="487.76" y="1010.7" width="13.39" height="13.39" fill="#231f20"/>
  <rect x="487.76" y="1053.94" width="13.39" height="13.39" fill="#231f20"/>
  <rect x="444.76" y="968.45" width="13.39" height="13.39" fill="#231f20"/>
  <rect x="444.76" y="1010.7" width="13.39" height="13.39" fill="#231f20"/>
  <rect x="401.4" y="1010.7" width="13.39" height="13.39" fill="#231f20"/>
  <rect x="444.76" y="1053.94" width="13.39" height="13.39" fill="#231f20"/>
  <rect x="746.77" y="1053.94" width="13.39" height="13.39" fill="#231f20"/>
  <rect x="703.78" y="1010.7" width="13.39" height="13.39" fill="#231f20"/>
  <rect x="703.78" y="1053.94" width="13.39" height="13.39" fill="#231f20"/>
  <rect x="358.04" y="1010.7" width="13.39" height="13.39" fill="#231f20"/>
  <rect x="358.04" y="1053.94" width="13.39" height="13.39" fill="#231f20"/>
  <rect x="271.6" y="1053.94" width="13.39" height="13.39" fill="#231f20"/>
  <rect x="228.4" y="1010.7" width="13.39" height="13.39" fill="#231f20"/>
  <rect x="228.4" y="1053.94" width="13.39" height="13.39" fill="#231f20"/>
  <rect x="315.18" y="924.3" width="13.39" height="13.39" fill="#231f20"/>
  <rect x="315.18" y="968.45" width="13.39" height="13.39" fill="#231f20"/>
  <rect x="315.18" y="1010.7" width="13.39" height="13.39" fill="#231f20"/>
  <rect x="315.18" y="1053.94" width="13.39" height="13.39" fill="#231f20"/>
  <rect x="617.15" y="752.12" width="13.39" height="13.39" fill="#231f20"/>
  <rect x="574.1" y="752.12" width="13.39" height="13.39" fill="#231f20"/>
  <rect x="530.88" y="795.58" width="13.39" height="13.39" fill="#231f20"/>
  <rect x="617.15" y="708.35" width="13.39" height="13.39" fill="#231f20"/>
  <rect x="617.15" y="795.58" width="13.39" height="13.39" fill="#231f20"/>
  <rect x="660.4" y="621.11" width="13.39" height="13.39" fill="#231f20"/>
  <rect x="660.4" y="664.57" width="13.39" height="13.39" fill="#231f20"/>
  <rect x="618.45" y="449.57" width="13.39" height="13.39" fill="#231f20"/>
  <rect x="530.85" y="406.27" width="13.39" height="13.39" fill="#231f20"/>
  <rect x="272.7" y="362.87" width="13.39" height="13.39" fill="#231f20"/>
  <rect x="358.27" y="319.89" width="13.39" height="13.39" fill="#231f20"/>
  <rect x="272.7" y="319.89" width="13.39" height="13.39" fill="#231f20"/>
  <rect x="272.7" y="276.34" width="13.39" height="13.39" fill="#231f20"/>
  <rect x="272.7" y="233.24" width="13.39" height="13.39" fill="#231f20"/>
  <rect x="97.7" y="622.01" width="13.39" height="13.39" fill="#231f20"/>
  <rect x="97.7" y="579.03" width="13.39" height="13.39" fill="#231f20"/>
  <rect x="97.7" y="535.47" width="13.39" height="13.39" fill="#231f20"/>
  <rect x="97.7" y="492.38" width="13.39" height="13.39" fill="#231f20"/>
  <rect x="55.34" y="492.34" width="13.39" height="13.39" fill="#231f20"/>
  <rect x="55.34" y="449.24" width="13.39" height="13.39" fill="#231f20"/>
  <rect x="97.7" y="407.51" width="13.39" height="13.39" fill="#231f20"/>
  <rect x="97.7" y="364.41" width="13.39" height="13.39" fill="#231f20"/>
  <rect x="401.52" y="276.34" width="13.39" height="13.39" fill="#231f20"/>
  <rect x="315.22" y="276.34" width="13.39" height="13.39" fill="#231f20"/>
  <rect x="315.22" y="233.24" width="13.39" height="13.39" fill="#231f20"/>
  <rect x="315.22" y="189.91" width="13.39" height="13.39" fill="#231f20"/>
  <rect x="315.22" y="146.71" width="13.39" height="13.39" fill="#231f20"/>
  <rect x="315.22" y="103.41" width="13.39" height="13.39" fill="#231f20"/>
  <rect x="272.7" y="146.71" width="13.39" height="13.39" fill="#231f20"/>
  <rect x="228.66" y="146.71" width="13.39" height="13.39" fill="#231f20"/>
  <rect x="272.7" y="103.51" width="13.39" height="13.39" fill="#231f20"/>
  <rect x="228.66" y="103.51" width="13.39" height="13.39" fill="#231f20"/>
  <rect x="228.66" y="58.81" width="13.39" height="13.39" fill="#231f20"/>
  <rect x="228.66" y="233.24" width="13.39" height="13.39" fill="#231f20"/>
  <rect x="401.52" y="233.24" width="13.39" height="13.39" fill="#231f20"/>
  <rect x="401.52" y="189.91" width="13.39" height="13.39" fill="#231f20"/>
  <rect x="401.52" y="146.71" width="13.39" height="13.39" fill="#231f20"/>
  <rect x="401.52" y="103.41" width="13.39" height="13.39" fill="#231f20"/>
  <rect x="444.73" y="60.2" width="13.39" height="13.39" fill="#231f20"/>
  <rect x="401.52" y="60.2" width="13.39" height="13.39" fill="#231f20"/>
  <rect x="444.73" y="16.8" width="13.39" height="13.39" fill="#231f20"/>
  <rect x="315.22" y="319.89" width="13.39" height="13.39" fill="#231f20"/>
</svg>