<?xml version="1.0" encoding="UTF-8"?>
<svg id="_11" data-name="11" xmlns="http://www.w3.org/2000/svg" viewBox="0 0 1080 1080">
  <rect x="260.32" y="260.3" width="40.84" height="40.84" fill="#231f20"/>
  <rect x="217.33" y="260.3" width="40.84" height="40.84" fill="#231f20"/>
  <rect x="174.34" y="260.3" width="40.84" height="40.84" fill="#231f20"/>
  <rect x="174.34" y="217.2" width="40.84" height="40.84" fill="#231f20"/>
  <rect x="174.34" y="389.59" width="40.84" height="40.84" fill="#231f20"/>
  <rect x="174.34" y="346.5" width="40.84" height="40.84" fill="#231f20"/>
  <rect x="174.34" y="303.4" width="40.84" height="40.84" fill="#231f20"/>
  <rect x="174.34" y="131.01" width="40.84" height="40.84" fill="#231f20"/>
  <rect x="260.32" y="389.59" width="40.84" height="40.84" fill="#231f20"/>
  <rect x="303.32" y="389.59" width="40.84" height="40.84" fill="#231f20"/>
  <rect x="303.32" y="346.5" width="40.84" height="40.84" fill="#231f20"/>
  <rect x="303.32" y="303.4" width="40.84" height="40.84" fill="#231f20"/>
  <rect x="606.24" y="173.68" width="40.84" height="40.84" fill="#231f20"/>
  <rect x="606.24" y="130.59" width="40.84" height="40.84" fill="#231f20"/>
  <rect x="606.24" y="87.49" width="40.84" height="40.84" fill="#231f20"/>
  <rect x="519.6" y="864.45" width="40.84" height="40.84" fill="#231f20"/>
  <rect x="865.54" y="389.89" width="40.84" height="40.84" fill="#231f20"/>
  <rect x="865.54" y="346.8" width="40.84" height="40.84" fill="#231f20"/>
  <rect x="865.54" y="303.7" width="40.84" height="40.84" fill="#231f20"/>
  <rect x="174.34" y="432.69" width="40.84" height="40.84" fill="#231f20"/>
  <rect x="174.34" y="475.78" width="40.84" height="40.84" fill="#231f20"/>
  <rect x="174.34" y="1.72" width="40.84" height="40.84" fill="#231f20"/>
  <rect x="174.34" y="44.82" width="40.84" height="40.84" fill="#231f20"/>
  <rect x="174.34" y="87.91" width="40.84" height="40.84" fill="#231f20"/>
  <rect x="174.34" y="518.88" width="40.84" height="40.84" fill="#231f20"/>
  <rect x="174.34" y="561.98" width="40.84" height="40.84" fill="#231f20"/>
  <rect x="174.34" y="605.88" width="40.84" height="40.84" fill="#231f20"/>
  <rect x="174.34" y="648.98" width="40.84" height="40.84" fill="#231f20"/>
  <rect x="174.34" y="692.07" width="40.84" height="40.84" fill="#231f20"/>
  <rect x="174.34" y="735.17" width="40.84" height="40.84" fill="#231f20"/>
  <rect x="174.34" y="821.36" width="40.84" height="40.84" fill="#231f20"/>
  <rect x="174.34" y="864.45" width="40.84" height="40.84" fill="#231f20"/>
  <rect x="174.34" y="907.55" width="40.84" height="40.84" fill="#231f20"/>
  <rect x="174.34" y="951.1" width="40.84" height="40.84" fill="#231f20"/>
  <rect x="174.34" y="1037.44" width="40.84" height="40.84" fill="#231f20"/>
  <rect x="217.33" y="1037.44" width="40.84" height="40.84" fill="#231f20"/>
  <rect x="174.34" y="994.65" width="40.84" height="40.84" fill="#231f20"/>
  <rect x="260.32" y="216.73" width="40.84" height="40.84" fill="#231f20"/>
  <rect x="260.32" y="173.16" width="40.84" height="40.84" fill="#231f20"/>
  <rect x="231.05" y="230.93" width="13.39" height="13.39" fill="#231f20"/>
  <rect x="231.05" y="317.13" width="13.39" height="13.39" fill="#231f20"/>
  <rect x="274.05" y="317.13" width="13.39" height="13.39" fill="#231f20"/>
  <rect x="835.38" y="317.13" width="13.39" height="13.39" fill="#231f20"/>
  <rect x="879.56" y="272.95" width="13.39" height="13.39" fill="#231f20"/>
  <rect x="879.56" y="230.3" width="13.39" height="13.39" fill="#231f20"/>
  <rect x="879.56" y="187.65" width="13.39" height="13.39" fill="#231f20"/>
  <rect x="879.56" y="145" width="13.39" height="13.39" fill="#231f20"/>
  <rect x="879.56" y="101.22" width="13.39" height="13.39" fill="#231f20"/>
  <rect x="879.56" y="57.18" width="13.39" height="13.39" fill="#231f20"/>
  <rect x="879.56" y="13.13" width="13.39" height="13.39" fill="#231f20"/>
  <rect x="835.38" y="272.95" width="13.39" height="13.39" fill="#231f20"/>
  <rect x="662.47" y="272.95" width="13.39" height="13.39" fill="#231f20"/>
  <rect x="662.47" y="230.3" width="13.39" height="13.39" fill="#231f20"/>
  <rect x="619.96" y="230.3" width="13.39" height="13.39" fill="#231f20"/>
  <rect x="662.47" y="187.65" width="13.39" height="13.39" fill="#231f20"/>
  <rect x="662.47" y="145" width="13.39" height="13.39" fill="#231f20"/>
  <rect x="662.47" y="101.22" width="13.39" height="13.39" fill="#231f20"/>
  <rect x="662.47" y="57.18" width="13.39" height="13.39" fill="#231f20"/>
  <rect x="662.47" y="13.13" width="13.39" height="13.39" fill="#231f20"/>
  <rect x="706.65" y="230.3" width="13.39" height="13.39" fill="#231f20"/>
  <rect x="706.65" y="187.65" width="13.39" height="13.39" fill="#231f20"/>
  <rect x="706.65" y="145" width="13.39" height="13.39" fill="#231f20"/>
  <rect x="706.65" y="101.22" width="13.39" height="13.39" fill="#231f20"/>
  <rect x="706.65" y="57.18" width="13.39" height="13.39" fill="#231f20"/>
  <rect x="706.65" y="13.13" width="13.39" height="13.39" fill="#231f20"/>
  <rect x="576.04" y="57.18" width="13.39" height="13.39" fill="#231f20"/>
  <rect x="576.04" y="13.13" width="13.39" height="13.39" fill="#231f20"/>
  <rect x="620.21" y="57.18" width="13.39" height="13.39" fill="#231f20"/>
  <rect x="620.21" y="13.13" width="13.39" height="13.39" fill="#231f20"/>
  <rect x="487.68" y="57.18" width="13.39" height="13.39" fill="#231f20"/>
  <rect x="487.68" y="13.13" width="13.39" height="13.39" fill="#231f20"/>
  <rect x="531.86" y="57.18" width="13.39" height="13.39" fill="#231f20"/>
  <rect x="531.86" y="13.13" width="13.39" height="13.39" fill="#231f20"/>
  <rect x="403.24" y="57.18" width="13.39" height="13.39" fill="#231f20"/>
  <rect x="403.24" y="13.13" width="13.39" height="13.39" fill="#231f20"/>
  <rect x="447.41" y="57.18" width="13.39" height="13.39" fill="#231f20"/>
  <rect x="447.41" y="13.13" width="13.39" height="13.39" fill="#231f20"/>
  <rect x="576.04" y="146.33" width="13.39" height="13.39" fill="#231f20"/>
  <rect x="576.04" y="102.29" width="13.39" height="13.39" fill="#231f20"/>
  <rect x="487.68" y="146.33" width="13.39" height="13.39" fill="#231f20"/>
  <rect x="487.68" y="102.29" width="13.39" height="13.39" fill="#231f20"/>
  <rect x="531.86" y="146.33" width="13.39" height="13.39" fill="#231f20"/>
  <rect x="531.86" y="102.29" width="13.39" height="13.39" fill="#231f20"/>
  <rect x="403.24" y="146.33" width="13.39" height="13.39" fill="#231f20"/>
  <rect x="403.24" y="102.29" width="13.39" height="13.39" fill="#231f20"/>
  <rect x="447.41" y="146.33" width="13.39" height="13.39" fill="#231f20"/>
  <rect x="447.41" y="102.29" width="13.39" height="13.39" fill="#231f20"/>
  <rect x="576.04" y="231.07" width="13.39" height="13.39" fill="#231f20"/>
  <rect x="576.04" y="187.03" width="13.39" height="13.39" fill="#231f20"/>
  <rect x="487.68" y="231.07" width="13.39" height="13.39" fill="#231f20"/>
  <rect x="487.68" y="187.03" width="13.39" height="13.39" fill="#231f20"/>
  <rect x="531.86" y="231.07" width="13.39" height="13.39" fill="#231f20"/>
  <rect x="531.86" y="187.03" width="13.39" height="13.39" fill="#231f20"/>
  <rect x="403.24" y="231.07" width="13.39" height="13.39" fill="#231f20"/>
  <rect x="403.24" y="187.03" width="13.39" height="13.39" fill="#231f20"/>
  <rect x="447.41" y="231.07" width="13.39" height="13.39" fill="#231f20"/>
  <rect x="447.41" y="187.03" width="13.39" height="13.39" fill="#231f20"/>
  <rect x="576.04" y="275.06" width="13.39" height="13.39" fill="#231f20"/>
  <rect x="487.68" y="275.06" width="13.39" height="13.39" fill="#231f20"/>
  <rect x="531.86" y="275.06" width="13.39" height="13.39" fill="#231f20"/>
  <rect x="403.24" y="275.06" width="13.39" height="13.39" fill="#231f20"/>
  <rect x="447.41" y="275.06" width="13.39" height="13.39" fill="#231f20"/>
  <rect x="576.04" y="359.8" width="13.39" height="13.39" fill="#231f20"/>
  <rect x="576.04" y="315.75" width="13.39" height="13.39" fill="#231f20"/>
  <rect x="487.68" y="359.8" width="13.39" height="13.39" fill="#231f20"/>
  <rect x="487.68" y="315.75" width="13.39" height="13.39" fill="#231f20"/>
  <rect x="531.86" y="359.8" width="13.39" height="13.39" fill="#231f20"/>
  <rect x="531.86" y="315.75" width="13.39" height="13.39" fill="#231f20"/>
  <rect x="403.24" y="359.8" width="13.39" height="13.39" fill="#231f20"/>
  <rect x="403.24" y="315.75" width="13.39" height="13.39" fill="#231f20"/>
  <rect x="447.41" y="359.8" width="13.39" height="13.39" fill="#231f20"/>
  <rect x="447.41" y="315.75" width="13.39" height="13.39" fill="#231f20"/>
  <rect x="618.29" y="272.95" width="13.39" height="13.39" fill="#231f20"/>
  <rect x="662.47" y="360.22" width="13.39" height="13.39" fill="#231f20"/>
  <rect x="662.47" y="317.57" width="13.39" height="13.39" fill="#231f20"/>
  <rect x="619.96" y="317.57" width="13.39" height="13.39" fill="#231f20"/>
  <rect x="618.29" y="360.22" width="13.39" height="13.39" fill="#231f20"/>
  <rect x="662.47" y="445.94" width="13.39" height="13.39" fill="#231f20"/>
  <rect x="662.47" y="403.29" width="13.39" height="13.39" fill="#231f20"/>
  <rect x="619.96" y="403.29" width="13.39" height="13.39" fill="#231f20"/>
  <rect x="576.04" y="404.06" width="13.39" height="13.39" fill="#231f20"/>
  <rect x="487.68" y="404.06" width="13.39" height="13.39" fill="#231f20"/>
  <rect x="531.86" y="404.06" width="13.39" height="13.39" fill="#231f20"/>
  <rect x="403.24" y="404.06" width="13.39" height="13.39" fill="#231f20"/>
  <rect x="447.41" y="404.06" width="13.39" height="13.39" fill="#231f20"/>
  <rect x="576.04" y="448.04" width="13.39" height="13.39" fill="#231f20"/>
  <rect x="487.68" y="448.04" width="13.39" height="13.39" fill="#231f20"/>
  <rect x="531.86" y="448.04" width="13.39" height="13.39" fill="#231f20"/>
  <rect x="403.24" y="448.04" width="13.39" height="13.39" fill="#231f20"/>
  <rect x="447.41" y="448.04" width="13.39" height="13.39" fill="#231f20"/>
  <rect x="576.04" y="532.78" width="13.39" height="13.39" fill="#231f20"/>
  <rect x="576.04" y="488.74" width="13.39" height="13.39" fill="#231f20"/>
  <rect x="487.68" y="532.78" width="13.39" height="13.39" fill="#231f20"/>
  <rect x="487.68" y="488.74" width="13.39" height="13.39" fill="#231f20"/>
  <rect x="531.86" y="532.78" width="13.39" height="13.39" fill="#231f20"/>
  <rect x="531.86" y="488.74" width="13.39" height="13.39" fill="#231f20"/>
  <rect x="403.24" y="532.78" width="13.39" height="13.39" fill="#231f20"/>
  <rect x="403.24" y="488.74" width="13.39" height="13.39" fill="#231f20"/>
  <rect x="447.41" y="532.78" width="13.39" height="13.39" fill="#231f20"/>
  <rect x="447.41" y="488.74" width="13.39" height="13.39" fill="#231f20"/>
  <rect x="618.29" y="445.94" width="13.39" height="13.39" fill="#231f20"/>
  <rect x="662.47" y="533.21" width="13.39" height="13.39" fill="#231f20"/>
  <rect x="662.47" y="490.56" width="13.39" height="13.39" fill="#231f20"/>
  <rect x="619.96" y="490.56" width="13.39" height="13.39" fill="#231f20"/>
  <rect x="618.29" y="533.21" width="13.39" height="13.39" fill="#231f20"/>
  <rect x="662.47" y="575.97" width="13.39" height="13.39" fill="#231f20"/>
  <rect x="576.04" y="578.08" width="13.39" height="13.39" fill="#231f20"/>
  <rect x="487.68" y="578.08" width="13.39" height="13.39" fill="#231f20"/>
  <rect x="531.86" y="578.08" width="13.39" height="13.39" fill="#231f20"/>
  <rect x="403.24" y="578.08" width="13.39" height="13.39" fill="#231f20"/>
  <rect x="447.41" y="578.08" width="13.39" height="13.39" fill="#231f20"/>
  <rect x="576.04" y="662.81" width="13.39" height="13.39" fill="#231f20"/>
  <rect x="576.04" y="618.77" width="13.39" height="13.39" fill="#231f20"/>
  <rect x="487.68" y="662.81" width="13.39" height="13.39" fill="#231f20"/>
  <rect x="487.68" y="618.77" width="13.39" height="13.39" fill="#231f20"/>
  <rect x="531.86" y="662.81" width="13.39" height="13.39" fill="#231f20"/>
  <rect x="531.86" y="618.77" width="13.39" height="13.39" fill="#231f20"/>
  <rect x="403.24" y="662.81" width="13.39" height="13.39" fill="#231f20"/>
  <rect x="403.24" y="618.77" width="13.39" height="13.39" fill="#231f20"/>
  <rect x="447.41" y="662.81" width="13.39" height="13.39" fill="#231f20"/>
  <rect x="447.41" y="618.77" width="13.39" height="13.39" fill="#231f20"/>
  <rect x="618.29" y="575.97" width="13.39" height="13.39" fill="#231f20"/>
  <rect x="662.47" y="663.24" width="13.39" height="13.39" fill="#231f20"/>
  <rect x="662.47" y="620.59" width="13.39" height="13.39" fill="#231f20"/>
  <rect x="619.96" y="620.59" width="13.39" height="13.39" fill="#231f20"/>
  <rect x="618.29" y="663.24" width="13.39" height="13.39" fill="#231f20"/>
  <rect x="662.47" y="704.69" width="13.39" height="13.39" fill="#231f20"/>
  <rect x="576.04" y="706.79" width="13.39" height="13.39" fill="#231f20"/>
  <rect x="487.68" y="706.79" width="13.39" height="13.39" fill="#231f20"/>
  <rect x="531.86" y="706.79" width="13.39" height="13.39" fill="#231f20"/>
  <rect x="403.24" y="706.79" width="13.39" height="13.39" fill="#231f20"/>
  <rect x="447.41" y="706.79" width="13.39" height="13.39" fill="#231f20"/>
  <rect x="576.04" y="791.53" width="13.39" height="13.39" fill="#231f20"/>
  <rect x="576.04" y="747.49" width="13.39" height="13.39" fill="#231f20"/>
  <rect x="487.68" y="791.53" width="13.39" height="13.39" fill="#231f20"/>
  <rect x="487.68" y="747.49" width="13.39" height="13.39" fill="#231f20"/>
  <rect x="531.86" y="791.53" width="13.39" height="13.39" fill="#231f20"/>
  <rect x="531.86" y="747.49" width="13.39" height="13.39" fill="#231f20"/>
  <rect x="403.24" y="791.53" width="13.39" height="13.39" fill="#231f20"/>
  <rect x="403.24" y="747.49" width="13.39" height="13.39" fill="#231f20"/>
  <rect x="447.41" y="791.53" width="13.39" height="13.39" fill="#231f20"/>
  <rect x="447.41" y="747.49" width="13.39" height="13.39" fill="#231f20"/>
  <rect x="618.29" y="704.69" width="13.39" height="13.39" fill="#231f20"/>
  <rect x="662.47" y="791.96" width="13.39" height="13.39" fill="#231f20"/>
  <rect x="662.47" y="749.31" width="13.39" height="13.39" fill="#231f20"/>
  <rect x="619.96" y="749.31" width="13.39" height="13.39" fill="#231f20"/>
  <rect x="618.29" y="791.96" width="13.39" height="13.39" fill="#231f20"/>
  <rect x="576.04" y="834.87" width="13.39" height="13.39" fill="#231f20"/>
  <rect x="487.68" y="834.87" width="13.39" height="13.39" fill="#231f20"/>
  <rect x="531.86" y="834.87" width="13.39" height="13.39" fill="#231f20"/>
  <rect x="531.86" y="925.33" width="13.39" height="13.39" fill="#231f20"/>
  <rect x="531.86" y="1010.07" width="13.39" height="13.39" fill="#231f20"/>
  <rect x="531.86" y="966.03" width="13.39" height="13.39" fill="#231f20"/>
  <rect x="531.86" y="1053.41" width="13.39" height="13.39" fill="#231f20"/>
  <rect x="403.24" y="834.87" width="13.39" height="13.39" fill="#231f20"/>
  <rect x="447.41" y="834.87" width="13.39" height="13.39" fill="#231f20"/>
  <rect x="662.47" y="835.3" width="13.39" height="13.39" fill="#231f20"/>
  <rect x="618.29" y="835.3" width="13.39" height="13.39" fill="#231f20"/>
  <rect x="576.04" y="880.89" width="13.39" height="13.39" fill="#231f20"/>
  <rect x="662.47" y="881.32" width="13.39" height="13.39" fill="#231f20"/>
  <rect x="618.29" y="881.32" width="13.39" height="13.39" fill="#231f20"/>
  <rect x="662.47" y="922.76" width="13.39" height="13.39" fill="#231f20"/>
  <rect x="576.04" y="924.87" width="13.39" height="13.39" fill="#231f20"/>
  <rect x="576.04" y="1009.61" width="13.39" height="13.39" fill="#231f20"/>
  <rect x="576.04" y="965.56" width="13.39" height="13.39" fill="#231f20"/>
  <rect x="618.29" y="922.76" width="13.39" height="13.39" fill="#231f20"/>
  <rect x="662.47" y="1010.03" width="13.39" height="13.39" fill="#231f20"/>
  <rect x="662.47" y="967.38" width="13.39" height="13.39" fill="#231f20"/>
  <rect x="619.96" y="967.38" width="13.39" height="13.39" fill="#231f20"/>
  <rect x="618.29" y="1010.03" width="13.39" height="13.39" fill="#231f20"/>
  <rect x="576.04" y="1052.94" width="13.39" height="13.39" fill="#231f20"/>
  <rect x="662.47" y="1053.37" width="13.39" height="13.39" fill="#231f20"/>
  <rect x="618.29" y="1053.37" width="13.39" height="13.39" fill="#231f20"/>
  <rect x="403.27" y="880.89" width="13.39" height="13.39" fill="#231f20"/>
  <rect x="489.7" y="881.32" width="13.39" height="13.39" fill="#231f20"/>
  <rect x="445.52" y="881.32" width="13.39" height="13.39" fill="#231f20"/>
  <rect x="489.7" y="922.76" width="13.39" height="13.39" fill="#231f20"/>
  <rect x="403.27" y="924.87" width="13.39" height="13.39" fill="#231f20"/>
  <rect x="403.27" y="1009.61" width="13.39" height="13.39" fill="#231f20"/>
  <rect x="403.27" y="965.56" width="13.39" height="13.39" fill="#231f20"/>
  <rect x="445.52" y="922.76" width="13.39" height="13.39" fill="#231f20"/>
  <rect x="489.7" y="1010.03" width="13.39" height="13.39" fill="#231f20"/>
  <rect x="489.7" y="967.38" width="13.39" height="13.39" fill="#231f20"/>
  <rect x="447.19" y="967.38" width="13.39" height="13.39" fill="#231f20"/>
  <rect x="445.52" y="1010.03" width="13.39" height="13.39" fill="#231f20"/>
  <rect x="403.27" y="1052.94" width="13.39" height="13.39" fill="#231f20"/>
  <rect x="360.75" y="57.18" width="13.39" height="13.39" fill="#231f20"/>
  <rect x="360.75" y="13.13" width="13.39" height="13.39" fill="#231f20"/>
  <rect x="360.75" y="146.33" width="13.39" height="13.39" fill="#231f20"/>
  <rect x="360.75" y="102.29" width="13.39" height="13.39" fill="#231f20"/>
  <rect x="360.75" y="231.07" width="13.39" height="13.39" fill="#231f20"/>
  <rect x="360.75" y="187.03" width="13.39" height="13.39" fill="#231f20"/>
  <rect x="360.75" y="275.06" width="13.39" height="13.39" fill="#231f20"/>
  <rect x="360.75" y="359.8" width="13.39" height="13.39" fill="#231f20"/>
  <rect x="360.75" y="315.75" width="13.39" height="13.39" fill="#231f20"/>
  <rect x="360.75" y="404.06" width="13.39" height="13.39" fill="#231f20"/>
  <rect x="360.75" y="448.04" width="13.39" height="13.39" fill="#231f20"/>
  <rect x="360.75" y="532.78" width="13.39" height="13.39" fill="#231f20"/>
  <rect x="360.75" y="488.74" width="13.39" height="13.39" fill="#231f20"/>
  <rect x="360.75" y="578.08" width="13.39" height="13.39" fill="#231f20"/>
  <rect x="231.05" y="532.78" width="13.39" height="13.39" fill="#231f20"/>
  <rect x="231.05" y="578.08" width="13.39" height="13.39" fill="#231f20"/>
  <rect x="274.05" y="578.08" width="13.39" height="13.39" fill="#231f20"/>
  <rect x="360.75" y="662.81" width="13.39" height="13.39" fill="#231f20"/>
  <rect x="360.75" y="618.77" width="13.39" height="13.39" fill="#231f20"/>
  <rect x="274.68" y="618.77" width="13.39" height="13.39" fill="#231f20"/>
  <rect x="360.75" y="706.79" width="13.39" height="13.39" fill="#231f20"/>
  <rect x="360.75" y="791.53" width="13.39" height="13.39" fill="#231f20"/>
  <rect x="360.75" y="747.49" width="13.39" height="13.39" fill="#231f20"/>
  <rect x="360.75" y="834.87" width="13.39" height="13.39" fill="#231f20"/>
  <rect x="360.78" y="880.89" width="13.39" height="13.39" fill="#231f20"/>
  <rect x="360.78" y="924.87" width="13.39" height="13.39" fill="#231f20"/>
  <rect x="360.78" y="1009.61" width="13.39" height="13.39" fill="#231f20"/>
  <rect x="360.78" y="965.56" width="13.39" height="13.39" fill="#231f20"/>
  <rect x="360.78" y="1052.94" width="13.39" height="13.39" fill="#231f20"/>
  <rect x="489.7" y="1053.37" width="13.39" height="13.39" fill="#231f20"/>
  <rect x="445.52" y="1053.37" width="13.39" height="13.39" fill="#231f20"/>
  <rect x="835.38" y="360.52" width="13.39" height="13.39" fill="#231f20"/>
  <rect x="835.38" y="403.62" width="13.39" height="13.39" fill="#231f20"/>
  <rect x="835.38" y="447.59" width="13.39" height="13.39" fill="#231f20"/>
  <rect x="879.26" y="447.59" width="13.39" height="13.39" fill="#231f20"/>
  <rect x="879.26" y="490.06" width="13.39" height="13.39" fill="#231f20"/>
  <rect x="879.26" y="533.83" width="13.39" height="13.39" fill="#231f20"/>
  <rect x="879.26" y="577.6" width="13.39" height="13.39" fill="#231f20"/>
  <rect x="879.26" y="620.23" width="13.39" height="13.39" fill="#231f20"/>
  <rect x="879.26" y="664" width="13.39" height="13.39" fill="#231f20"/>
  <rect x="835.38" y="577.6" width="13.39" height="13.39" fill="#231f20"/>
  <rect x="835.38" y="619.13" width="13.39" height="13.39" fill="#231f20"/>
  <rect x="835.38" y="663.17" width="13.39" height="13.39" fill="#231f20"/>
  <rect x="835.38" y="706.8" width="13.39" height="13.39" fill="#231f20"/>
  <rect x="835.38" y="748.32" width="13.39" height="13.39" fill="#231f20"/>
  <rect x="835.38" y="792.36" width="13.39" height="13.39" fill="#231f20"/>
  <rect x="835.38" y="833.48" width="13.39" height="13.39" fill="#231f20"/>
  <rect x="835.38" y="877.52" width="13.39" height="13.39" fill="#231f20"/>
  <rect x="835.38" y="921.57" width="13.39" height="13.39" fill="#231f20"/>
  <rect x="835.38" y="965.61" width="13.39" height="13.39" fill="#231f20"/>
  <rect x="835.38" y="1007.83" width="13.39" height="13.39" fill="#231f20"/>
  <rect x="835.38" y="1051.87" width="13.39" height="13.39" fill="#231f20"/>
  <rect x="274.05" y="360.22" width="13.39" height="13.39" fill="#231f20"/>
  <rect x="231.05" y="403.32" width="13.39" height="13.39" fill="#231f20"/>
  <rect x="274.05" y="446.41" width="13.39" height="13.39" fill="#231f20"/>
  <rect x="188.06" y="791.99" width="13.39" height="13.39" fill="#231f20"/>
  <rect x="274.68" y="705.8" width="13.39" height="13.39" fill="#231f20"/>
  <rect x="318.3" y="705.8" width="13.39" height="13.39" fill="#231f20"/>
  <rect x="231.05" y="1008.38" width="13.39" height="13.39" fill="#231f20"/>
  <rect x="231.05" y="964.82" width="13.39" height="13.39" fill="#231f20"/>
  <rect x="274.68" y="1008.38" width="13.39" height="13.39" fill="#231f20"/>
  <rect x="274.68" y="1051.16" width="13.39" height="13.39" fill="#231f20"/>
  <rect x="145.07" y="1008.38" width="13.39" height="13.39" fill="#231f20"/>
  <rect x="145.07" y="1051.16" width="13.39" height="13.39" fill="#231f20"/>
  <rect x="145.07" y="922.06" width="13.39" height="13.39" fill="#231f20"/>
  <rect x="145.07" y="964.84" width="13.39" height="13.39" fill="#231f20"/>
  <rect x="145.07" y="704.89" width="13.39" height="13.39" fill="#231f20"/>
  <rect x="145.07" y="747.67" width="13.39" height="13.39" fill="#231f20"/>
  <rect x="145.07" y="618.57" width="13.39" height="13.39" fill="#231f20"/>
  <rect x="145.07" y="577.6" width="13.39" height="13.39" fill="#231f20"/>
  <rect x="145.07" y="661.36" width="13.39" height="13.39" fill="#231f20"/>
  <rect x="145.07" y="490.86" width="13.39" height="13.39" fill="#231f20"/>
  <rect x="145.07" y="533.64" width="13.39" height="13.39" fill="#231f20"/>
  <rect x="145.07" y="404.54" width="13.39" height="13.39" fill="#231f20"/>
  <rect x="145.07" y="447.32" width="13.39" height="13.39" fill="#231f20"/>
  <rect x="145.07" y="273.05" width="13.39" height="13.39" fill="#231f20"/>
  <rect x="145.07" y="315.84" width="13.39" height="13.39" fill="#231f20"/>
  <rect x="145.07" y="102.92" width="13.39" height="13.39" fill="#231f20"/>
  <rect x="145.07" y="145.7" width="13.39" height="13.39" fill="#231f20"/>
  <rect x="145.07" y="185.91" width="13.39" height="13.39" fill="#231f20"/>
  <rect x="145.07" y="228.7" width="13.39" height="13.39" fill="#231f20"/>
  <rect x="231.05" y="186.88" width="13.39" height="13.39" fill="#231f20"/>
  <rect x="274.05" y="144.73" width="13.39" height="13.39" fill="#231f20"/>
  <rect x="274.05" y="101.64" width="13.39" height="13.39" fill="#231f20"/>
  <rect x="274.05" y="57.28" width="13.39" height="13.39" fill="#231f20"/>
  <rect x="231.05" y="57.28" width="13.39" height="13.39" fill="#231f20"/>
  <rect x="317.04" y="101.64" width="13.39" height="13.39" fill="#231f20"/>
  <rect x="188.06" y="186.88" width="13.39" height="13.39" fill="#231f20"/>
</svg>