<?xml version="1.0" encoding="UTF-8"?>
<svg id="_12" data-name="12" xmlns="http://www.w3.org/2000/svg" viewBox="0 0 1080 1080">
  <rect x="652.09" y="351.59" width="40.84" height="40.84" fill="#231f20"/>
  <rect x="695.03" y="351.59" width="40.84" height="40.84" fill="#231f20"/>
  <rect x="652.09" y="394.69" width="40.84" height="40.84" fill="#231f20"/>
  <rect x="695.03" y="394.69" width="40.84" height="40.84" fill="#231f20"/>
  <rect x="781.62" y="437.78" width="40.84" height="40.84" fill="#231f20"/>
  <rect x="652.09" y="308.5" width="40.84" height="40.84" fill="#231f20"/>
  <rect x="695.03" y="308.5" width="40.84" height="40.84" fill="#231f20"/>
  <rect x="609.15" y="351.59" width="40.84" height="40.84" fill="#231f20"/>
  <rect x="307.02" y="179.26" width="40.84" height="40.84" fill="#231f20"/>
  <rect x="307.02" y="136.27" width="40.84" height="40.84" fill="#231f20"/>
  <rect x="263.4" y="136.27" width="40.84" height="40.84" fill="#231f20"/>
  <rect x="263.4" y="179.26" width="40.84" height="40.84" fill="#231f20"/>
  <rect x="307.02" y="222.26" width="40.84" height="40.84" fill="#231f20"/>
  <rect x="263.4" y="222.26" width="40.84" height="40.84" fill="#231f20"/>
  <rect x="753.09" y="452.73" width="13.39" height="13.39" fill="#231f20"/>
  <rect x="708.75" y="452.73" width="13.39" height="13.39" fill="#231f20"/>
  <rect x="839.6" y="452.73" width="13.39" height="13.39" fill="#231f20"/>
  <rect x="320.75" y="409.79" width="13.39" height="13.39" fill="#231f20"/>
  <rect x="320.75" y="451.51" width="13.39" height="13.39" fill="#231f20"/>
  <rect x="363.8" y="409.79" width="13.39" height="13.39" fill="#231f20"/>
  <rect x="363.8" y="452.57" width="13.39" height="13.39" fill="#231f20"/>
  <rect x="406.85" y="323.5" width="13.39" height="13.39" fill="#231f20"/>
  <rect x="450" y="322.22" width="13.39" height="13.39" fill="#231f20"/>
  <rect x="450" y="364.49" width="13.39" height="13.39" fill="#231f20"/>
  <rect x="406.85" y="366.29" width="13.39" height="13.39" fill="#231f20"/>
  <rect x="363.8" y="495.36" width="13.39" height="13.39" fill="#231f20"/>
  <rect x="363.8" y="150.21" width="13.39" height="13.39" fill="#231f20"/>
  <rect x="363.8" y="192.99" width="13.39" height="13.39" fill="#231f20"/>
  <rect x="406.85" y="149.71" width="13.39" height="13.39" fill="#231f20"/>
  <rect x="450" y="19.95" width="13.39" height="13.39" fill="#231f20"/>
  <rect x="406.85" y="192.49" width="13.39" height="13.39" fill="#231f20"/>
  <rect x="363.8" y="235.77" width="13.39" height="13.39" fill="#231f20"/>
  <rect x="363.8" y="580.92" width="13.39" height="13.39" fill="#231f20"/>
  <rect x="405.95" y="580.92" width="13.39" height="13.39" fill="#231f20"/>
  <rect x="405.95" y="538.3" width="13.39" height="13.39" fill="#231f20"/>
  <rect x="450.66" y="580.92" width="13.39" height="13.39" fill="#231f20"/>
  <rect x="450.66" y="538.3" width="13.39" height="13.39" fill="#231f20"/>
  <rect x="405.95" y="495.68" width="13.39" height="13.39" fill="#231f20"/>
  <rect x="363.8" y="624.97" width="13.39" height="13.39" fill="#231f20"/>
  <rect x="363.8" y="667.48" width="13.39" height="13.39" fill="#231f20"/>
  <rect x="191.41" y="667.48" width="13.39" height="13.39" fill="#231f20"/>
  <rect x="191.41" y="709.99" width="13.39" height="13.39" fill="#231f20"/>
  <rect x="235.03" y="667.48" width="13.39" height="13.39" fill="#231f20"/>
  <rect x="235.03" y="709.99" width="13.39" height="13.39" fill="#231f20"/>
  <rect x="363.8" y="711.52" width="13.39" height="13.39" fill="#231f20"/>
  <rect x="363.8" y="798.08" width="13.39" height="13.39" fill="#231f20"/>
  <rect x="320.45" y="798.08" width="13.39" height="13.39" fill="#231f20"/>
  <rect x="363.8" y="842.12" width="13.39" height="13.39" fill="#231f20"/>
  <rect x="407.15" y="798.08" width="13.39" height="13.39" fill="#231f20"/>
  <rect x="407.15" y="842.12" width="13.39" height="13.39" fill="#231f20"/>
  <rect x="493.71" y="926.68" width="13.39" height="13.39" fill="#231f20"/>
  <rect x="450.66" y="926.68" width="13.39" height="13.39" fill="#231f20"/>
  <rect x="493.71" y="970.72" width="13.39" height="13.39" fill="#231f20"/>
  <rect x="625.26" y="626.38" width="13.39" height="13.39" fill="#231f20"/>
  <rect x="665.81" y="626.38" width="13.39" height="13.39" fill="#231f20"/>
  <rect x="665.81" y="580.92" width="13.39" height="13.39" fill="#231f20"/>
  <rect x="665.81" y="538.3" width="13.39" height="13.39" fill="#231f20"/>
  <rect x="579.98" y="538.3" width="13.39" height="13.39" fill="#231f20"/>
  <rect x="579.98" y="753.88" width="13.39" height="13.39" fill="#231f20"/>
  <rect x="625.26" y="670.42" width="13.39" height="13.39" fill="#231f20"/>
  <rect x="839.49" y="753.88" width="13.39" height="13.39" fill="#231f20"/>
  <rect x="839.49" y="797.92" width="13.39" height="13.39" fill="#231f20"/>
  <rect x="450.66" y="970.72" width="13.39" height="13.39" fill="#231f20"/>
  <rect x="492.44" y="1014.76" width="13.39" height="13.39" fill="#231f20"/>
  <rect x="797.6" y="926.68" width="13.39" height="13.39" fill="#231f20"/>
  <rect x="797.6" y="970.72" width="13.39" height="13.39" fill="#231f20"/>
  <rect x="967.83" y="926.68" width="13.39" height="13.39" fill="#231f20"/>
  <rect x="967.83" y="970.72" width="13.39" height="13.39" fill="#231f20"/>
  <rect x="1053.71" y="1014.76" width="13.39" height="13.39" fill="#231f20"/>
  <rect x="1053.71" y="1058.81" width="13.39" height="13.39" fill="#231f20"/>
  <rect x="796.33" y="1014.76" width="13.39" height="13.39" fill="#231f20"/>
  <rect x="449.39" y="1014.76" width="13.39" height="13.39" fill="#231f20"/>
  <rect x="321.33" y="926.68" width="13.39" height="13.39" fill="#231f20"/>
  <rect x="321.33" y="882.64" width="13.39" height="13.39" fill="#231f20"/>
  <rect x="363.14" y="882.64" width="13.39" height="13.39" fill="#231f20"/>
  <rect x="321.33" y="970.72" width="13.39" height="13.39" fill="#231f20"/>
  <rect x="321.33" y="1014.76" width="13.39" height="13.39" fill="#231f20"/>
  <rect x="191.41" y="926.68" width="13.39" height="13.39" fill="#231f20"/>
  <rect x="235.03" y="842.12" width="13.39" height="13.39" fill="#231f20"/>
  <rect x="192" y="842.12" width="13.39" height="13.39" fill="#231f20"/>
  <rect x="191.41" y="970.72" width="13.39" height="13.39" fill="#231f20"/>
  <rect x="191.41" y="1014.76" width="13.39" height="13.39" fill="#231f20"/>
  <rect x="363.8" y="970.72" width="13.39" height="13.39" fill="#231f20"/>
  <rect x="363.8" y="1014.76" width="13.39" height="13.39" fill="#231f20"/>
  <rect x="449.39" y="1056.29" width="13.39" height="13.39" fill="#231f20"/>
  <rect x="320.75" y="364.49" width="13.39" height="13.39" fill="#231f20"/>
  <rect x="277.12" y="409.79" width="13.39" height="13.39" fill="#231f20"/>
  <rect x="277.12" y="451.51" width="13.39" height="13.39" fill="#231f20"/>
  <rect x="277.12" y="495.68" width="13.39" height="13.39" fill="#231f20"/>
  <rect x="277.12" y="535.47" width="13.39" height="13.39" fill="#231f20"/>
  <rect x="277.12" y="364.49" width="13.39" height="13.39" fill="#231f20"/>
  <rect x="320.75" y="322.33" width="13.39" height="13.39" fill="#231f20"/>
  <rect x="320.75" y="279.24" width="13.39" height="13.39" fill="#231f20"/>
  <rect x="277.12" y="279.24" width="13.39" height="13.39" fill="#231f20"/>
  <rect x="235.6" y="279.24" width="13.39" height="13.39" fill="#231f20"/>
  <rect x="191.55" y="279.24" width="13.39" height="13.39" fill="#231f20"/>
  <rect x="147.93" y="279.24" width="13.39" height="13.39" fill="#231f20"/>
  <rect x="106.4" y="323.5" width="13.39" height="13.39" fill="#231f20"/>
  <rect x="60.25" y="364.09" width="13.39" height="13.39" fill="#231f20"/>
  <rect x="17.47" y="409.79" width="13.39" height="13.39" fill="#231f20"/>
  <rect x="277.12" y="322.33" width="13.39" height="13.39" fill="#231f20"/>
  <rect x="320.75" y="63.05" width="13.39" height="13.39" fill="#231f20"/>
  <rect x="320.75" y="19.95" width="13.39" height="13.39" fill="#231f20"/>
  <rect x="363.8" y="63.05" width="13.39" height="13.39" fill="#231f20"/>
  <rect x="363.8" y="19.95" width="13.39" height="13.39" fill="#231f20"/>
  <rect x="536.74" y="19.95" width="13.39" height="13.39" fill="#231f20"/>
  <rect x="536.74" y="63.05" width="13.39" height="13.39" fill="#231f20"/>
  <rect x="579.79" y="19.95" width="13.39" height="13.39" fill="#231f20"/>
  <rect x="621.77" y="19.95" width="13.39" height="13.39" fill="#231f20"/>
  <rect x="664.82" y="19.95" width="13.39" height="13.39" fill="#231f20"/>
  <rect x="277.12" y="19.95" width="13.39" height="13.39" fill="#231f20"/>
  <rect x="277.12" y="63.05" width="13.39" height="13.39" fill="#231f20"/>
  <rect x="235.6" y="63.05" width="13.39" height="13.39" fill="#231f20"/>
  <rect x="277.12" y="107.98" width="13.39" height="13.39" fill="#231f20"/>
  <rect x="320.75" y="107.98" width="13.39" height="13.39" fill="#231f20"/>
  <rect x="235.6" y="107.98" width="13.39" height="13.39" fill="#231f20"/>
  <rect x="235.6" y="150" width="13.39" height="13.39" fill="#231f20"/>
  <rect x="235.6" y="236.09" width="13.39" height="13.39" fill="#231f20"/>
  <rect x="753.09" y="408.41" width="13.39" height="13.39" fill="#231f20"/>
  <rect x="753.09" y="365.32" width="13.39" height="13.39" fill="#231f20"/>
  <rect x="795.34" y="323.5" width="13.39" height="13.39" fill="#231f20"/>
  <rect x="795.34" y="279.18" width="13.39" height="13.39" fill="#231f20"/>
  <rect x="795.34" y="236.09" width="13.39" height="13.39" fill="#231f20"/>
  <rect x="795.34" y="63.05" width="13.39" height="13.39" fill="#231f20"/>
  <rect x="752.24" y="63.05" width="13.39" height="13.39" fill="#231f20"/>
  <rect x="967.83" y="408.65" width="13.39" height="13.39" fill="#231f20"/>
  <rect x="967.83" y="452.57" width="13.39" height="13.39" fill="#231f20"/>
  <rect x="967.83" y="365.55" width="13.39" height="13.39" fill="#231f20"/>
  <rect x="1010.66" y="364.09" width="13.39" height="13.39" fill="#231f20"/>
  <rect x="1010.66" y="321" width="13.39" height="13.39" fill="#231f20"/>
  <rect x="622.87" y="322.22" width="13.39" height="13.39" fill="#231f20"/>
  <rect x="622.87" y="409.79" width="13.39" height="13.39" fill="#231f20"/>
</svg>