<?xml version="1.0" encoding="UTF-8"?>
<svg id="_13" data-name="13" xmlns="http://www.w3.org/2000/svg" viewBox="0 0 1080 1080">
  <rect x="476.18" y="865.15" width="40.84" height="40.84" fill="#231f20"/>
  <rect x="475.93" y="908.58" width="40.84" height="40.84" fill="#231f20"/>
  <rect x="476.18" y="951.69" width="40.84" height="40.84" fill="#231f20"/>
  <rect x="476.18" y="994.6" width="40.84" height="40.84" fill="#231f20"/>
  <rect x="476.18" y="1037.92" width="40.84" height="40.84" fill="#231f20"/>
  <rect x="519.52" y="865.15" width="40.84" height="40.84" fill="#231f20"/>
  <rect x="519.27" y="908.58" width="40.84" height="40.84" fill="#231f20"/>
  <rect x="519.52" y="951.69" width="40.84" height="40.84" fill="#231f20"/>
  <rect x="519.52" y="994.6" width="40.84" height="40.84" fill="#231f20"/>
  <rect x="562.36" y="865.15" width="40.84" height="40.84" fill="#231f20"/>
  <rect x="562.36" y="908.58" width="40.84" height="40.84" fill="#231f20"/>
  <rect x="562.36" y="951.69" width="40.84" height="40.84" fill="#231f20"/>
  <rect x="562.36" y="994.6" width="40.84" height="40.84" fill="#231f20"/>
  <rect x="562.36" y="1037.92" width="40.84" height="40.84" fill="#231f20"/>
  <rect x="605.7" y="865.15" width="40.84" height="40.84" fill="#231f20"/>
  <rect x="605.7" y="908.58" width="40.84" height="40.84" fill="#231f20"/>
  <rect x="605.7" y="951.69" width="40.84" height="40.84" fill="#231f20"/>
  <rect x="605.7" y="994.6" width="40.84" height="40.84" fill="#231f20"/>
  <rect x="475.93" y="692.48" width="40.84" height="40.84" fill="#231f20"/>
  <rect x="476.18" y="735.44" width="40.84" height="40.84" fill="#231f20"/>
  <rect x="476.18" y="778.59" width="40.84" height="40.84" fill="#231f20"/>
  <rect x="476.18" y="821.97" width="40.84" height="40.84" fill="#231f20"/>
  <rect x="519.27" y="692.48" width="40.84" height="40.84" fill="#231f20"/>
  <rect x="519.52" y="735.44" width="40.84" height="40.84" fill="#231f20"/>
  <rect x="519.52" y="778.59" width="40.84" height="40.84" fill="#231f20"/>
  <rect x="519.52" y="821.97" width="40.84" height="40.84" fill="#231f20"/>
  <rect x="562.11" y="692.48" width="40.84" height="40.84" fill="#231f20"/>
  <rect x="562.36" y="735.44" width="40.84" height="40.84" fill="#231f20"/>
  <rect x="562.36" y="778.59" width="40.84" height="40.84" fill="#231f20"/>
  <rect x="475.94" y="562.66" width="40.84" height="40.84" fill="#231f20"/>
  <rect x="476.18" y="606.01" width="40.84" height="40.84" fill="#231f20"/>
  <rect x="476.25" y="649.12" width="40.84" height="40.84" fill="#231f20"/>
  <rect x="519.28" y="562.66" width="40.84" height="40.84" fill="#231f20"/>
  <rect x="519.27" y="519.52" width="40.84" height="40.84" fill="#231f20"/>
  <rect x="519.34" y="476.26" width="40.84" height="40.84" fill="#231f20"/>
  <rect x="519.34" y="433.17" width="40.84" height="40.84" fill="#231f20"/>
  <rect x="519.52" y="606.01" width="40.84" height="40.84" fill="#231f20"/>
  <rect x="519.59" y="649.12" width="40.84" height="40.84" fill="#231f20"/>
  <rect x="476.44" y="519.52" width="40.84" height="40.84" fill="#231f20"/>
  <rect x="476.3" y="433.17" width="40.84" height="40.84" fill="#231f20"/>
  <rect x="519.34" y="389.81" width="40.84" height="40.84" fill="#231f20"/>
  <rect x="476.3" y="389.81" width="40.84" height="40.84" fill="#231f20"/>
  <rect x="605.79" y="389.81" width="40.84" height="40.84" fill="#231f20"/>
  <rect x="562.64" y="389.81" width="40.84" height="40.84" fill="#231f20"/>
  <rect x="562.64" y="346.51" width="40.84" height="40.84" fill="#231f20"/>
  <rect x="476.44" y="303.23" width="40.84" height="40.84" fill="#231f20"/>
  <rect x="476.44" y="260.63" width="40.84" height="40.84" fill="#231f20"/>
  <rect x="476.44" y="217.08" width="40.84" height="40.84" fill="#231f20"/>
  <rect x="476.44" y="174.04" width="40.84" height="40.84" fill="#231f20"/>
  <rect x="519.34" y="217.08" width="40.84" height="40.84" fill="#231f20"/>
  <rect x="519.34" y="174.04" width="40.84" height="40.84" fill="#231f20"/>
  <rect x="476.44" y="130.56" width="40.84" height="40.84" fill="#231f20"/>
  <rect x="476.44" y="87.31" width="40.84" height="40.84" fill="#231f20"/>
  <rect x="519.34" y="130.83" width="40.84" height="40.84" fill="#231f20"/>
  <rect x="519.34" y="87.31" width="40.84" height="40.84" fill="#231f20"/>
  <rect x="476.44" y="43.97" width="40.84" height="40.84" fill="#231f20"/>
  <rect x="476.44" y="1.24" width="40.84" height="40.84" fill="#231f20"/>
  <rect x="519.34" y="44.58" width="40.84" height="40.84" fill="#231f20"/>
  <rect x="562.41" y="130.9" width="40.84" height="40.84" fill="#231f20"/>
  <rect x="562.41" y="87.31" width="40.84" height="40.84" fill="#231f20"/>
  <rect x="562.41" y="44.58" width="40.84" height="40.84" fill="#231f20"/>
  <rect x="562.41" y="1.24" width="40.84" height="40.84" fill="#231f20"/>
  <rect x="562.36" y="606.01" width="40.84" height="40.84" fill="#231f20"/>
  <rect x="562.47" y="562.66" width="40.84" height="40.84" fill="#231f20"/>
  <rect x="562.43" y="649.12" width="40.84" height="40.84" fill="#231f20"/>
  <rect x="562.36" y="821.97" width="40.84" height="40.84" fill="#231f20"/>
  <rect x="605.98" y="692.48" width="40.84" height="40.84" fill="#231f20"/>
  <rect x="605.7" y="735.44" width="40.84" height="40.84" fill="#231f20"/>
  <rect x="605.7" y="778.59" width="40.84" height="40.84" fill="#231f20"/>
  <rect x="605.7" y="821.97" width="40.84" height="40.84" fill="#231f20"/>
  <rect x="619.02" y="661.42" width="13.39" height="13.39" fill="#231f20"/>
  <rect x="619.02" y="619.74" width="13.39" height="13.39" fill="#231f20"/>
  <rect x="620.17" y="576.38" width="13.39" height="13.39" fill="#231f20"/>
  <rect x="620.17" y="533.52" width="13.39" height="13.39" fill="#231f20"/>
  <rect x="620.17" y="490.41" width="13.39" height="13.39" fill="#231f20"/>
  <rect x="620.17" y="447.3" width="13.39" height="13.39" fill="#231f20"/>
  <rect x="620.17" y="360.64" width="13.39" height="13.39" fill="#231f20"/>
  <rect x="620.17" y="317.5" width="13.39" height="13.39" fill="#231f20"/>
  <rect x="620.17" y="274.35" width="13.39" height="13.39" fill="#231f20"/>
  <rect x="576.83" y="533.52" width="13.39" height="13.39" fill="#231f20"/>
  <rect x="576.83" y="490.41" width="13.39" height="13.39" fill="#231f20"/>
  <rect x="576.83" y="447.8" width="13.39" height="13.39" fill="#231f20"/>
  <rect x="491.16" y="490.41" width="13.39" height="13.39" fill="#231f20"/>
  <rect x="491.16" y="360.64" width="13.39" height="13.39" fill="#231f20"/>
  <rect x="533.45" y="274.35" width="13.39" height="13.39" fill="#231f20"/>
  <rect x="576.87" y="187.76" width="13.39" height="13.39" fill="#231f20"/>
  <rect x="618.52" y="143.95" width="13.39" height="13.39" fill="#231f20"/>
  <rect x="618.52" y="187.76" width="13.39" height="13.39" fill="#231f20"/>
  <rect x="618.52" y="102.43" width="13.39" height="13.39" fill="#231f20"/>
  <rect x="618.52" y="14.96" width="13.39" height="13.39" fill="#231f20"/>
  <rect x="534.38" y="14.96" width="13.39" height="13.39" fill="#231f20"/>
  <rect x="449.22" y="490.41" width="13.39" height="13.39" fill="#231f20"/>
  <rect x="620.17" y="1052.01" width="13.39" height="13.39" fill="#231f20"/>
  <rect x="533.06" y="1051.65" width="13.39" height="13.39" fill="#231f20"/>
</svg>