<?xml version="1.0" encoding="UTF-8"?>
<svg id="_14" data-name="14" xmlns="http://www.w3.org/2000/svg" viewBox="0 0 1080 1080">
  <rect x="560.87" y="477.42" width="40.84" height="40.84" fill="#231f20"/>
  <rect x="560.87" y="520.86" width="40.84" height="40.84" fill="#231f20"/>
  <rect x="560.87" y="563.99" width="40.84" height="40.84" fill="#231f20"/>
  <rect x="560.87" y="607" width="40.84" height="40.84" fill="#231f20"/>
  <rect x="560.87" y="305" width="40.84" height="40.84" fill="#231f20"/>
  <rect x="560.87" y="348.01" width="40.84" height="40.84" fill="#231f20"/>
  <rect x="560.87" y="391.16" width="40.84" height="40.84" fill="#231f20"/>
  <rect x="517.8" y="305" width="40.84" height="40.84" fill="#231f20"/>
  <rect x="517.8" y="348.01" width="40.84" height="40.84" fill="#231f20"/>
  <rect x="517.74" y="391.16" width="40.84" height="40.84" fill="#231f20"/>
  <rect x="474.73" y="305" width="40.84" height="40.84" fill="#231f20"/>
  <rect x="474.67" y="348.01" width="40.84" height="40.84" fill="#231f20"/>
  <rect x="474.67" y="391.16" width="40.84" height="40.84" fill="#231f20"/>
  <rect x="431.66" y="305" width="40.84" height="40.84" fill="#231f20"/>
  <rect x="431.21" y="348.01" width="40.84" height="40.84" fill="#231f20"/>
  <rect x="431.21" y="391.16" width="40.84" height="40.84" fill="#231f20"/>
  <rect x="388.59" y="305" width="40.84" height="40.84" fill="#231f20"/>
  <rect x="388.14" y="348.01" width="40.84" height="40.84" fill="#231f20"/>
  <rect x="388.14" y="391.16" width="40.84" height="40.84" fill="#231f20"/>
  <rect x="345.52" y="305" width="40.84" height="40.84" fill="#231f20"/>
  <rect x="345.07" y="348.01" width="40.84" height="40.84" fill="#231f20"/>
  <rect x="302.45" y="305" width="40.84" height="40.84" fill="#231f20"/>
  <rect x="301.74" y="348.01" width="40.84" height="40.84" fill="#231f20"/>
  <rect x="345.07" y="391.16" width="40.84" height="40.84" fill="#231f20"/>
  <rect x="388.14" y="434.18" width="40.84" height="40.84" fill="#231f20"/>
  <rect x="388.14" y="477.6" width="40.84" height="40.84" fill="#231f20"/>
  <rect x="431.21" y="434.18" width="40.84" height="40.84" fill="#231f20"/>
  <rect x="431.21" y="477.6" width="40.84" height="40.84" fill="#231f20"/>
  <rect x="388.14" y="520.86" width="40.84" height="40.84" fill="#231f20"/>
  <rect x="345.07" y="434.18" width="40.84" height="40.84" fill="#231f20"/>
  <rect x="345.07" y="477.6" width="40.84" height="40.84" fill="#231f20"/>
  <rect x="345.07" y="520.86" width="40.84" height="40.84" fill="#231f20"/>
  <rect x="301.61" y="563.37" width="40.84" height="40.84" fill="#231f20"/>
  <rect x="301.61" y="606.38" width="40.84" height="40.84" fill="#231f20"/>
  <rect x="215.34" y="434.04" width="40.84" height="40.84" fill="#231f20"/>
  <rect x="215.34" y="477.06" width="40.84" height="40.84" fill="#231f20"/>
  <rect x="215.34" y="520.07" width="40.84" height="40.84" fill="#231f20"/>
  <rect x="172.27" y="434.04" width="40.84" height="40.84" fill="#231f20"/>
  <rect x="172.27" y="391.03" width="40.84" height="40.84" fill="#231f20"/>
  <rect x="172.27" y="477.06" width="40.84" height="40.84" fill="#231f20"/>
  <rect x="172.27" y="520.07" width="40.84" height="40.84" fill="#231f20"/>
  <rect x="258.54" y="563.37" width="40.84" height="40.84" fill="#231f20"/>
  <rect x="258.54" y="606.38" width="40.84" height="40.84" fill="#231f20"/>
  <rect x="215.47" y="563.37" width="40.84" height="40.84" fill="#231f20"/>
  <rect x="215.47" y="606.38" width="40.84" height="40.84" fill="#231f20"/>
  <rect x="301.74" y="649.77" width="40.84" height="40.84" fill="#231f20"/>
  <rect x="301.74" y="692.78" width="40.84" height="40.84" fill="#231f20"/>
  <rect x="258.67" y="649.77" width="40.84" height="40.84" fill="#231f20"/>
  <rect x="258.67" y="692.78" width="40.84" height="40.84" fill="#231f20"/>
  <rect x="560.87" y="434.4" width="40.84" height="40.84" fill="#231f20"/>
  <rect x="560.87" y="132" width="40.84" height="40.84" fill="#231f20"/>
  <rect x="560.87" y="175.37" width="40.84" height="40.84" fill="#231f20"/>
  <rect x="560.87" y="218.39" width="40.84" height="40.84" fill="#231f20"/>
  <rect x="560.87" y="261.47" width="40.84" height="40.84" fill="#231f20"/>
  <rect x="517.8" y="132" width="40.84" height="40.84" fill="#231f20"/>
  <rect x="517.8" y="175.37" width="40.84" height="40.84" fill="#231f20"/>
  <rect x="517.8" y="218.39" width="40.84" height="40.84" fill="#231f20"/>
  <rect x="560.87" y="2.5" width="40.84" height="40.84" fill="#231f20"/>
  <rect x="560.87" y="45.52" width="40.84" height="40.84" fill="#231f20"/>
  <rect x="561.07" y="88.53" width="40.84" height="40.84" fill="#231f20"/>
  <rect x="517.8" y="2.5" width="40.84" height="40.84" fill="#231f20"/>
  <rect x="517.8" y="45.52" width="40.84" height="40.84" fill="#231f20"/>
  <rect x="518" y="88.53" width="40.84" height="40.84" fill="#231f20"/>
  <rect x="647.01" y="2.5" width="40.84" height="40.84" fill="#231f20"/>
  <rect x="647.01" y="45.52" width="40.84" height="40.84" fill="#231f20"/>
  <rect x="647.21" y="88.53" width="40.84" height="40.84" fill="#231f20"/>
  <rect x="603.94" y="2.5" width="40.84" height="40.84" fill="#231f20"/>
  <rect x="603.94" y="45.52" width="40.84" height="40.84" fill="#231f20"/>
  <rect x="604.14" y="88.53" width="40.84" height="40.84" fill="#231f20"/>
  <rect x="517.8" y="261.47" width="40.84" height="40.84" fill="#231f20"/>
  <rect x="474.54" y="132" width="40.84" height="40.84" fill="#231f20"/>
  <rect x="474.54" y="175.37" width="40.84" height="40.84" fill="#231f20"/>
  <rect x="474.54" y="218.39" width="40.84" height="40.84" fill="#231f20"/>
  <rect x="474.54" y="261.47" width="40.84" height="40.84" fill="#231f20"/>
  <rect x="431.47" y="132" width="40.84" height="40.84" fill="#231f20"/>
  <rect x="431.47" y="175.37" width="40.84" height="40.84" fill="#231f20"/>
  <rect x="431.47" y="218.39" width="40.84" height="40.84" fill="#231f20"/>
  <rect x="431.47" y="261.47" width="40.84" height="40.84" fill="#231f20"/>
  <rect x="172.14" y="131.55" width="40.84" height="40.84" fill="#231f20"/>
  <rect x="172.14" y="174.57" width="40.84" height="40.84" fill="#231f20"/>
  <rect x="172.14" y="217.58" width="40.84" height="40.84" fill="#231f20"/>
  <rect x="172.14" y="260.6" width="40.84" height="40.84" fill="#231f20"/>
  <rect x="129.07" y="131.55" width="40.84" height="40.84" fill="#231f20"/>
  <rect x="129.07" y="174.57" width="40.84" height="40.84" fill="#231f20"/>
  <rect x="129.07" y="217.58" width="40.84" height="40.84" fill="#231f20"/>
  <rect x="172.14" y="2.5" width="40.84" height="40.84" fill="#231f20"/>
  <rect x="172.14" y="45.52" width="40.84" height="40.84" fill="#231f20"/>
  <rect x="172.14" y="88.53" width="40.84" height="40.84" fill="#231f20"/>
  <rect x="129.07" y="2.5" width="40.84" height="40.84" fill="#231f20"/>
  <rect x="129.07" y="45.52" width="40.84" height="40.84" fill="#231f20"/>
  <rect x="129.07" y="88.53" width="40.84" height="40.84" fill="#231f20"/>
  <rect x="129.07" y="260.6" width="40.84" height="40.84" fill="#231f20"/>
  <rect x="129.07" y="303.61" width="40.84" height="40.84" fill="#231f20"/>
  <rect x="560.87" y="693.36" width="40.84" height="40.84" fill="#231f20"/>
  <rect x="560.87" y="736.84" width="40.84" height="40.84" fill="#231f20"/>
  <rect x="560.87" y="779.75" width="40.84" height="40.84" fill="#231f20"/>
  <rect x="560.87" y="823.11" width="40.84" height="40.84" fill="#231f20"/>
  <rect x="560.87" y="909.62" width="40.84" height="40.84" fill="#231f20"/>
  <rect x="560.87" y="952.8" width="40.84" height="40.84" fill="#231f20"/>
  <rect x="560.87" y="995.98" width="40.84" height="40.84" fill="#231f20"/>
  <rect x="560.87" y="1039.16" width="40.84" height="40.84" fill="#231f20"/>
  <rect x="488.26" y="59.24" width="13.39" height="13.39" fill="#231f20"/>
  <rect x="445.19" y="59.24" width="13.39" height="13.39" fill="#231f20"/>
  <rect x="488.26" y="102.26" width="13.39" height="13.39" fill="#231f20"/>
  <rect x="445.19" y="102.26" width="13.39" height="13.39" fill="#231f20"/>
  <rect x="401.86" y="274.32" width="13.39" height="13.39" fill="#231f20"/>
  <rect x="358.79" y="274.32" width="13.39" height="13.39" fill="#231f20"/>
  <rect x="401.86" y="231.31" width="13.39" height="13.39" fill="#231f20"/>
  <rect x="358.79" y="231.31" width="13.39" height="13.39" fill="#231f20"/>
  <rect x="401.86" y="188.11" width="13.39" height="13.39" fill="#231f20"/>
  <rect x="358.79" y="188.11" width="13.39" height="13.39" fill="#231f20"/>
  <rect x="315.46" y="274.32" width="13.39" height="13.39" fill="#231f20"/>
  <rect x="272.39" y="274.32" width="13.39" height="13.39" fill="#231f20"/>
  <rect x="315.46" y="231.31" width="13.39" height="13.39" fill="#231f20"/>
  <rect x="272.39" y="231.31" width="13.39" height="13.39" fill="#231f20"/>
  <rect x="272.39" y="362.82" width="13.39" height="13.39" fill="#231f20"/>
  <rect x="272.39" y="319.81" width="13.39" height="13.39" fill="#231f20"/>
  <rect x="229.32" y="362.82" width="13.39" height="13.39" fill="#231f20"/>
  <rect x="272.39" y="404.75" width="13.39" height="13.39" fill="#231f20"/>
  <rect x="315.46" y="404.75" width="13.39" height="13.39" fill="#231f20"/>
  <rect x="272.39" y="447.9" width="13.39" height="13.39" fill="#231f20"/>
  <rect x="315.46" y="447.9" width="13.39" height="13.39" fill="#231f20"/>
  <rect x="272.39" y="489.63" width="13.39" height="13.39" fill="#231f20"/>
  <rect x="315.46" y="489.63" width="13.39" height="13.39" fill="#231f20"/>
  <rect x="272.39" y="532.78" width="13.39" height="13.39" fill="#231f20"/>
  <rect x="315.46" y="532.78" width="13.39" height="13.39" fill="#231f20"/>
  <rect x="229.32" y="404.75" width="13.39" height="13.39" fill="#231f20"/>
  <rect x="186.25" y="362.82" width="13.39" height="13.39" fill="#231f20"/>
  <rect x="142.79" y="362.82" width="13.39" height="13.39" fill="#231f20"/>
  <rect x="142.79" y="404.75" width="13.39" height="13.39" fill="#231f20"/>
  <rect x="142.79" y="447.77" width="13.39" height="13.39" fill="#231f20"/>
  <rect x="142.79" y="489.63" width="13.39" height="13.39" fill="#231f20"/>
  <rect x="186.25" y="577.09" width="13.39" height="13.39" fill="#231f20"/>
  <rect x="186.25" y="620.11" width="13.39" height="13.39" fill="#231f20"/>
  <rect x="229.32" y="319.81" width="13.39" height="13.39" fill="#231f20"/>
  <rect x="186.25" y="319.81" width="13.39" height="13.39" fill="#231f20"/>
  <rect x="315.46" y="188.11" width="13.39" height="13.39" fill="#231f20"/>
  <rect x="272.39" y="188.11" width="13.39" height="13.39" fill="#231f20"/>
  <rect x="401.86" y="145.09" width="13.39" height="13.39" fill="#231f20"/>
  <rect x="358.79" y="145.09" width="13.39" height="13.39" fill="#231f20"/>
  <rect x="316.18" y="145.09" width="13.39" height="13.39" fill="#231f20"/>
  <rect x="272.39" y="145.09" width="13.39" height="13.39" fill="#231f20"/>
  <rect x="401.86" y="101.71" width="13.39" height="13.39" fill="#231f20"/>
  <rect x="358.79" y="101.71" width="13.39" height="13.39" fill="#231f20"/>
  <rect x="315.46" y="101.71" width="13.39" height="13.39" fill="#231f20"/>
  <rect x="272.39" y="101.71" width="13.39" height="13.39" fill="#231f20"/>
  <rect x="401.86" y="58.69" width="13.39" height="13.39" fill="#231f20"/>
  <rect x="660.74" y="361.72" width="13.39" height="13.39" fill="#231f20"/>
  <rect x="660.74" y="318.7" width="13.39" height="13.39" fill="#231f20"/>
  <rect x="660.74" y="275.5" width="13.39" height="13.39" fill="#231f20"/>
  <rect x="660.74" y="232.48" width="13.39" height="13.39" fill="#231f20"/>
  <rect x="660.74" y="189.1" width="13.39" height="13.39" fill="#231f20"/>
  <rect x="660.74" y="146.08" width="13.39" height="13.39" fill="#231f20"/>
  <rect x="749.11" y="232.67" width="13.39" height="13.39" fill="#231f20"/>
  <rect x="749.11" y="189.65" width="13.39" height="13.39" fill="#231f20"/>
  <rect x="749.11" y="146.45" width="13.39" height="13.39" fill="#231f20"/>
  <rect x="749.11" y="103.44" width="13.39" height="13.39" fill="#231f20"/>
  <rect x="749.11" y="60.05" width="13.39" height="13.39" fill="#231f20"/>
  <rect x="749.11" y="17.04" width="13.39" height="13.39" fill="#231f20"/>
  <rect x="749.11" y="490.51" width="13.39" height="13.39" fill="#231f20"/>
  <rect x="749.11" y="447.49" width="13.39" height="13.39" fill="#231f20"/>
  <rect x="749.11" y="404.29" width="13.39" height="13.39" fill="#231f20"/>
  <rect x="749.11" y="361.27" width="13.39" height="13.39" fill="#231f20"/>
  <rect x="749.11" y="317.89" width="13.39" height="13.39" fill="#231f20"/>
  <rect x="749.11" y="274.87" width="13.39" height="13.39" fill="#231f20"/>
  <rect x="749.11" y="535.64" width="13.39" height="13.39" fill="#231f20"/>
  <rect x="749.11" y="793.48" width="13.39" height="13.39" fill="#231f20"/>
  <rect x="749.11" y="750.46" width="13.39" height="13.39" fill="#231f20"/>
  <rect x="705.48" y="793.48" width="13.39" height="13.39" fill="#231f20"/>
  <rect x="705.48" y="750.46" width="13.39" height="13.39" fill="#231f20"/>
  <rect x="749.11" y="707.26" width="13.39" height="13.39" fill="#231f20"/>
  <rect x="749.11" y="664.25" width="13.39" height="13.39" fill="#231f20"/>
  <rect x="749.11" y="620.86" width="13.39" height="13.39" fill="#231f20"/>
  <rect x="749.11" y="577.85" width="13.39" height="13.39" fill="#231f20"/>
  <rect x="705.48" y="707.26" width="13.39" height="13.39" fill="#231f20"/>
  <rect x="705.48" y="664.25" width="13.39" height="13.39" fill="#231f20"/>
  <rect x="749.11" y="966.83" width="13.39" height="13.39" fill="#231f20"/>
  <rect x="749.11" y="923.81" width="13.39" height="13.39" fill="#231f20"/>
  <rect x="705.48" y="966.83" width="13.39" height="13.39" fill="#231f20"/>
  <rect x="705.48" y="1053.8" width="13.39" height="13.39" fill="#231f20"/>
  <rect x="705.48" y="923.81" width="13.39" height="13.39" fill="#231f20"/>
  <rect x="617.94" y="1052.11" width="13.39" height="13.39" fill="#231f20"/>
  <rect x="617.94" y="1009.09" width="13.39" height="13.39" fill="#231f20"/>
  <rect x="749.11" y="880.61" width="13.39" height="13.39" fill="#231f20"/>
  <rect x="749.11" y="837.59" width="13.39" height="13.39" fill="#231f20"/>
  <rect x="792.73" y="793.48" width="13.39" height="13.39" fill="#231f20"/>
  <rect x="792.73" y="750.46" width="13.39" height="13.39" fill="#231f20"/>
  <rect x="792.73" y="707.26" width="13.39" height="13.39" fill="#231f20"/>
  <rect x="876.31" y="750.46" width="13.39" height="13.39" fill="#231f20"/>
  <rect x="832.69" y="750.46" width="13.39" height="13.39" fill="#231f20"/>
  <rect x="876.31" y="707.26" width="13.39" height="13.39" fill="#231f20"/>
  <rect x="832.69" y="707.26" width="13.39" height="13.39" fill="#231f20"/>
  <rect x="919.93" y="750.46" width="13.39" height="13.39" fill="#231f20"/>
  <rect x="919.93" y="707.26" width="13.39" height="13.39" fill="#231f20"/>
  <rect x="792.73" y="837.59" width="13.39" height="13.39" fill="#231f20"/>
  <rect x="832.69" y="837.59" width="13.39" height="13.39" fill="#231f20"/>
  <rect x="832.69" y="793.16" width="13.39" height="13.39" fill="#231f20"/>
  <rect x="876.31" y="793.48" width="13.39" height="13.39" fill="#231f20"/>
  <rect x="876.31" y="837.59" width="13.39" height="13.39" fill="#231f20"/>
  <rect x="963.31" y="793.48" width="13.39" height="13.39" fill="#231f20"/>
  <rect x="919.93" y="793.48" width="13.39" height="13.39" fill="#231f20"/>
  <rect x="963.31" y="750.46" width="13.39" height="13.39" fill="#231f20"/>
  <rect x="963.31" y="707.26" width="13.39" height="13.39" fill="#231f20"/>
  <rect x="963.31" y="837.59" width="13.39" height="13.39" fill="#231f20"/>
  <rect x="963.31" y="966.44" width="13.39" height="13.39" fill="#231f20"/>
  <rect x="963.31" y="923.42" width="13.39" height="13.39" fill="#231f20"/>
  <rect x="963.31" y="880.22" width="13.39" height="13.39" fill="#231f20"/>
  <rect x="920.95" y="966.44" width="13.39" height="13.39" fill="#231f20"/>
  <rect x="920.95" y="923.42" width="13.39" height="13.39" fill="#231f20"/>
  <rect x="876.31" y="923.42" width="13.39" height="13.39" fill="#231f20"/>
  <rect x="920.95" y="880.22" width="13.39" height="13.39" fill="#231f20"/>
  <rect x="963.31" y="1010.55" width="13.39" height="13.39" fill="#231f20"/>
  <rect x="920.95" y="1009.69" width="13.39" height="13.39" fill="#231f20"/>
  <rect x="920.95" y="1053.8" width="13.39" height="13.39" fill="#231f20"/>
  <rect x="963.31" y="1053.8" width="13.39" height="13.39" fill="#231f20"/>
  <rect x="1006.94" y="793.48" width="13.39" height="13.39" fill="#231f20"/>
  <rect x="1006.94" y="750.46" width="13.39" height="13.39" fill="#231f20"/>
  <rect x="1006.94" y="707.26" width="13.39" height="13.39" fill="#231f20"/>
  <rect x="1006.94" y="837.59" width="13.39" height="13.39" fill="#231f20"/>
  <rect x="1050.56" y="793.48" width="13.39" height="13.39" fill="#231f20"/>
  <rect x="1050.56" y="750.46" width="13.39" height="13.39" fill="#231f20"/>
  <rect x="1050.56" y="707.26" width="13.39" height="13.39" fill="#231f20"/>
  <rect x="1050.56" y="837.59" width="13.39" height="13.39" fill="#231f20"/>
  <rect x="1006.94" y="880.78" width="13.39" height="13.39" fill="#231f20"/>
  <rect x="1006.94" y="922.16" width="13.39" height="13.39" fill="#231f20"/>
  <rect x="1006.94" y="966.27" width="13.39" height="13.39" fill="#231f20"/>
  <rect x="1006.94" y="1009.46" width="13.39" height="13.39" fill="#231f20"/>
  <rect x="1050.56" y="880.78" width="13.39" height="13.39" fill="#231f20"/>
  <rect x="705.48" y="880.61" width="13.39" height="13.39" fill="#231f20"/>
  <rect x="705.48" y="837.59" width="13.39" height="13.39" fill="#231f20"/>
  <rect x="705.48" y="620.86" width="13.39" height="13.39" fill="#231f20"/>
  <rect x="705.48" y="577.85" width="13.39" height="13.39" fill="#231f20"/>
  <rect x="705.48" y="146.45" width="13.39" height="13.39" fill="#231f20"/>
  <rect x="705.48" y="189.1" width="13.39" height="13.39" fill="#231f20"/>
  <rect x="705.48" y="232.76" width="13.39" height="13.39" fill="#231f20"/>
  <rect x="705.48" y="275.41" width="13.39" height="13.39" fill="#231f20"/>
  <rect x="705.48" y="103.44" width="13.39" height="13.39" fill="#231f20"/>
  <rect x="705.48" y="60.05" width="13.39" height="13.39" fill="#231f20"/>
  <rect x="705.48" y="17.04" width="13.39" height="13.39" fill="#231f20"/>
  <rect x="792.31" y="146.45" width="13.39" height="13.39" fill="#231f20"/>
  <rect x="792.31" y="189.65" width="13.39" height="13.39" fill="#231f20"/>
  <rect x="792.31" y="103.44" width="13.39" height="13.39" fill="#231f20"/>
  <rect x="792.31" y="60.05" width="13.39" height="13.39" fill="#231f20"/>
  <rect x="792.31" y="17.04" width="13.39" height="13.39" fill="#231f20"/>
  <rect x="963.53" y="404.2" width="13.39" height="13.39" fill="#231f20"/>
  <rect x="963.53" y="361" width="13.39" height="13.39" fill="#231f20"/>
  <rect x="963.53" y="317.98" width="13.39" height="13.39" fill="#231f20"/>
  <rect x="963.53" y="274.6" width="13.39" height="13.39" fill="#231f20"/>
  <rect x="920.95" y="533.8" width="13.39" height="13.39" fill="#231f20"/>
  <rect x="920.95" y="490.6" width="13.39" height="13.39" fill="#231f20"/>
  <rect x="920.95" y="620.2" width="13.39" height="13.39" fill="#231f20"/>
  <rect x="920.95" y="577" width="13.39" height="13.39" fill="#231f20"/>
  <rect x="876.31" y="620.2" width="13.39" height="13.39" fill="#231f20"/>
  <rect x="876.31" y="577" width="13.39" height="13.39" fill="#231f20"/>
  <rect x="835.03" y="620.2" width="13.39" height="13.39" fill="#231f20"/>
  <rect x="835.03" y="577" width="13.39" height="13.39" fill="#231f20"/>
  <rect x="920.95" y="447.58" width="13.39" height="13.39" fill="#231f20"/>
  <rect x="920.95" y="404.2" width="13.39" height="13.39" fill="#231f20"/>
  <rect x="963.53" y="231.58" width="13.39" height="13.39" fill="#231f20"/>
  <rect x="963.53" y="146.55" width="13.39" height="13.39" fill="#231f20"/>
  <rect x="963.53" y="189.75" width="13.39" height="13.39" fill="#231f20"/>
  <rect x="963.53" y="103.53" width="13.39" height="13.39" fill="#231f20"/>
  <rect x="963.53" y="60.15" width="13.39" height="13.39" fill="#231f20"/>
  <rect x="963.53" y="17.13" width="13.39" height="13.39" fill="#231f20"/>
  <rect x="617.67" y="361.72" width="13.39" height="13.39" fill="#231f20"/>
  <rect x="617.67" y="318.7" width="13.39" height="13.39" fill="#231f20"/>
  <rect x="660.74" y="446.68" width="13.39" height="13.39" fill="#231f20"/>
  <rect x="660.74" y="403.66" width="13.39" height="13.39" fill="#231f20"/>
  <rect x="660.74" y="490.3" width="13.39" height="13.39" fill="#231f20"/>
  <rect x="704.92" y="533.96" width="13.39" height="13.39" fill="#231f20"/>
  <rect x="660.74" y="532.25" width="13.39" height="13.39" fill="#231f20"/>
  <rect x="705.48" y="361.72" width="13.39" height="13.39" fill="#231f20"/>
  <rect x="705.48" y="403.66" width="13.39" height="13.39" fill="#231f20"/>
  <rect x="617.67" y="446.68" width="13.39" height="13.39" fill="#231f20"/>
  <rect x="617.67" y="403.66" width="13.39" height="13.39" fill="#231f20"/>
  <rect x="531.46" y="490.51" width="13.39" height="13.39" fill="#231f20"/>
  <rect x="531.46" y="447.49" width="13.39" height="13.39" fill="#231f20"/>
  <rect x="488.39" y="490.51" width="13.39" height="13.39" fill="#231f20"/>
  <rect x="488.39" y="447.49" width="13.39" height="13.39" fill="#231f20"/>
  <rect x="401.86" y="620.11" width="13.39" height="13.39" fill="#231f20"/>
  <rect x="401.86" y="577.09" width="13.39" height="13.39" fill="#231f20"/>
  <rect x="402.32" y="707.58" width="13.39" height="13.39" fill="#231f20"/>
  <rect x="401.86" y="664.56" width="13.39" height="13.39" fill="#231f20"/>
  <rect x="444.96" y="621.19" width="13.39" height="13.39" fill="#231f20"/>
  <rect x="444.96" y="664.56" width="13.39" height="13.39" fill="#231f20"/>
  <rect x="574.6" y="663.49" width="13.39" height="13.39" fill="#231f20"/>
  <rect x="531.46" y="663.49" width="13.39" height="13.39" fill="#231f20"/>
  <rect x="444.96" y="578.18" width="13.39" height="13.39" fill="#231f20"/>
  <rect x="444.96" y="534.58" width="13.39" height="13.39" fill="#231f20"/>
  <rect x="531.46" y="621.19" width="13.39" height="13.39" fill="#231f20"/>
  <rect x="488.46" y="621.19" width="13.39" height="13.39" fill="#231f20"/>
  <rect x="531.46" y="578.18" width="13.39" height="13.39" fill="#231f20"/>
  <rect x="531.46" y="534.58" width="13.39" height="13.39" fill="#231f20"/>
  <rect x="488.46" y="578.18" width="13.39" height="13.39" fill="#231f20"/>
  <rect x="488.46" y="534.58" width="13.39" height="13.39" fill="#231f20"/>
  <rect x="531.46" y="750.1" width="13.39" height="13.39" fill="#231f20"/>
  <rect x="531.46" y="707.08" width="13.39" height="13.39" fill="#231f20"/>
  <rect x="488.39" y="707.08" width="13.39" height="13.39" fill="#231f20"/>
  <rect x="531.46" y="880.78" width="13.39" height="13.39" fill="#231f20"/>
  <rect x="574.6" y="880.78" width="13.39" height="13.39" fill="#231f20"/>
  <rect x="531.46" y="837.77" width="13.39" height="13.39" fill="#231f20"/>
  <rect x="531.46" y="794.17" width="13.39" height="13.39" fill="#231f20"/>
  <rect x="358.79" y="620.11" width="13.39" height="13.39" fill="#231f20"/>
  <rect x="358.79" y="577.09" width="13.39" height="13.39" fill="#231f20"/>
  <rect x="358.79" y="707.58" width="13.39" height="13.39" fill="#231f20"/>
  <rect x="358.79" y="664.56" width="13.39" height="13.39" fill="#231f20"/>
  <rect x="402.32" y="793.93" width="13.39" height="13.39" fill="#231f20"/>
  <rect x="401.86" y="750.92" width="13.39" height="13.39" fill="#231f20"/>
  <rect x="358.79" y="793.93" width="13.39" height="13.39" fill="#231f20"/>
  <rect x="402.32" y="836.02" width="13.39" height="13.39" fill="#231f20"/>
  <rect x="445.13" y="793.93" width="13.39" height="13.39" fill="#231f20"/>
  <rect x="445.13" y="836.02" width="13.39" height="13.39" fill="#231f20"/>
  <rect x="402.32" y="880.78" width="13.39" height="13.39" fill="#231f20"/>
  <rect x="444.96" y="880.78" width="13.39" height="13.39" fill="#231f20"/>
  <rect x="402.32" y="922.63" width="13.39" height="13.39" fill="#231f20"/>
  <rect x="444.96" y="922.63" width="13.39" height="13.39" fill="#231f20"/>
  <rect x="488.6" y="967.64" width="13.39" height="13.39" fill="#231f20"/>
  <rect x="488.6" y="922.63" width="13.39" height="13.39" fill="#231f20"/>
  <rect x="444.96" y="967.64" width="13.39" height="13.39" fill="#231f20"/>
  <rect x="531.25" y="967.64" width="13.39" height="13.39" fill="#231f20"/>
  <rect x="531.25" y="924.21" width="13.39" height="13.39" fill="#231f20"/>
  <rect x="488.6" y="1009.49" width="13.39" height="13.39" fill="#231f20"/>
  <rect x="531.25" y="1009.49" width="13.39" height="13.39" fill="#231f20"/>
  <rect x="531.25" y="1052.16" width="13.39" height="13.39" fill="#231f20"/>
  <rect x="358.79" y="836.02" width="13.39" height="13.39" fill="#231f20"/>
  <rect x="358.79" y="880.78" width="13.39" height="13.39" fill="#231f20"/>
  <rect x="358.79" y="750.92" width="13.39" height="13.39" fill="#231f20"/>
  <rect x="315.46" y="793.93" width="13.39" height="13.39" fill="#231f20"/>
  <rect x="315.46" y="836.02" width="13.39" height="13.39" fill="#231f20"/>
  <rect x="315.46" y="750.92" width="13.39" height="13.39" fill="#231f20"/>
  <rect x="272.39" y="750.92" width="13.39" height="13.39" fill="#231f20"/>
  <rect x="272.39" y="792.85" width="13.39" height="13.39" fill="#231f20"/>
  <rect x="229.19" y="663.49" width="13.39" height="13.39" fill="#231f20"/>
  <rect x="229.19" y="706.49" width="13.39" height="13.39" fill="#231f20"/>
  <rect x="617.67" y="275.5" width="13.39" height="13.39" fill="#231f20"/>
  <rect x="617.67" y="232.48" width="13.39" height="13.39" fill="#231f20"/>
  <rect x="617.67" y="189.1" width="13.39" height="13.39" fill="#231f20"/>
  <rect x="617.67" y="146.08" width="13.39" height="13.39" fill="#231f20"/>
  <rect x="358.79" y="58.69" width="13.39" height="13.39" fill="#231f20"/>
  <rect x="358.79" y="16.23" width="13.39" height="13.39" fill="#231f20"/>
  <rect x="315.46" y="16.23" width="13.39" height="13.39" fill="#231f20"/>
  <rect x="315.46" y="58.69" width="13.39" height="13.39" fill="#231f20"/>
  <rect x="272.39" y="58.69" width="13.39" height="13.39" fill="#231f20"/>
  <rect x="272.39" y="16.23" width="13.39" height="13.39" fill="#231f20"/>
  <rect x="229.32" y="274.32" width="13.39" height="13.39" fill="#231f20"/>
  <rect x="229.32" y="231.31" width="13.39" height="13.39" fill="#231f20"/>
  <rect x="229.32" y="188.11" width="13.39" height="13.39" fill="#231f20"/>
  <rect x="229.32" y="145.09" width="13.39" height="13.39" fill="#231f20"/>
  <rect x="229.32" y="101.71" width="13.39" height="13.39" fill="#231f20"/>
  <rect x="229.32" y="58.69" width="13.39" height="13.39" fill="#231f20"/>
  <rect x="229.32" y="16.23" width="13.39" height="13.39" fill="#231f20"/>
  <rect x="99.64" y="274.32" width="13.39" height="13.39" fill="#231f20"/>
  <rect x="99.64" y="318.72" width="13.39" height="13.39" fill="#231f20"/>
  <rect x="99.64" y="231.31" width="13.39" height="13.39" fill="#231f20"/>
  <rect x="99.64" y="188.11" width="13.39" height="13.39" fill="#231f20"/>
  <rect x="99.64" y="145.09" width="13.39" height="13.39" fill="#231f20"/>
  <rect x="99.64" y="101.71" width="13.39" height="13.39" fill="#231f20"/>
  <rect x="99.64" y="58.69" width="13.39" height="13.39" fill="#231f20"/>
  <rect x="99.64" y="16.23" width="13.39" height="13.39" fill="#231f20"/>
  <rect x="488.26" y="16.23" width="13.39" height="13.39" fill="#231f20"/>
  <rect x="445.19" y="16.23" width="13.39" height="13.39" fill="#231f20"/>
</svg>