<?xml version="1.0" encoding="UTF-8"?>
<svg id="_15" data-name="15" xmlns="http://www.w3.org/2000/svg" viewBox="0 0 1080 1080">
  <rect x="705.99" y="66.74" width="13.39" height="13.39" fill="#231f20"/>
  <rect x="705.99" y="23.16" width="13.39" height="13.39" fill="#231f20"/>
  <rect x="663.37" y="66.74" width="13.39" height="13.39" fill="#231f20"/>
  <rect x="705.99" y="109.21" width="13.39" height="13.39" fill="#231f20"/>
  <rect x="663.37" y="109.21" width="13.39" height="13.39" fill="#231f20"/>
  <rect x="705.99" y="152.51" width="13.39" height="13.39" fill="#231f20"/>
  <rect x="748.62" y="152.51" width="13.39" height="13.39" fill="#231f20"/>
  <rect x="705.99" y="197.64" width="13.39" height="13.39" fill="#231f20"/>
  <rect x="748.62" y="197.64" width="13.39" height="13.39" fill="#231f20"/>
  <rect x="663.37" y="152.51" width="13.39" height="13.39" fill="#231f20"/>
  <rect x="663.37" y="197.64" width="13.39" height="13.39" fill="#231f20"/>
  <rect x="705.99" y="240.61" width="13.39" height="13.39" fill="#231f20"/>
  <rect x="748.62" y="240.61" width="13.39" height="13.39" fill="#231f20"/>
  <rect x="791.25" y="152.51" width="13.39" height="13.39" fill="#231f20"/>
  <rect x="791.25" y="197.64" width="13.39" height="13.39" fill="#231f20"/>
  <rect x="791.25" y="240.61" width="13.39" height="13.39" fill="#231f20"/>
  <rect x="791.25" y="283.11" width="13.39" height="13.39" fill="#231f20"/>
  <rect x="791.25" y="326.33" width="13.39" height="13.39" fill="#231f20"/>
  <rect x="836.13" y="283.11" width="13.39" height="13.39" fill="#231f20"/>
  <rect x="836.13" y="326.33" width="13.39" height="13.39" fill="#231f20"/>
  <rect x="834.62" y="369.79" width="13.39" height="13.39" fill="#231f20"/>
  <rect x="834.62" y="412.91" width="13.39" height="13.39" fill="#231f20"/>
  <rect x="879.5" y="369.79" width="13.39" height="13.39" fill="#231f20"/>
  <rect x="879.5" y="412.91" width="13.39" height="13.39" fill="#231f20"/>
  <rect x="747.87" y="412.91" width="13.39" height="13.39" fill="#231f20"/>
  <rect x="792.75" y="412.91" width="13.39" height="13.39" fill="#231f20"/>
  <rect x="921.02" y="369.79" width="13.39" height="13.39" fill="#231f20"/>
  <rect x="921.02" y="412.91" width="13.39" height="13.39" fill="#231f20"/>
  <rect x="965.9" y="369.79" width="13.39" height="13.39" fill="#231f20"/>
  <rect x="965.9" y="412.91" width="13.39" height="13.39" fill="#231f20"/>
  <rect x="879.5" y="283.11" width="13.39" height="13.39" fill="#231f20"/>
  <rect x="879.5" y="326.33" width="13.39" height="13.39" fill="#231f20"/>
  <rect x="921.02" y="283.11" width="13.39" height="13.39" fill="#231f20"/>
  <rect x="921.02" y="326.33" width="13.39" height="13.39" fill="#231f20"/>
  <rect x="965.9" y="283.11" width="13.39" height="13.39" fill="#231f20"/>
  <rect x="965.9" y="326.33" width="13.39" height="13.39" fill="#231f20"/>
  <rect x="836.13" y="455.62" width="13.39" height="13.39" fill="#231f20"/>
  <rect x="834.62" y="499.04" width="13.39" height="13.39" fill="#231f20"/>
  <rect x="834.62" y="542.04" width="13.39" height="13.39" fill="#231f20"/>
  <rect x="879.5" y="499.04" width="13.39" height="13.39" fill="#231f20"/>
  <rect x="879.5" y="542.04" width="13.39" height="13.39" fill="#231f20"/>
  <rect x="748.62" y="499.04" width="13.39" height="13.39" fill="#231f20"/>
  <rect x="748.62" y="542.04" width="13.39" height="13.39" fill="#231f20"/>
  <rect x="793.5" y="499.04" width="13.39" height="13.39" fill="#231f20"/>
  <rect x="793.5" y="542.04" width="13.39" height="13.39" fill="#231f20"/>
  <rect x="921.02" y="499.04" width="13.39" height="13.39" fill="#231f20"/>
  <rect x="921.02" y="542.04" width="13.39" height="13.39" fill="#231f20"/>
  <rect x="965.9" y="499.04" width="13.39" height="13.39" fill="#231f20"/>
  <rect x="965.9" y="542.04" width="13.39" height="13.39" fill="#231f20"/>
  <rect x="879.5" y="455.62" width="13.39" height="13.39" fill="#231f20"/>
  <rect x="921.02" y="455.62" width="13.39" height="13.39" fill="#231f20"/>
  <rect x="965.9" y="455.62" width="13.39" height="13.39" fill="#231f20"/>
  <rect x="836.13" y="585.55" width="13.39" height="13.39" fill="#231f20"/>
  <rect x="834.62" y="628.7" width="13.39" height="13.39" fill="#231f20"/>
  <rect x="748.99" y="628.7" width="13.39" height="13.39" fill="#231f20"/>
  <rect x="834.62" y="671.8" width="13.39" height="13.39" fill="#231f20"/>
  <rect x="879.5" y="628.7" width="13.39" height="13.39" fill="#231f20"/>
  <rect x="879.5" y="671.8" width="13.39" height="13.39" fill="#231f20"/>
  <rect x="921.02" y="628.7" width="13.39" height="13.39" fill="#231f20"/>
  <rect x="921.02" y="671.8" width="13.39" height="13.39" fill="#231f20"/>
  <rect x="965.9" y="628.7" width="13.39" height="13.39" fill="#231f20"/>
  <rect x="965.9" y="671.8" width="13.39" height="13.39" fill="#231f20"/>
  <rect x="879.5" y="585.55" width="13.39" height="13.39" fill="#231f20"/>
  <rect x="921.02" y="585.55" width="13.39" height="13.39" fill="#231f20"/>
  <rect x="879.5" y="760.07" width="13.39" height="13.39" fill="#231f20"/>
  <rect x="879.5" y="803.17" width="13.39" height="13.39" fill="#231f20"/>
  <rect x="921.02" y="760.07" width="13.39" height="13.39" fill="#231f20"/>
  <rect x="965.9" y="760.07" width="13.39" height="13.39" fill="#231f20"/>
  <rect x="921.02" y="803.17" width="13.39" height="13.39" fill="#231f20"/>
  <rect x="793.77" y="803.17" width="13.39" height="13.39" fill="#231f20"/>
  <rect x="835.29" y="803.17" width="13.39" height="13.39" fill="#231f20"/>
  <rect x="966.69" y="803.17" width="13.39" height="13.39" fill="#231f20"/>
  <rect x="1008.21" y="803.17" width="13.39" height="13.39" fill="#231f20"/>
  <rect x="1052.3" y="803.17" width="13.39" height="13.39" fill="#231f20"/>
  <rect x="879.5" y="716.92" width="13.39" height="13.39" fill="#231f20"/>
  <rect x="921.02" y="716.92" width="13.39" height="13.39" fill="#231f20"/>
  <rect x="965.9" y="716.92" width="13.39" height="13.39" fill="#231f20"/>
  <rect x="965.9" y="585.55" width="13.39" height="13.39" fill="#231f20"/>
  <rect x="1007.42" y="499.04" width="13.39" height="13.39" fill="#231f20"/>
  <rect x="1007.42" y="542.04" width="13.39" height="13.39" fill="#231f20"/>
  <rect x="1052.3" y="499.04" width="13.39" height="13.39" fill="#231f20"/>
  <rect x="1052.3" y="542.04" width="13.39" height="13.39" fill="#231f20"/>
  <rect x="1007.42" y="628.7" width="13.39" height="13.39" fill="#231f20"/>
  <rect x="1052.3" y="628.7" width="13.39" height="13.39" fill="#231f20"/>
  <rect x="1007.42" y="671.8" width="13.39" height="13.39" fill="#231f20"/>
  <rect x="1052.3" y="671.8" width="13.39" height="13.39" fill="#231f20"/>
  <rect x="1007.42" y="585.55" width="13.39" height="13.39" fill="#231f20"/>
  <rect x="1052.3" y="585.55" width="13.39" height="13.39" fill="#231f20"/>
  <rect x="879.5" y="197.64" width="13.39" height="13.39" fill="#231f20"/>
  <rect x="879.5" y="240.61" width="13.39" height="13.39" fill="#231f20"/>
  <rect x="921.02" y="197.64" width="13.39" height="13.39" fill="#231f20"/>
  <rect x="921.02" y="240.61" width="13.39" height="13.39" fill="#231f20"/>
  <rect x="965.9" y="197.64" width="13.39" height="13.39" fill="#231f20"/>
  <rect x="965.9" y="240.61" width="13.39" height="13.39" fill="#231f20"/>
  <rect x="879.5" y="109.62" width="13.39" height="13.39" fill="#231f20"/>
  <rect x="879.5" y="152.51" width="13.39" height="13.39" fill="#231f20"/>
  <rect x="921.02" y="109.62" width="13.39" height="13.39" fill="#231f20"/>
  <rect x="921.02" y="152.51" width="13.39" height="13.39" fill="#231f20"/>
  <rect x="965.9" y="109.62" width="13.39" height="13.39" fill="#231f20"/>
  <rect x="965.9" y="152.51" width="13.39" height="13.39" fill="#231f20"/>
  <rect x="879.5" y="23.16" width="13.39" height="13.39" fill="#231f20"/>
  <rect x="879.5" y="67.04" width="13.39" height="13.39" fill="#231f20"/>
  <rect x="921.02" y="23.16" width="13.39" height="13.39" fill="#231f20"/>
  <rect x="921.02" y="67.04" width="13.39" height="13.39" fill="#231f20"/>
  <rect x="965.9" y="23.16" width="13.39" height="13.39" fill="#231f20"/>
  <rect x="965.9" y="67.04" width="13.39" height="13.39" fill="#231f20"/>
  <rect x="1007.42" y="109.62" width="13.39" height="13.39" fill="#231f20"/>
  <rect x="1007.42" y="152.51" width="13.39" height="13.39" fill="#231f20"/>
  <rect x="1007.42" y="23.16" width="13.39" height="13.39" fill="#231f20"/>
  <rect x="1007.42" y="67.04" width="13.39" height="13.39" fill="#231f20"/>
  <rect x="663.37" y="240.61" width="13.39" height="13.39" fill="#231f20"/>
  <rect x="620.74" y="240.61" width="13.39" height="13.39" fill="#231f20"/>
  <rect x="705.99" y="283.11" width="13.39" height="13.39" fill="#231f20"/>
  <rect x="705.99" y="326.33" width="13.39" height="13.39" fill="#231f20"/>
  <rect x="705.99" y="369.79" width="13.39" height="13.39" fill="#231f20"/>
  <rect x="705.99" y="412.91" width="13.39" height="13.39" fill="#231f20"/>
  <rect x="662.38" y="412.91" width="13.39" height="13.39" fill="#231f20"/>
  <rect x="705.99" y="455.62" width="13.39" height="13.39" fill="#231f20"/>
  <rect x="705.99" y="499.04" width="13.39" height="13.39" fill="#231f20"/>
  <rect x="662.38" y="455.62" width="13.39" height="13.39" fill="#231f20"/>
  <rect x="619.75" y="455.62" width="13.39" height="13.39" fill="#231f20"/>
  <rect x="576.58" y="455.62" width="13.39" height="13.39" fill="#231f20"/>
  <rect x="705.99" y="542.04" width="13.39" height="13.39" fill="#231f20"/>
  <rect x="705.99" y="586.06" width="13.39" height="13.39" fill="#231f20"/>
  <rect x="705.99" y="629.06" width="13.39" height="13.39" fill="#231f20"/>
  <rect x="620.74" y="283.11" width="13.39" height="13.39" fill="#231f20"/>
  <rect x="663.37" y="23.16" width="13.39" height="13.39" fill="#231f20"/>
  <rect x="620.74" y="66.74" width="13.39" height="13.39" fill="#231f20"/>
  <rect x="620.74" y="109.21" width="13.39" height="13.39" fill="#231f20"/>
  <rect x="620.74" y="152.51" width="13.39" height="13.39" fill="#231f20"/>
  <rect x="620.74" y="197.64" width="13.39" height="13.39" fill="#231f20"/>
  <rect x="620.74" y="369.79" width="13.39" height="13.39" fill="#231f20"/>
  <rect x="620.74" y="412.91" width="13.39" height="13.39" fill="#231f20"/>
  <rect x="620.74" y="326.33" width="13.39" height="13.39" fill="#231f20"/>
  <rect x="575.96" y="369.79" width="13.39" height="13.39" fill="#231f20"/>
  <rect x="575.96" y="412.91" width="13.39" height="13.39" fill="#231f20"/>
  <rect x="575.96" y="326.33" width="13.39" height="13.39" fill="#231f20"/>
  <rect x="534.9" y="369.79" width="13.39" height="13.39" fill="#231f20"/>
  <rect x="534.9" y="412.91" width="13.39" height="13.39" fill="#231f20"/>
  <rect x="534.9" y="326.33" width="13.39" height="13.39" fill="#231f20"/>
  <rect x="490.11" y="369.79" width="13.39" height="13.39" fill="#231f20"/>
  <rect x="447.19" y="369.79" width="13.39" height="13.39" fill="#231f20"/>
  <rect x="490.11" y="412.91" width="13.39" height="13.39" fill="#231f20"/>
  <rect x="490.11" y="326.33" width="13.39" height="13.39" fill="#231f20"/>
  <rect x="447.78" y="326.33" width="13.39" height="13.39" fill="#231f20"/>
  <rect x="403.49" y="326.33" width="13.39" height="13.39" fill="#231f20"/>
  <rect x="576.74" y="240.61" width="13.39" height="13.39" fill="#231f20"/>
  <rect x="576.74" y="283.11" width="13.39" height="13.39" fill="#231f20"/>
  <rect x="576.74" y="66.74" width="13.39" height="13.39" fill="#231f20"/>
  <rect x="576.74" y="109.21" width="13.39" height="13.39" fill="#231f20"/>
  <rect x="532.74" y="109.21" width="13.39" height="13.39" fill="#231f20"/>
  <rect x="490.11" y="109.21" width="13.39" height="13.39" fill="#231f20"/>
  <rect x="447.49" y="109.21" width="13.39" height="13.39" fill="#231f20"/>
  <rect x="403.49" y="109.21" width="13.39" height="13.39" fill="#231f20"/>
  <rect x="359.49" y="67.04" width="13.39" height="13.39" fill="#231f20"/>
  <rect x="359.49" y="24.27" width="13.39" height="13.39" fill="#231f20"/>
  <rect x="359.49" y="109.21" width="13.39" height="13.39" fill="#231f20"/>
  <rect x="316.97" y="109.21" width="13.39" height="13.39" fill="#231f20"/>
  <rect x="273.38" y="109.21" width="13.39" height="13.39" fill="#231f20"/>
  <rect x="316.97" y="67.04" width="13.39" height="13.39" fill="#231f20"/>
  <rect x="273.38" y="67.04" width="13.39" height="13.39" fill="#231f20"/>
  <rect x="273.38" y="24.27" width="13.39" height="13.39" fill="#231f20"/>
  <rect x="231.33" y="110.07" width="13.39" height="13.39" fill="#231f20"/>
  <rect x="231.33" y="67.3" width="13.39" height="13.39" fill="#231f20"/>
  <rect x="231.33" y="24.27" width="13.39" height="13.39" fill="#231f20"/>
  <rect x="188.54" y="110.07" width="13.39" height="13.39" fill="#231f20"/>
  <rect x="143.68" y="109.21" width="13.39" height="13.39" fill="#231f20"/>
  <rect x="100.09" y="109.21" width="13.39" height="13.39" fill="#231f20"/>
  <rect x="58.04" y="110.07" width="13.39" height="13.39" fill="#231f20"/>
  <rect x="15.25" y="110.07" width="13.39" height="13.39" fill="#231f20"/>
  <rect x="188.54" y="67.3" width="13.39" height="13.39" fill="#231f20"/>
  <rect x="143.14" y="67.3" width="13.39" height="13.39" fill="#231f20"/>
  <rect x="100.72" y="67.04" width="13.39" height="13.39" fill="#231f20"/>
  <rect x="58.68" y="67.3" width="13.39" height="13.39" fill="#231f20"/>
  <rect x="15.88" y="67.3" width="13.39" height="13.39" fill="#231f20"/>
  <rect x="188.54" y="24.27" width="13.39" height="13.39" fill="#231f20"/>
  <rect x="15.88" y="24.27" width="13.39" height="13.39" fill="#231f20"/>
  <rect x="231.33" y="240.61" width="13.39" height="13.39" fill="#231f20"/>
  <rect x="231.33" y="197.64" width="13.39" height="13.39" fill="#231f20"/>
  <rect x="231.33" y="152.51" width="13.39" height="13.39" fill="#231f20"/>
  <rect x="576.74" y="152.51" width="13.39" height="13.39" fill="#231f20"/>
  <rect x="532.74" y="152.51" width="13.39" height="13.39" fill="#231f20"/>
  <rect x="490.11" y="152.51" width="13.39" height="13.39" fill="#231f20"/>
  <rect x="532.74" y="240.61" width="13.39" height="13.39" fill="#231f20"/>
  <rect x="490.11" y="240.61" width="13.39" height="13.39" fill="#231f20"/>
  <rect x="447.49" y="240.61" width="13.39" height="13.39" fill="#231f20"/>
  <rect x="446.11" y="152.51" width="13.39" height="13.39" fill="#231f20"/>
  <rect x="360.66" y="152.51" width="13.39" height="13.39" fill="#231f20"/>
  <rect x="316.97" y="152.51" width="13.39" height="13.39" fill="#231f20"/>
  <rect x="359.49" y="197.64" width="13.39" height="13.39" fill="#231f20"/>
  <rect x="359.49" y="240.61" width="13.39" height="13.39" fill="#231f20"/>
  <rect x="316.97" y="240.61" width="13.39" height="13.39" fill="#231f20"/>
  <rect x="316.97" y="197.64" width="13.39" height="13.39" fill="#231f20"/>
  <rect x="446.32" y="197.64" width="13.39" height="13.39" fill="#231f20"/>
  <rect x="403.81" y="197.64" width="13.39" height="13.39" fill="#231f20"/>
  <rect x="360.66" y="283.11" width="13.39" height="13.39" fill="#231f20"/>
  <rect x="316.97" y="283.11" width="13.39" height="13.39" fill="#231f20"/>
  <rect x="360.66" y="326.33" width="13.39" height="13.39" fill="#231f20"/>
  <rect x="316.97" y="326.33" width="13.39" height="13.39" fill="#231f20"/>
  <rect x="359.49" y="369.79" width="13.39" height="13.39" fill="#231f20"/>
  <rect x="359.49" y="412.91" width="13.39" height="13.39" fill="#231f20"/>
  <rect x="316.97" y="412.91" width="13.39" height="13.39" fill="#231f20"/>
  <rect x="273.38" y="412.91" width="13.39" height="13.39" fill="#231f20"/>
  <rect x="316.97" y="369.79" width="13.39" height="13.39" fill="#231f20"/>
  <rect x="360.66" y="455.62" width="13.39" height="13.39" fill="#231f20"/>
  <rect x="316.97" y="455.62" width="13.39" height="13.39" fill="#231f20"/>
  <rect x="359.49" y="499.04" width="13.39" height="13.39" fill="#231f20"/>
  <rect x="359.49" y="542.04" width="13.39" height="13.39" fill="#231f20"/>
  <rect x="316.97" y="542.04" width="13.39" height="13.39" fill="#231f20"/>
  <rect x="316.97" y="499.04" width="13.39" height="13.39" fill="#231f20"/>
  <rect x="360.66" y="585.55" width="13.39" height="13.39" fill="#231f20"/>
  <rect x="316.97" y="585.55" width="13.39" height="13.39" fill="#231f20"/>
  <rect x="273.38" y="455.62" width="13.39" height="13.39" fill="#231f20"/>
  <rect x="273.38" y="542.04" width="13.39" height="13.39" fill="#231f20"/>
  <rect x="273.38" y="499.04" width="13.39" height="13.39" fill="#231f20"/>
  <rect x="232.13" y="455.62" width="13.39" height="13.39" fill="#231f20"/>
  <rect x="232.13" y="542.04" width="13.39" height="13.39" fill="#231f20"/>
  <rect x="232.13" y="499.04" width="13.39" height="13.39" fill="#231f20"/>
  <rect x="188.54" y="455.62" width="13.39" height="13.39" fill="#231f20"/>
  <rect x="188.54" y="542.04" width="13.39" height="13.39" fill="#231f20"/>
  <rect x="188.54" y="499.04" width="13.39" height="13.39" fill="#231f20"/>
  <rect x="188.54" y="585.85" width="13.39" height="13.39" fill="#231f20"/>
  <rect x="188.54" y="672.27" width="13.39" height="13.39" fill="#231f20"/>
  <rect x="188.54" y="629.27" width="13.39" height="13.39" fill="#231f20"/>
  <rect x="145.5" y="585.85" width="13.39" height="13.39" fill="#231f20"/>
  <rect x="145.5" y="672.27" width="13.39" height="13.39" fill="#231f20"/>
  <rect x="145.5" y="629.27" width="13.39" height="13.39" fill="#231f20"/>
  <rect x="273.38" y="585.55" width="13.39" height="13.39" fill="#231f20"/>
  <rect x="359.49" y="629.06" width="13.39" height="13.39" fill="#231f20"/>
  <rect x="316.97" y="629.06" width="13.39" height="13.39" fill="#231f20"/>
  <rect x="360.66" y="672.57" width="13.39" height="13.39" fill="#231f20"/>
  <rect x="316.97" y="672.57" width="13.39" height="13.39" fill="#231f20"/>
  <rect x="273.38" y="629.06" width="13.39" height="13.39" fill="#231f20"/>
  <rect x="273.38" y="672.57" width="13.39" height="13.39" fill="#231f20"/>
  <rect x="359.49" y="717.41" width="13.39" height="13.39" fill="#231f20"/>
  <rect x="316.97" y="717.41" width="13.39" height="13.39" fill="#231f20"/>
  <rect x="360.66" y="760.96" width="13.39" height="13.39" fill="#231f20"/>
  <rect x="316.97" y="760.96" width="13.39" height="13.39" fill="#231f20"/>
  <rect x="273.38" y="717.41" width="13.39" height="13.39" fill="#231f20"/>
  <rect x="273.38" y="760.96" width="13.39" height="13.39" fill="#231f20"/>
  <rect x="360.08" y="802.8" width="13.39" height="13.39" fill="#231f20"/>
  <rect x="316.97" y="802.8" width="13.39" height="13.39" fill="#231f20"/>
  <rect x="360.08" y="846.63" width="13.39" height="13.39" fill="#231f20"/>
  <rect x="316.97" y="846.63" width="13.39" height="13.39" fill="#231f20"/>
  <rect x="273.38" y="802.8" width="13.39" height="13.39" fill="#231f20"/>
  <rect x="273.38" y="846.63" width="13.39" height="13.39" fill="#231f20"/>
  <rect x="360.08" y="890.47" width="13.39" height="13.39" fill="#231f20"/>
  <rect x="316.97" y="890.47" width="13.39" height="13.39" fill="#231f20"/>
  <rect x="360.08" y="933" width="13.39" height="13.39" fill="#231f20"/>
  <rect x="403.49" y="802.8" width="13.39" height="13.39" fill="#231f20"/>
  <rect x="403.49" y="846.63" width="13.39" height="13.39" fill="#231f20"/>
  <rect x="403.49" y="890.47" width="13.39" height="13.39" fill="#231f20"/>
  <rect x="403.49" y="933" width="13.39" height="13.39" fill="#231f20"/>
  <rect x="446.91" y="933" width="13.39" height="13.39" fill="#231f20"/>
  <rect x="446.91" y="975.36" width="13.39" height="13.39" fill="#231f20"/>
  <rect x="446.91" y="1018.12" width="13.39" height="13.39" fill="#231f20"/>
  <rect x="446.91" y="1061.33" width="13.39" height="13.39" fill="#231f20"/>
  <rect x="316.97" y="1018.12" width="13.39" height="13.39" fill="#231f20"/>
  <rect x="316.97" y="1061.33" width="13.39" height="13.39" fill="#231f20"/>
  <rect x="273.38" y="1061.33" width="13.39" height="13.39" fill="#231f20"/>
  <rect x="188.54" y="1061.33" width="13.39" height="13.39" fill="#231f20"/>
  <rect x="316.97" y="933" width="13.39" height="13.39" fill="#231f20"/>
  <rect x="273.38" y="890.47" width="13.39" height="13.39" fill="#231f20"/>
  <rect x="273.38" y="933" width="13.39" height="13.39" fill="#231f20"/>
  <rect x="230.96" y="760.96" width="13.39" height="13.39" fill="#231f20"/>
  <rect x="230.96" y="802.8" width="13.39" height="13.39" fill="#231f20"/>
  <rect x="230.96" y="846.63" width="13.39" height="13.39" fill="#231f20"/>
  <rect x="230.96" y="890.47" width="13.39" height="13.39" fill="#231f20"/>
  <rect x="230.96" y="933" width="13.39" height="13.39" fill="#231f20"/>
  <rect x="403.49" y="455.62" width="13.39" height="13.39" fill="#231f20"/>
  <rect x="446.48" y="542.04" width="13.39" height="13.39" fill="#231f20"/>
  <rect x="403.49" y="542.04" width="13.39" height="13.39" fill="#231f20"/>
  <rect x="403.49" y="499.04" width="13.39" height="13.39" fill="#231f20"/>
  <rect x="446.48" y="585.55" width="13.39" height="13.39" fill="#231f20"/>
  <rect x="490.11" y="542.04" width="13.39" height="13.39" fill="#231f20"/>
  <rect x="490.11" y="585.55" width="13.39" height="13.39" fill="#231f20"/>
  <rect x="446.48" y="629.06" width="13.39" height="13.39" fill="#231f20"/>
  <rect x="446.48" y="672.57" width="13.39" height="13.39" fill="#231f20"/>
  <rect x="490.11" y="629.06" width="13.39" height="13.39" fill="#231f20"/>
  <rect x="490.11" y="672.57" width="13.39" height="13.39" fill="#231f20"/>
  <rect x="490.11" y="455.62" width="13.39" height="13.39" fill="#231f20"/>
  <rect x="490.11" y="499.04" width="13.39" height="13.39" fill="#231f20"/>
  <rect x="576.58" y="542.04" width="13.39" height="13.39" fill="#231f20"/>
  <rect x="576.58" y="585.55" width="13.39" height="13.39" fill="#231f20"/>
  <rect x="576.58" y="629.06" width="13.39" height="13.39" fill="#231f20"/>
  <rect x="576.58" y="672.57" width="13.39" height="13.39" fill="#231f20"/>
  <rect x="534.9" y="672.57" width="13.39" height="13.39" fill="#231f20"/>
  <rect x="446.48" y="716.28" width="13.39" height="13.39" fill="#231f20"/>
  <rect x="490.11" y="716.28" width="13.39" height="13.39" fill="#231f20"/>
  <rect x="576.58" y="716.28" width="13.39" height="13.39" fill="#231f20"/>
  <rect x="534.9" y="716.28" width="13.39" height="13.39" fill="#231f20"/>
  <rect x="446.48" y="760.96" width="13.39" height="13.39" fill="#231f20"/>
  <rect x="490.11" y="760.96" width="13.39" height="13.39" fill="#231f20"/>
  <rect x="576.58" y="760.96" width="13.39" height="13.39" fill="#231f20"/>
  <rect x="534.9" y="760.96" width="13.39" height="13.39" fill="#231f20"/>
  <rect x="446.48" y="802.8" width="13.39" height="13.39" fill="#231f20"/>
  <rect x="490.11" y="802.8" width="13.39" height="13.39" fill="#231f20"/>
  <rect x="576.58" y="802.8" width="13.39" height="13.39" fill="#231f20"/>
  <rect x="534.9" y="802.8" width="13.39" height="13.39" fill="#231f20"/>
  <rect x="446.48" y="847.32" width="13.39" height="13.39" fill="#231f20"/>
  <rect x="490.11" y="847.32" width="13.39" height="13.39" fill="#231f20"/>
  <rect x="576.58" y="847.32" width="13.39" height="13.39" fill="#231f20"/>
  <rect x="534.9" y="847.32" width="13.39" height="13.39" fill="#231f20"/>
  <rect x="446.48" y="890.47" width="13.39" height="13.39" fill="#231f20"/>
  <rect x="490.11" y="890.47" width="13.39" height="13.39" fill="#231f20"/>
  <rect x="576.58" y="890.47" width="13.39" height="13.39" fill="#231f20"/>
  <rect x="534.9" y="890.47" width="13.39" height="13.39" fill="#231f20"/>
  <rect x="576.58" y="933" width="13.39" height="13.39" fill="#231f20"/>
  <rect x="619.06" y="672.57" width="13.39" height="13.39" fill="#231f20"/>
  <rect x="619.06" y="716.28" width="13.39" height="13.39" fill="#231f20"/>
  <rect x="619.06" y="760.96" width="13.39" height="13.39" fill="#231f20"/>
  <rect x="619.06" y="802.8" width="13.39" height="13.39" fill="#231f20"/>
  <rect x="619.06" y="847.32" width="13.39" height="13.39" fill="#231f20"/>
  <rect x="619.06" y="890.47" width="13.39" height="13.39" fill="#231f20"/>
  <rect x="619.06" y="933" width="13.39" height="13.39" fill="#231f20"/>
  <rect x="662.37" y="672.57" width="13.39" height="13.39" fill="#231f20"/>
  <rect x="662.37" y="716.28" width="13.39" height="13.39" fill="#231f20"/>
  <rect x="705.99" y="716.28" width="13.39" height="13.39" fill="#231f20"/>
  <rect x="662.37" y="760.96" width="13.39" height="13.39" fill="#231f20"/>
  <rect x="662.37" y="802.8" width="13.39" height="13.39" fill="#231f20"/>
  <rect x="662.37" y="847.32" width="13.39" height="13.39" fill="#231f20"/>
  <rect x="705.99" y="847.32" width="13.39" height="13.39" fill="#231f20"/>
  <rect x="662.37" y="890.47" width="13.39" height="13.39" fill="#231f20"/>
  <rect x="748.99" y="672.57" width="13.39" height="13.39" fill="#231f20"/>
  <rect x="748.99" y="716.28" width="13.39" height="13.39" fill="#231f20"/>
  <rect x="748.99" y="760.96" width="13.39" height="13.39" fill="#231f20"/>
  <rect x="748.99" y="802.8" width="13.39" height="13.39" fill="#231f20"/>
  <rect x="748.99" y="847.32" width="13.39" height="13.39" fill="#231f20"/>
  <rect x="748.99" y="890.47" width="13.39" height="13.39" fill="#231f20"/>
  <rect x="705.68" y="890.47" width="13.39" height="13.39" fill="#231f20"/>
  <rect x="662.37" y="933" width="13.39" height="13.39" fill="#231f20"/>
  <rect x="705.68" y="933" width="13.39" height="13.39" fill="#231f20"/>
  <rect x="705.68" y="975.36" width="13.39" height="13.39" fill="#231f20"/>
  <rect x="748.99" y="933" width="13.39" height="13.39" fill="#231f20"/>
  <rect x="748.99" y="975.36" width="13.39" height="13.39" fill="#231f20"/>
  <rect x="662.37" y="975.36" width="13.39" height="13.39" fill="#231f20"/>
  <rect x="792.82" y="933" width="13.39" height="13.39" fill="#231f20"/>
  <rect x="836.13" y="933" width="13.39" height="13.39" fill="#231f20"/>
  <rect x="836.13" y="975.36" width="13.39" height="13.39" fill="#231f20"/>
  <rect x="879.44" y="933" width="13.39" height="13.39" fill="#231f20"/>
  <rect x="879.44" y="975.36" width="13.39" height="13.39" fill="#231f20"/>
  <rect x="792.82" y="975.36" width="13.39" height="13.39" fill="#231f20"/>
  <rect x="924.39" y="933" width="13.39" height="13.39" fill="#231f20"/>
  <rect x="967.7" y="933" width="13.39" height="13.39" fill="#231f20"/>
  <rect x="967.7" y="975.36" width="13.39" height="13.39" fill="#231f20"/>
  <rect x="1011.01" y="933" width="13.39" height="13.39" fill="#231f20"/>
  <rect x="1011.01" y="975.36" width="13.39" height="13.39" fill="#231f20"/>
  <rect x="1052.3" y="933" width="13.39" height="13.39" fill="#231f20"/>
  <rect x="967.7" y="890.65" width="13.39" height="13.39" fill="#231f20"/>
  <rect x="1011.01" y="890.65" width="13.39" height="13.39" fill="#231f20"/>
  <rect x="1052.3" y="890.65" width="13.39" height="13.39" fill="#231f20"/>
  <rect x="1052.3" y="975.36" width="13.39" height="13.39" fill="#231f20"/>
  <rect x="924.39" y="975.36" width="13.39" height="13.39" fill="#231f20"/>
  <rect x="879.44" y="1017.71" width="13.39" height="13.39" fill="#231f20"/>
  <rect x="924.39" y="1017.71" width="13.39" height="13.39" fill="#231f20"/>
  <rect x="967.7" y="1017.71" width="13.39" height="13.39" fill="#231f20"/>
  <rect x="967.7" y="1060.07" width="13.39" height="13.39" fill="#231f20"/>
  <rect x="1011.01" y="1017.71" width="13.39" height="13.39" fill="#231f20"/>
  <rect x="1011.01" y="1060.07" width="13.39" height="13.39" fill="#231f20"/>
  <rect x="1052.3" y="1017.71" width="13.39" height="13.39" fill="#231f20"/>
  <rect x="1052.3" y="1060.07" width="13.39" height="13.39" fill="#231f20"/>
  <rect x="924.39" y="1060.07" width="13.39" height="13.39" fill="#231f20"/>
  <rect x="879.44" y="848.3" width="13.39" height="13.39" fill="#231f20"/>
  <rect x="879.44" y="890.65" width="13.39" height="13.39" fill="#231f20"/>
  <rect x="924.39" y="848.3" width="13.39" height="13.39" fill="#231f20"/>
  <rect x="924.39" y="890.65" width="13.39" height="13.39" fill="#231f20"/>
  <rect x="792.82" y="890.65" width="13.39" height="13.39" fill="#231f20"/>
  <rect x="837.77" y="890.65" width="13.39" height="13.39" fill="#231f20"/>
  <rect x="662.37" y="1018.05" width="13.39" height="13.39" fill="#231f20"/>
  <rect x="662.37" y="1061.26" width="13.39" height="13.39" fill="#231f20"/>
  <rect x="705.68" y="1018.05" width="13.39" height="13.39" fill="#231f20"/>
  <rect x="705.68" y="1061.26" width="13.39" height="13.39" fill="#231f20"/>
  <rect x="534.9" y="933" width="13.39" height="13.39" fill="#231f20"/>
  <rect x="534.9" y="975.36" width="13.39" height="13.39" fill="#231f20"/>
  <rect x="534.9" y="1018.08" width="13.39" height="13.39" fill="#231f20"/>
  <rect x="534.9" y="1061.3" width="13.39" height="13.39" fill="#231f20"/>
  <rect x="576.58" y="1018.08" width="13.39" height="13.39" fill="#231f20"/>
  <rect x="576.58" y="1061.3" width="13.39" height="13.39" fill="#231f20"/>
  <rect x="576.58" y="499.04" width="13.39" height="13.39" fill="#231f20"/>
  <rect x="403.49" y="585.55" width="13.39" height="13.39" fill="#231f20"/>
  <rect x="273.38" y="152.51" width="13.39" height="13.39" fill="#231f20"/>
  <rect x="273.38" y="197.64" width="13.39" height="13.39" fill="#231f20"/>
  <rect x="273.38" y="240.61" width="13.39" height="13.39" fill="#231f20"/>
  <rect x="273.38" y="283.11" width="13.39" height="13.39" fill="#231f20"/>
  <rect x="231.33" y="283.11" width="13.39" height="13.39" fill="#231f20"/>
  <rect x="231.33" y="412.91" width="13.39" height="13.39" fill="#231f20"/>
  <rect x="187.64" y="412.91" width="13.39" height="13.39" fill="#231f20"/>
  <rect x="144.04" y="412.91" width="13.39" height="13.39" fill="#231f20"/>
  <rect x="102" y="412.91" width="13.39" height="13.39" fill="#231f20"/>
  <rect x="231.33" y="369.79" width="13.39" height="13.39" fill="#231f20"/>
  <rect x="231.33" y="326.33" width="13.39" height="13.39" fill="#231f20"/>
  <rect x="188.54" y="240.61" width="13.39" height="13.39" fill="#231f20"/>
  <rect x="188.54" y="197.64" width="13.39" height="13.39" fill="#231f20"/>
  <rect x="188.54" y="152.51" width="13.39" height="13.39" fill="#231f20"/>
  <rect x="101.1" y="197.64" width="13.39" height="13.39" fill="#231f20"/>
  <rect x="101.1" y="152.51" width="13.39" height="13.39" fill="#231f20"/>
  <rect x="143.14" y="152.51" width="13.39" height="13.39" fill="#231f20"/>
  <rect x="143.14" y="197.64" width="13.39" height="13.39" fill="#231f20"/>
  <rect x="143.14" y="240.61" width="13.39" height="13.39" fill="#231f20"/>
  <rect x="58.68" y="240.61" width="13.39" height="13.39" fill="#231f20"/>
  <rect x="15.88" y="240.61" width="13.39" height="13.39" fill="#231f20"/>
  <rect x="143.14" y="285.75" width="13.39" height="13.39" fill="#231f20"/>
  <rect x="100.09" y="285.75" width="13.39" height="13.39" fill="#231f20"/>
  <rect x="100.09" y="325.91" width="13.39" height="13.39" fill="#231f20"/>
  <rect x="58.3" y="197.64" width="13.39" height="13.39" fill="#231f20"/>
  <rect x="58.3" y="152.51" width="13.39" height="13.39" fill="#231f20"/>
  <rect x="58.04" y="325.91" width="13.39" height="13.39" fill="#231f20"/>
  <rect x="58.68" y="283.14" width="13.39" height="13.39" fill="#231f20"/>
  <rect x="58.68" y="456.45" width="13.39" height="13.39" fill="#231f20"/>
  <rect x="58.3" y="413.48" width="13.39" height="13.39" fill="#231f20"/>
  <rect x="58.3" y="368.34" width="13.39" height="13.39" fill="#231f20"/>
  <rect x="100.09" y="368.34" width="13.39" height="13.39" fill="#231f20"/>
  <rect x="16" y="456.45" width="13.39" height="13.39" fill="#231f20"/>
  <rect x="15.62" y="413.48" width="13.39" height="13.39" fill="#231f20"/>
  <rect x="15.62" y="368.34" width="13.39" height="13.39" fill="#231f20"/>
  <rect x="58.68" y="586.34" width="13.39" height="13.39" fill="#231f20"/>
  <rect x="58.3" y="543.38" width="13.39" height="13.39" fill="#231f20"/>
  <rect x="58.3" y="498.24" width="13.39" height="13.39" fill="#231f20"/>
  <rect x="102.46" y="673.32" width="13.39" height="13.39" fill="#231f20"/>
  <rect x="102.08" y="630.35" width="13.39" height="13.39" fill="#231f20"/>
  <rect x="58.86" y="673.32" width="13.39" height="13.39" fill="#231f20"/>
  <rect x="58.49" y="630.35" width="13.39" height="13.39" fill="#231f20"/>
  <rect x="16.19" y="673.32" width="13.39" height="13.39" fill="#231f20"/>
  <rect x="15.81" y="630.35" width="13.39" height="13.39" fill="#231f20"/>
  <rect x="102.08" y="585.22" width="13.39" height="13.39" fill="#231f20"/>
  <rect x="16" y="586.34" width="13.39" height="13.39" fill="#231f20"/>
  <rect x="188.54" y="716.92" width="13.39" height="13.39" fill="#231f20"/>
  <rect x="188.54" y="802.8" width="13.39" height="13.39" fill="#231f20"/>
  <rect x="188.54" y="760.96" width="13.39" height="13.39" fill="#231f20"/>
  <rect x="145.5" y="716.92" width="13.39" height="13.39" fill="#231f20"/>
  <rect x="145.5" y="802.8" width="13.39" height="13.39" fill="#231f20"/>
  <rect x="145.5" y="760.96" width="13.39" height="13.39" fill="#231f20"/>
  <rect x="58.68" y="717.41" width="13.39" height="13.39" fill="#231f20"/>
  <rect x="102.46" y="802.8" width="13.39" height="13.39" fill="#231f20"/>
  <rect x="102.08" y="760.96" width="13.39" height="13.39" fill="#231f20"/>
  <rect x="58.86" y="802.8" width="13.39" height="13.39" fill="#231f20"/>
  <rect x="58.49" y="760.96" width="13.39" height="13.39" fill="#231f20"/>
  <rect x="16.19" y="802.8" width="13.39" height="13.39" fill="#231f20"/>
  <rect x="15.81" y="760.96" width="13.39" height="13.39" fill="#231f20"/>
  <rect x="102.08" y="716.28" width="13.39" height="13.39" fill="#231f20"/>
  <rect x="16" y="717.41" width="13.39" height="13.39" fill="#231f20"/>
  <rect x="188.54" y="846.63" width="13.39" height="13.39" fill="#231f20"/>
  <rect x="188.54" y="933" width="13.39" height="13.39" fill="#231f20"/>
  <rect x="188.54" y="890.47" width="13.39" height="13.39" fill="#231f20"/>
  <rect x="145.5" y="846.63" width="13.39" height="13.39" fill="#231f20"/>
  <rect x="145.5" y="933" width="13.39" height="13.39" fill="#231f20"/>
  <rect x="145.5" y="890.47" width="13.39" height="13.39" fill="#231f20"/>
  <rect x="230.96" y="975.36" width="13.39" height="13.39" fill="#231f20"/>
  <rect x="230.96" y="1020.12" width="13.39" height="13.39" fill="#231f20"/>
  <rect x="188.54" y="1020.12" width="13.39" height="13.39" fill="#231f20"/>
  <rect x="188.54" y="975.36" width="13.39" height="13.39" fill="#231f20"/>
  <rect x="145.5" y="1020.12" width="13.39" height="13.39" fill="#231f20"/>
  <rect x="145.5" y="1061.33" width="13.39" height="13.39" fill="#231f20"/>
  <rect x="145.5" y="975.36" width="13.39" height="13.39" fill="#231f20"/>
  <rect x="102.46" y="975.36" width="13.39" height="13.39" fill="#231f20"/>
  <rect x="57.78" y="1020.12" width="13.39" height="13.39" fill="#231f20"/>
  <rect x="57.78" y="975.36" width="13.39" height="13.39" fill="#231f20"/>
  <rect x="14.74" y="1020.12" width="13.39" height="13.39" fill="#231f20"/>
  <rect x="57.78" y="1063.33" width="13.39" height="13.39" fill="#231f20"/>
  <rect x="14.74" y="1063.33" width="13.39" height="13.39" fill="#231f20"/>
  <rect x="14.74" y="975.36" width="13.39" height="13.39" fill="#231f20"/>
  <rect x="58.68" y="846.63" width="13.39" height="13.39" fill="#231f20"/>
  <rect x="102.46" y="933" width="13.39" height="13.39" fill="#231f20"/>
  <rect x="102.08" y="890.47" width="13.39" height="13.39" fill="#231f20"/>
  <rect x="58.86" y="933" width="13.39" height="13.39" fill="#231f20"/>
  <rect x="58.49" y="890.47" width="13.39" height="13.39" fill="#231f20"/>
  <rect x="16.19" y="933" width="13.39" height="13.39" fill="#231f20"/>
  <rect x="15.81" y="890.47" width="13.39" height="13.39" fill="#231f20"/>
  <rect x="102.08" y="846.63" width="13.39" height="13.39" fill="#231f20"/>
  <rect x="16" y="846.63" width="13.39" height="13.39" fill="#231f20"/>
  <rect x="15.62" y="543.38" width="13.39" height="13.39" fill="#231f20"/>
  <rect x="15.62" y="498.24" width="13.39" height="13.39" fill="#231f20"/>
  <rect x="15.88" y="152.51" width="13.39" height="13.39" fill="#231f20"/>
  <rect x="188.54" y="283.11" width="13.39" height="13.39" fill="#231f20"/>
  <rect x="188.54" y="326.33" width="13.39" height="13.39" fill="#231f20"/>
  <rect x="188.54" y="369.79" width="13.39" height="13.39" fill="#231f20"/>
  <rect x="273.38" y="326.33" width="13.39" height="13.39" fill="#231f20"/>
  <rect x="273.38" y="369.79" width="13.39" height="13.39" fill="#231f20"/>
  <rect x="576.74" y="197.64" width="13.39" height="13.39" fill="#231f20"/>
  <rect x="576.74" y="23.16" width="13.39" height="13.39" fill="#231f20"/>
</svg>