<?xml version="1.0" encoding="UTF-8"?>
<svg id="_16" data-name="16" xmlns="http://www.w3.org/2000/svg" viewBox="0 0 1080 1080">
  <rect x="746.91" y="23.43" width="13.39" height="13.39" fill="#231f20"/>
  <rect x="789.5" y="23.43" width="13.39" height="13.39" fill="#231f20"/>
  <rect x="574.52" y="23.43" width="13.39" height="13.39" fill="#231f20"/>
  <rect x="617.1" y="23.43" width="13.39" height="13.39" fill="#231f20"/>
  <rect x="833.45" y="23.43" width="13.39" height="13.39" fill="#231f20"/>
  <rect x="876.57" y="24.08" width="13.39" height="13.39" fill="#231f20"/>
  <rect x="660.73" y="23.43" width="13.39" height="13.39" fill="#231f20"/>
  <rect x="358.29" y="23.43" width="13.39" height="13.39" fill="#231f20"/>
  <rect x="401.97" y="24.08" width="13.39" height="13.39" fill="#231f20"/>
  <rect x="128.84" y="657.41" width="40.84" height="40.84" fill="#231f20"/>
  <rect x="86.05" y="657.41" width="40.84" height="40.84" fill="#231f20"/>
  <rect x="85.27" y="571.72" width="40.84" height="40.84" fill="#231f20"/>
  <rect x="85.27" y="528.21" width="40.84" height="40.84" fill="#231f20"/>
  <rect x="258.6" y="528.21" width="40.84" height="40.84" fill="#231f20"/>
  <rect x="301.42" y="441.93" width="40.84" height="40.84" fill="#231f20"/>
  <rect x="474.16" y="182.76" width="40.84" height="40.84" fill="#231f20"/>
  <rect x="474.16" y="139.25" width="40.84" height="40.84" fill="#231f20"/>
  <rect x="430.92" y="139.25" width="40.84" height="40.84" fill="#231f20"/>
  <rect x="517.29" y="182.76" width="40.84" height="40.84" fill="#231f20"/>
  <rect x="646.65" y="182.76" width="40.84" height="40.84" fill="#231f20"/>
  <rect x="603.53" y="182.76" width="40.84" height="40.84" fill="#231f20"/>
  <rect x="646.65" y="139.25" width="40.84" height="40.84" fill="#231f20"/>
  <rect x="689.77" y="182.76" width="40.84" height="40.84" fill="#231f20"/>
  <rect x="819.72" y="226.28" width="40.84" height="40.84" fill="#231f20"/>
  <rect x="862.85" y="226.28" width="40.84" height="40.84" fill="#231f20"/>
  <rect x="906.71" y="268.69" width="40.84" height="40.84" fill="#231f20"/>
  <rect x="949.83" y="268.69" width="40.84" height="40.84" fill="#231f20"/>
  <rect x="949.8" y="52.93" width="40.84" height="40.84" fill="#231f20"/>
  <rect x="993" y="95.73" width="40.84" height="40.84" fill="#231f20"/>
  <rect x="906.67" y="10.36" width="40.84" height="40.84" fill="#231f20"/>
  <rect x="431.04" y="268.69" width="40.84" height="40.84" fill="#231f20"/>
  <rect x="474.28" y="226.28" width="40.84" height="40.84" fill="#231f20"/>
  <rect x="387.8" y="268.69" width="40.84" height="40.84" fill="#231f20"/>
  <rect x="344.56" y="312.11" width="40.84" height="40.84" fill="#231f20"/>
  <rect x="517.29" y="139.25" width="40.84" height="40.84" fill="#231f20"/>
  <rect x="430.92" y="95.73" width="40.84" height="40.84" fill="#231f20"/>
  <rect x="387.8" y="95.73" width="40.84" height="40.84" fill="#231f20"/>
  <rect x="474.05" y="95.73" width="40.84" height="40.84" fill="#231f20"/>
  <rect x="517.29" y="95.73" width="40.84" height="40.84" fill="#231f20"/>
  <rect x="430.92" y="52.93" width="40.84" height="40.84" fill="#231f20"/>
  <rect x="387.8" y="52.93" width="40.84" height="40.84" fill="#231f20"/>
  <rect x="344.56" y="52.93" width="40.84" height="40.84" fill="#231f20"/>
  <rect x="474.05" y="52.93" width="40.84" height="40.84" fill="#231f20"/>
  <rect x="517.29" y="52.93" width="40.84" height="40.84" fill="#231f20"/>
  <rect x="517.29" y="10.36" width="40.84" height="40.84" fill="#231f20"/>
  <rect x="474.05" y="10.36" width="40.84" height="40.84" fill="#231f20"/>
  <rect x="430.86" y="10.36" width="40.84" height="40.84" fill="#231f20"/>
  <rect x="689.89" y="10.12" width="40.84" height="40.84" fill="#231f20"/>
  <rect x="560.41" y="139.25" width="40.84" height="40.84" fill="#231f20"/>
  <rect x="128.84" y="700.88" width="40.84" height="40.84" fill="#231f20"/>
  <rect x="171.62" y="700.88" width="40.84" height="40.84" fill="#231f20"/>
  <rect x="171.62" y="744.34" width="40.84" height="40.84" fill="#231f20"/>
  <rect x="171.62" y="787.8" width="40.84" height="40.84" fill="#231f20"/>
  <rect x="85.27" y="614.31" width="40.84" height="40.84" fill="#231f20"/>
  <rect x="41.95" y="614.31" width="40.84" height="40.84" fill="#231f20"/>
  <rect x="228.36" y="627.4" width="13.39" height="13.39" fill="#231f20"/>
  <rect x="271.38" y="627.4" width="13.39" height="13.39" fill="#231f20"/>
  <rect x="228.36" y="586.06" width="13.39" height="13.39" fill="#231f20"/>
  <rect x="272.32" y="586.06" width="13.39" height="13.39" fill="#231f20"/>
  <rect x="142.56" y="544.15" width="13.39" height="13.39" fill="#231f20"/>
  <rect x="55.68" y="544.15" width="13.39" height="13.39" fill="#231f20"/>
  <rect x="12.35" y="544.15" width="13.39" height="13.39" fill="#231f20"/>
  <rect x="55.68" y="585.45" width="13.39" height="13.39" fill="#231f20"/>
  <rect x="12.35" y="586.06" width="13.39" height="13.39" fill="#231f20"/>
  <rect x="12.35" y="628.04" width="13.39" height="13.39" fill="#231f20"/>
  <rect x="12.35" y="670.63" width="13.39" height="13.39" fill="#231f20"/>
  <rect x="55.68" y="670.63" width="13.39" height="13.39" fill="#231f20"/>
  <rect x="98.99" y="712.61" width="13.39" height="13.39" fill="#231f20"/>
  <rect x="142.56" y="758.06" width="13.39" height="13.39" fill="#231f20"/>
  <rect x="142.56" y="801.52" width="13.39" height="13.39" fill="#231f20"/>
  <rect x="228.36" y="801.52" width="13.39" height="13.39" fill="#231f20"/>
  <rect x="228.36" y="843.68" width="13.39" height="13.39" fill="#231f20"/>
  <rect x="272.32" y="801.52" width="13.39" height="13.39" fill="#231f20"/>
  <rect x="272.32" y="843.68" width="13.39" height="13.39" fill="#231f20"/>
  <rect x="228.36" y="888.05" width="13.39" height="13.39" fill="#231f20"/>
  <rect x="228.36" y="930.21" width="13.39" height="13.39" fill="#231f20"/>
  <rect x="185.35" y="888.05" width="13.39" height="13.39" fill="#231f20"/>
  <rect x="185.35" y="930.21" width="13.39" height="13.39" fill="#231f20"/>
  <rect x="272.32" y="930.21" width="13.39" height="13.39" fill="#231f20"/>
  <rect x="316.28" y="930.21" width="13.39" height="13.39" fill="#231f20"/>
  <rect x="272.32" y="972.36" width="13.39" height="13.39" fill="#231f20"/>
  <rect x="316.28" y="972.36" width="13.39" height="13.39" fill="#231f20"/>
  <rect x="488.51" y="844.85" width="13.39" height="13.39" fill="#231f20"/>
  <rect x="488.51" y="887.01" width="13.39" height="13.39" fill="#231f20"/>
  <rect x="574.27" y="887.64" width="13.39" height="13.39" fill="#231f20"/>
  <rect x="574.27" y="930.21" width="13.39" height="13.39" fill="#231f20"/>
  <rect x="228.36" y="1062.54" width="13.39" height="13.39" fill="#231f20"/>
  <rect x="184.41" y="1062.54" width="13.39" height="13.39" fill="#231f20"/>
  <rect x="401.79" y="1062.54" width="13.39" height="13.39" fill="#231f20"/>
  <rect x="357.83" y="1062.54" width="13.39" height="13.39" fill="#231f20"/>
  <rect x="316.28" y="1015.89" width="13.39" height="13.39" fill="#231f20"/>
  <rect x="142.33" y="1015.89" width="13.39" height="13.39" fill="#231f20"/>
  <rect x="99.78" y="1015.89" width="13.39" height="13.39" fill="#231f20"/>
  <rect x="99.78" y="972.36" width="13.39" height="13.39" fill="#231f20"/>
  <rect x="99.78" y="930.21" width="13.39" height="13.39" fill="#231f20"/>
  <rect x="142.33" y="972.36" width="13.39" height="13.39" fill="#231f20"/>
  <rect x="57.23" y="886.79" width="13.39" height="13.39" fill="#231f20"/>
  <rect x="57.23" y="843.68" width="13.39" height="13.39" fill="#231f20"/>
  <rect x="57.23" y="801.52" width="13.39" height="13.39" fill="#231f20"/>
  <rect x="12.35" y="757.07" width="13.39" height="13.39" fill="#231f20"/>
  <rect x="12.35" y="801.52" width="13.39" height="13.39" fill="#231f20"/>
  <rect x="99.78" y="886.79" width="13.39" height="13.39" fill="#231f20"/>
  <rect x="228.36" y="758.06" width="13.39" height="13.39" fill="#231f20"/>
  <rect x="228.36" y="712.61" width="13.39" height="13.39" fill="#231f20"/>
  <rect x="228.36" y="670" width="13.39" height="13.39" fill="#231f20"/>
  <rect x="271.38" y="670" width="13.39" height="13.39" fill="#231f20"/>
  <rect x="271.85" y="457.12" width="13.39" height="13.39" fill="#231f20"/>
  <rect x="228.36" y="457.12" width="13.39" height="13.39" fill="#231f20"/>
  <rect x="272.79" y="412.34" width="13.39" height="13.39" fill="#231f20"/>
  <rect x="315.14" y="412.34" width="13.39" height="13.39" fill="#231f20"/>
  <rect x="358.29" y="412.34" width="13.39" height="13.39" fill="#231f20"/>
  <rect x="272.79" y="369.22" width="13.39" height="13.39" fill="#231f20"/>
  <rect x="315.14" y="369.22" width="13.39" height="13.39" fill="#231f20"/>
  <rect x="358.29" y="369.22" width="13.39" height="13.39" fill="#231f20"/>
  <rect x="315.14" y="282.42" width="13.39" height="13.39" fill="#231f20"/>
  <rect x="315.14" y="325.83" width="13.39" height="13.39" fill="#231f20"/>
  <rect x="488" y="325.83" width="13.39" height="13.39" fill="#231f20"/>
  <rect x="530.53" y="325.83" width="13.39" height="13.39" fill="#231f20"/>
  <rect x="488" y="281.14" width="13.39" height="13.39" fill="#231f20"/>
  <rect x="531.01" y="281.14" width="13.39" height="13.39" fill="#231f20"/>
  <rect x="573.05" y="325.83" width="13.39" height="13.39" fill="#231f20"/>
  <rect x="616.06" y="325.83" width="13.39" height="13.39" fill="#231f20"/>
  <rect x="660.38" y="325.83" width="13.39" height="13.39" fill="#231f20"/>
  <rect x="703.5" y="325.83" width="13.39" height="13.39" fill="#231f20"/>
  <rect x="746.68" y="325.83" width="13.39" height="13.39" fill="#231f20"/>
  <rect x="789.81" y="325.83" width="13.39" height="13.39" fill="#231f20"/>
  <rect x="833.45" y="368.51" width="13.39" height="13.39" fill="#231f20"/>
  <rect x="876.57" y="368.51" width="13.39" height="13.39" fill="#231f20"/>
  <rect x="876.65" y="412.96" width="13.39" height="13.39" fill="#231f20"/>
  <rect x="919.77" y="412.96" width="13.39" height="13.39" fill="#231f20"/>
  <rect x="920.4" y="369.17" width="13.39" height="13.39" fill="#231f20"/>
  <rect x="963.52" y="369.17" width="13.39" height="13.39" fill="#231f20"/>
  <rect x="963.6" y="413.62" width="13.39" height="13.39" fill="#231f20"/>
  <rect x="1006.21" y="369.17" width="13.39" height="13.39" fill="#231f20"/>
  <rect x="1006.21" y="325.83" width="13.39" height="13.39" fill="#231f20"/>
  <rect x="1049.33" y="369.17" width="13.39" height="13.39" fill="#231f20"/>
  <rect x="1049.41" y="413.62" width="13.39" height="13.39" fill="#231f20"/>
  <rect x="1006.72" y="413.62" width="13.39" height="13.39" fill="#231f20"/>
  <rect x="963.6" y="457.12" width="13.39" height="13.39" fill="#231f20"/>
  <rect x="1049.41" y="457.12" width="13.39" height="13.39" fill="#231f20"/>
  <rect x="1006.72" y="457.12" width="13.39" height="13.39" fill="#231f20"/>
  <rect x="963.3" y="1019.35" width="13.39" height="13.39" fill="#231f20"/>
  <rect x="1049.12" y="1019.35" width="13.39" height="13.39" fill="#231f20"/>
  <rect x="1006.43" y="1019.35" width="13.39" height="13.39" fill="#231f20"/>
  <rect x="791.68" y="1062.54" width="13.39" height="13.39" fill="#231f20"/>
  <rect x="877.49" y="1062.54" width="13.39" height="13.39" fill="#231f20"/>
  <rect x="877.49" y="1019.35" width="13.39" height="13.39" fill="#231f20"/>
  <rect x="791.68" y="930.21" width="13.39" height="13.39" fill="#231f20"/>
  <rect x="791.68" y="886.79" width="13.39" height="13.39" fill="#231f20"/>
  <rect x="834.59" y="930.21" width="13.39" height="13.39" fill="#231f20"/>
  <rect x="662.96" y="930.21" width="13.39" height="13.39" fill="#231f20"/>
  <rect x="705.87" y="930.21" width="13.39" height="13.39" fill="#231f20"/>
  <rect x="705.87" y="972.36" width="13.39" height="13.39" fill="#231f20"/>
  <rect x="834.59" y="886.79" width="13.39" height="13.39" fill="#231f20"/>
  <rect x="834.59" y="843.38" width="13.39" height="13.39" fill="#231f20"/>
  <rect x="487.89" y="496.44" width="13.39" height="13.39" fill="#231f20"/>
  <rect x="487.89" y="455.66" width="13.39" height="13.39" fill="#231f20"/>
  <rect x="358.43" y="626.26" width="13.39" height="13.39" fill="#231f20"/>
  <rect x="358.43" y="585.47" width="13.39" height="13.39" fill="#231f20"/>
  <rect x="574.13" y="455.63" width="13.39" height="13.39" fill="#231f20"/>
  <rect x="574.13" y="496.44" width="13.39" height="13.39" fill="#231f20"/>
  <rect x="574.13" y="414.84" width="13.39" height="13.39" fill="#231f20"/>
  <rect x="920.18" y="887.64" width="13.39" height="13.39" fill="#231f20"/>
  <rect x="963.3" y="887.64" width="13.39" height="13.39" fill="#231f20"/>
  <rect x="920.18" y="844.22" width="13.39" height="13.39" fill="#231f20"/>
  <rect x="920.44" y="759.37" width="13.39" height="13.39" fill="#231f20"/>
  <rect x="963.3" y="759.37" width="13.39" height="13.39" fill="#231f20"/>
  <rect x="1006.72" y="759.37" width="13.39" height="13.39" fill="#231f20"/>
  <rect x="1049.59" y="759.37" width="13.39" height="13.39" fill="#231f20"/>
  <rect x="1049.59" y="715.96" width="13.39" height="13.39" fill="#231f20"/>
  <rect x="920.44" y="715.96" width="13.39" height="13.39" fill="#231f20"/>
  <rect x="920.4" y="1019.35" width="13.39" height="13.39" fill="#231f20"/>
  <rect x="834.8" y="1062.54" width="13.39" height="13.39" fill="#231f20"/>
  <rect x="963.3" y="973.42" width="13.39" height="13.39" fill="#231f20"/>
  <rect x="1049.12" y="973.42" width="13.39" height="13.39" fill="#231f20"/>
  <rect x="1006.43" y="973.42" width="13.39" height="13.39" fill="#231f20"/>
  <rect x="531.01" y="237.73" width="13.39" height="13.39" fill="#231f20"/>
  <rect x="574.13" y="238.61" width="13.39" height="13.39" fill="#231f20"/>
  <rect x="574.13" y="195.21" width="13.39" height="13.39" fill="#231f20"/>
  <rect x="660.73" y="283.7" width="13.39" height="13.39" fill="#231f20"/>
  <rect x="574.13" y="283.7" width="13.39" height="13.39" fill="#231f20"/>
  <rect x="660.73" y="240.29" width="13.39" height="13.39" fill="#231f20"/>
  <rect x="746.91" y="241.28" width="13.39" height="13.39" fill="#231f20"/>
  <rect x="703.61" y="241.28" width="13.39" height="13.39" fill="#231f20"/>
  <rect x="746.91" y="197.88" width="13.39" height="13.39" fill="#231f20"/>
  <rect x="789.5" y="241.28" width="13.39" height="13.39" fill="#231f20"/>
  <rect x="746.91" y="283.7" width="13.39" height="13.39" fill="#231f20"/>
  <rect x="789.5" y="283.7" width="13.39" height="13.39" fill="#231f20"/>
  <rect x="789.5" y="197.88" width="13.39" height="13.39" fill="#231f20"/>
  <rect x="834.86" y="197.88" width="13.39" height="13.39" fill="#231f20"/>
  <rect x="877.44" y="197.88" width="13.39" height="13.39" fill="#231f20"/>
  <rect x="920.44" y="197.88" width="13.39" height="13.39" fill="#231f20"/>
  <rect x="920.44" y="240" width="13.39" height="13.39" fill="#231f20"/>
  <rect x="963.56" y="240" width="13.39" height="13.39" fill="#231f20"/>
  <rect x="920.44" y="325.83" width="13.39" height="13.39" fill="#231f20"/>
  <rect x="963.56" y="325.83" width="13.39" height="13.39" fill="#231f20"/>
  <rect x="832.08" y="283.7" width="13.39" height="13.39" fill="#231f20"/>
  <rect x="875.21" y="283.7" width="13.39" height="13.39" fill="#231f20"/>
  <rect x="746.91" y="109.46" width="13.39" height="13.39" fill="#231f20"/>
  <rect x="789.5" y="109.46" width="13.39" height="13.39" fill="#231f20"/>
  <rect x="746.91" y="153.67" width="13.39" height="13.39" fill="#231f20"/>
  <rect x="703.5" y="153.67" width="13.39" height="13.39" fill="#231f20"/>
  <rect x="789.5" y="153.67" width="13.39" height="13.39" fill="#231f20"/>
  <rect x="574.13" y="108.77" width="13.39" height="13.39" fill="#231f20"/>
  <rect x="618.25" y="152.89" width="13.39" height="13.39" fill="#231f20"/>
  <rect x="574.13" y="65.37" width="13.39" height="13.39" fill="#231f20"/>
  <rect x="660.73" y="66.83" width="13.39" height="13.39" fill="#231f20"/>
  <rect x="660.73" y="109.46" width="13.39" height="13.39" fill="#231f20"/>
  <rect x="703.5" y="66.83" width="13.39" height="13.39" fill="#231f20"/>
  <rect x="789.5" y="65.37" width="13.39" height="13.39" fill="#231f20"/>
  <rect x="833.45" y="109.46" width="13.39" height="13.39" fill="#231f20"/>
  <rect x="833.45" y="65.37" width="13.39" height="13.39" fill="#231f20"/>
  <rect x="876.57" y="109.46" width="13.39" height="13.39" fill="#231f20"/>
  <rect x="876.57" y="65.37" width="13.39" height="13.39" fill="#231f20"/>
  <rect x="358.29" y="282.42" width="13.39" height="13.39" fill="#231f20"/>
  <rect x="143.33" y="240" width="13.39" height="13.39" fill="#231f20"/>
  <rect x="186.12" y="240" width="13.39" height="13.39" fill="#231f20"/>
  <rect x="100.34" y="281.33" width="13.39" height="13.39" fill="#231f20"/>
  <rect x="143.33" y="281.33" width="13.39" height="13.39" fill="#231f20"/>
  <rect x="186.12" y="281.33" width="13.39" height="13.39" fill="#231f20"/>
  <rect x="100.34" y="325.83" width="13.39" height="13.39" fill="#231f20"/>
  <rect x="143.33" y="325.83" width="13.39" height="13.39" fill="#231f20"/>
  <rect x="57" y="369.22" width="13.39" height="13.39" fill="#231f20"/>
  <rect x="57" y="412.34" width="13.39" height="13.39" fill="#231f20"/>
  <rect x="100.34" y="412.34" width="13.39" height="13.39" fill="#231f20"/>
  <rect x="100.34" y="457.12" width="13.39" height="13.39" fill="#231f20"/>
  <rect x="57" y="457.12" width="13.39" height="13.39" fill="#231f20"/>
  <rect x="12.35" y="457.12" width="13.39" height="13.39" fill="#231f20"/>
  <rect x="100.34" y="369.22" width="13.39" height="13.39" fill="#231f20"/>
  <rect x="186.12" y="371.35" width="13.39" height="13.39" fill="#231f20"/>
  <rect x="143.33" y="371.35" width="13.39" height="13.39" fill="#231f20"/>
  <rect x="186.12" y="195.21" width="13.39" height="13.39" fill="#231f20"/>
  <rect x="228.36" y="195.21" width="13.39" height="13.39" fill="#231f20"/>
  <rect x="228.36" y="152.97" width="13.39" height="13.39" fill="#231f20"/>
  <rect x="270.76" y="152.97" width="13.39" height="13.39" fill="#231f20"/>
  <rect x="272.21" y="109.46" width="13.39" height="13.39" fill="#231f20"/>
  <rect x="314.61" y="109.46" width="13.39" height="13.39" fill="#231f20"/>
  <rect x="270.76" y="195.21" width="13.39" height="13.39" fill="#231f20"/>
  <rect x="401.44" y="325.83" width="13.39" height="13.39" fill="#231f20"/>
  <rect x="401.44" y="369.22" width="13.39" height="13.39" fill="#231f20"/>
  <rect x="444.58" y="325.83" width="13.39" height="13.39" fill="#231f20"/>
  <rect x="401.44" y="239.04" width="13.39" height="13.39" fill="#231f20"/>
  <rect x="444.58" y="239.04" width="13.39" height="13.39" fill="#231f20"/>
  <rect x="444.58" y="196.49" width="13.39" height="13.39" fill="#231f20"/>
  <rect x="401.53" y="152.97" width="13.39" height="13.39" fill="#231f20"/>
  <rect x="358.29" y="152.97" width="13.39" height="13.39" fill="#231f20"/>
  <rect x="358.29" y="109.46" width="13.39" height="13.39" fill="#231f20"/>
  <rect x="271.85" y="499.72" width="13.39" height="13.39" fill="#231f20"/>
  <rect x="228.36" y="499.72" width="13.39" height="13.39" fill="#231f20"/>
  <rect x="100.32" y="499.72" width="13.39" height="13.39" fill="#231f20"/>
  <rect x="56.83" y="499.72" width="13.39" height="13.39" fill="#231f20"/>
  <rect x="12.35" y="500.95" width="13.39" height="13.39" fill="#231f20"/>
  <rect x="228.36" y="544.15" width="13.39" height="13.39" fill="#231f20"/>
  <rect x="315.14" y="499.72" width="13.39" height="13.39" fill="#231f20"/>
  <rect x="315.14" y="544.15" width="13.39" height="13.39" fill="#231f20"/>
  <rect x="185.35" y="843.68" width="13.39" height="13.39" fill="#231f20"/>
  <rect x="142.56" y="843.68" width="13.39" height="13.39" fill="#231f20"/>
  <rect x="12.35" y="712.61" width="13.39" height="13.39" fill="#231f20"/>
  <rect x="185.35" y="544.15" width="13.39" height="13.39" fill="#231f20"/>
  <rect x="185.35" y="670.6" width="13.39" height="13.39" fill="#231f20"/>
  <rect x="185.35" y="629.26" width="13.39" height="13.39" fill="#231f20"/>
  <rect x="142.56" y="629.26" width="13.39" height="13.39" fill="#231f20"/>
</svg>