<?xml version="1.0" encoding="UTF-8"?>
<svg id="_17" data-name="17" xmlns="http://www.w3.org/2000/svg" viewBox="0 0 1080 1080">
  <rect x="517.32" y="650.3" width="40.84" height="40.84" fill="#231f20"/>
  <rect x="474.12" y="650.3" width="40.84" height="40.84" fill="#231f20"/>
  <rect x="517.32" y="693.44" width="40.84" height="40.84" fill="#231f20"/>
  <rect x="474.12" y="693.44" width="40.84" height="40.84" fill="#231f20"/>
  <rect x="517.32" y="736.59" width="40.84" height="40.84" fill="#231f20"/>
  <rect x="560.53" y="650.3" width="40.84" height="40.84" fill="#231f20"/>
  <rect x="517.32" y="607.16" width="40.84" height="40.84" fill="#231f20"/>
  <rect x="474.12" y="607.16" width="40.84" height="40.84" fill="#231f20"/>
  <rect x="560.53" y="607.16" width="40.84" height="40.84" fill="#231f20"/>
  <rect x="560.53" y="693.44" width="40.84" height="40.84" fill="#231f20"/>
  <rect x="560.53" y="736.59" width="40.84" height="40.84" fill="#231f20"/>
  <rect x="603.73" y="650.3" width="40.84" height="40.84" fill="#231f20"/>
  <rect x="603.73" y="607.16" width="40.84" height="40.84" fill="#231f20"/>
  <rect x="603.73" y="693.44" width="40.84" height="40.84" fill="#231f20"/>
  <rect x="603.73" y="736.59" width="40.84" height="40.84" fill="#231f20"/>
  <rect x="646.93" y="650.3" width="40.84" height="40.84" fill="#231f20"/>
  <rect x="646.93" y="607.16" width="40.84" height="40.84" fill="#231f20"/>
  <rect x="646.93" y="693.44" width="40.84" height="40.84" fill="#231f20"/>
  <rect x="646.93" y="736.59" width="40.84" height="40.84" fill="#231f20"/>
  <rect x="603.73" y="477.74" width="40.84" height="40.84" fill="#231f20"/>
  <rect x="603.73" y="434.6" width="40.84" height="40.84" fill="#231f20"/>
  <rect x="603.73" y="520.88" width="40.84" height="40.84" fill="#231f20"/>
  <rect x="603.73" y="564.02" width="40.84" height="40.84" fill="#231f20"/>
  <rect x="646.93" y="477.74" width="40.84" height="40.84" fill="#231f20"/>
  <rect x="646.93" y="434.6" width="40.84" height="40.84" fill="#231f20"/>
  <rect x="646.93" y="520.88" width="40.84" height="40.84" fill="#231f20"/>
  <rect x="646.93" y="564.02" width="40.84" height="40.84" fill="#231f20"/>
  <rect x="646.93" y="779.73" width="40.84" height="40.84" fill="#231f20"/>
  <rect x="603.73" y="866.18" width="40.84" height="40.84" fill="#231f20"/>
  <rect x="603.73" y="822.84" width="40.84" height="40.84" fill="#231f20"/>
  <rect x="603.73" y="909.32" width="40.84" height="40.84" fill="#231f20"/>
  <rect x="603.73" y="952.46" width="40.84" height="40.84" fill="#231f20"/>
  <rect x="646.93" y="866.18" width="40.84" height="40.84" fill="#231f20"/>
  <rect x="646.93" y="822.84" width="40.84" height="40.84" fill="#231f20"/>
  <rect x="646.93" y="909.32" width="40.84" height="40.84" fill="#231f20"/>
  <rect x="647.04" y="952.46" width="40.84" height="40.84" fill="#231f20"/>
  <rect x="647.04" y="995.87" width="40.84" height="40.84" fill="#231f20"/>
  <rect x="646.93" y="1038.77" width="40.84" height="40.84" fill="#231f20"/>
  <rect x="689.33" y="650.3" width="40.84" height="40.84" fill="#231f20"/>
  <rect x="689.33" y="607.16" width="40.84" height="40.84" fill="#231f20"/>
  <rect x="690.07" y="693.44" width="40.84" height="40.84" fill="#231f20"/>
  <rect x="690.07" y="736.59" width="40.84" height="40.84" fill="#231f20"/>
  <rect x="689.33" y="477.74" width="40.84" height="40.84" fill="#231f20"/>
  <rect x="689.33" y="434.6" width="40.84" height="40.84" fill="#231f20"/>
  <rect x="689.33" y="520.88" width="40.84" height="40.84" fill="#231f20"/>
  <rect x="689.33" y="564.02" width="40.84" height="40.84" fill="#231f20"/>
  <rect x="690.14" y="391.13" width="40.84" height="40.84" fill="#231f20"/>
  <rect x="690.14" y="261.71" width="40.84" height="40.84" fill="#231f20"/>
  <rect x="690.14" y="218.57" width="40.84" height="40.84" fill="#231f20"/>
  <rect x="690.14" y="304.85" width="40.84" height="40.84" fill="#231f20"/>
  <rect x="690.12" y="131.6" width="40.84" height="40.84" fill="#231f20"/>
  <rect x="690.14" y="88.64" width="40.84" height="40.84" fill="#231f20"/>
  <rect x="690.14" y="174.83" width="40.84" height="40.84" fill="#231f20"/>
  <rect x="690.14" y="347.99" width="40.84" height="40.84" fill="#231f20"/>
  <rect x="646.93" y="391.13" width="40.84" height="40.84" fill="#231f20"/>
  <rect x="646.93" y="261.71" width="40.84" height="40.84" fill="#231f20"/>
  <rect x="646.93" y="218.57" width="40.84" height="40.84" fill="#231f20"/>
  <rect x="646.93" y="304.85" width="40.84" height="40.84" fill="#231f20"/>
  <rect x="646.92" y="131.6" width="40.84" height="40.84" fill="#231f20"/>
  <rect x="646.93" y="88.64" width="40.84" height="40.84" fill="#231f20"/>
  <rect x="646.93" y="174.83" width="40.84" height="40.84" fill="#231f20"/>
  <rect x="646.93" y="347.99" width="40.84" height="40.84" fill="#231f20"/>
  <rect x="474.12" y="261.26" width="40.84" height="40.84" fill="#231f20"/>
  <rect x="474.12" y="218.18" width="40.84" height="40.84" fill="#231f20"/>
  <rect x="474.12" y="304.62" width="40.84" height="40.84" fill="#231f20"/>
  <rect x="474.12" y="174.83" width="40.84" height="40.84" fill="#231f20"/>
  <rect x="474.12" y="347.45" width="40.84" height="40.84" fill="#231f20"/>
  <rect x="690.07" y="779.73" width="40.84" height="40.84" fill="#231f20"/>
  <rect x="690.07" y="866.18" width="40.84" height="40.84" fill="#231f20"/>
  <rect x="690.07" y="822.84" width="40.84" height="40.84" fill="#231f20"/>
  <rect x="690.07" y="909.32" width="40.84" height="40.84" fill="#231f20"/>
  <rect x="690" y="952.46" width="40.84" height="40.84" fill="#231f20"/>
  <rect x="690" y="995.52" width="40.84" height="40.84" fill="#231f20"/>
  <rect x="689.89" y="1038.77" width="40.84" height="40.84" fill="#231f20"/>
  <rect x="474.12" y="736.59" width="40.84" height="40.84" fill="#231f20"/>
  <rect x="474.12" y="779.73" width="40.84" height="40.84" fill="#231f20"/>
  <rect x="474.12" y="822.87" width="40.84" height="40.84" fill="#231f20"/>
  <rect x="474.12" y="865.65" width="40.84" height="40.84" fill="#231f20"/>
  <rect x="444.54" y="664.03" width="13.39" height="13.39" fill="#231f20"/>
  <rect x="444.54" y="620.89" width="13.39" height="13.39" fill="#231f20"/>
  <rect x="402.77" y="664.03" width="13.39" height="13.39" fill="#231f20"/>
  <rect x="357.52" y="664.03" width="13.39" height="13.39" fill="#231f20"/>
  <rect x="315.76" y="664.03" width="13.39" height="13.39" fill="#231f20"/>
  <rect x="402.77" y="620.89" width="13.39" height="13.39" fill="#231f20"/>
  <rect x="444.54" y="750.26" width="13.39" height="13.39" fill="#231f20"/>
  <rect x="444.54" y="707.12" width="13.39" height="13.39" fill="#231f20"/>
  <rect x="402.77" y="707.12" width="13.39" height="13.39" fill="#231f20"/>
  <rect x="574.25" y="491.35" width="13.39" height="13.39" fill="#231f20"/>
  <rect x="574.25" y="448" width="13.39" height="13.39" fill="#231f20"/>
  <rect x="574.25" y="577.38" width="13.39" height="13.39" fill="#231f20"/>
  <rect x="531.39" y="577.38" width="13.39" height="13.39" fill="#231f20"/>
  <rect x="487.85" y="577.38" width="13.39" height="13.39" fill="#231f20"/>
  <rect x="444.54" y="577.38" width="13.39" height="13.39" fill="#231f20"/>
  <rect x="574.25" y="534.43" width="13.39" height="13.39" fill="#231f20"/>
  <rect x="531.82" y="491.35" width="13.39" height="13.38" fill="#231f20"/>
  <rect x="531.82" y="448" width="13.39" height="13.39" fill="#231f20"/>
  <rect x="531.82" y="534.43" width="13.39" height="13.39" fill="#231f20"/>
  <rect x="487.46" y="491.35" width="13.39" height="13.38" fill="#231f20"/>
  <rect x="487.46" y="448" width="13.39" height="13.39" fill="#231f20"/>
  <rect x="487.46" y="534.43" width="13.39" height="13.39" fill="#231f20"/>
  <rect x="444.54" y="491.35" width="13.39" height="13.38" fill="#231f20"/>
  <rect x="401.28" y="491.35" width="13.39" height="13.38" fill="#231f20"/>
  <rect x="358.36" y="491.35" width="13.39" height="13.38" fill="#231f20"/>
  <rect x="444.54" y="448" width="13.39" height="13.39" fill="#231f20"/>
  <rect x="574.25" y="406.91" width="13.39" height="13.39" fill="#231f20"/>
  <rect x="531.82" y="406.91" width="13.39" height="13.39" fill="#231f20"/>
  <rect x="487.46" y="406.91" width="13.39" height="13.39" fill="#231f20"/>
  <rect x="444.54" y="406.91" width="13.39" height="13.39" fill="#231f20"/>
  <rect x="401.28" y="406.91" width="13.39" height="13.39" fill="#231f20"/>
  <rect x="358.36" y="406.91" width="13.39" height="13.39" fill="#231f20"/>
  <rect x="444.54" y="534.43" width="13.39" height="13.39" fill="#231f20"/>
  <rect x="444.54" y="362.54" width="13.39" height="13.39" fill="#231f20"/>
  <rect x="444.54" y="276.31" width="13.39" height="13.39" fill="#231f20"/>
  <rect x="444.54" y="233.17" width="13.39" height="13.39" fill="#231f20"/>
  <rect x="444.54" y="190.53" width="13.39" height="13.39" fill="#231f20"/>
  <rect x="444.54" y="146.21" width="13.39" height="13.39" fill="#231f20"/>
  <rect x="401.53" y="101.89" width="13.39" height="13.39" fill="#231f20"/>
  <rect x="401.53" y="146.21" width="13.39" height="13.39" fill="#231f20"/>
  <rect x="358.12" y="276.31" width="13.39" height="13.39" fill="#231f20"/>
  <rect x="358.12" y="233.17" width="13.39" height="13.39" fill="#231f20"/>
  <rect x="358.12" y="190.53" width="13.39" height="13.39" fill="#231f20"/>
  <rect x="401.53" y="190.53" width="13.39" height="13.39" fill="#231f20"/>
  <rect x="444.54" y="319.4" width="13.39" height="13.39" fill="#231f20"/>
  <rect x="227.76" y="404.35" width="13.39" height="13.39" fill="#231f20"/>
  <rect x="227.76" y="318.12" width="13.39" height="13.39" fill="#231f20"/>
  <rect x="227.76" y="275.19" width="13.39" height="13.39" fill="#231f20"/>
  <rect x="227.76" y="232.34" width="13.39" height="13.39" fill="#231f20"/>
  <rect x="227.76" y="188.02" width="13.39" height="13.39" fill="#231f20"/>
  <rect x="227.76" y="362.03" width="13.39" height="13.39" fill="#231f20"/>
  <rect x="184.41" y="318.12" width="13.39" height="13.39" fill="#231f20"/>
  <rect x="184.41" y="275.19" width="13.39" height="13.39" fill="#231f20"/>
  <rect x="184.41" y="362.03" width="13.39" height="13.39" fill="#231f20"/>
  <rect x="57.06" y="404.35" width="13.39" height="13.39" fill="#231f20"/>
  <rect x="13.71" y="404.35" width="13.39" height="13.39" fill="#231f20"/>
  <rect x="102.15" y="319.43" width="13.39" height="13.39" fill="#231f20"/>
  <rect x="102.15" y="275.19" width="13.39" height="13.39" fill="#231f20"/>
  <rect x="102.15" y="362.03" width="13.39" height="13.39" fill="#231f20"/>
  <rect x="57.06" y="320.08" width="13.39" height="13.39" fill="#231f20"/>
  <rect x="57.06" y="362.03" width="13.39" height="13.39" fill="#231f20"/>
  <rect x="100.42" y="620.94" width="13.39" height="13.39" fill="#231f20"/>
  <rect x="100.42" y="577.8" width="13.39" height="13.39" fill="#231f20"/>
  <rect x="100.42" y="664.03" width="13.39" height="13.39" fill="#231f20"/>
  <rect x="14.22" y="534.43" width="13.39" height="13.39" fill="#231f20"/>
  <rect x="14.22" y="491.35" width="13.39" height="13.39" fill="#231f20"/>
  <rect x="14.22" y="577.35" width="13.39" height="13.39" fill="#231f20"/>
  <rect x="227.81" y="534.43" width="13.39" height="13.39" fill="#231f20"/>
  <rect x="227.81" y="491.35" width="13.39" height="13.39" fill="#231f20"/>
  <rect x="143.2" y="534.43" width="13.39" height="13.39" fill="#231f20"/>
  <rect x="143.2" y="491.35" width="13.39" height="13.39" fill="#231f20"/>
  <rect x="227.81" y="577.35" width="13.39" height="13.39" fill="#231f20"/>
  <rect x="185.98" y="534.43" width="13.39" height="13.39" fill="#231f20"/>
  <rect x="185.98" y="577.35" width="13.39" height="13.39" fill="#231f20"/>
  <rect x="143.2" y="620.94" width="13.39" height="13.39" fill="#231f20"/>
  <rect x="143.2" y="664.03" width="13.39" height="13.39" fill="#231f20"/>
  <rect x="227.76" y="792.35" width="13.39" height="13.39" fill="#231f20"/>
  <rect x="186.19" y="749.21" width="13.39" height="13.39" fill="#231f20"/>
  <rect x="143.2" y="752.51" width="13.39" height="13.39" fill="#231f20"/>
  <rect x="227.76" y="749.21" width="13.39" height="13.39" fill="#231f20"/>
  <rect x="227.76" y="835.44" width="13.39" height="13.39" fill="#231f20"/>
  <rect x="227.81" y="1008.82" width="13.39" height="13.39" fill="#231f20"/>
  <rect x="227.81" y="965.68" width="13.39" height="13.39" fill="#231f20"/>
  <rect x="227.81" y="923.66" width="13.39" height="13.39" fill="#231f20"/>
  <rect x="227.81" y="880.52" width="13.39" height="13.39" fill="#231f20"/>
  <rect x="273.44" y="1008.82" width="13.39" height="13.39" fill="#231f20"/>
  <rect x="273.44" y="1051.91" width="13.39" height="13.39" fill="#231f20"/>
  <rect x="316.43" y="1051.91" width="13.39" height="13.39" fill="#231f20"/>
  <rect x="273.44" y="965.68" width="13.39" height="13.39" fill="#231f20"/>
  <rect x="273.44" y="923.66" width="13.39" height="13.39" fill="#231f20"/>
  <rect x="273.44" y="880.52" width="13.39" height="13.39" fill="#231f20"/>
  <rect x="227.81" y="1051.91" width="13.39" height="13.39" fill="#231f20"/>
  <rect x="56.06" y="707.22" width="13.39" height="13.39" fill="#231f20"/>
  <rect x="56.06" y="664.08" width="13.39" height="13.39" fill="#231f20"/>
  <rect x="56.06" y="750.31" width="13.39" height="13.39" fill="#231f20"/>
  <rect x="56.06" y="837.4" width="13.39" height="13.39" fill="#231f20"/>
  <rect x="56.06" y="880.49" width="13.39" height="13.39" fill="#231f20"/>
  <rect x="100.42" y="923.68" width="13.39" height="13.39" fill="#231f20"/>
  <rect x="142.96" y="923.68" width="13.39" height="13.39" fill="#231f20"/>
  <rect x="100.42" y="966.77" width="13.39" height="13.39" fill="#231f20"/>
  <rect x="100.42" y="1008.82" width="13.39" height="13.39" fill="#231f20"/>
  <rect x="142.96" y="966.77" width="13.39" height="13.39" fill="#231f20"/>
  <rect x="143.28" y="232.65" width="13.39" height="13.39" fill="#231f20"/>
  <rect x="143.28" y="189.51" width="13.39" height="13.39" fill="#231f20"/>
  <rect x="143.28" y="275.19" width="13.39" height="13.39" fill="#231f20"/>
  <rect x="143.28" y="101.91" width="13.39" height="13.39" fill="#231f20"/>
  <rect x="143.28" y="58.77" width="13.39" height="13.39" fill="#231f20"/>
  <rect x="143.28" y="145" width="13.39" height="13.39" fill="#231f20"/>
  <rect x="100.17" y="147.71" width="13.39" height="13.39" fill="#231f20"/>
  <rect x="57.06" y="230.86" width="13.39" height="13.39" fill="#231f20"/>
  <rect x="57.06" y="187.72" width="13.39" height="13.39" fill="#231f20"/>
  <rect x="57.06" y="275.19" width="13.39" height="13.39" fill="#231f20"/>
  <rect x="57.06" y="101.91" width="13.39" height="13.39" fill="#231f20"/>
  <rect x="57.06" y="58.77" width="13.39" height="13.39" fill="#231f20"/>
  <rect x="57.06" y="145" width="13.39" height="13.39" fill="#231f20"/>
  <rect x="617.46" y="318.34" width="13.39" height="13.39" fill="#231f20"/>
  <rect x="617.46" y="275.2" width="13.39" height="13.39" fill="#231f20"/>
  <rect x="617.46" y="404.58" width="13.39" height="13.39" fill="#231f20"/>
  <rect x="617.46" y="361.44" width="13.39" height="13.39" fill="#231f20"/>
  <rect x="573.95" y="363.71" width="13.39" height="13.39" fill="#231f20"/>
  <rect x="617.46" y="148.59" width="13.39" height="13.39" fill="#231f20"/>
  <rect x="531.82" y="191.68" width="13.39" height="13.39" fill="#231f20"/>
  <rect x="531.82" y="230.84" width="13.39" height="13.39" fill="#231f20"/>
  <rect x="617.46" y="230.84" width="13.39" height="13.39" fill="#231f20"/>
  <rect x="617.46" y="191.68" width="13.39" height="13.39" fill="#231f20"/>
  <rect x="574.25" y="318.34" width="13.39" height="13.39" fill="#231f20"/>
  <rect x="530.45" y="318.34" width="13.39" height="13.39" fill="#231f20"/>
  <rect x="530.45" y="363.71" width="13.39" height="13.39" fill="#231f20"/>
  <rect x="574.25" y="275.2" width="13.39" height="13.39" fill="#231f20"/>
  <rect x="574.25" y="148.59" width="13.39" height="13.39" fill="#231f20"/>
  <rect x="616.85" y="17.72" width="13.39" height="13.39" fill="#231f20"/>
  <rect x="573.65" y="17.72" width="13.39" height="13.39" fill="#231f20"/>
  <rect x="617.44" y="59.67" width="13.39" height="13.39" fill="#231f20"/>
  <rect x="616.68" y="101.11" width="13.39" height="13.39" fill="#231f20"/>
  <rect x="574.24" y="59.67" width="13.39" height="13.39" fill="#231f20"/>
  <rect x="358.85" y="58.77" width="13.39" height="13.39" fill="#231f20"/>
  <rect x="315.65" y="58.77" width="13.39" height="13.39" fill="#231f20"/>
  <rect x="704.24" y="59.67" width="13.39" height="13.39" fill="#231f20"/>
  <rect x="661.04" y="59.67" width="13.39" height="13.39" fill="#231f20"/>
  <rect x="574.25" y="230.84" width="13.39" height="13.39" fill="#231f20"/>
  <rect x="574.25" y="191.68" width="13.39" height="13.39" fill="#231f20"/>
  <rect x="444.54" y="835.47" width="13.39" height="13.39" fill="#231f20"/>
  <rect x="444.54" y="792.33" width="13.39" height="13.39" fill="#231f20"/>
  <rect x="444.54" y="921.7" width="13.39" height="13.39" fill="#231f20"/>
  <rect x="444.54" y="878.56" width="13.39" height="13.39" fill="#231f20"/>
  <rect x="402.77" y="835.47" width="13.39" height="13.39" fill="#231f20"/>
  <rect x="402.77" y="792.33" width="13.39" height="13.39" fill="#231f20"/>
  <rect x="402.77" y="921.7" width="13.39" height="13.39" fill="#231f20"/>
  <rect x="530.45" y="920.95" width="13.39" height="13.39" fill="#231f20"/>
  <rect x="530.45" y="878.63" width="13.39" height="13.39" fill="#231f20"/>
  <rect x="530.45" y="837.33" width="13.39" height="13.39" fill="#231f20"/>
  <rect x="530.45" y="795.01" width="13.39" height="13.39" fill="#231f20"/>
  <rect x="574.25" y="920.95" width="13.39" height="13.39" fill="#231f20"/>
  <rect x="574.25" y="878.63" width="13.39" height="13.39" fill="#231f20"/>
  <rect x="573.96" y="1009.53" width="13.39" height="13.39" fill="#231f20"/>
  <rect x="573.96" y="967.21" width="13.39" height="13.39" fill="#231f20"/>
  <rect x="617.46" y="1053.24" width="13.39" height="13.39" fill="#231f20"/>
  <rect x="617.46" y="1010.91" width="13.39" height="13.39" fill="#231f20"/>
  <rect x="574.25" y="837.33" width="13.39" height="13.39" fill="#231f20"/>
  <rect x="791.23" y="921.18" width="13.39" height="13.39" fill="#231f20"/>
  <rect x="791.23" y="878.85" width="13.39" height="13.39" fill="#231f20"/>
  <rect x="790.93" y="1009.76" width="13.39" height="13.39" fill="#231f20"/>
  <rect x="790.93" y="967.43" width="13.39" height="13.39" fill="#231f20"/>
  <rect x="749.84" y="1009.53" width="13.39" height="13.39" fill="#231f20"/>
  <rect x="790.93" y="1051.75" width="13.39" height="13.39" fill="#231f20"/>
  <rect x="749.84" y="1053.24" width="13.39" height="13.39" fill="#231f20"/>
  <rect x="791.23" y="837.56" width="13.39" height="13.39" fill="#231f20"/>
  <rect x="791.23" y="791.02" width="13.39" height="13.39" fill="#231f20"/>
  <rect x="791.23" y="748.69" width="13.39" height="13.39" fill="#231f20"/>
  <rect x="791.23" y="707.4" width="13.39" height="13.39" fill="#231f20"/>
  <rect x="791.23" y="533.28" width="13.39" height="13.39" fill="#231f20"/>
  <rect x="791.23" y="490.95" width="13.39" height="13.39" fill="#231f20"/>
  <rect x="791.23" y="619.33" width="13.39" height="13.39" fill="#231f20"/>
  <rect x="791.23" y="577" width="13.39" height="13.39" fill="#231f20"/>
  <rect x="833.77" y="490.95" width="13.39" height="13.39" fill="#231f20"/>
  <rect x="791.23" y="449.66" width="13.39" height="13.39" fill="#231f20"/>
  <rect x="788.85" y="186.52" width="13.39" height="13.39" fill="#231f20"/>
  <rect x="788.85" y="144.19" width="13.39" height="13.39" fill="#231f20"/>
  <rect x="788.85" y="272.58" width="13.39" height="13.39" fill="#231f20"/>
  <rect x="788.85" y="230.25" width="13.39" height="13.39" fill="#231f20"/>
  <rect x="833.77" y="405.93" width="13.39" height="13.39" fill="#231f20"/>
  <rect x="833.77" y="363.6" width="13.39" height="13.39" fill="#231f20"/>
  <rect x="788.85" y="102.9" width="13.39" height="13.39" fill="#231f20"/>
  <rect x="831.52" y="142.92" width="13.39" height="13.39" fill="#231f20"/>
  <rect x="831.52" y="100.59" width="13.39" height="13.39" fill="#231f20"/>
  <rect x="831.52" y="59.3" width="13.39" height="13.39" fill="#231f20"/>
  <rect x="876.31" y="447.85" width="13.39" height="13.39" fill="#231f20"/>
  <rect x="876.31" y="405.52" width="13.39" height="13.39" fill="#231f20"/>
  <rect x="876.31" y="491.58" width="13.39" height="13.39" fill="#231f20"/>
  <rect x="918.86" y="405.52" width="13.39" height="13.39" fill="#231f20"/>
  <rect x="918.86" y="448.33" width="13.39" height="13.39" fill="#231f20"/>
  <rect x="964.79" y="534.49" width="13.39" height="13.39" fill="#231f20"/>
  <rect x="964.79" y="577.29" width="13.39" height="13.39" fill="#231f20"/>
  <rect x="922.01" y="665.35" width="13.39" height="13.39" fill="#231f20"/>
  <rect x="922.01" y="708.15" width="13.39" height="13.39" fill="#231f20"/>
  <rect x="876.31" y="665.35" width="13.39" height="13.39" fill="#231f20"/>
  <rect x="876.31" y="708.15" width="13.39" height="13.39" fill="#231f20"/>
  <rect x="922.01" y="751.63" width="13.39" height="13.39" fill="#231f20"/>
  <rect x="922.01" y="794.43" width="13.39" height="13.39" fill="#231f20"/>
  <rect x="1007.56" y="837.55" width="13.39" height="13.39" fill="#231f20"/>
  <rect x="1007.56" y="880.35" width="13.39" height="13.39" fill="#231f20"/>
  <rect x="1007.56" y="923.83" width="13.39" height="13.39" fill="#231f20"/>
  <rect x="1007.56" y="966.63" width="13.39" height="13.39" fill="#231f20"/>
  <rect x="1007.56" y="1009.69" width="13.39" height="13.39" fill="#231f20"/>
  <rect x="1007.56" y="1052.49" width="13.39" height="13.39" fill="#231f20"/>
  <rect x="1007.79" y="491.35" width="13.39" height="13.39" fill="#231f20"/>
  <rect x="1007.79" y="534.15" width="13.39" height="13.39" fill="#231f20"/>
  <rect x="1007.79" y="577.63" width="13.39" height="13.39" fill="#231f20"/>
  <rect x="1050.79" y="534.15" width="13.39" height="13.39" fill="#231f20"/>
  <rect x="1050.79" y="577.63" width="13.39" height="13.39" fill="#231f20"/>
  <rect x="1007.79" y="620.43" width="13.39" height="13.39" fill="#231f20"/>
  <rect x="878.7" y="965.65" width="13.39" height="13.39" fill="#231f20"/>
  <rect x="878.7" y="1009.13" width="13.39" height="13.39" fill="#231f20"/>
  <rect x="878.7" y="1051.93" width="13.39" height="13.39" fill="#231f20"/>
  <rect x="878.7" y="837.38" width="13.39" height="13.39" fill="#231f20"/>
  <rect x="878.7" y="880.86" width="13.39" height="13.39" fill="#231f20"/>
  <rect x="878.7" y="923.66" width="13.39" height="13.39" fill="#231f20"/>
  <rect x="876.31" y="751.63" width="13.39" height="13.39" fill="#231f20"/>
  <rect x="876.31" y="794.43" width="13.39" height="13.39" fill="#231f20"/>
  <rect x="922.01" y="577.69" width="13.39" height="13.39" fill="#231f20"/>
  <rect x="922.01" y="620.49" width="13.39" height="13.39" fill="#231f20"/>
  <rect x="964.79" y="665.35" width="13.39" height="13.39" fill="#231f20"/>
  <rect x="964.79" y="708.15" width="13.39" height="13.39" fill="#231f20"/>
  <rect x="964.79" y="620.49" width="13.39" height="13.39" fill="#231f20"/>
  <rect x="876.31" y="577.69" width="13.39" height="13.39" fill="#231f20"/>
  <rect x="876.31" y="620.49" width="13.39" height="13.39" fill="#231f20"/>
  <rect x="1050.99" y="405.52" width="13.39" height="13.39" fill="#231f20"/>
  <rect x="1050.99" y="448.33" width="13.39" height="13.39" fill="#231f20"/>
  <rect x="1007.79" y="361.69" width="13.39" height="13.39" fill="#231f20"/>
  <rect x="1007.79" y="404.49" width="13.39" height="13.39" fill="#231f20"/>
  <rect x="876.31" y="364.23" width="13.39" height="13.39" fill="#231f20"/>
  <rect x="574.25" y="795.01" width="13.39" height="13.39" fill="#231f20"/>
  <rect x="617.46" y="795.01" width="13.39" height="13.39" fill="#231f20"/>
  <rect x="488.09" y="921.7" width="13.39" height="13.39" fill="#231f20"/>
  <rect x="488.09" y="965.65" width="13.39" height="13.39" fill="#231f20"/>
  <rect x="445.43" y="965.65" width="13.39" height="13.39" fill="#231f20"/>
  <rect x="531.05" y="965.65" width="13.39" height="13.39" fill="#231f20"/>
  <rect x="402.77" y="967.98" width="13.39" height="13.39" fill="#231f20"/>
  <rect x="358.19" y="1009.53" width="13.39" height="13.39" fill="#231f20"/>
  <rect x="316.43" y="1009.53" width="13.39" height="13.39" fill="#231f20"/>
  <rect x="402.77" y="878.56" width="13.39" height="13.39" fill="#231f20"/>
</svg>