<?xml version="1.0" encoding="UTF-8"?>
<svg id="_18" data-name="18" xmlns="http://www.w3.org/2000/svg" viewBox="0 0 1080 1080">
  <rect x="1054.7" y="21.9" width="13.39" height="13.39" fill="#231f20"/>
  <rect x="1009.4" y="21.9" width="13.39" height="13.39" fill="#231f20"/>
  <rect x="967.25" y="21.9" width="13.39" height="13.39" fill="#231f20"/>
  <rect x="1054.7" y="63.85" width="13.39" height="13.39" fill="#231f20"/>
  <rect x="1009.4" y="63.85" width="13.39" height="13.39" fill="#231f20"/>
  <rect x="967.25" y="63.85" width="13.39" height="13.39" fill="#231f20"/>
  <rect x="1054.7" y="109.44" width="13.39" height="13.39" fill="#231f20"/>
  <rect x="1009.4" y="109.44" width="13.39" height="13.39" fill="#231f20"/>
  <rect x="967.25" y="109.44" width="13.39" height="13.39" fill="#231f20"/>
  <rect x="1054.7" y="151.39" width="13.39" height="13.39" fill="#231f20"/>
  <rect x="1009.4" y="151.39" width="13.39" height="13.39" fill="#231f20"/>
  <rect x="967.25" y="151.39" width="13.39" height="13.39" fill="#231f20"/>
  <rect x="1054.7" y="195.21" width="13.39" height="13.39" fill="#231f20"/>
  <rect x="1009.4" y="195.21" width="13.39" height="13.39" fill="#231f20"/>
  <rect x="967.25" y="195.21" width="13.39" height="13.39" fill="#231f20"/>
  <rect x="1054.7" y="237.16" width="13.39" height="13.39" fill="#231f20"/>
  <rect x="1009.4" y="237.16" width="13.39" height="13.39" fill="#231f20"/>
  <rect x="967.25" y="237.16" width="13.39" height="13.39" fill="#231f20"/>
  <rect x="1054.7" y="282.24" width="13.39" height="13.39" fill="#231f20"/>
  <rect x="1009.4" y="282.24" width="13.39" height="13.39" fill="#231f20"/>
  <rect x="967.25" y="282.24" width="13.39" height="13.39" fill="#231f20"/>
  <rect x="1054.7" y="324.19" width="13.39" height="13.39" fill="#231f20"/>
  <rect x="1009.4" y="324.19" width="13.39" height="13.39" fill="#231f20"/>
  <rect x="967.25" y="324.19" width="13.39" height="13.39" fill="#231f20"/>
  <rect x="1054.7" y="368.64" width="13.39" height="13.39" fill="#231f20"/>
  <rect x="1009.4" y="368.64" width="13.39" height="13.39" fill="#231f20"/>
  <rect x="967.25" y="368.64" width="13.39" height="13.39" fill="#231f20"/>
  <rect x="1054.7" y="410.59" width="13.39" height="13.39" fill="#231f20"/>
  <rect x="1009.4" y="410.59" width="13.39" height="13.39" fill="#231f20"/>
  <rect x="967.25" y="410.59" width="13.39" height="13.39" fill="#231f20"/>
  <rect x="1054.7" y="454.47" width="13.39" height="13.39" fill="#231f20"/>
  <rect x="1009.4" y="454.47" width="13.39" height="13.39" fill="#231f20"/>
  <rect x="967.25" y="454.47" width="13.39" height="13.39" fill="#231f20"/>
  <rect x="1054.7" y="496.42" width="13.39" height="13.39" fill="#231f20"/>
  <rect x="1009.4" y="496.42" width="13.39" height="13.39" fill="#231f20"/>
  <rect x="967.25" y="496.42" width="13.39" height="13.39" fill="#231f20"/>
  <rect x="1054.7" y="542.01" width="13.39" height="13.39" fill="#231f20"/>
  <rect x="1009.4" y="542.01" width="13.39" height="13.39" fill="#231f20"/>
  <rect x="1054.7" y="583.95" width="13.39" height="13.39" fill="#231f20"/>
  <rect x="1009.4" y="583.95" width="13.39" height="13.39" fill="#231f20"/>
  <rect x="967.25" y="583.95" width="13.39" height="13.39" fill="#231f20"/>
  <rect x="1054.7" y="627.78" width="13.39" height="13.39" fill="#231f20"/>
  <rect x="1009.4" y="627.78" width="13.39" height="13.39" fill="#231f20"/>
  <rect x="967.25" y="627.78" width="13.39" height="13.39" fill="#231f20"/>
  <rect x="1054.7" y="669.73" width="13.39" height="13.39" fill="#231f20"/>
  <rect x="1009.4" y="669.73" width="13.39" height="13.39" fill="#231f20"/>
  <rect x="967.25" y="669.73" width="13.39" height="13.39" fill="#231f20"/>
  <rect x="1054.7" y="714.81" width="13.39" height="13.39" fill="#231f20"/>
  <rect x="1009.4" y="714.81" width="13.39" height="13.39" fill="#231f20"/>
  <rect x="967.25" y="714.81" width="13.39" height="13.39" fill="#231f20"/>
  <rect x="1054.7" y="756.75" width="13.39" height="13.39" fill="#231f20"/>
  <rect x="1009.4" y="756.75" width="13.39" height="13.39" fill="#231f20"/>
  <rect x="967.25" y="756.75" width="13.39" height="13.39" fill="#231f20"/>
  <rect x="1054.7" y="801.21" width="13.39" height="13.39" fill="#231f20"/>
  <rect x="1009.4" y="801.21" width="13.39" height="13.39" fill="#231f20"/>
  <rect x="967.25" y="801.21" width="13.39" height="13.39" fill="#231f20"/>
  <rect x="1054.7" y="843.15" width="13.39" height="13.39" fill="#231f20"/>
  <rect x="1009.4" y="843.15" width="13.39" height="13.39" fill="#231f20"/>
  <rect x="967.25" y="843.15" width="13.39" height="13.39" fill="#231f20"/>
  <rect x="1054.7" y="885.1" width="13.39" height="13.39" fill="#231f20"/>
  <rect x="1009.4" y="885.1" width="13.39" height="13.39" fill="#231f20"/>
  <rect x="967.25" y="885.1" width="13.39" height="13.39" fill="#231f20"/>
  <rect x="1054.7" y="930.18" width="13.39" height="13.39" fill="#231f20"/>
  <rect x="1009.4" y="930.18" width="13.39" height="13.39" fill="#231f20"/>
  <rect x="967.25" y="930.18" width="13.39" height="13.39" fill="#231f20"/>
  <rect x="1054.7" y="972.13" width="13.39" height="13.39" fill="#231f20"/>
  <rect x="1009.4" y="972.13" width="13.39" height="13.39" fill="#231f20"/>
  <rect x="967.25" y="972.13" width="13.39" height="13.39" fill="#231f20"/>
  <rect x="1054.7" y="1016.58" width="13.39" height="13.39" fill="#231f20"/>
  <rect x="1009.4" y="1016.58" width="13.39" height="13.39" fill="#231f20"/>
  <rect x="967.25" y="1016.58" width="13.39" height="13.39" fill="#231f20"/>
  <rect x="1054.7" y="1058.53" width="13.39" height="13.39" fill="#231f20"/>
  <rect x="1009.4" y="1058.53" width="13.39" height="13.39" fill="#231f20"/>
  <rect x="967.25" y="1058.53" width="13.39" height="13.39" fill="#231f20"/>
  <rect x="924" y="21.9" width="13.39" height="13.39" fill="#231f20"/>
  <rect x="878.7" y="21.9" width="13.39" height="13.39" fill="#231f20"/>
  <rect x="924" y="63.85" width="13.39" height="13.39" fill="#231f20"/>
  <rect x="878.7" y="63.85" width="13.39" height="13.39" fill="#231f20"/>
  <rect x="924" y="109.44" width="13.39" height="13.39" fill="#231f20"/>
  <rect x="878.7" y="109.44" width="13.39" height="13.39" fill="#231f20"/>
  <rect x="924" y="151.39" width="13.39" height="13.39" fill="#231f20"/>
  <rect x="878.7" y="151.39" width="13.39" height="13.39" fill="#231f20"/>
  <rect x="924" y="195.21" width="13.39" height="13.39" fill="#231f20"/>
  <rect x="878.7" y="195.21" width="13.39" height="13.39" fill="#231f20"/>
  <rect x="924" y="237.16" width="13.39" height="13.39" fill="#231f20"/>
  <rect x="878.7" y="237.16" width="13.39" height="13.39" fill="#231f20"/>
  <rect x="924" y="282.24" width="13.39" height="13.39" fill="#231f20"/>
  <rect x="878.7" y="282.24" width="13.39" height="13.39" fill="#231f20"/>
  <rect x="924" y="324.19" width="13.39" height="13.39" fill="#231f20"/>
  <rect x="878.7" y="324.19" width="13.39" height="13.39" fill="#231f20"/>
  <rect x="924" y="368.64" width="13.39" height="13.39" fill="#231f20"/>
  <rect x="878.7" y="368.64" width="13.39" height="13.39" fill="#231f20"/>
  <rect x="924" y="410.59" width="13.39" height="13.39" fill="#231f20"/>
  <rect x="878.7" y="410.59" width="13.39" height="13.39" fill="#231f20"/>
  <rect x="924" y="454.47" width="13.39" height="13.39" fill="#231f20"/>
  <rect x="878.7" y="454.47" width="13.39" height="13.39" fill="#231f20"/>
  <rect x="924" y="496.42" width="13.39" height="13.39" fill="#231f20"/>
  <rect x="878.7" y="496.42" width="13.39" height="13.39" fill="#231f20"/>
  <rect x="924" y="542.01" width="13.39" height="13.39" fill="#231f20"/>
  <rect x="878.7" y="542.01" width="13.39" height="13.39" fill="#231f20"/>
  <rect x="924" y="583.95" width="13.39" height="13.39" fill="#231f20"/>
  <rect x="878.7" y="583.95" width="13.39" height="13.39" fill="#231f20"/>
  <rect x="924" y="627.78" width="13.39" height="13.39" fill="#231f20"/>
  <rect x="878.7" y="627.78" width="13.39" height="13.39" fill="#231f20"/>
  <rect x="924" y="669.73" width="13.39" height="13.39" fill="#231f20"/>
  <rect x="878.7" y="669.73" width="13.39" height="13.39" fill="#231f20"/>
  <rect x="924" y="714.81" width="13.39" height="13.39" fill="#231f20"/>
  <rect x="878.7" y="714.81" width="13.39" height="13.39" fill="#231f20"/>
  <rect x="924" y="756.75" width="13.39" height="13.39" fill="#231f20"/>
  <rect x="878.7" y="756.75" width="13.39" height="13.39" fill="#231f20"/>
  <rect x="924" y="801.21" width="13.39" height="13.39" fill="#231f20"/>
  <rect x="878.7" y="801.21" width="13.39" height="13.39" fill="#231f20"/>
  <rect x="924" y="843.15" width="13.39" height="13.39" fill="#231f20"/>
  <rect x="878.7" y="843.15" width="13.39" height="13.39" fill="#231f20"/>
  <rect x="924" y="885.1" width="13.39" height="13.39" fill="#231f20"/>
  <rect x="878.7" y="885.1" width="13.39" height="13.39" fill="#231f20"/>
  <rect x="924" y="930.18" width="13.39" height="13.39" fill="#231f20"/>
  <rect x="878.7" y="930.18" width="13.39" height="13.39" fill="#231f20"/>
  <rect x="924" y="972.13" width="13.39" height="13.39" fill="#231f20"/>
  <rect x="878.7" y="972.13" width="13.39" height="13.39" fill="#231f20"/>
  <rect x="924" y="1016.58" width="13.39" height="13.39" fill="#231f20"/>
  <rect x="878.7" y="1016.58" width="13.39" height="13.39" fill="#231f20"/>
  <rect x="924" y="1058.53" width="13.39" height="13.39" fill="#231f20"/>
  <rect x="878.7" y="1058.53" width="13.39" height="13.39" fill="#231f20"/>
  <rect x="833.4" y="21.9" width="13.39" height="13.39" fill="#231f20"/>
  <rect x="833.4" y="63.85" width="13.39" height="13.39" fill="#231f20"/>
  <rect x="833.4" y="109.44" width="13.39" height="13.39" fill="#231f20"/>
  <rect x="833.4" y="151.39" width="13.39" height="13.39" fill="#231f20"/>
  <rect x="833.4" y="195.21" width="13.39" height="13.39" fill="#231f20"/>
  <rect x="833.4" y="237.16" width="13.39" height="13.39" fill="#231f20"/>
  <rect x="833.4" y="282.24" width="13.39" height="13.39" fill="#231f20"/>
  <rect x="833.4" y="324.19" width="13.39" height="13.39" fill="#231f20"/>
  <rect x="833.4" y="368.64" width="13.39" height="13.39" fill="#231f20"/>
  <rect x="833.4" y="410.59" width="13.39" height="13.39" fill="#231f20"/>
  <rect x="833.4" y="454.47" width="13.39" height="13.39" fill="#231f20"/>
  <rect x="833.4" y="496.42" width="13.39" height="13.39" fill="#231f20"/>
  <rect x="833.4" y="542.01" width="13.39" height="13.39" fill="#231f20"/>
  <rect x="833.4" y="583.95" width="13.39" height="13.39" fill="#231f20"/>
  <rect x="833.4" y="627.78" width="13.39" height="13.39" fill="#231f20"/>
  <rect x="833.4" y="669.73" width="13.39" height="13.39" fill="#231f20"/>
  <rect x="833.4" y="714.81" width="13.39" height="13.39" fill="#231f20"/>
  <rect x="833.4" y="756.75" width="13.39" height="13.39" fill="#231f20"/>
  <rect x="833.4" y="801.21" width="13.39" height="13.39" fill="#231f20"/>
  <rect x="833.4" y="843.15" width="13.39" height="13.39" fill="#231f20"/>
  <rect x="833.4" y="885.1" width="13.39" height="13.39" fill="#231f20"/>
  <rect x="833.4" y="930.18" width="13.39" height="13.39" fill="#231f20"/>
  <rect x="833.4" y="972.13" width="13.39" height="13.39" fill="#231f20"/>
  <rect x="833.4" y="1016.58" width="13.39" height="13.39" fill="#231f20"/>
  <rect x="833.4" y="1058.53" width="13.39" height="13.39" fill="#231f20"/>
  <rect x="790.15" y="21.9" width="13.39" height="13.39" fill="#231f20"/>
  <rect x="744.85" y="21.9" width="13.39" height="13.39" fill="#231f20"/>
  <rect x="790.15" y="63.85" width="13.39" height="13.39" fill="#231f20"/>
  <rect x="744.85" y="63.85" width="13.39" height="13.39" fill="#231f20"/>
  <rect x="790.15" y="109.44" width="13.39" height="13.39" fill="#231f20"/>
  <rect x="744.85" y="109.44" width="13.39" height="13.39" fill="#231f20"/>
  <rect x="790.15" y="151.39" width="13.39" height="13.39" fill="#231f20"/>
  <rect x="744.85" y="151.39" width="13.39" height="13.39" fill="#231f20"/>
  <rect x="790.15" y="195.21" width="13.39" height="13.39" fill="#231f20"/>
  <rect x="744.85" y="195.21" width="13.39" height="13.39" fill="#231f20"/>
  <rect x="790.15" y="237.16" width="13.39" height="13.39" fill="#231f20"/>
  <rect x="744.85" y="237.16" width="13.39" height="13.39" fill="#231f20"/>
  <rect x="790.15" y="282.24" width="13.39" height="13.39" fill="#231f20"/>
  <rect x="744.85" y="282.24" width="13.39" height="13.39" fill="#231f20"/>
  <rect x="790.15" y="324.19" width="13.39" height="13.39" fill="#231f20"/>
  <rect x="744.85" y="324.19" width="13.39" height="13.39" fill="#231f20"/>
  <rect x="790.15" y="368.64" width="13.39" height="13.39" fill="#231f20"/>
  <rect x="744.85" y="368.64" width="13.39" height="13.39" fill="#231f20"/>
  <rect x="790.15" y="410.59" width="13.39" height="13.39" fill="#231f20"/>
  <rect x="744.85" y="410.59" width="13.39" height="13.39" fill="#231f20"/>
  <rect x="790.15" y="454.47" width="13.39" height="13.39" fill="#231f20"/>
  <rect x="744.85" y="454.47" width="13.39" height="13.39" fill="#231f20"/>
  <rect x="790.15" y="496.42" width="13.39" height="13.39" fill="#231f20"/>
  <rect x="744.85" y="496.42" width="13.39" height="13.39" fill="#231f20"/>
  <rect x="790.15" y="542.01" width="13.39" height="13.39" fill="#231f20"/>
  <rect x="744.85" y="542.01" width="13.39" height="13.39" fill="#231f20"/>
  <rect x="790.15" y="583.95" width="13.39" height="13.39" fill="#231f20"/>
  <rect x="744.85" y="583.95" width="13.39" height="13.39" fill="#231f20"/>
  <rect x="790.15" y="627.78" width="13.39" height="13.39" fill="#231f20"/>
  <rect x="744.85" y="627.78" width="13.39" height="13.39" fill="#231f20"/>
  <rect x="790.15" y="669.73" width="13.39" height="13.39" fill="#231f20"/>
  <rect x="744.85" y="669.73" width="13.39" height="13.39" fill="#231f20"/>
  <rect x="790.15" y="714.81" width="13.39" height="13.39" fill="#231f20"/>
  <rect x="744.85" y="714.81" width="13.39" height="13.39" fill="#231f20"/>
  <rect x="790.15" y="756.75" width="13.39" height="13.39" fill="#231f20"/>
  <rect x="744.85" y="756.75" width="13.39" height="13.39" fill="#231f20"/>
  <rect x="790.15" y="801.21" width="13.39" height="13.39" fill="#231f20"/>
  <rect x="744.85" y="801.21" width="13.39" height="13.39" fill="#231f20"/>
  <rect x="790.15" y="843.15" width="13.39" height="13.39" fill="#231f20"/>
  <rect x="744.85" y="843.15" width="13.39" height="13.39" fill="#231f20"/>
  <rect x="790.15" y="885.1" width="13.39" height="13.39" fill="#231f20"/>
  <rect x="744.85" y="885.1" width="13.39" height="13.39" fill="#231f20"/>
  <rect x="790.15" y="930.18" width="13.39" height="13.39" fill="#231f20"/>
  <rect x="744.85" y="930.18" width="13.39" height="13.39" fill="#231f20"/>
  <rect x="790.15" y="972.13" width="13.39" height="13.39" fill="#231f20"/>
  <rect x="744.85" y="972.13" width="13.39" height="13.39" fill="#231f20"/>
  <rect x="790.15" y="1016.58" width="13.39" height="13.39" fill="#231f20"/>
  <rect x="744.85" y="1016.58" width="13.39" height="13.39" fill="#231f20"/>
  <rect x="790.15" y="1058.53" width="13.39" height="13.39" fill="#231f20"/>
  <rect x="744.85" y="1058.53" width="13.39" height="13.39" fill="#231f20"/>
  <rect x="709.1" y="21.9" width="13.39" height="13.39" fill="#231f20"/>
  <rect x="663.8" y="21.9" width="13.39" height="13.39" fill="#231f20"/>
  <rect x="621.65" y="21.9" width="13.39" height="13.39" fill="#231f20"/>
  <rect x="709.1" y="63.85" width="13.39" height="13.39" fill="#231f20"/>
  <rect x="663.8" y="63.85" width="13.39" height="13.39" fill="#231f20"/>
  <rect x="621.65" y="63.85" width="13.39" height="13.39" fill="#231f20"/>
  <rect x="709.1" y="109.44" width="13.39" height="13.39" fill="#231f20"/>
  <rect x="663.8" y="109.44" width="13.39" height="13.39" fill="#231f20"/>
  <rect x="621.65" y="109.44" width="13.39" height="13.39" fill="#231f20"/>
  <rect x="709.1" y="151.39" width="13.39" height="13.39" fill="#231f20"/>
  <rect x="663.8" y="151.39" width="13.39" height="13.39" fill="#231f20"/>
  <rect x="621.65" y="151.39" width="13.39" height="13.39" fill="#231f20"/>
  <rect x="709.1" y="195.21" width="13.39" height="13.39" fill="#231f20"/>
  <rect x="663.8" y="195.21" width="13.39" height="13.39" fill="#231f20"/>
  <rect x="621.65" y="195.21" width="13.39" height="13.39" fill="#231f20"/>
  <rect x="709.1" y="237.16" width="13.39" height="13.39" fill="#231f20"/>
  <rect x="663.8" y="237.16" width="13.39" height="13.39" fill="#231f20"/>
  <rect x="621.65" y="237.16" width="13.39" height="13.39" fill="#231f20"/>
  <rect x="709.1" y="282.24" width="13.39" height="13.39" fill="#231f20"/>
  <rect x="663.8" y="282.24" width="13.39" height="13.39" fill="#231f20"/>
  <rect x="621.65" y="282.24" width="13.39" height="13.39" fill="#231f20"/>
  <rect x="709.1" y="324.19" width="13.39" height="13.39" fill="#231f20"/>
  <rect x="663.8" y="324.19" width="13.39" height="13.39" fill="#231f20"/>
  <rect x="621.65" y="324.19" width="13.39" height="13.39" fill="#231f20"/>
  <rect x="709.1" y="368.64" width="13.39" height="13.39" fill="#231f20"/>
  <rect x="663.8" y="368.64" width="13.39" height="13.39" fill="#231f20"/>
  <rect x="621.65" y="368.64" width="13.39" height="13.39" fill="#231f20"/>
  <rect x="709.1" y="410.59" width="13.39" height="13.39" fill="#231f20"/>
  <rect x="663.8" y="410.59" width="13.39" height="13.39" fill="#231f20"/>
  <rect x="621.65" y="410.59" width="13.39" height="13.39" fill="#231f20"/>
  <rect x="709.1" y="454.47" width="13.39" height="13.39" fill="#231f20"/>
  <rect x="663.8" y="454.47" width="13.39" height="13.39" fill="#231f20"/>
  <rect x="621.65" y="454.47" width="13.39" height="13.39" fill="#231f20"/>
  <rect x="709.1" y="496.42" width="13.39" height="13.39" fill="#231f20"/>
  <rect x="663.8" y="496.42" width="13.39" height="13.39" fill="#231f20"/>
  <rect x="621.65" y="496.42" width="13.39" height="13.39" fill="#231f20"/>
  <rect x="709.1" y="542.01" width="13.39" height="13.39" fill="#231f20"/>
  <rect x="663.8" y="542.01" width="13.39" height="13.39" fill="#231f20"/>
  <rect x="621.65" y="542.01" width="13.39" height="13.39" fill="#231f20"/>
  <rect x="709.1" y="583.95" width="13.39" height="13.39" fill="#231f20"/>
  <rect x="663.8" y="583.95" width="13.39" height="13.39" fill="#231f20"/>
  <rect x="621.65" y="583.95" width="13.39" height="13.39" fill="#231f20"/>
  <rect x="709.1" y="627.78" width="13.39" height="13.39" fill="#231f20"/>
  <rect x="663.8" y="627.78" width="13.39" height="13.39" fill="#231f20"/>
  <rect x="621.65" y="627.78" width="13.39" height="13.39" fill="#231f20"/>
  <rect x="709.1" y="669.73" width="13.39" height="13.39" fill="#231f20"/>
  <rect x="663.8" y="669.73" width="13.39" height="13.39" fill="#231f20"/>
  <rect x="621.65" y="669.73" width="13.39" height="13.39" fill="#231f20"/>
  <rect x="709.1" y="714.81" width="13.39" height="13.39" fill="#231f20"/>
  <rect x="663.8" y="714.81" width="13.39" height="13.39" fill="#231f20"/>
  <rect x="621.65" y="714.81" width="13.39" height="13.39" fill="#231f20"/>
  <rect x="709.1" y="756.75" width="13.39" height="13.39" fill="#231f20"/>
  <rect x="663.8" y="756.75" width="13.39" height="13.39" fill="#231f20"/>
  <rect x="621.65" y="756.75" width="13.39" height="13.39" fill="#231f20"/>
  <rect x="709.1" y="801.21" width="13.39" height="13.39" fill="#231f20"/>
  <rect x="663.8" y="801.21" width="13.39" height="13.39" fill="#231f20"/>
  <rect x="621.65" y="801.21" width="13.39" height="13.39" fill="#231f20"/>
  <rect x="709.1" y="843.15" width="13.39" height="13.39" fill="#231f20"/>
  <rect x="663.8" y="843.15" width="13.39" height="13.39" fill="#231f20"/>
  <rect x="621.65" y="843.15" width="13.39" height="13.39" fill="#231f20"/>
  <rect x="709.1" y="885.1" width="13.39" height="13.39" fill="#231f20"/>
  <rect x="663.8" y="885.1" width="13.39" height="13.39" fill="#231f20"/>
  <rect x="621.65" y="885.1" width="13.39" height="13.39" fill="#231f20"/>
  <rect x="709.1" y="930.18" width="13.39" height="13.39" fill="#231f20"/>
  <rect x="663.8" y="930.18" width="13.39" height="13.39" fill="#231f20"/>
  <rect x="621.65" y="930.18" width="13.39" height="13.39" fill="#231f20"/>
  <rect x="709.1" y="972.13" width="13.39" height="13.39" fill="#231f20"/>
  <rect x="663.8" y="972.13" width="13.39" height="13.39" fill="#231f20"/>
  <rect x="621.65" y="972.13" width="13.39" height="13.39" fill="#231f20"/>
  <rect x="709.1" y="1016.58" width="13.39" height="13.39" fill="#231f20"/>
  <rect x="663.8" y="1016.58" width="13.39" height="13.39" fill="#231f20"/>
  <rect x="621.65" y="1016.58" width="13.39" height="13.39" fill="#231f20"/>
  <rect x="709.1" y="1058.53" width="13.39" height="13.39" fill="#231f20"/>
  <rect x="663.8" y="1058.53" width="13.39" height="13.39" fill="#231f20"/>
  <rect x="621.65" y="1058.53" width="13.39" height="13.39" fill="#231f20"/>
  <rect x="578.4" y="21.9" width="13.39" height="13.39" fill="#231f20"/>
  <rect x="533.1" y="21.9" width="13.39" height="13.39" fill="#231f20"/>
  <rect x="578.4" y="63.85" width="13.39" height="13.39" fill="#231f20"/>
  <rect x="533.1" y="63.85" width="13.39" height="13.39" fill="#231f20"/>
  <rect x="578.4" y="109.44" width="13.39" height="13.39" fill="#231f20"/>
  <rect x="533.1" y="109.44" width="13.39" height="13.39" fill="#231f20"/>
  <rect x="578.4" y="151.39" width="13.39" height="13.39" fill="#231f20"/>
  <rect x="533.1" y="151.39" width="13.39" height="13.39" fill="#231f20"/>
  <rect x="578.4" y="195.21" width="13.39" height="13.39" fill="#231f20"/>
  <rect x="533.1" y="195.21" width="13.39" height="13.39" fill="#231f20"/>
  <rect x="578.4" y="237.16" width="13.39" height="13.39" fill="#231f20"/>
  <rect x="533.1" y="237.16" width="13.39" height="13.39" fill="#231f20"/>
  <rect x="578.4" y="282.24" width="13.39" height="13.39" fill="#231f20"/>
  <rect x="533.1" y="282.24" width="13.39" height="13.39" fill="#231f20"/>
  <rect x="578.4" y="324.19" width="13.39" height="13.39" fill="#231f20"/>
  <rect x="533.1" y="324.19" width="13.39" height="13.39" fill="#231f20"/>
  <rect x="578.4" y="368.64" width="13.39" height="13.39" fill="#231f20"/>
  <rect x="533.1" y="368.64" width="13.39" height="13.39" fill="#231f20"/>
  <rect x="578.4" y="410.59" width="13.39" height="13.39" fill="#231f20"/>
  <rect x="533.1" y="410.59" width="13.39" height="13.39" fill="#231f20"/>
  <rect x="578.4" y="454.47" width="13.39" height="13.39" fill="#231f20"/>
  <rect x="533.1" y="454.47" width="13.39" height="13.39" fill="#231f20"/>
  <rect x="578.4" y="496.42" width="13.39" height="13.39" fill="#231f20"/>
  <rect x="533.1" y="496.42" width="13.39" height="13.39" fill="#231f20"/>
  <rect x="578.4" y="542.01" width="13.39" height="13.39" fill="#231f20"/>
  <rect x="533.1" y="542.01" width="13.39" height="13.39" fill="#231f20"/>
  <rect x="578.4" y="583.95" width="13.39" height="13.39" fill="#231f20"/>
  <rect x="533.1" y="583.95" width="13.39" height="13.39" fill="#231f20"/>
  <rect x="578.4" y="627.78" width="13.39" height="13.39" fill="#231f20"/>
  <rect x="533.1" y="627.78" width="13.39" height="13.39" fill="#231f20"/>
  <rect x="578.4" y="669.73" width="13.39" height="13.39" fill="#231f20"/>
  <rect x="533.1" y="669.73" width="13.39" height="13.39" fill="#231f20"/>
  <rect x="578.4" y="714.81" width="13.39" height="13.39" fill="#231f20"/>
  <rect x="533.1" y="714.81" width="13.39" height="13.39" fill="#231f20"/>
  <rect x="578.4" y="756.75" width="13.39" height="13.39" fill="#231f20"/>
  <rect x="533.1" y="756.75" width="13.39" height="13.39" fill="#231f20"/>
  <rect x="578.4" y="801.21" width="13.39" height="13.39" fill="#231f20"/>
  <rect x="533.1" y="801.21" width="13.39" height="13.39" fill="#231f20"/>
  <rect x="578.4" y="843.15" width="13.39" height="13.39" fill="#231f20"/>
  <rect x="578.4" y="885.1" width="13.39" height="13.39" fill="#231f20"/>
  <rect x="533.1" y="885.1" width="13.39" height="13.39" fill="#231f20"/>
  <rect x="578.4" y="930.18" width="13.39" height="13.39" fill="#231f20"/>
  <rect x="533.1" y="930.18" width="13.39" height="13.39" fill="#231f20"/>
  <rect x="578.4" y="972.13" width="13.39" height="13.39" fill="#231f20"/>
  <rect x="533.1" y="972.13" width="13.39" height="13.39" fill="#231f20"/>
  <rect x="578.4" y="1016.58" width="13.39" height="13.39" fill="#231f20"/>
  <rect x="533.1" y="1016.58" width="13.39" height="13.39" fill="#231f20"/>
  <rect x="578.4" y="1058.53" width="13.39" height="13.39" fill="#231f20"/>
  <rect x="533.1" y="1058.53" width="13.39" height="13.39" fill="#231f20"/>
  <rect x="488.45" y="21.9" width="13.39" height="13.39" fill="#231f20"/>
  <rect x="488.45" y="63.85" width="13.39" height="13.39" fill="#231f20"/>
  <rect x="488.45" y="109.44" width="13.39" height="13.39" fill="#231f20"/>
  <rect x="488.45" y="151.39" width="13.39" height="13.39" fill="#231f20"/>
  <rect x="488.45" y="195.21" width="13.39" height="13.39" fill="#231f20"/>
  <rect x="488.45" y="237.16" width="13.39" height="13.39" fill="#231f20"/>
  <rect x="488.45" y="282.24" width="13.39" height="13.39" fill="#231f20"/>
  <rect x="488.45" y="324.19" width="13.39" height="13.39" fill="#231f20"/>
  <rect x="488.45" y="368.64" width="13.39" height="13.39" fill="#231f20"/>
  <rect x="488.45" y="410.59" width="13.39" height="13.39" fill="#231f20"/>
  <rect x="488.45" y="454.47" width="13.39" height="13.39" fill="#231f20"/>
  <rect x="488.45" y="496.42" width="13.39" height="13.39" fill="#231f20"/>
  <rect x="488.45" y="542.01" width="13.39" height="13.39" fill="#231f20"/>
  <rect x="488.45" y="583.95" width="13.39" height="13.39" fill="#231f20"/>
  <rect x="488.45" y="627.78" width="13.39" height="13.39" fill="#231f20"/>
  <rect x="488.45" y="669.73" width="13.39" height="13.39" fill="#231f20"/>
  <rect x="488.45" y="714.81" width="13.39" height="13.39" fill="#231f20"/>
  <rect x="488.45" y="756.75" width="13.39" height="13.39" fill="#231f20"/>
  <rect x="488.45" y="801.21" width="13.39" height="13.39" fill="#231f20"/>
  <rect x="488.45" y="843.15" width="13.39" height="13.39" fill="#231f20"/>
  <rect x="488.45" y="885.1" width="13.39" height="13.39" fill="#231f20"/>
  <rect x="488.45" y="930.18" width="13.39" height="13.39" fill="#231f20"/>
  <rect x="488.45" y="972.13" width="13.39" height="13.39" fill="#231f20"/>
  <rect x="488.45" y="1016.58" width="13.39" height="13.39" fill="#231f20"/>
  <rect x="488.45" y="1058.53" width="13.39" height="13.39" fill="#231f20"/>
  <rect x="444.55" y="21.9" width="13.39" height="13.39" fill="#231f20"/>
  <rect x="399.25" y="21.9" width="13.39" height="13.39" fill="#231f20"/>
  <rect x="444.55" y="63.85" width="13.39" height="13.39" fill="#231f20"/>
  <rect x="399.25" y="63.85" width="13.39" height="13.39" fill="#231f20"/>
  <rect x="444.55" y="109.44" width="13.39" height="13.39" fill="#231f20"/>
  <rect x="399.25" y="109.44" width="13.39" height="13.39" fill="#231f20"/>
  <rect x="444.55" y="151.39" width="13.39" height="13.39" fill="#231f20"/>
  <rect x="399.25" y="151.39" width="13.39" height="13.39" fill="#231f20"/>
  <rect x="444.55" y="195.21" width="13.39" height="13.39" fill="#231f20"/>
  <rect x="399.25" y="195.21" width="13.39" height="13.39" fill="#231f20"/>
  <rect x="444.55" y="237.16" width="13.39" height="13.39" fill="#231f20"/>
  <rect x="399.25" y="237.16" width="13.39" height="13.39" fill="#231f20"/>
  <rect x="444.55" y="282.24" width="13.39" height="13.39" fill="#231f20"/>
  <rect x="399.25" y="282.24" width="13.39" height="13.39" fill="#231f20"/>
  <rect x="444.55" y="324.19" width="13.39" height="13.39" fill="#231f20"/>
  <rect x="399.25" y="324.19" width="13.39" height="13.39" fill="#231f20"/>
  <rect x="444.55" y="368.64" width="13.39" height="13.39" fill="#231f20"/>
  <rect x="399.25" y="368.64" width="13.39" height="13.39" fill="#231f20"/>
  <rect x="444.55" y="410.59" width="13.39" height="13.39" fill="#231f20"/>
  <rect x="399.25" y="410.59" width="13.39" height="13.39" fill="#231f20"/>
  <rect x="444.55" y="454.47" width="13.39" height="13.39" fill="#231f20"/>
  <rect x="399.25" y="454.47" width="13.39" height="13.39" fill="#231f20"/>
  <rect x="444.55" y="496.42" width="13.39" height="13.39" fill="#231f20"/>
  <rect x="399.25" y="496.42" width="13.39" height="13.39" fill="#231f20"/>
  <rect x="444.55" y="542.01" width="13.39" height="13.39" fill="#231f20"/>
  <rect x="399.25" y="542.01" width="13.39" height="13.39" fill="#231f20"/>
  <rect x="444.55" y="583.95" width="13.39" height="13.39" fill="#231f20"/>
  <rect x="399.25" y="583.95" width="13.39" height="13.39" fill="#231f20"/>
  <rect x="444.55" y="627.78" width="13.39" height="13.39" fill="#231f20"/>
  <rect x="399.25" y="627.78" width="13.39" height="13.39" fill="#231f20"/>
  <rect x="444.55" y="669.73" width="13.39" height="13.39" fill="#231f20"/>
  <rect x="399.25" y="669.73" width="13.39" height="13.39" fill="#231f20"/>
  <rect x="444.55" y="714.81" width="13.39" height="13.39" fill="#231f20"/>
  <rect x="399.25" y="714.81" width="13.39" height="13.39" fill="#231f20"/>
  <rect x="444.55" y="756.75" width="13.39" height="13.39" fill="#231f20"/>
  <rect x="399.25" y="756.75" width="13.39" height="13.39" fill="#231f20"/>
  <rect x="444.55" y="801.21" width="13.39" height="13.39" fill="#231f20"/>
  <rect x="399.25" y="801.21" width="13.39" height="13.39" fill="#231f20"/>
  <rect x="444.55" y="843.15" width="13.39" height="13.39" fill="#231f20"/>
  <rect x="399.25" y="843.15" width="13.39" height="13.39" fill="#231f20"/>
  <rect x="444.55" y="885.1" width="13.39" height="13.39" fill="#231f20"/>
  <rect x="399.25" y="885.1" width="13.39" height="13.39" fill="#231f20"/>
  <rect x="444.55" y="930.18" width="13.39" height="13.39" fill="#231f20"/>
  <rect x="399.25" y="930.18" width="13.39" height="13.39" fill="#231f20"/>
  <rect x="444.55" y="972.13" width="13.39" height="13.39" fill="#231f20"/>
  <rect x="399.25" y="972.13" width="13.39" height="13.39" fill="#231f20"/>
  <rect x="444.55" y="1016.58" width="13.39" height="13.39" fill="#231f20"/>
  <rect x="399.25" y="1016.58" width="13.39" height="13.39" fill="#231f20"/>
  <rect x="444.55" y="1058.53" width="13.39" height="13.39" fill="#231f20"/>
  <rect x="399.25" y="1058.53" width="13.39" height="13.39" fill="#231f20"/>
  <rect x="359.78" y="21.9" width="13.39" height="13.39" fill="#231f20"/>
  <rect x="320.3" y="21.9" width="13.39" height="13.39" fill="#231f20"/>
  <rect x="278.14" y="21.9" width="13.39" height="13.39" fill="#231f20"/>
  <rect x="359.78" y="63.85" width="13.39" height="13.39" fill="#231f20"/>
  <rect x="320.3" y="63.85" width="13.39" height="13.39" fill="#231f20"/>
  <rect x="278.14" y="63.85" width="13.39" height="13.39" fill="#231f20"/>
  <rect x="359.78" y="109.44" width="13.39" height="13.39" fill="#231f20"/>
  <rect x="320.3" y="109.44" width="13.39" height="13.39" fill="#231f20"/>
  <rect x="278.14" y="109.44" width="13.39" height="13.39" fill="#231f20"/>
  <rect x="359.78" y="151.39" width="13.39" height="13.39" fill="#231f20"/>
  <rect x="320.3" y="151.39" width="13.39" height="13.39" fill="#231f20"/>
  <rect x="278.14" y="151.39" width="13.39" height="13.39" fill="#231f20"/>
  <rect x="359.78" y="195.21" width="13.39" height="13.39" fill="#231f20"/>
  <rect x="320.3" y="195.21" width="13.39" height="13.39" fill="#231f20"/>
  <rect x="278.14" y="195.21" width="13.39" height="13.39" fill="#231f20"/>
  <rect x="359.78" y="237.16" width="13.39" height="13.39" fill="#231f20"/>
  <rect x="320.3" y="237.16" width="13.39" height="13.39" fill="#231f20"/>
  <rect x="278.14" y="237.16" width="13.39" height="13.39" fill="#231f20"/>
  <rect x="359.78" y="282.24" width="13.39" height="13.39" fill="#231f20"/>
  <rect x="320.3" y="282.24" width="13.39" height="13.39" fill="#231f20"/>
  <rect x="278.14" y="282.24" width="13.39" height="13.39" fill="#231f20"/>
  <rect x="359.78" y="324.19" width="13.39" height="13.39" fill="#231f20"/>
  <rect x="320.3" y="324.19" width="13.39" height="13.39" fill="#231f20"/>
  <rect x="278.14" y="324.19" width="13.39" height="13.39" fill="#231f20"/>
  <rect x="359.78" y="368.64" width="13.39" height="13.39" fill="#231f20"/>
  <rect x="320.3" y="368.64" width="13.39" height="13.39" fill="#231f20"/>
  <rect x="278.14" y="368.64" width="13.39" height="13.39" fill="#231f20"/>
  <rect x="359.78" y="410.59" width="13.39" height="13.39" fill="#231f20"/>
  <rect x="320.3" y="410.59" width="13.39" height="13.39" fill="#231f20"/>
  <rect x="278.14" y="410.59" width="13.39" height="13.39" fill="#231f20"/>
  <rect x="359.78" y="454.47" width="13.39" height="13.39" fill="#231f20"/>
  <rect x="320.3" y="454.47" width="13.39" height="13.39" fill="#231f20"/>
  <rect x="278.14" y="454.47" width="13.39" height="13.39" fill="#231f20"/>
  <rect x="359.78" y="496.42" width="13.39" height="13.39" fill="#231f20"/>
  <rect x="320.3" y="496.42" width="13.39" height="13.39" fill="#231f20"/>
  <rect x="278.14" y="496.42" width="13.39" height="13.39" fill="#231f20"/>
  <rect x="359.78" y="542.01" width="13.39" height="13.39" fill="#231f20"/>
  <rect x="320.3" y="542.01" width="13.39" height="13.39" fill="#231f20"/>
  <rect x="278.14" y="542.01" width="13.39" height="13.39" fill="#231f20"/>
  <rect x="359.78" y="583.95" width="13.39" height="13.39" fill="#231f20"/>
  <rect x="320.3" y="583.95" width="13.39" height="13.39" fill="#231f20"/>
  <rect x="278.14" y="583.95" width="13.39" height="13.39" fill="#231f20"/>
  <rect x="359.78" y="627.78" width="13.39" height="13.39" fill="#231f20"/>
  <rect x="320.3" y="627.78" width="13.39" height="13.39" fill="#231f20"/>
  <rect x="278.14" y="627.78" width="13.39" height="13.39" fill="#231f20"/>
  <rect x="359.78" y="669.73" width="13.39" height="13.39" fill="#231f20"/>
  <rect x="320.3" y="669.73" width="13.39" height="13.39" fill="#231f20"/>
  <rect x="278.14" y="669.73" width="13.39" height="13.39" fill="#231f20"/>
  <rect x="359.78" y="714.81" width="13.39" height="13.39" fill="#231f20"/>
  <rect x="320.3" y="714.81" width="13.39" height="13.39" fill="#231f20"/>
  <rect x="278.14" y="714.81" width="13.39" height="13.39" fill="#231f20"/>
  <rect x="359.78" y="756.75" width="13.39" height="13.39" fill="#231f20"/>
  <rect x="320.3" y="756.75" width="13.39" height="13.39" fill="#231f20"/>
  <rect x="278.14" y="756.75" width="13.39" height="13.39" fill="#231f20"/>
  <rect x="359.78" y="801.21" width="13.39" height="13.39" fill="#231f20"/>
  <rect x="320.3" y="801.21" width="13.39" height="13.39" fill="#231f20"/>
  <rect x="278.14" y="801.21" width="13.39" height="13.39" fill="#231f20"/>
  <rect x="359.78" y="843.15" width="13.39" height="13.39" fill="#231f20"/>
  <rect x="320.3" y="843.15" width="13.39" height="13.39" fill="#231f20"/>
  <rect x="278.14" y="843.15" width="13.39" height="13.39" fill="#231f20"/>
  <rect x="359.78" y="885.1" width="13.39" height="13.39" fill="#231f20"/>
  <rect x="320.3" y="885.1" width="13.39" height="13.39" fill="#231f20"/>
  <rect x="278.14" y="885.1" width="13.39" height="13.39" fill="#231f20"/>
  <rect x="359.78" y="930.18" width="13.39" height="13.39" fill="#231f20"/>
  <rect x="320.3" y="930.18" width="13.39" height="13.39" fill="#231f20"/>
  <rect x="278.14" y="930.18" width="13.39" height="13.39" fill="#231f20"/>
  <rect x="359.78" y="972.13" width="13.39" height="13.39" fill="#231f20"/>
  <rect x="320.3" y="972.13" width="13.39" height="13.39" fill="#231f20"/>
  <rect x="278.14" y="972.13" width="13.39" height="13.39" fill="#231f20"/>
  <rect x="359.78" y="1016.58" width="13.39" height="13.39" fill="#231f20"/>
  <rect x="320.3" y="1016.58" width="13.39" height="13.39" fill="#231f20"/>
  <rect x="278.14" y="1016.58" width="13.39" height="13.39" fill="#231f20"/>
  <rect x="359.78" y="1058.53" width="13.39" height="13.39" fill="#231f20"/>
  <rect x="320.3" y="1058.53" width="13.39" height="13.39" fill="#231f20"/>
  <rect x="278.14" y="1058.53" width="13.39" height="13.39" fill="#231f20"/>
  <rect x="234.9" y="21.9" width="13.39" height="13.39" fill="#231f20"/>
  <rect x="234.9" y="63.85" width="13.39" height="13.39" fill="#231f20"/>
  <rect x="234.9" y="109.44" width="13.39" height="13.39" fill="#231f20"/>
  <rect x="189.6" y="109.44" width="13.39" height="13.39" fill="#231f20"/>
  <rect x="234.9" y="151.39" width="13.39" height="13.39" fill="#231f20"/>
  <rect x="189.6" y="151.39" width="13.39" height="13.39" fill="#231f20"/>
  <rect x="234.9" y="195.21" width="13.39" height="13.39" fill="#231f20"/>
  <rect x="189.6" y="195.21" width="13.39" height="13.39" fill="#231f20"/>
  <rect x="234.9" y="237.16" width="13.39" height="13.39" fill="#231f20"/>
  <rect x="189.6" y="237.16" width="13.39" height="13.39" fill="#231f20"/>
  <rect x="234.9" y="282.24" width="13.39" height="13.39" fill="#231f20"/>
  <rect x="189.6" y="282.24" width="13.39" height="13.39" fill="#231f20"/>
  <rect x="234.9" y="324.19" width="13.39" height="13.39" fill="#231f20"/>
  <rect x="189.6" y="324.19" width="13.39" height="13.39" fill="#231f20"/>
  <rect x="234.9" y="368.64" width="13.39" height="13.39" fill="#231f20"/>
  <rect x="189.6" y="368.64" width="13.39" height="13.39" fill="#231f20"/>
  <rect x="234.9" y="410.59" width="13.39" height="13.39" fill="#231f20"/>
  <rect x="189.6" y="410.59" width="13.39" height="13.39" fill="#231f20"/>
  <rect x="234.9" y="454.47" width="13.39" height="13.39" fill="#231f20"/>
  <rect x="189.6" y="454.47" width="13.39" height="13.39" fill="#231f20"/>
  <rect x="234.9" y="496.42" width="13.39" height="13.39" fill="#231f20"/>
  <rect x="189.6" y="496.42" width="13.39" height="13.39" fill="#231f20"/>
  <rect x="234.9" y="542.01" width="13.39" height="13.39" fill="#231f20"/>
  <rect x="189.6" y="542.01" width="13.39" height="13.39" fill="#231f20"/>
  <rect x="234.9" y="583.95" width="13.39" height="13.39" fill="#231f20"/>
  <rect x="189.6" y="583.95" width="13.39" height="13.39" fill="#231f20"/>
  <rect x="234.9" y="627.78" width="13.39" height="13.39" fill="#231f20"/>
  <rect x="189.6" y="627.78" width="13.39" height="13.39" fill="#231f20"/>
  <rect x="234.9" y="669.73" width="13.39" height="13.39" fill="#231f20"/>
  <rect x="189.6" y="669.73" width="13.39" height="13.39" fill="#231f20"/>
  <rect x="234.9" y="714.81" width="13.39" height="13.39" fill="#231f20"/>
  <rect x="189.6" y="714.81" width="13.39" height="13.39" fill="#231f20"/>
  <rect x="234.9" y="756.75" width="13.39" height="13.39" fill="#231f20"/>
  <rect x="189.6" y="756.75" width="13.39" height="13.39" fill="#231f20"/>
  <rect x="234.9" y="801.21" width="13.39" height="13.39" fill="#231f20"/>
  <rect x="189.6" y="801.21" width="13.39" height="13.39" fill="#231f20"/>
  <rect x="234.9" y="843.15" width="13.39" height="13.39" fill="#231f20"/>
  <rect x="189.6" y="843.15" width="13.39" height="13.39" fill="#231f20"/>
  <rect x="234.9" y="885.1" width="13.39" height="13.39" fill="#231f20"/>
  <rect x="189.6" y="885.1" width="13.39" height="13.39" fill="#231f20"/>
  <rect x="234.9" y="930.18" width="13.39" height="13.39" fill="#231f20"/>
  <rect x="189.6" y="930.18" width="13.39" height="13.39" fill="#231f20"/>
  <rect x="234.9" y="972.13" width="13.39" height="13.39" fill="#231f20"/>
  <rect x="189.6" y="972.13" width="13.39" height="13.39" fill="#231f20"/>
  <rect x="234.9" y="1016.58" width="13.39" height="13.39" fill="#231f20"/>
  <rect x="189.6" y="1016.58" width="13.39" height="13.39" fill="#231f20"/>
  <rect x="234.9" y="1058.53" width="13.39" height="13.39" fill="#231f20"/>
  <rect x="189.6" y="1058.53" width="13.39" height="13.39" fill="#231f20"/>
  <rect x="144.3" y="21.9" width="13.39" height="13.39" fill="#231f20"/>
  <rect x="144.3" y="63.85" width="13.39" height="13.39" fill="#231f20"/>
  <rect x="144.3" y="109.44" width="13.39" height="13.39" fill="#231f20"/>
  <rect x="144.3" y="151.39" width="13.39" height="13.39" fill="#231f20"/>
  <rect x="144.3" y="195.21" width="13.39" height="13.39" fill="#231f20"/>
  <rect x="144.3" y="237.16" width="13.39" height="13.39" fill="#231f20"/>
  <rect x="144.3" y="282.24" width="13.39" height="13.39" fill="#231f20"/>
  <rect x="144.3" y="324.19" width="13.39" height="13.39" fill="#231f20"/>
  <rect x="144.3" y="368.64" width="13.39" height="13.39" fill="#231f20"/>
  <rect x="144.3" y="410.59" width="13.39" height="13.39" fill="#231f20"/>
  <rect x="144.3" y="454.47" width="13.39" height="13.39" fill="#231f20"/>
  <rect x="144.3" y="496.42" width="13.39" height="13.39" fill="#231f20"/>
  <rect x="144.3" y="583.95" width="13.39" height="13.39" fill="#231f20"/>
  <rect x="144.3" y="669.73" width="13.39" height="13.39" fill="#231f20"/>
  <rect x="144.3" y="714.81" width="13.39" height="13.39" fill="#231f20"/>
  <rect x="144.3" y="756.75" width="13.39" height="13.39" fill="#231f20"/>
  <rect x="144.3" y="801.21" width="13.39" height="13.39" fill="#231f20"/>
  <rect x="144.3" y="843.15" width="13.39" height="13.39" fill="#231f20"/>
  <rect x="144.3" y="885.1" width="13.39" height="13.39" fill="#231f20"/>
  <rect x="144.3" y="930.18" width="13.39" height="13.39" fill="#231f20"/>
  <rect x="144.3" y="972.13" width="13.39" height="13.39" fill="#231f20"/>
  <rect x="144.3" y="1016.58" width="13.39" height="13.39" fill="#231f20"/>
  <rect x="144.3" y="1058.53" width="13.39" height="13.39" fill="#231f20"/>
  <rect x="101.05" y="21.9" width="13.39" height="13.39" fill="#231f20"/>
  <rect x="55.75" y="21.9" width="13.39" height="13.39" fill="#231f20"/>
  <rect x="101.05" y="63.85" width="13.39" height="13.39" fill="#231f20"/>
  <rect x="55.75" y="63.85" width="13.39" height="13.39" fill="#231f20"/>
  <rect x="101.05" y="109.44" width="13.39" height="13.39" fill="#231f20"/>
  <rect x="55.75" y="109.44" width="13.39" height="13.39" fill="#231f20"/>
  <rect x="101.05" y="151.39" width="13.39" height="13.39" fill="#231f20"/>
  <rect x="55.75" y="151.39" width="13.39" height="13.39" fill="#231f20"/>
  <rect x="101.05" y="195.21" width="13.39" height="13.39" fill="#231f20"/>
  <rect x="55.75" y="195.21" width="13.39" height="13.39" fill="#231f20"/>
  <rect x="101.05" y="237.16" width="13.39" height="13.39" fill="#231f20"/>
  <rect x="55.75" y="237.16" width="13.39" height="13.39" fill="#231f20"/>
  <rect x="101.05" y="282.24" width="13.39" height="13.39" fill="#231f20"/>
  <rect x="55.75" y="282.24" width="13.39" height="13.39" fill="#231f20"/>
  <rect x="101.05" y="324.19" width="13.39" height="13.39" fill="#231f20"/>
  <rect x="55.75" y="324.19" width="13.39" height="13.39" fill="#231f20"/>
  <rect x="101.05" y="368.64" width="13.39" height="13.39" fill="#231f20"/>
  <rect x="55.75" y="368.64" width="13.39" height="13.39" fill="#231f20"/>
  <rect x="101.05" y="410.59" width="13.39" height="13.39" fill="#231f20"/>
  <rect x="55.75" y="410.59" width="13.39" height="13.39" fill="#231f20"/>
  <rect x="101.05" y="454.47" width="13.39" height="13.39" fill="#231f20"/>
  <rect x="55.75" y="454.47" width="13.39" height="13.39" fill="#231f20"/>
  <rect x="101.05" y="496.42" width="13.39" height="13.39" fill="#231f20"/>
  <rect x="55.75" y="496.42" width="13.39" height="13.39" fill="#231f20"/>
  <rect x="101.05" y="542.01" width="13.39" height="13.39" fill="#231f20"/>
  <rect x="55.75" y="542.01" width="13.39" height="13.39" fill="#231f20"/>
  <rect x="101.05" y="583.95" width="13.39" height="13.39" fill="#231f20"/>
  <rect x="55.75" y="583.95" width="13.39" height="13.39" fill="#231f20"/>
  <rect x="101.05" y="627.78" width="13.39" height="13.39" fill="#231f20"/>
  <rect x="55.75" y="627.78" width="13.39" height="13.39" fill="#231f20"/>
  <rect x="101.05" y="669.73" width="13.39" height="13.39" fill="#231f20"/>
  <rect x="55.75" y="669.73" width="13.39" height="13.39" fill="#231f20"/>
  <rect x="101.05" y="714.81" width="13.39" height="13.39" fill="#231f20"/>
  <rect x="55.75" y="714.81" width="13.39" height="13.39" fill="#231f20"/>
  <rect x="101.05" y="756.75" width="13.39" height="13.39" fill="#231f20"/>
  <rect x="55.75" y="756.75" width="13.39" height="13.39" fill="#231f20"/>
  <rect x="101.05" y="801.21" width="13.39" height="13.39" fill="#231f20"/>
  <rect x="55.75" y="801.21" width="13.39" height="13.39" fill="#231f20"/>
  <rect x="101.05" y="843.15" width="13.39" height="13.39" fill="#231f20"/>
  <rect x="55.75" y="843.15" width="13.39" height="13.39" fill="#231f20"/>
  <rect x="101.05" y="885.1" width="13.39" height="13.39" fill="#231f20"/>
  <rect x="55.75" y="885.1" width="13.39" height="13.39" fill="#231f20"/>
  <rect x="101.05" y="930.18" width="13.39" height="13.39" fill="#231f20"/>
  <rect x="55.75" y="930.18" width="13.39" height="13.39" fill="#231f20"/>
  <rect x="101.05" y="972.13" width="13.39" height="13.39" fill="#231f20"/>
  <rect x="55.75" y="972.13" width="13.39" height="13.39" fill="#231f20"/>
  <rect x="101.05" y="1016.58" width="13.39" height="13.39" fill="#231f20"/>
  <rect x="55.75" y="1016.58" width="13.39" height="13.39" fill="#231f20"/>
  <rect x="101.05" y="1058.53" width="13.39" height="13.39" fill="#231f20"/>
  <rect x="10.45" y="21.9" width="13.39" height="13.39" fill="#231f20"/>
  <rect x="10.45" y="63.85" width="13.39" height="13.39" fill="#231f20"/>
  <rect x="10.45" y="109.44" width="13.39" height="13.39" fill="#231f20"/>
  <rect x="10.45" y="151.39" width="13.39" height="13.39" fill="#231f20"/>
  <rect x="10.45" y="195.21" width="13.39" height="13.39" fill="#231f20"/>
  <rect x="10.45" y="237.16" width="13.39" height="13.39" fill="#231f20"/>
  <rect x="10.45" y="282.24" width="13.39" height="13.39" fill="#231f20"/>
  <rect x="10.45" y="324.19" width="13.39" height="13.39" fill="#231f20"/>
  <rect x="10.45" y="368.64" width="13.39" height="13.39" fill="#231f20"/>
  <rect x="10.45" y="410.59" width="13.39" height="13.39" fill="#231f20"/>
  <rect x="10.45" y="454.47" width="13.39" height="13.39" fill="#231f20"/>
  <rect x="10.45" y="496.42" width="13.39" height="13.39" fill="#231f20"/>
  <rect x="10.45" y="542.01" width="13.39" height="13.39" fill="#231f20"/>
  <rect x="10.45" y="583.95" width="13.39" height="13.39" fill="#231f20"/>
  <rect x="10.45" y="627.78" width="13.39" height="13.39" fill="#231f20"/>
  <rect x="10.45" y="669.73" width="13.39" height="13.39" fill="#231f20"/>
  <rect x="10.45" y="714.81" width="13.39" height="13.39" fill="#231f20"/>
  <rect x="10.45" y="756.75" width="13.39" height="13.39" fill="#231f20"/>
  <rect x="10.45" y="801.21" width="13.39" height="13.39" fill="#231f20"/>
  <rect x="10.45" y="843.15" width="13.39" height="13.39" fill="#231f20"/>
  <rect x="10.45" y="885.1" width="13.39" height="13.39" fill="#231f20"/>
  <rect x="10.45" y="930.18" width="13.39" height="13.39" fill="#231f20"/>
  <rect x="10.45" y="972.13" width="13.39" height="13.39" fill="#231f20"/>
  <rect x="10.45" y="1016.58" width="13.39" height="13.39" fill="#231f20"/>
  <rect x="10.45" y="1058.53" width="13.39" height="13.39" fill="#231f20"/>
</svg>