<?xml version="1.0" encoding="UTF-8"?>
<svg id="_7" data-name="7" xmlns="http://www.w3.org/2000/svg" viewBox="0 0 1080 1080">
  <rect x="387.42" y="825.07" width="40.84" height="40.84" fill="#231f20"/>
  <rect x="343.9" y="868.06" width="40.84" height="40.84" fill="#231f20"/>
  <rect x="430.93" y="824.65" width="40.84" height="40.84" fill="#231f20"/>
  <rect x="473.4" y="781.23" width="40.84" height="40.84" fill="#231f20"/>
  <rect x="517.21" y="954.6" width="40.84" height="40.84" fill="#231f20"/>
  <rect x="474.45" y="954.6" width="40.84" height="40.84" fill="#231f20"/>
  <rect x="517.21" y="996.91" width="40.84" height="40.84" fill="#231f20"/>
  <rect x="517.21" y="911.39" width="40.84" height="40.84" fill="#231f20"/>
  <rect x="560.47" y="954.6" width="40.84" height="40.84" fill="#231f20"/>
  <rect x="560.47" y="996.91" width="40.84" height="40.84" fill="#231f20"/>
  <rect x="560.47" y="911.39" width="40.84" height="40.84" fill="#231f20"/>
  <rect x="603.74" y="954.6" width="40.84" height="40.84" fill="#231f20"/>
  <rect x="647.01" y="954.6" width="40.84" height="40.84" fill="#231f20"/>
  <rect x="647.01" y="911.39" width="40.84" height="40.84" fill="#231f20"/>
  <rect x="603.74" y="996.91" width="40.84" height="40.84" fill="#231f20"/>
  <rect x="603.74" y="911.39" width="40.84" height="40.84" fill="#231f20"/>
  <rect x="517" y="737.63" width="40.84" height="40.84" fill="#231f20"/>
  <rect x="430.93" y="608.63" width="40.84" height="40.84" fill="#231f20"/>
  <rect x="474.45" y="608.63" width="40.84" height="40.84" fill="#231f20"/>
  <rect x="474.45" y="651.78" width="40.84" height="40.84" fill="#231f20"/>
  <rect x="430.93" y="781.23" width="40.84" height="40.84" fill="#231f20"/>
  <rect x="430.93" y="737.82" width="40.84" height="40.84" fill="#231f20"/>
  <rect x="271.29" y="794.96" width="13.39" height="13.39" fill="#231f20"/>
  <rect x="314.65" y="838.32" width="13.39" height="13.39" fill="#231f20"/>
  <rect x="271.29" y="838.32" width="13.39" height="13.39" fill="#231f20"/>
  <rect x="357.63" y="838.32" width="13.39" height="13.39" fill="#231f20"/>
  <rect x="314.65" y="794.96" width="13.39" height="13.39" fill="#231f20"/>
  <rect x="357.63" y="794.96" width="13.39" height="13.39" fill="#231f20"/>
  <rect x="271.29" y="752.52" width="13.39" height="13.39" fill="#231f20"/>
  <rect x="314.65" y="752.52" width="13.39" height="13.39" fill="#231f20"/>
  <rect x="357.63" y="752.52" width="13.39" height="13.39" fill="#231f20"/>
  <rect x="271.29" y="709.58" width="13.39" height="13.39" fill="#231f20"/>
  <rect x="314.65" y="709.58" width="13.39" height="13.39" fill="#231f20"/>
  <rect x="357.63" y="709.58" width="13.39" height="13.39" fill="#231f20"/>
  <rect x="400.78" y="881.78" width="13.39" height="13.39" fill="#231f20"/>
  <rect x="443.75" y="881.78" width="13.39" height="13.39" fill="#231f20"/>
  <rect x="314.65" y="881.78" width="13.39" height="13.39" fill="#231f20"/>
  <rect x="314.65" y="968.32" width="13.39" height="13.39" fill="#231f20"/>
  <rect x="314.65" y="1010.63" width="13.39" height="13.39" fill="#231f20"/>
  <rect x="357.63" y="1010.63" width="13.39" height="13.39" fill="#231f20"/>
  <rect x="443.98" y="924.83" width="13.39" height="13.39" fill="#231f20"/>
  <rect x="401.39" y="924.83" width="13.39" height="13.39" fill="#231f20"/>
  <rect x="486.95" y="924.83" width="13.39" height="13.39" fill="#231f20"/>
  <rect x="530.38" y="881.78" width="13.39" height="13.39" fill="#231f20"/>
  <rect x="573.35" y="881.78" width="13.39" height="13.39" fill="#231f20"/>
  <rect x="617.43" y="881.78" width="13.39" height="13.39" fill="#231f20"/>
  <rect x="660.4" y="881.78" width="13.39" height="13.39" fill="#231f20"/>
  <rect x="660.4" y="839.84" width="13.39" height="13.39" fill="#231f20"/>
  <rect x="660.4" y="794.96" width="13.39" height="13.39" fill="#231f20"/>
  <rect x="617.96" y="752.52" width="13.39" height="13.39" fill="#231f20"/>
  <rect x="574.2" y="752.52" width="13.39" height="13.39" fill="#231f20"/>
  <rect x="617.96" y="794.85" width="13.39" height="13.39" fill="#231f20"/>
  <rect x="617.96" y="839.84" width="13.39" height="13.39" fill="#231f20"/>
  <rect x="401.39" y="752.46" width="13.39" height="13.39" fill="#231f20"/>
  <rect x="401.39" y="794.8" width="13.39" height="13.39" fill="#231f20"/>
  <rect x="230.64" y="709.26" width="13.39" height="13.39" fill="#231f20"/>
  <rect x="188.13" y="709.26" width="13.39" height="13.39" fill="#231f20"/>
  <rect x="230.64" y="666.64" width="13.39" height="13.39" fill="#231f20"/>
  <rect x="188.13" y="666.64" width="13.39" height="13.39" fill="#231f20"/>
  <rect x="142.93" y="709.26" width="13.39" height="13.39" fill="#231f20"/>
  <rect x="142.93" y="666.64" width="13.39" height="13.39" fill="#231f20"/>
  <rect x="358.46" y="666.64" width="13.39" height="13.39" fill="#231f20"/>
  <rect x="401.39" y="666.64" width="13.39" height="13.39" fill="#231f20"/>
  <rect x="401.39" y="622.58" width="13.39" height="13.39" fill="#231f20"/>
  <rect x="315.95" y="666.64" width="13.39" height="13.39" fill="#231f20"/>
  <rect x="315.65" y="623.53" width="13.39" height="13.39" fill="#231f20"/>
  <rect x="357.63" y="623.53" width="13.39" height="13.39" fill="#231f20"/>
  <rect x="273.15" y="623.53" width="13.39" height="13.39" fill="#231f20"/>
  <rect x="314.57" y="579.14" width="13.39" height="13.39" fill="#231f20"/>
  <rect x="272.06" y="579.14" width="13.39" height="13.39" fill="#231f20"/>
  <rect x="314.57" y="535.89" width="13.39" height="13.39" fill="#231f20"/>
  <rect x="272.06" y="535.89" width="13.39" height="13.39" fill="#231f20"/>
  <rect x="230.21" y="579.14" width="13.39" height="13.39" fill="#231f20"/>
  <rect x="230.21" y="535.89" width="13.39" height="13.39" fill="#231f20"/>
  <rect x="230.64" y="751.6" width="13.39" height="13.39" fill="#231f20"/>
  <rect x="703.93" y="839.84" width="13.39" height="13.39" fill="#231f20"/>
  <rect x="747.46" y="839.84" width="13.39" height="13.39" fill="#231f20"/>
  <rect x="487.83" y="839.84" width="13.39" height="13.39" fill="#231f20"/>
  <rect x="530.8" y="839.84" width="13.39" height="13.39" fill="#231f20"/>
  <rect x="574.34" y="839.84" width="13.39" height="13.39" fill="#231f20"/>
  <rect x="488.82" y="708.43" width="13.39" height="13.39" fill="#231f20"/>
  <rect x="444.66" y="708.43" width="13.39" height="13.39" fill="#231f20"/>
  <rect x="444.66" y="665.51" width="13.39" height="13.39" fill="#231f20"/>
  <rect x="531.87" y="708.43" width="13.39" height="13.39" fill="#231f20"/>
  <rect x="530.8" y="794.85" width="13.39" height="13.39" fill="#231f20"/>
  <rect x="488.18" y="751.55" width="13.39" height="13.39" fill="#231f20"/>
  <rect x="531.87" y="623.53" width="13.39" height="13.39" fill="#231f20"/>
  <rect x="444.66" y="578.86" width="13.39" height="13.39" fill="#231f20"/>
  <rect x="488.82" y="578.86" width="13.39" height="13.39" fill="#231f20"/>
  <rect x="531.87" y="578.86" width="13.39" height="13.39" fill="#231f20"/>
  <rect x="444.66" y="536.03" width="13.39" height="13.39" fill="#231f20"/>
  <rect x="444.66" y="492.64" width="13.39" height="13.39" fill="#231f20"/>
  <rect x="401.39" y="492.64" width="13.39" height="13.39" fill="#231f20"/>
  <rect x="358.46" y="492.64" width="13.39" height="13.39" fill="#231f20"/>
  <rect x="316.08" y="492.64" width="13.39" height="13.39" fill="#231f20"/>
  <rect x="273.15" y="492.64" width="13.39" height="13.39" fill="#231f20"/>
  <rect x="358.46" y="449.26" width="13.39" height="13.39" fill="#231f20"/>
  <rect x="316.08" y="449.26" width="13.39" height="13.39" fill="#231f20"/>
  <rect x="273.15" y="449.26" width="13.39" height="13.39" fill="#231f20"/>
  <rect x="230.21" y="492.64" width="13.39" height="13.39" fill="#231f20"/>
  <rect x="230.21" y="449.26" width="13.39" height="13.39" fill="#231f20"/>
  <rect x="315" y="405.87" width="13.39" height="13.39" fill="#231f20"/>
  <rect x="272.06" y="405.87" width="13.39" height="13.39" fill="#231f20"/>
  <rect x="229.13" y="405.87" width="13.39" height="13.39" fill="#231f20"/>
  <rect x="186.2" y="405.87" width="13.39" height="13.39" fill="#231f20"/>
  <rect x="272.06" y="364.6" width="13.39" height="13.39" fill="#231f20"/>
  <rect x="229.13" y="364.6" width="13.39" height="13.39" fill="#231f20"/>
  <rect x="357.98" y="278.2" width="13.39" height="13.39" fill="#231f20"/>
  <rect x="315.05" y="278.2" width="13.39" height="13.39" fill="#231f20"/>
  <rect x="357.98" y="319.59" width="13.39" height="13.39" fill="#231f20"/>
  <rect x="315.05" y="319.59" width="13.39" height="13.39" fill="#231f20"/>
  <rect x="357.98" y="233.32" width="13.39" height="13.39" fill="#231f20"/>
  <rect x="357.98" y="189.83" width="13.39" height="13.39" fill="#231f20"/>
  <rect x="357.98" y="148.07" width="13.39" height="13.39" fill="#231f20"/>
  <rect x="402.87" y="188.44" width="13.39" height="13.39" fill="#231f20"/>
  <rect x="402.87" y="148.07" width="13.39" height="13.39" fill="#231f20"/>
  <rect x="402.87" y="103.19" width="13.39" height="13.39" fill="#231f20"/>
  <rect x="402.87" y="60.61" width="13.39" height="13.39" fill="#231f20"/>
  <rect x="357.98" y="103.19" width="13.39" height="13.39" fill="#231f20"/>
  <rect x="315.05" y="103.19" width="13.39" height="13.39" fill="#231f20"/>
  <rect x="273.15" y="103.19" width="13.39" height="13.39" fill="#231f20"/>
  <rect x="357.98" y="60.61" width="13.39" height="13.39" fill="#231f20"/>
  <rect x="402.87" y="18.03" width="13.39" height="13.39" fill="#231f20"/>
  <rect x="443.97" y="18.03" width="13.39" height="13.39" fill="#231f20"/>
  <rect x="357.98" y="18.03" width="13.39" height="13.39" fill="#231f20"/>
  <rect x="315.05" y="233.32" width="13.39" height="13.39" fill="#231f20"/>
  <rect x="315.05" y="189.83" width="13.39" height="13.39" fill="#231f20"/>
  <rect x="315.05" y="148.07" width="13.39" height="13.39" fill="#231f20"/>
  <rect x="273.15" y="233.32" width="13.39" height="13.39" fill="#231f20"/>
  <rect x="273.15" y="189.83" width="13.39" height="13.39" fill="#231f20"/>
  <rect x="273.15" y="148.07" width="13.39" height="13.39" fill="#231f20"/>
  <rect x="229.13" y="60.61" width="13.39" height="13.39" fill="#231f20"/>
  <rect x="274.01" y="60.61" width="13.39" height="13.39" fill="#231f20"/>
  <rect x="186.2" y="60.61" width="13.39" height="13.39" fill="#231f20"/>
  <rect x="229.13" y="18.03" width="13.39" height="13.39" fill="#231f20"/>
  <rect x="274.01" y="18.03" width="13.39" height="13.39" fill="#231f20"/>
  <rect x="186.2" y="18.03" width="13.39" height="13.39" fill="#231f20"/>
  <rect x="143.26" y="18.03" width="13.39" height="13.39" fill="#231f20"/>
  <rect x="229.13" y="320.56" width="13.39" height="13.39" fill="#231f20"/>
  <rect x="186.2" y="320.56" width="13.39" height="13.39" fill="#231f20"/>
  <rect x="143.26" y="320.56" width="13.39" height="13.39" fill="#231f20"/>
  <rect x="100.33" y="320.56" width="13.39" height="13.39" fill="#231f20"/>
  <rect x="142.93" y="622.52" width="13.39" height="13.39" fill="#231f20"/>
  <rect x="142.93" y="579.14" width="13.39" height="13.39" fill="#231f20"/>
  <rect x="101.96" y="579.32" width="13.39" height="13.39" fill="#231f20"/>
  <rect x="101.96" y="535.94" width="13.39" height="13.39" fill="#231f20"/>
  <rect x="56.32" y="534.19" width="13.39" height="13.39" fill="#231f20"/>
  <rect x="56.32" y="490.8" width="13.39" height="13.39" fill="#231f20"/>
  <rect x="444.66" y="449.82" width="13.39" height="13.39" fill="#231f20"/>
  <rect x="488.82" y="536.03" width="13.39" height="13.39" fill="#231f20"/>
  <rect x="531.87" y="536.03" width="13.39" height="13.39" fill="#231f20"/>
  <rect x="531.87" y="666.64" width="13.39" height="13.39" fill="#231f20"/>
  <rect x="574.2" y="708.43" width="13.39" height="13.39" fill="#231f20"/>
  <rect x="574.2" y="623.53" width="13.39" height="13.39" fill="#231f20"/>
  <rect x="574.2" y="578.86" width="13.39" height="13.39" fill="#231f20"/>
  <rect x="574.2" y="666.64" width="13.39" height="13.39" fill="#231f20"/>
  <rect x="660.4" y="708.43" width="13.39" height="13.39" fill="#231f20"/>
  <rect x="660.4" y="752.46" width="13.39" height="13.39" fill="#231f20"/>
  <rect x="747.46" y="794.96" width="13.39" height="13.39" fill="#231f20"/>
  <rect x="747.46" y="752.46" width="13.39" height="13.39" fill="#231f20"/>
  <rect x="660.4" y="666.64" width="13.39" height="13.39" fill="#231f20"/>
  <rect x="703.93" y="666.64" width="13.39" height="13.39" fill="#231f20"/>
  <rect x="617.96" y="666.64" width="13.39" height="13.39" fill="#231f20"/>
  <rect x="919.34" y="709.26" width="13.39" height="13.39" fill="#231f20"/>
  <rect x="876.9" y="709.26" width="13.39" height="13.39" fill="#231f20"/>
  <rect x="919.34" y="750.08" width="13.39" height="13.39" fill="#231f20"/>
  <rect x="876.9" y="750.08" width="13.39" height="13.39" fill="#231f20"/>
  <rect x="357.63" y="1053.83" width="13.39" height="13.39" fill="#231f20"/>
  <rect x="488.18" y="1053.83" width="13.39" height="13.39" fill="#231f20"/>
  <rect x="488.18" y="1010.63" width="13.39" height="13.39" fill="#231f20"/>
  <rect x="530.93" y="1053.83" width="13.39" height="13.39" fill="#231f20"/>
  <rect x="574.34" y="1053.83" width="13.39" height="13.39" fill="#231f20"/>
  <rect x="617.1" y="1053.83" width="13.39" height="13.39" fill="#231f20"/>
  <rect x="660.73" y="1010.63" width="13.39" height="13.39" fill="#231f20"/>
  <rect x="660.73" y="1053.83" width="13.39" height="13.39" fill="#231f20"/>
  <rect x="703.93" y="924.83" width="13.39" height="13.39" fill="#231f20"/>
  <rect x="703.93" y="881.78" width="13.39" height="13.39" fill="#231f20"/>
  <rect x="703.93" y="968.03" width="13.39" height="13.39" fill="#231f20"/>
  <rect x="746.9" y="924.83" width="13.39" height="13.39" fill="#231f20"/>
  <rect x="746.9" y="968.03" width="13.39" height="13.39" fill="#231f20"/>
  <rect x="703.93" y="1010.63" width="13.39" height="13.39" fill="#231f20"/>
</svg>