<?xml version="1.0" encoding="UTF-8"?>
<svg id="_3" data-name="3" xmlns="http://www.w3.org/2000/svg" viewBox="0 0 1080 1080">
  <rect x="519.22" y="1038.87" width="40.84" height="40.84" fill="#231f20"/>
  <rect x="519.22" y="995.63" width="40.84" height="40.84" fill="#231f20"/>
  <rect x="519.22" y="952.41" width="40.84" height="40.84" fill="#231f20"/>
  <rect x="519.22" y="909.29" width="40.84" height="40.84" fill="#231f20"/>
  <rect x="519.22" y="865.78" width="40.84" height="40.84" fill="#231f20"/>
  <rect x="519.22" y="822.68" width="40.84" height="40.84" fill="#231f20"/>
  <rect x="519.22" y="779.64" width="40.84" height="40.84" fill="#231f20"/>
  <rect x="519.22" y="736.06" width="40.84" height="40.84" fill="#231f20"/>
  <rect x="519.22" y="693.29" width="40.84" height="40.84" fill="#231f20"/>
  <rect x="519.22" y="649.79" width="40.84" height="40.84" fill="#231f20"/>
  <rect x="519.22" y="606.67" width="40.84" height="40.84" fill="#231f20"/>
  <rect x="562.17" y="779.64" width="40.84" height="40.84" fill="#231f20"/>
  <rect x="562.17" y="736.33" width="40.84" height="40.84" fill="#231f20"/>
  <rect x="562.17" y="693.29" width="40.84" height="40.84" fill="#231f20"/>
  <rect x="562.17" y="650.15" width="40.84" height="40.84" fill="#231f20"/>
  <rect x="562.17" y="606.67" width="40.84" height="40.84" fill="#231f20"/>
  <rect x="519.22" y="563.45" width="40.84" height="40.84" fill="#231f20"/>
  <rect x="562.17" y="563.45" width="40.84" height="40.84" fill="#231f20"/>
  <rect x="519.22" y="520.39" width="40.84" height="40.84" fill="#231f20"/>
  <rect x="518.77" y="477.15" width="40.84" height="40.84" fill="#231f20"/>
  <rect x="518.71" y="434.24" width="40.84" height="40.84" fill="#231f20"/>
  <rect x="519.22" y="390.68" width="40.84" height="40.84" fill="#231f20"/>
  <rect x="519.22" y="347.5" width="40.84" height="40.84" fill="#231f20"/>
  <rect x="519.22" y="304.73" width="40.84" height="40.84" fill="#231f20"/>
  <rect x="519.22" y="261.04" width="40.84" height="40.84" fill="#231f20"/>
  <rect x="518.71" y="217.39" width="40.84" height="40.84" fill="#231f20"/>
  <rect x="518.71" y="174.77" width="40.84" height="40.84" fill="#231f20"/>
  <rect x="518.71" y="131.2" width="40.84" height="40.84" fill="#231f20"/>
  <rect x="562.17" y="261.04" width="40.84" height="40.84" fill="#231f20"/>
  <rect x="561.86" y="217.39" width="40.84" height="40.84" fill="#231f20"/>
  <rect x="561.86" y="174.77" width="40.84" height="40.84" fill="#231f20"/>
  <rect x="561.86" y="131.2" width="40.84" height="40.84" fill="#231f20"/>
  <rect x="605.02" y="174.77" width="40.84" height="40.84" fill="#231f20"/>
  <rect x="605.02" y="131.2" width="40.84" height="40.84" fill="#231f20"/>
  <rect x="518.71" y="87.89" width="40.84" height="40.84" fill="#231f20"/>
  <rect x="561.86" y="87.89" width="40.84" height="40.84" fill="#231f20"/>
  <rect x="605.02" y="87.89" width="40.84" height="40.84" fill="#231f20"/>
  <rect x="864.93" y="88.29" width="40.84" height="40.84" fill="#231f20"/>
  <rect x="864.93" y="44.8" width="40.84" height="40.84" fill="#231f20"/>
  <rect x="821.66" y="44.8" width="40.84" height="40.84" fill="#231f20"/>
  <rect x="778.39" y="44.8" width="40.84" height="40.84" fill="#231f20"/>
  <rect x="735.11" y="44.8" width="40.84" height="40.84" fill="#231f20"/>
  <rect x="821.66" y="88.29" width="40.84" height="40.84" fill="#231f20"/>
  <rect x="908.21" y="88.29" width="40.84" height="40.84" fill="#231f20"/>
  <rect x="518.71" y="44.8" width="40.84" height="40.84" fill="#231f20"/>
  <rect x="475.17" y="44.8" width="40.84" height="40.84" fill="#231f20"/>
  <rect x="561.86" y="44.8" width="40.84" height="40.84" fill="#231f20"/>
  <rect x="605.02" y="44.8" width="40.84" height="40.84" fill="#231f20"/>
  <rect x="518.71" y="1.6" width="40.84" height="40.84" fill="#231f20"/>
  <rect x="561.86" y="1.6" width="40.84" height="40.84" fill="#231f20"/>
  <rect x="432.31" y="1.6" width="40.84" height="40.84" fill="#231f20"/>
  <rect x="475.46" y="1.6" width="40.84" height="40.84" fill="#231f20"/>
  <rect x="605.02" y="1.6" width="40.84" height="40.84" fill="#231f20"/>
  <rect x="648.18" y="44.8" width="40.84" height="40.84" fill="#231f20"/>
  <rect x="648.18" y="1.6" width="40.84" height="40.84" fill="#231f20"/>
  <rect x="575.59" y="835.93" width="13.39" height="13.39" fill="#231f20"/>
  <rect x="575.59" y="878.7" width="13.39" height="13.39" fill="#231f20"/>
  <rect x="575.59" y="922.68" width="13.39" height="13.39" fill="#231f20"/>
  <rect x="575.59" y="965.45" width="13.39" height="13.39" fill="#231f20"/>
  <rect x="575.59" y="1007.58" width="13.39" height="13.39" fill="#231f20"/>
  <rect x="575.59" y="1050.35" width="13.39" height="13.39" fill="#231f20"/>
  <rect x="619.34" y="575.92" width="13.39" height="13.39" fill="#231f20"/>
  <rect x="619.34" y="618.69" width="13.39" height="13.39" fill="#231f20"/>
  <rect x="619.34" y="662.67" width="13.39" height="13.39" fill="#231f20"/>
  <rect x="619.34" y="705.44" width="13.39" height="13.39" fill="#231f20"/>
  <rect x="619.34" y="747.57" width="13.39" height="13.39" fill="#231f20"/>
  <rect x="619.34" y="790.34" width="13.39" height="13.39" fill="#231f20"/>
  <rect x="489.79" y="579.38" width="13.39" height="13.39" fill="#231f20"/>
  <rect x="489.79" y="622.15" width="13.39" height="13.39" fill="#231f20"/>
  <rect x="489.79" y="666.13" width="13.39" height="13.39" fill="#231f20"/>
  <rect x="489.79" y="708.9" width="13.39" height="13.39" fill="#231f20"/>
  <rect x="489.79" y="751.03" width="13.39" height="13.39" fill="#231f20"/>
  <rect x="489.79" y="793.8" width="13.39" height="13.39" fill="#231f20"/>
  <rect x="575.89" y="318.45" width="13.39" height="13.39" fill="#231f20"/>
  <rect x="575.89" y="361.22" width="13.39" height="13.39" fill="#231f20"/>
  <rect x="618.75" y="230.15" width="13.39" height="13.39" fill="#231f20"/>
  <rect x="618.75" y="272.92" width="13.39" height="13.39" fill="#231f20"/>
  <rect x="661.01" y="103.12" width="13.39" height="13.39" fill="#231f20"/>
  <rect x="661.01" y="145.89" width="13.39" height="13.39" fill="#231f20"/>
  <rect x="705.6" y="15.32" width="13.39" height="13.39" fill="#231f20"/>
  <rect x="705.6" y="59.49" width="13.39" height="13.39" fill="#231f20"/>
  <rect x="748.87" y="15.32" width="13.39" height="13.39" fill="#231f20"/>
  <rect x="748.87" y="102.58" width="13.39" height="13.39" fill="#231f20"/>
  <rect x="792.14" y="102.58" width="13.39" height="13.39" fill="#231f20"/>
  <rect x="878.69" y="144.92" width="13.39" height="13.39" fill="#231f20"/>
  <rect x="921.96" y="144.92" width="13.39" height="13.39" fill="#231f20"/>
  <rect x="921.96" y="58.52" width="13.39" height="13.39" fill="#231f20"/>
  <rect x="575.89" y="405.2" width="13.39" height="13.39" fill="#231f20"/>
  <rect x="575.89" y="447.97" width="13.39" height="13.39" fill="#231f20"/>
  <rect x="575.89" y="490.1" width="13.39" height="13.39" fill="#231f20"/>
  <rect x="575.89" y="532.87" width="13.39" height="13.39" fill="#231f20"/>
</svg>