<?xml version="1.0" encoding="UTF-8"?>
<svg id="_8" data-name="8" xmlns="http://www.w3.org/2000/svg" viewBox="0 0 1080 1080">
  <rect x="390.15" y="781.69" width="40.84" height="40.84" fill="#231f20"/>
  <rect x="433.16" y="781.69" width="40.84" height="40.84" fill="#231f20"/>
  <rect x="390.15" y="738.39" width="40.84" height="40.84" fill="#231f20"/>
  <rect x="433.16" y="738.39" width="40.84" height="40.84" fill="#231f20"/>
  <rect x="390.15" y="695.08" width="40.84" height="40.84" fill="#231f20"/>
  <rect x="433.16" y="695.08" width="40.84" height="40.84" fill="#231f20"/>
  <rect x="476.84" y="781.69" width="40.84" height="40.84" fill="#231f20"/>
  <rect x="476.84" y="695.08" width="40.84" height="40.84" fill="#231f20"/>
  <rect x="390.15" y="651.78" width="40.84" height="40.84" fill="#231f20"/>
  <rect x="433.16" y="651.78" width="40.84" height="40.84" fill="#231f20"/>
  <rect x="476.84" y="651.78" width="40.84" height="40.84" fill="#231f20"/>
  <rect x="390.15" y="608.47" width="40.84" height="40.84" fill="#231f20"/>
  <rect x="433.16" y="608.47" width="40.84" height="40.84" fill="#231f20"/>
  <rect x="476.84" y="608.47" width="40.84" height="40.84" fill="#231f20"/>
  <rect x="390.15" y="565.17" width="40.84" height="40.84" fill="#231f20"/>
  <rect x="433.16" y="565.17" width="40.84" height="40.84" fill="#231f20"/>
  <rect x="476.84" y="565.17" width="40.84" height="40.84" fill="#231f20"/>
  <rect x="390.15" y="521.86" width="40.84" height="40.84" fill="#231f20"/>
  <rect x="433.16" y="521.86" width="40.84" height="40.84" fill="#231f20"/>
  <rect x="476.84" y="521.86" width="40.84" height="40.84" fill="#231f20"/>
  <rect x="390.15" y="478.56" width="40.84" height="40.84" fill="#231f20"/>
  <rect x="433.16" y="478.56" width="40.84" height="40.84" fill="#231f20"/>
  <rect x="476.84" y="478.56" width="40.84" height="40.84" fill="#231f20"/>
  <rect x="390.15" y="435.25" width="40.84" height="40.84" fill="#231f20"/>
  <rect x="433.16" y="435.25" width="40.84" height="40.84" fill="#231f20"/>
  <rect x="476.84" y="435.25" width="40.84" height="40.84" fill="#231f20"/>
  <rect x="390.15" y="391.95" width="40.84" height="40.84" fill="#231f20"/>
  <rect x="433.16" y="391.95" width="40.84" height="40.84" fill="#231f20"/>
  <rect x="476.84" y="391.95" width="40.84" height="40.84" fill="#231f20"/>
  <rect x="390.15" y="348.64" width="40.84" height="40.84" fill="#231f20"/>
  <rect x="433.16" y="348.64" width="40.84" height="40.84" fill="#231f20"/>
  <rect x="390.15" y="305.97" width="40.84" height="40.84" fill="#231f20"/>
  <rect x="433.16" y="305.97" width="40.84" height="40.84" fill="#231f20"/>
  <rect x="390.15" y="262.85" width="40.84" height="40.84" fill="#231f20"/>
  <rect x="433.16" y="262.85" width="40.84" height="40.84" fill="#231f20"/>
  <rect x="390.15" y="220.17" width="40.84" height="40.84" fill="#231f20"/>
  <rect x="433.16" y="220.17" width="40.84" height="40.84" fill="#231f20"/>
  <rect x="390.15" y="177.39" width="40.84" height="40.84" fill="#231f20"/>
  <rect x="433.16" y="177.39" width="40.84" height="40.84" fill="#231f20"/>
  <rect x="476.17" y="177.39" width="40.84" height="40.84" fill="#231f20"/>
  <rect x="390.15" y="134.71" width="40.84" height="40.84" fill="#231f20"/>
  <rect x="433.16" y="134.71" width="40.84" height="40.84" fill="#231f20"/>
  <rect x="390.15" y="89.13" width="40.84" height="40.84" fill="#231f20"/>
  <rect x="433.16" y="89.13" width="40.84" height="40.84" fill="#231f20"/>
  <rect x="476.84" y="348.64" width="40.84" height="40.84" fill="#231f20"/>
  <rect x="360.43" y="883.25" width="13.39" height="13.39" fill="#231f20"/>
  <rect x="145.71" y="1011.6" width="13.39" height="13.39" fill="#231f20"/>
  <rect x="145.71" y="1054.82" width="13.39" height="13.39" fill="#231f20"/>
  <rect x="188.64" y="1011.6" width="13.39" height="13.39" fill="#231f20"/>
  <rect x="145.71" y="968.39" width="13.39" height="13.39" fill="#231f20"/>
  <rect x="188.64" y="1054.82" width="13.39" height="13.39" fill="#231f20"/>
  <rect x="231.58" y="1011.6" width="13.39" height="13.39" fill="#231f20"/>
  <rect x="231.58" y="1054.82" width="13.39" height="13.39" fill="#231f20"/>
  <rect x="360.43" y="1011.23" width="13.39" height="13.39" fill="#231f20"/>
  <rect x="360.43" y="1054.44" width="13.39" height="13.39" fill="#231f20"/>
  <rect x="360.43" y="924.83" width="13.39" height="13.39" fill="#231f20"/>
  <rect x="360.43" y="796.04" width="13.39" height="13.39" fill="#231f20"/>
  <rect x="360.43" y="837.62" width="13.39" height="13.39" fill="#231f20"/>
  <rect x="360.43" y="102.85" width="13.39" height="13.39" fill="#231f20"/>
  <rect x="360.43" y="20.11" width="13.39" height="13.39" fill="#231f20"/>
  <rect x="360.43" y="61.68" width="13.39" height="13.39" fill="#231f20"/>
  <rect x="447.32" y="61.68" width="13.39" height="13.39" fill="#231f20"/>
  <rect x="490.56" y="61.68" width="13.39" height="13.39" fill="#231f20"/>
  <rect x="530.97" y="61.68" width="13.39" height="13.39" fill="#231f20"/>
  <rect x="530.97" y="20.11" width="13.39" height="13.39" fill="#231f20"/>
  <rect x="490.56" y="102.85" width="13.39" height="13.39" fill="#231f20"/>
  <rect x="490.56" y="148.44" width="13.39" height="13.39" fill="#231f20"/>
  <rect x="403.88" y="61.68" width="13.39" height="13.39" fill="#231f20"/>
  <rect x="360.43" y="968.04" width="13.39" height="13.39" fill="#231f20"/>
  <rect x="533.38" y="1011.23" width="13.39" height="13.39" fill="#231f20"/>
  <rect x="533.38" y="924.83" width="13.39" height="13.39" fill="#231f20"/>
  <rect x="533.38" y="883.25" width="13.39" height="13.39" fill="#231f20"/>
  <rect x="533.38" y="968.04" width="13.39" height="13.39" fill="#231f20"/>
  <rect x="489.29" y="1011.23" width="13.39" height="13.39" fill="#231f20"/>
  <rect x="533.38" y="1054.44" width="13.39" height="13.39" fill="#231f20"/>
  <rect x="489.29" y="1054.44" width="13.39" height="13.39" fill="#231f20"/>
  <rect x="489.29" y="924.83" width="13.39" height="13.39" fill="#231f20"/>
  <rect x="489.29" y="968.04" width="13.39" height="13.39" fill="#231f20"/>
  <rect x="489.29" y="840.04" width="13.39" height="13.39" fill="#231f20"/>
  <rect x="489.29" y="883.25" width="13.39" height="13.39" fill="#231f20"/>
  <rect x="317.5" y="924.83" width="13.39" height="13.39" fill="#231f20"/>
  <rect x="317.5" y="968.04" width="13.39" height="13.39" fill="#231f20"/>
</svg>