<?xml version="1.0" encoding="UTF-8"?>
<svg id="_9" data-name="9" xmlns="http://www.w3.org/2000/svg" viewBox="0 0 1080 1080">
  <rect x="387.91" y="520.95" width="40.84" height="40.84" fill="#231f20"/>
  <rect x="387.91" y="564.23" width="40.84" height="40.84" fill="#231f20"/>
  <rect x="431.21" y="520.95" width="40.84" height="40.84" fill="#231f20"/>
  <rect x="431.21" y="564.23" width="40.84" height="40.84" fill="#231f20"/>
  <rect x="431.21" y="434.39" width="40.84" height="40.84" fill="#231f20"/>
  <rect x="431.21" y="391.11" width="40.84" height="40.84" fill="#231f20"/>
  <rect x="431.21" y="477.67" width="40.84" height="40.84" fill="#231f20"/>
  <rect x="474.58" y="434.39" width="40.84" height="40.84" fill="#231f20"/>
  <rect x="474.58" y="477.67" width="40.84" height="40.84" fill="#231f20"/>
  <rect x="474.58" y="348.11" width="40.84" height="40.84" fill="#231f20"/>
  <rect x="474.58" y="304.83" width="40.84" height="40.84" fill="#231f20"/>
  <rect x="474.51" y="261.55" width="40.84" height="40.84" fill="#231f20"/>
  <rect x="517.95" y="175.96" width="40.84" height="40.84" fill="#231f20"/>
  <rect x="560.26" y="174.86" width="40.84" height="40.84" fill="#231f20"/>
  <rect x="517.24" y="348.11" width="40.84" height="40.84" fill="#231f20"/>
  <rect x="474.58" y="391.39" width="40.84" height="40.84" fill="#231f20"/>
  <rect x="517.95" y="391.39" width="40.84" height="40.84" fill="#231f20"/>
  <rect x="387.91" y="607.51" width="40.84" height="40.84" fill="#231f20"/>
  <rect x="387.91" y="650.79" width="40.84" height="40.84" fill="#231f20"/>
  <rect x="431.21" y="607.51" width="40.84" height="40.84" fill="#231f20"/>
  <rect x="431.21" y="650.79" width="40.84" height="40.84" fill="#231f20"/>
  <rect x="387.91" y="694.07" width="40.84" height="40.84" fill="#231f20"/>
  <rect x="431.21" y="694.07" width="40.84" height="40.84" fill="#231f20"/>
  <rect x="474.58" y="650.79" width="40.84" height="40.84" fill="#231f20"/>
  <rect x="474.58" y="694.07" width="40.84" height="40.84" fill="#231f20"/>
  <rect x="387.91" y="737.35" width="40.84" height="40.84" fill="#231f20"/>
  <rect x="387.91" y="780.63" width="40.84" height="40.84" fill="#231f20"/>
  <rect x="344.34" y="737.35" width="40.84" height="40.84" fill="#231f20"/>
  <rect x="344.34" y="780.63" width="40.84" height="40.84" fill="#231f20"/>
  <rect x="431.21" y="737.35" width="40.84" height="40.84" fill="#231f20"/>
  <rect x="431.21" y="780.63" width="40.84" height="40.84" fill="#231f20"/>
  <rect x="387.97" y="822.77" width="40.84" height="40.84" fill="#231f20"/>
  <rect x="344.4" y="822.77" width="40.84" height="40.84" fill="#231f20"/>
  <rect x="431.28" y="822.77" width="40.84" height="40.84" fill="#231f20"/>
  <rect x="387.91" y="866.55" width="40.84" height="40.84" fill="#231f20"/>
  <rect x="387.91" y="909.83" width="40.84" height="40.84" fill="#231f20"/>
  <rect x="344.34" y="866.55" width="40.84" height="40.84" fill="#231f20"/>
  <rect x="344.34" y="909.83" width="40.84" height="40.84" fill="#231f20"/>
  <rect x="431.21" y="866.55" width="40.84" height="40.84" fill="#231f20"/>
  <rect x="431.21" y="909.83" width="40.84" height="40.84" fill="#231f20"/>
  <rect x="387.97" y="951.98" width="40.84" height="40.84" fill="#231f20"/>
  <rect x="344.4" y="951.98" width="40.84" height="40.84" fill="#231f20"/>
  <rect x="431.28" y="951.98" width="40.84" height="40.84" fill="#231f20"/>
  <rect x="387.91" y="996.68" width="40.84" height="40.84" fill="#231f20"/>
  <rect x="344.34" y="996.68" width="40.84" height="40.84" fill="#231f20"/>
  <rect x="431.21" y="996.68" width="40.84" height="40.84" fill="#231f20"/>
  <rect x="300.7" y="866.55" width="40.84" height="40.84" fill="#231f20"/>
  <rect x="300.7" y="909.83" width="40.84" height="40.84" fill="#231f20"/>
  <rect x="300.77" y="951.98" width="40.84" height="40.84" fill="#231f20"/>
  <rect x="300.7" y="996.68" width="40.84" height="40.84" fill="#231f20"/>
  <rect x="300.77" y="1038.82" width="40.84" height="40.84" fill="#231f20"/>
  <rect x="431.28" y="1038.82" width="40.84" height="40.84" fill="#231f20"/>
  <rect x="357.66" y="534.67" width="13.39" height="13.39" fill="#231f20"/>
  <rect x="357.66" y="577.95" width="13.39" height="13.39" fill="#231f20"/>
  <rect x="318.1" y="577.95" width="13.39" height="13.39" fill="#231f20"/>
  <rect x="357.66" y="621.04" width="13.39" height="13.39" fill="#231f20"/>
  <rect x="318.1" y="621.04" width="13.39" height="13.39" fill="#231f20"/>
  <rect x="401.63" y="404.94" width="13.39" height="13.39" fill="#231f20"/>
  <rect x="401.63" y="448.22" width="13.39" height="13.39" fill="#231f20"/>
  <rect x="401.63" y="491.3" width="13.39" height="13.39" fill="#231f20"/>
  <rect x="358.06" y="491.3" width="13.39" height="13.39" fill="#231f20"/>
  <rect x="444.93" y="275.38" width="13.39" height="13.39" fill="#231f20"/>
  <rect x="444.93" y="232.82" width="13.39" height="13.39" fill="#231f20"/>
  <rect x="488.3" y="232.82" width="13.39" height="13.39" fill="#231f20"/>
  <rect x="488.3" y="189.68" width="13.39" height="13.39" fill="#231f20"/>
  <rect x="488.3" y="146.4" width="13.39" height="13.39" fill="#231f20"/>
  <rect x="530.99" y="232.82" width="13.39" height="13.39" fill="#231f20"/>
  <rect x="532.22" y="146.4" width="13.39" height="13.39" fill="#231f20"/>
  <rect x="574.91" y="146.4" width="13.39" height="13.39" fill="#231f20"/>
  <rect x="488.3" y="102.97" width="13.39" height="13.39" fill="#231f20"/>
  <rect x="532.22" y="102.97" width="13.39" height="13.39" fill="#231f20"/>
  <rect x="574.91" y="102.97" width="13.39" height="13.39" fill="#231f20"/>
  <rect x="617.25" y="102.97" width="13.39" height="13.39" fill="#231f20"/>
  <rect x="661.16" y="102.97" width="13.39" height="13.39" fill="#231f20"/>
  <rect x="661.16" y="59.54" width="13.39" height="13.39" fill="#231f20"/>
  <rect x="661.16" y="232.82" width="13.39" height="13.39" fill="#231f20"/>
  <rect x="574.91" y="232.82" width="13.39" height="13.39" fill="#231f20"/>
  <rect x="617.25" y="190.21" width="13.39" height="13.39" fill="#231f20"/>
  <rect x="703.85" y="102.97" width="13.39" height="13.39" fill="#231f20"/>
  <rect x="703.85" y="144.34" width="13.39" height="13.39" fill="#231f20"/>
  <rect x="532.22" y="58.51" width="13.39" height="13.39" fill="#231f20"/>
  <rect x="574.91" y="58.51" width="13.39" height="13.39" fill="#231f20"/>
  <rect x="574.91" y="16.57" width="13.39" height="13.39" fill="#231f20"/>
  <rect x="532.22" y="16.57" width="13.39" height="13.39" fill="#231f20"/>
  <rect x="444.93" y="318.66" width="13.39" height="13.39" fill="#231f20"/>
  <rect x="444.93" y="361.74" width="13.39" height="13.39" fill="#231f20"/>
  <rect x="488.19" y="534.67" width="13.39" height="13.39" fill="#231f20"/>
  <rect x="488.19" y="577.95" width="13.39" height="13.39" fill="#231f20"/>
  <rect x="530.99" y="449.33" width="13.39" height="13.39" fill="#231f20"/>
  <rect x="530.99" y="492.61" width="13.39" height="13.39" fill="#231f20"/>
  <rect x="573.98" y="363.05" width="13.39" height="13.39" fill="#231f20"/>
  <rect x="573.98" y="406.33" width="13.39" height="13.39" fill="#231f20"/>
  <rect x="531.67" y="275.44" width="13.39" height="13.39" fill="#231f20"/>
  <rect x="573.98" y="275.44" width="13.39" height="13.39" fill="#231f20"/>
  <rect x="531.67" y="318.71" width="13.39" height="13.39" fill="#231f20"/>
  <rect x="488.19" y="621.04" width="13.39" height="13.39" fill="#231f20"/>
  <rect x="357.66" y="664.31" width="13.39" height="13.39" fill="#231f20"/>
  <rect x="357.66" y="707.79" width="13.39" height="13.39" fill="#231f20"/>
  <rect x="271.12" y="879.15" width="13.39" height="13.39" fill="#231f20"/>
  <rect x="271.12" y="922.42" width="13.39" height="13.39" fill="#231f20"/>
  <rect x="271.12" y="965.51" width="13.39" height="13.39" fill="#231f20"/>
  <rect x="271.12" y="1008.79" width="13.39" height="13.39" fill="#231f20"/>
  <rect x="271.12" y="1052.26" width="13.39" height="13.39" fill="#231f20"/>
  <rect x="358.06" y="1052.26" width="13.39" height="13.39" fill="#231f20"/>
  <rect x="401.7" y="1052.26" width="13.39" height="13.39" fill="#231f20"/>
  <rect x="488.19" y="879.15" width="13.39" height="13.39" fill="#231f20"/>
  <rect x="488.19" y="922.42" width="13.39" height="13.39" fill="#231f20"/>
  <rect x="488.19" y="965.51" width="13.39" height="13.39" fill="#231f20"/>
  <rect x="488.19" y="751.07" width="13.39" height="13.39" fill="#231f20"/>
  <rect x="488.19" y="794.35" width="13.39" height="13.39" fill="#231f20"/>
  <rect x="531.67" y="664.24" width="13.39" height="13.39" fill="#231f20"/>
  <rect x="531.67" y="707.51" width="13.39" height="13.39" fill="#231f20"/>
  <rect x="488.19" y="837.43" width="13.39" height="13.39" fill="#231f20"/>
  <rect x="488.19" y="1008.79" width="13.39" height="13.39" fill="#231f20"/>
  <rect x="488.19" y="1052.26" width="13.39" height="13.39" fill="#231f20"/>
  <rect x="314.42" y="750.97" width="13.39" height="13.39" fill="#231f20"/>
  <rect x="314.42" y="794.25" width="13.39" height="13.39" fill="#231f20"/>
  <rect x="314.42" y="837.73" width="13.39" height="13.39" fill="#231f20"/>
</svg>