<?xml version="1.0" encoding="UTF-8"?>
<svg id="_10" data-name="10" xmlns="http://www.w3.org/2000/svg" viewBox="0 0 1080 1080">
  <rect x="131.23" y="606.14" width="40.84" height="40.84" fill="#231f20"/>
  <rect x="131.23" y="562.7" width="40.84" height="40.84" fill="#231f20"/>
  <rect x="88.01" y="606.14" width="40.84" height="40.84" fill="#231f20"/>
  <rect x="88.01" y="562.7" width="40.84" height="40.84" fill="#231f20"/>
  <rect x="131.23" y="692.66" width="40.84" height="40.84" fill="#231f20"/>
  <rect x="131.23" y="649.23" width="40.84" height="40.84" fill="#231f20"/>
  <rect x="131.23" y="433.4" width="40.84" height="40.84" fill="#231f20"/>
  <rect x="131.23" y="389.97" width="40.84" height="40.84" fill="#231f20"/>
  <rect x="131.23" y="519.92" width="40.84" height="40.84" fill="#231f20"/>
  <rect x="131.23" y="476.49" width="40.84" height="40.84" fill="#231f20"/>
  <rect x="131.23" y="303.44" width="40.84" height="40.84" fill="#231f20"/>
  <rect x="131.23" y="260.01" width="40.84" height="40.84" fill="#231f20"/>
  <rect x="131.23" y="346.53" width="40.84" height="40.84" fill="#231f20"/>
  <rect x="131.23" y="779" width="40.84" height="40.84" fill="#231f20"/>
  <rect x="131.23" y="735.57" width="40.84" height="40.84" fill="#231f20"/>
  <rect x="131.23" y="865.52" width="40.84" height="40.84" fill="#231f20"/>
  <rect x="131.23" y="822.09" width="40.84" height="40.84" fill="#231f20"/>
  <rect x="131.23" y="951.93" width="40.84" height="40.84" fill="#231f20"/>
  <rect x="131.23" y="908.5" width="40.84" height="40.84" fill="#231f20"/>
  <rect x="131.23" y="1038.46" width="40.84" height="40.84" fill="#231f20"/>
  <rect x="131.23" y="995.02" width="40.84" height="40.84" fill="#231f20"/>
  <rect x="88.01" y="692.66" width="40.84" height="40.84" fill="#231f20"/>
  <rect x="88.01" y="649.23" width="40.84" height="40.84" fill="#231f20"/>
  <rect x="231.3" y="575.62" width="13.39" height="13.39" fill="#231f20"/>
  <rect x="102.06" y="534.09" width="13.39" height="13.39" fill="#231f20"/>
  <rect x="102.06" y="490.21" width="13.39" height="13.39" fill="#231f20"/>
  <rect x="102.06" y="445.25" width="13.39" height="13.39" fill="#231f20"/>
  <rect x="102.06" y="403.53" width="13.39" height="13.39" fill="#231f20"/>
  <rect x="102.06" y="360.51" width="13.39" height="13.39" fill="#231f20"/>
  <rect x="102.06" y="315.55" width="13.39" height="13.39" fill="#231f20"/>
  <rect x="102.06" y="273.83" width="13.39" height="13.39" fill="#231f20"/>
  <rect x="102.06" y="1009.38" width="13.39" height="13.39" fill="#231f20"/>
  <rect x="102.06" y="965.5" width="13.39" height="13.39" fill="#231f20"/>
  <rect x="102.06" y="920.54" width="13.39" height="13.39" fill="#231f20"/>
  <rect x="102.06" y="878.82" width="13.39" height="13.39" fill="#231f20"/>
  <rect x="102.06" y="835.8" width="13.39" height="13.39" fill="#231f20"/>
  <rect x="102.06" y="790.84" width="13.39" height="13.39" fill="#231f20"/>
  <rect x="102.06" y="749.11" width="13.39" height="13.39" fill="#231f20"/>
  <rect x="231.3" y="445.25" width="13.39" height="13.39" fill="#231f20"/>
  <rect x="231.3" y="403.53" width="13.39" height="13.39" fill="#231f20"/>
  <rect x="231.3" y="360.51" width="13.39" height="13.39" fill="#231f20"/>
  <rect x="231.3" y="316.01" width="13.39" height="13.39" fill="#231f20"/>
  <rect x="231.3" y="273.83" width="13.39" height="13.39" fill="#231f20"/>
  <rect x="275.04" y="360.51" width="13.39" height="13.39" fill="#231f20"/>
  <rect x="275.04" y="316.01" width="13.39" height="13.39" fill="#231f20"/>
  <rect x="275.04" y="273.83" width="13.39" height="13.39" fill="#231f20"/>
  <rect x="317.4" y="360.51" width="13.39" height="13.39" fill="#231f20"/>
  <rect x="317.4" y="316.01" width="13.39" height="13.39" fill="#231f20"/>
  <rect x="317.4" y="273.83" width="13.39" height="13.39" fill="#231f20"/>
  <rect x="361.15" y="360.51" width="13.39" height="13.39" fill="#231f20"/>
  <rect x="361.15" y="316.01" width="13.39" height="13.39" fill="#231f20"/>
  <rect x="403.95" y="360.51" width="13.39" height="13.39" fill="#231f20"/>
  <rect x="403.95" y="316.01" width="13.39" height="13.39" fill="#231f20"/>
  <rect x="447.7" y="360.51" width="13.39" height="13.39" fill="#231f20"/>
  <rect x="447.7" y="316.01" width="13.39" height="13.39" fill="#231f20"/>
  <rect x="490.05" y="360.51" width="13.39" height="13.39" fill="#231f20"/>
  <rect x="490.05" y="316.01" width="13.39" height="13.39" fill="#231f20"/>
  <rect x="533.8" y="360.51" width="13.39" height="13.39" fill="#231f20"/>
  <rect x="577.32" y="360.51" width="13.39" height="13.39" fill="#231f20"/>
  <rect x="620.13" y="360.51" width="13.39" height="13.39" fill="#231f20"/>
  <rect x="663.87" y="360.51" width="13.39" height="13.39" fill="#231f20"/>
  <rect x="706.23" y="360.51" width="13.39" height="13.39" fill="#231f20"/>
  <rect x="749.98" y="360.51" width="13.39" height="13.39" fill="#231f20"/>
  <rect x="577.32" y="403.69" width="13.39" height="13.39" fill="#231f20"/>
  <rect x="620.13" y="403.69" width="13.39" height="13.39" fill="#231f20"/>
  <rect x="663.87" y="403.69" width="13.39" height="13.39" fill="#231f20"/>
  <rect x="706.23" y="403.69" width="13.39" height="13.39" fill="#231f20"/>
  <rect x="749.98" y="403.69" width="13.39" height="13.39" fill="#231f20"/>
  <rect x="577.32" y="445.95" width="13.39" height="13.39" fill="#231f20"/>
  <rect x="620.13" y="445.95" width="13.39" height="13.39" fill="#231f20"/>
  <rect x="663.87" y="445.95" width="13.39" height="13.39" fill="#231f20"/>
  <rect x="706.23" y="445.95" width="13.39" height="13.39" fill="#231f20"/>
  <rect x="749.98" y="445.95" width="13.39" height="13.39" fill="#231f20"/>
  <rect x="577.32" y="489.13" width="13.39" height="13.39" fill="#231f20"/>
  <rect x="620.13" y="489.13" width="13.39" height="13.39" fill="#231f20"/>
  <rect x="663.87" y="489.13" width="13.39" height="13.39" fill="#231f20"/>
  <rect x="706.23" y="489.13" width="13.39" height="13.39" fill="#231f20"/>
  <rect x="749.98" y="489.13" width="13.39" height="13.39" fill="#231f20"/>
  <rect x="577.32" y="533.78" width="13.39" height="13.39" fill="#231f20"/>
  <rect x="620.13" y="533.78" width="13.39" height="13.39" fill="#231f20"/>
  <rect x="663.87" y="533.78" width="13.39" height="13.39" fill="#231f20"/>
  <rect x="706.23" y="533.78" width="13.39" height="13.39" fill="#231f20"/>
  <rect x="749.98" y="533.78" width="13.39" height="13.39" fill="#231f20"/>
  <rect x="577.32" y="576.96" width="13.39" height="13.39" fill="#231f20"/>
  <rect x="620.13" y="576.96" width="13.39" height="13.39" fill="#231f20"/>
  <rect x="663.87" y="576.96" width="13.39" height="13.39" fill="#231f20"/>
  <rect x="706.23" y="576.96" width="13.39" height="13.39" fill="#231f20"/>
  <rect x="749.98" y="576.96" width="13.39" height="13.39" fill="#231f20"/>
  <rect x="792.6" y="489.13" width="13.39" height="13.39" fill="#231f20"/>
  <rect x="836.35" y="489.13" width="13.39" height="13.39" fill="#231f20"/>
  <rect x="792.6" y="533.78" width="13.39" height="13.39" fill="#231f20"/>
  <rect x="836.35" y="533.78" width="13.39" height="13.39" fill="#231f20"/>
  <rect x="792.6" y="576.96" width="13.39" height="13.39" fill="#231f20"/>
  <rect x="836.35" y="576.96" width="13.39" height="13.39" fill="#231f20"/>
  <rect x="966.33" y="532.32" width="13.39" height="13.39" fill="#231f20"/>
  <rect x="966.33" y="576.96" width="13.39" height="13.39" fill="#231f20"/>
  <rect x="966.33" y="620.14" width="13.39" height="13.39" fill="#231f20"/>
  <rect x="966.33" y="403.21" width="13.39" height="13.39" fill="#231f20"/>
  <rect x="966.33" y="447.85" width="13.39" height="13.39" fill="#231f20"/>
  <rect x="966.33" y="491.03" width="13.39" height="13.39" fill="#231f20"/>
  <rect x="966.33" y="316.01" width="13.39" height="13.39" fill="#231f20"/>
  <rect x="966.33" y="360.97" width="13.39" height="13.39" fill="#231f20"/>
  <rect x="966.33" y="404.15" width="13.39" height="13.39" fill="#231f20"/>
  <rect x="966.33" y="791.71" width="13.39" height="13.39" fill="#231f20"/>
  <rect x="966.33" y="836.35" width="13.39" height="13.39" fill="#231f20"/>
  <rect x="966.33" y="879.53" width="13.39" height="13.39" fill="#231f20"/>
  <rect x="966.33" y="662.61" width="13.39" height="13.39" fill="#231f20"/>
  <rect x="966.33" y="707.25" width="13.39" height="13.39" fill="#231f20"/>
  <rect x="966.33" y="750.43" width="13.39" height="13.39" fill="#231f20"/>
  <rect x="966.33" y="1007.07" width="13.39" height="13.39" fill="#231f20"/>
  <rect x="966.33" y="1051.71" width="13.39" height="13.39" fill="#231f20"/>
  <rect x="966.33" y="922.6" width="13.39" height="13.39" fill="#231f20"/>
  <rect x="966.33" y="965.78" width="13.39" height="13.39" fill="#231f20"/>
  <rect x="922.72" y="1007.07" width="13.39" height="13.39" fill="#231f20"/>
  <rect x="922.72" y="1051.71" width="13.39" height="13.39" fill="#231f20"/>
  <rect x="922.72" y="922.6" width="13.39" height="13.39" fill="#231f20"/>
  <rect x="922.72" y="965.78" width="13.39" height="13.39" fill="#231f20"/>
  <rect x="966.33" y="663.54" width="13.39" height="13.39" fill="#231f20"/>
  <rect x="922.69" y="791.71" width="13.39" height="13.39" fill="#231f20"/>
  <rect x="922.69" y="662.61" width="13.39" height="13.39" fill="#231f20"/>
  <rect x="922.69" y="707.25" width="13.39" height="13.39" fill="#231f20"/>
  <rect x="922.69" y="750.43" width="13.39" height="13.39" fill="#231f20"/>
  <rect x="922.69" y="663.54" width="13.39" height="13.39" fill="#231f20"/>
  <rect x="966.33" y="187.23" width="13.39" height="13.39" fill="#231f20"/>
  <rect x="966.33" y="231.87" width="13.39" height="13.39" fill="#231f20"/>
  <rect x="966.33" y="275.05" width="13.39" height="13.39" fill="#231f20"/>
  <rect x="923.22" y="403.21" width="13.39" height="13.39" fill="#231f20"/>
  <rect x="923.22" y="316.01" width="13.39" height="13.39" fill="#231f20"/>
  <rect x="923.22" y="360.97" width="13.39" height="13.39" fill="#231f20"/>
  <rect x="923.22" y="404.15" width="13.39" height="13.39" fill="#231f20"/>
  <rect x="923.22" y="231.87" width="13.39" height="13.39" fill="#231f20"/>
  <rect x="923.22" y="275.05" width="13.39" height="13.39" fill="#231f20"/>
  <rect x="923.22" y="144.5" width="13.39" height="13.39" fill="#231f20"/>
  <rect x="923.22" y="187.68" width="13.39" height="13.39" fill="#231f20"/>
  <rect x="1008.82" y="532.32" width="13.39" height="13.39" fill="#231f20"/>
  <rect x="1008.82" y="576.96" width="13.39" height="13.39" fill="#231f20"/>
  <rect x="1008.82" y="620.14" width="13.39" height="13.39" fill="#231f20"/>
  <rect x="1008.82" y="403.21" width="13.39" height="13.39" fill="#231f20"/>
  <rect x="1008.82" y="447.85" width="13.39" height="13.39" fill="#231f20"/>
  <rect x="1008.82" y="491.03" width="13.39" height="13.39" fill="#231f20"/>
  <rect x="1008.82" y="316.01" width="13.39" height="13.39" fill="#231f20"/>
  <rect x="1008.82" y="360.97" width="13.39" height="13.39" fill="#231f20"/>
  <rect x="1008.82" y="404.15" width="13.39" height="13.39" fill="#231f20"/>
  <rect x="1008.82" y="187.23" width="13.39" height="13.39" fill="#231f20"/>
  <rect x="1008.82" y="231.87" width="13.39" height="13.39" fill="#231f20"/>
  <rect x="1008.82" y="275.05" width="13.39" height="13.39" fill="#231f20"/>
  <rect x="966.33" y="13.94" width="13.39" height="13.39" fill="#231f20"/>
  <rect x="966.33" y="58.58" width="13.39" height="13.39" fill="#231f20"/>
  <rect x="966.33" y="101.76" width="13.39" height="13.39" fill="#231f20"/>
  <rect x="923.22" y="58.58" width="13.39" height="13.39" fill="#231f20"/>
  <rect x="923.22" y="101.76" width="13.39" height="13.39" fill="#231f20"/>
  <rect x="923.22" y="14.4" width="13.39" height="13.39" fill="#231f20"/>
  <rect x="1008.82" y="13.94" width="13.39" height="13.39" fill="#231f20"/>
  <rect x="1008.82" y="58.58" width="13.39" height="13.39" fill="#231f20"/>
  <rect x="1008.82" y="101.76" width="13.39" height="13.39" fill="#231f20"/>
  <rect x="577.32" y="619.93" width="13.39" height="13.39" fill="#231f20"/>
  <rect x="620.13" y="619.93" width="13.39" height="13.39" fill="#231f20"/>
  <rect x="663.87" y="662.95" width="13.39" height="13.39" fill="#231f20"/>
  <rect x="706.23" y="662.95" width="13.39" height="13.39" fill="#231f20"/>
  <rect x="749.98" y="662.95" width="13.39" height="13.39" fill="#231f20"/>
  <rect x="274.57" y="445.25" width="13.39" height="13.39" fill="#231f20"/>
  <rect x="316.93" y="445.25" width="13.39" height="13.39" fill="#231f20"/>
  <rect x="360.67" y="445.25" width="13.39" height="13.39" fill="#231f20"/>
  <rect x="231.3" y="489.58" width="13.39" height="13.39" fill="#231f20"/>
  <rect x="274.57" y="489.58" width="13.39" height="13.39" fill="#231f20"/>
  <rect x="316.93" y="489.58" width="13.39" height="13.39" fill="#231f20"/>
  <rect x="360.67" y="489.58" width="13.39" height="13.39" fill="#231f20"/>
  <rect x="231.3" y="533.65" width="13.39" height="13.39" fill="#231f20"/>
  <rect x="231.3" y="705.97" width="13.39" height="13.39" fill="#231f20"/>
  <rect x="231.3" y="619.93" width="13.39" height="13.39" fill="#231f20"/>
  <rect x="231.3" y="664" width="13.39" height="13.39" fill="#231f20"/>
  <rect x="274.57" y="533.65" width="13.39" height="13.39" fill="#231f20"/>
  <rect x="316.93" y="533.65" width="13.39" height="13.39" fill="#231f20"/>
  <rect x="360.67" y="533.65" width="13.39" height="13.39" fill="#231f20"/>
  <rect x="274.57" y="575.62" width="13.39" height="13.39" fill="#231f20"/>
  <rect x="316.93" y="575.62" width="13.39" height="13.39" fill="#231f20"/>
  <rect x="360.67" y="575.62" width="13.39" height="13.39" fill="#231f20"/>
  <rect x="404.9" y="533.65" width="13.39" height="13.39" fill="#231f20"/>
  <rect x="448.17" y="533.65" width="13.39" height="13.39" fill="#231f20"/>
  <rect x="274.57" y="619.86" width="13.39" height="13.39" fill="#231f20"/>
  <rect x="316.93" y="619.86" width="13.39" height="13.39" fill="#231f20"/>
  <rect x="360.67" y="619.86" width="13.39" height="13.39" fill="#231f20"/>
  <rect x="274.57" y="706.38" width="13.39" height="13.39" fill="#231f20"/>
  <rect x="231.3" y="749.08" width="13.39" height="13.39" fill="#231f20"/>
  <rect x="274.57" y="749.49" width="13.39" height="13.39" fill="#231f20"/>
  <rect x="316.93" y="706.38" width="13.39" height="13.39" fill="#231f20"/>
  <rect x="360.67" y="706.38" width="13.39" height="13.39" fill="#231f20"/>
  <rect x="404.9" y="619.86" width="13.39" height="13.39" fill="#231f20"/>
  <rect x="448.17" y="619.86" width="13.39" height="13.39" fill="#231f20"/>
  <rect x="359.76" y="664" width="13.39" height="13.39" fill="#231f20"/>
  <rect x="402.11" y="664" width="13.39" height="13.39" fill="#231f20"/>
  <rect x="445.86" y="664" width="13.39" height="13.39" fill="#231f20"/>
  <rect x="490.08" y="664" width="13.39" height="13.39" fill="#231f20"/>
  <rect x="533.35" y="664" width="13.39" height="13.39" fill="#231f20"/>
  <rect x="490.53" y="533.65" width="13.39" height="13.39" fill="#231f20"/>
  <rect x="534.27" y="533.65" width="13.39" height="13.39" fill="#231f20"/>
  <rect x="403.48" y="445.25" width="13.39" height="13.39" fill="#231f20"/>
  <rect x="447.22" y="445.25" width="13.39" height="13.39" fill="#231f20"/>
  <rect x="489.58" y="445.25" width="13.39" height="13.39" fill="#231f20"/>
  <rect x="533.33" y="445.25" width="13.39" height="13.39" fill="#231f20"/>
  <rect x="533.8" y="316.01" width="13.39" height="13.39" fill="#231f20"/>
  <rect x="403.95" y="231.06" width="13.39" height="13.39" fill="#231f20"/>
  <rect x="447.7" y="231.06" width="13.39" height="13.39" fill="#231f20"/>
  <rect x="490.05" y="231.06" width="13.39" height="13.39" fill="#231f20"/>
  <rect x="533.8" y="231.06" width="13.39" height="13.39" fill="#231f20"/>
  <rect x="490.05" y="273.83" width="13.39" height="13.39" fill="#231f20"/>
  <rect x="576.85" y="273.83" width="13.39" height="13.39" fill="#231f20"/>
  <rect x="533.8" y="273.83" width="13.39" height="13.39" fill="#231f20"/>
  <rect x="619.56" y="273.83" width="13.39" height="13.39" fill="#231f20"/>
  <rect x="706.35" y="273.83" width="13.39" height="13.39" fill="#231f20"/>
  <rect x="663.3" y="273.83" width="13.39" height="13.39" fill="#231f20"/>
  <rect x="619.56" y="316.01" width="13.39" height="13.39" fill="#231f20"/>
  <rect x="706.35" y="316.01" width="13.39" height="13.39" fill="#231f20"/>
  <rect x="663.3" y="316.01" width="13.39" height="13.39" fill="#231f20"/>
  <rect x="576.85" y="231.06" width="13.39" height="13.39" fill="#231f20"/>
  <rect x="619.21" y="231.06" width="13.39" height="13.39" fill="#231f20"/>
  <rect x="662.95" y="231.06" width="13.39" height="13.39" fill="#231f20"/>
  <rect x="275.04" y="231.06" width="13.39" height="13.39" fill="#231f20"/>
  <rect x="231.3" y="231.06" width="13.39" height="13.39" fill="#231f20"/>
  <rect x="231.3" y="188.3" width="13.39" height="13.39" fill="#231f20"/>
  <rect x="188.11" y="231.06" width="13.39" height="13.39" fill="#231f20"/>
  <rect x="188.11" y="188.3" width="13.39" height="13.39" fill="#231f20"/>
  <rect x="188.11" y="101.25" width="13.39" height="13.39" fill="#231f20"/>
  <rect x="188.11" y="58.49" width="13.39" height="13.39" fill="#231f20"/>
  <rect x="274.47" y="144.38" width="13.39" height="13.39" fill="#231f20"/>
  <rect x="231.28" y="144.38" width="13.39" height="13.39" fill="#231f20"/>
  <rect x="274.47" y="101.35" width="13.39" height="13.39" fill="#231f20"/>
  <rect x="231.28" y="101.35" width="13.39" height="13.39" fill="#231f20"/>
  <rect x="274.36" y="15.72" width="13.39" height="13.39" fill="#231f20"/>
  <rect x="231.17" y="15.72" width="13.39" height="13.39" fill="#231f20"/>
  <rect x="317.4" y="231.06" width="13.39" height="13.39" fill="#231f20"/>
  <rect x="361.15" y="188.3" width="13.39" height="13.39" fill="#231f20"/>
  <rect x="403.95" y="188.3" width="13.39" height="13.39" fill="#231f20"/>
  <rect x="447.7" y="188.3" width="13.39" height="13.39" fill="#231f20"/>
  <rect x="360.67" y="58.49" width="13.39" height="13.39" fill="#231f20"/>
  <rect x="403.95" y="58.49" width="13.39" height="13.39" fill="#231f20"/>
  <rect x="447.7" y="58.49" width="13.39" height="13.39" fill="#231f20"/>
  <rect x="490.05" y="58.49" width="13.39" height="13.39" fill="#231f20"/>
  <rect x="534.5" y="56.33" width="13.39" height="13.39" fill="#231f20"/>
  <rect x="578.24" y="56.33" width="13.39" height="13.39" fill="#231f20"/>
  <rect x="620.6" y="56.33" width="13.39" height="13.39" fill="#231f20"/>
  <rect x="490.05" y="188.3" width="13.39" height="13.39" fill="#231f20"/>
  <rect x="533.8" y="188.3" width="13.39" height="13.39" fill="#231f20"/>
  <rect x="577.55" y="188.3" width="13.39" height="13.39" fill="#231f20"/>
  <rect x="619.9" y="188.3" width="13.39" height="13.39" fill="#231f20"/>
  <rect x="533.8" y="101.25" width="13.39" height="13.39" fill="#231f20"/>
  <rect x="577.55" y="101.25" width="13.39" height="13.39" fill="#231f20"/>
  <rect x="619.9" y="101.25" width="13.39" height="13.39" fill="#231f20"/>
  <rect x="663.65" y="188.3" width="13.39" height="13.39" fill="#231f20"/>
  <rect x="707.4" y="188.3" width="13.39" height="13.39" fill="#231f20"/>
  <rect x="707.4" y="231.06" width="13.39" height="13.39" fill="#231f20"/>
  <rect x="749.75" y="231.06" width="13.39" height="13.39" fill="#231f20"/>
  <rect x="793.5" y="231.06" width="13.39" height="13.39" fill="#231f20"/>
  <rect x="749.75" y="101.25" width="13.39" height="13.39" fill="#231f20"/>
  <rect x="793.5" y="101.25" width="13.39" height="13.39" fill="#231f20"/>
  <rect x="794.89" y="144.01" width="13.39" height="13.39" fill="#231f20"/>
  <rect x="837.25" y="144.01" width="13.39" height="13.39" fill="#231f20"/>
  <rect x="837.25" y="99.73" width="13.39" height="13.39" fill="#231f20"/>
  <rect x="795.4" y="273.83" width="13.39" height="13.39" fill="#231f20"/>
  <rect x="837.75" y="273.83" width="13.39" height="13.39" fill="#231f20"/>
  <rect x="837.75" y="316.01" width="13.39" height="13.39" fill="#231f20"/>
  <rect x="880.11" y="273.83" width="13.39" height="13.39" fill="#231f20"/>
  <rect x="880.11" y="316.01" width="13.39" height="13.39" fill="#231f20"/>
  <rect x="361.15" y="273.83" width="13.39" height="13.39" fill="#231f20"/>
  <rect x="58.81" y="403.53" width="13.39" height="13.39" fill="#231f20"/>
  <rect x="58.81" y="360.51" width="13.39" height="13.39" fill="#231f20"/>
  <rect x="58.81" y="315.55" width="13.39" height="13.39" fill="#231f20"/>
  <rect x="58.81" y="273.83" width="13.39" height="13.39" fill="#231f20"/>
  <rect x="58.81" y="231.06" width="13.39" height="13.39" fill="#231f20"/>
  <rect x="58.81" y="186.11" width="13.39" height="13.39" fill="#231f20"/>
  <rect x="58.81" y="144.38" width="13.39" height="13.39" fill="#231f20"/>
  <rect x="58.81" y="101.35" width="13.39" height="13.39" fill="#231f20"/>
  <rect x="58.81" y="59.63" width="13.39" height="13.39" fill="#231f20"/>
  <rect x="15.76" y="186.11" width="13.39" height="13.39" fill="#231f20"/>
  <rect x="15.76" y="144.38" width="13.39" height="13.39" fill="#231f20"/>
  <rect x="15.76" y="273.53" width="13.39" height="13.39" fill="#231f20"/>
  <rect x="15.76" y="231.8" width="13.39" height="13.39" fill="#231f20"/>
  <rect x="15.76" y="101.35" width="13.39" height="13.39" fill="#231f20"/>
  <rect x="15.76" y="59.63" width="13.39" height="13.39" fill="#231f20"/>
  <rect x="58.81" y="15.16" width="13.39" height="13.39" fill="#231f20"/>
  <rect x="145.05" y="231.06" width="13.39" height="13.39" fill="#231f20"/>
  <rect x="145.05" y="186.11" width="13.39" height="13.39" fill="#231f20"/>
  <rect x="145.05" y="144.38" width="13.39" height="13.39" fill="#231f20"/>
  <rect x="145.05" y="101.35" width="13.39" height="13.39" fill="#231f20"/>
  <rect x="145.05" y="59.63" width="13.39" height="13.39" fill="#231f20"/>
  <rect x="145.05" y="15.16" width="13.39" height="13.39" fill="#231f20"/>
  <rect x="15.76" y="15.16" width="13.39" height="13.39" fill="#231f20"/>
</svg>