<?xml version="1.0" encoding="UTF-8"?>
<svg id="_11" data-name="11" xmlns="http://www.w3.org/2000/svg" viewBox="0 0 1080 1080">
  <rect x="347.11" y="822.17" width="40.84" height="40.84" fill="#231f20"/>
  <rect x="303.85" y="822.17" width="40.84" height="40.84" fill="#231f20"/>
  <rect x="346.97" y="778.81" width="40.84" height="40.84" fill="#231f20"/>
  <rect x="303.71" y="778.81" width="40.84" height="40.84" fill="#231f20"/>
  <rect x="347.11" y="735.91" width="40.84" height="40.84" fill="#231f20"/>
  <rect x="303.85" y="735.91" width="40.84" height="40.84" fill="#231f20"/>
  <rect x="346.97" y="692.54" width="40.84" height="40.84" fill="#231f20"/>
  <rect x="303.71" y="692.54" width="40.84" height="40.84" fill="#231f20"/>
  <rect x="347.11" y="649.44" width="40.84" height="40.84" fill="#231f20"/>
  <rect x="347.17" y="1038.27" width="40.84" height="40.84" fill="#231f20"/>
  <rect x="347.04" y="994.9" width="40.84" height="40.84" fill="#231f20"/>
  <rect x="347.17" y="952" width="40.84" height="40.84" fill="#231f20"/>
  <rect x="347.04" y="908.64" width="40.84" height="40.84" fill="#231f20"/>
  <rect x="347.17" y="865.53" width="40.84" height="40.84" fill="#231f20"/>
  <rect x="303.85" y="649.44" width="40.84" height="40.84" fill="#231f20"/>
  <rect x="346.97" y="606.08" width="40.84" height="40.84" fill="#231f20"/>
  <rect x="303.71" y="606.08" width="40.84" height="40.84" fill="#231f20"/>
  <rect x="347.11" y="563.17" width="40.84" height="40.84" fill="#231f20"/>
  <rect x="303.85" y="563.17" width="40.84" height="40.84" fill="#231f20"/>
  <rect x="346.97" y="519.81" width="40.84" height="40.84" fill="#231f20"/>
  <rect x="346.97" y="476.45" width="40.84" height="40.84" fill="#231f20"/>
  <rect x="303.85" y="476.38" width="40.84" height="40.84" fill="#231f20"/>
  <rect x="303.85" y="433.34" width="40.84" height="40.84" fill="#231f20"/>
  <rect x="347.11" y="433.34" width="40.84" height="40.84" fill="#231f20"/>
  <rect x="346.97" y="389.98" width="40.84" height="40.84" fill="#231f20"/>
  <rect x="347.11" y="347.08" width="40.84" height="40.84" fill="#231f20"/>
  <rect x="346.97" y="303.72" width="40.84" height="40.84" fill="#231f20"/>
  <rect x="346.97" y="260.73" width="40.84" height="40.84" fill="#231f20"/>
  <rect x="303.71" y="519.81" width="40.84" height="40.84" fill="#231f20"/>
  <rect x="476.79" y="606.31" width="40.84" height="40.84" fill="#231f20"/>
  <rect x="519.91" y="562.94" width="40.84" height="40.84" fill="#231f20"/>
  <rect x="692.72" y="606.08" width="40.84" height="40.84" fill="#231f20"/>
  <rect x="692.72" y="649.17" width="40.84" height="40.84" fill="#231f20"/>
  <rect x="649.86" y="303.98" width="40.84" height="40.84" fill="#231f20"/>
  <rect x="649.86" y="347.08" width="40.84" height="40.84" fill="#231f20"/>
  <rect x="692.72" y="476.45" width="40.84" height="40.84" fill="#231f20"/>
  <rect x="692.72" y="692.68" width="40.84" height="40.84" fill="#231f20"/>
  <rect x="692.72" y="735.77" width="40.84" height="40.84" fill="#231f20"/>
  <rect x="649.86" y="735.45" width="40.84" height="40.84" fill="#231f20"/>
  <rect x="476.65" y="562.94" width="40.84" height="40.84" fill="#231f20"/>
  <rect x="274.38" y="835.9" width="13.39" height="13.39" fill="#231f20"/>
  <rect x="274.38" y="879.26" width="13.39" height="13.39" fill="#231f20"/>
  <rect x="274.38" y="922.27" width="13.39" height="13.39" fill="#231f20"/>
  <rect x="274.38" y="965.63" width="13.39" height="13.39" fill="#231f20"/>
  <rect x="317.44" y="879.26" width="13.39" height="13.39" fill="#231f20"/>
  <rect x="317.44" y="922.27" width="13.39" height="13.39" fill="#231f20"/>
  <rect x="317.44" y="965.63" width="13.39" height="13.39" fill="#231f20"/>
  <rect x="274.38" y="1007.37" width="13.39" height="13.39" fill="#231f20"/>
  <rect x="274.38" y="1050.73" width="13.39" height="13.39" fill="#231f20"/>
  <rect x="274.38" y="577.33" width="13.39" height="13.39" fill="#231f20"/>
  <rect x="274.38" y="620.69" width="13.39" height="13.39" fill="#231f20"/>
  <rect x="274.38" y="663.7" width="13.39" height="13.39" fill="#231f20"/>
  <rect x="274.38" y="707.07" width="13.39" height="13.39" fill="#231f20"/>
  <rect x="274.38" y="402.62" width="13.39" height="13.39" fill="#231f20"/>
  <rect x="317.44" y="402.62" width="13.39" height="13.39" fill="#231f20"/>
  <rect x="274.38" y="445.98" width="13.39" height="13.39" fill="#231f20"/>
  <rect x="274.38" y="488.99" width="13.39" height="13.39" fill="#231f20"/>
  <rect x="274.38" y="532.36" width="13.39" height="13.39" fill="#231f20"/>
  <rect x="231.33" y="402.62" width="13.39" height="13.39" fill="#231f20"/>
  <rect x="274.38" y="360.8" width="13.39" height="13.39" fill="#231f20"/>
  <rect x="317.44" y="360.8" width="13.39" height="13.39" fill="#231f20"/>
  <rect x="231.33" y="360.8" width="13.39" height="13.39" fill="#231f20"/>
  <rect x="274.38" y="317.44" width="13.39" height="13.39" fill="#231f20"/>
  <rect x="317.44" y="317.44" width="13.39" height="13.39" fill="#231f20"/>
  <rect x="231.33" y="317.44" width="13.39" height="13.39" fill="#231f20"/>
  <rect x="274.38" y="274.43" width="13.39" height="13.39" fill="#231f20"/>
  <rect x="317.44" y="274.43" width="13.39" height="13.39" fill="#231f20"/>
  <rect x="231.33" y="274.43" width="13.39" height="13.39" fill="#231f20"/>
  <rect x="274.38" y="231.07" width="13.39" height="13.39" fill="#231f20"/>
  <rect x="317.44" y="231.07" width="13.39" height="13.39" fill="#231f20"/>
  <rect x="274.38" y="188.89" width="13.39" height="13.39" fill="#231f20"/>
  <rect x="317.44" y="188.89" width="13.39" height="13.39" fill="#231f20"/>
  <rect x="360.7" y="231.07" width="13.39" height="13.39" fill="#231f20"/>
  <rect x="360.7" y="188.89" width="13.39" height="13.39" fill="#231f20"/>
  <rect x="447.24" y="57.84" width="13.39" height="13.39" fill="#231f20"/>
  <rect x="447.24" y="15.66" width="13.39" height="13.39" fill="#231f20"/>
  <rect x="490.5" y="57.84" width="13.39" height="13.39" fill="#231f20"/>
  <rect x="490.5" y="15.66" width="13.39" height="13.39" fill="#231f20"/>
  <rect x="533.76" y="57.84" width="13.39" height="13.39" fill="#231f20"/>
  <rect x="533.76" y="15.66" width="13.39" height="13.39" fill="#231f20"/>
  <rect x="577.02" y="57.84" width="13.39" height="13.39" fill="#231f20"/>
  <rect x="447.24" y="102.51" width="13.39" height="13.39" fill="#231f20"/>
  <rect x="360.83" y="57.84" width="13.39" height="13.39" fill="#231f20"/>
  <rect x="360.83" y="102.51" width="13.39" height="13.39" fill="#231f20"/>
  <rect x="317.61" y="57.84" width="13.39" height="13.39" fill="#231f20"/>
  <rect x="317.61" y="102.51" width="13.39" height="13.39" fill="#231f20"/>
  <rect x="490.5" y="102.51" width="13.39" height="13.39" fill="#231f20"/>
  <rect x="533.76" y="102.51" width="13.39" height="13.39" fill="#231f20"/>
  <rect x="577.02" y="102.51" width="13.39" height="13.39" fill="#231f20"/>
  <rect x="577.02" y="15.66" width="13.39" height="13.39" fill="#231f20"/>
  <rect x="231.33" y="231.07" width="13.39" height="13.39" fill="#231f20"/>
  <rect x="231.33" y="188.89" width="13.39" height="13.39" fill="#231f20"/>
  <rect x="231.33" y="145.88" width="13.39" height="13.39" fill="#231f20"/>
  <rect x="231.33" y="102.51" width="13.39" height="13.39" fill="#231f20"/>
  <rect x="231.33" y="56.81" width="13.39" height="13.39" fill="#231f20"/>
  <rect x="231.33" y="15.49" width="13.39" height="13.39" fill="#231f20"/>
  <rect x="274.38" y="145.88" width="13.39" height="13.39" fill="#231f20"/>
  <rect x="274.38" y="102.51" width="13.39" height="13.39" fill="#231f20"/>
  <rect x="274.38" y="56.81" width="13.39" height="13.39" fill="#231f20"/>
  <rect x="274.38" y="15.49" width="13.39" height="13.39" fill="#231f20"/>
  <rect x="749.5" y="402.62" width="13.39" height="13.39" fill="#231f20"/>
  <rect x="792.55" y="402.62" width="13.39" height="13.39" fill="#231f20"/>
  <rect x="706.44" y="402.62" width="13.39" height="13.39" fill="#231f20"/>
  <rect x="749.5" y="360.8" width="13.39" height="13.39" fill="#231f20"/>
  <rect x="792.55" y="360.8" width="13.39" height="13.39" fill="#231f20"/>
  <rect x="706.44" y="360.8" width="13.39" height="13.39" fill="#231f20"/>
  <rect x="749.5" y="317.44" width="13.39" height="13.39" fill="#231f20"/>
  <rect x="792.55" y="317.44" width="13.39" height="13.39" fill="#231f20"/>
  <rect x="706.44" y="317.44" width="13.39" height="13.39" fill="#231f20"/>
  <rect x="749.5" y="274.43" width="13.39" height="13.39" fill="#231f20"/>
  <rect x="792.55" y="274.43" width="13.39" height="13.39" fill="#231f20"/>
  <rect x="706.44" y="274.43" width="13.39" height="13.39" fill="#231f20"/>
  <rect x="749.5" y="231.07" width="13.39" height="13.39" fill="#231f20"/>
  <rect x="792.55" y="231.07" width="13.39" height="13.39" fill="#231f20"/>
  <rect x="749.5" y="188.89" width="13.39" height="13.39" fill="#231f20"/>
  <rect x="792.55" y="188.89" width="13.39" height="13.39" fill="#231f20"/>
  <rect x="835.61" y="402.62" width="13.39" height="13.39" fill="#231f20"/>
  <rect x="749.5" y="445.98" width="13.39" height="13.39" fill="#231f20"/>
  <rect x="792.55" y="445.98" width="13.39" height="13.39" fill="#231f20"/>
  <rect x="706.44" y="445.98" width="13.39" height="13.39" fill="#231f20"/>
  <rect x="649.86" y="476.45" width="40.84" height="40.84" fill="#231f20"/>
  <rect x="663.59" y="402.62" width="13.39" height="13.39" fill="#231f20"/>
  <rect x="663.59" y="445.98" width="13.39" height="13.39" fill="#231f20"/>
  <rect x="835.61" y="445.98" width="13.39" height="13.39" fill="#231f20"/>
  <rect x="749.5" y="534.8" width="13.39" height="13.39" fill="#231f20"/>
  <rect x="792.55" y="534.8" width="13.39" height="13.39" fill="#231f20"/>
  <rect x="706.44" y="534.8" width="13.39" height="13.39" fill="#231f20"/>
  <rect x="835.61" y="534.8" width="13.39" height="13.39" fill="#231f20"/>
  <rect x="749.5" y="490.39" width="13.39" height="13.39" fill="#231f20"/>
  <rect x="792.55" y="490.39" width="13.39" height="13.39" fill="#231f20"/>
  <rect x="835.61" y="490.39" width="13.39" height="13.39" fill="#231f20"/>
  <rect x="749.5" y="578.16" width="13.39" height="13.39" fill="#231f20"/>
  <rect x="792.55" y="578.16" width="13.39" height="13.39" fill="#231f20"/>
  <rect x="706.44" y="578.16" width="13.39" height="13.39" fill="#231f20"/>
  <rect x="663.59" y="534.8" width="13.39" height="13.39" fill="#231f20"/>
  <rect x="663.59" y="578.16" width="13.39" height="13.39" fill="#231f20"/>
  <rect x="835.61" y="578.16" width="13.39" height="13.39" fill="#231f20"/>
  <rect x="749.5" y="618.66" width="13.39" height="13.39" fill="#231f20"/>
  <rect x="792.55" y="618.66" width="13.39" height="13.39" fill="#231f20"/>
  <rect x="835.61" y="618.66" width="13.39" height="13.39" fill="#231f20"/>
  <rect x="749.5" y="707.47" width="13.39" height="13.39" fill="#231f20"/>
  <rect x="792.55" y="707.47" width="13.39" height="13.39" fill="#231f20"/>
  <rect x="835.61" y="707.47" width="13.39" height="13.39" fill="#231f20"/>
  <rect x="749.5" y="663.07" width="13.39" height="13.39" fill="#231f20"/>
  <rect x="792.55" y="663.07" width="13.39" height="13.39" fill="#231f20"/>
  <rect x="835.61" y="663.07" width="13.39" height="13.39" fill="#231f20"/>
  <rect x="749.5" y="750.84" width="13.39" height="13.39" fill="#231f20"/>
  <rect x="792.55" y="750.84" width="13.39" height="13.39" fill="#231f20"/>
  <rect x="835.61" y="750.84" width="13.39" height="13.39" fill="#231f20"/>
  <rect x="749.5" y="793.92" width="13.39" height="13.39" fill="#231f20"/>
  <rect x="792.55" y="793.92" width="13.39" height="13.39" fill="#231f20"/>
  <rect x="835.61" y="793.92" width="13.39" height="13.39" fill="#231f20"/>
  <rect x="749.5" y="837.28" width="13.39" height="13.39" fill="#231f20"/>
  <rect x="792.55" y="837.28" width="13.39" height="13.39" fill="#231f20"/>
  <rect x="664.49" y="793.92" width="13.39" height="13.39" fill="#231f20"/>
  <rect x="707.55" y="793.92" width="13.39" height="13.39" fill="#231f20"/>
  <rect x="664.49" y="837.28" width="13.39" height="13.39" fill="#231f20"/>
  <rect x="707.55" y="837.28" width="13.39" height="13.39" fill="#231f20"/>
  <rect x="835.61" y="837.28" width="13.39" height="13.39" fill="#231f20"/>
  <rect x="749.34" y="879.8" width="13.39" height="13.39" fill="#231f20"/>
  <rect x="792.4" y="879.8" width="13.39" height="13.39" fill="#231f20"/>
  <rect x="706.29" y="879.8" width="13.39" height="13.39" fill="#231f20"/>
  <rect x="749.5" y="966.6" width="13.39" height="13.39" fill="#231f20"/>
  <rect x="792.55" y="966.6" width="13.39" height="13.39" fill="#231f20"/>
  <rect x="835.61" y="966.6" width="13.39" height="13.39" fill="#231f20"/>
  <rect x="749.5" y="922.19" width="13.39" height="13.39" fill="#231f20"/>
  <rect x="792.55" y="922.19" width="13.39" height="13.39" fill="#231f20"/>
  <rect x="835.61" y="922.19" width="13.39" height="13.39" fill="#231f20"/>
  <rect x="749.5" y="1009.96" width="13.39" height="13.39" fill="#231f20"/>
  <rect x="705.81" y="966.6" width="13.39" height="13.39" fill="#231f20"/>
  <rect x="705.81" y="922.19" width="13.39" height="13.39" fill="#231f20"/>
  <rect x="705.81" y="1009.96" width="13.39" height="13.39" fill="#231f20"/>
  <rect x="664.66" y="879.8" width="13.39" height="13.39" fill="#231f20"/>
  <rect x="664.18" y="966.6" width="13.39" height="13.39" fill="#231f20"/>
  <rect x="664.18" y="922.19" width="13.39" height="13.39" fill="#231f20"/>
  <rect x="664.18" y="1009.96" width="13.39" height="13.39" fill="#231f20"/>
  <rect x="576.42" y="966.6" width="13.39" height="13.39" fill="#231f20"/>
  <rect x="576.42" y="922.19" width="13.39" height="13.39" fill="#231f20"/>
  <rect x="576.42" y="1009.96" width="13.39" height="13.39" fill="#231f20"/>
  <rect x="620.6" y="966.6" width="13.39" height="13.39" fill="#231f20"/>
  <rect x="620.6" y="922.19" width="13.39" height="13.39" fill="#231f20"/>
  <rect x="620.6" y="1009.96" width="13.39" height="13.39" fill="#231f20"/>
  <rect x="532.73" y="966.6" width="13.39" height="13.39" fill="#231f20"/>
  <rect x="532.73" y="922.19" width="13.39" height="13.39" fill="#231f20"/>
  <rect x="532.73" y="1009.96" width="13.39" height="13.39" fill="#231f20"/>
  <rect x="491.1" y="966.6" width="13.39" height="13.39" fill="#231f20"/>
  <rect x="491.1" y="922.19" width="13.39" height="13.39" fill="#231f20"/>
  <rect x="576.27" y="879.8" width="13.39" height="13.39" fill="#231f20"/>
  <rect x="620.45" y="879.8" width="13.39" height="13.39" fill="#231f20"/>
  <rect x="532.58" y="879.8" width="13.39" height="13.39" fill="#231f20"/>
  <rect x="490.95" y="879.8" width="13.39" height="13.39" fill="#231f20"/>
  <rect x="491.1" y="1009.96" width="13.39" height="13.39" fill="#231f20"/>
  <rect x="447.32" y="792.87" width="13.39" height="13.39" fill="#231f20"/>
  <rect x="447.32" y="748.46" width="13.39" height="13.39" fill="#231f20"/>
  <rect x="447.17" y="706.07" width="13.39" height="13.39" fill="#231f20"/>
  <rect x="447.32" y="836.23" width="13.39" height="13.39" fill="#231f20"/>
  <rect x="404.51" y="792.87" width="13.39" height="13.39" fill="#231f20"/>
  <rect x="404.51" y="748.46" width="13.39" height="13.39" fill="#231f20"/>
  <rect x="404.36" y="706.07" width="13.39" height="13.39" fill="#231f20"/>
  <rect x="404.51" y="836.23" width="13.39" height="13.39" fill="#231f20"/>
  <rect x="404.51" y="621.33" width="13.39" height="13.39" fill="#231f20"/>
  <rect x="404.51" y="576.92" width="13.39" height="13.39" fill="#231f20"/>
  <rect x="404.36" y="534.53" width="13.39" height="13.39" fill="#231f20"/>
  <rect x="404.51" y="664.69" width="13.39" height="13.39" fill="#231f20"/>
  <rect x="792.55" y="1009.96" width="13.39" height="13.39" fill="#231f20"/>
  <rect x="835.61" y="1009.96" width="13.39" height="13.39" fill="#231f20"/>
  <rect x="835.61" y="360.8" width="13.39" height="13.39" fill="#231f20"/>
  <rect x="835.61" y="317.44" width="13.39" height="13.39" fill="#231f20"/>
  <rect x="835.61" y="274.43" width="13.39" height="13.39" fill="#231f20"/>
  <rect x="835.61" y="231.07" width="13.39" height="13.39" fill="#231f20"/>
  <rect x="835.61" y="188.89" width="13.39" height="13.39" fill="#231f20"/>
  <rect x="706.44" y="231.07" width="13.39" height="13.39" fill="#231f20"/>
  <rect x="706.44" y="188.89" width="13.39" height="13.39" fill="#231f20"/>
  <rect x="533.76" y="317.71" width="13.39" height="13.39" fill="#231f20"/>
  <rect x="576.82" y="317.71" width="13.39" height="13.39" fill="#231f20"/>
  <rect x="490.71" y="317.71" width="13.39" height="13.39" fill="#231f20"/>
  <rect x="533.76" y="274.35" width="13.39" height="13.39" fill="#231f20"/>
  <rect x="576.82" y="274.35" width="13.39" height="13.39" fill="#231f20"/>
  <rect x="533.76" y="232.17" width="13.39" height="13.39" fill="#231f20"/>
  <rect x="576.82" y="232.17" width="13.39" height="13.39" fill="#231f20"/>
  <rect x="620.15" y="274.35" width="13.39" height="13.39" fill="#231f20"/>
  <rect x="663.2" y="274.35" width="13.39" height="13.39" fill="#231f20"/>
  <rect x="620.15" y="232.17" width="13.39" height="13.39" fill="#231f20"/>
  <rect x="663.2" y="232.17" width="13.39" height="13.39" fill="#231f20"/>
  <rect x="490.71" y="274.35" width="13.39" height="13.39" fill="#231f20"/>
  <rect x="447.24" y="317.71" width="13.39" height="13.39" fill="#231f20"/>
  <rect x="447.24" y="274.35" width="13.39" height="13.39" fill="#231f20"/>
  <rect x="490.71" y="232.17" width="13.39" height="13.39" fill="#231f20"/>
  <rect x="706.44" y="145.88" width="13.39" height="13.39" fill="#231f20"/>
  <rect x="706.44" y="102.51" width="13.39" height="13.39" fill="#231f20"/>
  <rect x="706.44" y="56.81" width="13.39" height="13.39" fill="#231f20"/>
  <rect x="663.59" y="102.51" width="13.39" height="13.39" fill="#231f20"/>
  <rect x="663.59" y="56.81" width="13.39" height="13.39" fill="#231f20"/>
  <rect x="706.44" y="15.49" width="13.39" height="13.39" fill="#231f20"/>
  <rect x="749.5" y="145.88" width="13.39" height="13.39" fill="#231f20"/>
  <rect x="749.5" y="102.51" width="13.39" height="13.39" fill="#231f20"/>
  <rect x="749.5" y="56.81" width="13.39" height="13.39" fill="#231f20"/>
  <rect x="749.5" y="15.49" width="13.39" height="13.39" fill="#231f20"/>
  <rect x="792.55" y="145.88" width="13.39" height="13.39" fill="#231f20"/>
  <rect x="792.55" y="102.51" width="13.39" height="13.39" fill="#231f20"/>
  <rect x="792.55" y="56.81" width="13.39" height="13.39" fill="#231f20"/>
  <rect x="792.55" y="15.49" width="13.39" height="13.39" fill="#231f20"/>
  <rect x="835.61" y="145.88" width="13.39" height="13.39" fill="#231f20"/>
  <rect x="835.61" y="102.51" width="13.39" height="13.39" fill="#231f20"/>
  <rect x="835.61" y="56.81" width="13.39" height="13.39" fill="#231f20"/>
  <rect x="835.61" y="15.49" width="13.39" height="13.39" fill="#231f20"/>
  <rect x="231.33" y="445.98" width="13.39" height="13.39" fill="#231f20"/>
  <rect x="231.33" y="488.99" width="13.39" height="13.39" fill="#231f20"/>
  <rect x="231.33" y="532.36" width="13.39" height="13.39" fill="#231f20"/>
  <rect x="274.38" y="748.8" width="13.39" height="13.39" fill="#231f20"/>
  <rect x="274.38" y="792.17" width="13.39" height="13.39" fill="#231f20"/>
  <rect x="231.33" y="835.9" width="13.39" height="13.39" fill="#231f20"/>
  <rect x="231.33" y="879.26" width="13.39" height="13.39" fill="#231f20"/>
  <rect x="231.33" y="922.27" width="13.39" height="13.39" fill="#231f20"/>
  <rect x="231.33" y="577.33" width="13.39" height="13.39" fill="#231f20"/>
  <rect x="231.33" y="620.69" width="13.39" height="13.39" fill="#231f20"/>
  <rect x="231.33" y="663.7" width="13.39" height="13.39" fill="#231f20"/>
  <rect x="231.33" y="707.07" width="13.39" height="13.39" fill="#231f20"/>
  <rect x="231.33" y="748.8" width="13.39" height="13.39" fill="#231f20"/>
  <rect x="231.33" y="792.17" width="13.39" height="13.39" fill="#231f20"/>
  <rect x="231.33" y="965.36" width="13.39" height="13.39" fill="#231f20"/>
  <rect x="231.33" y="1007.1" width="13.39" height="13.39" fill="#231f20"/>
  <rect x="231.33" y="1050.46" width="13.39" height="13.39" fill="#231f20"/>
  <rect x="317.44" y="1007.37" width="13.39" height="13.39" fill="#231f20"/>
  <rect x="317.44" y="1050.73" width="13.39" height="13.39" fill="#231f20"/>
</svg>