<?xml version="1.0" encoding="UTF-8"?>
<svg id="_12" data-name="12" xmlns="http://www.w3.org/2000/svg" viewBox="0 0 1080 1080">
  <rect x="692.78" y="952.07" width="40.84" height="40.84" fill="#231f20"/>
  <rect x="692.78" y="908.69" width="40.84" height="40.84" fill="#231f20"/>
  <rect x="433.72" y="822.4" width="40.84" height="40.84" fill="#231f20"/>
  <rect x="433.72" y="779.02" width="40.84" height="40.84" fill="#231f20"/>
  <rect x="390.38" y="822.4" width="40.84" height="40.84" fill="#231f20"/>
  <rect x="390.38" y="779.02" width="40.84" height="40.84" fill="#231f20"/>
  <rect x="433.72" y="908.8" width="40.84" height="40.84" fill="#231f20"/>
  <rect x="433.72" y="865.42" width="40.84" height="40.84" fill="#231f20"/>
  <rect x="476.78" y="822.4" width="40.84" height="40.84" fill="#231f20"/>
  <rect x="476.78" y="779.02" width="40.84" height="40.84" fill="#231f20"/>
  <rect x="476.78" y="908.8" width="40.84" height="40.84" fill="#231f20"/>
  <rect x="476.78" y="865.42" width="40.84" height="40.84" fill="#231f20"/>
  <rect x="390.38" y="908.8" width="40.84" height="40.84" fill="#231f20"/>
  <rect x="390.38" y="865.42" width="40.84" height="40.84" fill="#231f20"/>
  <rect x="433.72" y="951.9" width="40.84" height="40.84" fill="#231f20"/>
  <rect x="390.38" y="951.9" width="40.84" height="40.84" fill="#231f20"/>
  <rect x="433.72" y="1038.3" width="40.84" height="40.84" fill="#231f20"/>
  <rect x="433.72" y="994.92" width="40.84" height="40.84" fill="#231f20"/>
  <rect x="476.78" y="951.9" width="40.84" height="40.84" fill="#231f20"/>
  <rect x="476.78" y="1038.3" width="40.84" height="40.84" fill="#231f20"/>
  <rect x="476.78" y="994.92" width="40.84" height="40.84" fill="#231f20"/>
  <rect x="390.38" y="1038.3" width="40.84" height="40.84" fill="#231f20"/>
  <rect x="390.38" y="994.92" width="40.84" height="40.84" fill="#231f20"/>
  <rect x="347.04" y="822.4" width="40.84" height="40.84" fill="#231f20"/>
  <rect x="347.04" y="779.02" width="40.84" height="40.84" fill="#231f20"/>
  <rect x="303.7" y="822.4" width="40.84" height="40.84" fill="#231f20"/>
  <rect x="303.7" y="779.02" width="40.84" height="40.84" fill="#231f20"/>
  <rect x="347.04" y="908.8" width="40.84" height="40.84" fill="#231f20"/>
  <rect x="347.04" y="865.42" width="40.84" height="40.84" fill="#231f20"/>
  <rect x="303.7" y="908.8" width="40.84" height="40.84" fill="#231f20"/>
  <rect x="303.7" y="865.42" width="40.84" height="40.84" fill="#231f20"/>
  <rect x="260.95" y="822.4" width="40.84" height="40.84" fill="#231f20"/>
  <rect x="260.95" y="865.42" width="40.84" height="40.84" fill="#231f20"/>
  <rect x="217.6" y="822.4" width="40.84" height="40.84" fill="#231f20"/>
  <rect x="174.26" y="822.4" width="40.84" height="40.84" fill="#231f20"/>
  <rect x="217.6" y="865.42" width="40.84" height="40.84" fill="#231f20"/>
  <rect x="174.26" y="865.42" width="40.84" height="40.84" fill="#231f20"/>
  <rect x="217.6" y="908.88" width="40.84" height="40.84" fill="#231f20"/>
  <rect x="174.26" y="908.88" width="40.84" height="40.84" fill="#231f20"/>
  <rect x="44.82" y="822.18" width="40.84" height="40.84" fill="#231f20"/>
  <rect x="1.48" y="822.18" width="40.84" height="40.84" fill="#231f20"/>
  <rect x="131.22" y="822.18" width="40.84" height="40.84" fill="#231f20"/>
  <rect x="87.88" y="822.18" width="40.84" height="40.84" fill="#231f20"/>
  <rect x="44.82" y="778.96" width="40.84" height="40.84" fill="#231f20"/>
  <rect x="1.48" y="778.96" width="40.84" height="40.84" fill="#231f20"/>
  <rect x="87.88" y="778.96" width="40.84" height="40.84" fill="#231f20"/>
  <rect x="44.82" y="735.91" width="40.84" height="40.84" fill="#231f20"/>
  <rect x="1.48" y="735.91" width="40.84" height="40.84" fill="#231f20"/>
  <rect x="87.88" y="735.91" width="40.84" height="40.84" fill="#231f20"/>
  <rect x="44.82" y="692.7" width="40.84" height="40.84" fill="#231f20"/>
  <rect x="1.48" y="692.7" width="40.84" height="40.84" fill="#231f20"/>
  <rect x="87.88" y="692.7" width="40.84" height="40.84" fill="#231f20"/>
  <rect x="88.02" y="649.51" width="40.84" height="40.84" fill="#231f20"/>
  <rect x="44.68" y="649.51" width="40.84" height="40.84" fill="#231f20"/>
  <rect x="1.62" y="649.51" width="40.84" height="40.84" fill="#231f20"/>
  <rect x="131.08" y="649.51" width="40.84" height="40.84" fill="#231f20"/>
  <rect x="88.02" y="606.3" width="40.84" height="40.84" fill="#231f20"/>
  <rect x="44.68" y="606.3" width="40.84" height="40.84" fill="#231f20"/>
  <rect x="131.08" y="606.3" width="40.84" height="40.84" fill="#231f20"/>
  <rect x="88.02" y="563.09" width="40.84" height="40.84" fill="#231f20"/>
  <rect x="44.82" y="563.09" width="40.84" height="40.84" fill="#231f20"/>
  <rect x="1.48" y="563.09" width="40.84" height="40.84" fill="#231f20"/>
  <rect x="131.08" y="563.09" width="40.84" height="40.84" fill="#231f20"/>
  <rect x="174.26" y="649.51" width="40.84" height="40.84" fill="#231f20"/>
  <rect x="217.32" y="649.51" width="40.84" height="40.84" fill="#231f20"/>
  <rect x="174.26" y="606.3" width="40.84" height="40.84" fill="#231f20"/>
  <rect x="217.32" y="606.3" width="40.84" height="40.84" fill="#231f20"/>
  <rect x="174.26" y="563.09" width="40.84" height="40.84" fill="#231f20"/>
  <rect x="217.32" y="563.09" width="40.84" height="40.84" fill="#231f20"/>
  <rect x="131.08" y="779.13" width="40.84" height="40.84" fill="#231f20"/>
  <rect x="131.08" y="735.91" width="40.84" height="40.84" fill="#231f20"/>
  <rect x="131.08" y="692.7" width="40.84" height="40.84" fill="#231f20"/>
  <rect x="174.26" y="779.13" width="40.84" height="40.84" fill="#231f20"/>
  <rect x="217.32" y="779.13" width="40.84" height="40.84" fill="#231f20"/>
  <rect x="174.26" y="735.91" width="40.84" height="40.84" fill="#231f20"/>
  <rect x="217.32" y="735.91" width="40.84" height="40.84" fill="#231f20"/>
  <rect x="174.26" y="692.7" width="40.84" height="40.84" fill="#231f20"/>
  <rect x="217.32" y="692.7" width="40.84" height="40.84" fill="#231f20"/>
  <rect x="260.82" y="649.51" width="40.84" height="40.84" fill="#231f20"/>
  <rect x="303.88" y="649.51" width="40.84" height="40.84" fill="#231f20"/>
  <rect x="260.82" y="606.3" width="40.84" height="40.84" fill="#231f20"/>
  <rect x="303.88" y="606.3" width="40.84" height="40.84" fill="#231f20"/>
  <rect x="347.04" y="649.51" width="40.84" height="40.84" fill="#231f20"/>
  <rect x="347.04" y="606.3" width="40.84" height="40.84" fill="#231f20"/>
  <rect x="390.37" y="606.3" width="40.84" height="40.84" fill="#231f20"/>
  <rect x="390.37" y="563.09" width="40.84" height="40.84" fill="#231f20"/>
  <rect x="347.04" y="563.09" width="40.84" height="40.84" fill="#231f20"/>
  <rect x="433.53" y="606.3" width="40.84" height="40.84" fill="#231f20"/>
  <rect x="433.53" y="563.09" width="40.84" height="40.84" fill="#231f20"/>
  <rect x="476.69" y="606.3" width="40.84" height="40.84" fill="#231f20"/>
  <rect x="476.69" y="563.09" width="40.84" height="40.84" fill="#231f20"/>
  <rect x="390.37" y="519.88" width="40.84" height="40.84" fill="#231f20"/>
  <rect x="390.37" y="476.67" width="40.84" height="40.84" fill="#231f20"/>
  <rect x="433.53" y="519.88" width="40.84" height="40.84" fill="#231f20"/>
  <rect x="433.53" y="476.67" width="40.84" height="40.84" fill="#231f20"/>
  <rect x="476.69" y="519.88" width="40.84" height="40.84" fill="#231f20"/>
  <rect x="476.69" y="735.94" width="40.84" height="40.84" fill="#231f20"/>
  <rect x="476.69" y="692.73" width="40.84" height="40.84" fill="#231f20"/>
  <rect x="476.69" y="649.51" width="40.84" height="40.84" fill="#231f20"/>
  <rect x="433.72" y="649.51" width="40.84" height="40.84" fill="#231f20"/>
  <rect x="476.69" y="476.67" width="40.84" height="40.84" fill="#231f20"/>
  <rect x="390.37" y="433.51" width="40.84" height="40.84" fill="#231f20"/>
  <rect x="390.37" y="390.3" width="40.84" height="40.84" fill="#231f20"/>
  <rect x="433.53" y="433.51" width="40.84" height="40.84" fill="#231f20"/>
  <rect x="433.53" y="390.3" width="40.84" height="40.84" fill="#231f20"/>
  <rect x="476.69" y="433.51" width="40.84" height="40.84" fill="#231f20"/>
  <rect x="476.69" y="390.3" width="40.84" height="40.84" fill="#231f20"/>
  <rect x="433.53" y="347.1" width="40.84" height="40.84" fill="#231f20"/>
  <rect x="433.53" y="303.88" width="40.84" height="40.84" fill="#231f20"/>
  <rect x="476.69" y="347.1" width="40.84" height="40.84" fill="#231f20"/>
  <rect x="476.69" y="303.88" width="40.84" height="40.84" fill="#231f20"/>
  <rect x="433.53" y="260.73" width="40.84" height="40.84" fill="#231f20"/>
  <rect x="433.53" y="217.52" width="40.84" height="40.84" fill="#231f20"/>
  <rect x="476.69" y="260.73" width="40.84" height="40.84" fill="#231f20"/>
  <rect x="476.69" y="217.52" width="40.84" height="40.84" fill="#231f20"/>
  <rect x="433.53" y="174.41" width="40.84" height="40.84" fill="#231f20"/>
  <rect x="476.69" y="174.41" width="40.84" height="40.84" fill="#231f20"/>
  <rect x="433.53" y="131.2" width="40.84" height="40.84" fill="#231f20"/>
  <rect x="433.53" y="87.99" width="40.84" height="40.84" fill="#231f20"/>
  <rect x="476.69" y="131.2" width="40.84" height="40.84" fill="#231f20"/>
  <rect x="476.69" y="87.99" width="40.84" height="40.84" fill="#231f20"/>
  <rect x="433.53" y="44.84" width="40.84" height="40.84" fill="#231f20"/>
  <rect x="433.53" y="1.62" width="40.84" height="40.84" fill="#231f20"/>
  <rect x="476.69" y="44.84" width="40.84" height="40.84" fill="#231f20"/>
  <rect x="476.69" y="1.62" width="40.84" height="40.84" fill="#231f20"/>
  <rect x="347.17" y="131.2" width="40.84" height="40.84" fill="#231f20"/>
  <rect x="347.17" y="87.99" width="40.84" height="40.84" fill="#231f20"/>
  <rect x="303.68" y="131.2" width="40.84" height="40.84" fill="#231f20"/>
  <rect x="303.68" y="87.99" width="40.84" height="40.84" fill="#231f20"/>
  <rect x="390.33" y="131.2" width="40.84" height="40.84" fill="#231f20"/>
  <rect x="390.33" y="87.99" width="40.84" height="40.84" fill="#231f20"/>
  <rect x="347.17" y="44.84" width="40.84" height="40.84" fill="#231f20"/>
  <rect x="303.68" y="44.84" width="40.84" height="40.84" fill="#231f20"/>
  <rect x="347.17" y="1.62" width="40.84" height="40.84" fill="#231f20"/>
  <rect x="390.33" y="44.84" width="40.84" height="40.84" fill="#231f20"/>
  <rect x="390.33" y="1.62" width="40.84" height="40.84" fill="#231f20"/>
  <rect x="260.82" y="735.91" width="40.84" height="40.84" fill="#231f20"/>
  <rect x="260.82" y="779.16" width="40.84" height="40.84" fill="#231f20"/>
  <rect x="303.88" y="735.91" width="40.84" height="40.84" fill="#231f20"/>
  <rect x="347.42" y="735.91" width="40.84" height="40.84" fill="#231f20"/>
  <rect x="260.82" y="692.7" width="40.84" height="40.84" fill="#231f20"/>
  <rect x="303.88" y="692.7" width="40.84" height="40.84" fill="#231f20"/>
  <rect x="88.02" y="519.88" width="40.84" height="40.84" fill="#231f20"/>
  <rect x="131.08" y="519.88" width="40.84" height="40.84" fill="#231f20"/>
  <rect x="88.02" y="476.67" width="40.84" height="40.84" fill="#231f20"/>
  <rect x="131.08" y="476.67" width="40.84" height="40.84" fill="#231f20"/>
  <rect x="88.02" y="433.45" width="40.84" height="40.84" fill="#231f20"/>
  <rect x="131.08" y="433.45" width="40.84" height="40.84" fill="#231f20"/>
  <rect x="88.02" y="390.11" width="40.84" height="40.84" fill="#231f20"/>
  <rect x="131.08" y="390.11" width="40.84" height="40.84" fill="#231f20"/>
  <rect x="88.02" y="346.9" width="40.84" height="40.84" fill="#231f20"/>
  <rect x="131.08" y="346.9" width="40.84" height="40.84" fill="#231f20"/>
  <rect x="88.02" y="303.68" width="40.84" height="40.84" fill="#231f20"/>
  <rect x="131.08" y="303.68" width="40.84" height="40.84" fill="#231f20"/>
  <rect x="88.02" y="260.47" width="40.84" height="40.84" fill="#231f20"/>
  <rect x="131.08" y="260.47" width="40.84" height="40.84" fill="#231f20"/>
  <rect x="88.02" y="217.26" width="40.84" height="40.84" fill="#231f20"/>
  <rect x="44.82" y="390.11" width="40.84" height="40.84" fill="#231f20"/>
  <rect x="44.82" y="346.9" width="40.84" height="40.84" fill="#231f20"/>
  <rect x="44.82" y="303.68" width="40.84" height="40.84" fill="#231f20"/>
  <rect x="44.82" y="260.47" width="40.84" height="40.84" fill="#231f20"/>
  <rect x="44.82" y="217.26" width="40.84" height="40.84" fill="#231f20"/>
  <rect x="131.08" y="217.26" width="40.84" height="40.84" fill="#231f20"/>
  <rect x="173.86" y="303.68" width="40.84" height="40.84" fill="#231f20"/>
  <rect x="173.86" y="260.47" width="40.84" height="40.84" fill="#231f20"/>
  <rect x="173.86" y="217.26" width="40.84" height="40.84" fill="#231f20"/>
  <rect x="173.86" y="174.45" width="40.84" height="40.84" fill="#231f20"/>
  <rect x="44.89" y="174.19" width="40.84" height="40.84" fill="#231f20"/>
  <rect x="87.95" y="174.19" width="40.84" height="40.84" fill="#231f20"/>
  <rect x="44.89" y="130.98" width="40.84" height="40.84" fill="#231f20"/>
  <rect x="87.95" y="130.98" width="40.84" height="40.84" fill="#231f20"/>
  <rect x="44.89" y="87.76" width="40.84" height="40.84" fill="#231f20"/>
  <rect x="1.69" y="174.19" width="40.84" height="40.84" fill="#231f20"/>
  <rect x="1.69" y="130.98" width="40.84" height="40.84" fill="#231f20"/>
  <rect x="1.69" y="87.76" width="40.84" height="40.84" fill="#231f20"/>
  <rect x="87.95" y="87.76" width="40.84" height="40.84" fill="#231f20"/>
  <rect x="44.89" y="44.71" width="40.84" height="40.84" fill="#231f20"/>
  <rect x="87.95" y="44.71" width="40.84" height="40.84" fill="#231f20"/>
  <rect x="44.89" y="1.5" width="40.84" height="40.84" fill="#231f20"/>
  <rect x="87.95" y="1.5" width="40.84" height="40.84" fill="#231f20"/>
  <rect x="1.62" y="519.88" width="40.84" height="40.84" fill="#231f20"/>
  <rect x="44.68" y="519.88" width="40.84" height="40.84" fill="#231f20"/>
  <rect x="44.82" y="865.64" width="40.84" height="40.84" fill="#231f20"/>
  <rect x="1.48" y="865.64" width="40.84" height="40.84" fill="#231f20"/>
  <rect x="347.04" y="951.9" width="40.84" height="40.84" fill="#231f20"/>
  <rect x="303.7" y="951.9" width="40.84" height="40.84" fill="#231f20"/>
  <rect x="88.16" y="951.9" width="40.84" height="40.84" fill="#231f20"/>
  <rect x="131.22" y="951.9" width="40.84" height="40.84" fill="#231f20"/>
  <rect x="44.82" y="951.9" width="40.84" height="40.84" fill="#231f20"/>
  <rect x="1.48" y="951.9" width="40.84" height="40.84" fill="#231f20"/>
  <rect x="347.04" y="1038.3" width="40.84" height="40.84" fill="#231f20"/>
  <rect x="347.04" y="994.92" width="40.84" height="40.84" fill="#231f20"/>
  <rect x="303.7" y="1038.3" width="40.84" height="40.84" fill="#231f20"/>
  <rect x="303.7" y="994.92" width="40.84" height="40.84" fill="#231f20"/>
  <rect x="749.5" y="965.8" width="13.39" height="13.39" fill="#231f20"/>
  <rect x="749.5" y="1009.9" width="13.39" height="13.39" fill="#231f20"/>
  <rect x="663.59" y="923.32" width="13.39" height="13.39" fill="#231f20"/>
  <rect x="663.59" y="967.43" width="13.39" height="13.39" fill="#231f20"/>
  <rect x="577.02" y="923.32" width="13.39" height="13.39" fill="#231f20"/>
  <rect x="577.02" y="967.43" width="13.39" height="13.39" fill="#231f20"/>
  <rect x="533.67" y="923.32" width="13.39" height="13.39" fill="#231f20"/>
  <rect x="533.67" y="967.43" width="13.39" height="13.39" fill="#231f20"/>
  <rect x="533.67" y="1008.38" width="13.39" height="13.39" fill="#231f20"/>
  <rect x="533.67" y="1052.48" width="13.39" height="13.39" fill="#231f20"/>
  <rect x="577.02" y="836.61" width="13.39" height="13.39" fill="#231f20"/>
  <rect x="577.02" y="880.72" width="13.39" height="13.39" fill="#231f20"/>
  <rect x="533.67" y="836.61" width="13.39" height="13.39" fill="#231f20"/>
  <rect x="533.67" y="880.72" width="13.39" height="13.39" fill="#231f20"/>
  <rect x="663.72" y="491.01" width="13.39" height="13.39" fill="#231f20"/>
  <rect x="663.72" y="535.12" width="13.39" height="13.39" fill="#231f20"/>
  <rect x="620.37" y="491.01" width="13.39" height="13.39" fill="#231f20"/>
  <rect x="620.37" y="535.12" width="13.39" height="13.39" fill="#231f20"/>
  <rect x="1008.95" y="750.4" width="13.39" height="13.39" fill="#231f20"/>
  <rect x="1008.95" y="794.51" width="13.39" height="13.39" fill="#231f20"/>
  <rect x="965.6" y="750.4" width="13.39" height="13.39" fill="#231f20"/>
  <rect x="965.6" y="794.51" width="13.39" height="13.39" fill="#231f20"/>
  <rect x="878.75" y="966.17" width="13.39" height="13.39" fill="#231f20"/>
  <rect x="878.75" y="1010.28" width="13.39" height="13.39" fill="#231f20"/>
  <rect x="835.41" y="966.17" width="13.39" height="13.39" fill="#231f20"/>
  <rect x="835.41" y="1010.28" width="13.39" height="13.39" fill="#231f20"/>
  <rect x="836.15" y="446.78" width="13.39" height="13.39" fill="#231f20"/>
  <rect x="836.15" y="490.88" width="13.39" height="13.39" fill="#231f20"/>
  <rect x="792.8" y="446.78" width="13.39" height="13.39" fill="#231f20"/>
  <rect x="792.8" y="490.88" width="13.39" height="13.39" fill="#231f20"/>
  <rect x="879.35" y="358.99" width="13.39" height="13.39" fill="#231f20"/>
  <rect x="879.35" y="403.09" width="13.39" height="13.39" fill="#231f20"/>
  <rect x="836" y="358.99" width="13.39" height="13.39" fill="#231f20"/>
  <rect x="836" y="403.09" width="13.39" height="13.39" fill="#231f20"/>
  <rect x="620.15" y="576" width="13.39" height="13.39" fill="#231f20"/>
  <rect x="576.8" y="576" width="13.39" height="13.39" fill="#231f20"/>
  <rect x="533.67" y="750.37" width="13.39" height="13.39" fill="#231f20"/>
  <rect x="533.67" y="794.47" width="13.39" height="13.39" fill="#231f20"/>
  <rect x="533.67" y="663.66" width="13.39" height="13.39" fill="#231f20"/>
  <rect x="533.67" y="707.76" width="13.39" height="13.39" fill="#231f20"/>
  <rect x="533.67" y="490.88" width="13.39" height="13.39" fill="#231f20"/>
  <rect x="533.67" y="534.99" width="13.39" height="13.39" fill="#231f20"/>
  <rect x="533.67" y="575.94" width="13.39" height="13.39" fill="#231f20"/>
  <rect x="533.67" y="620.04" width="13.39" height="13.39" fill="#231f20"/>
  <rect x="533.67" y="404.17" width="13.39" height="13.39" fill="#231f20"/>
  <rect x="533.67" y="448.28" width="13.39" height="13.39" fill="#231f20"/>
  <rect x="533.67" y="317.93" width="13.39" height="13.39" fill="#231f20"/>
  <rect x="533.67" y="362.03" width="13.39" height="13.39" fill="#231f20"/>
  <rect x="533.67" y="231.22" width="13.39" height="13.39" fill="#231f20"/>
  <rect x="533.67" y="275.32" width="13.39" height="13.39" fill="#231f20"/>
  <rect x="533.67" y="187.8" width="13.39" height="13.39" fill="#231f20"/>
  <rect x="533.67" y="101.55" width="13.39" height="13.39" fill="#231f20"/>
  <rect x="533.67" y="145.66" width="13.39" height="13.39" fill="#231f20"/>
  <rect x="533.67" y="14.84" width="13.39" height="13.39" fill="#231f20"/>
  <rect x="533.67" y="58.95" width="13.39" height="13.39" fill="#231f20"/>
  <rect x="404.11" y="662.78" width="13.39" height="13.39" fill="#231f20"/>
  <rect x="404.11" y="706.88" width="13.39" height="13.39" fill="#231f20"/>
  <rect x="360.76" y="706.88" width="13.39" height="13.39" fill="#231f20"/>
  <rect x="404.11" y="749.64" width="13.39" height="13.39" fill="#231f20"/>
  <rect x="187.58" y="490.39" width="13.39" height="13.39" fill="#231f20"/>
  <rect x="231.33" y="491.07" width="13.39" height="13.39" fill="#231f20"/>
  <rect x="187.58" y="446.67" width="13.39" height="13.39" fill="#231f20"/>
  <rect x="231.33" y="447.35" width="13.39" height="13.39" fill="#231f20"/>
  <rect x="231.33" y="533.82" width="13.39" height="13.39" fill="#231f20"/>
  <rect x="274.2" y="491.07" width="13.39" height="13.39" fill="#231f20"/>
  <rect x="274.2" y="447.35" width="13.39" height="13.39" fill="#231f20"/>
  <rect x="317.4" y="447.35" width="13.39" height="13.39" fill="#231f20"/>
  <rect x="274.2" y="533.82" width="13.39" height="13.39" fill="#231f20"/>
  <rect x="187.58" y="533.82" width="13.39" height="13.39" fill="#231f20"/>
  <rect x="187.58" y="360.72" width="13.39" height="13.39" fill="#231f20"/>
  <rect x="187.58" y="404.15" width="13.39" height="13.39" fill="#231f20"/>
  <rect x="231.33" y="404.15" width="13.39" height="13.39" fill="#231f20"/>
  <rect x="275.08" y="404.15" width="13.39" height="13.39" fill="#231f20"/>
  <rect x="317.4" y="490.39" width="13.39" height="13.39" fill="#231f20"/>
  <rect x="361.15" y="491.07" width="13.39" height="13.39" fill="#231f20"/>
  <rect x="317.4" y="188.17" width="13.39" height="13.39" fill="#231f20"/>
  <rect x="275.08" y="188.17" width="13.39" height="13.39" fill="#231f20"/>
  <rect x="231.33" y="188.17" width="13.39" height="13.39" fill="#231f20"/>
  <rect x="274.32" y="144.7" width="13.39" height="13.39" fill="#231f20"/>
  <rect x="274.32" y="101.71" width="13.39" height="13.39" fill="#231f20"/>
  <rect x="317.4" y="13.91" width="13.39" height="13.39" fill="#231f20"/>
  <rect x="232" y="144.7" width="13.39" height="13.39" fill="#231f20"/>
  <rect x="188.25" y="144.7" width="13.39" height="13.39" fill="#231f20"/>
  <rect x="361.15" y="188.85" width="13.39" height="13.39" fill="#231f20"/>
  <rect x="404.9" y="188.85" width="13.39" height="13.39" fill="#231f20"/>
  <rect x="361.15" y="533.82" width="13.39" height="13.39" fill="#231f20"/>
  <rect x="361.15" y="404.26" width="13.39" height="13.39" fill="#231f20"/>
  <rect x="317.95" y="404.26" width="13.39" height="13.39" fill="#231f20"/>
  <rect x="361.15" y="447.01" width="13.39" height="13.39" fill="#231f20"/>
  <rect x="404.9" y="317.86" width="13.39" height="13.39" fill="#231f20"/>
  <rect x="404.9" y="360.61" width="13.39" height="13.39" fill="#231f20"/>
  <rect x="404.9" y="231.46" width="13.39" height="13.39" fill="#231f20"/>
  <rect x="404.9" y="274.21" width="13.39" height="13.39" fill="#231f20"/>
  <rect x="231.33" y="317.86" width="13.39" height="13.39" fill="#231f20"/>
  <rect x="231.33" y="360.61" width="13.39" height="13.39" fill="#231f20"/>
  <rect x="231.33" y="231.46" width="13.39" height="13.39" fill="#231f20"/>
  <rect x="144.29" y="144.79" width="13.39" height="13.39" fill="#231f20"/>
  <rect x="144.96" y="101.32" width="13.39" height="13.39" fill="#231f20"/>
  <rect x="188.25" y="101.32" width="13.39" height="13.39" fill="#231f20"/>
  <rect x="144.29" y="57.38" width="13.39" height="13.39" fill="#231f20"/>
  <rect x="144.96" y="13.91" width="13.39" height="13.39" fill="#231f20"/>
  <rect x="231.18" y="13.91" width="13.39" height="13.39" fill="#231f20"/>
  <rect x="188.14" y="13.91" width="13.39" height="13.39" fill="#231f20"/>
  <rect x="14.57" y="57.38" width="13.39" height="13.39" fill="#231f20"/>
  <rect x="14.57" y="230.98" width="13.39" height="13.39" fill="#231f20"/>
  <rect x="15.24" y="13.91" width="13.39" height="13.39" fill="#231f20"/>
  <rect x="144.29" y="188.08" width="13.39" height="13.39" fill="#231f20"/>
  <rect x="231.33" y="274.21" width="13.39" height="13.39" fill="#231f20"/>
  <rect x="361.7" y="360.61" width="13.39" height="13.39" fill="#231f20"/>
  <rect x="14.91" y="361.06" width="13.39" height="13.39" fill="#231f20"/>
  <rect x="14.91" y="403.81" width="13.39" height="13.39" fill="#231f20"/>
  <rect x="14.91" y="317.41" width="13.39" height="13.39" fill="#231f20"/>
  <rect x="14.91" y="275.05" width="13.39" height="13.39" fill="#231f20"/>
  <rect x="317.4" y="533.82" width="13.39" height="13.39" fill="#231f20"/>
  <rect x="317.95" y="576.81" width="13.39" height="13.39" fill="#231f20"/>
  <rect x="274.2" y="576.81" width="13.39" height="13.39" fill="#231f20"/>
  <rect x="14.91" y="448.15" width="13.39" height="13.39" fill="#231f20"/>
  <rect x="58.4" y="448.83" width="13.39" height="13.39" fill="#231f20"/>
  <rect x="58.4" y="491.58" width="13.39" height="13.39" fill="#231f20"/>
  <rect x="14.91" y="491.58" width="13.39" height="13.39" fill="#231f20"/>
  <rect x="447.45" y="706.88" width="13.39" height="13.39" fill="#231f20"/>
  <rect x="447.45" y="749.64" width="13.39" height="13.39" fill="#231f20"/>
  <rect x="100.35" y="880.49" width="13.39" height="13.39" fill="#231f20"/>
  <rect x="100.35" y="923.24" width="13.39" height="13.39" fill="#231f20"/>
  <rect x="143.7" y="880.49" width="13.39" height="13.39" fill="#231f20"/>
  <rect x="143.7" y="923.24" width="13.39" height="13.39" fill="#231f20"/>
  <rect x="100.35" y="1010.23" width="13.39" height="13.39" fill="#231f20"/>
  <rect x="100.35" y="1052.98" width="13.39" height="13.39" fill="#231f20"/>
  <rect x="143.7" y="1010.23" width="13.39" height="13.39" fill="#231f20"/>
  <rect x="188.95" y="965.63" width="13.39" height="13.39" fill="#231f20"/>
  <rect x="232.29" y="965.63" width="13.39" height="13.39" fill="#231f20"/>
  <rect x="188.95" y="1010.23" width="13.39" height="13.39" fill="#231f20"/>
  <rect x="232.29" y="1010.23" width="13.39" height="13.39" fill="#231f20"/>
  <rect x="274.38" y="965.63" width="13.39" height="13.39" fill="#231f20"/>
  <rect x="274.38" y="923.24" width="13.39" height="13.39" fill="#231f20"/>
  <rect x="274.38" y="1010.23" width="13.39" height="13.39" fill="#231f20"/>
  <rect x="143.7" y="1052.98" width="13.39" height="13.39" fill="#231f20"/>
  <rect x="13.95" y="923.24" width="13.39" height="13.39" fill="#231f20"/>
  <rect x="57.3" y="923.24" width="13.39" height="13.39" fill="#231f20"/>
  <rect x="706.51" y="1009.9" width="13.39" height="13.39" fill="#231f20"/>
  <rect x="663.08" y="1009.9" width="13.39" height="13.39" fill="#231f20"/>
  <rect x="620.09" y="1009.9" width="13.39" height="13.39" fill="#231f20"/>
  <rect x="707.58" y="1052.03" width="13.39" height="13.39" fill="#231f20"/>
  <rect x="664.59" y="1052.03" width="13.39" height="13.39" fill="#231f20"/>
</svg>