<?xml version="1.0" encoding="UTF-8"?>
<svg id="_13" data-name="13" xmlns="http://www.w3.org/2000/svg" viewBox="0 0 1080 1080">
  <rect x="606.21" y="519.99" width="40.84" height="40.84" fill="#231f20"/>
  <rect x="606.21" y="563.15" width="40.84" height="40.84" fill="#231f20"/>
  <rect x="606.21" y="606.32" width="40.84" height="40.84" fill="#231f20"/>
  <rect x="519.95" y="692.65" width="40.84" height="40.84" fill="#231f20"/>
  <rect x="519.95" y="649.41" width="40.84" height="40.84" fill="#231f20"/>
  <rect x="519.95" y="735.81" width="40.84" height="40.84" fill="#231f20"/>
  <rect x="476.75" y="779.25" width="40.84" height="40.84" fill="#231f20"/>
  <rect x="476.75" y="822.28" width="40.84" height="40.84" fill="#231f20"/>
  <rect x="476.75" y="865.67" width="40.84" height="40.84" fill="#231f20"/>
  <rect x="476.75" y="908.7" width="40.84" height="40.84" fill="#231f20"/>
  <rect x="476.75" y="951.74" width="40.84" height="40.84" fill="#231f20"/>
  <rect x="519.95" y="1038.2" width="40.84" height="40.84" fill="#231f20"/>
  <rect x="736.23" y="1038.2" width="40.84" height="40.84" fill="#231f20"/>
  <rect x="692.84" y="1038.2" width="40.84" height="40.84" fill="#231f20"/>
  <rect x="736.23" y="995.23" width="40.84" height="40.84" fill="#231f20"/>
  <rect x="692.84" y="995.23" width="40.84" height="40.84" fill="#231f20"/>
  <rect x="649.45" y="995.23" width="40.84" height="40.84" fill="#231f20"/>
  <rect x="736.23" y="952.26" width="40.84" height="40.84" fill="#231f20"/>
  <rect x="692.84" y="952.26" width="40.84" height="40.84" fill="#231f20"/>
  <rect x="649.45" y="952.26" width="40.84" height="40.84" fill="#231f20"/>
  <rect x="735.97" y="908.77" width="40.84" height="40.84" fill="#231f20"/>
  <rect x="779.2" y="908.77" width="40.84" height="40.84" fill="#231f20"/>
  <rect x="692.73" y="908.77" width="40.84" height="40.84" fill="#231f20"/>
  <rect x="649.5" y="908.77" width="40.84" height="40.84" fill="#231f20"/>
  <rect x="649.45" y="865.67" width="40.84" height="40.84" fill="#231f20"/>
  <rect x="433.53" y="865.67" width="40.84" height="40.84" fill="#231f20"/>
  <rect x="433.53" y="908.7" width="40.84" height="40.84" fill="#231f20"/>
  <rect x="606.21" y="476.82" width="40.84" height="40.84" fill="#231f20"/>
  <rect x="563.16" y="519.99" width="40.84" height="40.84" fill="#231f20"/>
  <rect x="563.16" y="476.82" width="40.84" height="40.84" fill="#231f20"/>
  <rect x="606.21" y="433.66" width="40.84" height="40.84" fill="#231f20"/>
  <rect x="606.21" y="390.49" width="40.84" height="40.84" fill="#231f20"/>
  <rect x="563.16" y="433.66" width="40.84" height="40.84" fill="#231f20"/>
  <rect x="563.16" y="390.49" width="40.84" height="40.84" fill="#231f20"/>
  <rect x="520.12" y="433.66" width="40.84" height="40.84" fill="#231f20"/>
  <rect x="520.12" y="390.49" width="40.84" height="40.84" fill="#231f20"/>
  <rect x="606.21" y="347.33" width="40.84" height="40.84" fill="#231f20"/>
  <rect x="606.21" y="304.16" width="40.84" height="40.84" fill="#231f20"/>
  <rect x="563.16" y="347.33" width="40.84" height="40.84" fill="#231f20"/>
  <rect x="563.16" y="304.16" width="40.84" height="40.84" fill="#231f20"/>
  <rect x="520.12" y="347.33" width="40.84" height="40.84" fill="#231f20"/>
  <rect x="174.12" y="692.78" width="40.84" height="40.84" fill="#231f20"/>
  <rect x="174.12" y="649.62" width="40.84" height="40.84" fill="#231f20"/>
  <rect x="131.07" y="692.78" width="40.84" height="40.84" fill="#231f20"/>
  <rect x="131.07" y="649.62" width="40.84" height="40.84" fill="#231f20"/>
  <rect x="88.02" y="692.78" width="40.84" height="40.84" fill="#231f20"/>
  <rect x="88.02" y="649.62" width="40.84" height="40.84" fill="#231f20"/>
  <rect x="174.12" y="606.45" width="40.84" height="40.84" fill="#231f20"/>
  <rect x="131.07" y="606.45" width="40.84" height="40.84" fill="#231f20"/>
  <rect x="131.07" y="563.17" width="40.84" height="40.84" fill="#231f20"/>
  <rect x="174.12" y="520.01" width="40.84" height="40.84" fill="#231f20"/>
  <rect x="131.07" y="520.01" width="40.84" height="40.84" fill="#231f20"/>
  <rect x="131.07" y="476.88" width="40.84" height="40.84" fill="#231f20"/>
  <rect x="131.07" y="433.72" width="40.84" height="40.84" fill="#231f20"/>
  <rect x="131.07" y="390.55" width="40.84" height="40.84" fill="#231f20"/>
  <rect x="131.07" y="347.27" width="40.84" height="40.84" fill="#231f20"/>
  <rect x="174.12" y="433.72" width="40.84" height="40.84" fill="#231f20"/>
  <rect x="174.12" y="390.55" width="40.84" height="40.84" fill="#231f20"/>
  <rect x="174.12" y="347.27" width="40.84" height="40.84" fill="#231f20"/>
  <rect x="1.63" y="347.39" width="40.84" height="40.84" fill="#231f20"/>
  <rect x="1.63" y="390.47" width="40.84" height="40.84" fill="#231f20"/>
  <rect x="1.63" y="433.72" width="40.84" height="40.84" fill="#231f20"/>
  <rect x="44.67" y="390.47" width="40.84" height="40.84" fill="#231f20"/>
  <rect x="44.67" y="433.72" width="40.84" height="40.84" fill="#231f20"/>
  <rect x="1.63" y="476.88" width="40.84" height="40.84" fill="#231f20"/>
  <rect x="44.67" y="476.88" width="40.84" height="40.84" fill="#231f20"/>
  <rect x="87.72" y="476.88" width="40.84" height="40.84" fill="#231f20"/>
  <rect x="87.72" y="433.72" width="40.84" height="40.84" fill="#231f20"/>
  <rect x="1.63" y="304.22" width="40.84" height="40.84" fill="#231f20"/>
  <rect x="1.63" y="260.94" width="40.84" height="40.84" fill="#231f20"/>
  <rect x="44.67" y="347.39" width="40.84" height="40.84" fill="#231f20"/>
  <rect x="44.67" y="304.22" width="40.84" height="40.84" fill="#231f20"/>
  <rect x="44.67" y="260.94" width="40.84" height="40.84" fill="#231f20"/>
  <rect x="87.72" y="260.94" width="40.84" height="40.84" fill="#231f20"/>
  <rect x="88.03" y="174.47" width="40.84" height="40.84" fill="#231f20"/>
  <rect x="131.07" y="174.47" width="40.84" height="40.84" fill="#231f20"/>
  <rect x="131.07" y="304.11" width="40.84" height="40.84" fill="#231f20"/>
  <rect x="131.07" y="260.87" width="40.84" height="40.84" fill="#231f20"/>
  <rect x="174.12" y="260.87" width="40.84" height="40.84" fill="#231f20"/>
  <rect x="1.43" y="606.45" width="40.84" height="40.84" fill="#231f20"/>
  <rect x="1.43" y="563.17" width="40.84" height="40.84" fill="#231f20"/>
  <rect x="1.43" y="520.01" width="40.84" height="40.84" fill="#231f20"/>
  <rect x="88.02" y="606.45" width="40.84" height="40.84" fill="#231f20"/>
  <rect x="520.12" y="304.16" width="40.84" height="40.84" fill="#231f20"/>
  <rect x="606.21" y="261" width="40.84" height="40.84" fill="#231f20"/>
  <rect x="606.21" y="217.83" width="40.84" height="40.84" fill="#231f20"/>
  <rect x="563.16" y="261" width="40.84" height="40.84" fill="#231f20"/>
  <rect x="563.16" y="217.83" width="40.84" height="40.84" fill="#231f20"/>
  <rect x="606.21" y="174.37" width="40.84" height="40.84" fill="#231f20"/>
  <rect x="606.21" y="131.21" width="40.84" height="40.84" fill="#231f20"/>
  <rect x="563.16" y="131.21" width="40.84" height="40.84" fill="#231f20"/>
  <rect x="519.95" y="131.21" width="40.84" height="40.84" fill="#231f20"/>
  <rect x="520.12" y="261" width="40.84" height="40.84" fill="#231f20"/>
  <rect x="520.12" y="217.83" width="40.84" height="40.84" fill="#231f20"/>
  <rect x="476.8" y="347.07" width="40.84" height="40.84" fill="#231f20"/>
  <rect x="476.8" y="303.9" width="40.84" height="40.84" fill="#231f20"/>
  <rect x="476.8" y="260.74" width="40.84" height="40.84" fill="#231f20"/>
  <rect x="433.45" y="1.61" width="40.84" height="40.84" fill="#231f20"/>
  <rect x="390.41" y="88.05" width="40.84" height="40.84" fill="#231f20"/>
  <rect x="304.01" y="1.75" width="40.84" height="40.84" fill="#231f20"/>
  <rect x="433.45" y="44.94" width="40.84" height="40.84" fill="#231f20"/>
  <rect x="390.41" y="44.94" width="40.84" height="40.84" fill="#231f20"/>
  <rect x="347.36" y="44.94" width="40.84" height="40.84" fill="#231f20"/>
  <rect x="260.69" y="1.48" width="40.84" height="40.84" fill="#231f20"/>
  <rect x="304.05" y="44.67" width="40.84" height="40.84" fill="#231f20"/>
  <rect x="476.8" y="217.57" width="40.84" height="40.84" fill="#231f20"/>
  <rect x="476.8" y="174.52" width="40.84" height="40.84" fill="#231f20"/>
  <rect x="477.07" y="433.66" width="40.84" height="40.84" fill="#231f20"/>
  <rect x="433.48" y="433.66" width="40.84" height="40.84" fill="#231f20"/>
  <rect x="303.79" y="519.99" width="40.84" height="40.84" fill="#231f20"/>
  <rect x="347" y="476.82" width="40.84" height="40.84" fill="#231f20"/>
  <rect x="347" y="433.66" width="40.84" height="40.84" fill="#231f20"/>
  <rect x="347" y="519.99" width="40.84" height="40.84" fill="#231f20"/>
  <rect x="433.48" y="390.49" width="40.84" height="40.84" fill="#231f20"/>
  <rect x="477.07" y="390.49" width="40.84" height="40.84" fill="#231f20"/>
  <rect x="951.85" y="390.43" width="40.84" height="40.84" fill="#231f20"/>
  <rect x="951.85" y="347.27" width="40.84" height="40.84" fill="#231f20"/>
  <rect x="908.81" y="390.43" width="40.84" height="40.84" fill="#231f20"/>
  <rect x="908.81" y="347.27" width="40.84" height="40.84" fill="#231f20"/>
  <rect x="865.76" y="390.43" width="40.84" height="40.84" fill="#231f20"/>
  <rect x="865.76" y="347.27" width="40.84" height="40.84" fill="#231f20"/>
  <rect x="951.85" y="304.1" width="40.84" height="40.84" fill="#231f20"/>
  <rect x="951.85" y="260.94" width="40.84" height="40.84" fill="#231f20"/>
  <rect x="908.81" y="304.1" width="40.84" height="40.84" fill="#231f20"/>
  <rect x="908.81" y="260.94" width="40.84" height="40.84" fill="#231f20"/>
  <rect x="865.76" y="304.1" width="40.84" height="40.84" fill="#231f20"/>
  <rect x="865.76" y="260.94" width="40.84" height="40.84" fill="#231f20"/>
  <rect x="951.85" y="217.77" width="40.84" height="40.84" fill="#231f20"/>
  <rect x="951.85" y="174.61" width="40.84" height="40.84" fill="#231f20"/>
  <rect x="908.81" y="217.77" width="40.84" height="40.84" fill="#231f20"/>
  <rect x="908.81" y="174.61" width="40.84" height="40.84" fill="#231f20"/>
  <rect x="1037.95" y="347.27" width="40.84" height="40.84" fill="#231f20"/>
  <rect x="994.9" y="347.27" width="40.84" height="40.84" fill="#231f20"/>
  <rect x="994.9" y="390.49" width="40.84" height="40.84" fill="#231f20"/>
  <rect x="1037.95" y="304.1" width="40.84" height="40.84" fill="#231f20"/>
  <rect x="1037.95" y="260.94" width="40.84" height="40.84" fill="#231f20"/>
  <rect x="994.9" y="304.1" width="40.84" height="40.84" fill="#231f20"/>
  <rect x="994.9" y="260.94" width="40.84" height="40.84" fill="#231f20"/>
  <rect x="1037.95" y="217.77" width="40.84" height="40.84" fill="#231f20"/>
  <rect x="1037.95" y="174.61" width="40.84" height="40.84" fill="#231f20"/>
  <rect x="994.9" y="217.77" width="40.84" height="40.84" fill="#231f20"/>
  <rect x="994.9" y="174.61" width="40.84" height="40.84" fill="#231f20"/>
  <rect x="865.76" y="217.77" width="40.84" height="40.84" fill="#231f20"/>
  <rect x="865.76" y="174.61" width="40.84" height="40.84" fill="#231f20"/>
  <rect x="822.45" y="303.84" width="40.84" height="40.84" fill="#231f20"/>
  <rect x="822.45" y="260.67" width="40.84" height="40.84" fill="#231f20"/>
  <rect x="822.45" y="217.51" width="40.84" height="40.84" fill="#231f20"/>
  <rect x="822.45" y="174.34" width="40.84" height="40.84" fill="#231f20"/>
  <rect x="779.16" y="260.94" width="40.84" height="40.84" fill="#231f20"/>
  <rect x="736.12" y="260.94" width="40.84" height="40.84" fill="#231f20"/>
  <rect x="779.16" y="217.77" width="40.84" height="40.84" fill="#231f20"/>
  <rect x="779.16" y="174.61" width="40.84" height="40.84" fill="#231f20"/>
  <rect x="736.12" y="217.77" width="40.84" height="40.84" fill="#231f20"/>
  <rect x="736.12" y="174.61" width="40.84" height="40.84" fill="#231f20"/>
  <rect x="692.8" y="260.67" width="40.84" height="40.84" fill="#231f20"/>
  <rect x="692.8" y="217.51" width="40.84" height="40.84" fill="#231f20"/>
  <rect x="692.8" y="174.34" width="40.84" height="40.84" fill="#231f20"/>
  <rect x="649.26" y="260.67" width="40.84" height="40.84" fill="#231f20"/>
  <rect x="649.26" y="217.51" width="40.84" height="40.84" fill="#231f20"/>
  <rect x="649.26" y="174.34" width="40.84" height="40.84" fill="#231f20"/>
  <rect x="822.71" y="390.43" width="40.84" height="40.84" fill="#231f20"/>
  <rect x="822.71" y="347.27" width="40.84" height="40.84" fill="#231f20"/>
  <rect x="779.03" y="303.84" width="40.84" height="40.84" fill="#231f20"/>
  <rect x="779.3" y="390.43" width="40.84" height="40.84" fill="#231f20"/>
  <rect x="779.3" y="347.27" width="40.84" height="40.84" fill="#231f20"/>
  <rect x="951.85" y="649.75" width="40.84" height="40.84" fill="#231f20"/>
  <rect x="951.85" y="606.58" width="40.84" height="40.84" fill="#231f20"/>
  <rect x="908.81" y="649.75" width="40.84" height="40.84" fill="#231f20"/>
  <rect x="908.81" y="606.58" width="40.84" height="40.84" fill="#231f20"/>
  <rect x="951.85" y="735.97" width="40.84" height="40.84" fill="#231f20"/>
  <rect x="951.85" y="779.25" width="40.84" height="40.84" fill="#231f20"/>
  <rect x="951.85" y="692.81" width="40.84" height="40.84" fill="#231f20"/>
  <rect x="908.81" y="735.97" width="40.84" height="40.84" fill="#231f20"/>
  <rect x="908.81" y="779.14" width="40.84" height="40.84" fill="#231f20"/>
  <rect x="908.81" y="692.81" width="40.84" height="40.84" fill="#231f20"/>
  <rect x="865.49" y="692.81" width="40.84" height="40.84" fill="#231f20"/>
  <rect x="865.76" y="649.75" width="40.84" height="40.84" fill="#231f20"/>
  <rect x="865.76" y="606.58" width="40.84" height="40.84" fill="#231f20"/>
  <rect x="951.85" y="563.42" width="40.84" height="40.84" fill="#231f20"/>
  <rect x="951.85" y="520.25" width="40.84" height="40.84" fill="#231f20"/>
  <rect x="908.81" y="563.42" width="40.84" height="40.84" fill="#231f20"/>
  <rect x="908.81" y="520.25" width="40.84" height="40.84" fill="#231f20"/>
  <rect x="865.76" y="563.42" width="40.84" height="40.84" fill="#231f20"/>
  <rect x="865.76" y="520.25" width="40.84" height="40.84" fill="#231f20"/>
  <rect x="951.85" y="477.09" width="40.84" height="40.84" fill="#231f20"/>
  <rect x="951.85" y="433.92" width="40.84" height="40.84" fill="#231f20"/>
  <rect x="908.81" y="477.09" width="40.84" height="40.84" fill="#231f20"/>
  <rect x="908.81" y="433.92" width="40.84" height="40.84" fill="#231f20"/>
  <rect x="865.76" y="477.09" width="40.84" height="40.84" fill="#231f20"/>
  <rect x="865.76" y="433.92" width="40.84" height="40.84" fill="#231f20"/>
  <rect x="822.45" y="563.15" width="40.84" height="40.84" fill="#231f20"/>
  <rect x="822.45" y="519.99" width="40.84" height="40.84" fill="#231f20"/>
  <rect x="822.45" y="476.82" width="40.84" height="40.84" fill="#231f20"/>
  <rect x="822.45" y="433.66" width="40.84" height="40.84" fill="#231f20"/>
  <rect x="662.98" y="490.15" width="13.39" height="13.39" fill="#231f20"/>
  <rect x="576.89" y="188.24" width="13.39" height="13.39" fill="#231f20"/>
  <rect x="533.67" y="188.24" width="13.39" height="13.39" fill="#231f20"/>
  <rect x="490.53" y="144.93" width="13.39" height="13.39" fill="#231f20"/>
  <rect x="662.98" y="533.71" width="13.39" height="13.39" fill="#231f20"/>
  <rect x="662.98" y="576.88" width="13.39" height="13.39" fill="#231f20"/>
  <rect x="793.02" y="490.15" width="13.39" height="13.39" fill="#231f20"/>
  <rect x="793.02" y="533.71" width="13.39" height="13.39" fill="#231f20"/>
  <rect x="793.02" y="576.88" width="13.39" height="13.39" fill="#231f20"/>
  <rect x="533.3" y="490.15" width="13.39" height="13.39" fill="#231f20"/>
  <rect x="404.93" y="447.38" width="13.39" height="13.39" fill="#231f20"/>
  <rect x="360.73" y="576.88" width="13.39" height="13.39" fill="#231f20"/>
  <rect x="317.52" y="576.88" width="13.39" height="13.39" fill="#231f20"/>
  <rect x="275.56" y="576.88" width="13.39" height="13.39" fill="#231f20"/>
  <rect x="187.38" y="750.27" width="13.39" height="13.39" fill="#231f20"/>
  <rect x="232.2" y="706.51" width="13.39" height="13.39" fill="#231f20"/>
  <rect x="144.17" y="750.27" width="13.39" height="13.39" fill="#231f20"/>
  <rect x="102.21" y="750.27" width="13.39" height="13.39" fill="#231f20"/>
  <rect x="15.16" y="663.13" width="13.39" height="13.39" fill="#231f20"/>
  <rect x="187.84" y="576.88" width="13.39" height="13.39" fill="#231f20"/>
  <rect x="187.84" y="490.55" width="13.39" height="13.39" fill="#231f20"/>
  <rect x="275.56" y="533.71" width="13.39" height="13.39" fill="#231f20"/>
  <rect x="231.28" y="533.71" width="13.39" height="13.39" fill="#231f20"/>
  <rect x="58.4" y="576.88" width="13.39" height="13.39" fill="#231f20"/>
  <rect x="58.4" y="533.71" width="13.39" height="13.39" fill="#231f20"/>
  <rect x="101.75" y="533.71" width="13.39" height="13.39" fill="#231f20"/>
  <rect x="231.28" y="405.44" width="13.39" height="13.39" fill="#231f20"/>
  <rect x="231.28" y="362.27" width="13.39" height="13.39" fill="#231f20"/>
  <rect x="101.44" y="360.9" width="13.39" height="13.39" fill="#231f20"/>
  <rect x="101.44" y="317.73" width="13.39" height="13.39" fill="#231f20"/>
  <rect x="187.84" y="317.73" width="13.39" height="13.39" fill="#231f20"/>
  <rect x="144.79" y="231.4" width="13.39" height="13.39" fill="#231f20"/>
  <rect x="187.84" y="231.46" width="13.39" height="13.39" fill="#231f20"/>
  <rect x="58.55" y="231.4" width="13.39" height="13.39" fill="#231f20"/>
  <rect x="58.55" y="188.2" width="13.39" height="13.39" fill="#231f20"/>
  <rect x="101.6" y="145" width="13.39" height="13.39" fill="#231f20"/>
  <rect x="144.79" y="145" width="13.39" height="13.39" fill="#231f20"/>
  <rect x="187.84" y="145" width="13.39" height="13.39" fill="#231f20"/>
  <rect x="187.84" y="188.23" width="13.39" height="13.39" fill="#231f20"/>
  <rect x="187.84" y="101.16" width="13.39" height="13.39" fill="#231f20"/>
  <rect x="230.89" y="100.74" width="13.39" height="13.39" fill="#231f20"/>
  <rect x="230.89" y="56.9" width="13.39" height="13.39" fill="#231f20"/>
  <rect x="274.42" y="56.9" width="13.39" height="13.39" fill="#231f20"/>
  <rect x="360.69" y="15.21" width="13.39" height="13.39" fill="#231f20"/>
  <rect x="404.22" y="15.21" width="13.39" height="13.39" fill="#231f20"/>
  <rect x="447.11" y="101.78" width="13.39" height="13.39" fill="#231f20"/>
  <rect x="490.64" y="101.78" width="13.39" height="13.39" fill="#231f20"/>
  <rect x="533.51" y="59.15" width="13.39" height="13.39" fill="#231f20"/>
  <rect x="577.04" y="59.15" width="13.39" height="13.39" fill="#231f20"/>
  <rect x="620.8" y="59.15" width="13.39" height="13.39" fill="#231f20"/>
  <rect x="620.8" y="101.78" width="13.39" height="13.39" fill="#231f20"/>
  <rect x="664.33" y="59.15" width="13.39" height="13.39" fill="#231f20"/>
  <rect x="664.33" y="101.78" width="13.39" height="13.39" fill="#231f20"/>
  <rect x="706.31" y="101.78" width="13.39" height="13.39" fill="#231f20"/>
  <rect x="749.84" y="101.78" width="13.39" height="13.39" fill="#231f20"/>
  <rect x="835.91" y="144.69" width="13.39" height="13.39" fill="#231f20"/>
  <rect x="879.44" y="144.69" width="13.39" height="13.39" fill="#231f20"/>
  <rect x="533.51" y="101.78" width="13.39" height="13.39" fill="#231f20"/>
  <rect x="577.04" y="101.78" width="13.39" height="13.39" fill="#231f20"/>
  <rect x="490.53" y="58.49" width="13.39" height="13.39" fill="#231f20"/>
  <rect x="447.05" y="274.78" width="13.39" height="13.39" fill="#231f20"/>
  <rect x="447.05" y="317.62" width="13.39" height="13.39" fill="#231f20"/>
  <rect x="447.21" y="360.78" width="13.39" height="13.39" fill="#231f20"/>
  <rect x="447.16" y="231.62" width="13.39" height="13.39" fill="#231f20"/>
  <rect x="490.64" y="15.34" width="13.39" height="13.39" fill="#231f20"/>
  <rect x="317.23" y="101.78" width="13.39" height="13.39" fill="#231f20"/>
  <rect x="274.42" y="101.78" width="13.39" height="13.39" fill="#231f20"/>
  <rect x="360.76" y="101.78" width="13.39" height="13.39" fill="#231f20"/>
  <rect x="359.74" y="144.93" width="13.39" height="13.39" fill="#231f20"/>
  <rect x="403.27" y="144.93" width="13.39" height="13.39" fill="#231f20"/>
  <rect x="101.6" y="231.46" width="13.39" height="13.39" fill="#231f20"/>
  <rect x="101.75" y="404.28" width="13.39" height="13.39" fill="#231f20"/>
  <rect x="533.3" y="533.71" width="13.39" height="13.39" fill="#231f20"/>
  <rect x="490.79" y="663.13" width="13.39" height="13.39" fill="#231f20"/>
  <rect x="619.93" y="750.27" width="13.39" height="13.39" fill="#231f20"/>
  <rect x="576.89" y="750.27" width="13.39" height="13.39" fill="#231f20"/>
  <rect x="619.93" y="792.89" width="13.39" height="13.39" fill="#231f20"/>
  <rect x="576.89" y="792.89" width="13.39" height="13.39" fill="#231f20"/>
  <rect x="663.2" y="836.1" width="13.39" height="13.39" fill="#231f20"/>
  <rect x="620.15" y="836.1" width="13.39" height="13.39" fill="#231f20"/>
  <rect x="620.15" y="879.4" width="13.39" height="13.39" fill="#231f20"/>
  <rect x="533.3" y="620.04" width="13.39" height="13.39" fill="#231f20"/>
  <rect x="576.89" y="620.04" width="13.39" height="13.39" fill="#231f20"/>
  <rect x="576.89" y="576.88" width="13.39" height="13.39" fill="#231f20"/>
  <rect x="490.79" y="749.7" width="13.39" height="13.39" fill="#231f20"/>
  <rect x="490.79" y="706.53" width="13.39" height="13.39" fill="#231f20"/>
  <rect x="533.3" y="836.1" width="13.39" height="13.39" fill="#231f20"/>
  <rect x="533.3" y="792.89" width="13.39" height="13.39" fill="#231f20"/>
  <rect x="793.01" y="879.4" width="13.39" height="13.39" fill="#231f20"/>
  <rect x="749.96" y="879.4" width="13.39" height="13.39" fill="#231f20"/>
  <rect x="706.37" y="879.4" width="13.39" height="13.39" fill="#231f20"/>
  <rect x="749.66" y="317.89" width="13.39" height="13.39" fill="#231f20"/>
  <rect x="706.61" y="317.89" width="13.39" height="13.39" fill="#231f20"/>
  <rect x="663.03" y="317.89" width="13.39" height="13.39" fill="#231f20"/>
  <rect x="965.85" y="836.1" width="13.39" height="13.39" fill="#231f20"/>
  <rect x="922.8" y="836.1" width="13.39" height="13.39" fill="#231f20"/>
  <rect x="879.21" y="836.1" width="13.39" height="13.39" fill="#231f20"/>
  <rect x="447.25" y="836.1" width="13.39" height="13.39" fill="#231f20"/>
  <rect x="447.25" y="792.89" width="13.39" height="13.39" fill="#231f20"/>
  <rect x="533.3" y="922.5" width="13.39" height="13.39" fill="#231f20"/>
  <rect x="533.3" y="879.33" width="13.39" height="13.39" fill="#231f20"/>
  <rect x="404.93" y="922.5" width="13.39" height="13.39" fill="#231f20"/>
  <rect x="404.93" y="879.33" width="13.39" height="13.39" fill="#231f20"/>
  <rect x="533.3" y="1008.9" width="13.39" height="13.39" fill="#231f20"/>
  <rect x="490.48" y="1008.9" width="13.39" height="13.39" fill="#231f20"/>
  <rect x="533.3" y="965.73" width="13.39" height="13.39" fill="#231f20"/>
  <rect x="620.22" y="1008.9" width="13.39" height="13.39" fill="#231f20"/>
  <rect x="620.22" y="965.73" width="13.39" height="13.39" fill="#231f20"/>
  <rect x="447.25" y="965.73" width="13.39" height="13.39" fill="#231f20"/>
  <rect x="662.98" y="620.04" width="13.39" height="13.39" fill="#231f20"/>
  <rect x="1008.62" y="490.15" width="13.39" height="13.39" fill="#231f20"/>
  <rect x="1008.62" y="447.65" width="13.39" height="13.39" fill="#231f20"/>
  <rect x="1051.67" y="404.22" width="13.39" height="13.39" fill="#231f20"/>
  <rect x="1008.62" y="533.71" width="13.39" height="13.39" fill="#231f20"/>
  <rect x="1008.62" y="576.88" width="13.39" height="13.39" fill="#231f20"/>
  <rect x="1008.62" y="620.04" width="13.39" height="13.39" fill="#231f20"/>
  <rect x="836.44" y="620.31" width="13.39" height="13.39" fill="#231f20"/>
  <rect x="836.44" y="706.64" width="13.39" height="13.39" fill="#231f20"/>
</svg>