<?xml version="1.0" encoding="UTF-8"?>
<svg id="_14" data-name="14" xmlns="http://www.w3.org/2000/svg" viewBox="0 0 1080 1080">
  <rect x="345.5" y="736.31" width="40.84" height="40.84" fill="#231f20"/>
  <rect x="302.65" y="736.31" width="40.84" height="40.84" fill="#231f20"/>
  <rect x="259.33" y="736.31" width="40.84" height="40.84" fill="#231f20"/>
  <rect x="345.44" y="693.34" width="40.84" height="40.84" fill="#231f20"/>
  <rect x="302.59" y="693.34" width="40.84" height="40.84" fill="#231f20"/>
  <rect x="259.27" y="693.34" width="40.84" height="40.84" fill="#231f20"/>
  <rect x="215.87" y="693.34" width="40.84" height="40.84" fill="#231f20"/>
  <rect x="302.65" y="650.25" width="40.84" height="40.84" fill="#231f20"/>
  <rect x="259.33" y="650.25" width="40.84" height="40.84" fill="#231f20"/>
  <rect x="215.87" y="650.25" width="40.84" height="40.84" fill="#231f20"/>
  <rect x="431.88" y="736.31" width="40.84" height="40.84" fill="#231f20"/>
  <rect x="389.03" y="736.31" width="40.84" height="40.84" fill="#231f20"/>
  <rect x="345.5" y="779.7" width="40.84" height="40.84" fill="#231f20"/>
  <rect x="302.65" y="779.7" width="40.84" height="40.84" fill="#231f20"/>
  <rect x="259.33" y="779.7" width="40.84" height="40.84" fill="#231f20"/>
  <rect x="215.87" y="736.31" width="40.84" height="40.84" fill="#231f20"/>
  <rect x="215.87" y="779.7" width="40.84" height="40.84" fill="#231f20"/>
  <rect x="172.87" y="693.13" width="40.84" height="40.84" fill="#231f20"/>
  <rect x="172.87" y="736.1" width="40.84" height="40.84" fill="#231f20"/>
  <rect x="172.87" y="779.49" width="40.84" height="40.84" fill="#231f20"/>
  <rect x="302.78" y="822.82" width="40.84" height="40.84" fill="#231f20"/>
  <rect x="259.33" y="822.82" width="40.84" height="40.84" fill="#231f20"/>
  <rect x="431.88" y="779.7" width="40.84" height="40.84" fill="#231f20"/>
  <rect x="389.03" y="779.7" width="40.84" height="40.84" fill="#231f20"/>
  <rect x="345.5" y="822.82" width="40.84" height="40.84" fill="#231f20"/>
  <rect x="431.88" y="822.82" width="40.84" height="40.84" fill="#231f20"/>
  <rect x="389.03" y="822.82" width="40.84" height="40.84" fill="#231f20"/>
  <rect x="431.82" y="693.34" width="40.84" height="40.84" fill="#231f20"/>
  <rect x="475.36" y="736.34" width="40.84" height="40.84" fill="#231f20"/>
  <rect x="475.36" y="779.73" width="40.84" height="40.84" fill="#231f20"/>
  <rect x="475.3" y="693.37" width="40.84" height="40.84" fill="#231f20"/>
  <rect x="518.46" y="736.34" width="40.84" height="40.84" fill="#231f20"/>
  <rect x="518.46" y="779.73" width="40.84" height="40.84" fill="#231f20"/>
  <rect x="518.4" y="693.37" width="40.84" height="40.84" fill="#231f20"/>
  <rect x="561.56" y="736.22" width="40.84" height="40.84" fill="#231f20"/>
  <rect x="561.56" y="779.61" width="40.84" height="40.84" fill="#231f20"/>
  <rect x="475.36" y="822.82" width="40.84" height="40.84" fill="#231f20"/>
  <rect x="518.46" y="822.82" width="40.84" height="40.84" fill="#231f20"/>
  <rect x="561.56" y="822.82" width="40.84" height="40.84" fill="#231f20"/>
  <rect x="604.65" y="736.34" width="40.84" height="40.84" fill="#231f20"/>
  <rect x="604.65" y="779.73" width="40.84" height="40.84" fill="#231f20"/>
  <rect x="648.01" y="736.47" width="40.84" height="40.84" fill="#231f20"/>
  <rect x="648.01" y="779.86" width="40.84" height="40.84" fill="#231f20"/>
  <rect x="691.28" y="779.94" width="40.84" height="40.84" fill="#231f20"/>
  <rect x="604.65" y="822.82" width="40.84" height="40.84" fill="#231f20"/>
  <rect x="648.01" y="822.82" width="40.84" height="40.84" fill="#231f20"/>
  <rect x="691.28" y="822.82" width="40.84" height="40.84" fill="#231f20"/>
  <rect x="734.54" y="779.94" width="40.84" height="40.84" fill="#231f20"/>
  <rect x="734.54" y="822.82" width="40.84" height="40.84" fill="#231f20"/>
  <rect x="777.62" y="822.82" width="40.84" height="40.84" fill="#231f20"/>
  <rect x="820.89" y="822.82" width="40.84" height="40.84" fill="#231f20"/>
  <rect x="431.68" y="865.69" width="40.84" height="40.84" fill="#231f20"/>
  <rect x="388.83" y="865.69" width="40.84" height="40.84" fill="#231f20"/>
  <rect x="345.3" y="865.69" width="40.84" height="40.84" fill="#231f20"/>
  <rect x="302.65" y="865.69" width="40.84" height="40.84" fill="#231f20"/>
  <rect x="475.17" y="865.98" width="40.84" height="40.84" fill="#231f20"/>
  <rect x="475.17" y="909.3" width="40.84" height="40.84" fill="#231f20"/>
  <rect x="518.26" y="865.98" width="40.84" height="40.84" fill="#231f20"/>
  <rect x="561.36" y="865.86" width="40.84" height="40.84" fill="#231f20"/>
  <rect x="604.46" y="865.89" width="40.84" height="40.84" fill="#231f20"/>
  <rect x="647.81" y="866.02" width="40.84" height="40.84" fill="#231f20"/>
  <rect x="691.08" y="866.1" width="40.84" height="40.84" fill="#231f20"/>
  <rect x="734.35" y="866.1" width="40.84" height="40.84" fill="#231f20"/>
  <rect x="561.56" y="909.14" width="40.84" height="40.84" fill="#231f20"/>
  <rect x="518.46" y="909.14" width="40.84" height="40.84" fill="#231f20"/>
  <rect x="604.65" y="909.17" width="40.84" height="40.84" fill="#231f20"/>
  <rect x="648.01" y="909.3" width="40.84" height="40.84" fill="#231f20"/>
  <rect x="691.28" y="909.38" width="40.84" height="40.84" fill="#231f20"/>
  <rect x="734.54" y="909.38" width="40.84" height="40.84" fill="#231f20"/>
  <rect x="604.65" y="952.19" width="40.84" height="40.84" fill="#231f20"/>
  <rect x="648.01" y="952.32" width="40.84" height="40.84" fill="#231f20"/>
  <rect x="691.28" y="952.4" width="40.84" height="40.84" fill="#231f20"/>
  <rect x="734.54" y="952.4" width="40.84" height="40.84" fill="#231f20"/>
  <rect x="777.42" y="866.1" width="40.84" height="40.84" fill="#231f20"/>
  <rect x="777.62" y="909.38" width="40.84" height="40.84" fill="#231f20"/>
  <rect x="820.69" y="909.38" width="40.84" height="40.84" fill="#231f20"/>
  <rect x="863.86" y="909.38" width="40.84" height="40.84" fill="#231f20"/>
  <rect x="777.62" y="952.19" width="40.84" height="40.84" fill="#231f20"/>
  <rect x="820.89" y="952.19" width="40.84" height="40.84" fill="#231f20"/>
  <rect x="820.69" y="866.1" width="40.84" height="40.84" fill="#231f20"/>
  <rect x="863.96" y="866.1" width="40.84" height="40.84" fill="#231f20"/>
  <rect x="907.03" y="866.1" width="40.84" height="40.84" fill="#231f20"/>
  <rect x="907.03" y="909.38" width="40.84" height="40.84" fill="#231f20"/>
  <rect x="950.3" y="866.1" width="40.84" height="40.84" fill="#231f20"/>
  <rect x="950.1" y="909.38" width="40.84" height="40.84" fill="#231f20"/>
  <rect x="993.56" y="909.38" width="40.84" height="40.84" fill="#231f20"/>
  <rect x="1036.83" y="909.38" width="40.84" height="40.84" fill="#231f20"/>
  <rect x="993.56" y="952.19" width="40.84" height="40.84" fill="#231f20"/>
  <rect x="1036.83" y="952.19" width="40.84" height="40.84" fill="#231f20"/>
  <rect x="907.22" y="952.66" width="40.84" height="40.84" fill="#231f20"/>
  <rect x="950.49" y="952.66" width="40.84" height="40.84" fill="#231f20"/>
  <rect x="561.5" y="693.25" width="40.84" height="40.84" fill="#231f20"/>
  <rect x="475.36" y="650.28" width="40.84" height="40.84" fill="#231f20"/>
  <rect x="388.97" y="693.34" width="40.84" height="40.84" fill="#231f20"/>
  <rect x="345.5" y="650.25" width="40.84" height="40.84" fill="#231f20"/>
  <rect x="431.88" y="650.25" width="40.84" height="40.84" fill="#231f20"/>
  <rect x="389.03" y="650.25" width="40.84" height="40.84" fill="#231f20"/>
  <rect x="301.98" y="563.5" width="40.84" height="40.84" fill="#231f20"/>
  <rect x="259.13" y="563.5" width="40.84" height="40.84" fill="#231f20"/>
  <rect x="301.98" y="520.47" width="40.84" height="40.84" fill="#231f20"/>
  <rect x="259.13" y="520.47" width="40.84" height="40.84" fill="#231f20"/>
  <rect x="259.13" y="477.43" width="40.84" height="40.84" fill="#231f20"/>
  <rect x="215.87" y="563.5" width="40.84" height="40.84" fill="#231f20"/>
  <rect x="215.87" y="520.47" width="40.84" height="40.84" fill="#231f20"/>
  <rect x="215.87" y="477.43" width="40.84" height="40.84" fill="#231f20"/>
  <rect x="345.5" y="563.5" width="40.84" height="40.84" fill="#231f20"/>
  <rect x="301.98" y="606.87" width="40.84" height="40.84" fill="#231f20"/>
  <rect x="259.13" y="606.87" width="40.84" height="40.84" fill="#231f20"/>
  <rect x="215.87" y="606.87" width="40.84" height="40.84" fill="#231f20"/>
  <rect x="172.87" y="650.25" width="40.84" height="40.84" fill="#231f20"/>
  <rect x="172.87" y="563.5" width="40.84" height="40.84" fill="#231f20"/>
  <rect x="172.87" y="520.47" width="40.84" height="40.84" fill="#231f20"/>
  <rect x="172.87" y="606.87" width="40.84" height="40.84" fill="#231f20"/>
  <rect x="345.5" y="606.87" width="40.84" height="40.84" fill="#231f20"/>
  <rect x="388.69" y="563.5" width="40.84" height="40.84" fill="#231f20"/>
  <rect x="432.21" y="563.5" width="40.84" height="40.84" fill="#231f20"/>
  <rect x="388.69" y="606.87" width="40.84" height="40.84" fill="#231f20"/>
  <rect x="432.21" y="606.87" width="40.84" height="40.84" fill="#231f20"/>
  <rect x="345.5" y="520.47" width="40.84" height="40.84" fill="#231f20"/>
  <rect x="388.69" y="520.47" width="40.84" height="40.84" fill="#231f20"/>
  <rect x="432.21" y="520.47" width="40.84" height="40.84" fill="#231f20"/>
  <rect x="301.98" y="477.43" width="40.84" height="40.84" fill="#231f20"/>
  <rect x="301.98" y="433.98" width="40.84" height="40.84" fill="#231f20"/>
  <rect x="259.13" y="433.98" width="40.84" height="40.84" fill="#231f20"/>
  <rect x="216.27" y="433.98" width="40.84" height="40.84" fill="#231f20"/>
  <rect x="172.66" y="477.43" width="40.84" height="40.84" fill="#231f20"/>
  <rect x="173.07" y="433.98" width="40.84" height="40.84" fill="#231f20"/>
  <rect x="259.13" y="390.95" width="40.84" height="40.84" fill="#231f20"/>
  <rect x="301.98" y="390.95" width="40.84" height="40.84" fill="#231f20"/>
  <rect x="302.3" y="347.6" width="40.84" height="40.84" fill="#231f20"/>
  <rect x="259.45" y="347.6" width="40.84" height="40.84" fill="#231f20"/>
  <rect x="259.45" y="304.57" width="40.84" height="40.84" fill="#231f20"/>
  <rect x="259.24" y="261.51" width="40.84" height="40.84" fill="#231f20"/>
  <rect x="215.97" y="131.31" width="40.84" height="40.84" fill="#231f20"/>
  <rect x="215.97" y="88.28" width="40.84" height="40.84" fill="#231f20"/>
  <rect x="215.76" y="45.22" width="40.84" height="40.84" fill="#231f20"/>
  <rect x="259.36" y="218.18" width="40.84" height="40.84" fill="#231f20"/>
  <rect x="561.42" y="261.44" width="40.84" height="40.84" fill="#231f20"/>
  <rect x="863.95" y="261.44" width="40.84" height="40.84" fill="#231f20"/>
  <rect x="993.76" y="347.81" width="40.84" height="40.84" fill="#231f20"/>
  <rect x="1036.79" y="347.81" width="40.84" height="40.84" fill="#231f20"/>
  <rect x="993.55" y="174.76" width="40.84" height="40.84" fill="#231f20"/>
  <rect x="863.95" y="88.28" width="40.84" height="40.84" fill="#231f20"/>
  <rect x="734.35" y="174.76" width="40.84" height="40.84" fill="#231f20"/>
  <rect x="1036.85" y="174.76" width="40.84" height="40.84" fill="#231f20"/>
  <rect x="1036.79" y="304.42" width="40.84" height="40.84" fill="#231f20"/>
  <rect x="604.41" y="88.28" width="40.84" height="40.84" fill="#231f20"/>
  <rect x="561.65" y="88.28" width="40.84" height="40.84" fill="#231f20"/>
  <rect x="172.98" y="131.43" width="40.84" height="40.84" fill="#231f20"/>
  <rect x="172.98" y="88.4" width="40.84" height="40.84" fill="#231f20"/>
  <rect x="129.55" y="88.28" width="40.84" height="40.84" fill="#231f20"/>
  <rect x="86.55" y="88.4" width="40.84" height="40.84" fill="#231f20"/>
  <rect x="172.77" y="45.35" width="40.84" height="40.84" fill="#231f20"/>
  <rect x="172.77" y="1.86" width="40.84" height="40.84" fill="#231f20"/>
  <rect x="129.76" y="347.42" width="40.84" height="40.84" fill="#231f20"/>
  <rect x="129.76" y="304.39" width="40.84" height="40.84" fill="#231f20"/>
  <rect x="216.27" y="347.42" width="40.84" height="40.84" fill="#231f20"/>
  <rect x="216.27" y="304.39" width="40.84" height="40.84" fill="#231f20"/>
  <rect x="129.55" y="261.33" width="40.84" height="40.84" fill="#231f20"/>
  <rect x="172.61" y="261.33" width="40.84" height="40.84" fill="#231f20"/>
  <rect x="345.5" y="477.43" width="40.84" height="40.84" fill="#231f20"/>
  <rect x="661.33" y="534.19" width="13.39" height="13.39" fill="#231f20"/>
  <rect x="619.02" y="534.19" width="13.39" height="13.39" fill="#231f20"/>
  <rect x="574.93" y="534.19" width="13.39" height="13.39" fill="#231f20"/>
  <rect x="532.62" y="534.19" width="13.39" height="13.39" fill="#231f20"/>
  <rect x="14.01" y="577.71" width="13.39" height="13.39" fill="#231f20"/>
  <rect x="14.01" y="533.87" width="13.39" height="13.39" fill="#231f20"/>
  <rect x="57.04" y="577.71" width="13.39" height="13.39" fill="#231f20"/>
  <rect x="57.04" y="533.87" width="13.39" height="13.39" fill="#231f20"/>
  <rect x="143.48" y="620.91" width="13.39" height="13.39" fill="#231f20"/>
  <rect x="143.48" y="577.07" width="13.39" height="13.39" fill="#231f20"/>
  <rect x="143.27" y="664.11" width="13.39" height="13.39" fill="#231f20"/>
  <rect x="143.48" y="708.52" width="13.39" height="13.39" fill="#231f20"/>
  <rect x="101.86" y="708.52" width="13.39" height="13.39" fill="#231f20"/>
  <rect x="143.27" y="751.72" width="13.39" height="13.39" fill="#231f20"/>
  <rect x="143.27" y="793.21" width="13.39" height="13.39" fill="#231f20"/>
  <rect x="101.86" y="751.72" width="13.39" height="13.39" fill="#231f20"/>
  <rect x="58.59" y="751.72" width="13.39" height="13.39" fill="#231f20"/>
  <rect x="143.27" y="879.41" width="13.39" height="13.39" fill="#231f20"/>
  <rect x="101.86" y="879.41" width="13.39" height="13.39" fill="#231f20"/>
  <rect x="58.59" y="879.41" width="13.39" height="13.39" fill="#231f20"/>
  <rect x="228.88" y="836.54" width="13.39" height="13.39" fill="#231f20"/>
  <rect x="187.47" y="836.54" width="13.39" height="13.39" fill="#231f20"/>
  <rect x="143.27" y="836.54" width="13.39" height="13.39" fill="#231f20"/>
  <rect x="228.88" y="879.41" width="13.39" height="13.39" fill="#231f20"/>
  <rect x="272.85" y="879.71" width="13.39" height="13.39" fill="#231f20"/>
  <rect x="187.47" y="879.41" width="13.39" height="13.39" fill="#231f20"/>
  <rect x="143.27" y="922.88" width="13.39" height="13.39" fill="#231f20"/>
  <rect x="143.27" y="965.22" width="13.39" height="13.39" fill="#231f20"/>
  <rect x="101.86" y="922.88" width="13.39" height="13.39" fill="#231f20"/>
  <rect x="58.59" y="922.88" width="13.39" height="13.39" fill="#231f20"/>
  <rect x="228.88" y="922.88" width="13.39" height="13.39" fill="#231f20"/>
  <rect x="272.85" y="923.18" width="13.39" height="13.39" fill="#231f20"/>
  <rect x="187.47" y="922.88" width="13.39" height="13.39" fill="#231f20"/>
  <rect x="314.66" y="922.88" width="13.39" height="13.39" fill="#231f20"/>
  <rect x="402.55" y="922.88" width="13.39" height="13.39" fill="#231f20"/>
  <rect x="444.24" y="923.18" width="13.39" height="13.39" fill="#231f20"/>
  <rect x="358.81" y="922.93" width="13.39" height="13.39" fill="#231f20"/>
  <rect x="314.66" y="965.22" width="13.39" height="13.39" fill="#231f20"/>
  <rect x="314.66" y="1009.27" width="13.39" height="13.39" fill="#231f20"/>
  <rect x="272.85" y="965.22" width="13.39" height="13.39" fill="#231f20"/>
  <rect x="229.82" y="965.22" width="13.39" height="13.39" fill="#231f20"/>
  <rect x="187.47" y="965.22" width="13.39" height="13.39" fill="#231f20"/>
  <rect x="402.55" y="965.22" width="13.39" height="13.39" fill="#231f20"/>
  <rect x="444.24" y="965.52" width="13.39" height="13.39" fill="#231f20"/>
  <rect x="488.89" y="965.52" width="13.39" height="13.39" fill="#231f20"/>
  <rect x="444.24" y="1009.27" width="13.39" height="13.39" fill="#231f20"/>
  <rect x="359.03" y="1009.27" width="13.39" height="13.39" fill="#231f20"/>
  <rect x="488.89" y="1009.27" width="13.39" height="13.39" fill="#231f20"/>
  <rect x="531.8" y="965.52" width="13.39" height="13.39" fill="#231f20"/>
  <rect x="575.08" y="965.52" width="13.39" height="13.39" fill="#231f20"/>
  <rect x="704.63" y="1009.27" width="13.39" height="13.39" fill="#231f20"/>
  <rect x="747.55" y="1009.27" width="13.39" height="13.39" fill="#231f20"/>
  <rect x="704.63" y="1053.91" width="13.39" height="13.39" fill="#231f20"/>
  <rect x="747.55" y="1053.91" width="13.39" height="13.39" fill="#231f20"/>
  <rect x="619.85" y="1009.27" width="13.39" height="13.39" fill="#231f20"/>
  <rect x="662.77" y="1009.27" width="13.39" height="13.39" fill="#231f20"/>
  <rect x="790.83" y="1009.27" width="13.39" height="13.39" fill="#231f20"/>
  <rect x="877.66" y="1009.27" width="13.39" height="13.39" fill="#231f20"/>
  <rect x="877.66" y="1053.91" width="13.39" height="13.39" fill="#231f20"/>
  <rect x="834.61" y="1009.27" width="13.39" height="13.39" fill="#231f20"/>
  <rect x="877.66" y="966.39" width="13.39" height="13.39" fill="#231f20"/>
  <rect x="920.57" y="1009.27" width="13.39" height="13.39" fill="#231f20"/>
  <rect x="963.85" y="1009.27" width="13.39" height="13.39" fill="#231f20"/>
  <rect x="1007.29" y="1009.27" width="13.39" height="13.39" fill="#231f20"/>
  <rect x="1007.29" y="1053.91" width="13.39" height="13.39" fill="#231f20"/>
  <rect x="1050.56" y="1009.27" width="13.39" height="13.39" fill="#231f20"/>
  <rect x="358.81" y="965.27" width="13.39" height="13.39" fill="#231f20"/>
  <rect x="101.86" y="620.27" width="13.39" height="13.39" fill="#231f20"/>
  <rect x="101.86" y="663.97" width="13.39" height="13.39" fill="#231f20"/>
  <rect x="705.42" y="534.19" width="13.39" height="13.39" fill="#231f20"/>
  <rect x="705.42" y="490.35" width="13.39" height="13.39" fill="#231f20"/>
  <rect x="489.25" y="534.84" width="13.39" height="13.39" fill="#231f20"/>
  <rect x="489.25" y="491" width="13.39" height="13.39" fill="#231f20"/>
  <rect x="447.99" y="490.35" width="13.39" height="13.39" fill="#231f20"/>
  <rect x="532.62" y="446.51" width="13.39" height="13.39" fill="#231f20"/>
  <rect x="143.48" y="535" width="13.39" height="13.39" fill="#231f20"/>
  <rect x="143.48" y="491.16" width="13.39" height="13.39" fill="#231f20"/>
  <rect x="143.48" y="447.32" width="13.39" height="13.39" fill="#231f20"/>
  <rect x="143.48" y="404.67" width="13.39" height="13.39" fill="#231f20"/>
  <rect x="100.28" y="361.54" width="13.39" height="13.39" fill="#231f20"/>
  <rect x="58.59" y="361.54" width="13.39" height="13.39" fill="#231f20"/>
  <rect x="100.28" y="317.7" width="13.39" height="13.39" fill="#231f20"/>
  <rect x="186.33" y="317.7" width="13.39" height="13.39" fill="#231f20"/>
  <rect x="100.28" y="275.05" width="13.39" height="13.39" fill="#231f20"/>
  <rect x="489.25" y="447.16" width="13.39" height="13.39" fill="#231f20"/>
  <rect x="618.13" y="405.37" width="13.39" height="13.39" fill="#231f20"/>
  <rect x="618.13" y="446.51" width="13.39" height="13.39" fill="#231f20"/>
  <rect x="575.82" y="405.37" width="13.39" height="13.39" fill="#231f20"/>
  <rect x="575.82" y="361.54" width="13.39" height="13.39" fill="#231f20"/>
  <rect x="575.82" y="446.51" width="13.39" height="13.39" fill="#231f20"/>
  <rect x="705.42" y="446.51" width="13.39" height="13.39" fill="#231f20"/>
  <rect x="749.06" y="446.51" width="13.39" height="13.39" fill="#231f20"/>
  <rect x="792.7" y="534.19" width="13.39" height="13.39" fill="#231f20"/>
  <rect x="749.06" y="490.35" width="13.39" height="13.39" fill="#231f20"/>
  <rect x="792.7" y="490.35" width="13.39" height="13.39" fill="#231f20"/>
  <rect x="792.7" y="446.51" width="13.39" height="13.39" fill="#231f20"/>
  <rect x="964.76" y="490.35" width="13.39" height="13.39" fill="#231f20"/>
  <rect x="964.76" y="534.19" width="13.39" height="13.39" fill="#231f20"/>
  <rect x="1007.49" y="490.35" width="13.39" height="13.39" fill="#231f20"/>
  <rect x="1007.49" y="534.19" width="13.39" height="13.39" fill="#231f20"/>
  <rect x="1053.46" y="490.35" width="13.39" height="13.39" fill="#231f20"/>
  <rect x="1053.46" y="446.51" width="13.39" height="13.39" fill="#231f20"/>
  <rect x="1053.46" y="534.19" width="13.39" height="13.39" fill="#231f20"/>
  <rect x="920.42" y="533.52" width="13.39" height="13.39" fill="#231f20"/>
  <rect x="835.41" y="533.52" width="13.39" height="13.39" fill="#231f20"/>
  <rect x="879.99" y="533.52" width="13.39" height="13.39" fill="#231f20"/>
  <rect x="879.99" y="577.09" width="13.39" height="13.39" fill="#231f20"/>
  <rect x="835.41" y="577.09" width="13.39" height="13.39" fill="#231f20"/>
  <rect x="618.58" y="577.09" width="13.39" height="13.39" fill="#231f20"/>
  <rect x="574.93" y="577.09" width="13.39" height="13.39" fill="#231f20"/>
  <rect x="488.89" y="577.54" width="13.39" height="13.39" fill="#231f20"/>
  <rect x="488.89" y="620.44" width="13.39" height="13.39" fill="#231f20"/>
  <rect x="531.99" y="620.44" width="13.39" height="13.39" fill="#231f20"/>
  <rect x="531.8" y="663.97" width="13.39" height="13.39" fill="#231f20"/>
  <rect x="574.93" y="663.97" width="13.39" height="13.39" fill="#231f20"/>
  <rect x="618.61" y="706.91" width="13.39" height="13.39" fill="#231f20"/>
  <rect x="661.74" y="706.91" width="13.39" height="13.39" fill="#231f20"/>
  <rect x="920.42" y="577.09" width="13.39" height="13.39" fill="#231f20"/>
  <rect x="964.76" y="620.65" width="13.39" height="13.39" fill="#231f20"/>
  <rect x="835.41" y="620.65" width="13.39" height="13.39" fill="#231f20"/>
  <rect x="791.37" y="620.65" width="13.39" height="13.39" fill="#231f20"/>
  <rect x="747.73" y="620.65" width="13.39" height="13.39" fill="#231f20"/>
  <rect x="706.75" y="620.65" width="13.39" height="13.39" fill="#231f20"/>
  <rect x="663.1" y="620.65" width="13.39" height="13.39" fill="#231f20"/>
  <rect x="747.73" y="664.01" width="13.39" height="13.39" fill="#231f20"/>
  <rect x="706.75" y="664.01" width="13.39" height="13.39" fill="#231f20"/>
  <rect x="663.1" y="664.01" width="13.39" height="13.39" fill="#231f20"/>
  <rect x="876" y="706.91" width="13.39" height="13.39" fill="#231f20"/>
  <rect x="835.41" y="706.91" width="13.39" height="13.39" fill="#231f20"/>
  <rect x="791.37" y="706.91" width="13.39" height="13.39" fill="#231f20"/>
  <rect x="1005.38" y="706.91" width="13.39" height="13.39" fill="#231f20"/>
  <rect x="964.79" y="706.91" width="13.39" height="13.39" fill="#231f20"/>
  <rect x="1005.38" y="664.01" width="13.39" height="13.39" fill="#231f20"/>
  <rect x="1050.21" y="706.91" width="13.39" height="13.39" fill="#231f20"/>
  <rect x="1050.21" y="664.01" width="13.39" height="13.39" fill="#231f20"/>
  <rect x="1005.38" y="620.55" width="13.39" height="13.39" fill="#231f20"/>
  <rect x="1050.21" y="620.55" width="13.39" height="13.39" fill="#231f20"/>
  <rect x="964.79" y="664.01" width="13.39" height="13.39" fill="#231f20"/>
  <rect x="920.42" y="706.91" width="13.39" height="13.39" fill="#231f20"/>
  <rect x="876" y="750.2" width="13.39" height="13.39" fill="#231f20"/>
  <rect x="920.42" y="750.2" width="13.39" height="13.39" fill="#231f20"/>
  <rect x="835.41" y="750.2" width="13.39" height="13.39" fill="#231f20"/>
  <rect x="791.37" y="750.2" width="13.39" height="13.39" fill="#231f20"/>
  <rect x="920.42" y="793.66" width="13.39" height="13.39" fill="#231f20"/>
  <rect x="962.79" y="793.66" width="13.39" height="13.39" fill="#231f20"/>
  <rect x="877.45" y="793.66" width="13.39" height="13.39" fill="#231f20"/>
  <rect x="920.42" y="836.54" width="13.39" height="13.39" fill="#231f20"/>
  <rect x="962.79" y="836.54" width="13.39" height="13.39" fill="#231f20"/>
  <rect x="1006.52" y="793.66" width="13.39" height="13.39" fill="#231f20"/>
  <rect x="1048.9" y="793.66" width="13.39" height="13.39" fill="#231f20"/>
  <rect x="1006.52" y="836.54" width="13.39" height="13.39" fill="#231f20"/>
  <rect x="1048.9" y="836.54" width="13.39" height="13.39" fill="#231f20"/>
  <rect x="1008.95" y="881.17" width="13.39" height="13.39" fill="#231f20"/>
  <rect x="1051.32" y="881.17" width="13.39" height="13.39" fill="#231f20"/>
  <rect x="877.45" y="836.54" width="13.39" height="13.39" fill="#231f20"/>
  <rect x="833.41" y="793.66" width="13.39" height="13.39" fill="#231f20"/>
  <rect x="791.14" y="793.66" width="13.39" height="13.39" fill="#231f20"/>
  <rect x="747.24" y="750.2" width="13.39" height="13.39" fill="#231f20"/>
  <rect x="703.2" y="750.2" width="13.39" height="13.39" fill="#231f20"/>
  <rect x="920.42" y="620.65" width="13.39" height="13.39" fill="#231f20"/>
  <rect x="964.76" y="446.51" width="13.39" height="13.39" fill="#231f20"/>
  <rect x="835.41" y="446.51" width="13.39" height="13.39" fill="#231f20"/>
  <rect x="879.99" y="446.51" width="13.39" height="13.39" fill="#231f20"/>
  <rect x="920.42" y="445.98" width="13.39" height="13.39" fill="#231f20"/>
  <rect x="663.1" y="446.51" width="13.39" height="13.39" fill="#231f20"/>
  <rect x="447.99" y="446.51" width="13.39" height="13.39" fill="#231f20"/>
  <rect x="402.41" y="490.35" width="13.39" height="13.39" fill="#231f20"/>
  <rect x="402.41" y="446.51" width="13.39" height="13.39" fill="#231f20"/>
  <rect x="532.62" y="361.14" width="13.39" height="13.39" fill="#231f20"/>
  <rect x="532.62" y="275.23" width="13.39" height="13.39" fill="#231f20"/>
  <rect x="489.25" y="275.88" width="13.39" height="13.39" fill="#231f20"/>
  <rect x="489.25" y="361.79" width="13.39" height="13.39" fill="#231f20"/>
  <rect x="447.99" y="361.14" width="13.39" height="13.39" fill="#231f20"/>
  <rect x="402.41" y="361.14" width="13.39" height="13.39" fill="#231f20"/>
  <rect x="489.25" y="318.32" width="13.39" height="13.39" fill="#231f20"/>
  <rect x="447.99" y="317.67" width="13.39" height="13.39" fill="#231f20"/>
  <rect x="402.41" y="317.67" width="13.39" height="13.39" fill="#231f20"/>
  <rect x="402.41" y="273.89" width="13.39" height="13.39" fill="#231f20"/>
  <rect x="359.23" y="446.51" width="13.39" height="13.39" fill="#231f20"/>
  <rect x="359.23" y="404.67" width="13.39" height="13.39" fill="#231f20"/>
  <rect x="359.23" y="361.54" width="13.39" height="13.39" fill="#231f20"/>
  <rect x="835.41" y="361.54" width="13.39" height="13.39" fill="#231f20"/>
  <rect x="791.67" y="361.14" width="13.39" height="13.39" fill="#231f20"/>
  <rect x="749.36" y="361.14" width="13.39" height="13.39" fill="#231f20"/>
  <rect x="707.05" y="361.14" width="13.39" height="13.39" fill="#231f20"/>
  <rect x="791.67" y="318.29" width="13.39" height="13.39" fill="#231f20"/>
  <rect x="835.41" y="274.81" width="13.39" height="13.39" fill="#231f20"/>
  <rect x="791.67" y="274.81" width="13.39" height="13.39" fill="#231f20"/>
  <rect x="835.41" y="231.96" width="13.39" height="13.39" fill="#231f20"/>
  <rect x="835.41" y="188.4" width="13.39" height="13.39" fill="#231f20"/>
  <rect x="792.7" y="188.4" width="13.39" height="13.39" fill="#231f20"/>
  <rect x="618.13" y="274.81" width="13.39" height="13.39" fill="#231f20"/>
  <rect x="661.33" y="274.81" width="13.39" height="13.39" fill="#231f20"/>
  <rect x="661.33" y="188.49" width="13.39" height="13.39" fill="#231f20"/>
  <rect x="661.33" y="231.96" width="13.39" height="13.39" fill="#231f20"/>
  <rect x="705.42" y="188.49" width="13.39" height="13.39" fill="#231f20"/>
  <rect x="661.33" y="102" width="13.39" height="13.39" fill="#231f20"/>
  <rect x="705.42" y="14.64" width="13.39" height="13.39" fill="#231f20"/>
  <rect x="748.07" y="14.64" width="13.39" height="13.39" fill="#231f20"/>
  <rect x="790.93" y="14.64" width="13.39" height="13.39" fill="#231f20"/>
  <rect x="705.42" y="57.25" width="13.39" height="13.39" fill="#231f20"/>
  <rect x="618.13" y="57.25" width="13.39" height="13.39" fill="#231f20"/>
  <rect x="575.37" y="57.25" width="13.39" height="13.39" fill="#231f20"/>
  <rect x="531.2" y="57.25" width="13.39" height="13.39" fill="#231f20"/>
  <rect x="531.2" y="14.64" width="13.39" height="13.39" fill="#231f20"/>
  <rect x="489.25" y="14.64" width="13.39" height="13.39" fill="#231f20"/>
  <rect x="447.29" y="14.64" width="13.39" height="13.39" fill="#231f20"/>
  <rect x="402.19" y="14.64" width="13.39" height="13.39" fill="#231f20"/>
  <rect x="402.19" y="57.25" width="13.39" height="13.39" fill="#231f20"/>
  <rect x="359.33" y="14.64" width="13.39" height="13.39" fill="#231f20"/>
  <rect x="359.33" y="57.25" width="13.39" height="13.39" fill="#231f20"/>
  <rect x="101.9" y="14.64" width="13.39" height="13.39" fill="#231f20"/>
  <rect x="316.02" y="57.25" width="13.39" height="13.39" fill="#231f20"/>
  <rect x="661.33" y="57.25" width="13.39" height="13.39" fill="#231f20"/>
  <rect x="835.41" y="57.25" width="13.39" height="13.39" fill="#231f20"/>
  <rect x="790.93" y="57.25" width="13.39" height="13.39" fill="#231f20"/>
  <rect x="921.42" y="57.25" width="13.39" height="13.39" fill="#231f20"/>
  <rect x="877.33" y="57.25" width="13.39" height="13.39" fill="#231f20"/>
  <rect x="835.41" y="144.65" width="13.39" height="13.39" fill="#231f20"/>
  <rect x="835.41" y="102" width="13.39" height="13.39" fill="#231f20"/>
  <rect x="921.42" y="144.65" width="13.39" height="13.39" fill="#231f20"/>
  <rect x="963.89" y="144.65" width="13.39" height="13.39" fill="#231f20"/>
  <rect x="921.42" y="231.4" width="13.39" height="13.39" fill="#231f20"/>
  <rect x="877.33" y="231.4" width="13.39" height="13.39" fill="#231f20"/>
  <rect x="963.89" y="231.4" width="13.39" height="13.39" fill="#231f20"/>
  <rect x="963.89" y="57.25" width="13.39" height="13.39" fill="#231f20"/>
  <rect x="1008.91" y="57.25" width="13.39" height="13.39" fill="#231f20"/>
  <rect x="1051.39" y="57.25" width="13.39" height="13.39" fill="#231f20"/>
  <rect x="1008.91" y="144.65" width="13.39" height="13.39" fill="#231f20"/>
  <rect x="1051.39" y="144.65" width="13.39" height="13.39" fill="#231f20"/>
  <rect x="1008.91" y="14.64" width="13.39" height="13.39" fill="#231f20"/>
  <rect x="1051.39" y="14.64" width="13.39" height="13.39" fill="#231f20"/>
  <rect x="921.42" y="102" width="13.39" height="13.39" fill="#231f20"/>
  <rect x="790.93" y="144.65" width="13.39" height="13.39" fill="#231f20"/>
  <rect x="748.07" y="144.65" width="13.39" height="13.39" fill="#231f20"/>
  <rect x="705.42" y="145.24" width="13.39" height="13.39" fill="#231f20"/>
  <rect x="661.33" y="145.24" width="13.39" height="13.39" fill="#231f20"/>
  <rect x="489.25" y="189.13" width="13.39" height="13.39" fill="#231f20"/>
  <rect x="489.25" y="145.68" width="13.39" height="13.39" fill="#231f20"/>
  <rect x="447.29" y="189.13" width="13.39" height="13.39" fill="#231f20"/>
  <rect x="402.64" y="189.13" width="13.39" height="13.39" fill="#231f20"/>
  <rect x="359.33" y="189.13" width="13.39" height="13.39" fill="#231f20"/>
  <rect x="402.64" y="102" width="13.39" height="13.39" fill="#231f20"/>
  <rect x="402.64" y="145.03" width="13.39" height="13.39" fill="#231f20"/>
  <rect x="359.33" y="102" width="13.39" height="13.39" fill="#231f20"/>
  <rect x="447.29" y="145.68" width="13.39" height="13.39" fill="#231f20"/>
  <rect x="530.1" y="188.49" width="13.39" height="13.39" fill="#231f20"/>
  <rect x="530.1" y="145.66" width="13.39" height="13.39" fill="#231f20"/>
  <rect x="530.1" y="101.5" width="13.39" height="13.39" fill="#231f20"/>
  <rect x="618.13" y="231.96" width="13.39" height="13.39" fill="#231f20"/>
  <rect x="575.15" y="231.96" width="13.39" height="13.39" fill="#231f20"/>
  <rect x="575.15" y="189.13" width="13.39" height="13.39" fill="#231f20"/>
  <rect x="749.36" y="318.29" width="13.39" height="13.39" fill="#231f20"/>
  <rect x="707.05" y="318.29" width="13.39" height="13.39" fill="#231f20"/>
  <rect x="707.05" y="273.89" width="13.39" height="13.39" fill="#231f20"/>
  <rect x="661.47" y="361.14" width="13.39" height="13.39" fill="#231f20"/>
  <rect x="618.28" y="361.54" width="13.39" height="13.39" fill="#231f20"/>
  <rect x="879.99" y="405.37" width="13.39" height="13.39" fill="#231f20"/>
  <rect x="880.14" y="361.54" width="13.39" height="13.39" fill="#231f20"/>
  <rect x="920.42" y="361.54" width="13.39" height="13.39" fill="#231f20"/>
  <rect x="920.42" y="403.76" width="13.39" height="13.39" fill="#231f20"/>
  <rect x="966.36" y="361.54" width="13.39" height="13.39" fill="#231f20"/>
  <rect x="921.1" y="275.16" width="13.39" height="13.39" fill="#231f20"/>
  <rect x="966.36" y="275.16" width="13.39" height="13.39" fill="#231f20"/>
  <rect x="966.36" y="318.15" width="13.39" height="13.39" fill="#231f20"/>
  <rect x="1011.63" y="318.15" width="13.39" height="13.39" fill="#231f20"/>
  <rect x="359.23" y="273.89" width="13.39" height="13.39" fill="#231f20"/>
  <rect x="186.79" y="404.62" width="13.39" height="13.39" fill="#231f20"/>
  <rect x="229.59" y="404.62" width="13.39" height="13.39" fill="#231f20"/>
  <rect x="143.48" y="188.62" width="13.39" height="13.39" fill="#231f20"/>
  <rect x="186.79" y="188.57" width="13.39" height="13.39" fill="#231f20"/>
  <rect x="229.59" y="188.57" width="13.39" height="13.39" fill="#231f20"/>
  <rect x="15.48" y="14.64" width="13.39" height="13.39" fill="#231f20"/>
  <rect x="143.48" y="231.93" width="13.39" height="13.39" fill="#231f20"/>
  <rect x="186.79" y="231.88" width="13.39" height="13.39" fill="#231f20"/>
  <rect x="229.59" y="231.88" width="13.39" height="13.39" fill="#231f20"/>
  <rect x="229.59" y="275.05" width="13.39" height="13.39" fill="#231f20"/>
  <rect x="273.17" y="101.92" width="13.39" height="13.39" fill="#231f20"/>
  <rect x="273.17" y="145.23" width="13.39" height="13.39" fill="#231f20"/>
  <rect x="59.05" y="14.64" width="13.39" height="13.39" fill="#231f20"/>
  <rect x="273.17" y="57.25" width="13.39" height="13.39" fill="#231f20"/>
  <rect x="143.48" y="14.35" width="13.39" height="13.39" fill="#231f20"/>
  <rect x="143.48" y="57.66" width="13.39" height="13.39" fill="#231f20"/>
  <rect x="273.17" y="188.4" width="13.39" height="13.39" fill="#231f20"/>
  <rect x="316.02" y="101.92" width="13.39" height="13.39" fill="#231f20"/>
  <rect x="316.02" y="145.23" width="13.39" height="13.39" fill="#231f20"/>
  <rect x="316.02" y="188.4" width="13.39" height="13.39" fill="#231f20"/>
  <rect x="316.02" y="231.15" width="13.39" height="13.39" fill="#231f20"/>
  <rect x="359.33" y="231.15" width="13.39" height="13.39" fill="#231f20"/>
  <rect x="316.02" y="273.89" width="13.39" height="13.39" fill="#231f20"/>
  <rect x="316.02" y="317.06" width="13.39" height="13.39" fill="#231f20"/>
</svg>