<?xml version="1.0" encoding="UTF-8"?>
<svg id="_15" data-name="15" xmlns="http://www.w3.org/2000/svg" viewBox="0 0 1080 1080">
  <rect x="433.32" y="821.73" width="40.85" height="40.85" fill="#231f20"/>
  <rect x="476.5" y="821.73" width="40.85" height="40.85" fill="#231f20"/>
  <rect x="519.67" y="821.73" width="40.85" height="40.85" fill="#231f20"/>
  <rect x="562.84" y="821.73" width="40.85" height="40.85" fill="#231f20"/>
  <rect x="606.01" y="821.73" width="40.85" height="40.85" fill="#231f20"/>
  <rect x="649.19" y="821.73" width="40.85" height="40.85" fill="#231f20"/>
  <rect x="692.36" y="821.73" width="40.85" height="40.85" fill="#231f20"/>
  <rect x="433.32" y="778.54" width="40.85" height="40.85" fill="#231f20"/>
  <rect x="476.5" y="778.54" width="40.85" height="40.85" fill="#231f20"/>
  <rect x="519.67" y="778.54" width="40.85" height="40.85" fill="#231f20"/>
  <rect x="562.84" y="778.54" width="40.85" height="40.85" fill="#231f20"/>
  <rect x="606.01" y="778.54" width="40.85" height="40.85" fill="#231f20"/>
  <rect x="649.19" y="778.54" width="40.85" height="40.85" fill="#231f20"/>
  <rect x="692.36" y="778.54" width="40.85" height="40.85" fill="#231f20"/>
  <rect x="476.5" y="735.35" width="40.85" height="40.85" fill="#231f20"/>
  <rect x="519.67" y="735.35" width="40.85" height="40.85" fill="#231f20"/>
  <rect x="562.84" y="735.35" width="40.85" height="40.85" fill="#231f20"/>
  <rect x="606.01" y="735.35" width="40.85" height="40.85" fill="#231f20"/>
  <rect x="649.19" y="735.35" width="40.85" height="40.85" fill="#231f20"/>
  <rect x="692.36" y="735.35" width="40.85" height="40.85" fill="#231f20"/>
  <rect x="476.5" y="692.16" width="40.85" height="40.85" fill="#231f20"/>
  <rect x="519.67" y="692.16" width="40.85" height="40.85" fill="#231f20"/>
  <rect x="562.84" y="692.16" width="40.85" height="40.85" fill="#231f20"/>
  <rect x="606.01" y="692.16" width="40.85" height="40.85" fill="#231f20"/>
  <rect x="649.19" y="692.16" width="40.85" height="40.85" fill="#231f20"/>
  <rect x="562.84" y="648.97" width="40.85" height="40.85" fill="#231f20"/>
  <rect x="606.01" y="648.97" width="40.85" height="40.85" fill="#231f20"/>
  <rect x="649.19" y="648.97" width="40.85" height="40.85" fill="#231f20"/>
  <rect x="562.84" y="605.78" width="40.85" height="40.85" fill="#231f20"/>
  <rect x="606.01" y="605.78" width="40.85" height="40.85" fill="#231f20"/>
  <rect x="649.19" y="605.78" width="40.85" height="40.85" fill="#231f20"/>
  <rect x="562.84" y="562.48" width="40.85" height="40.85" fill="#231f20"/>
  <rect x="606.01" y="562.48" width="40.85" height="40.85" fill="#231f20"/>
  <rect x="649.19" y="562.48" width="40.85" height="40.85" fill="#231f20"/>
  <rect x="562.84" y="519.29" width="40.85" height="40.85" fill="#231f20"/>
  <rect x="606.01" y="519.29" width="40.85" height="40.85" fill="#231f20"/>
  <rect x="649.19" y="519.29" width="40.85" height="40.85" fill="#231f20"/>
  <rect x="562.84" y="476.1" width="40.85" height="40.85" fill="#231f20"/>
  <rect x="606.01" y="476.1" width="40.85" height="40.85" fill="#231f20"/>
  <rect x="649.19" y="476.1" width="40.85" height="40.85" fill="#231f20"/>
  <rect x="562.84" y="432.91" width="40.85" height="40.85" fill="#231f20"/>
  <rect x="606.01" y="432.91" width="40.85" height="40.85" fill="#231f20"/>
  <rect x="390.15" y="476.1" width="40.85" height="40.85" fill="#231f20"/>
  <rect x="433.32" y="476.1" width="40.85" height="40.85" fill="#231f20"/>
  <rect x="390.15" y="432.91" width="40.85" height="40.85" fill="#231f20"/>
  <rect x="433.32" y="432.91" width="40.85" height="40.85" fill="#231f20"/>
  <rect x="649.19" y="432.91" width="40.85" height="40.85" fill="#231f20"/>
  <rect x="562.84" y="389.72" width="40.85" height="40.85" fill="#231f20"/>
  <rect x="606.01" y="389.72" width="40.85" height="40.85" fill="#231f20"/>
  <rect x="649.19" y="389.72" width="40.85" height="40.85" fill="#231f20"/>
  <rect x="562.84" y="346.53" width="40.85" height="40.85" fill="#231f20"/>
  <rect x="606.01" y="346.53" width="40.85" height="40.85" fill="#231f20"/>
  <rect x="649.19" y="346.53" width="40.85" height="40.85" fill="#231f20"/>
  <rect x="562.84" y="303.34" width="40.85" height="40.85" fill="#231f20"/>
  <rect x="606.01" y="303.34" width="40.85" height="40.85" fill="#231f20"/>
  <rect x="649.19" y="303.34" width="40.85" height="40.85" fill="#231f20"/>
  <rect x="173.83" y="1037.88" width="40.85" height="40.85" fill="#231f20"/>
  <rect x="217.01" y="1037.88" width="40.85" height="40.85" fill="#231f20"/>
  <rect x="260.18" y="1037.88" width="40.85" height="40.85" fill="#231f20"/>
  <rect x="173.83" y="994.69" width="40.85" height="40.85" fill="#231f20"/>
  <rect x="217.01" y="994.69" width="40.85" height="40.85" fill="#231f20"/>
  <rect x="260.18" y="994.69" width="40.85" height="40.85" fill="#231f20"/>
  <rect x="173.83" y="951.39" width="40.85" height="40.85" fill="#231f20"/>
  <rect x="217.01" y="951.39" width="40.85" height="40.85" fill="#231f20"/>
  <rect x="260.18" y="951.39" width="40.85" height="40.85" fill="#231f20"/>
  <rect x="173.83" y="908.2" width="40.85" height="40.85" fill="#231f20"/>
  <rect x="217.01" y="908.2" width="40.85" height="40.85" fill="#231f20"/>
  <rect x="260.18" y="908.2" width="40.85" height="40.85" fill="#231f20"/>
  <rect x="173.83" y="865.01" width="40.85" height="40.85" fill="#231f20"/>
  <rect x="217.01" y="865.01" width="40.85" height="40.85" fill="#231f20"/>
  <rect x="260.18" y="865.01" width="40.85" height="40.85" fill="#231f20"/>
  <rect x="173.83" y="821.82" width="40.85" height="40.85" fill="#231f20"/>
  <rect x="217.01" y="821.82" width="40.85" height="40.85" fill="#231f20"/>
  <rect x="260.18" y="821.82" width="40.85" height="40.85" fill="#231f20"/>
  <rect x="173.83" y="778.63" width="40.85" height="40.85" fill="#231f20"/>
  <rect x="217.01" y="778.63" width="40.85" height="40.85" fill="#231f20"/>
  <rect x="260.18" y="778.63" width="40.85" height="40.85" fill="#231f20"/>
  <rect x="173.83" y="735.44" width="40.85" height="40.85" fill="#231f20"/>
  <rect x="130.97" y="735.44" width="40.85" height="40.85" fill="#231f20"/>
  <rect x="217.01" y="735.44" width="40.85" height="40.85" fill="#231f20"/>
  <rect x="260.18" y="735.44" width="40.85" height="40.85" fill="#231f20"/>
  <rect x="173.83" y="692.25" width="40.85" height="40.85" fill="#231f20"/>
  <rect x="217.01" y="692.25" width="40.85" height="40.85" fill="#231f20"/>
  <rect x="260.18" y="692.25" width="40.85" height="40.85" fill="#231f20"/>
  <rect x="173.83" y="648.97" width="40.85" height="40.85" fill="#231f20"/>
  <rect x="217.01" y="648.97" width="40.85" height="40.85" fill="#231f20"/>
  <rect x="260.18" y="648.97" width="40.85" height="40.85" fill="#231f20"/>
  <rect x="173.83" y="605.78" width="40.85" height="40.85" fill="#231f20"/>
  <rect x="217.01" y="605.78" width="40.85" height="40.85" fill="#231f20"/>
  <rect x="260.18" y="605.78" width="40.85" height="40.85" fill="#231f20"/>
  <rect x="173.83" y="562.59" width="40.85" height="40.85" fill="#231f20"/>
  <rect x="217.01" y="562.59" width="40.85" height="40.85" fill="#231f20"/>
  <rect x="260.18" y="562.59" width="40.85" height="40.85" fill="#231f20"/>
  <rect x="217.01" y="519.29" width="40.85" height="40.85" fill="#231f20"/>
  <rect x="260.18" y="519.29" width="40.85" height="40.85" fill="#231f20"/>
  <rect x="217.01" y="476.1" width="40.85" height="40.85" fill="#231f20"/>
  <rect x="260.18" y="476.1" width="40.85" height="40.85" fill="#231f20"/>
  <rect x="217.01" y="432.91" width="40.85" height="40.85" fill="#231f20"/>
  <rect x="260.18" y="432.91" width="40.85" height="40.85" fill="#231f20"/>
  <rect x="260.18" y="216.81" width="40.85" height="40.85" fill="#231f20"/>
  <rect x="260.18" y="173.51" width="40.85" height="40.85" fill="#231f20"/>
  <rect x="260.18" y="130.32" width="40.85" height="40.85" fill="#231f20"/>
  <rect x="260.18" y="87.13" width="40.85" height="40.85" fill="#231f20"/>
  <rect x="562.84" y="259.97" width="40.85" height="40.85" fill="#231f20"/>
  <rect x="606.01" y="259.97" width="40.85" height="40.85" fill="#231f20"/>
  <rect x="649.19" y="259.97" width="40.85" height="40.85" fill="#231f20"/>
  <rect x="562.84" y="216.78" width="40.85" height="40.85" fill="#231f20"/>
  <rect x="606.01" y="216.78" width="40.85" height="40.85" fill="#231f20"/>
  <rect x="649.19" y="216.78" width="40.85" height="40.85" fill="#231f20"/>
  <rect x="562.84" y="173.59" width="40.85" height="40.85" fill="#231f20"/>
  <rect x="606.01" y="173.59" width="40.85" height="40.85" fill="#231f20"/>
  <rect x="649.19" y="173.59" width="40.85" height="40.85" fill="#231f20"/>
  <rect x="562.84" y="130.39" width="40.85" height="40.85" fill="#231f20"/>
  <rect x="606.01" y="130.39" width="40.85" height="40.85" fill="#231f20"/>
  <rect x="606.01" y="87.2" width="40.85" height="40.85" fill="#231f20"/>
  <rect x="562.84" y="87.2" width="40.85" height="40.85" fill="#231f20"/>
  <rect x="390.15" y="389.72" width="40.85" height="40.85" fill="#231f20"/>
  <rect x="433.32" y="389.72" width="40.85" height="40.85" fill="#231f20"/>
  <rect x="390.15" y="346.53" width="40.85" height="40.85" fill="#231f20"/>
  <rect x="433.32" y="346.53" width="40.85" height="40.85" fill="#231f20"/>
  <rect x="390.15" y="303.34" width="40.85" height="40.85" fill="#231f20"/>
  <rect x="433.32" y="303.34" width="40.85" height="40.85" fill="#231f20"/>
  <rect x="390.15" y="259.97" width="40.85" height="40.85" fill="#231f20"/>
  <rect x="433.32" y="259.97" width="40.85" height="40.85" fill="#231f20"/>
  <rect x="390.15" y="216.78" width="40.85" height="40.85" fill="#231f20"/>
  <rect x="433.32" y="216.78" width="40.85" height="40.85" fill="#231f20"/>
  <rect x="390.15" y="173.59" width="40.85" height="40.85" fill="#231f20"/>
  <rect x="433.32" y="173.59" width="40.85" height="40.85" fill="#231f20"/>
  <rect x="390.15" y="130.39" width="40.85" height="40.85" fill="#231f20"/>
  <rect x="433.32" y="130.39" width="40.85" height="40.85" fill="#231f20"/>
  <rect x="433.32" y="87.2" width="40.85" height="40.85" fill="#231f20"/>
  <rect x="390.15" y="87.2" width="40.85" height="40.85" fill="#231f20"/>
  <rect x="476.5" y="130.39" width="40.85" height="40.85" fill="#231f20"/>
  <rect x="519.67" y="87.2" width="40.85" height="40.85" fill="#231f20"/>
  <rect x="476.5" y="87.2" width="40.85" height="40.85" fill="#231f20"/>
  <rect x="692.36" y="692.16" width="40.85" height="40.85" fill="#231f20"/>
  <rect x="735.53" y="692.16" width="40.85" height="40.85" fill="#231f20"/>
  <rect x="735.53" y="735.33" width="40.85" height="40.85" fill="#231f20"/>
  <rect x="735.53" y="778.54" width="40.85" height="40.85" fill="#231f20"/>
  <rect x="403.89" y="835.46" width="13.4" height="13.4" fill="#231f20"/>
  <rect x="403.89" y="792.27" width="13.4" height="13.4" fill="#231f20"/>
  <rect x="447.05" y="749.06" width="13.4" height="13.4" fill="#231f20"/>
  <rect x="447.05" y="705.87" width="13.4" height="13.4" fill="#231f20"/>
  <rect x="403.89" y="749.06" width="13.4" height="13.4" fill="#231f20"/>
  <rect x="403.89" y="705.87" width="13.4" height="13.4" fill="#231f20"/>
  <rect x="447.05" y="662.7" width="13.4" height="13.4" fill="#231f20"/>
  <rect x="403.89" y="662.7" width="13.4" height="13.4" fill="#231f20"/>
  <rect x="533.49" y="662.7" width="13.4" height="13.4" fill="#231f20"/>
  <rect x="490.32" y="662.7" width="13.4" height="13.4" fill="#231f20"/>
  <rect x="447.05" y="619.66" width="13.4" height="13.4" fill="#231f20"/>
  <rect x="403.89" y="619.66" width="13.4" height="13.4" fill="#231f20"/>
  <rect x="533.49" y="619.66" width="13.4" height="13.4" fill="#231f20"/>
  <rect x="490.32" y="619.66" width="13.4" height="13.4" fill="#231f20"/>
  <rect x="447.05" y="576.21" width="13.4" height="13.4" fill="#231f20"/>
  <rect x="403.89" y="576.21" width="13.4" height="13.4" fill="#231f20"/>
  <rect x="533.49" y="576.21" width="13.4" height="13.4" fill="#231f20"/>
  <rect x="490.32" y="576.21" width="13.4" height="13.4" fill="#231f20"/>
  <rect x="447.05" y="533.14" width="13.4" height="13.4" fill="#231f20"/>
  <rect x="403.89" y="533.14" width="13.4" height="13.4" fill="#231f20"/>
  <rect x="317.29" y="705.87" width="13.4" height="13.4" fill="#231f20"/>
  <rect x="317.29" y="662.7" width="13.4" height="13.4" fill="#231f20"/>
  <rect x="360.59" y="662.7" width="13.4" height="13.4" fill="#231f20"/>
  <rect x="619.98" y="880.16" width="13.4" height="13.4" fill="#231f20"/>
  <rect x="576.81" y="880.16" width="13.4" height="13.4" fill="#231f20"/>
  <rect x="706.42" y="880.16" width="13.4" height="13.4" fill="#231f20"/>
  <rect x="663.25" y="880.16" width="13.4" height="13.4" fill="#231f20"/>
  <rect x="792.77" y="880.16" width="13.4" height="13.4" fill="#231f20"/>
  <rect x="749.6" y="880.16" width="13.4" height="13.4" fill="#231f20"/>
  <rect x="792.77" y="835.46" width="13.4" height="13.4" fill="#231f20"/>
  <rect x="792.77" y="791.93" width="13.4" height="13.4" fill="#231f20"/>
  <rect x="792.77" y="747.04" width="13.4" height="13.4" fill="#231f20"/>
  <rect x="792.77" y="705.97" width="13.4" height="13.4" fill="#231f20"/>
  <rect x="749.6" y="835.46" width="13.4" height="13.4" fill="#231f20"/>
  <rect x="749.6" y="966.55" width="13.4" height="13.4" fill="#231f20"/>
  <rect x="749.6" y="921.66" width="13.4" height="13.4" fill="#231f20"/>
  <rect x="490.22" y="880.16" width="13.4" height="13.4" fill="#231f20"/>
  <rect x="533.51" y="880.16" width="13.4" height="13.4" fill="#231f20"/>
  <rect x="403.76" y="880.16" width="13.4" height="13.4" fill="#231f20"/>
  <rect x="447.05" y="880.16" width="13.4" height="13.4" fill="#231f20"/>
  <rect x="447.12" y="921.93" width="13.4" height="13.4" fill="#231f20"/>
  <rect x="360.65" y="921.93" width="13.4" height="13.4" fill="#231f20"/>
  <rect x="403.95" y="921.93" width="13.4" height="13.4" fill="#231f20"/>
  <rect x="447.12" y="964.65" width="13.4" height="13.4" fill="#231f20"/>
  <rect x="360.65" y="964.65" width="13.4" height="13.4" fill="#231f20"/>
  <rect x="403.95" y="964.65" width="13.4" height="13.4" fill="#231f20"/>
  <rect x="447.12" y="1051.05" width="13.4" height="13.4" fill="#231f20"/>
  <rect x="360.65" y="1051.05" width="13.4" height="13.4" fill="#231f20"/>
  <rect x="403.95" y="1051.05" width="13.4" height="13.4" fill="#231f20"/>
  <rect x="576.37" y="1051.05" width="13.4" height="13.4" fill="#231f20"/>
  <rect x="489.91" y="1051.05" width="13.4" height="13.4" fill="#231f20"/>
  <rect x="447.12" y="1007.86" width="13.4" height="13.4" fill="#231f20"/>
  <rect x="489.91" y="1007.86" width="13.4" height="13.4" fill="#231f20"/>
  <rect x="621.09" y="1007.86" width="13.4" height="13.4" fill="#231f20"/>
  <rect x="663.89" y="1007.86" width="13.4" height="13.4" fill="#231f20"/>
  <rect x="707.44" y="1007.86" width="13.4" height="13.4" fill="#231f20"/>
  <rect x="750.23" y="1007.86" width="13.4" height="13.4" fill="#231f20"/>
  <rect x="921.78" y="966.55" width="13.4" height="13.4" fill="#231f20"/>
  <rect x="921.78" y="921.66" width="13.4" height="13.4" fill="#231f20"/>
  <rect x="879.46" y="966.55" width="13.4" height="13.4" fill="#231f20"/>
  <rect x="879.46" y="921.66" width="13.4" height="13.4" fill="#231f20"/>
  <rect x="922.4" y="1007.86" width="13.4" height="13.4" fill="#231f20"/>
  <rect x="921.78" y="837.03" width="13.4" height="13.4" fill="#231f20"/>
  <rect x="921.78" y="792.14" width="13.4" height="13.4" fill="#231f20"/>
  <rect x="922.4" y="878.34" width="13.4" height="13.4" fill="#231f20"/>
  <rect x="750.23" y="1051.61" width="13.4" height="13.4" fill="#231f20"/>
  <rect x="621.09" y="1051.61" width="13.4" height="13.4" fill="#231f20"/>
  <rect x="663.89" y="1051.61" width="13.4" height="13.4" fill="#231f20"/>
  <rect x="533.21" y="1051.05" width="13.4" height="13.4" fill="#231f20"/>
  <rect x="317.29" y="619.66" width="13.4" height="13.4" fill="#231f20"/>
  <rect x="317.29" y="576.21" width="13.4" height="13.4" fill="#231f20"/>
  <rect x="317.29" y="533.14" width="13.4" height="13.4" fill="#231f20"/>
  <rect x="317.29" y="490.99" width="13.4" height="13.4" fill="#231f20"/>
  <rect x="317.29" y="447.95" width="13.4" height="13.4" fill="#231f20"/>
  <rect x="317.29" y="404.5" width="13.4" height="13.4" fill="#231f20"/>
  <rect x="317.29" y="361.43" width="13.4" height="13.4" fill="#231f20"/>
  <rect x="360.59" y="447.95" width="13.4" height="13.4" fill="#231f20"/>
  <rect x="360.59" y="404.5" width="13.4" height="13.4" fill="#231f20"/>
  <rect x="360.59" y="533.12" width="13.4" height="13.4" fill="#231f20"/>
  <rect x="360.59" y="489.68" width="13.4" height="13.4" fill="#231f20"/>
  <rect x="360.59" y="361.43" width="13.4" height="13.4" fill="#231f20"/>
  <rect x="360.59" y="316.95" width="13.4" height="13.4" fill="#231f20"/>
  <rect x="360.59" y="273.51" width="13.4" height="13.4" fill="#231f20"/>
  <rect x="360.59" y="230.44" width="13.4" height="13.4" fill="#231f20"/>
  <rect x="360.59" y="187.36" width="13.4" height="13.4" fill="#231f20"/>
  <rect x="490.32" y="447.95" width="13.4" height="13.4" fill="#231f20"/>
  <rect x="490.32" y="404.5" width="13.4" height="13.4" fill="#231f20"/>
  <rect x="490.32" y="489.68" width="13.4" height="13.4" fill="#231f20"/>
  <rect x="490.32" y="361.43" width="13.4" height="13.4" fill="#231f20"/>
  <rect x="490.32" y="316.95" width="13.4" height="13.4" fill="#231f20"/>
  <rect x="490.32" y="273.51" width="13.4" height="13.4" fill="#231f20"/>
  <rect x="490.32" y="230.44" width="13.4" height="13.4" fill="#231f20"/>
  <rect x="490.32" y="187.36" width="13.4" height="13.4" fill="#231f20"/>
  <rect x="533.51" y="447.95" width="13.4" height="13.4" fill="#231f20"/>
  <rect x="533.51" y="404.5" width="13.4" height="13.4" fill="#231f20"/>
  <rect x="533.51" y="489.68" width="13.4" height="13.4" fill="#231f20"/>
  <rect x="533.51" y="361.43" width="13.4" height="13.4" fill="#231f20"/>
  <rect x="533.51" y="316.95" width="13.4" height="13.4" fill="#231f20"/>
  <rect x="533.51" y="273.51" width="13.4" height="13.4" fill="#231f20"/>
  <rect x="533.51" y="230.44" width="13.4" height="13.4" fill="#231f20"/>
  <rect x="533.51" y="187.36" width="13.4" height="13.4" fill="#231f20"/>
  <rect x="360.59" y="143.91" width="13.4" height="13.4" fill="#231f20"/>
  <rect x="360.59" y="100.84" width="13.4" height="13.4" fill="#231f20"/>
  <rect x="360.59" y="57.61" width="13.4" height="13.4" fill="#231f20"/>
  <rect x="317.29" y="1051.05" width="13.4" height="13.4" fill="#231f20"/>
  <rect x="317.29" y="1007.86" width="13.4" height="13.4" fill="#231f20"/>
  <rect x="360.61" y="1007.86" width="13.4" height="13.4" fill="#231f20"/>
  <rect x="317.29" y="964.65" width="13.4" height="13.4" fill="#231f20"/>
  <rect x="317.29" y="921.46" width="13.4" height="13.4" fill="#231f20"/>
  <rect x="317.29" y="880.16" width="13.4" height="13.4" fill="#231f20"/>
  <rect x="317.29" y="835.24" width="13.4" height="13.4" fill="#231f20"/>
  <rect x="317.29" y="791.79" width="13.4" height="13.4" fill="#231f20"/>
  <rect x="317.29" y="748.72" width="13.4" height="13.4" fill="#231f20"/>
  <rect x="101.5" y="1051.48" width="13.4" height="13.4" fill="#231f20"/>
  <rect x="101.5" y="1008.29" width="13.4" height="13.4" fill="#231f20"/>
  <rect x="101.5" y="965.08" width="13.4" height="13.4" fill="#231f20"/>
  <rect x="101.5" y="921.89" width="13.4" height="13.4" fill="#231f20"/>
  <rect x="101.5" y="878.72" width="13.4" height="13.4" fill="#231f20"/>
  <rect x="101.5" y="835.67" width="13.4" height="13.4" fill="#231f20"/>
  <rect x="101.5" y="792.22" width="13.4" height="13.4" fill="#231f20"/>
  <rect x="60.25" y="878.72" width="13.4" height="13.4" fill="#231f20"/>
  <rect x="60.25" y="835.67" width="13.4" height="13.4" fill="#231f20"/>
  <rect x="60.25" y="792.22" width="13.4" height="13.4" fill="#231f20"/>
  <rect x="144.7" y="1051.48" width="13.4" height="13.4" fill="#231f20"/>
  <rect x="144.7" y="1008.29" width="13.4" height="13.4" fill="#231f20"/>
  <rect x="144.7" y="965.08" width="13.4" height="13.4" fill="#231f20"/>
  <rect x="144.7" y="921.89" width="13.4" height="13.4" fill="#231f20"/>
  <rect x="144.7" y="878.72" width="13.4" height="13.4" fill="#231f20"/>
  <rect x="144.7" y="835.67" width="13.4" height="13.4" fill="#231f20"/>
  <rect x="144.7" y="792.22" width="13.4" height="13.4" fill="#231f20"/>
  <rect x="13.79" y="1051.48" width="13.4" height="13.4" fill="#231f20"/>
  <rect x="13.79" y="1008.29" width="13.4" height="13.4" fill="#231f20"/>
  <rect x="13.79" y="965.08" width="13.4" height="13.4" fill="#231f20"/>
  <rect x="60.25" y="1051.48" width="13.4" height="13.4" fill="#231f20"/>
  <rect x="60.25" y="1008.29" width="13.4" height="13.4" fill="#231f20"/>
  <rect x="60.25" y="965.08" width="13.4" height="13.4" fill="#231f20"/>
  <rect x="13.79" y="921.89" width="13.4" height="13.4" fill="#231f20"/>
  <rect x="13.79" y="878.72" width="13.4" height="13.4" fill="#231f20"/>
  <rect x="13.79" y="835.67" width="13.4" height="13.4" fill="#231f20"/>
  <rect x="13.79" y="792.22" width="13.4" height="13.4" fill="#231f20"/>
  <rect x="13.79" y="747.97" width="13.4" height="13.4" fill="#231f20"/>
  <rect x="13.79" y="704.76" width="13.4" height="13.4" fill="#231f20"/>
  <rect x="13.79" y="661.57" width="13.4" height="13.4" fill="#231f20"/>
  <rect x="13.79" y="618.4" width="13.4" height="13.4" fill="#231f20"/>
  <rect x="13.79" y="575.35" width="13.4" height="13.4" fill="#231f20"/>
  <rect x="13.79" y="531.9" width="13.4" height="13.4" fill="#231f20"/>
  <rect x="13.79" y="490.43" width="13.4" height="13.4" fill="#231f20"/>
  <rect x="13.79" y="446.98" width="13.4" height="13.4" fill="#231f20"/>
  <rect x="13.79" y="402.73" width="13.4" height="13.4" fill="#231f20"/>
  <rect x="13.79" y="359.52" width="13.4" height="13.4" fill="#231f20"/>
  <rect x="13.79" y="316.33" width="13.4" height="13.4" fill="#231f20"/>
  <rect x="13.79" y="273.16" width="13.4" height="13.4" fill="#231f20"/>
  <rect x="13.79" y="230.11" width="13.4" height="13.4" fill="#231f20"/>
  <rect x="13.79" y="186.66" width="13.4" height="13.4" fill="#231f20"/>
  <rect x="144.7" y="316.33" width="13.4" height="13.4" fill="#231f20"/>
  <rect x="144.7" y="273.16" width="13.4" height="13.4" fill="#231f20"/>
  <rect x="144.7" y="230.11" width="13.4" height="13.4" fill="#231f20"/>
  <rect x="144.7" y="186.66" width="13.4" height="13.4" fill="#231f20"/>
  <rect x="57.04" y="230.11" width="13.4" height="13.4" fill="#231f20"/>
  <rect x="57.04" y="186.66" width="13.4" height="13.4" fill="#231f20"/>
  <rect x="187.56" y="188.45" width="13.4" height="13.4" fill="#231f20"/>
  <rect x="187.56" y="145.28" width="13.4" height="13.4" fill="#231f20"/>
  <rect x="187.56" y="102.24" width="13.4" height="13.4" fill="#231f20"/>
  <rect x="187.56" y="58.79" width="13.4" height="13.4" fill="#231f20"/>
  <rect x="57.04" y="145.28" width="13.4" height="13.4" fill="#231f20"/>
  <rect x="57.04" y="102.24" width="13.4" height="13.4" fill="#231f20"/>
  <rect x="57.04" y="58.79" width="13.4" height="13.4" fill="#231f20"/>
  <rect x="100.68" y="102.24" width="13.4" height="13.4" fill="#231f20"/>
  <rect x="100.68" y="58.79" width="13.4" height="13.4" fill="#231f20"/>
  <rect x="13.79" y="144.1" width="13.4" height="13.4" fill="#231f20"/>
  <rect x="13.79" y="101.06" width="13.4" height="13.4" fill="#231f20"/>
  <rect x="13.79" y="57.61" width="13.4" height="13.4" fill="#231f20"/>
  <rect x="60.25" y="747.97" width="13.4" height="13.4" fill="#231f20"/>
  <rect x="60.25" y="704.76" width="13.4" height="13.4" fill="#231f20"/>
  <rect x="60.25" y="661.57" width="13.4" height="13.4" fill="#231f20"/>
  <rect x="60.25" y="618.4" width="13.4" height="13.4" fill="#231f20"/>
  <rect x="60.25" y="575.35" width="13.4" height="13.4" fill="#231f20"/>
  <rect x="60.25" y="531.9" width="13.4" height="13.4" fill="#231f20"/>
  <rect x="144.7" y="704.76" width="13.4" height="13.4" fill="#231f20"/>
  <rect x="144.7" y="661.57" width="13.4" height="13.4" fill="#231f20"/>
  <rect x="144.7" y="618.4" width="13.4" height="13.4" fill="#231f20"/>
  <rect x="144.7" y="575.35" width="13.4" height="13.4" fill="#231f20"/>
  <rect x="144.7" y="531.9" width="13.4" height="13.4" fill="#231f20"/>
  <rect x="102.47" y="661.57" width="13.4" height="13.4" fill="#231f20"/>
  <rect x="102.47" y="704.76" width="13.4" height="13.4" fill="#231f20"/>
  <rect x="102.47" y="618.4" width="13.4" height="13.4" fill="#231f20"/>
  <rect x="102.47" y="575.35" width="13.4" height="13.4" fill="#231f20"/>
  <rect x="102.47" y="531.9" width="13.4" height="13.4" fill="#231f20"/>
  <rect x="101.5" y="749.16" width="13.4" height="13.4" fill="#231f20"/>
  <rect x="533.49" y="533.14" width="13.4" height="13.4" fill="#231f20"/>
  <rect x="706.08" y="662.7" width="13.4" height="13.4" fill="#231f20"/>
  <rect x="706.08" y="619.66" width="13.4" height="13.4" fill="#231f20"/>
  <rect x="706.08" y="576.21" width="13.4" height="13.4" fill="#231f20"/>
  <rect x="706.1" y="447.95" width="13.4" height="13.4" fill="#231f20"/>
  <rect x="706.1" y="404.5" width="13.4" height="13.4" fill="#231f20"/>
  <rect x="706.1" y="489.68" width="13.4" height="13.4" fill="#231f20"/>
  <rect x="706.1" y="361.43" width="13.4" height="13.4" fill="#231f20"/>
  <rect x="706.1" y="316.95" width="13.4" height="13.4" fill="#231f20"/>
  <rect x="706.1" y="273.51" width="13.4" height="13.4" fill="#231f20"/>
  <rect x="706.1" y="230.44" width="13.4" height="13.4" fill="#231f20"/>
  <rect x="749.27" y="316.95" width="13.4" height="13.4" fill="#231f20"/>
  <rect x="749.27" y="273.51" width="13.4" height="13.4" fill="#231f20"/>
  <rect x="749.27" y="230.44" width="13.4" height="13.4" fill="#231f20"/>
  <rect x="706.1" y="187.36" width="13.4" height="13.4" fill="#231f20"/>
  <rect x="662.92" y="144.07" width="13.4" height="13.4" fill="#231f20"/>
  <rect x="662.92" y="100.62" width="13.4" height="13.4" fill="#231f20"/>
  <rect x="662.92" y="57.55" width="13.4" height="13.4" fill="#231f20"/>
  <rect x="662.92" y="14.47" width="13.4" height="13.4" fill="#231f20"/>
  <rect x="706.1" y="144.07" width="13.4" height="13.4" fill="#231f20"/>
  <rect x="706.1" y="57.55" width="13.4" height="13.4" fill="#231f20"/>
  <rect x="706.1" y="14.47" width="13.4" height="13.4" fill="#231f20"/>
  <rect x="749.27" y="57.55" width="13.4" height="13.4" fill="#231f20"/>
  <rect x="533.34" y="57.55" width="13.4" height="13.4" fill="#231f20"/>
  <rect x="576.52" y="57.55" width="13.4" height="13.4" fill="#231f20"/>
  <rect x="403.89" y="57.55" width="13.4" height="13.4" fill="#231f20"/>
  <rect x="447.07" y="57.55" width="13.4" height="13.4" fill="#231f20"/>
  <rect x="619.7" y="57.55" width="13.4" height="13.4" fill="#231f20"/>
  <rect x="749.27" y="14.47" width="13.4" height="13.4" fill="#231f20"/>
  <rect x="749.27" y="145.16" width="13.4" height="13.4" fill="#231f20"/>
  <rect x="749.27" y="187.24" width="13.4" height="13.4" fill="#231f20"/>
  <rect x="749.27" y="102.08" width="13.4" height="13.4" fill="#231f20"/>
  <rect x="792.44" y="57.55" width="13.4" height="13.4" fill="#231f20"/>
  <rect x="792.44" y="14.47" width="13.4" height="13.4" fill="#231f20"/>
  <rect x="792.44" y="145.16" width="13.4" height="13.4" fill="#231f20"/>
  <rect x="792.44" y="102.08" width="13.4" height="13.4" fill="#231f20"/>
  <rect x="878.79" y="57.55" width="13.4" height="13.4" fill="#231f20"/>
  <rect x="835.62" y="14.47" width="13.4" height="13.4" fill="#231f20"/>
  <rect x="878.79" y="145.16" width="13.4" height="13.4" fill="#231f20"/>
  <rect x="878.79" y="187.24" width="13.4" height="13.4" fill="#231f20"/>
  <rect x="878.79" y="230.54" width="13.4" height="13.4" fill="#231f20"/>
  <rect x="878.79" y="102.08" width="13.4" height="13.4" fill="#231f20"/>
  <rect x="835.62" y="57.55" width="13.4" height="13.4" fill="#231f20"/>
  <rect x="835.62" y="102.08" width="13.4" height="13.4" fill="#231f20"/>
  <rect x="706.08" y="533.14" width="13.4" height="13.4" fill="#231f20"/>
  <rect x="749.25" y="662.7" width="13.4" height="13.4" fill="#231f20"/>
  <rect x="749.25" y="619.66" width="13.4" height="13.4" fill="#231f20"/>
  <rect x="792.77" y="619.66" width="13.4" height="13.4" fill="#231f20"/>
  <rect x="749.25" y="576.21" width="13.4" height="13.4" fill="#231f20"/>
  <rect x="792.77" y="662.7" width="13.4" height="13.4" fill="#231f20"/>
  <rect x="792.77" y="491.12" width="13.4" height="13.4" fill="#231f20"/>
  <rect x="792.77" y="447.68" width="13.4" height="13.4" fill="#231f20"/>
  <rect x="749.27" y="447.95" width="13.4" height="13.4" fill="#231f20"/>
  <rect x="749.27" y="404.5" width="13.4" height="13.4" fill="#231f20"/>
  <rect x="749.27" y="489.68" width="13.4" height="13.4" fill="#231f20"/>
  <rect x="749.27" y="361.43" width="13.4" height="13.4" fill="#231f20"/>
  <rect x="749.25" y="533.14" width="13.4" height="13.4" fill="#231f20"/>
  <rect x="490.32" y="533.14" width="13.4" height="13.4" fill="#231f20"/>
</svg>