<?xml version="1.0" encoding="UTF-8"?>
<svg id="_16" data-name="16" xmlns="http://www.w3.org/2000/svg" viewBox="0 0 1080 1080">
  <rect x="519.85" y="389.83" width="40.84" height="40.84" fill="#231f20"/>
  <rect x="563.15" y="389.83" width="40.84" height="40.84" fill="#231f20"/>
  <rect x="519.85" y="433.12" width="40.84" height="40.84" fill="#231f20"/>
  <rect x="563.15" y="433.12" width="40.84" height="40.84" fill="#231f20"/>
  <rect x="606.46" y="389.83" width="40.84" height="40.84" fill="#231f20"/>
  <rect x="649.77" y="389.83" width="40.84" height="40.84" fill="#231f20"/>
  <rect x="606.46" y="433.12" width="40.84" height="40.84" fill="#231f20"/>
  <rect x="649.77" y="433.12" width="40.84" height="40.84" fill="#231f20"/>
  <rect x="692.7" y="389.83" width="40.84" height="40.84" fill="#231f20"/>
  <rect x="736" y="389.83" width="40.84" height="40.84" fill="#231f20"/>
  <rect x="692.7" y="433.12" width="40.84" height="40.84" fill="#231f20"/>
  <rect x="736" y="433.12" width="40.84" height="40.84" fill="#231f20"/>
  <rect x="692.7" y="476.42" width="40.84" height="40.84" fill="#231f20"/>
  <rect x="692.7" y="519.53" width="40.84" height="40.84" fill="#231f20"/>
  <rect x="736" y="476.42" width="40.84" height="40.84" fill="#231f20"/>
  <rect x="736" y="519.72" width="40.84" height="40.84" fill="#231f20"/>
  <rect x="347.29" y="389.83" width="40.84" height="40.84" fill="#231f20"/>
  <rect x="390.26" y="389.83" width="40.84" height="40.84" fill="#231f20"/>
  <rect x="347.29" y="433.12" width="40.84" height="40.84" fill="#231f20"/>
  <rect x="390.26" y="433.12" width="40.84" height="40.84" fill="#231f20"/>
  <rect x="433.7" y="389.83" width="40.84" height="40.84" fill="#231f20"/>
  <rect x="476.54" y="389.83" width="40.84" height="40.84" fill="#231f20"/>
  <rect x="519.85" y="346.65" width="40.84" height="40.84" fill="#231f20"/>
  <rect x="563.15" y="346.65" width="40.84" height="40.84" fill="#231f20"/>
  <rect x="606.46" y="346.65" width="40.84" height="40.84" fill="#231f20"/>
  <rect x="649.77" y="346.65" width="40.84" height="40.84" fill="#231f20"/>
  <rect x="692.7" y="346.71" width="40.84" height="40.84" fill="#231f20"/>
  <rect x="736" y="346.71" width="40.84" height="40.84" fill="#231f20"/>
  <rect x="692.7" y="303.54" width="40.84" height="40.84" fill="#231f20"/>
  <rect x="649.58" y="303.54" width="40.84" height="40.84" fill="#231f20"/>
  <rect x="736" y="303.54" width="40.84" height="40.84" fill="#231f20"/>
  <rect x="822.24" y="87.32" width="40.84" height="40.84" fill="#231f20"/>
  <rect x="822.24" y="130.62" width="40.84" height="40.84" fill="#231f20"/>
  <rect x="822.24" y="173.92" width="40.84" height="40.84" fill="#231f20"/>
  <rect x="822.24" y="217.22" width="40.84" height="40.84" fill="#231f20"/>
  <rect x="822.24" y="260.37" width="40.84" height="40.84" fill="#231f20"/>
  <rect x="822.24" y="44.21" width="40.84" height="40.84" fill="#231f20"/>
  <rect x="822.24" y="1.04" width="40.84" height="40.84" fill="#231f20"/>
  <rect x="952.16" y="519.32" width="40.84" height="40.84" fill="#231f20"/>
  <rect x="952.16" y="562.62" width="40.84" height="40.84" fill="#231f20"/>
  <rect x="952.16" y="605.92" width="40.84" height="40.84" fill="#231f20"/>
  <rect x="952.16" y="649.22" width="40.84" height="40.84" fill="#231f20"/>
  <rect x="952.16" y="692.35" width="40.84" height="40.84" fill="#231f20"/>
  <rect x="952.16" y="778.78" width="40.84" height="40.84" fill="#231f20"/>
  <rect x="952.16" y="822.08" width="40.84" height="40.84" fill="#231f20"/>
  <rect x="995.14" y="778.78" width="40.84" height="40.84" fill="#231f20"/>
  <rect x="995.14" y="822.08" width="40.84" height="40.84" fill="#231f20"/>
  <rect x="952.16" y="865.38" width="40.84" height="40.84" fill="#231f20"/>
  <rect x="952.16" y="908.53" width="40.84" height="40.84" fill="#231f20"/>
  <rect x="952.16" y="951.34" width="40.84" height="40.84" fill="#231f20"/>
  <rect x="952.16" y="994.64" width="40.84" height="40.84" fill="#231f20"/>
  <rect x="952.16" y="1037.79" width="40.84" height="40.84" fill="#231f20"/>
  <rect x="952.16" y="476.21" width="40.84" height="40.84" fill="#231f20"/>
  <rect x="952.16" y="433.04" width="40.84" height="40.84" fill="#231f20"/>
  <rect x="347.29" y="346.65" width="40.84" height="40.84" fill="#231f20"/>
  <rect x="303.85" y="389.83" width="40.84" height="40.84" fill="#231f20"/>
  <rect x="303.85" y="433.12" width="40.84" height="40.84" fill="#231f20"/>
  <rect x="303.85" y="346.65" width="40.84" height="40.84" fill="#231f20"/>
  <rect x="260.87" y="389.83" width="40.84" height="40.84" fill="#231f20"/>
  <rect x="260.87" y="346.65" width="40.84" height="40.84" fill="#231f20"/>
  <rect x="217.43" y="389.83" width="40.84" height="40.84" fill="#231f20"/>
  <rect x="217.43" y="346.65" width="40.84" height="40.84" fill="#231f20"/>
  <rect x="303.85" y="303.48" width="40.84" height="40.84" fill="#231f20"/>
  <rect x="347.05" y="303.48" width="40.84" height="40.84" fill="#231f20"/>
  <rect x="390.14" y="303.48" width="40.84" height="40.84" fill="#231f20"/>
  <rect x="303.85" y="260.31" width="40.84" height="40.84" fill="#231f20"/>
  <rect x="347.29" y="260.31" width="40.84" height="40.84" fill="#231f20"/>
  <rect x="260.87" y="303.48" width="40.84" height="40.84" fill="#231f20"/>
  <rect x="260.87" y="260.31" width="40.84" height="40.84" fill="#231f20"/>
  <rect x="217.43" y="303.48" width="40.84" height="40.84" fill="#231f20"/>
  <rect x="217.43" y="260.31" width="40.84" height="40.84" fill="#231f20"/>
  <rect x="260.87" y="217.09" width="40.84" height="40.84" fill="#231f20"/>
  <rect x="260.87" y="173.91" width="40.84" height="40.84" fill="#231f20"/>
  <rect x="217.43" y="217.09" width="40.84" height="40.84" fill="#231f20"/>
  <rect x="217.43" y="173.91" width="40.84" height="40.84" fill="#231f20"/>
  <rect x="260.87" y="130.74" width="40.84" height="40.84" fill="#231f20"/>
  <rect x="260.87" y="87.57" width="40.84" height="40.84" fill="#231f20"/>
  <rect x="303.83" y="130.74" width="40.84" height="40.84" fill="#231f20"/>
  <rect x="303.83" y="87.57" width="40.84" height="40.84" fill="#231f20"/>
  <rect x="217.43" y="130.74" width="40.84" height="40.84" fill="#231f20"/>
  <rect x="217.43" y="87.57" width="40.84" height="40.84" fill="#231f20"/>
  <rect x="260.87" y="44.31" width="40.84" height="40.84" fill="#231f20"/>
  <rect x="260.87" y="1.14" width="40.84" height="40.84" fill="#231f20"/>
  <rect x="217.43" y="44.31" width="40.84" height="40.84" fill="#231f20"/>
  <rect x="217.43" y="1.14" width="40.84" height="40.84" fill="#231f20"/>
  <rect x="347.27" y="44.31" width="40.84" height="40.84" fill="#231f20"/>
  <rect x="347.27" y="1.14" width="40.84" height="40.84" fill="#231f20"/>
  <rect x="303.83" y="44.31" width="40.84" height="40.84" fill="#231f20"/>
  <rect x="303.83" y="1.14" width="40.84" height="40.84" fill="#231f20"/>
  <rect x="433.67" y="44.31" width="40.84" height="40.84" fill="#231f20"/>
  <rect x="433.67" y="1.14" width="40.84" height="40.84" fill="#231f20"/>
  <rect x="390.23" y="44.31" width="40.84" height="40.84" fill="#231f20"/>
  <rect x="390.23" y="87.57" width="40.84" height="40.84" fill="#231f20"/>
  <rect x="390.23" y="1.14" width="40.84" height="40.84" fill="#231f20"/>
  <rect x="520.07" y="44.31" width="40.84" height="40.84" fill="#231f20"/>
  <rect x="520.07" y="1.14" width="40.84" height="40.84" fill="#231f20"/>
  <rect x="476.63" y="44.31" width="40.84" height="40.84" fill="#231f20"/>
  <rect x="476.63" y="1.14" width="40.84" height="40.84" fill="#231f20"/>
  <rect x="692.87" y="44.31" width="40.84" height="40.84" fill="#231f20"/>
  <rect x="692.87" y="1.14" width="40.84" height="40.84" fill="#231f20"/>
  <rect x="649.43" y="44.31" width="40.84" height="40.84" fill="#231f20"/>
  <rect x="606.47" y="44.31" width="40.84" height="40.84" fill="#231f20"/>
  <rect x="563.03" y="44.31" width="40.84" height="40.84" fill="#231f20"/>
  <rect x="649.43" y="1.14" width="40.84" height="40.84" fill="#231f20"/>
  <rect x="390.26" y="346.65" width="40.84" height="40.84" fill="#231f20"/>
  <rect x="433.7" y="346.65" width="40.84" height="40.84" fill="#231f20"/>
  <rect x="476.54" y="346.65" width="40.84" height="40.84" fill="#231f20"/>
  <rect x="519.85" y="303.48" width="40.84" height="40.84" fill="#231f20"/>
  <rect x="563.15" y="303.48" width="40.84" height="40.84" fill="#231f20"/>
  <rect x="433.7" y="303.52" width="40.84" height="40.84" fill="#231f20"/>
  <rect x="476.54" y="303.48" width="40.84" height="40.84" fill="#231f20"/>
  <rect x="433.7" y="433.12" width="40.84" height="40.84" fill="#231f20"/>
  <rect x="347.29" y="476.28" width="40.84" height="40.84" fill="#231f20"/>
  <rect x="390.26" y="476.28" width="40.84" height="40.84" fill="#231f20"/>
  <rect x="347.29" y="519.58" width="40.84" height="40.84" fill="#231f20"/>
  <rect x="390.26" y="519.58" width="40.84" height="40.84" fill="#231f20"/>
  <rect x="433.7" y="476.28" width="40.84" height="40.84" fill="#231f20"/>
  <rect x="303.85" y="476.28" width="40.84" height="40.84" fill="#231f20"/>
  <rect x="303.85" y="519.58" width="40.84" height="40.84" fill="#231f20"/>
  <rect x="260.87" y="433.12" width="40.84" height="40.84" fill="#231f20"/>
  <rect x="217.43" y="433.12" width="40.84" height="40.84" fill="#231f20"/>
  <rect x="260.87" y="476.28" width="40.84" height="40.84" fill="#231f20"/>
  <rect x="260.87" y="519.58" width="40.84" height="40.84" fill="#231f20"/>
  <rect x="217.43" y="476.28" width="40.84" height="40.84" fill="#231f20"/>
  <rect x="217.43" y="519.58" width="40.84" height="40.84" fill="#231f20"/>
  <rect x="303.85" y="562.65" width="40.84" height="40.84" fill="#231f20"/>
  <rect x="303.85" y="605.95" width="40.84" height="40.84" fill="#231f20"/>
  <rect x="346.83" y="562.65" width="40.84" height="40.84" fill="#231f20"/>
  <rect x="346.83" y="605.95" width="40.84" height="40.84" fill="#231f20"/>
  <rect x="260.87" y="562.65" width="40.84" height="40.84" fill="#231f20"/>
  <rect x="217.43" y="562.65" width="40.84" height="40.84" fill="#231f20"/>
  <rect x="303.85" y="649.11" width="40.84" height="40.84" fill="#231f20"/>
  <rect x="303.85" y="692.4" width="40.84" height="40.84" fill="#231f20"/>
  <rect x="260.87" y="605.95" width="40.84" height="40.84" fill="#231f20"/>
  <rect x="217.43" y="605.95" width="40.84" height="40.84" fill="#231f20"/>
  <rect x="260.87" y="649.11" width="40.84" height="40.84" fill="#231f20"/>
  <rect x="260.87" y="692.4" width="40.84" height="40.84" fill="#231f20"/>
  <rect x="217.43" y="649.11" width="40.84" height="40.84" fill="#231f20"/>
  <rect x="217.43" y="692.4" width="40.84" height="40.84" fill="#231f20"/>
  <rect x="303.85" y="735.7" width="40.84" height="40.84" fill="#231f20"/>
  <rect x="347.05" y="692.4" width="40.84" height="40.84" fill="#231f20"/>
  <rect x="347.05" y="649.11" width="40.84" height="40.84" fill="#231f20"/>
  <rect x="347.05" y="735.7" width="40.84" height="40.84" fill="#231f20"/>
  <rect x="260.87" y="735.7" width="40.84" height="40.84" fill="#231f20"/>
  <rect x="217.43" y="735.7" width="40.84" height="40.84" fill="#231f20"/>
  <rect x="303.85" y="778.78" width="40.84" height="40.84" fill="#231f20"/>
  <rect x="303.85" y="822.08" width="40.84" height="40.84" fill="#231f20"/>
  <rect x="260.87" y="778.78" width="40.84" height="40.84" fill="#231f20"/>
  <rect x="217.43" y="778.78" width="40.84" height="40.84" fill="#231f20"/>
  <rect x="303.85" y="865.23" width="40.84" height="40.84" fill="#231f20"/>
  <rect x="303.85" y="908.53" width="40.84" height="40.84" fill="#231f20"/>
  <rect x="260.87" y="822.08" width="40.84" height="40.84" fill="#231f20"/>
  <rect x="217.43" y="822.08" width="40.84" height="40.84" fill="#231f20"/>
  <rect x="260.87" y="865.23" width="40.84" height="40.84" fill="#231f20"/>
  <rect x="260.87" y="908.53" width="40.84" height="40.84" fill="#231f20"/>
  <rect x="217.43" y="865.23" width="40.84" height="40.84" fill="#231f20"/>
  <rect x="217.43" y="908.53" width="40.84" height="40.84" fill="#231f20"/>
  <rect x="433.47" y="778.78" width="40.84" height="40.84" fill="#231f20"/>
  <rect x="476.78" y="778.78" width="40.84" height="40.84" fill="#231f20"/>
  <rect x="433.47" y="822.08" width="40.84" height="40.84" fill="#231f20"/>
  <rect x="390.49" y="778.78" width="40.84" height="40.84" fill="#231f20"/>
  <rect x="347.05" y="778.78" width="40.84" height="40.84" fill="#231f20"/>
  <rect x="433.47" y="865.23" width="40.84" height="40.84" fill="#231f20"/>
  <rect x="433.47" y="908.53" width="40.84" height="40.84" fill="#231f20"/>
  <rect x="692.7" y="822.08" width="40.84" height="40.84" fill="#231f20"/>
  <rect x="736" y="822.08" width="40.84" height="40.84" fill="#231f20"/>
  <rect x="692.7" y="865.23" width="40.84" height="40.84" fill="#231f20"/>
  <rect x="692.7" y="908.53" width="40.84" height="40.84" fill="#231f20"/>
  <rect x="692.7" y="951.27" width="40.84" height="40.84" fill="#231f20"/>
  <rect x="390.49" y="822.08" width="40.84" height="40.84" fill="#231f20"/>
  <rect x="347.05" y="822.08" width="40.84" height="40.84" fill="#231f20"/>
  <rect x="390.49" y="865.23" width="40.84" height="40.84" fill="#231f20"/>
  <rect x="390.49" y="908.53" width="40.84" height="40.84" fill="#231f20"/>
  <rect x="519.76" y="822.08" width="40.84" height="40.84" fill="#231f20"/>
  <rect x="519.76" y="865.23" width="40.84" height="40.84" fill="#231f20"/>
  <rect x="519.76" y="908.53" width="40.84" height="40.84" fill="#231f20"/>
  <rect x="476.78" y="822.08" width="40.84" height="40.84" fill="#231f20"/>
  <rect x="476.78" y="865.23" width="40.84" height="40.84" fill="#231f20"/>
  <rect x="606.23" y="822.08" width="40.84" height="40.84" fill="#231f20"/>
  <rect x="606.23" y="865.23" width="40.84" height="40.84" fill="#231f20"/>
  <rect x="649.46" y="822.08" width="40.84" height="40.84" fill="#231f20"/>
  <rect x="736" y="778.92" width="40.84" height="40.84" fill="#231f20"/>
  <rect x="692.77" y="778.92" width="40.84" height="40.84" fill="#231f20"/>
  <rect x="649.57" y="778.92" width="40.84" height="40.84" fill="#231f20"/>
  <rect x="606.33" y="778.92" width="40.84" height="40.84" fill="#231f20"/>
  <rect x="736" y="735.7" width="40.84" height="40.84" fill="#231f20"/>
  <rect x="692.77" y="735.7" width="40.84" height="40.84" fill="#231f20"/>
  <rect x="649.46" y="865.23" width="40.84" height="40.84" fill="#231f20"/>
  <rect x="563.25" y="822.08" width="40.84" height="40.84" fill="#231f20"/>
  <rect x="563.25" y="865.23" width="40.84" height="40.84" fill="#231f20"/>
  <rect x="606.23" y="908.26" width="40.84" height="40.84" fill="#231f20"/>
  <rect x="649.46" y="908.26" width="40.84" height="40.84" fill="#231f20"/>
  <rect x="736" y="1037.99" width="40.84" height="40.84" fill="#231f20"/>
  <rect x="649.54" y="1037.72" width="40.84" height="40.84" fill="#231f20"/>
  <rect x="692.77" y="1037.72" width="40.84" height="40.84" fill="#231f20"/>
  <rect x="563.25" y="908.26" width="40.84" height="40.84" fill="#231f20"/>
  <rect x="476.78" y="908.53" width="40.84" height="40.84" fill="#231f20"/>
  <rect x="519.76" y="951.55" width="40.84" height="40.84" fill="#231f20"/>
  <rect x="606.23" y="951.27" width="40.84" height="40.84" fill="#231f20"/>
  <rect x="649.46" y="951.27" width="40.84" height="40.84" fill="#231f20"/>
  <rect x="563.25" y="951.27" width="40.84" height="40.84" fill="#231f20"/>
  <rect x="476.78" y="951.55" width="40.84" height="40.84" fill="#231f20"/>
  <rect x="519.76" y="994.96" width="40.84" height="40.84" fill="#231f20"/>
  <rect x="606.23" y="994.68" width="40.84" height="40.84" fill="#231f20"/>
  <rect x="649.31" y="994.68" width="40.84" height="40.84" fill="#231f20"/>
  <rect x="563.25" y="994.68" width="40.84" height="40.84" fill="#231f20"/>
  <rect x="476.78" y="994.96" width="40.84" height="40.84" fill="#231f20"/>
  <rect x="519.76" y="1037.97" width="40.84" height="40.84" fill="#231f20"/>
  <rect x="606.23" y="1037.7" width="40.84" height="40.84" fill="#231f20"/>
  <rect x="563.25" y="1037.7" width="40.84" height="40.84" fill="#231f20"/>
  <rect x="476.78" y="1037.97" width="40.84" height="40.84" fill="#231f20"/>
  <rect x="347.05" y="865.23" width="40.84" height="40.84" fill="#231f20"/>
  <rect x="347.05" y="908.53" width="40.84" height="40.84" fill="#231f20"/>
  <rect x="303.85" y="951.41" width="40.84" height="40.84" fill="#231f20"/>
  <rect x="303.85" y="994.56" width="40.84" height="40.84" fill="#231f20"/>
  <rect x="303.85" y="1037.86" width="40.84" height="40.84" fill="#231f20"/>
  <rect x="260.87" y="951.41" width="40.84" height="40.84" fill="#231f20"/>
  <rect x="260.87" y="994.56" width="40.84" height="40.84" fill="#231f20"/>
  <rect x="260.87" y="1037.86" width="40.84" height="40.84" fill="#231f20"/>
  <rect x="347.05" y="951.41" width="40.84" height="40.84" fill="#231f20"/>
  <rect x="347.05" y="994.56" width="40.84" height="40.84" fill="#231f20"/>
  <rect x="390.25" y="951.41" width="40.84" height="40.84" fill="#231f20"/>
  <rect x="390.25" y="994.56" width="40.84" height="40.84" fill="#231f20"/>
  <rect x="433.45" y="951.41" width="40.84" height="40.84" fill="#231f20"/>
  <rect x="433.45" y="994.56" width="40.84" height="40.84" fill="#231f20"/>
  <rect x="347.05" y="1037.86" width="40.84" height="40.84" fill="#231f20"/>
  <rect x="433.7" y="519.58" width="40.84" height="40.84" fill="#231f20"/>
  <rect x="476.54" y="433.12" width="40.84" height="40.84" fill="#231f20"/>
  <rect x="533.67" y="274.1" width="13.39" height="13.39" fill="#231f20"/>
  <rect x="576.88" y="274.1" width="13.39" height="13.39" fill="#231f20"/>
  <rect x="621.05" y="274.1" width="13.39" height="13.39" fill="#231f20"/>
  <rect x="490.26" y="274.1" width="13.39" height="13.39" fill="#231f20"/>
  <rect x="533.67" y="490.15" width="13.39" height="13.39" fill="#231f20"/>
  <rect x="576.88" y="490.15" width="13.39" height="13.39" fill="#231f20"/>
  <rect x="490.26" y="490.15" width="13.39" height="13.39" fill="#231f20"/>
  <rect x="533.67" y="533.25" width="13.39" height="13.39" fill="#231f20"/>
  <rect x="576.88" y="533.25" width="13.39" height="13.39" fill="#231f20"/>
  <rect x="620.07" y="490.15" width="13.39" height="13.39" fill="#231f20"/>
  <rect x="663.28" y="490.15" width="13.39" height="13.39" fill="#231f20"/>
  <rect x="620.07" y="533.25" width="13.39" height="13.39" fill="#231f20"/>
  <rect x="663.28" y="533.25" width="13.39" height="13.39" fill="#231f20"/>
  <rect x="490.26" y="533.25" width="13.39" height="13.39" fill="#231f20"/>
  <rect x="447.53" y="577.7" width="13.39" height="13.39" fill="#231f20"/>
  <rect x="490.73" y="577.7" width="13.39" height="13.39" fill="#231f20"/>
  <rect x="404.12" y="577.7" width="13.39" height="13.39" fill="#231f20"/>
  <rect x="447.53" y="620.81" width="13.39" height="13.39" fill="#231f20"/>
  <rect x="490.73" y="620.81" width="13.39" height="13.39" fill="#231f20"/>
  <rect x="533.67" y="577.7" width="13.39" height="13.39" fill="#231f20"/>
  <rect x="576.88" y="577.7" width="13.39" height="13.39" fill="#231f20"/>
  <rect x="533.67" y="620.81" width="13.39" height="13.39" fill="#231f20"/>
  <rect x="576.88" y="620.81" width="13.39" height="13.39" fill="#231f20"/>
  <rect x="707.7" y="577.7" width="13.39" height="13.39" fill="#231f20"/>
  <rect x="750.91" y="577.7" width="13.39" height="13.39" fill="#231f20"/>
  <rect x="707.7" y="620.81" width="13.39" height="13.39" fill="#231f20"/>
  <rect x="664.37" y="577.7" width="13.39" height="13.39" fill="#231f20"/>
  <rect x="664.37" y="620.81" width="13.39" height="13.39" fill="#231f20"/>
  <rect x="750.91" y="620.81" width="13.39" height="13.39" fill="#231f20"/>
  <rect x="707.7" y="664.16" width="13.39" height="13.39" fill="#231f20"/>
  <rect x="750.91" y="664.16" width="13.39" height="13.39" fill="#231f20"/>
  <rect x="707.7" y="707.26" width="13.39" height="13.39" fill="#231f20"/>
  <rect x="750.91" y="707.26" width="13.39" height="13.39" fill="#231f20"/>
  <rect x="793.16" y="577.7" width="13.39" height="13.39" fill="#231f20"/>
  <rect x="793.16" y="620.81" width="13.39" height="13.39" fill="#231f20"/>
  <rect x="793.16" y="664.16" width="13.39" height="13.39" fill="#231f20"/>
  <rect x="793.16" y="707.26" width="13.39" height="13.39" fill="#231f20"/>
  <rect x="793.16" y="749.28" width="13.39" height="13.39" fill="#231f20"/>
  <rect x="793.16" y="792.62" width="13.39" height="13.39" fill="#231f20"/>
  <rect x="793.16" y="835.73" width="13.39" height="13.39" fill="#231f20"/>
  <rect x="621.16" y="664.16" width="13.39" height="13.39" fill="#231f20"/>
  <rect x="621.16" y="619.68" width="13.39" height="13.39" fill="#231f20"/>
  <rect x="664.37" y="664.16" width="13.39" height="13.39" fill="#231f20"/>
  <rect x="621.16" y="707.26" width="13.39" height="13.39" fill="#231f20"/>
  <rect x="664.37" y="707.26" width="13.39" height="13.39" fill="#231f20"/>
  <rect x="621.16" y="749.43" width="13.39" height="13.39" fill="#231f20"/>
  <rect x="576.97" y="664.16" width="13.39" height="13.39" fill="#231f20"/>
  <rect x="576.97" y="707.26" width="13.39" height="13.39" fill="#231f20"/>
  <rect x="576.97" y="749.43" width="13.39" height="13.39" fill="#231f20"/>
  <rect x="533.67" y="664.16" width="13.39" height="13.39" fill="#231f20"/>
  <rect x="533.67" y="707.26" width="13.39" height="13.39" fill="#231f20"/>
  <rect x="533.67" y="749.43" width="13.39" height="13.39" fill="#231f20"/>
  <rect x="491.74" y="749.43" width="13.39" height="13.39" fill="#231f20"/>
  <rect x="448.44" y="749.43" width="13.39" height="13.39" fill="#231f20"/>
  <rect x="404.22" y="664.16" width="13.39" height="13.39" fill="#231f20"/>
  <rect x="404.22" y="707.26" width="13.39" height="13.39" fill="#231f20"/>
  <rect x="404.22" y="749.43" width="13.39" height="13.39" fill="#231f20"/>
  <rect x="576.97" y="792.5" width="13.39" height="13.39" fill="#231f20"/>
  <rect x="533.3" y="792.5" width="13.39" height="13.39" fill="#231f20"/>
  <rect x="664.37" y="749.43" width="13.39" height="13.39" fill="#231f20"/>
  <rect x="404.12" y="620.81" width="13.39" height="13.39" fill="#231f20"/>
  <rect x="535.08" y="101.29" width="13.39" height="13.39" fill="#231f20"/>
  <rect x="491.67" y="101.29" width="13.39" height="13.39" fill="#231f20"/>
  <rect x="489.89" y="143.78" width="13.39" height="13.39" fill="#231f20"/>
  <rect x="446.48" y="143.78" width="13.39" height="13.39" fill="#231f20"/>
  <rect x="446.48" y="101.29" width="13.39" height="13.39" fill="#231f20"/>
  <rect x="360.99" y="143.78" width="13.39" height="13.39" fill="#231f20"/>
  <rect x="403.99" y="143.78" width="13.39" height="13.39" fill="#231f20"/>
  <rect x="360.99" y="101.29" width="13.39" height="13.39" fill="#231f20"/>
  <rect x="317.55" y="230.49" width="13.39" height="13.39" fill="#231f20"/>
  <rect x="317.55" y="188.01" width="13.39" height="13.39" fill="#231f20"/>
  <rect x="361.02" y="230.49" width="13.39" height="13.39" fill="#231f20"/>
  <rect x="403.99" y="230.49" width="13.39" height="13.39" fill="#231f20"/>
  <rect x="361.02" y="188.01" width="13.39" height="13.39" fill="#231f20"/>
  <rect x="621.05" y="143.78" width="13.39" height="13.39" fill="#231f20"/>
  <rect x="577.64" y="143.78" width="13.39" height="13.39" fill="#231f20"/>
  <rect x="621.05" y="101.29" width="13.39" height="13.39" fill="#231f20"/>
  <rect x="577.64" y="101.29" width="13.39" height="13.39" fill="#231f20"/>
  <rect x="707.88" y="101.29" width="13.39" height="13.39" fill="#231f20"/>
  <rect x="749.56" y="58.04" width="13.39" height="13.39" fill="#231f20"/>
  <rect x="749.56" y="101.72" width="13.39" height="13.39" fill="#231f20"/>
  <rect x="749.56" y="14.76" width="13.39" height="13.39" fill="#231f20"/>
  <rect x="793.16" y="274.09" width="13.39" height="13.39" fill="#231f20"/>
  <rect x="793.16" y="230.81" width="13.39" height="13.39" fill="#231f20"/>
  <rect x="749.73" y="230.81" width="13.39" height="13.39" fill="#231f20"/>
  <rect x="793.16" y="186.53" width="13.39" height="13.39" fill="#231f20"/>
  <rect x="793.16" y="143.25" width="13.39" height="13.39" fill="#231f20"/>
  <rect x="793.16" y="448.55" width="13.39" height="13.39" fill="#231f20"/>
  <rect x="793.16" y="405.27" width="13.39" height="13.39" fill="#231f20"/>
  <rect x="793.16" y="360.98" width="13.39" height="13.39" fill="#231f20"/>
  <rect x="793.16" y="317.71" width="13.39" height="13.39" fill="#231f20"/>
  <rect x="621.05" y="317.71" width="13.39" height="13.39" fill="#231f20"/>
  <rect x="835.96" y="360.98" width="13.39" height="13.39" fill="#231f20"/>
  <rect x="835.96" y="317.71" width="13.39" height="13.39" fill="#231f20"/>
  <rect x="793.16" y="101.72" width="13.39" height="13.39" fill="#231f20"/>
  <rect x="793.16" y="57.43" width="13.39" height="13.39" fill="#231f20"/>
  <rect x="793.16" y="14.15" width="13.39" height="13.39" fill="#231f20"/>
  <rect x="1010.1" y="273.19" width="13.39" height="13.39" fill="#231f20"/>
  <rect x="1010.1" y="228.82" width="13.39" height="13.39" fill="#231f20"/>
  <rect x="965.88" y="186.53" width="13.39" height="13.39" fill="#231f20"/>
  <rect x="965.88" y="143.25" width="13.39" height="13.39" fill="#231f20"/>
  <rect x="1010.1" y="185.63" width="13.39" height="13.39" fill="#231f20"/>
  <rect x="1010.1" y="142.35" width="13.39" height="13.39" fill="#231f20"/>
  <rect x="965.88" y="101.72" width="13.39" height="13.39" fill="#231f20"/>
  <rect x="1010.1" y="100.82" width="13.39" height="13.39" fill="#231f20"/>
  <rect x="1010.1" y="490.56" width="13.39" height="13.39" fill="#231f20"/>
  <rect x="1010.1" y="447.29" width="13.39" height="13.39" fill="#231f20"/>
  <rect x="1010.1" y="403.31" width="13.39" height="13.39" fill="#231f20"/>
  <rect x="1010.1" y="359.29" width="13.39" height="13.39" fill="#231f20"/>
  <rect x="1010.1" y="315.27" width="13.39" height="13.39" fill="#231f20"/>
  <rect x="1010.1" y="532.94" width="13.39" height="13.39" fill="#231f20"/>
  <rect x="1010.1" y="748.39" width="13.39" height="13.39" fill="#231f20"/>
  <rect x="965.88" y="749.29" width="13.39" height="13.39" fill="#231f20"/>
  <rect x="1010.1" y="706.09" width="13.39" height="13.39" fill="#231f20"/>
  <rect x="1010.1" y="663.06" width="13.39" height="13.39" fill="#231f20"/>
  <rect x="1010.1" y="619.04" width="13.39" height="13.39" fill="#231f20"/>
  <rect x="1010.1" y="575.02" width="13.39" height="13.39" fill="#231f20"/>
  <rect x="965.88" y="57.43" width="13.39" height="13.39" fill="#231f20"/>
  <rect x="965.88" y="14.15" width="13.39" height="13.39" fill="#231f20"/>
  <rect x="965.88" y="404.21" width="13.39" height="13.39" fill="#231f20"/>
  <rect x="965.88" y="360.19" width="13.39" height="13.39" fill="#231f20"/>
  <rect x="965.88" y="316.17" width="13.39" height="13.39" fill="#231f20"/>
  <rect x="965.88" y="274.09" width="13.39" height="13.39" fill="#231f20"/>
  <rect x="923.03" y="316.17" width="13.39" height="13.39" fill="#231f20"/>
  <rect x="923.03" y="274.09" width="13.39" height="13.39" fill="#231f20"/>
  <rect x="965.88" y="229.71" width="13.39" height="13.39" fill="#231f20"/>
  <rect x="1052.78" y="186.06" width="13.39" height="13.39" fill="#231f20"/>
  <rect x="1052.78" y="142.78" width="13.39" height="13.39" fill="#231f20"/>
  <rect x="1052.78" y="101.25" width="13.39" height="13.39" fill="#231f20"/>
  <rect x="1052.78" y="56.96" width="13.39" height="13.39" fill="#231f20"/>
  <rect x="1052.78" y="13.69" width="13.39" height="13.39" fill="#231f20"/>
  <rect x="1052.78" y="403.74" width="13.39" height="13.39" fill="#231f20"/>
  <rect x="1052.78" y="359.72" width="13.39" height="13.39" fill="#231f20"/>
  <rect x="1052.78" y="315.7" width="13.39" height="13.39" fill="#231f20"/>
  <rect x="1052.78" y="273.63" width="13.39" height="13.39" fill="#231f20"/>
  <rect x="1052.78" y="229.25" width="13.39" height="13.39" fill="#231f20"/>
  <rect x="145.19" y="187.64" width="13.39" height="13.39" fill="#231f20"/>
  <rect x="145.19" y="143.97" width="13.39" height="13.39" fill="#231f20"/>
  <rect x="100.97" y="100.78" width="13.39" height="13.39" fill="#231f20"/>
  <rect x="100.97" y="57.5" width="13.39" height="13.39" fill="#231f20"/>
  <rect x="145.19" y="100.78" width="13.39" height="13.39" fill="#231f20"/>
  <rect x="145.19" y="57.5" width="13.39" height="13.39" fill="#231f20"/>
  <rect x="100.97" y="16.43" width="13.39" height="13.39" fill="#231f20"/>
  <rect x="145.19" y="15.53" width="13.39" height="13.39" fill="#231f20"/>
  <rect x="145.19" y="317.2" width="13.39" height="13.39" fill="#231f20"/>
  <rect x="145.19" y="274.12" width="13.39" height="13.39" fill="#231f20"/>
  <rect x="145.19" y="230.43" width="13.39" height="13.39" fill="#231f20"/>
  <rect x="100.97" y="317.2" width="13.39" height="13.39" fill="#231f20"/>
  <rect x="100.97" y="274.12" width="13.39" height="13.39" fill="#231f20"/>
  <rect x="100.97" y="230.43" width="13.39" height="13.39" fill="#231f20"/>
  <rect x="100.97" y="187.64" width="13.39" height="13.39" fill="#231f20"/>
  <rect x="100.97" y="143.97" width="13.39" height="13.39" fill="#231f20"/>
  <rect x="187.86" y="100.78" width="13.39" height="13.39" fill="#231f20"/>
  <rect x="187.86" y="57.5" width="13.39" height="13.39" fill="#231f20"/>
  <rect x="187.86" y="15.96" width="13.39" height="13.39" fill="#231f20"/>
  <rect x="187.86" y="317.2" width="13.39" height="13.39" fill="#231f20"/>
  <rect x="187.86" y="274.12" width="13.39" height="13.39" fill="#231f20"/>
  <rect x="187.86" y="230.43" width="13.39" height="13.39" fill="#231f20"/>
  <rect x="187.86" y="187.64" width="13.39" height="13.39" fill="#231f20"/>
  <rect x="187.86" y="143.97" width="13.39" height="13.39" fill="#231f20"/>
  <rect x="59.84" y="406.87" width="13.39" height="13.39" fill="#231f20"/>
  <rect x="59.84" y="363.2" width="13.39" height="13.39" fill="#231f20"/>
  <rect x="59.84" y="536.44" width="13.39" height="13.39" fill="#231f20"/>
  <rect x="59.84" y="493.35" width="13.39" height="13.39" fill="#231f20"/>
  <rect x="59.84" y="449.66" width="13.39" height="13.39" fill="#231f20"/>
  <rect x="59.84" y="621.21" width="13.39" height="13.39" fill="#231f20"/>
  <rect x="59.84" y="577.54" width="13.39" height="13.39" fill="#231f20"/>
  <rect x="59.84" y="750.77" width="13.39" height="13.39" fill="#231f20"/>
  <rect x="59.84" y="707.69" width="13.39" height="13.39" fill="#231f20"/>
  <rect x="59.84" y="663.99" width="13.39" height="13.39" fill="#231f20"/>
  <rect x="187.86" y="621.21" width="13.39" height="13.39" fill="#231f20"/>
  <rect x="187.86" y="577.54" width="13.39" height="13.39" fill="#231f20"/>
  <rect x="187.86" y="750.77" width="13.39" height="13.39" fill="#231f20"/>
  <rect x="187.86" y="707.69" width="13.39" height="13.39" fill="#231f20"/>
  <rect x="187.86" y="663.99" width="13.39" height="13.39" fill="#231f20"/>
  <rect x="187.86" y="404.42" width="13.39" height="13.39" fill="#231f20"/>
  <rect x="187.86" y="360.75" width="13.39" height="13.39" fill="#231f20"/>
  <rect x="187.86" y="533.99" width="13.39" height="13.39" fill="#231f20"/>
  <rect x="187.86" y="490.9" width="13.39" height="13.39" fill="#231f20"/>
  <rect x="187.86" y="922.35" width="13.39" height="13.39" fill="#231f20"/>
  <rect x="187.86" y="878.68" width="13.39" height="13.39" fill="#231f20"/>
  <rect x="187.86" y="1051.91" width="13.39" height="13.39" fill="#231f20"/>
  <rect x="187.86" y="1008.83" width="13.39" height="13.39" fill="#231f20"/>
  <rect x="187.86" y="965.14" width="13.39" height="13.39" fill="#231f20"/>
  <rect x="231.15" y="1051.91" width="13.39" height="13.39" fill="#231f20"/>
  <rect x="231.15" y="1008.83" width="13.39" height="13.39" fill="#231f20"/>
  <rect x="231.15" y="965.14" width="13.39" height="13.39" fill="#231f20"/>
  <rect x="187.86" y="835.13" width="13.39" height="13.39" fill="#231f20"/>
  <rect x="187.86" y="792.05" width="13.39" height="13.39" fill="#231f20"/>
  <rect x="59.84" y="922.35" width="13.39" height="13.39" fill="#231f20"/>
  <rect x="59.84" y="878.68" width="13.39" height="13.39" fill="#231f20"/>
  <rect x="59.84" y="1051.91" width="13.39" height="13.39" fill="#231f20"/>
  <rect x="59.84" y="1008.83" width="13.39" height="13.39" fill="#231f20"/>
  <rect x="59.84" y="965.14" width="13.39" height="13.39" fill="#231f20"/>
  <rect x="59.84" y="835.13" width="13.39" height="13.39" fill="#231f20"/>
  <rect x="59.84" y="792.05" width="13.39" height="13.39" fill="#231f20"/>
  <rect x="187.86" y="447.21" width="13.39" height="13.39" fill="#231f20"/>
  <rect x="15.62" y="536.44" width="13.39" height="13.39" fill="#231f20"/>
  <rect x="15.62" y="493.35" width="13.39" height="13.39" fill="#231f20"/>
  <rect x="15.62" y="449.66" width="13.39" height="13.39" fill="#231f20"/>
  <rect x="15.62" y="406.87" width="13.39" height="13.39" fill="#231f20"/>
  <rect x="15.62" y="363.2" width="13.39" height="13.39" fill="#231f20"/>
  <rect x="102.51" y="536.44" width="13.39" height="13.39" fill="#231f20"/>
  <rect x="102.51" y="493.35" width="13.39" height="13.39" fill="#231f20"/>
  <rect x="102.51" y="449.66" width="13.39" height="13.39" fill="#231f20"/>
  <rect x="102.51" y="406.87" width="13.39" height="13.39" fill="#231f20"/>
  <rect x="102.51" y="363.2" width="13.39" height="13.39" fill="#231f20"/>
  <rect x="1052.78" y="446.65" width="13.39" height="13.39" fill="#231f20"/>
  <rect x="1052.78" y="664.33" width="13.39" height="13.39" fill="#231f20"/>
  <rect x="1052.78" y="620.31" width="13.39" height="13.39" fill="#231f20"/>
  <rect x="1052.78" y="576.29" width="13.39" height="13.39" fill="#231f20"/>
  <rect x="1052.78" y="534.21" width="13.39" height="13.39" fill="#231f20"/>
  <rect x="1052.78" y="836.82" width="13.39" height="13.39" fill="#231f20"/>
  <rect x="1052.78" y="792.8" width="13.39" height="13.39" fill="#231f20"/>
  <rect x="1052.78" y="748.82" width="13.39" height="13.39" fill="#231f20"/>
  <rect x="924.4" y="836.52" width="13.39" height="13.39" fill="#231f20"/>
  <rect x="924.4" y="792.5" width="13.39" height="13.39" fill="#231f20"/>
  <rect x="924.4" y="749.29" width="13.39" height="13.39" fill="#231f20"/>
  <rect x="924.4" y="965.6" width="13.39" height="13.39" fill="#231f20"/>
  <rect x="924.4" y="921.58" width="13.39" height="13.39" fill="#231f20"/>
  <rect x="924.4" y="1052.06" width="13.39" height="13.39" fill="#231f20"/>
  <rect x="924.4" y="1008.04" width="13.39" height="13.39" fill="#231f20"/>
  <rect x="924.4" y="878.36" width="13.39" height="13.39" fill="#231f20"/>
  <rect x="749.73" y="965.6" width="13.39" height="13.39" fill="#231f20"/>
  <rect x="447.13" y="1051.72" width="13.39" height="13.39" fill="#231f20"/>
  <rect x="403.98" y="1051.72" width="13.39" height="13.39" fill="#231f20"/>
  <rect x="749.73" y="921.58" width="13.39" height="13.39" fill="#231f20"/>
  <rect x="749.73" y="878.36" width="13.39" height="13.39" fill="#231f20"/>
  <rect x="792.53" y="965.6" width="13.39" height="13.39" fill="#231f20"/>
  <rect x="706.49" y="1007.82" width="13.39" height="13.39" fill="#231f20"/>
  <rect x="792.53" y="1007.82" width="13.39" height="13.39" fill="#231f20"/>
  <rect x="792.53" y="1051.72" width="13.39" height="13.39" fill="#231f20"/>
  <rect x="835.69" y="1007.82" width="13.39" height="13.39" fill="#231f20"/>
  <rect x="835.69" y="1051.72" width="13.39" height="13.39" fill="#231f20"/>
  <rect x="792.53" y="921.58" width="13.39" height="13.39" fill="#231f20"/>
  <rect x="792.53" y="878.36" width="13.39" height="13.39" fill="#231f20"/>
  <rect x="1052.78" y="706.7" width="13.39" height="13.39" fill="#231f20"/>
  <rect x="1052.78" y="879.35" width="13.39" height="13.39" fill="#231f20"/>
  <rect x="1052.78" y="1051.84" width="13.39" height="13.39" fill="#231f20"/>
  <rect x="1052.78" y="1007.82" width="13.39" height="13.39" fill="#231f20"/>
  <rect x="1052.78" y="963.84" width="13.39" height="13.39" fill="#231f20"/>
  <rect x="1052.78" y="921.73" width="13.39" height="13.39" fill="#231f20"/>
  <rect x="1010.1" y="879.35" width="13.39" height="13.39" fill="#231f20"/>
  <rect x="1010.1" y="1051.84" width="13.39" height="13.39" fill="#231f20"/>
  <rect x="1010.1" y="1007.82" width="13.39" height="13.39" fill="#231f20"/>
  <rect x="1010.1" y="963.84" width="13.39" height="13.39" fill="#231f20"/>
  <rect x="1010.1" y="921.73" width="13.39" height="13.39" fill="#231f20"/>
  <rect x="1052.78" y="489.84" width="13.39" height="13.39" fill="#231f20"/>
  <rect x="664.47" y="101.29" width="13.39" height="13.39" fill="#231f20"/>
  <rect x="532.45" y="143.78" width="13.39" height="13.39" fill="#231f20"/>
  <rect x="706.47" y="274.1" width="13.39" height="13.39" fill="#231f20"/>
  <rect x="749.68" y="274.1" width="13.39" height="13.39" fill="#231f20"/>
</svg>