<?xml version="1.0" encoding="UTF-8"?>
<svg id="_17" data-name="17" xmlns="http://www.w3.org/2000/svg" viewBox="0 0 1080 1080">
  <rect x="303.85" y="562.81" width="40.84" height="40.84" fill="#231f20"/>
  <rect x="303.85" y="519.58" width="40.84" height="40.84" fill="#231f20"/>
  <rect x="346.91" y="519.58" width="40.84" height="40.84" fill="#231f20"/>
  <rect x="389.98" y="519.58" width="40.84" height="40.84" fill="#231f20"/>
  <rect x="476.83" y="433.05" width="40.84" height="40.84" fill="#231f20"/>
  <rect x="519.95" y="346.77" width="40.84" height="40.84" fill="#231f20"/>
  <rect x="519.95" y="389.98" width="40.84" height="40.84" fill="#231f20"/>
  <rect x="433.65" y="476.35" width="40.84" height="40.84" fill="#231f20"/>
  <rect x="260.78" y="562.81" width="40.84" height="40.84" fill="#231f20"/>
  <rect x="303.85" y="606.11" width="40.84" height="40.84" fill="#231f20"/>
  <rect x="260.78" y="606.11" width="40.84" height="40.84" fill="#231f20"/>
  <rect x="260.78" y="519.58" width="40.84" height="40.84" fill="#231f20"/>
  <rect x="260.78" y="389.97" width="40.84" height="40.84" fill="#231f20"/>
  <rect x="649.48" y="562.74" width="40.84" height="40.84" fill="#231f20"/>
  <rect x="649.48" y="519.51" width="40.84" height="40.84" fill="#231f20"/>
  <rect x="606.42" y="562.74" width="40.84" height="40.84" fill="#231f20"/>
  <rect x="649.48" y="606.04" width="40.84" height="40.84" fill="#231f20"/>
  <rect x="606.42" y="606.04" width="40.84" height="40.84" fill="#231f20"/>
  <rect x="649.48" y="649.07" width="40.84" height="40.84" fill="#231f20"/>
  <rect x="692.68" y="562.74" width="40.84" height="40.84" fill="#231f20"/>
  <rect x="692.68" y="519.61" width="40.84" height="40.84" fill="#231f20"/>
  <rect x="692.68" y="606.04" width="40.84" height="40.84" fill="#231f20"/>
  <rect x="692.68" y="649.07" width="40.84" height="40.84" fill="#231f20"/>
  <rect x="606.42" y="649.07" width="40.84" height="40.84" fill="#231f20"/>
  <rect x="692.68" y="691.43" width="40.84" height="40.84" fill="#231f20"/>
  <rect x="649.62" y="692.1" width="40.84" height="40.84" fill="#231f20"/>
  <rect x="692.68" y="734.46" width="40.84" height="40.84" fill="#231f20"/>
  <rect x="692.68" y="778.22" width="40.84" height="40.84" fill="#231f20"/>
  <rect x="692.68" y="821.25" width="40.84" height="40.84" fill="#231f20"/>
  <rect x="692.68" y="864.96" width="40.84" height="40.84" fill="#231f20"/>
  <rect x="692.68" y="907.99" width="40.84" height="40.84" fill="#231f20"/>
  <rect x="692.68" y="951.76" width="40.84" height="40.84" fill="#231f20"/>
  <rect x="692.68" y="994.79" width="40.84" height="40.84" fill="#231f20"/>
  <rect x="649.31" y="778.22" width="40.84" height="40.84" fill="#231f20"/>
  <rect x="649.31" y="821.25" width="40.84" height="40.84" fill="#231f20"/>
  <rect x="649.31" y="864.96" width="40.84" height="40.84" fill="#231f20"/>
  <rect x="649.31" y="907.99" width="40.84" height="40.84" fill="#231f20"/>
  <rect x="649.31" y="951.76" width="40.84" height="40.84" fill="#231f20"/>
  <rect x="649.31" y="994.79" width="40.84" height="40.84" fill="#231f20"/>
  <rect x="692.68" y="1038.24" width="40.84" height="40.84" fill="#231f20"/>
  <rect x="735.82" y="734.46" width="40.84" height="40.84" fill="#231f20"/>
  <rect x="735.82" y="778.22" width="40.84" height="40.84" fill="#231f20"/>
  <rect x="735.82" y="821.25" width="40.84" height="40.84" fill="#231f20"/>
  <rect x="735.82" y="864.96" width="40.84" height="40.84" fill="#231f20"/>
  <rect x="735.82" y="907.99" width="40.84" height="40.84" fill="#231f20"/>
  <rect x="735.82" y="951.76" width="40.84" height="40.84" fill="#231f20"/>
  <rect x="735.82" y="994.79" width="40.84" height="40.84" fill="#231f20"/>
  <rect x="735.82" y="1038.24" width="40.84" height="40.84" fill="#231f20"/>
  <rect x="649.31" y="1038.24" width="40.84" height="40.84" fill="#231f20"/>
  <rect x="649.62" y="735.13" width="40.84" height="40.84" fill="#231f20"/>
  <rect x="649.55" y="44.39" width="40.84" height="40.84" fill="#231f20"/>
  <rect x="649.55" y="1.16" width="40.84" height="40.84" fill="#231f20"/>
  <rect x="649.55" y="87.69" width="40.84" height="40.84" fill="#231f20"/>
  <rect x="649.55" y="130.72" width="40.84" height="40.84" fill="#231f20"/>
  <rect x="692.75" y="44.39" width="40.84" height="40.84" fill="#231f20"/>
  <rect x="692.75" y="1.26" width="40.84" height="40.84" fill="#231f20"/>
  <rect x="692.75" y="87.69" width="40.84" height="40.84" fill="#231f20"/>
  <rect x="692.75" y="130.72" width="40.84" height="40.84" fill="#231f20"/>
  <rect x="692.75" y="173.08" width="40.84" height="40.84" fill="#231f20"/>
  <rect x="649.68" y="173.75" width="40.84" height="40.84" fill="#231f20"/>
  <rect x="692.75" y="216.11" width="40.84" height="40.84" fill="#231f20"/>
  <rect x="649.68" y="216.78" width="40.84" height="40.84" fill="#231f20"/>
  <rect x="649.55" y="260.57" width="40.84" height="40.84" fill="#231f20"/>
  <rect x="649.55" y="303.6" width="40.84" height="40.84" fill="#231f20"/>
  <rect x="692.75" y="260.57" width="40.84" height="40.84" fill="#231f20"/>
  <rect x="692.75" y="303.6" width="40.84" height="40.84" fill="#231f20"/>
  <rect x="692.75" y="345.96" width="40.84" height="40.84" fill="#231f20"/>
  <rect x="649.68" y="346.63" width="40.84" height="40.84" fill="#231f20"/>
  <rect x="692.75" y="388.99" width="40.84" height="40.84" fill="#231f20"/>
  <rect x="692.75" y="433.3" width="40.84" height="40.84" fill="#231f20"/>
  <rect x="692.75" y="476.33" width="40.84" height="40.84" fill="#231f20"/>
  <rect x="735.82" y="562.74" width="40.84" height="40.84" fill="#231f20"/>
  <rect x="735.82" y="519.61" width="40.84" height="40.84" fill="#231f20"/>
  <rect x="735.82" y="606.04" width="40.84" height="40.84" fill="#231f20"/>
  <rect x="735.82" y="649.07" width="40.84" height="40.84" fill="#231f20"/>
  <rect x="735.82" y="691.43" width="40.84" height="40.84" fill="#231f20"/>
  <rect x="735.88" y="44.39" width="40.84" height="40.84" fill="#231f20"/>
  <rect x="735.88" y="1.26" width="40.84" height="40.84" fill="#231f20"/>
  <rect x="735.88" y="87.69" width="40.84" height="40.84" fill="#231f20"/>
  <rect x="735.88" y="130.72" width="40.84" height="40.84" fill="#231f20"/>
  <rect x="735.88" y="173.08" width="40.84" height="40.84" fill="#231f20"/>
  <rect x="735.88" y="216.11" width="40.84" height="40.84" fill="#231f20"/>
  <rect x="735.88" y="260.57" width="40.84" height="40.84" fill="#231f20"/>
  <rect x="735.88" y="303.6" width="40.84" height="40.84" fill="#231f20"/>
  <rect x="735.88" y="345.96" width="40.84" height="40.84" fill="#231f20"/>
  <rect x="735.88" y="388.99" width="40.84" height="40.84" fill="#231f20"/>
  <rect x="735.88" y="433.3" width="40.84" height="40.84" fill="#231f20"/>
  <rect x="735.88" y="476.33" width="40.84" height="40.84" fill="#231f20"/>
  <rect x="649.68" y="389.66" width="40.84" height="40.84" fill="#231f20"/>
  <rect x="606.42" y="519.51" width="40.84" height="40.84" fill="#231f20"/>
  <rect x="519.88" y="519.63" width="40.84" height="40.84" fill="#231f20"/>
  <rect x="519.88" y="476.39" width="40.84" height="40.84" fill="#231f20"/>
  <rect x="563.15" y="519.63" width="40.84" height="40.84" fill="#231f20"/>
  <rect x="476.82" y="519.63" width="40.84" height="40.84" fill="#231f20"/>
  <rect x="476.82" y="476.39" width="40.84" height="40.84" fill="#231f20"/>
  <rect x="319.02" y="663.29" width="13.39" height="13.39" fill="#231f20"/>
  <rect x="274.51" y="663.29" width="13.39" height="13.39" fill="#231f20"/>
  <rect x="360.64" y="576.51" width="13.39" height="13.39" fill="#231f20"/>
  <rect x="403.7" y="576.51" width="13.39" height="13.39" fill="#231f20"/>
  <rect x="447.12" y="533.23" width="13.39" height="13.39" fill="#231f20"/>
  <rect x="490.54" y="576.51" width="13.39" height="13.39" fill="#231f20"/>
  <rect x="533.67" y="576.51" width="13.39" height="13.39" fill="#231f20"/>
  <rect x="316.43" y="490.75" width="13.39" height="13.39" fill="#231f20"/>
  <rect x="359.56" y="490.75" width="13.39" height="13.39" fill="#231f20"/>
  <rect x="490.54" y="663.29" width="13.39" height="13.39" fill="#231f20"/>
  <rect x="533.67" y="663.29" width="13.39" height="13.39" fill="#231f20"/>
  <rect x="404.02" y="663.29" width="13.39" height="13.39" fill="#231f20"/>
  <rect x="447.16" y="663.29" width="13.39" height="13.39" fill="#231f20"/>
  <rect x="576.87" y="576.51" width="13.39" height="13.39" fill="#231f20"/>
  <rect x="576.87" y="491.32" width="13.39" height="13.39" fill="#231f20"/>
  <rect x="620.07" y="491.32" width="13.39" height="13.39" fill="#231f20"/>
  <rect x="360.64" y="619.76" width="13.39" height="13.39" fill="#231f20"/>
  <rect x="403.7" y="619.76" width="13.39" height="13.39" fill="#231f20"/>
  <rect x="274.35" y="707.03" width="13.39" height="13.39" fill="#231f20"/>
  <rect x="274.43" y="445.87" width="13.39" height="13.39" fill="#231f20"/>
  <rect x="274.43" y="489.01" width="13.39" height="13.39" fill="#231f20"/>
  <rect x="232.01" y="403.76" width="13.39" height="13.39" fill="#231f20"/>
  <rect x="274.35" y="361.53" width="13.39" height="13.39" fill="#231f20"/>
  <rect x="274.35" y="318.2" width="13.39" height="13.39" fill="#231f20"/>
  <rect x="316.43" y="361.53" width="13.39" height="13.39" fill="#231f20"/>
  <rect x="316.43" y="318.2" width="13.39" height="13.39" fill="#231f20"/>
  <rect x="274.35" y="274.2" width="13.39" height="13.39" fill="#231f20"/>
  <rect x="490.55" y="361.53" width="13.39" height="13.39" fill="#231f20"/>
  <rect x="490.55" y="403.76" width="13.39" height="13.39" fill="#231f20"/>
  <rect x="447.37" y="404.22" width="13.39" height="13.39" fill="#231f20"/>
  <rect x="447.37" y="446.45" width="13.39" height="13.39" fill="#231f20"/>
  <rect x="403.7" y="448.51" width="13.39" height="13.39" fill="#231f20"/>
  <rect x="403.7" y="490.75" width="13.39" height="13.39" fill="#231f20"/>
  <rect x="490.55" y="318.2" width="13.39" height="13.39" fill="#231f20"/>
  <rect x="533.73" y="318.2" width="13.39" height="13.39" fill="#231f20"/>
  <rect x="490.55" y="274.2" width="13.39" height="13.39" fill="#231f20"/>
  <rect x="620.14" y="231.96" width="13.39" height="13.39" fill="#231f20"/>
  <rect x="620.14" y="274.19" width="13.39" height="13.39" fill="#231f20"/>
  <rect x="620.14" y="188.63" width="13.39" height="13.39" fill="#231f20"/>
  <rect x="620.14" y="144.63" width="13.39" height="13.39" fill="#231f20"/>
  <rect x="274.35" y="230.87" width="13.39" height="13.39" fill="#231f20"/>
  <rect x="447.12" y="318.2" width="13.39" height="13.39" fill="#231f20"/>
  <rect x="447.12" y="274.2" width="13.39" height="13.39" fill="#231f20"/>
  <rect x="447.12" y="230.87" width="13.39" height="13.39" fill="#231f20"/>
  <rect x="404.04" y="318.2" width="13.39" height="13.39" fill="#231f20"/>
  <rect x="188.14" y="101.41" width="13.39" height="13.39" fill="#231f20"/>
  <rect x="231.32" y="101.41" width="13.39" height="13.39" fill="#231f20"/>
  <rect x="144.71" y="101.41" width="13.39" height="13.39" fill="#231f20"/>
  <rect x="101.63" y="101.41" width="13.39" height="13.39" fill="#231f20"/>
  <rect x="58.42" y="101.41" width="13.39" height="13.39" fill="#231f20"/>
  <rect x="15.33" y="101.41" width="13.39" height="13.39" fill="#231f20"/>
  <rect x="15.33" y="145.66" width="13.39" height="13.39" fill="#231f20"/>
  <rect x="447.12" y="359.68" width="13.39" height="13.39" fill="#231f20"/>
  <rect x="404.04" y="359.68" width="13.39" height="13.39" fill="#231f20"/>
  <rect x="404.04" y="274.2" width="13.39" height="13.39" fill="#231f20"/>
  <rect x="490.55" y="188.63" width="13.39" height="13.39" fill="#231f20"/>
  <rect x="447.12" y="188.63" width="13.39" height="13.39" fill="#231f20"/>
  <rect x="490.55" y="144.95" width="13.39" height="13.39" fill="#231f20"/>
  <rect x="447.12" y="144.95" width="13.39" height="13.39" fill="#231f20"/>
  <rect x="404.04" y="188.63" width="13.39" height="13.39" fill="#231f20"/>
  <rect x="404.04" y="230.87" width="13.39" height="13.39" fill="#231f20"/>
  <rect x="490.42" y="101.27" width="13.39" height="13.39" fill="#231f20"/>
  <rect x="490.42" y="57.27" width="13.39" height="13.39" fill="#231f20"/>
  <rect x="490.42" y="13.94" width="13.39" height="13.39" fill="#231f20"/>
  <rect x="620.14" y="101.27" width="13.39" height="13.39" fill="#231f20"/>
  <rect x="620.14" y="57.27" width="13.39" height="13.39" fill="#231f20"/>
  <rect x="620.14" y="13.94" width="13.39" height="13.39" fill="#231f20"/>
  <rect x="447.33" y="101.27" width="13.39" height="13.39" fill="#231f20"/>
  <rect x="577.16" y="188.63" width="13.39" height="13.39" fill="#231f20"/>
  <rect x="533.73" y="188.63" width="13.39" height="13.39" fill="#231f20"/>
  <rect x="577.16" y="144.95" width="13.39" height="13.39" fill="#231f20"/>
  <rect x="533.73" y="144.95" width="13.39" height="13.39" fill="#231f20"/>
  <rect x="577.02" y="101.27" width="13.39" height="13.39" fill="#231f20"/>
  <rect x="533.94" y="101.27" width="13.39" height="13.39" fill="#231f20"/>
  <rect x="447.33" y="57.27" width="13.39" height="13.39" fill="#231f20"/>
  <rect x="447.33" y="13.94" width="13.39" height="13.39" fill="#231f20"/>
  <rect x="360.99" y="188.63" width="13.39" height="13.39" fill="#231f20"/>
  <rect x="317.56" y="188.63" width="13.39" height="13.39" fill="#231f20"/>
  <rect x="360.99" y="144.95" width="13.39" height="13.39" fill="#231f20"/>
  <rect x="317.56" y="144.95" width="13.39" height="13.39" fill="#231f20"/>
  <rect x="360.85" y="101.27" width="13.39" height="13.39" fill="#231f20"/>
  <rect x="360.85" y="57.27" width="13.39" height="13.39" fill="#231f20"/>
  <rect x="360.85" y="13.94" width="13.39" height="13.39" fill="#231f20"/>
  <rect x="317.77" y="101.27" width="13.39" height="13.39" fill="#231f20"/>
  <rect x="317.77" y="57.27" width="13.39" height="13.39" fill="#231f20"/>
  <rect x="317.77" y="13.94" width="13.39" height="13.39" fill="#231f20"/>
  <rect x="404.25" y="57.27" width="13.39" height="13.39" fill="#231f20"/>
  <rect x="404.25" y="13.94" width="13.39" height="13.39" fill="#231f20"/>
  <rect x="274.1" y="13.94" width="13.39" height="13.39" fill="#231f20"/>
  <rect x="274.35" y="188.26" width="13.39" height="13.39" fill="#231f20"/>
  <rect x="274.35" y="144.93" width="13.39" height="13.39" fill="#231f20"/>
  <rect x="231.32" y="361.53" width="13.39" height="13.39" fill="#231f20"/>
  <rect x="231.32" y="318.2" width="13.39" height="13.39" fill="#231f20"/>
  <rect x="231.32" y="274.2" width="13.39" height="13.39" fill="#231f20"/>
  <rect x="231.32" y="230.87" width="13.39" height="13.39" fill="#231f20"/>
  <rect x="231.32" y="188.26" width="13.39" height="13.39" fill="#231f20"/>
  <rect x="101.29" y="230.87" width="13.39" height="13.39" fill="#231f20"/>
  <rect x="101.29" y="188.26" width="13.39" height="13.39" fill="#231f20"/>
  <rect x="58.26" y="230.87" width="13.39" height="13.39" fill="#231f20"/>
  <rect x="58.26" y="188.26" width="13.39" height="13.39" fill="#231f20"/>
  <rect x="231.32" y="144.93" width="13.39" height="13.39" fill="#231f20"/>
  <rect x="274.35" y="100.93" width="13.39" height="13.39" fill="#231f20"/>
  <rect x="274.35" y="57.61" width="13.39" height="13.39" fill="#231f20"/>
  <rect x="231.85" y="446.91" width="13.39" height="13.39" fill="#231f20"/>
  <rect x="274.67" y="793.49" width="13.39" height="13.39" fill="#231f20"/>
  <rect x="274.35" y="749.38" width="13.39" height="13.39" fill="#231f20"/>
  <rect x="274.51" y="837.24" width="13.39" height="13.39" fill="#231f20"/>
  <rect x="274.35" y="880.38" width="13.39" height="13.39" fill="#231f20"/>
  <rect x="274.67" y="967.32" width="13.39" height="13.39" fill="#231f20"/>
  <rect x="274.35" y="923.63" width="13.39" height="13.39" fill="#231f20"/>
  <rect x="188.45" y="923.63" width="13.39" height="13.39" fill="#231f20"/>
  <rect x="274.67" y="1051.98" width="13.39" height="13.39" fill="#231f20"/>
  <rect x="274.35" y="1008.29" width="13.39" height="13.39" fill="#231f20"/>
  <rect x="231.55" y="837.24" width="13.39" height="13.39" fill="#231f20"/>
  <rect x="231.39" y="880.38" width="13.39" height="13.39" fill="#231f20"/>
  <rect x="231.71" y="967.32" width="13.39" height="13.39" fill="#231f20"/>
  <rect x="231.39" y="923.63" width="13.39" height="13.39" fill="#231f20"/>
  <rect x="231.71" y="1051.98" width="13.39" height="13.39" fill="#231f20"/>
  <rect x="231.39" y="1008.29" width="13.39" height="13.39" fill="#231f20"/>
  <rect x="360.64" y="663.29" width="13.39" height="13.39" fill="#231f20"/>
  <rect x="576.87" y="619.76" width="13.39" height="13.39" fill="#231f20"/>
  <rect x="663.34" y="448.07" width="13.39" height="13.39" fill="#231f20"/>
  <rect x="533.67" y="448.07" width="13.39" height="13.39" fill="#231f20"/>
  <rect x="663.34" y="491.32" width="13.39" height="13.39" fill="#231f20"/>
  <rect x="620.07" y="318.45" width="13.39" height="13.39" fill="#231f20"/>
  <rect x="620.07" y="361.7" width="13.39" height="13.39" fill="#231f20"/>
  <rect x="576.87" y="663.29" width="13.39" height="13.39" fill="#231f20"/>
  <rect x="145.06" y="749.38" width="13.39" height="13.39" fill="#231f20"/>
  <rect x="188.19" y="749.38" width="13.39" height="13.39" fill="#231f20"/>
  <rect x="58.54" y="749.38" width="13.39" height="13.39" fill="#231f20"/>
  <rect x="101.67" y="749.38" width="13.39" height="13.39" fill="#231f20"/>
  <rect x="15.16" y="749.38" width="13.39" height="13.39" fill="#231f20"/>
  <rect x="231.39" y="749.38" width="13.39" height="13.39" fill="#231f20"/>
  <rect x="145.06" y="793.49" width="13.39" height="13.39" fill="#231f20"/>
  <rect x="188.19" y="793.49" width="13.39" height="13.39" fill="#231f20"/>
  <rect x="13.43" y="490.07" width="13.39" height="13.39" fill="#231f20"/>
  <rect x="58.54" y="490.07" width="13.39" height="13.39" fill="#231f20"/>
  <rect x="144.81" y="531.26" width="13.39" height="13.39" fill="#231f20"/>
  <rect x="101.67" y="576.05" width="13.39" height="13.39" fill="#231f20"/>
  <rect x="58.54" y="619.83" width="13.39" height="13.39" fill="#231f20"/>
  <rect x="58.54" y="663.35" width="13.39" height="13.39" fill="#231f20"/>
  <rect x="144.81" y="576.05" width="13.39" height="13.39" fill="#231f20"/>
  <rect x="58.54" y="793.49" width="13.39" height="13.39" fill="#231f20"/>
  <rect x="101.67" y="793.49" width="13.39" height="13.39" fill="#231f20"/>
  <rect x="15.16" y="793.49" width="13.39" height="13.39" fill="#231f20"/>
  <rect x="231.39" y="793.49" width="13.39" height="13.39" fill="#231f20"/>
  <rect x="576.87" y="707.03" width="13.39" height="13.39" fill="#231f20"/>
  <rect x="620.07" y="707.03" width="13.39" height="13.39" fill="#231f20"/>
  <rect x="620.07" y="749.38" width="13.39" height="13.39" fill="#231f20"/>
  <rect x="620.07" y="793.49" width="13.39" height="13.39" fill="#231f20"/>
  <rect x="620.07" y="836.3" width="13.39" height="13.39" fill="#231f20"/>
  <rect x="620.07" y="879.2" width="13.39" height="13.39" fill="#231f20"/>
  <rect x="620.07" y="922.11" width="13.39" height="13.39" fill="#231f20"/>
  <rect x="620.07" y="965.36" width="13.39" height="13.39" fill="#231f20"/>
  <rect x="490.54" y="922.11" width="13.39" height="13.39" fill="#231f20"/>
  <rect x="490.54" y="965.36" width="13.39" height="13.39" fill="#231f20"/>
  <rect x="447.39" y="922.11" width="13.39" height="13.39" fill="#231f20"/>
  <rect x="576.85" y="922.11" width="13.39" height="13.39" fill="#231f20"/>
  <rect x="533.7" y="922.11" width="13.39" height="13.39" fill="#231f20"/>
  <rect x="447.39" y="965.36" width="13.39" height="13.39" fill="#231f20"/>
  <rect x="405.11" y="922.11" width="13.39" height="13.39" fill="#231f20"/>
  <rect x="405.11" y="965.36" width="13.39" height="13.39" fill="#231f20"/>
  <rect x="361.96" y="922.11" width="13.39" height="13.39" fill="#231f20"/>
  <rect x="361.96" y="965.36" width="13.39" height="13.39" fill="#231f20"/>
  <rect x="490.54" y="1009.92" width="13.39" height="13.39" fill="#231f20"/>
  <rect x="447.39" y="1009.92" width="13.39" height="13.39" fill="#231f20"/>
  <rect x="576.77" y="1009.92" width="13.39" height="13.39" fill="#231f20"/>
  <rect x="532.64" y="1009.92" width="13.39" height="13.39" fill="#231f20"/>
  <rect x="405.11" y="1009.92" width="13.39" height="13.39" fill="#231f20"/>
  <rect x="361.96" y="1009.92" width="13.39" height="13.39" fill="#231f20"/>
  <rect x="490.54" y="1051.97" width="13.39" height="13.39" fill="#231f20"/>
  <rect x="447.39" y="1051.97" width="13.39" height="13.39" fill="#231f20"/>
  <rect x="532.64" y="1051.97" width="13.39" height="13.39" fill="#231f20"/>
  <rect x="405.11" y="1051.97" width="13.39" height="13.39" fill="#231f20"/>
  <rect x="361.96" y="1051.97" width="13.39" height="13.39" fill="#231f20"/>
  <rect x="319.29" y="922.11" width="13.39" height="13.39" fill="#231f20"/>
  <rect x="319.29" y="965.36" width="13.39" height="13.39" fill="#231f20"/>
  <rect x="319.29" y="1009.92" width="13.39" height="13.39" fill="#231f20"/>
  <rect x="319.29" y="1051.97" width="13.39" height="13.39" fill="#231f20"/>
  <rect x="620.07" y="1009.92" width="13.39" height="13.39" fill="#231f20"/>
  <rect x="620.07" y="1053.17" width="13.39" height="13.39" fill="#231f20"/>
  <rect x="576.77" y="1053.17" width="13.39" height="13.39" fill="#231f20"/>
  <rect x="576.77" y="965.36" width="13.39" height="13.39" fill="#231f20"/>
  <rect x="534.44" y="965.36" width="13.39" height="13.39" fill="#231f20"/>
  <rect x="534.18" y="793.49" width="13.39" height="13.39" fill="#231f20"/>
  <rect x="491.03" y="793.49" width="13.39" height="13.39" fill="#231f20"/>
  <rect x="534.1" y="879.2" width="13.39" height="13.39" fill="#231f20"/>
  <rect x="489.97" y="879.2" width="13.39" height="13.39" fill="#231f20"/>
  <rect x="534.1" y="836.3" width="13.39" height="13.39" fill="#231f20"/>
  <rect x="576.81" y="793.49" width="13.39" height="13.39" fill="#231f20"/>
  <rect x="576.81" y="749.38" width="13.39" height="13.39" fill="#231f20"/>
  <rect x="491.69" y="707.03" width="13.39" height="13.39" fill="#231f20"/>
  <rect x="534.89" y="707.03" width="13.39" height="13.39" fill="#231f20"/>
  <rect x="534.89" y="749.38" width="13.39" height="13.39" fill="#231f20"/>
  <rect x="491.62" y="749.38" width="13.39" height="13.39" fill="#231f20"/>
  <rect x="576.73" y="879.2" width="13.39" height="13.39" fill="#231f20"/>
  <rect x="576.73" y="836.3" width="13.39" height="13.39" fill="#231f20"/>
  <rect x="491.77" y="836.3" width="13.39" height="13.39" fill="#231f20"/>
  <rect x="448.33" y="793.49" width="13.39" height="13.39" fill="#231f20"/>
  <rect x="448.33" y="836.3" width="13.39" height="13.39" fill="#231f20"/>
  <rect x="448.33" y="879.2" width="13.39" height="13.39" fill="#231f20"/>
  <rect x="362.43" y="793.49" width="13.39" height="13.39" fill="#231f20"/>
  <rect x="319.29" y="793.49" width="13.39" height="13.39" fill="#231f20"/>
  <rect x="362.36" y="879.2" width="13.39" height="13.39" fill="#231f20"/>
  <rect x="318.23" y="879.2" width="13.39" height="13.39" fill="#231f20"/>
  <rect x="362.36" y="836.3" width="13.39" height="13.39" fill="#231f20"/>
  <rect x="405.07" y="793.49" width="13.39" height="13.39" fill="#231f20"/>
  <rect x="404.99" y="879.2" width="13.39" height="13.39" fill="#231f20"/>
  <rect x="404.99" y="836.3" width="13.39" height="13.39" fill="#231f20"/>
  <rect x="320.03" y="836.3" width="13.39" height="13.39" fill="#231f20"/>
  <rect x="448.33" y="707.03" width="13.39" height="13.39" fill="#231f20"/>
  <rect x="448.33" y="749.38" width="13.39" height="13.39" fill="#231f20"/>
  <rect x="362.43" y="707.03" width="13.39" height="13.39" fill="#231f20"/>
  <rect x="319.29" y="707.03" width="13.39" height="13.39" fill="#231f20"/>
  <rect x="362.36" y="749.38" width="13.39" height="13.39" fill="#231f20"/>
  <rect x="405.07" y="707.03" width="13.39" height="13.39" fill="#231f20"/>
  <rect x="404.99" y="749.38" width="13.39" height="13.39" fill="#231f20"/>
  <rect x="320.03" y="749.38" width="13.39" height="13.39" fill="#231f20"/>
</svg>