<?xml version="1.0" encoding="UTF-8"?>
<svg id="_18" data-name="18" xmlns="http://www.w3.org/2000/svg" viewBox="0 0 1080 1080">
  <rect x="606.4" y="605.92" width="40.84" height="40.84" fill="#231f20"/>
  <rect x="606.4" y="648.95" width="40.84" height="40.84" fill="#231f20"/>
  <rect x="606.47" y="735.75" width="40.84" height="40.84" fill="#231f20"/>
  <rect x="606.47" y="778.79" width="40.84" height="40.84" fill="#231f20"/>
  <rect x="606.4" y="562.89" width="40.84" height="40.84" fill="#231f20"/>
  <rect x="606.4" y="519.61" width="40.84" height="40.84" fill="#231f20"/>
  <rect x="606.4" y="476.58" width="40.84" height="40.84" fill="#231f20"/>
  <rect x="606.4" y="433.55" width="40.84" height="40.84" fill="#231f20"/>
  <rect x="606.4" y="389.98" width="40.84" height="40.84" fill="#231f20"/>
  <rect x="606.4" y="346.95" width="40.84" height="40.84" fill="#231f20"/>
  <rect x="606.4" y="303.67" width="40.84" height="40.84" fill="#231f20"/>
  <rect x="606.4" y="260.64" width="40.84" height="40.84" fill="#231f20"/>
  <rect x="606.4" y="217.61" width="40.84" height="40.84" fill="#231f20"/>
  <rect x="649.62" y="130.73" width="40.84" height="40.84" fill="#231f20"/>
  <rect x="649.62" y="173.76" width="40.84" height="40.84" fill="#231f20"/>
  <rect x="649.62" y="87.7" width="40.84" height="40.84" fill="#231f20"/>
  <rect x="649.62" y="44.42" width="40.84" height="40.84" fill="#231f20"/>
  <rect x="649.62" y="1.39" width="40.84" height="40.84" fill="#231f20"/>
  <rect x="563.05" y="1037.96" width="40.84" height="40.84" fill="#231f20"/>
  <rect x="563.05" y="994.93" width="40.84" height="40.84" fill="#231f20"/>
  <rect x="563.05" y="951.65" width="40.84" height="40.84" fill="#231f20"/>
  <rect x="563.05" y="908.62" width="40.84" height="40.84" fill="#231f20"/>
  <rect x="563.05" y="865.59" width="40.84" height="40.84" fill="#231f20"/>
  <rect x="606.47" y="865.59" width="40.84" height="40.84" fill="#231f20"/>
  <rect x="664.17" y="620.18" width="13.39" height="13.39" fill="#231f20"/>
  <rect x="664.17" y="576.61" width="13.39" height="13.39" fill="#231f20"/>
  <rect x="664.17" y="532.51" width="13.39" height="13.39" fill="#231f20"/>
  <rect x="664.17" y="748.91" width="13.39" height="13.39" fill="#231f20"/>
  <rect x="664.17" y="705.35" width="13.39" height="13.39" fill="#231f20"/>
  <rect x="620.12" y="705.35" width="13.39" height="13.39" fill="#231f20"/>
  <rect x="664.17" y="661.24" width="13.39" height="13.39" fill="#231f20"/>
  <rect x="664.17" y="793.05" width="13.39" height="13.39" fill="#231f20"/>
  <rect x="664.17" y="921.78" width="13.39" height="13.39" fill="#231f20"/>
  <rect x="664.17" y="878.21" width="13.39" height="13.39" fill="#231f20"/>
  <rect x="664.17" y="834.11" width="13.39" height="13.39" fill="#231f20"/>
  <rect x="576.08" y="748.91" width="13.39" height="13.39" fill="#231f20"/>
  <rect x="576.08" y="705.35" width="13.39" height="13.39" fill="#231f20"/>
  <rect x="576.08" y="793.05" width="13.39" height="13.39" fill="#231f20"/>
  <rect x="576.08" y="834.11" width="13.39" height="13.39" fill="#231f20"/>
  <rect x="534.5" y="748.91" width="13.39" height="13.39" fill="#231f20"/>
  <rect x="534.5" y="705.35" width="13.39" height="13.39" fill="#231f20"/>
  <rect x="534.5" y="793.05" width="13.39" height="13.39" fill="#231f20"/>
  <rect x="534.5" y="834.11" width="13.39" height="13.39" fill="#231f20"/>
  <rect x="492.93" y="748.91" width="13.39" height="13.39" fill="#231f20"/>
  <rect x="492.93" y="705.35" width="13.39" height="13.39" fill="#231f20"/>
  <rect x="492.93" y="793.05" width="13.39" height="13.39" fill="#231f20"/>
  <rect x="492.93" y="834.11" width="13.39" height="13.39" fill="#231f20"/>
  <rect x="534.5" y="921.95" width="13.39" height="13.39" fill="#231f20"/>
  <rect x="534.5" y="878.39" width="13.39" height="13.39" fill="#231f20"/>
  <rect x="534.5" y="966.09" width="13.39" height="13.39" fill="#231f20"/>
  <rect x="534.5" y="1007.15" width="13.39" height="13.39" fill="#231f20"/>
  <rect x="492.93" y="921.95" width="13.39" height="13.39" fill="#231f20"/>
  <rect x="492.93" y="878.39" width="13.39" height="13.39" fill="#231f20"/>
  <rect x="492.93" y="966.09" width="13.39" height="13.39" fill="#231f20"/>
  <rect x="492.93" y="1007.15" width="13.39" height="13.39" fill="#231f20"/>
  <rect x="534.5" y="1051.69" width="13.39" height="13.39" fill="#231f20"/>
  <rect x="492.93" y="1051.69" width="13.39" height="13.39" fill="#231f20"/>
  <rect x="620.2" y="923.87" width="13.39" height="13.39" fill="#231f20"/>
  <rect x="620.2" y="1052.6" width="13.39" height="13.39" fill="#231f20"/>
  <rect x="620.2" y="1009.03" width="13.39" height="13.39" fill="#231f20"/>
  <rect x="620.2" y="964.93" width="13.39" height="13.39" fill="#231f20"/>
  <rect x="620.2" y="834.11" width="13.39" height="13.39" fill="#231f20"/>
  <rect x="664.17" y="488.94" width="13.39" height="13.39" fill="#231f20"/>
  <rect x="664.17" y="447.84" width="13.39" height="13.39" fill="#231f20"/>
  <rect x="664.17" y="404.27" width="13.39" height="13.39" fill="#231f20"/>
  <rect x="664.17" y="360.16" width="13.39" height="13.39" fill="#231f20"/>
  <rect x="664.17" y="316.6" width="13.39" height="13.39" fill="#231f20"/>
  <rect x="664.17" y="274.4" width="13.39" height="13.39" fill="#231f20"/>
  <rect x="664.17" y="230.83" width="13.39" height="13.39" fill="#231f20"/>
  <rect x="577.47" y="404.27" width="13.39" height="13.39" fill="#231f20"/>
  <rect x="577.47" y="360.16" width="13.39" height="13.39" fill="#231f20"/>
  <rect x="577.47" y="316.6" width="13.39" height="13.39" fill="#231f20"/>
  <rect x="577.47" y="274.4" width="13.39" height="13.39" fill="#231f20"/>
  <rect x="577.47" y="230.83" width="13.39" height="13.39" fill="#231f20"/>
  <rect x="620.2" y="188.92" width="13.39" height="13.39" fill="#231f20"/>
  <rect x="620.2" y="144.82" width="13.39" height="13.39" fill="#231f20"/>
  <rect x="620.2" y="101.25" width="13.39" height="13.39" fill="#231f20"/>
  <rect x="620.2" y="59.05" width="13.39" height="13.39" fill="#231f20"/>
  <rect x="620.2" y="15.49" width="13.39" height="13.39" fill="#231f20"/>
  <rect x="577.47" y="188.92" width="13.39" height="13.39" fill="#231f20"/>
  <rect x="577.47" y="144.82" width="13.39" height="13.39" fill="#231f20"/>
  <rect x="577.47" y="101.25" width="13.39" height="13.39" fill="#231f20"/>
  <rect x="577.47" y="59.05" width="13.39" height="13.39" fill="#231f20"/>
  <rect x="577.47" y="15.49" width="13.39" height="13.39" fill="#231f20"/>
  <rect x="533.44" y="188.92" width="13.39" height="13.39" fill="#231f20"/>
  <rect x="533.44" y="144.82" width="13.39" height="13.39" fill="#231f20"/>
  <rect x="533.44" y="101.25" width="13.39" height="13.39" fill="#231f20"/>
  <rect x="533.44" y="59.05" width="13.39" height="13.39" fill="#231f20"/>
  <rect x="533.44" y="15.49" width="13.39" height="13.39" fill="#231f20"/>
  <rect x="490.71" y="188.92" width="13.39" height="13.39" fill="#231f20"/>
  <rect x="490.71" y="144.82" width="13.39" height="13.39" fill="#231f20"/>
  <rect x="490.71" y="101.25" width="13.39" height="13.39" fill="#231f20"/>
  <rect x="490.71" y="59.05" width="13.39" height="13.39" fill="#231f20"/>
  <rect x="490.71" y="15.49" width="13.39" height="13.39" fill="#231f20"/>
  <rect x="533.44" y="404.11" width="13.39" height="13.39" fill="#231f20"/>
  <rect x="533.44" y="360" width="13.39" height="13.39" fill="#231f20"/>
  <rect x="533.44" y="316.44" width="13.39" height="13.39" fill="#231f20"/>
  <rect x="533.44" y="274.24" width="13.39" height="13.39" fill="#231f20"/>
  <rect x="533.44" y="230.67" width="13.39" height="13.39" fill="#231f20"/>
  <rect x="490.71" y="404.11" width="13.39" height="13.39" fill="#231f20"/>
  <rect x="490.71" y="360" width="13.39" height="13.39" fill="#231f20"/>
  <rect x="490.71" y="316.44" width="13.39" height="13.39" fill="#231f20"/>
  <rect x="490.71" y="274.24" width="13.39" height="13.39" fill="#231f20"/>
  <rect x="490.71" y="230.67" width="13.39" height="13.39" fill="#231f20"/>
  <rect x="577.47" y="663.86" width="13.39" height="13.39" fill="#231f20"/>
  <rect x="577.47" y="619.76" width="13.39" height="13.39" fill="#231f20"/>
  <rect x="577.47" y="576.19" width="13.39" height="13.39" fill="#231f20"/>
  <rect x="577.47" y="534" width="13.39" height="13.39" fill="#231f20"/>
  <rect x="577.47" y="490.43" width="13.39" height="13.39" fill="#231f20"/>
  <rect x="577.47" y="448.52" width="13.39" height="13.39" fill="#231f20"/>
  <rect x="533.44" y="448.52" width="13.39" height="13.39" fill="#231f20"/>
  <rect x="490.71" y="448.52" width="13.39" height="13.39" fill="#231f20"/>
  <rect x="533.44" y="663.71" width="13.39" height="13.39" fill="#231f20"/>
  <rect x="533.44" y="619.6" width="13.39" height="13.39" fill="#231f20"/>
  <rect x="533.44" y="576.03" width="13.39" height="13.39" fill="#231f20"/>
  <rect x="533.44" y="533.84" width="13.39" height="13.39" fill="#231f20"/>
  <rect x="533.44" y="490.27" width="13.39" height="13.39" fill="#231f20"/>
  <rect x="490.71" y="663.71" width="13.39" height="13.39" fill="#231f20"/>
  <rect x="490.71" y="619.6" width="13.39" height="13.39" fill="#231f20"/>
  <rect x="490.71" y="576.03" width="13.39" height="13.39" fill="#231f20"/>
  <rect x="490.71" y="533.84" width="13.39" height="13.39" fill="#231f20"/>
  <rect x="490.71" y="490.27" width="13.39" height="13.39" fill="#231f20"/>
  <rect x="447.57" y="748.91" width="13.39" height="13.39" fill="#231f20"/>
  <rect x="447.57" y="705.35" width="13.39" height="13.39" fill="#231f20"/>
  <rect x="447.57" y="793.05" width="13.39" height="13.39" fill="#231f20"/>
  <rect x="447.57" y="834.11" width="13.39" height="13.39" fill="#231f20"/>
  <rect x="406" y="748.91" width="13.39" height="13.39" fill="#231f20"/>
  <rect x="406" y="705.35" width="13.39" height="13.39" fill="#231f20"/>
  <rect x="406" y="793.05" width="13.39" height="13.39" fill="#231f20"/>
  <rect x="406" y="834.11" width="13.39" height="13.39" fill="#231f20"/>
  <rect x="446.51" y="188.92" width="13.39" height="13.39" fill="#231f20"/>
  <rect x="446.51" y="144.82" width="13.39" height="13.39" fill="#231f20"/>
  <rect x="446.51" y="101.25" width="13.39" height="13.39" fill="#231f20"/>
  <rect x="446.51" y="59.05" width="13.39" height="13.39" fill="#231f20"/>
  <rect x="446.51" y="15.49" width="13.39" height="13.39" fill="#231f20"/>
  <rect x="403.78" y="188.92" width="13.39" height="13.39" fill="#231f20"/>
  <rect x="403.78" y="144.82" width="13.39" height="13.39" fill="#231f20"/>
  <rect x="403.78" y="101.25" width="13.39" height="13.39" fill="#231f20"/>
  <rect x="403.78" y="59.05" width="13.39" height="13.39" fill="#231f20"/>
  <rect x="403.78" y="15.49" width="13.39" height="13.39" fill="#231f20"/>
  <rect x="446.51" y="404.11" width="13.39" height="13.39" fill="#231f20"/>
  <rect x="446.51" y="360" width="13.39" height="13.39" fill="#231f20"/>
  <rect x="446.51" y="316.44" width="13.39" height="13.39" fill="#231f20"/>
  <rect x="446.51" y="274.24" width="13.39" height="13.39" fill="#231f20"/>
  <rect x="446.51" y="230.67" width="13.39" height="13.39" fill="#231f20"/>
  <rect x="403.78" y="404.11" width="13.39" height="13.39" fill="#231f20"/>
  <rect x="403.78" y="360" width="13.39" height="13.39" fill="#231f20"/>
  <rect x="403.78" y="316.44" width="13.39" height="13.39" fill="#231f20"/>
  <rect x="403.78" y="274.24" width="13.39" height="13.39" fill="#231f20"/>
  <rect x="403.78" y="230.67" width="13.39" height="13.39" fill="#231f20"/>
  <rect x="446.51" y="448.52" width="13.39" height="13.39" fill="#231f20"/>
  <rect x="403.78" y="448.52" width="13.39" height="13.39" fill="#231f20"/>
  <rect x="446.51" y="663.71" width="13.39" height="13.39" fill="#231f20"/>
  <rect x="446.51" y="619.6" width="13.39" height="13.39" fill="#231f20"/>
  <rect x="446.51" y="576.03" width="13.39" height="13.39" fill="#231f20"/>
  <rect x="446.51" y="533.84" width="13.39" height="13.39" fill="#231f20"/>
  <rect x="446.51" y="490.27" width="13.39" height="13.39" fill="#231f20"/>
  <rect x="403.78" y="663.71" width="13.39" height="13.39" fill="#231f20"/>
  <rect x="403.78" y="619.6" width="13.39" height="13.39" fill="#231f20"/>
  <rect x="403.78" y="576.03" width="13.39" height="13.39" fill="#231f20"/>
  <rect x="403.78" y="533.84" width="13.39" height="13.39" fill="#231f20"/>
  <rect x="403.78" y="490.27" width="13.39" height="13.39" fill="#231f20"/>
  <rect x="359.56" y="748.91" width="13.39" height="13.39" fill="#231f20"/>
  <rect x="359.56" y="705.35" width="13.39" height="13.39" fill="#231f20"/>
  <rect x="359.56" y="793.05" width="13.39" height="13.39" fill="#231f20"/>
  <rect x="359.56" y="834.11" width="13.39" height="13.39" fill="#231f20"/>
  <rect x="317.98" y="748.91" width="13.39" height="13.39" fill="#231f20"/>
  <rect x="317.98" y="705.35" width="13.39" height="13.39" fill="#231f20"/>
  <rect x="317.98" y="793.05" width="13.39" height="13.39" fill="#231f20"/>
  <rect x="317.98" y="834.11" width="13.39" height="13.39" fill="#231f20"/>
  <rect x="276.41" y="748.91" width="13.39" height="13.39" fill="#231f20"/>
  <rect x="276.41" y="705.35" width="13.39" height="13.39" fill="#231f20"/>
  <rect x="276.41" y="793.05" width="13.39" height="13.39" fill="#231f20"/>
  <rect x="276.41" y="834.11" width="13.39" height="13.39" fill="#231f20"/>
  <rect x="360.95" y="404.27" width="13.39" height="13.39" fill="#231f20"/>
  <rect x="360.95" y="360.16" width="13.39" height="13.39" fill="#231f20"/>
  <rect x="360.95" y="316.6" width="13.39" height="13.39" fill="#231f20"/>
  <rect x="360.95" y="274.4" width="13.39" height="13.39" fill="#231f20"/>
  <rect x="360.95" y="230.83" width="13.39" height="13.39" fill="#231f20"/>
  <rect x="360.95" y="188.92" width="13.39" height="13.39" fill="#231f20"/>
  <rect x="360.95" y="144.82" width="13.39" height="13.39" fill="#231f20"/>
  <rect x="360.95" y="101.25" width="13.39" height="13.39" fill="#231f20"/>
  <rect x="360.95" y="59.05" width="13.39" height="13.39" fill="#231f20"/>
  <rect x="360.95" y="15.49" width="13.39" height="13.39" fill="#231f20"/>
  <rect x="316.92" y="188.92" width="13.39" height="13.39" fill="#231f20"/>
  <rect x="316.92" y="144.82" width="13.39" height="13.39" fill="#231f20"/>
  <rect x="316.92" y="101.25" width="13.39" height="13.39" fill="#231f20"/>
  <rect x="316.92" y="59.05" width="13.39" height="13.39" fill="#231f20"/>
  <rect x="316.92" y="15.49" width="13.39" height="13.39" fill="#231f20"/>
  <rect x="274.19" y="188.92" width="13.39" height="13.39" fill="#231f20"/>
  <rect x="274.19" y="144.82" width="13.39" height="13.39" fill="#231f20"/>
  <rect x="274.19" y="101.25" width="13.39" height="13.39" fill="#231f20"/>
  <rect x="274.19" y="59.05" width="13.39" height="13.39" fill="#231f20"/>
  <rect x="274.19" y="15.49" width="13.39" height="13.39" fill="#231f20"/>
  <rect x="316.92" y="404.11" width="13.39" height="13.39" fill="#231f20"/>
  <rect x="316.92" y="360" width="13.39" height="13.39" fill="#231f20"/>
  <rect x="316.92" y="316.44" width="13.39" height="13.39" fill="#231f20"/>
  <rect x="316.92" y="274.24" width="13.39" height="13.39" fill="#231f20"/>
  <rect x="316.92" y="230.67" width="13.39" height="13.39" fill="#231f20"/>
  <rect x="274.19" y="404.11" width="13.39" height="13.39" fill="#231f20"/>
  <rect x="274.19" y="360" width="13.39" height="13.39" fill="#231f20"/>
  <rect x="274.19" y="316.44" width="13.39" height="13.39" fill="#231f20"/>
  <rect x="274.19" y="274.24" width="13.39" height="13.39" fill="#231f20"/>
  <rect x="274.19" y="230.67" width="13.39" height="13.39" fill="#231f20"/>
  <rect x="360.95" y="663.86" width="13.39" height="13.39" fill="#231f20"/>
  <rect x="360.95" y="619.76" width="13.39" height="13.39" fill="#231f20"/>
  <rect x="360.95" y="576.19" width="13.39" height="13.39" fill="#231f20"/>
  <rect x="360.95" y="534" width="13.39" height="13.39" fill="#231f20"/>
  <rect x="360.95" y="490.43" width="13.39" height="13.39" fill="#231f20"/>
  <rect x="360.95" y="448.52" width="13.39" height="13.39" fill="#231f20"/>
  <rect x="316.92" y="448.52" width="13.39" height="13.39" fill="#231f20"/>
  <rect x="274.19" y="448.52" width="13.39" height="13.39" fill="#231f20"/>
  <rect x="316.92" y="663.71" width="13.39" height="13.39" fill="#231f20"/>
  <rect x="316.92" y="619.6" width="13.39" height="13.39" fill="#231f20"/>
  <rect x="316.92" y="576.03" width="13.39" height="13.39" fill="#231f20"/>
  <rect x="316.92" y="533.84" width="13.39" height="13.39" fill="#231f20"/>
  <rect x="316.92" y="490.27" width="13.39" height="13.39" fill="#231f20"/>
  <rect x="274.19" y="663.71" width="13.39" height="13.39" fill="#231f20"/>
  <rect x="274.19" y="619.6" width="13.39" height="13.39" fill="#231f20"/>
  <rect x="274.19" y="576.03" width="13.39" height="13.39" fill="#231f20"/>
  <rect x="274.19" y="533.84" width="13.39" height="13.39" fill="#231f20"/>
  <rect x="274.19" y="490.27" width="13.39" height="13.39" fill="#231f20"/>
  <rect x="231.05" y="748.91" width="13.39" height="13.39" fill="#231f20"/>
  <rect x="231.05" y="705.35" width="13.39" height="13.39" fill="#231f20"/>
  <rect x="231.05" y="793.05" width="13.39" height="13.39" fill="#231f20"/>
  <rect x="231.05" y="834.11" width="13.39" height="13.39" fill="#231f20"/>
  <rect x="189.48" y="748.91" width="13.39" height="13.39" fill="#231f20"/>
  <rect x="189.48" y="705.35" width="13.39" height="13.39" fill="#231f20"/>
  <rect x="189.48" y="793.05" width="13.39" height="13.39" fill="#231f20"/>
  <rect x="189.48" y="834.11" width="13.39" height="13.39" fill="#231f20"/>
  <rect x="229.99" y="188.92" width="13.39" height="13.39" fill="#231f20"/>
  <rect x="229.99" y="144.82" width="13.39" height="13.39" fill="#231f20"/>
  <rect x="229.99" y="101.25" width="13.39" height="13.39" fill="#231f20"/>
  <rect x="229.99" y="59.05" width="13.39" height="13.39" fill="#231f20"/>
  <rect x="229.99" y="15.49" width="13.39" height="13.39" fill="#231f20"/>
  <rect x="187.26" y="188.92" width="13.39" height="13.39" fill="#231f20"/>
  <rect x="187.26" y="144.82" width="13.39" height="13.39" fill="#231f20"/>
  <rect x="187.26" y="101.25" width="13.39" height="13.39" fill="#231f20"/>
  <rect x="187.26" y="59.05" width="13.39" height="13.39" fill="#231f20"/>
  <rect x="187.26" y="15.49" width="13.39" height="13.39" fill="#231f20"/>
  <rect x="229.99" y="404.11" width="13.39" height="13.39" fill="#231f20"/>
  <rect x="229.99" y="360" width="13.39" height="13.39" fill="#231f20"/>
  <rect x="229.99" y="316.44" width="13.39" height="13.39" fill="#231f20"/>
  <rect x="229.99" y="274.24" width="13.39" height="13.39" fill="#231f20"/>
  <rect x="229.99" y="230.67" width="13.39" height="13.39" fill="#231f20"/>
  <rect x="187.26" y="404.11" width="13.39" height="13.39" fill="#231f20"/>
  <rect x="187.26" y="360" width="13.39" height="13.39" fill="#231f20"/>
  <rect x="187.26" y="316.44" width="13.39" height="13.39" fill="#231f20"/>
  <rect x="187.26" y="274.24" width="13.39" height="13.39" fill="#231f20"/>
  <rect x="187.26" y="230.67" width="13.39" height="13.39" fill="#231f20"/>
  <rect x="229.99" y="448.52" width="13.39" height="13.39" fill="#231f20"/>
  <rect x="187.26" y="448.52" width="13.39" height="13.39" fill="#231f20"/>
  <rect x="229.99" y="663.71" width="13.39" height="13.39" fill="#231f20"/>
  <rect x="229.99" y="619.6" width="13.39" height="13.39" fill="#231f20"/>
  <rect x="229.99" y="576.03" width="13.39" height="13.39" fill="#231f20"/>
  <rect x="229.99" y="533.84" width="13.39" height="13.39" fill="#231f20"/>
  <rect x="229.99" y="490.27" width="13.39" height="13.39" fill="#231f20"/>
  <rect x="187.26" y="663.71" width="13.39" height="13.39" fill="#231f20"/>
  <rect x="187.26" y="619.6" width="13.39" height="13.39" fill="#231f20"/>
  <rect x="187.26" y="576.03" width="13.39" height="13.39" fill="#231f20"/>
  <rect x="187.26" y="533.84" width="13.39" height="13.39" fill="#231f20"/>
  <rect x="187.26" y="490.27" width="13.39" height="13.39" fill="#231f20"/>
  <rect x="144.52" y="748.91" width="13.39" height="13.39" fill="#231f20"/>
  <rect x="144.52" y="705.35" width="13.39" height="13.39" fill="#231f20"/>
  <rect x="144.52" y="793.05" width="13.39" height="13.39" fill="#231f20"/>
  <rect x="144.52" y="834.11" width="13.39" height="13.39" fill="#231f20"/>
  <rect x="102.95" y="748.91" width="13.39" height="13.39" fill="#231f20"/>
  <rect x="102.95" y="705.35" width="13.39" height="13.39" fill="#231f20"/>
  <rect x="102.95" y="793.05" width="13.39" height="13.39" fill="#231f20"/>
  <rect x="102.95" y="834.11" width="13.39" height="13.39" fill="#231f20"/>
  <rect x="143.46" y="188.92" width="13.39" height="13.39" fill="#231f20"/>
  <rect x="143.46" y="144.82" width="13.39" height="13.39" fill="#231f20"/>
  <rect x="143.46" y="101.25" width="13.39" height="13.39" fill="#231f20"/>
  <rect x="143.46" y="59.05" width="13.39" height="13.39" fill="#231f20"/>
  <rect x="143.46" y="15.49" width="13.39" height="13.39" fill="#231f20"/>
  <rect x="100.73" y="188.92" width="13.39" height="13.39" fill="#231f20"/>
  <rect x="100.73" y="144.82" width="13.39" height="13.39" fill="#231f20"/>
  <rect x="100.73" y="101.25" width="13.39" height="13.39" fill="#231f20"/>
  <rect x="100.73" y="59.05" width="13.39" height="13.39" fill="#231f20"/>
  <rect x="100.73" y="15.49" width="13.39" height="13.39" fill="#231f20"/>
  <rect x="143.46" y="404.11" width="13.39" height="13.39" fill="#231f20"/>
  <rect x="143.46" y="360" width="13.39" height="13.39" fill="#231f20"/>
  <rect x="143.46" y="316.44" width="13.39" height="13.39" fill="#231f20"/>
  <rect x="143.46" y="274.24" width="13.39" height="13.39" fill="#231f20"/>
  <rect x="143.46" y="230.67" width="13.39" height="13.39" fill="#231f20"/>
  <rect x="100.73" y="404.11" width="13.39" height="13.39" fill="#231f20"/>
  <rect x="100.73" y="360" width="13.39" height="13.39" fill="#231f20"/>
  <rect x="100.73" y="316.44" width="13.39" height="13.39" fill="#231f20"/>
  <rect x="100.73" y="274.24" width="13.39" height="13.39" fill="#231f20"/>
  <rect x="100.73" y="230.67" width="13.39" height="13.39" fill="#231f20"/>
  <rect x="143.46" y="448.52" width="13.39" height="13.39" fill="#231f20"/>
  <rect x="100.73" y="448.52" width="13.39" height="13.39" fill="#231f20"/>
  <rect x="143.46" y="663.71" width="13.39" height="13.39" fill="#231f20"/>
  <rect x="143.46" y="619.6" width="13.39" height="13.39" fill="#231f20"/>
  <rect x="143.46" y="576.03" width="13.39" height="13.39" fill="#231f20"/>
  <rect x="143.46" y="533.84" width="13.39" height="13.39" fill="#231f20"/>
  <rect x="143.46" y="490.27" width="13.39" height="13.39" fill="#231f20"/>
  <rect x="100.73" y="663.71" width="13.39" height="13.39" fill="#231f20"/>
  <rect x="100.73" y="619.6" width="13.39" height="13.39" fill="#231f20"/>
  <rect x="100.73" y="576.03" width="13.39" height="13.39" fill="#231f20"/>
  <rect x="100.73" y="533.84" width="13.39" height="13.39" fill="#231f20"/>
  <rect x="100.73" y="490.27" width="13.39" height="13.39" fill="#231f20"/>
  <rect x="57.59" y="748.91" width="13.39" height="13.39" fill="#231f20"/>
  <rect x="57.59" y="705.35" width="13.39" height="13.39" fill="#231f20"/>
  <rect x="57.59" y="793.05" width="13.39" height="13.39" fill="#231f20"/>
  <rect x="57.59" y="834.11" width="13.39" height="13.39" fill="#231f20"/>
  <rect x="16.02" y="748.91" width="13.39" height="13.39" fill="#231f20"/>
  <rect x="16.02" y="705.35" width="13.39" height="13.39" fill="#231f20"/>
  <rect x="16.02" y="793.05" width="13.39" height="13.39" fill="#231f20"/>
  <rect x="16.02" y="834.11" width="13.39" height="13.39" fill="#231f20"/>
  <rect x="56.53" y="188.92" width="13.39" height="13.39" fill="#231f20"/>
  <rect x="56.53" y="144.82" width="13.39" height="13.39" fill="#231f20"/>
  <rect x="56.53" y="101.25" width="13.39" height="13.39" fill="#231f20"/>
  <rect x="56.53" y="59.05" width="13.39" height="13.39" fill="#231f20"/>
  <rect x="56.53" y="15.49" width="13.39" height="13.39" fill="#231f20"/>
  <rect x="13.8" y="188.92" width="13.39" height="13.39" fill="#231f20"/>
  <rect x="13.8" y="144.82" width="13.39" height="13.39" fill="#231f20"/>
  <rect x="13.8" y="101.25" width="13.39" height="13.39" fill="#231f20"/>
  <rect x="13.8" y="59.05" width="13.39" height="13.39" fill="#231f20"/>
  <rect x="13.8" y="15.49" width="13.39" height="13.39" fill="#231f20"/>
  <rect x="56.53" y="404.11" width="13.39" height="13.39" fill="#231f20"/>
  <rect x="56.53" y="360" width="13.39" height="13.39" fill="#231f20"/>
  <rect x="56.53" y="316.44" width="13.39" height="13.39" fill="#231f20"/>
  <rect x="56.53" y="274.24" width="13.39" height="13.39" fill="#231f20"/>
  <rect x="56.53" y="230.67" width="13.39" height="13.39" fill="#231f20"/>
  <rect x="13.8" y="404.11" width="13.39" height="13.39" fill="#231f20"/>
  <rect x="13.8" y="360" width="13.39" height="13.39" fill="#231f20"/>
  <rect x="13.8" y="316.44" width="13.39" height="13.39" fill="#231f20"/>
  <rect x="13.8" y="274.24" width="13.39" height="13.39" fill="#231f20"/>
  <rect x="13.8" y="230.67" width="13.39" height="13.39" fill="#231f20"/>
  <rect x="56.53" y="448.52" width="13.39" height="13.39" fill="#231f20"/>
  <rect x="13.8" y="448.52" width="13.39" height="13.39" fill="#231f20"/>
  <rect x="56.53" y="663.71" width="13.39" height="13.39" fill="#231f20"/>
  <rect x="56.53" y="619.6" width="13.39" height="13.39" fill="#231f20"/>
  <rect x="56.53" y="576.03" width="13.39" height="13.39" fill="#231f20"/>
  <rect x="56.53" y="533.84" width="13.39" height="13.39" fill="#231f20"/>
  <rect x="56.53" y="490.27" width="13.39" height="13.39" fill="#231f20"/>
  <rect x="13.8" y="663.71" width="13.39" height="13.39" fill="#231f20"/>
  <rect x="447.57" y="964.93" width="13.39" height="13.39" fill="#231f20"/>
  <rect x="447.57" y="921.37" width="13.39" height="13.39" fill="#231f20"/>
  <rect x="447.57" y="1009.07" width="13.39" height="13.39" fill="#231f20"/>
  <rect x="447.57" y="1050.13" width="13.39" height="13.39" fill="#231f20"/>
  <rect x="406" y="964.93" width="13.39" height="13.39" fill="#231f20"/>
  <rect x="406" y="921.37" width="13.39" height="13.39" fill="#231f20"/>
  <rect x="406" y="1009.07" width="13.39" height="13.39" fill="#231f20"/>
  <rect x="406" y="1050.13" width="13.39" height="13.39" fill="#231f20"/>
  <rect x="446.51" y="879.73" width="13.39" height="13.39" fill="#231f20"/>
  <rect x="403.78" y="879.73" width="13.39" height="13.39" fill="#231f20"/>
  <rect x="359.56" y="964.93" width="13.39" height="13.39" fill="#231f20"/>
  <rect x="359.56" y="921.37" width="13.39" height="13.39" fill="#231f20"/>
  <rect x="359.56" y="1009.07" width="13.39" height="13.39" fill="#231f20"/>
  <rect x="359.56" y="1050.13" width="13.39" height="13.39" fill="#231f20"/>
  <rect x="317.98" y="964.93" width="13.39" height="13.39" fill="#231f20"/>
  <rect x="317.98" y="921.37" width="13.39" height="13.39" fill="#231f20"/>
  <rect x="317.98" y="1009.07" width="13.39" height="13.39" fill="#231f20"/>
  <rect x="317.98" y="1050.13" width="13.39" height="13.39" fill="#231f20"/>
  <rect x="276.41" y="964.93" width="13.39" height="13.39" fill="#231f20"/>
  <rect x="276.41" y="921.37" width="13.39" height="13.39" fill="#231f20"/>
  <rect x="276.41" y="1009.07" width="13.39" height="13.39" fill="#231f20"/>
  <rect x="276.41" y="1050.13" width="13.39" height="13.39" fill="#231f20"/>
  <rect x="360.95" y="879.89" width="13.39" height="13.39" fill="#231f20"/>
  <rect x="316.92" y="879.73" width="13.39" height="13.39" fill="#231f20"/>
  <rect x="274.19" y="879.73" width="13.39" height="13.39" fill="#231f20"/>
  <rect x="231.05" y="964.93" width="13.39" height="13.39" fill="#231f20"/>
  <rect x="231.05" y="921.37" width="13.39" height="13.39" fill="#231f20"/>
  <rect x="231.05" y="1009.07" width="13.39" height="13.39" fill="#231f20"/>
  <rect x="231.05" y="1050.13" width="13.39" height="13.39" fill="#231f20"/>
  <rect x="189.48" y="964.93" width="13.39" height="13.39" fill="#231f20"/>
  <rect x="189.48" y="921.37" width="13.39" height="13.39" fill="#231f20"/>
  <rect x="189.48" y="1009.07" width="13.39" height="13.39" fill="#231f20"/>
  <rect x="189.48" y="1050.13" width="13.39" height="13.39" fill="#231f20"/>
  <rect x="229.99" y="879.73" width="13.39" height="13.39" fill="#231f20"/>
  <rect x="187.26" y="879.73" width="13.39" height="13.39" fill="#231f20"/>
  <rect x="144.52" y="964.93" width="13.39" height="13.39" fill="#231f20"/>
  <rect x="144.52" y="921.37" width="13.39" height="13.39" fill="#231f20"/>
  <rect x="144.52" y="1009.07" width="13.39" height="13.39" fill="#231f20"/>
  <rect x="144.52" y="1050.13" width="13.39" height="13.39" fill="#231f20"/>
  <rect x="102.95" y="964.93" width="13.39" height="13.39" fill="#231f20"/>
  <rect x="102.95" y="921.37" width="13.39" height="13.39" fill="#231f20"/>
  <rect x="102.95" y="1009.07" width="13.39" height="13.39" fill="#231f20"/>
  <rect x="102.95" y="1050.13" width="13.39" height="13.39" fill="#231f20"/>
  <rect x="143.46" y="879.73" width="13.39" height="13.39" fill="#231f20"/>
  <rect x="100.73" y="879.73" width="13.39" height="13.39" fill="#231f20"/>
  <rect x="57.59" y="964.93" width="13.39" height="13.39" fill="#231f20"/>
  <rect x="57.59" y="921.37" width="13.39" height="13.39" fill="#231f20"/>
  <rect x="57.59" y="1009.07" width="13.39" height="13.39" fill="#231f20"/>
  <rect x="57.59" y="1050.13" width="13.39" height="13.39" fill="#231f20"/>
  <rect x="16.02" y="964.93" width="13.39" height="13.39" fill="#231f20"/>
  <rect x="16.02" y="921.37" width="13.39" height="13.39" fill="#231f20"/>
  <rect x="16.02" y="1009.07" width="13.39" height="13.39" fill="#231f20"/>
  <rect x="16.02" y="1050.13" width="13.39" height="13.39" fill="#231f20"/>
  <rect x="56.53" y="879.73" width="13.39" height="13.39" fill="#231f20"/>
  <rect x="13.8" y="879.73" width="13.39" height="13.39" fill="#231f20"/>
  <rect x="13.8" y="619.6" width="13.39" height="13.39" fill="#231f20"/>
  <rect x="13.8" y="576.03" width="13.39" height="13.39" fill="#231f20"/>
  <rect x="13.8" y="533.84" width="13.39" height="13.39" fill="#231f20"/>
  <rect x="13.8" y="490.27" width="13.39" height="13.39" fill="#231f20"/>
  <rect x="1055.32" y="751.26" width="13.39" height="13.39" fill="#231f20"/>
  <rect x="1055.32" y="707.69" width="13.39" height="13.39" fill="#231f20"/>
  <rect x="1055.32" y="795.4" width="13.39" height="13.39" fill="#231f20"/>
  <rect x="1055.32" y="836.46" width="13.39" height="13.39" fill="#231f20"/>
  <rect x="1053.1" y="191.27" width="13.39" height="13.39" fill="#231f20"/>
  <rect x="1053.1" y="147.16" width="13.39" height="13.39" fill="#231f20"/>
  <rect x="1053.1" y="103.6" width="13.39" height="13.39" fill="#231f20"/>
  <rect x="1053.1" y="61.4" width="13.39" height="13.39" fill="#231f20"/>
  <rect x="1053.1" y="17.83" width="13.39" height="13.39" fill="#231f20"/>
  <rect x="1053.1" y="406.46" width="13.39" height="13.39" fill="#231f20"/>
  <rect x="1053.1" y="362.35" width="13.39" height="13.39" fill="#231f20"/>
  <rect x="1053.1" y="318.78" width="13.39" height="13.39" fill="#231f20"/>
  <rect x="1053.1" y="276.59" width="13.39" height="13.39" fill="#231f20"/>
  <rect x="1053.1" y="233.02" width="13.39" height="13.39" fill="#231f20"/>
  <rect x="1053.1" y="450.86" width="13.39" height="13.39" fill="#231f20"/>
  <rect x="1053.1" y="666.05" width="13.39" height="13.39" fill="#231f20"/>
  <rect x="1053.1" y="621.95" width="13.39" height="13.39" fill="#231f20"/>
  <rect x="1053.1" y="578.38" width="13.39" height="13.39" fill="#231f20"/>
  <rect x="1053.1" y="536.18" width="13.39" height="13.39" fill="#231f20"/>
  <rect x="1053.1" y="492.62" width="13.39" height="13.39" fill="#231f20"/>
  <rect x="1009.96" y="751.26" width="13.39" height="13.39" fill="#231f20"/>
  <rect x="1009.96" y="707.69" width="13.39" height="13.39" fill="#231f20"/>
  <rect x="1009.96" y="795.4" width="13.39" height="13.39" fill="#231f20"/>
  <rect x="1009.96" y="836.46" width="13.39" height="13.39" fill="#231f20"/>
  <rect x="968.39" y="751.26" width="13.39" height="13.39" fill="#231f20"/>
  <rect x="968.39" y="707.69" width="13.39" height="13.39" fill="#231f20"/>
  <rect x="968.39" y="795.4" width="13.39" height="13.39" fill="#231f20"/>
  <rect x="968.39" y="836.46" width="13.39" height="13.39" fill="#231f20"/>
  <rect x="1008.9" y="191.27" width="13.39" height="13.39" fill="#231f20"/>
  <rect x="1008.9" y="147.16" width="13.39" height="13.39" fill="#231f20"/>
  <rect x="1008.9" y="103.6" width="13.39" height="13.39" fill="#231f20"/>
  <rect x="1008.9" y="61.4" width="13.39" height="13.39" fill="#231f20"/>
  <rect x="1008.9" y="17.83" width="13.39" height="13.39" fill="#231f20"/>
  <rect x="966.17" y="191.27" width="13.39" height="13.39" fill="#231f20"/>
  <rect x="966.17" y="147.16" width="13.39" height="13.39" fill="#231f20"/>
  <rect x="966.17" y="103.6" width="13.39" height="13.39" fill="#231f20"/>
  <rect x="966.17" y="61.4" width="13.39" height="13.39" fill="#231f20"/>
  <rect x="966.17" y="17.83" width="13.39" height="13.39" fill="#231f20"/>
  <rect x="1008.9" y="406.46" width="13.39" height="13.39" fill="#231f20"/>
  <rect x="1008.9" y="362.35" width="13.39" height="13.39" fill="#231f20"/>
  <rect x="1008.9" y="318.78" width="13.39" height="13.39" fill="#231f20"/>
  <rect x="1008.9" y="276.59" width="13.39" height="13.39" fill="#231f20"/>
  <rect x="1008.9" y="233.02" width="13.39" height="13.39" fill="#231f20"/>
  <rect x="966.17" y="406.46" width="13.39" height="13.39" fill="#231f20"/>
  <rect x="966.17" y="362.35" width="13.39" height="13.39" fill="#231f20"/>
  <rect x="966.17" y="318.78" width="13.39" height="13.39" fill="#231f20"/>
  <rect x="966.17" y="276.59" width="13.39" height="13.39" fill="#231f20"/>
  <rect x="966.17" y="233.02" width="13.39" height="13.39" fill="#231f20"/>
  <rect x="1008.9" y="450.86" width="13.39" height="13.39" fill="#231f20"/>
  <rect x="966.17" y="450.86" width="13.39" height="13.39" fill="#231f20"/>
  <rect x="1008.9" y="666.05" width="13.39" height="13.39" fill="#231f20"/>
  <rect x="1008.9" y="621.95" width="13.39" height="13.39" fill="#231f20"/>
  <rect x="1008.9" y="578.38" width="13.39" height="13.39" fill="#231f20"/>
  <rect x="1008.9" y="536.18" width="13.39" height="13.39" fill="#231f20"/>
  <rect x="1008.9" y="492.62" width="13.39" height="13.39" fill="#231f20"/>
  <rect x="966.17" y="666.05" width="13.39" height="13.39" fill="#231f20"/>
  <rect x="966.17" y="621.95" width="13.39" height="13.39" fill="#231f20"/>
  <rect x="966.17" y="578.38" width="13.39" height="13.39" fill="#231f20"/>
  <rect x="966.17" y="536.18" width="13.39" height="13.39" fill="#231f20"/>
  <rect x="966.17" y="492.62" width="13.39" height="13.39" fill="#231f20"/>
  <rect x="923.44" y="751.26" width="13.39" height="13.39" fill="#231f20"/>
  <rect x="923.44" y="707.69" width="13.39" height="13.39" fill="#231f20"/>
  <rect x="923.44" y="795.4" width="13.39" height="13.39" fill="#231f20"/>
  <rect x="923.44" y="836.46" width="13.39" height="13.39" fill="#231f20"/>
  <rect x="881.86" y="751.26" width="13.39" height="13.39" fill="#231f20"/>
  <rect x="881.86" y="707.69" width="13.39" height="13.39" fill="#231f20"/>
  <rect x="881.86" y="795.4" width="13.39" height="13.39" fill="#231f20"/>
  <rect x="881.86" y="836.46" width="13.39" height="13.39" fill="#231f20"/>
  <rect x="922.37" y="191.27" width="13.39" height="13.39" fill="#231f20"/>
  <rect x="922.37" y="147.16" width="13.39" height="13.39" fill="#231f20"/>
  <rect x="922.37" y="103.6" width="13.39" height="13.39" fill="#231f20"/>
  <rect x="922.37" y="61.4" width="13.39" height="13.39" fill="#231f20"/>
  <rect x="922.37" y="17.83" width="13.39" height="13.39" fill="#231f20"/>
  <rect x="879.64" y="191.27" width="13.39" height="13.39" fill="#231f20"/>
  <rect x="879.64" y="147.16" width="13.39" height="13.39" fill="#231f20"/>
  <rect x="879.64" y="103.6" width="13.39" height="13.39" fill="#231f20"/>
  <rect x="879.64" y="61.4" width="13.39" height="13.39" fill="#231f20"/>
  <rect x="879.64" y="17.83" width="13.39" height="13.39" fill="#231f20"/>
  <rect x="922.37" y="406.46" width="13.39" height="13.39" fill="#231f20"/>
  <rect x="922.37" y="362.35" width="13.39" height="13.39" fill="#231f20"/>
  <rect x="922.37" y="318.78" width="13.39" height="13.39" fill="#231f20"/>
  <rect x="922.37" y="276.59" width="13.39" height="13.39" fill="#231f20"/>
  <rect x="922.37" y="233.02" width="13.39" height="13.39" fill="#231f20"/>
  <rect x="879.64" y="406.46" width="13.39" height="13.39" fill="#231f20"/>
  <rect x="879.64" y="362.35" width="13.39" height="13.39" fill="#231f20"/>
  <rect x="879.64" y="318.78" width="13.39" height="13.39" fill="#231f20"/>
  <rect x="879.64" y="276.59" width="13.39" height="13.39" fill="#231f20"/>
  <rect x="879.64" y="233.02" width="13.39" height="13.39" fill="#231f20"/>
  <rect x="922.37" y="450.86" width="13.39" height="13.39" fill="#231f20"/>
  <rect x="879.64" y="450.86" width="13.39" height="13.39" fill="#231f20"/>
  <rect x="922.37" y="666.05" width="13.39" height="13.39" fill="#231f20"/>
  <rect x="922.37" y="621.95" width="13.39" height="13.39" fill="#231f20"/>
  <rect x="922.37" y="578.38" width="13.39" height="13.39" fill="#231f20"/>
  <rect x="922.37" y="536.18" width="13.39" height="13.39" fill="#231f20"/>
  <rect x="922.37" y="492.62" width="13.39" height="13.39" fill="#231f20"/>
  <rect x="879.64" y="666.05" width="13.39" height="13.39" fill="#231f20"/>
  <rect x="879.64" y="621.95" width="13.39" height="13.39" fill="#231f20"/>
  <rect x="879.64" y="578.38" width="13.39" height="13.39" fill="#231f20"/>
  <rect x="879.64" y="536.18" width="13.39" height="13.39" fill="#231f20"/>
  <rect x="879.64" y="492.62" width="13.39" height="13.39" fill="#231f20"/>
  <rect x="836.51" y="751.26" width="13.39" height="13.39" fill="#231f20"/>
  <rect x="836.51" y="707.69" width="13.39" height="13.39" fill="#231f20"/>
  <rect x="836.51" y="795.4" width="13.39" height="13.39" fill="#231f20"/>
  <rect x="836.51" y="836.46" width="13.39" height="13.39" fill="#231f20"/>
  <rect x="794.93" y="751.26" width="13.39" height="13.39" fill="#231f20"/>
  <rect x="794.93" y="707.69" width="13.39" height="13.39" fill="#231f20"/>
  <rect x="794.93" y="795.4" width="13.39" height="13.39" fill="#231f20"/>
  <rect x="794.93" y="836.46" width="13.39" height="13.39" fill="#231f20"/>
  <rect x="835.44" y="191.27" width="13.39" height="13.39" fill="#231f20"/>
  <rect x="835.44" y="147.16" width="13.39" height="13.39" fill="#231f20"/>
  <rect x="835.44" y="103.6" width="13.39" height="13.39" fill="#231f20"/>
  <rect x="835.44" y="61.4" width="13.39" height="13.39" fill="#231f20"/>
  <rect x="835.44" y="17.83" width="13.39" height="13.39" fill="#231f20"/>
  <rect x="792.71" y="191.27" width="13.39" height="13.39" fill="#231f20"/>
  <rect x="792.71" y="147.16" width="13.39" height="13.39" fill="#231f20"/>
  <rect x="792.71" y="103.6" width="13.39" height="13.39" fill="#231f20"/>
  <rect x="792.71" y="61.4" width="13.39" height="13.39" fill="#231f20"/>
  <rect x="792.71" y="17.83" width="13.39" height="13.39" fill="#231f20"/>
  <rect x="835.44" y="406.46" width="13.39" height="13.39" fill="#231f20"/>
  <rect x="835.44" y="362.35" width="13.39" height="13.39" fill="#231f20"/>
  <rect x="835.44" y="318.78" width="13.39" height="13.39" fill="#231f20"/>
  <rect x="835.44" y="276.59" width="13.39" height="13.39" fill="#231f20"/>
  <rect x="835.44" y="233.02" width="13.39" height="13.39" fill="#231f20"/>
  <rect x="792.71" y="406.46" width="13.39" height="13.39" fill="#231f20"/>
  <rect x="792.71" y="362.35" width="13.39" height="13.39" fill="#231f20"/>
  <rect x="792.71" y="318.78" width="13.39" height="13.39" fill="#231f20"/>
  <rect x="792.71" y="276.59" width="13.39" height="13.39" fill="#231f20"/>
  <rect x="792.71" y="233.02" width="13.39" height="13.39" fill="#231f20"/>
  <rect x="835.44" y="450.86" width="13.39" height="13.39" fill="#231f20"/>
  <rect x="792.71" y="450.86" width="13.39" height="13.39" fill="#231f20"/>
  <rect x="835.44" y="666.05" width="13.39" height="13.39" fill="#231f20"/>
  <rect x="835.44" y="621.95" width="13.39" height="13.39" fill="#231f20"/>
  <rect x="835.44" y="578.38" width="13.39" height="13.39" fill="#231f20"/>
  <rect x="835.44" y="536.18" width="13.39" height="13.39" fill="#231f20"/>
  <rect x="835.44" y="492.62" width="13.39" height="13.39" fill="#231f20"/>
  <rect x="792.71" y="666.05" width="13.39" height="13.39" fill="#231f20"/>
  <rect x="1055.32" y="967.28" width="13.39" height="13.39" fill="#231f20"/>
  <rect x="1055.32" y="923.71" width="13.39" height="13.39" fill="#231f20"/>
  <rect x="1055.32" y="1011.42" width="13.39" height="13.39" fill="#231f20"/>
  <rect x="1055.32" y="1052.48" width="13.39" height="13.39" fill="#231f20"/>
  <rect x="1053.1" y="882.07" width="13.39" height="13.39" fill="#231f20"/>
  <rect x="1009.96" y="967.28" width="13.39" height="13.39" fill="#231f20"/>
  <rect x="1009.96" y="923.71" width="13.39" height="13.39" fill="#231f20"/>
  <rect x="1009.96" y="1011.42" width="13.39" height="13.39" fill="#231f20"/>
  <rect x="1009.96" y="1052.48" width="13.39" height="13.39" fill="#231f20"/>
  <rect x="968.39" y="967.28" width="13.39" height="13.39" fill="#231f20"/>
  <rect x="968.39" y="923.71" width="13.39" height="13.39" fill="#231f20"/>
  <rect x="968.39" y="1011.42" width="13.39" height="13.39" fill="#231f20"/>
  <rect x="968.39" y="1052.48" width="13.39" height="13.39" fill="#231f20"/>
  <rect x="1008.9" y="882.07" width="13.39" height="13.39" fill="#231f20"/>
  <rect x="966.17" y="882.07" width="13.39" height="13.39" fill="#231f20"/>
  <rect x="923.44" y="967.28" width="13.39" height="13.39" fill="#231f20"/>
  <rect x="923.44" y="923.71" width="13.39" height="13.39" fill="#231f20"/>
  <rect x="923.44" y="1011.42" width="13.39" height="13.39" fill="#231f20"/>
  <rect x="923.44" y="1052.48" width="13.39" height="13.39" fill="#231f20"/>
  <rect x="881.86" y="967.28" width="13.39" height="13.39" fill="#231f20"/>
  <rect x="881.86" y="923.71" width="13.39" height="13.39" fill="#231f20"/>
  <rect x="881.86" y="1011.42" width="13.39" height="13.39" fill="#231f20"/>
  <rect x="881.86" y="1052.48" width="13.39" height="13.39" fill="#231f20"/>
  <rect x="922.37" y="882.07" width="13.39" height="13.39" fill="#231f20"/>
  <rect x="879.64" y="882.07" width="13.39" height="13.39" fill="#231f20"/>
  <rect x="836.51" y="967.28" width="13.39" height="13.39" fill="#231f20"/>
  <rect x="836.51" y="923.71" width="13.39" height="13.39" fill="#231f20"/>
  <rect x="836.51" y="1011.42" width="13.39" height="13.39" fill="#231f20"/>
  <rect x="836.51" y="1052.48" width="13.39" height="13.39" fill="#231f20"/>
  <rect x="794.93" y="967.28" width="13.39" height="13.39" fill="#231f20"/>
  <rect x="794.93" y="923.71" width="13.39" height="13.39" fill="#231f20"/>
  <rect x="794.93" y="1011.42" width="13.39" height="13.39" fill="#231f20"/>
  <rect x="794.93" y="1052.48" width="13.39" height="13.39" fill="#231f20"/>
  <rect x="835.44" y="882.07" width="13.39" height="13.39" fill="#231f20"/>
  <rect x="792.71" y="882.07" width="13.39" height="13.39" fill="#231f20"/>
  <rect x="792.71" y="621.95" width="13.39" height="13.39" fill="#231f20"/>
  <rect x="792.71" y="578.38" width="13.39" height="13.39" fill="#231f20"/>
  <rect x="792.71" y="536.18" width="13.39" height="13.39" fill="#231f20"/>
  <rect x="792.71" y="492.62" width="13.39" height="13.39" fill="#231f20"/>
  <rect x="749.97" y="751.26" width="13.39" height="13.39" fill="#231f20"/>
  <rect x="749.97" y="707.69" width="13.39" height="13.39" fill="#231f20"/>
  <rect x="749.97" y="795.4" width="13.39" height="13.39" fill="#231f20"/>
  <rect x="749.97" y="836.46" width="13.39" height="13.39" fill="#231f20"/>
  <rect x="708.4" y="751.26" width="13.39" height="13.39" fill="#231f20"/>
  <rect x="708.4" y="707.69" width="13.39" height="13.39" fill="#231f20"/>
  <rect x="708.4" y="795.4" width="13.39" height="13.39" fill="#231f20"/>
  <rect x="708.4" y="836.46" width="13.39" height="13.39" fill="#231f20"/>
  <rect x="748.91" y="191.27" width="13.39" height="13.39" fill="#231f20"/>
  <rect x="748.91" y="147.16" width="13.39" height="13.39" fill="#231f20"/>
  <rect x="748.91" y="103.6" width="13.39" height="13.39" fill="#231f20"/>
  <rect x="748.91" y="61.4" width="13.39" height="13.39" fill="#231f20"/>
  <rect x="748.91" y="17.83" width="13.39" height="13.39" fill="#231f20"/>
  <rect x="706.18" y="191.27" width="13.39" height="13.39" fill="#231f20"/>
  <rect x="706.18" y="147.16" width="13.39" height="13.39" fill="#231f20"/>
  <rect x="706.18" y="103.6" width="13.39" height="13.39" fill="#231f20"/>
  <rect x="706.18" y="61.4" width="13.39" height="13.39" fill="#231f20"/>
  <rect x="706.18" y="17.83" width="13.39" height="13.39" fill="#231f20"/>
  <rect x="748.91" y="406.46" width="13.39" height="13.39" fill="#231f20"/>
  <rect x="748.91" y="362.35" width="13.39" height="13.39" fill="#231f20"/>
  <rect x="748.91" y="318.78" width="13.39" height="13.39" fill="#231f20"/>
  <rect x="748.91" y="276.59" width="13.39" height="13.39" fill="#231f20"/>
  <rect x="748.91" y="233.02" width="13.39" height="13.39" fill="#231f20"/>
  <rect x="706.18" y="406.46" width="13.39" height="13.39" fill="#231f20"/>
  <rect x="706.18" y="362.35" width="13.39" height="13.39" fill="#231f20"/>
  <rect x="706.18" y="318.78" width="13.39" height="13.39" fill="#231f20"/>
  <rect x="706.18" y="276.59" width="13.39" height="13.39" fill="#231f20"/>
  <rect x="706.18" y="233.02" width="13.39" height="13.39" fill="#231f20"/>
  <rect x="748.91" y="450.86" width="13.39" height="13.39" fill="#231f20"/>
  <rect x="706.18" y="450.86" width="13.39" height="13.39" fill="#231f20"/>
  <rect x="748.91" y="666.05" width="13.39" height="13.39" fill="#231f20"/>
  <rect x="748.91" y="621.95" width="13.39" height="13.39" fill="#231f20"/>
  <rect x="748.91" y="578.38" width="13.39" height="13.39" fill="#231f20"/>
  <rect x="748.91" y="536.18" width="13.39" height="13.39" fill="#231f20"/>
  <rect x="748.91" y="492.62" width="13.39" height="13.39" fill="#231f20"/>
  <rect x="706.18" y="666.05" width="13.39" height="13.39" fill="#231f20"/>
  <rect x="749.97" y="967.28" width="13.39" height="13.39" fill="#231f20"/>
  <rect x="749.97" y="923.71" width="13.39" height="13.39" fill="#231f20"/>
  <rect x="749.97" y="1011.42" width="13.39" height="13.39" fill="#231f20"/>
  <rect x="749.97" y="1052.48" width="13.39" height="13.39" fill="#231f20"/>
  <rect x="708.4" y="967.28" width="13.39" height="13.39" fill="#231f20"/>
  <rect x="708.4" y="923.71" width="13.39" height="13.39" fill="#231f20"/>
  <rect x="708.4" y="1011.42" width="13.39" height="13.39" fill="#231f20"/>
  <rect x="708.4" y="1052.48" width="13.39" height="13.39" fill="#231f20"/>
  <rect x="748.91" y="882.07" width="13.39" height="13.39" fill="#231f20"/>
  <rect x="706.18" y="882.07" width="13.39" height="13.39" fill="#231f20"/>
  <rect x="706.18" y="621.95" width="13.39" height="13.39" fill="#231f20"/>
  <rect x="706.18" y="578.38" width="13.39" height="13.39" fill="#231f20"/>
  <rect x="706.18" y="536.18" width="13.39" height="13.39" fill="#231f20"/>
  <rect x="706.18" y="492.62" width="13.39" height="13.39" fill="#231f20"/>
</svg>