<?xml version="1.0" encoding="UTF-8"?>
<svg id="_16" data-name="16" xmlns="http://www.w3.org/2000/svg" viewBox="0 0 1080 1080">
  <rect x="391.64" y="558.82" width="40.84" height="40.84" fill="#231f20"/>
  <rect x="391.62" y="602.44" width="40.84" height="40.84" fill="#231f20"/>
  <rect x="348.13" y="558.82" width="40.84" height="40.84" fill="#231f20"/>
  <rect x="348.6" y="602.28" width="40.84" height="40.84" fill="#231f20"/>
  <rect x="304.61" y="558.82" width="40.84" height="40.84" fill="#231f20"/>
  <rect x="305.09" y="602.28" width="40.84" height="40.84" fill="#231f20"/>
  <rect x="261.65" y="558.82" width="40.84" height="40.84" fill="#231f20"/>
  <rect x="262.12" y="602.28" width="40.84" height="40.84" fill="#231f20"/>
  <rect x="218.68" y="558.82" width="40.84" height="40.84" fill="#231f20"/>
  <rect x="304.9" y="515.71" width="40.84" height="40.84" fill="#231f20"/>
  <rect x="347.82" y="515.71" width="40.84" height="40.84" fill="#231f20"/>
  <rect x="261.64" y="515.71" width="40.84" height="40.84" fill="#231f20"/>
  <rect x="218.37" y="515.71" width="40.84" height="40.84" fill="#231f20"/>
  <rect x="175.41" y="515.71" width="40.84" height="40.84" fill="#231f20"/>
  <rect x="305.29" y="472.52" width="40.84" height="40.84" fill="#231f20"/>
  <rect x="348.2" y="472.52" width="40.84" height="40.84" fill="#231f20"/>
  <rect x="262.03" y="472.52" width="40.84" height="40.84" fill="#231f20"/>
  <rect x="218.76" y="472.52" width="40.84" height="40.84" fill="#231f20"/>
  <rect x="175.8" y="472.52" width="40.84" height="40.84" fill="#231f20"/>
  <rect x="132.45" y="515.71" width="40.84" height="40.84" fill="#231f20"/>
  <rect x="132.83" y="472.52" width="40.84" height="40.84" fill="#231f20"/>
  <rect x="305.26" y="428.49" width="40.84" height="40.84" fill="#231f20"/>
  <rect x="348.91" y="428.49" width="40.84" height="40.84" fill="#231f20"/>
  <rect x="261.81" y="428.49" width="40.84" height="40.84" fill="#231f20"/>
  <rect x="219.47" y="428.49" width="40.84" height="40.84" fill="#231f20"/>
  <rect x="305.26" y="385.63" width="40.84" height="40.84" fill="#231f20"/>
  <rect x="348.91" y="385.63" width="40.84" height="40.84" fill="#231f20"/>
  <rect x="305.26" y="342.65" width="40.84" height="40.84" fill="#231f20"/>
  <rect x="348.28" y="342.65" width="40.84" height="40.84" fill="#231f20"/>
  <rect x="391.93" y="428.49" width="40.84" height="40.84" fill="#231f20"/>
  <rect x="391.93" y="385.63" width="40.84" height="40.84" fill="#231f20"/>
  <rect x="391.3" y="342.65" width="40.84" height="40.84" fill="#231f20"/>
  <rect x="305.55" y="299.67" width="40.84" height="40.84" fill="#231f20"/>
  <rect x="348.91" y="299.67" width="40.84" height="40.84" fill="#231f20"/>
  <rect x="218.76" y="342.65" width="40.84" height="40.84" fill="#231f20"/>
  <rect x="262.23" y="342.65" width="40.84" height="40.84" fill="#231f20"/>
  <rect x="218.45" y="299.67" width="40.84" height="40.84" fill="#231f20"/>
  <rect x="261.81" y="299.67" width="40.84" height="40.84" fill="#231f20"/>
  <rect x="132.6" y="342.65" width="40.84" height="40.84" fill="#231f20"/>
  <rect x="175.51" y="342.65" width="40.84" height="40.84" fill="#231f20"/>
  <rect x="131.73" y="299.67" width="40.84" height="40.84" fill="#231f20"/>
  <rect x="175.09" y="299.67" width="40.84" height="40.84" fill="#231f20"/>
  <rect x="45.5" y="342.65" width="40.84" height="40.84" fill="#231f20"/>
  <rect x="88.41" y="342.65" width="40.84" height="40.84" fill="#231f20"/>
  <rect x="45.5" y="299.67" width="40.84" height="40.84" fill="#231f20"/>
  <rect x="88.62" y="299.51" width="40.84" height="40.84" fill="#231f20"/>
  <rect x="305.71" y="256.38" width="40.84" height="40.84" fill="#231f20"/>
  <rect x="349.07" y="256.38" width="40.84" height="40.84" fill="#231f20"/>
  <rect x="218.61" y="256.38" width="40.84" height="40.84" fill="#231f20"/>
  <rect x="261.97" y="256.38" width="40.84" height="40.84" fill="#231f20"/>
  <rect x="131.89" y="256.38" width="40.84" height="40.84" fill="#231f20"/>
  <rect x="175.25" y="256.38" width="40.84" height="40.84" fill="#231f20"/>
  <rect x="46.11" y="256.38" width="40.84" height="40.84" fill="#231f20"/>
  <rect x="88.37" y="256.38" width="40.84" height="40.84" fill="#231f20"/>
  <rect x="305.71" y="213.24" width="40.84" height="40.84" fill="#231f20"/>
  <rect x="349.07" y="213.24" width="40.84" height="40.84" fill="#231f20"/>
  <rect x="218.61" y="213.24" width="40.84" height="40.84" fill="#231f20"/>
  <rect x="261.97" y="213.24" width="40.84" height="40.84" fill="#231f20"/>
  <rect x="131.89" y="213.24" width="40.84" height="40.84" fill="#231f20"/>
  <rect x="175.25" y="213.24" width="40.84" height="40.84" fill="#231f20"/>
  <rect x="46.11" y="213.24" width="40.84" height="40.84" fill="#231f20"/>
  <rect x="2.28" y="342.81" width="40.84" height="40.84" fill="#231f20"/>
  <rect x="2.28" y="299.83" width="40.84" height="40.84" fill="#231f20"/>
  <rect x="2.89" y="256.54" width="40.84" height="40.84" fill="#231f20"/>
  <rect x="2.89" y="213.41" width="40.84" height="40.84" fill="#231f20"/>
  <rect x="88.37" y="213.24" width="40.84" height="40.84" fill="#231f20"/>
  <rect x="305.87" y="169.8" width="40.84" height="40.84" fill="#231f20"/>
  <rect x="218.77" y="169.8" width="40.84" height="40.84" fill="#231f20"/>
  <rect x="262.13" y="169.8" width="40.84" height="40.84" fill="#231f20"/>
  <rect x="132.05" y="169.8" width="40.84" height="40.84" fill="#231f20"/>
  <rect x="175.41" y="169.8" width="40.84" height="40.84" fill="#231f20"/>
  <rect x="305.2" y="126.81" width="40.84" height="40.84" fill="#231f20"/>
  <rect x="218.77" y="127.23" width="40.84" height="40.84" fill="#231f20"/>
  <rect x="262.13" y="127.23" width="40.84" height="40.84" fill="#231f20"/>
  <rect x="305.2" y="83.47" width="40.84" height="40.84" fill="#231f20"/>
  <rect x="261.46" y="83.47" width="40.84" height="40.84" fill="#231f20"/>
  <rect x="175.41" y="127.23" width="40.84" height="40.84" fill="#231f20"/>
  <rect x="46.27" y="169.8" width="40.84" height="40.84" fill="#231f20"/>
  <rect x="88.53" y="169.8" width="40.84" height="40.84" fill="#231f20"/>
  <rect x="262.23" y="385.63" width="40.84" height="40.84" fill="#231f20"/>
  <rect x="218.37" y="385.63" width="40.84" height="40.84" fill="#231f20"/>
  <rect x="132.34" y="385.63" width="40.84" height="40.84" fill="#231f20"/>
  <rect x="175.25" y="385.63" width="40.84" height="40.84" fill="#231f20"/>
  <rect x="89.08" y="385.63" width="40.84" height="40.84" fill="#231f20"/>
  <rect x="45.81" y="385.63" width="40.84" height="40.84" fill="#231f20"/>
  <rect x="175.74" y="429.08" width="40.84" height="40.84" fill="#231f20"/>
  <rect x="132.01" y="428.49" width="40.84" height="40.84" fill="#231f20"/>
  <rect x="89.05" y="428.49" width="40.84" height="40.84" fill="#231f20"/>
  <rect x="219.16" y="602.28" width="40.84" height="40.84" fill="#231f20"/>
  <rect x="391.62" y="644.8" width="40.84" height="40.84" fill="#231f20"/>
  <rect x="348.6" y="644.64" width="40.84" height="40.84" fill="#231f20"/>
  <rect x="305.09" y="644.64" width="40.84" height="40.84" fill="#231f20"/>
  <rect x="262.12" y="644.64" width="40.84" height="40.84" fill="#231f20"/>
  <rect x="392.12" y="688.41" width="40.84" height="40.84" fill="#231f20"/>
  <rect x="434.63" y="602.28" width="40.84" height="40.84" fill="#231f20"/>
  <rect x="434.63" y="644.64" width="40.84" height="40.84" fill="#231f20"/>
  <rect x="520.25" y="602.52" width="40.84" height="40.84" fill="#231f20"/>
  <rect x="520.93" y="645.55" width="40.84" height="40.84" fill="#231f20"/>
  <rect x="477.1" y="602.52" width="40.84" height="40.84" fill="#231f20"/>
  <rect x="434.63" y="558.36" width="40.84" height="40.84" fill="#231f20"/>
  <rect x="520.93" y="559.28" width="40.84" height="40.84" fill="#231f20"/>
  <rect x="477.78" y="559.28" width="40.84" height="40.84" fill="#231f20"/>
  <rect x="391.64" y="515.71" width="40.84" height="40.84" fill="#231f20"/>
  <rect x="434.63" y="515.25" width="40.84" height="40.84" fill="#231f20"/>
  <rect x="520.93" y="516.17" width="40.84" height="40.84" fill="#231f20"/>
  <rect x="477.78" y="516.17" width="40.84" height="40.84" fill="#231f20"/>
  <rect x="391.64" y="471.87" width="40.84" height="40.84" fill="#231f20"/>
  <rect x="434.63" y="471.41" width="40.84" height="40.84" fill="#231f20"/>
  <rect x="434.63" y="428.49" width="40.84" height="40.84" fill="#231f20"/>
  <rect x="477.78" y="472.33" width="40.84" height="40.84" fill="#231f20"/>
  <rect x="477.78" y="645.55" width="40.84" height="40.84" fill="#231f20"/>
  <rect x="564.25" y="558.82" width="40.84" height="40.84" fill="#231f20"/>
  <rect x="564.22" y="602.61" width="40.84" height="40.84" fill="#231f20"/>
  <rect x="564.22" y="644.97" width="40.84" height="40.84" fill="#231f20"/>
  <rect x="607.24" y="602.45" width="40.84" height="40.84" fill="#231f20"/>
  <rect x="607.24" y="644.81" width="40.84" height="40.84" fill="#231f20"/>
  <rect x="434.63" y="688.41" width="40.84" height="40.84" fill="#231f20"/>
  <rect x="348.6" y="688.41" width="40.84" height="40.84" fill="#231f20"/>
  <rect x="305.09" y="688.41" width="40.84" height="40.84" fill="#231f20"/>
  <rect x="392.12" y="731.56" width="40.84" height="40.84" fill="#231f20"/>
  <rect x="434.63" y="731.56" width="40.84" height="40.84" fill="#231f20"/>
  <rect x="478.03" y="731.58" width="40.84" height="40.84" fill="#231f20"/>
  <rect x="478.03" y="688.41" width="40.84" height="40.84" fill="#231f20"/>
  <rect x="520.93" y="688.41" width="40.84" height="40.84" fill="#231f20"/>
  <rect x="348.6" y="731.56" width="40.84" height="40.84" fill="#231f20"/>
  <rect x="305.09" y="731.56" width="40.84" height="40.84" fill="#231f20"/>
  <rect x="434.63" y="774.68" width="40.84" height="40.84" fill="#231f20"/>
  <rect x="478.03" y="774.76" width="40.84" height="40.84" fill="#231f20"/>
  <rect x="391.46" y="774.68" width="40.84" height="40.84" fill="#231f20"/>
  <rect x="347.95" y="774.68" width="40.84" height="40.84" fill="#231f20"/>
  <rect x="304.96" y="774.68" width="40.84" height="40.84" fill="#231f20"/>
  <rect x="434.63" y="817.81" width="40.84" height="40.84" fill="#231f20"/>
  <rect x="478.15" y="817.81" width="40.84" height="40.84" fill="#231f20"/>
  <rect x="521.08" y="731.56" width="40.84" height="40.84" fill="#231f20"/>
  <rect x="521.08" y="774.76" width="40.84" height="40.84" fill="#231f20"/>
  <rect x="564.21" y="731.58" width="40.84" height="40.84" fill="#231f20"/>
  <rect x="564.21" y="688.41" width="40.84" height="40.84" fill="#231f20"/>
  <rect x="607.11" y="688.41" width="40.84" height="40.84" fill="#231f20"/>
  <rect x="564.21" y="774.76" width="40.84" height="40.84" fill="#231f20"/>
  <rect x="607.26" y="731.56" width="40.84" height="40.84" fill="#231f20"/>
  <rect x="607.26" y="774.76" width="40.84" height="40.84" fill="#231f20"/>
  <rect x="650.78" y="688.41" width="40.84" height="40.84" fill="#231f20"/>
  <rect x="650.93" y="731.56" width="40.84" height="40.84" fill="#231f20"/>
  <rect x="650.93" y="774.76" width="40.84" height="40.84" fill="#231f20"/>
  <rect x="693.49" y="774.76" width="40.84" height="40.84" fill="#231f20"/>
  <rect x="737.17" y="774.76" width="40.84" height="40.84" fill="#231f20"/>
  <rect x="521.08" y="817.95" width="40.84" height="40.84" fill="#231f20"/>
  <rect x="391.12" y="817.81" width="40.84" height="40.84" fill="#231f20"/>
  <rect x="347.6" y="817.81" width="40.84" height="40.84" fill="#231f20"/>
  <rect x="478.43" y="861.32" width="40.84" height="40.84" fill="#231f20"/>
  <rect x="521.37" y="861.47" width="40.84" height="40.84" fill="#231f20"/>
  <rect x="564.02" y="817.65" width="40.84" height="40.84" fill="#231f20"/>
  <rect x="607.44" y="817.81" width="40.84" height="40.84" fill="#231f20"/>
  <rect x="650.95" y="817.81" width="40.84" height="40.84" fill="#231f20"/>
  <rect x="693.89" y="817.95" width="40.84" height="40.84" fill="#231f20"/>
  <rect x="736.83" y="817.65" width="40.84" height="40.84" fill="#231f20"/>
  <rect x="564.31" y="861.48" width="40.84" height="40.84" fill="#231f20"/>
  <rect x="520.89" y="904.56" width="40.84" height="40.84" fill="#231f20"/>
  <rect x="520.98" y="947.61" width="40.84" height="40.84" fill="#231f20"/>
  <rect x="563.67" y="904.61" width="40.84" height="40.84" fill="#231f20"/>
  <rect x="434.28" y="904.56" width="40.84" height="40.84" fill="#231f20"/>
  <rect x="391.32" y="904.56" width="40.84" height="40.84" fill="#231f20"/>
  <rect x="477.81" y="904.61" width="40.84" height="40.84" fill="#231f20"/>
  <rect x="563.83" y="947.61" width="40.84" height="40.84" fill="#231f20"/>
  <rect x="434.37" y="947.61" width="40.84" height="40.84" fill="#231f20"/>
  <rect x="477.89" y="947.61" width="40.84" height="40.84" fill="#231f20"/>
  <rect x="521.22" y="991.15" width="40.84" height="40.84" fill="#231f20"/>
  <rect x="563.83" y="991.15" width="40.84" height="40.84" fill="#231f20"/>
  <rect x="607.33" y="861.48" width="40.84" height="40.84" fill="#231f20"/>
  <rect x="607.33" y="904.61" width="40.84" height="40.84" fill="#231f20"/>
  <rect x="607.49" y="947.61" width="40.84" height="40.84" fill="#231f20"/>
  <rect x="607.49" y="991.15" width="40.84" height="40.84" fill="#231f20"/>
  <rect x="478.29" y="991.15" width="40.84" height="40.84" fill="#231f20"/>
  <rect x="521.22" y="1034.35" width="40.84" height="40.84" fill="#231f20"/>
  <rect x="563.83" y="1034.35" width="40.84" height="40.84" fill="#231f20"/>
  <rect x="607.49" y="1034.35" width="40.84" height="40.84" fill="#231f20"/>
  <rect x="650.86" y="861.48" width="40.84" height="40.84" fill="#231f20"/>
  <rect x="650.86" y="904.61" width="40.84" height="40.84" fill="#231f20"/>
  <rect x="651.01" y="947.61" width="40.84" height="40.84" fill="#231f20"/>
  <rect x="651.01" y="991.15" width="40.84" height="40.84" fill="#231f20"/>
  <rect x="651.01" y="1034.35" width="40.84" height="40.84" fill="#231f20"/>
  <rect x="693.89" y="861.35" width="40.84" height="40.84" fill="#231f20"/>
  <rect x="737.27" y="861.48" width="40.84" height="40.84" fill="#231f20"/>
  <rect x="737.27" y="904.06" width="40.84" height="40.84" fill="#231f20"/>
  <rect x="780.28" y="861.48" width="40.84" height="40.84" fill="#231f20"/>
  <rect x="693.89" y="904.47" width="40.84" height="40.84" fill="#231f20"/>
  <rect x="693.11" y="947.61" width="40.84" height="40.84" fill="#231f20"/>
  <rect x="693.11" y="991.15" width="40.84" height="40.84" fill="#231f20"/>
  <rect x="693.11" y="1034.35" width="40.84" height="40.84" fill="#231f20"/>
  <rect x="478.29" y="1034.35" width="40.84" height="40.84" fill="#231f20"/>
  <rect x="434.69" y="991.15" width="40.84" height="40.84" fill="#231f20"/>
  <rect x="434.92" y="861.32" width="40.84" height="40.84" fill="#231f20"/>
  <rect x="391.4" y="861.32" width="40.84" height="40.84" fill="#231f20"/>
  <rect x="348.93" y="861.32" width="40.84" height="40.84" fill="#231f20"/>
  <rect x="262.12" y="688.41" width="40.84" height="40.84" fill="#231f20"/>
  <rect x="219.16" y="644.64" width="40.84" height="40.84" fill="#231f20"/>
  <rect x="577.55" y="527.92" width="13.39" height="13.39" fill="#231f20"/>
  <rect x="577.55" y="485.07" width="13.39" height="13.39" fill="#231f20"/>
  <rect x="534.66" y="486.06" width="13.39" height="13.39" fill="#231f20"/>
  <rect x="534.66" y="443.2" width="13.39" height="13.39" fill="#231f20"/>
  <rect x="491.51" y="441.2" width="13.39" height="13.39" fill="#231f20"/>
  <rect x="491.51" y="399.35" width="13.39" height="13.39" fill="#231f20"/>
  <rect x="448.36" y="398.22" width="13.39" height="13.39" fill="#231f20"/>
  <rect x="448.36" y="355.37" width="13.39" height="13.39" fill="#231f20"/>
  <rect x="448.36" y="313.26" width="13.39" height="13.39" fill="#231f20"/>
  <rect x="405.66" y="313.26" width="13.39" height="13.39" fill="#231f20"/>
  <rect x="405.66" y="270.4" width="13.39" height="13.39" fill="#231f20"/>
  <rect x="405.66" y="226.86" width="13.39" height="13.39" fill="#231f20"/>
  <rect x="362.01" y="184" width="13.39" height="13.39" fill="#231f20"/>
  <rect x="362.01" y="138.7" width="13.39" height="13.39" fill="#231f20"/>
  <rect x="362.01" y="97.2" width="13.39" height="13.39" fill="#231f20"/>
  <rect x="362.01" y="53.79" width="13.39" height="13.39" fill="#231f20"/>
  <rect x="318.93" y="53.79" width="13.39" height="13.39" fill="#231f20"/>
  <rect x="275.86" y="53.79" width="13.39" height="13.39" fill="#231f20"/>
  <rect x="232.19" y="97.2" width="13.39" height="13.39" fill="#231f20"/>
  <rect x="189.12" y="97.2" width="13.39" height="13.39" fill="#231f20"/>
  <rect x="148.72" y="97.2" width="13.39" height="13.39" fill="#231f20"/>
  <rect x="232.19" y="53.79" width="13.39" height="13.39" fill="#231f20"/>
  <rect x="318.93" y="11" width="13.39" height="13.39" fill="#231f20"/>
  <rect x="275.86" y="11" width="13.39" height="13.39" fill="#231f20"/>
  <rect x="232.19" y="11" width="13.39" height="13.39" fill="#231f20"/>
  <rect x="189.12" y="53.79" width="13.39" height="13.39" fill="#231f20"/>
  <rect x="148.72" y="53.79" width="13.39" height="13.39" fill="#231f20"/>
  <rect x="105.65" y="97.2" width="13.39" height="13.39" fill="#231f20"/>
  <rect x="145.79" y="140.53" width="13.39" height="13.39" fill="#231f20"/>
  <rect x="102.72" y="140.53" width="13.39" height="13.39" fill="#231f20"/>
  <rect x="190.23" y="613.61" width="13.39" height="13.39" fill="#231f20"/>
  <rect x="190.23" y="657.73" width="13.39" height="13.39" fill="#231f20"/>
  <rect x="190.23" y="699.08" width="13.39" height="13.39" fill="#231f20"/>
  <rect x="233.19" y="699.08" width="13.39" height="13.39" fill="#231f20"/>
  <rect x="233.19" y="743.21" width="13.39" height="13.39" fill="#231f20"/>
  <rect x="276.16" y="743.21" width="13.39" height="13.39" fill="#231f20"/>
  <rect x="708.74" y="700.72" width="13.39" height="13.39" fill="#231f20"/>
  <rect x="708.74" y="657.73" width="13.39" height="13.39" fill="#231f20"/>
  <rect x="708.74" y="614.75" width="13.39" height="13.39" fill="#231f20"/>
  <rect x="664.51" y="657.73" width="13.39" height="13.39" fill="#231f20"/>
  <rect x="664.51" y="614.75" width="13.39" height="13.39" fill="#231f20"/>
  <rect x="621.21" y="571.76" width="13.39" height="13.39" fill="#231f20"/>
  <rect x="793.63" y="787.15" width="13.39" height="13.39" fill="#231f20"/>
  <rect x="837.29" y="788.45" width="13.39" height="13.39" fill="#231f20"/>
  <rect x="708.74" y="744.66" width="13.39" height="13.39" fill="#231f20"/>
  <rect x="752.4" y="745.96" width="13.39" height="13.39" fill="#231f20"/>
  <rect x="794.01" y="831.89" width="13.39" height="13.39" fill="#231f20"/>
  <rect x="837.82" y="872.41" width="13.39" height="13.39" fill="#231f20"/>
  <rect x="836.9" y="831.89" width="13.39" height="13.39" fill="#231f20"/>
  <rect x="837.82" y="915.85" width="13.39" height="13.39" fill="#231f20"/>
  <rect x="794.4" y="915.85" width="13.39" height="13.39" fill="#231f20"/>
  <rect x="794.4" y="961.62" width="13.39" height="13.39" fill="#231f20"/>
  <rect x="750.99" y="961.62" width="13.39" height="13.39" fill="#231f20"/>
  <rect x="750.99" y="1005.05" width="13.39" height="13.39" fill="#231f20"/>
  <rect x="750.99" y="1048.07" width="13.39" height="13.39" fill="#231f20"/>
  <rect x="276.16" y="787.15" width="13.39" height="13.39" fill="#231f20"/>
  <rect x="276.16" y="830.59" width="13.39" height="13.39" fill="#231f20"/>
  <rect x="319.12" y="874.81" width="13.39" height="13.39" fill="#231f20"/>
  <rect x="319.12" y="918.25" width="13.39" height="13.39" fill="#231f20"/>
  <rect x="362.09" y="918.25" width="13.39" height="13.39" fill="#231f20"/>
  <rect x="362.09" y="959.27" width="13.39" height="13.39" fill="#231f20"/>
  <rect x="362.09" y="1004.14" width="13.39" height="13.39" fill="#231f20"/>
  <rect x="405.6" y="1004.14" width="13.39" height="13.39" fill="#231f20"/>
  <rect x="405.6" y="1046.89" width="13.39" height="13.39" fill="#231f20"/>
  <rect x="405.6" y="959.27" width="13.39" height="13.39" fill="#231f20"/>
  <rect x="447.42" y="1046.89" width="13.39" height="13.39" fill="#231f20"/>
  <rect x="319.12" y="830.59" width="13.39" height="13.39" fill="#231f20"/>
  <rect x="190.23" y="570.75" width="13.39" height="13.39" fill="#231f20"/>
  <rect x="147.27" y="570.75" width="13.39" height="13.39" fill="#231f20"/>
  <rect x="102.8" y="528.98" width="13.39" height="13.39" fill="#231f20"/>
  <rect x="102.8" y="486.25" width="13.39" height="13.39" fill="#231f20"/>
  <rect x="61.27" y="442.8" width="13.39" height="13.39" fill="#231f20"/>
  <rect x="16" y="399.35" width="13.39" height="13.39" fill="#231f20"/>
</svg>