<?xml version="1.0" encoding="UTF-8"?>
<svg id="_24" data-name="24" xmlns="http://www.w3.org/2000/svg" viewBox="0 0 1080 1080">
  <rect x="562.75" y="302.8" width="40.84" height="40.84" fill="#231f20"/>
  <rect x="519.18" y="302.06" width="40.84" height="40.84" fill="#231f20"/>
  <rect x="562.75" y="259.42" width="40.84" height="40.84" fill="#231f20"/>
  <rect x="605.36" y="259.42" width="40.84" height="40.84" fill="#231f20"/>
  <rect x="519.18" y="259.42" width="40.84" height="40.84" fill="#231f20"/>
  <rect x="562.75" y="217.23" width="40.84" height="40.84" fill="#231f20"/>
  <rect x="605.36" y="217.23" width="40.84" height="40.84" fill="#231f20"/>
  <rect x="519.18" y="217.23" width="40.84" height="40.84" fill="#231f20"/>
  <rect x="475.61" y="259.42" width="40.84" height="40.84" fill="#231f20"/>
  <rect x="562.75" y="43.31" width="40.84" height="40.84" fill="#231f20"/>
  <rect x="605.36" y="43.31" width="40.84" height="40.84" fill="#231f20"/>
  <rect x="519.18" y="43.31" width="40.84" height="40.84" fill="#231f20"/>
  <rect x="475.61" y="43.31" width="40.84" height="40.84" fill="#231f20"/>
  <rect x="562.75" y="86.31" width="40.84" height="40.84" fill="#231f20"/>
  <rect x="519.18" y="86.31" width="40.84" height="40.84" fill="#231f20"/>
  <rect x="475.61" y="86.31" width="40.84" height="40.84" fill="#231f20"/>
  <rect x="562.75" y="129.3" width="40.84" height="40.84" fill="#231f20"/>
  <rect x="519.18" y="129.3" width="40.84" height="40.84" fill="#231f20"/>
  <rect x="475.61" y="129.3" width="40.84" height="40.84" fill="#231f20"/>
  <rect x="562.75" y="345.21" width="40.84" height="40.84" fill="#231f20"/>
  <rect x="605.36" y="302.8" width="40.84" height="40.84" fill="#231f20"/>
  <rect x="605.36" y="345.21" width="40.84" height="40.84" fill="#231f20"/>
  <rect x="519.29" y="345.43" width="40.84" height="40.84" fill="#231f20"/>
  <rect x="562.75" y="388.8" width="40.84" height="40.84" fill="#231f20"/>
  <rect x="605.36" y="388.8" width="40.84" height="40.84" fill="#231f20"/>
  <rect x="519.29" y="389.03" width="40.84" height="40.84" fill="#231f20"/>
  <rect x="475.55" y="302.06" width="40.84" height="40.84" fill="#231f20"/>
  <rect x="475.66" y="345.43" width="40.84" height="40.84" fill="#231f20"/>
  <rect x="475.66" y="389.03" width="40.84" height="40.84" fill="#231f20"/>
  <rect x="562.75" y="432.06" width="40.84" height="40.84" fill="#231f20"/>
  <rect x="605.36" y="432.06" width="40.84" height="40.84" fill="#231f20"/>
  <rect x="519.29" y="432.28" width="40.84" height="40.84" fill="#231f20"/>
  <rect x="562.75" y="475.54" width="40.84" height="40.84" fill="#231f20"/>
  <rect x="605.36" y="475.54" width="40.84" height="40.84" fill="#231f20"/>
  <rect x="519.29" y="475.76" width="40.84" height="40.84" fill="#231f20"/>
  <rect x="562.75" y="691.26" width="40.84" height="40.84" fill="#231f20"/>
  <rect x="605.36" y="691.26" width="40.84" height="40.84" fill="#231f20"/>
  <rect x="519.29" y="691.48" width="40.84" height="40.84" fill="#231f20"/>
  <rect x="562.75" y="647.98" width="40.84" height="40.84" fill="#231f20"/>
  <rect x="605.36" y="647.98" width="40.84" height="40.84" fill="#231f20"/>
  <rect x="519.29" y="648.2" width="40.84" height="40.84" fill="#231f20"/>
  <rect x="260.17" y="648.2" width="40.84" height="40.84" fill="#231f20"/>
  <rect x="476.07" y="691.48" width="40.84" height="40.84" fill="#231f20"/>
  <rect x="476.07" y="648.2" width="40.84" height="40.84" fill="#231f20"/>
  <rect x="562.75" y="605.81" width="40.84" height="40.84" fill="#231f20"/>
  <rect x="605.36" y="605.81" width="40.84" height="40.84" fill="#231f20"/>
  <rect x="519.29" y="606.03" width="40.84" height="40.84" fill="#231f20"/>
  <rect x="476.07" y="606.03" width="40.84" height="40.84" fill="#231f20"/>
  <rect x="260.17" y="605.09" width="40.84" height="40.84" fill="#231f20"/>
  <rect x="260.17" y="777.61" width="40.84" height="40.84" fill="#231f20"/>
  <rect x="217.12" y="864.19" width="40.84" height="40.84" fill="#231f20"/>
  <rect x="260" y="864.19" width="40.84" height="40.84" fill="#231f20"/>
  <rect x="217.12" y="777.61" width="40.84" height="40.84" fill="#231f20"/>
  <rect x="260.17" y="993.91" width="40.84" height="40.84" fill="#231f20"/>
  <rect x="217.12" y="993.91" width="40.84" height="40.84" fill="#231f20"/>
  <rect x="260.17" y="734.5" width="40.84" height="40.84" fill="#231f20"/>
  <rect x="475.66" y="432.28" width="40.84" height="40.84" fill="#231f20"/>
  <rect x="562.75" y="734.54" width="40.84" height="40.84" fill="#231f20"/>
  <rect x="605.36" y="734.54" width="40.84" height="40.84" fill="#231f20"/>
  <rect x="519.29" y="734.76" width="40.84" height="40.84" fill="#231f20"/>
  <rect x="475.66" y="734.76" width="40.84" height="40.84" fill="#231f20"/>
  <rect x="562.75" y="777.91" width="40.84" height="40.84" fill="#231f20"/>
  <rect x="519.29" y="778.14" width="40.84" height="40.84" fill="#231f20"/>
  <rect x="475.66" y="778.14" width="40.84" height="40.84" fill="#231f20"/>
  <rect x="562.75" y="821.52" width="40.84" height="40.84" fill="#231f20"/>
  <rect x="519.29" y="821.74" width="40.84" height="40.84" fill="#231f20"/>
  <rect x="562.22" y="864.03" width="40.84" height="40.84" fill="#231f20"/>
  <rect x="605.62" y="821.52" width="40.84" height="40.84" fill="#231f20"/>
  <rect x="605.1" y="864.03" width="40.84" height="40.84" fill="#231f20"/>
  <rect x="519.18" y="864.03" width="40.84" height="40.84" fill="#231f20"/>
  <rect x="562.22" y="907.53" width="40.84" height="40.84" fill="#231f20"/>
  <rect x="605.1" y="907.53" width="40.84" height="40.84" fill="#231f20"/>
  <rect x="519.18" y="907.53" width="40.84" height="40.84" fill="#231f20"/>
  <rect x="562.22" y="951.02" width="40.84" height="40.84" fill="#231f20"/>
  <rect x="519.18" y="951.02" width="40.84" height="40.84" fill="#231f20"/>
  <rect x="476.13" y="951.02" width="40.84" height="40.84" fill="#231f20"/>
  <rect x="562.22" y="993.91" width="40.84" height="40.84" fill="#231f20"/>
  <rect x="519.18" y="993.91" width="40.84" height="40.84" fill="#231f20"/>
  <rect x="562.22" y="1037.1" width="40.84" height="40.84" fill="#231f20"/>
  <rect x="519.18" y="1037.1" width="40.84" height="40.84" fill="#231f20"/>
  <rect x="662.74" y="315.79" width="13.39" height="13.39" fill="#231f20"/>
  <rect x="662.74" y="358.94" width="13.39" height="13.39" fill="#231f20"/>
  <rect x="662.74" y="229.81" width="13.39" height="13.39" fill="#231f20"/>
  <rect x="662.74" y="272.95" width="13.39" height="13.39" fill="#231f20"/>
  <rect x="662.74" y="143.02" width="13.39" height="13.39" fill="#231f20"/>
  <rect x="662.74" y="57.04" width="13.39" height="13.39" fill="#231f20"/>
  <rect x="662.74" y="100.19" width="13.39" height="13.39" fill="#231f20"/>
  <rect x="619.08" y="143.02" width="13.39" height="13.39" fill="#231f20"/>
  <rect x="619.08" y="100.19" width="13.39" height="13.39" fill="#231f20"/>
  <rect x="662.74" y="401.38" width="13.39" height="13.39" fill="#231f20"/>
  <rect x="662.74" y="444.52" width="13.39" height="13.39" fill="#231f20"/>
  <rect x="662.74" y="489.41" width="13.39" height="13.39" fill="#231f20"/>
  <rect x="662.74" y="532.37" width="13.39" height="13.39" fill="#231f20"/>
  <rect x="662.74" y="575" width="13.39" height="13.39" fill="#231f20"/>
  <rect x="706.59" y="444.52" width="13.39" height="13.39" fill="#231f20"/>
  <rect x="706.59" y="489.41" width="13.39" height="13.39" fill="#231f20"/>
  <rect x="706.59" y="532.37" width="13.39" height="13.39" fill="#231f20"/>
  <rect x="706.59" y="575" width="13.39" height="13.39" fill="#231f20"/>
  <rect x="662.74" y="619.13" width="13.39" height="13.39" fill="#231f20"/>
  <rect x="662.74" y="662.09" width="13.39" height="13.39" fill="#231f20"/>
  <rect x="662.74" y="704.72" width="13.39" height="13.39" fill="#231f20"/>
  <rect x="662.74" y="835.97" width="13.39" height="13.39" fill="#231f20"/>
  <rect x="662.74" y="880.1" width="13.39" height="13.39" fill="#231f20"/>
  <rect x="662.74" y="923.06" width="13.39" height="13.39" fill="#231f20"/>
  <rect x="662.74" y="965.69" width="13.39" height="13.39" fill="#231f20"/>
  <rect x="446.4" y="617.26" width="13.39" height="13.39" fill="#231f20"/>
  <rect x="446.4" y="661.39" width="13.39" height="13.39" fill="#231f20"/>
  <rect x="316.93" y="661.39" width="13.39" height="13.39" fill="#231f20"/>
  <rect x="231.77" y="661.39" width="13.39" height="13.39" fill="#231f20"/>
  <rect x="446.4" y="704.35" width="13.39" height="13.39" fill="#231f20"/>
  <rect x="273.89" y="704.35" width="13.39" height="13.39" fill="#231f20"/>
  <rect x="446.4" y="746.98" width="13.39" height="13.39" fill="#231f20"/>
  <rect x="230.85" y="746.98" width="13.39" height="13.39" fill="#231f20"/>
  <rect x="446.4" y="791.64" width="13.39" height="13.39" fill="#231f20"/>
  <rect x="489.39" y="834.96" width="13.39" height="13.39" fill="#231f20"/>
  <rect x="489.39" y="877.92" width="13.39" height="13.39" fill="#231f20"/>
  <rect x="489.39" y="920.55" width="13.39" height="13.39" fill="#231f20"/>
  <rect x="619.35" y="575" width="13.39" height="13.39" fill="#231f20"/>
  <rect x="662.74" y="749.9" width="13.39" height="13.39" fill="#231f20"/>
  <rect x="662.74" y="792.53" width="13.39" height="13.39" fill="#231f20"/>
  <rect x="706.59" y="619.13" width="13.39" height="13.39" fill="#231f20"/>
  <rect x="706.59" y="662.09" width="13.39" height="13.39" fill="#231f20"/>
  <rect x="706.59" y="704.72" width="13.39" height="13.39" fill="#231f20"/>
  <rect x="706.59" y="835.97" width="13.39" height="13.39" fill="#231f20"/>
  <rect x="706.59" y="880.1" width="13.39" height="13.39" fill="#231f20"/>
  <rect x="706.59" y="923.06" width="13.39" height="13.39" fill="#231f20"/>
  <rect x="706.59" y="749.9" width="13.39" height="13.39" fill="#231f20"/>
  <rect x="706.59" y="792.53" width="13.39" height="13.39" fill="#231f20"/>
  <rect x="619.35" y="792.53" width="13.39" height="13.39" fill="#231f20"/>
  <rect x="576.59" y="575" width="13.39" height="13.39" fill="#231f20"/>
  <rect x="533.19" y="575" width="13.39" height="13.39" fill="#231f20"/>
  <rect x="489.8" y="575" width="13.39" height="13.39" fill="#231f20"/>
  <rect x="446.4" y="575" width="13.39" height="13.39" fill="#231f20"/>
  <rect x="316.93" y="617.26" width="13.39" height="13.39" fill="#231f20"/>
  <rect x="316.93" y="575" width="13.39" height="13.39" fill="#231f20"/>
  <rect x="316.93" y="790.4" width="13.39" height="13.39" fill="#231f20"/>
  <rect x="231.77" y="617.26" width="13.39" height="13.39" fill="#231f20"/>
  <rect x="275.17" y="575" width="13.39" height="13.39" fill="#231f20"/>
  <rect x="231.77" y="575" width="13.39" height="13.39" fill="#231f20"/>
  <rect x="316.93" y="533.61" width="13.39" height="13.39" fill="#231f20"/>
  <rect x="275.17" y="533.61" width="13.39" height="13.39" fill="#231f20"/>
  <rect x="316.93" y="489.26" width="13.39" height="13.39" fill="#231f20"/>
  <rect x="275.17" y="489.26" width="13.39" height="13.39" fill="#231f20"/>
  <rect x="231.77" y="533.61" width="13.39" height="13.39" fill="#231f20"/>
  <rect x="446.4" y="876.52" width="13.39" height="13.39" fill="#231f20"/>
  <rect x="446.4" y="920.65" width="13.39" height="13.39" fill="#231f20"/>
  <rect x="359.59" y="876.52" width="13.39" height="13.39" fill="#231f20"/>
  <rect x="359.59" y="920.65" width="13.39" height="13.39" fill="#231f20"/>
  <rect x="446.4" y="963.61" width="13.39" height="13.39" fill="#231f20"/>
  <rect x="446.4" y="1006.24" width="13.39" height="13.39" fill="#231f20"/>
  <rect x="446.4" y="1050.9" width="13.39" height="13.39" fill="#231f20"/>
  <rect x="619.66" y="963.61" width="13.39" height="13.39" fill="#231f20"/>
  <rect x="619.66" y="1006.24" width="13.39" height="13.39" fill="#231f20"/>
  <rect x="619.66" y="1050.9" width="13.39" height="13.39" fill="#231f20"/>
  <rect x="489.86" y="1006.24" width="13.39" height="13.39" fill="#231f20"/>
  <rect x="489.86" y="1050.9" width="13.39" height="13.39" fill="#231f20"/>
  <rect x="360.09" y="1050.9" width="13.39" height="13.39" fill="#231f20"/>
  <rect x="403.54" y="1050.9" width="13.39" height="13.39" fill="#231f20"/>
  <rect x="446.4" y="834.26" width="13.39" height="13.39" fill="#231f20"/>
  <rect x="274.96" y="834.96" width="13.39" height="13.39" fill="#231f20"/>
  <rect x="231.98" y="834.26" width="13.39" height="13.39" fill="#231f20"/>
  <rect x="274.96" y="923.41" width="13.39" height="13.39" fill="#231f20"/>
  <rect x="231.98" y="922.71" width="13.39" height="13.39" fill="#231f20"/>
  <rect x="274.96" y="965.09" width="13.39" height="13.39" fill="#231f20"/>
  <rect x="231.98" y="964.39" width="13.39" height="13.39" fill="#231f20"/>
  <rect x="619.35" y="532.37" width="13.39" height="13.39" fill="#231f20"/>
  <rect x="576.2" y="532.37" width="13.39" height="13.39" fill="#231f20"/>
  <rect x="532.8" y="532.37" width="13.39" height="13.39" fill="#231f20"/>
  <rect x="489.8" y="489.74" width="13.39" height="13.39" fill="#231f20"/>
  <rect x="489.8" y="531.56" width="13.39" height="13.39" fill="#231f20"/>
  <rect x="662.42" y="187.4" width="13.39" height="13.39" fill="#231f20"/>
  <rect x="835.69" y="229.81" width="13.39" height="13.39" fill="#231f20"/>
  <rect x="749.22" y="229.81" width="13.39" height="13.39" fill="#231f20"/>
  <rect x="965.29" y="229.81" width="13.39" height="13.39" fill="#231f20"/>
  <rect x="833.68" y="143.02" width="13.39" height="13.39" fill="#231f20"/>
  <rect x="877.54" y="100.19" width="13.39" height="13.39" fill="#231f20"/>
  <rect x="923.39" y="100.19" width="13.39" height="13.39" fill="#231f20"/>
  <rect x="875.53" y="143.02" width="13.39" height="13.39" fill="#231f20"/>
  <rect x="921.39" y="143.02" width="13.39" height="13.39" fill="#231f20"/>
  <rect x="833.68" y="315.79" width="13.39" height="13.39" fill="#231f20"/>
  <rect x="833.68" y="402.53" width="13.39" height="13.39" fill="#231f20"/>
  <rect x="833.68" y="359.16" width="13.39" height="13.39" fill="#231f20"/>
  <rect x="792.06" y="358.94" width="13.39" height="13.39" fill="#231f20"/>
  <rect x="833.68" y="272.95" width="13.39" height="13.39" fill="#231f20"/>
  <rect x="877.54" y="315.79" width="13.39" height="13.39" fill="#231f20"/>
  <rect x="877.54" y="273.15" width="13.39" height="13.39" fill="#231f20"/>
  <rect x="965.29" y="361.51" width="13.39" height="13.39" fill="#231f20"/>
  <rect x="792.06" y="402.53" width="13.39" height="13.39" fill="#231f20"/>
  <rect x="792.06" y="445.78" width="13.39" height="13.39" fill="#231f20"/>
  <rect x="877.54" y="444.52" width="13.39" height="13.39" fill="#231f20"/>
  <rect x="877.54" y="488.12" width="13.39" height="13.39" fill="#231f20"/>
  <rect x="877.54" y="531.37" width="13.39" height="13.39" fill="#231f20"/>
  <rect x="921.39" y="315.79" width="13.39" height="13.39" fill="#231f20"/>
  <rect x="965.24" y="315.79" width="13.39" height="13.39" fill="#231f20"/>
  <rect x="921.39" y="361.51" width="13.39" height="13.39" fill="#231f20"/>
  <rect x="835.36" y="187.4" width="13.39" height="13.39" fill="#231f20"/>
  <rect x="619.02" y="187.4" width="13.39" height="13.39" fill="#231f20"/>
  <rect x="575.88" y="187.4" width="13.39" height="13.39" fill="#231f20"/>
  <rect x="532.48" y="187.4" width="13.39" height="13.39" fill="#231f20"/>
  <rect x="489.48" y="186.58" width="13.39" height="13.39" fill="#231f20"/>
  <rect x="662.42" y="14.18" width="13.39" height="13.39" fill="#231f20"/>
  <rect x="619.02" y="14.18" width="13.39" height="13.39" fill="#231f20"/>
  <rect x="575.88" y="14.18" width="13.39" height="13.39" fill="#231f20"/>
  <rect x="532.48" y="14.18" width="13.39" height="13.39" fill="#231f20"/>
  <rect x="489.48" y="13.36" width="13.39" height="13.39" fill="#231f20"/>
  <rect x="489.48" y="229.81" width="13.39" height="13.39" fill="#231f20"/>
  <rect x="447.95" y="186.58" width="13.39" height="13.39" fill="#231f20"/>
  <rect x="447.95" y="229.81" width="13.39" height="13.39" fill="#231f20"/>
  <rect x="447.95" y="98.84" width="13.39" height="13.39" fill="#231f20"/>
  <rect x="447.95" y="142.06" width="13.39" height="13.39" fill="#231f20"/>
  <rect x="402.09" y="186.58" width="13.39" height="13.39" fill="#231f20"/>
  <rect x="402.09" y="229.81" width="13.39" height="13.39" fill="#231f20"/>
  <rect x="402.09" y="142.06" width="13.39" height="13.39" fill="#231f20"/>
  <rect x="447.95" y="13.77" width="13.39" height="13.39" fill="#231f20"/>
  <rect x="447.95" y="56.99" width="13.39" height="13.39" fill="#231f20"/>
  <rect x="447.95" y="403.53" width="13.39" height="13.39" fill="#231f20"/>
  <rect x="447.95" y="446.75" width="13.39" height="13.39" fill="#231f20"/>
  <rect x="447.95" y="315.79" width="13.39" height="13.39" fill="#231f20"/>
  <rect x="447.95" y="359.01" width="13.39" height="13.39" fill="#231f20"/>
  <rect x="405.17" y="403.53" width="13.39" height="13.39" fill="#231f20"/>
  <rect x="405.17" y="446.75" width="13.39" height="13.39" fill="#231f20"/>
  <rect x="405.17" y="315.79" width="13.39" height="13.39" fill="#231f20"/>
  <rect x="405.17" y="359.01" width="13.39" height="13.39" fill="#231f20"/>
  <rect x="361.79" y="403.53" width="13.39" height="13.39" fill="#231f20"/>
  <rect x="316.8" y="403.53" width="13.39" height="13.39" fill="#231f20"/>
  <rect x="274.02" y="403.53" width="13.39" height="13.39" fill="#231f20"/>
  <rect x="230.64" y="403.53" width="13.39" height="13.39" fill="#231f20"/>
  <rect x="187.27" y="403.53" width="13.39" height="13.39" fill="#231f20"/>
  <rect x="361.79" y="446.75" width="13.39" height="13.39" fill="#231f20"/>
  <rect x="361.79" y="315.79" width="13.39" height="13.39" fill="#231f20"/>
  <rect x="361.79" y="359.01" width="13.39" height="13.39" fill="#231f20"/>
  <rect x="187.27" y="490.39" width="13.39" height="13.39" fill="#231f20"/>
  <rect x="187.27" y="533.61" width="13.39" height="13.39" fill="#231f20"/>
  <rect x="187.27" y="445.87" width="13.39" height="13.39" fill="#231f20"/>
  <rect x="447.95" y="230.72" width="13.39" height="13.39" fill="#231f20"/>
  <rect x="447.95" y="273.94" width="13.39" height="13.39" fill="#231f20"/>
  <rect x="446.4" y="489.74" width="13.39" height="13.39" fill="#231f20"/>
  <rect x="405.17" y="489.74" width="13.39" height="13.39" fill="#231f20"/>
</svg>