<?xml version="1.0" encoding="UTF-8"?>
<svg id="_4" data-name="4" xmlns="http://www.w3.org/2000/svg" viewBox="0 0 1080 1080">
  <rect x="476.55" y="608.82" width="40.84" height="40.84" fill="#231f20"/>
  <rect x="476.55" y="565.56" width="40.84" height="40.84" fill="#231f20"/>
  <rect x="476.55" y="522.31" width="40.84" height="40.84" fill="#231f20"/>
  <rect x="433.13" y="565.56" width="40.84" height="40.84" fill="#231f20"/>
  <rect x="433.13" y="608.82" width="40.84" height="40.84" fill="#231f20"/>
  <rect x="390.35" y="565.56" width="40.84" height="40.84" fill="#231f20"/>
  <rect x="390.35" y="608.82" width="40.84" height="40.84" fill="#231f20"/>
  <rect x="347.23" y="608.82" width="40.84" height="40.84" fill="#231f20"/>
  <rect x="390.35" y="652.07" width="40.84" height="40.84" fill="#231f20"/>
  <rect x="519.71" y="608.82" width="40.84" height="40.84" fill="#231f20"/>
  <rect x="519.71" y="565.56" width="40.84" height="40.84" fill="#231f20"/>
  <rect x="433.13" y="522.31" width="40.84" height="40.84" fill="#231f20"/>
  <rect x="476.55" y="479.04" width="40.84" height="40.84" fill="#231f20"/>
  <rect x="476.55" y="435.78" width="40.84" height="40.84" fill="#231f20"/>
  <rect x="476.55" y="392.51" width="40.84" height="40.84" fill="#231f20"/>
  <rect x="476.55" y="349.24" width="40.84" height="40.84" fill="#231f20"/>
  <rect x="433.13" y="479.05" width="40.84" height="40.84" fill="#231f20"/>
  <rect x="433.13" y="435.78" width="40.84" height="40.84" fill="#231f20"/>
  <rect x="476.55" y="652.07" width="40.84" height="40.84" fill="#231f20"/>
  <rect x="476.55" y="694.86" width="40.84" height="40.84" fill="#231f20"/>
  <rect x="475.66" y="738.54" width="40.84" height="40.84" fill="#231f20"/>
  <rect x="519.71" y="652.07" width="40.84" height="40.84" fill="#231f20"/>
  <rect x="519.71" y="694.86" width="40.84" height="40.84" fill="#231f20"/>
  <rect x="518.82" y="738.54" width="40.84" height="40.84" fill="#231f20"/>
  <rect x="476.55" y="781.68" width="40.84" height="40.84" fill="#231f20"/>
  <rect x="519.71" y="781.68" width="40.84" height="40.84" fill="#231f20"/>
  <rect x="519.71" y="824.83" width="40.84" height="40.84" fill="#231f20"/>
  <rect x="433.13" y="652.07" width="40.84" height="40.84" fill="#231f20"/>
  <rect x="433.13" y="694.86" width="40.84" height="40.84" fill="#231f20"/>
  <rect x="360.95" y="579.29" width="13.39" height="13.39" fill="#231f20"/>
  <rect x="490.28" y="838.56" width="13.39" height="13.39" fill="#231f20"/>
  <rect x="446.85" y="795.41" width="13.39" height="13.39" fill="#231f20"/>
  <rect x="446.85" y="752.26" width="13.39" height="13.39" fill="#231f20"/>
  <rect x="490.28" y="881.55" width="13.39" height="13.39" fill="#231f20"/>
  <rect x="533.43" y="881.55" width="13.39" height="13.39" fill="#231f20"/>
  <rect x="490.28" y="925.05" width="13.39" height="13.39" fill="#231f20"/>
  <rect x="446.85" y="925.05" width="13.39" height="13.39" fill="#231f20"/>
  <rect x="405.02" y="925.05" width="13.39" height="13.39" fill="#231f20"/>
  <rect x="533.43" y="925.05" width="13.39" height="13.39" fill="#231f20"/>
  <rect x="532.92" y="967.9" width="13.39" height="13.39" fill="#231f20"/>
  <rect x="576.08" y="967.9" width="13.39" height="13.39" fill="#231f20"/>
  <rect x="231.78" y="967.9" width="13.39" height="13.39" fill="#231f20"/>
  <rect x="274.94" y="967.9" width="13.39" height="13.39" fill="#231f20"/>
  <rect x="576.08" y="925.05" width="13.39" height="13.39" fill="#231f20"/>
  <rect x="577.49" y="881.55" width="13.39" height="13.39" fill="#231f20"/>
  <rect x="620.13" y="881.55" width="13.39" height="13.39" fill="#231f20"/>
  <rect x="576.08" y="1009.11" width="13.39" height="13.39" fill="#231f20"/>
  <rect x="576.08" y="1053.94" width="13.39" height="13.39" fill="#231f20"/>
  <rect x="706.08" y="1009.11" width="13.39" height="13.39" fill="#231f20"/>
  <rect x="706.08" y="1053.94" width="13.39" height="13.39" fill="#231f20"/>
  <rect x="749.36" y="1010.42" width="13.39" height="13.39" fill="#231f20"/>
  <rect x="749.36" y="1055.25" width="13.39" height="13.39" fill="#231f20"/>
  <rect x="533.43" y="1012.16" width="13.39" height="11.99" fill="#231f20"/>
  <rect x="533.43" y="1052.3" width="13.39" height="11.99" fill="#231f20"/>
  <rect x="446.85" y="1013.47" width="13.39" height="11.99" fill="#231f20"/>
  <rect x="446.85" y="1053.61" width="13.39" height="11.99" fill="#231f20"/>
  <rect x="274.94" y="1013.47" width="13.39" height="11.99" fill="#231f20"/>
  <rect x="274.94" y="1053.61" width="13.39" height="11.99" fill="#231f20"/>
  <rect x="145.61" y="969.31" width="13.39" height="13.39" fill="#231f20"/>
  <rect x="145.61" y="1014.87" width="13.39" height="11.99" fill="#231f20"/>
  <rect x="103.04" y="1055.01" width="13.39" height="11.99" fill="#231f20"/>
  <rect x="59.43" y="1055.01" width="13.39" height="11.99" fill="#231f20"/>
  <rect x="402.2" y="535.98" width="13.39" height="13.39" fill="#231f20"/>
  <rect x="402.2" y="492.72" width="13.39" height="13.39" fill="#231f20"/>
  <rect x="402.2" y="449.51" width="13.39" height="13.39" fill="#231f20"/>
  <rect x="101.75" y="407.83" width="13.39" height="13.39" fill="#231f20"/>
  <rect x="144.24" y="409.62" width="13.39" height="13.39" fill="#231f20"/>
  <rect x="101.75" y="364.62" width="13.39" height="13.39" fill="#231f20"/>
  <rect x="533.43" y="536.04" width="13.39" height="13.39" fill="#231f20"/>
  <rect x="446.85" y="406.24" width="13.39" height="13.39" fill="#231f20"/>
  <rect x="446.85" y="362.97" width="13.39" height="13.39" fill="#231f20"/>
  <rect x="446.85" y="319.24" width="13.39" height="13.39" fill="#231f20"/>
  <rect x="446.85" y="277.3" width="13.39" height="13.39" fill="#231f20"/>
  <rect x="446.85" y="233.04" width="13.39" height="13.39" fill="#231f20"/>
  <rect x="490.28" y="233.04" width="13.39" height="13.39" fill="#231f20"/>
  <rect x="403.43" y="233.04" width="13.39" height="13.39" fill="#231f20"/>
  <rect x="360.01" y="233.04" width="13.39" height="13.39" fill="#231f20"/>
  <rect x="403.43" y="190.26" width="13.39" height="13.39" fill="#231f20"/>
  <rect x="403.43" y="147.48" width="13.39" height="13.39" fill="#231f20"/>
  <rect x="403.43" y="104.69" width="13.39" height="13.39" fill="#231f20"/>
  <rect x="490.28" y="190.26" width="13.39" height="13.39" fill="#231f20"/>
  <rect x="490.28" y="147.48" width="13.39" height="13.39" fill="#231f20"/>
  <rect x="837.17" y="104.69" width="13.39" height="13.39" fill="#231f20"/>
  <rect x="446.85" y="147.48" width="13.39" height="13.39" fill="#231f20"/>
  <rect x="490.28" y="104.69" width="13.39" height="13.39" fill="#231f20"/>
  <rect x="792.85" y="104.69" width="13.39" height="13.39" fill="#231f20"/>
  <rect x="837.17" y="147.45" width="13.39" height="13.39" fill="#231f20"/>
  <rect x="792.85" y="147.45" width="13.39" height="13.39" fill="#231f20"/>
  <rect x="837.17" y="61.91" width="13.39" height="13.39" fill="#231f20"/>
  <rect x="879.08" y="61.91" width="13.39" height="13.39" fill="#231f20"/>
  <rect x="879.08" y="104.66" width="13.39" height="13.39" fill="#231f20"/>
  <rect x="879.08" y="19.12" width="13.39" height="13.39" fill="#231f20"/>
  <rect x="792.85" y="61.91" width="13.39" height="13.39" fill="#231f20"/>
  <rect x="751.16" y="104.69" width="13.39" height="13.39" fill="#231f20"/>
  <rect x="706.84" y="104.69" width="13.39" height="13.39" fill="#231f20"/>
  <rect x="751.16" y="61.91" width="13.39" height="13.39" fill="#231f20"/>
  <rect x="706.84" y="61.91" width="13.39" height="13.39" fill="#231f20"/>
  <rect x="751.05" y="190.23" width="13.39" height="13.39" fill="#231f20"/>
  <rect x="706.73" y="190.23" width="13.39" height="13.39" fill="#231f20"/>
  <rect x="751.05" y="147.45" width="13.39" height="13.39" fill="#231f20"/>
  <rect x="706.73" y="147.45" width="13.39" height="13.39" fill="#231f20"/>
  <rect x="663.34" y="104.69" width="13.39" height="13.39" fill="#231f20"/>
  <rect x="663.23" y="190.23" width="13.39" height="13.39" fill="#231f20"/>
  <rect x="706.73" y="319.24" width="13.39" height="13.39" fill="#231f20"/>
  <rect x="706.44" y="362.97" width="13.39" height="13.39" fill="#231f20"/>
  <rect x="662.94" y="362.97" width="13.39" height="13.39" fill="#231f20"/>
  <rect x="965.73" y="664.36" width="13.39" height="13.39" fill="#231f20"/>
  <rect x="965.44" y="708.08" width="13.39" height="13.39" fill="#231f20"/>
  <rect x="577.64" y="753.12" width="13.39" height="13.39" fill="#231f20"/>
  <rect x="577.35" y="796.85" width="13.39" height="13.39" fill="#231f20"/>
  <rect x="620.28" y="753.12" width="13.39" height="13.39" fill="#231f20"/>
  <rect x="619.99" y="796.85" width="13.39" height="13.39" fill="#231f20"/>
  <rect x="663.23" y="147.45" width="13.39" height="13.39" fill="#231f20"/>
  <rect x="620.95" y="19.18" width="13.39" height="13.39" fill="#231f20"/>
  <rect x="620.83" y="61.94" width="13.39" height="13.39" fill="#231f20"/>
  <rect x="360.01" y="147.48" width="13.39" height="13.39" fill="#231f20"/>
  <rect x="360.01" y="104.69" width="13.39" height="13.39" fill="#231f20"/>
  <rect x="360.01" y="59.55" width="13.39" height="13.39" fill="#231f20"/>
  <rect x="360.01" y="17.66" width="13.39" height="13.39" fill="#231f20"/>
  <rect x="317.23" y="17.66" width="13.39" height="13.39" fill="#231f20"/>
  <rect x="490.28" y="319.24" width="13.39" height="13.39" fill="#231f20"/>
</svg>