<?xml version="1.0" encoding="UTF-8"?>
<svg id="_6" data-name="6" xmlns="http://www.w3.org/2000/svg" viewBox="0 0 1080 1080">
  <rect x="476.25" y="737.98" width="40.84" height="40.84" fill="#231f20"/>
  <rect x="476.25" y="695.3" width="40.84" height="40.84" fill="#231f20"/>
  <rect x="433.01" y="695.3" width="40.84" height="40.84" fill="#231f20"/>
  <rect x="476.13" y="782.02" width="40.84" height="40.84" fill="#231f20"/>
  <rect x="519.25" y="824.59" width="40.84" height="40.84" fill="#231f20"/>
  <rect x="648.72" y="1040.38" width="40.84" height="40.84" fill="#231f20"/>
  <rect x="648.72" y="997.59" width="40.84" height="40.84" fill="#231f20"/>
  <rect x="692.13" y="1040.38" width="40.84" height="40.84" fill="#231f20"/>
  <rect x="692.13" y="997.59" width="40.84" height="40.84" fill="#231f20"/>
  <rect x="648.72" y="954.18" width="40.84" height="40.84" fill="#231f20"/>
  <rect x="605.76" y="954.18" width="40.84" height="40.84" fill="#231f20"/>
  <rect x="692.13" y="954.18" width="40.84" height="40.84" fill="#231f20"/>
  <rect x="648.72" y="910.77" width="40.84" height="40.84" fill="#231f20"/>
  <rect x="692.13" y="910.77" width="40.84" height="40.84" fill="#231f20"/>
  <rect x="735.54" y="997.59" width="40.84" height="40.84" fill="#231f20"/>
  <rect x="735.54" y="954.18" width="40.84" height="40.84" fill="#231f20"/>
  <rect x="735.54" y="910.77" width="40.84" height="40.84" fill="#231f20"/>
  <rect x="562.34" y="910.77" width="40.84" height="40.84" fill="#231f20"/>
  <rect x="605.76" y="910.77" width="40.84" height="40.84" fill="#231f20"/>
  <rect x="648.72" y="867.35" width="40.84" height="40.84" fill="#231f20"/>
  <rect x="692.13" y="867.35" width="40.84" height="40.84" fill="#231f20"/>
  <rect x="735.54" y="867.35" width="40.84" height="40.84" fill="#231f20"/>
  <rect x="778.96" y="997.59" width="40.84" height="40.84" fill="#231f20"/>
  <rect x="778.96" y="954.18" width="40.84" height="40.84" fill="#231f20"/>
  <rect x="778.96" y="910.77" width="40.84" height="40.84" fill="#231f20"/>
  <rect x="778.96" y="867.35" width="40.84" height="40.84" fill="#231f20"/>
  <rect x="822.37" y="997.59" width="40.84" height="40.84" fill="#231f20"/>
  <rect x="822.37" y="954.18" width="40.84" height="40.84" fill="#231f20"/>
  <rect x="822.37" y="910.77" width="40.84" height="40.84" fill="#231f20"/>
  <rect x="865.01" y="997.59" width="40.84" height="40.84" fill="#231f20"/>
  <rect x="865.01" y="954.18" width="40.84" height="40.84" fill="#231f20"/>
  <rect x="865.01" y="910.77" width="40.84" height="40.84" fill="#231f20"/>
  <rect x="822.37" y="867.35" width="40.84" height="40.84" fill="#231f20"/>
  <rect x="735.54" y="823.94" width="40.84" height="40.84" fill="#231f20"/>
  <rect x="778.96" y="823.94" width="40.84" height="40.84" fill="#231f20"/>
  <rect x="822.37" y="823.94" width="40.84" height="40.84" fill="#231f20"/>
  <rect x="735.54" y="781.83" width="40.84" height="40.84" fill="#231f20"/>
  <rect x="778.96" y="781.83" width="40.84" height="40.84" fill="#231f20"/>
  <rect x="822.37" y="781.83" width="40.84" height="40.84" fill="#231f20"/>
  <rect x="865.01" y="867.35" width="40.84" height="40.84" fill="#231f20"/>
  <rect x="908.26" y="867.98" width="40.84" height="40.84" fill="#231f20"/>
  <rect x="908.65" y="739.28" width="40.84" height="40.84" fill="#231f20"/>
  <rect x="865.42" y="824.42" width="40.84" height="40.84" fill="#231f20"/>
  <rect x="908.26" y="824.42" width="40.84" height="40.84" fill="#231f20"/>
  <rect x="951.51" y="823.94" width="40.84" height="40.84" fill="#231f20"/>
  <rect x="865.01" y="781.47" width="40.84" height="40.84" fill="#231f20"/>
  <rect x="908.26" y="781.47" width="40.84" height="40.84" fill="#231f20"/>
  <rect x="951.51" y="781.83" width="40.84" height="40.84" fill="#231f20"/>
  <rect x="605.76" y="867.35" width="40.84" height="40.84" fill="#231f20"/>
  <rect x="562.79" y="867.35" width="40.84" height="40.84" fill="#231f20"/>
  <rect x="562.79" y="824.59" width="40.84" height="40.84" fill="#231f20"/>
  <rect x="605.76" y="824.59" width="40.84" height="40.84" fill="#231f20"/>
  <rect x="519.25" y="781.83" width="40.84" height="40.84" fill="#231f20"/>
  <rect x="562.79" y="781.83" width="40.84" height="40.84" fill="#231f20"/>
  <rect x="605.76" y="781.83" width="40.84" height="40.84" fill="#231f20"/>
  <rect x="648.97" y="824.59" width="40.84" height="40.84" fill="#231f20"/>
  <rect x="691.93" y="824.59" width="40.84" height="40.84" fill="#231f20"/>
  <rect x="648.97" y="781.83" width="40.84" height="40.84" fill="#231f20"/>
  <rect x="691.93" y="781.83" width="40.84" height="40.84" fill="#231f20"/>
  <rect x="519.25" y="738.07" width="40.84" height="40.84" fill="#231f20"/>
  <rect x="735.54" y="737.41" width="40.84" height="40.84" fill="#231f20"/>
  <rect x="778.96" y="737.41" width="40.84" height="40.84" fill="#231f20"/>
  <rect x="822.37" y="737.41" width="40.84" height="40.84" fill="#231f20"/>
  <rect x="735.54" y="695.3" width="40.84" height="40.84" fill="#231f20"/>
  <rect x="778.96" y="695.3" width="40.84" height="40.84" fill="#231f20"/>
  <rect x="822.37" y="695.3" width="40.84" height="40.84" fill="#231f20"/>
  <rect x="865.42" y="737.89" width="40.84" height="40.84" fill="#231f20"/>
  <rect x="865.01" y="694.95" width="40.84" height="40.84" fill="#231f20"/>
  <rect x="562.79" y="738.07" width="40.84" height="40.84" fill="#231f20"/>
  <rect x="605.76" y="738.07" width="40.84" height="40.84" fill="#231f20"/>
  <rect x="519.25" y="695.3" width="40.84" height="40.84" fill="#231f20"/>
  <rect x="562.79" y="695.3" width="40.84" height="40.84" fill="#231f20"/>
  <rect x="605.76" y="695.3" width="40.84" height="40.84" fill="#231f20"/>
  <rect x="648.97" y="738.07" width="40.84" height="40.84" fill="#231f20"/>
  <rect x="691.93" y="738.07" width="40.84" height="40.84" fill="#231f20"/>
  <rect x="648.97" y="695.3" width="40.84" height="40.84" fill="#231f20"/>
  <rect x="691.93" y="695.3" width="40.84" height="40.84" fill="#231f20"/>
  <rect x="476.25" y="652" width="40.84" height="40.84" fill="#231f20"/>
  <rect x="433.01" y="652" width="40.84" height="40.84" fill="#231f20"/>
  <rect x="389.78" y="652" width="40.84" height="40.84" fill="#231f20"/>
  <rect x="735.54" y="652" width="40.84" height="40.84" fill="#231f20"/>
  <rect x="778.96" y="652" width="40.84" height="40.84" fill="#231f20"/>
  <rect x="822.37" y="652" width="40.84" height="40.84" fill="#231f20"/>
  <rect x="519.25" y="652" width="40.84" height="40.84" fill="#231f20"/>
  <rect x="562.79" y="652" width="40.84" height="40.84" fill="#231f20"/>
  <rect x="605.76" y="652" width="40.84" height="40.84" fill="#231f20"/>
  <rect x="648.97" y="652" width="40.84" height="40.84" fill="#231f20"/>
  <rect x="691.93" y="652" width="40.84" height="40.84" fill="#231f20"/>
  <rect x="476.25" y="608.69" width="40.84" height="40.84" fill="#231f20"/>
  <rect x="433.01" y="608.69" width="40.84" height="40.84" fill="#231f20"/>
  <rect x="389.78" y="608.69" width="40.84" height="40.84" fill="#231f20"/>
  <rect x="735.54" y="608.69" width="40.84" height="40.84" fill="#231f20"/>
  <rect x="778.96" y="608.69" width="40.84" height="40.84" fill="#231f20"/>
  <rect x="822.37" y="608.69" width="40.84" height="40.84" fill="#231f20"/>
  <rect x="519.25" y="608.69" width="40.84" height="40.84" fill="#231f20"/>
  <rect x="562.79" y="608.69" width="40.84" height="40.84" fill="#231f20"/>
  <rect x="605.76" y="608.69" width="40.84" height="40.84" fill="#231f20"/>
  <rect x="648.97" y="608.69" width="40.84" height="40.84" fill="#231f20"/>
  <rect x="691.93" y="608.69" width="40.84" height="40.84" fill="#231f20"/>
  <rect x="476.25" y="565.38" width="40.84" height="40.84" fill="#231f20"/>
  <rect x="433.01" y="565.38" width="40.84" height="40.84" fill="#231f20"/>
  <rect x="389.78" y="565.38" width="40.84" height="40.84" fill="#231f20"/>
  <rect x="346.54" y="565.38" width="40.84" height="40.84" fill="#231f20"/>
  <rect x="735.54" y="565.38" width="40.84" height="40.84" fill="#231f20"/>
  <rect x="778.96" y="565.38" width="40.84" height="40.84" fill="#231f20"/>
  <rect x="519.25" y="565.38" width="40.84" height="40.84" fill="#231f20"/>
  <rect x="562.79" y="565.38" width="40.84" height="40.84" fill="#231f20"/>
  <rect x="605.76" y="565.38" width="40.84" height="40.84" fill="#231f20"/>
  <rect x="648.97" y="565.38" width="40.84" height="40.84" fill="#231f20"/>
  <rect x="691.93" y="565.38" width="40.84" height="40.84" fill="#231f20"/>
  <rect x="476.25" y="521.77" width="40.84" height="40.84" fill="#231f20"/>
  <rect x="433.01" y="521.77" width="40.84" height="40.84" fill="#231f20"/>
  <rect x="389.78" y="521.77" width="40.84" height="40.84" fill="#231f20"/>
  <rect x="346.54" y="521.77" width="40.84" height="40.84" fill="#231f20"/>
  <rect x="303.31" y="521.77" width="40.84" height="40.84" fill="#231f20"/>
  <rect x="735.54" y="521.77" width="40.84" height="40.84" fill="#231f20"/>
  <rect x="519.25" y="521.77" width="40.84" height="40.84" fill="#231f20"/>
  <rect x="562.79" y="521.77" width="40.84" height="40.84" fill="#231f20"/>
  <rect x="605.76" y="521.77" width="40.84" height="40.84" fill="#231f20"/>
  <rect x="648.97" y="521.77" width="40.84" height="40.84" fill="#231f20"/>
  <rect x="691.93" y="521.77" width="40.84" height="40.84" fill="#231f20"/>
  <rect x="476.25" y="478.77" width="40.84" height="40.84" fill="#231f20"/>
  <rect x="433.01" y="478.77" width="40.84" height="40.84" fill="#231f20"/>
  <rect x="389.78" y="478.77" width="40.84" height="40.84" fill="#231f20"/>
  <rect x="346.54" y="478.77" width="40.84" height="40.84" fill="#231f20"/>
  <rect x="303.31" y="478.77" width="40.84" height="40.84" fill="#231f20"/>
  <rect x="260.17" y="478.77" width="40.84" height="40.84" fill="#231f20"/>
  <rect x="519.25" y="478.77" width="40.84" height="40.84" fill="#231f20"/>
  <rect x="562.79" y="478.77" width="40.84" height="40.84" fill="#231f20"/>
  <rect x="605.76" y="478.77" width="40.84" height="40.84" fill="#231f20"/>
  <rect x="648.97" y="478.77" width="40.84" height="40.84" fill="#231f20"/>
  <rect x="691.93" y="478.77" width="40.84" height="40.84" fill="#231f20"/>
  <rect x="476.25" y="435.77" width="40.84" height="40.84" fill="#231f20"/>
  <rect x="433.01" y="435.77" width="40.84" height="40.84" fill="#231f20"/>
  <rect x="389.78" y="435.77" width="40.84" height="40.84" fill="#231f20"/>
  <rect x="346.54" y="435.77" width="40.84" height="40.84" fill="#231f20"/>
  <rect x="303.31" y="435.77" width="40.84" height="40.84" fill="#231f20"/>
  <rect x="260.07" y="435.77" width="40.84" height="40.84" fill="#231f20"/>
  <rect x="519.25" y="435.77" width="40.84" height="40.84" fill="#231f20"/>
  <rect x="562.79" y="435.77" width="40.84" height="40.84" fill="#231f20"/>
  <rect x="605.76" y="435.77" width="40.84" height="40.84" fill="#231f20"/>
  <rect x="648.97" y="435.77" width="40.84" height="40.84" fill="#231f20"/>
  <rect x="476.25" y="392.77" width="40.84" height="40.84" fill="#231f20"/>
  <rect x="433.01" y="392.77" width="40.84" height="40.84" fill="#231f20"/>
  <rect x="389.78" y="392.77" width="40.84" height="40.84" fill="#231f20"/>
  <rect x="346.54" y="392.77" width="40.84" height="40.84" fill="#231f20"/>
  <rect x="303.31" y="392.77" width="40.84" height="40.84" fill="#231f20"/>
  <rect x="260.07" y="392.77" width="40.84" height="40.84" fill="#231f20"/>
  <rect x="216.84" y="392.77" width="40.84" height="40.84" fill="#231f20"/>
  <rect x="519.25" y="392.77" width="40.84" height="40.84" fill="#231f20"/>
  <rect x="562.79" y="392.77" width="40.84" height="40.84" fill="#231f20"/>
  <rect x="605.76" y="392.77" width="40.84" height="40.84" fill="#231f20"/>
  <rect x="476.35" y="349.76" width="40.84" height="40.84" fill="#231f20"/>
  <rect x="433.12" y="349.76" width="40.84" height="40.84" fill="#231f20"/>
  <rect x="389.88" y="349.76" width="40.84" height="40.84" fill="#231f20"/>
  <rect x="346.64" y="349.76" width="40.84" height="40.84" fill="#231f20"/>
  <rect x="303.41" y="349.76" width="40.84" height="40.84" fill="#231f20"/>
  <rect x="260.17" y="349.76" width="40.84" height="40.84" fill="#231f20"/>
  <rect x="216.84" y="349.76" width="40.84" height="40.84" fill="#231f20"/>
  <rect x="173.6" y="349.76" width="40.84" height="40.84" fill="#231f20"/>
  <rect x="519.35" y="349.76" width="40.84" height="40.84" fill="#231f20"/>
  <rect x="562.89" y="349.76" width="40.84" height="40.84" fill="#231f20"/>
  <rect x="605.86" y="349.76" width="40.84" height="40.84" fill="#231f20"/>
  <rect x="476.35" y="306.84" width="40.84" height="40.84" fill="#231f20"/>
  <rect x="433.12" y="306.84" width="40.84" height="40.84" fill="#231f20"/>
  <rect x="389.88" y="306.84" width="40.84" height="40.84" fill="#231f20"/>
  <rect x="346.64" y="306.84" width="40.84" height="40.84" fill="#231f20"/>
  <rect x="303.41" y="306.84" width="40.84" height="40.84" fill="#231f20"/>
  <rect x="260.17" y="306.84" width="40.84" height="40.84" fill="#231f20"/>
  <rect x="216.84" y="306.84" width="40.84" height="40.84" fill="#231f20"/>
  <rect x="173.6" y="306.84" width="40.84" height="40.84" fill="#231f20"/>
  <rect x="519.35" y="306.84" width="40.84" height="40.84" fill="#231f20"/>
  <rect x="562.89" y="306.84" width="40.84" height="40.84" fill="#231f20"/>
  <rect x="476.35" y="263.53" width="40.84" height="40.84" fill="#231f20"/>
  <rect x="433.12" y="263.53" width="40.84" height="40.84" fill="#231f20"/>
  <rect x="389.88" y="263.53" width="40.84" height="40.84" fill="#231f20"/>
  <rect x="346.64" y="263.53" width="40.84" height="40.84" fill="#231f20"/>
  <rect x="303.41" y="263.53" width="40.84" height="40.84" fill="#231f20"/>
  <rect x="260.17" y="263.53" width="40.84" height="40.84" fill="#231f20"/>
  <rect x="216.84" y="263.53" width="40.84" height="40.84" fill="#231f20"/>
  <rect x="173.6" y="263.53" width="40.84" height="40.84" fill="#231f20"/>
  <rect x="130.36" y="263.53" width="40.84" height="40.84" fill="#231f20"/>
  <rect x="519.35" y="263.53" width="40.84" height="40.84" fill="#231f20"/>
  <rect x="476.35" y="220.23" width="40.84" height="40.84" fill="#231f20"/>
  <rect x="433.12" y="220.23" width="40.84" height="40.84" fill="#231f20"/>
  <rect x="389.88" y="220.23" width="40.84" height="40.84" fill="#231f20"/>
  <rect x="346.64" y="220.23" width="40.84" height="40.84" fill="#231f20"/>
  <rect x="303.41" y="220.23" width="40.84" height="40.84" fill="#231f20"/>
  <rect x="260.17" y="220.23" width="40.84" height="40.84" fill="#231f20"/>
  <rect x="216.84" y="220.23" width="40.84" height="40.84" fill="#231f20"/>
  <rect x="173.6" y="220.23" width="40.84" height="40.84" fill="#231f20"/>
  <rect x="130.36" y="220.23" width="40.84" height="40.84" fill="#231f20"/>
  <rect x="433.12" y="177.23" width="40.84" height="40.84" fill="#231f20"/>
  <rect x="389.88" y="177.23" width="40.84" height="40.84" fill="#231f20"/>
  <rect x="346.64" y="177.23" width="40.84" height="40.84" fill="#231f20"/>
  <rect x="303.41" y="177.23" width="40.84" height="40.84" fill="#231f20"/>
  <rect x="260.17" y="177.23" width="40.84" height="40.84" fill="#231f20"/>
  <rect x="216.84" y="177.23" width="40.84" height="40.84" fill="#231f20"/>
  <rect x="173.6" y="177.23" width="40.84" height="40.84" fill="#231f20"/>
  <rect x="130.36" y="177.23" width="40.84" height="40.84" fill="#231f20"/>
  <rect x="87.13" y="220.23" width="40.84" height="40.84" fill="#231f20"/>
  <rect x="87.13" y="177.23" width="40.84" height="40.84" fill="#231f20"/>
  <rect x="433.12" y="134.26" width="40.84" height="40.84" fill="#231f20"/>
  <rect x="476.35" y="134.26" width="40.84" height="40.84" fill="#231f20"/>
  <rect x="389.88" y="134.26" width="40.84" height="40.84" fill="#231f20"/>
  <rect x="346.64" y="134.26" width="40.84" height="40.84" fill="#231f20"/>
  <rect x="303.41" y="134.26" width="40.84" height="40.84" fill="#231f20"/>
  <rect x="260.17" y="134.26" width="40.84" height="40.84" fill="#231f20"/>
  <rect x="216.84" y="134.26" width="40.84" height="40.84" fill="#231f20"/>
  <rect x="173.6" y="134.26" width="40.84" height="40.84" fill="#231f20"/>
  <rect x="130.36" y="134.26" width="40.84" height="40.84" fill="#231f20"/>
  <rect x="87.13" y="134.26" width="40.84" height="40.84" fill="#231f20"/>
  <rect x="43.89" y="134.26" width="40.84" height="40.84" fill="#231f20"/>
  <rect x="433.12" y="90.96" width="40.84" height="40.84" fill="#231f20"/>
  <rect x="476.35" y="90.96" width="40.84" height="40.84" fill="#231f20"/>
  <rect x="389.88" y="90.96" width="40.84" height="40.84" fill="#231f20"/>
  <rect x="346.64" y="90.96" width="40.84" height="40.84" fill="#231f20"/>
  <rect x="303.41" y="90.96" width="40.84" height="40.84" fill="#231f20"/>
  <rect x="260.17" y="90.96" width="40.84" height="40.84" fill="#231f20"/>
  <rect x="216.84" y="90.96" width="40.84" height="40.84" fill="#231f20"/>
  <rect x="173.6" y="90.96" width="40.84" height="40.84" fill="#231f20"/>
  <rect x="130.36" y="90.96" width="40.84" height="40.84" fill="#231f20"/>
  <rect x="87.13" y="90.96" width="40.84" height="40.84" fill="#231f20"/>
  <rect x="43.89" y="90.96" width="40.84" height="40.84" fill="#231f20"/>
  <rect x="389.88" y="47.97" width="40.84" height="40.84" fill="#231f20"/>
  <rect x="433.12" y="47.97" width="40.84" height="40.84" fill="#231f20"/>
  <rect x="433.12" y="4.83" width="40.84" height="40.84" fill="#231f20"/>
  <rect x="346.64" y="47.97" width="40.84" height="40.84" fill="#231f20"/>
  <rect x="303.41" y="47.97" width="40.84" height="40.84" fill="#231f20"/>
  <rect x="303.41" y="4.83" width="40.84" height="40.84" fill="#231f20"/>
  <rect x="260.17" y="47.97" width="40.84" height="40.84" fill="#231f20"/>
  <rect x="216.84" y="47.97" width="40.84" height="40.84" fill="#231f20"/>
  <rect x="173.6" y="47.97" width="40.84" height="40.84" fill="#231f20"/>
  <rect x="130.36" y="47.97" width="40.84" height="40.84" fill="#231f20"/>
  <rect x="87.13" y="47.97" width="40.84" height="40.84" fill="#231f20"/>
  <rect x="43.89" y="47.97" width="40.84" height="40.84" fill="#231f20"/>
  <rect x="519.35" y="220.23" width="40.84" height="40.84" fill="#231f20"/>
  <rect x="562.89" y="263.53" width="40.84" height="40.84" fill="#231f20"/>
  <rect x="605.86" y="306.84" width="40.84" height="40.84" fill="#231f20"/>
  <rect x="648.97" y="392.77" width="40.84" height="40.84" fill="#231f20"/>
  <rect x="691.93" y="435.77" width="40.84" height="40.84" fill="#231f20"/>
  <rect x="447.28" y="795.74" width="13.39" height="13.39" fill="#231f20"/>
  <rect x="447.28" y="751.79" width="13.39" height="13.39" fill="#231f20"/>
  <rect x="403.91" y="751.7" width="13.39" height="13.39" fill="#231f20"/>
  <rect x="360.92" y="751.14" width="13.39" height="13.39" fill="#231f20"/>
  <rect x="146.25" y="925.01" width="13.39" height="13.39" fill="#231f20"/>
  <rect x="360.92" y="795.74" width="13.39" height="13.39" fill="#231f20"/>
  <rect x="274.51" y="881.05" width="13.39" height="13.39" fill="#231f20"/>
  <rect x="490.88" y="1010.78" width="13.39" height="13.39" fill="#231f20"/>
  <rect x="360.92" y="1010.78" width="13.39" height="13.39" fill="#231f20"/>
  <rect x="403.91" y="708.18" width="13.39" height="13.39" fill="#231f20"/>
  <rect x="360.92" y="665.72" width="13.39" height="13.39" fill="#231f20"/>
  <rect x="360.92" y="622.41" width="13.39" height="13.39" fill="#231f20"/>
  <rect x="317.03" y="579.11" width="13.39" height="13.39" fill="#231f20"/>
  <rect x="273.8" y="535.49" width="13.39" height="13.39" fill="#231f20"/>
  <rect x="273.8" y="578.07" width="13.39" height="13.39" fill="#231f20"/>
  <rect x="231.96" y="491.88" width="13.39" height="13.39" fill="#231f20"/>
  <rect x="231.96" y="449.49" width="13.39" height="13.39" fill="#231f20"/>
  <rect x="188.75" y="449.49" width="13.39" height="13.39" fill="#231f20"/>
  <rect x="188.75" y="404.61" width="13.39" height="13.39" fill="#231f20"/>
  <rect x="144.09" y="320.57" width="13.39" height="13.39" fill="#231f20"/>
  <rect x="100.85" y="277.26" width="13.39" height="13.39" fill="#231f20"/>
  <rect x="57.62" y="232.27" width="13.39" height="13.39" fill="#231f20"/>
  <rect x="57.62" y="190.95" width="13.39" height="13.39" fill="#231f20"/>
  <rect x="15.23" y="146.09" width="13.39" height="13.39" fill="#231f20"/>
  <rect x="15.23" y="190.64" width="13.39" height="13.39" fill="#231f20"/>
  <rect x="15.23" y="104.77" width="13.39" height="13.39" fill="#231f20"/>
  <rect x="15.23" y="61.94" width="13.39" height="13.39" fill="#231f20"/>
  <rect x="15.23" y="18.55" width="13.39" height="13.39" fill="#231f20"/>
  <rect x="490.08" y="61.94" width="13.39" height="13.39" fill="#231f20"/>
  <rect x="490.08" y="18.55" width="13.39" height="13.39" fill="#231f20"/>
  <rect x="533.64" y="149.26" width="13.39" height="13.39" fill="#231f20"/>
  <rect x="533.64" y="105.87" width="13.39" height="13.39" fill="#231f20"/>
  <rect x="57.62" y="18.55" width="13.39" height="13.39" fill="#231f20"/>
  <rect x="102.03" y="18.55" width="13.39" height="13.39" fill="#231f20"/>
  <rect x="144.42" y="18.55" width="13.39" height="13.39" fill="#231f20"/>
  <rect x="188.94" y="18.55" width="13.39" height="13.39" fill="#231f20"/>
  <rect x="231.33" y="18.55" width="13.39" height="13.39" fill="#231f20"/>
  <rect x="273.9" y="18.55" width="13.39" height="13.39" fill="#231f20"/>
  <rect x="361.14" y="18.55" width="13.39" height="13.39" fill="#231f20"/>
  <rect x="403.7" y="18.55" width="13.39" height="13.39" fill="#231f20"/>
  <rect x="144.09" y="363.49" width="13.39" height="13.39" fill="#231f20"/>
  <rect x="490.08" y="881.05" width="13.39" height="13.39" fill="#231f20"/>
  <rect x="490.08" y="836.63" width="13.39" height="13.39" fill="#231f20"/>
  <rect x="146.25" y="795.74" width="13.39" height="13.39" fill="#231f20"/>
  <rect x="532.23" y="925.01" width="13.39" height="13.39" fill="#231f20"/>
  <rect x="448.39" y="925.01" width="13.39" height="13.39" fill="#231f20"/>
  <rect x="532.23" y="967.45" width="13.39" height="13.39" fill="#231f20"/>
  <rect x="532.23" y="881.05" width="13.39" height="13.39" fill="#231f20"/>
  <rect x="576.07" y="1011.41" width="13.39" height="13.39" fill="#231f20"/>
  <rect x="619.22" y="1011.41" width="13.39" height="13.39" fill="#231f20"/>
  <rect x="576.07" y="967.45" width="13.39" height="13.39" fill="#231f20"/>
  <rect x="618.54" y="1054.1" width="13.39" height="13.39" fill="#231f20"/>
  <rect x="922.71" y="968.08" width="13.39" height="13.39" fill="#231f20"/>
  <rect x="922.71" y="924.46" width="13.39" height="13.39" fill="#231f20"/>
  <rect x="965.23" y="881.71" width="13.39" height="13.39" fill="#231f20"/>
  <rect x="965.23" y="924.46" width="13.39" height="13.39" fill="#231f20"/>
  <rect x="965.23" y="753.01" width="13.39" height="13.39" fill="#231f20"/>
  <rect x="1009.65" y="753.01" width="13.39" height="13.39" fill="#231f20"/>
  <rect x="921.98" y="708.67" width="13.39" height="13.39" fill="#231f20"/>
  <rect x="965.23" y="708.67" width="13.39" height="13.39" fill="#231f20"/>
  <rect x="1009.65" y="838.8" width="13.39" height="13.39" fill="#231f20"/>
  <rect x="1009.65" y="881.71" width="13.39" height="13.39" fill="#231f20"/>
  <rect x="1009.65" y="794.46" width="13.39" height="13.39" fill="#231f20"/>
  <rect x="877.53" y="665.72" width="13.39" height="13.39" fill="#231f20"/>
  <rect x="877.53" y="622.41" width="13.39" height="13.39" fill="#231f20"/>
  <rect x="877.53" y="579.11" width="13.39" height="13.39" fill="#231f20"/>
  <rect x="836.09" y="579.11" width="13.39" height="13.39" fill="#231f20"/>
  <rect x="792.68" y="535.49" width="13.39" height="13.39" fill="#231f20"/>
  <rect x="836.09" y="535.49" width="13.39" height="13.39" fill="#231f20"/>
  <rect x="749.27" y="492.49" width="13.39" height="13.39" fill="#231f20"/>
  <rect x="749.27" y="449.49" width="13.39" height="13.39" fill="#231f20"/>
  <rect x="749.27" y="406.49" width="13.39" height="13.39" fill="#231f20"/>
  <rect x="749.27" y="363.49" width="13.39" height="13.39" fill="#231f20"/>
  <rect x="791.84" y="449.49" width="13.39" height="13.39" fill="#231f20"/>
  <rect x="705.65" y="406.49" width="13.39" height="13.39" fill="#231f20"/>
  <rect x="661.73" y="363.49" width="13.39" height="13.39" fill="#231f20"/>
  <rect x="792.68" y="492.49" width="13.39" height="13.39" fill="#231f20"/>
  <rect x="705.65" y="363.49" width="13.39" height="13.39" fill="#231f20"/>
  <rect x="662.69" y="319.65" width="13.39" height="13.39" fill="#231f20"/>
  <rect x="619.48" y="277.26" width="13.39" height="13.39" fill="#231f20"/>
  <rect x="661.73" y="277.26" width="13.39" height="13.39" fill="#231f20"/>
  <rect x="577.23" y="233.95" width="13.39" height="13.39" fill="#231f20"/>
  <rect x="532.97" y="190.95" width="13.39" height="13.39" fill="#231f20"/>
  <rect x="576.95" y="149.26" width="13.39" height="13.39" fill="#231f20"/>
  <rect x="576.29" y="190.95" width="13.39" height="13.39" fill="#231f20"/>
  <rect x="749.6" y="106.72" width="13.39" height="13.39" fill="#231f20"/>
  <rect x="965.62" y="104.68" width="13.39" height="13.39" fill="#231f20"/>
  <rect x="965.62" y="146.95" width="13.39" height="13.39" fill="#231f20"/>
  <rect x="1009.03" y="104.68" width="13.39" height="13.39" fill="#231f20"/>
  <rect x="749.6" y="146.95" width="13.39" height="13.39" fill="#231f20"/>
  <rect x="792.68" y="146.95" width="13.39" height="13.39" fill="#231f20"/>
  <rect x="490.08" y="190.95" width="13.39" height="13.39" fill="#231f20"/>
  <rect x="619.48" y="233.95" width="13.39" height="13.39" fill="#231f20"/>
  <rect x="836.09" y="493.57" width="13.39" height="13.39" fill="#231f20"/>
  <rect x="879.15" y="406.49" width="13.39" height="13.39" fill="#231f20"/>
  <rect x="879.15" y="493.57" width="13.39" height="13.39" fill="#231f20"/>
  <rect x="920.78" y="665.72" width="13.39" height="13.39" fill="#231f20"/>
  <rect x="922.03" y="1010.78" width="13.39" height="13.39" fill="#231f20"/>
  <rect x="749.27" y="1054.1" width="13.39" height="13.39" fill="#231f20"/>
  <rect x="792.68" y="1054.1" width="13.39" height="13.39" fill="#231f20"/>
  <rect x="835.27" y="1054.1" width="13.39" height="13.39" fill="#231f20"/>
  <rect x="878.68" y="1054.1" width="13.39" height="13.39" fill="#231f20"/>
  <rect x="922.37" y="1054.1" width="13.39" height="13.39" fill="#231f20"/>
</svg>