<?xml version="1.0" encoding="UTF-8"?>
<svg id="_7" data-name="7" xmlns="http://www.w3.org/2000/svg" viewBox="0 0 1080 1080">
  <rect x="303.99" y="476.21" width="40.84" height="40.84" fill="#231f20"/>
  <rect x="303.99" y="519.58" width="40.84" height="40.84" fill="#231f20"/>
  <rect x="303.99" y="562.95" width="40.84" height="40.84" fill="#231f20"/>
  <rect x="347.01" y="735.49" width="40.84" height="40.84" fill="#231f20"/>
  <rect x="347.01" y="778.86" width="40.84" height="40.84" fill="#231f20"/>
  <rect x="303.99" y="778.86" width="40.84" height="40.84" fill="#231f20"/>
  <rect x="260.58" y="778.86" width="40.84" height="40.84" fill="#231f20"/>
  <rect x="347.01" y="865.37" width="40.84" height="40.84" fill="#231f20"/>
  <rect x="260.58" y="908.29" width="40.84" height="40.84" fill="#231f20"/>
  <rect x="260.58" y="951.66" width="40.84" height="40.84" fill="#231f20"/>
  <rect x="347.01" y="951.66" width="40.84" height="40.84" fill="#231f20"/>
  <rect x="217.72" y="951.66" width="40.84" height="40.84" fill="#231f20"/>
  <rect x="260.58" y="994.77" width="40.84" height="40.84" fill="#231f20"/>
  <rect x="779.3" y="735.59" width="40.84" height="40.84" fill="#231f20"/>
  <rect x="779.3" y="778.96" width="40.84" height="40.84" fill="#231f20"/>
  <rect x="779.3" y="822.07" width="40.84" height="40.84" fill="#231f20"/>
  <rect x="779.3" y="605.64" width="40.84" height="40.84" fill="#231f20"/>
  <rect x="865.38" y="605.64" width="40.84" height="40.84" fill="#231f20"/>
  <rect x="779.3" y="649.01" width="40.84" height="40.84" fill="#231f20"/>
  <rect x="779.3" y="692.12" width="40.84" height="40.84" fill="#231f20"/>
  <rect x="865.38" y="217.4" width="40.84" height="40.84" fill="#231f20"/>
  <rect x="865.38" y="260.43" width="40.84" height="40.84" fill="#231f20"/>
  <rect x="779.3" y="260.43" width="40.84" height="40.84" fill="#231f20"/>
  <rect x="822.35" y="130.86" width="40.84" height="40.84" fill="#231f20"/>
  <rect x="822.35" y="173.89" width="40.84" height="40.84" fill="#231f20"/>
  <rect x="822.35" y="216.92" width="40.84" height="40.84" fill="#231f20"/>
  <rect x="779.3" y="173.89" width="40.84" height="40.84" fill="#231f20"/>
  <rect x="822.35" y="44.46" width="40.84" height="40.84" fill="#231f20"/>
  <rect x="822.35" y=".89" width="40.84" height="40.84" fill="#231f20"/>
  <rect x="822.35" y="87.49" width="40.84" height="40.84" fill="#231f20"/>
  <rect x="865.38" y="130.86" width="40.84" height="40.84" fill="#231f20"/>
  <rect x="865.38" y="173.89" width="40.84" height="40.84" fill="#231f20"/>
  <rect x="865.38" y="303.66" width="40.84" height="40.84" fill="#231f20"/>
  <rect x="779.32" y="303.66" width="40.84" height="40.84" fill="#231f20"/>
  <rect x="865.38" y="346.69" width="40.84" height="40.84" fill="#231f20"/>
  <rect x="865.38" y="389.94" width="40.84" height="40.84" fill="#231f20"/>
  <rect x="822.35" y="389.94" width="40.84" height="40.84" fill="#231f20"/>
  <rect x="865.38" y="433.18" width="40.84" height="40.84" fill="#231f20"/>
  <rect x="865.38" y="476.21" width="40.84" height="40.84" fill="#231f20"/>
  <rect x="865.38" y="519.66" width="40.84" height="40.84" fill="#231f20"/>
  <rect x="865.38" y="562.69" width="40.84" height="40.84" fill="#231f20"/>
  <rect x="822.35" y="562.69" width="40.84" height="40.84" fill="#231f20"/>
  <rect x="865.38" y="649.01" width="40.84" height="40.84" fill="#231f20"/>
  <rect x="779.3" y="346.66" width="40.84" height="40.84" fill="#231f20"/>
  <rect x="779.3" y="476.59" width="40.84" height="40.84" fill="#231f20"/>
  <rect x="779.3" y="519.7" width="40.84" height="40.84" fill="#231f20"/>
  <rect x="779.3" y="908.33" width="40.84" height="40.84" fill="#231f20"/>
  <rect x="779.3" y="1037.71" width="40.84" height="40.84" fill="#231f20"/>
  <rect x="736" y="822.07" width="40.84" height="40.84" fill="#231f20"/>
  <rect x="303.75" y="1037.88" width="40.84" height="40.84" fill="#231f20"/>
  <rect x="347.05" y="562.95" width="40.84" height="40.84" fill="#231f20"/>
  <rect x="260.92" y="476.21" width="40.84" height="40.84" fill="#231f20"/>
  <rect x="303.88" y="432.84" width="40.84" height="40.84" fill="#231f20"/>
  <rect x="260.82" y="432.84" width="40.84" height="40.84" fill="#231f20"/>
  <rect x="260.92" y="519.58" width="40.84" height="40.84" fill="#231f20"/>
  <rect x="260.92" y="562.69" width="40.84" height="40.84" fill="#231f20"/>
  <rect x="260.92" y="606.06" width="40.84" height="40.84" fill="#231f20"/>
  <rect x="260.92" y="649.43" width="40.84" height="40.84" fill="#231f20"/>
  <rect x="303.99" y="649.43" width="40.84" height="40.84" fill="#231f20"/>
  <rect x="303.99" y="346.84" width="40.84" height="40.84" fill="#231f20"/>
  <rect x="303.99" y="390.21" width="40.84" height="40.84" fill="#231f20"/>
  <rect x="260.92" y="346.84" width="40.84" height="40.84" fill="#231f20"/>
  <rect x="303.88" y="303.47" width="40.84" height="40.84" fill="#231f20"/>
  <rect x="260.82" y="303.47" width="40.84" height="40.84" fill="#231f20"/>
  <rect x="217.75" y="303.47" width="40.84" height="40.84" fill="#231f20"/>
  <rect x="260.92" y="390.21" width="40.84" height="40.84" fill="#231f20"/>
  <rect x="303.88" y="260.03" width="40.84" height="40.84" fill="#231f20"/>
  <rect x="347.05" y="303.47" width="40.84" height="40.84" fill="#231f20"/>
  <rect x="433.39" y="303.47" width="40.84" height="40.84" fill="#231f20"/>
  <rect x="347.05" y="260.03" width="40.84" height="40.84" fill="#231f20"/>
  <rect x="347.05" y="390.1" width="40.84" height="40.84" fill="#231f20"/>
  <rect x="347.05" y="346.66" width="40.84" height="40.84" fill="#231f20"/>
  <rect x="390.22" y="260.03" width="40.84" height="40.84" fill="#231f20"/>
  <rect x="260.82" y="260.03" width="40.84" height="40.84" fill="#231f20"/>
  <rect x="303.99" y="174.03" width="40.84" height="40.84" fill="#231f20"/>
  <rect x="347.05" y="174.03" width="40.84" height="40.84" fill="#231f20"/>
  <rect x="303.99" y="217.4" width="40.84" height="40.84" fill="#231f20"/>
  <rect x="260.92" y="174.03" width="40.84" height="40.84" fill="#231f20"/>
  <rect x="303.88" y="130.66" width="40.84" height="40.84" fill="#231f20"/>
  <rect x="347.05" y="130.66" width="40.84" height="40.84" fill="#231f20"/>
  <rect x="260.82" y="130.66" width="40.84" height="40.84" fill="#231f20"/>
  <rect x="260.82" y="87.39" width="40.84" height="40.84" fill="#231f20"/>
  <rect x="347.05" y="87.39" width="40.84" height="40.84" fill="#231f20"/>
  <rect x="347.05" y="44.41" width="40.84" height="40.84" fill="#231f20"/>
  <rect x="217.8" y="174.03" width="40.84" height="40.84" fill="#231f20"/>
  <rect x="217.7" y="130.66" width="40.84" height="40.84" fill="#231f20"/>
  <rect x="217.7" y="87.39" width="40.84" height="40.84" fill="#231f20"/>
  <rect x="217.7" y="44.41" width="40.84" height="40.84" fill="#231f20"/>
  <rect x="217.7" y="1.14" width="40.84" height="40.84" fill="#231f20"/>
  <rect x="174.58" y="1.14" width="40.84" height="40.84" fill="#231f20"/>
  <rect x="260.92" y="217.4" width="40.84" height="40.84" fill="#231f20"/>
  <rect x="217.65" y="260.03" width="40.84" height="40.84" fill="#231f20"/>
  <rect x="217.75" y="217.4" width="40.84" height="40.84" fill="#231f20"/>
  <rect x="361.18" y="533.3" width="13.39" height="13.39" fill="#231f20"/>
  <rect x="361.18" y="489.93" width="13.39" height="13.39" fill="#231f20"/>
  <rect x="403.92" y="489.93" width="13.39" height="13.39" fill="#231f20"/>
  <rect x="403.92" y="533.3" width="13.39" height="13.39" fill="#231f20"/>
  <rect x="361.18" y="446.56" width="13.39" height="13.39" fill="#231f20"/>
  <rect x="403.92" y="446.56" width="13.39" height="13.39" fill="#231f20"/>
  <rect x="403.92" y="361.83" width="13.39" height="13.39" fill="#231f20"/>
  <rect x="447.11" y="361.83" width="13.39" height="13.39" fill="#231f20"/>
  <rect x="359.6" y="231.12" width="13.39" height="13.39" fill="#231f20"/>
  <rect x="402.79" y="231.12" width="13.39" height="13.39" fill="#231f20"/>
  <rect x="490.48" y="361.56" width="13.39" height="13.39" fill="#231f20"/>
  <rect x="490.48" y="317.69" width="13.39" height="13.39" fill="#231f20"/>
  <rect x="490.48" y="273.49" width="13.39" height="13.39" fill="#231f20"/>
  <rect x="490.48" y="231.52" width="13.39" height="13.39" fill="#231f20"/>
  <rect x="490.48" y="188.15" width="13.39" height="13.39" fill="#231f20"/>
  <rect x="533.84" y="273.49" width="13.39" height="13.39" fill="#231f20"/>
  <rect x="533.84" y="317.69" width="13.39" height="13.39" fill="#231f20"/>
  <rect x="533.84" y="231.52" width="13.39" height="13.39" fill="#231f20"/>
  <rect x="619.99" y="272.05" width="13.39" height="13.39" fill="#231f20"/>
  <rect x="619.99" y="230.09" width="13.39" height="13.39" fill="#231f20"/>
  <rect x="663.36" y="272.05" width="13.39" height="13.39" fill="#231f20"/>
  <rect x="663.36" y="230.09" width="13.39" height="13.39" fill="#231f20"/>
  <rect x="706.51" y="231.79" width="13.39" height="13.39" fill="#231f20"/>
  <rect x="533.84" y="188.15" width="13.39" height="13.39" fill="#231f20"/>
  <rect x="490.48" y="143.45" width="13.39" height="13.39" fill="#231f20"/>
  <rect x="490.48" y="102.17" width="13.39" height="13.39" fill="#231f20"/>
  <rect x="447.11" y="231.79" width="13.39" height="13.39" fill="#231f20"/>
  <rect x="447.11" y="188.42" width="13.39" height="13.39" fill="#231f20"/>
  <rect x="447.11" y="143.72" width="13.39" height="13.39" fill="#231f20"/>
  <rect x="402.79" y="188.42" width="13.39" height="13.39" fill="#231f20"/>
  <rect x="402.79" y="143.72" width="13.39" height="13.39" fill="#231f20"/>
  <rect x="402.79" y="101.51" width="13.39" height="13.39" fill="#231f20"/>
  <rect x="447.11" y="102.17" width="13.39" height="13.39" fill="#231f20"/>
  <rect x="447.11" y="58.8" width="13.39" height="13.39" fill="#231f20"/>
  <rect x="447.11" y="14.1" width="13.39" height="13.39" fill="#231f20"/>
  <rect x="793.02" y="143.72" width="13.39" height="13.39" fill="#231f20"/>
  <rect x="793.02" y="102.17" width="13.39" height="13.39" fill="#231f20"/>
  <rect x="750.14" y="144.73" width="13.39" height="13.39" fill="#231f20"/>
  <rect x="750.14" y="103.19" width="13.39" height="13.39" fill="#231f20"/>
  <rect x="706.51" y="99.38" width="13.39" height="13.39" fill="#231f20"/>
  <rect x="706.51" y="57.84" width="13.39" height="13.39" fill="#231f20"/>
  <rect x="793.02" y="58.8" width="13.39" height="13.39" fill="#231f20"/>
  <rect x="793.02" y="14.1" width="13.39" height="13.39" fill="#231f20"/>
  <rect x="490.48" y="14.1" width="13.39" height="13.39" fill="#231f20"/>
  <rect x="402.79" y="58.8" width="13.39" height="13.39" fill="#231f20"/>
  <rect x="402.79" y="14.1" width="13.39" height="13.39" fill="#231f20"/>
  <rect x="318.23" y="58.8" width="13.39" height="13.39" fill="#231f20"/>
  <rect x="318.23" y="102.17" width="13.39" height="13.39" fill="#231f20"/>
  <rect x="318.23" y="14.1" width="13.39" height="13.39" fill="#231f20"/>
  <rect x="273.91" y="58.8" width="13.39" height="13.39" fill="#231f20"/>
  <rect x="273.91" y="14.1" width="13.39" height="13.39" fill="#231f20"/>
  <rect x="447.11" y="273.75" width="13.39" height="13.39" fill="#231f20"/>
  <rect x="533.67" y="361.83" width="13.39" height="13.39" fill="#231f20"/>
  <rect x="533.68" y="404.06" width="13.39" height="13.39" fill="#231f20"/>
  <rect x="576.87" y="404.33" width="13.39" height="13.39" fill="#231f20"/>
  <rect x="403.92" y="404.19" width="13.39" height="13.39" fill="#231f20"/>
  <rect x="491.09" y="446.56" width="13.39" height="13.39" fill="#231f20"/>
  <rect x="447.11" y="446.56" width="13.39" height="13.39" fill="#231f20"/>
  <rect x="491.09" y="404.19" width="13.39" height="13.39" fill="#231f20"/>
  <rect x="793.02" y="446.56" width="13.39" height="13.39" fill="#231f20"/>
  <rect x="793.02" y="404.19" width="13.39" height="13.39" fill="#231f20"/>
  <rect x="793.02" y="230.65" width="13.39" height="13.39" fill="#231f20"/>
  <rect x="836.07" y="489.69" width="13.39" height="13.39" fill="#231f20"/>
  <rect x="836.07" y="533.42" width="13.39" height="13.39" fill="#231f20"/>
  <rect x="750.14" y="489.69" width="13.39" height="13.39" fill="#231f20"/>
  <rect x="577.03" y="489.69" width="13.39" height="13.39" fill="#231f20"/>
  <rect x="750.14" y="533.42" width="13.39" height="13.39" fill="#231f20"/>
  <rect x="706.51" y="533.42" width="13.39" height="13.39" fill="#231f20"/>
  <rect x="662.88" y="533.42" width="13.39" height="13.39" fill="#231f20"/>
  <rect x="662.88" y="620.3" width="13.39" height="13.39" fill="#231f20"/>
  <rect x="619.82" y="620.3" width="13.39" height="13.39" fill="#231f20"/>
  <rect x="750.14" y="576.08" width="13.39" height="13.39" fill="#231f20"/>
  <rect x="793.04" y="576.42" width="13.39" height="13.39" fill="#231f20"/>
  <rect x="836.07" y="447.32" width="13.39" height="13.39" fill="#231f20"/>
  <rect x="836.07" y="662.47" width="13.39" height="13.39" fill="#231f20"/>
  <rect x="836.07" y="706.21" width="13.39" height="13.39" fill="#231f20"/>
  <rect x="836.07" y="620.11" width="13.39" height="13.39" fill="#231f20"/>
  <rect x="836.07" y="792" width="13.39" height="13.39" fill="#231f20"/>
  <rect x="836.07" y="835.74" width="13.39" height="13.39" fill="#231f20"/>
  <rect x="836.07" y="749.63" width="13.39" height="13.39" fill="#231f20"/>
  <rect x="836.07" y="921.33" width="13.39" height="13.39" fill="#231f20"/>
  <rect x="836.07" y="965.07" width="13.39" height="13.39" fill="#231f20"/>
  <rect x="836.07" y="1009.14" width="13.39" height="13.39" fill="#231f20"/>
  <rect x="793.02" y="965.07" width="13.39" height="13.39" fill="#231f20"/>
  <rect x="793.02" y="1009.14" width="13.39" height="13.39" fill="#231f20"/>
  <rect x="663.26" y="965.07" width="13.39" height="13.39" fill="#231f20"/>
  <rect x="663.26" y="1009.14" width="13.39" height="13.39" fill="#231f20"/>
  <rect x="620.18" y="965.07" width="13.39" height="13.39" fill="#231f20"/>
  <rect x="749.02" y="965.07" width="13.39" height="13.39" fill="#231f20"/>
  <rect x="707.78" y="965.07" width="13.39" height="13.39" fill="#231f20"/>
  <rect x="620.18" y="1009.14" width="13.39" height="13.39" fill="#231f20"/>
  <rect x="359.65" y="1009.14" width="13.39" height="13.39" fill="#231f20"/>
  <rect x="359.65" y="1051.61" width="13.39" height="13.39" fill="#231f20"/>
  <rect x="403.95" y="1009.14" width="13.39" height="13.39" fill="#231f20"/>
  <rect x="403.95" y="1051.61" width="13.39" height="13.39" fill="#231f20"/>
  <rect x="230.52" y="1051.61" width="13.39" height="13.39" fill="#231f20"/>
  <rect x="230.52" y="1008.99" width="13.39" height="13.39" fill="#231f20"/>
  <rect x="187.67" y="1051.61" width="13.39" height="13.39" fill="#231f20"/>
  <rect x="187.67" y="1009.14" width="13.39" height="13.39" fill="#231f20"/>
  <rect x="144.43" y="1051.61" width="13.39" height="13.39" fill="#231f20"/>
  <rect x="144.43" y="1009.14" width="13.39" height="13.39" fill="#231f20"/>
  <rect x="276.03" y="1051.61" width="13.39" height="13.39" fill="#231f20"/>
  <rect x="316.61" y="1009.14" width="13.39" height="13.39" fill="#231f20"/>
  <rect x="663.26" y="1051.43" width="13.39" height="13.39" fill="#231f20"/>
  <rect x="620.18" y="1051.43" width="13.39" height="13.39" fill="#231f20"/>
  <rect x="492.44" y="1009.14" width="13.39" height="13.39" fill="#231f20"/>
  <rect x="492.44" y="1051.43" width="13.39" height="13.39" fill="#231f20"/>
  <rect x="317.71" y="878.15" width="13.39" height="13.39" fill="#231f20"/>
  <rect x="317.71" y="922.22" width="13.39" height="13.39" fill="#231f20"/>
  <rect x="360.73" y="922.22" width="13.39" height="13.39" fill="#231f20"/>
  <rect x="317.71" y="835.84" width="13.39" height="13.39" fill="#231f20"/>
  <rect x="274.31" y="878.15" width="13.39" height="13.39" fill="#231f20"/>
  <rect x="274.31" y="835.84" width="13.39" height="13.39" fill="#231f20"/>
  <rect x="317.71" y="749.22" width="13.39" height="13.39" fill="#231f20"/>
  <rect x="317.71" y="706.19" width="13.39" height="13.39" fill="#231f20"/>
  <rect x="274.31" y="749.22" width="13.39" height="13.39" fill="#231f20"/>
  <rect x="274.31" y="706.19" width="13.39" height="13.39" fill="#231f20"/>
  <rect x="231.82" y="749.22" width="13.39" height="13.39" fill="#231f20"/>
  <rect x="231.82" y="706.19" width="13.39" height="13.39" fill="#231f20"/>
  <rect x="360.73" y="835.84" width="13.39" height="13.39" fill="#231f20"/>
  <rect x="361.18" y="706.19" width="13.39" height="13.39" fill="#231f20"/>
  <rect x="361.18" y="663.16" width="13.39" height="13.39" fill="#231f20"/>
  <rect x="317.71" y="620.3" width="13.39" height="13.39" fill="#231f20"/>
  <rect x="361.18" y="620.3" width="13.39" height="13.39" fill="#231f20"/>
  <rect x="403.92" y="706.19" width="13.39" height="13.39" fill="#231f20"/>
  <rect x="403.92" y="663.16" width="13.39" height="13.39" fill="#231f20"/>
  <rect x="447.5" y="706.19" width="13.39" height="13.39" fill="#231f20"/>
  <rect x="447.5" y="663.16" width="13.39" height="13.39" fill="#231f20"/>
  <rect x="490.24" y="706.19" width="13.39" height="13.39" fill="#231f20"/>
  <rect x="533.3" y="706.19" width="13.39" height="13.39" fill="#231f20"/>
  <rect x="447.5" y="749.39" width="13.39" height="13.39" fill="#231f20"/>
  <rect x="490.24" y="749.39" width="13.39" height="13.39" fill="#231f20"/>
  <rect x="533.67" y="749.39" width="13.39" height="13.39" fill="#231f20"/>
  <rect x="533.67" y="792" width="13.39" height="13.39" fill="#231f20"/>
  <rect x="576.76" y="706.19" width="13.39" height="13.39" fill="#231f20"/>
  <rect x="576.76" y="792" width="13.39" height="13.39" fill="#231f20"/>
  <rect x="533.67" y="879.1" width="13.39" height="13.39" fill="#231f20"/>
  <rect x="491.09" y="835.84" width="13.39" height="13.39" fill="#231f20"/>
  <rect x="707.78" y="835.84" width="13.39" height="13.39" fill="#231f20"/>
  <rect x="576.76" y="879.1" width="13.39" height="13.39" fill="#231f20"/>
  <rect x="750.14" y="792" width="13.39" height="13.39" fill="#231f20"/>
  <rect x="750.14" y="749.63" width="13.39" height="13.39" fill="#231f20"/>
  <rect x="750.14" y="662.47" width="13.39" height="13.39" fill="#231f20"/>
  <rect x="750.14" y="705.85" width="13.39" height="13.39" fill="#231f20"/>
  <rect x="750.14" y="360.42" width="13.39" height="13.39" fill="#231f20"/>
  <rect x="750.14" y="403.79" width="13.39" height="13.39" fill="#231f20"/>
  <rect x="749.71" y="274.02" width="13.39" height="13.39" fill="#231f20"/>
  <rect x="749.71" y="317.39" width="13.39" height="13.39" fill="#231f20"/>
  <rect x="750.14" y="186.35" width="13.39" height="13.39" fill="#231f20"/>
  <rect x="750.14" y="229.73" width="13.39" height="13.39" fill="#231f20"/>
  <rect x="619.82" y="706.19" width="13.39" height="13.39" fill="#231f20"/>
  <rect x="620.19" y="749.39" width="13.39" height="13.39" fill="#231f20"/>
  <rect x="490.24" y="663.16" width="13.39" height="13.39" fill="#231f20"/>
  <rect x="491.09" y="620.3" width="13.39" height="13.39" fill="#231f20"/>
  <rect x="491.09" y="577.14" width="13.39" height="13.39" fill="#231f20"/>
  <rect x="533.83" y="620.3" width="13.39" height="13.39" fill="#231f20"/>
  <rect x="533.83" y="577.14" width="13.39" height="13.39" fill="#231f20"/>
  <rect x="101.9" y="620.3" width="13.39" height="13.39" fill="#231f20"/>
  <rect x="101.9" y="577.14" width="13.39" height="13.39" fill="#231f20"/>
  <rect x="144.64" y="620.3" width="13.39" height="13.39" fill="#231f20"/>
  <rect x="144.64" y="577.14" width="13.39" height="13.39" fill="#231f20"/>
  <rect x="101.9" y="706.09" width="13.39" height="13.39" fill="#231f20"/>
  <rect x="101.9" y="662.92" width="13.39" height="13.39" fill="#231f20"/>
  <rect x="144.64" y="706.09" width="13.39" height="13.39" fill="#231f20"/>
  <rect x="144.64" y="662.92" width="13.39" height="13.39" fill="#231f20"/>
  <rect x="101.9" y="359.5" width="13.39" height="13.39" fill="#231f20"/>
  <rect x="101.9" y="316.33" width="13.39" height="13.39" fill="#231f20"/>
  <rect x="144.64" y="359.5" width="13.39" height="13.39" fill="#231f20"/>
  <rect x="144.64" y="316.33" width="13.39" height="13.39" fill="#231f20"/>
  <rect x="101.9" y="145.54" width="13.39" height="13.39" fill="#231f20"/>
  <rect x="101.9" y="102.38" width="13.39" height="13.39" fill="#231f20"/>
  <rect x="144.64" y="145.54" width="13.39" height="13.39" fill="#231f20"/>
  <rect x="144.64" y="102.38" width="13.39" height="13.39" fill="#231f20"/>
  <rect x="101.9" y="445.28" width="13.39" height="13.39" fill="#231f20"/>
  <rect x="101.9" y="402.11" width="13.39" height="13.39" fill="#231f20"/>
  <rect x="144.64" y="445.28" width="13.39" height="13.39" fill="#231f20"/>
  <rect x="144.64" y="402.11" width="13.39" height="13.39" fill="#231f20"/>
  <rect x="188.31" y="273.76" width="13.39" height="13.39" fill="#231f20"/>
  <rect x="144.64" y="273.75" width="13.39" height="13.39" fill="#231f20"/>
  <rect x="188.31" y="230.59" width="13.39" height="13.39" fill="#231f20"/>
  <rect x="144.64" y="231.79" width="13.39" height="13.39" fill="#231f20"/>
  <rect x="188.31" y="316.38" width="13.39" height="13.39" fill="#231f20"/>
  <rect x="188.23" y="620.3" width="13.39" height="13.39" fill="#231f20"/>
  <rect x="188.23" y="577.14" width="13.39" height="13.39" fill="#231f20"/>
  <rect x="188.23" y="706.09" width="13.39" height="13.39" fill="#231f20"/>
  <rect x="188.23" y="662.92" width="13.39" height="13.39" fill="#231f20"/>
  <rect x="101.9" y="835.48" width="13.39" height="13.39" fill="#231f20"/>
  <rect x="101.9" y="792.31" width="13.39" height="13.39" fill="#231f20"/>
  <rect x="144.64" y="835.48" width="13.39" height="13.39" fill="#231f20"/>
  <rect x="144.64" y="792.31" width="13.39" height="13.39" fill="#231f20"/>
  <rect x="188.23" y="749.7" width="13.39" height="13.39" fill="#231f20"/>
  <rect x="188.23" y="835.48" width="13.39" height="13.39" fill="#231f20"/>
  <rect x="188.23" y="792.31" width="13.39" height="13.39" fill="#231f20"/>
  <rect x="101.9" y="878.92" width="13.39" height="13.39" fill="#231f20"/>
  <rect x="144.64" y="878.92" width="13.39" height="13.39" fill="#231f20"/>
  <rect x="188.23" y="878.92" width="13.39" height="13.39" fill="#231f20"/>
  <rect x="231.44" y="835.48" width="13.39" height="13.39" fill="#231f20"/>
  <rect x="231.44" y="792.31" width="13.39" height="13.39" fill="#231f20"/>
  <rect x="231.44" y="878.92" width="13.39" height="13.39" fill="#231f20"/>
  <rect x="403.92" y="792.42" width="13.39" height="13.39" fill="#231f20"/>
  <rect x="403.92" y="749.39" width="13.39" height="13.39" fill="#231f20"/>
  <rect x="403.92" y="835.04" width="13.39" height="13.39" fill="#231f20"/>
  <rect x="403.92" y="921.27" width="13.39" height="13.39" fill="#231f20"/>
  <rect x="403.92" y="965.39" width="13.39" height="13.39" fill="#231f20"/>
  <rect x="490.42" y="965.39" width="13.39" height="13.39" fill="#231f20"/>
  <rect x="447.14" y="922.22" width="13.39" height="13.39" fill="#231f20"/>
  <rect x="490.16" y="922.22" width="13.39" height="13.39" fill="#231f20"/>
  <rect x="533.35" y="921.27" width="13.39" height="13.39" fill="#231f20"/>
  <rect x="576.71" y="922.22" width="13.39" height="13.39" fill="#231f20"/>
  <rect x="620.18" y="922.22" width="13.39" height="13.39" fill="#231f20"/>
  <rect x="663.26" y="921.27" width="13.39" height="13.39" fill="#231f20"/>
  <rect x="403.92" y="878.24" width="13.39" height="13.39" fill="#231f20"/>
  <rect x="403.92" y="620.3" width="13.39" height="13.39" fill="#231f20"/>
  <rect x="403.92" y="577.14" width="13.39" height="13.39" fill="#231f20"/>
  <rect x="447.5" y="577.14" width="13.39" height="13.39" fill="#231f20"/>
  <rect x="317.71" y="964.51" width="13.39" height="13.39" fill="#231f20"/>
  <rect x="836.07" y="1052.88" width="13.39" height="13.39" fill="#231f20"/>
  <rect x="836.07" y="878.97" width="13.39" height="13.39" fill="#231f20"/>
  <rect x="749.02" y="921.33" width="13.39" height="13.39" fill="#231f20"/>
  <rect x="749.02" y="878.97" width="13.39" height="13.39" fill="#231f20"/>
  <rect x="792.9" y="878.97" width="13.39" height="13.39" fill="#231f20"/>
  <rect x="836.07" y="316.7" width="13.39" height="13.39" fill="#231f20"/>
  <rect x="836.07" y="360.44" width="13.39" height="13.39" fill="#231f20"/>
  <rect x="836.07" y="274.34" width="13.39" height="13.39" fill="#231f20"/>
  <rect x="403.92" y="318.45" width="13.39" height="13.39" fill="#231f20"/>
</svg>