<?xml version="1.0" encoding="UTF-8"?>
<svg id="_8" data-name="8" xmlns="http://www.w3.org/2000/svg" viewBox="0 0 1080 1080">
  <rect x="390.36" y="260.35" width="40.84" height="40.84" fill="#231f20"/>
  <rect x="390.36" y="303.41" width="40.84" height="40.84" fill="#231f20"/>
  <rect x="433.47" y="260.35" width="40.84" height="40.84" fill="#231f20"/>
  <rect x="433.47" y="303.41" width="40.84" height="40.84" fill="#231f20"/>
  <rect x="476.58" y="260.35" width="40.84" height="40.84" fill="#231f20"/>
  <rect x="476.58" y="303.41" width="40.84" height="40.84" fill="#231f20"/>
  <rect x="519.69" y="260.35" width="40.84" height="40.84" fill="#231f20"/>
  <rect x="519.69" y="303.41" width="40.84" height="40.84" fill="#231f20"/>
  <rect x="390.36" y="346.85" width="40.84" height="40.84" fill="#231f20"/>
  <rect x="390.36" y="389.91" width="40.84" height="40.84" fill="#231f20"/>
  <rect x="433.47" y="346.85" width="40.84" height="40.84" fill="#231f20"/>
  <rect x="433.47" y="389.91" width="40.84" height="40.84" fill="#231f20"/>
  <rect x="476.58" y="346.85" width="40.84" height="40.84" fill="#231f20"/>
  <rect x="476.58" y="389.91" width="40.84" height="40.84" fill="#231f20"/>
  <rect x="519.69" y="346.85" width="40.84" height="40.84" fill="#231f20"/>
  <rect x="519.69" y="389.91" width="40.84" height="40.84" fill="#231f20"/>
  <rect x="390.36" y="433.2" width="40.84" height="40.84" fill="#231f20"/>
  <rect x="390.36" y="476.26" width="40.84" height="40.84" fill="#231f20"/>
  <rect x="433.47" y="433.2" width="40.84" height="40.84" fill="#231f20"/>
  <rect x="433.47" y="476.26" width="40.84" height="40.84" fill="#231f20"/>
  <rect x="476.58" y="433.2" width="40.84" height="40.84" fill="#231f20"/>
  <rect x="476.58" y="476.26" width="40.84" height="40.84" fill="#231f20"/>
  <rect x="519.69" y="433.2" width="40.84" height="40.84" fill="#231f20"/>
  <rect x="519.69" y="476.26" width="40.84" height="40.84" fill="#231f20"/>
  <rect x="390.36" y="519.7" width="40.84" height="40.84" fill="#231f20"/>
  <rect x="390.36" y="562.76" width="40.84" height="40.84" fill="#231f20"/>
  <rect x="390.36" y="605.83" width="40.84" height="40.84" fill="#231f20"/>
  <rect x="390.36" y="649.26" width="40.84" height="40.84" fill="#231f20"/>
  <rect x="390.36" y="692.32" width="40.84" height="40.84" fill="#231f20"/>
  <rect x="433.47" y="519.7" width="40.84" height="40.84" fill="#231f20"/>
  <rect x="433.47" y="562.76" width="40.84" height="40.84" fill="#231f20"/>
  <rect x="476.58" y="519.7" width="40.84" height="40.84" fill="#231f20"/>
  <rect x="476.58" y="562.76" width="40.84" height="40.84" fill="#231f20"/>
  <rect x="519.69" y="519.7" width="40.84" height="40.84" fill="#231f20"/>
  <rect x="519.69" y="562.76" width="40.84" height="40.84" fill="#231f20"/>
  <rect x="562.81" y="260.35" width="40.84" height="40.84" fill="#231f20"/>
  <rect x="562.81" y="303.41" width="40.84" height="40.84" fill="#231f20"/>
  <rect x="605.92" y="260.35" width="40.84" height="40.84" fill="#231f20"/>
  <rect x="605.92" y="303.41" width="40.84" height="40.84" fill="#231f20"/>
  <rect x="649.03" y="260.35" width="40.84" height="40.84" fill="#231f20"/>
  <rect x="649.03" y="303.41" width="40.84" height="40.84" fill="#231f20"/>
  <rect x="692.14" y="260.35" width="40.84" height="40.84" fill="#231f20"/>
  <rect x="692.14" y="303.41" width="40.84" height="40.84" fill="#231f20"/>
  <rect x="562.81" y="346.85" width="40.84" height="40.84" fill="#231f20"/>
  <rect x="562.81" y="389.91" width="40.84" height="40.84" fill="#231f20"/>
  <rect x="605.92" y="346.85" width="40.84" height="40.84" fill="#231f20"/>
  <rect x="605.92" y="389.91" width="40.84" height="40.84" fill="#231f20"/>
  <rect x="649.03" y="346.85" width="40.84" height="40.84" fill="#231f20"/>
  <rect x="649.03" y="389.91" width="40.84" height="40.84" fill="#231f20"/>
  <rect x="692.14" y="346.85" width="40.84" height="40.84" fill="#231f20"/>
  <rect x="692.14" y="389.91" width="40.84" height="40.84" fill="#231f20"/>
  <rect x="390.62" y="1.15" width="40.84" height="40.84" fill="#231f20"/>
  <rect x="390.62" y="44.22" width="40.84" height="40.84" fill="#231f20"/>
  <rect x="433.73" y="1.15" width="40.84" height="40.84" fill="#231f20"/>
  <rect x="433.73" y="44.22" width="40.84" height="40.84" fill="#231f20"/>
  <rect x="476.84" y="1.15" width="40.84" height="40.84" fill="#231f20"/>
  <rect x="476.84" y="44.22" width="40.84" height="40.84" fill="#231f20"/>
  <rect x="519.95" y="1.15" width="40.84" height="40.84" fill="#231f20"/>
  <rect x="519.95" y="44.22" width="40.84" height="40.84" fill="#231f20"/>
  <rect x="390.62" y="87.65" width="40.84" height="40.84" fill="#231f20"/>
  <rect x="390.62" y="130.71" width="40.84" height="40.84" fill="#231f20"/>
  <rect x="433.73" y="87.65" width="40.84" height="40.84" fill="#231f20"/>
  <rect x="433.73" y="130.71" width="40.84" height="40.84" fill="#231f20"/>
  <rect x="476.84" y="87.65" width="40.84" height="40.84" fill="#231f20"/>
  <rect x="476.84" y="130.71" width="40.84" height="40.84" fill="#231f20"/>
  <rect x="519.95" y="87.65" width="40.84" height="40.84" fill="#231f20"/>
  <rect x="519.95" y="130.71" width="40.84" height="40.84" fill="#231f20"/>
  <rect x="563.06" y="1.15" width="40.84" height="40.84" fill="#231f20"/>
  <rect x="563.06" y="44.22" width="40.84" height="40.84" fill="#231f20"/>
  <rect x="606.17" y="1.15" width="40.84" height="40.84" fill="#231f20"/>
  <rect x="606.17" y="44.22" width="40.84" height="40.84" fill="#231f20"/>
  <rect x="649.28" y="1.15" width="40.84" height="40.84" fill="#231f20"/>
  <rect x="649.28" y="44.22" width="40.84" height="40.84" fill="#231f20"/>
  <rect x="692.39" y="1.15" width="40.84" height="40.84" fill="#231f20"/>
  <rect x="692.39" y="44.22" width="40.84" height="40.84" fill="#231f20"/>
  <rect x="563.06" y="87.65" width="40.84" height="40.84" fill="#231f20"/>
  <rect x="563.06" y="130.71" width="40.84" height="40.84" fill="#231f20"/>
  <rect x="606.17" y="87.65" width="40.84" height="40.84" fill="#231f20"/>
  <rect x="606.17" y="130.71" width="40.84" height="40.84" fill="#231f20"/>
  <rect x="649.28" y="87.65" width="40.84" height="40.84" fill="#231f20"/>
  <rect x="649.28" y="130.71" width="40.84" height="40.84" fill="#231f20"/>
  <rect x="692.39" y="87.65" width="40.84" height="40.84" fill="#231f20"/>
  <rect x="692.39" y="130.71" width="40.84" height="40.84" fill="#231f20"/>
  <rect x="362.3" y="274.07" width="13.39" height="13.39" fill="#231f20"/>
  <rect x="749.49" y="274.07" width="13.39" height="13.39" fill="#231f20"/>
  <rect x="749.49" y="317.14" width="13.39" height="13.39" fill="#231f20"/>
  <rect x="792.16" y="274.07" width="13.39" height="13.39" fill="#231f20"/>
  <rect x="792.16" y="317.14" width="13.39" height="13.39" fill="#231f20"/>
  <rect x="749.49" y="359.46" width="13.39" height="13.39" fill="#231f20"/>
  <rect x="749.49" y="402.52" width="13.39" height="13.39" fill="#231f20"/>
  <rect x="792.16" y="359.46" width="13.39" height="13.39" fill="#231f20"/>
  <rect x="792.16" y="402.52" width="13.39" height="13.39" fill="#231f20"/>
  <rect x="836.34" y="274.07" width="13.39" height="13.39" fill="#231f20"/>
  <rect x="836.34" y="317.14" width="13.39" height="13.39" fill="#231f20"/>
  <rect x="879.01" y="274.07" width="13.39" height="13.39" fill="#231f20"/>
  <rect x="879.01" y="317.14" width="13.39" height="13.39" fill="#231f20"/>
  <rect x="921.28" y="274.07" width="13.39" height="13.39" fill="#231f20"/>
  <rect x="921.28" y="317.14" width="13.39" height="13.39" fill="#231f20"/>
  <rect x="963.96" y="274.07" width="13.39" height="13.39" fill="#231f20"/>
  <rect x="1008.81" y="274.07" width="13.39" height="13.39" fill="#231f20"/>
  <rect x="749.49" y="230.79" width="13.39" height="13.39" fill="#231f20"/>
  <rect x="792.16" y="230.79" width="13.39" height="13.39" fill="#231f20"/>
  <rect x="836.34" y="230.79" width="13.39" height="13.39" fill="#231f20"/>
  <rect x="879.01" y="230.79" width="13.39" height="13.39" fill="#231f20"/>
  <rect x="749.49" y="187.5" width="13.39" height="13.39" fill="#231f20"/>
  <rect x="749.49" y="59.16" width="13.39" height="13.39" fill="#231f20"/>
  <rect x="749.49" y="14.87" width="13.39" height="13.39" fill="#231f20"/>
  <rect x="792.16" y="187.5" width="13.39" height="13.39" fill="#231f20"/>
  <rect x="836.34" y="187.5" width="13.39" height="13.39" fill="#231f20"/>
  <rect x="792.16" y="144.44" width="13.39" height="13.39" fill="#231f20"/>
  <rect x="836.34" y="144.44" width="13.39" height="13.39" fill="#231f20"/>
  <rect x="792.16" y="59.16" width="13.39" height="13.39" fill="#231f20"/>
  <rect x="836.34" y="59.16" width="13.39" height="13.39" fill="#231f20"/>
  <rect x="792.16" y="15.88" width="13.39" height="13.39" fill="#231f20"/>
  <rect x="836.34" y="15.88" width="13.39" height="13.39" fill="#231f20"/>
  <rect x="879.01" y="187.5" width="13.39" height="13.39" fill="#231f20"/>
  <rect x="921.28" y="230.79" width="13.39" height="13.39" fill="#231f20"/>
  <rect x="963.96" y="230.79" width="13.39" height="13.39" fill="#231f20"/>
  <rect x="1008.81" y="230.79" width="13.39" height="13.39" fill="#231f20"/>
  <rect x="1050.94" y="230.79" width="13.39" height="13.39" fill="#231f20"/>
  <rect x="963.96" y="317.14" width="13.39" height="13.39" fill="#231f20"/>
  <rect x="836.34" y="359.46" width="13.39" height="13.39" fill="#231f20"/>
  <rect x="836.34" y="402.52" width="13.39" height="13.39" fill="#231f20"/>
  <rect x="749.49" y="447.47" width="13.39" height="13.39" fill="#231f20"/>
  <rect x="749.49" y="490.54" width="13.39" height="13.39" fill="#231f20"/>
  <rect x="792.16" y="447.47" width="13.39" height="13.39" fill="#231f20"/>
  <rect x="792.16" y="490.54" width="13.39" height="13.39" fill="#231f20"/>
  <rect x="749.49" y="532.86" width="13.39" height="13.39" fill="#231f20"/>
  <rect x="749.49" y="575.92" width="13.39" height="13.39" fill="#231f20"/>
  <rect x="792.16" y="532.86" width="13.39" height="13.39" fill="#231f20"/>
  <rect x="792.16" y="575.92" width="13.39" height="13.39" fill="#231f20"/>
  <rect x="749.49" y="621.03" width="13.39" height="13.39" fill="#231f20"/>
  <rect x="749.49" y="664.09" width="13.39" height="13.39" fill="#231f20"/>
  <rect x="792.16" y="621.03" width="13.39" height="13.39" fill="#231f20"/>
  <rect x="792.16" y="664.09" width="13.39" height="13.39" fill="#231f20"/>
  <rect x="836.34" y="447.47" width="13.39" height="13.39" fill="#231f20"/>
  <rect x="836.34" y="490.54" width="13.39" height="13.39" fill="#231f20"/>
  <rect x="836.34" y="532.86" width="13.39" height="13.39" fill="#231f20"/>
  <rect x="836.34" y="575.92" width="13.39" height="13.39" fill="#231f20"/>
  <rect x="619.08" y="447.47" width="13.39" height="13.39" fill="#231f20"/>
  <rect x="619.08" y="490.54" width="13.39" height="13.39" fill="#231f20"/>
  <rect x="662.48" y="447.47" width="13.39" height="13.39" fill="#231f20"/>
  <rect x="662.48" y="490.54" width="13.39" height="13.39" fill="#231f20"/>
  <rect x="619.08" y="532.86" width="13.39" height="13.39" fill="#231f20"/>
  <rect x="619.08" y="575.92" width="13.39" height="13.39" fill="#231f20"/>
  <rect x="662.48" y="532.86" width="13.39" height="13.39" fill="#231f20"/>
  <rect x="662.48" y="575.92" width="13.39" height="13.39" fill="#231f20"/>
  <rect x="706.18" y="447.47" width="13.39" height="13.39" fill="#231f20"/>
  <rect x="706.18" y="490.54" width="13.39" height="13.39" fill="#231f20"/>
  <rect x="706.18" y="532.86" width="13.39" height="13.39" fill="#231f20"/>
  <rect x="706.18" y="575.92" width="13.39" height="13.39" fill="#231f20"/>
  <rect x="576.47" y="447.47" width="13.39" height="13.39" fill="#231f20"/>
  <rect x="576.47" y="490.54" width="13.39" height="13.39" fill="#231f20"/>
  <rect x="575.95" y="187.72" width="13.39" height="13.39" fill="#231f20"/>
  <rect x="575.95" y="230.79" width="13.39" height="13.39" fill="#231f20"/>
  <rect x="618.63" y="187.72" width="13.39" height="13.39" fill="#231f20"/>
  <rect x="618.63" y="230.79" width="13.39" height="13.39" fill="#231f20"/>
  <rect x="662.8" y="187.72" width="13.39" height="13.39" fill="#231f20"/>
  <rect x="662.8" y="230.79" width="13.39" height="13.39" fill="#231f20"/>
  <rect x="706.18" y="187.72" width="13.39" height="13.39" fill="#231f20"/>
  <rect x="706.18" y="230.79" width="13.39" height="13.39" fill="#231f20"/>
  <rect x="445.79" y="187.72" width="13.39" height="13.39" fill="#231f20"/>
  <rect x="445.79" y="230.79" width="13.39" height="13.39" fill="#231f20"/>
  <rect x="488.46" y="187.72" width="13.39" height="13.39" fill="#231f20"/>
  <rect x="488.46" y="230.79" width="13.39" height="13.39" fill="#231f20"/>
  <rect x="532.64" y="187.72" width="13.39" height="13.39" fill="#231f20"/>
  <rect x="532.64" y="230.79" width="13.39" height="13.39" fill="#231f20"/>
  <rect x="404.54" y="187.72" width="13.39" height="13.39" fill="#231f20"/>
  <rect x="404.54" y="230.79" width="13.39" height="13.39" fill="#231f20"/>
  <rect x="576.47" y="532.86" width="13.39" height="13.39" fill="#231f20"/>
  <rect x="576.47" y="575.92" width="13.39" height="13.39" fill="#231f20"/>
  <rect x="447.92" y="620.28" width="13.39" height="13.39" fill="#231f20"/>
  <rect x="447.92" y="663.19" width="13.39" height="13.39" fill="#231f20"/>
  <rect x="490.59" y="620.28" width="13.39" height="13.39" fill="#231f20"/>
  <rect x="490.59" y="663.19" width="13.39" height="13.39" fill="#231f20"/>
  <rect x="447.92" y="706.17" width="13.39" height="13.39" fill="#231f20"/>
  <rect x="447.92" y="749.24" width="13.39" height="13.39" fill="#231f20"/>
  <rect x="402.98" y="749.24" width="13.39" height="13.39" fill="#231f20"/>
  <rect x="402.98" y="792.3" width="13.39" height="13.39" fill="#231f20"/>
  <rect x="448.51" y="792.3" width="13.39" height="13.39" fill="#231f20"/>
  <rect x="490.59" y="706.17" width="13.39" height="13.39" fill="#231f20"/>
  <rect x="490.59" y="749.24" width="13.39" height="13.39" fill="#231f20"/>
  <rect x="576.47" y="619.98" width="13.39" height="13.39" fill="#231f20"/>
  <rect x="576.47" y="663.19" width="13.39" height="13.39" fill="#231f20"/>
  <rect x="619.08" y="619.98" width="13.39" height="13.39" fill="#231f20"/>
  <rect x="619.08" y="663.19" width="13.39" height="13.39" fill="#231f20"/>
  <rect x="534.77" y="620.28" width="13.39" height="13.39" fill="#231f20"/>
  <rect x="534.77" y="663.19" width="13.39" height="13.39" fill="#231f20"/>
  <rect x="534.77" y="706.17" width="13.39" height="13.39" fill="#231f20"/>
  <rect x="274.81" y="879.53" width="13.39" height="13.39" fill="#231f20"/>
  <rect x="317.48" y="879.53" width="13.39" height="13.39" fill="#231f20"/>
  <rect x="274.81" y="922.76" width="13.39" height="13.39" fill="#231f20"/>
  <rect x="274.81" y="965.82" width="13.39" height="13.39" fill="#231f20"/>
  <rect x="144.53" y="879.83" width="13.39" height="13.39" fill="#231f20"/>
  <rect x="144.53" y="922.66" width="13.39" height="13.39" fill="#231f20"/>
  <rect x="144.53" y="965.72" width="13.39" height="13.39" fill="#231f20"/>
  <rect x="317.48" y="922.76" width="13.39" height="13.39" fill="#231f20"/>
  <rect x="188.34" y="879.53" width="13.39" height="13.39" fill="#231f20"/>
  <rect x="231.01" y="879.53" width="13.39" height="13.39" fill="#231f20"/>
  <rect x="188.34" y="922.76" width="13.39" height="13.39" fill="#231f20"/>
  <rect x="231.01" y="922.76" width="13.39" height="13.39" fill="#231f20"/>
  <rect x="317.48" y="965.82" width="13.39" height="13.39" fill="#231f20"/>
  <rect x="101.94" y="1052.12" width="13.39" height="13.39" fill="#231f20"/>
  <rect x="144.53" y="1052.02" width="13.39" height="13.39" fill="#231f20"/>
  <rect x="361.66" y="879.53" width="13.39" height="13.39" fill="#231f20"/>
  <rect x="15.06" y="879.53" width="13.39" height="13.39" fill="#231f20"/>
  <rect x="57.73" y="879.53" width="13.39" height="13.39" fill="#231f20"/>
  <rect x="101.9" y="879.53" width="13.39" height="13.39" fill="#231f20"/>
  <rect x="402.98" y="835.06" width="13.39" height="13.39" fill="#231f20"/>
  <rect x="402.98" y="879.53" width="13.39" height="13.39" fill="#231f20"/>
  <rect x="448.51" y="835.06" width="13.39" height="13.39" fill="#231f20"/>
  <rect x="447.92" y="879.84" width="13.39" height="13.39" fill="#231f20"/>
  <rect x="448.51" y="922.91" width="13.39" height="13.39" fill="#231f20"/>
  <rect x="448.51" y="965.67" width="13.39" height="13.39" fill="#231f20"/>
  <rect x="492.68" y="835.06" width="13.39" height="13.39" fill="#231f20"/>
  <rect x="361.66" y="922.76" width="13.39" height="13.39" fill="#231f20"/>
  <rect x="662.48" y="619.98" width="13.39" height="13.39" fill="#231f20"/>
  <rect x="662.48" y="663.19" width="13.39" height="13.39" fill="#231f20"/>
  <rect x="533.94" y="748.67" width="13.39" height="13.39" fill="#231f20"/>
  <rect x="576.47" y="748.67" width="13.39" height="13.39" fill="#231f20"/>
  <rect x="533.19" y="792.72" width="13.39" height="13.39" fill="#231f20"/>
  <rect x="533.19" y="835.94" width="13.39" height="13.39" fill="#231f20"/>
  <rect x="576.47" y="792.72" width="13.39" height="13.39" fill="#231f20"/>
  <rect x="576.47" y="835.94" width="13.39" height="13.39" fill="#231f20"/>
  <rect x="662.48" y="706.17" width="13.39" height="13.39" fill="#231f20"/>
  <rect x="662.48" y="750.22" width="13.39" height="13.39" fill="#231f20"/>
  <rect x="662.48" y="793.44" width="13.39" height="13.39" fill="#231f20"/>
  <rect x="879.01" y="359.46" width="13.39" height="13.39" fill="#231f20"/>
  <rect x="879.01" y="402.52" width="13.39" height="13.39" fill="#231f20"/>
  <rect x="922.74" y="359.46" width="13.39" height="13.39" fill="#231f20"/>
  <rect x="922.74" y="402.52" width="13.39" height="13.39" fill="#231f20"/>
  <rect x="965.41" y="359.46" width="13.39" height="13.39" fill="#231f20"/>
  <rect x="1008.81" y="359.46" width="13.39" height="13.39" fill="#231f20"/>
  <rect x="965.41" y="402.52" width="13.39" height="13.39" fill="#231f20"/>
</svg>