<?xml version="1.0" encoding="UTF-8"?>
<svg id="_9" data-name="9" xmlns="http://www.w3.org/2000/svg" viewBox="0 0 1080 1080">
  <rect x="217.47" y="821.95" width="40.84" height="40.84" fill="#231f20"/>
  <rect x="260.74" y="821.95" width="40.84" height="40.84" fill="#231f20"/>
  <rect x="217.47" y="778.92" width="40.84" height="40.84" fill="#231f20"/>
  <rect x="174.56" y="821.95" width="40.84" height="40.84" fill="#231f20"/>
  <rect x="174.56" y="778.92" width="40.84" height="40.84" fill="#231f20"/>
  <rect x="260.74" y="778.92" width="40.84" height="40.84" fill="#231f20"/>
  <rect x="304" y="821.95" width="40.84" height="40.84" fill="#231f20"/>
  <rect x="347.27" y="821.95" width="40.84" height="40.84" fill="#231f20"/>
  <rect x="304" y="778.92" width="40.84" height="40.84" fill="#231f20"/>
  <rect x="347.27" y="778.92" width="40.84" height="40.84" fill="#231f20"/>
  <rect x="390.53" y="821.95" width="40.84" height="40.84" fill="#231f20"/>
  <rect x="433.8" y="821.95" width="40.84" height="40.84" fill="#231f20"/>
  <rect x="390.53" y="778.92" width="40.84" height="40.84" fill="#231f20"/>
  <rect x="433.8" y="778.92" width="40.84" height="40.84" fill="#231f20"/>
  <rect x="477.06" y="821.95" width="40.84" height="40.84" fill="#231f20"/>
  <rect x="520.33" y="821.95" width="40.84" height="40.84" fill="#231f20"/>
  <rect x="477.06" y="778.92" width="40.84" height="40.84" fill="#231f20"/>
  <rect x="520.33" y="778.92" width="40.84" height="40.84" fill="#231f20"/>
  <rect x="563.12" y="778.92" width="40.84" height="40.84" fill="#231f20"/>
  <rect x="606.38" y="778.92" width="40.84" height="40.84" fill="#231f20"/>
  <rect x="477.06" y="735.58" width="40.84" height="40.84" fill="#231f20"/>
  <rect x="477.06" y="692.43" width="40.84" height="40.84" fill="#231f20"/>
  <rect x="477.06" y="649.4" width="40.84" height="40.84" fill="#231f20"/>
  <rect x="519.6" y="649.4" width="40.84" height="40.84" fill="#231f20"/>
  <rect x="477.06" y="606.05" width="40.84" height="40.84" fill="#231f20"/>
  <rect x="260.68" y="605.9" width="40.84" height="40.84" fill="#231f20"/>
  <rect x="260.68" y="562.87" width="40.84" height="40.84" fill="#231f20"/>
  <rect x="260.68" y="519.52" width="40.84" height="40.84" fill="#231f20"/>
  <rect x="217.47" y="519.52" width="40.84" height="40.84" fill="#231f20"/>
  <rect x="304.12" y="605.9" width="40.84" height="40.84" fill="#231f20"/>
  <rect x="304.12" y="562.87" width="40.84" height="40.84" fill="#231f20"/>
  <rect x="304.12" y="519.52" width="40.84" height="40.84" fill="#231f20"/>
  <rect x="433.43" y="562.87" width="40.84" height="40.84" fill="#231f20"/>
  <rect x="433.43" y="519.52" width="40.84" height="40.84" fill="#231f20"/>
  <rect x="476.87" y="562.87" width="40.84" height="40.84" fill="#231f20"/>
  <rect x="476.87" y="519.52" width="40.84" height="40.84" fill="#231f20"/>
  <rect x="476.63" y="476.53" width="40.84" height="40.84" fill="#231f20"/>
  <rect x="476.63" y="433.19" width="40.84" height="40.84" fill="#231f20"/>
  <rect x="520.07" y="476.53" width="40.84" height="40.84" fill="#231f20"/>
  <rect x="520.07" y="433.19" width="40.84" height="40.84" fill="#231f20"/>
  <rect x="476.63" y="389.98" width="40.84" height="40.84" fill="#231f20"/>
  <rect x="520.07" y="389.98" width="40.84" height="40.84" fill="#231f20"/>
  <rect x="563.02" y="476.47" width="40.84" height="40.84" fill="#231f20"/>
  <rect x="563.02" y="433.12" width="40.84" height="40.84" fill="#231f20"/>
  <rect x="563.02" y="389.91" width="40.84" height="40.84" fill="#231f20"/>
  <rect x="563.02" y="346.51" width="40.84" height="40.84" fill="#231f20"/>
  <rect x="260.68" y="476.36" width="40.84" height="40.84" fill="#231f20"/>
  <rect x="217.47" y="476.36" width="40.84" height="40.84" fill="#231f20"/>
  <rect x="304.12" y="476.36" width="40.84" height="40.84" fill="#231f20"/>
  <rect x="260.68" y="433.01" width="40.84" height="40.84" fill="#231f20"/>
  <rect x="304.12" y="433.01" width="40.84" height="40.84" fill="#231f20"/>
  <rect x="347.03" y="476.36" width="40.84" height="40.84" fill="#231f20"/>
  <rect x="390.47" y="476.36" width="40.84" height="40.84" fill="#231f20"/>
  <rect x="347.03" y="433.01" width="40.84" height="40.84" fill="#231f20"/>
  <rect x="390.47" y="433.01" width="40.84" height="40.84" fill="#231f20"/>
  <rect x="390.47" y="562.94" width="40.84" height="40.84" fill="#231f20"/>
  <rect x="347.3" y="562.94" width="40.84" height="40.84" fill="#231f20"/>
  <rect x="347.3" y="605.9" width="40.84" height="40.84" fill="#231f20"/>
  <rect x="304.12" y="649.24" width="40.84" height="40.84" fill="#231f20"/>
  <rect x="347.3" y="649.24" width="40.84" height="40.84" fill="#231f20"/>
  <rect x="347.3" y="692.27" width="40.84" height="40.84" fill="#231f20"/>
  <rect x="390.47" y="519.59" width="40.84" height="40.84" fill="#231f20"/>
  <rect x="563.27" y="519.36" width="40.84" height="40.84" fill="#231f20"/>
  <rect x="606.71" y="519.36" width="40.84" height="40.84" fill="#231f20"/>
  <rect x="606.71" y="562.94" width="40.84" height="40.84" fill="#231f20"/>
  <rect x="520.31" y="519.43" width="40.84" height="40.84" fill="#231f20"/>
  <rect x="520.33" y="735.58" width="40.84" height="40.84" fill="#231f20"/>
  <rect x="563.12" y="735.58" width="40.84" height="40.84" fill="#231f20"/>
  <rect x="606.38" y="735.58" width="40.84" height="40.84" fill="#231f20"/>
  <rect x="520.33" y="692.55" width="40.84" height="40.84" fill="#231f20"/>
  <rect x="563.12" y="692.55" width="40.84" height="40.84" fill="#231f20"/>
  <rect x="606.38" y="692.55" width="40.84" height="40.84" fill="#231f20"/>
  <rect x="563.12" y="649.24" width="40.84" height="40.84" fill="#231f20"/>
  <rect x="606.38" y="649.24" width="40.84" height="40.84" fill="#231f20"/>
  <rect x="606.38" y="605.9" width="40.84" height="40.84" fill="#231f20"/>
  <rect x="189.03" y="922.46" width="13.39" height="13.39" fill="#231f20"/>
  <rect x="360.99" y="533.3" width="13.39" height="13.39" fill="#231f20"/>
  <rect x="274.41" y="705.99" width="13.39" height="13.39" fill="#231f20"/>
  <rect x="274.41" y="662.96" width="13.39" height="13.39" fill="#231f20"/>
  <rect x="317.73" y="705.99" width="13.39" height="13.39" fill="#231f20"/>
  <rect x="317.73" y="749.02" width="13.39" height="13.39" fill="#231f20"/>
  <rect x="360.99" y="749.02" width="13.39" height="13.39" fill="#231f20"/>
  <rect x="274.41" y="749.02" width="13.39" height="13.39" fill="#231f20"/>
  <rect x="188.28" y="705.99" width="13.39" height="13.39" fill="#231f20"/>
  <rect x="232.68" y="705.99" width="13.39" height="13.39" fill="#231f20"/>
  <rect x="232.68" y="749.02" width="13.39" height="13.39" fill="#231f20"/>
  <rect x="188.28" y="749.02" width="13.39" height="13.39" fill="#231f20"/>
  <rect x="188.28" y="619.93" width="13.39" height="13.39" fill="#231f20"/>
  <rect x="232.68" y="619.93" width="13.39" height="13.39" fill="#231f20"/>
  <rect x="232.68" y="662.96" width="13.39" height="13.39" fill="#231f20"/>
  <rect x="188.28" y="662.96" width="13.39" height="13.39" fill="#231f20"/>
  <rect x="188.28" y="576.9" width="13.39" height="13.39" fill="#231f20"/>
  <rect x="231.2" y="576.9" width="13.39" height="13.39" fill="#231f20"/>
  <rect x="188.28" y="490.84" width="13.39" height="13.39" fill="#231f20"/>
  <rect x="188.28" y="533.87" width="13.39" height="13.39" fill="#231f20"/>
  <rect x="145.64" y="705.99" width="13.39" height="13.39" fill="#231f20"/>
  <rect x="145.64" y="749.02" width="13.39" height="13.39" fill="#231f20"/>
  <rect x="145.64" y="792.65" width="13.39" height="13.39" fill="#231f20"/>
  <rect x="145.64" y="619.93" width="13.39" height="13.39" fill="#231f20"/>
  <rect x="145.64" y="662.96" width="13.39" height="13.39" fill="#231f20"/>
  <rect x="359.7" y="402.62" width="13.39" height="13.39" fill="#231f20"/>
  <rect x="317.97" y="402.62" width="13.39" height="13.39" fill="#231f20"/>
  <rect x="446.54" y="402.62" width="13.39" height="13.39" fill="#231f20"/>
  <rect x="446.54" y="446.73" width="13.39" height="13.39" fill="#231f20"/>
  <rect x="446.54" y="490.84" width="13.39" height="13.39" fill="#231f20"/>
  <rect x="620.96" y="360.24" width="13.39" height="13.39" fill="#231f20"/>
  <rect x="620.96" y="402.62" width="13.39" height="13.39" fill="#231f20"/>
  <rect x="620.96" y="445.65" width="13.39" height="13.39" fill="#231f20"/>
  <rect x="663.63" y="445.65" width="13.39" height="13.39" fill="#231f20"/>
  <rect x="620.96" y="489.88" width="13.39" height="13.39" fill="#231f20"/>
  <rect x="706.3" y="274.61" width="13.39" height="13.39" fill="#231f20"/>
  <rect x="404.81" y="402.62" width="13.39" height="13.39" fill="#231f20"/>
  <rect x="446.34" y="360.24" width="13.39" height="13.39" fill="#231f20"/>
  <rect x="533.17" y="360.24" width="13.39" height="13.39" fill="#231f20"/>
  <rect x="491.44" y="360.24" width="13.39" height="13.39" fill="#231f20"/>
  <rect x="533.17" y="317.64" width="13.39" height="13.39" fill="#231f20"/>
  <rect x="620.96" y="317.64" width="13.39" height="13.39" fill="#231f20"/>
  <rect x="663.63" y="360.24" width="13.39" height="13.39" fill="#231f20"/>
  <rect x="663.63" y="402.62" width="13.39" height="13.39" fill="#231f20"/>
  <rect x="663.63" y="317.64" width="13.39" height="13.39" fill="#231f20"/>
  <rect x="706.3" y="360.24" width="13.39" height="13.39" fill="#231f20"/>
  <rect x="706.3" y="317.64" width="13.39" height="13.39" fill="#231f20"/>
  <rect x="706.3" y="145.73" width="13.39" height="13.39" fill="#231f20"/>
  <rect x="706.3" y="231.36" width="13.39" height="13.39" fill="#231f20"/>
  <rect x="706.3" y="188.76" width="13.39" height="13.39" fill="#231f20"/>
  <rect x="706.3" y="101.02" width="13.39" height="13.39" fill="#231f20"/>
  <rect x="360.73" y="317.86" width="13.39" height="13.39" fill="#231f20"/>
  <rect x="706.3" y="57.78" width="13.39" height="13.39" fill="#231f20"/>
  <rect x="706.3" y="15.18" width="13.39" height="13.39" fill="#231f20"/>
  <rect x="663.63" y="274.61" width="13.39" height="13.39" fill="#231f20"/>
  <rect x="663.63" y="145.73" width="13.39" height="13.39" fill="#231f20"/>
  <rect x="663.63" y="231.36" width="13.39" height="13.39" fill="#231f20"/>
  <rect x="663.63" y="188.76" width="13.39" height="13.39" fill="#231f20"/>
  <rect x="663.63" y="101.02" width="13.39" height="13.39" fill="#231f20"/>
  <rect x="663.63" y="57.78" width="13.39" height="13.39" fill="#231f20"/>
  <rect x="663.63" y="15.18" width="13.39" height="13.39" fill="#231f20"/>
  <rect x="706.3" y="489.88" width="13.39" height="13.39" fill="#231f20"/>
  <rect x="706.3" y="447.29" width="13.39" height="13.39" fill="#231f20"/>
  <rect x="706.3" y="576.28" width="13.39" height="13.39" fill="#231f20"/>
  <rect x="706.3" y="533.69" width="13.39" height="13.39" fill="#231f20"/>
  <rect x="748.97" y="576.28" width="13.39" height="13.39" fill="#231f20"/>
  <rect x="748.97" y="533.69" width="13.39" height="13.39" fill="#231f20"/>
  <rect x="663.63" y="576.28" width="13.39" height="13.39" fill="#231f20"/>
  <rect x="663.63" y="533.69" width="13.39" height="13.39" fill="#231f20"/>
  <rect x="663.63" y="662.68" width="13.39" height="13.39" fill="#231f20"/>
  <rect x="663.63" y="620.09" width="13.39" height="13.39" fill="#231f20"/>
  <rect x="706.3" y="662.68" width="13.39" height="13.39" fill="#231f20"/>
  <rect x="706.3" y="620.09" width="13.39" height="13.39" fill="#231f20"/>
  <rect x="575.81" y="576.28" width="13.39" height="13.39" fill="#231f20"/>
  <rect x="533.14" y="576.28" width="13.39" height="13.39" fill="#231f20"/>
  <rect x="533.14" y="620.09" width="13.39" height="13.39" fill="#231f20"/>
  <rect x="575.81" y="620.09" width="13.39" height="13.39" fill="#231f20"/>
  <rect x="748.97" y="662.68" width="13.39" height="13.39" fill="#231f20"/>
  <rect x="663.63" y="706.27" width="13.39" height="13.39" fill="#231f20"/>
  <rect x="706.3" y="706.27" width="13.39" height="13.39" fill="#231f20"/>
  <rect x="748.97" y="706.27" width="13.39" height="13.39" fill="#231f20"/>
  <rect x="748.97" y="620.09" width="13.39" height="13.39" fill="#231f20"/>
  <rect x="748.97" y="316.99" width="13.39" height="13.39" fill="#231f20"/>
  <rect x="748.97" y="274.39" width="13.39" height="13.39" fill="#231f20"/>
  <rect x="748.97" y="403.39" width="13.39" height="13.39" fill="#231f20"/>
  <rect x="748.97" y="360.79" width="13.39" height="13.39" fill="#231f20"/>
  <rect x="835.81" y="403.39" width="13.39" height="13.39" fill="#231f20"/>
  <rect x="835.81" y="360.79" width="13.39" height="13.39" fill="#231f20"/>
  <rect x="878.34" y="316.99" width="13.39" height="13.39" fill="#231f20"/>
  <rect x="878.34" y="274.39" width="13.39" height="13.39" fill="#231f20"/>
  <rect x="748.97" y="489.79" width="13.39" height="13.39" fill="#231f20"/>
  <rect x="748.97" y="447.19" width="13.39" height="13.39" fill="#231f20"/>
  <rect x="748.97" y="57.88" width="13.39" height="13.39" fill="#231f20"/>
  <rect x="748.97" y="15.29" width="13.39" height="13.39" fill="#231f20"/>
  <rect x="748.97" y="144.28" width="13.39" height="13.39" fill="#231f20"/>
  <rect x="748.97" y="101.69" width="13.39" height="13.39" fill="#231f20"/>
  <rect x="748.97" y="230.68" width="13.39" height="13.39" fill="#231f20"/>
  <rect x="748.97" y="188.09" width="13.39" height="13.39" fill="#231f20"/>
  <rect x="835.81" y="489.79" width="13.39" height="13.39" fill="#231f20"/>
  <rect x="835.81" y="447.19" width="13.39" height="13.39" fill="#231f20"/>
  <rect x="835.81" y="144.19" width="13.39" height="13.39" fill="#231f20"/>
  <rect x="835.81" y="101.59" width="13.39" height="13.39" fill="#231f20"/>
  <rect x="835.81" y="57.88" width="13.39" height="13.39" fill="#231f20"/>
  <rect x="835.81" y="15.29" width="13.39" height="13.39" fill="#231f20"/>
  <rect x="835.81" y="230.59" width="13.39" height="13.39" fill="#231f20"/>
  <rect x="835.81" y="187.99" width="13.39" height="13.39" fill="#231f20"/>
  <rect x="578.28" y="317.64" width="13.39" height="13.39" fill="#231f20"/>
  <rect x="273.58" y="402.62" width="13.39" height="13.39" fill="#231f20"/>
  <rect x="230.93" y="402.62" width="13.39" height="13.39" fill="#231f20"/>
  <rect x="145.64" y="576.9" width="13.39" height="13.39" fill="#231f20"/>
  <rect x="145.64" y="490.84" width="13.39" height="13.39" fill="#231f20"/>
  <rect x="145.64" y="533.87" width="13.39" height="13.39" fill="#231f20"/>
  <rect x="188.28" y="446.73" width="13.39" height="13.39" fill="#231f20"/>
  <rect x="231.2" y="446.73" width="13.39" height="13.39" fill="#231f20"/>
  <rect x="188.28" y="403.7" width="13.39" height="13.39" fill="#231f20"/>
  <rect x="188.28" y="317.64" width="13.39" height="13.39" fill="#231f20"/>
  <rect x="188.28" y="360.67" width="13.39" height="13.39" fill="#231f20"/>
  <rect x="145.64" y="446.73" width="13.39" height="13.39" fill="#231f20"/>
  <rect x="145.64" y="403.7" width="13.39" height="13.39" fill="#231f20"/>
  <rect x="145.64" y="317.64" width="13.39" height="13.39" fill="#231f20"/>
  <rect x="145.64" y="360.67" width="13.39" height="13.39" fill="#231f20"/>
  <rect x="188.28" y="274.61" width="13.39" height="13.39" fill="#231f20"/>
  <rect x="188.28" y="231.58" width="13.39" height="13.39" fill="#231f20"/>
  <rect x="405.14" y="143.9" width="13.39" height="13.39" fill="#231f20"/>
  <rect x="405.14" y="57.84" width="13.39" height="13.39" fill="#231f20"/>
  <rect x="405.14" y="100.87" width="13.39" height="13.39" fill="#231f20"/>
  <rect x="145.64" y="274.61" width="13.39" height="13.39" fill="#231f20"/>
  <rect x="145.64" y="188.55" width="13.39" height="13.39" fill="#231f20"/>
  <rect x="145.64" y="231.58" width="13.39" height="13.39" fill="#231f20"/>
  <rect x="145.64" y="144.74" width="13.39" height="13.39" fill="#231f20"/>
  <rect x="145.64" y="101.71" width="13.39" height="13.39" fill="#231f20"/>
  <rect x="145.64" y="15.65" width="13.39" height="13.39" fill="#231f20"/>
  <rect x="145.64" y="58.68" width="13.39" height="13.39" fill="#231f20"/>
  <rect x="403.02" y="619.93" width="13.39" height="13.39" fill="#231f20"/>
  <rect x="446.34" y="619.93" width="13.39" height="13.39" fill="#231f20"/>
  <rect x="446.34" y="662.96" width="13.39" height="13.39" fill="#231f20"/>
  <rect x="403.02" y="662.96" width="13.39" height="13.39" fill="#231f20"/>
  <rect x="403.02" y="706.27" width="13.39" height="13.39" fill="#231f20"/>
  <rect x="446.34" y="706.27" width="13.39" height="13.39" fill="#231f20"/>
  <rect x="446.34" y="749.3" width="13.39" height="13.39" fill="#231f20"/>
  <rect x="403.02" y="749.3" width="13.39" height="13.39" fill="#231f20"/>
  <rect x="317.73" y="879.53" width="13.39" height="13.39" fill="#231f20"/>
  <rect x="360.99" y="879.53" width="13.39" height="13.39" fill="#231f20"/>
  <rect x="274.41" y="879.53" width="13.39" height="13.39" fill="#231f20"/>
  <rect x="232.68" y="879.53" width="13.39" height="13.39" fill="#231f20"/>
  <rect x="188.28" y="879.53" width="13.39" height="13.39" fill="#231f20"/>
  <rect x="145.64" y="879.53" width="13.39" height="13.39" fill="#231f20"/>
  <rect x="446.34" y="879.8" width="13.39" height="13.39" fill="#231f20"/>
  <rect x="403.02" y="879.8" width="13.39" height="13.39" fill="#231f20"/>
  <rect x="490.5" y="879.53" width="13.39" height="13.39" fill="#231f20"/>
  <rect x="575.85" y="879.8" width="13.39" height="13.39" fill="#231f20"/>
  <rect x="532.53" y="879.8" width="13.39" height="13.39" fill="#231f20"/>
  <rect x="578.28" y="836.32" width="13.39" height="13.39" fill="#231f20"/>
  <rect x="663.63" y="836.6" width="13.39" height="13.39" fill="#231f20"/>
  <rect x="663.63" y="792.65" width="13.39" height="13.39" fill="#231f20"/>
  <rect x="663.63" y="749.3" width="13.39" height="13.39" fill="#231f20"/>
  <rect x="748.97" y="836.6" width="13.39" height="13.39" fill="#231f20"/>
  <rect x="748.97" y="792.65" width="13.39" height="13.39" fill="#231f20"/>
  <rect x="748.97" y="749.3" width="13.39" height="13.39" fill="#231f20"/>
  <rect x="792.16" y="662.68" width="13.39" height="13.39" fill="#231f20"/>
  <rect x="792.16" y="706.27" width="13.39" height="13.39" fill="#231f20"/>
  <rect x="792.16" y="792.65" width="13.39" height="13.39" fill="#231f20"/>
  <rect x="792.16" y="749.3" width="13.39" height="13.39" fill="#231f20"/>
  <rect x="748.97" y="879.53" width="13.39" height="13.39" fill="#231f20"/>
  <rect x="748.97" y="923.11" width="13.39" height="13.39" fill="#231f20"/>
  <rect x="748.97" y="1053.44" width="13.39" height="13.39" fill="#231f20"/>
  <rect x="748.97" y="1009.49" width="13.39" height="13.39" fill="#231f20"/>
  <rect x="748.97" y="966.14" width="13.39" height="13.39" fill="#231f20"/>
  <rect x="792.16" y="879.53" width="13.39" height="13.39" fill="#231f20"/>
  <rect x="792.16" y="923.11" width="13.39" height="13.39" fill="#231f20"/>
  <rect x="792.16" y="1053.44" width="13.39" height="13.39" fill="#231f20"/>
  <rect x="792.16" y="1009.49" width="13.39" height="13.39" fill="#231f20"/>
  <rect x="792.16" y="966.14" width="13.39" height="13.39" fill="#231f20"/>
  <rect x="836.34" y="879.53" width="13.39" height="13.39" fill="#231f20"/>
  <rect x="836.34" y="923.11" width="13.39" height="13.39" fill="#231f20"/>
  <rect x="836.34" y="1053.44" width="13.39" height="13.39" fill="#231f20"/>
  <rect x="836.34" y="1009.49" width="13.39" height="13.39" fill="#231f20"/>
  <rect x="836.34" y="966.14" width="13.39" height="13.39" fill="#231f20"/>
  <rect x="706.3" y="749.3" width="13.39" height="13.39" fill="#231f20"/>
  <rect x="620.31" y="836.6" width="13.39" height="13.39" fill="#231f20"/>
</svg>