<?xml version="1.0" encoding="UTF-8"?>
<svg id="Layer_1" data-name="Layer 1" xmlns="http://www.w3.org/2000/svg" viewBox="0 0 1080 1080">
  <g id="_2" data-name="2">
    <rect x="2.41" y="-.87" width="1079.12" height="1079.12" fill="none" stroke="#000" stroke-miterlimit="10" stroke-width=".95"/>
    <line x1="2.41" y1="1035.08" x2="1081.53" y2="1035.08" fill="none" stroke="#000" stroke-miterlimit="10" stroke-width=".95"/>
    <line x1="2.41" y1="991.92" x2="1081.53" y2="991.92" fill="none" stroke="#000" stroke-miterlimit="10" stroke-width=".95"/>
    <line x1="2.41" y1="948.75" x2="1081.53" y2="948.75" fill="none" stroke="#000" stroke-miterlimit="10" stroke-width=".95"/>
    <line x1="2.41" y1="905.59" x2="1081.53" y2="905.59" fill="none" stroke="#000" stroke-miterlimit="10" stroke-width=".95"/>
    <line x1="2.41" y1="862.42" x2="1081.53" y2="862.42" fill="none" stroke="#000" stroke-miterlimit="10" stroke-width=".95"/>
    <line x1="2.41" y1="819.26" x2="1081.53" y2="819.26" fill="none" stroke="#000" stroke-miterlimit="10" stroke-width=".95"/>
    <line x1="2.41" y1="776.09" x2="1081.53" y2="776.09" fill="none" stroke="#000" stroke-miterlimit="10" stroke-width=".95"/>
    <line x1="2.41" y1="732.93" x2="1081.53" y2="732.93" fill="none" stroke="#000" stroke-miterlimit="10" stroke-width=".95"/>
    <line x1="2.41" y1="689.76" x2="1081.53" y2="689.76" fill="none" stroke="#000" stroke-miterlimit="10" stroke-width=".95"/>
    <line x1="2.41" y1="646.6" x2="1081.53" y2="646.6" fill="none" stroke="#000" stroke-miterlimit="10" stroke-width=".95"/>
    <line x1="2.41" y1="603.43" x2="1081.53" y2="603.43" fill="none" stroke="#000" stroke-miterlimit="10" stroke-width=".95"/>
    <line x1="2.41" y1="560.27" x2="1081.53" y2="560.27" fill="none" stroke="#000" stroke-miterlimit="10" stroke-width=".95"/>
    <line x1="2.41" y1="517.1" x2="1081.53" y2="517.1" fill="none" stroke="#000" stroke-miterlimit="10" stroke-width=".95"/>
    <line x1="2.41" y1="473.94" x2="1081.53" y2="473.94" fill="none" stroke="#000" stroke-miterlimit="10" stroke-width=".95"/>
    <line x1="2.41" y1="430.77" x2="1081.53" y2="430.77" fill="none" stroke="#000" stroke-miterlimit="10" stroke-width=".95"/>
    <line x1="2.41" y1="387.61" x2="1081.53" y2="387.61" fill="none" stroke="#000" stroke-miterlimit="10" stroke-width=".95"/>
    <line x1="2.41" y1="344.45" x2="1081.53" y2="344.45" fill="none" stroke="#000" stroke-miterlimit="10" stroke-width=".95"/>
    <line x1="2.41" y1="301.28" x2="1081.53" y2="301.28" fill="none" stroke="#000" stroke-miterlimit="10" stroke-width=".95"/>
    <line x1="2.41" y1="258.12" x2="1081.53" y2="258.12" fill="none" stroke="#000" stroke-miterlimit="10" stroke-width=".95"/>
    <line x1="2.41" y1="214.95" x2="1081.53" y2="214.95" fill="none" stroke="#000" stroke-miterlimit="10" stroke-width=".95"/>
    <line x1="2.41" y1="171.79" x2="1081.53" y2="171.79" fill="none" stroke="#000" stroke-miterlimit="10" stroke-width=".95"/>
    <line x1="2.41" y1="128.62" x2="1081.53" y2="128.62" fill="none" stroke="#000" stroke-miterlimit="10" stroke-width=".95"/>
    <line x1="2.41" y1="85.46" x2="1081.53" y2="85.46" fill="none" stroke="#000" stroke-miterlimit="10" stroke-width=".95"/>
    <line x1="2.41" y1="42.29" x2="1081.53" y2="42.29" fill="none" stroke="#000" stroke-miterlimit="10" stroke-width=".95"/>
    <line x1="1038.37" y1="-.87" x2="1038.37" y2="1078.25" fill="none" stroke="#000" stroke-miterlimit="10" stroke-width=".95"/>
    <line x1="995.2" y1="-.87" x2="995.2" y2="1078.25" fill="none" stroke="#000" stroke-miterlimit="10" stroke-width=".95"/>
    <line x1="952.04" y1="-.87" x2="952.04" y2="1078.25" fill="none" stroke="#000" stroke-miterlimit="10" stroke-width=".95"/>
    <line x1="908.87" y1="-.87" x2="908.87" y2="1078.25" fill="none" stroke="#000" stroke-miterlimit="10" stroke-width=".95"/>
    <line x1="865.71" y1="-.87" x2="865.71" y2="1078.25" fill="none" stroke="#000" stroke-miterlimit="10" stroke-width=".95"/>
    <line x1="822.54" y1="-.87" x2="822.54" y2="1078.25" fill="none" stroke="#000" stroke-miterlimit="10" stroke-width=".95"/>
    <line x1="779.38" y1="-.87" x2="779.38" y2="1078.25" fill="none" stroke="#000" stroke-miterlimit="10" stroke-width=".95"/>
    <line x1="736.21" y1="-.87" x2="736.21" y2="1078.25" fill="none" stroke="#000" stroke-miterlimit="10" stroke-width=".95"/>
    <line x1="693.05" y1="-.87" x2="693.05" y2="1078.25" fill="none" stroke="#000" stroke-miterlimit="10" stroke-width=".95"/>
    <line x1="649.88" y1="-.87" x2="649.88" y2="1078.25" fill="none" stroke="#000" stroke-miterlimit="10" stroke-width=".95"/>
    <line x1="606.72" y1="-.87" x2="606.72" y2="1078.25" fill="none" stroke="#000" stroke-miterlimit="10" stroke-width=".95"/>
    <line x1="563.55" y1="-.87" x2="563.55" y2="1078.25" fill="none" stroke="#000" stroke-miterlimit="10" stroke-width=".95"/>
    <line x1="520.39" y1="-.87" x2="520.39" y2="1078.25" fill="none" stroke="#000" stroke-miterlimit="10" stroke-width=".95"/>
    <line x1="477.22" y1="-.87" x2="477.22" y2="1078.25" fill="none" stroke="#000" stroke-miterlimit="10" stroke-width=".95"/>
    <line x1="434.06" y1="-.87" x2="434.06" y2="1078.25" fill="none" stroke="#000" stroke-miterlimit="10" stroke-width=".95"/>
    <line x1="390.89" y1="-.87" x2="390.89" y2="1078.25" fill="none" stroke="#000" stroke-miterlimit="10" stroke-width=".95"/>
    <line x1="347.73" y1="-.87" x2="347.73" y2="1078.25" fill="none" stroke="#000" stroke-miterlimit="10" stroke-width=".95"/>
    <line x1="304.56" y1="-.87" x2="304.56" y2="1078.25" fill="none" stroke="#000" stroke-miterlimit="10" stroke-width=".95"/>
    <line x1="261.4" y1="-.87" x2="261.4" y2="1078.25" fill="none" stroke="#000" stroke-miterlimit="10" stroke-width=".95"/>
    <line x1="218.23" y1="-.87" x2="218.23" y2="1078.25" fill="none" stroke="#000" stroke-miterlimit="10" stroke-width=".95"/>
    <line x1="175.07" y1="-.87" x2="175.07" y2="1078.25" fill="none" stroke="#000" stroke-miterlimit="10" stroke-width=".95"/>
    <line x1="131.9" y1="-.87" x2="131.9" y2="1078.25" fill="none" stroke="#000" stroke-miterlimit="10" stroke-width=".95"/>
    <line x1="88.74" y1="-.87" x2="88.74" y2="1078.25" fill="none" stroke="#000" stroke-miterlimit="10" stroke-width=".95"/>
    <line x1="45.57" y1="-.87" x2="45.57" y2="1078.25" fill="none" stroke="#000" stroke-miterlimit="10" stroke-width=".95"/>
  </g>
</svg>