<?xml version="1.0" encoding="UTF-8"?>
<svg id="Layer_1" data-name="Layer 1" xmlns="http://www.w3.org/2000/svg" viewBox="0 0 1080 1080">
  <rect x="521.57" y="777.03" width="40.81" height="40.81"/>
  <rect x="478.57" y="777.03" width="40.81" height="40.81"/>
  <rect x="521.57" y="820.15" width="40.81" height="40.81"/>
  <rect x="478.57" y="820.15" width="40.81" height="40.81"/>
  <rect x="521.57" y="863.27" width="40.81" height="40.81"/>
  <rect x="478.57" y="863.27" width="40.81" height="40.81"/>
  <rect x="521.57" y="906.39" width="40.81" height="40.81"/>
  <rect x="478.57" y="906.39" width="40.81" height="40.81"/>
  <rect x="521.57" y="949.51" width="40.81" height="40.81"/>
  <rect x="478.57" y="949.51" width="40.81" height="40.81"/>
  <rect x="521.57" y="992.63" width="40.81" height="40.81"/>
  <rect x="478.57" y="992.63" width="40.81" height="40.81"/>
  <rect x="521.57" y="1035.75" width="40.81" height="40.81"/>
  <rect x="564.56" y="777.03" width="40.81" height="40.81"/>
  <rect x="564.56" y="820.15" width="40.81" height="40.81"/>
  <rect x="564.56" y="863.27" width="40.81" height="40.81"/>
  <rect x="564.56" y="906.39" width="40.81" height="40.81"/>
  <rect x="564.56" y="949.51" width="40.81" height="40.81"/>
  <rect x="564.56" y="992.63" width="40.81" height="40.81"/>
  <rect x="564.56" y="1035.75" width="40.81" height="40.81"/>
  <rect x="607.56" y="777.03" width="40.81" height="40.81"/>
  <rect x="521.57" y="733.91" width="40.81" height="40.81"/>
  <rect x="478.57" y="733.91" width="40.81" height="40.81"/>
  <rect x="435.58" y="777.03" width="40.81" height="40.81"/>
  <rect x="435.58" y="820.15" width="40.81" height="40.81"/>
  <rect x="435.58" y="733.91" width="40.81" height="40.81"/>
  <rect x="392.58" y="777.03" width="40.81" height="40.81"/>
  <rect x="392.58" y="733.91" width="40.81" height="40.81"/>
  <rect x="564.56" y="733.91" width="40.81" height="40.81"/>
  <rect x="607.56" y="733.91" width="40.81" height="40.81"/>
  <rect x="521.57" y="690.79" width="40.81" height="40.81"/>
  <rect x="478.57" y="690.79" width="40.81" height="40.81"/>
  <rect x="435.58" y="690.79" width="40.81" height="40.81"/>
  <rect x="392.58" y="690.79" width="40.81" height="40.81"/>
  <rect x="564.56" y="690.79" width="40.81" height="40.81"/>
  <rect x="607.56" y="690.79" width="40.81" height="40.81"/>
  <rect x="521.57" y="647.67" width="40.81" height="40.81"/>
  <rect x="478.57" y="647.67" width="40.81" height="40.81"/>
  <rect x="435.58" y="647.67" width="40.81" height="40.81"/>
  <rect x="392.58" y="647.67" width="40.81" height="40.81"/>
  <rect x="564.56" y="647.67" width="40.81" height="40.81"/>
  <rect x="607.56" y="647.67" width="40.81" height="40.81"/>
  <rect x="521.57" y="604.55" width="40.81" height="40.81"/>
  <rect x="478.57" y="604.55" width="40.81" height="40.81"/>
  <rect x="564.56" y="604.55" width="40.81" height="40.81"/>
  <rect x="607.56" y="604.55" width="40.81" height="40.81"/>
  <rect x="607.56" y="820.15" width="40.81" height="40.81"/>
  <rect x="607.56" y="863.27" width="40.81" height="40.81"/>
  <rect x="607.56" y="906.39" width="40.81" height="40.81"/>
  <rect x="607.56" y="949.51" width="40.81" height="40.81"/>
  <rect x="607.56" y="992.63" width="40.81" height="40.81"/>
  <rect x="607.56" y="1035.75" width="40.81" height="40.81"/>
  <rect x="478.57" y="1035.75" width="40.81" height="40.81"/>
  <rect x="362.8" y="661.39" width="13.38" height="13.38"/>
  <rect x="362.8" y="704.51" width="13.38" height="13.38"/>
  <rect x="449.78" y="575.18" width="13.38" height="13.38"/>
  <rect x="449.78" y="618.3" width="13.38" height="13.38"/>
  <rect x="406.29" y="618.3" width="13.38" height="13.38"/>
  <rect x="536.62" y="575.18" width="13.38" height="13.38"/>
  <rect x="578.27" y="575.18" width="13.38" height="13.38"/>
  <rect x="621.27" y="575.18" width="13.38" height="13.38"/>
  <rect x="493.13" y="575.18" width="13.38" height="13.38"/>
  <rect x="362.8" y="747.63" width="13.38" height="13.38"/>
  <rect x="362.8" y="790.75" width="13.38" height="13.38"/>
  <rect x="406.29" y="833.87" width="13.38" height="13.38"/>
  <rect x="406.29" y="876.99" width="13.38" height="13.38"/>
  <rect x="449.29" y="876.99" width="13.38" height="13.38"/>
  <rect x="449.29" y="920.11" width="13.38" height="13.38"/>
  <rect x="406.29" y="920.11" width="13.38" height="13.38"/>
  <rect x="449.29" y="963.23" width="13.38" height="13.38"/>
  <rect x="362.8" y="833.87" width="13.38" height="13.38"/>
  <rect x="191.38" y="833.87" width="13.38" height="13.38"/>
  <rect x="191.38" y="876.99" width="13.38" height="13.38"/>
  <rect x="191.38" y="920.11" width="13.38" height="13.38"/>
  <rect x="191.38" y="963.23" width="13.38" height="13.38"/>
  <rect x="191.38" y="1006.35" width="13.38" height="13.38"/>
  <rect x="666.15" y="661.39" width="13.38" height="13.38"/>
  <rect x="666.15" y="704.51" width="13.38" height="13.38"/>
  <rect x="666.15" y="575.18" width="13.38" height="13.38"/>
  <rect x="449.78" y="532.06" width="13.38" height="13.38"/>
  <rect x="536.62" y="532.06" width="13.38" height="13.38"/>
  <rect x="578.27" y="532.06" width="13.38" height="13.38"/>
  <rect x="621.27" y="532.06" width="13.38" height="13.38"/>
  <rect x="493.13" y="532.06" width="13.38" height="13.38"/>
  <rect x="666.15" y="532.06" width="13.38" height="13.38"/>
  <rect x="449.78" y="488.94" width="13.38" height="13.38"/>
  <rect x="536.62" y="488.94" width="13.38" height="13.38"/>
  <rect x="578.27" y="488.94" width="13.38" height="13.38"/>
  <rect x="621.27" y="488.94" width="13.38" height="13.38"/>
  <rect x="493.13" y="488.94" width="13.38" height="13.38"/>
  <rect x="234.73" y="575.18" width="13.38" height="13.38"/>
  <rect x="321.57" y="575.18" width="13.38" height="13.38"/>
  <rect x="363.23" y="575.18" width="13.38" height="13.38"/>
  <rect x="406.22" y="575.18" width="13.38" height="13.38"/>
  <rect x="278.08" y="575.18" width="13.38" height="13.38"/>
  <rect x="104.55" y="575.18" width="13.38" height="13.38"/>
  <rect x="191.38" y="575.18" width="13.38" height="13.38"/>
  <rect x="147.9" y="575.18" width="13.38" height="13.38"/>
  <rect x="104.55" y="618.27" width="13.38" height="13.38"/>
  <rect x="191.38" y="618.27" width="13.38" height="13.38"/>
  <rect x="147.9" y="618.27" width="13.38" height="13.38"/>
  <rect x="104.55" y="661.39" width="13.38" height="13.38"/>
  <rect x="191.38" y="661.39" width="13.38" height="13.38"/>
  <rect x="147.9" y="661.39" width="13.38" height="13.38"/>
  <rect x="104.55" y="704.51" width="13.38" height="13.38"/>
  <rect x="191.38" y="704.51" width="13.38" height="13.38"/>
  <rect x="147.9" y="704.51" width="13.38" height="13.38"/>
  <rect x="104.55" y="747.63" width="13.38" height="13.38"/>
  <rect x="147.9" y="747.63" width="13.38" height="13.38"/>
  <rect x="234.73" y="532.06" width="13.38" height="13.38"/>
  <rect x="321.57" y="532.06" width="13.38" height="13.38"/>
  <rect x="363.23" y="532.06" width="13.38" height="13.38"/>
  <rect x="406.22" y="532.06" width="13.38" height="13.38"/>
  <rect x="278.08" y="532.06" width="13.38" height="13.38"/>
  <rect x="234.73" y="488.94" width="13.38" height="13.38"/>
  <rect x="321.57" y="488.94" width="13.38" height="13.38"/>
  <rect x="363.23" y="488.94" width="13.38" height="13.38"/>
  <rect x="406.22" y="488.94" width="13.38" height="13.38"/>
  <rect x="278.08" y="488.94" width="13.38" height="13.38"/>
  <rect x="278.08" y="445.82" width="13.38" height="13.38"/>
  <rect x="278.08" y="402.7" width="13.38" height="13.38"/>
  <rect x="278.08" y="359.58" width="13.38" height="13.38"/>
  <rect x="278.08" y="316.15" width="13.38" height="13.38"/>
  <rect x="278.08" y="273.03" width="13.38" height="13.38"/>
  <rect x="234.73" y="316.26" width="13.38" height="13.38"/>
  <rect x="234.73" y="273.14" width="13.38" height="13.38"/>
  <rect x="362.87" y="99.93" width="13.38" height="13.38"/>
  <rect x="362.87" y="56.81" width="13.38" height="13.38"/>
  <rect x="362.87" y="445.82" width="13.38" height="13.38"/>
  <rect x="449.71" y="445.82" width="13.38" height="13.38"/>
  <rect x="406.22" y="445.82" width="13.38" height="13.38"/>
  <rect x="362.87" y="402.7" width="13.38" height="13.38"/>
  <rect x="449.71" y="402.7" width="13.38" height="13.38"/>
  <rect x="406.22" y="402.7" width="13.38" height="13.38"/>
  <rect x="362.87" y="359.58" width="13.38" height="13.38"/>
  <rect x="449.71" y="359.58" width="13.38" height="13.38"/>
  <rect x="406.22" y="359.58" width="13.38" height="13.38"/>
  <rect x="493.2" y="445.82" width="13.38" height="13.38"/>
  <rect x="580.04" y="445.82" width="13.38" height="13.38"/>
  <rect x="536.55" y="445.82" width="13.38" height="13.38"/>
  <rect x="493.2" y="402.7" width="13.38" height="13.38"/>
  <rect x="580.04" y="402.7" width="13.38" height="13.38"/>
  <rect x="536.55" y="402.7" width="13.38" height="13.38"/>
  <rect x="493.2" y="359.58" width="13.38" height="13.38"/>
  <rect x="493.13" y="316.46" width="13.38" height="13.38"/>
  <rect x="493.13" y="273.34" width="13.38" height="13.38"/>
  <rect x="493.2" y="230.22" width="13.38" height="13.38"/>
  <rect x="493.2" y="187.1" width="13.38" height="13.38"/>
  <rect x="493.2" y="143.98" width="13.38" height="13.38"/>
  <rect x="449.68" y="316.46" width="13.38" height="13.38"/>
  <rect x="449.68" y="273.34" width="13.38" height="13.38"/>
  <rect x="449.75" y="230.22" width="13.38" height="13.38"/>
  <rect x="449.75" y="187.1" width="13.38" height="13.38"/>
  <rect x="449.75" y="143.98" width="13.38" height="13.38"/>
  <rect x="406.19" y="316.46" width="13.38" height="13.38"/>
  <rect x="406.19" y="273.34" width="13.38" height="13.38"/>
  <rect x="406.26" y="230.22" width="13.38" height="13.38"/>
  <rect x="406.26" y="187.1" width="13.38" height="13.38"/>
  <rect x="406.26" y="143.98" width="13.38" height="13.38"/>
  <rect x="580.04" y="359.58" width="13.38" height="13.38"/>
  <rect x="536.55" y="359.58" width="13.38" height="13.38"/>
  <rect x="536.62" y="316.46" width="13.38" height="13.38"/>
  <rect x="536.62" y="273.34" width="13.38" height="13.38"/>
  <rect x="536.55" y="230.22" width="13.38" height="13.38"/>
  <rect x="536.55" y="187.1" width="13.38" height="13.38"/>
  <rect x="710.4" y="187.1" width="13.38" height="13.38"/>
  <rect x="536.55" y="143.98" width="13.38" height="13.38"/>
  <rect x="667.05" y="143.98" width="13.38" height="13.38"/>
  <rect x="623.59" y="143.98" width="13.38" height="13.38"/>
  <rect x="580.11" y="143.98" width="13.38" height="13.38"/>
  <rect x="710.4" y="143.98" width="13.38" height="13.38"/>
  <rect x="708.15" y="13.69" width="13.38" height="13.38"/>
  <rect x="664.7" y="13.69" width="13.38" height="13.38"/>
  <rect x="621.21" y="13.69" width="13.38" height="13.38"/>
  <rect x="751.5" y="13.69" width="13.38" height="13.38"/>
  <rect x="751.55" y="56.81" width="13.38" height="13.38"/>
  <rect x="708.1" y="56.81" width="13.38" height="13.38"/>
  <rect x="794.9" y="56.81" width="13.38" height="13.38"/>
  <rect x="493.2" y="100.86" width="13.38" height="13.38"/>
  <rect x="449.75" y="100.86" width="13.38" height="13.38"/>
  <rect x="406.26" y="100.86" width="13.38" height="13.38"/>
  <rect x="536.55" y="100.86" width="13.38" height="13.38"/>
  <rect x="493.2" y="57.74" width="13.38" height="13.38"/>
  <rect x="449.75" y="57.74" width="13.38" height="13.38"/>
  <rect x="406.26" y="57.74" width="13.38" height="13.38"/>
  <rect x="362.87" y="13.23" width="13.38" height="13.38"/>
  <rect x="493.2" y="14.16" width="13.38" height="13.38"/>
  <rect x="449.75" y="14.16" width="13.38" height="13.38"/>
  <rect x="406.26" y="14.16" width="13.38" height="13.38"/>
  <rect x="536.55" y="57.74" width="13.38" height="13.38"/>
  <rect x="622.73" y="445.82" width="13.38" height="13.38"/>
  <rect x="709.57" y="445.82" width="13.38" height="13.38"/>
  <rect x="666.08" y="445.82" width="13.38" height="13.38"/>
  <rect x="622.73" y="402.7" width="13.38" height="13.38"/>
  <rect x="709.57" y="402.7" width="13.38" height="13.38"/>
  <rect x="666.08" y="402.7" width="13.38" height="13.38"/>
  <rect x="622.73" y="359.58" width="13.38" height="13.38"/>
  <rect x="709.57" y="359.58" width="13.38" height="13.38"/>
  <rect x="753.06" y="445.82" width="13.38" height="13.38"/>
  <rect x="924.13" y="445.82" width="13.38" height="13.38"/>
  <rect x="880.64" y="445.82" width="13.38" height="13.38"/>
  <rect x="967.62" y="445.82" width="13.38" height="13.38"/>
  <rect x="753.06" y="402.7" width="13.38" height="13.38"/>
  <rect x="753.06" y="359.58" width="13.38" height="13.38"/>
  <rect x="924.13" y="229.29" width="13.38" height="13.38"/>
  <rect x="924.13" y="186.17" width="13.38" height="13.38"/>
  <rect x="924.13" y="143.05" width="13.38" height="13.38"/>
  <rect x="967.99" y="99.93" width="13.38" height="13.38"/>
  <rect x="967.99" y="56.81" width="13.38" height="13.38"/>
  <rect x="967.99" y="13.69" width="13.38" height="13.38"/>
  <rect x="924.13" y="99.93" width="13.38" height="13.38"/>
  <rect x="924.13" y="56.81" width="13.38" height="13.38"/>
  <rect x="924.13" y="13.69" width="13.38" height="13.38"/>
  <rect x="666.08" y="359.58" width="13.38" height="13.38"/>
  <rect x="881.71" y="273.34" width="13.38" height="13.38"/>
  <rect x="881.71" y="229.29" width="13.38" height="13.38"/>
  <rect x="968.54" y="273.34" width="13.38" height="13.38"/>
  <rect x="1012.03" y="273.34" width="13.38" height="13.38"/>
  <rect x="968.54" y="315.66" width="13.38" height="13.38"/>
  <rect x="1012.03" y="315.66" width="13.38" height="13.38"/>
  <rect x="1053.98" y="359.76" width="13.38" height="13.38"/>
  <rect x="1053.98" y="402.08" width="13.38" height="13.38"/>
  <rect x="925.06" y="273.34" width="13.38" height="13.38"/>
  <rect x="580.04" y="273.34" width="13.38" height="13.38"/>
  <rect x="622.73" y="273.34" width="13.38" height="13.38"/>
  <rect x="622.73" y="316.46" width="13.38" height="13.38"/>
  <rect x="622.73" y="230.22" width="13.38" height="13.38"/>
  <rect x="666.22" y="230.22" width="13.38" height="13.38"/>
  <rect x="666.08" y="273.34" width="13.38" height="13.38"/>
  <rect x="666.15" y="488.94" width="13.38" height="13.38"/>
  <rect x="754.37" y="488.94" width="13.38" height="13.38"/>
  <rect x="799.25" y="488.94" width="13.38" height="13.38"/>
  <rect x="666.15" y="618.3" width="13.38" height="13.38"/>
  <rect x="796.54" y="575.18" width="13.38" height="13.38"/>
  <rect x="796.54" y="618.3" width="13.38" height="13.38"/>
  <rect x="666.15" y="747.63" width="13.38" height="13.38"/>
  <rect x="709.57" y="661.39" width="13.38" height="13.38"/>
  <rect x="709.57" y="704.51" width="13.38" height="13.38"/>
  <rect x="753.06" y="661.39" width="13.38" height="13.38"/>
  <rect x="753.06" y="704.51" width="13.38" height="13.38"/>
  <rect x="709.57" y="747.63" width="13.38" height="13.38"/>
  <rect x="666.15" y="790.75" width="13.38" height="13.38"/>
  <rect x="666.15" y="833.87" width="13.38" height="13.38"/>
  <rect x="666.15" y="876.99" width="13.38" height="13.38"/>
  <rect x="666.15" y="920.11" width="13.38" height="13.38"/>
  <rect x="666.15" y="963.23" width="13.38" height="13.38"/>
</svg>