<?xml version="1.0" encoding="UTF-8"?>
<svg id="_10" data-name="10" xmlns="http://www.w3.org/2000/svg" viewBox="0 0 1080 1080">
  <rect x="346.68" y="735.55" width="40.84" height="40.84" fill="#231f20"/>
  <rect x="346.68" y="778.88" width="40.84" height="40.84" fill="#231f20"/>
  <rect x="303.65" y="778.88" width="40.84" height="40.84" fill="#231f20"/>
  <rect x="303.65" y="735.55" width="40.84" height="40.84" fill="#231f20"/>
  <rect x="433.09" y="735.55" width="40.84" height="40.84" fill="#231f20"/>
  <rect x="390.06" y="735.55" width="40.84" height="40.84" fill="#231f20"/>
  <rect x="519.49" y="735.55" width="40.84" height="40.84" fill="#231f20"/>
  <rect x="476.46" y="735.55" width="40.84" height="40.84" fill="#231f20"/>
  <rect x="605.89" y="735.55" width="40.84" height="40.84" fill="#231f20"/>
  <rect x="562.86" y="735.55" width="40.84" height="40.84" fill="#231f20"/>
  <rect x="347.03" y="692.21" width="40.84" height="40.84" fill="#231f20"/>
  <rect x="390.06" y="692.21" width="40.84" height="40.84" fill="#231f20"/>
  <rect x="303.65" y="692.21" width="40.84" height="40.84" fill="#231f20"/>
  <rect x="260.28" y="433.16" width="40.84" height="40.84" fill="#231f20"/>
  <rect x="260.28" y="476.46" width="40.84" height="40.84" fill="#231f20"/>
  <rect x="303.65" y="433.16" width="40.84" height="40.84" fill="#231f20"/>
  <rect x="173.9" y="433.16" width="40.84" height="40.84" fill="#231f20"/>
  <rect x="217.26" y="433.16" width="40.84" height="40.84" fill="#231f20"/>
  <rect x="87.49" y="433.16" width="40.84" height="40.84" fill="#231f20"/>
  <rect x="130.85" y="433.16" width="40.84" height="40.84" fill="#231f20"/>
  <rect x="1.1" y="433.16" width="40.84" height="40.84" fill="#231f20"/>
  <rect x="44.47" y="433.16" width="40.84" height="40.84" fill="#231f20"/>
  <rect x="361.35" y="661.54" width="13.39" height="13.39" fill="#231f20"/>
  <rect x="403.79" y="661.54" width="13.39" height="13.39" fill="#231f20"/>
  <rect x="533.01" y="792.61" width="13.39" height="13.39" fill="#231f20"/>
  <rect x="403.79" y="792.61" width="13.39" height="13.39" fill="#231f20"/>
  <rect x="317.37" y="661.54" width="13.39" height="13.39" fill="#231f20"/>
  <rect x="317.37" y="619.99" width="13.39" height="13.39" fill="#231f20"/>
  <rect x="317.37" y="575.4" width="13.39" height="13.39" fill="#231f20"/>
  <rect x="317.37" y="533.3" width="13.39" height="13.39" fill="#231f20"/>
  <rect x="272.55" y="619.99" width="13.39" height="13.39" fill="#231f20"/>
  <rect x="272.55" y="575.4" width="13.39" height="13.39" fill="#231f20"/>
  <rect x="272.55" y="533.3" width="13.39" height="13.39" fill="#231f20"/>
  <rect x="317.37" y="491.21" width="13.39" height="13.39" fill="#231f20"/>
  <rect x="835.17" y="576.75" width="13.39" height="13.39" fill="#231f20"/>
  <rect x="835.17" y="620.2" width="13.39" height="13.39" fill="#231f20"/>
  <rect x="835.17" y="533.3" width="13.39" height="13.39" fill="#231f20"/>
  <rect x="835.17" y="491.21" width="13.39" height="13.39" fill="#231f20"/>
  <rect x="880.44" y="576.75" width="13.39" height="13.39" fill="#231f20"/>
  <rect x="880.44" y="533.3" width="13.39" height="13.39" fill="#231f20"/>
  <rect x="880.44" y="491.21" width="13.39" height="13.39" fill="#231f20"/>
  <rect x="835.17" y="447.07" width="13.39" height="13.39" fill="#231f20"/>
  <rect x="880.44" y="447.07" width="13.39" height="13.39" fill="#231f20"/>
  <rect x="748.33" y="620.2" width="13.39" height="13.39" fill="#231f20"/>
  <rect x="748.33" y="576.75" width="13.39" height="13.39" fill="#231f20"/>
  <rect x="793.04" y="620.2" width="13.39" height="13.39" fill="#231f20"/>
  <rect x="835.17" y="661.54" width="13.39" height="13.39" fill="#231f20"/>
  <rect x="748.33" y="661.54" width="13.39" height="13.39" fill="#231f20"/>
  <rect x="793.04" y="661.54" width="13.39" height="13.39" fill="#231f20"/>
  <rect x="793.04" y="576.75" width="13.39" height="13.39" fill="#231f20"/>
  <rect x="793.04" y="533.3" width="13.39" height="13.39" fill="#231f20"/>
  <rect x="402.22" y="488.36" width="13.39" height="13.39" fill="#231f20"/>
  <rect x="402.22" y="446.26" width="13.39" height="13.39" fill="#231f20"/>
  <rect x="361.35" y="446.26" width="13.39" height="13.39" fill="#231f20"/>
  <rect x="447.49" y="488.36" width="13.39" height="13.39" fill="#231f20"/>
  <rect x="577.54" y="488.36" width="13.39" height="13.39" fill="#231f20"/>
  <rect x="621.83" y="488.36" width="13.39" height="13.39" fill="#231f20"/>
  <rect x="447.49" y="446.26" width="13.39" height="13.39" fill="#231f20"/>
  <rect x="531.4" y="446.26" width="13.39" height="13.39" fill="#231f20"/>
  <rect x="489.94" y="446.26" width="13.39" height="13.39" fill="#231f20"/>
  <rect x="577.54" y="446.26" width="13.39" height="13.39" fill="#231f20"/>
  <rect x="661.25" y="446.26" width="13.39" height="13.39" fill="#231f20"/>
  <rect x="619.79" y="446.26" width="13.39" height="13.39" fill="#231f20"/>
  <rect x="705.65" y="446.26" width="13.39" height="13.39" fill="#231f20"/>
  <rect x="402.22" y="403.59" width="13.39" height="13.39" fill="#231f20"/>
  <rect x="447.49" y="403.59" width="13.39" height="13.39" fill="#231f20"/>
  <rect x="531.4" y="403.59" width="13.39" height="13.39" fill="#231f20"/>
  <rect x="489.94" y="403.59" width="13.39" height="13.39" fill="#231f20"/>
  <rect x="577.54" y="403.59" width="13.39" height="13.39" fill="#231f20"/>
  <rect x="661.25" y="403.59" width="13.39" height="13.39" fill="#231f20"/>
  <rect x="619.79" y="403.59" width="13.39" height="13.39" fill="#231f20"/>
  <rect x="100.07" y="403.59" width="13.39" height="13.39" fill="#231f20"/>
  <rect x="100.07" y="360.92" width="13.39" height="13.39" fill="#231f20"/>
  <rect x="145.34" y="403.59" width="13.39" height="13.39" fill="#231f20"/>
  <rect x="13.87" y="403.59" width="13.39" height="13.39" fill="#231f20"/>
  <rect x="59.14" y="403.59" width="13.39" height="13.39" fill="#231f20"/>
  <rect x="13.87" y="360.92" width="13.39" height="13.39" fill="#231f20"/>
  <rect x="59.14" y="360.92" width="13.39" height="13.39" fill="#231f20"/>
  <rect x="229.25" y="403.59" width="13.39" height="13.39" fill="#231f20"/>
  <rect x="187.79" y="403.59" width="13.39" height="13.39" fill="#231f20"/>
  <rect x="274.18" y="403.59" width="13.39" height="13.39" fill="#231f20"/>
  <rect x="361.35" y="403.59" width="13.39" height="13.39" fill="#231f20"/>
  <rect x="316.74" y="360.24" width="13.39" height="13.39" fill="#231f20"/>
  <rect x="274.18" y="360.24" width="13.39" height="13.39" fill="#231f20"/>
  <rect x="361.35" y="360.24" width="13.39" height="13.39" fill="#231f20"/>
  <rect x="316.74" y="317.57" width="13.39" height="13.39" fill="#231f20"/>
  <rect x="361.35" y="317.57" width="13.39" height="13.39" fill="#231f20"/>
  <rect x="274.18" y="317.57" width="13.39" height="13.39" fill="#231f20"/>
  <rect x="404.87" y="274.89" width="13.39" height="13.39" fill="#231f20"/>
  <rect x="361.35" y="274.89" width="13.39" height="13.39" fill="#231f20"/>
  <rect x="450.14" y="274.89" width="13.39" height="13.39" fill="#231f20"/>
  <rect x="315.86" y="15.09" width="13.39" height="13.39" fill="#231f20"/>
  <rect x="272.35" y="15.09" width="13.39" height="13.39" fill="#231f20"/>
  <rect x="361.14" y="15.09" width="13.39" height="13.39" fill="#231f20"/>
  <rect x="404.87" y="232.22" width="13.39" height="13.39" fill="#231f20"/>
  <rect x="450.14" y="232.22" width="13.39" height="13.39" fill="#231f20"/>
  <rect x="404.87" y="189.55" width="13.39" height="13.39" fill="#231f20"/>
  <rect x="450.14" y="189.55" width="13.39" height="13.39" fill="#231f20"/>
  <rect x="404.87" y="146.88" width="13.39" height="13.39" fill="#231f20"/>
  <rect x="450.14" y="146.88" width="13.39" height="13.39" fill="#231f20"/>
  <rect x="404.87" y="102.37" width="13.39" height="13.39" fill="#231f20"/>
  <rect x="450.14" y="102.37" width="13.39" height="13.39" fill="#231f20"/>
  <rect x="404.87" y="59.69" width="13.39" height="13.39" fill="#231f20"/>
  <rect x="450.14" y="59.69" width="13.39" height="13.39" fill="#231f20"/>
  <rect x="404.87" y="17.02" width="13.39" height="13.39" fill="#231f20"/>
  <rect x="450.14" y="17.02" width="13.39" height="13.39" fill="#231f20"/>
  <rect x="361.35" y="232.22" width="13.39" height="13.39" fill="#231f20"/>
  <rect x="620.75" y="274.89" width="13.39" height="13.39" fill="#231f20"/>
  <rect x="577.54" y="274.89" width="13.39" height="13.39" fill="#231f20"/>
  <rect x="661.25" y="274.89" width="13.39" height="13.39" fill="#231f20"/>
  <rect x="620.75" y="232.22" width="13.39" height="13.39" fill="#231f20"/>
  <rect x="661.25" y="232.22" width="13.39" height="13.39" fill="#231f20"/>
  <rect x="577.54" y="232.22" width="13.39" height="13.39" fill="#231f20"/>
  <rect x="620.75" y="189.63" width="13.39" height="13.39" fill="#231f20"/>
  <rect x="661.25" y="189.63" width="13.39" height="13.39" fill="#231f20"/>
  <rect x="577.54" y="189.63" width="13.39" height="13.39" fill="#231f20"/>
  <rect x="620.75" y="360.24" width="13.39" height="13.39" fill="#231f20"/>
  <rect x="577.54" y="360.24" width="13.39" height="13.39" fill="#231f20"/>
  <rect x="661.25" y="360.24" width="13.39" height="13.39" fill="#231f20"/>
  <rect x="620.75" y="317.57" width="13.39" height="13.39" fill="#231f20"/>
  <rect x="661.25" y="317.57" width="13.39" height="13.39" fill="#231f20"/>
  <rect x="661.25" y="59.69" width="13.39" height="13.39" fill="#231f20"/>
  <rect x="661.25" y="17.02" width="13.39" height="13.39" fill="#231f20"/>
  <rect x="661.25" y="102.37" width="13.39" height="13.39" fill="#231f20"/>
  <rect x="705.65" y="274.89" width="13.39" height="13.39" fill="#231f20"/>
  <rect x="749.84" y="274.74" width="13.39" height="13.39" fill="#231f20"/>
  <rect x="794.41" y="274.89" width="13.39" height="13.39" fill="#231f20"/>
  <rect x="833.45" y="274.89" width="13.39" height="13.39" fill="#231f20"/>
  <rect x="878.73" y="274.89" width="13.39" height="13.39" fill="#231f20"/>
  <rect x="705.65" y="232.22" width="13.39" height="13.39" fill="#231f20"/>
  <rect x="749.84" y="232.06" width="13.39" height="13.39" fill="#231f20"/>
  <rect x="705.65" y="189.63" width="13.39" height="13.39" fill="#231f20"/>
  <rect x="749.84" y="189.47" width="13.39" height="13.39" fill="#231f20"/>
  <rect x="620.75" y="146.95" width="13.39" height="13.39" fill="#231f20"/>
  <rect x="661.25" y="146.95" width="13.39" height="13.39" fill="#231f20"/>
  <rect x="577.54" y="146.95" width="13.39" height="13.39" fill="#231f20"/>
  <rect x="705.65" y="146.95" width="13.39" height="13.39" fill="#231f20"/>
  <rect x="749.84" y="146.8" width="13.39" height="13.39" fill="#231f20"/>
  <rect x="966.88" y="57.92" width="13.39" height="13.39" fill="#231f20"/>
  <rect x="1011.07" y="57.76" width="13.39" height="13.39" fill="#231f20"/>
  <rect x="1055.64" y="57.92" width="13.39" height="13.39" fill="#231f20"/>
  <rect x="1055.64" y="15.25" width="13.39" height="13.39" fill="#231f20"/>
  <rect x="966.88" y="15.25" width="13.39" height="13.39" fill="#231f20"/>
  <rect x="922.8" y="57.92" width="13.39" height="13.39" fill="#231f20"/>
  <rect x="880.4" y="57.92" width="13.39" height="13.39" fill="#231f20"/>
  <rect x="836.32" y="57.92" width="13.39" height="13.39" fill="#231f20"/>
  <rect x="794.41" y="57.92" width="13.39" height="13.39" fill="#231f20"/>
  <rect x="922.8" y="15.25" width="13.39" height="13.39" fill="#231f20"/>
  <rect x="1011.07" y="15.09" width="13.39" height="13.39" fill="#231f20"/>
  <rect x="705.65" y="317.57" width="13.39" height="13.39" fill="#231f20"/>
  <rect x="749.84" y="317.41" width="13.39" height="13.39" fill="#231f20"/>
  <rect x="705.65" y="360.58" width="13.39" height="13.39" fill="#231f20"/>
  <rect x="749.84" y="360.42" width="13.39" height="13.39" fill="#231f20"/>
  <rect x="749.84" y="59.69" width="13.39" height="13.39" fill="#231f20"/>
  <rect x="749.84" y="17.02" width="13.39" height="13.39" fill="#231f20"/>
  <rect x="749.84" y="102.37" width="13.39" height="13.39" fill="#231f20"/>
  <rect x="922.8" y="274.89" width="13.39" height="13.39" fill="#231f20"/>
  <rect x="922.8" y="232.22" width="13.39" height="13.39" fill="#231f20"/>
  <rect x="922.8" y="317.57" width="13.39" height="13.39" fill="#231f20"/>
  <rect x="965.65" y="274.89" width="13.39" height="13.39" fill="#231f20"/>
  <rect x="965.65" y="232.22" width="13.39" height="13.39" fill="#231f20"/>
  <rect x="965.65" y="317.57" width="13.39" height="13.39" fill="#231f20"/>
  <rect x="1007.23" y="274.89" width="13.39" height="13.39" fill="#231f20"/>
  <rect x="1052.9" y="274.89" width="13.39" height="13.39" fill="#231f20"/>
  <rect x="1007.23" y="232.22" width="13.39" height="13.39" fill="#231f20"/>
  <rect x="922.8" y="187.74" width="13.39" height="13.39" fill="#231f20"/>
  <rect x="965.65" y="187.74" width="13.39" height="13.39" fill="#231f20"/>
  <rect x="1007.23" y="187.74" width="13.39" height="13.39" fill="#231f20"/>
  <rect x="1007.23" y="317.57" width="13.39" height="13.39" fill="#231f20"/>
  <rect x="577.54" y="317.57" width="13.39" height="13.39" fill="#231f20"/>
  <rect x="316.74" y="403.59" width="13.39" height="13.39" fill="#231f20"/>
  <rect x="705.65" y="403.59" width="13.39" height="13.39" fill="#231f20"/>
  <rect x="749.84" y="403.43" width="13.39" height="13.39" fill="#231f20"/>
  <rect x="793.62" y="403.59" width="13.39" height="13.39" fill="#231f20"/>
  <rect x="877.53" y="403.59" width="13.39" height="13.39" fill="#231f20"/>
  <rect x="836.07" y="403.59" width="13.39" height="13.39" fill="#231f20"/>
  <rect x="922.8" y="403.59" width="13.39" height="13.39" fill="#231f20"/>
  <rect x="1007.61" y="403.59" width="13.39" height="13.39" fill="#231f20"/>
  <rect x="965.65" y="403.59" width="13.39" height="13.39" fill="#231f20"/>
  <rect x="1052.9" y="403.59" width="13.39" height="13.39" fill="#231f20"/>
  <rect x="361.35" y="488.36" width="13.39" height="13.39" fill="#231f20"/>
  <rect x="1007.61" y="491.21" width="13.39" height="13.39" fill="#231f20"/>
  <rect x="1007.61" y="447.76" width="13.39" height="13.39" fill="#231f20"/>
  <rect x="1052.9" y="491.21" width="13.39" height="13.39" fill="#231f20"/>
  <rect x="1052.9" y="447.76" width="13.39" height="13.39" fill="#231f20"/>
  <rect x="965.65" y="533.8" width="13.39" height="13.39" fill="#231f20"/>
  <rect x="1007.61" y="533.06" width="13.39" height="13.39" fill="#231f20"/>
  <rect x="1052.9" y="576.5" width="13.39" height="13.39" fill="#231f20"/>
  <rect x="1052.9" y="533.06" width="13.39" height="13.39" fill="#231f20"/>
  <rect x="920.85" y="491.21" width="13.39" height="13.39" fill="#231f20"/>
  <rect x="965.65" y="491.21" width="13.39" height="13.39" fill="#231f20"/>
  <rect x="965.65" y="447.76" width="13.39" height="13.39" fill="#231f20"/>
  <rect x="920.85" y="447.76" width="13.39" height="13.39" fill="#231f20"/>
  <rect x="490.19" y="705.94" width="13.39" height="13.39" fill="#231f20"/>
  <rect x="533.3" y="705.94" width="13.39" height="13.39" fill="#231f20"/>
  <rect x="577.54" y="705.94" width="13.39" height="13.39" fill="#231f20"/>
  <rect x="619.62" y="705.94" width="13.39" height="13.39" fill="#231f20"/>
  <rect x="446.82" y="705.94" width="13.39" height="13.39" fill="#231f20"/>
  <rect x="57.04" y="705.94" width="13.39" height="13.39" fill="#231f20"/>
  <rect x="100.15" y="705.94" width="13.39" height="13.39" fill="#231f20"/>
  <rect x="144.4" y="705.94" width="13.39" height="13.39" fill="#231f20"/>
  <rect x="186.47" y="705.94" width="13.39" height="13.39" fill="#231f20"/>
  <rect x="13.67" y="705.94" width="13.39" height="13.39" fill="#231f20"/>
  <rect x="705.28" y="705.94" width="13.39" height="13.39" fill="#231f20"/>
  <rect x="748.33" y="705.94" width="13.39" height="13.39" fill="#231f20"/>
  <rect x="793.04" y="705.94" width="13.39" height="13.39" fill="#231f20"/>
  <rect x="835.17" y="705.94" width="13.39" height="13.39" fill="#231f20"/>
  <rect x="835.17" y="879.21" width="13.39" height="13.39" fill="#231f20"/>
  <rect x="835.17" y="922.66" width="13.39" height="13.39" fill="#231f20"/>
  <rect x="835.17" y="835.76" width="13.39" height="13.39" fill="#231f20"/>
  <rect x="835.17" y="793.66" width="13.39" height="13.39" fill="#231f20"/>
  <rect x="835.17" y="749.52" width="13.39" height="13.39" fill="#231f20"/>
  <rect x="835.17" y="963.99" width="13.39" height="13.39" fill="#231f20"/>
  <rect x="835.17" y="1008.39" width="13.39" height="13.39" fill="#231f20"/>
  <rect x="835.17" y="1051.89" width="13.39" height="13.39" fill="#231f20"/>
  <rect x="661.91" y="705.94" width="13.39" height="13.39" fill="#231f20"/>
  <rect x="705.28" y="749.27" width="13.39" height="13.39" fill="#231f20"/>
  <rect x="748.33" y="749.27" width="13.39" height="13.39" fill="#231f20"/>
  <rect x="317.18" y="883.57" width="13.39" height="13.39" fill="#231f20"/>
  <rect x="317.18" y="924.91" width="13.39" height="13.39" fill="#231f20"/>
  <rect x="317.18" y="969.3" width="13.39" height="13.39" fill="#231f20"/>
  <rect x="317.18" y="1012.64" width="13.39" height="13.39" fill="#231f20"/>
  <rect x="317.18" y="1052.92" width="13.39" height="13.39" fill="#231f20"/>
  <rect x="661.91" y="749.27" width="13.39" height="13.39" fill="#231f20"/>
  <rect x="100.27" y="490.19" width="13.39" height="13.39" fill="#231f20"/>
  <rect x="143.39" y="490.19" width="13.39" height="13.39" fill="#231f20"/>
  <rect x="186.67" y="490.19" width="13.39" height="13.39" fill="#231f20"/>
  <rect x="229.7" y="490.19" width="13.39" height="13.39" fill="#231f20"/>
  <rect x="100.27" y="533.3" width="13.39" height="13.39" fill="#231f20"/>
  <rect x="143.39" y="533.3" width="13.39" height="13.39" fill="#231f20"/>
  <rect x="186.67" y="533.3" width="13.39" height="13.39" fill="#231f20"/>
  <rect x="13.59" y="533.3" width="13.39" height="13.39" fill="#231f20"/>
  <rect x="56.87" y="533.3" width="13.39" height="13.39" fill="#231f20"/>
  <rect x="229.7" y="533.3" width="13.39" height="13.39" fill="#231f20"/>
  <rect x="56.9" y="490.19" width="13.39" height="13.39" fill="#231f20"/>
  <rect x="14.83" y="490.19" width="13.39" height="13.39" fill="#231f20"/>
  <rect x="100.27" y="1051.89" width="13.39" height="13.39" fill="#231f20"/>
  <rect x="143.39" y="1051.89" width="13.39" height="13.39" fill="#231f20"/>
  <rect x="186.67" y="1051.89" width="13.39" height="13.39" fill="#231f20"/>
  <rect x="229.7" y="1051.89" width="13.39" height="13.39" fill="#231f20"/>
  <rect x="274.18" y="1051.89" width="13.39" height="13.39" fill="#231f20"/>
  <rect x="56.9" y="1051.89" width="13.39" height="13.39" fill="#231f20"/>
  <rect x="14.83" y="1051.89" width="13.39" height="13.39" fill="#231f20"/>
  <rect x="446.82" y="792.61" width="13.39" height="13.39" fill="#231f20"/>
  <rect x="490.19" y="792.61" width="13.39" height="13.39" fill="#231f20"/>
  <rect x="360.4" y="836.78" width="13.39" height="13.39" fill="#231f20"/>
  <rect x="317.37" y="836.78" width="13.39" height="13.39" fill="#231f20"/>
  <rect x="576.7" y="792.61" width="13.39" height="13.39" fill="#231f20"/>
  <rect x="620.07" y="792.61" width="13.39" height="13.39" fill="#231f20"/>
  <rect x="922.7" y="1051.89" width="13.39" height="13.39" fill="#231f20"/>
  <rect x="879.88" y="1051.89" width="13.39" height="13.39" fill="#231f20"/>
  <rect x="966.39" y="1051.89" width="13.39" height="13.39" fill="#231f20"/>
  <rect x="1009.76" y="1051.89" width="13.39" height="13.39" fill="#231f20"/>
  <rect x="1049.73" y="1051.89" width="13.39" height="13.39" fill="#231f20"/>
  <rect x="922.7" y="705.69" width="13.39" height="13.39" fill="#231f20"/>
  <rect x="879.88" y="705.69" width="13.39" height="13.39" fill="#231f20"/>
  <rect x="966.39" y="705.69" width="13.39" height="13.39" fill="#231f20"/>
  <rect x="1009.76" y="705.69" width="13.39" height="13.39" fill="#231f20"/>
  <rect x="1049.73" y="705.69" width="13.39" height="13.39" fill="#231f20"/>
</svg>