<?xml version="1.0" encoding="UTF-8"?>
<svg id="_11" data-name="11" xmlns="http://www.w3.org/2000/svg" viewBox="0 0 1080 1080">
  <rect x="563.3" y="390.14" width="40.84" height="40.84" fill="#231f20"/>
  <rect x="563.3" y="347.09" width="40.84" height="40.84" fill="#231f20"/>
  <rect x="563.3" y="303.41" width="40.84" height="40.84" fill="#231f20"/>
  <rect x="563.01" y="260.43" width="40.84" height="40.84" fill="#231f20"/>
  <rect x="563.01" y="217.38" width="40.84" height="40.84" fill="#231f20"/>
  <rect x="563.01" y="173.7" width="40.84" height="40.84" fill="#231f20"/>
  <rect x="563.01" y="130.69" width="40.84" height="40.84" fill="#231f20"/>
  <rect x="563.01" y="87.68" width="40.84" height="40.84" fill="#231f20"/>
  <rect x="563.01" y="44.28" width="40.84" height="40.84" fill="#231f20"/>
  <rect x="563.01" y="1.27" width="40.84" height="40.84" fill="#231f20"/>
  <rect x="563.3" y="433.19" width="40.84" height="40.84" fill="#231f20"/>
  <rect x="563.3" y="476.26" width="40.84" height="40.84" fill="#231f20"/>
  <rect x="563.3" y="519.34" width="40.84" height="40.84" fill="#231f20"/>
  <rect x="476.77" y="649.11" width="40.84" height="40.84" fill="#231f20"/>
  <rect x="433.56" y="649.11" width="40.84" height="40.84" fill="#231f20"/>
  <rect x="433.56" y="562.57" width="40.84" height="40.84" fill="#231f20"/>
  <rect x="433.56" y="605.84" width="40.84" height="40.84" fill="#231f20"/>
  <rect x="563.3" y="562.57" width="40.84" height="40.84" fill="#231f20"/>
  <rect x="390.37" y="649.11" width="40.84" height="40.84" fill="#231f20"/>
  <rect x="476.77" y="692.45" width="40.84" height="40.84" fill="#231f20"/>
  <rect x="433.56" y="692.45" width="40.84" height="40.84" fill="#231f20"/>
  <rect x="390.37" y="692.45" width="40.84" height="40.84" fill="#231f20"/>
  <rect x="476.77" y="735.65" width="40.84" height="40.84" fill="#231f20"/>
  <rect x="433.56" y="735.65" width="40.84" height="40.84" fill="#231f20"/>
  <rect x="390.37" y="735.65" width="40.84" height="40.84" fill="#231f20"/>
  <rect x="476.77" y="778.86" width="40.84" height="40.84" fill="#231f20"/>
  <rect x="519.58" y="692.45" width="40.84" height="40.84" fill="#231f20"/>
  <rect x="519.58" y="735.65" width="40.84" height="40.84" fill="#231f20"/>
  <rect x="519.58" y="778.86" width="40.84" height="40.84" fill="#231f20"/>
  <rect x="563.3" y="778.83" width="40.84" height="40.84" fill="#231f20"/>
  <rect x="563.3" y="821.93" width="40.84" height="40.84" fill="#231f20"/>
  <rect x="606.24" y="778.83" width="40.84" height="40.84" fill="#231f20"/>
  <rect x="606.24" y="821.93" width="40.84" height="40.84" fill="#231f20"/>
  <rect x="649.74" y="821.93" width="40.84" height="40.84" fill="#231f20"/>
  <rect x="433.56" y="778.86" width="40.84" height="40.84" fill="#231f20"/>
  <rect x="476.77" y="821.95" width="40.84" height="40.84" fill="#231f20"/>
  <rect x="519.58" y="821.95" width="40.84" height="40.84" fill="#231f20"/>
  <rect x="433.56" y="821.95" width="40.84" height="40.84" fill="#231f20"/>
  <rect x="260.82" y="865.23" width="40.84" height="40.84" fill="#231f20"/>
  <rect x="217.61" y="865.23" width="40.84" height="40.84" fill="#231f20"/>
  <rect x="390.56" y="908.43" width="40.84" height="40.84" fill="#231f20"/>
  <rect x="347.36" y="908.43" width="40.84" height="40.84" fill="#231f20"/>
  <rect x="390.56" y="951.64" width="40.84" height="40.84" fill="#231f20"/>
  <rect x="303.63" y="865.23" width="40.84" height="40.84" fill="#231f20"/>
  <rect x="476.77" y="865.23" width="40.84" height="40.84" fill="#231f20"/>
  <rect x="476.77" y="908.43" width="40.84" height="40.84" fill="#231f20"/>
  <rect x="476.77" y="951.64" width="40.84" height="40.84" fill="#231f20"/>
  <rect x="433.37" y="908.43" width="40.84" height="40.84" fill="#231f20"/>
  <rect x="433.37" y="951.64" width="40.84" height="40.84" fill="#231f20"/>
  <rect x="563.36" y="908.43" width="40.84" height="40.84" fill="#231f20"/>
  <rect x="563.36" y="951.64" width="40.84" height="40.84" fill="#231f20"/>
  <rect x="519.97" y="908.43" width="40.84" height="40.84" fill="#231f20"/>
  <rect x="519.97" y="951.64" width="40.84" height="40.84" fill="#231f20"/>
  <rect x="347.36" y="951.64" width="40.84" height="40.84" fill="#231f20"/>
  <rect x="390.56" y="994.73" width="40.84" height="40.84" fill="#231f20"/>
  <rect x="433.37" y="994.73" width="40.84" height="40.84" fill="#231f20"/>
  <rect x="347.36" y="994.73" width="40.84" height="40.84" fill="#231f20"/>
  <rect x="303.95" y="908.43" width="40.84" height="40.84" fill="#231f20"/>
  <rect x="260.75" y="908.43" width="40.84" height="40.84" fill="#231f20"/>
  <rect x="303.95" y="951.64" width="40.84" height="40.84" fill="#231f20"/>
  <rect x="260.75" y="951.64" width="40.84" height="40.84" fill="#231f20"/>
  <rect x="303.95" y="994.73" width="40.84" height="40.84" fill="#231f20"/>
  <rect x="390.56" y="1037.75" width="40.84" height="40.84" fill="#231f20"/>
  <rect x="347.36" y="1037.75" width="40.84" height="40.84" fill="#231f20"/>
  <rect x="303.95" y="1037.75" width="40.84" height="40.84" fill="#231f20"/>
  <rect x="260.75" y="994.73" width="40.84" height="40.84" fill="#231f20"/>
  <rect x="390.37" y="778.86" width="40.84" height="40.84" fill="#231f20"/>
  <rect x="490.44" y="490.44" width="13.39" height="13.39" fill="#231f20"/>
  <rect x="490.44" y="533.37" width="13.39" height="13.39" fill="#231f20"/>
  <rect x="490.44" y="447.28" width="13.39" height="13.39" fill="#231f20"/>
  <rect x="533.67" y="447.28" width="13.39" height="13.39" fill="#231f20"/>
  <rect x="533.67" y="490.44" width="13.39" height="13.39" fill="#231f20"/>
  <rect x="404.06" y="490.44" width="13.39" height="13.39" fill="#231f20"/>
  <rect x="317.62" y="490.44" width="13.39" height="13.39" fill="#231f20"/>
  <rect x="447.29" y="490.44" width="13.39" height="13.39" fill="#231f20"/>
  <rect x="360.86" y="618.25" width="13.39" height="13.39" fill="#231f20"/>
  <rect x="360.86" y="576.3" width="13.39" height="13.39" fill="#231f20"/>
  <rect x="317.62" y="618.25" width="13.39" height="13.39" fill="#231f20"/>
  <rect x="317.62" y="576.3" width="13.39" height="13.39" fill="#231f20"/>
  <rect x="231.15" y="618.25" width="13.39" height="13.39" fill="#231f20"/>
  <rect x="274.39" y="576.3" width="13.39" height="13.39" fill="#231f20"/>
  <rect x="404.09" y="576.3" width="13.39" height="13.39" fill="#231f20"/>
  <rect x="404.09" y="618.25" width="13.39" height="13.39" fill="#231f20"/>
  <rect x="490.44" y="619.56" width="13.39" height="13.39" fill="#231f20"/>
  <rect x="533.67" y="619.56" width="13.39" height="13.39" fill="#231f20"/>
  <rect x="533.67" y="662.83" width="13.39" height="13.39" fill="#231f20"/>
  <rect x="490.44" y="576.3" width="13.39" height="13.39" fill="#231f20"/>
  <rect x="360.86" y="665.05" width="13.39" height="13.39" fill="#231f20"/>
  <rect x="360.86" y="707.98" width="13.39" height="13.39" fill="#231f20"/>
  <rect x="360.86" y="792.86" width="13.39" height="13.39" fill="#231f20"/>
  <rect x="360.86" y="750.91" width="13.39" height="13.39" fill="#231f20"/>
  <rect x="533.67" y="576.3" width="13.39" height="13.39" fill="#231f20"/>
  <rect x="533.67" y="533.06" width="13.39" height="13.39" fill="#231f20"/>
  <rect x="577.02" y="706.05" width="13.39" height="13.39" fill="#231f20"/>
  <rect x="577.02" y="750.64" width="13.39" height="13.39" fill="#231f20"/>
  <rect x="620.32" y="750.64" width="13.39" height="13.39" fill="#231f20"/>
  <rect x="577.02" y="664.1" width="13.39" height="13.39" fill="#231f20"/>
  <rect x="577.02" y="619.56" width="13.39" height="13.39" fill="#231f20"/>
  <rect x="620.32" y="706.05" width="13.39" height="13.39" fill="#231f20"/>
  <rect x="620.32" y="664.1" width="13.39" height="13.39" fill="#231f20"/>
  <rect x="620.02" y="964.04" width="13.39" height="13.39" fill="#231f20"/>
  <rect x="620.02" y="1008.63" width="13.39" height="13.39" fill="#231f20"/>
  <rect x="663.32" y="1008.63" width="13.39" height="13.39" fill="#231f20"/>
  <rect x="532.07" y="1008.63" width="13.39" height="13.39" fill="#231f20"/>
  <rect x="490.49" y="1008.63" width="13.39" height="13.39" fill="#231f20"/>
  <rect x="575.37" y="1008.63" width="13.39" height="13.39" fill="#231f20"/>
  <rect x="620.02" y="922.09" width="13.39" height="13.39" fill="#231f20"/>
  <rect x="663.32" y="964.04" width="13.39" height="13.39" fill="#231f20"/>
  <rect x="663.32" y="922.09" width="13.39" height="13.39" fill="#231f20"/>
  <rect x="620.32" y="619.56" width="13.39" height="13.39" fill="#231f20"/>
  <rect x="533.53" y="878.95" width="13.39" height="13.39" fill="#231f20"/>
  <rect x="576.77" y="878.95" width="13.39" height="13.39" fill="#231f20"/>
  <rect x="620.12" y="878.95" width="13.39" height="13.39" fill="#231f20"/>
  <rect x="361" y="878.95" width="13.39" height="13.39" fill="#231f20"/>
  <rect x="404.23" y="878.95" width="13.39" height="13.39" fill="#231f20"/>
  <rect x="447.58" y="878.95" width="13.39" height="13.39" fill="#231f20"/>
  <rect x="663.41" y="878.95" width="13.39" height="13.39" fill="#231f20"/>
  <rect x="706.98" y="878.95" width="13.39" height="13.39" fill="#231f20"/>
  <rect x="750.21" y="878.95" width="13.39" height="13.39" fill="#231f20"/>
  <rect x="706.98" y="835.67" width="13.39" height="13.39" fill="#231f20"/>
  <rect x="750.21" y="835.67" width="13.39" height="13.39" fill="#231f20"/>
  <rect x="620.32" y="576.52" width="13.39" height="13.39" fill="#231f20"/>
  <rect x="620.32" y="533.28" width="13.39" height="13.39" fill="#231f20"/>
  <rect x="490.44" y="402.59" width="13.39" height="13.39" fill="#231f20"/>
  <rect x="490.44" y="359.43" width="13.39" height="13.39" fill="#231f20"/>
  <rect x="533.67" y="359.43" width="13.39" height="13.39" fill="#231f20"/>
  <rect x="533.67" y="402.59" width="13.39" height="13.39" fill="#231f20"/>
  <rect x="533.67" y="145.33" width="13.39" height="13.39" fill="#231f20"/>
  <rect x="533.67" y="186.26" width="13.39" height="13.39" fill="#231f20"/>
  <rect x="533.67" y="230.04" width="13.39" height="13.39" fill="#231f20"/>
  <rect x="533.67" y="57.48" width="13.39" height="13.39" fill="#231f20"/>
  <rect x="533.67" y="15" width="13.39" height="13.39" fill="#231f20"/>
  <rect x="533.67" y="100.64" width="13.39" height="13.39" fill="#231f20"/>
  <rect x="620.37" y="447.28" width="13.39" height="13.39" fill="#231f20"/>
  <rect x="620.37" y="489.99" width="13.39" height="13.39" fill="#231f20"/>
  <rect x="620.37" y="359.43" width="13.39" height="13.39" fill="#231f20"/>
  <rect x="620.37" y="402.14" width="13.39" height="13.39" fill="#231f20"/>
  <rect x="447.26" y="318.07" width="13.39" height="13.39" fill="#231f20"/>
  <rect x="447.26" y="274.91" width="13.39" height="13.39" fill="#231f20"/>
  <rect x="490.49" y="274.91" width="13.39" height="13.39" fill="#231f20"/>
  <rect x="490.49" y="318.07" width="13.39" height="13.39" fill="#231f20"/>
  <rect x="490.49" y="186.26" width="13.39" height="13.39" fill="#231f20"/>
  <rect x="490.49" y="229.42" width="13.39" height="13.39" fill="#231f20"/>
  <rect x="447.26" y="186.26" width="13.39" height="13.39" fill="#231f20"/>
  <rect x="447.26" y="229.42" width="13.39" height="13.39" fill="#231f20"/>
  <rect x="620.37" y="318.07" width="13.39" height="13.39" fill="#231f20"/>
  <rect x="620.37" y="274.91" width="13.39" height="13.39" fill="#231f20"/>
  <rect x="620.37" y="231.1" width="13.39" height="13.39" fill="#231f20"/>
  <rect x="663.6" y="274.91" width="13.39" height="13.39" fill="#231f20"/>
  <rect x="663.6" y="318.07" width="13.39" height="13.39" fill="#231f20"/>
  <rect x="663.6" y="359.43" width="13.39" height="13.39" fill="#231f20"/>
</svg>