<?xml version="1.0" encoding="UTF-8"?>
<svg id="_12" data-name="12" xmlns="http://www.w3.org/2000/svg" viewBox="0 0 1080 1080">
  <rect x="562.87" y="648.59" width="40.84" height="40.84" fill="#231f20"/>
  <rect x="605.81" y="648.59" width="40.84" height="40.84" fill="#231f20"/>
  <rect x="562.87" y="605.29" width="40.84" height="40.84" fill="#231f20"/>
  <rect x="605.81" y="605.29" width="40.84" height="40.84" fill="#231f20"/>
  <rect x="562.87" y="561.99" width="40.84" height="40.84" fill="#231f20"/>
  <rect x="605.81" y="561.99" width="40.84" height="40.84" fill="#231f20"/>
  <rect x="562.87" y="518.69" width="40.84" height="40.84" fill="#231f20"/>
  <rect x="605.81" y="518.69" width="40.84" height="40.84" fill="#231f20"/>
  <rect x="562.87" y="475.79" width="40.84" height="40.84" fill="#231f20"/>
  <rect x="605.81" y="475.79" width="40.84" height="40.84" fill="#231f20"/>
  <rect x="562.87" y="864.69" width="40.84" height="40.84" fill="#231f20"/>
  <rect x="605.81" y="864.69" width="40.84" height="40.84" fill="#231f20"/>
  <rect x="562.87" y="821.39" width="40.84" height="40.84" fill="#231f20"/>
  <rect x="605.81" y="821.39" width="40.84" height="40.84" fill="#231f20"/>
  <rect x="562.87" y="778.09" width="40.84" height="40.84" fill="#231f20"/>
  <rect x="605.81" y="778.09" width="40.84" height="40.84" fill="#231f20"/>
  <rect x="562.87" y="734.79" width="40.84" height="40.84" fill="#231f20"/>
  <rect x="605.81" y="734.79" width="40.84" height="40.84" fill="#231f20"/>
  <rect x="562.87" y="1037.49" width="40.84" height="40.84" fill="#231f20"/>
  <rect x="605.81" y="1037.49" width="40.84" height="40.84" fill="#231f20"/>
  <rect x="562.87" y="994.19" width="40.84" height="40.84" fill="#231f20"/>
  <rect x="605.81" y="994.19" width="40.84" height="40.84" fill="#231f20"/>
  <rect x="562.87" y="950.89" width="40.84" height="40.84" fill="#231f20"/>
  <rect x="605.81" y="950.89" width="40.84" height="40.84" fill="#231f20"/>
  <rect x="562.87" y="907.59" width="40.84" height="40.84" fill="#231f20"/>
  <rect x="605.81" y="907.59" width="40.84" height="40.84" fill="#231f20"/>
  <rect x="562.87" y="691.89" width="40.84" height="40.84" fill="#231f20"/>
  <rect x="605.81" y="691.89" width="40.84" height="40.84" fill="#231f20"/>
  <rect x="562.87" y="432.49" width="40.84" height="40.84" fill="#231f20"/>
  <rect x="605.81" y="432.49" width="40.84" height="40.84" fill="#231f20"/>
  <rect x="562.87" y="389.19" width="40.84" height="40.84" fill="#231f20"/>
  <rect x="605.81" y="389.19" width="40.84" height="40.84" fill="#231f20"/>
  <rect x="562.87" y="346.29" width="40.84" height="40.84" fill="#231f20"/>
  <rect x="605.81" y="346.29" width="40.84" height="40.84" fill="#231f20"/>
  <rect x="562.87" y="302.99" width="40.84" height="40.84" fill="#231f20"/>
  <rect x="605.81" y="302.99" width="40.84" height="40.84" fill="#231f20"/>
  <rect x="562.87" y="259.69" width="40.84" height="40.84" fill="#231f20"/>
  <rect x="605.81" y="259.69" width="40.84" height="40.84" fill="#231f20"/>
  <rect x="562.87" y="216.79" width="40.84" height="40.84" fill="#231f20"/>
  <rect x="605.81" y="216.79" width="40.84" height="40.84" fill="#231f20"/>
  <rect x="562.87" y="173.5" width="40.84" height="40.84" fill="#231f20"/>
  <rect x="605.81" y="173.5" width="40.84" height="40.84" fill="#231f20"/>
  <rect x="562.87" y="130.04" width="40.84" height="40.84" fill="#231f20"/>
  <rect x="605.81" y="130.04" width="40.84" height="40.84" fill="#231f20"/>
  <rect x="562.87" y="87.14" width="40.84" height="40.84" fill="#231f20"/>
  <rect x="605.81" y="87.14" width="40.84" height="40.84" fill="#231f20"/>
  <rect x="562.87" y="43.84" width="40.84" height="40.84" fill="#231f20"/>
  <rect x="562.87" y="1.33" width="40.84" height="40.84" fill="#231f20"/>
  <rect x="605.81" y="43.84" width="40.84" height="40.84" fill="#231f20"/>
  <rect x="662.27" y="619.02" width="13.39" height="13.39" fill="#231f20"/>
  <rect x="662.27" y="662.32" width="13.39" height="13.39" fill="#231f20"/>
  <rect x="705.87" y="662.32" width="13.39" height="13.39" fill="#231f20"/>
  <rect x="749.69" y="662.32" width="13.39" height="13.39" fill="#231f20"/>
  <rect x="793.29" y="662.32" width="13.39" height="13.39" fill="#231f20"/>
  <rect x="705.87" y="704.92" width="13.39" height="13.39" fill="#231f20"/>
  <rect x="749.69" y="704.92" width="13.39" height="13.39" fill="#231f20"/>
  <rect x="793.29" y="704.92" width="13.39" height="13.39" fill="#231f20"/>
  <rect x="662.27" y="705.42" width="13.39" height="13.39" fill="#231f20"/>
  <rect x="662.27" y="748.51" width="13.39" height="13.39" fill="#231f20"/>
  <rect x="837.11" y="619.02" width="13.39" height="13.39" fill="#231f20"/>
  <rect x="837.11" y="575.31" width="13.39" height="13.39" fill="#231f20"/>
  <rect x="837.11" y="532.92" width="13.39" height="13.39" fill="#231f20"/>
  <rect x="837.11" y="662.32" width="13.39" height="13.39" fill="#231f20"/>
  <rect x="837.11" y="705.42" width="13.39" height="13.39" fill="#231f20"/>
  <rect x="837.11" y="748.51" width="13.39" height="13.39" fill="#231f20"/>
  <rect x="837.11" y="791.92" width="13.39" height="13.39" fill="#231f20"/>
  <rect x="837.11" y="835.22" width="13.39" height="13.39" fill="#231f20"/>
  <rect x="837.11" y="878.32" width="13.39" height="13.39" fill="#231f20"/>
  <rect x="837.11" y="921.42" width="13.39" height="13.39" fill="#231f20"/>
  <rect x="837.11" y="964.82" width="13.39" height="13.39" fill="#231f20"/>
  <rect x="837.11" y="1007.92" width="13.39" height="13.39" fill="#231f20"/>
  <rect x="837.11" y="1051.02" width="13.39" height="13.39" fill="#231f20"/>
  <rect x="662.27" y="793.24" width="13.39" height="13.39" fill="#231f20"/>
  <rect x="662.27" y="836.54" width="13.39" height="13.39" fill="#231f20"/>
  <rect x="662.27" y="879.64" width="13.39" height="13.39" fill="#231f20"/>
  <rect x="662.27" y="922.74" width="13.39" height="13.39" fill="#231f20"/>
  <rect x="662.27" y="964.82" width="13.39" height="13.39" fill="#231f20"/>
  <rect x="662.27" y="1007.92" width="13.39" height="13.39" fill="#231f20"/>
  <rect x="662.27" y="1051.02" width="13.39" height="13.39" fill="#231f20"/>
  <rect x="532.93" y="619.02" width="13.39" height="13.39" fill="#231f20"/>
  <rect x="532.93" y="662.32" width="13.39" height="13.39" fill="#231f20"/>
  <rect x="532.93" y="705.42" width="13.39" height="13.39" fill="#231f20"/>
  <rect x="532.93" y="748.51" width="13.39" height="13.39" fill="#231f20"/>
  <rect x="532.93" y="793.24" width="13.39" height="13.39" fill="#231f20"/>
  <rect x="532.93" y="836.54" width="13.39" height="13.39" fill="#231f20"/>
  <rect x="532.93" y="879.64" width="13.39" height="13.39" fill="#231f20"/>
  <rect x="532.93" y="922.74" width="13.39" height="13.39" fill="#231f20"/>
  <rect x="532.93" y="964.82" width="13.39" height="13.39" fill="#231f20"/>
  <rect x="532.93" y="1007.92" width="13.39" height="13.39" fill="#231f20"/>
  <rect x="532.93" y="1051.02" width="13.39" height="13.39" fill="#231f20"/>
  <rect x="532.93" y="144.02" width="13.39" height="13.39" fill="#231f20"/>
  <rect x="532.93" y="187.32" width="13.39" height="13.39" fill="#231f20"/>
  <rect x="532.93" y="230.42" width="13.39" height="13.39" fill="#231f20"/>
  <rect x="532.93" y="14.37" width="13.39" height="13.39" fill="#231f20"/>
  <rect x="532.93" y="57.67" width="13.39" height="13.39" fill="#231f20"/>
  <rect x="532.93" y="100.77" width="13.39" height="13.39" fill="#231f20"/>
  <rect x="532.93" y="273.52" width="13.39" height="13.39" fill="#231f20"/>
  <rect x="532.93" y="318.24" width="13.39" height="13.39" fill="#231f20"/>
  <rect x="532.93" y="361.54" width="13.39" height="13.39" fill="#231f20"/>
  <rect x="532.93" y="404.64" width="13.39" height="13.39" fill="#231f20"/>
  <rect x="532.93" y="447.74" width="13.39" height="13.39" fill="#231f20"/>
  <rect x="532.93" y="489.82" width="13.39" height="13.39" fill="#231f20"/>
  <rect x="532.93" y="532.92" width="13.39" height="13.39" fill="#231f20"/>
  <rect x="532.93" y="576.02" width="13.39" height="13.39" fill="#231f20"/>
  <rect x="662.27" y="144.02" width="13.39" height="13.39" fill="#231f20"/>
  <rect x="662.27" y="187.32" width="13.39" height="13.39" fill="#231f20"/>
  <rect x="662.27" y="230.42" width="13.39" height="13.39" fill="#231f20"/>
  <rect x="662.27" y="14.37" width="13.39" height="13.39" fill="#231f20"/>
  <rect x="619.54" y="14.37" width="13.39" height="13.39" fill="#231f20"/>
  <rect x="662.27" y="57.67" width="13.39" height="13.39" fill="#231f20"/>
  <rect x="662.27" y="100.77" width="13.39" height="13.39" fill="#231f20"/>
  <rect x="662.27" y="273.52" width="13.39" height="13.39" fill="#231f20"/>
  <rect x="662.27" y="318.24" width="13.39" height="13.39" fill="#231f20"/>
  <rect x="662.27" y="361.54" width="13.39" height="13.39" fill="#231f20"/>
  <rect x="662.27" y="404.64" width="13.39" height="13.39" fill="#231f20"/>
  <rect x="662.27" y="447.74" width="13.39" height="13.39" fill="#231f20"/>
  <rect x="662.27" y="489.82" width="13.39" height="13.39" fill="#231f20"/>
  <rect x="662.27" y="532.92" width="13.39" height="13.39" fill="#231f20"/>
  <rect x="662.27" y="576.02" width="13.39" height="13.39" fill="#231f20"/>
</svg>