<?xml version="1.0" encoding="UTF-8"?>
<svg id="_13" data-name="13" xmlns="http://www.w3.org/2000/svg" viewBox="0 0 1080 1080">
  <rect x="217.52" y="778.77" width="40.84" height="40.84" fill="#231f20"/>
  <rect x="217.52" y="735.5" width="40.84" height="40.84" fill="#231f20"/>
  <rect x="260.72" y="735.5" width="40.84" height="40.84" fill="#231f20"/>
  <rect x="217.52" y="692.24" width="40.84" height="40.84" fill="#231f20"/>
  <rect x="174.31" y="778.77" width="40.84" height="40.84" fill="#231f20"/>
  <rect x="260.72" y="822.03" width="40.84" height="40.84" fill="#231f20"/>
  <rect x="217.52" y="822.03" width="40.84" height="40.84" fill="#231f20"/>
  <rect x="303.95" y="865.29" width="40.84" height="40.84" fill="#231f20"/>
  <rect x="260.75" y="865.29" width="40.84" height="40.84" fill="#231f20"/>
  <rect x="433.56" y="995.08" width="40.84" height="40.84" fill="#231f20"/>
  <rect x="303.95" y="908.55" width="40.84" height="40.84" fill="#231f20"/>
  <rect x="260.75" y="908.55" width="40.84" height="40.84" fill="#231f20"/>
  <rect x="303.95" y="951.82" width="40.84" height="40.84" fill="#231f20"/>
  <rect x="260.75" y="951.82" width="40.84" height="40.84" fill="#231f20"/>
  <rect x="390.35" y="995.08" width="40.84" height="40.84" fill="#231f20"/>
  <rect x="347.15" y="995.08" width="40.84" height="40.84" fill="#231f20"/>
  <rect x="563.17" y="1037.88" width="40.84" height="40.84" fill="#231f20"/>
  <rect x="519.97" y="1037.88" width="40.84" height="40.84" fill="#231f20"/>
  <rect x="476.76" y="1037.88" width="40.84" height="40.84" fill="#231f20"/>
  <rect x="563.17" y="995.08" width="40.84" height="40.84" fill="#231f20"/>
  <rect x="519.97" y="995.08" width="40.84" height="40.84" fill="#231f20"/>
  <rect x="476.76" y="995.08" width="40.84" height="40.84" fill="#231f20"/>
  <rect x="692.78" y="1037.88" width="40.84" height="40.84" fill="#231f20"/>
  <rect x="649.58" y="1037.88" width="40.84" height="40.84" fill="#231f20"/>
  <rect x="606.37" y="1037.88" width="40.84" height="40.84" fill="#231f20"/>
  <rect x="692.76" y="994.72" width="40.84" height="40.84" fill="#231f20"/>
  <rect x="649.56" y="994.72" width="40.84" height="40.84" fill="#231f20"/>
  <rect x="735.95" y="1037.88" width="40.84" height="40.84" fill="#231f20"/>
  <rect x="779.13" y="994.72" width="40.84" height="40.84" fill="#231f20"/>
  <rect x="735.93" y="994.72" width="40.84" height="40.84" fill="#231f20"/>
  <rect x="822.36" y="951.48" width="40.84" height="40.84" fill="#231f20"/>
  <rect x="822.34" y="994.72" width="40.84" height="40.84" fill="#231f20"/>
  <rect x="908.73" y="951.48" width="40.84" height="40.84" fill="#231f20"/>
  <rect x="908.73" y="908.23" width="40.84" height="40.84" fill="#231f20"/>
  <rect x="865.52" y="951.48" width="40.84" height="40.84" fill="#231f20"/>
  <rect x="951.93" y="864.99" width="40.84" height="40.84" fill="#231f20"/>
  <rect x="995.25" y="778.77" width="40.84" height="40.84" fill="#231f20"/>
  <rect x="303.95" y="995.08" width="40.84" height="40.84" fill="#231f20"/>
  <rect x="217.55" y="865.29" width="40.84" height="40.84" fill="#231f20"/>
  <rect x="174.31" y="735.5" width="40.84" height="40.84" fill="#231f20"/>
  <rect x="174.31" y="692.24" width="40.84" height="40.84" fill="#231f20"/>
  <rect x="217.52" y="648.98" width="40.84" height="40.84" fill="#231f20"/>
  <rect x="174.31" y="648.98" width="40.84" height="40.84" fill="#231f20"/>
  <rect x="131.11" y="692.24" width="40.84" height="40.84" fill="#231f20"/>
  <rect x="131.11" y="648.98" width="40.84" height="40.84" fill="#231f20"/>
  <rect x="87.91" y="648.98" width="40.84" height="40.84" fill="#231f20"/>
  <rect x="44.7" y="648.98" width="40.84" height="40.84" fill="#231f20"/>
  <rect x="131.11" y="606.01" width="40.84" height="40.84" fill="#231f20"/>
  <rect x="87.91" y="606.01" width="40.84" height="40.84" fill="#231f20"/>
  <rect x="131.11" y="562.75" width="40.84" height="40.84" fill="#231f20"/>
  <rect x="87.91" y="562.75" width="40.84" height="40.84" fill="#231f20"/>
  <rect x="44.7" y="606.01" width="40.84" height="40.84" fill="#231f20"/>
  <rect x="44.7" y="562.75" width="40.84" height="40.84" fill="#231f20"/>
  <rect x="87.91" y="519.11" width="40.84" height="40.84" fill="#231f20"/>
  <rect x="44.7" y="519.11" width="40.84" height="40.84" fill="#231f20"/>
  <rect x="87.91" y="476.14" width="40.84" height="40.84" fill="#231f20"/>
  <rect x="87.91" y="432.88" width="40.84" height="40.84" fill="#231f20"/>
  <rect x="44.7" y="476.14" width="40.84" height="40.84" fill="#231f20"/>
  <rect x="44.7" y="432.88" width="40.84" height="40.84" fill="#231f20"/>
  <rect x="131.15" y="389.62" width="40.84" height="40.84" fill="#231f20"/>
  <rect x="131.15" y="433.07" width="40.84" height="40.84" fill="#231f20"/>
  <rect x="87.95" y="389.62" width="40.84" height="40.84" fill="#231f20"/>
  <rect x="131.15" y="346.65" width="40.84" height="40.84" fill="#231f20"/>
  <rect x="131.15" y="303.39" width="40.84" height="40.84" fill="#231f20"/>
  <rect x="87.95" y="346.65" width="40.84" height="40.84" fill="#231f20"/>
  <rect x="87.95" y="303.39" width="40.84" height="40.84" fill="#231f20"/>
  <rect x="217.55" y="303.68" width="40.84" height="40.84" fill="#231f20"/>
  <rect x="174.35" y="303.68" width="40.84" height="40.84" fill="#231f20"/>
  <rect x="174.35" y="346.65" width="40.84" height="40.84" fill="#231f20"/>
  <rect x="174.35" y="389.62" width="40.84" height="40.84" fill="#231f20"/>
  <rect x="174.35" y="216.95" width="40.84" height="40.84" fill="#231f20"/>
  <rect x="217.55" y="216.95" width="40.84" height="40.84" fill="#231f20"/>
  <rect x="260.72" y="216.95" width="40.84" height="40.84" fill="#231f20"/>
  <rect x="217.55" y="260.12" width="40.84" height="40.84" fill="#231f20"/>
  <rect x="260.72" y="173.77" width="40.84" height="40.84" fill="#231f20"/>
  <rect x="217.52" y="173.77" width="40.84" height="40.84" fill="#231f20"/>
  <rect x="303.95" y="130.59" width="40.84" height="40.84" fill="#231f20"/>
  <rect x="260.75" y="130.59" width="40.84" height="40.84" fill="#231f20"/>
  <rect x="347.13" y="173.77" width="40.84" height="40.84" fill="#231f20"/>
  <rect x="303.93" y="173.77" width="40.84" height="40.84" fill="#231f20"/>
  <rect x="347.16" y="130.59" width="40.84" height="40.84" fill="#231f20"/>
  <rect x="433.57" y="130.59" width="40.84" height="40.84" fill="#231f20"/>
  <rect x="390.36" y="130.59" width="40.84" height="40.84" fill="#231f20"/>
  <rect x="433.57" y="173.77" width="40.84" height="40.84" fill="#231f20"/>
  <rect x="390.36" y="173.77" width="40.84" height="40.84" fill="#231f20"/>
  <rect x="476.77" y="173.77" width="40.84" height="40.84" fill="#231f20"/>
  <rect x="520" y="130.59" width="40.84" height="40.84" fill="#231f20"/>
  <rect x="476.79" y="130.59" width="40.84" height="40.84" fill="#231f20"/>
  <rect x="563.18" y="173.77" width="40.84" height="40.84" fill="#231f20"/>
  <rect x="519.97" y="173.77" width="40.84" height="40.84" fill="#231f20"/>
  <rect x="563.2" y="130.59" width="40.84" height="40.84" fill="#231f20"/>
  <rect x="649.61" y="130.59" width="40.84" height="40.84" fill="#231f20"/>
  <rect x="606.41" y="130.59" width="40.84" height="40.84" fill="#231f20"/>
  <rect x="520" y="87.42" width="40.84" height="40.84" fill="#231f20"/>
  <rect x="476.79" y="87.42" width="40.84" height="40.84" fill="#231f20"/>
  <rect x="563.2" y="87.42" width="40.84" height="40.84" fill="#231f20"/>
  <rect x="649.61" y="87.42" width="40.84" height="40.84" fill="#231f20"/>
  <rect x="606.41" y="87.42" width="40.84" height="40.84" fill="#231f20"/>
  <rect x="692.82" y="87.42" width="40.84" height="40.84" fill="#231f20"/>
  <rect x="736.02" y="87.42" width="40.84" height="40.84" fill="#231f20"/>
  <rect x="822.43" y="130.64" width="40.84" height="40.84" fill="#231f20"/>
  <rect x="779.22" y="87.42" width="40.84" height="40.84" fill="#231f20"/>
  <rect x="649.61" y="44.24" width="40.84" height="40.84" fill="#231f20"/>
  <rect x="606.41" y="44.24" width="40.84" height="40.84" fill="#231f20"/>
  <rect x="649.61" y="173.77" width="40.84" height="40.84" fill="#231f20"/>
  <rect x="606.41" y="173.77" width="40.84" height="40.84" fill="#231f20"/>
  <rect x="736.02" y="130.64" width="40.84" height="40.84" fill="#231f20"/>
  <rect x="692.82" y="130.64" width="40.84" height="40.84" fill="#231f20"/>
  <rect x="736.02" y="173.82" width="40.84" height="40.84" fill="#231f20"/>
  <rect x="779.22" y="130.64" width="40.84" height="40.84" fill="#231f20"/>
  <rect x="779.22" y="173.82" width="40.84" height="40.84" fill="#231f20"/>
  <rect x="822.43" y="173.82" width="40.84" height="40.84" fill="#231f20"/>
  <rect x="736.02" y="217.19" width="40.84" height="40.84" fill="#231f20"/>
  <rect x="779.22" y="217.19" width="40.84" height="40.84" fill="#231f20"/>
  <rect x="822.43" y="217.19" width="40.84" height="40.84" fill="#231f20"/>
  <rect x="822.43" y="260.37" width="40.84" height="40.84" fill="#231f20"/>
  <rect x="865.63" y="173.82" width="40.84" height="40.84" fill="#231f20"/>
  <rect x="865.63" y="217.19" width="40.84" height="40.84" fill="#231f20"/>
  <rect x="865.63" y="260.37" width="40.84" height="40.84" fill="#231f20"/>
  <rect x="908.75" y="260.39" width="40.84" height="40.84" fill="#231f20"/>
  <rect x="908.75" y="303.57" width="40.84" height="40.84" fill="#231f20"/>
  <rect x="951.95" y="260.39" width="40.84" height="40.84" fill="#231f20"/>
  <rect x="951.95" y="303.57" width="40.84" height="40.84" fill="#231f20"/>
  <rect x="951.95" y="346.74" width="40.84" height="40.84" fill="#231f20"/>
  <rect x="995.15" y="346.74" width="40.84" height="40.84" fill="#231f20"/>
  <rect x="995.16" y="389.92" width="40.84" height="40.84" fill="#231f20"/>
  <rect x="692.82" y="173.82" width="40.84" height="40.84" fill="#231f20"/>
  <rect x="433.57" y="87.42" width="40.84" height="40.84" fill="#231f20"/>
  <rect x="390.36" y="87.42" width="40.84" height="40.84" fill="#231f20"/>
  <rect x="519.95" y="44.24" width="40.84" height="40.84" fill="#231f20"/>
  <rect x="476.75" y="44.24" width="40.84" height="40.84" fill="#231f20"/>
  <rect x="174.35" y="260.12" width="40.84" height="40.84" fill="#231f20"/>
  <rect x="131.15" y="260.12" width="40.84" height="40.84" fill="#231f20"/>
  <rect x="318.17" y="792.49" width="13.39" height="13.39" fill="#231f20"/>
  <rect x="318.17" y="835.75" width="13.39" height="13.39" fill="#231f20"/>
  <rect x="318.17" y="749.23" width="13.39" height="13.39" fill="#231f20"/>
  <rect x="359.69" y="749.23" width="13.39" height="13.39" fill="#231f20"/>
  <rect x="188.04" y="879.02" width="13.39" height="13.39" fill="#231f20"/>
  <rect x="144.88" y="879.02" width="13.39" height="13.39" fill="#231f20"/>
  <rect x="231.27" y="922.28" width="13.39" height="13.39" fill="#231f20"/>
  <rect x="231.27" y="965.54" width="13.39" height="13.39" fill="#231f20"/>
  <rect x="360.91" y="922.28" width="13.39" height="13.39" fill="#231f20"/>
  <rect x="360.91" y="965.54" width="13.39" height="13.39" fill="#231f20"/>
  <rect x="360.91" y="835.67" width="13.39" height="13.39" fill="#231f20"/>
  <rect x="360.91" y="878.93" width="13.39" height="13.39" fill="#231f20"/>
  <rect x="404.08" y="922.28" width="13.39" height="13.39" fill="#231f20"/>
  <rect x="404.08" y="965.54" width="13.39" height="13.39" fill="#231f20"/>
  <rect x="447.29" y="922.28" width="13.39" height="13.39" fill="#231f20"/>
  <rect x="447.29" y="965.54" width="13.39" height="13.39" fill="#231f20"/>
  <rect x="405.15" y="1051.12" width="13.39" height="13.39" fill="#231f20"/>
  <rect x="360.91" y="1051.12" width="13.39" height="13.39" fill="#231f20"/>
  <rect x="447.29" y="1051.12" width="13.39" height="13.39" fill="#231f20"/>
  <rect x="490.46" y="922.28" width="13.39" height="13.39" fill="#231f20"/>
  <rect x="490.46" y="965.54" width="13.39" height="13.39" fill="#231f20"/>
  <rect x="533.7" y="922.28" width="13.39" height="13.39" fill="#231f20"/>
  <rect x="533.7" y="965.54" width="13.39" height="13.39" fill="#231f20"/>
  <rect x="576.91" y="922.28" width="13.39" height="13.39" fill="#231f20"/>
  <rect x="533.7" y="879.92" width="13.39" height="13.39" fill="#231f20"/>
  <rect x="576.91" y="879.92" width="13.39" height="13.39" fill="#231f20"/>
  <rect x="576.91" y="965.54" width="13.39" height="13.39" fill="#231f20"/>
  <rect x="620.09" y="922.28" width="13.39" height="13.39" fill="#231f20"/>
  <rect x="620.09" y="965.54" width="13.39" height="13.39" fill="#231f20"/>
  <rect x="620.09" y="1008.8" width="13.39" height="13.39" fill="#231f20"/>
  <rect x="748.57" y="878.71" width="13.39" height="13.39" fill="#231f20"/>
  <rect x="662.11" y="965.54" width="13.39" height="13.39" fill="#231f20"/>
  <rect x="705.36" y="922.28" width="13.39" height="13.39" fill="#231f20"/>
  <rect x="705.36" y="965.54" width="13.39" height="13.39" fill="#231f20"/>
  <rect x="748.57" y="922.28" width="13.39" height="13.39" fill="#231f20"/>
  <rect x="748.57" y="965.54" width="13.39" height="13.39" fill="#231f20"/>
  <rect x="791.74" y="922.28" width="13.39" height="13.39" fill="#231f20"/>
  <rect x="834.92" y="922.28" width="13.39" height="13.39" fill="#231f20"/>
  <rect x="878.09" y="922.28" width="13.39" height="13.39" fill="#231f20"/>
  <rect x="791.74" y="965.54" width="13.39" height="13.39" fill="#231f20"/>
  <rect x="748.57" y="836.66" width="13.39" height="13.39" fill="#231f20"/>
  <rect x="748.57" y="791.44" width="13.39" height="13.39" fill="#231f20"/>
  <rect x="748.57" y="747.44" width="13.39" height="13.39" fill="#231f20"/>
  <rect x="748.57" y="704.8" width="13.39" height="13.39" fill="#231f20"/>
  <rect x="836.36" y="836.66" width="13.39" height="13.39" fill="#231f20"/>
  <rect x="879.4" y="836.66" width="13.39" height="13.39" fill="#231f20"/>
  <rect x="879.4" y="791.44" width="13.39" height="13.39" fill="#231f20"/>
  <rect x="836.36" y="791.44" width="13.39" height="13.39" fill="#231f20"/>
  <rect x="836.36" y="747.44" width="13.39" height="13.39" fill="#231f20"/>
  <rect x="791.74" y="791.44" width="13.39" height="13.39" fill="#231f20"/>
  <rect x="791.74" y="747.44" width="13.39" height="13.39" fill="#231f20"/>
  <rect x="836.36" y="704.8" width="13.39" height="13.39" fill="#231f20"/>
  <rect x="791.74" y="704.8" width="13.39" height="13.39" fill="#231f20"/>
  <rect x="748.57" y="661.67" width="13.39" height="13.39" fill="#231f20"/>
  <rect x="706.47" y="878.71" width="13.39" height="13.39" fill="#231f20"/>
  <rect x="706.47" y="836.66" width="13.39" height="13.39" fill="#231f20"/>
  <rect x="706.47" y="791.44" width="13.39" height="13.39" fill="#231f20"/>
  <rect x="706.47" y="747.44" width="13.39" height="13.39" fill="#231f20"/>
  <rect x="663.43" y="878.71" width="13.39" height="13.39" fill="#231f20"/>
  <rect x="663.43" y="836.66" width="13.39" height="13.39" fill="#231f20"/>
  <rect x="663.43" y="791.44" width="13.39" height="13.39" fill="#231f20"/>
  <rect x="663.43" y="747.44" width="13.39" height="13.39" fill="#231f20"/>
  <rect x="620.09" y="747.44" width="13.39" height="13.39" fill="#231f20"/>
  <rect x="620.09" y="791.44" width="13.39" height="13.39" fill="#231f20"/>
  <rect x="706.47" y="704.8" width="13.39" height="13.39" fill="#231f20"/>
  <rect x="706.47" y="661.67" width="13.39" height="13.39" fill="#231f20"/>
  <rect x="836.36" y="661.67" width="13.39" height="13.39" fill="#231f20"/>
  <rect x="791.74" y="661.67" width="13.39" height="13.39" fill="#231f20"/>
  <rect x="836.36" y="619.52" width="13.39" height="13.39" fill="#231f20"/>
  <rect x="836.36" y="577.25" width="13.39" height="13.39" fill="#231f20"/>
  <rect x="879.9" y="619.52" width="13.39" height="13.39" fill="#231f20"/>
  <rect x="922.46" y="575.74" width="13.39" height="13.39" fill="#231f20"/>
  <rect x="879.36" y="575.74" width="13.39" height="13.39" fill="#231f20"/>
  <rect x="922.46" y="619.52" width="13.39" height="13.39" fill="#231f20"/>
  <rect x="922.46" y="661.67" width="13.39" height="13.39" fill="#231f20"/>
  <rect x="922.46" y="704.8" width="13.39" height="13.39" fill="#231f20"/>
  <rect x="879.4" y="704.8" width="13.39" height="13.39" fill="#231f20"/>
  <rect x="879.4" y="747.44" width="13.39" height="13.39" fill="#231f20"/>
  <rect x="922.46" y="747.44" width="13.39" height="13.39" fill="#231f20"/>
  <rect x="964.19" y="704.8" width="13.39" height="13.39" fill="#231f20"/>
  <rect x="964.19" y="747.44" width="13.39" height="13.39" fill="#231f20"/>
  <rect x="1009.23" y="704.8" width="13.39" height="13.39" fill="#231f20"/>
  <rect x="1009.23" y="747.44" width="13.39" height="13.39" fill="#231f20"/>
  <rect x="1053.36" y="704.8" width="13.39" height="13.39" fill="#231f20"/>
  <rect x="1053.36" y="747.44" width="13.39" height="13.39" fill="#231f20"/>
  <rect x="1009.23" y="619.52" width="13.39" height="13.39" fill="#231f20"/>
  <rect x="1009.23" y="575.74" width="13.39" height="13.39" fill="#231f20"/>
  <rect x="1009.23" y="661.67" width="13.39" height="13.39" fill="#231f20"/>
  <rect x="1053.36" y="619.52" width="13.39" height="13.39" fill="#231f20"/>
  <rect x="1053.36" y="575.74" width="13.39" height="13.39" fill="#231f20"/>
  <rect x="1053.36" y="661.67" width="13.39" height="13.39" fill="#231f20"/>
  <rect x="1009.23" y="489.7" width="13.39" height="13.39" fill="#231f20"/>
  <rect x="1009.23" y="447.32" width="13.39" height="13.39" fill="#231f20"/>
  <rect x="964.39" y="447.51" width="13.39" height="13.39" fill="#231f20"/>
  <rect x="1009.23" y="532.34" width="13.39" height="13.39" fill="#231f20"/>
  <rect x="1053.36" y="489.7" width="13.39" height="13.39" fill="#231f20"/>
  <rect x="1053.36" y="447.32" width="13.39" height="13.39" fill="#231f20"/>
  <rect x="1053.36" y="404.47" width="13.39" height="13.39" fill="#231f20"/>
  <rect x="1053.36" y="362.09" width="13.39" height="13.39" fill="#231f20"/>
  <rect x="1053.36" y="532.34" width="13.39" height="13.39" fill="#231f20"/>
  <rect x="922.46" y="187.41" width="13.39" height="13.39" fill="#231f20"/>
  <rect x="879.36" y="145.03" width="13.39" height="13.39" fill="#231f20"/>
  <rect x="706.54" y="57.95" width="13.39" height="13.39" fill="#231f20"/>
  <rect x="576.93" y="57.96" width="13.39" height="13.39" fill="#231f20"/>
  <rect x="922.46" y="230.05" width="13.39" height="13.39" fill="#231f20"/>
  <rect x="964.39" y="230.05" width="13.39" height="13.39" fill="#231f20"/>
  <rect x="1009.23" y="317.41" width="13.39" height="13.39" fill="#231f20"/>
  <rect x="964.19" y="619.52" width="13.39" height="13.39" fill="#231f20"/>
  <rect x="964.19" y="533.3" width="13.39" height="13.39" fill="#231f20"/>
  <rect x="964.19" y="489.83" width="13.39" height="13.39" fill="#231f20"/>
  <rect x="922.46" y="447.15" width="13.39" height="13.39" fill="#231f20"/>
  <rect x="964.19" y="405.59" width="13.39" height="13.39" fill="#231f20"/>
  <rect x="879.36" y="405.59" width="13.39" height="13.39" fill="#231f20"/>
  <rect x="922.46" y="405.59" width="13.39" height="13.39" fill="#231f20"/>
  <rect x="879.36" y="489.83" width="13.39" height="13.39" fill="#231f20"/>
  <rect x="922.46" y="489.83" width="13.39" height="13.39" fill="#231f20"/>
  <rect x="964.19" y="661.67" width="13.39" height="13.39" fill="#231f20"/>
  <rect x="922.46" y="791.44" width="13.39" height="13.39" fill="#231f20"/>
  <rect x="964.19" y="791.44" width="13.39" height="13.39" fill="#231f20"/>
  <rect x="922.46" y="836.66" width="13.39" height="13.39" fill="#231f20"/>
  <rect x="922.46" y="879.92" width="13.39" height="13.39" fill="#231f20"/>
  <rect x="964.19" y="836.66" width="13.39" height="13.39" fill="#231f20"/>
  <rect x="964.19" y="922.28" width="13.39" height="13.39" fill="#231f20"/>
  <rect x="1007.24" y="836.66" width="13.39" height="13.39" fill="#231f20"/>
  <rect x="879.9" y="661.67" width="13.39" height="13.39" fill="#231f20"/>
  <rect x="792.7" y="532.47" width="13.39" height="13.39" fill="#231f20"/>
  <rect x="792.7" y="489.83" width="13.39" height="13.39" fill="#231f20"/>
  <rect x="792.7" y="447.15" width="13.39" height="13.39" fill="#231f20"/>
  <rect x="792.7" y="405.59" width="13.39" height="13.39" fill="#231f20"/>
  <rect x="836.24" y="405.59" width="13.39" height="13.39" fill="#231f20"/>
  <rect x="835.75" y="489.83" width="13.39" height="13.39" fill="#231f20"/>
  <rect x="835.75" y="532.47" width="13.39" height="13.39" fill="#231f20"/>
  <rect x="836.24" y="447.15" width="13.39" height="13.39" fill="#231f20"/>
  <rect x="705.19" y="532.47" width="13.39" height="13.39" fill="#231f20"/>
  <rect x="705.19" y="489.83" width="13.39" height="13.39" fill="#231f20"/>
  <rect x="705.19" y="447.15" width="13.39" height="13.39" fill="#231f20"/>
  <rect x="664.31" y="489.83" width="13.39" height="13.39" fill="#231f20"/>
  <rect x="664.31" y="447.15" width="13.39" height="13.39" fill="#231f20"/>
  <rect x="705.19" y="405.59" width="13.39" height="13.39" fill="#231f20"/>
  <rect x="748.73" y="405.59" width="13.39" height="13.39" fill="#231f20"/>
  <rect x="792.7" y="274.11" width="13.39" height="13.39" fill="#231f20"/>
  <rect x="792.7" y="317.09" width="13.39" height="13.39" fill="#231f20"/>
  <rect x="792.7" y="360.47" width="13.39" height="13.39" fill="#231f20"/>
  <rect x="836.15" y="317.29" width="13.39" height="13.39" fill="#231f20"/>
  <rect x="836.15" y="359.96" width="13.39" height="13.39" fill="#231f20"/>
  <rect x="879.36" y="317.29" width="13.39" height="13.39" fill="#231f20"/>
  <rect x="922.46" y="360.47" width="13.39" height="13.39" fill="#231f20"/>
  <rect x="748.78" y="274.07" width="13.39" height="13.39" fill="#231f20"/>
  <rect x="706.84" y="230.94" width="13.39" height="13.39" fill="#231f20"/>
  <rect x="662.91" y="230.89" width="13.39" height="13.39" fill="#231f20"/>
  <rect x="792.95" y="57.95" width="13.39" height="13.39" fill="#231f20"/>
  <rect x="750.56" y="57.95" width="13.39" height="13.39" fill="#231f20"/>
  <rect x="620.13" y="15.12" width="13.39" height="13.39" fill="#231f20"/>
  <rect x="705" y="15.12" width="13.39" height="13.39" fill="#231f20"/>
  <rect x="664.22" y="15.12" width="13.39" height="13.39" fill="#231f20"/>
  <rect x="491.29" y="15.12" width="13.39" height="13.39" fill="#231f20"/>
  <rect x="576.93" y="15.12" width="13.39" height="13.39" fill="#231f20"/>
  <rect x="535.38" y="15.12" width="13.39" height="13.39" fill="#231f20"/>
  <rect x="662.52" y="272.89" width="13.39" height="13.39" fill="#231f20"/>
  <rect x="662.52" y="317.41" width="13.39" height="13.39" fill="#231f20"/>
  <rect x="618.59" y="272.85" width="13.39" height="13.39" fill="#231f20"/>
  <rect x="578.47" y="272.89" width="13.39" height="13.39" fill="#231f20"/>
  <rect x="534.54" y="272.85" width="13.39" height="13.39" fill="#231f20"/>
  <rect x="578.47" y="317.13" width="13.39" height="13.39" fill="#231f20"/>
  <rect x="534.54" y="317.09" width="13.39" height="13.39" fill="#231f20"/>
  <rect x="533.14" y="230.94" width="13.39" height="13.39" fill="#231f20"/>
  <rect x="489.21" y="230.89" width="13.39" height="13.39" fill="#231f20"/>
  <rect x="446.95" y="405.03" width="13.39" height="13.39" fill="#231f20"/>
  <rect x="446.95" y="447.15" width="13.39" height="13.39" fill="#231f20"/>
  <rect x="359.44" y="405.03" width="13.39" height="13.39" fill="#231f20"/>
  <rect x="402.98" y="405.03" width="13.39" height="13.39" fill="#231f20"/>
  <rect x="273.57" y="405.03" width="13.39" height="13.39" fill="#231f20"/>
  <rect x="317.11" y="405.03" width="13.39" height="13.39" fill="#231f20"/>
  <rect x="359.44" y="446.79" width="13.39" height="13.39" fill="#231f20"/>
  <rect x="402.98" y="446.79" width="13.39" height="13.39" fill="#231f20"/>
  <rect x="317.11" y="446.79" width="13.39" height="13.39" fill="#231f20"/>
  <rect x="273.57" y="361.22" width="13.39" height="13.39" fill="#231f20"/>
  <rect x="317.11" y="361.22" width="13.39" height="13.39" fill="#231f20"/>
  <rect x="446.95" y="317.41" width="13.39" height="13.39" fill="#231f20"/>
  <rect x="359.44" y="317.41" width="13.39" height="13.39" fill="#231f20"/>
  <rect x="274.45" y="317.41" width="13.39" height="13.39" fill="#231f20"/>
  <rect x="57.99" y="405.03" width="13.39" height="13.39" fill="#231f20"/>
  <rect x="57.99" y="361.22" width="13.39" height="13.39" fill="#231f20"/>
  <rect x="58.86" y="317.41" width="13.39" height="13.39" fill="#231f20"/>
  <rect x="101.59" y="275.33" width="13.39" height="13.39" fill="#231f20"/>
  <rect x="102.47" y="231.52" width="13.39" height="13.39" fill="#231f20"/>
  <rect x="15.06" y="186.61" width="13.39" height="13.39" fill="#231f20"/>
  <rect x="15.82" y="144.18" width="13.39" height="13.39" fill="#231f20"/>
  <rect x="15.93" y="98.99" width="13.39" height="13.39" fill="#231f20"/>
  <rect x="15.06" y="58.41" width="13.39" height="13.39" fill="#231f20"/>
  <rect x="15.93" y="14.6" width="13.39" height="13.39" fill="#231f20"/>
  <rect x="57.55" y="58.41" width="13.39" height="13.39" fill="#231f20"/>
  <rect x="58.31" y="144.18" width="13.39" height="13.39" fill="#231f20"/>
  <rect x="100.92" y="58.41" width="13.39" height="13.39" fill="#231f20"/>
  <rect x="58.43" y="14.6" width="13.39" height="13.39" fill="#231f20"/>
  <rect x="102.03" y="14.6" width="13.39" height="13.39" fill="#231f20"/>
  <rect x="144.52" y="14.6" width="13.39" height="13.39" fill="#231f20"/>
  <rect x="316.94" y="317.41" width="13.39" height="13.39" fill="#231f20"/>
  <rect x="274.45" y="273.85" width="13.39" height="13.39" fill="#231f20"/>
  <rect x="231.24" y="405.03" width="13.39" height="13.39" fill="#231f20"/>
  <rect x="188.07" y="447.15" width="13.39" height="13.39" fill="#231f20"/>
  <rect x="231.24" y="447.15" width="13.39" height="13.39" fill="#231f20"/>
  <rect x="188.07" y="489.87" width="13.39" height="13.39" fill="#231f20"/>
  <rect x="273.57" y="489.87" width="13.39" height="13.39" fill="#231f20"/>
  <rect x="231.24" y="360.32" width="13.39" height="13.39" fill="#231f20"/>
  <rect x="144.88" y="533.98" width="13.39" height="13.39" fill="#231f20"/>
  <rect x="188.07" y="533.98" width="13.39" height="13.39" fill="#231f20"/>
  <rect x="188.07" y="576.47" width="13.39" height="13.39" fill="#231f20"/>
  <rect x="188.07" y="619.73" width="13.39" height="13.39" fill="#231f20"/>
  <rect x="15.41" y="489.87" width="13.39" height="13.39" fill="#231f20"/>
  <rect x="15.41" y="446.6" width="13.39" height="13.39" fill="#231f20"/>
  <rect x="15.41" y="533.98" width="13.39" height="13.39" fill="#231f20"/>
  <rect x="15.41" y="576.47" width="13.39" height="13.39" fill="#231f20"/>
  <rect x="15.41" y="619.73" width="13.39" height="13.39" fill="#231f20"/>
  <rect x="15.41" y="662.66" width="13.39" height="13.39" fill="#231f20"/>
  <rect x="274.45" y="663.91" width="13.39" height="13.39" fill="#231f20"/>
  <rect x="274.45" y="707.17" width="13.39" height="13.39" fill="#231f20"/>
  <rect x="144.83" y="749.27" width="13.39" height="13.39" fill="#231f20"/>
  <rect x="144.83" y="792.53" width="13.39" height="13.39" fill="#231f20"/>
  <rect x="102.58" y="749.27" width="13.39" height="13.39" fill="#231f20"/>
  <rect x="102.58" y="792.53" width="13.39" height="13.39" fill="#231f20"/>
  <rect x="144.83" y="835.75" width="13.39" height="13.39" fill="#231f20"/>
  <rect x="102.58" y="835.75" width="13.39" height="13.39" fill="#231f20"/>
  <rect x="231.24" y="619.73" width="13.39" height="13.39" fill="#231f20"/>
  <rect x="273.57" y="533.98" width="13.39" height="13.39" fill="#231f20"/>
  <rect x="230.82" y="533.98" width="13.39" height="13.39" fill="#231f20"/>
  <rect x="230.82" y="576.86" width="13.39" height="13.39" fill="#231f20"/>
  <rect x="359.69" y="533.98" width="13.39" height="13.39" fill="#231f20"/>
  <rect x="316.94" y="533.98" width="13.39" height="13.39" fill="#231f20"/>
  <rect x="359.69" y="576.47" width="13.39" height="13.39" fill="#231f20"/>
  <rect x="403.32" y="576.47" width="13.39" height="13.39" fill="#231f20"/>
  <rect x="446.95" y="577.25" width="13.39" height="13.39" fill="#231f20"/>
  <rect x="533.67" y="577.25" width="13.39" height="13.39" fill="#231f20"/>
  <rect x="446.95" y="533.3" width="13.39" height="13.39" fill="#231f20"/>
  <rect x="576.07" y="577.25" width="13.39" height="13.39" fill="#231f20"/>
  <rect x="576.07" y="533.3" width="13.39" height="13.39" fill="#231f20"/>
  <rect x="446.95" y="489.87" width="13.39" height="13.39" fill="#231f20"/>
  <rect x="446.95" y="619.73" width="13.39" height="13.39" fill="#231f20"/>
  <rect x="446.95" y="662.7" width="13.39" height="13.39" fill="#231f20"/>
  <rect x="446.95" y="705.96" width="13.39" height="13.39" fill="#231f20"/>
  <rect x="446.95" y="749.23" width="13.39" height="13.39" fill="#231f20"/>
  <rect x="490.5" y="749.23" width="13.39" height="13.39" fill="#231f20"/>
  <rect x="446.95" y="792.49" width="13.39" height="13.39" fill="#231f20"/>
  <rect x="490.5" y="791.44" width="13.39" height="13.39" fill="#231f20"/>
  <rect x="316.94" y="576.47" width="13.39" height="13.39" fill="#231f20"/>
  <rect x="317.11" y="619.73" width="13.39" height="13.39" fill="#231f20"/>
  <rect x="359.69" y="619.73" width="13.39" height="13.39" fill="#231f20"/>
  <rect x="144.88" y="489.28" width="13.39" height="13.39" fill="#231f20"/>
  <rect x="317.68" y="272.87" width="13.39" height="13.39" fill="#231f20"/>
  <rect x="317.68" y="230.33" width="13.39" height="13.39" fill="#231f20"/>
  <rect x="402.98" y="317.41" width="13.39" height="13.39" fill="#231f20"/>
  <rect x="446.95" y="230.33" width="13.39" height="13.39" fill="#231f20"/>
  <rect x="359.44" y="230.33" width="13.39" height="13.39" fill="#231f20"/>
  <rect x="317.68" y="102.08" width="13.39" height="13.39" fill="#231f20"/>
  <rect x="359.44" y="102.08" width="13.39" height="13.39" fill="#231f20"/>
  <rect x="232.46" y="144.18" width="13.39" height="13.39" fill="#231f20"/>
  <rect x="188.54" y="186.61" width="13.39" height="13.39" fill="#231f20"/>
  <rect x="145.34" y="230.33" width="13.39" height="13.39" fill="#231f20"/>
  <rect x="405.99" y="57.96" width="13.39" height="13.39" fill="#231f20"/>
  <rect x="447.75" y="57.96" width="13.39" height="13.39" fill="#231f20"/>
  <rect x="405.99" y="15.12" width="13.39" height="13.39" fill="#231f20"/>
  <rect x="447.75" y="15.12" width="13.39" height="13.39" fill="#231f20"/>
  <rect x="402.98" y="230.33" width="13.39" height="13.39" fill="#231f20"/>
  <rect x="446.95" y="272.87" width="13.39" height="13.39" fill="#231f20"/>
  <rect x="489.21" y="272.87" width="13.39" height="13.39" fill="#231f20"/>
  <rect x="359.44" y="272.87" width="13.39" height="13.39" fill="#231f20"/>
  <rect x="402.98" y="272.87" width="13.39" height="13.39" fill="#231f20"/>
  <rect x="748.24" y="489.83" width="13.39" height="13.39" fill="#231f20"/>
  <rect x="748.24" y="532.47" width="13.39" height="13.39" fill="#231f20"/>
  <rect x="705.19" y="575.74" width="13.39" height="13.39" fill="#231f20"/>
  <rect x="748.24" y="575.74" width="13.39" height="13.39" fill="#231f20"/>
  <rect x="748.73" y="447.15" width="13.39" height="13.39" fill="#231f20"/>
  <rect x="791.74" y="619.52" width="13.39" height="13.39" fill="#231f20"/>
  <rect x="791.74" y="879.92" width="13.39" height="13.39" fill="#231f20"/>
  <rect x="360.91" y="792.49" width="13.39" height="13.39" fill="#231f20"/>
  <rect x="59.84" y="707.17" width="13.39" height="13.39" fill="#231f20"/>
  <rect x="59.84" y="749.23" width="13.39" height="13.39" fill="#231f20"/>
  <rect x="15.41" y="707.17" width="13.39" height="13.39" fill="#231f20"/>
  <rect x="15.41" y="749.23" width="13.39" height="13.39" fill="#231f20"/>
  <rect x="102.58" y="707.17" width="13.39" height="13.39" fill="#231f20"/>
  <rect x="404.08" y="878.93" width="13.39" height="13.39" fill="#231f20"/>
  <rect x="447.3" y="878.93" width="13.39" height="13.39" fill="#231f20"/>
  <rect x="274.45" y="1008.8" width="13.39" height="13.39" fill="#231f20"/>
  <rect x="188.04" y="835.75" width="13.39" height="13.39" fill="#231f20"/>
  <rect x="274.45" y="792.49" width="13.39" height="13.39" fill="#231f20"/>
</svg>