<?xml version="1.0" encoding="UTF-8"?>
<svg id="_14" data-name="14" xmlns="http://www.w3.org/2000/svg" viewBox="0 0 1080 1080">
  <rect x="519.48" y="606.08" width="40.84" height="40.84" fill="#231f20"/>
  <rect x="563.15" y="649.21" width="40.84" height="40.84" fill="#231f20"/>
  <rect x="519.48" y="649.21" width="40.84" height="40.84" fill="#231f20"/>
  <rect x="563.15" y="692.34" width="40.84" height="40.84" fill="#231f20"/>
  <rect x="519.48" y="692.34" width="40.84" height="40.84" fill="#231f20"/>
  <rect x="476.62" y="606.08" width="40.84" height="40.84" fill="#231f20"/>
  <rect x="476.62" y="649.21" width="40.84" height="40.84" fill="#231f20"/>
  <rect x="563.15" y="821.94" width="40.84" height="40.84" fill="#231f20"/>
  <rect x="563.15" y="778.64" width="40.84" height="40.84" fill="#231f20"/>
  <rect x="519.48" y="821.94" width="40.84" height="40.84" fill="#231f20"/>
  <rect x="476.62" y="821.94" width="40.84" height="40.84" fill="#231f20"/>
  <rect x="476.62" y="519.58" width="40.84" height="40.84" fill="#231f20"/>
  <rect x="519.28" y="519.58" width="40.84" height="40.84" fill="#231f20"/>
  <rect x="476.62" y="562.95" width="40.84" height="40.84" fill="#231f20"/>
  <rect x="433.02" y="606.08" width="40.84" height="40.84" fill="#231f20"/>
  <rect x="433.02" y="519.58" width="40.84" height="40.84" fill="#231f20"/>
  <rect x="433.02" y="562.95" width="40.84" height="40.84" fill="#231f20"/>
  <rect x="390.09" y="606.08" width="40.84" height="40.84" fill="#231f20"/>
  <rect x="390.09" y="519.58" width="40.84" height="40.84" fill="#231f20"/>
  <rect x="390.09" y="562.95" width="40.84" height="40.84" fill="#231f20"/>
  <rect x="390" y="908.25" width="40.84" height="40.84" fill="#231f20"/>
  <rect x="390" y="821.75" width="40.84" height="40.84" fill="#231f20"/>
  <rect x="390" y="865.12" width="40.84" height="40.84" fill="#231f20"/>
  <rect x="476.55" y="432.9" width="40.84" height="40.84" fill="#231f20"/>
  <rect x="476.62" y="476.2" width="40.84" height="40.84" fill="#231f20"/>
  <rect x="519.55" y="432.9" width="40.84" height="40.84" fill="#231f20"/>
  <rect x="519.61" y="476.2" width="40.84" height="40.84" fill="#231f20"/>
  <rect x="476.55" y="346.73" width="40.84" height="40.84" fill="#231f20"/>
  <rect x="476.62" y="390.03" width="40.84" height="40.84" fill="#231f20"/>
  <rect x="519.55" y="346.73" width="40.84" height="40.84" fill="#231f20"/>
  <rect x="519.61" y="390.03" width="40.84" height="40.84" fill="#231f20"/>
  <rect x="562.61" y="346.73" width="40.84" height="40.84" fill="#231f20"/>
  <rect x="476.48" y="217.41" width="40.84" height="40.84" fill="#231f20"/>
  <rect x="519.55" y="217.25" width="40.84" height="40.84" fill="#231f20"/>
  <rect x="433.55" y="217.25" width="40.84" height="40.84" fill="#231f20"/>
  <rect x="433.55" y="173.75" width="40.84" height="40.84" fill="#231f20"/>
  <rect x="476.48" y="260.28" width="40.84" height="40.84" fill="#231f20"/>
  <rect x="433.55" y="260.11" width="40.84" height="40.84" fill="#231f20"/>
  <rect x="562.68" y="390.03" width="40.84" height="40.84" fill="#231f20"/>
  <rect x="620.23" y="619.81" width="13.39" height="13.39" fill="#231f20"/>
  <rect x="620.23" y="662.37" width="13.39" height="13.39" fill="#231f20"/>
  <rect x="620.23" y="706.17" width="13.39" height="13.39" fill="#231f20"/>
  <rect x="576.88" y="619.81" width="13.39" height="13.39" fill="#231f20"/>
  <rect x="620.23" y="575.52" width="13.39" height="13.39" fill="#231f20"/>
  <rect x="576.88" y="575.52" width="13.39" height="13.39" fill="#231f20"/>
  <rect x="620.23" y="533.85" width="13.39" height="13.39" fill="#231f20"/>
  <rect x="576.88" y="533.85" width="13.39" height="13.39" fill="#231f20"/>
  <rect x="360.72" y="619.81" width="13.39" height="13.39" fill="#231f20"/>
  <rect x="360.72" y="575.52" width="13.39" height="13.39" fill="#231f20"/>
  <rect x="360.72" y="533.85" width="13.39" height="13.39" fill="#231f20"/>
  <rect x="317.79" y="619.81" width="13.39" height="13.39" fill="#231f20"/>
  <rect x="317.79" y="575.52" width="13.39" height="13.39" fill="#231f20"/>
  <rect x="317.79" y="533.85" width="13.39" height="13.39" fill="#231f20"/>
  <rect x="620.23" y="489.56" width="13.39" height="13.39" fill="#231f20"/>
  <rect x="576.88" y="489.56" width="13.39" height="13.39" fill="#231f20"/>
  <rect x="620.23" y="446.62" width="13.39" height="13.39" fill="#231f20"/>
  <rect x="620.23" y="404.06" width="13.39" height="13.39" fill="#231f20"/>
  <rect x="620.23" y="359.78" width="13.39" height="13.39" fill="#231f20"/>
  <rect x="620.23" y="316.84" width="13.39" height="13.39" fill="#231f20"/>
  <rect x="577.03" y="316.84" width="13.39" height="13.39" fill="#231f20"/>
  <rect x="533.34" y="316.84" width="13.39" height="13.39" fill="#231f20"/>
  <rect x="533.34" y="274.28" width="13.39" height="13.39" fill="#231f20"/>
  <rect x="577.03" y="274.28" width="13.39" height="13.39" fill="#231f20"/>
  <rect x="490.21" y="187.47" width="13.39" height="13.39" fill="#231f20"/>
  <rect x="533.34" y="187.1" width="13.39" height="13.39" fill="#231f20"/>
  <rect x="577.03" y="187.1" width="13.39" height="13.39" fill="#231f20"/>
  <rect x="490.21" y="144.17" width="13.39" height="13.39" fill="#231f20"/>
  <rect x="447.28" y="144.17" width="13.39" height="13.39" fill="#231f20"/>
  <rect x="404.35" y="144.17" width="13.39" height="13.39" fill="#231f20"/>
  <rect x="533.34" y="144.17" width="13.39" height="13.39" fill="#231f20"/>
  <rect x="577.03" y="144.17" width="13.39" height="13.39" fill="#231f20"/>
  <rect x="490.21" y="101.35" width="13.39" height="13.39" fill="#231f20"/>
  <rect x="533.34" y="100.98" width="13.39" height="13.39" fill="#231f20"/>
  <rect x="577.03" y="100.98" width="13.39" height="13.39" fill="#231f20"/>
  <rect x="490.21" y="58.05" width="13.39" height="13.39" fill="#231f20"/>
  <rect x="533.34" y="58.05" width="13.39" height="13.39" fill="#231f20"/>
  <rect x="577.03" y="58.05" width="13.39" height="13.39" fill="#231f20"/>
  <rect x="490.21" y="14.3" width="13.39" height="13.39" fill="#231f20"/>
  <rect x="533.34" y="14.3" width="13.39" height="13.39" fill="#231f20"/>
  <rect x="577.03" y="14.3" width="13.39" height="13.39" fill="#231f20"/>
  <rect x="360.4" y="101.35" width="13.39" height="13.39" fill="#231f20"/>
  <rect x="403.53" y="100.98" width="13.39" height="13.39" fill="#231f20"/>
  <rect x="447.22" y="100.98" width="13.39" height="13.39" fill="#231f20"/>
  <rect x="360.4" y="58.05" width="13.39" height="13.39" fill="#231f20"/>
  <rect x="403.53" y="58.05" width="13.39" height="13.39" fill="#231f20"/>
  <rect x="447.22" y="58.05" width="13.39" height="13.39" fill="#231f20"/>
  <rect x="230.97" y="101.35" width="13.39" height="13.39" fill="#231f20"/>
  <rect x="274.1" y="100.98" width="13.39" height="13.39" fill="#231f20"/>
  <rect x="317.79" y="100.98" width="13.39" height="13.39" fill="#231f20"/>
  <rect x="230.97" y="58.05" width="13.39" height="13.39" fill="#231f20"/>
  <rect x="274.1" y="58.05" width="13.39" height="13.39" fill="#231f20"/>
  <rect x="317.79" y="58.05" width="13.39" height="13.39" fill="#231f20"/>
  <rect x="360.77" y="188.71" width="13.39" height="13.39" fill="#231f20"/>
  <rect x="360.77" y="145.4" width="13.39" height="13.39" fill="#231f20"/>
  <rect x="230.97" y="188.71" width="13.39" height="13.39" fill="#231f20"/>
  <rect x="274.1" y="188.33" width="13.39" height="13.39" fill="#231f20"/>
  <rect x="317.79" y="188.33" width="13.39" height="13.39" fill="#231f20"/>
  <rect x="230.97" y="145.4" width="13.39" height="13.39" fill="#231f20"/>
  <rect x="274.1" y="145.4" width="13.39" height="13.39" fill="#231f20"/>
  <rect x="58.02" y="101.35" width="13.39" height="13.39" fill="#231f20"/>
  <rect x="101.16" y="100.98" width="13.39" height="13.39" fill="#231f20"/>
  <rect x="58.02" y="58.05" width="13.39" height="13.39" fill="#231f20"/>
  <rect x="101.16" y="58.05" width="13.39" height="13.39" fill="#231f20"/>
  <rect x="58.02" y="145.4" width="13.39" height="13.39" fill="#231f20"/>
  <rect x="101.16" y="145.4" width="13.39" height="13.39" fill="#231f20"/>
  <rect x="317.79" y="145.4" width="13.39" height="13.39" fill="#231f20"/>
  <rect x="360.4" y="229.6" width="13.39" height="13.39" fill="#231f20"/>
  <rect x="230.97" y="229.6" width="13.39" height="13.39" fill="#231f20"/>
  <rect x="274.1" y="229.23" width="13.39" height="13.39" fill="#231f20"/>
  <rect x="317.79" y="229.23" width="13.39" height="13.39" fill="#231f20"/>
  <rect x="360.77" y="316.95" width="13.39" height="13.39" fill="#231f20"/>
  <rect x="360.77" y="273.65" width="13.39" height="13.39" fill="#231f20"/>
  <rect x="230.97" y="316.95" width="13.39" height="13.39" fill="#231f20"/>
  <rect x="274.1" y="316.58" width="13.39" height="13.39" fill="#231f20"/>
  <rect x="317.79" y="316.58" width="13.39" height="13.39" fill="#231f20"/>
  <rect x="230.97" y="273.65" width="13.39" height="13.39" fill="#231f20"/>
  <rect x="274.1" y="273.65" width="13.39" height="13.39" fill="#231f20"/>
  <rect x="317.79" y="273.65" width="13.39" height="13.39" fill="#231f20"/>
  <rect x="360.4" y="14.3" width="13.39" height="13.39" fill="#231f20"/>
  <rect x="403.53" y="14.3" width="13.39" height="13.39" fill="#231f20"/>
  <rect x="447.22" y="14.3" width="13.39" height="13.39" fill="#231f20"/>
  <rect x="230.69" y="14.3" width="13.39" height="13.39" fill="#231f20"/>
  <rect x="273.82" y="14.3" width="13.39" height="13.39" fill="#231f20"/>
  <rect x="317.51" y="14.3" width="13.39" height="13.39" fill="#231f20"/>
  <rect x="619.54" y="187.47" width="13.39" height="13.39" fill="#231f20"/>
  <rect x="662.67" y="187.1" width="13.39" height="13.39" fill="#231f20"/>
  <rect x="706.36" y="187.1" width="13.39" height="13.39" fill="#231f20"/>
  <rect x="619.54" y="144.17" width="13.39" height="13.39" fill="#231f20"/>
  <rect x="662.67" y="144.17" width="13.39" height="13.39" fill="#231f20"/>
  <rect x="706.36" y="144.17" width="13.39" height="13.39" fill="#231f20"/>
  <rect x="619.54" y="274.28" width="13.39" height="13.39" fill="#231f20"/>
  <rect x="662.67" y="274.28" width="13.39" height="13.39" fill="#231f20"/>
  <rect x="706.36" y="274.28" width="13.39" height="13.39" fill="#231f20"/>
  <rect x="619.54" y="231.35" width="13.39" height="13.39" fill="#231f20"/>
  <rect x="662.67" y="231.35" width="13.39" height="13.39" fill="#231f20"/>
  <rect x="706.36" y="231.35" width="13.39" height="13.39" fill="#231f20"/>
  <rect x="662.67" y="361.21" width="13.39" height="13.39" fill="#231f20"/>
  <rect x="706.36" y="361.21" width="13.39" height="13.39" fill="#231f20"/>
  <rect x="662.67" y="318.28" width="13.39" height="13.39" fill="#231f20"/>
  <rect x="706.36" y="318.28" width="13.39" height="13.39" fill="#231f20"/>
  <rect x="750.51" y="274.28" width="13.39" height="13.39" fill="#231f20"/>
  <rect x="750.51" y="231.35" width="13.39" height="13.39" fill="#231f20"/>
  <rect x="750.51" y="361.21" width="13.39" height="13.39" fill="#231f20"/>
  <rect x="750.51" y="318.28" width="13.39" height="13.39" fill="#231f20"/>
  <rect x="662.67" y="405.46" width="13.39" height="13.39" fill="#231f20"/>
  <rect x="706.36" y="405.46" width="13.39" height="13.39" fill="#231f20"/>
  <rect x="706.36" y="446.62" width="13.39" height="13.39" fill="#231f20"/>
  <rect x="662.67" y="619.57" width="13.39" height="13.39" fill="#231f20"/>
  <rect x="662.67" y="662.37" width="13.39" height="13.39" fill="#231f20"/>
  <rect x="706.36" y="619.57" width="13.39" height="13.39" fill="#231f20"/>
  <rect x="662.67" y="576.64" width="13.39" height="13.39" fill="#231f20"/>
  <rect x="620.23" y="923.43" width="13.39" height="13.39" fill="#231f20"/>
  <rect x="620.23" y="965.99" width="13.39" height="13.39" fill="#231f20"/>
  <rect x="620.23" y="879.14" width="13.39" height="13.39" fill="#231f20"/>
  <rect x="662.67" y="923.19" width="13.39" height="13.39" fill="#231f20"/>
  <rect x="662.67" y="965.99" width="13.39" height="13.39" fill="#231f20"/>
  <rect x="662.67" y="880.26" width="13.39" height="13.39" fill="#231f20"/>
  <rect x="706.48" y="923.43" width="13.39" height="13.39" fill="#231f20"/>
  <rect x="706.48" y="965.99" width="13.39" height="13.39" fill="#231f20"/>
  <rect x="706.48" y="879.14" width="13.39" height="13.39" fill="#231f20"/>
  <rect x="748.92" y="923.19" width="13.39" height="13.39" fill="#231f20"/>
  <rect x="748.92" y="965.99" width="13.39" height="13.39" fill="#231f20"/>
  <rect x="748.92" y="880.26" width="13.39" height="13.39" fill="#231f20"/>
  <rect x="706.48" y="750.22" width="13.39" height="13.39" fill="#231f20"/>
  <rect x="706.48" y="792.78" width="13.39" height="13.39" fill="#231f20"/>
  <rect x="706.48" y="705.93" width="13.39" height="13.39" fill="#231f20"/>
  <rect x="748.92" y="749.98" width="13.39" height="13.39" fill="#231f20"/>
  <rect x="748.92" y="792.78" width="13.39" height="13.39" fill="#231f20"/>
  <rect x="748.92" y="707.05" width="13.39" height="13.39" fill="#231f20"/>
  <rect x="792.88" y="750.22" width="13.39" height="13.39" fill="#231f20"/>
  <rect x="792.88" y="792.78" width="13.39" height="13.39" fill="#231f20"/>
  <rect x="792.88" y="705.93" width="13.39" height="13.39" fill="#231f20"/>
  <rect x="835.32" y="749.98" width="13.39" height="13.39" fill="#231f20"/>
  <rect x="835.32" y="792.78" width="13.39" height="13.39" fill="#231f20"/>
  <rect x="748.92" y="836.52" width="13.39" height="13.39" fill="#231f20"/>
  <rect x="792.88" y="836.52" width="13.39" height="13.39" fill="#231f20"/>
  <rect x="835.32" y="836.52" width="13.39" height="13.39" fill="#231f20"/>
  <rect x="835.32" y="707.05" width="13.39" height="13.39" fill="#231f20"/>
  <rect x="922.48" y="750.22" width="13.39" height="13.39" fill="#231f20"/>
  <rect x="922.48" y="792.78" width="13.39" height="13.39" fill="#231f20"/>
  <rect x="922.48" y="705.93" width="13.39" height="13.39" fill="#231f20"/>
  <rect x="964.92" y="749.98" width="13.39" height="13.39" fill="#231f20"/>
  <rect x="964.92" y="792.78" width="13.39" height="13.39" fill="#231f20"/>
  <rect x="964.92" y="707.05" width="13.39" height="13.39" fill="#231f20"/>
  <rect x="706.48" y="661.81" width="13.39" height="13.39" fill="#231f20"/>
  <rect x="748.92" y="661.57" width="13.39" height="13.39" fill="#231f20"/>
  <rect x="748.92" y="618.64" width="13.39" height="13.39" fill="#231f20"/>
  <rect x="748.92" y="534.35" width="13.39" height="13.39" fill="#231f20"/>
  <rect x="748.92" y="491.42" width="13.39" height="13.39" fill="#231f20"/>
  <rect x="706.48" y="491.42" width="13.39" height="13.39" fill="#231f20"/>
  <rect x="532.54" y="923.43" width="13.39" height="13.39" fill="#231f20"/>
  <rect x="532.54" y="965.99" width="13.39" height="13.39" fill="#231f20"/>
  <rect x="532.54" y="879.14" width="13.39" height="13.39" fill="#231f20"/>
  <rect x="490.34" y="923.43" width="13.39" height="13.39" fill="#231f20"/>
  <rect x="490.34" y="965.99" width="13.39" height="13.39" fill="#231f20"/>
  <rect x="490.34" y="879.14" width="13.39" height="13.39" fill="#231f20"/>
  <rect x="574.98" y="923.19" width="13.39" height="13.39" fill="#231f20"/>
  <rect x="574.98" y="965.99" width="13.39" height="13.39" fill="#231f20"/>
  <rect x="620.23" y="1004.9" width="13.39" height="13.39" fill="#231f20"/>
  <rect x="620.23" y="1047.46" width="13.39" height="13.39" fill="#231f20"/>
  <rect x="662.67" y="1004.66" width="13.39" height="13.39" fill="#231f20"/>
  <rect x="662.67" y="1047.46" width="13.39" height="13.39" fill="#231f20"/>
  <rect x="748.92" y="1047.46" width="13.39" height="13.39" fill="#231f20"/>
  <rect x="532.54" y="1004.9" width="13.39" height="13.39" fill="#231f20"/>
  <rect x="532.54" y="1047.46" width="13.39" height="13.39" fill="#231f20"/>
  <rect x="574.98" y="1004.66" width="13.39" height="13.39" fill="#231f20"/>
  <rect x="574.98" y="1047.46" width="13.39" height="13.39" fill="#231f20"/>
  <rect x="574.98" y="880.26" width="13.39" height="13.39" fill="#231f20"/>
  <rect x="706.36" y="576.64" width="13.39" height="13.39" fill="#231f20"/>
  <rect x="619.54" y="101.35" width="13.39" height="13.39" fill="#231f20"/>
  <rect x="662.67" y="100.98" width="13.39" height="13.39" fill="#231f20"/>
  <rect x="706.36" y="100.98" width="13.39" height="13.39" fill="#231f20"/>
  <rect x="619.54" y="58.05" width="13.39" height="13.39" fill="#231f20"/>
  <rect x="662.67" y="58.05" width="13.39" height="13.39" fill="#231f20"/>
  <rect x="706.36" y="58.05" width="13.39" height="13.39" fill="#231f20"/>
  <rect x="619.54" y="14.3" width="13.39" height="13.39" fill="#231f20"/>
  <rect x="662.67" y="14.3" width="13.39" height="13.39" fill="#231f20"/>
  <rect x="706.36" y="14.3" width="13.39" height="13.39" fill="#231f20"/>
  <rect x="750.51" y="100.98" width="13.39" height="13.39" fill="#231f20"/>
  <rect x="794.2" y="100.98" width="13.39" height="13.39" fill="#231f20"/>
  <rect x="750.51" y="58.05" width="13.39" height="13.39" fill="#231f20"/>
  <rect x="750.51" y="187.57" width="13.39" height="13.39" fill="#231f20"/>
  <rect x="750.51" y="144.64" width="13.39" height="13.39" fill="#231f20"/>
  <rect x="794.2" y="187.1" width="13.39" height="13.39" fill="#231f20"/>
  <rect x="837.89" y="187.1" width="13.39" height="13.39" fill="#231f20"/>
  <rect x="794.2" y="144.17" width="13.39" height="13.39" fill="#231f20"/>
  <rect x="837.89" y="144.17" width="13.39" height="13.39" fill="#231f20"/>
  <rect x="882.03" y="187.57" width="13.39" height="13.39" fill="#231f20"/>
  <rect x="794.2" y="58.05" width="13.39" height="13.39" fill="#231f20"/>
  <rect x="750.51" y="14.3" width="13.39" height="13.39" fill="#231f20"/>
  <rect x="794.2" y="14.3" width="13.39" height="13.39" fill="#231f20"/>
  <rect x="835.63" y="100.98" width="13.39" height="13.39" fill="#231f20"/>
  <rect x="835.63" y="58.05" width="13.39" height="13.39" fill="#231f20"/>
  <rect x="835.63" y="14.3" width="13.39" height="13.39" fill="#231f20"/>
  <rect x="577.03" y="231.35" width="13.39" height="13.39" fill="#231f20"/>
  <rect x="447.28" y="447" width="13.39" height="13.39" fill="#231f20"/>
  <rect x="447.28" y="489.56" width="13.39" height="13.39" fill="#231f20"/>
  <rect x="403.81" y="489.56" width="13.39" height="13.39" fill="#231f20"/>
  <rect x="360.72" y="489.56" width="13.39" height="13.39" fill="#231f20"/>
  <rect x="317.17" y="489.56" width="13.39" height="13.39" fill="#231f20"/>
  <rect x="447.28" y="662.93" width="13.39" height="13.39" fill="#231f20"/>
  <rect x="403.81" y="662.93" width="13.39" height="13.39" fill="#231f20"/>
  <rect x="360.64" y="662.93" width="13.39" height="13.39" fill="#231f20"/>
  <rect x="317.17" y="662.93" width="13.39" height="13.39" fill="#231f20"/>
  <rect x="274.28" y="619.81" width="13.39" height="13.39" fill="#231f20"/>
  <rect x="274.28" y="575.52" width="13.39" height="13.39" fill="#231f20"/>
  <rect x="274.28" y="533.85" width="13.39" height="13.39" fill="#231f20"/>
  <rect x="231.35" y="619.81" width="13.39" height="13.39" fill="#231f20"/>
  <rect x="231.35" y="575.52" width="13.39" height="13.39" fill="#231f20"/>
  <rect x="231.35" y="533.85" width="13.39" height="13.39" fill="#231f20"/>
  <rect x="274.19" y="662.93" width="13.39" height="13.39" fill="#231f20"/>
  <rect x="230.73" y="662.93" width="13.39" height="13.39" fill="#231f20"/>
  <rect x="360.72" y="749.79" width="13.39" height="13.39" fill="#231f20"/>
  <rect x="360.72" y="705.51" width="13.39" height="13.39" fill="#231f20"/>
  <rect x="404.39" y="749.79" width="13.39" height="13.39" fill="#231f20"/>
  <rect x="404.39" y="705.51" width="13.39" height="13.39" fill="#231f20"/>
  <rect x="317.79" y="749.79" width="13.39" height="13.39" fill="#231f20"/>
  <rect x="317.79" y="705.51" width="13.39" height="13.39" fill="#231f20"/>
  <rect x="360.64" y="792.92" width="13.39" height="13.39" fill="#231f20"/>
  <rect x="317.17" y="792.92" width="13.39" height="13.39" fill="#231f20"/>
  <rect x="274.28" y="749.79" width="13.39" height="13.39" fill="#231f20"/>
  <rect x="274.28" y="705.51" width="13.39" height="13.39" fill="#231f20"/>
  <rect x="231.35" y="749.79" width="13.39" height="13.39" fill="#231f20"/>
  <rect x="231.35" y="705.51" width="13.39" height="13.39" fill="#231f20"/>
  <rect x="143.49" y="619.81" width="13.39" height="13.39" fill="#231f20"/>
  <rect x="100.56" y="619.81" width="13.39" height="13.39" fill="#231f20"/>
  <rect x="143.41" y="662.93" width="13.39" height="13.39" fill="#231f20"/>
  <rect x="99.94" y="662.93" width="13.39" height="13.39" fill="#231f20"/>
  <rect x="143.49" y="705.51" width="13.39" height="13.39" fill="#231f20"/>
  <rect x="100.56" y="705.51" width="13.39" height="13.39" fill="#231f20"/>
  <rect x="274.19" y="792.92" width="13.39" height="13.39" fill="#231f20"/>
  <rect x="230.73" y="792.92" width="13.39" height="13.39" fill="#231f20"/>
  <rect x="360.72" y="834.33" width="13.39" height="13.39" fill="#231f20"/>
  <rect x="317.79" y="834.33" width="13.39" height="13.39" fill="#231f20"/>
  <rect x="360.64" y="877.46" width="13.39" height="13.39" fill="#231f20"/>
  <rect x="317.17" y="877.46" width="13.39" height="13.39" fill="#231f20"/>
  <rect x="274.28" y="834.33" width="13.39" height="13.39" fill="#231f20"/>
  <rect x="231.35" y="834.33" width="13.39" height="13.39" fill="#231f20"/>
  <rect x="274.19" y="877.46" width="13.39" height="13.39" fill="#231f20"/>
  <rect x="360.72" y="922.14" width="13.39" height="13.39" fill="#231f20"/>
  <rect x="317.79" y="922.14" width="13.39" height="13.39" fill="#231f20"/>
  <rect x="360.64" y="965.27" width="13.39" height="13.39" fill="#231f20"/>
  <rect x="317.17" y="965.27" width="13.39" height="13.39" fill="#231f20"/>
  <rect x="274.28" y="922.14" width="13.39" height="13.39" fill="#231f20"/>
  <rect x="274.19" y="965.27" width="13.39" height="13.39" fill="#231f20"/>
  <rect x="230.73" y="877.46" width="13.39" height="13.39" fill="#231f20"/>
  <rect x="274.28" y="1008.54" width="13.39" height="13.39" fill="#231f20"/>
  <rect x="231.35" y="1008.54" width="13.39" height="13.39" fill="#231f20"/>
  <rect x="274.19" y="1051.67" width="13.39" height="13.39" fill="#231f20"/>
  <rect x="230.73" y="1051.67" width="13.39" height="13.39" fill="#231f20"/>
  <rect x="360.5" y="1008.54" width="13.39" height="13.39" fill="#231f20"/>
  <rect x="317.57" y="1008.54" width="13.39" height="13.39" fill="#231f20"/>
  <rect x="360.41" y="1051.67" width="13.39" height="13.39" fill="#231f20"/>
  <rect x="403.92" y="965.27" width="13.39" height="13.39" fill="#231f20"/>
  <rect x="403.79" y="1008.54" width="13.39" height="13.39" fill="#231f20"/>
  <rect x="403.7" y="1051.67" width="13.39" height="13.39" fill="#231f20"/>
  <rect x="446.7" y="965.27" width="13.39" height="13.39" fill="#231f20"/>
  <rect x="446.56" y="1008.54" width="13.39" height="13.39" fill="#231f20"/>
  <rect x="446.48" y="1051.67" width="13.39" height="13.39" fill="#231f20"/>
  <rect x="316.95" y="1051.67" width="13.39" height="13.39" fill="#231f20"/>
  <rect x="187.88" y="834.33" width="13.39" height="13.39" fill="#231f20"/>
  <rect x="144.95" y="834.33" width="13.39" height="13.39" fill="#231f20"/>
  <rect x="187.79" y="877.46" width="13.39" height="13.39" fill="#231f20"/>
  <rect x="144.33" y="877.46" width="13.39" height="13.39" fill="#231f20"/>
  <rect x="187.88" y="922.14" width="13.39" height="13.39" fill="#231f20"/>
  <rect x="144.95" y="922.14" width="13.39" height="13.39" fill="#231f20"/>
  <rect x="187.79" y="965.27" width="13.39" height="13.39" fill="#231f20"/>
  <rect x="144.33" y="965.27" width="13.39" height="13.39" fill="#231f20"/>
  <rect x="490.34" y="706.17" width="13.39" height="13.39" fill="#231f20"/>
  <rect x="448.05" y="706.17" width="13.39" height="13.39" fill="#231f20"/>
  <rect x="576.05" y="749.21" width="13.39" height="13.39" fill="#231f20"/>
  <rect x="619.99" y="749.21" width="13.39" height="13.39" fill="#231f20"/>
  <rect x="619.99" y="792.36" width="13.39" height="13.39" fill="#231f20"/>
  <rect x="619.99" y="835.47" width="13.39" height="13.39" fill="#231f20"/>
  <rect x="533.76" y="749.21" width="13.39" height="13.39" fill="#231f20"/>
  <rect x="490.34" y="749.21" width="13.39" height="13.39" fill="#231f20"/>
  <rect x="448.05" y="749.21" width="13.39" height="13.39" fill="#231f20"/>
  <rect x="533.76" y="792.36" width="13.39" height="13.39" fill="#231f20"/>
  <rect x="447.28" y="403.26" width="13.39" height="13.39" fill="#231f20"/>
  <rect x="447.28" y="317.27" width="13.39" height="13.39" fill="#231f20"/>
  <rect x="447.28" y="360.26" width="13.39" height="13.39" fill="#231f20"/>
  <rect x="403.81" y="447" width="13.39" height="13.39" fill="#231f20"/>
  <rect x="403.81" y="403.26" width="13.39" height="13.39" fill="#231f20"/>
  <rect x="403.81" y="317.27" width="13.39" height="13.39" fill="#231f20"/>
  <rect x="403.81" y="360.26" width="13.39" height="13.39" fill="#231f20"/>
  <rect x="360.72" y="447" width="13.39" height="13.39" fill="#231f20"/>
  <rect x="360.72" y="403.26" width="13.39" height="13.39" fill="#231f20"/>
  <rect x="360.72" y="360.26" width="13.39" height="13.39" fill="#231f20"/>
  <rect x="317.17" y="447" width="13.39" height="13.39" fill="#231f20"/>
  <rect x="317.17" y="403.26" width="13.39" height="13.39" fill="#231f20"/>
  <rect x="317.17" y="360.26" width="13.39" height="13.39" fill="#231f20"/>
  <rect x="231.35" y="447" width="13.39" height="13.39" fill="#231f20"/>
  <rect x="231.35" y="403.26" width="13.39" height="13.39" fill="#231f20"/>
  <rect x="231.35" y="360.26" width="13.39" height="13.39" fill="#231f20"/>
  <rect x="188.26" y="447" width="13.39" height="13.39" fill="#231f20"/>
  <rect x="188.26" y="403.26" width="13.39" height="13.39" fill="#231f20"/>
  <rect x="188.26" y="360.26" width="13.39" height="13.39" fill="#231f20"/>
  <rect x="144.71" y="447" width="13.39" height="13.39" fill="#231f20"/>
  <rect x="144.71" y="403.26" width="13.39" height="13.39" fill="#231f20"/>
  <rect x="144.71" y="360.26" width="13.39" height="13.39" fill="#231f20"/>
  <rect x="403.81" y="273.09" width="13.39" height="13.39" fill="#231f20"/>
  <rect x="403.81" y="187.1" width="13.39" height="13.39" fill="#231f20"/>
  <rect x="403.81" y="230.09" width="13.39" height="13.39" fill="#231f20"/>
  <rect x="490.21" y="316.84" width="13.39" height="13.39" fill="#231f20"/>
  <rect x="576.88" y="446.62" width="13.39" height="13.39" fill="#231f20"/>
  <rect x="533.3" y="575.52" width="13.39" height="13.39" fill="#231f20"/>
</svg>