<?xml version="1.0" encoding="UTF-8"?>
<svg id="_7" data-name="7" xmlns="http://www.w3.org/2000/svg" viewBox="0 0 1080 1080">
  <rect x="389.66" y="130.39" width="40.84" height="40.84" fill="#231f20"/>
  <rect x="389.57" y="173.64" width="40.84" height="40.84" fill="#231f20"/>
  <rect x="432.87" y="173.64" width="40.84" height="40.84" fill="#231f20"/>
  <rect x="475.95" y="173.55" width="40.84" height="40.84" fill="#231f20"/>
  <rect x="519.27" y="173.55" width="40.84" height="40.84" fill="#231f20"/>
  <rect x="476.25" y="44.35" width="40.84" height="40.84" fill="#231f20"/>
  <rect x="519.33" y="44.26" width="40.84" height="40.84" fill="#231f20"/>
  <rect x="562.66" y="44.26" width="40.84" height="40.84" fill="#231f20"/>
  <rect x="389.66" y="44.35" width="40.84" height="40.84" fill="#231f20"/>
  <rect x="432.96" y="44.35" width="40.84" height="40.84" fill="#231f20"/>
  <rect x="692.12" y="44.35" width="40.84" height="40.84" fill="#231f20"/>
  <rect x="735.2" y="44.26" width="40.84" height="40.84" fill="#231f20"/>
  <rect x="778.52" y="44.26" width="40.84" height="40.84" fill="#231f20"/>
  <rect x="605.98" y="44.35" width="40.84" height="40.84" fill="#231f20"/>
  <rect x="648.83" y="44.35" width="40.84" height="40.84" fill="#231f20"/>
  <rect x="864.92" y="44.35" width="40.84" height="40.84" fill="#231f20"/>
  <rect x="908" y="44.26" width="40.84" height="40.84" fill="#231f20"/>
  <rect x="951.32" y="44.26" width="40.84" height="40.84" fill="#231f20"/>
  <rect x="994.44" y="87.19" width="40.84" height="40.84" fill="#231f20"/>
  <rect x="821.63" y="44.35" width="40.84" height="40.84" fill="#231f20"/>
  <rect x="476.25" y=".96" width="40.84" height="40.84" fill="#231f20"/>
  <rect x="519.33" y=".87" width="40.84" height="40.84" fill="#231f20"/>
  <rect x="562.66" y=".87" width="40.84" height="40.84" fill="#231f20"/>
  <rect x="432.96" y=".96" width="40.84" height="40.84" fill="#231f20"/>
  <rect x="692.12" y=".96" width="40.84" height="40.84" fill="#231f20"/>
  <rect x="735.2" y=".87" width="40.84" height="40.84" fill="#231f20"/>
  <rect x="778.52" y=".87" width="40.84" height="40.84" fill="#231f20"/>
  <rect x="605.98" y=".96" width="40.84" height="40.84" fill="#231f20"/>
  <rect x="648.83" y=".96" width="40.84" height="40.84" fill="#231f20"/>
  <rect x="87.43" y=".96" width="40.84" height="40.84" fill="#231f20"/>
  <rect x="130.51" y=".87" width="40.84" height="40.84" fill="#231f20"/>
  <rect x="173.84" y=".87" width="40.84" height="40.84" fill="#231f20"/>
  <rect x="44.14" y=".96" width="40.84" height="40.84" fill="#231f20"/>
  <rect x="217.16" y=".96" width="40.84" height="40.84" fill="#231f20"/>
  <rect x="260.01" y=".96" width="40.84" height="40.84" fill="#231f20"/>
  <rect x="87.43" y="44.17" width="40.84" height="40.84" fill="#231f20"/>
  <rect x="130.51" y="44.08" width="40.84" height="40.84" fill="#231f20"/>
  <rect x="173.84" y="44.08" width="40.84" height="40.84" fill="#231f20"/>
  <rect x="44.14" y="44.17" width="40.84" height="40.84" fill="#231f20"/>
  <rect x=".85" y="44.17" width="40.84" height="40.84" fill="#231f20"/>
  <rect x="217.16" y="44.17" width="40.84" height="40.84" fill="#231f20"/>
  <rect x="260.01" y="44.17" width="40.84" height="40.84" fill="#231f20"/>
  <rect x="864.92" y=".96" width="40.84" height="40.84" fill="#231f20"/>
  <rect x="908" y=".87" width="40.84" height="40.84" fill="#231f20"/>
  <rect x="951.32" y=".87" width="40.84" height="40.84" fill="#231f20"/>
  <rect x="994.44" y="44.26" width="40.84" height="40.84" fill="#231f20"/>
  <rect x="994.44" y=".87" width="40.84" height="40.84" fill="#231f20"/>
  <rect x="821.63" y=".96" width="40.84" height="40.84" fill="#231f20"/>
  <rect x="389.66" y="87.37" width="40.84" height="40.84" fill="#231f20"/>
  <rect x=".72" y="173.48" width="40.84" height="40.84" fill="#231f20"/>
  <rect x=".63" y="216.74" width="40.84" height="40.84" fill="#231f20"/>
  <rect x=".72" y="87.44" width="40.84" height="40.84" fill="#231f20"/>
  <rect x=".72" y="130.46" width="40.84" height="40.84" fill="#231f20"/>
  <rect x=".85" y="259.99" width="40.84" height="40.84" fill="#231f20"/>
  <rect x=".72" y="389.31" width="40.84" height="40.84" fill="#231f20"/>
  <rect x=".63" y="432.56" width="40.84" height="40.84" fill="#231f20"/>
  <rect x=".72" y="303.27" width="40.84" height="40.84" fill="#231f20"/>
  <rect x=".72" y="346.29" width="40.84" height="40.84" fill="#231f20"/>
  <rect x=".72" y="691.88" width="40.84" height="40.84" fill="#231f20"/>
  <rect x=".63" y="735.14" width="40.84" height="40.84" fill="#231f20"/>
  <rect x=".72" y="605.84" width="40.84" height="40.84" fill="#231f20"/>
  <rect x=".72" y="648.86" width="40.84" height="40.84" fill="#231f20"/>
  <rect x=".72" y="864.68" width="40.84" height="40.84" fill="#231f20"/>
  <rect x=".63" y="907.94" width="40.84" height="40.84" fill="#231f20"/>
  <rect x=".72" y="951.26" width="40.84" height="40.84" fill="#231f20"/>
  <rect x=".63" y="994.52" width="40.84" height="40.84" fill="#231f20"/>
  <rect x="87.55" y="994.52" width="40.84" height="40.84" fill="#231f20"/>
  <rect x="87.46" y="1037.77" width="40.84" height="40.84" fill="#231f20"/>
  <rect x="130.41" y="994.52" width="40.84" height="40.84" fill="#231f20"/>
  <rect x="130.32" y="1037.77" width="40.84" height="40.84" fill="#231f20"/>
  <rect x="173.89" y="994.52" width="40.84" height="40.84" fill="#231f20"/>
  <rect x="173.8" y="1037.77" width="40.84" height="40.84" fill="#231f20"/>
  <rect x="216.74" y="994.52" width="40.84" height="40.84" fill="#231f20"/>
  <rect x="216.65" y="1037.77" width="40.84" height="40.84" fill="#231f20"/>
  <rect x="260.32" y="994.52" width="40.84" height="40.84" fill="#231f20"/>
  <rect x="260.23" y="1037.77" width="40.84" height="40.84" fill="#231f20"/>
  <rect x="303.18" y="994.52" width="40.84" height="40.84" fill="#231f20"/>
  <rect x="303.09" y="1037.77" width="40.84" height="40.84" fill="#231f20"/>
  <rect x="346.66" y="994.52" width="40.84" height="40.84" fill="#231f20"/>
  <rect x="346.57" y="1037.77" width="40.84" height="40.84" fill="#231f20"/>
  <rect x="389.51" y="994.52" width="40.84" height="40.84" fill="#231f20"/>
  <rect x="389.42" y="1037.77" width="40.84" height="40.84" fill="#231f20"/>
  <rect x="433.11" y="994.52" width="40.84" height="40.84" fill="#231f20"/>
  <rect x="433.02" y="1037.77" width="40.84" height="40.84" fill="#231f20"/>
  <rect x="475.96" y="994.52" width="40.84" height="40.84" fill="#231f20"/>
  <rect x="475.87" y="1037.77" width="40.84" height="40.84" fill="#231f20"/>
  <rect x="519.54" y="994.52" width="40.84" height="40.84" fill="#231f20"/>
  <rect x="519.45" y="1037.77" width="40.84" height="40.84" fill="#231f20"/>
  <rect x="562.39" y="994.52" width="40.84" height="40.84" fill="#231f20"/>
  <rect x="562.3" y="1037.77" width="40.84" height="40.84" fill="#231f20"/>
  <rect x="605.88" y="994.52" width="40.84" height="40.84" fill="#231f20"/>
  <rect x="605.79" y="1037.77" width="40.84" height="40.84" fill="#231f20"/>
  <rect x="648.73" y="994.52" width="40.84" height="40.84" fill="#231f20"/>
  <rect x="648.64" y="1037.77" width="40.84" height="40.84" fill="#231f20"/>
  <rect x="648.73" y="908.06" width="40.84" height="40.84" fill="#231f20"/>
  <rect x="648.64" y="951.32" width="40.84" height="40.84" fill="#231f20"/>
  <rect x=".72" y="778.64" width="40.84" height="40.84" fill="#231f20"/>
  <rect x=".72" y="821.66" width="40.84" height="40.84" fill="#231f20"/>
  <rect x="359.97" y="188.22" width="13.39" height="13.39" fill="#231f20"/>
  <rect x="359.97" y="144.11" width="13.39" height="13.39" fill="#231f20"/>
  <rect x="317.49" y="188.22" width="13.39" height="13.39" fill="#231f20"/>
  <rect x="317.49" y="144.11" width="13.39" height="13.39" fill="#231f20"/>
  <rect x="576.38" y="188.22" width="13.39" height="13.39" fill="#231f20"/>
  <rect x="576.38" y="144.11" width="13.39" height="13.39" fill="#231f20"/>
  <rect x="533.3" y="144.11" width="13.39" height="13.39" fill="#231f20"/>
  <rect x="491.1" y="144.11" width="13.39" height="13.39" fill="#231f20"/>
  <rect x="448.02" y="144.11" width="13.39" height="13.39" fill="#231f20"/>
  <rect x="576.38" y="101.09" width="13.39" height="13.39" fill="#231f20"/>
  <rect x="533.3" y="101.09" width="13.39" height="13.39" fill="#231f20"/>
  <rect x="491.1" y="101.09" width="13.39" height="13.39" fill="#231f20"/>
  <rect x="448.02" y="101.09" width="13.39" height="13.39" fill="#231f20"/>
  <rect x="749.6" y="144.11" width="13.39" height="13.39" fill="#231f20"/>
  <rect x="706.53" y="144.11" width="13.39" height="13.39" fill="#231f20"/>
  <rect x="664.32" y="144.11" width="13.39" height="13.39" fill="#231f20"/>
  <rect x="621.24" y="144.11" width="13.39" height="13.39" fill="#231f20"/>
  <rect x="576.38" y="231.79" width="13.39" height="13.39" fill="#231f20"/>
  <rect x="533.3" y="231.79" width="13.39" height="13.39" fill="#231f20"/>
  <rect x="491.1" y="231.79" width="13.39" height="13.39" fill="#231f20"/>
  <rect x="448.02" y="231.79" width="13.39" height="13.39" fill="#231f20"/>
  <rect x="706.53" y="231.79" width="13.39" height="13.39" fill="#231f20"/>
  <rect x="664.32" y="231.79" width="13.39" height="13.39" fill="#231f20"/>
  <rect x="621.24" y="231.79" width="13.39" height="13.39" fill="#231f20"/>
  <rect x="879.01" y="231.79" width="13.39" height="13.39" fill="#231f20"/>
  <rect x="835.93" y="231.79" width="13.39" height="13.39" fill="#231f20"/>
  <rect x="793.72" y="231.79" width="13.39" height="13.39" fill="#231f20"/>
  <rect x="749.48" y="231.7" width="13.39" height="13.39" fill="#231f20"/>
  <rect x="834.67" y="402.56" width="13.39" height="13.39" fill="#231f20"/>
  <rect x="792.47" y="402.56" width="13.39" height="13.39" fill="#231f20"/>
  <rect x="749.39" y="402.56" width="13.39" height="13.39" fill="#231f20"/>
  <rect x="576.38" y="273.72" width="13.39" height="13.39" fill="#231f20"/>
  <rect x="533.3" y="273.72" width="13.39" height="13.39" fill="#231f20"/>
  <rect x="491.1" y="273.72" width="13.39" height="13.39" fill="#231f20"/>
  <rect x="706.53" y="273.72" width="13.39" height="13.39" fill="#231f20"/>
  <rect x="664.32" y="273.72" width="13.39" height="13.39" fill="#231f20"/>
  <rect x="621.24" y="273.72" width="13.39" height="13.39" fill="#231f20"/>
  <rect x="576.38" y="315.65" width="13.39" height="13.39" fill="#231f20"/>
  <rect x="533.3" y="315.65" width="13.39" height="13.39" fill="#231f20"/>
  <rect x="491.1" y="315.65" width="13.39" height="13.39" fill="#231f20"/>
  <rect x="447.8" y="315.65" width="13.39" height="13.39" fill="#231f20"/>
  <rect x="404.72" y="315.65" width="13.39" height="13.39" fill="#231f20"/>
  <rect x="362.52" y="315.65" width="13.39" height="13.39" fill="#231f20"/>
  <rect x="706.53" y="315.65" width="13.39" height="13.39" fill="#231f20"/>
  <rect x="664.32" y="315.65" width="13.39" height="13.39" fill="#231f20"/>
  <rect x="621.24" y="315.65" width="13.39" height="13.39" fill="#231f20"/>
  <rect x="576.38" y="360.85" width="13.39" height="13.39" fill="#231f20"/>
  <rect x="533.3" y="360.85" width="13.39" height="13.39" fill="#231f20"/>
  <rect x="491.1" y="360.85" width="13.39" height="13.39" fill="#231f20"/>
  <rect x="706.53" y="360.85" width="13.39" height="13.39" fill="#231f20"/>
  <rect x="664.32" y="360.85" width="13.39" height="13.39" fill="#231f20"/>
  <rect x="621.24" y="360.85" width="13.39" height="13.39" fill="#231f20"/>
  <rect x="576.38" y="402.56" width="13.39" height="13.39" fill="#231f20"/>
  <rect x="533.3" y="402.56" width="13.39" height="13.39" fill="#231f20"/>
  <rect x="491.1" y="402.56" width="13.39" height="13.39" fill="#231f20"/>
  <rect x="447.37" y="360.85" width="13.39" height="13.39" fill="#231f20"/>
  <rect x="405.16" y="360.85" width="13.39" height="13.39" fill="#231f20"/>
  <rect x="447.37" y="402.56" width="13.39" height="13.39" fill="#231f20"/>
  <rect x="405.16" y="402.56" width="13.39" height="13.39" fill="#231f20"/>
  <rect x="447.37" y="444.93" width="13.39" height="13.39" fill="#231f20"/>
  <rect x="405.16" y="444.93" width="13.39" height="13.39" fill="#231f20"/>
  <rect x="447.37" y="488.35" width="13.39" height="13.39" fill="#231f20"/>
  <rect x="405.16" y="488.35" width="13.39" height="13.39" fill="#231f20"/>
  <rect x="447.37" y="532.38" width="13.39" height="13.39" fill="#231f20"/>
  <rect x="405.16" y="532.38" width="13.39" height="13.39" fill="#231f20"/>
  <rect x="359.7" y="360.85" width="13.39" height="13.39" fill="#231f20"/>
  <rect x="317.49" y="360.85" width="13.39" height="13.39" fill="#231f20"/>
  <rect x="405.16" y="15.48" width="13.39" height="13.39" fill="#231f20"/>
  <rect x="359.7" y="15.48" width="13.39" height="13.39" fill="#231f20"/>
  <rect x="317.49" y="15.48" width="13.39" height="13.39" fill="#231f20"/>
  <rect x="359.7" y="57.8" width="13.39" height="13.39" fill="#231f20"/>
  <rect x="317.49" y="57.8" width="13.39" height="13.39" fill="#231f20"/>
  <rect x="359.7" y="402.56" width="13.39" height="13.39" fill="#231f20"/>
  <rect x="317.49" y="402.56" width="13.39" height="13.39" fill="#231f20"/>
  <rect x="359.7" y="444.93" width="13.39" height="13.39" fill="#231f20"/>
  <rect x="317.49" y="444.93" width="13.39" height="13.39" fill="#231f20"/>
  <rect x="359.7" y="488.35" width="13.39" height="13.39" fill="#231f20"/>
  <rect x="317.49" y="488.35" width="13.39" height="13.39" fill="#231f20"/>
  <rect x="359.7" y="532.38" width="13.39" height="13.39" fill="#231f20"/>
  <rect x="317.49" y="532.38" width="13.39" height="13.39" fill="#231f20"/>
  <rect x="447.37" y="576.92" width="13.39" height="13.39" fill="#231f20"/>
  <rect x="405.16" y="576.92" width="13.39" height="13.39" fill="#231f20"/>
  <rect x="447.37" y="618.29" width="13.39" height="13.39" fill="#231f20"/>
  <rect x="405.16" y="618.29" width="13.39" height="13.39" fill="#231f20"/>
  <rect x="447.37" y="660.95" width="13.39" height="13.39" fill="#231f20"/>
  <rect x="405.16" y="660.95" width="13.39" height="13.39" fill="#231f20"/>
  <rect x="619.45" y="705.43" width="13.39" height="13.39" fill="#231f20"/>
  <rect x="577.24" y="705.43" width="13.39" height="13.39" fill="#231f20"/>
  <rect x="619.45" y="748.08" width="13.39" height="13.39" fill="#231f20"/>
  <rect x="577.24" y="748.08" width="13.39" height="13.39" fill="#231f20"/>
  <rect x="359.7" y="576.92" width="13.39" height="13.39" fill="#231f20"/>
  <rect x="317.49" y="576.92" width="13.39" height="13.39" fill="#231f20"/>
  <rect x="359.7" y="618.29" width="13.39" height="13.39" fill="#231f20"/>
  <rect x="317.49" y="618.29" width="13.39" height="13.39" fill="#231f20"/>
  <rect x="359.7" y="660.95" width="13.39" height="13.39" fill="#231f20"/>
  <rect x="317.49" y="660.95" width="13.39" height="13.39" fill="#231f20"/>
  <rect x="274.46" y="444.93" width="13.39" height="13.39" fill="#231f20"/>
  <rect x="274.46" y="488.35" width="13.39" height="13.39" fill="#231f20"/>
  <rect x="274.46" y="532.38" width="13.39" height="13.39" fill="#231f20"/>
  <rect x="274.46" y="576.92" width="13.39" height="13.39" fill="#231f20"/>
  <rect x="14.57" y="488.35" width="13.39" height="13.39" fill="#231f20"/>
  <rect x="14.57" y="532.38" width="13.39" height="13.39" fill="#231f20"/>
  <rect x="14.57" y="576.92" width="13.39" height="13.39" fill="#231f20"/>
  <rect x="274.46" y="618.29" width="13.39" height="13.39" fill="#231f20"/>
  <rect x="274.46" y="660.95" width="13.39" height="13.39" fill="#231f20"/>
  <rect x="57.87" y="444.93" width="13.39" height="13.39" fill="#231f20"/>
  <rect x="57.87" y="488.35" width="13.39" height="13.39" fill="#231f20"/>
  <rect x="57.87" y="532.38" width="13.39" height="13.39" fill="#231f20"/>
  <rect x="57.87" y="576.92" width="13.39" height="13.39" fill="#231f20"/>
  <rect x="99.96" y="532.38" width="13.39" height="13.39" fill="#231f20"/>
  <rect x="99.96" y="576.92" width="13.39" height="13.39" fill="#231f20"/>
  <rect x="57.87" y="618.29" width="13.39" height="13.39" fill="#231f20"/>
  <rect x="57.87" y="660.95" width="13.39" height="13.39" fill="#231f20"/>
  <rect x="57.87" y="706.33" width="13.39" height="13.39" fill="#231f20"/>
  <rect x="57.87" y="750.87" width="13.39" height="13.39" fill="#231f20"/>
  <rect x="101.69" y="706.33" width="13.39" height="13.39" fill="#231f20"/>
  <rect x="101.69" y="750.87" width="13.39" height="13.39" fill="#231f20"/>
  <rect x="57.87" y="792.24" width="13.39" height="13.39" fill="#231f20"/>
  <rect x="57.87" y="834.9" width="13.39" height="13.39" fill="#231f20"/>
  <rect x="57.87" y="101.17" width="13.39" height="13.39" fill="#231f20"/>
  <rect x="57.87" y="230.33" width="13.39" height="13.39" fill="#231f20"/>
  <rect x="57.87" y="187.37" width="13.39" height="13.39" fill="#231f20"/>
  <rect x="57.87" y="273.57" width="13.39" height="13.39" fill="#231f20"/>
  <rect x="57.87" y="318.11" width="13.39" height="13.39" fill="#231f20"/>
  <rect x="57.87" y="359.49" width="13.39" height="13.39" fill="#231f20"/>
  <rect x="57.87" y="402.15" width="13.39" height="13.39" fill="#231f20"/>
  <rect x="531.78" y="705.43" width="13.39" height="13.39" fill="#231f20"/>
  <rect x="489.57" y="705.43" width="13.39" height="13.39" fill="#231f20"/>
  <rect x="531.78" y="748.08" width="13.39" height="13.39" fill="#231f20"/>
  <rect x="489.57" y="748.08" width="13.39" height="13.39" fill="#231f20"/>
  <rect x="447.37" y="705.43" width="13.39" height="13.39" fill="#231f20"/>
  <rect x="405.16" y="705.43" width="13.39" height="13.39" fill="#231f20"/>
  <rect x="447.37" y="748.08" width="13.39" height="13.39" fill="#231f20"/>
  <rect x="405.16" y="748.08" width="13.39" height="13.39" fill="#231f20"/>
  <rect x="577.24" y="792.19" width="13.39" height="13.39" fill="#231f20"/>
  <rect x="531.78" y="792.19" width="13.39" height="13.39" fill="#231f20"/>
  <rect x="489.57" y="792.19" width="13.39" height="13.39" fill="#231f20"/>
  <rect x="447.37" y="792.19" width="13.39" height="13.39" fill="#231f20"/>
  <rect x="405.16" y="792.19" width="13.39" height="13.39" fill="#231f20"/>
  <rect x="706.93" y="576.92" width="13.39" height="13.39" fill="#231f20"/>
  <rect x="661.47" y="576.92" width="13.39" height="13.39" fill="#231f20"/>
  <rect x="704.9" y="705.43" width="13.39" height="13.39" fill="#231f20"/>
  <rect x="662.69" y="705.43" width="13.39" height="13.39" fill="#231f20"/>
  <rect x="706.93" y="532.38" width="13.39" height="13.39" fill="#231f20"/>
  <rect x="661.47" y="532.38" width="13.39" height="13.39" fill="#231f20"/>
  <rect x="704.9" y="660.95" width="13.39" height="13.39" fill="#231f20"/>
  <rect x="749.02" y="705.43" width="13.39" height="13.39" fill="#231f20"/>
  <rect x="749.02" y="660.95" width="13.39" height="13.39" fill="#231f20"/>
  <rect x="662.69" y="660.95" width="13.39" height="13.39" fill="#231f20"/>
  <rect x="706.93" y="488.35" width="13.39" height="13.39" fill="#231f20"/>
  <rect x="661.47" y="488.35" width="13.39" height="13.39" fill="#231f20"/>
  <rect x="793.33" y="532.38" width="13.39" height="13.39" fill="#231f20"/>
  <rect x="747.87" y="532.38" width="13.39" height="13.39" fill="#231f20"/>
  <rect x="793.33" y="488.35" width="13.39" height="13.39" fill="#231f20"/>
  <rect x="747.87" y="488.35" width="13.39" height="13.39" fill="#231f20"/>
  <rect x="706.93" y="444.93" width="13.39" height="13.39" fill="#231f20"/>
  <rect x="661.47" y="444.93" width="13.39" height="13.39" fill="#231f20"/>
  <rect x="793.33" y="444.93" width="13.39" height="13.39" fill="#231f20"/>
  <rect x="747.87" y="444.93" width="13.39" height="13.39" fill="#231f20"/>
  <rect x="578.64" y="488.35" width="13.39" height="13.39" fill="#231f20"/>
  <rect x="533.18" y="488.35" width="13.39" height="13.39" fill="#231f20"/>
  <rect x="619.58" y="488.35" width="13.39" height="13.39" fill="#231f20"/>
  <rect x="578.64" y="444.93" width="13.39" height="13.39" fill="#231f20"/>
  <rect x="533.18" y="444.93" width="13.39" height="13.39" fill="#231f20"/>
  <rect x="491.1" y="488.35" width="13.39" height="13.39" fill="#231f20"/>
  <rect x="491.1" y="444.93" width="13.39" height="13.39" fill="#231f20"/>
  <rect x="533.18" y="576.92" width="13.39" height="13.39" fill="#231f20"/>
  <rect x="533.18" y="532.38" width="13.39" height="13.39" fill="#231f20"/>
  <rect x="578.64" y="532.38" width="13.39" height="13.39" fill="#231f20"/>
  <rect x="491.1" y="576.92" width="13.39" height="13.39" fill="#231f20"/>
  <rect x="491.1" y="532.38" width="13.39" height="13.39" fill="#231f20"/>
  <rect x="619.58" y="444.93" width="13.39" height="13.39" fill="#231f20"/>
  <rect x="704.9" y="618.29" width="13.39" height="13.39" fill="#231f20"/>
  <rect x="662.69" y="618.29" width="13.39" height="13.39" fill="#231f20"/>
  <rect x="662.69" y="748.08" width="13.39" height="13.39" fill="#231f20"/>
  <rect x="620.49" y="792.19" width="13.39" height="13.39" fill="#231f20"/>
  <rect x="577.24" y="921.66" width="13.39" height="13.39" fill="#231f20"/>
  <rect x="531.78" y="921.66" width="13.39" height="13.39" fill="#231f20"/>
  <rect x="489.57" y="921.66" width="13.39" height="13.39" fill="#231f20"/>
  <rect x="447.37" y="921.66" width="13.39" height="13.39" fill="#231f20"/>
  <rect x="405.16" y="921.66" width="13.39" height="13.39" fill="#231f20"/>
  <rect x="620.49" y="921.66" width="13.39" height="13.39" fill="#231f20"/>
  <rect x="577.24" y="834.87" width="13.39" height="13.39" fill="#231f20"/>
  <rect x="531.78" y="834.87" width="13.39" height="13.39" fill="#231f20"/>
  <rect x="489.57" y="834.87" width="13.39" height="13.39" fill="#231f20"/>
  <rect x="447.37" y="834.87" width="13.39" height="13.39" fill="#231f20"/>
  <rect x="620.49" y="834.87" width="13.39" height="13.39" fill="#231f20"/>
  <rect x="315.06" y="921.66" width="13.39" height="13.39" fill="#231f20"/>
  <rect x="269.61" y="921.66" width="13.39" height="13.39" fill="#231f20"/>
  <rect x="227.4" y="921.66" width="13.39" height="13.39" fill="#231f20"/>
  <rect x="185.19" y="921.66" width="13.39" height="13.39" fill="#231f20"/>
  <rect x="142.98" y="921.66" width="13.39" height="13.39" fill="#231f20"/>
  <rect x="269.61" y="878.41" width="13.39" height="13.39" fill="#231f20"/>
  <rect x="227.4" y="878.41" width="13.39" height="13.39" fill="#231f20"/>
  <rect x="185.19" y="878.41" width="13.39" height="13.39" fill="#231f20"/>
  <rect x="142.98" y="878.41" width="13.39" height="13.39" fill="#231f20"/>
  <rect x="269.61" y="835.39" width="13.39" height="13.39" fill="#231f20"/>
  <rect x="227.4" y="835.39" width="13.39" height="13.39" fill="#231f20"/>
  <rect x="185.19" y="835.39" width="13.39" height="13.39" fill="#231f20"/>
  <rect x="142.98" y="835.39" width="13.39" height="13.39" fill="#231f20"/>
  <rect x="185.19" y="792.37" width="13.39" height="13.39" fill="#231f20"/>
  <rect x="142.98" y="792.37" width="13.39" height="13.39" fill="#231f20"/>
  <rect x="101.69" y="921.66" width="13.39" height="13.39" fill="#231f20"/>
  <rect x="101.69" y="878.41" width="13.39" height="13.39" fill="#231f20"/>
  <rect x="101.69" y="835.39" width="13.39" height="13.39" fill="#231f20"/>
  <rect x="101.69" y="792.37" width="13.39" height="13.39" fill="#231f20"/>
  <rect x="358.31" y="921.66" width="13.39" height="13.39" fill="#231f20"/>
  <rect x="577.24" y="965.19" width="13.39" height="13.39" fill="#231f20"/>
  <rect x="531.78" y="965.19" width="13.39" height="13.39" fill="#231f20"/>
  <rect x="489.57" y="965.19" width="13.39" height="13.39" fill="#231f20"/>
  <rect x="447.37" y="965.19" width="13.39" height="13.39" fill="#231f20"/>
  <rect x="405.16" y="965.19" width="13.39" height="13.39" fill="#231f20"/>
  <rect x="620.49" y="965.19" width="13.39" height="13.39" fill="#231f20"/>
  <rect x="705.78" y="921.66" width="13.39" height="13.39" fill="#231f20"/>
  <rect x="749.02" y="921.66" width="13.39" height="13.39" fill="#231f20"/>
  <rect x="705.78" y="965.19" width="13.39" height="13.39" fill="#231f20"/>
  <rect x="749.02" y="965.19" width="13.39" height="13.39" fill="#231f20"/>
  <rect x="705.78" y="1006.9" width="13.39" height="13.39" fill="#231f20"/>
  <rect x="749.02" y="1006.9" width="13.39" height="13.39" fill="#231f20"/>
  <rect x="835.38" y="921.66" width="13.39" height="13.39" fill="#231f20"/>
  <rect x="878.62" y="921.66" width="13.39" height="13.39" fill="#231f20"/>
  <rect x="835.38" y="879.71" width="13.39" height="13.39" fill="#231f20"/>
  <rect x="878.62" y="879.71" width="13.39" height="13.39" fill="#231f20"/>
  <rect x="835.38" y="965.19" width="13.39" height="13.39" fill="#231f20"/>
  <rect x="878.62" y="965.19" width="13.39" height="13.39" fill="#231f20"/>
  <rect x="921.87" y="921.66" width="13.39" height="13.39" fill="#231f20"/>
  <rect x="965.11" y="921.66" width="13.39" height="13.39" fill="#231f20"/>
  <rect x="662.53" y="792.19" width="13.39" height="13.39" fill="#231f20"/>
  <rect x="705.78" y="792.19" width="13.39" height="13.39" fill="#231f20"/>
  <rect x="706.93" y="748.08" width="13.39" height="13.39" fill="#231f20"/>
  <rect x="750.17" y="748.08" width="13.39" height="13.39" fill="#231f20"/>
  <rect x="924.75" y="532.38" width="13.39" height="13.39" fill="#231f20"/>
  <rect x="968.99" y="532.38" width="13.39" height="13.39" fill="#231f20"/>
  <rect x="968.99" y="576.92" width="13.39" height="13.39" fill="#231f20"/>
  <rect x="924.75" y="576.92" width="13.39" height="13.39" fill="#231f20"/>
  <rect x="142.06" y="532.38" width="13.39" height="13.39" fill="#231f20"/>
  <rect x="99.96" y="402.15" width="13.39" height="13.39" fill="#231f20"/>
  <rect x="142.06" y="402.15" width="13.39" height="13.39" fill="#231f20"/>
  <rect x="186.29" y="532.38" width="13.39" height="13.39" fill="#231f20"/>
  <rect x="186.29" y="576.92" width="13.39" height="13.39" fill="#231f20"/>
  <rect x="142.06" y="576.92" width="13.39" height="13.39" fill="#231f20"/>
  <rect x="921.87" y="965.19" width="13.39" height="13.39" fill="#231f20"/>
  <rect x="965.11" y="965.19" width="13.39" height="13.39" fill="#231f20"/>
  <rect x="1008.18" y="921.66" width="13.39" height="13.39" fill="#231f20"/>
  <rect x="1051.42" y="921.66" width="13.39" height="13.39" fill="#231f20"/>
  <rect x="1008.18" y="965.19" width="13.39" height="13.39" fill="#231f20"/>
  <rect x="1051.42" y="965.19" width="13.39" height="13.39" fill="#231f20"/>
  <rect x="921.87" y="1006.9" width="13.39" height="13.39" fill="#231f20"/>
  <rect x="965.11" y="1006.9" width="13.39" height="13.39" fill="#231f20"/>
  <rect x="1008.18" y="1006.9" width="13.39" height="13.39" fill="#231f20"/>
  <rect x="1051.42" y="1006.9" width="13.39" height="13.39" fill="#231f20"/>
  <rect x="835.38" y="1006.9" width="13.39" height="13.39" fill="#231f20"/>
  <rect x="878.62" y="1006.9" width="13.39" height="13.39" fill="#231f20"/>
  <rect x="921.87" y="1050.43" width="13.39" height="13.39" fill="#231f20"/>
  <rect x="965.11" y="1050.43" width="13.39" height="13.39" fill="#231f20"/>
  <rect x="1008.18" y="1050.43" width="13.39" height="13.39" fill="#231f20"/>
  <rect x="1051.42" y="1050.43" width="13.39" height="13.39" fill="#231f20"/>
  <rect x="835.38" y="1050.43" width="13.39" height="13.39" fill="#231f20"/>
  <rect x="878.62" y="1050.43" width="13.39" height="13.39" fill="#231f20"/>
  <rect x="705.78" y="1050.43" width="13.39" height="13.39" fill="#231f20"/>
  <rect x="749.02" y="1050.43" width="13.39" height="13.39" fill="#231f20"/>
  <rect x="315.06" y="965.19" width="13.39" height="13.39" fill="#231f20"/>
  <rect x="269.61" y="965.19" width="13.39" height="13.39" fill="#231f20"/>
  <rect x="227.4" y="965.19" width="13.39" height="13.39" fill="#231f20"/>
  <rect x="185.19" y="965.19" width="13.39" height="13.39" fill="#231f20"/>
  <rect x="142.98" y="965.19" width="13.39" height="13.39" fill="#231f20"/>
  <rect x="101.69" y="965.19" width="13.39" height="13.39" fill="#231f20"/>
  <rect x="57.87" y="921.66" width="13.39" height="13.39" fill="#231f20"/>
  <rect x="57.87" y="878.41" width="13.39" height="13.39" fill="#231f20"/>
  <rect x="57.87" y="965.19" width="13.39" height="13.39" fill="#231f20"/>
  <rect x="57.87" y="1008.05" width="13.39" height="13.39" fill="#231f20"/>
  <rect x="57.87" y="1051.58" width="13.39" height="13.39" fill="#231f20"/>
  <rect x="14.35" y="1051.58" width="13.39" height="13.39" fill="#231f20"/>
  <rect x="358.31" y="965.19" width="13.39" height="13.39" fill="#231f20"/>
  <rect x="359.7" y="705.43" width="13.39" height="13.39" fill="#231f20"/>
  <rect x="317.49" y="705.43" width="13.39" height="13.39" fill="#231f20"/>
  <rect x="359.7" y="748.08" width="13.39" height="13.39" fill="#231f20"/>
  <rect x="317.49" y="748.08" width="13.39" height="13.39" fill="#231f20"/>
  <rect x="706.53" y="402.56" width="13.39" height="13.39" fill="#231f20"/>
  <rect x="664.32" y="402.56" width="13.39" height="13.39" fill="#231f20"/>
  <rect x="621.24" y="402.56" width="13.39" height="13.39" fill="#231f20"/>
  <rect x="749.6" y="101.09" width="13.39" height="13.39" fill="#231f20"/>
  <rect x="706.53" y="101.09" width="13.39" height="13.39" fill="#231f20"/>
  <rect x="664.32" y="101.09" width="13.39" height="13.39" fill="#231f20"/>
  <rect x="621.24" y="101.09" width="13.39" height="13.39" fill="#231f20"/>
  <rect x="792.03" y="144.11" width="13.39" height="13.39" fill="#231f20"/>
  <rect x="792.03" y="101.09" width="13.39" height="13.39" fill="#231f20"/>
  <rect x="965.25" y="144.11" width="13.39" height="13.39" fill="#231f20"/>
  <rect x="922.18" y="144.11" width="13.39" height="13.39" fill="#231f20"/>
  <rect x="879.97" y="144.11" width="13.39" height="13.39" fill="#231f20"/>
  <rect x="836.89" y="144.11" width="13.39" height="13.39" fill="#231f20"/>
  <rect x="749.6" y="187.28" width="13.39" height="13.39" fill="#231f20"/>
  <rect x="706.53" y="187.28" width="13.39" height="13.39" fill="#231f20"/>
  <rect x="664.32" y="187.28" width="13.39" height="13.39" fill="#231f20"/>
  <rect x="621.24" y="187.28" width="13.39" height="13.39" fill="#231f20"/>
  <rect x="792.03" y="187.28" width="13.39" height="13.39" fill="#231f20"/>
  <rect x="965.25" y="187.28" width="13.39" height="13.39" fill="#231f20"/>
  <rect x="1008.17" y="144.11" width="13.39" height="13.39" fill="#231f20"/>
  <rect x="1008.17" y="187.28" width="13.39" height="13.39" fill="#231f20"/>
  <rect x="922.18" y="187.28" width="13.39" height="13.39" fill="#231f20"/>
  <rect x="879.97" y="187.28" width="13.39" height="13.39" fill="#231f20"/>
  <rect x="836.89" y="187.28" width="13.39" height="13.39" fill="#231f20"/>
  <rect x="965.25" y="101.09" width="13.39" height="13.39" fill="#231f20"/>
  <rect x="1052.95" y="57.73" width="13.39" height="13.39" fill="#231f20"/>
  <rect x="1052.95" y="100.89" width="13.39" height="13.39" fill="#231f20"/>
  <rect x="1052.95" y="14.71" width="13.39" height="13.39" fill="#231f20"/>
  <rect x="922.18" y="101.09" width="13.39" height="13.39" fill="#231f20"/>
  <rect x="879.97" y="101.09" width="13.39" height="13.39" fill="#231f20"/>
  <rect x="836.89" y="101.09" width="13.39" height="13.39" fill="#231f20"/>
</svg>