<?xml version="1.0" encoding="UTF-8"?>
<svg id="_8" data-name="8" xmlns="http://www.w3.org/2000/svg" viewBox="0 0 1080 1080">
  <rect x="779.14" y="346.93" width="40.84" height="40.84" fill="#231f20"/>
  <rect x="822.59" y="346.93" width="40.84" height="40.84" fill="#231f20"/>
  <rect x="779.14" y="303.76" width="40.84" height="40.84" fill="#231f20"/>
  <rect x="822.59" y="303.76" width="40.84" height="40.84" fill="#231f20"/>
  <rect x="779.14" y="433.37" width="40.84" height="40.84" fill="#231f20"/>
  <rect x="822.59" y="433.37" width="40.84" height="40.84" fill="#231f20"/>
  <rect x="779.14" y="390.2" width="40.84" height="40.84" fill="#231f20"/>
  <rect x="822.59" y="390.2" width="40.84" height="40.84" fill="#231f20"/>
  <rect x="692.62" y="303.76" width="40.84" height="40.84" fill="#231f20"/>
  <rect x="736.08" y="303.76" width="40.84" height="40.84" fill="#231f20"/>
  <rect x="779.14" y="260.6" width="40.84" height="40.84" fill="#231f20"/>
  <rect x="779.14" y="563.07" width="40.84" height="40.84" fill="#231f20"/>
  <rect x="822.59" y="563.07" width="40.84" height="40.84" fill="#231f20"/>
  <rect x="779.14" y="519.9" width="40.84" height="40.84" fill="#231f20"/>
  <rect x="822.59" y="519.9" width="40.84" height="40.84" fill="#231f20"/>
  <rect x="779.14" y="649.51" width="40.84" height="40.84" fill="#231f20"/>
  <rect x="822.59" y="649.51" width="40.84" height="40.84" fill="#231f20"/>
  <rect x="779.14" y="606.35" width="40.84" height="40.84" fill="#231f20"/>
  <rect x="822.59" y="606.35" width="40.84" height="40.84" fill="#231f20"/>
  <rect x="779.14" y="476.74" width="40.84" height="40.84" fill="#231f20"/>
  <rect x="822.59" y="476.74" width="40.84" height="40.84" fill="#231f20"/>
  <rect x="865.32" y="346.93" width="40.84" height="40.84" fill="#231f20"/>
  <rect x="865.32" y="433.37" width="40.84" height="40.84" fill="#231f20"/>
  <rect x="865.32" y="390.2" width="40.84" height="40.84" fill="#231f20"/>
  <rect x="865.32" y="563.07" width="40.84" height="40.84" fill="#231f20"/>
  <rect x="865.32" y="519.9" width="40.84" height="40.84" fill="#231f20"/>
  <rect x="865.32" y="649.51" width="40.84" height="40.84" fill="#231f20"/>
  <rect x="865.32" y="606.35" width="40.84" height="40.84" fill="#231f20"/>
  <rect x="865.32" y="476.74" width="40.84" height="40.84" fill="#231f20"/>
  <rect x="909.03" y="433.37" width="40.84" height="40.84" fill="#231f20"/>
  <rect x="951.69" y="433.37" width="40.84" height="40.84" fill="#231f20"/>
  <rect x="995.41" y="433.37" width="40.84" height="40.84" fill="#231f20"/>
  <rect x="909.03" y="390.2" width="40.84" height="40.84" fill="#231f20"/>
  <rect x="909.03" y="563.07" width="40.84" height="40.84" fill="#231f20"/>
  <rect x="909.03" y="519.9" width="40.84" height="40.84" fill="#231f20"/>
  <rect x="909.03" y="476.74" width="40.84" height="40.84" fill="#231f20"/>
  <rect x="692.62" y="260.6" width="40.84" height="40.84" fill="#231f20"/>
  <rect x="736.08" y="260.6" width="40.84" height="40.84" fill="#231f20"/>
  <rect x="649.37" y="260.6" width="40.84" height="40.84" fill="#231f20"/>
  <rect x="562.86" y="260.6" width="40.84" height="40.84" fill="#231f20"/>
  <rect x="606.31" y="260.6" width="40.84" height="40.84" fill="#231f20"/>
  <rect x="692.43" y="174.27" width="40.84" height="40.84" fill="#231f20"/>
  <rect x="692.62" y="217.43" width="40.84" height="40.84" fill="#231f20"/>
  <rect x="736.08" y="217.43" width="40.84" height="40.84" fill="#231f20"/>
  <rect x="649.37" y="217.43" width="40.84" height="40.84" fill="#231f20"/>
  <rect x="562.86" y="217.43" width="40.84" height="40.84" fill="#231f20"/>
  <rect x="606.31" y="217.43" width="40.84" height="40.84" fill="#231f20"/>
  <rect x="649.37" y="174.27" width="40.84" height="40.84" fill="#231f20"/>
  <rect x="562.86" y="174.27" width="40.84" height="40.84" fill="#231f20"/>
  <rect x="606.31" y="174.27" width="40.84" height="40.84" fill="#231f20"/>
  <rect x="519.69" y="260.6" width="40.84" height="40.84" fill="#231f20"/>
  <rect x="433.81" y="260.6" width="40.84" height="40.84" fill="#231f20"/>
  <rect x="476.63" y="260.6" width="40.84" height="40.84" fill="#231f20"/>
  <rect x="519.69" y="217.43" width="40.84" height="40.84" fill="#231f20"/>
  <rect x="433.81" y="217.43" width="40.84" height="40.84" fill="#231f20"/>
  <rect x="476.63" y="217.43" width="40.84" height="40.84" fill="#231f20"/>
  <rect x="390.08" y="260.6" width="40.84" height="40.84" fill="#231f20"/>
  <rect x="390.08" y="217.43" width="40.84" height="40.84" fill="#231f20"/>
  <rect x="346.91" y="260.6" width="40.84" height="40.84" fill="#231f20"/>
  <rect x="260.69" y="260.6" width="40.84" height="40.84" fill="#231f20"/>
  <rect x="260.69" y="303.65" width="40.84" height="40.84" fill="#231f20"/>
  <rect x="303.85" y="260.6" width="40.84" height="40.84" fill="#231f20"/>
  <rect x="346.91" y="217.43" width="40.84" height="40.84" fill="#231f20"/>
  <rect x="346.91" y="303.65" width="40.84" height="40.84" fill="#231f20"/>
  <rect x="303.85" y="303.65" width="40.84" height="40.84" fill="#231f20"/>
  <rect x="346.91" y="347.06" width="40.84" height="40.84" fill="#231f20"/>
  <rect x="260.69" y="347.06" width="40.84" height="40.84" fill="#231f20"/>
  <rect x="260.69" y="390.11" width="40.84" height="40.84" fill="#231f20"/>
  <rect x="303.85" y="347.06" width="40.84" height="40.84" fill="#231f20"/>
  <rect x="346.91" y="390.11" width="40.84" height="40.84" fill="#231f20"/>
  <rect x="303.85" y="390.11" width="40.84" height="40.84" fill="#231f20"/>
  <rect x="433.48" y="303.65" width="40.84" height="40.84" fill="#231f20"/>
  <rect x="390.42" y="303.65" width="40.84" height="40.84" fill="#231f20"/>
  <rect x="433.48" y="347.06" width="40.84" height="40.84" fill="#231f20"/>
  <rect x="390.42" y="347.06" width="40.84" height="40.84" fill="#231f20"/>
  <rect x="433.48" y="390.11" width="40.84" height="40.84" fill="#231f20"/>
  <rect x="174.45" y="519.72" width="40.84" height="40.84" fill="#231f20"/>
  <rect x="174.45" y="563.12" width="40.84" height="40.84" fill="#231f20"/>
  <rect x="174.45" y="606.18" width="40.84" height="40.84" fill="#231f20"/>
  <rect x="131.05" y="519.72" width="40.84" height="40.84" fill="#231f20"/>
  <rect x="174.45" y="476.31" width="40.84" height="40.84" fill="#231f20"/>
  <rect x="131.05" y="476.31" width="40.84" height="40.84" fill="#231f20"/>
  <rect x="174.45" y="433.49" width="40.84" height="40.84" transform="translate(648.79 259.04) rotate(90)" fill="#231f20"/>
  <rect x="174.45" y="390.08" width="40.84" height="40.84" transform="translate(605.38 215.63) rotate(90)" fill="#231f20"/>
  <rect x="131.05" y="563.12" width="40.84" height="40.84" fill="#231f20"/>
  <rect x="131.05" y="606.18" width="40.84" height="40.84" fill="#231f20"/>
  <rect x="174.45" y="649.23" width="40.84" height="40.84" fill="#231f20"/>
  <rect x="131.05" y="649.23" width="40.84" height="40.84" fill="#231f20"/>
  <rect x="390.42" y="390.11" width="40.84" height="40.84" fill="#231f20"/>
  <rect x="260.69" y="433.17" width="40.84" height="40.84" fill="#231f20"/>
  <rect x="303.85" y="433.17" width="40.84" height="40.84" fill="#231f20"/>
  <rect x="260.69" y="476.57" width="40.84" height="40.84" fill="#231f20"/>
  <rect x="260.69" y="519.63" width="40.84" height="40.84" fill="#231f20"/>
  <rect x="303.85" y="476.57" width="40.84" height="40.84" fill="#231f20"/>
  <rect x="303.85" y="519.63" width="40.84" height="40.84" fill="#231f20"/>
  <rect x="303.88" y="562.68" width="40.84" height="40.84" fill="#231f20"/>
  <rect x="260.82" y="562.68" width="40.84" height="40.84" fill="#231f20"/>
  <rect x="303.88" y="606.09" width="40.84" height="40.84" fill="#231f20"/>
  <rect x="260.82" y="606.09" width="40.84" height="40.84" fill="#231f20"/>
  <rect x="303.88" y="649.14" width="40.84" height="40.84" fill="#231f20"/>
  <rect x="260.82" y="649.14" width="40.84" height="40.84" fill="#231f20"/>
  <rect x="260.69" y="692.63" width="40.84" height="40.84" fill="#231f20"/>
  <rect x="217.4" y="347.06" width="40.84" height="40.84" fill="#231f20"/>
  <rect x="217.4" y="390.11" width="40.84" height="40.84" fill="#231f20"/>
  <rect x="87.89" y="390.11" width="40.84" height="40.84" fill="#231f20"/>
  <rect x="131.05" y="390.11" width="40.84" height="40.84" fill="#231f20"/>
  <rect x="1.65" y="390.08" width="40.84" height="40.84" transform="translate(432.58 388.43) rotate(90)" fill="#231f20"/>
  <rect x="44.6" y="390.11" width="40.84" height="40.84" fill="#231f20"/>
  <rect x="217.4" y="260.66" width="40.84" height="40.84" fill="#231f20"/>
  <rect x="217.4" y="303.71" width="40.84" height="40.84" fill="#231f20"/>
  <rect x="174.45" y="260.66" width="40.84" height="40.84" fill="#231f20"/>
  <rect x="174.45" y="303.71" width="40.84" height="40.84" fill="#231f20"/>
  <rect x="217.4" y="433.17" width="40.84" height="40.84" fill="#231f20"/>
  <rect x="217.4" y="476.57" width="40.84" height="40.84" fill="#231f20"/>
  <rect x="217.4" y="519.63" width="40.84" height="40.84" fill="#231f20"/>
  <rect x="217.53" y="562.68" width="40.84" height="40.84" fill="#231f20"/>
  <rect x="217.53" y="606.09" width="40.84" height="40.84" fill="#231f20"/>
  <rect x="217.53" y="649.14" width="40.84" height="40.84" fill="#231f20"/>
  <rect x="217.4" y="692.63" width="40.84" height="40.84" fill="#231f20"/>
  <rect x="303.85" y="692.63" width="40.84" height="40.84" fill="#231f20"/>
  <rect x="303.88" y="735.6" width="40.84" height="40.84" fill="#231f20"/>
  <rect x="260.82" y="735.6" width="40.84" height="40.84" fill="#231f20"/>
  <rect x="260.69" y="779.09" width="40.84" height="40.84" fill="#231f20"/>
  <rect x="217.59" y="735.6" width="40.84" height="40.84" fill="#231f20"/>
  <rect x="217.46" y="779.09" width="40.84" height="40.84" fill="#231f20"/>
  <rect x="174.47" y="692.63" width="40.84" height="40.84" fill="#231f20"/>
  <rect x="131.18" y="692.63" width="40.84" height="40.84" fill="#231f20"/>
  <rect x="174.6" y="735.6" width="40.84" height="40.84" fill="#231f20"/>
  <rect x="174.47" y="779.09" width="40.84" height="40.84" fill="#231f20"/>
  <rect x="131.37" y="735.6" width="40.84" height="40.84" fill="#231f20"/>
  <rect x="131.24" y="779.09" width="40.84" height="40.84" fill="#231f20"/>
  <rect x="88.03" y="822.04" width="40.84" height="40.84" fill="#231f20"/>
  <rect x="87.9" y="865.53" width="40.84" height="40.84" fill="#231f20"/>
  <rect x="88.03" y="735.64" width="40.84" height="40.84" fill="#231f20"/>
  <rect x="87.9" y="779.13" width="40.84" height="40.84" fill="#231f20"/>
  <rect x="44.67" y="865.53" width="40.84" height="40.84" fill="#231f20"/>
  <rect x="303.85" y="779.09" width="40.84" height="40.84" fill="#231f20"/>
  <rect x="260.69" y="822.14" width="40.84" height="40.84" fill="#231f20"/>
  <rect x="303.85" y="822.14" width="40.84" height="40.84" fill="#231f20"/>
  <rect x="390" y="735.68" width="40.84" height="40.84" fill="#231f20"/>
  <rect x="346.94" y="735.68" width="40.84" height="40.84" fill="#231f20"/>
  <rect x="390" y="779.09" width="40.84" height="40.84" fill="#231f20"/>
  <rect x="346.94" y="779.09" width="40.84" height="40.84" fill="#231f20"/>
  <rect x="390" y="822.14" width="40.84" height="40.84" fill="#231f20"/>
  <rect x="346.94" y="822.14" width="40.84" height="40.84" fill="#231f20"/>
  <rect x="44.74" y="908.66" width="40.84" height="40.84" fill="#231f20"/>
  <rect x="87.83" y="908.66" width="40.84" height="40.84" fill="#231f20"/>
  <rect x="390.14" y="865.2" width="40.84" height="40.84" fill="#231f20"/>
  <rect x="347.08" y="865.2" width="40.84" height="40.84" fill="#231f20"/>
  <rect x="346.94" y="908.66" width="40.84" height="40.84" fill="#231f20"/>
  <rect x="303.85" y="951.71" width="40.84" height="40.84" fill="#231f20"/>
  <rect x="347.08" y="951.71" width="40.84" height="40.84" fill="#231f20"/>
  <rect x="433.69" y="779.09" width="40.84" height="40.84" fill="#231f20"/>
  <rect x="476.85" y="779.09" width="40.84" height="40.84" fill="#231f20"/>
  <rect x="433.69" y="822.14" width="40.84" height="40.84" fill="#231f20"/>
  <rect x="476.85" y="822.14" width="40.84" height="40.84" fill="#231f20"/>
  <rect x="563.01" y="779.09" width="40.84" height="40.84" fill="#231f20"/>
  <rect x="519.95" y="779.09" width="40.84" height="40.84" fill="#231f20"/>
  <rect x="563.01" y="822.14" width="40.84" height="40.84" fill="#231f20"/>
  <rect x="519.95" y="822.14" width="40.84" height="40.84" fill="#231f20"/>
  <rect x="606.49" y="779.09" width="40.84" height="40.84" fill="#231f20"/>
  <rect x="649.65" y="779.09" width="40.84" height="40.84" fill="#231f20"/>
  <rect x="606.49" y="822.14" width="40.84" height="40.84" fill="#231f20"/>
  <rect x="649.65" y="822.14" width="40.84" height="40.84" fill="#231f20"/>
  <rect x="735.81" y="779.09" width="40.84" height="40.84" fill="#231f20"/>
  <rect x="779.14" y="779.09" width="40.84" height="40.84" fill="#231f20"/>
  <rect x="692.75" y="779.09" width="40.84" height="40.84" fill="#231f20"/>
  <rect x="822.28" y="692.68" width="40.84" height="40.84" fill="#231f20"/>
  <rect x="779.22" y="692.68" width="40.84" height="40.84" fill="#231f20"/>
  <rect x="735.87" y="736.04" width="40.84" height="40.84" fill="#231f20"/>
  <rect x="779.14" y="736.04" width="40.84" height="40.84" fill="#231f20"/>
  <rect x="822.59" y="736.04" width="40.84" height="40.84" fill="#231f20"/>
  <rect x="692.81" y="736.04" width="40.84" height="40.84" fill="#231f20"/>
  <rect x="735.81" y="822.14" width="40.84" height="40.84" fill="#231f20"/>
  <rect x="692.75" y="822.14" width="40.84" height="40.84" fill="#231f20"/>
  <rect x="303.85" y="217.43" width="40.84" height="40.84" fill="#231f20"/>
  <rect x="519.69" y="174.27" width="40.84" height="40.84" fill="#231f20"/>
  <rect x="433.81" y="174.27" width="40.84" height="40.84" fill="#231f20"/>
  <rect x="476.63" y="174.27" width="40.84" height="40.84" fill="#231f20"/>
  <rect x="879.61" y="318.29" width="13.39" height="13.39" fill="#231f20"/>
  <rect x="965.42" y="403.84" width="13.39" height="13.39" fill="#231f20"/>
  <rect x="1009.13" y="403.84" width="13.39" height="13.39" fill="#231f20"/>
  <rect x="1053.59" y="403.84" width="13.39" height="13.39" fill="#231f20"/>
  <rect x="575.94" y="144.51" width="13.39" height="13.39" fill="#231f20"/>
  <rect x="619.65" y="144.51" width="13.39" height="13.39" fill="#231f20"/>
  <rect x="664.12" y="144.51" width="13.39" height="13.39" fill="#231f20"/>
  <rect x="706.35" y="144.51" width="13.39" height="13.39" fill="#231f20"/>
  <rect x="662.4" y="360.78" width="13.39" height="13.39" fill="#231f20"/>
  <rect x="704.63" y="360.78" width="13.39" height="13.39" fill="#231f20"/>
  <rect x="490.04" y="318.29" width="13.39" height="13.39" fill="#231f20"/>
  <rect x="533.75" y="318.29" width="13.39" height="13.39" fill="#231f20"/>
  <rect x="578.22" y="318.29" width="13.39" height="13.39" fill="#231f20"/>
  <rect x="620.45" y="318.29" width="13.39" height="13.39" fill="#231f20"/>
  <rect x="663.09" y="318.29" width="13.39" height="13.39" fill="#231f20"/>
  <rect x="402.42" y="144.51" width="13.39" height="13.39" fill="#231f20"/>
  <rect x="402.42" y="187.99" width="13.39" height="13.39" fill="#231f20"/>
  <rect x="360.63" y="187.99" width="13.39" height="13.39" fill="#231f20"/>
  <rect x="317.57" y="187.99" width="13.39" height="13.39" fill="#231f20"/>
  <rect x="274.41" y="231.16" width="13.39" height="13.39" fill="#231f20"/>
  <rect x="231.12" y="231.16" width="13.39" height="13.39" fill="#231f20"/>
  <rect x="188.18" y="231.16" width="13.39" height="13.39" fill="#231f20"/>
  <rect x="145.15" y="231.16" width="13.39" height="13.39" fill="#231f20"/>
  <rect x="274.41" y="15.75" width="13.39" height="13.39" fill="#231f20"/>
  <rect x="231.12" y="15.75" width="13.39" height="13.39" fill="#231f20"/>
  <rect x="188.18" y="15.75" width="13.39" height="13.39" fill="#231f20"/>
  <rect x="274.41" y="57.1" width="13.39" height="13.39" fill="#231f20"/>
  <rect x="317.57" y="15.75" width="13.39" height="13.39" fill="#231f20"/>
  <rect x="446.11" y="15.75" width="13.39" height="13.39" fill="#231f20"/>
  <rect x="402.81" y="15.75" width="13.39" height="13.39" fill="#231f20"/>
  <rect x="359.87" y="15.75" width="13.39" height="13.39" fill="#231f20"/>
  <rect x="489.6" y="15.75" width="13.39" height="13.39" fill="#231f20"/>
  <rect x="446.11" y="57.1" width="13.39" height="13.39" fill="#231f20"/>
  <rect x="489.6" y="57.1" width="13.39" height="13.39" fill="#231f20"/>
  <rect x="446.11" y="100.8" width="13.39" height="13.39" fill="#231f20"/>
  <rect x="489.6" y="100.8" width="13.39" height="13.39" fill="#231f20"/>
  <rect x="533.53" y="100.8" width="13.39" height="13.39" fill="#231f20"/>
  <rect x="577.02" y="100.8" width="13.39" height="13.39" fill="#231f20"/>
  <rect x="619.93" y="100.8" width="13.39" height="13.39" fill="#231f20"/>
  <rect x="663.42" y="100.8" width="13.39" height="13.39" fill="#231f20"/>
  <rect x="317.57" y="57.1" width="13.39" height="13.39" fill="#231f20"/>
  <rect x="231.12" y="57.1" width="13.39" height="13.39" fill="#231f20"/>
  <rect x="188.18" y="57.1" width="13.39" height="13.39" fill="#231f20"/>
  <rect x="145.15" y="15.75" width="13.39" height="13.39" fill="#231f20"/>
  <rect x="101.31" y="57.1" width="13.39" height="13.39" fill="#231f20"/>
  <rect x="58.36" y="57.1" width="13.39" height="13.39" fill="#231f20"/>
  <rect x="101.31" y="15.75" width="13.39" height="13.39" fill="#231f20"/>
  <rect x="58.36" y="15.75" width="13.39" height="13.39" fill="#231f20"/>
  <rect x="102.84" y="187.38" width="13.39" height="13.39" fill="#231f20"/>
  <rect x="58.36" y="101.56" width="13.39" height="13.39" fill="#231f20"/>
  <rect x="15.33" y="57.1" width="13.39" height="13.39" fill="#231f20"/>
  <rect x="145.15" y="274.32" width="13.39" height="13.39" fill="#231f20"/>
  <rect x="145.15" y="317.53" width="13.39" height="13.39" fill="#231f20"/>
  <rect x="145.15" y="360.69" width="13.39" height="13.39" fill="#231f20"/>
  <rect x="101.31" y="532.19" width="13.39" height="13.39" fill="#231f20"/>
  <rect x="101.31" y="575.36" width="13.39" height="13.39" fill="#231f20"/>
  <rect x="15.38" y="317.53" width="13.39" height="13.39" fill="#231f20"/>
  <rect x="15.38" y="360.69" width="13.39" height="13.39" fill="#231f20"/>
  <rect x="15.38" y="231.13" width="13.39" height="13.39" fill="#231f20"/>
  <rect x="15.38" y="274.29" width="13.39" height="13.39" fill="#231f20"/>
  <rect x="188.18" y="360.69" width="13.39" height="13.39" fill="#231f20"/>
  <rect x="446.11" y="144.51" width="13.39" height="13.39" fill="#231f20"/>
  <rect x="317.57" y="100.8" width="13.39" height="13.39" fill="#231f20"/>
  <rect x="317.57" y="144.51" width="13.39" height="13.39" fill="#231f20"/>
  <rect x="489.6" y="144.51" width="13.39" height="13.39" fill="#231f20"/>
  <rect x="532.83" y="144.51" width="13.39" height="13.39" fill="#231f20"/>
  <rect x="1009.13" y="490.35" width="13.39" height="13.39" fill="#231f20"/>
  <rect x="965.42" y="490.35" width="13.39" height="13.39" fill="#231f20"/>
  <rect x="1053.59" y="490.35" width="13.39" height="13.39" fill="#231f20"/>
  <rect x="835.93" y="792.81" width="13.39" height="13.39" fill="#231f20"/>
  <rect x="835.93" y="835.87" width="13.39" height="13.39" fill="#231f20"/>
  <rect x="879.35" y="835.85" width="13.39" height="13.39" fill="#231f20"/>
  <rect x="879.35" y="878.9" width="13.39" height="13.39" fill="#231f20"/>
  <rect x="792.22" y="835.87" width="13.39" height="13.39" fill="#231f20"/>
  <rect x="663.38" y="879.53" width="13.39" height="13.39" fill="#231f20"/>
  <rect x="706.79" y="879.52" width="13.39" height="13.39" fill="#231f20"/>
  <rect x="619.66" y="879.53" width="13.39" height="13.39" fill="#231f20"/>
  <rect x="533.45" y="879.53" width="13.39" height="13.39" fill="#231f20"/>
  <rect x="576.86" y="879.52" width="13.39" height="13.39" fill="#231f20"/>
  <rect x="489.74" y="879.53" width="13.39" height="13.39" fill="#231f20"/>
  <rect x="447.42" y="879.53" width="13.39" height="13.39" fill="#231f20"/>
  <rect x="663.38" y="922.39" width="13.39" height="13.39" fill="#231f20"/>
  <rect x="706.79" y="922.37" width="13.39" height="13.39" fill="#231f20"/>
  <rect x="663.38" y="965.45" width="13.39" height="13.39" fill="#231f20"/>
  <rect x="706.79" y="965.43" width="13.39" height="13.39" fill="#231f20"/>
  <rect x="749.53" y="922.37" width="13.39" height="13.39" fill="#231f20"/>
  <rect x="749.53" y="965.43" width="13.39" height="13.39" fill="#231f20"/>
  <rect x="923.93" y="965.38" width="13.39" height="13.39" fill="#231f20"/>
  <rect x="923.93" y="1008.43" width="13.39" height="13.39" fill="#231f20"/>
  <rect x="966.67" y="965.38" width="13.39" height="13.39" fill="#231f20"/>
  <rect x="966.67" y="1008.43" width="13.39" height="13.39" fill="#231f20"/>
  <rect x="837.53" y="1053.23" width="13.39" height="13.39" fill="#231f20"/>
  <rect x="880.27" y="1053.23" width="13.39" height="13.39" fill="#231f20"/>
  <rect x="619.66" y="922.39" width="13.39" height="13.39" fill="#231f20"/>
  <rect x="533.45" y="922.39" width="13.39" height="13.39" fill="#231f20"/>
  <rect x="576.86" y="922.37" width="13.39" height="13.39" fill="#231f20"/>
  <rect x="489.74" y="922.39" width="13.39" height="13.39" fill="#231f20"/>
  <rect x="447.42" y="922.39" width="13.39" height="13.39" fill="#231f20"/>
  <rect x="316.68" y="880.53" width="13.39" height="13.39" fill="#231f20"/>
  <rect x="272.97" y="880.53" width="13.39" height="13.39" fill="#231f20"/>
  <rect x="145.16" y="880.53" width="13.39" height="13.39" fill="#231f20"/>
  <rect x="316.68" y="923.39" width="13.39" height="13.39" fill="#231f20"/>
  <rect x="272.97" y="923.39" width="13.39" height="13.39" fill="#231f20"/>
  <rect x="316.68" y="1009.3" width="13.39" height="13.39" fill="#231f20"/>
  <rect x="272.97" y="1009.3" width="13.39" height="13.39" fill="#231f20"/>
  <rect x="145.16" y="923.39" width="13.39" height="13.39" fill="#231f20"/>
  <rect x="145.16" y="965.44" width="13.39" height="13.39" fill="#231f20"/>
  <rect x="102.29" y="965.44" width="13.39" height="13.39" fill="#231f20"/>
  <rect x="59.82" y="792.88" width="13.39" height="13.39" fill="#231f20"/>
  <rect x="59.82" y="835.74" width="13.39" height="13.39" fill="#231f20"/>
  <rect x="14.63" y="880.53" width="13.39" height="13.39" fill="#231f20"/>
  <rect x="14.63" y="923.39" width="13.39" height="13.39" fill="#231f20"/>
  <rect x="14.63" y="965.44" width="13.39" height="13.39" fill="#231f20"/>
  <rect x="879.35" y="792.81" width="13.39" height="13.39" fill="#231f20"/>
  <rect x="923.47" y="749.76" width="13.39" height="13.39" fill="#231f20"/>
  <rect x="966.88" y="749.76" width="13.39" height="13.39" fill="#231f20"/>
  <rect x="922.04" y="663.65" width="13.39" height="13.39" fill="#231f20"/>
  <rect x="922.04" y="706.71" width="13.39" height="13.39" fill="#231f20"/>
  <rect x="879.35" y="706.71" width="13.39" height="13.39" fill="#231f20"/>
  <rect x="879.35" y="749.76" width="13.39" height="13.39" fill="#231f20"/>
  <rect x="749.53" y="576.67" width="13.39" height="13.39" fill="#231f20"/>
  <rect x="749.53" y="619.73" width="13.39" height="13.39" fill="#231f20"/>
  <rect x="749.53" y="533.64" width="13.39" height="13.39" fill="#231f20"/>
  <rect x="749.53" y="447.53" width="13.39" height="13.39" fill="#231f20"/>
  <rect x="749.53" y="490.58" width="13.39" height="13.39" fill="#231f20"/>
  <rect x="578.22" y="576.67" width="13.39" height="13.39" fill="#231f20"/>
  <rect x="578.22" y="533.64" width="13.39" height="13.39" fill="#231f20"/>
  <rect x="578.22" y="490.58" width="13.39" height="13.39" fill="#231f20"/>
  <rect x="360.8" y="620.91" width="13.39" height="13.39" fill="#231f20"/>
  <rect x="360.8" y="663.96" width="13.39" height="13.39" fill="#231f20"/>
  <rect x="360.8" y="577.87" width="13.39" height="13.39" fill="#231f20"/>
  <rect x="360.8" y="534.82" width="13.39" height="13.39" fill="#231f20"/>
  <rect x="360.8" y="488.84" width="13.39" height="13.39" fill="#231f20"/>
  <rect x="404.14" y="534.82" width="13.39" height="13.39" fill="#231f20"/>
  <rect x="404.14" y="488.84" width="13.39" height="13.39" fill="#231f20"/>
  <rect x="360.8" y="445.79" width="13.39" height="13.39" fill="#231f20"/>
  <rect x="749.53" y="360.78" width="13.39" height="13.39" fill="#231f20"/>
  <rect x="749.53" y="403.84" width="13.39" height="13.39" fill="#231f20"/>
  <rect x="923.47" y="620.61" width="13.39" height="13.39" fill="#231f20"/>
  <rect x="964.7" y="663.65" width="13.39" height="13.39" fill="#231f20"/>
  <rect x="966.13" y="620.61" width="13.39" height="13.39" fill="#231f20"/>
  <rect x="1053.59" y="447.09" width="13.39" height="13.39" fill="#231f20"/>
</svg>