<?xml version="1.0" encoding="UTF-8"?>
<svg id="_9" data-name="9" xmlns="http://www.w3.org/2000/svg" viewBox="0 0 1080 1080">
  <rect x="260.28" y="347.52" width="40.84" height="40.84" fill="#231f20"/>
  <rect x="260.28" y="304.42" width="40.84" height="40.84" fill="#231f20"/>
  <rect x="303.46" y="304.42" width="40.84" height="40.84" fill="#231f20"/>
  <rect x="433.19" y="175.11" width="40.84" height="40.84" fill="#231f20"/>
  <rect x="476.37" y="175.11" width="40.84" height="40.84" fill="#231f20"/>
  <rect x="519.28" y="175.11" width="40.84" height="40.84" fill="#231f20"/>
  <rect x="562.79" y="175.11" width="40.84" height="40.84" fill="#231f20"/>
  <rect x="605.97" y="175.11" width="40.84" height="40.84" fill="#231f20"/>
  <rect x="562.79" y="218.21" width="40.84" height="40.84" fill="#231f20"/>
  <rect x="519.28" y="218.21" width="40.84" height="40.84" fill="#231f20"/>
  <rect x="433.22" y="218.18" width="40.84" height="40.84" fill="#231f20"/>
  <rect x="476.25" y="218.18" width="40.84" height="40.84" fill="#231f20"/>
  <rect x="389.79" y="218.18" width="40.84" height="40.84" fill="#231f20"/>
  <rect x="605.97" y="218.21" width="40.84" height="40.84" fill="#231f20"/>
  <rect x="519.59" y="261.31" width="40.84" height="40.84" fill="#231f20"/>
  <rect x="476.39" y="261.31" width="40.84" height="40.84" fill="#231f20"/>
  <rect x="476.39" y="304.42" width="40.84" height="40.84" fill="#231f20"/>
  <rect x="389.92" y="304.42" width="40.84" height="40.84" fill="#231f20"/>
  <rect x="346.69" y="304.42" width="40.84" height="40.84" fill="#231f20"/>
  <rect x="389.92" y="347.52" width="40.84" height="40.84" fill="#231f20"/>
  <rect x="562.77" y="261.31" width="40.84" height="40.84" fill="#231f20"/>
  <rect x="649.15" y="175.11" width="40.84" height="40.84" fill="#231f20"/>
  <rect x="778.79" y="88.35" width="40.84" height="40.84" fill="#231f20"/>
  <rect x="735.57" y="88.35" width="40.84" height="40.84" fill="#231f20"/>
  <rect x="821.97" y="88.35" width="40.84" height="40.84" fill="#231f20"/>
  <rect x="692.39" y="131.38" width="40.84" height="40.84" fill="#231f20"/>
  <rect x="735.57" y="131.38" width="40.84" height="40.84" fill="#231f20"/>
  <rect x="778.79" y="45.32" width="40.84" height="40.84" fill="#231f20"/>
  <rect x="821.97" y="45.32" width="40.84" height="40.84" fill="#231f20"/>
  <rect x="865.15" y="45.32" width="40.84" height="40.84" fill="#231f20"/>
  <rect x="865.15" y="2.19" width="40.84" height="40.84" fill="#231f20"/>
  <rect x="822.01" y="2.19" width="40.84" height="40.84" fill="#231f20"/>
  <rect x="735.57" y="2.19" width="40.84" height="40.84" fill="#231f20"/>
  <rect x="908.33" y="2.19" width="40.84" height="40.84" fill="#231f20"/>
  <rect x="951.51" y="2.19" width="40.84" height="40.84" fill="#231f20"/>
  <rect x="476.39" y="131.33" width="40.84" height="40.84" fill="#231f20"/>
  <rect x="519.57" y="131.33" width="40.84" height="40.84" fill="#231f20"/>
  <rect x="303.46" y="261.31" width="40.84" height="40.84" fill="#231f20"/>
  <rect x="260.28" y="391.06" width="40.84" height="40.84" fill="#231f20"/>
  <rect x="217.09" y="347.52" width="40.84" height="40.84" fill="#231f20"/>
  <rect x="217.09" y="391.06" width="40.84" height="40.84" fill="#231f20"/>
  <rect x="260.28" y="433.79" width="40.84" height="40.84" fill="#231f20"/>
  <rect x="260.28" y="477.34" width="40.84" height="40.84" fill="#231f20"/>
  <rect x="217.09" y="433.79" width="40.84" height="40.84" fill="#231f20"/>
  <rect x="217.09" y="477.34" width="40.84" height="40.84" fill="#231f20"/>
  <rect x="217.09" y="520.36" width="40.84" height="40.84" fill="#231f20"/>
  <rect x="303.46" y="520.36" width="40.84" height="40.84" fill="#231f20"/>
  <rect x="303.46" y="563.39" width="40.84" height="40.84" fill="#231f20"/>
  <rect x="260.28" y="563.39" width="40.84" height="40.84" fill="#231f20"/>
  <rect x="303.46" y="606.42" width="40.84" height="40.84" fill="#231f20"/>
  <rect x="260.28" y="606.42" width="40.84" height="40.84" fill="#231f20"/>
  <rect x="217.09" y="606.42" width="40.84" height="40.84" fill="#231f20"/>
  <rect x="173.91" y="606.42" width="40.84" height="40.84" fill="#231f20"/>
  <rect x="303.46" y="650" width="40.84" height="40.84" fill="#231f20"/>
  <rect x="260.28" y="650" width="40.84" height="40.84" fill="#231f20"/>
  <rect x="217.09" y="650" width="40.84" height="40.84" fill="#231f20"/>
  <rect x="303.46" y="692.78" width="40.84" height="40.84" fill="#231f20"/>
  <rect x="303.46" y="736.09" width="40.84" height="40.84" fill="#231f20"/>
  <rect x="303.46" y="779.68" width="40.84" height="40.84" fill="#231f20"/>
  <rect x="303.64" y="822.46" width="40.84" height="40.84" fill="#231f20"/>
  <rect x="260.28" y="736.09" width="40.84" height="40.84" fill="#231f20"/>
  <rect x="217.09" y="736.09" width="40.84" height="40.84" fill="#231f20"/>
  <rect x="260.28" y="779.68" width="40.84" height="40.84" fill="#231f20"/>
  <rect x="217.09" y="779.68" width="40.84" height="40.84" fill="#231f20"/>
  <rect x="260.46" y="822.46" width="40.84" height="40.84" fill="#231f20"/>
  <rect x="217.09" y="822.46" width="40.84" height="40.84" fill="#231f20"/>
  <rect x="303.64" y="866.13" width="40.84" height="40.84" fill="#231f20"/>
  <rect x="260.46" y="866.13" width="40.84" height="40.84" fill="#231f20"/>
  <rect x="217.09" y="866.13" width="40.84" height="40.84" fill="#231f20"/>
  <rect x="217.09" y="952.65" width="40.84" height="40.84" fill="#231f20"/>
  <rect x="217.09" y="908.93" width="40.84" height="40.84" fill="#231f20"/>
  <rect x="260.46" y="908.93" width="40.84" height="40.84" fill="#231f20"/>
  <rect x="303.64" y="908.93" width="40.84" height="40.84" fill="#231f20"/>
  <rect x="260.46" y="995.65" width="40.84" height="40.84" fill="#231f20"/>
  <rect x="260.46" y="952.29" width="40.84" height="40.84" fill="#231f20"/>
  <rect x="303.64" y="995.65" width="40.84" height="40.84" fill="#231f20"/>
  <rect x="260.46" y="1038.75" width="40.84" height="40.84" fill="#231f20"/>
  <rect x="217.1" y="995.65" width="40.84" height="40.84" fill="#231f20"/>
  <rect x="217.1" y="1038.75" width="40.84" height="40.84" fill="#231f20"/>
  <rect x="303.64" y="1038.75" width="40.84" height="40.84" fill="#231f20"/>
  <rect x="260.28" y="692.78" width="40.84" height="40.84" fill="#231f20"/>
  <rect x="217.09" y="692.78" width="40.84" height="40.84" fill="#231f20"/>
  <rect x="173.91" y="650" width="40.84" height="40.84" fill="#231f20"/>
  <rect x="173.91" y="391.06" width="40.84" height="40.84" fill="#231f20"/>
  <rect x="173.91" y="433.79" width="40.84" height="40.84" fill="#231f20"/>
  <rect x="173.91" y="477.34" width="40.84" height="40.84" fill="#231f20"/>
  <rect x="173.91" y="520.36" width="40.84" height="40.84" fill="#231f20"/>
  <rect x="303.46" y="347.52" width="40.84" height="40.84" fill="#231f20"/>
  <rect x="347.03" y="347.52" width="40.84" height="40.84" fill="#231f20"/>
  <rect x="346.69" y="390.81" width="40.84" height="40.84" fill="#231f20"/>
  <rect x="347.03" y="433.91" width="40.84" height="40.84" fill="#231f20"/>
  <rect x="303.46" y="477.34" width="40.84" height="40.84" fill="#231f20"/>
  <rect x="303.46" y="391.06" width="40.84" height="40.84" fill="#231f20"/>
  <rect x="317.18" y="448.11" width="13.39" height="13.39" fill="#231f20"/>
  <rect x="230.82" y="318.14" width="13.39" height="13.39" fill="#231f20"/>
  <rect x="274" y="275.04" width="13.39" height="13.39" fill="#231f20"/>
  <rect x="187.64" y="361.24" width="13.39" height="13.39" fill="#231f20"/>
  <rect x="187.64" y="577.11" width="13.39" height="13.39" fill="#231f20"/>
  <rect x="230.82" y="577.11" width="13.39" height="13.39" fill="#231f20"/>
  <rect x="360.57" y="275.17" width="13.39" height="13.39" fill="#231f20"/>
  <rect x="360.57" y="232.07" width="13.39" height="13.39" fill="#231f20"/>
  <rect x="404.68" y="188.77" width="13.39" height="13.39" fill="#231f20"/>
  <rect x="404.68" y="275.04" width="13.39" height="13.39" fill="#231f20"/>
  <rect x="446.91" y="275.04" width="13.39" height="13.39" fill="#231f20"/>
  <rect x="576.99" y="145.05" width="13.39" height="13.39" fill="#231f20"/>
  <rect x="620.17" y="145.05" width="13.39" height="13.39" fill="#231f20"/>
  <rect x="662.4" y="145.05" width="13.39" height="13.39" fill="#231f20"/>
  <rect x="620.17" y="102.07" width="13.39" height="13.39" fill="#231f20"/>
  <rect x="576.99" y="102.07" width="13.39" height="13.39" fill="#231f20"/>
  <rect x="662.4" y="102.07" width="13.39" height="13.39" fill="#231f20"/>
  <rect x="576.99" y="360.05" width="13.39" height="13.39" fill="#231f20"/>
  <rect x="533.01" y="360.05" width="13.39" height="13.39" fill="#231f20"/>
  <rect x="620.17" y="360.05" width="13.39" height="13.39" fill="#231f20"/>
  <rect x="662.4" y="360.05" width="13.39" height="13.39" fill="#231f20"/>
  <rect x="620.17" y="317.07" width="13.39" height="13.39" fill="#231f20"/>
  <rect x="576.99" y="317.07" width="13.39" height="13.39" fill="#231f20"/>
  <rect x="662.4" y="317.07" width="13.39" height="13.39" fill="#231f20"/>
  <rect x="533.31" y="448.71" width="13.39" height="13.39" fill="#231f20"/>
  <rect x="705.42" y="273.52" width="13.39" height="13.39" fill="#231f20"/>
  <rect x="747.65" y="273.52" width="13.39" height="13.39" fill="#231f20"/>
  <rect x="404.24" y="448.71" width="13.39" height="13.39" fill="#231f20"/>
  <rect x="447.42" y="448.71" width="13.39" height="13.39" fill="#231f20"/>
  <rect x="489.65" y="448.71" width="13.39" height="13.39" fill="#231f20"/>
  <rect x="361.06" y="491.06" width="13.39" height="13.39" fill="#231f20"/>
  <rect x="404.24" y="491.06" width="13.39" height="13.39" fill="#231f20"/>
  <rect x="446.47" y="491.06" width="13.39" height="13.39" fill="#231f20"/>
  <rect x="489.65" y="404.79" width="13.39" height="13.39" fill="#231f20"/>
  <rect x="705.42" y="230.54" width="13.39" height="13.39" fill="#231f20"/>
  <rect x="533.31" y="405.73" width="13.39" height="13.39" fill="#231f20"/>
  <rect x="747.65" y="230.54" width="13.39" height="13.39" fill="#231f20"/>
  <rect x="747.65" y="188.84" width="13.39" height="13.39" fill="#231f20"/>
  <rect x="792.51" y="188.84" width="13.39" height="13.39" fill="#231f20"/>
  <rect x="835.73" y="145.05" width="13.39" height="13.39" fill="#231f20"/>
  <rect x="878.88" y="145.05" width="13.39" height="13.39" fill="#231f20"/>
  <rect x="922.11" y="101.36" width="13.39" height="13.39" fill="#231f20"/>
  <rect x="706.11" y="102.07" width="13.39" height="13.39" fill="#231f20"/>
  <rect x="706.11" y="59.53" width="13.39" height="13.39" fill="#231f20"/>
  <rect x="662.4" y="59.53" width="13.39" height="13.39" fill="#231f20"/>
  <rect x="749.29" y="59.53" width="13.39" height="13.39" fill="#231f20"/>
  <rect x="922.11" y="59.53" width="13.39" height="13.39" fill="#231f20"/>
  <rect x="878.88" y="102.07" width="13.39" height="13.39" fill="#231f20"/>
  <rect x="792.51" y="145.53" width="13.39" height="13.39" fill="#231f20"/>
  <rect x="706.11" y="188.84" width="13.39" height="13.39" fill="#231f20"/>
  <rect x="662.4" y="231.9" width="13.39" height="13.39" fill="#231f20"/>
  <rect x="620.17" y="273.96" width="13.39" height="13.39" fill="#231f20"/>
  <rect x="533.01" y="318.14" width="13.39" height="13.39" fill="#231f20"/>
  <rect x="965.29" y="59.53" width="13.39" height="13.39" fill="#231f20"/>
  <rect x="1007.81" y="59.53" width="13.39" height="13.39" fill="#231f20"/>
  <rect x="1007.81" y="14.68" width="13.39" height="13.39" fill="#231f20"/>
  <rect x="1049.73" y="14.68" width="13.39" height="13.39" fill="#231f20"/>
  <rect x="792.51" y="14.68" width="13.39" height="13.39" fill="#231f20"/>
  <rect x="446.91" y="318.14" width="13.39" height="13.39" fill="#231f20"/>
  <rect x="446.91" y="361.24" width="13.39" height="13.39" fill="#231f20"/>
  <rect x="361.53" y="664.25" width="13.39" height="13.39" fill="#231f20"/>
  <rect x="360.58" y="706.6" width="13.39" height="13.39" fill="#231f20"/>
  <rect x="361.02" y="533.68" width="13.39" height="13.39" fill="#231f20"/>
  <rect x="361.02" y="576.78" width="13.39" height="13.39" fill="#231f20"/>
  <rect x="187.64" y="706.72" width="13.39" height="13.39" fill="#231f20"/>
  <rect x="187.64" y="749.82" width="13.39" height="13.39" fill="#231f20"/>
  <rect x="187.64" y="792.92" width="13.39" height="13.39" fill="#231f20"/>
  <rect x="187.64" y="836.02" width="13.39" height="13.39" fill="#231f20"/>
  <rect x="187.64" y="879.12" width="13.39" height="13.39" fill="#231f20"/>
  <rect x="187.64" y="922.22" width="13.39" height="13.39" fill="#231f20"/>
  <rect x="187.64" y="966.28" width="13.39" height="13.39" fill="#231f20"/>
  <rect x="317.36" y="966.28" width="13.39" height="13.39" fill="#231f20"/>
  <rect x="187.64" y="1009.38" width="13.39" height="13.39" fill="#231f20"/>
  <rect x="187.64" y="1052.48" width="13.39" height="13.39" fill="#231f20"/>
  <rect x="404.32" y="404.79" width="13.39" height="13.39" fill="#231f20"/>
  <rect x="274" y="533.3" width="13.39" height="13.39" fill="#231f20"/>
</svg>