<?xml version="1.0" encoding="UTF-8"?>
<svg id="_10" data-name="10" xmlns="http://www.w3.org/2000/svg" viewBox="0 0 1080 1080">
  <rect x="216.88" y="606.8" width="40.84" height="40.84" fill="#231f20"/>
  <rect x="216.88" y="563.6" width="40.84" height="40.84" fill="#231f20"/>
  <rect x="260.06" y="606.6" width="40.84" height="40.84" fill="#231f20"/>
  <rect x="260.06" y="563.37" width="40.84" height="40.84" fill="#231f20"/>
  <rect x="303.26" y="606.6" width="40.84" height="40.84" fill="#231f20"/>
  <rect x="303.26" y="563.37" width="40.84" height="40.84" fill="#231f20"/>
  <rect x="346.46" y="607.1" width="40.84" height="40.84" fill="#231f20"/>
  <rect x="346.46" y="563.92" width="40.84" height="40.84" fill="#231f20"/>
  <rect x="389.66" y="607.17" width="40.84" height="40.84" fill="#231f20"/>
  <rect x="389.66" y="564" width="40.84" height="40.84" fill="#231f20"/>
  <rect x="432.88" y="606.82" width="40.84" height="40.84" fill="#231f20"/>
  <rect x="432.88" y="563.61" width="40.84" height="40.84" fill="#231f20"/>
  <rect x="216.88" y="693.18" width="40.84" height="40.84" fill="#231f20"/>
  <rect x="216.88" y="649.99" width="40.84" height="40.84" fill="#231f20"/>
  <rect x="260.06" y="693.06" width="40.84" height="40.84" fill="#231f20"/>
  <rect x="260.06" y="649.83" width="40.84" height="40.84" fill="#231f20"/>
  <rect x="260.06" y="476.91" width="40.84" height="40.84" fill="#231f20"/>
  <rect x="260.06" y="433.68" width="40.84" height="40.84" fill="#231f20"/>
  <rect x="260.06" y="520.14" width="40.84" height="40.84" fill="#231f20"/>
  <rect x="216.88" y="520.41" width="40.84" height="40.84" fill="#231f20"/>
  <rect x="173.64" y="520.41" width="40.84" height="40.84" fill="#231f20"/>
  <rect x="173.64" y="477.2" width="40.84" height="40.84" fill="#231f20"/>
  <rect x="173.51" y="433.68" width="40.84" height="40.84" fill="#231f20"/>
  <rect x="130.44" y="391.31" width="40.84" height="40.84" fill="#231f20"/>
  <rect x="130.44" y="347.32" width="40.84" height="40.84" fill="#231f20"/>
  <rect x="303.26" y="693.06" width="40.84" height="40.84" fill="#231f20"/>
  <rect x="303.26" y="649.83" width="40.84" height="40.84" fill="#231f20"/>
  <rect x="346.46" y="693.46" width="40.84" height="40.84" fill="#231f20"/>
  <rect x="346.46" y="650.28" width="40.84" height="40.84" fill="#231f20"/>
  <rect x="389.66" y="693.51" width="40.84" height="40.84" fill="#231f20"/>
  <rect x="389.66" y="650.34" width="40.84" height="40.84" fill="#231f20"/>
  <rect x="303.26" y="476.91" width="40.84" height="40.84" fill="#231f20"/>
  <rect x="303.26" y="433.68" width="40.84" height="40.84" fill="#231f20"/>
  <rect x="346.46" y="477.56" width="40.84" height="40.84" fill="#231f20"/>
  <rect x="346.46" y="434.38" width="40.84" height="40.84" fill="#231f20"/>
  <rect x="389.66" y="477.66" width="40.84" height="40.84" fill="#231f20"/>
  <rect x="389.66" y="434.48" width="40.84" height="40.84" fill="#231f20"/>
  <rect x="346.46" y="391.2" width="40.84" height="40.84" fill="#231f20"/>
  <rect x="346.46" y="348.03" width="40.84" height="40.84" fill="#231f20"/>
  <rect x="303.24" y="347.32" width="40.84" height="40.84" fill="#231f20"/>
  <rect x="346.46" y="304.85" width="40.84" height="40.84" fill="#231f20"/>
  <rect x="346.46" y="261.67" width="40.84" height="40.84" fill="#231f20"/>
  <rect x="476.04" y="218.49" width="40.84" height="40.84" fill="#231f20"/>
  <rect x="476.04" y="175.19" width="40.84" height="40.84" fill="#231f20"/>
  <rect x="476.04" y="131.89" width="40.84" height="40.84" fill="#231f20"/>
  <rect x="432.83" y="174.77" width="40.84" height="40.84" fill="#231f20"/>
  <rect x="432.83" y="131.58" width="40.84" height="40.84" fill="#231f20"/>
  <rect x="432.83" y="88.4" width="40.84" height="40.84" fill="#231f20"/>
  <rect x="476.04" y="88.59" width="40.84" height="40.84" fill="#231f20"/>
  <rect x="432.83" y="45.21" width="40.84" height="40.84" fill="#231f20"/>
  <rect x="389.61" y="45.17" width="40.84" height="40.84" fill="#231f20"/>
  <rect x="432.83" y="2.03" width="40.84" height="40.84" fill="#231f20"/>
  <rect x="303.24" y="304.12" width="40.84" height="40.84" fill="#231f20"/>
  <rect x="303.24" y="261.67" width="40.84" height="40.84" fill="#231f20"/>
  <rect x="303.24" y="218.49" width="40.84" height="40.84" fill="#231f20"/>
  <rect x="303.24" y="174.77" width="40.84" height="40.84" fill="#231f20"/>
  <rect x="389.66" y="391.31" width="40.84" height="40.84" fill="#231f20"/>
  <rect x="303.26" y="520.14" width="40.84" height="40.84" fill="#231f20"/>
  <rect x="346.46" y="520.74" width="40.84" height="40.84" fill="#231f20"/>
  <rect x="389.66" y="520.83" width="40.84" height="40.84" fill="#231f20"/>
  <rect x="432.88" y="693.23" width="40.84" height="40.84" fill="#231f20"/>
  <rect x="432.88" y="650.03" width="40.84" height="40.84" fill="#231f20"/>
  <rect x="216.88" y="779.57" width="40.84" height="40.84" fill="#231f20"/>
  <rect x="216.88" y="736.38" width="40.84" height="40.84" fill="#231f20"/>
  <rect x="260.06" y="779.52" width="40.84" height="40.84" fill="#231f20"/>
  <rect x="260.06" y="736.29" width="40.84" height="40.84" fill="#231f20"/>
  <rect x="303.26" y="779.52" width="40.84" height="40.84" fill="#231f20"/>
  <rect x="303.26" y="736.29" width="40.84" height="40.84" fill="#231f20"/>
  <rect x="346.46" y="779.81" width="40.84" height="40.84" fill="#231f20"/>
  <rect x="346.46" y="736.64" width="40.84" height="40.84" fill="#231f20"/>
  <rect x="389.66" y="779.86" width="40.84" height="40.84" fill="#231f20"/>
  <rect x="389.66" y="736.69" width="40.84" height="40.84" fill="#231f20"/>
  <rect x="432.88" y="779.65" width="40.84" height="40.84" fill="#231f20"/>
  <rect x="432.88" y="736.44" width="40.84" height="40.84" fill="#231f20"/>
  <rect x="216.88" y="865.95" width="40.84" height="40.84" fill="#231f20"/>
  <rect x="216.88" y="822.76" width="40.84" height="40.84" fill="#231f20"/>
  <rect x="173.64" y="693.3" width="40.84" height="40.84" fill="#231f20"/>
  <rect x="173.64" y="780.63" width="40.84" height="40.84" fill="#231f20"/>
  <rect x="173.64" y="737.34" width="40.84" height="40.84" fill="#231f20"/>
  <rect x="130.44" y="693.3" width="40.84" height="40.84" fill="#231f20"/>
  <rect x="130.44" y="649.86" width="40.84" height="40.84" fill="#231f20"/>
  <rect x="130.44" y="737.34" width="40.84" height="40.84" fill="#231f20"/>
  <rect x="173.64" y="823.03" width="40.84" height="40.84" fill="#231f20"/>
  <rect x="260.06" y="865.97" width="40.84" height="40.84" fill="#231f20"/>
  <rect x="260.06" y="822.74" width="40.84" height="40.84" fill="#231f20"/>
  <rect x="303.26" y="865.97" width="40.84" height="40.84" fill="#231f20"/>
  <rect x="303.26" y="822.74" width="40.84" height="40.84" fill="#231f20"/>
  <rect x="346.46" y="866.17" width="40.84" height="40.84" fill="#231f20"/>
  <rect x="346.46" y="822.99" width="40.84" height="40.84" fill="#231f20"/>
  <rect x="389.66" y="866.2" width="40.84" height="40.84" fill="#231f20"/>
  <rect x="389.66" y="823.03" width="40.84" height="40.84" fill="#231f20"/>
  <rect x="432.88" y="866.06" width="40.84" height="40.84" fill="#231f20"/>
  <rect x="432.88" y="822.85" width="40.84" height="40.84" fill="#231f20"/>
  <rect x="216.88" y="909.15" width="40.84" height="40.84" fill="#231f20"/>
  <rect x="260.06" y="909.2" width="40.84" height="40.84" fill="#231f20"/>
  <rect x="303.26" y="909.2" width="40.84" height="40.84" fill="#231f20"/>
  <rect x="346.46" y="909.35" width="40.84" height="40.84" fill="#231f20"/>
  <rect x="389.66" y="909.37" width="40.84" height="40.84" fill="#231f20"/>
  <rect x="432.88" y="909.27" width="40.84" height="40.84" fill="#231f20"/>
  <rect x="216.88" y="995.53" width="40.84" height="40.84" fill="#231f20"/>
  <rect x="216.88" y="952.34" width="40.84" height="40.84" fill="#231f20"/>
  <rect x="260.06" y="995.66" width="40.84" height="40.84" fill="#231f20"/>
  <rect x="260.06" y="952.43" width="40.84" height="40.84" fill="#231f20"/>
  <rect x="303.26" y="995.66" width="40.84" height="40.84" fill="#231f20"/>
  <rect x="303.26" y="952.43" width="40.84" height="40.84" fill="#231f20"/>
  <rect x="346.46" y="995.71" width="40.84" height="40.84" fill="#231f20"/>
  <rect x="346.46" y="952.53" width="40.84" height="40.84" fill="#231f20"/>
  <rect x="389.66" y="995.72" width="40.84" height="40.84" fill="#231f20"/>
  <rect x="389.66" y="952.54" width="40.84" height="40.84" fill="#231f20"/>
  <rect x="432.88" y="995.68" width="40.84" height="40.84" fill="#231f20"/>
  <rect x="260.06" y="1038.89" width="40.84" height="40.84" fill="#231f20"/>
  <rect x="303.26" y="1038.89" width="40.84" height="40.84" fill="#231f20"/>
  <rect x="346.46" y="1038.89" width="40.84" height="40.84" fill="#231f20"/>
  <rect x="389.66" y="1038.89" width="40.84" height="40.84" fill="#231f20"/>
  <rect x="432.88" y="1038.89" width="40.84" height="40.84" fill="#231f20"/>
  <rect x="432.88" y="952.47" width="40.84" height="40.84" fill="#231f20"/>
  <rect x="475.12" y="693.3" width="40.84" height="40.84" fill="#231f20"/>
  <rect x="518.32" y="693.3" width="40.84" height="40.84" fill="#231f20"/>
  <rect x="605.64" y="780.63" width="40.84" height="40.84" fill="#231f20"/>
  <rect x="475.12" y="779.7" width="40.84" height="40.84" fill="#231f20"/>
  <rect x="475.12" y="736.5" width="40.84" height="40.84" fill="#231f20"/>
  <rect x="518.32" y="780.63" width="40.84" height="40.84" fill="#231f20"/>
  <rect x="518.32" y="737.34" width="40.84" height="40.84" fill="#231f20"/>
  <rect x="562.32" y="780.63" width="40.84" height="40.84" fill="#231f20"/>
  <rect x="562.32" y="737.34" width="40.84" height="40.84" fill="#231f20"/>
  <rect x="475.12" y="866.09" width="40.84" height="40.84" fill="#231f20"/>
  <rect x="475.12" y="822.9" width="40.84" height="40.84" fill="#231f20"/>
  <rect x="518.32" y="865.87" width="40.84" height="40.84" fill="#231f20"/>
  <rect x="518.32" y="823.03" width="40.84" height="40.84" fill="#231f20"/>
  <rect x="562.32" y="866.05" width="40.84" height="40.84" fill="#231f20"/>
  <rect x="562.32" y="823.03" width="40.84" height="40.84" fill="#231f20"/>
  <rect x="475.12" y="909.29" width="40.84" height="40.84" fill="#231f20"/>
  <rect x="518.32" y="909.29" width="40.84" height="40.84" fill="#231f20"/>
  <rect x="562.32" y="909.47" width="40.84" height="40.84" fill="#231f20"/>
  <rect x="475.12" y="995.69" width="40.84" height="40.84" fill="#231f20"/>
  <rect x="475.12" y="952.49" width="40.84" height="40.84" fill="#231f20"/>
  <rect x="518.32" y="995.53" width="40.84" height="40.84" fill="#231f20"/>
  <rect x="518.32" y="952.4" width="40.84" height="40.84" fill="#231f20"/>
  <rect x="562.32" y="995.71" width="40.84" height="40.84" fill="#231f20"/>
  <rect x="475.12" y="1038.89" width="40.84" height="40.84" fill="#231f20"/>
  <rect x="518.32" y="1038.89" width="40.84" height="40.84" fill="#231f20"/>
  <rect x="562.32" y="1039.07" width="40.84" height="40.84" fill="#231f20"/>
  <rect x="562.32" y="952.58" width="40.84" height="40.84" fill="#231f20"/>
  <rect x="605.64" y="865.87" width="40.84" height="40.84" fill="#231f20"/>
  <rect x="605.64" y="823.03" width="40.84" height="40.84" fill="#231f20"/>
  <rect x="605.64" y="909.29" width="40.84" height="40.84" fill="#231f20"/>
  <rect x="605.64" y="995.53" width="40.84" height="40.84" fill="#231f20"/>
  <rect x="605.64" y="1038.89" width="40.84" height="40.84" fill="#231f20"/>
  <rect x="606.09" y="952.4" width="40.84" height="40.84" fill="#231f20"/>
  <rect x="647.87" y="865.87" width="40.84" height="40.84" fill="#231f20"/>
  <rect x="647.87" y="823.03" width="40.84" height="40.84" fill="#231f20"/>
  <rect x="691.77" y="865.73" width="40.84" height="40.84" fill="#231f20"/>
  <rect x="691.77" y="822.88" width="40.84" height="40.84" fill="#231f20"/>
  <rect x="734.68" y="866.01" width="40.84" height="40.84" fill="#231f20"/>
  <rect x="734.68" y="823.16" width="40.84" height="40.84" fill="#231f20"/>
  <rect x="647.87" y="909.29" width="40.84" height="40.84" fill="#231f20"/>
  <rect x="691.77" y="909.15" width="40.84" height="40.84" fill="#231f20"/>
  <rect x="734.68" y="909.43" width="40.84" height="40.84" fill="#231f20"/>
  <rect x="647.87" y="995.53" width="40.84" height="40.84" fill="#231f20"/>
  <rect x="648.32" y="952.4" width="40.84" height="40.84" fill="#231f20"/>
  <rect x="691.77" y="995.39" width="40.84" height="40.84" fill="#231f20"/>
  <rect x="691.77" y="952.25" width="40.84" height="40.84" fill="#231f20"/>
  <rect x="734.68" y="995.67" width="40.84" height="40.84" fill="#231f20"/>
  <rect x="647.87" y="1038.89" width="40.84" height="40.84" fill="#231f20"/>
  <rect x="691.77" y="1038.74" width="40.84" height="40.84" fill="#231f20"/>
  <rect x="734.68" y="1039.02" width="40.84" height="40.84" fill="#231f20"/>
  <rect x="734.68" y="952.54" width="40.84" height="40.84" fill="#231f20"/>
  <rect x="778.26" y="865.79" width="40.84" height="40.84" fill="#231f20"/>
  <rect x="778.26" y="822.6" width="40.84" height="40.84" fill="#231f20"/>
  <rect x="778.26" y="908.97" width="40.84" height="40.84" fill="#231f20"/>
  <rect x="734.68" y="737.47" width="40.84" height="40.84" fill="#231f20"/>
  <rect x="734.68" y="693.44" width="40.84" height="40.84" fill="#231f20"/>
  <rect x="734.68" y="780.77" width="40.84" height="40.84" fill="#231f20"/>
  <rect x="734.68" y="607.05" width="40.84" height="40.84" fill="#231f20"/>
  <rect x="734.68" y="563.75" width="40.84" height="40.84" fill="#231f20"/>
  <rect x="692.02" y="606.92" width="40.84" height="40.84" fill="#231f20"/>
  <rect x="692.02" y="563.8" width="40.84" height="40.84" fill="#231f20"/>
  <rect x="734.68" y="520.55" width="40.84" height="40.84" fill="#231f20"/>
  <rect x="734.68" y="476.86" width="40.84" height="40.84" fill="#231f20"/>
  <rect x="692.02" y="520.68" width="40.84" height="40.84" fill="#231f20"/>
  <rect x="692.02" y="477.56" width="40.84" height="40.84" fill="#231f20"/>
  <rect x="734.68" y="433.82" width="40.84" height="40.84" fill="#231f20"/>
  <rect x="692.02" y="434.43" width="40.84" height="40.84" fill="#231f20"/>
  <rect x="648.81" y="477.11" width="40.84" height="40.84" fill="#231f20"/>
  <rect x="648.81" y="433.82" width="40.84" height="40.84" fill="#231f20"/>
  <rect x="692.02" y="391.31" width="40.84" height="40.84" fill="#231f20"/>
  <rect x="648.81" y="390.53" width="40.84" height="40.84" fill="#231f20"/>
  <rect x="648.81" y="347.32" width="40.84" height="40.84" fill="#231f20"/>
  <rect x="605.64" y="347.32" width="40.84" height="40.84" fill="#231f20"/>
  <rect x="648.81" y="304.12" width="40.84" height="40.84" fill="#231f20"/>
  <rect x="605.64" y="304.37" width="40.84" height="40.84" fill="#231f20"/>
  <rect x="562.16" y="304.12" width="40.84" height="40.84" fill="#231f20"/>
  <rect x="562.03" y="433.68" width="40.84" height="40.84" fill="#231f20"/>
  <rect x="562.16" y="476.73" width="40.84" height="40.84" fill="#231f20"/>
  <rect x="519.93" y="520.41" width="40.84" height="40.84" fill="#231f20"/>
  <rect x="519.93" y="563.61" width="40.84" height="40.84" fill="#231f20"/>
  <rect x="519.52" y="304.49" width="40.84" height="40.84" fill="#231f20"/>
  <rect x="605.64" y="261.43" width="40.84" height="40.84" fill="#231f20"/>
  <rect x="605.64" y="218.49" width="40.84" height="40.84" fill="#231f20"/>
  <rect x="562.16" y="261.67" width="40.84" height="40.84" fill="#231f20"/>
  <rect x="519.52" y="261.67" width="40.84" height="40.84" fill="#231f20"/>
  <rect x="519.52" y="347.32" width="40.84" height="40.84" fill="#231f20"/>
  <rect x="734.68" y="649.99" width="40.84" height="40.84" fill="#231f20"/>
  <rect x="778.26" y="649.86" width="40.84" height="40.84" fill="#231f20"/>
  <rect x="778.26" y="736.23" width="40.84" height="40.84" fill="#231f20"/>
  <rect x="778.26" y="693.04" width="40.84" height="40.84" fill="#231f20"/>
  <rect x="778.26" y="779.41" width="40.84" height="40.84" fill="#231f20"/>
  <rect x="821.46" y="780.63" width="40.84" height="40.84" fill="#231f20"/>
  <rect x="778.26" y="995.34" width="40.84" height="40.84" fill="#231f20"/>
  <rect x="778.26" y="1038.53" width="40.84" height="40.84" fill="#231f20"/>
  <rect x="778.26" y="952.16" width="40.84" height="40.84" fill="#231f20"/>
  <rect x="821.46" y="866.72" width="40.84" height="40.84" fill="#231f20"/>
  <rect x="821.46" y="823.67" width="40.84" height="40.84" fill="#231f20"/>
  <rect x="864.67" y="866.2" width="40.84" height="40.84" fill="#231f20"/>
  <rect x="864.67" y="823.03" width="40.84" height="40.84" fill="#231f20"/>
  <rect x="907.87" y="866.2" width="40.84" height="40.84" fill="#231f20"/>
  <rect x="907.87" y="823.03" width="40.84" height="40.84" fill="#231f20"/>
  <rect x="821.46" y="909.76" width="40.84" height="40.84" fill="#231f20"/>
  <rect x="864.67" y="909.37" width="40.84" height="40.84" fill="#231f20"/>
  <rect x="907.87" y="909.37" width="40.84" height="40.84" fill="#231f20"/>
  <rect x="821.46" y="995.85" width="40.84" height="40.84" fill="#231f20"/>
  <rect x="821.46" y="952.8" width="40.84" height="40.84" fill="#231f20"/>
  <rect x="864.67" y="995.72" width="40.84" height="40.84" fill="#231f20"/>
  <rect x="864.67" y="952.54" width="40.84" height="40.84" fill="#231f20"/>
  <rect x="907.87" y="995.72" width="40.84" height="40.84" fill="#231f20"/>
  <rect x="821.46" y="1038.89" width="40.84" height="40.84" fill="#231f20"/>
  <rect x="864.67" y="1038.89" width="40.84" height="40.84" fill="#231f20"/>
  <rect x="907.87" y="1038.89" width="40.84" height="40.84" fill="#231f20"/>
  <rect x="907.87" y="952.54" width="40.84" height="40.84" fill="#231f20"/>
  <rect x="950.94" y="865.99" width="40.84" height="40.84" fill="#231f20"/>
  <rect x="950.94" y="822.76" width="40.84" height="40.84" fill="#231f20"/>
  <rect x="994.51" y="866.72" width="40.84" height="40.84" fill="#231f20"/>
  <rect x="994.51" y="823.67" width="40.84" height="40.84" fill="#231f20"/>
  <rect x="950.94" y="909.21" width="40.84" height="40.84" fill="#231f20"/>
  <rect x="994.51" y="909.76" width="40.84" height="40.84" fill="#231f20"/>
  <rect x="950.94" y="995.66" width="40.84" height="40.84" fill="#231f20"/>
  <rect x="950.94" y="952.44" width="40.84" height="40.84" fill="#231f20"/>
  <rect x="950.94" y="693.08" width="40.84" height="40.84" fill="#231f20"/>
  <rect x="950.94" y="649.86" width="40.84" height="40.84" fill="#231f20"/>
  <rect x="907.79" y="693.3" width="40.84" height="40.84" fill="#231f20"/>
  <rect x="907.79" y="649.86" width="40.84" height="40.84" fill="#231f20"/>
  <rect x="907.79" y="606.92" width="40.84" height="40.84" fill="#231f20"/>
  <rect x="950.94" y="736.31" width="40.84" height="40.84" fill="#231f20"/>
  <rect x="950.94" y="779.53" width="40.84" height="40.84" fill="#231f20"/>
  <rect x="994.51" y="780.63" width="40.84" height="40.84" fill="#231f20"/>
  <rect x="994.51" y="995.85" width="40.84" height="40.84" fill="#231f20"/>
  <rect x="950.94" y="1038.89" width="40.84" height="40.84" fill="#231f20"/>
  <rect x="994.51" y="1038.89" width="40.84" height="40.84" fill="#231f20"/>
  <rect x="994.51" y="952.8" width="40.84" height="40.84" fill="#231f20"/>
  <rect x="1037.85" y="995.64" width="40.84" height="40.84" fill="#231f20"/>
  <rect x="1037.85" y="1038.89" width="40.84" height="40.84" fill="#231f20"/>
  <rect x="1037.85" y="952.4" width="40.84" height="40.84" fill="#231f20"/>
  <rect x="100.85" y="361.04" width="13.39" height="13.39" fill="#231f20"/>
  <rect x="144.17" y="317.85" width="13.39" height="13.39" fill="#231f20"/>
  <rect x="187.48" y="361.04" width="13.39" height="13.39" fill="#231f20"/>
  <rect x="187.48" y="405.04" width="13.39" height="13.39" fill="#231f20"/>
  <rect x="230.43" y="447.41" width="13.39" height="13.39" fill="#231f20"/>
  <rect x="230.57" y="491.87" width="13.39" height="13.39" fill="#231f20"/>
  <rect x="490.29" y="275.39" width="13.39" height="13.39" fill="#231f20"/>
  <rect x="490.29" y="361.04" width="13.39" height="13.39" fill="#231f20"/>
  <rect x="403.37" y="361.04" width="13.39" height="13.39" fill="#231f20"/>
  <rect x="490.29" y="317.85" width="13.39" height="13.39" fill="#231f20"/>
  <rect x="403.37" y="275.39" width="13.39" height="13.39" fill="#231f20"/>
  <rect x="448.19" y="232.21" width="13.39" height="13.39" fill="#231f20"/>
  <rect x="532.41" y="232.21" width="13.39" height="13.39" fill="#231f20"/>
  <rect x="575.89" y="232.21" width="13.39" height="13.39" fill="#231f20"/>
  <rect x="575.89" y="188.49" width="13.39" height="13.39" fill="#231f20"/>
  <rect x="532.41" y="188.49" width="13.39" height="13.39" fill="#231f20"/>
  <rect x="532.41" y="146.97" width="13.39" height="13.39" fill="#231f20"/>
  <rect x="662.85" y="232.21" width="13.39" height="13.39" fill="#231f20"/>
  <rect x="662.85" y="275.39" width="13.39" height="13.39" fill="#231f20"/>
  <rect x="705.77" y="317.85" width="13.39" height="13.39" fill="#231f20"/>
  <rect x="705.77" y="361.04" width="13.39" height="13.39" fill="#231f20"/>
  <rect x="748.97" y="405.04" width="13.39" height="13.39" fill="#231f20"/>
  <rect x="662.85" y="188.49" width="13.39" height="13.39" fill="#231f20"/>
  <rect x="619.37" y="188.49" width="13.39" height="13.39" fill="#231f20"/>
  <rect x="403.37" y="317.85" width="13.39" height="13.39" fill="#231f20"/>
  <rect x="403.37" y="188.49" width="13.39" height="13.39" fill="#231f20"/>
  <rect x="403.37" y="102.31" width="13.39" height="13.39" fill="#231f20"/>
  <rect x="403.37" y="145.8" width="13.39" height="13.39" fill="#231f20"/>
  <rect x="360.17" y="232.21" width="13.39" height="13.39" fill="#231f20"/>
  <rect x="360.17" y="188.49" width="13.39" height="13.39" fill="#231f20"/>
  <rect x="490.29" y="15.75" width="13.39" height="13.39" fill="#231f20"/>
  <rect x="490.29" y="58.89" width="13.39" height="13.39" fill="#231f20"/>
  <rect x="273.77" y="275.39" width="13.39" height="13.39" fill="#231f20"/>
  <rect x="273.77" y="188.49" width="13.39" height="13.39" fill="#231f20"/>
  <rect x="273.77" y="232.21" width="13.39" height="13.39" fill="#231f20"/>
  <rect x="316.97" y="405.04" width="13.39" height="13.39" fill="#231f20"/>
  <rect x="277.04" y="405.04" width="13.39" height="13.39" fill="#231f20"/>
  <rect x="277.04" y="317.85" width="13.39" height="13.39" fill="#231f20"/>
  <rect x="277.04" y="361.04" width="13.39" height="13.39" fill="#231f20"/>
  <rect x="575.89" y="405.04" width="13.39" height="13.39" transform="translate(994.32 -170.85) rotate(90)" fill="#231f20"/>
  <rect x="619.37" y="405.04" width="13.39" height="13.39" transform="translate(1037.8 -214.33) rotate(90)" fill="#231f20"/>
  <rect x="575.89" y="361.04" width="13.39" height="13.39" transform="translate(950.32 -214.85) rotate(90)" fill="#231f20"/>
  <rect x="532.48" y="405.04" width="13.39" height="13.39" transform="translate(950.91 -127.44) rotate(90)" fill="#231f20"/>
  <rect x="490.29" y="405.04" width="13.39" height="13.39" transform="translate(908.72 -85.25) rotate(90)" fill="#231f20"/>
  <rect x="533.66" y="490.16" width="13.39" height="13.39" fill="#231f20"/>
  <rect x="492.42" y="490.16" width="13.39" height="13.39" fill="#231f20"/>
  <rect x="492.28" y="447.41" width="13.39" height="13.39" fill="#231f20"/>
  <rect x="446.57" y="490.16" width="13.39" height="13.39" fill="#231f20"/>
  <rect x="533.52" y="447.41" width="13.39" height="13.39" fill="#231f20"/>
  <rect x="492.42" y="620.64" width="13.39" height="13.39" transform="translate(1126.45 128.22) rotate(90)" fill="#231f20"/>
  <rect x="446.43" y="405.04" width="13.39" height="13.39" fill="#231f20"/>
  <rect x="492.42" y="577.34" width="13.39" height="13.39" fill="#231f20"/>
  <rect x="492.42" y="663.58" width="13.39" height="13.39" fill="#231f20"/>
  <rect x="531.99" y="620.64" width="13.39" height="13.39" transform="translate(1166.03 88.65) rotate(90)" fill="#231f20"/>
  <rect x="619.71" y="620.64" width="13.39" height="13.39" transform="translate(1253.75 .93) rotate(90)" fill="#231f20"/>
  <rect x="663.07" y="620.64" width="13.39" height="13.39" transform="translate(1297.11 -42.43) rotate(90)" fill="#231f20"/>
  <rect x="619.71" y="577.34" width="13.39" height="13.39" transform="translate(1210.44 -42.38) rotate(90)" fill="#231f20"/>
  <rect x="619.71" y="534.14" width="13.39" height="13.39" transform="translate(1167.24 -85.58) rotate(90)" fill="#231f20"/>
  <rect x="619.71" y="492.93" width="13.39" height="13.39" transform="translate(1126.04 -126.78) rotate(90)" fill="#231f20"/>
  <rect x="619.58" y="447.41" width="13.39" height="13.39" transform="translate(1080.38 -172.17) rotate(90)" fill="#231f20"/>
  <rect x="663.07" y="577.34" width="13.39" height="13.39" transform="translate(1253.8 -85.73) rotate(90)" fill="#231f20"/>
  <rect x="663.07" y="534.14" width="13.39" height="13.39" transform="translate(1210.6 -128.93) rotate(90)" fill="#231f20"/>
  <rect x="791.94" y="620.64" width="13.39" height="13.39" transform="translate(1425.98 -171.3) rotate(90)" fill="#231f20"/>
  <rect x="791.94" y="577.34" width="13.39" height="13.39" transform="translate(1382.67 -214.61) rotate(90)" fill="#231f20"/>
  <rect x="791.94" y="534.14" width="13.39" height="13.39" transform="translate(1339.47 -257.81) rotate(90)" fill="#231f20"/>
  <rect x="791.94" y="492.57" width="13.39" height="13.39" transform="translate(1297.91 -299.37) rotate(90)" fill="#231f20"/>
  <rect x="921.64" y="405.82" width="13.39" height="13.39" transform="translate(1340.85 -515.83) rotate(90)" fill="#231f20"/>
  <rect x="921.64" y="361.9" width="13.39" height="13.39" transform="translate(1296.94 -559.74) rotate(90)" fill="#231f20"/>
  <rect x="921.64" y="317.85" width="13.39" height="13.39" transform="translate(1252.88 -603.79) rotate(90)" fill="#231f20"/>
  <rect x="879.11" y="707.03" width="13.39" height="13.39" transform="translate(1599.53 -172.09) rotate(90)" fill="#231f20"/>
  <rect x="879.11" y="663.58" width="13.39" height="13.39" transform="translate(1556.09 -215.53) rotate(90)" fill="#231f20"/>
  <rect x="921.64" y="794.36" width="13.39" height="13.39" transform="translate(1729.39 -127.29) rotate(90)" fill="#231f20"/>
  <rect x="879.11" y="794.36" width="13.39" height="13.39" transform="translate(1686.86 -84.76) rotate(90)" fill="#231f20"/>
  <rect x="921.64" y="751.06" width="13.39" height="13.39" transform="translate(1686.1 -170.58) rotate(90)" fill="#231f20"/>
  <rect x="879.11" y="620.64" width="13.39" height="13.39" transform="translate(1513.15 -258.47) rotate(90)" fill="#231f20"/>
  <rect x="837.7" y="751.06" width="13.39" height="13.39" transform="translate(1602.15 -86.64) rotate(90)" fill="#231f20"/>
  <rect x="837.7" y="707.03" width="13.39" height="13.39" transform="translate(1558.12 -130.67) rotate(90)" fill="#231f20"/>
  <rect x="837.7" y="663.58" width="13.39" height="13.39" transform="translate(1514.67 -174.12) rotate(90)" fill="#231f20"/>
  <rect x="879.11" y="577.34" width="13.39" height="13.39" transform="translate(1469.84 -301.78) rotate(90)" fill="#231f20"/>
  <rect x="920.53" y="577.34" width="13.39" height="13.39" transform="translate(1511.26 -343.19) rotate(90)" fill="#231f20"/>
  <rect x="1008.17" y="751.06" width="13.39" height="13.39" transform="translate(1772.62 -257.11) rotate(90)" fill="#231f20"/>
  <rect x="1008.17" y="707.03" width="13.39" height="13.39" transform="translate(1728.59 -301.14) rotate(90)" fill="#231f20"/>
  <rect x="1008.17" y="663.58" width="13.39" height="13.39" transform="translate(1685.14 -344.58) rotate(90)" fill="#231f20"/>
  <rect x="1008.17" y="620.64" width="13.39" height="13.39" transform="translate(1642.2 -387.52) rotate(90)" fill="#231f20"/>
  <rect x="1053.72" y="923.02" width="13.39" height="13.39" transform="translate(1990.14 -130.7) rotate(90)" fill="#231f20"/>
  <rect x="1053.72" y="879.6" width="13.39" height="13.39" transform="translate(1946.72 -174.13) rotate(90)" fill="#231f20"/>
  <rect x="1053.72" y="836.75" width="13.39" height="13.39" transform="translate(1903.87 -216.97) rotate(90)" fill="#231f20"/>
  <rect x="1053.72" y="794.36" width="13.39" height="13.39" transform="translate(1861.47 -259.37) rotate(90)" fill="#231f20"/>
  <rect x="966.61" y="620.64" width="13.39" height="13.39" transform="translate(1600.65 -345.97) rotate(90)" fill="#231f20"/>
  <rect x="531.99" y="663.58" width="13.39" height="13.39" fill="#231f20"/>
  <rect x="576.04" y="663.58" width="13.39" height="13.39" fill="#231f20"/>
  <rect x="576.04" y="707.03" width="13.39" height="13.39" fill="#231f20"/>
  <rect x="663.07" y="663.58" width="13.39" height="13.39" fill="#231f20"/>
  <rect x="706.13" y="751.06" width="13.39" height="13.39" transform="translate(1470.58 44.93) rotate(90)" fill="#231f20"/>
  <rect x="706.13" y="707.03" width="13.39" height="13.39" transform="translate(1426.55 .9) rotate(90)" fill="#231f20"/>
  <rect x="664.44" y="751.06" width="13.39" height="13.39" transform="translate(1428.9 86.62) rotate(90)" fill="#231f20"/>
  <rect x="619.71" y="751.06" width="13.39" height="13.39" transform="translate(1384.17 131.35) rotate(90)" fill="#231f20"/>
  <rect x="664.44" y="707.03" width="13.39" height="13.39" transform="translate(1384.86 42.58) rotate(90)" fill="#231f20"/>
  <rect x="706.13" y="663.58" width="13.39" height="13.39" transform="translate(1383.1 -42.55) rotate(90)" fill="#231f20"/>
  <rect x="706.13" y="794.36" width="13.39" height="13.39" fill="#231f20"/>
  <rect x="664.44" y="794.36" width="13.39" height="13.39" fill="#231f20"/>
  <rect x="446.29" y="447.41" width="13.39" height="13.39" fill="#231f20"/>
  <rect x="446.43" y="534.14" width="13.39" height="13.39" transform="translate(993.96 87.71) rotate(90)" fill="#231f20"/>
  <rect x="187.48" y="620.64" width="13.39" height="13.39" fill="#231f20"/>
  <rect x="187.48" y="577.34" width="13.39" height="13.39" fill="#231f20"/>
  <rect x="187.48" y="663.58" width="13.39" height="13.39" fill="#231f20"/>
  <rect x="102.81" y="577.34" width="13.39" height="13.39" fill="#231f20"/>
  <rect x="60.23" y="534.14" width="13.39" height="13.39" fill="#231f20"/>
  <rect x="60.23" y="491.87" width="13.39" height="13.39" fill="#231f20"/>
  <rect x="102.81" y="620.64" width="13.39" height="13.39" fill="#231f20"/>
  <rect x="102.81" y="663.58" width="13.39" height="13.39" fill="#231f20"/>
  <rect x="102.81" y="707.03" width="13.39" height="13.39" fill="#231f20"/>
  <rect x="145.4" y="794.36" width="13.39" height="13.39" fill="#231f20"/>
  <rect x="145.4" y="836.75" width="13.39" height="13.39" fill="#231f20"/>
  <rect x="145.4" y="879.6" width="13.39" height="13.39" fill="#231f20"/>
  <rect x="145.4" y="923.02" width="13.39" height="13.39" fill="#231f20"/>
  <rect x="187.48" y="879.6" width="13.39" height="13.39" fill="#231f20"/>
  <rect x="187.48" y="923.02" width="13.39" height="13.39" fill="#231f20"/>
  <rect x="187.93" y="966.13" width="13.39" height="13.39" fill="#231f20"/>
  <rect x="187.48" y="1009.26" width="13.39" height="13.39" fill="#231f20"/>
  <rect x="233.63" y="1052.61" width="13.39" height="13.39" fill="#231f20"/>
  <rect x="145.26" y="447.41" width="13.39" height="13.39" fill="#231f20"/>
  <rect x="145.4" y="492.1" width="13.39" height="13.39" fill="#231f20"/>
  <rect x="145.4" y="534.14" width="13.39" height="13.39" fill="#231f20"/>
</svg>