<?xml version="1.0" encoding="UTF-8"?>
<svg id="_11" data-name="11" xmlns="http://www.w3.org/2000/svg" viewBox="0 0 1080 1080">
  <rect x="907.73" y="1.95" width="40.83" height="40.83" fill="#231f20"/>
  <rect x="864.76" y="1.95" width="40.83" height="40.83" fill="#231f20"/>
  <rect x="907.73" y="45.1" width="40.83" height="40.83" fill="#231f20"/>
  <rect x="864.76" y="45.1" width="40.83" height="40.83" fill="#231f20"/>
  <rect x="994.27" y="1.95" width="40.83" height="40.83" fill="#231f20"/>
  <rect x="950.98" y="1.95" width="40.83" height="40.83" fill="#231f20"/>
  <rect x="994.27" y="45.08" width="40.83" height="40.83" fill="#231f20"/>
  <rect x="1037.62" y="2.06" width="40.83" height="40.83" fill="#231f20"/>
  <rect x="1037.62" y="45.21" width="40.83" height="40.83" fill="#231f20"/>
  <rect x="950.98" y="45.09" width="40.83" height="40.83" fill="#231f20"/>
  <rect x="907.73" y="88.25" width="40.83" height="40.83" fill="#231f20"/>
  <rect x="864.76" y="88.26" width="40.83" height="40.83" fill="#231f20"/>
  <rect x="907.73" y="131.4" width="40.83" height="40.83" fill="#231f20"/>
  <rect x="864.76" y="131.41" width="40.83" height="40.83" fill="#231f20"/>
  <rect x="994.27" y="88.21" width="40.83" height="40.83" fill="#231f20"/>
  <rect x="950.98" y="88.23" width="40.83" height="40.83" fill="#231f20"/>
  <rect x="994.27" y="131.34" width="40.83" height="40.83" fill="#231f20"/>
  <rect x="1037.62" y="88.37" width="40.83" height="40.83" fill="#231f20"/>
  <rect x="1037.62" y="131.53" width="40.83" height="40.83" fill="#231f20"/>
  <rect x="950.98" y="131.38" width="40.83" height="40.83" fill="#231f20"/>
  <rect x="907.73" y="174.55" width="40.83" height="40.83" fill="#231f20"/>
  <rect x="864.76" y="174.57" width="40.83" height="40.83" fill="#231f20"/>
  <rect x="994.27" y="174.47" width="40.83" height="40.83" fill="#231f20"/>
  <rect x="1037.62" y="174.68" width="40.83" height="40.83" fill="#231f20"/>
  <rect x="950.98" y="174.52" width="40.83" height="40.83" fill="#231f20"/>
  <rect x="907.73" y="217.71" width="40.83" height="40.83" fill="#231f20"/>
  <rect x="864.76" y="217.73" width="40.83" height="40.83" fill="#231f20"/>
  <rect x="821.05" y="88.13" width="40.83" height="40.83" fill="#231f20"/>
  <rect x="821.05" y="131.32" width="40.83" height="40.83" fill="#231f20"/>
  <rect x="821.05" y="174.5" width="40.83" height="40.83" fill="#231f20"/>
  <rect x="821.05" y="217.68" width="40.83" height="40.83" fill="#231f20"/>
  <rect x="778.34" y="131.29" width="40.83" height="40.83" fill="#231f20"/>
  <rect x="778.34" y="174.47" width="40.83" height="40.83" fill="#231f20"/>
  <rect x="778.34" y="217.66" width="40.83" height="40.83" fill="#231f20"/>
  <rect x="907.73" y="260.86" width="40.83" height="40.83" fill="#231f20"/>
  <rect x="864.76" y="260.88" width="40.83" height="40.83" fill="#231f20"/>
  <rect x="821.05" y="260.86" width="40.83" height="40.83" fill="#231f20"/>
  <rect x="778.34" y="260.85" width="40.83" height="40.83" fill="#231f20"/>
  <rect x="735.38" y="260.45" width="40.83" height="40.83" fill="#231f20"/>
  <rect x="864.76" y="304.04" width="40.83" height="40.83" fill="#231f20"/>
  <rect x="821.05" y="304.04" width="40.83" height="40.83" fill="#231f20"/>
  <rect x="778.34" y="304.04" width="40.83" height="40.83" fill="#231f20"/>
  <rect x="735.38" y="304.04" width="40.83" height="40.83" fill="#231f20"/>
  <rect x="735.38" y="347.63" width="40.83" height="40.83" fill="#231f20"/>
  <rect x="389.72" y="433.16" width="40.83" height="40.83" fill="#231f20"/>
  <rect x="389.72" y="476.43" width="40.83" height="40.83" fill="#231f20"/>
  <rect x="389.72" y="519.7" width="40.83" height="40.83" fill="#231f20"/>
  <rect x="346.53" y="433.16" width="40.83" height="40.83" fill="#231f20"/>
  <rect x="346.53" y="476.42" width="40.83" height="40.83" fill="#231f20"/>
  <rect x="346.53" y="519.69" width="40.83" height="40.83" fill="#231f20"/>
  <rect x="303.34" y="433.16" width="40.83" height="40.83" fill="#231f20"/>
  <rect x="303.34" y="476.42" width="40.83" height="40.83" fill="#231f20"/>
  <rect x="303.34" y="519.69" width="40.83" height="40.83" fill="#231f20"/>
  <rect x="260.15" y="433.16" width="40.83" height="40.83" fill="#231f20"/>
  <rect x="260.15" y="476.42" width="40.83" height="40.83" fill="#231f20"/>
  <rect x="260.15" y="519.69" width="40.83" height="40.83" fill="#231f20"/>
  <rect x="389.72" y="562.97" width="40.83" height="40.83" fill="#231f20"/>
  <rect x="346.53" y="562.95" width="40.83" height="40.83" fill="#231f20"/>
  <rect x="303.34" y="562.95" width="40.83" height="40.83" fill="#231f20"/>
  <rect x="260.15" y="562.95" width="40.83" height="40.83" fill="#231f20"/>
  <rect x="389.72" y="606.24" width="40.83" height="40.83" fill="#231f20"/>
  <rect x="346.53" y="606.21" width="40.83" height="40.83" fill="#231f20"/>
  <rect x="303.34" y="606.21" width="40.83" height="40.83" fill="#231f20"/>
  <rect x="260.15" y="606.21" width="40.83" height="40.83" fill="#231f20"/>
  <rect x="389.72" y="649.51" width="40.83" height="40.83" fill="#231f20"/>
  <rect x="346.53" y="649.47" width="40.83" height="40.83" fill="#231f20"/>
  <rect x="303.34" y="649.47" width="40.83" height="40.83" fill="#231f20"/>
  <rect x="260.15" y="649.47" width="40.83" height="40.83" fill="#231f20"/>
  <rect x="346.53" y="692.73" width="40.83" height="40.83" fill="#231f20"/>
  <rect x="303.34" y="692.73" width="40.83" height="40.83" fill="#231f20"/>
  <rect x="260.15" y="692.73" width="40.83" height="40.83" fill="#231f20"/>
  <rect x="303.31" y="865.34" width="40.83" height="40.83" fill="#231f20"/>
  <rect x="260.12" y="865.16" width="40.83" height="40.83" fill="#231f20"/>
  <rect x="303.31" y="908.73" width="40.83" height="40.83" fill="#231f20"/>
  <rect x="303.31" y="821.85" width="40.83" height="40.83" fill="#231f20"/>
  <rect x="260.12" y="821.85" width="40.83" height="40.83" fill="#231f20"/>
  <rect x="346.53" y="865.34" width="40.83" height="40.83" fill="#231f20"/>
  <rect x="346.53" y="822.5" width="40.83" height="40.83" fill="#231f20"/>
  <rect x="303.31" y="951.39" width="40.83" height="40.83" fill="#231f20"/>
  <rect x="260.12" y="908.48" width="40.83" height="40.83" fill="#231f20"/>
  <rect x="260.12" y="951.79" width="40.83" height="40.83" fill="#231f20"/>
  <rect x="260.12" y="995.11" width="40.83" height="40.83" fill="#231f20"/>
  <rect x="303.31" y="995.11" width="40.83" height="40.83" fill="#231f20"/>
  <rect x="216.73" y="995.11" width="40.83" height="40.83" fill="#231f20"/>
  <rect x="173.78" y="1038.42" width="40.83" height="40.83" fill="#231f20"/>
  <rect x="87.27" y="779.11" width="40.83" height="40.83" fill="#231f20"/>
  <rect x="44.21" y="779.11" width="40.83" height="40.83" fill="#231f20"/>
  <rect x="1.02" y="779.11" width="40.83" height="40.83" fill="#231f20"/>
  <rect x="87.27" y="822.33" width="40.83" height="40.83" fill="#231f20"/>
  <rect x="44.21" y="822.81" width="40.83" height="40.83" fill="#231f20"/>
  <rect x="1.02" y="822.36" width="40.83" height="40.83" fill="#231f20"/>
  <rect x="87.27" y="865.55" width="40.83" height="40.83" fill="#231f20"/>
  <rect x="45.02" y="865.93" width="40.83" height="40.83" fill="#231f20"/>
  <rect x="1.02" y="865.58" width="40.83" height="40.83" fill="#231f20"/>
  <rect x="87.27" y="908.77" width="40.83" height="40.83" fill="#231f20"/>
  <rect x="45.02" y="909.05" width="40.83" height="40.83" fill="#231f20"/>
  <rect x="173.86" y="821.99" width="40.83" height="40.83" fill="#231f20"/>
  <rect x="130.45" y="821.48" width="40.83" height="40.83" fill="#231f20"/>
  <rect x="173.86" y="865.36" width="40.83" height="40.83" fill="#231f20"/>
  <rect x="130.45" y="864.89" width="40.83" height="40.83" fill="#231f20"/>
  <rect x="173.86" y="908.73" width="40.83" height="40.83" fill="#231f20"/>
  <rect x="130.45" y="908.29" width="40.83" height="40.83" fill="#231f20"/>
  <rect x="1.02" y="908.79" width="40.83" height="40.83" fill="#231f20"/>
  <rect x="87.27" y="951.98" width="40.83" height="40.83" fill="#231f20"/>
  <rect x="44.3" y="952.17" width="40.83" height="40.83" fill="#231f20"/>
  <rect x="1.11" y="952" width="40.83" height="40.83" fill="#231f20"/>
  <rect x="87.27" y="995.2" width="40.83" height="40.83" fill="#231f20"/>
  <rect x="44.13" y="995.3" width="40.83" height="40.83" fill="#231f20"/>
  <rect x="130.45" y="951.7" width="40.83" height="40.83" fill="#231f20"/>
  <rect x="130.45" y="995.11" width="40.83" height="40.83" fill="#231f20"/>
  <rect x="1.02" y="995.21" width="40.83" height="40.83" fill="#231f20"/>
  <rect x="87.27" y="1038.42" width="40.83" height="40.83" fill="#231f20"/>
  <rect x="44.13" y="1038.42" width="40.83" height="40.83" fill="#231f20"/>
  <rect x="1.02" y="1038.42" width="40.83" height="40.83" fill="#231f20"/>
  <rect x="216.57" y="563.13" width="40.83" height="40.83" fill="#231f20"/>
  <rect x="216.57" y="606.33" width="40.83" height="40.83" fill="#231f20"/>
  <rect x="216.57" y="649.52" width="40.83" height="40.83" fill="#231f20"/>
  <rect x="216.57" y="692.72" width="40.83" height="40.83" fill="#231f20"/>
  <rect x="173.54" y="563.13" width="40.83" height="40.83" fill="#231f20"/>
  <rect x="173.54" y="606.52" width="40.83" height="40.83" fill="#231f20"/>
  <rect x="173.54" y="649.91" width="40.83" height="40.83" fill="#231f20"/>
  <rect x="173.54" y="693.3" width="40.83" height="40.83" fill="#231f20"/>
  <rect x="216.57" y="736.15" width="40.83" height="40.83" fill="#231f20"/>
  <rect x="216.57" y="779.11" width="40.83" height="40.83" fill="#231f20"/>
  <rect x="173.54" y="736.15" width="40.83" height="40.83" fill="#231f20"/>
  <rect x="130.59" y="563.13" width="40.83" height="40.83" fill="#231f20"/>
  <rect x="130.59" y="606.33" width="40.83" height="40.83" fill="#231f20"/>
  <rect x="130.59" y="649.52" width="40.83" height="40.83" fill="#231f20"/>
  <rect x="130.59" y="692.72" width="40.83" height="40.83" fill="#231f20"/>
  <rect x="87.27" y="606.24" width="40.83" height="40.83" fill="#231f20"/>
  <rect x="87.27" y="649.45" width="40.83" height="40.83" fill="#231f20"/>
  <rect x="87.27" y="692.67" width="40.83" height="40.83" fill="#231f20"/>
  <rect x="44.21" y="650.31" width="40.83" height="40.83" fill="#231f20"/>
  <rect x="44.21" y="693.44" width="40.83" height="40.83" fill="#231f20"/>
  <rect x="1.02" y="692.73" width="40.83" height="40.83" fill="#231f20"/>
  <rect x="130.59" y="736.15" width="40.83" height="40.83" fill="#231f20"/>
  <rect x="87.27" y="736.15" width="40.83" height="40.83" fill="#231f20"/>
  <rect x="44.21" y="736.15" width="40.83" height="40.83" fill="#231f20"/>
  <rect x="1.02" y="736.15" width="40.83" height="40.83" fill="#231f20"/>
  <rect x="691.94" y="520.01" width="40.83" height="40.83" fill="#231f20"/>
  <rect x="734.81" y="563.17" width="40.83" height="40.83" fill="#231f20"/>
  <rect x="778.36" y="735.92" width="40.83" height="40.83" fill="#231f20"/>
  <rect x="735.02" y="779.11" width="40.83" height="40.83" fill="#231f20"/>
  <rect x="735.15" y="735.92" width="40.83" height="40.83" fill="#231f20"/>
  <rect x="691.94" y="779.11" width="40.83" height="40.83" fill="#231f20"/>
  <rect x="691.94" y="735.92" width="40.83" height="40.83" fill="#231f20"/>
  <rect x="691.94" y="649.42" width="40.83" height="40.83" fill="#231f20"/>
  <rect x="950.98" y="217.66" width="40.83" height="40.83" fill="#231f20"/>
  <rect x="836.97" y="14.77" width="13.39" height="13.39" fill="#231f20"/>
  <rect x="836.97" y="58.63" width="13.39" height="13.39" fill="#231f20"/>
  <rect x="749.54" y="101.86" width="13.39" height="13.39" fill="#231f20"/>
  <rect x="749.54" y="145.72" width="13.39" height="13.39" fill="#231f20"/>
  <rect x="749.54" y="186.68" width="13.39" height="13.39" fill="#231f20"/>
  <rect x="749.54" y="231.4" width="13.39" height="13.39" fill="#231f20"/>
  <rect x="707.6" y="231.4" width="13.39" height="13.39" fill="#231f20"/>
  <rect x="707.6" y="275.68" width="13.39" height="13.39" fill="#231f20"/>
  <rect x="665.66" y="231.4" width="13.39" height="13.39" fill="#231f20"/>
  <rect x="665.66" y="275.68" width="13.39" height="13.39" fill="#231f20"/>
  <rect x="707.6" y="315.44" width="13.39" height="13.39" fill="#231f20"/>
  <rect x="707.6" y="359.3" width="13.39" height="13.39" fill="#231f20"/>
  <rect x="665.66" y="315.44" width="13.39" height="13.39" fill="#231f20"/>
  <rect x="665.66" y="359.3" width="13.39" height="13.39" fill="#231f20"/>
  <rect x="707.6" y="402.62" width="13.39" height="13.39" fill="#231f20"/>
  <rect x="707.6" y="446.48" width="13.39" height="13.39" fill="#231f20"/>
  <rect x="665.66" y="489" width="13.39" height="13.39" fill="#231f20"/>
  <rect x="665.66" y="532.86" width="13.39" height="13.39" fill="#231f20"/>
  <rect x="705.41" y="576.89" width="13.39" height="13.39" fill="#231f20"/>
  <rect x="791.66" y="576.89" width="13.39" height="13.39" fill="#231f20"/>
  <rect x="706.06" y="619.36" width="13.39" height="13.39" fill="#231f20"/>
  <rect x="749.54" y="402.62" width="13.39" height="13.39" fill="#231f20"/>
  <rect x="749.54" y="446.48" width="13.39" height="13.39" fill="#231f20"/>
  <rect x="665.66" y="402.62" width="13.39" height="13.39" fill="#231f20"/>
  <rect x="834.54" y="360.54" width="13.39" height="13.39" fill="#231f20"/>
  <rect x="876.49" y="360.54" width="13.39" height="13.39" fill="#231f20"/>
  <rect x="923.49" y="317.76" width="13.39" height="13.39" fill="#231f20"/>
  <rect x="965.44" y="317.76" width="13.39" height="13.39" fill="#231f20"/>
  <rect x="965.11" y="274.17" width="13.39" height="13.39" fill="#231f20"/>
  <rect x="1007.05" y="274.17" width="13.39" height="13.39" fill="#231f20"/>
  <rect x="1009.87" y="231.82" width="13.39" height="13.39" fill="#231f20"/>
  <rect x="1051.81" y="231.82" width="13.39" height="13.39" fill="#231f20"/>
  <rect x="792.6" y="360.54" width="13.39" height="13.39" fill="#231f20"/>
  <rect x="665.66" y="446.48" width="13.39" height="13.39" fill="#231f20"/>
  <rect x="361.49" y="402.62" width="13.39" height="13.39" fill="#231f20"/>
  <rect x="403.44" y="402.62" width="13.39" height="13.39" fill="#231f20"/>
  <rect x="319.55" y="402.62" width="13.39" height="13.39" fill="#231f20"/>
  <rect x="663.45" y="663.14" width="13.39" height="13.39" fill="#231f20"/>
  <rect x="663.45" y="706.03" width="13.39" height="13.39" fill="#231f20"/>
  <rect x="663.45" y="619.36" width="13.39" height="13.39" fill="#231f20"/>
  <rect x="622.61" y="663.14" width="13.39" height="13.39" fill="#231f20"/>
  <rect x="622.61" y="619.36" width="13.39" height="13.39" fill="#231f20"/>
  <rect x="749.54" y="663.14" width="13.39" height="13.39" fill="#231f20"/>
  <rect x="749.54" y="706.03" width="13.39" height="13.39" fill="#231f20"/>
  <rect x="622.61" y="706.03" width="13.39" height="13.39" fill="#231f20"/>
  <rect x="663.45" y="749.22" width="13.39" height="13.39" fill="#231f20"/>
  <rect x="622.61" y="749.22" width="13.39" height="13.39" fill="#231f20"/>
  <rect x="577.98" y="704.94" width="13.39" height="13.39" fill="#231f20"/>
  <rect x="577.98" y="749.22" width="13.39" height="13.39" fill="#231f20"/>
  <rect x="663.45" y="791.31" width="13.39" height="13.39" fill="#231f20"/>
  <rect x="622.61" y="791.31" width="13.39" height="13.39" fill="#231f20"/>
  <rect x="749.55" y="835.84" width="13.39" height="13.39" fill="#231f20"/>
  <rect x="708.71" y="835.84" width="13.39" height="13.39" fill="#231f20"/>
  <rect x="706.07" y="878.55" width="13.39" height="13.39" fill="#231f20"/>
  <rect x="665.23" y="878.55" width="13.39" height="13.39" fill="#231f20"/>
  <rect x="705.76" y="921.21" width="13.39" height="13.39" fill="#231f20"/>
  <rect x="664.92" y="921.21" width="13.39" height="13.39" fill="#231f20"/>
  <rect x="576.19" y="964.18" width="13.39" height="13.39" fill="#231f20"/>
  <rect x="535.35" y="964.18" width="13.39" height="13.39" fill="#231f20"/>
  <rect x="665.23" y="964.18" width="13.39" height="13.39" fill="#231f20"/>
  <rect x="624.39" y="964.18" width="13.39" height="13.39" fill="#231f20"/>
  <rect x="577.98" y="791.31" width="13.39" height="13.39" fill="#231f20"/>
  <rect x="490.81" y="791.31" width="13.39" height="13.39" fill="#231f20"/>
  <rect x="447.41" y="791.31" width="13.39" height="13.39" fill="#231f20"/>
  <rect x="490.81" y="835.84" width="13.39" height="13.39" fill="#231f20"/>
  <rect x="534.18" y="792.66" width="13.39" height="13.39" fill="#231f20"/>
  <rect x="360.65" y="792.84" width="13.39" height="13.39" fill="#231f20"/>
  <rect x="273.47" y="792.84" width="13.39" height="13.39" fill="#231f20"/>
  <rect x="316.85" y="792.84" width="13.39" height="13.39" fill="#231f20"/>
  <rect x="145.21" y="792.84" width="13.39" height="13.39" fill="#231f20"/>
  <rect x="187.64" y="792.84" width="13.39" height="13.39" fill="#231f20"/>
  <rect x="534.18" y="835.84" width="13.39" height="13.39" fill="#231f20"/>
  <rect x="535.43" y="749.22" width="13.39" height="13.39" fill="#231f20"/>
  <rect x="491.7" y="749.22" width="13.39" height="13.39" fill="#231f20"/>
  <rect x="360.2" y="749.22" width="13.39" height="13.39" fill="#231f20"/>
  <rect x="317.66" y="749.22" width="13.39" height="13.39" fill="#231f20"/>
  <rect x="273.92" y="749.22" width="13.39" height="13.39" fill="#231f20"/>
  <rect x="448.36" y="619.95" width="13.39" height="13.39" fill="#231f20"/>
  <rect x="448.36" y="663.81" width="13.39" height="13.39" fill="#231f20"/>
  <rect x="403.44" y="706.03" width="13.39" height="13.39" fill="#231f20"/>
  <rect x="448.36" y="578.28" width="13.39" height="13.39" fill="#231f20"/>
  <rect x="448.36" y="492.62" width="13.39" height="13.39" fill="#231f20"/>
  <rect x="448.36" y="536.48" width="13.39" height="13.39" fill="#231f20"/>
  <rect x="448.36" y="450.95" width="13.39" height="13.39" fill="#231f20"/>
  <rect x="448.36" y="403.22" width="13.39" height="13.39" fill="#231f20"/>
  <rect x="231.66" y="492.62" width="13.39" height="13.39" fill="#231f20"/>
  <rect x="231.66" y="533.26" width="13.39" height="13.39" fill="#231f20"/>
  <rect x="189.45" y="533.26" width="13.39" height="13.39" fill="#231f20"/>
  <rect x="231.66" y="450.95" width="13.39" height="13.39" fill="#231f20"/>
  <rect x="231.66" y="403.22" width="13.39" height="13.39" fill="#231f20"/>
  <rect x="449.93" y="835.84" width="13.39" height="13.39" fill="#231f20"/>
  <rect x="403.44" y="835.84" width="13.39" height="13.39" fill="#231f20"/>
  <rect x="230.29" y="836.53" width="13.39" height="13.39" fill="#231f20"/>
  <rect x="577.55" y="878.55" width="13.39" height="13.39" fill="#231f20"/>
  <rect x="577.55" y="922.55" width="13.39" height="13.39" fill="#231f20"/>
  <rect x="535.43" y="878.55" width="13.39" height="13.39" fill="#231f20"/>
  <rect x="535.43" y="922.55" width="13.39" height="13.39" fill="#231f20"/>
  <rect x="404.08" y="922.45" width="13.39" height="13.39" fill="#231f20"/>
  <rect x="361.96" y="922.45" width="13.39" height="13.39" fill="#231f20"/>
  <rect x="404.17" y="965.11" width="13.39" height="13.39" fill="#231f20"/>
  <rect x="403.85" y="1008.83" width="13.39" height="13.39" fill="#231f20"/>
  <rect x="362.05" y="965.11" width="13.39" height="13.39" fill="#231f20"/>
  <rect x="361.73" y="1008.83" width="13.39" height="13.39" fill="#231f20"/>
  <rect x="230.29" y="877.53" width="13.39" height="13.39" fill="#231f20"/>
  <rect x="230.29" y="922.47" width="13.39" height="13.39" fill="#231f20"/>
  <rect x="230.29" y="965.13" width="13.39" height="13.39" fill="#231f20"/>
  <rect x="187.43" y="965.11" width="13.39" height="13.39" fill="#231f20"/>
  <rect x="187.43" y="1008.83" width="13.39" height="13.39" fill="#231f20"/>
  <rect x="230.68" y="1052.14" width="13.39" height="13.39" fill="#231f20"/>
  <rect x="273.87" y="1052.14" width="13.39" height="13.39" fill="#231f20"/>
  <rect x="317.06" y="1052.14" width="13.39" height="13.39" fill="#231f20"/>
  <rect x="708.71" y="706.03" width="13.39" height="13.39" fill="#231f20"/>
  <rect x="835.32" y="706.03" width="13.39" height="13.39" fill="#231f20"/>
  <rect x="794.48" y="706.03" width="13.39" height="13.39" fill="#231f20"/>
  <rect x="749.54" y="619.36" width="13.39" height="13.39" fill="#231f20"/>
  <rect x="793.95" y="101.48" width="13.39" height="13.39" fill="#231f20"/>
  <rect x="793.95" y="58.63" width="13.39" height="13.39" fill="#231f20"/>
</svg>