<?xml version="1.0" encoding="UTF-8"?>
<svg id="_12" data-name="12" xmlns="http://www.w3.org/2000/svg" viewBox="0 0 1080 1080">
  <rect x="389.22" y="994.78" width="40.84" height="40.84" fill="#231f20"/>
  <rect x="432.65" y="994.89" width="40.84" height="40.84" fill="#231f20"/>
  <rect x="389.22" y="951.53" width="40.84" height="40.84" fill="#231f20"/>
  <rect x="432.34" y="605.82" width="40.84" height="40.84" fill="#231f20"/>
  <rect x="475.73" y="605.82" width="40.84" height="40.84" fill="#231f20"/>
  <rect x="432.79" y="563.03" width="40.84" height="40.84" fill="#231f20"/>
  <rect x="389.95" y="563.03" width="40.84" height="40.84" fill="#231f20"/>
  <rect x="389.24" y="605.82" width="40.84" height="40.84" fill="#231f20"/>
  <rect x="519.03" y="648.71" width="40.84" height="40.84" fill="#231f20"/>
  <rect x="562.01" y="648.71" width="40.84" height="40.84" fill="#231f20"/>
  <rect x="604.98" y="648.71" width="40.84" height="40.84" fill="#231f20"/>
  <rect x="562.19" y="692.11" width="40.84" height="40.84" fill="#231f20"/>
  <rect x="605.26" y="692.11" width="40.84" height="40.84" fill="#231f20"/>
  <rect x="562.05" y="735.31" width="40.84" height="40.84" fill="#231f20"/>
  <rect x="605.33" y="735.31" width="40.84" height="40.84" fill="#231f20"/>
  <rect x="475.73" y="648.71" width="40.84" height="40.84" fill="#231f20"/>
  <rect x="389.47" y="692.15" width="40.84" height="40.84" fill="#231f20"/>
  <rect x="345.84" y="692.07" width="40.84" height="40.84" fill="#231f20"/>
  <rect x="389.59" y="735.72" width="40.84" height="40.84" fill="#231f20"/>
  <rect x="345.96" y="735.72" width="40.84" height="40.84" fill="#231f20"/>
  <rect x="432.23" y="778.93" width="40.84" height="40.84" fill="#231f20"/>
  <rect x="475.73" y="563.03" width="40.84" height="40.84" fill="#231f20"/>
  <rect x="432.79" y="519.83" width="40.84" height="40.84" fill="#231f20"/>
  <rect x="389.95" y="519.83" width="40.84" height="40.84" fill="#231f20"/>
  <rect x="475.73" y="519.83" width="40.84" height="40.84" fill="#231f20"/>
  <rect x="518.82" y="347.03" width="40.84" height="40.84" fill="#231f20"/>
  <rect x="432.79" y="347.03" width="40.84" height="40.84" fill="#231f20"/>
  <rect x="561.65" y="347.03" width="40.84" height="40.84" fill="#231f20"/>
  <rect x="432.65" y="951.76" width="40.84" height="40.84" fill="#231f20"/>
  <rect x="303.04" y="994.85" width="40.84" height="40.84" fill="#231f20"/>
  <rect x="345.96" y="994.84" width="40.84" height="40.84" fill="#231f20"/>
  <rect x="389.22" y="1038.03" width="40.84" height="40.84" fill="#231f20"/>
  <rect x="389.22" y="865.04" width="40.84" height="40.84" fill="#231f20"/>
  <rect x="389.22" y="821.79" width="40.84" height="40.84" fill="#231f20"/>
  <rect x="345.96" y="865.28" width="40.84" height="40.84" fill="#231f20"/>
  <rect x="345.96" y="822.09" width="40.84" height="40.84" fill="#231f20"/>
  <rect x="345.96" y="778.9" width="40.84" height="40.84" fill="#231f20"/>
  <rect x="303.04" y="778.96" width="40.84" height="40.84" fill="#231f20"/>
  <rect x="389.22" y="908.28" width="40.84" height="40.84" fill="#231f20"/>
  <rect x="432.65" y="908.63" width="40.84" height="40.84" fill="#231f20"/>
  <rect x="432.65" y="1038.03" width="40.84" height="40.84" fill="#231f20"/>
  <rect x="303.04" y="1038.03" width="40.84" height="40.84" fill="#231f20"/>
  <rect x="345.96" y="1038.03" width="40.84" height="40.84" fill="#231f20"/>
  <rect x="303.04" y="951.67" width="40.84" height="40.84" fill="#231f20"/>
  <rect x="345.96" y="951.65" width="40.84" height="40.84" fill="#231f20"/>
  <rect x="303.04" y="908.49" width="40.84" height="40.84" fill="#231f20"/>
  <rect x="259.66" y="908.39" width="40.84" height="40.84" fill="#231f20"/>
  <rect x="259.66" y="865.17" width="40.84" height="40.84" fill="#231f20"/>
  <rect x="345.96" y="908.47" width="40.84" height="40.84" fill="#231f20"/>
  <rect x="259.66" y="821.96" width="40.84" height="40.84" fill="#231f20"/>
  <rect x="303.04" y="822.14" width="40.84" height="40.84" fill="#231f20"/>
  <rect x="519.17" y="994.84" width="40.84" height="40.84" fill="#231f20"/>
  <rect x="561.89" y="994.73" width="40.84" height="40.84" fill="#231f20"/>
  <rect x="519.17" y="951.66" width="40.84" height="40.84" fill="#231f20"/>
  <rect x="561.89" y="951.42" width="40.84" height="40.84" fill="#231f20"/>
  <rect x="476.07" y="994.86" width="40.84" height="40.84" fill="#231f20"/>
  <rect x="519.17" y="1038.03" width="40.84" height="40.84" fill="#231f20"/>
  <rect x="561.89" y="1038.03" width="40.84" height="40.84" fill="#231f20"/>
  <rect x="561.89" y="864.82" width="40.84" height="40.84" fill="#231f20"/>
  <rect x="561.89" y="821.52" width="40.84" height="40.84" fill="#231f20"/>
  <rect x="519.17" y="778.93" width="40.84" height="40.84" fill="#231f20"/>
  <rect x="561.89" y="908.12" width="40.84" height="40.84" fill="#231f20"/>
  <rect x="605.22" y="908.11" width="40.84" height="40.84" fill="#231f20"/>
  <rect x="519.17" y="865.29" width="40.84" height="40.84" fill="#231f20"/>
  <rect x="519.17" y="822.11" width="40.84" height="40.84" fill="#231f20"/>
  <rect x="519.17" y="908.48" width="40.84" height="40.84" fill="#231f20"/>
  <rect x="476.07" y="908.53" width="40.84" height="40.84" fill="#231f20"/>
  <rect x="476.07" y="1038.03" width="40.84" height="40.84" fill="#231f20"/>
  <rect x="476.07" y="951.69" width="40.84" height="40.84" fill="#231f20"/>
  <rect x="821.3" y="994.76" width="40.84" height="40.84" fill="#231f20"/>
  <rect x="864.4" y="994.78" width="40.84" height="40.84" fill="#231f20"/>
  <rect x="821.3" y="951.52" width="40.84" height="40.84" fill="#231f20"/>
  <rect x="864.4" y="951.45" width="40.84" height="40.84" fill="#231f20"/>
  <rect x="821.3" y="908.27" width="40.84" height="40.84" fill="#231f20"/>
  <rect x="864.4" y="908.13" width="40.84" height="40.84" fill="#231f20"/>
  <rect x="778.08" y="994.84" width="40.84" height="40.84" fill="#231f20"/>
  <rect x="821.3" y="1038" width="40.84" height="40.84" fill="#231f20"/>
  <rect x="864.4" y="1038.1" width="40.84" height="40.84" fill="#231f20"/>
  <rect x="778.08" y="1038.17" width="40.84" height="40.84" fill="#231f20"/>
  <rect x="778.08" y="951.52" width="40.84" height="40.84" fill="#231f20"/>
  <rect x="778.08" y="908.19" width="40.84" height="40.84" fill="#231f20"/>
  <rect x="821.3" y="865.03" width="40.84" height="40.84" fill="#231f20"/>
  <rect x="864.4" y="864.81" width="40.84" height="40.84" fill="#231f20"/>
  <rect x="864.4" y="821.48" width="40.84" height="40.84" fill="#231f20"/>
  <rect x="778.08" y="864.87" width="40.84" height="40.84" fill="#231f20"/>
  <rect x="778.08" y="821.54" width="40.84" height="40.84" fill="#231f20"/>
  <rect x="691.51" y="821.48" width="40.84" height="40.84" fill="#231f20"/>
  <rect x="735" y="821.48" width="40.84" height="40.84" fill="#231f20"/>
  <rect x="691.51" y="778.53" width="40.84" height="40.84" fill="#231f20"/>
  <rect x="691.53" y="735.35" width="40.84" height="40.84" fill="#231f20"/>
  <rect x="648.16" y="735.35" width="40.84" height="40.84" fill="#231f20"/>
  <rect x="691.51" y="692.63" width="40.84" height="40.84" fill="#231f20"/>
  <rect x="216.42" y="994.57" width="40.84" height="40.84" fill="#231f20"/>
  <rect x="259.66" y="994.81" width="40.84" height="40.84" fill="#231f20"/>
  <rect x="216.42" y="1038.03" width="40.84" height="40.84" fill="#231f20"/>
  <rect x="259.66" y="1038.03" width="40.84" height="40.84" fill="#231f20"/>
  <rect x="216.42" y="951.11" width="40.84" height="40.84" fill="#231f20"/>
  <rect x="259.66" y="951.6" width="40.84" height="40.84" fill="#231f20"/>
  <rect x="403.2" y="316.81" width="13.39" height="13.39" fill="#231f20"/>
  <rect x="360.05" y="316.81" width="13.39" height="13.39" fill="#231f20"/>
  <rect x="403.2" y="274.2" width="13.39" height="13.39" fill="#231f20"/>
  <rect x="489.53" y="359.77" width="13.39" height="13.39" fill="#231f20"/>
  <rect x="489.53" y="316.81" width="13.39" height="13.39" fill="#231f20"/>
  <rect x="446.36" y="316.81" width="13.39" height="13.39" fill="#231f20"/>
  <rect x="532.21" y="316.81" width="13.39" height="13.39" fill="#231f20"/>
  <rect x="576.9" y="448.17" width="13.39" height="13.39" fill="#231f20"/>
  <rect x="533.74" y="448.17" width="13.39" height="13.39" fill="#231f20"/>
  <rect x="403.2" y="405.48" width="13.39" height="13.39" fill="#231f20"/>
  <rect x="360.91" y="405.48" width="13.39" height="13.39" fill="#231f20"/>
  <rect x="360.91" y="448.17" width="13.39" height="13.39" fill="#231f20"/>
  <rect x="403.2" y="361.14" width="13.39" height="13.39" fill="#231f20"/>
  <rect x="316.77" y="879.04" width="13.39" height="13.39" fill="#231f20"/>
  <rect x="231.14" y="879.25" width="13.39" height="13.39" fill="#231f20"/>
  <rect x="231.14" y="922.25" width="13.39" height="13.39" fill="#231f20"/>
  <rect x="188.72" y="879.25" width="13.39" height="13.39" fill="#231f20"/>
  <rect x="188.72" y="922.25" width="13.39" height="13.39" fill="#231f20"/>
  <rect x="188.72" y="965.55" width="13.39" height="13.39" fill="#231f20"/>
  <rect x="188.72" y="1009.61" width="13.39" height="13.39" fill="#231f20"/>
  <rect x="188.72" y="1052.73" width="13.39" height="13.39" fill="#231f20"/>
  <rect x="231.14" y="793.34" width="13.39" height="13.39" fill="#231f20"/>
  <rect x="231.14" y="837.03" width="13.39" height="13.39" fill="#231f20"/>
  <rect x="446.23" y="879.25" width="13.39" height="13.39" fill="#231f20"/>
  <rect x="489.29" y="879.25" width="13.39" height="13.39" fill="#231f20"/>
  <rect x="446.23" y="836.05" width="13.39" height="13.39" fill="#231f20"/>
  <rect x="489.29" y="836.05" width="13.39" height="13.39" fill="#231f20"/>
  <rect x="489.29" y="792.65" width="13.39" height="13.39" fill="#231f20"/>
  <rect x="402.94" y="792.65" width="13.39" height="13.39" fill="#231f20"/>
  <rect x="316.77" y="749.51" width="13.39" height="13.39" fill="#231f20"/>
  <rect x="316.77" y="706.33" width="13.39" height="13.39" fill="#231f20"/>
  <rect x="360.48" y="620.05" width="13.39" height="13.39" fill="#231f20"/>
  <rect x="360.48" y="577.14" width="13.39" height="13.39" fill="#231f20"/>
  <rect x="273.34" y="793.34" width="13.39" height="13.39" fill="#231f20"/>
  <rect x="489.29" y="749.45" width="13.39" height="13.39" fill="#231f20"/>
  <rect x="489.29" y="706.25" width="13.39" height="13.39" fill="#231f20"/>
  <rect x="533.72" y="749.45" width="13.39" height="13.39" fill="#231f20"/>
  <rect x="533.72" y="706.25" width="13.39" height="13.39" fill="#231f20"/>
  <rect x="533.72" y="620.14" width="13.39" height="13.39" fill="#231f20"/>
  <rect x="533.72" y="576.68" width="13.39" height="13.39" fill="#231f20"/>
  <rect x="575.13" y="620.14" width="13.39" height="13.39" fill="#231f20"/>
  <rect x="619.06" y="620.14" width="13.39" height="13.39" fill="#231f20"/>
  <rect x="619.06" y="576.68" width="13.39" height="13.39" fill="#231f20"/>
  <rect x="575.13" y="576.68" width="13.39" height="13.39" fill="#231f20"/>
  <rect x="664.22" y="576.68" width="13.39" height="13.39" fill="#231f20"/>
  <rect x="748.71" y="576.68" width="13.39" height="13.39" fill="#231f20"/>
  <rect x="705.64" y="576.68" width="13.39" height="13.39" fill="#231f20"/>
  <rect x="664.22" y="405.48" width="13.39" height="13.39" fill="#231f20"/>
  <rect x="748.71" y="448.17" width="13.39" height="13.39" fill="#231f20"/>
  <rect x="705.64" y="448.17" width="13.39" height="13.39" fill="#231f20"/>
  <rect x="533.72" y="534.68" width="13.39" height="13.39" fill="#231f20"/>
  <rect x="447.66" y="749.45" width="13.39" height="13.39" fill="#231f20"/>
  <rect x="447.66" y="706.64" width="13.39" height="13.39" fill="#231f20"/>
  <rect x="403.68" y="663.15" width="13.39" height="13.39" fill="#231f20"/>
  <rect x="447.66" y="663.15" width="13.39" height="13.39" fill="#231f20"/>
  <rect x="360.48" y="663.15" width="13.39" height="13.39" fill="#231f20"/>
  <rect x="316.77" y="663.15" width="13.39" height="13.39" fill="#231f20"/>
  <rect x="620.48" y="793" width="13.39" height="13.39" fill="#231f20"/>
  <rect x="663.16" y="793" width="13.39" height="13.39" fill="#231f20"/>
  <rect x="576.56" y="793" width="13.39" height="13.39" fill="#231f20"/>
  <rect x="663.16" y="836.65" width="13.39" height="13.39" fill="#231f20"/>
  <rect x="663.47" y="664.39" width="13.39" height="13.39" fill="#231f20"/>
  <rect x="663.47" y="708.04" width="13.39" height="13.39" fill="#231f20"/>
  <rect x="663.47" y="491.15" width="13.39" height="13.39" fill="#231f20"/>
  <rect x="663.47" y="534.68" width="13.39" height="13.39" fill="#231f20"/>
  <rect x="619.06" y="491.15" width="13.39" height="13.39" fill="#231f20"/>
  <rect x="619.06" y="534.68" width="13.39" height="13.39" fill="#231f20"/>
  <rect x="575.13" y="534.68" width="13.39" height="13.39" fill="#231f20"/>
  <rect x="620.48" y="836.65" width="13.39" height="13.39" fill="#231f20"/>
  <rect x="620.48" y="879.25" width="13.39" height="13.39" fill="#231f20"/>
  <rect x="663.16" y="879.25" width="13.39" height="13.39" fill="#231f20"/>
  <rect x="663.16" y="923.83" width="13.39" height="13.39" fill="#231f20"/>
  <rect x="663.16" y="966.43" width="13.39" height="13.39" fill="#231f20"/>
  <rect x="663.16" y="1009.22" width="13.39" height="13.39" fill="#231f20"/>
  <rect x="663.16" y="1051.83" width="13.39" height="13.39" fill="#231f20"/>
  <rect x="620.48" y="966.48" width="13.39" height="13.39" fill="#231f20"/>
  <rect x="620.48" y="1010.13" width="13.39" height="13.39" fill="#231f20"/>
  <rect x="620.48" y="1052.73" width="13.39" height="13.39" fill="#231f20"/>
  <rect x="749.46" y="966.43" width="13.39" height="13.39" fill="#231f20"/>
  <rect x="749.46" y="1009.22" width="13.39" height="13.39" fill="#231f20"/>
  <rect x="749.46" y="1051.83" width="13.39" height="13.39" fill="#231f20"/>
  <rect x="706.78" y="966.48" width="13.39" height="13.39" fill="#231f20"/>
  <rect x="749.46" y="923.8" width="13.39" height="13.39" fill="#231f20"/>
  <rect x="706.78" y="923.85" width="13.39" height="13.39" fill="#231f20"/>
  <rect x="749.46" y="879.82" width="13.39" height="13.39" fill="#231f20"/>
  <rect x="836.77" y="835.21" width="13.39" height="13.39" fill="#231f20"/>
  <rect x="922.02" y="966.43" width="13.39" height="13.39" fill="#231f20"/>
  <rect x="922.15" y="1009.22" width="13.39" height="13.39" fill="#231f20"/>
  <rect x="922.15" y="1051.83" width="13.39" height="13.39" fill="#231f20"/>
  <rect x="922.02" y="923.8" width="13.39" height="13.39" fill="#231f20"/>
  <rect x="922.02" y="879.82" width="13.39" height="13.39" fill="#231f20"/>
  <rect x="922.2" y="835.21" width="13.39" height="13.39" fill="#231f20"/>
  <rect x="749.46" y="706.64" width="13.39" height="13.39" fill="#231f20"/>
  <rect x="749.46" y="749.43" width="13.39" height="13.39" fill="#231f20"/>
  <rect x="749.46" y="792.03" width="13.39" height="13.39" fill="#231f20"/>
  <rect x="749.46" y="664.01" width="13.39" height="13.39" fill="#231f20"/>
  <rect x="706.47" y="664.01" width="13.39" height="13.39" fill="#231f20"/>
  <rect x="706.78" y="879.87" width="13.39" height="13.39" fill="#231f20"/>
  <rect x="792.53" y="791.72" width="13.39" height="13.39" fill="#231f20"/>
  <rect x="835.21" y="791.72" width="13.39" height="13.39" fill="#231f20"/>
  <rect x="922.02" y="792.29" width="13.39" height="13.39" fill="#231f20"/>
  <rect x="922.02" y="750.22" width="13.39" height="13.39" fill="#231f20"/>
  <rect x="922.02" y="707.59" width="13.39" height="13.39" fill="#231f20"/>
  <rect x="922.02" y="663.61" width="13.39" height="13.39" fill="#231f20"/>
  <rect x="922.02" y="620.14" width="13.39" height="13.39" fill="#231f20"/>
  <rect x="922.02" y="576.68" width="13.39" height="13.39" fill="#231f20"/>
  <rect x="922.02" y="534.68" width="13.39" height="13.39" fill="#231f20"/>
  <rect x="922.02" y="491.15" width="13.39" height="13.39" fill="#231f20"/>
  <rect x="922.02" y="447.57" width="13.39" height="13.39" fill="#231f20"/>
  <rect x="922.02" y="403.22" width="13.39" height="13.39" fill="#231f20"/>
  <rect x="879.16" y="750.22" width="13.39" height="13.39" fill="#231f20"/>
  <rect x="879.16" y="707.59" width="13.39" height="13.39" fill="#231f20"/>
  <rect x="879.16" y="663.61" width="13.39" height="13.39" fill="#231f20"/>
  <rect x="879.16" y="620.14" width="13.39" height="13.39" fill="#231f20"/>
  <rect x="879.16" y="576.68" width="13.39" height="13.39" fill="#231f20"/>
  <rect x="879.16" y="534.68" width="13.39" height="13.39" fill="#231f20"/>
  <rect x="878.83" y="792.34" width="13.39" height="13.39" fill="#231f20"/>
  <rect x="706.78" y="1010.13" width="13.39" height="13.39" fill="#231f20"/>
  <rect x="706.78" y="1052.73" width="13.39" height="13.39" fill="#231f20"/>
  <rect x="489.53" y="405.48" width="13.39" height="13.39" fill="#231f20"/>
  <rect x="489.53" y="448.17" width="13.39" height="13.39" fill="#231f20"/>
  <rect x="447.38" y="448.17" width="13.39" height="13.39" fill="#231f20"/>
  <rect x="447.38" y="491.15" width="13.39" height="13.39" fill="#231f20"/>
  <rect x="576.9" y="491.15" width="13.39" height="13.39" fill="#231f20"/>
  <rect x="533.74" y="491.15" width="13.39" height="13.39" fill="#231f20"/>
  <rect x="489.53" y="491.15" width="13.39" height="13.39" fill="#231f20"/>
  <rect x="318.42" y="491.15" width="13.39" height="13.39" fill="#231f20"/>
  <rect x="360.57" y="491.15" width="13.39" height="13.39" fill="#231f20"/>
  <rect x="446.36" y="405.48" width="13.39" height="13.39" fill="#231f20"/>
  <rect x="532.21" y="405.48" width="13.39" height="13.39" fill="#231f20"/>
  <rect x="619.06" y="448.17" width="13.39" height="13.39" fill="#231f20"/>
  <rect x="102.06" y="620.81" width="13.39" height="13.39" fill="#231f20"/>
  <rect x="59.14" y="620.81" width="13.39" height="13.39" fill="#231f20"/>
  <rect x="59.14" y="663.15" width="13.39" height="13.39" fill="#231f20"/>
  <rect x="59.14" y="707.96" width="13.39" height="13.39" fill="#231f20"/>
  <rect x="59.14" y="750.3" width="13.39" height="13.39" fill="#231f20"/>
  <rect x="102.1" y="966.55" width="13.39" height="13.39" fill="#231f20"/>
  <rect x="102.1" y="1011.36" width="13.39" height="13.39" fill="#231f20"/>
  <rect x="102.1" y="1053.7" width="13.39" height="13.39" fill="#231f20"/>
  <rect x="144.71" y="620.81" width="13.39" height="13.39" fill="#231f20"/>
  <rect x="102.06" y="576.12" width="13.39" height="13.39" fill="#231f20"/>
  <rect x="102.06" y="491.15" width="13.39" height="13.39" fill="#231f20"/>
  <rect x="102.06" y="534.2" width="13.39" height="13.39" fill="#231f20"/>
  <rect x="102.06" y="448.17" width="13.39" height="13.39" fill="#231f20"/>
  <rect x="575.37" y="405.48" width="13.39" height="13.39" fill="#231f20"/>
  <rect x="532.21" y="274.2" width="13.39" height="13.39" fill="#231f20"/>
  <rect x="446.51" y="274.2" width="13.39" height="13.39" fill="#231f20"/>
  <rect x="404.07" y="188.63" width="13.39" height="13.39" fill="#231f20"/>
  <rect x="404.07" y="231.42" width="13.39" height="13.39" fill="#231f20"/>
  <rect x="360.05" y="274.2" width="13.39" height="13.39" fill="#231f20"/>
  <rect x="320.72" y="274.2" width="13.39" height="13.39" fill="#231f20"/>
  <rect x="360.91" y="188.63" width="13.39" height="13.39" fill="#231f20"/>
  <rect x="360.91" y="231.42" width="13.39" height="13.39" fill="#231f20"/>
  <rect x="532.21" y="231.42" width="13.39" height="13.39" fill="#231f20"/>
  <rect x="447.38" y="188.63" width="13.39" height="13.39" fill="#231f20"/>
  <rect x="491.76" y="103.06" width="13.39" height="13.39" fill="#231f20"/>
  <rect x="491.76" y="145.85" width="13.39" height="13.39" fill="#231f20"/>
  <rect x="447.38" y="103.06" width="13.39" height="13.39" fill="#231f20"/>
  <rect x="447.38" y="145.85" width="13.39" height="13.39" fill="#231f20"/>
  <rect x="534" y="103.06" width="13.39" height="13.39" fill="#231f20"/>
  <rect x="576.97" y="103.06" width="13.39" height="13.39" fill="#231f20"/>
  <rect x="619.2" y="103.06" width="13.39" height="13.39" fill="#231f20"/>
  <rect x="665.1" y="103.06" width="13.39" height="13.39" fill="#231f20"/>
  <rect x="491.76" y="60.28" width="13.39" height="13.39" fill="#231f20"/>
  <rect x="447.38" y="60.28" width="13.39" height="13.39" fill="#231f20"/>
  <rect x="404.07" y="60.28" width="13.39" height="13.39" fill="#231f20"/>
  <rect x="404.07" y="17.49" width="13.39" height="13.39" fill="#231f20"/>
  <rect x="360.76" y="17.49" width="13.39" height="13.39" fill="#231f20"/>
  <rect x="534" y="60.28" width="13.39" height="13.39" fill="#231f20"/>
  <rect x="578.54" y="17.49" width="13.39" height="13.39" fill="#231f20"/>
  <rect x="620.77" y="17.49" width="13.39" height="13.39" fill="#231f20"/>
</svg>