<?xml version="1.0" encoding="UTF-8"?>
<svg id="_13" data-name="13" xmlns="http://www.w3.org/2000/svg" viewBox="0 0 1080 1080">
  <rect x="519.48" y="951.25" width="40.84" height="40.84" fill="#231f20"/>
  <rect x="562.9" y="951.25" width="40.84" height="40.84" fill="#231f20"/>
  <rect x="605.76" y="908.05" width="40.84" height="40.84" fill="#231f20"/>
  <rect x="605.76" y="864.85" width="40.84" height="40.84" fill="#231f20"/>
  <rect x="648.86" y="908.05" width="40.84" height="40.84" fill="#231f20"/>
  <rect x="648.86" y="864.85" width="40.84" height="40.84" fill="#231f20"/>
  <rect x="822.76" y="864.85" width="40.84" height="40.84" fill="#231f20"/>
  <rect x="866.55" y="864.85" width="40.84" height="40.84" fill="#231f20"/>
  <rect x="865.04" y="691.8" width="40.84" height="40.84" fill="#231f20"/>
  <rect x="821.95" y="648.78" width="40.84" height="40.84" fill="#231f20"/>
  <rect x="779.14" y="864.85" width="40.84" height="40.84" fill="#231f20"/>
  <rect x="822.76" y="908.05" width="40.84" height="40.84" fill="#231f20"/>
  <rect x="866.55" y="908.05" width="40.84" height="40.84" fill="#231f20"/>
  <rect x="779.14" y="908.05" width="40.84" height="40.84" fill="#231f20"/>
  <rect x="822.76" y="951.25" width="40.84" height="40.84" fill="#231f20"/>
  <rect x="866.55" y="951.25" width="40.84" height="40.84" fill="#231f20"/>
  <rect x="910.35" y="864.85" width="40.84" height="40.84" fill="#231f20"/>
  <rect x="908.75" y="389.59" width="40.84" height="40.84" fill="#231f20"/>
  <rect x="910.35" y="908.05" width="40.84" height="40.84" fill="#231f20"/>
  <rect x="910.35" y="951.25" width="40.84" height="40.84" fill="#231f20"/>
  <rect x="779.14" y="951.25" width="40.84" height="40.84" fill="#231f20"/>
  <rect x="822.04" y="994.91" width="40.84" height="40.84" fill="#231f20"/>
  <rect x="778.42" y="994.91" width="40.84" height="40.84" fill="#231f20"/>
  <rect x="822.04" y="1038.11" width="40.84" height="40.84" fill="#231f20"/>
  <rect x="778.42" y="1038.11" width="40.84" height="40.84" fill="#231f20"/>
  <rect x="562.9" y="908.05" width="40.84" height="40.84" fill="#231f20"/>
  <rect x="562.9" y="864.85" width="40.84" height="40.84" fill="#231f20"/>
  <rect x="778.65" y="691.8" width="40.84" height="40.84" fill="#231f20"/>
  <rect x="778.65" y="648.78" width="40.84" height="40.84" fill="#231f20"/>
  <rect x="692.32" y="605.65" width="40.84" height="40.84" fill="#231f20"/>
  <rect x="519.48" y="605.83" width="40.84" height="40.84" fill="#231f20"/>
  <rect x="476.3" y="605.83" width="40.84" height="40.84" fill="#231f20"/>
  <rect x="433.33" y="605.69" width="40.84" height="40.84" fill="#231f20"/>
  <rect x="390.12" y="605.87" width="40.84" height="40.84" fill="#231f20"/>
  <rect x="346.59" y="605.83" width="40.84" height="40.84" fill="#231f20"/>
  <rect x="390.12" y="648.63" width="40.84" height="40.84" fill="#231f20"/>
  <rect x="346.59" y="648.59" width="40.84" height="40.84" fill="#231f20"/>
  <rect x="303.95" y="605.83" width="40.84" height="40.84" fill="#231f20"/>
  <rect x="303.95" y="648.59" width="40.84" height="40.84" fill="#231f20"/>
  <rect x="692.32" y="562.45" width="40.84" height="40.84" fill="#231f20"/>
  <rect x="692.32" y="519.25" width="40.84" height="40.84" fill="#231f20"/>
  <rect x="648.82" y="432.73" width="40.84" height="40.84" fill="#231f20"/>
  <rect x="562.46" y="173.65" width="40.84" height="40.84" fill="#231f20"/>
  <rect x="562.46" y="130.45" width="40.84" height="40.84" fill="#231f20"/>
  <rect x="562.46" y="87.25" width="40.84" height="40.84" fill="#231f20"/>
  <rect x="476.58" y=".51" width="40.84" height="40.84" fill="#231f20"/>
  <rect x="476.58" y="44.05" width="40.84" height="40.84" fill="#231f20"/>
  <rect x="346.52" y="44.05" width="40.84" height="40.84" fill="#231f20"/>
  <rect x="735.61" y="216.75" width="40.84" height="40.84" fill="#231f20"/>
  <rect x="735.61" y="173.3" width="40.84" height="40.84" fill="#231f20"/>
  <rect x="519.88" y="130.45" width="40.84" height="40.84" fill="#231f20"/>
  <rect x="778.63" y="130.45" width="40.84" height="40.84" fill="#231f20"/>
  <rect x="735.61" y="130.45" width="40.84" height="40.84" fill="#231f20"/>
  <rect x="735.87" y="44.53" width="40.84" height="40.84" fill="#231f20"/>
  <rect x="821.86" y="303.13" width="40.84" height="40.84" fill="#231f20"/>
  <rect x="865.3" y="303.13" width="40.84" height="40.84" fill="#231f20"/>
  <rect x="778.41" y="303.13" width="40.84" height="40.84" fill="#231f20"/>
  <rect x="908.75" y="303.13" width="40.84" height="40.84" fill="#231f20"/>
  <rect x="821.24" y="44.53" width="40.84" height="40.84" fill="#231f20"/>
  <rect x="865.43" y="44.53" width="40.84" height="40.84" fill="#231f20"/>
  <rect x="908.28" y="44.53" width="40.84" height="40.84" fill="#231f20"/>
  <rect x="865.43" y="87.25" width="40.84" height="40.84" fill="#231f20"/>
  <rect x="908.28" y="87.25" width="40.84" height="40.84" fill="#231f20"/>
  <rect x="865.43" y=".51" width="40.84" height="40.84" fill="#231f20"/>
  <rect x="908.28" y=".51" width="40.84" height="40.84" fill="#231f20"/>
  <rect x="692.59" y="303.13" width="40.84" height="40.84" fill="#231f20"/>
  <rect x="821.93" y="216.48" width="40.84" height="40.84" fill="#231f20"/>
  <rect x="821.93" y="173.65" width="40.84" height="40.84" fill="#231f20"/>
  <rect x="778.63" y="216.48" width="40.84" height="40.84" fill="#231f20"/>
  <rect x="778.41" y="346.33" width="40.84" height="40.84" fill="#231f20"/>
  <rect x="649.71" y="174.14" width="40.84" height="40.84" fill="#231f20"/>
  <rect x="649.71" y="87.25" width="40.84" height="40.84" fill="#231f20"/>
  <rect x="275.93" y="1052.02" width="13.39" height="13.39" fill="#231f20"/>
  <rect x="577.37" y="1010.37" width="13.39" height="13.39" fill="#231f20"/>
  <rect x="534.38" y="1010.37" width="13.39" height="13.39" fill="#231f20"/>
  <rect x="232.3" y="1052.02" width="13.39" height="13.39" fill="#231f20"/>
  <rect x="490.81" y="1010.37" width="13.39" height="13.39" fill="#231f20"/>
  <rect x="534.38" y="1052.02" width="13.39" height="13.39" fill="#231f20"/>
  <rect x="577.07" y="1052.02" width="13.39" height="13.39" fill="#231f20"/>
  <rect x="490.81" y="1052.02" width="13.39" height="13.39" fill="#231f20"/>
  <rect x="663.03" y="1010.37" width="13.39" height="13.39" fill="#231f20"/>
  <rect x="706.54" y="1010.37" width="13.39" height="13.39" fill="#231f20"/>
  <rect x="663.03" y="1052.02" width="13.39" height="13.39" fill="#231f20"/>
  <rect x="620.46" y="1052.02" width="13.39" height="13.39" fill="#231f20"/>
  <rect x="706.54" y="1052.02" width="13.39" height="13.39" fill="#231f20"/>
  <rect x="360.25" y="1052.02" width="13.39" height="13.39" fill="#231f20"/>
  <rect x="317.68" y="1052.02" width="13.39" height="13.39" fill="#231f20"/>
  <rect x="404.25" y="1052.02" width="13.39" height="13.39" fill="#231f20"/>
  <rect x="619.95" y="965.14" width="13.39" height="13.39" fill="#231f20"/>
  <rect x="663.03" y="965.14" width="13.39" height="13.39" fill="#231f20"/>
  <rect x="706.58" y="964.98" width="13.39" height="13.39" fill="#231f20"/>
  <rect x="749.76" y="1010.37" width="13.39" height="13.39" fill="#231f20"/>
  <rect x="749.76" y="1052.02" width="13.39" height="13.39" fill="#231f20"/>
  <rect x="882.78" y="1010.37" width="13.39" height="13.39" fill="#231f20"/>
  <rect x="145.93" y="1010.37" width="13.39" height="13.39" fill="#231f20"/>
  <rect x="145.93" y="1052.02" width="13.39" height="13.39" fill="#231f20"/>
  <rect x="882.78" y="1052.08" width="13.39" height="13.39" fill="#231f20"/>
  <rect x="925.98" y="1010.37" width="13.39" height="13.39" fill="#231f20"/>
  <rect x="925.98" y="1052.08" width="13.39" height="13.39" fill="#231f20"/>
  <rect x="749.76" y="964.98" width="13.39" height="13.39" fill="#231f20"/>
  <rect x="620.59" y="791.95" width="13.39" height="13.39" fill="#231f20"/>
  <rect x="663.58" y="791.95" width="13.39" height="13.39" fill="#231f20"/>
  <rect x="706.58" y="791.95" width="13.39" height="13.39" fill="#231f20"/>
  <rect x="577.23" y="835.58" width="13.39" height="13.39" fill="#231f20"/>
  <rect x="620.59" y="835.58" width="13.39" height="13.39" fill="#231f20"/>
  <rect x="663.58" y="835.58" width="13.39" height="13.39" fill="#231f20"/>
  <rect x="706.58" y="835.58" width="13.39" height="13.39" fill="#231f20"/>
  <rect x="749.76" y="835.58" width="13.39" height="13.39" fill="#231f20"/>
  <rect x="792.87" y="835.58" width="13.39" height="13.39" fill="#231f20"/>
  <rect x="275.93" y="835.58" width="13.39" height="13.39" fill="#231f20"/>
  <rect x="317.68" y="835.58" width="13.39" height="13.39" fill="#231f20"/>
  <rect x="360.25" y="835.58" width="13.39" height="13.39" fill="#231f20"/>
  <rect x="404.25" y="835.58" width="13.39" height="13.39" fill="#231f20"/>
  <rect x="447.06" y="835.44" width="13.39" height="13.39" fill="#231f20"/>
  <rect x="490.99" y="835.58" width="13.39" height="13.39" fill="#231f20"/>
  <rect x="880.28" y="835.58" width="13.39" height="13.39" fill="#231f20"/>
  <rect x="880.28" y="750.41" width="13.39" height="13.39" fill="#231f20"/>
  <rect x="922.84" y="835.58" width="13.39" height="13.39" fill="#231f20"/>
  <rect x="922.84" y="791.95" width="13.39" height="13.39" fill="#231f20"/>
  <rect x="880.28" y="791.95" width="13.39" height="13.39" fill="#231f20"/>
  <rect x="836.48" y="835.58" width="13.39" height="13.39" fill="#231f20"/>
  <rect x="836.48" y="791.95" width="13.39" height="13.39" fill="#231f20"/>
  <rect x="922.84" y="750.41" width="13.39" height="13.39" fill="#231f20"/>
  <rect x="749.76" y="750.41" width="13.39" height="13.39" fill="#231f20"/>
  <rect x="794.03" y="750.41" width="13.39" height="13.39" fill="#231f20"/>
  <rect x="663.58" y="750.41" width="13.39" height="13.39" fill="#231f20"/>
  <rect x="706.58" y="750.41" width="13.39" height="13.39" fill="#231f20"/>
  <rect x="577.23" y="750.41" width="13.39" height="13.39" fill="#231f20"/>
  <rect x="620.59" y="750.41" width="13.39" height="13.39" fill="#231f20"/>
  <rect x="490.8" y="750.41" width="13.39" height="13.39" fill="#231f20"/>
  <rect x="534.38" y="750.41" width="13.39" height="13.39" fill="#231f20"/>
  <rect x="836.48" y="750.41" width="13.39" height="13.39" fill="#231f20"/>
  <rect x="836.48" y="706.24" width="13.39" height="13.39" fill="#231f20"/>
  <rect x="922.84" y="706.7" width="13.39" height="13.39" fill="#231f20"/>
  <rect x="749.76" y="791.95" width="13.39" height="13.39" fill="#231f20"/>
  <rect x="792.87" y="791.95" width="13.39" height="13.39" fill="#231f20"/>
  <rect x="404.25" y="791.95" width="13.39" height="13.39" fill="#231f20"/>
  <rect x="447.06" y="791.82" width="13.39" height="13.39" fill="#231f20"/>
  <rect x="447.06" y="750.27" width="13.39" height="13.39" fill="#231f20"/>
  <rect x="490.8" y="791.95" width="13.39" height="13.39" fill="#231f20"/>
  <rect x="447.06" y="923.09" width="13.39" height="13.39" fill="#231f20"/>
  <rect x="490.99" y="923.06" width="13.39" height="13.39" fill="#231f20"/>
  <rect x="490.99" y="965.3" width="13.39" height="13.39" fill="#231f20"/>
  <rect x="275.93" y="1010.37" width="13.39" height="13.39" fill="#231f20"/>
  <rect x="232.3" y="1010.37" width="13.39" height="13.39" fill="#231f20"/>
  <rect x="275.93" y="965.3" width="13.39" height="13.39" fill="#231f20"/>
  <rect x="275.93" y="922.98" width="13.39" height="13.39" fill="#231f20"/>
  <rect x="232.51" y="922.98" width="13.39" height="13.39" fill="#231f20"/>
  <rect x="275.93" y="879.09" width="13.39" height="13.39" fill="#231f20"/>
  <rect x="188.66" y="835.58" width="13.39" height="13.39" fill="#231f20"/>
  <rect x="189.16" y="922.98" width="13.39" height="13.39" fill="#231f20"/>
  <rect x="189.16" y="879.09" width="13.39" height="13.39" fill="#231f20"/>
  <rect x="317.68" y="965.3" width="13.39" height="13.39" fill="#231f20"/>
  <rect x="188.91" y="965.3" width="13.39" height="13.39" fill="#231f20"/>
  <rect x="231.88" y="965.3" width="13.39" height="13.39" fill="#231f20"/>
  <rect x="317.68" y="923.19" width="13.39" height="13.39" fill="#231f20"/>
  <rect x="360.25" y="923.19" width="13.39" height="13.39" fill="#231f20"/>
  <rect x="317.68" y="879.09" width="13.39" height="13.39" fill="#231f20"/>
  <rect x="447.06" y="1010.23" width="13.39" height="13.39" fill="#231f20"/>
  <rect x="404.25" y="1010.37" width="13.39" height="13.39" fill="#231f20"/>
  <rect x="360.25" y="1010.37" width="13.39" height="13.39" fill="#231f20"/>
  <rect x="447.06" y="965.17" width="13.39" height="13.39" fill="#231f20"/>
  <rect x="404.25" y="965.3" width="13.39" height="13.39" fill="#231f20"/>
  <rect x="360.25" y="965.3" width="13.39" height="13.39" fill="#231f20"/>
  <rect x="447.06" y="878.96" width="13.39" height="13.39" fill="#231f20"/>
  <rect x="490.8" y="879.09" width="13.39" height="13.39" fill="#231f20"/>
  <rect x="534.48" y="923.06" width="13.39" height="13.39" fill="#231f20"/>
  <rect x="534.28" y="879.09" width="13.39" height="13.39" fill="#231f20"/>
  <rect x="534.38" y="791.95" width="13.39" height="13.39" fill="#231f20"/>
  <rect x="577.23" y="791.95" width="13.39" height="13.39" fill="#231f20"/>
  <rect x="317.68" y="791.95" width="13.39" height="13.39" fill="#231f20"/>
  <rect x="102.76" y="791.95" width="13.39" height="13.39" fill="#231f20"/>
  <rect x="144.97" y="791.95" width="13.39" height="13.39" fill="#231f20"/>
  <rect x="188.85" y="791.95" width="13.39" height="13.39" fill="#231f20"/>
  <rect x="232.43" y="791.95" width="13.39" height="13.39" fill="#231f20"/>
  <rect x="275.93" y="791.95" width="13.39" height="13.39" fill="#231f20"/>
  <rect x="317.68" y="750.41" width="13.39" height="13.39" fill="#231f20"/>
  <rect x="360.25" y="750.41" width="13.39" height="13.39" fill="#231f20"/>
  <rect x="275.93" y="750.41" width="13.39" height="13.39" fill="#231f20"/>
  <rect x="275.93" y="706.66" width="13.39" height="13.39" fill="#231f20"/>
  <rect x="275.93" y="662.18" width="13.39" height="13.39" fill="#231f20"/>
  <rect x="275.93" y="618.48" width="13.39" height="13.39" fill="#231f20"/>
  <rect x="706.58" y="923.29" width="13.39" height="13.39" fill="#231f20"/>
  <rect x="706.58" y="878.07" width="13.39" height="13.39" fill="#231f20"/>
  <rect x="749.76" y="923.29" width="13.39" height="13.39" fill="#231f20"/>
  <rect x="749.76" y="878.07" width="13.39" height="13.39" fill="#231f20"/>
  <rect x="749.76" y="619" width="13.39" height="13.39" fill="#231f20"/>
  <rect x="749.76" y="533.81" width="13.39" height="13.39" fill="#231f20"/>
  <rect x="749.76" y="575.5" width="13.39" height="13.39" fill="#231f20"/>
  <rect x="663.58" y="619" width="13.39" height="13.39" fill="#231f20"/>
  <rect x="663.58" y="533.81" width="13.39" height="13.39" fill="#231f20"/>
  <rect x="620.83" y="533.81" width="13.39" height="13.39" fill="#231f20"/>
  <rect x="663.58" y="575.5" width="13.39" height="13.39" fill="#231f20"/>
  <rect x="794.03" y="619" width="13.39" height="13.39" fill="#231f20"/>
  <rect x="794.03" y="533.81" width="13.39" height="13.39" fill="#231f20"/>
  <rect x="794.03" y="575.5" width="13.39" height="13.39" fill="#231f20"/>
  <rect x="836.48" y="619" width="13.39" height="13.39" fill="#231f20"/>
  <rect x="620.59" y="662.51" width="13.39" height="13.39" fill="#231f20"/>
  <rect x="663.58" y="662.51" width="13.39" height="13.39" fill="#231f20"/>
  <rect x="706.58" y="662.51" width="13.39" height="13.39" fill="#231f20"/>
  <rect x="663.58" y="706.66" width="13.39" height="13.39" fill="#231f20"/>
  <rect x="706.58" y="706.66" width="13.39" height="13.39" fill="#231f20"/>
  <rect x="836.48" y="533.81" width="13.39" height="13.39" fill="#231f20"/>
  <rect x="836.48" y="575.5" width="13.39" height="13.39" fill="#231f20"/>
  <rect x="880.28" y="619" width="13.39" height="13.39" fill="#231f20"/>
  <rect x="880.28" y="533.81" width="13.39" height="13.39" fill="#231f20"/>
  <rect x="793.2" y="488.6" width="13.39" height="13.39" fill="#231f20"/>
  <rect x="794.03" y="447.35" width="13.39" height="13.39" fill="#231f20"/>
  <rect x="835.65" y="488.6" width="13.39" height="13.39" fill="#231f20"/>
  <rect x="879.45" y="488.6" width="13.39" height="13.39" fill="#231f20"/>
  <rect x="836.48" y="447.35" width="13.39" height="13.39" fill="#231f20"/>
  <rect x="880.28" y="447.35" width="13.39" height="13.39" fill="#231f20"/>
  <rect x="922.01" y="488.6" width="13.39" height="13.39" fill="#231f20"/>
  <rect x="922.84" y="447.35" width="13.39" height="13.39" fill="#231f20"/>
  <rect x="794.03" y="404.29" width="13.39" height="13.39" fill="#231f20"/>
  <rect x="708.18" y="274.66" width="13.39" height="13.39" fill="#231f20"/>
  <rect x="663.44" y="274.66" width="13.39" height="13.39" fill="#231f20"/>
  <rect x="707.79" y="231.74" width="13.39" height="13.39" fill="#231f20"/>
  <rect x="707.79" y="188.51" width="13.39" height="13.39" fill="#231f20"/>
  <rect x="577.9" y="274.66" width="13.39" height="13.39" fill="#231f20"/>
  <rect x="534.38" y="274.66" width="13.39" height="13.39" fill="#231f20"/>
  <rect x="534.38" y="231.74" width="13.39" height="13.39" fill="#231f20"/>
  <rect x="577.9" y="231.74" width="13.39" height="13.39" fill="#231f20"/>
  <rect x="620.83" y="231.74" width="13.39" height="13.39" fill="#231f20"/>
  <rect x="620.83" y="274.66" width="13.39" height="13.39" fill="#231f20"/>
  <rect x="663.44" y="317.66" width="13.39" height="13.39" fill="#231f20"/>
  <rect x="620.83" y="317.66" width="13.39" height="13.39" fill="#231f20"/>
  <rect x="620.83" y="187.38" width="13.39" height="13.39" fill="#231f20"/>
  <rect x="664.8" y="231.74" width="13.39" height="13.39" fill="#231f20"/>
  <rect x="577.9" y="14.23" width="13.39" height="13.39" fill="#231f20"/>
  <rect x="620.83" y="14.23" width="13.39" height="13.39" fill="#231f20"/>
  <rect x="534.38" y="188.51" width="13.39" height="13.39" fill="#231f20"/>
  <rect x="534.38" y="57.46" width="13.39" height="13.39" fill="#231f20"/>
  <rect x="534.38" y="14.23" width="13.39" height="13.39" fill="#231f20"/>
  <rect x="836.48" y="404.29" width="13.39" height="13.39" fill="#231f20"/>
  <rect x="880.28" y="404.29" width="13.39" height="13.39" fill="#231f20"/>
  <rect x="836.48" y="360.89" width="13.39" height="13.39" fill="#231f20"/>
  <rect x="880.28" y="360.89" width="13.39" height="13.39" fill="#231f20"/>
  <rect x="922.84" y="360.89" width="13.39" height="13.39" fill="#231f20"/>
  <rect x="662.75" y="488.6" width="13.39" height="13.39" fill="#231f20"/>
  <rect x="707.35" y="488.6" width="13.39" height="13.39" fill="#231f20"/>
  <rect x="708.18" y="447.87" width="13.39" height="13.39" fill="#231f20"/>
  <rect x="578.55" y="488.6" width="13.39" height="13.39" fill="#231f20"/>
  <rect x="619.76" y="488.6" width="13.39" height="13.39" fill="#231f20"/>
  <rect x="620.59" y="447.87" width="13.39" height="13.39" fill="#231f20"/>
  <rect x="577.9" y="447.87" width="13.39" height="13.39" fill="#231f20"/>
  <rect x="535.87" y="447.87" width="13.39" height="13.39" fill="#231f20"/>
  <rect x="663.44" y="404.29" width="13.39" height="13.39" fill="#231f20"/>
  <rect x="620.59" y="404.29" width="13.39" height="13.39" fill="#231f20"/>
  <rect x="663.44" y="360.89" width="13.39" height="13.39" fill="#231f20"/>
  <rect x="708.18" y="360.89" width="13.39" height="13.39" fill="#231f20"/>
  <rect x="749.76" y="360.89" width="13.39" height="13.39" fill="#231f20"/>
  <rect x="708.18" y="404.29" width="13.39" height="13.39" fill="#231f20"/>
  <rect x="749.76" y="404.29" width="13.39" height="13.39" fill="#231f20"/>
  <rect x="620.59" y="360.89" width="13.39" height="13.39" fill="#231f20"/>
  <rect x="577.9" y="360.89" width="13.39" height="13.39" fill="#231f20"/>
  <rect x="748.9" y="488.6" width="13.39" height="13.39" fill="#231f20"/>
  <rect x="490.04" y="488.6" width="13.39" height="13.39" fill="#231f20"/>
  <rect x="490.87" y="533.04" width="13.39" height="13.39" fill="#231f20"/>
  <rect x="535.97" y="488.6" width="13.39" height="13.39" fill="#231f20"/>
  <rect x="536.8" y="533.04" width="13.39" height="13.39" fill="#231f20"/>
  <rect x="490.87" y="447.87" width="13.39" height="13.39" fill="#231f20"/>
  <rect x="447.06" y="488.47" width="13.39" height="13.39" fill="#231f20"/>
  <rect x="447.06" y="532.91" width="13.39" height="13.39" fill="#231f20"/>
  <rect x="447.06" y="447.73" width="13.39" height="13.39" fill="#231f20"/>
  <rect x="404.25" y="488.6" width="13.39" height="13.39" fill="#231f20"/>
  <rect x="404.25" y="533.81" width="13.39" height="13.39" fill="#231f20"/>
  <rect x="360.25" y="533.81" width="13.39" height="13.39" fill="#231f20"/>
  <rect x="577.72" y="576.29" width="13.39" height="13.39" fill="#231f20"/>
  <rect x="536.31" y="576.29" width="13.39" height="13.39" fill="#231f20"/>
  <rect x="490.87" y="576.29" width="13.39" height="13.39" fill="#231f20"/>
  <rect x="447.06" y="576.15" width="13.39" height="13.39" fill="#231f20"/>
  <rect x="404.25" y="576.29" width="13.39" height="13.39" fill="#231f20"/>
  <rect x="360.25" y="576.29" width="13.39" height="13.39" fill="#231f20"/>
  <rect x="404.25" y="447.87" width="13.39" height="13.39" fill="#231f20"/>
  <rect x="577.9" y="404.29" width="13.39" height="13.39" fill="#231f20"/>
  <rect x="535.87" y="404.29" width="13.39" height="13.39" fill="#231f20"/>
  <rect x="490.87" y="404.29" width="13.39" height="13.39" fill="#231f20"/>
  <rect x="447.06" y="404.16" width="13.39" height="13.39" fill="#231f20"/>
  <rect x="404.25" y="404.29" width="13.39" height="13.39" fill="#231f20"/>
  <rect x="490.87" y="360.89" width="13.39" height="13.39" fill="#231f20"/>
  <rect x="447.06" y="360.76" width="13.39" height="13.39" fill="#231f20"/>
  <rect x="404.25" y="360.89" width="13.39" height="13.39" fill="#231f20"/>
  <rect x="490.87" y="317.66" width="13.39" height="13.39" fill="#231f20"/>
  <rect x="447.06" y="317.52" width="13.39" height="13.39" fill="#231f20"/>
  <rect x="404.25" y="317.66" width="13.39" height="13.39" fill="#231f20"/>
  <rect x="490.87" y="274.66" width="13.39" height="13.39" fill="#231f20"/>
  <rect x="837.59" y="274.66" width="13.39" height="13.39" fill="#231f20"/>
  <rect x="794.06" y="274.66" width="13.39" height="13.39" fill="#231f20"/>
  <rect x="923.34" y="274.66" width="13.39" height="13.39" fill="#231f20"/>
  <rect x="879.82" y="274.66" width="13.39" height="13.39" fill="#231f20"/>
  <rect x="923.34" y="231.74" width="13.39" height="13.39" fill="#231f20"/>
  <rect x="879.82" y="231.74" width="13.39" height="13.39" fill="#231f20"/>
  <rect x="923.34" y="187.87" width="13.39" height="13.39" fill="#231f20"/>
  <rect x="879.82" y="187.87" width="13.39" height="13.39" fill="#231f20"/>
  <rect x="923.34" y="145.07" width="13.39" height="13.39" fill="#231f20"/>
  <rect x="879.82" y="145.07" width="13.39" height="13.39" fill="#231f20"/>
  <rect x="836.19" y="145.07" width="13.39" height="13.39" fill="#231f20"/>
  <rect x="707.79" y="145.07" width="13.39" height="13.39" fill="#231f20"/>
  <rect x="707.79" y="101.11" width="13.39" height="13.39" fill="#231f20"/>
  <rect x="707.79" y="57.88" width="13.39" height="13.39" fill="#231f20"/>
  <rect x="707.79" y="14.44" width="13.39" height="13.39" fill="#231f20"/>
  <rect x="750.93" y="14.44" width="13.39" height="13.39" fill="#231f20"/>
  <rect x="794.06" y="57.88" width="13.39" height="13.39" fill="#231f20"/>
  <rect x="794.06" y="14.44" width="13.39" height="13.39" fill="#231f20"/>
  <rect x="836.48" y="14.44" width="13.39" height="13.39" fill="#231f20"/>
  <rect x="663.49" y="145.07" width="13.39" height="13.39" fill="#231f20"/>
  <rect x="620.83" y="145.07" width="13.39" height="13.39" fill="#231f20"/>
  <rect x="620.83" y="99.35" width="13.39" height="13.39" fill="#231f20"/>
  <rect x="620.83" y="57.04" width="13.39" height="13.39" fill="#231f20"/>
  <rect x="577.9" y="57.04" width="13.39" height="13.39" fill="#231f20"/>
  <rect x="663.44" y="14.23" width="13.39" height="13.39" fill="#231f20"/>
  <rect x="663.44" y="57.04" width="13.39" height="13.39" fill="#231f20"/>
  <rect x="792.35" y="187.87" width="13.39" height="13.39" fill="#231f20"/>
  <rect x="750.47" y="274.66" width="13.39" height="13.39" fill="#231f20"/>
  <rect x="794.06" y="101.48" width="13.39" height="13.39" fill="#231f20"/>
  <rect x="836.19" y="101.48" width="13.39" height="13.39" fill="#231f20"/>
  <rect x="750.47" y="101.48" width="13.39" height="13.39" fill="#231f20"/>
  <rect x="750.47" y="319.04" width="13.39" height="13.39" fill="#231f20"/>
  <rect x="447.06" y="274.53" width="13.39" height="13.39" fill="#231f20"/>
  <rect x="404.25" y="274.66" width="13.39" height="13.39" fill="#231f20"/>
  <rect x="490.87" y="232.12" width="13.39" height="13.39" fill="#231f20"/>
  <rect x="447.06" y="231.99" width="13.39" height="13.39" fill="#231f20"/>
  <rect x="404.25" y="232.12" width="13.39" height="13.39" fill="#231f20"/>
  <rect x="360.25" y="488.6" width="13.39" height="13.39" fill="#231f20"/>
  <rect x="360.25" y="447.87" width="13.39" height="13.39" fill="#231f20"/>
  <rect x="360.25" y="404.29" width="13.39" height="13.39" fill="#231f20"/>
  <rect x="360.25" y="360.89" width="13.39" height="13.39" fill="#231f20"/>
  <rect x="360.25" y="317.66" width="13.39" height="13.39" fill="#231f20"/>
  <rect x="360.25" y="274.66" width="13.39" height="13.39" fill="#231f20"/>
  <rect x="360.25" y="232.12" width="13.39" height="13.39" fill="#231f20"/>
  <rect x="317.68" y="533.81" width="13.39" height="13.39" fill="#231f20"/>
  <rect x="317.68" y="576.29" width="13.39" height="13.39" fill="#231f20"/>
  <rect x="275.93" y="576.29" width="13.39" height="13.39" fill="#231f20"/>
  <rect x="317.68" y="488.6" width="13.39" height="13.39" fill="#231f20"/>
  <rect x="317.68" y="447.87" width="13.39" height="13.39" fill="#231f20"/>
  <rect x="275.93" y="533.81" width="13.39" height="13.39" fill="#231f20"/>
  <rect x="275.93" y="488.6" width="13.39" height="13.39" fill="#231f20"/>
  <rect x="275.93" y="447.87" width="13.39" height="13.39" fill="#231f20"/>
  <rect x="317.68" y="404.29" width="13.39" height="13.39" fill="#231f20"/>
  <rect x="317.68" y="360.89" width="13.39" height="13.39" fill="#231f20"/>
  <rect x="317.68" y="317.66" width="13.39" height="13.39" fill="#231f20"/>
  <rect x="317.68" y="274.66" width="13.39" height="13.39" fill="#231f20"/>
  <rect x="317.68" y="232.12" width="13.39" height="13.39" fill="#231f20"/>
  <rect x="490.87" y="189.35" width="13.39" height="13.39" fill="#231f20"/>
  <rect x="447.06" y="189.22" width="13.39" height="13.39" fill="#231f20"/>
  <rect x="404.25" y="189.35" width="13.39" height="13.39" fill="#231f20"/>
  <rect x="317.68" y="101.48" width="13.39" height="13.39" fill="#231f20"/>
  <rect x="317.68" y="58.25" width="13.39" height="13.39" fill="#231f20"/>
  <rect x="317.68" y="15.02" width="13.39" height="13.39" fill="#231f20"/>
  <rect x="404.25" y="101.48" width="13.39" height="13.39" fill="#231f20"/>
  <rect x="360.25" y="101.48" width="13.39" height="13.39" fill="#231f20"/>
  <rect x="404.25" y="146.59" width="13.39" height="13.39" fill="#231f20"/>
  <rect x="490.87" y="146.59" width="13.39" height="13.39" fill="#231f20"/>
  <rect x="490.87" y="101.48" width="13.39" height="13.39" fill="#231f20"/>
  <rect x="534.38" y="101.48" width="13.39" height="13.39" fill="#231f20"/>
  <rect x="447.06" y="146.45" width="13.39" height="13.39" fill="#231f20"/>
  <rect x="360.25" y="189.35" width="13.39" height="13.39" fill="#231f20"/>
  <rect x="317.68" y="189.35" width="13.39" height="13.39" fill="#231f20"/>
  <rect x="317.68" y="146.59" width="13.39" height="13.39" fill="#231f20"/>
  <rect x="275.93" y="404.29" width="13.39" height="13.39" fill="#231f20"/>
  <rect x="275.93" y="360.89" width="13.39" height="13.39" fill="#231f20"/>
  <rect x="275.93" y="317.66" width="13.39" height="13.39" fill="#231f20"/>
  <rect x="275.93" y="274.66" width="13.39" height="13.39" fill="#231f20"/>
  <rect x="275.93" y="232.12" width="13.39" height="13.39" fill="#231f20"/>
  <rect x="275.93" y="101.48" width="13.39" height="13.39" fill="#231f20"/>
  <rect x="275.93" y="58.25" width="13.39" height="13.39" fill="#231f20"/>
  <rect x="275.93" y="15.02" width="13.39" height="13.39" fill="#231f20"/>
  <rect x="275.93" y="189.35" width="13.39" height="13.39" fill="#231f20"/>
  <rect x="275.93" y="146.59" width="13.39" height="13.39" fill="#231f20"/>
  <rect x="360.25" y="146.59" width="13.39" height="13.39" fill="#231f20"/>
  <rect x="404.25" y="58.25" width="13.39" height="13.39" fill="#231f20"/>
  <rect x="404.25" y="15.02" width="13.39" height="13.39" fill="#231f20"/>
  <rect x="447.06" y="58.12" width="13.39" height="13.39" fill="#231f20"/>
  <rect x="447.06" y="14.89" width="13.39" height="13.39" fill="#231f20"/>
  <rect x="360.25" y="15.02" width="13.39" height="13.39" fill="#231f20"/>
  <rect x="880.28" y="575.5" width="13.39" height="13.39" fill="#231f20"/>
  <rect x="922.84" y="619" width="13.39" height="13.39" fill="#231f20"/>
  <rect x="880.28" y="662.85" width="13.39" height="13.39" fill="#231f20"/>
  <rect x="922.84" y="662.85" width="13.39" height="13.39" fill="#231f20"/>
  <rect x="922.84" y="533.81" width="13.39" height="13.39" fill="#231f20"/>
  <rect x="922.84" y="575.5" width="13.39" height="13.39" fill="#231f20"/>
  <rect x="749.76" y="706.66" width="13.39" height="13.39" fill="#231f20"/>
  <rect x="534.38" y="706.66" width="13.39" height="13.39" fill="#231f20"/>
  <rect x="577.23" y="706.66" width="13.39" height="13.39" fill="#231f20"/>
  <rect x="620.59" y="706.66" width="13.39" height="13.39" fill="#231f20"/>
  <rect x="317.68" y="706.66" width="13.39" height="13.39" fill="#231f20"/>
  <rect x="360.25" y="706.66" width="13.39" height="13.39" fill="#231f20"/>
  <rect x="404.25" y="706.66" width="13.39" height="13.39" fill="#231f20"/>
  <rect x="749.76" y="662.51" width="13.39" height="13.39" fill="#231f20"/>
  <rect x="447.06" y="662.37" width="13.39" height="13.39" fill="#231f20"/>
  <rect x="490.8" y="662.51" width="13.39" height="13.39" fill="#231f20"/>
  <rect x="490.8" y="706.66" width="13.39" height="13.39" fill="#231f20"/>
  <rect x="534.38" y="662.51" width="13.39" height="13.39" fill="#231f20"/>
  <rect x="577.23" y="662.51" width="13.39" height="13.39" fill="#231f20"/>
</svg>