<?xml version="1.0" encoding="UTF-8"?>
<svg id="_14" data-name="14" xmlns="http://www.w3.org/2000/svg" viewBox="0 0 1080 1080">
  <rect x="216.55" y="260.99" width="40.84" height="40.84" fill="#231f20"/>
  <rect x="216.55" y="304.63" width="40.84" height="40.84" fill="#231f20"/>
  <rect x="216.55" y="174.69" width="40.84" height="40.84" fill="#231f20"/>
  <rect x="216.55" y="217.59" width="40.84" height="40.84" fill="#231f20"/>
  <rect x="173.35" y="260.99" width="40.84" height="40.84" fill="#231f20"/>
  <rect x="173.35" y="304.63" width="40.84" height="40.84" fill="#231f20"/>
  <rect x="173.35" y="174.69" width="40.84" height="40.84" fill="#231f20"/>
  <rect x="173.35" y="217.59" width="40.84" height="40.84" fill="#231f20"/>
  <rect x="130.68" y="260.99" width="40.84" height="40.84" fill="#231f20"/>
  <rect x="130.68" y="304.63" width="40.84" height="40.84" fill="#231f20"/>
  <rect x="216.99" y="347.64" width="40.84" height="40.84" fill="#231f20"/>
  <rect x="173.79" y="347.64" width="40.84" height="40.84" fill="#231f20"/>
  <rect x="476.28" y="433.98" width="40.84" height="40.84" fill="#231f20"/>
  <rect x="476.28" y="390.34" width="40.84" height="40.84" fill="#231f20"/>
  <rect x="433.08" y="433.98" width="40.84" height="40.84" fill="#231f20"/>
  <rect x="389.91" y="433.98" width="40.84" height="40.84" fill="#231f20"/>
  <rect x="131.11" y="347.64" width="40.84" height="40.84" fill="#231f20"/>
  <rect x="130.68" y="174.69" width="40.84" height="40.84" fill="#231f20"/>
  <rect x="130.68" y="217.59" width="40.84" height="40.84" fill="#231f20"/>
  <rect x="130.68" y="433.98" width="40.84" height="40.84" fill="#231f20"/>
  <rect x="130.68" y="477.62" width="40.84" height="40.84" fill="#231f20"/>
  <rect x="173.81" y="606.74" width="40.84" height="40.84" fill="#231f20"/>
  <rect x="216.94" y="650.38" width="40.84" height="40.84" fill="#231f20"/>
  <rect x="130.68" y="520.32" width="40.84" height="40.84" fill="#231f20"/>
  <rect x="130.68" y="390.34" width="40.84" height="40.84" fill="#231f20"/>
  <rect x="173.88" y="390.34" width="40.84" height="40.84" fill="#231f20"/>
  <rect x="87.48" y="433.98" width="40.84" height="40.84" fill="#231f20"/>
  <rect x="87.48" y="477.62" width="40.84" height="40.84" fill="#231f20"/>
  <rect x="87.48" y="390.34" width="40.84" height="40.84" fill="#231f20"/>
  <rect x="44.28" y="433.98" width="40.84" height="40.84" fill="#231f20"/>
  <rect x="44.28" y="477.62" width="40.84" height="40.84" fill="#231f20"/>
  <rect x="44.28" y="390.34" width="40.84" height="40.84" fill="#231f20"/>
  <rect x="1.08" y="433.98" width="40.84" height="40.84" fill="#231f20"/>
  <rect x="1.08" y="477.62" width="40.84" height="40.84" fill="#231f20"/>
  <rect x="87.48" y="520.32" width="40.84" height="40.84" fill="#231f20"/>
  <rect x="44.28" y="520.32" width="40.84" height="40.84" fill="#231f20"/>
  <rect x="1.08" y="520.32" width="40.84" height="40.84" fill="#231f20"/>
  <rect x="1.08" y="562.85" width="40.84" height="40.84" fill="#231f20"/>
  <rect x="1.08" y="606.74" width="40.84" height="40.84" fill="#231f20"/>
  <rect x="1.08" y="649.58" width="40.84" height="40.84" fill="#231f20"/>
  <rect x="43.92" y="736.34" width="40.84" height="40.84" fill="#231f20"/>
  <rect x="44.28" y="779.42" width="40.84" height="40.84" fill="#231f20"/>
  <rect x="44.28" y="823.1" width="40.84" height="40.84" fill="#231f20"/>
  <rect x="44.28" y="866.14" width="40.84" height="40.84" fill="#231f20"/>
  <rect x="44.38" y="909.24" width="40.84" height="40.84" fill="#231f20"/>
  <rect x=".72" y="736.34" width="40.84" height="40.84" fill="#231f20"/>
  <rect x="1.08" y="779.42" width="40.84" height="40.84" fill="#231f20"/>
  <rect x="1.08" y="823.1" width="40.84" height="40.84" fill="#231f20"/>
  <rect x="1.08" y="866.14" width="40.84" height="40.84" fill="#231f20"/>
  <rect x="1.18" y="909.24" width="40.84" height="40.84" fill="#231f20"/>
  <rect x="87.58" y="909.24" width="40.84" height="40.84" fill="#231f20"/>
  <rect x="303.47" y="995.67" width="40.84" height="40.84" fill="#231f20"/>
  <rect x="303.47" y="1038.81" width="40.84" height="40.84" fill="#231f20"/>
  <rect x="260.27" y="995.67" width="40.84" height="40.84" fill="#231f20"/>
  <rect x="217.08" y="995.67" width="40.84" height="40.84" fill="#231f20"/>
  <rect x="303.47" y="952.37" width="40.84" height="40.84" fill="#231f20"/>
  <rect x="260.27" y="952.37" width="40.84" height="40.84" fill="#231f20"/>
  <rect x="303.58" y="909.24" width="40.84" height="40.84" fill="#231f20"/>
  <rect x="346.66" y="952.37" width="40.84" height="40.84" fill="#231f20"/>
  <rect x="346.77" y="909.24" width="40.84" height="40.84" fill="#231f20"/>
  <rect x="260.38" y="909.24" width="40.84" height="40.84" fill="#231f20"/>
  <rect x="260.27" y="1038.81" width="40.84" height="40.84" fill="#231f20"/>
  <rect x="260.27" y="823.1" width="40.84" height="40.84" fill="#231f20"/>
  <rect x="260.27" y="779.42" width="40.84" height="40.84" fill="#231f20"/>
  <rect x="260.27" y="736.34" width="40.84" height="40.84" fill="#231f20"/>
  <rect x="260.27" y="693.48" width="40.84" height="40.84" fill="#231f20"/>
  <rect x="260.28" y="650.38" width="40.84" height="40.84" fill="#231f20"/>
  <rect x="260.28" y="606.74" width="40.84" height="40.84" fill="#231f20"/>
  <rect x="260.27" y="564.03" width="40.84" height="40.84" fill="#231f20"/>
  <rect x="260.28" y="520.32" width="40.84" height="40.84" fill="#231f20"/>
  <rect x="260.27" y="477.62" width="40.84" height="40.84" fill="#231f20"/>
  <rect x="260.28" y="433.98" width="40.84" height="40.84" fill="#231f20"/>
  <rect x="303.63" y="736.34" width="40.84" height="40.84" fill="#231f20"/>
  <rect x="303.48" y="693.48" width="40.84" height="40.84" fill="#231f20"/>
  <rect x="346.69" y="693.48" width="40.84" height="40.84" fill="#231f20"/>
  <rect x="389.9" y="693.48" width="40.84" height="40.84" fill="#231f20"/>
  <rect x="303.48" y="650.38" width="40.84" height="40.84" fill="#231f20"/>
  <rect x="346.69" y="606.74" width="40.84" height="40.84" fill="#231f20"/>
  <rect x="260.27" y="866.14" width="40.84" height="40.84" fill="#231f20"/>
  <rect x="563.17" y="823.1" width="40.84" height="40.84" fill="#231f20"/>
  <rect x="563.17" y="779.42" width="40.84" height="40.84" fill="#231f20"/>
  <rect x="562.83" y="736.34" width="40.84" height="40.84" fill="#231f20"/>
  <rect x="563.17" y="693.48" width="40.84" height="40.84" fill="#231f20"/>
  <rect x="606.88" y="823.1" width="40.84" height="40.84" fill="#231f20"/>
  <rect x="606.88" y="779.42" width="40.84" height="40.84" fill="#231f20"/>
  <rect x="606.53" y="736.34" width="40.84" height="40.84" fill="#231f20"/>
  <rect x="606.88" y="693.48" width="40.84" height="40.84" fill="#231f20"/>
  <rect x="563.17" y="866.14" width="40.84" height="40.84" fill="#231f20"/>
  <rect x="519.48" y="823.1" width="40.84" height="40.84" fill="#231f20"/>
  <rect x="476.58" y="823.1" width="40.84" height="40.84" fill="#231f20"/>
  <rect x="432.88" y="823.1" width="40.84" height="40.84" fill="#231f20"/>
  <rect x="432.88" y="866.14" width="40.84" height="40.84" fill="#231f20"/>
  <rect x="519.48" y="779.42" width="40.84" height="40.84" fill="#231f20"/>
  <rect x="519.13" y="736.34" width="40.84" height="40.84" fill="#231f20"/>
  <rect x="519.48" y="693.48" width="40.84" height="40.84" fill="#231f20"/>
  <rect x="563.17" y="649.58" width="40.84" height="40.84" fill="#231f20"/>
  <rect x="606.88" y="649.58" width="40.84" height="40.84" fill="#231f20"/>
  <rect x="519.48" y="649.58" width="40.84" height="40.84" fill="#231f20"/>
  <rect x="519.48" y="866.14" width="40.84" height="40.84" fill="#231f20"/>
  <rect x="476.58" y="866.14" width="40.84" height="40.84" fill="#231f20"/>
  <rect x="346.67" y="1038.81" width="40.84" height="40.84" fill="#231f20"/>
  <rect x="87.48" y="779.42" width="40.84" height="40.84" fill="#231f20"/>
  <rect x="87.48" y="823.1" width="40.84" height="40.84" fill="#231f20"/>
  <rect x="130.68" y="823.1" width="40.84" height="40.84" fill="#231f20"/>
  <rect x="1.08" y="390.34" width="40.84" height="40.84" fill="#231f20"/>
  <rect x="1.08" y="304.63" width="40.84" height="40.84" fill="#231f20"/>
  <rect x="1.51" y="347.64" width="40.84" height="40.84" fill="#231f20"/>
  <rect x="44.71" y="347.64" width="40.84" height="40.84" fill="#231f20"/>
  <rect x="1.08" y="260.99" width="40.84" height="40.84" fill="#231f20"/>
  <rect x="1.08" y="174.69" width="40.84" height="40.84" fill="#231f20"/>
  <rect x="1.08" y="131.73" width="40.84" height="40.84" fill="#231f20"/>
  <rect x="1.08" y="45.67" width="40.84" height="40.84" fill="#231f20"/>
  <rect x="1.08" y="88.4" width="40.84" height="40.84" fill="#231f20"/>
  <rect x="1.08" y="2.39" width="40.84" height="40.84" fill="#231f20"/>
  <rect x="87.48" y="45.67" width="40.84" height="40.84" fill="#231f20"/>
  <rect x="87.48" y="88.4" width="40.84" height="40.84" fill="#231f20"/>
  <rect x="87.48" y="2.39" width="40.84" height="40.84" fill="#231f20"/>
  <rect x="130.68" y="45.67" width="40.84" height="40.84" fill="#231f20"/>
  <rect x="130.68" y="88.4" width="40.84" height="40.84" fill="#231f20"/>
  <rect x="130.68" y="2.39" width="40.84" height="40.84" fill="#231f20"/>
  <rect x="173.35" y="45.67" width="40.84" height="40.84" fill="#231f20"/>
  <rect x="173.35" y="88.4" width="40.84" height="40.84" fill="#231f20"/>
  <rect x="173.35" y="2.39" width="40.84" height="40.84" fill="#231f20"/>
  <rect x="216.55" y="45.67" width="40.84" height="40.84" fill="#231f20"/>
  <rect x="216.55" y="88.4" width="40.84" height="40.84" fill="#231f20"/>
  <rect x="260.28" y="88.4" width="40.84" height="40.84" fill="#231f20"/>
  <rect x="302.3" y="88.4" width="40.84" height="40.84" fill="#231f20"/>
  <rect x="345.5" y="88.4" width="40.84" height="40.84" fill="#231f20"/>
  <rect x="433.08" y="88.4" width="40.84" height="40.84" fill="#231f20"/>
  <rect x="476.28" y="88.4" width="40.84" height="40.84" fill="#231f20"/>
  <rect x="519.58" y="88.31" width="40.84" height="40.84" fill="#231f20"/>
  <rect x="649.92" y="131.73" width="40.84" height="40.84" fill="#231f20"/>
  <rect x="693.12" y="131.73" width="40.84" height="40.84" fill="#231f20"/>
  <rect x="735.14" y="131.73" width="40.84" height="40.84" fill="#231f20"/>
  <rect x="433.08" y="45.67" width="40.84" height="40.84" fill="#231f20"/>
  <rect x="476.28" y="45.67" width="40.84" height="40.84" fill="#231f20"/>
  <rect x="519.58" y="45.58" width="40.84" height="40.84" fill="#231f20"/>
  <rect x="563.1" y="45.67" width="40.84" height="40.84" fill="#231f20"/>
  <rect x="605.88" y="45.67" width="40.84" height="40.84" fill="#231f20"/>
  <rect x="130.68" y="131.73" width="40.84" height="40.84" fill="#231f20"/>
  <rect x="173.35" y="131.73" width="40.84" height="40.84" fill="#231f20"/>
  <rect x="216.55" y="131.73" width="40.84" height="40.84" fill="#231f20"/>
  <rect x="303.48" y="260.99" width="40.84" height="40.84" fill="#231f20"/>
  <rect x="303.48" y="304.63" width="40.84" height="40.84" fill="#231f20"/>
  <rect x="303.48" y="174.69" width="40.84" height="40.84" fill="#231f20"/>
  <rect x="346.69" y="174.69" width="40.84" height="40.84" fill="#231f20"/>
  <rect x="303.48" y="217.59" width="40.84" height="40.84" fill="#231f20"/>
  <rect x="303.92" y="347.64" width="40.84" height="40.84" fill="#231f20"/>
  <rect x="346.69" y="217.59" width="40.84" height="40.84" fill="#231f20"/>
  <rect x="346.69" y="260.99" width="40.84" height="40.84" fill="#231f20"/>
  <rect x="346.69" y="304.63" width="40.84" height="40.84" fill="#231f20"/>
  <rect x="347.13" y="347.64" width="40.84" height="40.84" fill="#231f20"/>
  <rect x="390.34" y="347.64" width="40.84" height="40.84" fill="#231f20"/>
  <rect x="303.48" y="390.34" width="40.84" height="40.84" fill="#231f20"/>
  <rect x="346.69" y="390.34" width="40.84" height="40.84" fill="#231f20"/>
  <rect x="389.9" y="390.34" width="40.84" height="40.84" fill="#231f20"/>
  <rect x="433.11" y="390.34" width="40.84" height="40.84" fill="#231f20"/>
  <rect x="216.55" y="2.39" width="40.84" height="40.84" fill="#231f20"/>
  <rect x="275.09" y="274.71" width="13.39" height="13.39" fill="#231f20"/>
  <rect x="275.09" y="231.32" width="13.39" height="13.39" fill="#231f20"/>
  <rect x="275.09" y="188.42" width="13.39" height="13.39" fill="#231f20"/>
  <rect x="275.09" y="404.06" width="13.39" height="13.39" fill="#231f20"/>
  <rect x="231.61" y="404.06" width="13.39" height="13.39" fill="#231f20"/>
  <rect x="275.52" y="361.36" width="13.39" height="13.39" fill="#231f20"/>
  <rect x="275.09" y="318.35" width="13.39" height="13.39" fill="#231f20"/>
  <rect x="101.64" y="361.36" width="13.39" height="13.39" fill="#231f20"/>
  <rect x="101.2" y="318.35" width="13.39" height="13.39" fill="#231f20"/>
  <rect x="58" y="318.35" width="13.39" height="13.39" fill="#231f20"/>
  <rect x="188.41" y="447.7" width="13.39" height="13.39" fill="#231f20"/>
  <rect x="188.41" y="577.33" width="13.39" height="13.39" fill="#231f20"/>
  <rect x="144.4" y="577.33" width="13.39" height="13.39" fill="#231f20"/>
  <rect x="188.41" y="534.04" width="13.39" height="13.39" fill="#231f20"/>
  <rect x="188.41" y="491.34" width="13.39" height="13.39" fill="#231f20"/>
  <rect x="232.67" y="447.7" width="13.39" height="13.39" fill="#231f20"/>
  <rect x="232.67" y="577.33" width="13.39" height="13.39" fill="#231f20"/>
  <rect x="231.61" y="620.46" width="13.39" height="13.39" fill="#231f20"/>
  <rect x="232.67" y="534.04" width="13.39" height="13.39" fill="#231f20"/>
  <rect x="58" y="620.46" width="13.39" height="13.39" fill="#231f20"/>
  <rect x="58" y="663.3" width="13.39" height="13.39" fill="#231f20"/>
  <rect x="58" y="576.96" width="13.39" height="13.39" fill="#231f20"/>
  <rect x="232.67" y="491.34" width="13.39" height="13.39" fill="#231f20"/>
  <rect x="188.41" y="663.3" width="13.39" height="13.39" fill="#231f20"/>
  <rect x="188.41" y="793.15" width="13.39" height="13.39" fill="#231f20"/>
  <rect x="145.58" y="793.15" width="13.39" height="13.39" fill="#231f20"/>
  <rect x="231.61" y="793.15" width="13.39" height="13.39" fill="#231f20"/>
  <rect x="188.41" y="836.83" width="13.39" height="13.39" fill="#231f20"/>
  <rect x="231.61" y="836.83" width="13.39" height="13.39" fill="#231f20"/>
  <rect x="102.38" y="966.09" width="13.39" height="13.39" fill="#231f20"/>
  <rect x="58" y="966.09" width="13.39" height="13.39" fill="#231f20"/>
  <rect x="145.58" y="966.09" width="13.39" height="13.39" fill="#231f20"/>
  <rect x="145.68" y="922.96" width="13.39" height="13.39" fill="#231f20"/>
  <rect x="102.18" y="879.87" width="13.39" height="13.39" fill="#231f20"/>
  <rect x="102.38" y="1009.4" width="13.39" height="13.39" fill="#231f20"/>
  <rect x="145.58" y="1009.4" width="13.39" height="13.39" fill="#231f20"/>
  <rect x="188.41" y="966.09" width="13.39" height="13.39" fill="#231f20"/>
  <rect x="188.41" y="1009.4" width="13.39" height="13.39" fill="#231f20"/>
  <rect x="406.36" y="793.15" width="13.39" height="13.39" fill="#231f20"/>
  <rect x="406.01" y="750.06" width="13.39" height="13.39" fill="#231f20"/>
  <rect x="447.14" y="750.06" width="13.39" height="13.39" fill="#231f20"/>
  <rect x="447.49" y="707.21" width="13.39" height="13.39" fill="#231f20"/>
  <rect x="490.3" y="707.21" width="13.39" height="13.39" fill="#231f20"/>
  <rect x="406.36" y="836.83" width="13.39" height="13.39" fill="#231f20"/>
  <rect x="447.49" y="793.15" width="13.39" height="13.39" fill="#231f20"/>
  <rect x="492.39" y="793.15" width="13.39" height="13.39" fill="#231f20"/>
  <rect x="490.29" y="922.96" width="13.39" height="13.39" fill="#231f20"/>
  <rect x="533.69" y="922.96" width="13.39" height="13.39" fill="#231f20"/>
  <rect x="576.31" y="922.96" width="13.39" height="13.39" fill="#231f20"/>
  <rect x="145.39" y="1052.53" width="13.39" height="13.39" fill="#231f20"/>
  <rect x="188.59" y="1052.53" width="13.39" height="13.39" fill="#231f20"/>
  <rect x="404.21" y="966.09" width="13.39" height="13.39" fill="#231f20"/>
  <rect x="404.21" y="1009.4" width="13.39" height="13.39" fill="#231f20"/>
  <rect x="361.37" y="1009.4" width="13.39" height="13.39" fill="#231f20"/>
  <rect x="404.39" y="1052.53" width="13.39" height="13.39" fill="#231f20"/>
  <rect x="533.59" y="966.09" width="13.39" height="13.39" fill="#231f20"/>
  <rect x="533.59" y="1009.4" width="13.39" height="13.39" fill="#231f20"/>
  <rect x="533.59" y="1052.53" width="13.39" height="13.39" fill="#231f20"/>
  <rect x="231.42" y="1052.53" width="13.39" height="13.39" fill="#231f20"/>
  <rect x="188.05" y="750.06" width="13.39" height="13.39" fill="#231f20"/>
  <rect x="100.85" y="750.06" width="13.39" height="13.39" fill="#231f20"/>
  <rect x="231.25" y="750.06" width="13.39" height="13.39" fill="#231f20"/>
  <rect x="14.45" y="707.21" width="13.39" height="13.39" fill="#231f20"/>
  <rect x="59.18" y="707.21" width="13.39" height="13.39" fill="#231f20"/>
  <rect x="317.35" y="836.83" width="13.39" height="13.39" fill="#231f20"/>
  <rect x="317.35" y="879.87" width="13.39" height="13.39" fill="#231f20"/>
  <rect x="317.35" y="793.15" width="13.39" height="13.39" fill="#231f20"/>
  <rect x="361.37" y="836.83" width="13.39" height="13.39" fill="#231f20"/>
  <rect x="361.37" y="879.87" width="13.39" height="13.39" fill="#231f20"/>
  <rect x="361.37" y="793.15" width="13.39" height="13.39" fill="#231f20"/>
  <rect x="361.02" y="750.06" width="13.39" height="13.39" fill="#231f20"/>
  <rect x="406.36" y="663.3" width="13.39" height="13.39" fill="#231f20"/>
  <rect x="447.49" y="663.3" width="13.39" height="13.39" fill="#231f20"/>
  <rect x="316.02" y="578.58" width="13.39" height="13.39" fill="#231f20"/>
  <rect x="361.37" y="578.58" width="13.39" height="13.39" fill="#231f20"/>
  <rect x="316.02" y="534.04" width="13.39" height="13.39" fill="#231f20"/>
  <rect x="316.02" y="620.46" width="13.39" height="13.39" fill="#231f20"/>
  <rect x="316.02" y="491.34" width="13.39" height="13.39" fill="#231f20"/>
  <rect x="316.02" y="447.7" width="13.39" height="13.39" fill="#231f20"/>
  <rect x="360.4" y="447.7" width="13.39" height="13.39" fill="#231f20"/>
  <rect x="361.37" y="663.3" width="13.39" height="13.39" fill="#231f20"/>
  <rect x="406.14" y="491.34" width="13.39" height="13.39" fill="#231f20"/>
  <rect x="447.27" y="491.34" width="13.39" height="13.39" fill="#231f20"/>
  <rect x="490" y="491.34" width="13.39" height="13.39" fill="#231f20"/>
  <rect x="405.69" y="145.45" width="13.39" height="13.39" fill="#231f20"/>
  <rect x="361.15" y="145.45" width="13.39" height="13.39" fill="#231f20"/>
  <rect x="319.01" y="145.45" width="13.39" height="13.39" fill="#231f20"/>
  <rect x="405.69" y="59.39" width="13.39" height="13.39" fill="#231f20"/>
  <rect x="405.69" y="102.12" width="13.39" height="13.39" fill="#231f20"/>
  <rect x="576.82" y="102.12" width="13.39" height="13.39" fill="#231f20"/>
  <rect x="405.69" y="274.71" width="13.39" height="13.39" fill="#231f20"/>
  <rect x="405.69" y="318.35" width="13.39" height="13.39" fill="#231f20"/>
  <rect x="447.71" y="361.36" width="13.39" height="13.39" fill="#231f20"/>
  <rect x="405.69" y="188.42" width="13.39" height="13.39" fill="#231f20"/>
  <rect x="405.69" y="231.32" width="13.39" height="13.39" fill="#231f20"/>
  <rect x="447.27" y="274.71" width="13.39" height="13.39" fill="#231f20"/>
  <rect x="447.27" y="318.35" width="13.39" height="13.39" fill="#231f20"/>
  <rect x="447.27" y="188.42" width="13.39" height="13.39" fill="#231f20"/>
  <rect x="447.27" y="231.32" width="13.39" height="13.39" fill="#231f20"/>
  <rect x="490.44" y="361.36" width="13.39" height="13.39" fill="#231f20"/>
  <rect x="490" y="274.71" width="13.39" height="13.39" fill="#231f20"/>
  <rect x="490" y="318.35" width="13.39" height="13.39" fill="#231f20"/>
  <rect x="534.82" y="361.36" width="13.39" height="13.39" fill="#231f20"/>
  <rect x="534.38" y="318.35" width="13.39" height="13.39" fill="#231f20"/>
  <rect x="534.38" y="447.7" width="13.39" height="13.39" fill="#231f20"/>
  <rect x="534.38" y="404.06" width="13.39" height="13.39" fill="#231f20"/>
  <rect x="576.9" y="447.7" width="13.39" height="13.39" fill="#231f20"/>
  <rect x="576.9" y="404.06" width="13.39" height="13.39" fill="#231f20"/>
  <rect x="750.72" y="490.06" width="13.39" height="13.39" fill="#231f20"/>
  <rect x="750.72" y="448.07" width="13.39" height="13.39" fill="#231f20"/>
  <rect x="793.24" y="490.06" width="13.39" height="13.39" fill="#231f20"/>
  <rect x="793.24" y="448.07" width="13.39" height="13.39" fill="#231f20"/>
  <rect x="835.76" y="490.06" width="13.39" height="13.39" fill="#231f20"/>
  <rect x="835.76" y="448.07" width="13.39" height="13.39" fill="#231f20"/>
  <rect x="878.28" y="490.06" width="13.39" height="13.39" fill="#231f20"/>
  <rect x="878.28" y="448.07" width="13.39" height="13.39" fill="#231f20"/>
  <rect x="968.15" y="577.67" width="13.39" height="13.39" fill="#231f20"/>
  <rect x="968.15" y="535.69" width="13.39" height="13.39" fill="#231f20"/>
  <rect x="1010.32" y="577.67" width="13.39" height="13.39" fill="#231f20"/>
  <rect x="968.15" y="619.66" width="13.39" height="13.39" fill="#231f20"/>
  <rect x="1010.32" y="619.66" width="13.39" height="13.39" fill="#231f20"/>
  <rect x="1010.32" y="535.69" width="13.39" height="13.39" fill="#231f20"/>
  <rect x="490" y="188.42" width="13.39" height="13.39" fill="#231f20"/>
  <rect x="490" y="231.32" width="13.39" height="13.39" fill="#231f20"/>
  <rect x="361.15" y="59.39" width="13.39" height="13.39" fill="#231f20"/>
  <rect x="319.01" y="59.39" width="13.39" height="13.39" fill="#231f20"/>
  <rect x="449.56" y="145.45" width="13.39" height="13.39" fill="#231f20"/>
  <rect x="490" y="145.45" width="13.39" height="13.39" fill="#231f20"/>
  <rect x="534.38" y="188.42" width="13.39" height="13.39" fill="#231f20"/>
  <rect x="663.29" y="188.42" width="13.39" height="13.39" fill="#231f20"/>
  <rect x="706.02" y="188.42" width="13.39" height="13.39" fill="#231f20"/>
  <rect x="750.4" y="188.42" width="13.39" height="13.39" fill="#231f20"/>
  <rect x="750.4" y="275.99" width="13.39" height="13.39" fill="#231f20"/>
  <rect x="792.98" y="275.99" width="13.39" height="13.39" fill="#231f20"/>
  <rect x="750.4" y="317.05" width="13.39" height="13.39" fill="#231f20"/>
  <rect x="792.98" y="317.05" width="13.39" height="13.39" fill="#231f20"/>
  <rect x="663.29" y="102.12" width="13.39" height="13.39" fill="#231f20"/>
  <rect x="706.02" y="102.12" width="13.39" height="13.39" fill="#231f20"/>
  <rect x="750.4" y="102.12" width="13.39" height="13.39" fill="#231f20"/>
  <rect x="663.29" y="59.39" width="13.39" height="13.39" fill="#231f20"/>
  <rect x="706.02" y="59.39" width="13.39" height="13.39" fill="#231f20"/>
  <rect x="750.4" y="59.39" width="13.39" height="13.39" fill="#231f20"/>
  <rect x="793.43" y="145.45" width="13.39" height="13.39" fill="#231f20"/>
  <rect x="793.43" y="102.12" width="13.39" height="13.39" fill="#231f20"/>
  <rect x="967.28" y="145.45" width="13.39" height="13.39" fill="#231f20"/>
  <rect x="967.28" y="102.12" width="13.39" height="13.39" fill="#231f20"/>
  <rect x="924.25" y="145.45" width="13.39" height="13.39" fill="#231f20"/>
  <rect x="924.25" y="102.12" width="13.39" height="13.39" fill="#231f20"/>
  <rect x="880.36" y="145.45" width="13.39" height="13.39" fill="#231f20"/>
  <rect x="967.28" y="188.42" width="13.39" height="13.39" fill="#231f20"/>
  <rect x="924.25" y="188.42" width="13.39" height="13.39" fill="#231f20"/>
  <rect x="880.36" y="188.42" width="13.39" height="13.39" fill="#231f20"/>
  <rect x="880.36" y="102.12" width="13.39" height="13.39" fill="#231f20"/>
  <rect x="836.9" y="102.12" width="13.39" height="13.39" fill="#231f20"/>
  <rect x="534.38" y="145.45" width="13.39" height="13.39" fill="#231f20"/>
  <rect x="446.8" y="16.18" width="13.39" height="13.39" fill="#231f20"/>
  <rect x="489.3" y="16.18" width="13.39" height="13.39" fill="#231f20"/>
  <rect x="532.53" y="16.18" width="13.39" height="13.39" fill="#231f20"/>
  <rect x="575.76" y="16.18" width="13.39" height="13.39" fill="#231f20"/>
  <rect x="618.98" y="16.18" width="13.39" height="13.39" fill="#231f20"/>
  <rect x="662.85" y="16.18" width="13.39" height="13.39" fill="#231f20"/>
  <rect x="361.15" y="491.34" width="13.39" height="13.39" fill="#231f20"/>
  <rect x="231.61" y="707.21" width="13.39" height="13.39" fill="#231f20"/>
  <rect x="275.09" y="145.45" width="13.39" height="13.39" fill="#231f20"/>
  <rect x="100.94" y="274.71" width="13.39" height="13.39" fill="#231f20"/>
  <rect x="58" y="274.71" width="13.39" height="13.39" fill="#231f20"/>
  <rect x="100.94" y="231.32" width="13.39" height="13.39" fill="#231f20"/>
  <rect x="100.94" y="188.42" width="13.39" height="13.39" fill="#231f20"/>
  <rect x="100.94" y="145.45" width="13.39" height="13.39" fill="#231f20"/>
  <rect x="58" y="102.12" width="13.39" height="13.39" fill="#231f20"/>
  <rect x="58" y="59.39" width="13.39" height="13.39" fill="#231f20"/>
  <rect x="58" y="16.12" width="13.39" height="13.39" fill="#231f20"/>
  <rect x="275.09" y="59.39" width="13.39" height="13.39" fill="#231f20"/>
  <rect x="275.09" y="16.12" width="13.39" height="13.39" fill="#231f20"/>
</svg>