<?xml version="1.0" encoding="UTF-8"?>
<svg id="_15" data-name="15" xmlns="http://www.w3.org/2000/svg" viewBox="0 0 1080 1080">
  <rect x="44.39" y="304.26" width="40.84" height="40.84" fill="#231f20"/>
  <rect x="1.17" y="304.26" width="40.84" height="40.84" fill="#231f20"/>
  <rect x="131.55" y="304.26" width="40.84" height="40.84" fill="#231f20"/>
  <rect x="87.86" y="304.26" width="40.84" height="40.84" fill="#231f20"/>
  <rect x="44.39" y="347.46" width="40.84" height="40.84" fill="#231f20"/>
  <rect x="1.17" y="347.46" width="40.84" height="40.84" fill="#231f20"/>
  <rect x="131.55" y="347.46" width="40.84" height="40.84" fill="#231f20"/>
  <rect x="87.86" y="347.46" width="40.84" height="40.84" fill="#231f20"/>
  <rect x="44.39" y="217.86" width="40.84" height="40.84" fill="#231f20"/>
  <rect x="1.17" y="217.86" width="40.84" height="40.84" fill="#231f20"/>
  <rect x="131.55" y="217.86" width="40.84" height="40.84" fill="#231f20"/>
  <rect x="87.86" y="217.86" width="40.84" height="40.84" fill="#231f20"/>
  <rect x="44.39" y="174.66" width="40.84" height="40.84" fill="#231f20"/>
  <rect x="87.86" y="174.66" width="40.84" height="40.84" fill="#231f20"/>
  <rect x="44.39" y="131.46" width="40.84" height="40.84" fill="#231f20"/>
  <rect x="1.22" y="131.46" width="40.84" height="40.84" fill="#231f20"/>
  <rect x="131.55" y="131.46" width="40.84" height="40.84" fill="#231f20"/>
  <rect x="87.86" y="131.46" width="40.84" height="40.84" fill="#231f20"/>
  <rect x="44.39" y="88.26" width="40.84" height="40.84" fill="#231f20"/>
  <rect x="87.86" y="88.26" width="40.84" height="40.84" fill="#231f20"/>
  <rect x="44.39" y="261.06" width="40.84" height="40.84" fill="#231f20"/>
  <rect x="1.17" y="261.06" width="40.84" height="40.84" fill="#231f20"/>
  <rect x="131.55" y="261.06" width="40.84" height="40.84" fill="#231f20"/>
  <rect x="87.86" y="261.06" width="40.84" height="40.84" fill="#231f20"/>
  <rect x="44.15" y="909" width="40.84" height="40.84" fill="#231f20"/>
  <rect x=".93" y="909" width="40.84" height="40.84" fill="#231f20"/>
  <rect x="87.38" y="909" width="40.84" height="40.84" fill="#231f20"/>
  <rect x="44.18" y="952.2" width="40.84" height="40.84" fill="#231f20"/>
  <rect x=".93" y="952.2" width="40.84" height="40.84" fill="#231f20"/>
  <rect x="87.44" y="952.2" width="40.84" height="40.84" fill="#231f20"/>
  <rect x="44.18" y="995.43" width="40.84" height="40.84" fill="#231f20"/>
  <rect x=".93" y="995.43" width="40.84" height="40.84" fill="#231f20"/>
  <rect x="87.44" y="995.43" width="40.84" height="40.84" fill="#231f20"/>
  <rect x="44.18" y="1038.63" width="40.84" height="40.84" fill="#231f20"/>
  <rect x=".93" y="1038.63" width="40.84" height="40.84" fill="#231f20"/>
  <rect x="87.44" y="1038.63" width="40.84" height="40.84" fill="#231f20"/>
  <rect x="44.13" y="822.6" width="40.84" height="40.84" fill="#231f20"/>
  <rect x=".93" y="822.6" width="40.84" height="40.84" fill="#231f20"/>
  <rect x="87.33" y="822.6" width="40.84" height="40.84" fill="#231f20"/>
  <rect x="44.18" y="865.8" width="40.84" height="40.84" fill="#231f20"/>
  <rect x=".93" y="865.8" width="40.84" height="40.84" fill="#231f20"/>
  <rect x="87.44" y="865.8" width="40.84" height="40.84" fill="#231f20"/>
  <rect x="173.83" y="909" width="40.84" height="40.84" fill="#231f20"/>
  <rect x="130.6" y="909" width="40.84" height="40.84" fill="#231f20"/>
  <rect x="217.05" y="909" width="40.84" height="40.84" fill="#231f20"/>
  <rect x="173.94" y="952.2" width="40.84" height="40.84" fill="#231f20"/>
  <rect x="130.69" y="952.2" width="40.84" height="40.84" fill="#231f20"/>
  <rect x="217.2" y="952.2" width="40.84" height="40.84" fill="#231f20"/>
  <rect x="173.94" y="995.43" width="40.84" height="40.84" fill="#231f20"/>
  <rect x="130.69" y="995.43" width="40.84" height="40.84" fill="#231f20"/>
  <rect x="217.2" y="995.43" width="40.84" height="40.84" fill="#231f20"/>
  <rect x="173.94" y="1038.63" width="40.84" height="40.84" fill="#231f20"/>
  <rect x="130.69" y="1038.63" width="40.84" height="40.84" fill="#231f20"/>
  <rect x="217.2" y="1038.63" width="40.84" height="40.84" fill="#231f20"/>
  <rect x="562.51" y="693.29" width="40.84" height="40.84" fill="#231f20"/>
  <rect x="519.25" y="693.02" width="40.84" height="40.84" fill="#231f20"/>
  <rect x="605.69" y="693.02" width="40.84" height="40.84" fill="#231f20"/>
  <rect x="562.51" y="736.5" width="40.84" height="40.84" fill="#231f20"/>
  <rect x="519.25" y="736.21" width="40.84" height="40.84" fill="#231f20"/>
  <rect x="605.69" y="736.23" width="40.84" height="40.84" fill="#231f20"/>
  <rect x="562.51" y="779.7" width="40.84" height="40.84" fill="#231f20"/>
  <rect x="519.25" y="779.45" width="40.84" height="40.84" fill="#231f20"/>
  <rect x="476.63" y="736.21" width="40.84" height="40.84" fill="#231f20"/>
  <rect x="476.63" y="779.45" width="40.84" height="40.84" fill="#231f20"/>
  <rect x="605.69" y="779.43" width="40.84" height="40.84" fill="#231f20"/>
  <rect x="562.51" y="822.9" width="40.84" height="40.84" fill="#231f20"/>
  <rect x="519.25" y="822.65" width="40.84" height="40.84" fill="#231f20"/>
  <rect x="605.69" y="822.63" width="40.84" height="40.84" fill="#231f20"/>
  <rect x="562.51" y="866.11" width="40.84" height="40.84" fill="#231f20"/>
  <rect x="519.25" y="865.84" width="40.84" height="40.84" fill="#231f20"/>
  <rect x="605.69" y="865.84" width="40.84" height="40.84" fill="#231f20"/>
  <rect x="692.35" y="693.01" width="40.84" height="40.84" fill="#231f20"/>
  <rect x="649.1" y="693.01" width="40.84" height="40.84" fill="#231f20"/>
  <rect x="735.28" y="693.01" width="40.84" height="40.84" fill="#231f20"/>
  <rect x="692.35" y="736.21" width="40.84" height="40.84" fill="#231f20"/>
  <rect x="649.1" y="736.21" width="40.84" height="40.84" fill="#231f20"/>
  <rect x="735.28" y="736.21" width="40.84" height="40.84" fill="#231f20"/>
  <rect x="778.81" y="693.35" width="40.84" height="40.84" fill="#231f20"/>
  <rect x="562.51" y="650.09" width="40.84" height="40.84" fill="#231f20"/>
  <rect x="605.69" y="649.82" width="40.84" height="40.84" fill="#231f20"/>
  <rect x="692.35" y="649.81" width="40.84" height="40.84" fill="#231f20"/>
  <rect x="649.1" y="649.8" width="40.84" height="40.84" fill="#231f20"/>
  <rect x="735.28" y="649.81" width="40.84" height="40.84" fill="#231f20"/>
  <rect x="605.69" y="606.61" width="40.84" height="40.84" fill="#231f20"/>
  <rect x="692.35" y="606.61" width="40.84" height="40.84" fill="#231f20"/>
  <rect x="649.1" y="563.41" width="40.84" height="40.84" fill="#231f20"/>
  <rect x="735.28" y="606.61" width="40.84" height="40.84" fill="#231f20"/>
  <rect x="778.81" y="650.15" width="40.84" height="40.84" fill="#231f20"/>
  <rect x="821.66" y="692.87" width="40.84" height="40.84" fill="#231f20"/>
  <rect x="778.81" y="736.55" width="40.84" height="40.84" fill="#231f20"/>
  <rect x="821.66" y="735.99" width="40.84" height="40.84" fill="#231f20"/>
  <rect x="821.66" y="779.11" width="40.84" height="40.84" fill="#231f20"/>
  <rect x="865.06" y="779.45" width="40.84" height="40.84" fill="#231f20"/>
  <rect x="821.66" y="822.66" width="40.84" height="40.84" fill="#231f20"/>
  <rect x="778.81" y="822.94" width="40.84" height="40.84" fill="#231f20"/>
  <rect x="778.81" y="866.14" width="40.84" height="40.84" fill="#231f20"/>
  <rect x="865.06" y="822.66" width="40.84" height="40.84" fill="#231f20"/>
  <rect x="692.35" y="779.42" width="40.84" height="40.84" fill="#231f20"/>
  <rect x="649.1" y="779.42" width="40.84" height="40.84" fill="#231f20"/>
  <rect x="735.28" y="779.4" width="40.84" height="40.84" fill="#231f20"/>
  <rect x="692.35" y="822.62" width="40.84" height="40.84" fill="#231f20"/>
  <rect x="692.35" y="865.83" width="40.84" height="40.84" fill="#231f20"/>
  <rect x="649.1" y="822.63" width="40.84" height="40.84" fill="#231f20"/>
  <rect x="735.28" y="822.6" width="40.84" height="40.84" fill="#231f20"/>
  <rect x="735.28" y="865.8" width="40.84" height="40.84" fill="#231f20"/>
  <rect x="260.27" y="909" width="40.84" height="40.84" fill="#231f20"/>
  <rect x="303.5" y="909" width="40.84" height="40.84" fill="#231f20"/>
  <rect x="260.45" y="952.2" width="40.84" height="40.84" fill="#231f20"/>
  <rect x="303.71" y="952.2" width="40.84" height="40.84" fill="#231f20"/>
  <rect x="260.45" y="995.43" width="40.84" height="40.84" fill="#231f20"/>
  <rect x="303.71" y="995.43" width="40.84" height="40.84" fill="#231f20"/>
  <rect x="260.45" y="1038.63" width="40.84" height="40.84" fill="#231f20"/>
  <rect x="303.71" y="1038.63" width="40.84" height="40.84" fill="#231f20"/>
  <rect x="389.95" y="909" width="40.84" height="40.84" fill="#231f20"/>
  <rect x="346.72" y="909" width="40.84" height="40.84" fill="#231f20"/>
  <rect x="390.21" y="952.2" width="40.84" height="40.84" fill="#231f20"/>
  <rect x="346.96" y="952.2" width="40.84" height="40.84" fill="#231f20"/>
  <rect x="433.47" y="952.2" width="40.84" height="40.84" fill="#231f20"/>
  <rect x="390.21" y="995.43" width="40.84" height="40.84" fill="#231f20"/>
  <rect x="346.96" y="995.43" width="40.84" height="40.84" fill="#231f20"/>
  <rect x="433.47" y="995.43" width="40.84" height="40.84" fill="#231f20"/>
  <rect x="390.21" y="1038.63" width="40.84" height="40.84" fill="#231f20"/>
  <rect x="346.96" y="1038.63" width="40.84" height="40.84" fill="#231f20"/>
  <rect x="433.47" y="1038.63" width="40.84" height="40.84" fill="#231f20"/>
  <rect x="173.94" y="865.8" width="40.84" height="40.84" fill="#231f20"/>
  <rect x="130.69" y="865.8" width="40.84" height="40.84" fill="#231f20"/>
  <rect x="217.2" y="865.8" width="40.84" height="40.84" fill="#231f20"/>
  <rect x="44.39" y="390.66" width="40.84" height="40.84" fill="#231f20"/>
  <rect x="1.17" y="390.66" width="40.84" height="40.84" fill="#231f20"/>
  <rect x="131.55" y="390.66" width="40.84" height="40.84" fill="#231f20"/>
  <rect x="174.02" y="304.26" width="40.84" height="40.84" fill="#231f20"/>
  <rect x="216.49" y="304.26" width="40.84" height="40.84" fill="#231f20"/>
  <rect x="174.02" y="347.46" width="40.84" height="40.84" fill="#231f20"/>
  <rect x="216.49" y="347.46" width="40.84" height="40.84" fill="#231f20"/>
  <rect x="174.02" y="261.06" width="40.84" height="40.84" fill="#231f20"/>
  <rect x="174.02" y="390.66" width="40.84" height="40.84" fill="#231f20"/>
  <rect x="87.86" y="390.66" width="40.84" height="40.84" fill="#231f20"/>
  <rect x="693.24" y="261.06" width="40.84" height="40.84" fill="#231f20"/>
  <rect x="650.04" y="261.06" width="40.84" height="40.84" fill="#231f20"/>
  <rect x="778.57" y="261.08" width="40.84" height="40.84" fill="#231f20"/>
  <rect x="735.62" y="261.06" width="40.84" height="40.84" fill="#231f20"/>
  <rect x="693.24" y="304.26" width="40.84" height="40.84" fill="#231f20"/>
  <rect x="650.04" y="304.26" width="40.84" height="40.84" fill="#231f20"/>
  <rect x="778.57" y="304.28" width="40.84" height="40.84" fill="#231f20"/>
  <rect x="735.62" y="304.26" width="40.84" height="40.84" fill="#231f20"/>
  <rect x="693.24" y="217.86" width="40.84" height="40.84" fill="#231f20"/>
  <rect x="650.04" y="217.86" width="40.84" height="40.84" fill="#231f20"/>
  <rect x="778.57" y="217.88" width="40.84" height="40.84" fill="#231f20"/>
  <rect x="822.02" y="261.06" width="40.84" height="40.84" fill="#231f20"/>
  <rect x="906.95" y="261.06" width="40.84" height="40.84" fill="#231f20"/>
  <rect x="822.02" y="304.26" width="40.84" height="40.84" fill="#231f20"/>
  <rect x="822.02" y="217.86" width="40.84" height="40.84" fill="#231f20"/>
  <rect x="735.62" y="217.86" width="40.84" height="40.84" fill="#231f20"/>
  <rect x="693.24" y="174.66" width="40.84" height="40.84" fill="#231f20"/>
  <rect x="650.04" y="174.66" width="40.84" height="40.84" fill="#231f20"/>
  <rect x="778.57" y="174.68" width="40.84" height="40.84" fill="#231f20"/>
  <rect x="822.02" y="174.66" width="40.84" height="40.84" fill="#231f20"/>
  <rect x="864.49" y="217.86" width="40.84" height="40.84" fill="#231f20"/>
  <rect x="906.95" y="217.86" width="40.84" height="40.84" fill="#231f20"/>
  <rect x="864.49" y="174.66" width="40.84" height="40.84" fill="#231f20"/>
  <rect x="735.62" y="174.66" width="40.84" height="40.84" fill="#231f20"/>
  <rect x="693.24" y="131.46" width="40.84" height="40.84" fill="#231f20"/>
  <rect x="650.04" y="131.46" width="40.84" height="40.84" fill="#231f20"/>
  <rect x="778.57" y="131.48" width="40.84" height="40.84" fill="#231f20"/>
  <rect x="822.02" y="131.46" width="40.84" height="40.84" fill="#231f20"/>
  <rect x="864.49" y="131.46" width="40.84" height="40.84" fill="#231f20"/>
  <rect x="735.62" y="131.46" width="40.84" height="40.84" fill="#231f20"/>
  <rect x="693.24" y="88.26" width="40.84" height="40.84" fill="#231f20"/>
  <rect x="650.04" y="88.26" width="40.84" height="40.84" fill="#231f20"/>
  <rect x="778.57" y="88.28" width="40.84" height="40.84" fill="#231f20"/>
  <rect x="822.02" y="88.26" width="40.84" height="40.84" fill="#231f20"/>
  <rect x="735.62" y="88.26" width="40.84" height="40.84" fill="#231f20"/>
  <rect x="693.24" y="45.06" width="40.84" height="40.84" fill="#231f20"/>
  <rect x="778.57" y="45.08" width="40.84" height="40.84" fill="#231f20"/>
  <rect x="735.62" y="45.06" width="40.84" height="40.84" fill="#231f20"/>
  <rect x="693.24" y="347.46" width="40.84" height="40.84" fill="#231f20"/>
  <rect x="693.24" y="390.66" width="40.84" height="40.84" fill="#231f20"/>
  <rect x="650.04" y="347.46" width="40.84" height="40.84" fill="#231f20"/>
  <rect x="606.84" y="261.06" width="40.84" height="40.84" fill="#231f20"/>
  <rect x="606.84" y="304.26" width="40.84" height="40.84" fill="#231f20"/>
  <rect x="606.84" y="347.46" width="40.84" height="40.84" fill="#231f20"/>
  <rect x="778.57" y="347.48" width="40.84" height="40.84" fill="#231f20"/>
  <rect x="735.62" y="347.46" width="40.84" height="40.84" fill="#231f20"/>
  <rect x="735.62" y="390.66" width="40.84" height="40.84" fill="#231f20"/>
  <rect x="44.39" y="433.86" width="40.84" height="40.84" fill="#231f20"/>
  <rect x="1.17" y="433.86" width="40.84" height="40.84" fill="#231f20"/>
  <rect x="87.86" y="433.86" width="40.84" height="40.84" fill="#231f20"/>
  <rect x="232.98" y="276.19" width="13.39" height="13.39" fill="#231f20"/>
  <rect x="274.81" y="318.79" width="13.39" height="13.39" fill="#231f20"/>
  <rect x="274.81" y="361.19" width="13.39" height="13.39" fill="#231f20"/>
  <rect x="15.68" y="708.37" width="13.39" height="13.39" fill="#231f20"/>
  <rect x="15.68" y="750.76" width="13.39" height="13.39" fill="#231f20"/>
  <rect x="15.68" y="621.39" width="13.39" height="13.39" fill="#231f20"/>
  <rect x="15.68" y="663.78" width="13.39" height="13.39" fill="#231f20"/>
  <rect x="187.75" y="231.59" width="13.39" height="13.39" fill="#231f20"/>
  <rect x="145.28" y="188.39" width="13.39" height="13.39" fill="#231f20"/>
  <rect x="14.95" y="188.39" width="13.39" height="13.39" fill="#231f20"/>
  <rect x="14.95" y="104.01" width="13.39" height="13.39" fill="#231f20"/>
  <rect x="145.28" y="104.01" width="13.39" height="13.39" fill="#231f20"/>
  <rect x="232.98" y="404.39" width="13.39" height="13.39" fill="#231f20"/>
  <rect x="145.28" y="447.59" width="13.39" height="13.39" fill="#231f20"/>
  <rect x="187.75" y="447.59" width="13.39" height="13.39" fill="#231f20"/>
  <rect x="145.28" y="836.32" width="13.39" height="13.39" fill="#231f20"/>
  <rect x="187.75" y="836.32" width="13.39" height="13.39" fill="#231f20"/>
  <rect x="230.42" y="836.32" width="13.39" height="13.39" fill="#231f20"/>
  <rect x="15.68" y="490.99" width="13.39" height="13.39" fill="#231f20"/>
  <rect x="58.96" y="490.99" width="13.39" height="13.39" fill="#231f20"/>
  <rect x="101.99" y="490.99" width="13.39" height="13.39" fill="#231f20"/>
  <rect x="15.68" y="794.18" width="13.39" height="13.39" fill="#231f20"/>
  <rect x="621.51" y="145.77" width="13.39" height="13.39" fill="#231f20"/>
  <rect x="621.51" y="188.16" width="13.39" height="13.39" fill="#231f20"/>
  <rect x="621.51" y="58.79" width="13.39" height="13.39" fill="#231f20"/>
  <rect x="665.51" y="58.79" width="13.39" height="13.39" fill="#231f20"/>
  <rect x="706.93" y="17.61" width="13.39" height="13.39" fill="#231f20"/>
  <rect x="750.92" y="17.61" width="13.39" height="13.39" fill="#231f20"/>
  <rect x="793.28" y="17.61" width="13.39" height="13.39" fill="#231f20"/>
  <rect x="56.15" y="60.81" width="13.39" height="13.39" fill="#231f20"/>
  <rect x="100.15" y="60.81" width="13.39" height="13.39" fill="#231f20"/>
  <rect x="142.51" y="60.81" width="13.39" height="13.39" fill="#231f20"/>
  <rect x="621.51" y="101.18" width="13.39" height="13.39" fill="#231f20"/>
  <rect x="621.51" y="231.58" width="13.39" height="13.39" fill="#231f20"/>
  <rect x="576.94" y="275.89" width="13.39" height="13.39" fill="#231f20"/>
  <rect x="576.94" y="318.28" width="13.39" height="13.39" fill="#231f20"/>
  <rect x="576.94" y="361.7" width="13.39" height="13.39" fill="#231f20"/>
  <rect x="58.96" y="794.18" width="13.39" height="13.39" fill="#231f20"/>
  <rect x="101.99" y="794.18" width="13.39" height="13.39" fill="#231f20"/>
  <rect x="274.91" y="879.52" width="13.39" height="13.39" fill="#231f20"/>
  <rect x="318.19" y="879.52" width="13.39" height="13.39" fill="#231f20"/>
  <rect x="361.22" y="879.52" width="13.39" height="13.39" fill="#231f20"/>
  <rect x="405.01" y="879.52" width="13.39" height="13.39" fill="#231f20"/>
  <rect x="448.04" y="879.52" width="13.39" height="13.39" fill="#231f20"/>
  <rect x="448.04" y="922.72" width="13.39" height="13.39" fill="#231f20"/>
  <rect x="491.14" y="837.56" width="13.39" height="13.39" fill="#231f20"/>
  <rect x="491.14" y="880.76" width="13.39" height="13.39" fill="#231f20"/>
  <rect x="491.59" y="922.1" width="13.39" height="13.39" fill="#231f20"/>
  <rect x="535.38" y="922.1" width="13.39" height="13.39" fill="#231f20"/>
  <rect x="578.41" y="922.1" width="13.39" height="13.39" fill="#231f20"/>
  <rect x="621.51" y="923.34" width="13.39" height="13.39" fill="#231f20"/>
  <rect x="664.32" y="923.34" width="13.39" height="13.39" fill="#231f20"/>
  <rect x="621.51" y="965.57" width="13.39" height="13.39" fill="#231f20"/>
  <rect x="664.32" y="965.57" width="13.39" height="13.39" fill="#231f20"/>
  <rect x="448.04" y="749.97" width="13.39" height="13.39" fill="#231f20"/>
  <rect x="448.04" y="793.17" width="13.39" height="13.39" fill="#231f20"/>
  <rect x="491.14" y="664.76" width="13.39" height="13.39" fill="#231f20"/>
  <rect x="532.76" y="664.76" width="13.39" height="13.39" fill="#231f20"/>
  <rect x="792.73" y="620.34" width="13.39" height="13.39" fill="#231f20"/>
  <rect x="836.14" y="620.34" width="13.39" height="13.39" fill="#231f20"/>
  <rect x="665.51" y="880.76" width="13.39" height="13.39" fill="#231f20"/>
  <rect x="707.13" y="922.72" width="13.39" height="13.39" fill="#231f20"/>
  <rect x="749.65" y="923.34" width="13.39" height="13.39" fill="#231f20"/>
  <rect x="792.46" y="923.34" width="13.39" height="13.39" fill="#231f20"/>
  <rect x="835.26" y="922.72" width="13.39" height="13.39" fill="#231f20"/>
  <rect x="836.32" y="879.52" width="13.39" height="13.39" fill="#231f20"/>
  <rect x="877.73" y="922.72" width="13.39" height="13.39" fill="#231f20"/>
  <rect x="707.13" y="965.57" width="13.39" height="13.39" fill="#231f20"/>
  <rect x="749.65" y="965.57" width="13.39" height="13.39" fill="#231f20"/>
  <rect x="792.46" y="965.57" width="13.39" height="13.39" fill="#231f20"/>
  <rect x="835.26" y="965.57" width="13.39" height="13.39" fill="#231f20"/>
  <rect x="877.73" y="965.57" width="13.39" height="13.39" fill="#231f20"/>
  <rect x="967.43" y="881.08" width="13.39" height="13.39" fill="#231f20"/>
  <rect x="1010.24" y="880.45" width="13.39" height="13.39" fill="#231f20"/>
  <rect x="1052.71" y="880.45" width="13.39" height="13.39" fill="#231f20"/>
  <rect x="967.43" y="837.02" width="13.39" height="13.39" fill="#231f20"/>
  <rect x="1010.24" y="837.02" width="13.39" height="13.39" fill="#231f20"/>
  <rect x="1052.71" y="837.02" width="13.39" height="13.39" fill="#231f20"/>
  <rect x="1010.24" y="1010.36" width="13.39" height="13.39" fill="#231f20"/>
  <rect x="1052.71" y="1010.36" width="13.39" height="13.39" fill="#231f20"/>
  <rect x="1010.24" y="967.16" width="13.39" height="13.39" fill="#231f20"/>
  <rect x="1052.71" y="967.16" width="13.39" height="13.39" fill="#231f20"/>
  <rect x="878.79" y="879.52" width="13.39" height="13.39" fill="#231f20"/>
  <rect x="836.14" y="664.76" width="13.39" height="13.39" fill="#231f20"/>
  <rect x="878.79" y="275.35" width="13.39" height="13.39" fill="#231f20"/>
  <rect x="878.79" y="319.78" width="13.39" height="13.39" fill="#231f20"/>
  <rect x="922.64" y="319.78" width="13.39" height="13.39" fill="#231f20"/>
  <rect x="966.93" y="232.15" width="13.39" height="13.39" fill="#231f20"/>
  <rect x="966.93" y="276.58" width="13.39" height="13.39" fill="#231f20"/>
  <rect x="922.64" y="145.75" width="13.39" height="13.39" fill="#231f20"/>
  <rect x="922.64" y="190.18" width="13.39" height="13.39" fill="#231f20"/>
  <rect x="881.76" y="59.35" width="13.39" height="13.39" fill="#231f20"/>
  <rect x="841.05" y="59.35" width="13.39" height="13.39" fill="#231f20"/>
  <rect x="881.76" y="103.78" width="13.39" height="13.39" fill="#231f20"/>
  <rect x="834.35" y="359.78" width="13.39" height="13.39" fill="#231f20"/>
  <rect x="878.79" y="706.75" width="13.39" height="13.39" fill="#231f20"/>
  <rect x="878.79" y="749.94" width="13.39" height="13.39" fill="#231f20"/>
  <rect x="923.31" y="793.73" width="13.39" height="13.39" fill="#231f20"/>
  <rect x="923.31" y="837.02" width="13.39" height="13.39" fill="#231f20"/>
  <rect x="792.53" y="793.47" width="13.39" height="13.39" fill="#231f20"/>
  <rect x="708.12" y="577.14" width="13.39" height="13.39" fill="#231f20"/>
  <rect x="749.74" y="577.14" width="13.39" height="13.39" fill="#231f20"/>
  <rect x="792.73" y="404.39" width="13.39" height="13.39" fill="#231f20"/>
  <rect x="834.35" y="404.39" width="13.39" height="13.39" fill="#231f20"/>
  <rect x="535.32" y="620.34" width="13.39" height="13.39" fill="#231f20"/>
  <rect x="576.94" y="620.34" width="13.39" height="13.39" fill="#231f20"/>
  <rect x="578.52" y="579.94" width="13.39" height="13.39" fill="#231f20"/>
  <rect x="620.14" y="579.94" width="13.39" height="13.39" fill="#231f20"/>
  <rect x="580.21" y="404.39" width="13.39" height="13.39" fill="#231f20"/>
  <rect x="621.83" y="404.39" width="13.39" height="13.39" fill="#231f20"/>
  <rect x="665.51" y="404.39" width="13.39" height="13.39" fill="#231f20"/>
  <rect x="663.54" y="620.34" width="13.39" height="13.39" fill="#231f20"/>
  <rect x="491.14" y="707.96" width="13.39" height="13.39" fill="#231f20"/>
</svg>