<?xml version="1.0" encoding="UTF-8"?>
<svg id="_16" data-name="16" xmlns="http://www.w3.org/2000/svg" viewBox="0 0 1080 1080">
  <rect x="174.65" y="346.55" width="40.84" height="40.84" fill="#231f20"/>
  <rect x="174.29" y="390.98" width="40.84" height="40.84" fill="#231f20"/>
  <rect x="217.85" y="346.55" width="40.84" height="40.84" fill="#231f20"/>
  <rect x="217.47" y="390.98" width="40.84" height="40.84" fill="#231f20"/>
  <rect x="174.65" y="260.15" width="40.84" height="40.84" fill="#231f20"/>
  <rect x="174.65" y="303.35" width="40.84" height="40.84" fill="#231f20"/>
  <rect x="217.85" y="260.15" width="40.84" height="40.84" fill="#231f20"/>
  <rect x="217.85" y="303.35" width="40.84" height="40.84" fill="#231f20"/>
  <rect x="260.65" y="390.98" width="40.84" height="40.84" fill="#231f20"/>
  <rect x="303.83" y="390.98" width="40.84" height="40.84" fill="#231f20"/>
  <rect x="347.01" y="390.98" width="40.84" height="40.84" fill="#231f20"/>
  <rect x="390.19" y="390.98" width="40.84" height="40.84" fill="#231f20"/>
  <rect x="433.37" y="390.98" width="40.84" height="40.84" fill="#231f20"/>
  <rect x="476.55" y="390.98" width="40.84" height="40.84" fill="#231f20"/>
  <rect x="519.77" y="390.89" width="40.84" height="40.84" fill="#231f20"/>
  <rect x="562.91" y="390.98" width="40.84" height="40.84" fill="#231f20"/>
  <rect x="606.09" y="390.98" width="40.84" height="40.84" fill="#231f20"/>
  <rect x="649.27" y="390.98" width="40.84" height="40.84" fill="#231f20"/>
  <rect x="649.34" y="347.67" width="40.84" height="40.84" fill="#231f20"/>
  <rect x="692.45" y="390.98" width="40.84" height="40.84" fill="#231f20"/>
  <rect x="735.63" y="390.98" width="40.84" height="40.84" fill="#231f20"/>
  <rect x="778.81" y="390.98" width="40.84" height="40.84" fill="#231f20"/>
  <rect x="562.98" y="434.38" width="40.84" height="40.84" fill="#231f20"/>
  <rect x="606.15" y="434.38" width="40.84" height="40.84" fill="#231f20"/>
  <rect x="649.31" y="434.38" width="40.84" height="40.84" fill="#231f20"/>
  <rect x="692.48" y="434.38" width="40.84" height="40.84" fill="#231f20"/>
  <rect x="606.09" y="477.55" width="40.84" height="40.84" fill="#231f20"/>
  <rect x="649.27" y="477.55" width="40.84" height="40.84" fill="#231f20"/>
  <rect x="692.45" y="477.55" width="40.84" height="40.84" fill="#231f20"/>
  <rect x="605.62" y="520.8" width="40.84" height="40.84" fill="#231f20"/>
  <rect x="648.75" y="520.8" width="40.84" height="40.84" fill="#231f20"/>
  <rect x="691.87" y="520.8" width="40.84" height="40.84" fill="#231f20"/>
  <rect x="735.64" y="434.38" width="40.84" height="40.84" fill="#231f20"/>
  <rect x="778.81" y="434.38" width="40.84" height="40.84" fill="#231f20"/>
  <rect x="822.74" y="303.35" width="40.84" height="40.84" fill="#231f20"/>
  <rect x="822.74" y="346.55" width="40.84" height="40.84" fill="#231f20"/>
  <rect x="952.25" y="389.75" width="40.84" height="40.84" fill="#231f20"/>
  <rect x="996.04" y="389.75" width="40.84" height="40.84" fill="#231f20"/>
  <rect x="1038.65" y="389.75" width="40.84" height="40.84" fill="#231f20"/>
  <rect x="952.25" y="346.55" width="40.84" height="40.84" fill="#231f20"/>
  <rect x="996.04" y="346.55" width="40.84" height="40.84" fill="#231f20"/>
  <rect x="952.25" y="303.35" width="40.84" height="40.84" fill="#231f20"/>
  <rect x="996.04" y="303.35" width="40.84" height="40.84" fill="#231f20"/>
  <rect x="952.25" y="216.95" width="40.84" height="40.84" fill="#231f20"/>
  <rect x="996.04" y="216.95" width="40.84" height="40.84" fill="#231f20"/>
  <rect x="1038.65" y="216.95" width="40.84" height="40.84" fill="#231f20"/>
  <rect x="951.58" y="1.88" width="40.84" height="40.84" fill="#231f20"/>
  <rect x="908.38" y="1.88" width="40.84" height="40.84" fill="#231f20"/>
  <rect x="994.61" y="1.88" width="40.84" height="40.84" fill="#231f20"/>
  <rect x="1037.88" y="1.88" width="40.84" height="40.84" fill="#231f20"/>
  <rect x="1038.65" y="346.55" width="40.84" height="40.84" fill="#231f20"/>
  <rect x="952.25" y="432.95" width="40.84" height="40.84" fill="#231f20"/>
  <rect x="996.04" y="432.95" width="40.84" height="40.84" fill="#231f20"/>
  <rect x="1038.65" y="432.95" width="40.84" height="40.84" fill="#231f20"/>
  <rect x="217.67" y="434.38" width="40.84" height="40.84" fill="#231f20"/>
  <rect x="260.83" y="434.38" width="40.84" height="40.84" fill="#231f20"/>
  <rect x="304" y="434.38" width="40.84" height="40.84" fill="#231f20"/>
  <rect x="347.16" y="434.38" width="40.84" height="40.84" fill="#231f20"/>
  <rect x="390.33" y="434.38" width="40.84" height="40.84" fill="#231f20"/>
  <rect x="433.49" y="434.38" width="40.84" height="40.84" fill="#231f20"/>
  <rect x="476.65" y="434.38" width="40.84" height="40.84" fill="#231f20"/>
  <rect x="519.77" y="434.11" width="40.84" height="40.84" fill="#231f20"/>
  <rect x="260.65" y="477.55" width="40.84" height="40.84" fill="#231f20"/>
  <rect x="303.83" y="477.55" width="40.84" height="40.84" fill="#231f20"/>
  <rect x="347.01" y="477.55" width="40.84" height="40.84" fill="#231f20"/>
  <rect x="390.19" y="477.55" width="40.84" height="40.84" fill="#231f20"/>
  <rect x="433.37" y="477.55" width="40.84" height="40.84" fill="#231f20"/>
  <rect x="476.55" y="477.55" width="40.84" height="40.84" fill="#231f20"/>
  <rect x="519.77" y="477.33" width="40.84" height="40.84" fill="#231f20"/>
  <rect x="562.91" y="477.55" width="40.84" height="40.84" fill="#231f20"/>
  <rect x="562.5" y="520.8" width="40.84" height="40.84" fill="#231f20"/>
  <rect x="260.65" y="520.8" width="40.84" height="40.84" fill="#231f20"/>
  <rect x="303.77" y="520.8" width="40.84" height="40.84" fill="#231f20"/>
  <rect x="346.89" y="520.8" width="40.84" height="40.84" fill="#231f20"/>
  <rect x="390.01" y="520.8" width="40.84" height="40.84" fill="#231f20"/>
  <rect x="303.7" y="563.78" width="40.84" height="40.84" fill="#231f20"/>
  <rect x="346.9" y="563.78" width="40.84" height="40.84" fill="#231f20"/>
  <rect x="390.1" y="563.78" width="40.84" height="40.84" fill="#231f20"/>
  <rect x="433.14" y="520.8" width="40.84" height="40.84" fill="#231f20"/>
  <rect x="476.26" y="520.8" width="40.84" height="40.84" fill="#231f20"/>
  <rect x="519.77" y="520.56" width="40.84" height="40.84" fill="#231f20"/>
  <rect x="606.08" y="563.78" width="40.84" height="40.84" fill="#231f20"/>
  <rect x="649.28" y="563.78" width="40.84" height="40.84" fill="#231f20"/>
  <rect x="692.48" y="563.78" width="40.84" height="40.84" fill="#231f20"/>
  <rect x="562.89" y="563.78" width="40.84" height="40.84" fill="#231f20"/>
  <rect x="433.29" y="563.78" width="40.84" height="40.84" fill="#231f20"/>
  <rect x="476.49" y="563.78" width="40.84" height="40.84" fill="#231f20"/>
  <rect x="476.5" y="607.01" width="40.84" height="40.84" fill="#231f20"/>
  <rect x="476.5" y="650.22" width="40.84" height="40.84" fill="#231f20"/>
  <rect x="217.17" y="650.56" width="40.84" height="40.84" fill="#231f20"/>
  <rect x="217.17" y="693.42" width="40.84" height="40.84" fill="#231f20"/>
  <rect x="174.14" y="693.42" width="40.84" height="40.84" fill="#231f20"/>
  <rect x="260.29" y="650.56" width="40.84" height="40.84" fill="#231f20"/>
  <rect x="260.29" y="693.42" width="40.84" height="40.84" fill="#231f20"/>
  <rect x="260.29" y="736.69" width="40.84" height="40.84" fill="#231f20"/>
  <rect x="476.5" y="693.42" width="40.84" height="40.84" fill="#231f20"/>
  <rect x="476.5" y="736.63" width="40.84" height="40.84" fill="#231f20"/>
  <rect x="519.76" y="650.16" width="40.84" height="40.84" fill="#231f20"/>
  <rect x="519.76" y="693.37" width="40.84" height="40.84" fill="#231f20"/>
  <rect x="519.76" y="736.59" width="40.84" height="40.84" fill="#231f20"/>
  <rect x="476.5" y="779.84" width="40.84" height="40.84" fill="#231f20"/>
  <rect x="519.76" y="779.8" width="40.84" height="40.84" fill="#231f20"/>
  <rect x="563.56" y="648.95" width="40.84" height="40.84" fill="#231f20"/>
  <rect x="563.56" y="692.15" width="40.84" height="40.84" fill="#231f20"/>
  <rect x="563.56" y="735.35" width="40.84" height="40.84" fill="#231f20"/>
  <rect x="606.93" y="648.95" width="40.84" height="40.84" fill="#231f20"/>
  <rect x="606.93" y="692.15" width="40.84" height="40.84" fill="#231f20"/>
  <rect x="606.93" y="735.35" width="40.84" height="40.84" fill="#231f20"/>
  <rect x="649.27" y="649.63" width="40.84" height="40.84" fill="#231f20"/>
  <rect x="649.27" y="692.83" width="40.84" height="40.84" fill="#231f20"/>
  <rect x="649.27" y="736.03" width="40.84" height="40.84" fill="#231f20"/>
  <rect x="649.27" y="778.55" width="40.84" height="40.84" fill="#231f20"/>
  <rect x="692.6" y="648.95" width="40.84" height="40.84" fill="#231f20"/>
  <rect x="563.56" y="605.75" width="40.84" height="40.84" fill="#231f20"/>
  <rect x="606.93" y="605.75" width="40.84" height="40.84" fill="#231f20"/>
  <rect x="649.27" y="606.43" width="40.84" height="40.84" fill="#231f20"/>
  <rect x="692.6" y="605.75" width="40.84" height="40.84" fill="#231f20"/>
  <rect x="693.19" y="692.15" width="40.84" height="40.84" fill="#231f20"/>
  <rect x="693.19" y="735.35" width="40.84" height="40.84" fill="#231f20"/>
  <rect x="735.67" y="563.78" width="40.84" height="40.84" fill="#231f20"/>
  <rect x="778.87" y="563.78" width="40.84" height="40.84" fill="#231f20"/>
  <rect x="779.45" y="520.71" width="40.84" height="40.84" fill="#231f20"/>
  <rect x="822.07" y="563.78" width="40.84" height="40.84" fill="#231f20"/>
  <rect x="735.6" y="650.29" width="40.84" height="40.84" fill="#231f20"/>
  <rect x="735.6" y="693.49" width="40.84" height="40.84" fill="#231f20"/>
  <rect x="735.6" y="736.69" width="40.84" height="40.84" fill="#231f20"/>
  <rect x="779.45" y="650.31" width="40.84" height="40.84" fill="#231f20"/>
  <rect x="779.45" y="693.51" width="40.84" height="40.84" fill="#231f20"/>
  <rect x="779.45" y="736.71" width="40.84" height="40.84" fill="#231f20"/>
  <rect x="822.08" y="650.29" width="40.84" height="40.84" fill="#231f20"/>
  <rect x="908.53" y="650.2" width="40.84" height="40.84" fill="#231f20"/>
  <rect x="865.34" y="650.29" width="40.84" height="40.84" fill="#231f20"/>
  <rect x="951.78" y="650.29" width="40.84" height="40.84" fill="#231f20"/>
  <rect x="994.77" y="650.2" width="40.84" height="40.84" fill="#231f20"/>
  <rect x="1037.73" y="650.2" width="40.84" height="40.84" fill="#231f20"/>
  <rect x="735.6" y="607.09" width="40.84" height="40.84" fill="#231f20"/>
  <rect x="779.45" y="607.11" width="40.84" height="40.84" fill="#231f20"/>
  <rect x="822.08" y="607.09" width="40.84" height="40.84" fill="#231f20"/>
  <rect x="865.26" y="563.78" width="40.84" height="40.84" fill="#231f20"/>
  <rect x="908.46" y="563.78" width="40.84" height="40.84" fill="#231f20"/>
  <rect x="908.53" y="520.71" width="40.84" height="40.84" fill="#231f20"/>
  <rect x="865.34" y="607.09" width="40.84" height="40.84" fill="#231f20"/>
  <rect x="908.53" y="607.04" width="40.84" height="40.84" fill="#231f20"/>
  <rect x="951.78" y="607.22" width="40.84" height="40.84" fill="#231f20"/>
  <rect x="822.08" y="693.49" width="40.84" height="40.84" fill="#231f20"/>
  <rect x="822.08" y="736.69" width="40.84" height="40.84" fill="#231f20"/>
  <rect x="735.6" y="779.89" width="40.84" height="40.84" fill="#231f20"/>
  <rect x="735.6" y="823.09" width="40.84" height="40.84" fill="#231f20"/>
  <rect x="779.45" y="779.91" width="40.84" height="40.84" fill="#231f20"/>
  <rect x="779.45" y="823.1" width="40.84" height="40.84" fill="#231f20"/>
  <rect x="822.08" y="779.89" width="40.84" height="40.84" fill="#231f20"/>
  <rect x="822.08" y="823.09" width="40.84" height="40.84" fill="#231f20"/>
  <rect x="735.6" y="866.28" width="40.84" height="40.84" fill="#231f20"/>
  <rect x="779.45" y="866.3" width="40.84" height="40.84" fill="#231f20"/>
  <rect x="822.08" y="866.3" width="40.84" height="40.84" fill="#231f20"/>
  <rect x="735.6" y="909.48" width="40.84" height="40.84" fill="#231f20"/>
  <rect x="735.6" y="952.68" width="40.84" height="40.84" fill="#231f20"/>
  <rect x="779.45" y="909.5" width="40.84" height="40.84" fill="#231f20"/>
  <rect x="779.45" y="952.7" width="40.84" height="40.84" fill="#231f20"/>
  <rect x="822.08" y="909.5" width="40.84" height="40.84" fill="#231f20"/>
  <rect x="822.08" y="952.7" width="40.84" height="40.84" fill="#231f20"/>
  <rect x="735.6" y="995.88" width="40.84" height="40.84" fill="#231f20"/>
  <rect x="779.45" y="995.9" width="40.84" height="40.84" fill="#231f20"/>
  <rect x="822.08" y="995.9" width="40.84" height="40.84" fill="#231f20"/>
  <rect x="951.49" y="995.61" width="40.84" height="40.84" fill="#231f20"/>
  <rect x="951.49" y="953.02" width="40.84" height="40.84" fill="#231f20"/>
  <rect x="994.82" y="995.61" width="40.84" height="40.84" fill="#231f20"/>
  <rect x="779.45" y="1039.1" width="40.84" height="40.84" fill="#231f20"/>
  <rect x="822.08" y="1039.1" width="40.84" height="40.84" fill="#231f20"/>
  <rect x="476.5" y="823.05" width="40.84" height="40.84" fill="#231f20"/>
  <rect x="476.5" y="866.26" width="40.84" height="40.84" fill="#231f20"/>
  <rect x="433.32" y="693.42" width="40.84" height="40.84" fill="#231f20"/>
  <rect x="433.32" y="736.63" width="40.84" height="40.84" fill="#231f20"/>
  <rect x="390.01" y="693.42" width="40.84" height="40.84" fill="#231f20"/>
  <rect x="390.01" y="736.63" width="40.84" height="40.84" fill="#231f20"/>
  <rect x="433.32" y="779.84" width="40.84" height="40.84" fill="#231f20"/>
  <rect x="390.01" y="779.84" width="40.84" height="40.84" fill="#231f20"/>
  <rect x="433.32" y="823.05" width="40.84" height="40.84" fill="#231f20"/>
  <rect x="433.32" y="866.26" width="40.84" height="40.84" fill="#231f20"/>
  <rect x="390.01" y="823.05" width="40.84" height="40.84" fill="#231f20"/>
  <rect x="390.01" y="866.26" width="40.84" height="40.84" fill="#231f20"/>
  <rect x="346.94" y="779.84" width="40.84" height="40.84" fill="#231f20"/>
  <rect x="303.73" y="779.84" width="40.84" height="40.84" fill="#231f20"/>
  <rect x="346.94" y="823" width="40.84" height="40.84" fill="#231f20"/>
  <rect x="346.94" y="866.16" width="40.84" height="40.84" fill="#231f20"/>
  <rect x="303.73" y="823.11" width="40.84" height="40.84" fill="#231f20"/>
  <rect x="260.15" y="823.11" width="40.84" height="40.84" fill="#231f20"/>
  <rect x="303.73" y="866.38" width="40.84" height="40.84" fill="#231f20"/>
  <rect x="217.24" y="909.31" width="40.84" height="40.84" fill="#231f20"/>
  <rect x="217.24" y="952.6" width="40.84" height="40.84" fill="#231f20"/>
  <rect x="173.66" y="909.31" width="40.84" height="40.84" fill="#231f20"/>
  <rect x="173.66" y="866.38" width="40.84" height="40.84" fill="#231f20"/>
  <rect x="173.8" y="952.6" width="40.84" height="40.84" fill="#231f20"/>
  <rect x="131.05" y="909.31" width="40.84" height="40.84" fill="#231f20"/>
  <rect x="130.56" y="952.6" width="40.84" height="40.84" fill="#231f20"/>
  <rect x="217.24" y="995.9" width="40.84" height="40.84" fill="#231f20"/>
  <rect x="173.8" y="995.9" width="40.84" height="40.84" fill="#231f20"/>
  <rect x="130.56" y="995.9" width="40.84" height="40.84" fill="#231f20"/>
  <rect x="217.24" y="1038.89" width="40.84" height="40.84" fill="#231f20"/>
  <rect x="173.8" y="1038.89" width="40.84" height="40.84" fill="#231f20"/>
  <rect x="130.56" y="1038.89" width="40.84" height="40.84" fill="#231f20"/>
  <rect x="519.76" y="823.02" width="40.84" height="40.84" fill="#231f20"/>
  <rect x="519.76" y="866.23" width="40.84" height="40.84" fill="#231f20"/>
  <rect x="562.66" y="823" width="40.84" height="40.84" fill="#231f20"/>
  <rect x="562.66" y="866.22" width="40.84" height="40.84" fill="#231f20"/>
  <rect x="606.38" y="823" width="40.84" height="40.84" fill="#231f20"/>
  <rect x="606.38" y="866.22" width="40.84" height="40.84" fill="#231f20"/>
  <rect x="476.5" y="909.47" width="40.84" height="40.84" fill="#231f20"/>
  <rect x="433.32" y="909.47" width="40.84" height="40.84" fill="#231f20"/>
  <rect x="390.01" y="909.47" width="40.84" height="40.84" fill="#231f20"/>
  <rect x="346.94" y="909.31" width="40.84" height="40.84" fill="#231f20"/>
  <rect x="519.76" y="909.45" width="40.84" height="40.84" fill="#231f20"/>
  <rect x="562.66" y="909.44" width="40.84" height="40.84" fill="#231f20"/>
  <rect x="606.38" y="909.44" width="40.84" height="40.84" fill="#231f20"/>
  <rect x="649.27" y="823" width="40.84" height="40.84" fill="#231f20"/>
  <rect x="649.27" y="866.22" width="40.84" height="40.84" fill="#231f20"/>
  <rect x="649.27" y="909.44" width="40.84" height="40.84" fill="#231f20"/>
  <rect x="476.5" y="952.68" width="40.84" height="40.84" fill="#231f20"/>
  <rect x="433.32" y="952.68" width="40.84" height="40.84" fill="#231f20"/>
  <rect x="519.76" y="952.67" width="40.84" height="40.84" fill="#231f20"/>
  <rect x="562.66" y="952.66" width="40.84" height="40.84" fill="#231f20"/>
  <rect x="606.38" y="952.66" width="40.84" height="40.84" fill="#231f20"/>
  <rect x="476.5" y="995.89" width="40.84" height="40.84" fill="#231f20"/>
  <rect x="519.76" y="995.88" width="40.84" height="40.84" fill="#231f20"/>
  <rect x="562.66" y="995.88" width="40.84" height="40.84" fill="#231f20"/>
  <rect x="346.9" y="995.88" width="40.84" height="40.84" fill="#231f20"/>
  <rect x="389.84" y="995.88" width="40.84" height="40.84" fill="#231f20"/>
  <rect x="433.32" y="995.89" width="40.84" height="40.84" fill="#231f20"/>
  <rect x="606.38" y="995.88" width="40.84" height="40.84" fill="#231f20"/>
  <rect x="649.27" y="952.66" width="40.84" height="40.84" fill="#231f20"/>
  <rect x="649.27" y="995.88" width="40.84" height="40.84" fill="#231f20"/>
  <rect x="476.5" y="1039.1" width="40.84" height="40.84" fill="#231f20"/>
  <rect x="519.76" y="1039.1" width="40.84" height="40.84" fill="#231f20"/>
  <rect x="562.66" y="1039.1" width="40.84" height="40.84" fill="#231f20"/>
  <rect x="390.05" y="1039.1" width="40.84" height="40.84" fill="#231f20"/>
  <rect x="433.32" y="1039.1" width="40.84" height="40.84" fill="#231f20"/>
  <rect x="606.38" y="1039.1" width="40.84" height="40.84" fill="#231f20"/>
  <rect x="649.27" y="1039.1" width="40.84" height="40.84" fill="#231f20"/>
  <rect x="519.77" y="563.78" width="40.84" height="40.84" fill="#231f20"/>
  <rect x="346.78" y="218.12" width="40.84" height="40.84" fill="#231f20"/>
  <rect x="389.98" y="218.12" width="40.84" height="40.84" fill="#231f20"/>
  <rect x="346.86" y="174.92" width="40.84" height="40.84" fill="#231f20"/>
  <rect x="346.86" y="88.57" width="40.84" height="40.84" fill="#231f20"/>
  <rect x="303.57" y="174.92" width="40.84" height="40.84" fill="#231f20"/>
  <rect x="303.57" y="131.75" width="40.84" height="40.84" fill="#231f20"/>
  <rect x="390.06" y="174.92" width="40.84" height="40.84" fill="#231f20"/>
  <rect x="433.36" y="131.72" width="40.84" height="40.84" fill="#231f20"/>
  <rect x="476.38" y="131.75" width="40.84" height="40.84" fill="#231f20"/>
  <rect x="519.77" y="131.55" width="40.84" height="40.84" fill="#231f20"/>
  <rect x="433.36" y="88.76" width="40.84" height="40.84" fill="#231f20"/>
  <rect x="476.6" y="88.76" width="40.84" height="40.84" fill="#231f20"/>
  <rect x="519.85" y="88.76" width="40.84" height="40.84" fill="#231f20"/>
  <rect x="433.36" y="45.57" width="40.84" height="40.84" fill="#231f20"/>
  <rect x="476.59" y="45.57" width="40.84" height="40.84" fill="#231f20"/>
  <rect x="519.82" y="45.57" width="40.84" height="40.84" fill="#231f20"/>
  <rect x="433.36" y="2.55" width="40.84" height="40.84" fill="#231f20"/>
  <rect x="346.86" y="45.42" width="40.84" height="40.84" fill="#231f20"/>
  <rect x="346.86" y="2.3" width="40.84" height="40.84" fill="#231f20"/>
  <rect x="476.52" y="2.55" width="40.84" height="40.84" fill="#231f20"/>
  <rect x="519.68" y="2.55" width="40.84" height="40.84" fill="#231f20"/>
  <rect x="562.75" y="88.76" width="40.84" height="40.84" fill="#231f20"/>
  <rect x="606" y="88.76" width="40.84" height="40.84" fill="#231f20"/>
  <rect x="563.05" y="45.57" width="40.84" height="40.84" fill="#231f20"/>
  <rect x="606.29" y="45.57" width="40.84" height="40.84" fill="#231f20"/>
  <rect x="562.84" y="2.55" width="40.84" height="40.84" fill="#231f20"/>
  <rect x="606" y="2.55" width="40.84" height="40.84" fill="#231f20"/>
  <rect x="649.52" y="45.57" width="40.84" height="40.84" fill="#231f20"/>
  <rect x="692.75" y="45.57" width="40.84" height="40.84" fill="#231f20"/>
  <rect x="692.39" y="2.55" width="40.84" height="40.84" fill="#231f20"/>
  <rect x="476.5" y="218.12" width="40.84" height="40.84" fill="#231f20"/>
  <rect x="519.77" y="218" width="40.84" height="40.84" fill="#231f20"/>
  <rect x="519.77" y="174.77" width="40.84" height="40.84" fill="#231f20"/>
  <rect x="346.78" y="260.81" width="40.84" height="40.84" fill="#231f20"/>
  <rect x="390.06" y="260.81" width="40.84" height="40.84" fill="#231f20"/>
  <rect x="433.36" y="260.81" width="40.84" height="40.84" fill="#231f20"/>
  <rect x="476.5" y="260.81" width="40.84" height="40.84" fill="#231f20"/>
  <rect x="519.77" y="260.81" width="40.84" height="40.84" fill="#231f20"/>
  <rect x="562.93" y="218.12" width="40.84" height="40.84" fill="#231f20"/>
  <rect x="606.13" y="218.12" width="40.84" height="40.84" fill="#231f20"/>
  <rect x="562.93" y="260.81" width="40.84" height="40.84" fill="#231f20"/>
  <rect x="606.13" y="260.81" width="40.84" height="40.84" fill="#231f20"/>
  <rect x="606.13" y="304.54" width="40.84" height="40.84" fill="#231f20"/>
  <rect x="606.13" y="347.67" width="40.84" height="40.84" fill="#231f20"/>
  <rect x="562.93" y="347.67" width="40.84" height="40.84" fill="#231f20"/>
  <rect x="346.86" y="304.54" width="40.84" height="40.84" fill="#231f20"/>
  <rect x="390.06" y="303.35" width="40.84" height="40.84" fill="#231f20"/>
  <rect x="433.36" y="303.35" width="40.84" height="40.84" fill="#231f20"/>
  <rect x="476.5" y="304.54" width="40.84" height="40.84" fill="#231f20"/>
  <rect x="519.77" y="304.44" width="40.84" height="40.84" fill="#231f20"/>
  <rect x="346.89" y="347.67" width="40.84" height="40.84" fill="#231f20"/>
  <rect x="390.09" y="347.67" width="40.84" height="40.84" fill="#231f20"/>
  <rect x="433.3" y="347.67" width="40.84" height="40.84" fill="#231f20"/>
  <rect x="476.51" y="347.67" width="40.84" height="40.84" fill="#231f20"/>
  <rect x="519.77" y="347.66" width="40.84" height="40.84" fill="#231f20"/>
  <rect x="146.93" y="317.96" width="13.39" height="13.39" fill="#231f20"/>
  <rect x="274.48" y="317.96" width="13.39" height="13.39" fill="#231f20"/>
  <rect x="274.48" y="273.87" width="13.39" height="13.39" fill="#231f20"/>
  <rect x="274.48" y="360.27" width="13.39" height="13.39" fill="#231f20"/>
  <rect x="317.97" y="317.96" width="13.39" height="13.39" fill="#231f20"/>
  <rect x="577.29" y="317.96" width="13.39" height="13.39" fill="#231f20"/>
  <rect x="317.97" y="273.87" width="13.39" height="13.39" fill="#231f20"/>
  <rect x="274.48" y="230.67" width="13.39" height="13.39" fill="#231f20"/>
  <rect x="317.97" y="230.67" width="13.39" height="13.39" fill="#231f20"/>
  <rect x="189.4" y="230.67" width="13.39" height="13.39" fill="#231f20"/>
  <rect x="232.9" y="230.67" width="13.39" height="13.39" fill="#231f20"/>
  <rect x="145.54" y="446.67" width="13.39" height="13.39" fill="#231f20"/>
  <rect x="189.03" y="446.67" width="13.39" height="13.39" fill="#231f20"/>
  <rect x="145.54" y="403.47" width="13.39" height="13.39" fill="#231f20"/>
  <rect x="145.54" y="360.27" width="13.39" height="13.39" fill="#231f20"/>
  <rect x="145.54" y="489.87" width="13.39" height="13.39" fill="#231f20"/>
  <rect x="189.03" y="489.87" width="13.39" height="13.39" fill="#231f20"/>
  <rect x="231.57" y="489.87" width="13.39" height="13.39" fill="#231f20"/>
  <rect x="231.57" y="534.25" width="13.39" height="13.39" fill="#231f20"/>
  <rect x="144.37" y="578.12" width="13.39" height="13.39" fill="#231f20"/>
  <rect x="187.87" y="578.12" width="13.39" height="13.39" fill="#231f20"/>
  <rect x="230.41" y="578.12" width="13.39" height="13.39" fill="#231f20"/>
  <rect x="274.77" y="578.12" width="13.39" height="13.39" fill="#231f20"/>
  <rect x="187.87" y="620.35" width="13.39" height="13.39" fill="#231f20"/>
  <rect x="230.41" y="620.35" width="13.39" height="13.39" fill="#231f20"/>
  <rect x="188.72" y="749.07" width="13.39" height="13.39" fill="#231f20"/>
  <rect x="145.54" y="749.07" width="13.39" height="13.39" fill="#231f20"/>
  <rect x="231.25" y="749.07" width="13.39" height="13.39" fill="#231f20"/>
  <rect x="274.77" y="620.35" width="13.39" height="13.39" fill="#231f20"/>
  <rect x="319.96" y="620.35" width="13.39" height="13.39" fill="#231f20"/>
  <rect x="364.33" y="620.35" width="13.39" height="13.39" fill="#231f20"/>
  <rect x="319.96" y="661.23" width="13.39" height="13.39" fill="#231f20"/>
  <rect x="364.33" y="661.23" width="13.39" height="13.39" fill="#231f20"/>
  <rect x="319.96" y="706.53" width="13.39" height="13.39" fill="#231f20"/>
  <rect x="364.33" y="706.53" width="13.39" height="13.39" fill="#231f20"/>
  <rect x="319.96" y="747.41" width="13.39" height="13.39" fill="#231f20"/>
  <rect x="15.65" y="792.38" width="13.39" height="13.39" fill="#231f20"/>
  <rect x="15.65" y="833.26" width="13.39" height="13.39" fill="#231f20"/>
  <rect x="317.97" y="922.71" width="13.39" height="13.39" fill="#231f20"/>
  <rect x="317.97" y="963.59" width="13.39" height="13.39" fill="#231f20"/>
  <rect x="362.64" y="963.59" width="13.39" height="13.39" fill="#231f20"/>
  <rect x="405.26" y="963.59" width="13.39" height="13.39" fill="#231f20"/>
  <rect x="578.64" y="793.02" width="13.39" height="13.39" fill="#231f20"/>
  <rect x="621.26" y="793.02" width="13.39" height="13.39" fill="#231f20"/>
  <rect x="15.65" y="878.56" width="13.39" height="13.39" fill="#231f20"/>
  <rect x="275.36" y="1049.78" width="13.39" height="13.39" fill="#231f20"/>
  <rect x="317.97" y="1008.9" width="13.39" height="13.39" fill="#231f20"/>
  <rect x="275.36" y="922.71" width="13.39" height="13.39" fill="#231f20"/>
  <rect x="275.36" y="963.59" width="13.39" height="13.39" fill="#231f20"/>
  <rect x="275.36" y="1008.9" width="13.39" height="13.39" fill="#231f20"/>
  <rect x="317.97" y="1049.78" width="13.39" height="13.39" fill="#231f20"/>
  <rect x="361.17" y="1049.78" width="13.39" height="13.39" fill="#231f20"/>
  <rect x="231.89" y="792.38" width="13.39" height="13.39" fill="#231f20"/>
  <rect x="275.36" y="792.38" width="13.39" height="13.39" fill="#231f20"/>
  <rect x="231.89" y="837.68" width="13.39" height="13.39" fill="#231f20"/>
  <rect x="188.72" y="837.68" width="13.39" height="13.39" fill="#231f20"/>
  <rect x="231.89" y="878.56" width="13.39" height="13.39" fill="#231f20"/>
  <rect x="275.36" y="878.56" width="13.39" height="13.39" fill="#231f20"/>
  <rect x="145.54" y="878.56" width="13.39" height="13.39" fill="#231f20"/>
  <rect x="364.33" y="747.41" width="13.39" height="13.39" fill="#231f20"/>
  <rect x="187.87" y="662.67" width="13.39" height="13.39" fill="#231f20"/>
  <rect x="145.54" y="664.29" width="13.39" height="13.39" fill="#231f20"/>
  <rect x="145.54" y="706.61" width="13.39" height="13.39" fill="#231f20"/>
  <rect x="274.48" y="188.65" width="13.39" height="13.39" fill="#231f20"/>
  <rect x="232.9" y="145.45" width="13.39" height="13.39" fill="#231f20"/>
  <rect x="189.4" y="145.45" width="13.39" height="13.39" fill="#231f20"/>
  <rect x="405.7" y="145.45" width="13.39" height="13.39" fill="#231f20"/>
  <rect x="405.7" y="102.25" width="13.39" height="13.39" fill="#231f20"/>
  <rect x="405.7" y="56.82" width="13.39" height="13.39" fill="#231f20"/>
  <rect x="405.7" y="13.62" width="13.39" height="13.39" fill="#231f20"/>
  <rect x="319.99" y="56.82" width="13.39" height="13.39" fill="#231f20"/>
  <rect x="319.99" y="13.62" width="13.39" height="13.39" fill="#231f20"/>
  <rect x="319.99" y="102.25" width="13.39" height="13.39" fill="#231f20"/>
  <rect x="274.48" y="56.82" width="13.39" height="13.39" fill="#231f20"/>
  <rect x="274.48" y="13.62" width="13.39" height="13.39" fill="#231f20"/>
  <rect x="274.48" y="102.25" width="13.39" height="13.39" fill="#231f20"/>
  <rect x="233.91" y="56.82" width="13.39" height="13.39" fill="#231f20"/>
  <rect x="233.91" y="102.25" width="13.39" height="13.39" fill="#231f20"/>
  <rect x="188.39" y="56.82" width="13.39" height="13.39" fill="#231f20"/>
  <rect x="188.39" y="102.25" width="13.39" height="13.39" fill="#231f20"/>
  <rect x="362.2" y="145.45" width="13.39" height="13.39" fill="#231f20"/>
  <rect x="189.4" y="188.65" width="13.39" height="13.39" fill="#231f20"/>
  <rect x="232.9" y="188.65" width="13.39" height="13.39" fill="#231f20"/>
  <rect x="447.08" y="231.85" width="13.39" height="13.39" fill="#231f20"/>
  <rect x="447.08" y="188.65" width="13.39" height="13.39" fill="#231f20"/>
  <rect x="490.65" y="188.65" width="13.39" height="13.39" fill="#231f20"/>
  <rect x="317.97" y="360.27" width="13.39" height="13.39" fill="#231f20"/>
  <rect x="663" y="318.64" width="13.39" height="13.39" fill="#231f20"/>
  <rect x="663" y="274.55" width="13.39" height="13.39" fill="#231f20"/>
  <rect x="751.59" y="360.27" width="13.39" height="13.39" fill="#231f20"/>
  <rect x="791.99" y="360.27" width="13.39" height="13.39" fill="#231f20"/>
  <rect x="708.1" y="317.96" width="13.39" height="13.39" fill="#231f20"/>
  <rect x="708.1" y="273.87" width="13.39" height="13.39" fill="#231f20"/>
  <rect x="663" y="231.35" width="13.39" height="13.39" fill="#231f20"/>
  <rect x="708.1" y="230.67" width="13.39" height="13.39" fill="#231f20"/>
  <rect x="663" y="189.77" width="13.39" height="13.39" fill="#231f20"/>
  <rect x="663" y="145.69" width="13.39" height="13.39" fill="#231f20"/>
  <rect x="708.1" y="189.09" width="13.39" height="13.39" fill="#231f20"/>
  <rect x="708.1" y="145.01" width="13.39" height="13.39" fill="#231f20"/>
  <rect x="663" y="102.49" width="13.39" height="13.39" fill="#231f20"/>
  <rect x="708.1" y="101.81" width="13.39" height="13.39" fill="#231f20"/>
  <rect x="577.29" y="188.65" width="13.39" height="13.39" fill="#231f20"/>
  <rect x="620.65" y="188.65" width="13.39" height="13.39" fill="#231f20"/>
  <rect x="577.29" y="145.45" width="13.39" height="13.39" fill="#231f20"/>
  <rect x="620.65" y="145.45" width="13.39" height="13.39" fill="#231f20"/>
  <rect x="837.4" y="189.09" width="13.39" height="13.39" fill="#231f20"/>
  <rect x="837.4" y="145.01" width="13.39" height="13.39" fill="#231f20"/>
  <rect x="880.9" y="189.09" width="13.39" height="13.39" fill="#231f20"/>
  <rect x="880.9" y="145.01" width="13.39" height="13.39" fill="#231f20"/>
  <rect x="751" y="188.65" width="13.39" height="13.39" fill="#231f20"/>
  <rect x="794.5" y="188.65" width="13.39" height="13.39" fill="#231f20"/>
  <rect x="751" y="145.45" width="13.39" height="13.39" fill="#231f20"/>
  <rect x="794.5" y="145.45" width="13.39" height="13.39" fill="#231f20"/>
  <rect x="751" y="102.25" width="13.39" height="13.39" fill="#231f20"/>
  <rect x="794.5" y="102.25" width="13.39" height="13.39" fill="#231f20"/>
  <rect x="751" y="59.05" width="13.39" height="13.39" fill="#231f20"/>
  <rect x="794.5" y="59.05" width="13.39" height="13.39" fill="#231f20"/>
  <rect x="837.7" y="102.25" width="13.39" height="13.39" fill="#231f20"/>
  <rect x="837.7" y="59.05" width="13.39" height="13.39" fill="#231f20"/>
  <rect x="1010.2" y="189.09" width="13.39" height="13.39" fill="#231f20"/>
  <rect x="1010.2" y="145.01" width="13.39" height="13.39" fill="#231f20"/>
  <rect x="1053.7" y="189.09" width="13.39" height="13.39" fill="#231f20"/>
  <rect x="1053.7" y="145.01" width="13.39" height="13.39" fill="#231f20"/>
  <rect x="1053.7" y="318.69" width="13.39" height="13.39" fill="#231f20"/>
  <rect x="1053.7" y="274.61" width="13.39" height="13.39" fill="#231f20"/>
  <rect x="923.8" y="188.65" width="13.39" height="13.39" fill="#231f20"/>
  <rect x="967.3" y="188.65" width="13.39" height="13.39" fill="#231f20"/>
  <rect x="923.8" y="145.45" width="13.39" height="13.39" fill="#231f20"/>
  <rect x="967.3" y="145.45" width="13.39" height="13.39" fill="#231f20"/>
  <rect x="880.9" y="102.03" width="13.39" height="13.39" fill="#231f20"/>
  <rect x="1010.2" y="102.03" width="13.39" height="13.39" fill="#231f20"/>
  <rect x="1053.7" y="102.03" width="13.39" height="13.39" fill="#231f20"/>
  <rect x="923.8" y="102.47" width="13.39" height="13.39" fill="#231f20"/>
  <rect x="967.3" y="102.47" width="13.39" height="13.39" fill="#231f20"/>
  <rect x="880.9" y="57.92" width="13.39" height="13.39" fill="#231f20"/>
  <rect x="751" y="16.74" width="13.39" height="13.39" fill="#231f20"/>
  <rect x="663" y="15.56" width="13.39" height="13.39" fill="#231f20"/>
  <rect x="794.5" y="16.74" width="13.39" height="13.39" fill="#231f20"/>
  <rect x="837.7" y="16.74" width="13.39" height="13.39" fill="#231f20"/>
  <rect x="880.9" y="15.61" width="13.39" height="13.39" fill="#231f20"/>
  <rect x="1010.2" y="57.92" width="13.39" height="13.39" fill="#231f20"/>
  <rect x="1053.7" y="57.92" width="13.39" height="13.39" fill="#231f20"/>
  <rect x="923.8" y="58.36" width="13.39" height="13.39" fill="#231f20"/>
  <rect x="967.3" y="58.36" width="13.39" height="13.39" fill="#231f20"/>
  <rect x="837.4" y="275.49" width="13.39" height="13.39" fill="#231f20"/>
  <rect x="837.4" y="231.41" width="13.39" height="13.39" fill="#231f20"/>
  <rect x="880.9" y="275.49" width="13.39" height="13.39" fill="#231f20"/>
  <rect x="880.9" y="231.41" width="13.39" height="13.39" fill="#231f20"/>
  <rect x="923.8" y="275.49" width="13.39" height="13.39" fill="#231f20"/>
  <rect x="923.8" y="231.41" width="13.39" height="13.39" fill="#231f20"/>
  <rect x="967.3" y="275.49" width="13.39" height="13.39" fill="#231f20"/>
  <rect x="1010.79" y="275.05" width="13.39" height="13.39" fill="#231f20"/>
  <rect x="751" y="275.05" width="13.39" height="13.39" fill="#231f20"/>
  <rect x="794.5" y="275.05" width="13.39" height="13.39" fill="#231f20"/>
  <rect x="880.6" y="318.1" width="13.39" height="13.39" fill="#231f20"/>
  <rect x="924.1" y="318.1" width="13.39" height="13.39" fill="#231f20"/>
  <rect x="880.6" y="362.2" width="13.39" height="13.39" fill="#231f20"/>
  <rect x="924.1" y="362.2" width="13.39" height="13.39" fill="#231f20"/>
  <rect x="880.6" y="404.15" width="13.39" height="13.39" fill="#231f20"/>
  <rect x="924.1" y="404.15" width="13.39" height="13.39" fill="#231f20"/>
  <rect x="880.6" y="446.67" width="13.39" height="13.39" fill="#231f20"/>
  <rect x="924.1" y="446.67" width="13.39" height="13.39" fill="#231f20"/>
  <rect x="880.6" y="489.87" width="13.39" height="13.39" fill="#231f20"/>
  <rect x="837.4" y="489.87" width="13.39" height="13.39" fill="#231f20"/>
  <rect x="794.67" y="489.87" width="13.39" height="13.39" fill="#231f20"/>
  <rect x="751.47" y="489.87" width="13.39" height="13.39" fill="#231f20"/>
  <rect x="751.47" y="533.07" width="13.39" height="13.39" fill="#231f20"/>
  <rect x="924.1" y="489.87" width="13.39" height="13.39" fill="#231f20"/>
  <rect x="880.75" y="750.32" width="13.39" height="13.39" fill="#231f20"/>
  <rect x="880.75" y="706.24" width="13.39" height="13.39" fill="#231f20"/>
  <rect x="881.04" y="792.93" width="13.39" height="13.39" fill="#231f20"/>
  <rect x="881.04" y="837.04" width="13.39" height="13.39" fill="#231f20"/>
  <rect x="881.04" y="878.98" width="13.39" height="13.39" fill="#231f20"/>
  <rect x="881.04" y="921.5" width="13.39" height="13.39" fill="#231f20"/>
  <rect x="881.04" y="964.7" width="13.39" height="13.39" fill="#231f20"/>
  <rect x="1011.57" y="964.7" width="13.39" height="13.39" fill="#231f20"/>
  <rect x="881.04" y="1008.61" width="13.39" height="13.39" fill="#231f20"/>
  <rect x="881.04" y="1051.13" width="13.39" height="13.39" fill="#231f20"/>
  <rect x="705.86" y="792.93" width="13.39" height="13.39" fill="#231f20"/>
  <rect x="705.86" y="837.04" width="13.39" height="13.39" fill="#231f20"/>
  <rect x="705.86" y="878.98" width="13.39" height="13.39" fill="#231f20"/>
  <rect x="705.86" y="921.5" width="13.39" height="13.39" fill="#231f20"/>
  <rect x="705.86" y="964.7" width="13.39" height="13.39" fill="#231f20"/>
  <rect x="705.86" y="1008.61" width="13.39" height="13.39" fill="#231f20"/>
  <rect x="705.86" y="1051.13" width="13.39" height="13.39" fill="#231f20"/>
  <rect x="750.65" y="1051.13" width="13.39" height="13.39" fill="#231f20"/>
  <rect x="837.4" y="534.25" width="13.39" height="13.39" fill="#231f20"/>
  <rect x="837.4" y="404.15" width="13.39" height="13.39" fill="#231f20"/>
  <rect x="837.4" y="446.67" width="13.39" height="13.39" fill="#231f20"/>
  <rect x="880.9" y="534.25" width="13.39" height="13.39" fill="#231f20"/>
  <rect x="966.94" y="489.87" width="13.39" height="13.39" fill="#231f20"/>
  <rect x="1011.09" y="489.87" width="13.39" height="13.39" fill="#231f20"/>
  <rect x="1053.7" y="489.87" width="13.39" height="13.39" fill="#231f20"/>
  <rect x="966.94" y="533.07" width="13.39" height="13.39" fill="#231f20"/>
  <rect x="1011.09" y="533.07" width="13.39" height="13.39" fill="#231f20"/>
  <rect x="1053.7" y="533.07" width="13.39" height="13.39" fill="#231f20"/>
  <rect x="1011.09" y="576.27" width="13.39" height="13.39" fill="#231f20"/>
  <rect x="966.94" y="576.27" width="13.39" height="13.39" fill="#231f20"/>
  <rect x="1053.7" y="576.27" width="13.39" height="13.39" fill="#231f20"/>
  <rect x="1011.09" y="706.55" width="13.39" height="13.39" fill="#231f20"/>
  <rect x="966.94" y="706.55" width="13.39" height="13.39" fill="#231f20"/>
  <rect x="1011.09" y="1051.13" width="13.39" height="13.39" fill="#231f20"/>
  <rect x="966.94" y="1051.13" width="13.39" height="13.39" fill="#231f20"/>
  <rect x="922.39" y="706.55" width="13.39" height="13.39" fill="#231f20"/>
  <rect x="1053.7" y="706.55" width="13.39" height="13.39" fill="#231f20"/>
  <rect x="1011.09" y="619.47" width="13.39" height="13.39" fill="#231f20"/>
  <rect x="1053.7" y="619.47" width="13.39" height="13.39" fill="#231f20"/>
  <rect x="751" y="317.66" width="13.39" height="13.39" fill="#231f20"/>
  <rect x="794.5" y="317.66" width="13.39" height="13.39" fill="#231f20"/>
  <rect x="751" y="231.85" width="13.39" height="13.39" fill="#231f20"/>
  <rect x="794.5" y="231.85" width="13.39" height="13.39" fill="#231f20"/>
  <rect x="708.1" y="360.27" width="13.39" height="13.39" fill="#231f20"/>
  <rect x="405.7" y="620.35" width="13.39" height="13.39" fill="#231f20"/>
  <rect x="447.08" y="620.35" width="13.39" height="13.39" fill="#231f20"/>
  <rect x="405.7" y="661.23" width="13.39" height="13.39" fill="#231f20"/>
  <rect x="447.08" y="661.23" width="13.39" height="13.39" fill="#231f20"/>
  <rect x="533.55" y="620.35" width="13.39" height="13.39" fill="#231f20"/>
</svg>