<?xml version="1.0" encoding="UTF-8"?>
<svg id="_17" data-name="17" xmlns="http://www.w3.org/2000/svg" viewBox="0 0 1080 1080">
  <rect x="346.55" y="389.9" width="40.84" height="40.84" fill="#231f20"/>
  <rect x="303.94" y="389.9" width="40.84" height="40.84" fill="#231f20"/>
  <rect x="346.99" y="433.39" width="40.84" height="40.84" fill="#231f20"/>
  <rect x="390.34" y="389.9" width="40.84" height="40.84" fill="#231f20"/>
  <rect x="346.55" y="346.7" width="40.84" height="40.84" fill="#231f20"/>
  <rect x="346.55" y="303.5" width="40.84" height="40.84" fill="#231f20"/>
  <rect x="303.94" y="303.5" width="40.84" height="40.84" fill="#231f20"/>
  <rect x="303.94" y="346.7" width="40.84" height="40.84" fill="#231f20"/>
  <rect x="1.18" y="303.5" width="40.84" height="40.84" fill="#231f20"/>
  <rect x="1.18" y="217.1" width="40.84" height="40.84" fill="#231f20"/>
  <rect x="1.18" y="260.3" width="40.84" height="40.84" fill="#231f20"/>
  <rect x="44.38" y="217.1" width="40.84" height="40.84" fill="#231f20"/>
  <rect x="1.18" y="173.9" width="40.84" height="40.84" fill="#231f20"/>
  <rect x="44.38" y="173.9" width="40.84" height="40.84" fill="#231f20"/>
  <rect x="44.38" y="260.3" width="40.84" height="40.84" fill="#231f20"/>
  <rect x="390.34" y="346.7" width="40.84" height="40.84" fill="#231f20"/>
  <rect x="390.11" y="433.39" width="40.84" height="40.84" fill="#231f20"/>
  <rect x="346.55" y="476.3" width="40.84" height="40.84" fill="#231f20"/>
  <rect x="346.55" y="519.5" width="40.84" height="40.84" fill="#231f20"/>
  <rect x="390.34" y="476.3" width="40.84" height="40.84" fill="#231f20"/>
  <rect x="390.34" y="519.5" width="40.84" height="40.84" fill="#231f20"/>
  <rect x="433.54" y="476.3" width="40.84" height="40.84" fill="#231f20"/>
  <rect x="433.54" y="519.5" width="40.84" height="40.84" fill="#231f20"/>
  <rect x="476.21" y="476.28" width="40.84" height="40.84" fill="#231f20"/>
  <rect x="476.21" y="519.46" width="40.84" height="40.84" fill="#231f20"/>
  <rect x="303.31" y="605.73" width="40.84" height="40.84" fill="#231f20"/>
  <rect x="346.54" y="605.73" width="40.84" height="40.84" fill="#231f20"/>
  <rect x="389.78" y="605.73" width="40.84" height="40.84" fill="#231f20"/>
  <rect x="433.01" y="605.73" width="40.84" height="40.84" fill="#231f20"/>
  <rect x="389.68" y="562.61" width="40.84" height="40.84" fill="#231f20"/>
  <rect x="432.97" y="562.61" width="40.84" height="40.84" fill="#231f20"/>
  <rect x="476.21" y="605.82" width="40.84" height="40.84" fill="#231f20"/>
  <rect x="519.58" y="605.73" width="40.84" height="40.84" fill="#231f20"/>
  <rect x="476.21" y="562.64" width="40.84" height="40.84" fill="#231f20"/>
  <rect x="519.58" y="562.55" width="40.84" height="40.84" fill="#231f20"/>
  <rect x="562.71" y="605.73" width="40.84" height="40.84" fill="#231f20"/>
  <rect x="605.94" y="605.73" width="40.84" height="40.84" fill="#231f20"/>
  <rect x="562.82" y="562.61" width="40.84" height="40.84" fill="#231f20"/>
  <rect x="606.11" y="562.61" width="40.84" height="40.84" fill="#231f20"/>
  <rect x="649.17" y="605.73" width="40.84" height="40.84" fill="#231f20"/>
  <rect x="692.48" y="605.73" width="40.84" height="40.84" fill="#231f20"/>
  <rect x="649.39" y="562.61" width="40.84" height="40.84" fill="#231f20"/>
  <rect x="519.58" y="519.37" width="40.84" height="40.84" fill="#231f20"/>
  <rect x="519.58" y="476.19" width="40.84" height="40.84" fill="#231f20"/>
  <rect x="563.14" y="519.14" width="40.84" height="40.84" fill="#231f20"/>
  <rect x="606.93" y="519.14" width="40.84" height="40.84" fill="#231f20"/>
  <rect x="563.14" y="476.12" width="40.84" height="40.84" fill="#231f20"/>
  <rect x="87.94" y="649.47" width="40.84" height="40.84" fill="#231f20"/>
  <rect x="88.53" y="692.67" width="40.84" height="40.84" fill="#231f20"/>
  <rect x="87.94" y="778.91" width="40.84" height="40.84" fill="#231f20"/>
  <rect x="131.73" y="778.91" width="40.84" height="40.84" fill="#231f20"/>
  <rect x="87.94" y="735.96" width="40.84" height="40.84" fill="#231f20"/>
  <rect x="130.94" y="735.96" width="40.84" height="40.84" fill="#231f20"/>
  <rect x="174.34" y="778.91" width="40.84" height="40.84" fill="#231f20"/>
  <rect x="216.95" y="778.91" width="40.84" height="40.84" fill="#231f20"/>
  <rect x="260.74" y="778.91" width="40.84" height="40.84" fill="#231f20"/>
  <rect x="303.94" y="778.91" width="40.84" height="40.84" fill="#231f20"/>
  <rect x="303.94" y="822.27" width="40.84" height="40.84" fill="#231f20"/>
  <rect x="347.14" y="822.27" width="40.84" height="40.84" fill="#231f20"/>
  <rect x="130.79" y="822.1" width="40.84" height="40.84" fill="#231f20"/>
  <rect x="174.34" y="822.1" width="40.84" height="40.84" fill="#231f20"/>
  <rect x="173.94" y="735.96" width="40.84" height="40.84" fill="#231f20"/>
  <rect x="216.95" y="735.96" width="40.84" height="40.84" fill="#231f20"/>
  <rect x="131.43" y="692.67" width="40.84" height="40.84" fill="#231f20"/>
  <rect x="130.96" y="649.47" width="40.84" height="40.84" fill="#231f20"/>
  <rect x="174.34" y="692.67" width="40.84" height="40.84" fill="#231f20"/>
  <rect x="173.98" y="649.47" width="40.84" height="40.84" fill="#231f20"/>
  <rect x="44.35" y="908.3" width="40.84" height="40.84" fill="#231f20"/>
  <rect x="44.35" y="951.42" width="40.84" height="40.84" fill="#231f20"/>
  <rect x="44.35" y="1037.65" width="40.84" height="40.84" fill="#231f20"/>
  <rect x="88.01" y="1037.72" width="40.84" height="40.84" fill="#231f20"/>
  <rect x="44.35" y="994.54" width="40.84" height="40.84" fill="#231f20"/>
  <rect x="1.14" y="908.13" width="40.84" height="40.84" fill="#231f20"/>
  <rect x="1.14" y="951.31" width="40.84" height="40.84" fill="#231f20"/>
  <rect x="1.14" y="1037.65" width="40.84" height="40.84" fill="#231f20"/>
  <rect x="1.14" y="994.48" width="40.84" height="40.84" fill="#231f20"/>
  <rect x="1.14" y="735.44" width="40.84" height="40.84" fill="#231f20"/>
  <rect x="1.14" y="778.62" width="40.84" height="40.84" fill="#231f20"/>
  <rect x="1.14" y="864.96" width="40.84" height="40.84" fill="#231f20"/>
  <rect x="1.14" y="821.79" width="40.84" height="40.84" fill="#231f20"/>
  <rect x="1.14" y="562.75" width="40.84" height="40.84" fill="#231f20"/>
  <rect x="1.14" y="519.58" width="40.84" height="40.84" fill="#231f20"/>
  <rect x="1.14" y="605.92" width="40.84" height="40.84" fill="#231f20"/>
  <rect x="1.14" y="692.27" width="40.84" height="40.84" fill="#231f20"/>
  <rect x="1.14" y="649.1" width="40.84" height="40.84" fill="#231f20"/>
  <rect x="88.01" y="994.58" width="40.84" height="40.84" fill="#231f20"/>
  <rect x="130.69" y="1037.65" width="40.84" height="40.84" fill="#231f20"/>
  <rect x="174.34" y="1037.47" width="40.84" height="40.84" fill="#231f20"/>
  <rect x="130.69" y="994.58" width="40.84" height="40.84" fill="#231f20"/>
  <rect x="88.01" y="951.44" width="40.84" height="40.84" fill="#231f20"/>
  <rect x="88.01" y="908.3" width="40.84" height="40.84" fill="#231f20"/>
  <rect x="130.69" y="951.5" width="40.84" height="40.84" fill="#231f20"/>
  <rect x="433.22" y="389.9" width="40.84" height="40.84" fill="#231f20"/>
  <rect x="433.22" y="433.39" width="40.84" height="40.84" fill="#231f20"/>
  <rect x="476.21" y="389.92" width="40.84" height="40.84" fill="#231f20"/>
  <rect x="476.21" y="433.1" width="40.84" height="40.84" fill="#231f20"/>
  <rect x="519.58" y="433.01" width="40.84" height="40.84" fill="#231f20"/>
  <rect x="519.58" y="389.83" width="40.84" height="40.84" fill="#231f20"/>
  <rect x="433.54" y="346.7" width="40.84" height="40.84" fill="#231f20"/>
  <rect x="476.21" y="346.74" width="40.84" height="40.84" fill="#231f20"/>
  <rect x="519.58" y="346.65" width="40.84" height="40.84" fill="#231f20"/>
  <rect x="433.54" y="303.5" width="40.84" height="40.84" fill="#231f20"/>
  <rect x="476.21" y="303.55" width="40.84" height="40.84" fill="#231f20"/>
  <rect x="519.58" y="303.46" width="40.84" height="40.84" fill="#231f20"/>
  <rect x="433.54" y="260.31" width="40.84" height="40.84" fill="#231f20"/>
  <rect x="476.7" y="260.31" width="40.84" height="40.84" fill="#231f20"/>
  <rect x="519.85" y="260.31" width="40.84" height="40.84" fill="#231f20"/>
  <rect x="563.01" y="260.31" width="40.84" height="40.84" fill="#231f20"/>
  <rect x="606.17" y="260.31" width="40.84" height="40.84" fill="#231f20"/>
  <rect x="649.33" y="260.31" width="40.84" height="40.84" fill="#231f20"/>
  <rect x="692.49" y="260.31" width="40.84" height="40.84" fill="#231f20"/>
  <rect x="735.64" y="260.31" width="40.84" height="40.84" fill="#231f20"/>
  <rect x="649.33" y="303.5" width="40.84" height="40.84" fill="#231f20"/>
  <rect x="692.49" y="303.5" width="40.84" height="40.84" fill="#231f20"/>
  <rect x="735.64" y="303.5" width="40.84" height="40.84" fill="#231f20"/>
  <rect x="778.8" y="260.31" width="40.84" height="40.84" fill="#231f20"/>
  <rect x="821.96" y="260.31" width="40.84" height="40.84" fill="#231f20"/>
  <rect x="865.12" y="260.31" width="40.84" height="40.84" fill="#231f20"/>
  <rect x="778.8" y="303.5" width="40.84" height="40.84" fill="#231f20"/>
  <rect x="821.96" y="303.5" width="40.84" height="40.84" fill="#231f20"/>
  <rect x="865.12" y="303.5" width="40.84" height="40.84" fill="#231f20"/>
  <rect x="908.27" y="260.31" width="40.84" height="40.84" fill="#231f20"/>
  <rect x="908.27" y="303.5" width="40.84" height="40.84" fill="#231f20"/>
  <rect x="778.39" y="173.9" width="40.84" height="40.84" fill="#231f20"/>
  <rect x="821.71" y="173.9" width="40.84" height="40.84" fill="#231f20"/>
  <rect x="865.03" y="173.9" width="40.84" height="40.84" fill="#231f20"/>
  <rect x="778.48" y="217.1" width="40.84" height="40.84" fill="#231f20"/>
  <rect x="821.68" y="217.1" width="40.84" height="40.84" fill="#231f20"/>
  <rect x="864.88" y="217.1" width="40.84" height="40.84" fill="#231f20"/>
  <rect x="908.35" y="173.9" width="40.84" height="40.84" fill="#231f20"/>
  <rect x="822.34" y="130.7" width="40.84" height="40.84" fill="#231f20"/>
  <rect x="864.88" y="130.7" width="40.84" height="40.84" fill="#231f20"/>
  <rect x="779.47" y="87.48" width="40.84" height="40.84" fill="#231f20"/>
  <rect x="736" y="87.48" width="40.84" height="40.84" fill="#231f20"/>
  <rect x="822.93" y="87.48" width="40.84" height="40.84" fill="#231f20"/>
  <rect x="779.58" y="44.31" width="40.84" height="40.84" fill="#231f20"/>
  <rect x="736.24" y="44.31" width="40.84" height="40.84" fill="#231f20"/>
  <rect x="822.93" y="44.31" width="40.84" height="40.84" fill="#231f20"/>
  <rect x="908.08" y="130.7" width="40.84" height="40.84" fill="#231f20"/>
  <rect x="908.08" y="217.1" width="40.84" height="40.84" fill="#231f20"/>
  <rect x="951.67" y="173.9" width="40.84" height="40.84" fill="#231f20"/>
  <rect x="951.87" y="217.1" width="40.84" height="40.84" fill="#231f20"/>
  <rect x="994.98" y="173.9" width="40.84" height="40.84" fill="#231f20"/>
  <rect x="995.07" y="217.1" width="40.84" height="40.84" fill="#231f20"/>
  <rect x="908.27" y="346.7" width="40.84" height="40.84" fill="#231f20"/>
  <rect x="951.43" y="260.31" width="40.84" height="40.84" fill="#231f20"/>
  <rect x="994.59" y="260.31" width="40.84" height="40.84" fill="#231f20"/>
  <rect x="1037.75" y="260.31" width="40.84" height="40.84" fill="#231f20"/>
  <rect x="951.43" y="303.5" width="40.84" height="40.84" fill="#231f20"/>
  <rect x="994.59" y="303.5" width="40.84" height="40.84" fill="#231f20"/>
  <rect x="1037.75" y="303.5" width="40.84" height="40.84" fill="#231f20"/>
  <rect x="692.15" y="346.69" width="40.84" height="40.84" fill="#231f20"/>
  <rect x="692.61" y="130.72" width="40.84" height="40.84" fill="#231f20"/>
  <rect x="692.61" y="173.8" width="40.84" height="40.84" fill="#231f20"/>
  <rect x="692.9" y="44.31" width="40.84" height="40.84" fill="#231f20"/>
  <rect x="692.54" y="87.48" width="40.84" height="40.84" fill="#231f20"/>
  <rect x="649.08" y="130.72" width="40.84" height="40.84" fill="#231f20"/>
  <rect x="649.55" y="44.31" width="40.84" height="40.84" fill="#231f20"/>
  <rect x="692.61" y="1.29" width="40.84" height="40.84" fill="#231f20"/>
  <rect x="649.45" y="1.29" width="40.84" height="40.84" fill="#231f20"/>
  <rect x="606.21" y="44.31" width="40.84" height="40.84" fill="#231f20"/>
  <rect x="606.3" y="1.29" width="40.84" height="40.84" fill="#231f20"/>
  <rect x="563.14" y="1.29" width="40.84" height="40.84" fill="#231f20"/>
  <rect x="649.08" y="87.48" width="40.84" height="40.84" fill="#231f20"/>
  <rect x="692.61" y="216.88" width="40.84" height="40.84" fill="#231f20"/>
  <rect x="735.35" y="346.69" width="40.84" height="40.84" fill="#231f20"/>
  <rect x="433.54" y="217.1" width="40.84" height="40.84" fill="#231f20"/>
  <rect x="433.54" y="44.32" width="40.84" height="40.84" fill="#231f20"/>
  <rect x="476.21" y="217.19" width="40.84" height="40.84" fill="#231f20"/>
  <rect x="519.58" y="217.1" width="40.84" height="40.84" fill="#231f20"/>
  <rect x="562.57" y="433.39" width="40.84" height="40.84" fill="#231f20"/>
  <rect x="605.68" y="433.39" width="40.84" height="40.84" fill="#231f20"/>
  <rect x="562.57" y="389.83" width="40.84" height="40.84" fill="#231f20"/>
  <rect x="606.93" y="476.12" width="40.84" height="40.84" fill="#231f20"/>
  <rect x="649.54" y="519.32" width="40.84" height="40.84" fill="#231f20"/>
  <rect x="692.48" y="519.32" width="40.84" height="40.84" fill="#231f20"/>
  <rect x="649.54" y="476.3" width="40.84" height="40.84" fill="#231f20"/>
  <rect x="692.48" y="476.12" width="40.84" height="40.84" fill="#231f20"/>
  <rect x="692.48" y="562.61" width="40.84" height="40.84" fill="#231f20"/>
  <rect x="735.63" y="692.03" width="40.84" height="40.84" fill="#231f20"/>
  <rect x="735.62" y="648.88" width="40.84" height="40.84" fill="#231f20"/>
  <rect x="778.85" y="692.03" width="40.84" height="40.84" fill="#231f20"/>
  <rect x="822.07" y="692.03" width="40.84" height="40.84" fill="#231f20"/>
  <rect x="865.28" y="692.03" width="40.84" height="40.84" fill="#231f20"/>
  <rect x="865.28" y="648.88" width="40.84" height="40.84" fill="#231f20"/>
  <rect x="865.28" y="606.26" width="40.84" height="40.84" fill="#231f20"/>
  <rect x="908.5" y="692.03" width="40.84" height="40.84" fill="#231f20"/>
  <rect x="735.57" y="735.43" width="40.84" height="40.84" fill="#231f20"/>
  <rect x="778.86" y="735.43" width="40.84" height="40.84" fill="#231f20"/>
  <rect x="822.15" y="735.43" width="40.84" height="40.84" fill="#231f20"/>
  <rect x="778.84" y="648.88" width="40.84" height="40.84" fill="#231f20"/>
  <rect x="822.06" y="648.88" width="40.84" height="40.84" fill="#231f20"/>
  <rect x="822.15" y="821.87" width="40.84" height="40.84" fill="#231f20"/>
  <rect x="822.15" y="864.95" width="40.84" height="40.84" fill="#231f20"/>
  <rect x="822.15" y="778.43" width="40.84" height="40.84" fill="#231f20"/>
  <rect x="649.2" y="692.03" width="40.84" height="40.84" fill="#231f20"/>
  <rect x="692.48" y="692.03" width="40.84" height="40.84" fill="#231f20"/>
  <rect x="649.18" y="648.88" width="40.84" height="40.84" fill="#231f20"/>
  <rect x="605.97" y="648.88" width="40.84" height="40.84" fill="#231f20"/>
  <rect x="692.48" y="648.88" width="40.84" height="40.84" fill="#231f20"/>
  <rect x="649.33" y="778.88" width="40.84" height="40.84" fill="#231f20"/>
  <rect x="692.48" y="778.88" width="40.84" height="40.84" fill="#231f20"/>
  <rect x="735.35" y="778.88" width="40.84" height="40.84" fill="#231f20"/>
  <rect x="648.99" y="735.43" width="40.84" height="40.84" fill="#231f20"/>
  <rect x="605.54" y="778.88" width="40.84" height="40.84" fill="#231f20"/>
  <rect x="605.7" y="735.43" width="40.84" height="40.84" fill="#231f20"/>
  <rect x="649.54" y="864.95" width="40.84" height="40.84" fill="#231f20"/>
  <rect x="649.33" y="821.93" width="40.84" height="40.84" fill="#231f20"/>
  <rect x="605.88" y="821.93" width="40.84" height="40.84" fill="#231f20"/>
  <rect x="649.19" y="951.83" width="40.84" height="40.84" fill="#231f20"/>
  <rect x="648.82" y="908.17" width="40.84" height="40.84" fill="#231f20"/>
  <rect x="649.23" y="1037.72" width="40.84" height="40.84" fill="#231f20"/>
  <rect x="649.19" y="994.94" width="40.84" height="40.84" fill="#231f20"/>
  <rect x="605.99" y="994.94" width="40.84" height="40.84" fill="#231f20"/>
  <rect x="692.48" y="864.95" width="40.84" height="40.84" fill="#231f20"/>
  <rect x="692.48" y="951.83" width="40.84" height="40.84" fill="#231f20"/>
  <rect x="692.48" y="908.17" width="40.84" height="40.84" fill="#231f20"/>
  <rect x="692.48" y="1037.72" width="40.84" height="40.84" fill="#231f20"/>
  <rect x="562.83" y="1037.72" width="40.84" height="40.84" fill="#231f20"/>
  <rect x="606.03" y="1037.72" width="40.84" height="40.84" fill="#231f20"/>
  <rect x="692.48" y="994.94" width="40.84" height="40.84" fill="#231f20"/>
  <rect x="735.6" y="951.83" width="40.84" height="40.84" fill="#231f20"/>
  <rect x="735.33" y="908.17" width="40.84" height="40.84" fill="#231f20"/>
  <rect x="735.6" y="994.94" width="40.84" height="40.84" fill="#231f20"/>
  <rect x="778.8" y="951.83" width="40.84" height="40.84" fill="#231f20"/>
  <rect x="778.59" y="908.17" width="40.84" height="40.84" fill="#231f20"/>
  <rect x="778.8" y="994.94" width="40.84" height="40.84" fill="#231f20"/>
  <rect x="822.01" y="951.83" width="40.84" height="40.84" fill="#231f20"/>
  <rect x="821.85" y="908.17" width="40.84" height="40.84" fill="#231f20"/>
  <rect x="822.01" y="994.94" width="40.84" height="40.84" fill="#231f20"/>
  <rect x="865.21" y="951.83" width="40.84" height="40.84" fill="#231f20"/>
  <rect x="865.1" y="908.17" width="40.84" height="40.84" fill="#231f20"/>
  <rect x="865.21" y="994.94" width="40.84" height="40.84" fill="#231f20"/>
  <rect x="908.41" y="951.83" width="40.84" height="40.84" fill="#231f20"/>
  <rect x="908.36" y="908.17" width="40.84" height="40.84" fill="#231f20"/>
  <rect x="908.41" y="994.94" width="40.84" height="40.84" fill="#231f20"/>
  <rect x="951.62" y="951.83" width="40.84" height="40.84" fill="#231f20"/>
  <rect x="951.62" y="908.17" width="40.84" height="40.84" fill="#231f20"/>
  <rect x="865.31" y="864.95" width="40.84" height="40.84" fill="#231f20"/>
  <rect x="865.48" y="821.87" width="40.84" height="40.84" fill="#231f20"/>
  <rect x="908.46" y="864.95" width="40.84" height="40.84" fill="#231f20"/>
  <rect x="908.48" y="821.87" width="40.84" height="40.84" fill="#231f20"/>
  <rect x="951.62" y="864.95" width="40.84" height="40.84" fill="#231f20"/>
  <rect x="951.48" y="821.87" width="40.84" height="40.84" fill="#231f20"/>
  <rect x="994.88" y="778.45" width="40.84" height="40.84" fill="#231f20"/>
  <rect x="1037.93" y="778.45" width="40.84" height="40.84" fill="#231f20"/>
  <rect x="994.48" y="821.87" width="40.84" height="40.84" fill="#231f20"/>
  <rect x="1037.93" y="821.87" width="40.84" height="40.84" fill="#231f20"/>
  <rect x="1037.93" y="735.48" width="40.84" height="40.84" fill="#231f20"/>
  <rect x="951.62" y="994.94" width="40.84" height="40.84" fill="#231f20"/>
  <rect x="735.63" y="1037.72" width="40.84" height="40.84" fill="#231f20"/>
  <rect x="778.83" y="1037.72" width="40.84" height="40.84" fill="#231f20"/>
  <rect x="822.02" y="1037.72" width="40.84" height="40.84" fill="#231f20"/>
  <rect x="865.22" y="1037.72" width="40.84" height="40.84" fill="#231f20"/>
  <rect x="908.42" y="1037.72" width="40.84" height="40.84" fill="#231f20"/>
  <rect x="951.62" y="1037.72" width="40.84" height="40.84" fill="#231f20"/>
  <rect x="994.82" y="994.94" width="40.84" height="40.84" fill="#231f20"/>
  <rect x="1038.02" y="994.94" width="40.84" height="40.84" fill="#231f20"/>
  <rect x="994.82" y="1037.72" width="40.84" height="40.84" fill="#231f20"/>
  <rect x="1038.02" y="1037.72" width="40.84" height="40.84" fill="#231f20"/>
  <rect x="692.48" y="735.43" width="40.84" height="40.84" fill="#231f20"/>
  <rect x="303.87" y="433.39" width="40.84" height="40.84" fill="#231f20"/>
  <rect x="276.41" y="403.63" width="13.39" height="13.39" fill="#231f20"/>
  <rect x="276.41" y="446.83" width="13.39" height="13.39" fill="#231f20"/>
  <rect x="276.41" y="318.41" width="13.39" height="13.39" fill="#231f20"/>
  <rect x="276.41" y="361.61" width="13.39" height="13.39" fill="#231f20"/>
  <rect x="58.46" y="578.18" width="13.39" height="13.39" fill="#231f20"/>
  <rect x="58.46" y="621.38" width="13.39" height="13.39" fill="#231f20"/>
  <rect x="58.46" y="492.95" width="13.39" height="13.39" fill="#231f20"/>
  <rect x="15.26" y="492.95" width="13.39" height="13.39" fill="#231f20"/>
  <rect x="58.46" y="361.61" width="13.39" height="13.39" fill="#231f20"/>
  <rect x="58.46" y="318.41" width="13.39" height="13.39" fill="#231f20"/>
  <rect x="15.26" y="361.61" width="13.39" height="13.39" fill="#231f20"/>
  <rect x="58.46" y="536.15" width="13.39" height="13.39" fill="#231f20"/>
  <rect x="58.46" y="749.82" width="13.39" height="13.39" fill="#231f20"/>
  <rect x="58.46" y="793.02" width="13.39" height="13.39" fill="#231f20"/>
  <rect x="58.46" y="836.81" width="13.39" height="13.39" fill="#231f20"/>
  <rect x="58.46" y="880.01" width="13.39" height="13.39" fill="#231f20"/>
  <rect x="620.65" y="878.63" width="13.39" height="13.39" fill="#231f20"/>
  <rect x="620.65" y="922.42" width="13.39" height="13.39" fill="#231f20"/>
  <rect x="620.65" y="965.62" width="13.39" height="13.39" fill="#231f20"/>
  <rect x="1008.86" y="878.63" width="13.39" height="13.39" fill="#231f20"/>
  <rect x="1008.86" y="922.42" width="13.39" height="13.39" fill="#231f20"/>
  <rect x="1008.86" y="965.62" width="13.39" height="13.39" fill="#231f20"/>
  <rect x="1052.29" y="878.63" width="13.39" height="13.39" fill="#231f20"/>
  <rect x="1052.29" y="922.42" width="13.39" height="13.39" fill="#231f20"/>
  <rect x="1052.29" y="965.62" width="13.39" height="13.39" fill="#231f20"/>
  <rect x="576.86" y="748.66" width="13.39" height="13.39" fill="#231f20"/>
  <rect x="576.86" y="792.45" width="13.39" height="13.39" fill="#231f20"/>
  <rect x="576.86" y="835.65" width="13.39" height="13.39" fill="#231f20"/>
  <rect x="491.64" y="836.81" width="13.39" height="13.39" fill="#231f20"/>
  <rect x="491.64" y="880.01" width="13.39" height="13.39" fill="#231f20"/>
  <rect x="751.43" y="490.91" width="13.39" height="13.39" fill="#231f20"/>
  <rect x="751.43" y="534.7" width="13.39" height="13.39" fill="#231f20"/>
  <rect x="751.43" y="577.9" width="13.39" height="13.39" fill="#231f20"/>
  <rect x="576.79" y="1007.22" width="13.39" height="13.39" fill="#231f20"/>
  <rect x="535.46" y="1052.76" width="13.39" height="13.39" fill="#231f20"/>
  <rect x="490.34" y="1052.76" width="13.39" height="13.39" fill="#231f20"/>
  <rect x="490.34" y="1007.22" width="13.39" height="13.39" fill="#231f20"/>
  <rect x="101.66" y="836.81" width="13.39" height="13.39" fill="#231f20"/>
  <rect x="101.66" y="880.01" width="13.39" height="13.39" fill="#231f20"/>
  <rect x="146.04" y="880.01" width="13.39" height="13.39" fill="#231f20"/>
  <rect x="101.66" y="621.38" width="13.39" height="13.39" fill="#231f20"/>
  <rect x="145.45" y="621.38" width="13.39" height="13.39" fill="#231f20"/>
  <rect x="189.04" y="621.38" width="13.39" height="13.39" fill="#231f20"/>
  <rect x="232.83" y="621.38" width="13.39" height="13.39" fill="#231f20"/>
  <rect x="319.43" y="276.01" width="13.39" height="13.39" fill="#231f20"/>
  <rect x="363.22" y="276.01" width="13.39" height="13.39" fill="#231f20"/>
  <rect x="16.15" y="145.61" width="13.39" height="13.39" fill="#231f20"/>
  <rect x="59.94" y="145.61" width="13.39" height="13.39" fill="#231f20"/>
  <rect x="405.98" y="318.41" width="13.39" height="13.39" fill="#231f20"/>
  <rect x="405.98" y="276.01" width="13.39" height="13.39" fill="#231f20"/>
  <rect x="146.04" y="922.12" width="13.39" height="13.39" fill="#231f20"/>
  <rect x="188.06" y="964.94" width="13.39" height="13.39" fill="#231f20"/>
  <rect x="188.06" y="1007.05" width="13.39" height="13.39" fill="#231f20"/>
  <rect x="232.89" y="1008.24" width="13.39" height="13.39" fill="#231f20"/>
  <rect x="232.89" y="1050.36" width="13.39" height="13.39" fill="#231f20"/>
  <rect x="188.06" y="880.35" width="13.39" height="13.39" fill="#231f20"/>
  <rect x="231.26" y="836" width="13.39" height="13.39" fill="#231f20"/>
  <rect x="274.46" y="836" width="13.39" height="13.39" fill="#231f20"/>
  <rect x="275.94" y="748.51" width="13.39" height="13.39" fill="#231f20"/>
  <rect x="232.89" y="706.58" width="13.39" height="13.39" fill="#231f20"/>
  <rect x="232.89" y="664.6" width="13.39" height="13.39" fill="#231f20"/>
  <rect x="319.14" y="748.51" width="13.39" height="13.39" fill="#231f20"/>
  <rect x="231.26" y="880.01" width="13.39" height="13.39" fill="#231f20"/>
  <rect x="880.96" y="791.71" width="13.39" height="13.39" fill="#231f20"/>
  <rect x="924.16" y="791.71" width="13.39" height="13.39" fill="#231f20"/>
  <rect x="881.55" y="751.36" width="13.39" height="13.39" fill="#231f20"/>
  <rect x="924.75" y="751.36" width="13.39" height="13.39" fill="#231f20"/>
  <rect x="924.75" y="662.47" width="13.39" height="13.39" fill="#231f20"/>
  <rect x="966.18" y="705.67" width="13.39" height="13.39" fill="#231f20"/>
  <rect x="924.75" y="619.45" width="13.39" height="13.39" fill="#231f20"/>
  <rect x="880.96" y="577.81" width="13.39" height="13.39" fill="#231f20"/>
  <rect x="1009.45" y="751.36" width="13.39" height="13.39" fill="#231f20"/>
  <rect x="1052.29" y="705.67" width="13.39" height="13.39" fill="#231f20"/>
  <rect x="1053.39" y="662.65" width="13.39" height="13.39" fill="#231f20"/>
  <rect x="966.18" y="791.71" width="13.39" height="13.39" fill="#231f20"/>
  <rect x="751.43" y="619.45" width="13.39" height="13.39" fill="#231f20"/>
  <rect x="794.63" y="619.45" width="13.39" height="13.39" fill="#231f20"/>
  <rect x="836.65" y="619.45" width="13.39" height="13.39" fill="#231f20"/>
  <rect x="706.2" y="835.18" width="13.39" height="13.39" fill="#231f20"/>
  <rect x="751.28" y="835.18" width="13.39" height="13.39" fill="#231f20"/>
  <rect x="793.3" y="835.18" width="13.39" height="13.39" fill="#231f20"/>
  <rect x="793.3" y="791.53" width="13.39" height="13.39" fill="#231f20"/>
  <rect x="491.64" y="662.47" width="13.39" height="13.39" fill="#231f20"/>
  <rect x="447.26" y="662.47" width="13.39" height="13.39" fill="#231f20"/>
  <rect x="534.84" y="662.47" width="13.39" height="13.39" fill="#231f20"/>
  <rect x="576.86" y="662.47" width="13.39" height="13.39" fill="#231f20"/>
  <rect x="665.03" y="446.83" width="13.39" height="13.39" fill="#231f20"/>
  <rect x="708.23" y="446.83" width="13.39" height="13.39" fill="#231f20"/>
  <rect x="621.83" y="361.84" width="13.39" height="13.39" fill="#231f20"/>
  <rect x="621.83" y="402.36" width="13.39" height="13.39" fill="#231f20"/>
  <rect x="665.03" y="361.84" width="13.39" height="13.39" fill="#231f20"/>
  <rect x="750.84" y="144.38" width="13.39" height="13.39" fill="#231f20"/>
  <rect x="794.04" y="144.38" width="13.39" height="13.39" fill="#231f20"/>
  <rect x="577.45" y="317.23" width="13.39" height="13.39" fill="#231f20"/>
  <rect x="577.45" y="360.43" width="13.39" height="13.39" fill="#231f20"/>
  <rect x="620.65" y="317.23" width="13.39" height="13.39" fill="#231f20"/>
  <rect x="621.83" y="146.86" width="13.39" height="13.39" fill="#231f20"/>
  <rect x="620.65" y="102.24" width="13.39" height="13.39" fill="#231f20"/>
  <rect x="448.44" y="146.86" width="13.39" height="13.39" fill="#231f20"/>
  <rect x="448.44" y="102.24" width="13.39" height="13.39" fill="#231f20"/>
  <rect x="577.45" y="59.12" width="13.39" height="13.39" fill="#231f20"/>
  <rect x="361.61" y="59.12" width="13.39" height="13.39" fill="#231f20"/>
  <rect x="361.61" y="101.14" width="13.39" height="13.39" fill="#231f20"/>
  <rect x="750.25" y="446.83" width="13.39" height="13.39" fill="#231f20"/>
  <rect x="665.03" y="402.54" width="13.39" height="13.39" fill="#231f20"/>
  <rect x="665.03" y="190.06" width="13.39" height="13.39" fill="#231f20"/>
  <rect x="665.03" y="230.75" width="13.39" height="13.39" fill="#231f20"/>
  <rect x="751.43" y="190.06" width="13.39" height="13.39" fill="#231f20"/>
  <rect x="751.43" y="230.75" width="13.39" height="13.39" fill="#231f20"/>
  <rect x="708.23" y="402.54" width="13.39" height="13.39" fill="#231f20"/>
  <rect x="750.25" y="402.54" width="13.39" height="13.39" fill="#231f20"/>
  <rect x="794.89" y="446.83" width="13.39" height="13.39" fill="#231f20"/>
  <rect x="837.24" y="446.83" width="13.39" height="13.39" fill="#231f20"/>
  <rect x="794.89" y="402.54" width="13.39" height="13.39" fill="#231f20"/>
  <rect x="794.04" y="359.34" width="13.39" height="13.39" fill="#231f20"/>
  <rect x="837.24" y="359.34" width="13.39" height="13.39" fill="#231f20"/>
  <rect x="879.26" y="359.34" width="13.39" height="13.39" fill="#231f20"/>
  <rect x="881.03" y="101.14" width="13.39" height="13.39" fill="#231f20"/>
  <rect x="923.05" y="101.14" width="13.39" height="13.39" fill="#231f20"/>
  <rect x="966.84" y="144.97" width="13.39" height="13.39" fill="#231f20"/>
  <rect x="1008.86" y="144.97" width="13.39" height="13.39" fill="#231f20"/>
  <rect x="751.43" y="15.96" width="13.39" height="13.39" fill="#231f20"/>
  <rect x="534.84" y="15.96" width="13.39" height="13.39" fill="#231f20"/>
  <rect x="447.26" y="15.96" width="13.39" height="13.39" fill="#231f20"/>
  <rect x="793.45" y="15.96" width="13.39" height="13.39" fill="#231f20"/>
  <rect x="836.65" y="15.96" width="13.39" height="13.39" fill="#231f20"/>
  <rect x="965.66" y="359.34" width="13.39" height="13.39" fill="#231f20"/>
  <rect x="965.66" y="403.63" width="13.39" height="13.39" fill="#231f20"/>
  <rect x="1052.96" y="187.19" width="13.39" height="13.39" fill="#231f20"/>
  <rect x="1052.96" y="231.47" width="13.39" height="13.39" fill="#231f20"/>
  <rect x="924.75" y="403.63" width="13.39" height="13.39" fill="#231f20"/>
  <rect x="1008.86" y="359.34" width="13.39" height="13.39" fill="#231f20"/>
  <rect x="1050.88" y="359.34" width="13.39" height="13.39" fill="#231f20"/>
  <rect x="620.65" y="705.49" width="13.39" height="13.39" fill="#231f20"/>
  <rect x="319.72" y="880.01" width="13.39" height="13.39" fill="#231f20"/>
  <rect x="362.92" y="880.01" width="13.39" height="13.39" fill="#231f20"/>
  <rect x="362.92" y="792.8" width="13.39" height="13.39" fill="#231f20"/>
  <rect x="405.96" y="834.91" width="13.39" height="13.39" fill="#231f20"/>
  <rect x="750.84" y="880.01" width="13.39" height="13.39" fill="#231f20"/>
  <rect x="794.04" y="880.01" width="13.39" height="13.39" fill="#231f20"/>
  <rect x="58.46" y="664.6" width="13.39" height="13.39" fill="#231f20"/>
  <rect x="58.46" y="707.8" width="13.39" height="13.39" fill="#231f20"/>
  <rect x="317.66" y="491.21" width="13.39" height="13.39" fill="#231f20"/>
  <rect x="317.66" y="534.41" width="13.39" height="13.39" fill="#231f20"/>
  <rect x="362.54" y="577.81" width="13.39" height="13.39" fill="#231f20"/>
  <rect x="276.41" y="621.38" width="13.39" height="13.39" fill="#231f20"/>
</svg>