<?xml version="1.0" encoding="UTF-8"?>
<svg id="_18" data-name="18" xmlns="http://www.w3.org/2000/svg" viewBox="0 0 1080 1080">
  <rect x="44.5" y="1.08" width="40.84" height="40.84" fill="#231f20"/>
  <rect x="44.5" y="44.27" width="40.84" height="40.84" fill="#231f20"/>
  <rect x="1.3" y="1.08" width="40.84" height="40.84" fill="#231f20"/>
  <rect x="1.3" y="44.27" width="40.84" height="40.84" fill="#231f20"/>
  <rect x="130.89" y="1.08" width="40.84" height="40.84" fill="#231f20"/>
  <rect x="130.89" y="44.27" width="40.84" height="40.84" fill="#231f20"/>
  <rect x="87.69" y="1.08" width="40.84" height="40.84" fill="#231f20"/>
  <rect x="87.69" y="44.27" width="40.84" height="40.84" fill="#231f20"/>
  <rect x="217.29" y="1.08" width="40.84" height="40.84" fill="#231f20"/>
  <rect x="217.29" y="44.27" width="40.84" height="40.84" fill="#231f20"/>
  <rect x="174.09" y="1.08" width="40.84" height="40.84" fill="#231f20"/>
  <rect x="174.09" y="44.27" width="40.84" height="40.84" fill="#231f20"/>
  <rect x="303.68" y="1.08" width="40.84" height="40.84" fill="#231f20"/>
  <rect x="303.68" y="44.27" width="40.84" height="40.84" fill="#231f20"/>
  <rect x="260.48" y="1.08" width="40.84" height="40.84" fill="#231f20"/>
  <rect x="260.48" y="44.27" width="40.84" height="40.84" fill="#231f20"/>
  <rect x="390.08" y="1.08" width="40.84" height="40.84" fill="#231f20"/>
  <rect x="390.08" y="44.27" width="40.84" height="40.84" fill="#231f20"/>
  <rect x="346.88" y="1.08" width="40.84" height="40.84" fill="#231f20"/>
  <rect x="346.88" y="44.27" width="40.84" height="40.84" fill="#231f20"/>
  <rect x="44.5" y="87.47" width="40.84" height="40.84" fill="#231f20"/>
  <rect x="44.5" y="130.67" width="40.84" height="40.84" fill="#231f20"/>
  <rect x="1.3" y="87.47" width="40.84" height="40.84" fill="#231f20"/>
  <rect x="1.3" y="130.67" width="40.84" height="40.84" fill="#231f20"/>
  <rect x="130.89" y="87.47" width="40.84" height="40.84" fill="#231f20"/>
  <rect x="130.89" y="130.67" width="40.84" height="40.84" fill="#231f20"/>
  <rect x="87.69" y="87.47" width="40.84" height="40.84" fill="#231f20"/>
  <rect x="87.69" y="130.67" width="40.84" height="40.84" fill="#231f20"/>
  <rect x="217.29" y="87.47" width="40.84" height="40.84" fill="#231f20"/>
  <rect x="217.29" y="130.67" width="40.84" height="40.84" fill="#231f20"/>
  <rect x="174.09" y="87.47" width="40.84" height="40.84" fill="#231f20"/>
  <rect x="174.09" y="130.67" width="40.84" height="40.84" fill="#231f20"/>
  <rect x="303.68" y="87.47" width="40.84" height="40.84" fill="#231f20"/>
  <rect x="303.68" y="130.67" width="40.84" height="40.84" fill="#231f20"/>
  <rect x="260.48" y="87.47" width="40.84" height="40.84" fill="#231f20"/>
  <rect x="260.48" y="130.67" width="40.84" height="40.84" fill="#231f20"/>
  <rect x="390.08" y="87.47" width="40.84" height="40.84" fill="#231f20"/>
  <rect x="390.08" y="130.67" width="40.84" height="40.84" fill="#231f20"/>
  <rect x="346.88" y="87.47" width="40.84" height="40.84" fill="#231f20"/>
  <rect x="346.88" y="130.67" width="40.84" height="40.84" fill="#231f20"/>
  <rect x="44.5" y="173.87" width="40.84" height="40.84" fill="#231f20"/>
  <rect x="44.51" y="217.06" width="40.84" height="40.84" fill="#231f20"/>
  <rect x="1.3" y="173.87" width="40.84" height="40.84" fill="#231f20"/>
  <rect x="1.3" y="217.06" width="40.84" height="40.84" fill="#231f20"/>
  <rect x="130.89" y="173.87" width="40.84" height="40.84" fill="#231f20"/>
  <rect x="130.93" y="217.06" width="40.84" height="40.84" fill="#231f20"/>
  <rect x="87.69" y="173.87" width="40.84" height="40.84" fill="#231f20"/>
  <rect x="87.72" y="217.06" width="40.84" height="40.84" fill="#231f20"/>
  <rect x="217.29" y="173.87" width="40.84" height="40.84" fill="#231f20"/>
  <rect x="217.34" y="217.06" width="40.84" height="40.84" fill="#231f20"/>
  <rect x="174.09" y="173.87" width="40.84" height="40.84" fill="#231f20"/>
  <rect x="174.13" y="217.06" width="40.84" height="40.84" fill="#231f20"/>
  <rect x="303.68" y="173.87" width="40.84" height="40.84" fill="#231f20"/>
  <rect x="303.76" y="217.06" width="40.84" height="40.84" fill="#231f20"/>
  <rect x="260.48" y="173.87" width="40.84" height="40.84" fill="#231f20"/>
  <rect x="260.55" y="217.06" width="40.84" height="40.84" fill="#231f20"/>
  <rect x="44.51" y="260.19" width="40.84" height="40.84" fill="#231f20"/>
  <rect x="1.3" y="260.19" width="40.84" height="40.84" fill="#231f20"/>
  <rect x="130.93" y="260.19" width="40.84" height="40.84" fill="#231f20"/>
  <rect x="87.72" y="260.19" width="40.84" height="40.84" fill="#231f20"/>
  <rect x="217.34" y="260.19" width="40.84" height="40.84" fill="#231f20"/>
  <rect x="174.13" y="260.19" width="40.84" height="40.84" fill="#231f20"/>
  <rect x="303.76" y="260.19" width="40.84" height="40.84" fill="#231f20"/>
  <rect x="260.55" y="260.19" width="40.84" height="40.84" fill="#231f20"/>
  <rect x="44.51" y="303.69" width="40.84" height="40.84" fill="#231f20"/>
  <rect x="44.5" y="346.69" width="40.84" height="40.84" fill="#231f20"/>
  <rect x="1.3" y="303.69" width="40.84" height="40.84" fill="#231f20"/>
  <rect x="1.3" y="346.69" width="40.84" height="40.84" fill="#231f20"/>
  <rect x="130.93" y="303.69" width="40.84" height="40.84" fill="#231f20"/>
  <rect x="130.89" y="346.69" width="40.84" height="40.84" fill="#231f20"/>
  <rect x="87.72" y="303.69" width="40.84" height="40.84" fill="#231f20"/>
  <rect x="87.69" y="346.69" width="40.84" height="40.84" fill="#231f20"/>
  <rect x="217.34" y="303.69" width="40.84" height="40.84" fill="#231f20"/>
  <rect x="217.29" y="346.69" width="40.84" height="40.84" fill="#231f20"/>
  <rect x="174.13" y="303.69" width="40.84" height="40.84" fill="#231f20"/>
  <rect x="174.09" y="346.69" width="40.84" height="40.84" fill="#231f20"/>
  <rect x="303.76" y="303.69" width="40.84" height="40.84" fill="#231f20"/>
  <rect x="303.68" y="346.69" width="40.84" height="40.84" fill="#231f20"/>
  <rect x="260.55" y="303.69" width="40.84" height="40.84" fill="#231f20"/>
  <rect x="260.48" y="346.69" width="40.84" height="40.84" fill="#231f20"/>
  <rect x="44.5" y="389.8" width="40.84" height="40.84" fill="#231f20"/>
  <rect x="44.5" y="433.05" width="40.84" height="40.84" fill="#231f20"/>
  <rect x="1.3" y="389.8" width="40.84" height="40.84" fill="#231f20"/>
  <rect x="1.3" y="433.05" width="40.84" height="40.84" fill="#231f20"/>
  <rect x="130.89" y="389.8" width="40.84" height="40.84" fill="#231f20"/>
  <rect x="130.89" y="433.05" width="40.84" height="40.84" fill="#231f20"/>
  <rect x="87.69" y="389.8" width="40.84" height="40.84" fill="#231f20"/>
  <rect x="87.69" y="433.05" width="40.84" height="40.84" fill="#231f20"/>
  <rect x="217.29" y="389.8" width="40.84" height="40.84" fill="#231f20"/>
  <rect x="217.29" y="433.05" width="40.84" height="40.84" fill="#231f20"/>
  <rect x="174.09" y="389.8" width="40.84" height="40.84" fill="#231f20"/>
  <rect x="174.09" y="433.05" width="40.84" height="40.84" fill="#231f20"/>
  <rect x="303.68" y="389.8" width="40.84" height="40.84" fill="#231f20"/>
  <rect x="303.68" y="433.05" width="40.84" height="40.84" fill="#231f20"/>
  <rect x="260.48" y="389.8" width="40.84" height="40.84" fill="#231f20"/>
  <rect x="260.48" y="433.05" width="40.84" height="40.84" fill="#231f20"/>
  <rect x="44.5" y="476.26" width="40.84" height="40.84" fill="#231f20"/>
  <rect x="1.3" y="476.26" width="40.84" height="40.84" fill="#231f20"/>
  <rect x="130.89" y="476.26" width="40.84" height="40.84" fill="#231f20"/>
  <rect x="87.69" y="476.26" width="40.84" height="40.84" fill="#231f20"/>
  <rect x="217.29" y="476.26" width="40.84" height="40.84" fill="#231f20"/>
  <rect x="174.09" y="476.26" width="40.84" height="40.84" fill="#231f20"/>
  <rect x="303.68" y="476.26" width="40.84" height="40.84" fill="#231f20"/>
  <rect x="260.48" y="476.26" width="40.84" height="40.84" fill="#231f20"/>
  <rect x="44.5" y="519.55" width="40.84" height="40.84" fill="#231f20"/>
  <rect x="44.5" y="562.64" width="40.84" height="40.84" fill="#231f20"/>
  <rect x="1.3" y="519.55" width="40.84" height="40.84" fill="#231f20"/>
  <rect x="1.3" y="562.64" width="40.84" height="40.84" fill="#231f20"/>
  <rect x="130.89" y="519.55" width="40.84" height="40.84" fill="#231f20"/>
  <rect x="130.89" y="562.64" width="40.84" height="40.84" fill="#231f20"/>
  <rect x="87.69" y="519.55" width="40.84" height="40.84" fill="#231f20"/>
  <rect x="87.69" y="562.64" width="40.84" height="40.84" fill="#231f20"/>
  <rect x="217.29" y="519.55" width="40.84" height="40.84" fill="#231f20"/>
  <rect x="217.29" y="562.64" width="40.84" height="40.84" fill="#231f20"/>
  <rect x="174.09" y="519.55" width="40.84" height="40.84" fill="#231f20"/>
  <rect x="174.09" y="562.64" width="40.84" height="40.84" fill="#231f20"/>
  <rect x="303.68" y="519.55" width="40.84" height="40.84" fill="#231f20"/>
  <rect x="303.68" y="562.64" width="40.84" height="40.84" fill="#231f20"/>
  <rect x="260.48" y="519.55" width="40.84" height="40.84" fill="#231f20"/>
  <rect x="260.48" y="562.64" width="40.84" height="40.84" fill="#231f20"/>
  <rect x="44.5" y="605.84" width="40.84" height="40.84" fill="#231f20"/>
  <rect x="1.3" y="605.84" width="40.84" height="40.84" fill="#231f20"/>
  <rect x="130.89" y="605.84" width="40.84" height="40.84" fill="#231f20"/>
  <rect x="87.69" y="605.84" width="40.84" height="40.84" fill="#231f20"/>
  <rect x="217.29" y="605.84" width="40.84" height="40.84" fill="#231f20"/>
  <rect x="174.09" y="605.84" width="40.84" height="40.84" fill="#231f20"/>
  <rect x="303.68" y="605.84" width="40.84" height="40.84" fill="#231f20"/>
  <rect x="260.48" y="605.84" width="40.84" height="40.84" fill="#231f20"/>
  <rect x="346.88" y="562.64" width="40.84" height="40.84" fill="#231f20"/>
  <rect x="433.28" y="562.64" width="40.84" height="40.84" fill="#231f20"/>
  <rect x="390.08" y="562.64" width="40.84" height="40.84" fill="#231f20"/>
  <rect x="346.88" y="605.84" width="40.84" height="40.84" fill="#231f20"/>
  <rect x="433.28" y="605.84" width="40.84" height="40.84" fill="#231f20"/>
  <rect x="390.08" y="605.84" width="40.84" height="40.84" fill="#231f20"/>
  <rect x="346.88" y="476.26" width="40.84" height="40.84" fill="#231f20"/>
  <rect x="433.28" y="476.26" width="40.84" height="40.84" fill="#231f20"/>
  <rect x="390.08" y="476.26" width="40.84" height="40.84" fill="#231f20"/>
  <rect x="346.88" y="519.55" width="40.84" height="40.84" fill="#231f20"/>
  <rect x="433.28" y="519.55" width="40.84" height="40.84" fill="#231f20"/>
  <rect x="390.08" y="519.55" width="40.84" height="40.84" fill="#231f20"/>
  <rect x="346.88" y="346.69" width="40.84" height="40.84" fill="#231f20"/>
  <rect x="433.28" y="346.69" width="40.84" height="40.84" fill="#231f20"/>
  <rect x="390.08" y="346.69" width="40.84" height="40.84" fill="#231f20"/>
  <rect x="346.88" y="389.8" width="40.84" height="40.84" fill="#231f20"/>
  <rect x="433.28" y="389.8" width="40.84" height="40.84" fill="#231f20"/>
  <rect x="390.08" y="389.8" width="40.84" height="40.84" fill="#231f20"/>
  <rect x="346.97" y="260.19" width="40.84" height="40.84" fill="#231f20"/>
  <rect x="433.39" y="260.19" width="40.84" height="40.84" fill="#231f20"/>
  <rect x="390.18" y="260.19" width="40.84" height="40.84" fill="#231f20"/>
  <rect x="346.97" y="303.69" width="40.84" height="40.84" fill="#231f20"/>
  <rect x="433.39" y="303.69" width="40.84" height="40.84" fill="#231f20"/>
  <rect x="390.18" y="303.69" width="40.84" height="40.84" fill="#231f20"/>
  <rect x="519.81" y="260.19" width="40.84" height="40.84" fill="#231f20"/>
  <rect x="476.6" y="260.19" width="40.84" height="40.84" fill="#231f20"/>
  <rect x="519.81" y="303.69" width="40.84" height="40.84" fill="#231f20"/>
  <rect x="476.6" y="303.69" width="40.84" height="40.84" fill="#231f20"/>
  <rect x="44.5" y="649.04" width="40.84" height="40.84" fill="#231f20"/>
  <rect x="44.5" y="692.24" width="40.84" height="40.84" fill="#231f20"/>
  <rect x="1.3" y="649.04" width="40.84" height="40.84" fill="#231f20"/>
  <rect x="1.3" y="692.24" width="40.84" height="40.84" fill="#231f20"/>
  <rect x="130.89" y="649.04" width="40.84" height="40.84" fill="#231f20"/>
  <rect x="130.89" y="692.24" width="40.84" height="40.84" fill="#231f20"/>
  <rect x="87.69" y="649.04" width="40.84" height="40.84" fill="#231f20"/>
  <rect x="87.69" y="692.24" width="40.84" height="40.84" fill="#231f20"/>
  <rect x="217.29" y="649.04" width="40.84" height="40.84" fill="#231f20"/>
  <rect x="217.29" y="692.24" width="40.84" height="40.84" fill="#231f20"/>
  <rect x="174.09" y="649.04" width="40.84" height="40.84" fill="#231f20"/>
  <rect x="174.09" y="692.24" width="40.84" height="40.84" fill="#231f20"/>
  <rect x="303.68" y="649.04" width="40.84" height="40.84" fill="#231f20"/>
  <rect x="303.68" y="692.24" width="40.84" height="40.84" fill="#231f20"/>
  <rect x="260.48" y="649.04" width="40.84" height="40.84" fill="#231f20"/>
  <rect x="260.48" y="692.24" width="40.84" height="40.84" fill="#231f20"/>
  <rect x="44.5" y="735.43" width="40.84" height="40.84" fill="#231f20"/>
  <rect x="1.3" y="735.43" width="40.84" height="40.84" fill="#231f20"/>
  <rect x="130.89" y="735.43" width="40.84" height="40.84" fill="#231f20"/>
  <rect x="87.69" y="735.43" width="40.84" height="40.84" fill="#231f20"/>
  <rect x="217.29" y="735.43" width="40.84" height="40.84" fill="#231f20"/>
  <rect x="174.09" y="735.43" width="40.84" height="40.84" fill="#231f20"/>
  <rect x="303.68" y="735.43" width="40.84" height="40.84" fill="#231f20"/>
  <rect x="260.48" y="735.43" width="40.84" height="40.84" fill="#231f20"/>
  <rect x="44.5" y="778.63" width="40.84" height="40.84" fill="#231f20"/>
  <rect x="44.5" y="821.83" width="40.84" height="40.84" fill="#231f20"/>
  <rect x="1.3" y="778.63" width="40.84" height="40.84" fill="#231f20"/>
  <rect x="1.3" y="821.83" width="40.84" height="40.84" fill="#231f20"/>
  <rect x="130.89" y="778.63" width="40.84" height="40.84" fill="#231f20"/>
  <rect x="130.89" y="821.83" width="40.84" height="40.84" fill="#231f20"/>
  <rect x="87.69" y="778.63" width="40.84" height="40.84" fill="#231f20"/>
  <rect x="87.69" y="821.83" width="40.84" height="40.84" fill="#231f20"/>
  <rect x="217.29" y="778.63" width="40.84" height="40.84" fill="#231f20"/>
  <rect x="217.29" y="821.83" width="40.84" height="40.84" fill="#231f20"/>
  <rect x="174.09" y="778.63" width="40.84" height="40.84" fill="#231f20"/>
  <rect x="174.09" y="821.83" width="40.84" height="40.84" fill="#231f20"/>
  <rect x="303.68" y="778.63" width="40.84" height="40.84" fill="#231f20"/>
  <rect x="303.68" y="821.83" width="40.84" height="40.84" fill="#231f20"/>
  <rect x="260.48" y="778.63" width="40.84" height="40.84" fill="#231f20"/>
  <rect x="260.48" y="821.83" width="40.84" height="40.84" fill="#231f20"/>
  <rect x="44.5" y="865.03" width="40.84" height="40.84" fill="#231f20"/>
  <rect x="1.3" y="865.03" width="40.84" height="40.84" fill="#231f20"/>
  <rect x="130.89" y="865.03" width="40.84" height="40.84" fill="#231f20"/>
  <rect x="87.69" y="865.03" width="40.84" height="40.84" fill="#231f20"/>
  <rect x="217.29" y="865.03" width="40.84" height="40.84" fill="#231f20"/>
  <rect x="174.09" y="865.03" width="40.84" height="40.84" fill="#231f20"/>
  <rect x="303.68" y="865.03" width="40.84" height="40.84" fill="#231f20"/>
  <rect x="260.48" y="865.03" width="40.84" height="40.84" fill="#231f20"/>
  <rect x="44.5" y="908.31" width="40.84" height="40.84" fill="#231f20"/>
  <rect x="44.5" y="951.42" width="40.84" height="40.84" fill="#231f20"/>
  <rect x="1.3" y="908.31" width="40.84" height="40.84" fill="#231f20"/>
  <rect x="1.3" y="951.42" width="40.84" height="40.84" fill="#231f20"/>
  <rect x="130.89" y="908.31" width="40.84" height="40.84" fill="#231f20"/>
  <rect x="130.89" y="951.42" width="40.84" height="40.84" fill="#231f20"/>
  <rect x="87.69" y="908.31" width="40.84" height="40.84" fill="#231f20"/>
  <rect x="87.69" y="951.42" width="40.84" height="40.84" fill="#231f20"/>
  <rect x="217.29" y="908.31" width="40.84" height="40.84" fill="#231f20"/>
  <rect x="217.29" y="951.42" width="40.84" height="40.84" fill="#231f20"/>
  <rect x="174.09" y="908.31" width="40.84" height="40.84" fill="#231f20"/>
  <rect x="174.09" y="951.42" width="40.84" height="40.84" fill="#231f20"/>
  <rect x="303.68" y="908.31" width="40.84" height="40.84" fill="#231f20"/>
  <rect x="303.68" y="951.42" width="40.84" height="40.84" fill="#231f20"/>
  <rect x="260.48" y="908.31" width="40.84" height="40.84" fill="#231f20"/>
  <rect x="260.48" y="951.42" width="40.84" height="40.84" fill="#231f20"/>
  <rect x="346.88" y="821.83" width="40.84" height="40.84" fill="#231f20"/>
  <rect x="433.28" y="821.83" width="40.84" height="40.84" fill="#231f20"/>
  <rect x="390.08" y="821.83" width="40.84" height="40.84" fill="#231f20"/>
  <rect x="346.88" y="865.03" width="40.84" height="40.84" fill="#231f20"/>
  <rect x="433.28" y="865.03" width="40.84" height="40.84" fill="#231f20"/>
  <rect x="390.08" y="865.03" width="40.84" height="40.84" fill="#231f20"/>
  <rect x="346.88" y="908.31" width="40.84" height="40.84" fill="#231f20"/>
  <rect x="346.88" y="951.42" width="40.84" height="40.84" fill="#231f20"/>
  <rect x="433.28" y="908.31" width="40.84" height="40.84" fill="#231f20"/>
  <rect x="433.28" y="951.42" width="40.84" height="40.84" fill="#231f20"/>
  <rect x="390.08" y="908.31" width="40.84" height="40.84" fill="#231f20"/>
  <rect x="605.89" y="822.19" width="40.84" height="40.84" fill="#231f20"/>
  <rect x="562.82" y="821.83" width="40.84" height="40.84" fill="#231f20"/>
  <rect x="605.89" y="865.3" width="40.84" height="40.84" fill="#231f20"/>
  <rect x="562.82" y="865.03" width="40.84" height="40.84" fill="#231f20"/>
  <rect x="605.89" y="908.09" width="40.84" height="40.84" fill="#231f20"/>
  <rect x="562.82" y="908.09" width="40.84" height="40.84" fill="#231f20"/>
  <rect x="390.08" y="951.42" width="40.84" height="40.84" fill="#231f20"/>
  <rect x="44.42" y="994.9" width="40.84" height="40.84" fill="#231f20"/>
  <rect x="44.43" y="1037.9" width="40.84" height="40.84" fill="#231f20"/>
  <rect x="1.22" y="994.9" width="40.84" height="40.84" fill="#231f20"/>
  <rect x="1.23" y="1037.9" width="40.84" height="40.84" fill="#231f20"/>
  <rect x="130.82" y="994.9" width="40.84" height="40.84" fill="#231f20"/>
  <rect x="130.82" y="1037.9" width="40.84" height="40.84" fill="#231f20"/>
  <rect x="87.62" y="994.9" width="40.84" height="40.84" fill="#231f20"/>
  <rect x="87.63" y="1037.9" width="40.84" height="40.84" fill="#231f20"/>
  <rect x="217.21" y="994.9" width="40.84" height="40.84" fill="#231f20"/>
  <rect x="217.22" y="1037.9" width="40.84" height="40.84" fill="#231f20"/>
  <rect x="174.01" y="994.9" width="40.84" height="40.84" fill="#231f20"/>
  <rect x="174.02" y="1037.9" width="40.84" height="40.84" fill="#231f20"/>
  <rect x="303.61" y="994.9" width="40.84" height="40.84" fill="#231f20"/>
  <rect x="303.62" y="1037.9" width="40.84" height="40.84" fill="#231f20"/>
  <rect x="260.41" y="994.9" width="40.84" height="40.84" fill="#231f20"/>
  <rect x="260.42" y="1037.9" width="40.84" height="40.84" fill="#231f20"/>
  <rect x="390.08" y="173.87" width="40.84" height="40.84" fill="#231f20"/>
  <rect x="390.18" y="217.06" width="40.84" height="40.84" fill="#231f20"/>
  <rect x="346.88" y="173.87" width="40.84" height="40.84" fill="#231f20"/>
  <rect x="346.97" y="217.06" width="40.84" height="40.84" fill="#231f20"/>
  <rect x="433.39" y="217.06" width="40.84" height="40.84" fill="#231f20"/>
  <rect x="519.81" y="217.06" width="40.84" height="40.84" fill="#231f20"/>
  <rect x="476.6" y="217.06" width="40.84" height="40.84" fill="#231f20"/>
  <rect x="476.47" y="1.08" width="40.84" height="40.84" fill="#231f20"/>
  <rect x="476.47" y="44.27" width="40.84" height="40.84" fill="#231f20"/>
  <rect x="433.28" y="1.08" width="40.84" height="40.84" fill="#231f20"/>
  <rect x="433.28" y="44.27" width="40.84" height="40.84" fill="#231f20"/>
  <rect x="620.68" y="317.94" width="13.39" height="13.39" fill="#231f20"/>
  <rect x="578.84" y="317.94" width="13.39" height="13.39" fill="#231f20"/>
  <rect x="620.68" y="273.98" width="13.39" height="13.39" fill="#231f20"/>
  <rect x="578.84" y="273.98" width="13.39" height="13.39" fill="#231f20"/>
  <rect x="620.68" y="230.79" width="13.39" height="13.39" fill="#231f20"/>
  <rect x="578.84" y="230.79" width="13.39" height="13.39" fill="#231f20"/>
  <rect x="490.33" y="189.32" width="13.39" height="13.39" fill="#231f20"/>
  <rect x="449.22" y="189.32" width="13.39" height="13.39" fill="#231f20"/>
  <rect x="490.33" y="145.36" width="13.39" height="13.39" fill="#231f20"/>
  <rect x="449.22" y="145.36" width="13.39" height="13.39" fill="#231f20"/>
  <rect x="578.84" y="189.15" width="13.39" height="13.39" fill="#231f20"/>
  <rect x="535.62" y="189.32" width="13.39" height="13.39" fill="#231f20"/>
  <rect x="578.84" y="145.36" width="13.39" height="13.39" fill="#231f20"/>
  <rect x="535.62" y="145.19" width="13.39" height="13.39" fill="#231f20"/>
  <rect x="534.59" y="102.84" width="13.39" height="13.39" fill="#231f20"/>
  <rect x="534.59" y="58.88" width="13.39" height="13.39" fill="#231f20"/>
  <rect x="623.09" y="102.67" width="13.39" height="13.39" fill="#231f20"/>
  <rect x="579.87" y="102.84" width="13.39" height="13.39" fill="#231f20"/>
  <rect x="623.09" y="58.88" width="13.39" height="13.39" fill="#231f20"/>
  <rect x="579.87" y="58.71" width="13.39" height="13.39" fill="#231f20"/>
  <rect x="793.77" y="102.67" width="13.39" height="13.39" fill="#231f20"/>
  <rect x="750.55" y="102.84" width="13.39" height="13.39" fill="#231f20"/>
  <rect x="708.43" y="102.67" width="13.39" height="13.39" fill="#231f20"/>
  <rect x="665.21" y="102.84" width="13.39" height="13.39" fill="#231f20"/>
  <rect x="708.43" y="58.79" width="13.39" height="13.39" fill="#231f20"/>
  <rect x="665.21" y="58.96" width="13.39" height="13.39" fill="#231f20"/>
  <rect x="708.43" y="230.62" width="13.39" height="13.39" fill="#231f20"/>
  <rect x="665.21" y="230.79" width="13.39" height="13.39" fill="#231f20"/>
  <rect x="750.57" y="186.74" width="13.39" height="13.39" fill="#231f20"/>
  <rect x="707.35" y="186.91" width="13.39" height="13.39" fill="#231f20"/>
  <rect x="750.57" y="144.71" width="13.39" height="13.39" fill="#231f20"/>
  <rect x="707.35" y="144.87" width="13.39" height="13.39" fill="#231f20"/>
  <rect x="793.77" y="58.88" width="13.39" height="13.39" fill="#231f20"/>
  <rect x="750.55" y="58.71" width="13.39" height="13.39" fill="#231f20"/>
  <rect x="880.17" y="232.26" width="13.39" height="13.39" fill="#231f20"/>
  <rect x="836.94" y="232.43" width="13.39" height="13.39" fill="#231f20"/>
  <rect x="880.17" y="273.85" width="13.39" height="13.39" fill="#231f20"/>
  <rect x="836.94" y="274.02" width="13.39" height="13.39" fill="#231f20"/>
  <rect x="880.17" y="188.47" width="13.39" height="13.39" fill="#231f20"/>
  <rect x="836.94" y="188.3" width="13.39" height="13.39" fill="#231f20"/>
  <rect x="966.56" y="59.47" width="13.39" height="13.39" fill="#231f20"/>
  <rect x="923.34" y="59.64" width="13.39" height="13.39" fill="#231f20"/>
  <rect x="966.56" y="15.68" width="13.39" height="13.39" fill="#231f20"/>
  <rect x="923.34" y="15.51" width="13.39" height="13.39" fill="#231f20"/>
  <rect x="793.77" y="15.51" width="13.39" height="13.39" fill="#231f20"/>
  <rect x="490.33" y="102.16" width="13.39" height="13.39" fill="#231f20"/>
  <rect x="449.22" y="102.16" width="13.39" height="13.39" fill="#231f20"/>
  <rect x="620.68" y="448.34" width="13.39" height="13.39" fill="#231f20"/>
  <rect x="578.84" y="448.34" width="13.39" height="13.39" fill="#231f20"/>
  <rect x="620.68" y="404.37" width="13.39" height="13.39" fill="#231f20"/>
  <rect x="578.84" y="404.37" width="13.39" height="13.39" fill="#231f20"/>
  <rect x="706.68" y="448.34" width="13.39" height="13.39" fill="#231f20"/>
  <rect x="664.85" y="448.34" width="13.39" height="13.39" fill="#231f20"/>
  <rect x="706.68" y="404.37" width="13.39" height="13.39" fill="#231f20"/>
  <rect x="706.68" y="361.94" width="13.39" height="13.39" fill="#231f20"/>
  <rect x="706.68" y="317.98" width="13.39" height="13.39" fill="#231f20"/>
  <rect x="751.66" y="361.94" width="13.39" height="13.39" fill="#231f20"/>
  <rect x="751.66" y="317.98" width="13.39" height="13.39" fill="#231f20"/>
  <rect x="664.85" y="404.37" width="13.39" height="13.39" fill="#231f20"/>
  <rect x="619.92" y="534.73" width="13.39" height="13.39" fill="#231f20"/>
  <rect x="578.84" y="534.73" width="13.39" height="13.39" fill="#231f20"/>
  <rect x="619.92" y="490.77" width="13.39" height="13.39" fill="#231f20"/>
  <rect x="578.84" y="490.77" width="13.39" height="13.39" fill="#231f20"/>
  <rect x="706.32" y="577.93" width="13.39" height="13.39" fill="#231f20"/>
  <rect x="750.77" y="577.93" width="13.39" height="13.39" fill="#231f20"/>
  <rect x="665.21" y="577.93" width="13.39" height="13.39" fill="#231f20"/>
  <rect x="706.32" y="533.97" width="13.39" height="13.39" fill="#231f20"/>
  <rect x="665.21" y="533.97" width="13.39" height="13.39" fill="#231f20"/>
  <rect x="922.31" y="750.72" width="13.39" height="13.39" fill="#231f20"/>
  <rect x="881.2" y="750.72" width="13.39" height="13.39" fill="#231f20"/>
  <rect x="922.31" y="706.76" width="13.39" height="13.39" fill="#231f20"/>
  <rect x="881.2" y="706.76" width="13.39" height="13.39" fill="#231f20"/>
  <rect x="965.51" y="837.11" width="13.39" height="13.39" fill="#231f20"/>
  <rect x="924.39" y="837.11" width="13.39" height="13.39" fill="#231f20"/>
  <rect x="965.51" y="793.15" width="13.39" height="13.39" fill="#231f20"/>
  <rect x="924.39" y="793.15" width="13.39" height="13.39" fill="#231f20"/>
  <rect x="1008.7" y="750.72" width="13.39" height="13.39" fill="#231f20"/>
  <rect x="967.59" y="750.72" width="13.39" height="13.39" fill="#231f20"/>
  <rect x="879.68" y="662.8" width="13.39" height="13.39" fill="#231f20"/>
  <rect x="967.59" y="706.76" width="13.39" height="13.39" fill="#231f20"/>
  <rect x="1053.99" y="837.11" width="13.39" height="13.39" fill="#231f20"/>
  <rect x="1012.87" y="837.11" width="13.39" height="13.39" fill="#231f20"/>
  <rect x="1053.99" y="793.15" width="13.39" height="13.39" fill="#231f20"/>
  <rect x="1012.87" y="793.15" width="13.39" height="13.39" fill="#231f20"/>
  <rect x="792.72" y="923.51" width="13.39" height="13.39" fill="#231f20"/>
  <rect x="751.6" y="923.51" width="13.39" height="13.39" fill="#231f20"/>
  <rect x="792.72" y="879.55" width="13.39" height="13.39" fill="#231f20"/>
  <rect x="751.6" y="879.55" width="13.39" height="13.39" fill="#231f20"/>
  <rect x="879.11" y="923.51" width="13.39" height="13.39" fill="#231f20"/>
  <rect x="838" y="923.51" width="13.39" height="13.39" fill="#231f20"/>
  <rect x="879.11" y="879.55" width="13.39" height="13.39" fill="#231f20"/>
  <rect x="838" y="879.55" width="13.39" height="13.39" fill="#231f20"/>
  <rect x="879.11" y="1009.9" width="13.39" height="13.39" fill="#231f20"/>
  <rect x="838" y="1009.9" width="13.39" height="13.39" fill="#231f20"/>
  <rect x="879.11" y="965.94" width="13.39" height="13.39" fill="#231f20"/>
  <rect x="838" y="965.94" width="13.39" height="13.39" fill="#231f20"/>
  <rect x="1051.9" y="1009.9" width="13.39" height="13.39" fill="#231f20"/>
  <rect x="1010.79" y="1009.9" width="13.39" height="13.39" fill="#231f20"/>
  <rect x="966.09" y="1051.86" width="13.39" height="13.39" fill="#231f20"/>
  <rect x="924.98" y="1051.86" width="13.39" height="13.39" fill="#231f20"/>
  <rect x="1051.9" y="1051.86" width="13.39" height="13.39" fill="#231f20"/>
  <rect x="1010.79" y="1051.86" width="13.39" height="13.39" fill="#231f20"/>
  <rect x="1051.9" y="965.94" width="13.39" height="13.39" fill="#231f20"/>
  <rect x="1010.79" y="965.94" width="13.39" height="13.39" fill="#231f20"/>
  <rect x="792.72" y="1009.9" width="13.39" height="13.39" fill="#231f20"/>
  <rect x="751.6" y="1009.9" width="13.39" height="13.39" fill="#231f20"/>
  <rect x="792.72" y="1051.86" width="13.39" height="13.39" fill="#231f20"/>
  <rect x="751.6" y="1051.86" width="13.39" height="13.39" fill="#231f20"/>
  <rect x="792.72" y="965.94" width="13.39" height="13.39" fill="#231f20"/>
  <rect x="751.6" y="965.94" width="13.39" height="13.39" fill="#231f20"/>
  <rect x="706.77" y="923.75" width="13.39" height="13.39" fill="#231f20"/>
  <rect x="706.77" y="879.79" width="13.39" height="13.39" fill="#231f20"/>
  <rect x="792.72" y="836.99" width="13.39" height="13.39" fill="#231f20"/>
  <rect x="751.6" y="836.99" width="13.39" height="13.39" fill="#231f20"/>
  <rect x="706.77" y="837.23" width="13.39" height="13.39" fill="#231f20"/>
  <rect x="706.77" y="1010.14" width="13.39" height="13.39" fill="#231f20"/>
  <rect x="706.77" y="1052.1" width="13.39" height="13.39" fill="#231f20"/>
  <rect x="706.77" y="966.18" width="13.39" height="13.39" fill="#231f20"/>
  <rect x="665.21" y="923.51" width="13.39" height="13.39" fill="#231f20"/>
  <rect x="665.21" y="879.55" width="13.39" height="13.39" fill="#231f20"/>
  <rect x="447" y="793.79" width="13.39" height="13.39" fill="#231f20"/>
  <rect x="447" y="749.83" width="13.39" height="13.39" fill="#231f20"/>
  <rect x="402.17" y="794.04" width="13.39" height="13.39" fill="#231f20"/>
  <rect x="402.17" y="750.08" width="13.39" height="13.39" fill="#231f20"/>
  <rect x="360.6" y="793.79" width="13.39" height="13.39" fill="#231f20"/>
  <rect x="360.6" y="749.83" width="13.39" height="13.39" fill="#231f20"/>
  <rect x="447" y="707.4" width="13.39" height="13.39" fill="#231f20"/>
  <rect x="447" y="663.44" width="13.39" height="13.39" fill="#231f20"/>
  <rect x="492.42" y="707.4" width="13.39" height="13.39" fill="#231f20"/>
  <rect x="492.42" y="663.44" width="13.39" height="13.39" fill="#231f20"/>
  <rect x="402.17" y="707.64" width="13.39" height="13.39" fill="#231f20"/>
  <rect x="402.17" y="663.68" width="13.39" height="13.39" fill="#231f20"/>
  <rect x="360.6" y="707.4" width="13.39" height="13.39" fill="#231f20"/>
  <rect x="360.6" y="663.44" width="13.39" height="13.39" fill="#231f20"/>
  <rect x="578.84" y="793.79" width="13.39" height="13.39" fill="#231f20"/>
  <rect x="578.84" y="749.83" width="13.39" height="13.39" fill="#231f20"/>
  <rect x="532.94" y="794.04" width="13.39" height="13.39" fill="#231f20"/>
  <rect x="532.94" y="750.08" width="13.39" height="13.39" fill="#231f20"/>
  <rect x="664.98" y="793.79" width="13.39" height="13.39" fill="#231f20"/>
  <rect x="664.98" y="836.83" width="13.39" height="13.39" fill="#231f20"/>
  <rect x="664.98" y="749.83" width="13.39" height="13.39" fill="#231f20"/>
  <rect x="620.15" y="794.04" width="13.39" height="13.39" fill="#231f20"/>
  <rect x="620.15" y="750.08" width="13.39" height="13.39" fill="#231f20"/>
  <rect x="578.84" y="707.4" width="13.39" height="13.39" fill="#231f20"/>
  <rect x="578.84" y="663.44" width="13.39" height="13.39" fill="#231f20"/>
  <rect x="620.15" y="707.64" width="13.39" height="13.39" fill="#231f20"/>
  <rect x="620.15" y="663.68" width="13.39" height="13.39" fill="#231f20"/>
  <rect x="491.37" y="793.79" width="13.39" height="13.39" fill="#231f20"/>
  <rect x="491.37" y="749.83" width="13.39" height="13.39" fill="#231f20"/>
  <rect x="665.21" y="1009.9" width="13.39" height="13.39" fill="#231f20"/>
  <rect x="665.21" y="1051.86" width="13.39" height="13.39" fill="#231f20"/>
  <rect x="665.21" y="965.94" width="13.39" height="13.39" fill="#231f20"/>
  <rect x="620.15" y="1010.14" width="13.39" height="13.39" fill="#231f20"/>
  <rect x="620.15" y="1052.1" width="13.39" height="13.39" fill="#231f20"/>
  <rect x="620.15" y="966.18" width="13.39" height="13.39" fill="#231f20"/>
  <rect x="578.59" y="1009.9" width="13.39" height="13.39" fill="#231f20"/>
  <rect x="578.59" y="1051.86" width="13.39" height="13.39" fill="#231f20"/>
  <rect x="578.59" y="965.94" width="13.39" height="13.39" fill="#231f20"/>
  <rect x="534.57" y="1009.9" width="13.39" height="13.39" fill="#231f20"/>
  <rect x="534.57" y="1051.86" width="13.39" height="13.39" fill="#231f20"/>
  <rect x="534.57" y="965.94" width="13.39" height="13.39" fill="#231f20"/>
  <rect x="492.42" y="1009.9" width="13.39" height="13.39" fill="#231f20"/>
  <rect x="492.42" y="1051.86" width="13.39" height="13.39" fill="#231f20"/>
  <rect x="446.89" y="1009.9" width="13.39" height="13.39" fill="#231f20"/>
  <rect x="446.89" y="1051.86" width="13.39" height="13.39" fill="#231f20"/>
  <rect x="402.87" y="1009.9" width="13.39" height="13.39" fill="#231f20"/>
  <rect x="402.87" y="1051.86" width="13.39" height="13.39" fill="#231f20"/>
  <rect x="360.72" y="1009.9" width="13.39" height="13.39" fill="#231f20"/>
  <rect x="360.72" y="1051.86" width="13.39" height="13.39" fill="#231f20"/>
  <rect x="492.42" y="965.94" width="13.39" height="13.39" fill="#231f20"/>
  <rect x="534.57" y="880.79" width="13.39" height="13.39" fill="#231f20"/>
  <rect x="534.57" y="922.75" width="13.39" height="13.39" fill="#231f20"/>
  <rect x="534.57" y="836.83" width="13.39" height="13.39" fill="#231f20"/>
  <rect x="492.42" y="880.79" width="13.39" height="13.39" fill="#231f20"/>
  <rect x="492.42" y="922.75" width="13.39" height="13.39" fill="#231f20"/>
  <rect x="492.42" y="836.83" width="13.39" height="13.39" fill="#231f20"/>
  <rect x="533.53" y="621.13" width="13.39" height="13.39" fill="#231f20"/>
  <rect x="533.53" y="663.44" width="13.39" height="13.39" fill="#231f20"/>
  <rect x="492.42" y="621.13" width="13.39" height="13.39" fill="#231f20"/>
  <rect x="533.53" y="577.17" width="13.39" height="13.39" fill="#231f20"/>
  <rect x="492.42" y="577.17" width="13.39" height="13.39" fill="#231f20"/>
  <rect x="619.92" y="577.17" width="13.39" height="13.39" fill="#231f20"/>
  <rect x="578.84" y="577.17" width="13.39" height="13.39" fill="#231f20"/>
  <rect x="533.53" y="448.34" width="13.39" height="13.39" fill="#231f20"/>
  <rect x="492.42" y="448.34" width="13.39" height="13.39" fill="#231f20"/>
  <rect x="447.37" y="448.34" width="13.39" height="13.39" fill="#231f20"/>
  <rect x="403.42" y="448.07" width="13.39" height="13.39" fill="#231f20"/>
  <rect x="360.23" y="448.34" width="13.39" height="13.39" fill="#231f20"/>
  <rect x="533.53" y="404.37" width="13.39" height="13.39" fill="#231f20"/>
  <rect x="492.42" y="404.37" width="13.39" height="13.39" fill="#231f20"/>
  <rect x="578.84" y="362.15" width="13.39" height="13.39" fill="#231f20"/>
  <rect x="533.53" y="362.15" width="13.39" height="13.39" fill="#231f20"/>
  <rect x="492.42" y="362.15" width="13.39" height="13.39" fill="#231f20"/>
</svg>