<?xml version="1.0" encoding="UTF-8"?>
<svg id="_19" data-name="19" xmlns="http://www.w3.org/2000/svg" viewBox="0 0 1080 1080">
  <rect x="87.38" y="821.96" width="40.84" height="40.84" fill="#231f20"/>
  <rect x="130.58" y="821.96" width="40.84" height="40.84" fill="#231f20"/>
  <rect x="87.38" y="778.76" width="40.84" height="40.84" fill="#231f20"/>
  <rect x="130.58" y="778.76" width="40.84" height="40.84" fill="#231f20"/>
  <rect x=".98" y="778.76" width="40.84" height="40.84" fill="#231f20"/>
  <rect x=".98" y="821.89" width="40.84" height="40.84" fill="#231f20"/>
  <rect x="44.18" y="778.76" width="40.84" height="40.84" fill="#231f20"/>
  <rect x="87.21" y="735.62" width="40.84" height="40.84" fill="#231f20"/>
  <rect x="130.61" y="735.56" width="40.84" height="40.84" fill="#231f20"/>
  <rect x="87.21" y="692.42" width="40.84" height="40.84" fill="#231f20"/>
  <rect x="130.61" y="692.36" width="40.84" height="40.84" fill="#231f20"/>
  <rect x=".98" y="735.56" width="40.84" height="40.84" fill="#231f20"/>
  <rect x="44.18" y="735.56" width="40.84" height="40.84" fill="#231f20"/>
  <rect x=".98" y="692.36" width="40.84" height="40.84" fill="#231f20"/>
  <rect x="44.18" y="692.36" width="40.84" height="40.84" fill="#231f20"/>
  <rect x="87.38" y="649.16" width="40.84" height="40.84" fill="#231f20"/>
  <rect x="130.58" y="649.16" width="40.84" height="40.84" fill="#231f20"/>
  <rect x="87.38" y="605.96" width="40.84" height="40.84" fill="#231f20"/>
  <rect x="130.58" y="605.96" width="40.84" height="40.84" fill="#231f20"/>
  <rect x=".98" y="649.16" width="40.84" height="40.84" fill="#231f20"/>
  <rect x="44.18" y="649.16" width="40.84" height="40.84" fill="#231f20"/>
  <rect x=".98" y="605.96" width="40.84" height="40.84" fill="#231f20"/>
  <rect x="44.18" y="605.96" width="40.84" height="40.84" fill="#231f20"/>
  <rect x="87.21" y="562.82" width="40.84" height="40.84" fill="#231f20"/>
  <rect x="130.61" y="562.76" width="40.84" height="40.84" fill="#231f20"/>
  <rect x="87.21" y="519.62" width="40.84" height="40.84" fill="#231f20"/>
  <rect x="130.61" y="519.56" width="40.84" height="40.84" fill="#231f20"/>
  <rect x="173.85" y="649.16" width="40.84" height="40.84" fill="#231f20"/>
  <rect x="173.85" y="692.42" width="40.84" height="40.84" fill="#231f20"/>
  <rect x="217.05" y="649.16" width="40.84" height="40.84" fill="#231f20"/>
  <rect x="173.85" y="605.96" width="40.84" height="40.84" fill="#231f20"/>
  <rect x="217.05" y="605.96" width="40.84" height="40.84" fill="#231f20"/>
  <rect x="173.68" y="562.82" width="40.84" height="40.84" fill="#231f20"/>
  <rect x="217.08" y="562.76" width="40.84" height="40.84" fill="#231f20"/>
  <rect x="173.68" y="519.62" width="40.84" height="40.84" fill="#231f20"/>
  <rect x="217.08" y="519.56" width="40.84" height="40.84" fill="#231f20"/>
  <rect x="260.08" y="562.82" width="40.84" height="40.84" fill="#231f20"/>
  <rect x="260.08" y="605.96" width="40.84" height="40.84" fill="#231f20"/>
  <rect x="303.48" y="562.76" width="40.84" height="40.84" fill="#231f20"/>
  <rect x="260.08" y="519.62" width="40.84" height="40.84" fill="#231f20"/>
  <rect x="303.48" y="519.56" width="40.84" height="40.84" fill="#231f20"/>
  <rect x=".98" y="562.76" width="40.84" height="40.84" fill="#231f20"/>
  <rect x="44.18" y="562.76" width="40.84" height="40.84" fill="#231f20"/>
  <rect x=".98" y="519.56" width="40.84" height="40.84" fill="#231f20"/>
  <rect x="44.18" y="519.56" width="40.84" height="40.84" fill="#231f20"/>
  <rect x="87.21" y="476.36" width="40.84" height="40.84" fill="#231f20"/>
  <rect x="130.61" y="476.29" width="40.84" height="40.84" fill="#231f20"/>
  <rect x="87.21" y="433.16" width="40.84" height="40.84" fill="#231f20"/>
  <rect x="130.61" y="433.09" width="40.84" height="40.84" fill="#231f20"/>
  <rect x="173.68" y="476.36" width="40.84" height="40.84" fill="#231f20"/>
  <rect x="217.08" y="476.29" width="40.84" height="40.84" fill="#231f20"/>
  <rect x="173.68" y="433.16" width="40.84" height="40.84" fill="#231f20"/>
  <rect x="217.08" y="433.09" width="40.84" height="40.84" fill="#231f20"/>
  <rect x="260.08" y="476.36" width="40.84" height="40.84" fill="#231f20"/>
  <rect x="303.48" y="476.29" width="40.84" height="40.84" fill="#231f20"/>
  <rect x="260.08" y="433.16" width="40.84" height="40.84" fill="#231f20"/>
  <rect x="303.48" y="433.09" width="40.84" height="40.84" fill="#231f20"/>
  <rect x="346.55" y="519.56" width="40.84" height="40.84" fill="#231f20"/>
  <rect x="389.55" y="519.62" width="40.84" height="40.84" fill="#231f20"/>
  <rect x="432.95" y="519.56" width="40.84" height="40.84" fill="#231f20"/>
  <rect x="346.55" y="476.29" width="40.84" height="40.84" fill="#231f20"/>
  <rect x="346.55" y="433.09" width="40.84" height="40.84" fill="#231f20"/>
  <rect x="389.55" y="476.36" width="40.84" height="40.84" fill="#231f20"/>
  <rect x="432.95" y="476.29" width="40.84" height="40.84" fill="#231f20"/>
  <rect x="389.55" y="433.16" width="40.84" height="40.84" fill="#231f20"/>
  <rect x="432.95" y="433.09" width="40.84" height="40.84" fill="#231f20"/>
  <rect x=".98" y="476.29" width="40.84" height="40.84" fill="#231f20"/>
  <rect x="44.18" y="476.29" width="40.84" height="40.84" fill="#231f20"/>
  <rect x=".98" y="433.09" width="40.84" height="40.84" fill="#231f20"/>
  <rect x="44.18" y="433.09" width="40.84" height="40.84" fill="#231f20"/>
  <rect x="87.16" y="389.89" width="40.84" height="40.84" fill="#231f20"/>
  <rect x="130.56" y="389.82" width="40.84" height="40.84" fill="#231f20"/>
  <rect x="173.63" y="389.89" width="40.84" height="40.84" fill="#231f20"/>
  <rect x="217.03" y="389.82" width="40.84" height="40.84" fill="#231f20"/>
  <rect x="260.03" y="389.89" width="40.84" height="40.84" fill="#231f20"/>
  <rect x="303.43" y="389.82" width="40.84" height="40.84" fill="#231f20"/>
  <rect x="346.55" y="389.82" width="40.84" height="40.84" fill="#231f20"/>
  <rect x=".93" y="389.82" width="40.84" height="40.84" fill="#231f20"/>
  <rect x="44.13" y="389.82" width="40.84" height="40.84" fill="#231f20"/>
  <rect x="87.16" y="346.62" width="40.84" height="40.84" fill="#231f20"/>
  <rect x="130.56" y="346.55" width="40.84" height="40.84" fill="#231f20"/>
  <rect x="87.16" y="303.42" width="40.84" height="40.84" fill="#231f20"/>
  <rect x="130.56" y="303.35" width="40.84" height="40.84" fill="#231f20"/>
  <rect x="173.63" y="346.62" width="40.84" height="40.84" fill="#231f20"/>
  <rect x="217.03" y="346.55" width="40.84" height="40.84" fill="#231f20"/>
  <rect x="173.63" y="303.42" width="40.84" height="40.84" fill="#231f20"/>
  <rect x="217.03" y="303.35" width="40.84" height="40.84" fill="#231f20"/>
  <rect x="260.03" y="346.62" width="40.84" height="40.84" fill="#231f20"/>
  <rect x="303.43" y="346.55" width="40.84" height="40.84" fill="#231f20"/>
  <rect x="260.03" y="303.42" width="40.84" height="40.84" fill="#231f20"/>
  <rect x="303.43" y="303.35" width="40.84" height="40.84" fill="#231f20"/>
  <rect x="346.55" y="346.55" width="40.84" height="40.84" fill="#231f20"/>
  <rect x="346.55" y="303.35" width="40.84" height="40.84" fill="#231f20"/>
  <rect x=".93" y="346.55" width="40.84" height="40.84" fill="#231f20"/>
  <rect x="44.13" y="346.55" width="40.84" height="40.84" fill="#231f20"/>
  <rect x=".93" y="303.35" width="40.84" height="40.84" fill="#231f20"/>
  <rect x="44.13" y="303.35" width="40.84" height="40.84" fill="#231f20"/>
  <rect x="87.16" y="260.39" width="40.84" height="40.84" fill="#231f20"/>
  <rect x="130.56" y="260.32" width="40.84" height="40.84" fill="#231f20"/>
  <rect x="87.16" y="217.19" width="40.84" height="40.84" fill="#231f20"/>
  <rect x="130.56" y="217.12" width="40.84" height="40.84" fill="#231f20"/>
  <rect x="173.63" y="260.39" width="40.84" height="40.84" fill="#231f20"/>
  <rect x="217.03" y="260.32" width="40.84" height="40.84" fill="#231f20"/>
  <rect x="173.63" y="217.19" width="40.84" height="40.84" fill="#231f20"/>
  <rect x="217.03" y="217.12" width="40.84" height="40.84" fill="#231f20"/>
  <rect x="260.03" y="260.39" width="40.84" height="40.84" fill="#231f20"/>
  <rect x="303.43" y="260.32" width="40.84" height="40.84" fill="#231f20"/>
  <rect x="260.03" y="217.19" width="40.84" height="40.84" fill="#231f20"/>
  <rect x="303.43" y="217.12" width="40.84" height="40.84" fill="#231f20"/>
  <rect x="87.16" y="173.92" width="40.84" height="40.84" fill="#231f20"/>
  <rect x="130.56" y="173.86" width="40.84" height="40.84" fill="#231f20"/>
  <rect x="173.63" y="173.92" width="40.84" height="40.84" fill="#231f20"/>
  <rect x="217.03" y="173.86" width="40.84" height="40.84" fill="#231f20"/>
  <rect x="260.03" y="173.92" width="40.84" height="40.84" fill="#231f20"/>
  <rect x="303.43" y="173.86" width="40.84" height="40.84" fill="#231f20"/>
  <rect x="346.55" y="173.86" width="40.84" height="40.84" fill="#231f20"/>
  <rect x="735.43" y="173.86" width="40.84" height="40.84" fill="#231f20"/>
  <rect x="735.43" y="130.59" width="40.84" height="40.84" fill="#231f20"/>
  <rect x="778.54" y="173.86" width="40.84" height="40.84" fill="#231f20"/>
  <rect x="778.54" y="130.59" width="40.84" height="40.84" fill="#231f20"/>
  <rect x="735.43" y="217.13" width="40.84" height="40.84" fill="#231f20"/>
  <rect x="778.54" y="217.13" width="40.84" height="40.84" fill="#231f20"/>
  <rect x="130.56" y="130.76" width="40.84" height="40.84" fill="#231f20"/>
  <rect x="173.63" y="130.82" width="40.84" height="40.84" fill="#231f20"/>
  <rect x="217.03" y="130.76" width="40.84" height="40.84" fill="#231f20"/>
  <rect x="260.03" y="130.82" width="40.84" height="40.84" fill="#231f20"/>
  <rect x="303.43" y="130.76" width="40.84" height="40.84" fill="#231f20"/>
  <rect x="173.63" y="87.56" width="40.84" height="40.84" fill="#231f20"/>
  <rect x="217.03" y="87.49" width="40.84" height="40.84" fill="#231f20"/>
  <rect x="260.03" y="87.56" width="40.84" height="40.84" fill="#231f20"/>
  <rect x="303.43" y="87.49" width="40.84" height="40.84" fill="#231f20"/>
  <rect x="260.03" y="44.42" width="40.84" height="40.84" fill="#231f20"/>
  <rect x="217.03" y="44.42" width="40.84" height="40.84" fill="#231f20"/>
  <rect x="303.43" y="44.36" width="40.84" height="40.84" fill="#231f20"/>
  <rect x="260.03" y="1.16" width="40.84" height="40.84" fill="#231f20"/>
  <rect x="303.43" y="1.09" width="40.84" height="40.84" fill="#231f20"/>
  <rect x="346.57" y="1.09" width="40.84" height="40.84" fill="#231f20"/>
  <rect x=".93" y="260.32" width="40.84" height="40.84" fill="#231f20"/>
  <rect x="44.13" y="260.32" width="40.84" height="40.84" fill="#231f20"/>
  <rect x=".93" y="217.12" width="40.84" height="40.84" fill="#231f20"/>
  <rect x="44.13" y="217.12" width="40.84" height="40.84" fill="#231f20"/>
  <rect x="187.52" y="879.66" width="13.39" height="13.39" fill="#231f20"/>
  <rect x="187.58" y="835.61" width="13.39" height="13.39" fill="#231f20"/>
  <rect x="230.76" y="879.66" width="13.39" height="13.39" fill="#231f20"/>
  <rect x="274.03" y="922.03" width="13.39" height="13.39" fill="#231f20"/>
  <rect x="230.76" y="922.03" width="13.39" height="13.39" fill="#231f20"/>
  <rect x="317.18" y="964.41" width="13.39" height="13.39" fill="#231f20"/>
  <rect x="275.13" y="964.41" width="13.39" height="13.39" fill="#231f20"/>
  <rect x="401.83" y="1008.33" width="13.39" height="13.39" fill="#231f20"/>
  <rect x="359.78" y="1008.33" width="13.39" height="13.39" fill="#231f20"/>
  <rect x="489.34" y="879.66" width="13.39" height="13.39" fill="#231f20"/>
  <rect x="447.28" y="879.66" width="13.39" height="13.39" fill="#231f20"/>
  <rect x="531.39" y="835.61" width="13.39" height="13.39" fill="#231f20"/>
  <rect x="489.34" y="835.61" width="13.39" height="13.39" fill="#231f20"/>
  <rect x="575.2" y="792.48" width="13.39" height="13.39" fill="#231f20"/>
  <rect x="533.14" y="792.48" width="13.39" height="13.39" fill="#231f20"/>
  <rect x="618.94" y="749.34" width="13.39" height="13.39" fill="#231f20"/>
  <rect x="662.66" y="749.34" width="13.39" height="13.39" fill="#231f20"/>
  <rect x="576.88" y="749.34" width="13.39" height="13.39" fill="#231f20"/>
  <rect x="618.94" y="706.05" width="13.39" height="13.39" fill="#231f20"/>
  <rect x="576.88" y="706.05" width="13.39" height="13.39" fill="#231f20"/>
  <rect x="618.94" y="662.91" width="13.39" height="13.39" fill="#231f20"/>
  <rect x="576.88" y="662.91" width="13.39" height="13.39" fill="#231f20"/>
  <rect x="447.39" y="1051.53" width="13.39" height="13.39" fill="#231f20"/>
  <rect x="405.33" y="1051.53" width="13.39" height="13.39" fill="#231f20"/>
  <rect x="532.54" y="1051.53" width="13.39" height="13.39" fill="#231f20"/>
  <rect x="490.48" y="1051.53" width="13.39" height="13.39" fill="#231f20"/>
  <rect x="187.52" y="749.35" width="13.39" height="13.39" fill="#231f20"/>
  <rect x="230.78" y="706.15" width="13.39" height="13.39" fill="#231f20"/>
  <rect x="273.81" y="662.88" width="13.39" height="13.39" fill="#231f20"/>
  <rect x="317.21" y="619.68" width="13.39" height="13.39" fill="#231f20"/>
  <rect x="360.27" y="576.55" width="13.39" height="13.39" fill="#231f20"/>
  <rect x="403.27" y="576.55" width="13.39" height="13.39" fill="#231f20"/>
  <rect x="446.67" y="576.55" width="13.39" height="13.39" fill="#231f20"/>
  <rect x="403.27" y="403.61" width="13.39" height="13.39" fill="#231f20"/>
  <rect x="446.67" y="403.61" width="13.39" height="13.39" fill="#231f20"/>
  <rect x="490.13" y="403.61" width="13.39" height="13.39" fill="#231f20"/>
  <rect x="533.11" y="403.61" width="13.39" height="13.39" fill="#231f20"/>
  <rect x="533.11" y="359.1" width="13.39" height="13.39" fill="#231f20"/>
  <rect x="576.08" y="359.1" width="13.39" height="13.39" fill="#231f20"/>
  <rect x="619.62" y="317.15" width="13.39" height="13.39" fill="#231f20"/>
  <rect x="662.83" y="317.15" width="13.39" height="13.39" fill="#231f20"/>
  <rect x="662.83" y="274.11" width="13.39" height="13.39" fill="#231f20"/>
  <rect x="749.33" y="100.02" width="13.39" height="13.39" fill="#231f20"/>
  <rect x="749.33" y="56.99" width="13.39" height="13.39" fill="#231f20"/>
  <rect x="705.79" y="56.99" width="13.39" height="13.39" fill="#231f20"/>
  <rect x="705.79" y="14.81" width="13.39" height="13.39" fill="#231f20"/>
  <rect x="662.94" y="14.81" width="13.39" height="13.39" fill="#231f20"/>
  <rect x="619.62" y="14.81" width="13.39" height="13.39" fill="#231f20"/>
  <rect x="749.11" y="360.4" width="13.39" height="13.39" fill="#231f20"/>
  <rect x="749.33" y="317.36" width="13.39" height="13.39" fill="#231f20"/>
  <rect x="705.84" y="447.91" width="13.39" height="13.39" fill="#231f20"/>
  <rect x="705.84" y="490.08" width="13.39" height="13.39" fill="#231f20"/>
  <rect x="662.73" y="447.91" width="13.39" height="13.39" fill="#231f20"/>
  <rect x="662.73" y="490.08" width="13.39" height="13.39" fill="#231f20"/>
  <rect x="792.26" y="490.08" width="13.39" height="13.39" fill="#231f20"/>
  <rect x="749.15" y="490.08" width="13.39" height="13.39" fill="#231f20"/>
  <rect x="792.26" y="446.81" width="13.39" height="13.39" fill="#231f20"/>
  <rect x="835.26" y="490.08" width="13.39" height="13.39" fill="#231f20"/>
  <rect x="835.26" y="446.81" width="13.39" height="13.39" fill="#231f20"/>
  <rect x="835.26" y="577.69" width="13.39" height="13.39" fill="#231f20"/>
  <rect x="835.26" y="534.43" width="13.39" height="13.39" fill="#231f20"/>
  <rect x="792.27" y="577.69" width="13.39" height="13.39" fill="#231f20"/>
  <rect x="792.27" y="534.43" width="13.39" height="13.39" fill="#231f20"/>
  <rect x="792.27" y="662.91" width="13.39" height="13.39" fill="#231f20"/>
  <rect x="792.27" y="619.65" width="13.39" height="13.39" fill="#231f20"/>
  <rect x="749.33" y="662.91" width="13.39" height="13.39" fill="#231f20"/>
  <rect x="749.33" y="619.65" width="13.39" height="13.39" fill="#231f20"/>
  <rect x="878.57" y="619.65" width="13.39" height="13.39" fill="#231f20"/>
  <rect x="835.64" y="619.65" width="13.39" height="13.39" fill="#231f20"/>
  <rect x="706.2" y="749.34" width="13.39" height="13.39" fill="#231f20"/>
  <rect x="706.2" y="792.48" width="13.39" height="13.39" fill="#231f20"/>
  <rect x="749.56" y="792.48" width="13.39" height="13.39" fill="#231f20"/>
  <rect x="749.56" y="835.61" width="13.39" height="13.39" fill="#231f20"/>
  <rect x="792.27" y="835.61" width="13.39" height="13.39" fill="#231f20"/>
  <rect x="792.27" y="879.66" width="13.39" height="13.39" fill="#231f20"/>
  <rect x="835.2" y="879.66" width="13.39" height="13.39" fill="#231f20"/>
  <rect x="835.2" y="921.8" width="13.39" height="13.39" fill="#231f20"/>
  <rect x="878.13" y="921.8" width="13.39" height="13.39" fill="#231f20"/>
  <rect x="878.13" y="963.94" width="13.39" height="13.39" fill="#231f20"/>
  <rect x="878.13" y="1007.38" width="13.39" height="13.39" fill="#231f20"/>
  <rect x="921.06" y="1007.38" width="13.39" height="13.39" fill="#231f20"/>
  <rect x="921.06" y="1051.53" width="13.39" height="13.39" fill="#231f20"/>
  <rect x="966.38" y="1051.53" width="13.39" height="13.39" fill="#231f20"/>
  <rect x="706.2" y="706.05" width="13.39" height="13.39" fill="#231f20"/>
  <rect x="749.33" y="706.05" width="13.39" height="13.39" fill="#231f20"/>
  <rect x="749.15" y="446.81" width="13.39" height="13.39" fill="#231f20"/>
  <rect x="878.66" y="404.88" width="13.39" height="13.39" fill="#231f20"/>
  <rect x="835.55" y="404.88" width="13.39" height="13.39" fill="#231f20"/>
  <rect x="878.66" y="359.1" width="13.39" height="13.39" fill="#231f20"/>
  <rect x="835.55" y="359.1" width="13.39" height="13.39" fill="#231f20"/>
  <rect x="835.55" y="317.15" width="13.39" height="13.39" fill="#231f20"/>
  <rect x="921.86" y="317.36" width="13.39" height="13.39" fill="#231f20"/>
  <rect x="878.75" y="317.36" width="13.39" height="13.39" fill="#231f20"/>
  <rect x="705.84" y="404.88" width="13.39" height="13.39" fill="#231f20"/>
  <rect x="705.79" y="274.11" width="13.39" height="13.39" fill="#231f20"/>
  <rect x="749.22" y="274.11" width="13.39" height="13.39" fill="#231f20"/>
  <rect x="706.38" y="230.91" width="13.39" height="13.39" fill="#231f20"/>
  <rect x="706.26" y="187.66" width="13.39" height="13.39" fill="#231f20"/>
  <rect x="835.26" y="274.11" width="13.39" height="13.39" fill="#231f20"/>
  <rect x="835.85" y="230.91" width="13.39" height="13.39" fill="#231f20"/>
  <rect x="921.57" y="274.11" width="13.39" height="13.39" fill="#231f20"/>
  <rect x="965.23" y="360.73" width="13.39" height="13.39" fill="#231f20"/>
  <rect x="965.23" y="317.42" width="13.39" height="13.39" fill="#231f20"/>
  <rect x="1009.04" y="403.55" width="13.39" height="13.39" fill="#231f20"/>
  <rect x="1052.8" y="403.55" width="13.39" height="13.39" fill="#231f20"/>
  <rect x="1052.8" y="446.81" width="13.39" height="13.39" fill="#231f20"/>
  <rect x="1009.04" y="360.73" width="13.39" height="13.39" fill="#231f20"/>
  <rect x="922.15" y="230.91" width="13.39" height="13.39" fill="#231f20"/>
  <rect x="965.31" y="274.11" width="13.39" height="13.39" fill="#231f20"/>
  <rect x="1009.63" y="230.91" width="13.39" height="13.39" fill="#231f20"/>
  <rect x="1052.8" y="230.91" width="13.39" height="13.39" fill="#231f20"/>
  <rect x="1052.8" y="187.58" width="13.39" height="13.39" fill="#231f20"/>
  <rect x="879" y="230.91" width="13.39" height="13.39" fill="#231f20"/>
  <rect x="922.15" y="100.02" width="13.39" height="13.39" fill="#231f20"/>
  <rect x="879" y="100.02" width="13.39" height="13.39" fill="#231f20"/>
  <rect x="922.15" y="56.99" width="13.39" height="13.39" fill="#231f20"/>
  <rect x="879" y="56.99" width="13.39" height="13.39" fill="#231f20"/>
  <rect x="1008.28" y="56.99" width="13.39" height="13.39" fill="#231f20"/>
  <rect x="965.13" y="56.99" width="13.39" height="13.39" fill="#231f20"/>
  <rect x="1008.28" y="14.81" width="13.39" height="13.39" fill="#231f20"/>
  <rect x="1052.8" y="14.81" width="13.39" height="13.39" fill="#231f20"/>
  <rect x="965.13" y="14.81" width="13.39" height="13.39" fill="#231f20"/>
  <rect x="835.73" y="187.66" width="13.39" height="13.39" fill="#231f20"/>
  <rect x="835.73" y="144.31" width="13.39" height="13.39" fill="#231f20"/>
  <rect x="792.19" y="274.11" width="13.39" height="13.39" fill="#231f20"/>
  <rect x="490.13" y="533.28" width="13.39" height="13.39" fill="#231f20"/>
  <rect x="490.13" y="490.08" width="13.39" height="13.39" fill="#231f20"/>
  <rect x="533.11" y="576.48" width="13.39" height="13.39" fill="#231f20"/>
  <rect x="533.11" y="533.28" width="13.39" height="13.39" fill="#231f20"/>
  <rect x="576.08" y="619.68" width="13.39" height="13.39" fill="#231f20"/>
  <rect x="576.08" y="576.48" width="13.39" height="13.39" fill="#231f20"/>
  <rect x="619.62" y="619.68" width="13.39" height="13.39" fill="#231f20"/>
  <rect x="619.62" y="576.48" width="13.39" height="13.39" fill="#231f20"/>
  <rect x="662.73" y="533.28" width="13.39" height="13.39" fill="#231f20"/>
  <rect x="662.73" y="576.48" width="13.39" height="13.39" fill="#231f20"/>
  <rect x="705.84" y="533.28" width="13.39" height="13.39" fill="#231f20"/>
  <rect x="490.13" y="446.88" width="13.39" height="13.39" fill="#231f20"/>
  <rect x="403.27" y="359.1" width="13.39" height="13.39" fill="#231f20"/>
  <rect x="403.27" y="315.9" width="13.39" height="13.39" fill="#231f20"/>
  <rect x="360.27" y="274.08" width="13.39" height="13.39" fill="#231f20"/>
  <rect x="360.27" y="230.88" width="13.39" height="13.39" fill="#231f20"/>
  <rect x="403.27" y="187.65" width="13.39" height="13.39" fill="#231f20"/>
  <rect x="360.27" y="144.55" width="13.39" height="13.39" fill="#231f20"/>
  <rect x="360.27" y="58.08" width="13.39" height="13.39" fill="#231f20"/>
  <rect x="403.27" y="14.81" width="13.39" height="13.39" fill="#231f20"/>
  <rect x="230.76" y="14.81" width="13.39" height="13.39" fill="#231f20"/>
  <rect x="187.36" y="58.08" width="13.39" height="13.39" fill="#231f20"/>
  <rect x="144.29" y="101.21" width="13.39" height="13.39" fill="#231f20"/>
  <rect x="100.89" y="144.55" width="13.39" height="13.39" fill="#231f20"/>
  <rect x="57.86" y="187.58" width="13.39" height="13.39" fill="#231f20"/>
  <rect x="14.66" y="187.58" width="13.39" height="13.39" fill="#231f20"/>
  <rect x="14.71" y="879.66" width="13.39" height="13.39" fill="#231f20"/>
  <rect x="57.91" y="835.61" width="13.39" height="13.39" fill="#231f20"/>
  <rect x="144.34" y="879.66" width="13.39" height="13.39" fill="#231f20"/>
</svg>