<?xml version="1.0" encoding="UTF-8"?>
<svg id="_20" data-name="20" xmlns="http://www.w3.org/2000/svg" viewBox="0 0 1080 1080">
  <rect x="779.15" y="346.66" width="40.78" height="40.78" transform="translate(432.49 1166.58) rotate(-90)" fill="#231f20"/>
  <rect x="779.15" y="389.89" width="40.78" height="40.78" transform="translate(389.25 1209.82) rotate(-90)" fill="#231f20"/>
  <rect x="779.15" y="303.69" width="40.78" height="40.78" transform="translate(475.46 1123.62) rotate(-90)" fill="#231f20"/>
  <rect x="779.15" y="260.31" width="40.78" height="40.78" transform="translate(518.83 1080.24) rotate(-90)" fill="#231f20"/>
  <rect x="779.15" y="217.34" width="40.78" height="40.78" transform="translate(561.8 1037.27) rotate(-90)" fill="#231f20"/>
  <rect x="779.15" y="174.13" width="40.78" height="40.78" transform="translate(605.02 994.05) rotate(-90)" fill="#231f20"/>
  <rect x="822.29" y="346.66" width="40.78" height="40.78" transform="translate(475.64 1209.73) rotate(-90)" fill="#231f20"/>
  <rect x="822.29" y="303.69" width="40.78" height="40.78" transform="translate(518.6 1166.76) rotate(-90)" fill="#231f20"/>
  <rect x="822.29" y="260.31" width="40.78" height="40.78" transform="translate(561.98 1123.38) rotate(-90)" fill="#231f20"/>
  <rect x="865.44" y="303.69" width="40.78" height="40.78" transform="translate(561.75 1209.91) rotate(-90)" fill="#231f20"/>
  <rect x="865.44" y="260.31" width="40.78" height="40.78" transform="translate(605.13 1166.53) rotate(-90)" fill="#231f20"/>
  <rect x="908.58" y="303.69" width="40.78" height="40.78" transform="translate(604.89 1253.05) rotate(-90)" fill="#231f20"/>
  <rect x="951.63" y="346.66" width="40.78" height="40.78" transform="translate(604.97 1339.06) rotate(-90)" fill="#231f20"/>
  <rect x="994.68" y="346.66" width="40.78" height="40.78" transform="translate(648.03 1382.12) rotate(-90)" fill="#231f20"/>
  <rect x="907.98" y="346.66" width="40.78" height="40.78" transform="translate(561.32 1295.41) rotate(-90)" fill="#231f20"/>
  <rect x="951.63" y="389.76" width="40.78" height="40.78" transform="translate(561.87 1382.16) rotate(-90)" fill="#231f20"/>
  <rect x="950.01" y="606.62" width="40.78" height="40.78" transform="translate(343.39 1597.42) rotate(-90)" fill="#231f20"/>
  <rect x="863.82" y="520.42" width="40.78" height="40.78" transform="translate(343.4 1425.03) rotate(-90)" fill="#231f20"/>
  <rect x="863.82" y="477.16" width="40.78" height="40.78" transform="translate(386.67 1381.76) rotate(-90)" fill="#231f20"/>
  <rect x="993.07" y="692.71" width="40.78" height="40.78" transform="translate(300.36 1726.56) rotate(-90)" fill="#231f20"/>
  <rect x="908.58" y="260.31" width="40.78" height="40.78" transform="translate(648.27 1209.68) rotate(-90)" fill="#231f20"/>
  <rect x="908.58" y="217.29" width="40.78" height="40.78" transform="translate(691.29 1166.66) rotate(-90)" fill="#231f20"/>
  <rect x="822.29" y="217.34" width="40.78" height="40.78" transform="translate(604.95 1080.42) rotate(-90)" fill="#231f20"/>
  <rect x="736" y="260.31" width="40.78" height="40.78" transform="translate(475.69 1037.09) rotate(-90)" fill="#231f20"/>
  <rect x="736" y="217.34" width="40.78" height="40.78" transform="translate(518.65 994.13) rotate(-90)" fill="#231f20"/>
  <rect x="691.13" y="132.15" width="40.78" height="40.78" transform="translate(558.98 864.06) rotate(-90)" fill="#231f20"/>
  <rect x="736" y="346.66" width="40.78" height="40.78" transform="translate(389.34 1123.44) rotate(-90)" fill="#231f20"/>
  <rect x="736" y="303.69" width="40.78" height="40.78" transform="translate(432.31 1080.47) rotate(-90)" fill="#231f20"/>
  <rect x="605.81" y="303.36" width="40.78" height="40.78" transform="translate(302.45 949.96) rotate(-90)" fill="#231f20"/>
  <rect x="519.58" y="260.41" width="40.78" height="40.78" transform="translate(259.17 820.77) rotate(-90)" fill="#231f20"/>
  <rect x="519.47" y="217.17" width="40.78" height="40.78" transform="translate(302.31 777.42) rotate(-90)" fill="#231f20"/>
  <rect x="476.33" y="217.17" width="40.78" height="40.78" transform="translate(259.16 734.27) rotate(-90)" fill="#231f20"/>
  <rect x="433.18" y="217.17" width="40.78" height="40.78" transform="translate(216.01 691.13) rotate(-90)" fill="#231f20"/>
  <rect x="390.15" y="217.17" width="40.78" height="40.78" transform="translate(172.98 648.09) rotate(-90)" fill="#231f20"/>
  <rect x="476.44" y="260.41" width="40.78" height="40.78" transform="translate(216.03 777.63) rotate(-90)" fill="#231f20"/>
  <rect x="303.51" y="259.98" width="40.78" height="40.78" transform="translate(43.53 604.28) rotate(-90)" fill="#231f20"/>
  <rect x="260.33" y="216.97" width="40.78" height="40.78" transform="translate(43.36 518.08) rotate(-90)" fill="#231f20"/>
  <rect x="260.26" y="346.76" width="40.78" height="40.78" transform="translate(-86.51 647.8) rotate(-90)" fill="#231f20"/>
  <rect x="216.81" y="216.97" width="40.78" height="40.78" transform="translate(-.16 474.56) rotate(-90)" fill="#231f20"/>
  <rect x="216.81" y="173.73" width="40.78" height="40.78" transform="translate(43.08 431.31) rotate(-90)" fill="#231f20"/>
  <rect x="130.58" y="173.77" width="40.78" height="40.78" transform="translate(-43.19 345.13) rotate(-90)" fill="#231f20"/>
  <rect x="130.58" y="130.63" width="40.78" height="40.78" transform="translate(-.05 301.99) rotate(-90)" fill="#231f20"/>
  <rect x="130.58" y="87.5" width="40.78" height="40.78" transform="translate(43.08 258.86) rotate(-90)" fill="#231f20"/>
  <rect x="173.59" y="130.63" width="40.78" height="40.78" transform="translate(42.97 345) rotate(-90)" fill="#231f20"/>
  <rect x="173.59" y="87.5" width="40.78" height="40.78" transform="translate(86.09 301.87) rotate(-90)" fill="#231f20"/>
  <rect x="130.58" y="44.17" width="40.78" height="40.78" transform="translate(86.41 215.54) rotate(-90)" fill="#231f20"/>
  <rect x="87.26" y="173.77" width="40.78" height="40.78" transform="translate(-86.51 301.82) rotate(-90)" fill="#231f20"/>
  <rect x="87.26" y="130.63" width="40.78" height="40.78" transform="translate(-43.36 258.67) rotate(-90)" fill="#231f20"/>
  <rect x="130.78" y="260.4" width="40.78" height="40.78" transform="translate(-129.62 431.97) rotate(-90)" fill="#231f20"/>
  <rect x="130.61" y="216.97" width="40.78" height="40.78" transform="translate(-86.35 388.36) rotate(-90)" fill="#231f20"/>
  <rect x="87.47" y="260.4" width="40.78" height="40.78" transform="translate(-172.93 388.65) rotate(-90)" fill="#231f20"/>
  <rect x="87.3" y="216.97" width="40.78" height="40.78" transform="translate(-129.67 345.05) rotate(-90)" fill="#231f20"/>
  <rect x="87.26" y="87.5" width="40.78" height="40.78" transform="translate(-.24 215.54) rotate(-90)" fill="#231f20"/>
  <rect x="87.26" y="44.17" width="40.78" height="40.78" transform="translate(43.09 172.22) rotate(-90)" fill="#231f20"/>
  <rect x="44.18" y="173.77" width="40.78" height="40.78" transform="translate(-129.59 258.73) rotate(-90)" fill="#231f20"/>
  <rect x="44.18" y="130.63" width="40.78" height="40.78" transform="translate(-86.45 215.59) rotate(-90)" fill="#231f20"/>
  <rect x="44.38" y="260.4" width="40.78" height="40.78" transform="translate(-216.02 345.57) rotate(-90)" fill="#231f20"/>
  <rect x="44.21" y="216.97" width="40.78" height="40.78" transform="translate(-172.75 301.96) rotate(-90)" fill="#231f20"/>
  <rect x="44.18" y="87.5" width="40.78" height="40.78" transform="translate(-43.32 172.46) rotate(-90)" fill="#231f20"/>
  <rect x="44.18" y="44.17" width="40.78" height="40.78" transform="translate(0 129.14) rotate(-90)" fill="#231f20"/>
  <rect x="1.06" y="173.77" width="40.78" height="40.78" transform="translate(-172.71 215.62) rotate(-90)" fill="#231f20"/>
  <rect x="1.06" y="130.63" width="40.78" height="40.78" transform="translate(-129.56 172.47) rotate(-90)" fill="#231f20"/>
  <rect x="1.27" y="260.4" width="40.78" height="40.78" transform="translate(-259.13 302.45) rotate(-90)" fill="#231f20"/>
  <rect x="1.1" y="216.97" width="40.78" height="40.78" transform="translate(-215.87 258.85) rotate(-90)" fill="#231f20"/>
  <rect x="1.06" y="87.5" width="40.78" height="40.78" transform="translate(-86.44 129.34) rotate(-90)" fill="#231f20"/>
  <rect x="1.06" y="44.17" width="40.78" height="40.78" transform="translate(-43.11 86.02) rotate(-90)" fill="#231f20"/>
  <rect x="130.58" y="1.02" width="40.78" height="40.78" transform="translate(129.56 172.38) rotate(-90)" fill="#231f20"/>
  <rect x="173.69" y="1.02" width="40.78" height="40.78" transform="translate(172.67 215.5) rotate(-90)" fill="#231f20"/>
  <rect x="87.26" y="1.02" width="40.78" height="40.78" transform="translate(86.24 129.07) rotate(-90)" fill="#231f20"/>
  <rect x="44.18" y="1.02" width="40.78" height="40.78" transform="translate(43.16 85.98) rotate(-90)" fill="#231f20"/>
  <rect x="1.06" y="1.02" width="40.78" height="40.78" transform="translate(.04 42.87) rotate(-90)" fill="#231f20"/>
  <rect x="130.58" y="477.64" width="40.78" height="40.78" transform="translate(-347.06 649) rotate(-90)" fill="#231f20"/>
  <rect x="130.52" y="433.32" width="40.78" height="40.78" transform="translate(-302.81 604.62) rotate(-90)" fill="#231f20"/>
  <rect x="130.45" y="390.11" width="40.78" height="40.78" transform="translate(-259.66 561.35) rotate(-90)" fill="#231f20"/>
  <rect x="130.43" y="346.76" width="40.78" height="40.78" transform="translate(-216.33 517.97) rotate(-90)" fill="#231f20"/>
  <rect x="87.26" y="477.64" width="40.78" height="40.78" transform="translate(-390.37 605.68) rotate(-90)" fill="#231f20"/>
  <rect x="87.2" y="433.32" width="40.78" height="40.78" transform="translate(-346.12 561.31) rotate(-90)" fill="#231f20"/>
  <rect x="130.61" y="563.91" width="40.78" height="40.78" transform="translate(-433.3 735.3) rotate(-90)" fill="#231f20"/>
  <rect x="130.61" y="520.67" width="40.78" height="40.78" transform="translate(-390.06 692.06) rotate(-90)" fill="#231f20"/>
  <rect x="87.3" y="563.91" width="40.78" height="40.78" transform="translate(-476.61 691.98) rotate(-90)" fill="#231f20"/>
  <rect x="87.3" y="520.67" width="40.78" height="40.78" transform="translate(-433.38 648.75) rotate(-90)" fill="#231f20"/>
  <rect x="130.58" y="649.88" width="40.78" height="40.78" transform="translate(-519.3 821.24) rotate(-90)" fill="#231f20"/>
  <rect x="130.58" y="606.65" width="40.78" height="40.78" transform="translate(-476.07 778.01) rotate(-90)" fill="#231f20"/>
  <rect x="87.26" y="649.88" width="40.78" height="40.78" transform="translate(-562.62 777.93) rotate(-90)" fill="#231f20"/>
  <rect x="87.26" y="606.65" width="40.78" height="40.78" transform="translate(-519.38 734.69) rotate(-90)" fill="#231f20"/>
  <rect x="130.61" y="736.15" width="40.78" height="40.78" transform="translate(-605.54 907.55) rotate(-90)" fill="#231f20"/>
  <rect x="130.61" y="692.92" width="40.78" height="40.78" transform="translate(-562.31 864.31) rotate(-90)" fill="#231f20"/>
  <rect x="130.66" y="822.33" width="40.78" height="40.78" transform="translate(-691.67 993.77) rotate(-90)" fill="#231f20"/>
  <rect x="130.66" y="779.34" width="40.78" height="40.78" transform="translate(-648.68 950.78) rotate(-90)" fill="#231f20"/>
  <rect x="130.63" y="908.55" width="40.78" height="40.78" transform="translate(-777.92 1079.96) rotate(-90)" fill="#231f20"/>
  <rect x="130.66" y="865.44" width="40.78" height="40.78" transform="translate(-734.78 1036.88) rotate(-90)" fill="#231f20"/>
  <rect x="130.66" y="994.82" width="40.78" height="40.78" transform="translate(-864.17 1166.26) rotate(-90)" fill="#231f20"/>
  <rect x="130.63" y="951.69" width="40.78" height="40.78" transform="translate(-821.06 1123.09) rotate(-90)" fill="#231f20"/>
  <rect x="87.26" y="908.64" width="40.78" height="40.78" transform="translate(-821.37 1036.68) rotate(-90)" fill="#231f20"/>
  <rect x="87.3" y="865.53" width="40.78" height="40.78" transform="translate(-778.23 993.6) rotate(-90)" fill="#231f20"/>
  <rect x="87.3" y="994.91" width="40.78" height="40.78" transform="translate(-907.61 1122.99) rotate(-90)" fill="#231f20"/>
  <rect x="87.26" y="951.77" width="40.78" height="40.78" transform="translate(-864.51 1079.82) rotate(-90)" fill="#231f20"/>
  <rect x="44.35" y="908.55" width="40.78" height="40.78" transform="translate(-864.2 993.68) rotate(-90)" fill="#231f20"/>
  <rect x="44.38" y="865.44" width="40.78" height="40.78" transform="translate(-821.06 950.6) rotate(-90)" fill="#231f20"/>
  <rect x="44.38" y="994.82" width="40.78" height="40.78" transform="translate(-950.45 1079.98) rotate(-90)" fill="#231f20"/>
  <rect x="44.35" y="951.69" width="40.78" height="40.78" transform="translate(-907.34 1036.81) rotate(-90)" fill="#231f20"/>
  <rect x=".98" y="908.64" width="40.78" height="40.78" transform="translate(-907.65 950.4) rotate(-90)" fill="#231f20"/>
  <rect x="1.01" y="865.53" width="40.78" height="40.78" transform="translate(-864.51 907.32) rotate(-90)" fill="#231f20"/>
  <rect x="1.01" y="994.91" width="40.78" height="40.78" transform="translate(-993.89 1036.71) rotate(-90)" fill="#231f20"/>
  <rect x="130.66" y="1038.05" width="40.78" height="40.78" transform="translate(-907.39 1209.48) rotate(-90)" fill="#231f20"/>
  <rect x="173.64" y="736.15" width="40.78" height="40.78" transform="translate(-562.51 950.58) rotate(-90)" fill="#231f20"/>
  <rect x="173.69" y="822.33" width="40.78" height="40.78" transform="translate(-648.64 1036.8) rotate(-90)" fill="#231f20"/>
  <rect x="173.69" y="779.34" width="40.78" height="40.78" transform="translate(-605.65 993.81) rotate(-90)" fill="#231f20"/>
  <rect x="173.66" y="908.55" width="40.78" height="40.78" transform="translate(-734.89 1122.99) rotate(-90)" fill="#231f20"/>
  <rect x="173.69" y="865.44" width="40.78" height="40.78" transform="translate(-691.75 1079.91) rotate(-90)" fill="#231f20"/>
  <rect x="173.69" y="994.82" width="40.78" height="40.78" transform="translate(-821.13 1209.29) rotate(-90)" fill="#231f20"/>
  <rect x="173.66" y="951.69" width="40.78" height="40.78" transform="translate(-778.03 1166.12) rotate(-90)" fill="#231f20"/>
  <rect x="173.69" y="1038.05" width="40.78" height="40.78" transform="translate(-864.36 1252.52) rotate(-90)" fill="#231f20"/>
  <rect x="87.3" y="1038.13" width="40.78" height="40.78" transform="translate(-950.84 1166.21) rotate(-90)" fill="#231f20"/>
  <rect x="44.38" y="1038.05" width="40.78" height="40.78" transform="translate(-993.67 1123.2) rotate(-90)" fill="#231f20"/>
  <rect x="1.01" y="1038.13" width="40.78" height="40.78" transform="translate(-1037.12 1079.93) rotate(-90)" fill="#231f20"/>
  <rect x=".98" y="951.77" width="40.78" height="40.78" transform="translate(-950.79 993.54) rotate(-90)" fill="#231f20"/>
  <rect x=".98" y="736.12" width="40.78" height="40.78" transform="translate(-735.14 777.89) rotate(-90)" fill="#231f20"/>
  <rect x="1.01" y="693.01" width="40.78" height="40.78" transform="translate(-692 734.81) rotate(-90)" fill="#231f20"/>
  <rect x="1.01" y="822.4" width="40.78" height="40.78" transform="translate(-821.38 864.19) rotate(-90)" fill="#231f20"/>
  <rect x=".98" y="779.26" width="40.78" height="40.78" transform="translate(-778.28 821.03) rotate(-90)" fill="#231f20"/>
  <rect x="87.3" y="736.15" width="40.78" height="40.78" transform="translate(-648.86 864.23) rotate(-90)" fill="#231f20"/>
  <rect x="87.3" y="692.92" width="40.78" height="40.78" transform="translate(-605.62 821) rotate(-90)" fill="#231f20"/>
  <rect x="87.14" y="390.11" width="40.78" height="40.78" transform="translate(-302.98 518.03) rotate(-90)" fill="#231f20"/>
  <rect x="87.3" y="346.76" width="40.78" height="40.78" transform="translate(-259.47 474.84) rotate(-90)" fill="#231f20"/>
  <rect x="44.18" y="477.64" width="40.78" height="40.78" transform="translate(-433.46 562.6) rotate(-90)" fill="#231f20"/>
  <rect x="44.12" y="433.32" width="40.78" height="40.78" transform="translate(-389.21 518.22) rotate(-90)" fill="#231f20"/>
  <rect x="44.21" y="563.91" width="40.78" height="40.78" transform="translate(-519.7 648.9) rotate(-90)" fill="#231f20"/>
  <rect x="44.21" y="520.67" width="40.78" height="40.78" transform="translate(-476.46 605.67) rotate(-90)" fill="#231f20"/>
  <rect x="44.05" y="390.11" width="40.78" height="40.78" transform="translate(-346.06 474.95) rotate(-90)" fill="#231f20"/>
  <rect x="44.16" y="346.76" width="40.78" height="40.78" transform="translate(-302.6 431.71) rotate(-90)" fill="#231f20"/>
  <rect x="1.06" y="477.64" width="40.78" height="40.78" transform="translate(-476.57 519.48) rotate(-90)" fill="#231f20"/>
  <rect x="1" y="433.32" width="40.78" height="40.78" transform="translate(-432.32 475.11) rotate(-90)" fill="#231f20"/>
  <rect x="1.09" y="563.91" width="40.78" height="40.78" transform="translate(-562.81 605.78) rotate(-90)" fill="#231f20"/>
  <rect x="1.09" y="520.67" width="40.78" height="40.78" transform="translate(-519.58 562.55) rotate(-90)" fill="#231f20"/>
  <rect x="44.21" y="649.88" width="40.78" height="40.78" transform="translate(-605.67 734.87) rotate(-90)" fill="#231f20"/>
  <rect x="44.21" y="606.65" width="40.78" height="40.78" transform="translate(-562.44 691.64) rotate(-90)" fill="#231f20"/>
  <rect x="1.09" y="649.88" width="40.78" height="40.78" transform="translate(-648.79 691.76) rotate(-90)" fill="#231f20"/>
  <rect x="1.09" y="606.65" width="40.78" height="40.78" transform="translate(-605.55 648.52) rotate(-90)" fill="#231f20"/>
  <rect x=".94" y="390.11" width="40.78" height="40.78" transform="translate(-389.18 431.83) rotate(-90)" fill="#231f20"/>
  <rect x="1.03" y="346.76" width="40.78" height="40.78" transform="translate(-345.73 388.57) rotate(-90)" fill="#231f20"/>
  <rect x="130.85" y="303.75" width="40.78" height="40.78" transform="translate(-172.9 475.38) rotate(-90)" fill="#231f20"/>
  <rect x="173.8" y="260.4" width="40.78" height="40.78" transform="translate(-86.61 474.98) rotate(-90)" fill="#231f20"/>
  <rect x="173.63" y="216.97" width="40.78" height="40.78" transform="translate(-43.34 431.38) rotate(-90)" fill="#231f20"/>
  <rect x="130.72" y="216.97" width="40.78" height="40.78" transform="translate(-86.25 388.47) rotate(-90)" fill="#231f20"/>
  <rect x="87.4" y="216.97" width="40.78" height="40.78" transform="translate(-129.57 345.15) rotate(-90)" fill="#231f20"/>
  <rect x="44.32" y="216.97" width="40.78" height="40.78" transform="translate(-172.65 302.07) rotate(-90)" fill="#231f20"/>
  <rect x="1.2" y="216.97" width="40.78" height="40.78" transform="translate(-215.77 258.95) rotate(-90)" fill="#231f20"/>
  <rect x="173.73" y="216.97" width="40.78" height="40.78" transform="translate(-43.24 431.48) rotate(-90)" fill="#231f20"/>
  <rect x="173.59" y="477.64" width="40.78" height="40.78" transform="translate(-304.04 692.01) rotate(-90)" fill="#231f20"/>
  <rect x="173.53" y="433.32" width="40.78" height="40.78" transform="translate(-259.8 647.63) rotate(-90)" fill="#231f20"/>
  <rect x="173.46" y="390.11" width="40.78" height="40.78" transform="translate(-216.65 604.36) rotate(-90)" fill="#231f20"/>
  <rect x="173.56" y="346.76" width="40.78" height="40.78" transform="translate(-173.2 561.1) rotate(-90)" fill="#231f20"/>
  <rect x="173.62" y="563.91" width="40.78" height="40.78" transform="translate(-390.28 778.31) rotate(-90)" fill="#231f20"/>
  <rect x="173.62" y="520.67" width="40.78" height="40.78" transform="translate(-347.05 735.08) rotate(-90)" fill="#231f20"/>
  <rect x="173.86" y="303.75" width="40.78" height="40.78" transform="translate(-129.89 518.39) rotate(-90)" fill="#231f20"/>
  <rect x="87.53" y="303.75" width="40.78" height="40.78" transform="translate(-216.22 432.06) rotate(-90)" fill="#231f20"/>
  <rect x="44.45" y="303.75" width="40.78" height="40.78" transform="translate(-259.3 388.98) rotate(-90)" fill="#231f20"/>
  <rect x="1.33" y="303.75" width="40.78" height="40.78" transform="translate(-302.42 345.86) rotate(-90)" fill="#231f20"/>
  <rect x="173.69" y="173.73" width="40.78" height="40.78" transform="translate(-.03 388.2) rotate(-90)" fill="#231f20"/>
  <rect x="303.51" y="303.36" width="40.78" height="40.78" transform="translate(.15 647.66) rotate(-90)" fill="#231f20"/>
  <rect x="303.51" y="346.33" width="40.78" height="40.78" transform="translate(-42.82 690.63) rotate(-90)" fill="#231f20"/>
  <rect x="346.5" y="432.97" width="40.78" height="40.78" transform="translate(-86.47 820.26) rotate(-90)" fill="#231f20"/>
  <rect x="303.27" y="519.61" width="40.78" height="40.78" transform="translate(-216.34 863.66) rotate(-90)" fill="#231f20"/>
  <rect x="746.93" y="405.33" width="13.37" height="13.37" transform="translate(341.6 1165.63) rotate(-90)" fill="#231f20"/>
  <rect x="57.88" y="836.16" width="13.37" height="13.37" transform="translate(-778.28 907.42) rotate(-90)" fill="#231f20"/>
  <rect x="57.88" y="792.57" width="13.37" height="13.37" transform="translate(-734.69 863.83) rotate(-90)" fill="#231f20"/>
  <rect x="100.97" y="836.16" width="13.37" height="13.37" transform="translate(-735.2 950.51) rotate(-90)" fill="#231f20"/>
  <rect x="100.97" y="792.57" width="13.37" height="13.37" transform="translate(-691.6 906.91) rotate(-90)" fill="#231f20"/>
  <rect x="57.88" y="750.04" width="13.37" height="13.37" transform="translate(-692.15 821.29) rotate(-90)" fill="#231f20"/>
  <rect x="57.88" y="706.44" width="13.37" height="13.37" transform="translate(-648.56 777.7) rotate(-90)" fill="#231f20"/>
  <rect x="230.51" y="836.16" width="13.37" height="13.37" transform="translate(-605.65 1080.05) rotate(-90)" fill="#231f20"/>
  <rect x="230.51" y="792.57" width="13.37" height="13.37" transform="translate(-562.06 1036.45) rotate(-90)" fill="#231f20"/>
  <rect x="230.51" y="750.04" width="13.37" height="13.37" transform="translate(-519.53 993.92) rotate(-90)" fill="#231f20"/>
  <rect x="230.51" y="706.44" width="13.37" height="13.37" transform="translate(-475.93 950.33) rotate(-90)" fill="#231f20"/>
  <rect x="230.51" y="663.77" width="13.37" height="13.37" transform="translate(-433.25 907.65) rotate(-90)" fill="#231f20"/>
  <rect x="230.51" y="620.17" width="13.37" height="13.37" transform="translate(-389.66 864.06) rotate(-90)" fill="#231f20"/>
  <rect x="273.12" y="836.16" width="13.37" height="13.37" transform="translate(-563.05 1122.65) rotate(-90)" fill="#231f20"/>
  <rect x="273.12" y="792.57" width="13.37" height="13.37" transform="translate(-519.45 1079.06) rotate(-90)" fill="#231f20"/>
  <rect x="273.12" y="750.04" width="13.37" height="13.37" transform="translate(-476.92 1036.53) rotate(-90)" fill="#231f20"/>
  <rect x="315.72" y="792.57" width="13.37" height="13.37" transform="translate(-476.85 1121.66) rotate(-90)" fill="#231f20"/>
  <rect x="360.84" y="792.57" width="13.37" height="13.37" transform="translate(-431.73 1166.78) rotate(-90)" fill="#231f20"/>
  <rect x="315.72" y="750.04" width="13.37" height="13.37" transform="translate(-434.32 1079.13) rotate(-90)" fill="#231f20"/>
  <rect x="360.84" y="750.04" width="13.37" height="13.37" transform="translate(-389.2 1124.25) rotate(-90)" fill="#231f20"/>
  <rect x="360.84" y="707.5" width="13.37" height="13.37" transform="translate(-346.66 1081.71) rotate(-90)" fill="#231f20"/>
  <rect x="360.84" y="664.97" width="13.37" height="13.37" transform="translate(-304.13 1039.18) rotate(-90)" fill="#231f20"/>
  <rect x="360.84" y="621.29" width="13.37" height="13.37" transform="translate(-260.45 995.5) rotate(-90)" fill="#231f20"/>
  <rect x="404.07" y="707.5" width="13.37" height="13.37" transform="translate(-303.43 1124.94) rotate(-90)" fill="#231f20"/>
  <rect x="404.07" y="664.97" width="13.37" height="13.37" transform="translate(-260.89 1082.41) rotate(-90)" fill="#231f20"/>
  <rect x="404.07" y="792.64" width="13.37" height="13.37" transform="translate(-388.57 1210.09) rotate(-90)" fill="#231f20"/>
  <rect x="404.07" y="750.11" width="13.37" height="13.37" transform="translate(-346.04 1167.56) rotate(-90)" fill="#231f20"/>
  <rect x="447.31" y="792.64" width="13.37" height="13.37" transform="translate(-345.34 1253.32) rotate(-90)" fill="#231f20"/>
  <rect x="447.31" y="750.11" width="13.37" height="13.37" transform="translate(-302.8 1210.79) rotate(-90)" fill="#231f20"/>
  <rect x="489.74" y="835.78" width="13.37" height="13.37" transform="translate(-346.04 1338.89) rotate(-90)" fill="#231f20"/>
  <rect x="531.73" y="836.16" width="13.37" height="13.37" transform="translate(-304.43 1381.27) rotate(-90)" fill="#231f20"/>
  <rect x="575.17" y="835.78" width="13.37" height="13.37" transform="translate(-260.61 1424.33) rotate(-90)" fill="#231f20"/>
  <rect x="617.17" y="836.16" width="13.37" height="13.37" transform="translate(-219 1466.7) rotate(-90)" fill="#231f20"/>
  <rect x="489.74" y="793.25" width="13.37" height="13.37" transform="translate(-303.51 1296.36) rotate(-90)" fill="#231f20"/>
  <rect x="402.73" y="965.99" width="13.37" height="13.37" transform="translate(-563.27 1382.1) rotate(-90)" fill="#231f20"/>
  <rect x="402.73" y="1051.14" width="13.37" height="13.37" transform="translate(-648.41 1467.24) rotate(-90)" fill="#231f20"/>
  <rect x="402.73" y="1008.61" width="13.37" height="13.37" transform="translate(-605.88 1424.71) rotate(-90)" fill="#231f20"/>
  <rect x="447.31" y="965.99" width="13.37" height="13.37" transform="translate(-518.69 1426.68) rotate(-90)" fill="#231f20"/>
  <rect x="447.31" y="1051.14" width="13.37" height="13.37" transform="translate(-603.83 1511.82) rotate(-90)" fill="#231f20"/>
  <rect x="447.31" y="1008.61" width="13.37" height="13.37" transform="translate(-561.3 1469.29) rotate(-90)" fill="#231f20"/>
  <rect x="489.74" y="965.99" width="13.37" height="13.37" transform="translate(-476.26 1469.11) rotate(-90)" fill="#231f20"/>
  <rect x="489.74" y="1051.14" width="13.37" height="13.37" transform="translate(-561.4 1554.25) rotate(-90)" fill="#231f20"/>
  <rect x="489.74" y="1008.61" width="13.37" height="13.37" transform="translate(-518.87 1511.72) rotate(-90)" fill="#231f20"/>
  <rect x="489.74" y="880.56" width="13.37" height="13.37" transform="translate(-390.82 1383.67) rotate(-90)" fill="#231f20"/>
  <rect x="489.74" y="923.17" width="13.37" height="13.37" transform="translate(-433.43 1426.28) rotate(-90)" fill="#231f20"/>
  <rect x="574.6" y="965.99" width="13.37" height="13.37" transform="translate(-391.4 1553.96) rotate(-90)" fill="#231f20"/>
  <rect x="574.6" y="1051.14" width="13.37" height="13.37" transform="translate(-476.54 1639.11) rotate(-90)" fill="#231f20"/>
  <rect x="617.46" y="1051.14" width="13.37" height="13.37" transform="translate(-433.68 1681.98) rotate(-90)" fill="#231f20"/>
  <rect x="617.46" y="1008.61" width="13.37" height="13.37" transform="translate(-391.14 1639.44) rotate(-90)" fill="#231f20"/>
  <rect x="617.46" y="965.99" width="13.37" height="13.37" transform="translate(-348.53 1596.83) rotate(-90)" fill="#231f20"/>
  <rect x="660.33" y="1051.14" width="13.37" height="13.37" transform="translate(-390.81 1724.84) rotate(-90)" fill="#231f20"/>
  <rect x="705.09" y="1051.43" width="13.37" height="13.37" transform="translate(-346.34 1769.89) rotate(-90)" fill="#231f20"/>
  <rect x="705.09" y="1008.82" width="13.37" height="13.37" transform="translate(-303.73 1727.28) rotate(-90)" fill="#231f20"/>
  <rect x="746.62" y="1051.43" width="13.37" height="13.37" transform="translate(-304.81 1811.43) rotate(-90)" fill="#231f20"/>
  <rect x="746.62" y="1008.82" width="13.37" height="13.37" transform="translate(-262.2 1768.81) rotate(-90)" fill="#231f20"/>
  <rect x="705.09" y="966.07" width="13.37" height="13.37" transform="translate(-260.99 1684.54) rotate(-90)" fill="#231f20"/>
  <rect x="705.09" y="923.46" width="13.37" height="13.37" transform="translate(-218.38 1641.92) rotate(-90)" fill="#231f20"/>
  <rect x="746.62" y="966.07" width="13.37" height="13.37" transform="translate(-219.45 1726.07) rotate(-90)" fill="#231f20"/>
  <rect x="746.62" y="923.46" width="13.37" height="13.37" transform="translate(-176.84 1683.46) rotate(-90)" fill="#231f20"/>
  <rect x="705.09" y="880.34" width="13.37" height="13.37" transform="translate(-175.26 1598.81) rotate(-90)" fill="#231f20"/>
  <rect x="705.09" y="836.95" width="13.37" height="13.37" transform="translate(-131.86 1555.41) rotate(-90)" fill="#231f20"/>
  <rect x="705.09" y="792.98" width="13.37" height="13.37" transform="translate(-87.89 1511.44) rotate(-90)" fill="#231f20"/>
  <rect x="746.62" y="749.86" width="13.37" height="13.37" transform="translate(-3.24 1509.85) rotate(-90)" fill="#231f20"/>
  <rect x="746.62" y="792.98" width="13.37" height="13.37" transform="translate(-46.35 1552.97) rotate(-90)" fill="#231f20"/>
  <rect x="746.62" y="707.25" width="13.37" height="13.37" transform="translate(39.38 1467.24) rotate(-90)" fill="#231f20"/>
  <rect x="746.62" y="663.45" width="13.37" height="13.37" transform="translate(83.17 1423.45) rotate(-90)" fill="#231f20"/>
  <rect x="746.62" y="620.66" width="13.37" height="13.37" transform="translate(125.96 1380.66) rotate(-90)" fill="#231f20"/>
  <rect x="705.09" y="707.25" width="13.37" height="13.37" transform="translate(-2.16 1425.71) rotate(-90)" fill="#231f20"/>
  <rect x="705.09" y="663.45" width="13.37" height="13.37" transform="translate(41.64 1381.91) rotate(-90)" fill="#231f20"/>
  <rect x="705.09" y="620.66" width="13.37" height="13.37" transform="translate(84.42 1339.12) rotate(-90)" fill="#231f20"/>
  <rect x="660.61" y="663.45" width="13.37" height="13.37" transform="translate(-2.84 1337.43) rotate(-90)" fill="#231f20"/>
  <rect x="660.61" y="620.66" width="13.37" height="13.37" transform="translate(39.95 1294.65) rotate(-90)" fill="#231f20"/>
  <rect x="660.61" y="792.77" width="13.37" height="13.37" transform="translate(-132.16 1466.75) rotate(-90)" fill="#231f20"/>
  <rect x="660.61" y="749.98" width="13.37" height="13.37" transform="translate(-89.37 1423.97) rotate(-90)" fill="#231f20"/>
  <rect x="660.61" y="706.72" width="13.37" height="13.37" transform="translate(-46.11 1380.7) rotate(-90)" fill="#231f20"/>
  <rect x="617.46" y="620.66" width="13.37" height="13.37" transform="translate(-3.2 1251.5) rotate(-90)" fill="#231f20"/>
  <rect x="617.46" y="750.11" width="13.37" height="13.37" transform="translate(-132.65 1380.95) rotate(-90)" fill="#231f20"/>
  <rect x="617.46" y="792.57" width="13.37" height="13.37" transform="translate(-175.11 1423.41) rotate(-90)" fill="#231f20"/>
  <rect x="575.59" y="620.66" width="13.37" height="13.37" transform="translate(-45.07 1209.63) rotate(-90)" fill="#231f20"/>
  <rect x="532.45" y="578.62" width="13.37" height="13.37" transform="translate(-46.18 1124.44) rotate(-90)" fill="#231f20"/>
  <rect x="575.17" y="578.62" width="13.37" height="13.37" transform="translate(-3.45 1167.17) rotate(-90)" fill="#231f20"/>
  <rect x="488.55" y="578.62" width="13.37" height="13.37" transform="translate(-90.07 1080.55) rotate(-90)" fill="#231f20"/>
  <rect x="447.2" y="620.66" width="13.37" height="13.37" transform="translate(-173.46 1081.24) rotate(-90)" fill="#231f20"/>
  <rect x="447.2" y="577.51" width="13.37" height="13.37" transform="translate(-130.31 1038.09) rotate(-90)" fill="#231f20"/>
  <rect x="447.2" y="534.07" width="13.37" height="13.37" transform="translate(-86.87 994.65) rotate(-90)" fill="#231f20"/>
  <rect x="404.07" y="620.66" width="13.37" height="13.37" transform="translate(-216.59 1038.11) rotate(-90)" fill="#231f20"/>
  <rect x="791.02" y="663.45" width="13.37" height="13.37" transform="translate(127.57 1467.84) rotate(-90)" fill="#231f20"/>
  <rect x="791.02" y="620.66" width="13.37" height="13.37" transform="translate(170.36 1425.06) rotate(-90)" fill="#231f20"/>
  <rect x="791.02" y="792.77" width="13.37" height="13.37" transform="translate(-1.75 1597.17) rotate(-90)" fill="#231f20"/>
  <rect x="791.02" y="749.98" width="13.37" height="13.37" transform="translate(41.04 1554.38) rotate(-90)" fill="#231f20"/>
  <rect x="835.42" y="792.77" width="13.37" height="13.37" transform="translate(42.65 1641.56) rotate(-90)" fill="#231f20"/>
  <rect x="791.02" y="836.95" width="13.37" height="13.37" transform="translate(-45.93 1641.35) rotate(-90)" fill="#231f20"/>
  <rect x="835.42" y="836.95" width="13.37" height="13.37" transform="translate(-1.53 1685.75) rotate(-90)" fill="#231f20"/>
  <rect x="791.02" y="923.17" width="13.37" height="13.37" transform="translate(-132.15 1727.56) rotate(-90)" fill="#231f20"/>
  <rect x="835.42" y="923.17" width="13.37" height="13.37" transform="translate(-87.75 1771.96) rotate(-90)" fill="#231f20"/>
  <rect x="835.42" y="1008.82" width="13.37" height="13.37" transform="translate(-173.4 1857.61) rotate(-90)" fill="#231f20"/>
  <rect x="835.42" y="1051.59" width="13.37" height="13.37" transform="translate(-216.17 1900.39) rotate(-90)" fill="#231f20"/>
  <rect x="879.82" y="1008.98" width="13.37" height="13.37" transform="translate(-129.16 1902.17) rotate(-90)" fill="#231f20"/>
  <rect x="879.82" y="1051.59" width="13.37" height="13.37" transform="translate(-171.77 1944.79) rotate(-90)" fill="#231f20"/>
  <rect x="920.04" y="1051.59" width="13.37" height="13.37" transform="translate(-131.55 1985.01) rotate(-90)" fill="#231f20"/>
  <rect x="964.44" y="1051.59" width="13.37" height="13.37" transform="translate(-87.15 2029.41) rotate(-90)" fill="#231f20"/>
  <rect x="1006.32" y="1051.59" width="13.37" height="13.37" transform="translate(-45.28 2071.28) rotate(-90)" fill="#231f20"/>
  <rect x="1050.71" y="1051.59" width="13.37" height="13.37" transform="translate(-.88 2115.68) rotate(-90)" fill="#231f20"/>
  <rect x="1006.32" y="1008.61" width="13.37" height="13.37" transform="translate(-2.29 2028.3) rotate(-90)" fill="#231f20"/>
  <rect x="1050.71" y="1008.61" width="13.37" height="13.37" transform="translate(42.11 2072.7) rotate(-90)" fill="#231f20"/>
  <rect x="963.18" y="922.28" width="13.37" height="13.37" transform="translate(40.9 1898.83) rotate(-90)" fill="#231f20"/>
  <rect x="1007.58" y="922.28" width="13.37" height="13.37" transform="translate(85.3 1943.23) rotate(-90)" fill="#231f20"/>
  <rect x="963.18" y="879.29" width="13.37" height="13.37" transform="translate(83.89 1855.85) rotate(-90)" fill="#231f20"/>
  <rect x="1007.58" y="879.29" width="13.37" height="13.37" transform="translate(128.29 1900.25) rotate(-90)" fill="#231f20"/>
  <rect x="963.18" y="834.98" width="13.37" height="13.37" transform="translate(128.2 1811.53) rotate(-90)" fill="#231f20"/>
  <rect x="1007.58" y="834.98" width="13.37" height="13.37" transform="translate(172.6 1855.93) rotate(-90)" fill="#231f20"/>
  <rect x="878.08" y="879.29" width="13.37" height="13.37" transform="translate(-1.21 1770.75) rotate(-90)" fill="#231f20"/>
  <rect x="922.48" y="879.29" width="13.37" height="13.37" transform="translate(43.19 1815.15) rotate(-90)" fill="#231f20"/>
  <rect x="878.08" y="834.98" width="13.37" height="13.37" transform="translate(43.1 1726.44) rotate(-90)" fill="#231f20"/>
  <rect x="922.48" y="834.98" width="13.37" height="13.37" transform="translate(87.5 1770.84) rotate(-90)" fill="#231f20"/>
  <rect x="963.18" y="791.99" width="13.37" height="13.37" transform="translate(171.19 1768.55) rotate(-90)" fill="#231f20"/>
  <rect x="1007.58" y="791.99" width="13.37" height="13.37" transform="translate(215.58 1812.95) rotate(-90)" fill="#231f20"/>
  <rect x="1007.58" y="749.21" width="13.37" height="13.37" transform="translate(258.36 1770.17) rotate(-90)" fill="#231f20"/>
  <rect x="1050.71" y="749.21" width="13.37" height="13.37" transform="translate(301.5 1813.3) rotate(-90)" fill="#231f20"/>
  <rect x="1050.71" y="922.28" width="13.37" height="13.37" transform="translate(128.44 1986.37) rotate(-90)" fill="#231f20"/>
  <rect x="1050.71" y="879.29" width="13.37" height="13.37" transform="translate(171.42 1943.38) rotate(-90)" fill="#231f20"/>
  <rect x="1050.71" y="834.98" width="13.37" height="13.37" transform="translate(215.74 1899.07) rotate(-90)" fill="#231f20"/>
  <rect x="1050.71" y="791.99" width="13.37" height="13.37" transform="translate(258.72 1856.08) rotate(-90)" fill="#231f20"/>
  <rect x="835.42" y="966.07" width="13.37" height="13.37" transform="translate(-130.65 1814.87) rotate(-90)" fill="#231f20"/>
  <rect x="835.42" y="749.98" width="13.37" height="13.37" transform="translate(85.44 1598.78) rotate(-90)" fill="#231f20"/>
  <rect x="835.42" y="706.41" width="13.37" height="13.37" transform="translate(129.01 1555.21) rotate(-90)" fill="#231f20"/>
  <rect x="835.42" y="663.45" width="13.37" height="13.37" transform="translate(171.97 1512.24) rotate(-90)" fill="#231f20"/>
  <rect x="877.53" y="706.41" width="13.37" height="13.37" transform="translate(171.12 1597.31) rotate(-90)" fill="#231f20"/>
  <rect x="877.53" y="749.21" width="13.37" height="13.37" transform="translate(128.31 1640.12) rotate(-90)" fill="#231f20"/>
  <rect x="877.53" y="663.45" width="13.37" height="13.37" transform="translate(214.08 1554.35) rotate(-90)" fill="#231f20"/>
  <rect x="922.48" y="706.41" width="13.37" height="13.37" transform="translate(216.07 1642.27) rotate(-90)" fill="#231f20"/>
  <rect x="922.48" y="749.21" width="13.37" height="13.37" transform="translate(173.27 1685.07) rotate(-90)" fill="#231f20"/>
  <rect x="963.18" y="749.21" width="13.37" height="13.37" transform="translate(213.97 1725.77) rotate(-90)" fill="#231f20"/>
  <rect x="922.48" y="663.45" width="13.37" height="13.37" transform="translate(259.03 1599.31) rotate(-90)" fill="#231f20"/>
  <rect x="963.72" y="706.41" width="13.37" height="13.37" transform="translate(257.31 1683.5) rotate(-90)" fill="#231f20"/>
  <rect x="963.72" y="663.45" width="13.37" height="13.37" transform="translate(300.27 1640.54) rotate(-90)" fill="#231f20"/>
  <rect x="835.42" y="577.4" width="13.37" height="13.37" transform="translate(258.02 1426.19) rotate(-90)" fill="#231f20"/>
  <rect x="791.02" y="577.4" width="13.37" height="13.37" transform="translate(213.63 1381.79) rotate(-90)" fill="#231f20"/>
  <rect x="835.42" y="533.82" width="13.37" height="13.37" transform="translate(301.6 1382.62) rotate(-90)" fill="#231f20"/>
  <rect x="835.42" y="490.86" width="13.37" height="13.37" transform="translate(344.56 1339.66) rotate(-90)" fill="#231f20"/>
  <rect x="920.67" y="577.4" width="13.37" height="13.37" transform="translate(343.28 1511.44) rotate(-90)" fill="#231f20"/>
  <rect x="920.67" y="533.82" width="13.37" height="13.37" transform="translate(386.85 1467.87) rotate(-90)" fill="#231f20"/>
  <rect x="920.67" y="490.86" width="13.37" height="13.37" transform="translate(429.81 1424.91) rotate(-90)" fill="#231f20"/>
  <rect x="835.42" y="448.29" width="13.37" height="13.37" transform="translate(387.13 1297.08) rotate(-90)" fill="#231f20"/>
  <rect x="791.24" y="490.86" width="13.37" height="13.37" transform="translate(300.37 1295.47) rotate(-90)" fill="#231f20"/>
  <rect x="791.24" y="534.13" width="13.37" height="13.37" transform="translate(257.11 1338.74) rotate(-90)" fill="#231f20"/>
  <rect x="791.24" y="448.29" width="13.37" height="13.37" transform="translate(342.95 1252.9) rotate(-90)" fill="#231f20"/>
  <rect x="835.42" y="405.33" width="13.37" height="13.37" transform="translate(430.09 1254.12) rotate(-90)" fill="#231f20"/>
  <rect x="877.53" y="405.9" width="13.37" height="13.37" transform="translate(471.63 1296.8) rotate(-90)" fill="#231f20"/>
  <rect x="920.67" y="405.9" width="13.37" height="13.37" transform="translate(514.78 1339.94) rotate(-90)" fill="#231f20"/>
  <rect x="920.67" y="448.29" width="13.37" height="13.37" transform="translate(472.39 1382.34) rotate(-90)" fill="#231f20"/>
  <rect x="963.18" y="577.4" width="13.37" height="13.37" transform="translate(385.78 1553.95) rotate(-90)" fill="#231f20"/>
  <rect x="963.18" y="533.82" width="13.37" height="13.37" transform="translate(429.36 1510.38) rotate(-90)" fill="#231f20"/>
  <rect x="963.18" y="490.86" width="13.37" height="13.37" transform="translate(472.32 1467.42) rotate(-90)" fill="#231f20"/>
  <rect x="963.18" y="448.29" width="13.37" height="13.37" transform="translate(514.89 1424.84) rotate(-90)" fill="#231f20"/>
  <rect x="963.18" y="319.5" width="13.37" height="13.37" transform="translate(643.68 1296.05) rotate(-90)" fill="#231f20"/>
  <rect x="963.18" y="276.93" width="13.37" height="13.37" transform="translate(686.25 1253.48) rotate(-90)" fill="#231f20"/>
  <rect x="1006.36" y="319.5" width="13.37" height="13.37" transform="translate(686.86 1339.23) rotate(-90)" fill="#231f20"/>
  <rect x="1006.36" y="276.93" width="13.37" height="13.37" transform="translate(729.43 1296.66) rotate(-90)" fill="#231f20"/>
  <rect x="963.18" y="231.89" width="13.37" height="13.37" transform="translate(731.29 1208.45) rotate(-90)" fill="#231f20"/>
  <rect x="963.18" y="189.32" width="13.37" height="13.37" transform="translate(773.86 1165.87) rotate(-90)" fill="#231f20"/>
  <rect x="1006.36" y="231.89" width="13.37" height="13.37" transform="translate(774.46 1251.63) rotate(-90)" fill="#231f20"/>
  <rect x="1006.36" y="189.32" width="13.37" height="13.37" transform="translate(817.04 1209.05) rotate(-90)" fill="#231f20"/>
  <rect x="963.18" y="145.62" width="13.37" height="13.37" transform="translate(817.56 1122.18) rotate(-90)" fill="#231f20"/>
  <rect x="963.18" y="103.05" width="13.37" height="13.37" transform="translate(860.13 1079.6) rotate(-90)" fill="#231f20"/>
  <rect x="1006.36" y="145.62" width="13.37" height="13.37" transform="translate(860.74 1165.35) rotate(-90)" fill="#231f20"/>
  <rect x="1006.36" y="103.05" width="13.37" height="13.37" transform="translate(903.31 1122.78) rotate(-90)" fill="#231f20"/>
  <rect x="963.18" y="59.35" width="13.37" height="13.37" transform="translate(903.83 1035.9) rotate(-90)" fill="#231f20"/>
  <rect x="963.18" y="16.78" width="13.37" height="13.37" transform="translate(946.4 993.33) rotate(-90)" fill="#231f20"/>
  <rect x="1006.36" y="59.35" width="13.37" height="13.37" transform="translate(947.01 1079.08) rotate(-90)" fill="#231f20"/>
  <rect x="1006.36" y="16.78" width="13.37" height="13.37" transform="translate(989.58 1036.51) rotate(-90)" fill="#231f20"/>
  <rect x="878.09" y="59.35" width="13.37" height="13.37" transform="translate(818.74 950.81) rotate(-90)" fill="#231f20"/>
  <rect x="878.09" y="16.78" width="13.37" height="13.37" transform="translate(861.31 908.24) rotate(-90)" fill="#231f20"/>
  <rect x="921.26" y="59.35" width="13.37" height="13.37" transform="translate(861.91 993.99) rotate(-90)" fill="#231f20"/>
  <rect x="921.26" y="16.78" width="13.37" height="13.37" transform="translate(904.49 951.41) rotate(-90)" fill="#231f20"/>
  <rect x="878.09" y="145.62" width="13.37" height="13.37" transform="translate(732.46 1037.08) rotate(-90)" fill="#231f20"/>
  <rect x="878.09" y="103.05" width="13.37" height="13.37" transform="translate(775.04 994.51) rotate(-90)" fill="#231f20"/>
  <rect x="921.26" y="145.62" width="13.37" height="13.37" transform="translate(775.64 1080.26) rotate(-90)" fill="#231f20"/>
  <rect x="878.09" y="189.04" width="13.37" height="13.37" transform="translate(689.04 1080.5) rotate(-90)" fill="#231f20"/>
  <rect x="748.09" y="59.35" width="13.37" height="13.37" transform="translate(688.74 820.81) rotate(-90)" fill="#231f20"/>
  <rect x="748.09" y="16.78" width="13.37" height="13.37" transform="translate(731.31 778.24) rotate(-90)" fill="#231f20"/>
  <rect x="748.09" y="145.62" width="13.37" height="13.37" transform="translate(602.47 907.09) rotate(-90)" fill="#231f20"/>
  <rect x="748.09" y="103.05" width="13.37" height="13.37" transform="translate(645.04 864.51) rotate(-90)" fill="#231f20"/>
  <rect x="748.09" y="189.04" width="13.37" height="13.37" transform="translate(559.05 950.51) rotate(-90)" fill="#231f20"/>
  <rect x="834.38" y="59.35" width="13.37" height="13.37" transform="translate(775.03 907.1) rotate(-90)" fill="#231f20"/>
  <rect x="834.38" y="145.62" width="13.37" height="13.37" transform="translate(688.76 993.38) rotate(-90)" fill="#231f20"/>
  <rect x="834.38" y="103.05" width="13.37" height="13.37" transform="translate(731.33 950.8) rotate(-90)" fill="#231f20"/>
  <rect x="791.24" y="59.35" width="13.37" height="13.37" transform="translate(731.89 863.96) rotate(-90)" fill="#231f20"/>
  <rect x="791.24" y="145.62" width="13.37" height="13.37" transform="translate(645.61 950.23) rotate(-90)" fill="#231f20"/>
  <rect x="791.24" y="103.05" width="13.37" height="13.37" transform="translate(688.19 907.66) rotate(-90)" fill="#231f20"/>
  <rect x="834.38" y="189.04" width="13.37" height="13.37" transform="translate(645.34 1036.8) rotate(-90)" fill="#231f20"/>
  <rect x="878.09" y="231.89" width="13.37" height="13.37" transform="translate(646.19 1123.35) rotate(-90)" fill="#231f20"/>
  <rect x="921.26" y="189.04" width="13.37" height="13.37" transform="translate(732.22 1123.68) rotate(-90)" fill="#231f20"/>
  <rect x="921.26" y="103.05" width="13.37" height="13.37" transform="translate(818.22 1037.69) rotate(-90)" fill="#231f20"/>
  <rect x="1007.58" y="577.4" width="13.37" height="13.37" transform="translate(430.18 1598.35) rotate(-90)" fill="#231f20"/>
  <rect x="1007.58" y="663.45" width="13.37" height="13.37" transform="translate(344.13 1684.4) rotate(-90)" fill="#231f20"/>
  <rect x="1007.58" y="620.66" width="13.37" height="13.37" transform="translate(386.92 1641.62) rotate(-90)" fill="#231f20"/>
  <rect x="1007.58" y="533.82" width="13.37" height="13.37" transform="translate(473.76 1554.78) rotate(-90)" fill="#231f20"/>
  <rect x="1007.58" y="490.86" width="13.37" height="13.37" transform="translate(516.72 1511.81) rotate(-90)" fill="#231f20"/>
  <rect x="1007.58" y="448.29" width="13.37" height="13.37" transform="translate(559.29 1469.24) rotate(-90)" fill="#231f20"/>
  <rect x="1007.58" y="405.9" width="13.37" height="13.37" transform="translate(601.68 1426.85) rotate(-90)" fill="#231f20"/>
  <rect x="1050.71" y="577.4" width="13.37" height="13.37" transform="translate(473.32 1641.48) rotate(-90)" fill="#231f20"/>
  <rect x="1050.71" y="663.45" width="13.37" height="13.37" transform="translate(387.27 1727.54) rotate(-90)" fill="#231f20"/>
  <rect x="1050.71" y="707.25" width="13.37" height="13.37" transform="translate(343.47 1771.34) rotate(-90)" fill="#231f20"/>
  <rect x="1050.71" y="620.66" width="13.37" height="13.37" transform="translate(430.05 1684.75) rotate(-90)" fill="#231f20"/>
  <rect x="1050.71" y="533.82" width="13.37" height="13.37" transform="translate(516.89 1597.91) rotate(-90)" fill="#231f20"/>
  <rect x="1050.71" y="490.86" width="13.37" height="13.37" transform="translate(559.85 1554.95) rotate(-90)" fill="#231f20"/>
  <rect x="1050.71" y="448.29" width="13.37" height="13.37" transform="translate(602.43 1512.38) rotate(-90)" fill="#231f20"/>
  <rect x="1050.71" y="405.9" width="13.37" height="13.37" transform="translate(644.82 1469.98) rotate(-90)" fill="#231f20"/>
  <rect x="1050.71" y="361.06" width="13.37" height="13.37" transform="translate(689.66 1425.14) rotate(-90)" fill="#231f20"/>
  <rect x="1050.71" y="318.09" width="13.37" height="13.37" transform="translate(732.62 1382.18) rotate(-90)" fill="#231f20"/>
  <rect x="1050.71" y="275.52" width="13.37" height="13.37" transform="translate(775.19 1339.61) rotate(-90)" fill="#231f20"/>
  <rect x="1050.71" y="233.13" width="13.37" height="13.37" transform="translate(817.59 1297.22) rotate(-90)" fill="#231f20"/>
  <rect x="1050.71" y="191.1" width="13.37" height="13.37" transform="translate(859.62 1255.19) rotate(-90)" fill="#231f20"/>
  <rect x="1050.71" y="146.26" width="13.37" height="13.37" transform="translate(904.46 1210.35) rotate(-90)" fill="#231f20"/>
  <rect x="1050.71" y="103.29" width="13.37" height="13.37" transform="translate(947.42 1167.38) rotate(-90)" fill="#231f20"/>
  <rect x="1050.71" y="60.72" width="13.37" height="13.37" transform="translate(989.99 1124.81) rotate(-90)" fill="#231f20"/>
  <rect x="1050.71" y="18.33" width="13.37" height="13.37" transform="translate(1032.39 1082.42) rotate(-90)" fill="#231f20"/>
  <rect x="877.53" y="362.93" width="13.37" height="13.37" transform="translate(514.59 1253.84) rotate(-90)" fill="#231f20"/>
  <rect x="660.61" y="923.46" width="13.37" height="13.37" transform="translate(-262.85 1597.45) rotate(-90)" fill="#231f20"/>
  <rect x="660.61" y="880.34" width="13.37" height="13.37" transform="translate(-219.74 1554.33) rotate(-90)" fill="#231f20"/>
  <rect x="660.61" y="836.95" width="13.37" height="13.37" transform="translate(-176.34 1510.93) rotate(-90)" fill="#231f20"/>
  <rect x="746.62" y="880.34" width="13.37" height="13.37" transform="translate(-133.72 1640.34) rotate(-90)" fill="#231f20"/>
  <rect x="746.62" y="836.95" width="13.37" height="13.37" transform="translate(-90.33 1596.95) rotate(-90)" fill="#231f20"/>
  <rect x="574.6" y="880.56" width="13.37" height="13.37" transform="translate(-305.96 1468.53) rotate(-90)" fill="#231f20"/>
  <rect x="574.6" y="923.17" width="13.37" height="13.37" transform="translate(-348.57 1511.14) rotate(-90)" fill="#231f20"/>
  <rect x="618.7" y="923.17" width="13.37" height="13.37" transform="translate(-304.47 1555.24) rotate(-90)" fill="#231f20"/>
  <rect x="531.73" y="1051.14" width="13.37" height="13.37" transform="translate(-519.41 1596.24) rotate(-90)" fill="#231f20"/>
  <rect x="531.73" y="1008.61" width="13.37" height="13.37" transform="translate(-476.88 1553.71) rotate(-90)" fill="#231f20"/>
  <rect x="360.84" y="965.99" width="13.37" height="13.37" transform="translate(-605.16 1340.2) rotate(-90)" fill="#231f20"/>
  <rect x="360.84" y="1051.14" width="13.37" height="13.37" transform="translate(-690.3 1425.35) rotate(-90)" fill="#231f20"/>
  <rect x="360.84" y="1008.61" width="13.37" height="13.37" transform="translate(-647.77 1382.82) rotate(-90)" fill="#231f20"/>
  <rect x="316.98" y="965.99" width="13.37" height="13.37" transform="translate(-649.02 1296.34) rotate(-90)" fill="#231f20"/>
  <rect x="316.98" y="1051.14" width="13.37" height="13.37" transform="translate(-734.16 1381.49) rotate(-90)" fill="#231f20"/>
  <rect x="316.98" y="1008.61" width="13.37" height="13.37" transform="translate(-691.63 1338.96) rotate(-90)" fill="#231f20"/>
  <rect x="316.98" y="836.57" width="13.37" height="13.37" transform="translate(-519.59 1166.92) rotate(-90)" fill="#231f20"/>
  <rect x="360.84" y="836.57" width="13.37" height="13.37" transform="translate(-475.73 1210.78) rotate(-90)" fill="#231f20"/>
  <rect x="404.07" y="836.57" width="13.37" height="13.37" transform="translate(-432.5 1254.02) rotate(-90)" fill="#231f20"/>
  <rect x="316.98" y="921.72" width="13.37" height="13.37" transform="translate(-604.74 1252.07) rotate(-90)" fill="#231f20"/>
  <rect x="316.98" y="879.18" width="13.37" height="13.37" transform="translate(-562.21 1209.53) rotate(-90)" fill="#231f20"/>
  <rect x="315.72" y="621.15" width="13.37" height="13.37" transform="translate(-305.43 950.25) rotate(-90)" fill="#231f20"/>
  <rect x="315.72" y="578.62" width="13.37" height="13.37" transform="translate(-262.9 907.72) rotate(-90)" fill="#231f20"/>
  <rect x="316.98" y="665.16" width="13.37" height="13.37" transform="translate(-348.18 995.51) rotate(-90)" fill="#231f20"/>
  <rect x="315.72" y="446.68" width="13.37" height="13.37" transform="translate(-130.96 775.77) rotate(-90)" fill="#231f20"/>
  <rect x="315.72" y="404.14" width="13.37" height="13.37" transform="translate(-88.42 733.24) rotate(-90)" fill="#231f20"/>
  <rect x="316.98" y="490.68" width="13.37" height="13.37" transform="translate(-173.7 821.03) rotate(-90)" fill="#231f20"/>
  <rect x="361.05" y="577.61" width="13.37" height="13.37" transform="translate(-216.57 952.03) rotate(-90)" fill="#231f20"/>
  <rect x="360.21" y="404.14" width="13.37" height="13.37" transform="translate(-43.94 777.73) rotate(-90)" fill="#231f20"/>
  <rect x="361.05" y="490.68" width="13.37" height="13.37" transform="translate(-129.63 865.1) rotate(-90)" fill="#231f20"/>
  <rect x="361.05" y="534.83" width="13.37" height="13.37" transform="translate(-173.79 909.25) rotate(-90)" fill="#231f20"/>
  <rect x="404.07" y="577.61" width="13.37" height="13.37" transform="translate(-173.54 995.06) rotate(-90)" fill="#231f20"/>
  <rect x="404.07" y="490.68" width="13.37" height="13.37" transform="translate(-86.61 908.12) rotate(-90)" fill="#231f20"/>
  <rect x="404.07" y="534.83" width="13.37" height="13.37" transform="translate(-130.76 952.28) rotate(-90)" fill="#231f20"/>
  <rect x="489.31" y="405.3" width="13.37" height="13.37" transform="translate(84.01 907.98) rotate(-90)" fill="#231f20"/>
  <rect x="489.31" y="318.36" width="13.37" height="13.37" transform="translate(170.94 821.05) rotate(-90)" fill="#231f20"/>
  <rect x="489.31" y="362.25" width="13.37" height="13.37" transform="translate(127.06 864.93) rotate(-90)" fill="#231f20"/>
  <rect x="447.2" y="362.25" width="13.37" height="13.37" transform="translate(84.95 822.82) rotate(-90)" fill="#231f20"/>
  <rect x="447.2" y="275.59" width="13.37" height="13.37" transform="translate(171.61 736.16) rotate(-90)" fill="#231f20"/>
  <rect x="447.2" y="319.74" width="13.37" height="13.37" transform="translate(127.46 780.32) rotate(-90)" fill="#231f20"/>
  <rect x="403.13" y="362.25" width="13.37" height="13.37" transform="translate(40.88 778.75) rotate(-90)" fill="#231f20"/>
  <rect x="403.13" y="275.59" width="13.37" height="13.37" transform="translate(127.54 692.09) rotate(-90)" fill="#231f20"/>
  <rect x="359.64" y="275.59" width="13.37" height="13.37" transform="translate(84.05 648.6) rotate(-90)" fill="#231f20"/>
  <rect x="359.64" y="232.28" width="13.37" height="13.37" transform="translate(127.36 605.29) rotate(-90)" fill="#231f20"/>
  <rect x="316.77" y="232.28" width="13.37" height="13.37" transform="translate(84.49 562.42) rotate(-90)" fill="#231f20"/>
  <rect x="316.64" y="189.04" width="13.37" height="13.37" transform="translate(127.59 519.05) rotate(-90)" fill="#231f20"/>
  <rect x="273.77" y="189.04" width="13.37" height="13.37" transform="translate(84.72 476.18) rotate(-90)" fill="#231f20"/>
  <rect x="273.77" y="145.85" width="13.37" height="13.37" transform="translate(127.91 432.99) rotate(-90)" fill="#231f20"/>
  <rect x="230.51" y="145.85" width="13.37" height="13.37" transform="translate(84.66 389.74) rotate(-90)" fill="#231f20"/>
  <rect x="273.77" y="102.82" width="13.37" height="13.37" transform="translate(170.95 389.96) rotate(-90)" fill="#231f20"/>
  <rect x="316.77" y="145.85" width="13.37" height="13.37" transform="translate(170.92 476) rotate(-90)" fill="#231f20"/>
  <rect x="316.77" y="102.82" width="13.37" height="13.37" transform="translate(213.95 432.96) rotate(-90)" fill="#231f20"/>
  <rect x="359.57" y="189.04" width="13.37" height="13.37" transform="translate(170.53 561.99) rotate(-90)" fill="#231f20"/>
  <rect x="359.71" y="145.85" width="13.37" height="13.37" transform="translate(213.85 518.93) rotate(-90)" fill="#231f20"/>
  <rect x="403.19" y="145.85" width="13.37" height="13.37" transform="translate(257.34 562.42) rotate(-90)" fill="#231f20"/>
  <rect x="403.19" y="189.04" width="13.37" height="13.37" transform="translate(214.15 605.61) rotate(-90)" fill="#231f20"/>
  <rect x="446.2" y="145.85" width="13.37" height="13.37" transform="translate(300.34 605.42) rotate(-90)" fill="#231f20"/>
  <rect x="446.2" y="189.04" width="13.37" height="13.37" transform="translate(257.15 648.61) rotate(-90)" fill="#231f20"/>
  <rect x="446.2" y="16.14" width="13.37" height="13.37" transform="translate(430.05 475.72) rotate(-90)" fill="#231f20"/>
  <rect x="446.2" y="59.33" width="13.37" height="13.37" transform="translate(386.86 518.9) rotate(-90)" fill="#231f20"/>
  <rect x="402.95" y="59.33" width="13.37" height="13.37" transform="translate(343.62 475.66) rotate(-90)" fill="#231f20"/>
  <rect x="489.13" y="189.04" width="13.37" height="13.37" transform="translate(300.09 691.55) rotate(-90)" fill="#231f20"/>
  <rect x="489.13" y="145.85" width="13.37" height="13.37" transform="translate(343.28 648.36) rotate(-90)" fill="#231f20"/>
  <rect x="530.86" y="189.04" width="13.37" height="13.37" transform="translate(341.81 733.27) rotate(-90)" fill="#231f20"/>
  <rect x="530.86" y="145.85" width="13.37" height="13.37" transform="translate(385 690.08) rotate(-90)" fill="#231f20"/>
  <rect x="489.13" y="102.82" width="13.37" height="13.37" transform="translate(386.32 605.32) rotate(-90)" fill="#231f20"/>
  <rect x="530.86" y="102.82" width="13.37" height="13.37" transform="translate(428.04 647.05) rotate(-90)" fill="#231f20"/>
  <rect x="530.86" y="59.58" width="13.37" height="13.37" transform="translate(471.27 603.81) rotate(-90)" fill="#231f20"/>
  <rect x="530.86" y="16.54" width="13.37" height="13.37" transform="translate(514.31 560.77) rotate(-90)" fill="#231f20"/>
  <rect x="489.31" y="16.54" width="13.37" height="13.37" transform="translate(472.76 519.23) rotate(-90)" fill="#231f20"/>
  <rect x="617.93" y="16.54" width="13.37" height="13.37" transform="translate(601.38 647.85) rotate(-90)" fill="#231f20"/>
  <rect x="576.38" y="16.54" width="13.37" height="13.37" transform="translate(559.84 606.3) rotate(-90)" fill="#231f20"/>
  <rect x="661.06" y="59.33" width="13.37" height="13.37" transform="translate(601.73 733.77) rotate(-90)" fill="#231f20"/>
  <rect x="619.52" y="59.33" width="13.37" height="13.37" transform="translate(560.18 692.23) rotate(-90)" fill="#231f20"/>
  <rect x="661.06" y="145.85" width="13.37" height="13.37" transform="translate(515.21 820.29) rotate(-90)" fill="#231f20"/>
  <rect x="661.06" y="189.01" width="13.37" height="13.37" transform="translate(472.05 863.45) rotate(-90)" fill="#231f20"/>
  <rect x="661.06" y="232.06" width="13.37" height="13.37" transform="translate(429.01 906.49) rotate(-90)" fill="#231f20"/>
  <rect x="661.06" y="318.6" width="13.37" height="13.37" transform="translate(342.46 993.04) rotate(-90)" fill="#231f20"/>
  <rect x="704.97" y="318.6" width="13.37" height="13.37" transform="translate(386.36 1036.94) rotate(-90)" fill="#231f20"/>
  <rect x="704.97" y="275.63" width="13.37" height="13.37" transform="translate(429.34 993.97) rotate(-90)" fill="#231f20"/>
  <rect x="704.97" y="362.25" width="13.37" height="13.37" transform="translate(342.72 1080.59) rotate(-90)" fill="#231f20"/>
  <rect x="661.06" y="362.25" width="13.37" height="13.37" transform="translate(298.81 1036.69) rotate(-90)" fill="#231f20"/>
  <rect x="618.33" y="362.25" width="13.37" height="13.37" transform="translate(256.08 993.95) rotate(-90)" fill="#231f20"/>
  <rect x="704.84" y="189.01" width="13.37" height="13.37" transform="translate(515.82 907.22) rotate(-90)" fill="#231f20"/>
  <rect x="704.84" y="59.33" width="13.37" height="13.37" transform="translate(645.5 777.54) rotate(-90)" fill="#231f20"/>
  <rect x="704.84" y="16.78" width="13.37" height="13.37" transform="translate(688.06 734.99) rotate(-90)" fill="#231f20"/>
  <rect x="661.06" y="16.78" width="13.37" height="13.37" transform="translate(644.29 691.21) rotate(-90)" fill="#231f20"/>
  <rect x="704.84" y="102.82" width="13.37" height="13.37" transform="translate(602.02 821.03) rotate(-90)" fill="#231f20"/>
  <rect x="619.52" y="145.85" width="13.37" height="13.37" transform="translate(473.66 778.74) rotate(-90)" fill="#231f20"/>
  <rect x="661.06" y="405.33" width="13.37" height="13.37" transform="translate(255.74 1079.76) rotate(-90)" fill="#231f20"/>
  <rect x="661.06" y="446.48" width="13.37" height="13.37" transform="translate(214.59 1120.91) rotate(-90)" fill="#231f20"/>
  <rect x="704.97" y="446.48" width="13.37" height="13.37" transform="translate(258.49 1164.82) rotate(-90)" fill="#231f20"/>
  <rect x="661.06" y="490.63" width="13.37" height="13.37" transform="translate(170.43 1165.07) rotate(-90)" fill="#231f20"/>
  <rect x="704.97" y="490.63" width="13.37" height="13.37" transform="translate(214.34 1208.97) rotate(-90)" fill="#231f20"/>
  <rect x="661.06" y="534.83" width="13.37" height="13.37" transform="translate(126.23 1209.27) rotate(-90)" fill="#231f20"/>
  <rect x="618.7" y="446.48" width="13.37" height="13.37" transform="translate(172.22 1078.55) rotate(-90)" fill="#231f20"/>
  <rect x="618.7" y="490.63" width="13.37" height="13.37" transform="translate(128.07 1122.71) rotate(-90)" fill="#231f20"/>
  <rect x="618.7" y="534.83" width="13.37" height="13.37" transform="translate(83.87 1166.91) rotate(-90)" fill="#231f20"/>
  <rect x="575.59" y="446.48" width="13.37" height="13.37" transform="translate(129.12 1035.44) rotate(-90)" fill="#231f20"/>
  <rect x="575.59" y="490.63" width="13.37" height="13.37" transform="translate(84.96 1079.6) rotate(-90)" fill="#231f20"/>
  <rect x="575.59" y="534.83" width="13.37" height="13.37" transform="translate(40.76 1123.8) rotate(-90)" fill="#231f20"/>
  <rect x="704.97" y="534.83" width="13.37" height="13.37" transform="translate(170.13 1253.18) rotate(-90)" fill="#231f20"/>
  <rect x="746.93" y="534.83" width="13.37" height="13.37" transform="translate(212.09 1295.13) rotate(-90)" fill="#231f20"/>
  <rect x="704.97" y="577.75" width="13.37" height="13.37" transform="translate(127.22 1296.09) rotate(-90)" fill="#231f20"/>
  <rect x="704.97" y="405.3" width="13.37" height="13.37" transform="translate(299.67 1123.64) rotate(-90)" fill="#231f20"/>
  <rect x="575.59" y="405.33" width="13.37" height="13.37" transform="translate(170.26 994.29) rotate(-90)" fill="#231f20"/>
  <rect x="575.59" y="362.25" width="13.37" height="13.37" transform="translate(213.34 951.21) rotate(-90)" fill="#231f20"/>
  <rect x="575.59" y="318.6" width="13.37" height="13.37" transform="translate(256.99 907.57) rotate(-90)" fill="#231f20"/>
  <rect x="576.38" y="145.85" width="13.37" height="13.37" transform="translate(430.53 735.61) rotate(-90)" fill="#231f20"/>
  <rect x="576.38" y="102.66" width="13.37" height="13.37" transform="translate(473.72 692.42) rotate(-90)" fill="#231f20"/>
  <rect x="576.38" y="232.2" width="13.37" height="13.37" transform="translate(344.18 821.96) rotate(-90)" fill="#231f20"/>
  <rect x="576.38" y="275.59" width="13.37" height="13.37" transform="translate(300.79 865.34) rotate(-90)" fill="#231f20"/>
  <rect x="618.7" y="275.59" width="13.37" height="13.37" transform="translate(343.11 907.66) rotate(-90)" fill="#231f20"/>
  <rect x="576.38" y="189.01" width="13.37" height="13.37" transform="translate(387.37 778.77) rotate(-90)" fill="#231f20"/>
  <rect x="359.71" y="102.82" width="13.37" height="13.37" transform="translate(256.89 475.9) rotate(-90)" fill="#231f20"/>
  <rect x="403.19" y="102.82" width="13.37" height="13.37" transform="translate(300.38 519.38) rotate(-90)" fill="#231f20"/>
  <rect x="230.51" y="102.82" width="13.37" height="13.37" transform="translate(127.69 346.7) rotate(-90)" fill="#231f20"/>
  <rect x="273.77" y="59.58" width="13.37" height="13.37" transform="translate(214.19 346.72) rotate(-90)" fill="#231f20"/>
  <rect x="316.77" y="59.58" width="13.37" height="13.37" transform="translate(257.19 389.73) rotate(-90)" fill="#231f20"/>
  <rect x="316.77" y="16.14" width="13.37" height="13.37" transform="translate(300.63 346.29) rotate(-90)" fill="#231f20"/>
  <rect x="359.71" y="59.58" width="13.37" height="13.37" transform="translate(300.13 432.66) rotate(-90)" fill="#231f20"/>
  <rect x="230.51" y="59.58" width="13.37" height="13.37" transform="translate(170.93 303.47) rotate(-90)" fill="#231f20"/>
  <rect x="189.83" y="59.58" width="13.37" height="13.37" transform="translate(130.25 262.79) rotate(-90)" fill="#231f20"/>
  <rect x="231.75" y="16.14" width="13.37" height="13.37" transform="translate(215.61 261.27) rotate(-90)" fill="#231f20"/>
  <rect x="273.9" y="16.14" width="13.37" height="13.37" transform="translate(257.76 303.42) rotate(-90)" fill="#231f20"/>
  <rect x="403.13" y="319.74" width="13.37" height="13.37" transform="translate(83.39 736.25) rotate(-90)" fill="#231f20"/>
  <rect x="533.18" y="405.3" width="13.37" height="13.37" transform="translate(127.88 951.85) rotate(-90)" fill="#231f20"/>
  <rect x="533.18" y="318.36" width="13.37" height="13.37" transform="translate(214.82 864.92) rotate(-90)" fill="#231f20"/>
  <rect x="533.18" y="362.25" width="13.37" height="13.37" transform="translate(170.93 908.8) rotate(-90)" fill="#231f20"/>
  <rect x="489.31" y="533.41" width="13.37" height="13.37" transform="translate(-44.1 1036.09) rotate(-90)" fill="#231f20"/>
  <rect x="489.31" y="446.48" width="13.37" height="13.37" transform="translate(42.83 949.16) rotate(-90)" fill="#231f20"/>
  <rect x="447.2" y="446.48" width="13.37" height="13.37" transform="translate(.72 907.05) rotate(-90)" fill="#231f20"/>
  <rect x="447.2" y="405.3" width="13.37" height="13.37" transform="translate(41.9 865.87) rotate(-90)" fill="#231f20"/>
  <rect x="403.13" y="405.3" width="13.37" height="13.37" transform="translate(-2.17 821.8) rotate(-90)" fill="#231f20"/>
  <rect x="489.31" y="490.63" width="13.37" height="13.37" transform="translate(-1.32 993.32) rotate(-90)" fill="#231f20"/>
  <rect x="447.2" y="490.63" width="13.37" height="13.37" transform="translate(-43.43 951.21) rotate(-90)" fill="#231f20"/>
  <rect x="533.18" y="533.41" width="13.37" height="13.37" transform="translate(-.23 1079.96) rotate(-90)" fill="#231f20"/>
  <rect x="533.18" y="446.48" width="13.37" height="13.37" transform="translate(86.7 993.03) rotate(-90)" fill="#231f20"/>
  <rect x="533.18" y="490.63" width="13.37" height="13.37" transform="translate(42.55 1037.19) rotate(-90)" fill="#231f20"/>
  <rect x="532.45" y="707.39" width="13.37" height="13.37" transform="translate(-174.95 1253.21) rotate(-90)" fill="#231f20"/>
  <rect x="532.45" y="750.11" width="13.37" height="13.37" transform="translate(-217.67 1295.93) rotate(-90)" fill="#231f20"/>
  <rect x="533.18" y="663.75" width="13.37" height="13.37" transform="translate(-130.57 1210.3) rotate(-90)" fill="#231f20"/>
  <rect x="488.19" y="707.39" width="13.37" height="13.37" transform="translate(-219.21 1208.95) rotate(-90)" fill="#231f20"/>
  <rect x="488.92" y="663.75" width="13.37" height="13.37" transform="translate(-174.83 1166.05) rotate(-90)" fill="#231f20"/>
  <rect x="488.92" y="621.15" width="13.37" height="13.37" transform="translate(-132.23 1123.45) rotate(-90)" fill="#231f20"/>
  <rect x="447.2" y="663.75" width="13.37" height="13.37" transform="translate(-216.55 1124.32) rotate(-90)" fill="#231f20"/>
  <rect x="533.18" y="620.97" width="13.37" height="13.37" transform="translate(-87.79 1167.52) rotate(-90)" fill="#231f20"/>
  <rect x="316.98" y="707.77" width="13.37" height="13.37" transform="translate(-390.79 1038.12) rotate(-90)" fill="#231f20"/>
  <rect x="273.12" y="706.44" width="13.37" height="13.37" transform="translate(-433.33 992.93) rotate(-90)" fill="#231f20"/>
  <rect x="273.12" y="663.77" width="13.37" height="13.37" transform="translate(-390.65 950.26) rotate(-90)" fill="#231f20"/>
  <rect x="273.12" y="620.17" width="13.37" height="13.37" transform="translate(-347.06 906.66) rotate(-90)" fill="#231f20"/>
  <rect x="273.12" y="577.51" width="13.37" height="13.37" transform="translate(-304.4 864) rotate(-90)" fill="#231f20"/>
  <rect x="273.12" y="534.83" width="13.37" height="13.37" transform="translate(-261.72 821.32) rotate(-90)" fill="#231f20"/>
  <rect x="273.12" y="491.24" width="13.37" height="13.37" transform="translate(-218.12 777.73) rotate(-90)" fill="#231f20"/>
  <rect x="230.51" y="1052.54" width="13.37" height="13.37" transform="translate(-822.03 1296.42) rotate(-90)" fill="#231f20"/>
  <rect x="230.51" y="1010.01" width="13.37" height="13.37" transform="translate(-779.5 1253.89) rotate(-90)" fill="#231f20"/>
  <rect x="230.51" y="966.41" width="13.37" height="13.37" transform="translate(-735.9 1210.3) rotate(-90)" fill="#231f20"/>
  <rect x="230.51" y="923.73" width="13.37" height="13.37" transform="translate(-693.22 1167.62) rotate(-90)" fill="#231f20"/>
  <rect x="230.51" y="880.14" width="13.37" height="13.37" transform="translate(-649.63 1124.02) rotate(-90)" fill="#231f20"/>
  <rect x="230.51" y="533.54" width="13.37" height="13.37" transform="translate(-303.03 777.42) rotate(-90)" fill="#231f20"/>
  <rect x="230.51" y="489.94" width="13.37" height="13.37" transform="translate(-259.43 733.83) rotate(-90)" fill="#231f20"/>
  <rect x="230.51" y="447.41" width="13.37" height="13.37" transform="translate(-216.9 691.29) rotate(-90)" fill="#231f20"/>
  <rect x="273.12" y="448.1" width="13.37" height="13.37" transform="translate(-174.99 734.59) rotate(-90)" fill="#231f20"/>
  <rect x="273.12" y="405.07" width="13.37" height="13.37" transform="translate(-131.95 691.56) rotate(-90)" fill="#231f20"/>
  <rect x="230.51" y="403.82" width="13.37" height="13.37" transform="translate(-173.31 647.7) rotate(-90)" fill="#231f20"/>
  <rect x="230.51" y="361.14" width="13.37" height="13.37" transform="translate(-130.63 605.02) rotate(-90)" fill="#231f20"/>
  <rect x="230.51" y="317.54" width="13.37" height="13.37" transform="translate(-87.03 561.43) rotate(-90)" fill="#231f20"/>
  <rect x="273.62" y="317.54" width="13.37" height="13.37" transform="translate(-43.92 604.54) rotate(-90)" fill="#231f20"/>
  <rect x="230.51" y="275.43" width="13.37" height="13.37" transform="translate(-44.92 519.32) rotate(-90)" fill="#231f20"/>
  <rect x="273.12" y="275.43" width="13.37" height="13.37" transform="translate(-2.32 561.92) rotate(-90)" fill="#231f20"/>
  <rect x="230.51" y="577.51" width="13.37" height="13.37" transform="translate(-347 821.4) rotate(-90)" fill="#231f20"/>
  <rect x="273.12" y="1052.54" width="13.37" height="13.37" transform="translate(-779.42 1339.03) rotate(-90)" fill="#231f20"/>
  <rect x="273.12" y="1010.01" width="13.37" height="13.37" transform="translate(-736.89 1296.5) rotate(-90)" fill="#231f20"/>
  <rect x="273.12" y="966.41" width="13.37" height="13.37" transform="translate(-693.3 1252.9) rotate(-90)" fill="#231f20"/>
  <rect x="273.12" y="923.73" width="13.37" height="13.37" transform="translate(-650.62 1210.22) rotate(-90)" fill="#231f20"/>
  <rect x="273.12" y="880.14" width="13.37" height="13.37" transform="translate(-607.02 1166.63) rotate(-90)" fill="#231f20"/>
  <rect x="187.91" y="706.44" width="13.37" height="13.37" transform="translate(-518.54 907.72) rotate(-90)" fill="#231f20"/>
  <rect x="187.91" y="663.77" width="13.37" height="13.37" transform="translate(-475.86 865.04) rotate(-90)" fill="#231f20"/>
  <rect x="187.91" y="620.17" width="13.37" height="13.37" transform="translate(-432.27 821.45) rotate(-90)" fill="#231f20"/>
</svg>