<?xml version="1.0" encoding="UTF-8"?>
<svg id="_21" data-name="21" xmlns="http://www.w3.org/2000/svg" viewBox="0 0 1080 1080">
  <rect x="477.08" y="737.33" width="40.84" height="40.84" fill="#231f20"/>
  <rect x="520.25" y="737.33" width="40.84" height="40.84" fill="#231f20"/>
  <rect x="477.08" y="694.03" width="40.84" height="40.84" fill="#231f20"/>
  <rect x="433.92" y="737.33" width="40.84" height="40.84" fill="#231f20"/>
  <rect x="433.92" y="694.03" width="40.84" height="40.84" fill="#231f20"/>
  <rect x="520.25" y="694.03" width="40.84" height="40.84" fill="#231f20"/>
  <rect x="477.08" y="823.7" width="40.84" height="40.84" fill="#231f20"/>
  <rect x="477.08" y="866.87" width="40.84" height="40.84" fill="#231f20"/>
  <rect x="520.25" y="823.7" width="40.84" height="40.84" fill="#231f20"/>
  <rect x="477.08" y="780.4" width="40.84" height="40.84" fill="#231f20"/>
  <rect x="520.25" y="780.4" width="40.84" height="40.84" fill="#231f20"/>
  <rect x="477.08" y="650.73" width="40.84" height="40.84" fill="#231f20"/>
  <rect x="520.25" y="650.73" width="40.84" height="40.84" fill="#231f20"/>
  <rect x="477.08" y="607.43" width="40.84" height="40.84" fill="#231f20"/>
  <rect x="520.25" y="607.43" width="40.84" height="40.84" fill="#231f20"/>
  <rect x="477.08" y="564.5" width="40.84" height="40.84" fill="#231f20"/>
  <rect x="520.25" y="564.5" width="40.84" height="40.84" fill="#231f20"/>
  <rect x="477.08" y="521.2" width="40.84" height="40.84" fill="#231f20"/>
  <rect x="520.25" y="521.2" width="40.84" height="40.84" fill="#231f20"/>
  <rect x="390.75" y="564.5" width="40.84" height="40.84" fill="#231f20"/>
  <rect x="433.92" y="564.5" width="40.84" height="40.84" fill="#231f20"/>
  <rect x="390.75" y="521.2" width="40.84" height="40.84" fill="#231f20"/>
  <rect x="433.92" y="521.2" width="40.84" height="40.84" fill="#231f20"/>
  <rect x="390.58" y="650.9" width="40.84" height="40.84" fill="#231f20"/>
  <rect x="433.74" y="650.9" width="40.84" height="40.84" fill="#231f20"/>
  <rect x="390.58" y="607.6" width="40.84" height="40.84" fill="#231f20"/>
  <rect x="433.74" y="607.6" width="40.84" height="40.84" fill="#231f20"/>
  <rect x="620.59" y="751.05" width="13.39" height="13.39" fill="#231f20"/>
  <rect x="620.59" y="794.13" width="13.39" height="13.39" fill="#231f20"/>
  <rect x="663.77" y="837.31" width="13.39" height="13.39" fill="#231f20"/>
  <rect x="663.62" y="751.05" width="13.39" height="13.39" fill="#231f20"/>
  <rect x="663.62" y="794.13" width="13.39" height="13.39" fill="#231f20"/>
  <rect x="578.11" y="794.18" width="13.39" height="13.39" fill="#231f20"/>
  <rect x="577.95" y="707.92" width="13.39" height="13.39" fill="#231f20"/>
  <rect x="577.95" y="751" width="13.39" height="13.39" fill="#231f20"/>
  <rect x="361.54" y="621.36" width="13.39" height="13.39" fill="#231f20"/>
  <rect x="361.39" y="535.1" width="13.39" height="13.39" fill="#231f20"/>
  <rect x="361.39" y="578.17" width="13.39" height="13.39" fill="#231f20"/>
  <rect x="404.55" y="750.97" width="13.39" height="13.39" fill="#231f20"/>
  <rect x="404.4" y="707.78" width="13.39" height="13.39" fill="#231f20"/>
  <rect x="706.65" y="751.05" width="13.39" height="13.39" fill="#231f20"/>
  <rect x="706.65" y="794.13" width="13.39" height="13.39" fill="#231f20"/>
  <rect x="749.68" y="751.05" width="13.39" height="13.39" fill="#231f20"/>
  <rect x="749.68" y="794.13" width="13.39" height="13.39" fill="#231f20"/>
  <rect x="706.65" y="664.64" width="13.39" height="13.39" fill="#231f20"/>
  <rect x="706.65" y="707.71" width="13.39" height="13.39" fill="#231f20"/>
  <rect x="706.65" y="880.72" width="13.39" height="13.39" fill="#231f20"/>
  <rect x="706.65" y="923.8" width="13.39" height="13.39" fill="#231f20"/>
  <rect x="532.82" y="880.72" width="13.39" height="13.39" fill="#231f20"/>
  <rect x="532.82" y="923.8" width="13.39" height="13.39" fill="#231f20"/>
  <rect x="532.82" y="966.56" width="13.39" height="13.39" fill="#231f20"/>
  <rect x="447.64" y="794.51" width="13.39" height="13.39" fill="#231f20"/>
  <rect x="447.64" y="837.58" width="13.39" height="13.39" fill="#231f20"/>
  <rect x="447.64" y="880.34" width="13.39" height="13.39" fill="#231f20"/>
  <rect x="492.42" y="923.8" width="13.39" height="13.39" fill="#231f20"/>
  <rect x="706.65" y="837.38" width="13.39" height="13.39" fill="#231f20"/>
  <rect x="706.65" y="1010.21" width="13.39" height="13.39" fill="#231f20"/>
  <rect x="706.65" y="1053.29" width="13.39" height="13.39" fill="#231f20"/>
  <rect x="706.65" y="966.87" width="13.39" height="13.39" fill="#231f20"/>
  <rect x="749.68" y="664.64" width="13.39" height="13.39" fill="#231f20"/>
  <rect x="749.68" y="707.71" width="13.39" height="13.39" fill="#231f20"/>
  <rect x="750.06" y="579.37" width="13.39" height="13.39" fill="#231f20"/>
  <rect x="750.06" y="622.44" width="13.39" height="13.39" fill="#231f20"/>
  <rect x="793.09" y="579.37" width="13.39" height="13.39" fill="#231f20"/>
  <rect x="793.09" y="534.98" width="13.39" height="13.39" fill="#231f20"/>
  <rect x="750.06" y="534.98" width="13.39" height="13.39" fill="#231f20"/>
  <rect x="750.06" y="491.19" width="13.39" height="13.39" fill="#231f20"/>
  <rect x="793.09" y="622.44" width="13.39" height="13.39" fill="#231f20"/>
  <rect x="922.86" y="664.64" width="13.39" height="13.39" fill="#231f20"/>
  <rect x="922.86" y="707.71" width="13.39" height="13.39" fill="#231f20"/>
  <rect x="965.89" y="664.64" width="13.39" height="13.39" fill="#231f20"/>
  <rect x="965.89" y="707.71" width="13.39" height="13.39" fill="#231f20"/>
  <rect x="793.26" y="664.64" width="13.39" height="13.39" fill="#231f20"/>
  <rect x="793.26" y="707.71" width="13.39" height="13.39" fill="#231f20"/>
  <rect x="836.29" y="664.64" width="13.39" height="13.39" fill="#231f20"/>
  <rect x="836.29" y="707.71" width="13.39" height="13.39" fill="#231f20"/>
  <rect x="793.26" y="751.04" width="13.39" height="13.39" fill="#231f20"/>
  <rect x="836.29" y="751.04" width="13.39" height="13.39" fill="#231f20"/>
  <rect x="922.86" y="751.04" width="13.39" height="13.39" fill="#231f20"/>
  <rect x="922.86" y="794.11" width="13.39" height="13.39" fill="#231f20"/>
  <rect x="965.89" y="751.04" width="13.39" height="13.39" fill="#231f20"/>
  <rect x="965.89" y="794.11" width="13.39" height="13.39" fill="#231f20"/>
  <rect x="836.46" y="923.84" width="13.39" height="13.39" fill="#231f20"/>
  <rect x="836.46" y="966.91" width="13.39" height="13.39" fill="#231f20"/>
  <rect x="879.49" y="923.84" width="13.39" height="13.39" fill="#231f20"/>
  <rect x="750.06" y="923.84" width="13.39" height="13.39" fill="#231f20"/>
  <rect x="793.09" y="923.84" width="13.39" height="13.39" fill="#231f20"/>
  <rect x="750.06" y="880.59" width="13.39" height="13.39" fill="#231f20"/>
  <rect x="793.09" y="880.59" width="13.39" height="13.39" fill="#231f20"/>
  <rect x="836.46" y="880.59" width="13.39" height="13.39" fill="#231f20"/>
  <rect x="879.49" y="880.59" width="13.39" height="13.39" fill="#231f20"/>
  <rect x="879.49" y="966.91" width="13.39" height="13.39" fill="#231f20"/>
  <rect x="1009.26" y="707.84" width="13.39" height="13.39" fill="#231f20"/>
  <rect x="1009.26" y="750.91" width="13.39" height="13.39" fill="#231f20"/>
  <rect x="1052.29" y="707.84" width="13.39" height="13.39" fill="#231f20"/>
  <rect x="1052.29" y="750.91" width="13.39" height="13.39" fill="#231f20"/>
  <rect x="1009.26" y="621.44" width="13.39" height="13.39" fill="#231f20"/>
  <rect x="1009.26" y="664.51" width="13.39" height="13.39" fill="#231f20"/>
  <rect x="1052.29" y="621.44" width="13.39" height="13.39" fill="#231f20"/>
  <rect x="1052.29" y="664.51" width="13.39" height="13.39" fill="#231f20"/>
  <rect x="1009.26" y="533.81" width="13.39" height="13.39" fill="#231f20"/>
  <rect x="1009.26" y="576.89" width="13.39" height="13.39" fill="#231f20"/>
  <rect x="1052.29" y="533.81" width="13.39" height="13.39" fill="#231f20"/>
  <rect x="1052.29" y="576.89" width="13.39" height="13.39" fill="#231f20"/>
  <rect x="836.46" y="448.64" width="13.39" height="13.39" fill="#231f20"/>
  <rect x="836.46" y="491.71" width="13.39" height="13.39" fill="#231f20"/>
  <rect x="793.09" y="491.71" width="13.39" height="13.39" fill="#231f20"/>
  <rect x="879.49" y="448.64" width="13.39" height="13.39" fill="#231f20"/>
  <rect x="879.49" y="491.71" width="13.39" height="13.39" fill="#231f20"/>
  <rect x="836.46" y="362.24" width="13.39" height="13.39" fill="#231f20"/>
  <rect x="836.46" y="405.31" width="13.39" height="13.39" fill="#231f20"/>
  <rect x="879.49" y="362.24" width="13.39" height="13.39" fill="#231f20"/>
  <rect x="836.46" y="319.29" width="13.39" height="13.39" fill="#231f20"/>
  <rect x="879.49" y="319.29" width="13.39" height="13.39" fill="#231f20"/>
  <rect x="879.49" y="405.31" width="13.39" height="13.39" fill="#231f20"/>
  <rect x="750.06" y="405.44" width="13.39" height="13.39" fill="#231f20"/>
  <rect x="750.06" y="448.51" width="13.39" height="13.39" fill="#231f20"/>
  <rect x="793.09" y="405.44" width="13.39" height="13.39" fill="#231f20"/>
  <rect x="793.09" y="448.51" width="13.39" height="13.39" fill="#231f20"/>
  <rect x="750.06" y="319.04" width="13.39" height="13.39" fill="#231f20"/>
  <rect x="750.06" y="362.11" width="13.39" height="13.39" fill="#231f20"/>
  <rect x="793.09" y="319.04" width="13.39" height="13.39" fill="#231f20"/>
  <rect x="793.09" y="362.11" width="13.39" height="13.39" fill="#231f20"/>
  <rect x="836.46" y="275.78" width="13.39" height="13.39" fill="#231f20"/>
  <rect x="836.46" y="232.82" width="13.39" height="13.39" fill="#231f20"/>
  <rect x="793.09" y="232.58" width="13.39" height="13.39" fill="#231f20"/>
  <rect x="793.09" y="275.65" width="13.39" height="13.39" fill="#231f20"/>
  <rect x="922.86" y="275.78" width="13.39" height="13.39" fill="#231f20"/>
  <rect x="922.86" y="318.98" width="13.39" height="13.39" fill="#231f20"/>
  <rect x="922.86" y="232.82" width="13.39" height="13.39" fill="#231f20"/>
  <rect x="879.49" y="232.58" width="13.39" height="13.39" fill="#231f20"/>
  <rect x="836.46" y="102.48" width="13.39" height="13.39" fill="#231f20"/>
  <rect x="793.09" y="102.23" width="13.39" height="13.39" fill="#231f20"/>
  <rect x="879.49" y="102.23" width="13.39" height="13.39" fill="#231f20"/>
  <rect x="836.46" y="146.3" width="13.39" height="13.39" fill="#231f20"/>
  <rect x="879.49" y="146.05" width="13.39" height="13.39" fill="#231f20"/>
  <rect x="836.46" y="189.56" width="13.39" height="13.39" fill="#231f20"/>
  <rect x="879.49" y="189.31" width="13.39" height="13.39" fill="#231f20"/>
  <rect x="879.49" y="275.65" width="13.39" height="13.39" fill="#231f20"/>
  <rect x="1009.26" y="275.78" width="13.39" height="13.39" fill="#231f20"/>
  <rect x="1009.26" y="232.82" width="13.39" height="13.39" fill="#231f20"/>
  <rect x="965.89" y="232.58" width="13.39" height="13.39" fill="#231f20"/>
  <rect x="965.89" y="275.65" width="13.39" height="13.39" fill="#231f20"/>
  <rect x="1009.26" y="362.18" width="13.39" height="13.39" fill="#231f20"/>
  <rect x="1009.26" y="319.22" width="13.39" height="13.39" fill="#231f20"/>
  <rect x="1009.26" y="145.93" width="13.39" height="13.39" fill="#231f20"/>
  <rect x="1009.26" y="102.98" width="13.39" height="13.39" fill="#231f20"/>
  <rect x="1009.26" y="189.38" width="13.39" height="13.39" fill="#231f20"/>
  <rect x="965.89" y="318.98" width="13.39" height="13.39" fill="#231f20"/>
  <rect x="965.89" y="103.1" width="13.39" height="13.39" fill="#231f20"/>
  <rect x="965.89" y="146.18" width="13.39" height="13.39" fill="#231f20"/>
  <rect x="965.89" y="16.64" width="13.39" height="13.39" fill="#231f20"/>
  <rect x="965.89" y="59.71" width="13.39" height="13.39" fill="#231f20"/>
  <rect x="1008.92" y="16.64" width="13.39" height="13.39" fill="#231f20"/>
  <rect x="1008.92" y="59.71" width="13.39" height="13.39" fill="#231f20"/>
  <rect x="879.66" y="16.64" width="13.39" height="13.39" fill="#231f20"/>
  <rect x="879.66" y="59.71" width="13.39" height="13.39" fill="#231f20"/>
  <rect x="922.69" y="16.64" width="13.39" height="13.39" fill="#231f20"/>
  <rect x="836.21" y="16.64" width="13.39" height="13.39" fill="#231f20"/>
  <rect x="749.98" y="16.64" width="13.39" height="13.39" fill="#231f20"/>
  <rect x="793.01" y="16.64" width="13.39" height="13.39" fill="#231f20"/>
  <rect x="922.69" y="59.71" width="13.39" height="13.39" fill="#231f20"/>
  <rect x="663.66" y="16.64" width="13.39" height="13.39" fill="#231f20"/>
  <rect x="663.66" y="59.71" width="13.39" height="13.39" fill="#231f20"/>
  <rect x="706.69" y="16.64" width="13.39" height="13.39" fill="#231f20"/>
  <rect x="706.69" y="59.71" width="13.39" height="13.39" fill="#231f20"/>
  <rect x="577.6" y="16.64" width="13.39" height="13.39" fill="#231f20"/>
  <rect x="577.6" y="59.71" width="13.39" height="13.39" fill="#231f20"/>
  <rect x="620.63" y="16.64" width="13.39" height="13.39" fill="#231f20"/>
  <rect x="620.63" y="59.71" width="13.39" height="13.39" fill="#231f20"/>
  <rect x="663.66" y="103.04" width="13.39" height="13.39" fill="#231f20"/>
  <rect x="663.66" y="146.11" width="13.39" height="13.39" fill="#231f20"/>
  <rect x="706.69" y="103.04" width="13.39" height="13.39" fill="#231f20"/>
  <rect x="706.69" y="146.11" width="13.39" height="13.39" fill="#231f20"/>
  <rect x="620.63" y="103.04" width="13.39" height="13.39" fill="#231f20"/>
  <rect x="620.63" y="146.11" width="13.39" height="13.39" fill="#231f20"/>
  <rect x="663.66" y="189.44" width="13.39" height="13.39" fill="#231f20"/>
  <rect x="663.66" y="232.51" width="13.39" height="13.39" fill="#231f20"/>
  <rect x="706.69" y="189.44" width="13.39" height="13.39" fill="#231f20"/>
  <rect x="750.06" y="189.44" width="13.39" height="13.39" fill="#231f20"/>
  <rect x="706.69" y="232.51" width="13.39" height="13.39" fill="#231f20"/>
  <rect x="750.06" y="232.51" width="13.39" height="13.39" fill="#231f20"/>
  <rect x="620.63" y="189.44" width="13.39" height="13.39" fill="#231f20"/>
  <rect x="620.63" y="232.51" width="13.39" height="13.39" fill="#231f20"/>
  <rect x="663.66" y="275.65" width="13.39" height="13.39" fill="#231f20"/>
  <rect x="706.69" y="275.65" width="13.39" height="13.39" fill="#231f20"/>
  <rect x="750.06" y="275.65" width="13.39" height="13.39" fill="#231f20"/>
  <rect x="620.63" y="275.65" width="13.39" height="13.39" fill="#231f20"/>
  <rect x="620.63" y="318.79" width="13.39" height="13.39" fill="#231f20"/>
  <rect x="965.89" y="189.5" width="13.39" height="13.39" fill="#231f20"/>
  <rect x="965.89" y="362.05" width="13.39" height="13.39" fill="#231f20"/>
  <rect x="1009.26" y="448.58" width="13.39" height="13.39" fill="#231f20"/>
  <rect x="1009.26" y="405.62" width="13.39" height="13.39" fill="#231f20"/>
  <rect x="1052.29" y="448.58" width="13.39" height="13.39" fill="#231f20"/>
  <rect x="1009.26" y="491.19" width="13.39" height="13.39" fill="#231f20"/>
  <rect x="922.86" y="491.19" width="13.39" height="13.39" fill="#231f20"/>
  <rect x="1052.29" y="491.19" width="13.39" height="13.39" fill="#231f20"/>
  <rect x="1052.29" y="1010.76" width="13.39" height="13.39" fill="#231f20"/>
  <rect x="1052.29" y="1053.84" width="13.39" height="13.39" fill="#231f20"/>
  <rect x="1052.29" y="924.36" width="13.39" height="13.39" fill="#231f20"/>
  <rect x="1052.29" y="967.44" width="13.39" height="13.39" fill="#231f20"/>
  <rect x="1052.29" y="836.73" width="13.39" height="13.39" fill="#231f20"/>
  <rect x="1052.29" y="879.81" width="13.39" height="13.39" fill="#231f20"/>
  <rect x="1052.29" y="794.11" width="13.39" height="13.39" fill="#231f20"/>
  <rect x="1052.29" y="405.62" width="13.39" height="13.39" fill="#231f20"/>
  <rect x="965.89" y="405.38" width="13.39" height="13.39" fill="#231f20"/>
  <rect x="922.86" y="405.38" width="13.39" height="13.39" fill="#231f20"/>
  <rect x="965.89" y="448.45" width="13.39" height="13.39" fill="#231f20"/>
  <rect x="965.89" y="533.81" width="13.39" height="13.39" fill="#231f20"/>
  <rect x="663.66" y="405.44" width="13.39" height="13.39" fill="#231f20"/>
  <rect x="663.66" y="448.51" width="13.39" height="13.39" fill="#231f20"/>
  <rect x="706.69" y="405.44" width="13.39" height="13.39" fill="#231f20"/>
  <rect x="706.69" y="448.51" width="13.39" height="13.39" fill="#231f20"/>
  <rect x="663.66" y="319.29" width="13.39" height="13.39" fill="#231f20"/>
  <rect x="663.66" y="362.36" width="13.39" height="13.39" fill="#231f20"/>
  <rect x="706.69" y="319.29" width="13.39" height="13.39" fill="#231f20"/>
  <rect x="706.69" y="362.36" width="13.39" height="13.39" fill="#231f20"/>
</svg>