<?xml version="1.0" encoding="UTF-8"?>
<svg id="_22" data-name="22" xmlns="http://www.w3.org/2000/svg" viewBox="0 0 1080 1080">
  <rect x="692.38" y="994.31" width="40.84" height="40.84" fill="#231f20"/>
  <rect x="735.5" y="994.31" width="40.84" height="40.84" fill="#231f20"/>
  <rect x="605.94" y="994.31" width="40.84" height="40.84" fill="#231f20"/>
  <rect x="649.06" y="994.31" width="40.84" height="40.84" fill="#231f20"/>
  <rect x="692.4" y="1037.6" width="40.84" height="40.84" fill="#231f20"/>
  <rect x="778.86" y="994.31" width="40.84" height="40.84" fill="#231f20"/>
  <rect x="692.38" y="951.02" width="40.84" height="40.84" fill="#231f20"/>
  <rect x="735.5" y="951.02" width="40.84" height="40.84" fill="#231f20"/>
  <rect x="605.94" y="951.02" width="40.84" height="40.84" fill="#231f20"/>
  <rect x="649.06" y="951.02" width="40.84" height="40.84" fill="#231f20"/>
  <rect x="778.86" y="951.02" width="40.84" height="40.84" fill="#231f20"/>
  <rect x="778.88" y="1037.6" width="40.84" height="40.84" fill="#231f20"/>
  <rect x="821.89" y="994.31" width="40.84" height="40.84" fill="#231f20"/>
  <rect x="821.91" y="1037.6" width="40.84" height="40.84" fill="#231f20"/>
  <rect x="821.89" y="951.02" width="40.84" height="40.84" fill="#231f20"/>
  <rect x="865.25" y="951.02" width="40.84" height="40.84" fill="#231f20"/>
  <rect x="908.31" y="1037.6" width="40.84" height="40.84" fill="#231f20"/>
  <rect x="951.65" y="994.31" width="40.84" height="40.84" fill="#231f20"/>
  <rect x="908.29" y="951.02" width="40.84" height="40.84" fill="#231f20"/>
  <rect x="951.65" y="951.02" width="40.84" height="40.84" fill="#231f20"/>
  <rect x="692.38" y="907.72" width="40.84" height="40.84" fill="#231f20"/>
  <rect x="735.5" y="907.72" width="40.84" height="40.84" fill="#231f20"/>
  <rect x="649.06" y="907.72" width="40.84" height="40.84" fill="#231f20"/>
  <rect x="778.86" y="907.72" width="40.84" height="40.84" fill="#231f20"/>
  <rect x="692.38" y="864.43" width="40.84" height="40.84" fill="#231f20"/>
  <rect x="735.5" y="864.43" width="40.84" height="40.84" fill="#231f20"/>
  <rect x="649.06" y="864.43" width="40.84" height="40.84" fill="#231f20"/>
  <rect x="778.86" y="864.43" width="40.84" height="40.84" fill="#231f20"/>
  <rect x="821.89" y="907.72" width="40.84" height="40.84" fill="#231f20"/>
  <rect x="865.25" y="907.72" width="40.84" height="40.84" fill="#231f20"/>
  <rect x="821.89" y="864.43" width="40.84" height="40.84" fill="#231f20"/>
  <rect x="865.25" y="864.43" width="40.84" height="40.84" fill="#231f20"/>
  <rect x="908.29" y="907.72" width="40.84" height="40.84" fill="#231f20"/>
  <rect x="951.65" y="907.72" width="40.84" height="40.84" fill="#231f20"/>
  <rect x="908.29" y="864.43" width="40.84" height="40.84" fill="#231f20"/>
  <rect x="605.94" y="864.43" width="40.84" height="40.84" fill="#231f20"/>
  <rect x="692.38" y="821.14" width="40.84" height="40.84" fill="#231f20"/>
  <rect x="735.5" y="821.14" width="40.84" height="40.84" fill="#231f20"/>
  <rect x="649.06" y="821.14" width="40.84" height="40.84" fill="#231f20"/>
  <rect x="778.86" y="821.14" width="40.84" height="40.84" fill="#231f20"/>
  <rect x="821.89" y="821.14" width="40.84" height="40.84" fill="#231f20"/>
  <rect x="605.94" y="821.14" width="40.84" height="40.84" fill="#231f20"/>
  <rect x="649.06" y="777.85" width="40.84" height="40.84" fill="#231f20"/>
  <rect x="605.94" y="777.85" width="40.84" height="40.84" fill="#231f20"/>
  <rect x="649.06" y="734.56" width="40.84" height="40.84" fill="#231f20"/>
  <rect x="605.94" y="734.56" width="40.84" height="40.84" fill="#231f20"/>
  <rect x="562.74" y="864.43" width="40.84" height="40.84" fill="#231f20"/>
  <rect x="519.62" y="864.43" width="40.84" height="40.84" fill="#231f20"/>
  <rect x="562.74" y="821.14" width="40.84" height="40.84" fill="#231f20"/>
  <rect x="519.62" y="821.14" width="40.84" height="40.84" fill="#231f20"/>
  <rect x="562.74" y="777.85" width="40.84" height="40.84" fill="#231f20"/>
  <rect x="519.62" y="777.85" width="40.84" height="40.84" fill="#231f20"/>
  <rect x="562.74" y="734.56" width="40.84" height="40.84" fill="#231f20"/>
  <rect x="519.62" y="734.56" width="40.84" height="40.84" fill="#231f20"/>
  <rect x="476.34" y="777.85" width="40.84" height="40.84" fill="#231f20"/>
  <rect x="433.22" y="777.85" width="40.84" height="40.84" fill="#231f20"/>
  <rect x="476.34" y="734.56" width="40.84" height="40.84" fill="#231f20"/>
  <rect x="433.22" y="734.56" width="40.84" height="40.84" fill="#231f20"/>
  <rect x="476.34" y="691.27" width="40.84" height="40.84" fill="#231f20"/>
  <rect x="433.22" y="691.27" width="40.84" height="40.84" fill="#231f20"/>
  <rect x="951.68" y="1037.6" width="40.84" height="40.84" fill="#231f20"/>
  <rect x="994.68" y="994.31" width="40.84" height="40.84" fill="#231f20"/>
  <rect x="994.7" y="1037.6" width="40.84" height="40.84" fill="#231f20"/>
  <rect x="1038.04" y="994.31" width="40.84" height="40.84" fill="#231f20"/>
  <rect x="994.68" y="951.02" width="40.84" height="40.84" fill="#231f20"/>
  <rect x="1038.04" y="951.02" width="40.84" height="40.84" fill="#231f20"/>
  <rect x="649.08" y="1037.6" width="40.84" height="40.84" fill="#231f20"/>
  <rect x="576.93" y="964.07" width="13.39" height="13.39" fill="#231f20"/>
  <rect x="576.93" y="921.45" width="13.39" height="13.39" fill="#231f20"/>
  <rect x="533.34" y="921.45" width="13.39" height="13.39" fill="#231f20"/>
  <rect x="490.06" y="878.16" width="13.39" height="13.39" fill="#231f20"/>
  <rect x="490.06" y="837.07" width="13.39" height="13.39" fill="#231f20"/>
  <rect x="403.93" y="791.7" width="13.39" height="13.39" fill="#231f20"/>
  <rect x="403.93" y="750.61" width="13.39" height="13.39" fill="#231f20"/>
  <rect x="403.93" y="704.68" width="13.39" height="13.39" fill="#231f20"/>
  <rect x="403.93" y="663.59" width="13.39" height="13.39" fill="#231f20"/>
  <rect x="446.94" y="837.07" width="13.39" height="13.39" fill="#231f20"/>
  <rect x="619.66" y="921.45" width="13.39" height="13.39" fill="#231f20"/>
  <rect x="576.93" y="1009.29" width="13.39" height="13.39" fill="#231f20"/>
  <rect x="576.93" y="1049.56" width="13.39" height="13.39" fill="#231f20"/>
  <rect x="618.18" y="1049.56" width="13.39" height="13.39" fill="#231f20"/>
  <rect x="749.36" y="1050.69" width="13.39" height="13.39" fill="#231f20"/>
  <rect x="878.83" y="1050.69" width="13.39" height="13.39" fill="#231f20"/>
  <rect x="1051.77" y="1050.69" width="13.39" height="13.39" fill="#231f20"/>
  <rect x="1051.77" y="921.45" width="13.39" height="13.39" fill="#231f20"/>
  <rect x="1008.41" y="921.45" width="13.39" height="13.39" fill="#231f20"/>
  <rect x="1008.6" y="878.16" width="13.39" height="13.39" fill="#231f20"/>
  <rect x="965.24" y="878.16" width="13.39" height="13.39" fill="#231f20"/>
  <rect x="922.18" y="834.86" width="13.39" height="13.39" fill="#231f20"/>
  <rect x="965.24" y="834.86" width="13.39" height="13.39" fill="#231f20"/>
  <rect x="878.82" y="834.86" width="13.39" height="13.39" fill="#231f20"/>
  <rect x="749.37" y="791.57" width="13.39" height="13.39" fill="#231f20"/>
  <rect x="792.43" y="791.57" width="13.39" height="13.39" fill="#231f20"/>
  <rect x="835.61" y="791.57" width="13.39" height="13.39" fill="#231f20"/>
  <rect x="706.01" y="791.57" width="13.39" height="13.39" fill="#231f20"/>
  <rect x="749.37" y="750.61" width="13.39" height="13.39" fill="#231f20"/>
  <rect x="706.01" y="750.61" width="13.39" height="13.39" fill="#231f20"/>
  <rect x="576.58" y="706.78" width="13.39" height="13.39" fill="#231f20"/>
  <rect x="533.22" y="706.78" width="13.39" height="13.39" fill="#231f20"/>
  <rect x="664.04" y="706.78" width="13.39" height="13.39" fill="#231f20"/>
  <rect x="620.68" y="706.78" width="13.39" height="13.39" fill="#231f20"/>
  <rect x="491.32" y="663.59" width="13.39" height="13.39" fill="#231f20"/>
  <rect x="447.96" y="663.59" width="13.39" height="13.39" fill="#231f20"/>
  <rect x="576.58" y="663.59" width="13.39" height="13.39" fill="#231f20"/>
  <rect x="533.22" y="663.59" width="13.39" height="13.39" fill="#231f20"/>
  <rect x="403.93" y="620.4" width="13.39" height="13.39" fill="#231f20"/>
  <rect x="491.32" y="620.4" width="13.39" height="13.39" fill="#231f20"/>
  <rect x="447.96" y="620.4" width="13.39" height="13.39" fill="#231f20"/>
  <rect x="576.58" y="620.4" width="13.39" height="13.39" fill="#231f20"/>
  <rect x="533.22" y="620.4" width="13.39" height="13.39" fill="#231f20"/>
  <rect x="360.62" y="446.92" width="13.39" height="13.39" fill="#231f20"/>
  <rect x="448.01" y="446.92" width="13.39" height="13.39" fill="#231f20"/>
  <rect x="404.65" y="446.92" width="13.39" height="13.39" fill="#231f20"/>
  <rect x="533.27" y="446.92" width="13.39" height="13.39" fill="#231f20"/>
  <rect x="489.91" y="446.92" width="13.39" height="13.39" fill="#231f20"/>
  <rect x="361.64" y="403.48" width="13.39" height="13.39" fill="#231f20"/>
  <rect x="449.03" y="403.48" width="13.39" height="13.39" fill="#231f20"/>
  <rect x="405.66" y="403.48" width="13.39" height="13.39" fill="#231f20"/>
  <rect x="534.29" y="403.48" width="13.39" height="13.39" fill="#231f20"/>
  <rect x="490.92" y="403.48" width="13.39" height="13.39" fill="#231f20"/>
  <rect x="449.03" y="360.04" width="13.39" height="13.39" fill="#231f20"/>
  <rect x="534.29" y="360.04" width="13.39" height="13.39" fill="#231f20"/>
  <rect x="490.92" y="360.04" width="13.39" height="13.39" fill="#231f20"/>
  <rect x="143.94" y="360.04" width="13.39" height="13.39" fill="#231f20"/>
  <rect x="231.33" y="403.48" width="13.39" height="13.39" fill="#231f20"/>
  <rect x="231.33" y="446.92" width="13.39" height="13.39" fill="#231f20"/>
  <rect x="190.6" y="403.48" width="13.39" height="13.39" fill="#231f20"/>
  <rect x="187.97" y="360.04" width="13.39" height="13.39" fill="#231f20"/>
  <rect x="99.91" y="316.97" width="13.39" height="13.39" fill="#231f20"/>
  <rect x="143.94" y="316.97" width="13.39" height="13.39" fill="#231f20"/>
  <rect x="99.91" y="272.41" width="13.39" height="13.39" fill="#231f20"/>
  <rect x="143.94" y="272.41" width="13.39" height="13.39" fill="#231f20"/>
  <rect x="14.49" y="272.41" width="13.39" height="13.39" fill="#231f20"/>
  <rect x="14.49" y="316.97" width="13.39" height="13.39" fill="#231f20"/>
  <rect x="14.49" y="359.26" width="13.39" height="13.39" fill="#231f20"/>
  <rect x="58.52" y="272.41" width="13.39" height="13.39" fill="#231f20"/>
  <rect x="273.64" y="272.41" width="13.39" height="13.39" fill="#231f20"/>
  <rect x="317.66" y="272.41" width="13.39" height="13.39" fill="#231f20"/>
  <rect x="188.22" y="272.41" width="13.39" height="13.39" fill="#231f20"/>
  <rect x="232.24" y="272.41" width="13.39" height="13.39" fill="#231f20"/>
  <rect x="575.68" y="272.41" width="13.39" height="13.39" fill="#231f20"/>
  <rect x="619.71" y="272.41" width="13.39" height="13.39" fill="#231f20"/>
  <rect x="534.29" y="272.41" width="13.39" height="13.39" fill="#231f20"/>
  <rect x="534.29" y="316.23" width="13.39" height="13.39" fill="#231f20"/>
  <rect x="187.97" y="231.53" width="13.39" height="13.39" fill="#231f20"/>
  <rect x="231.99" y="231.53" width="13.39" height="13.39" fill="#231f20"/>
  <rect x="102.55" y="231.53" width="13.39" height="13.39" fill="#231f20"/>
  <rect x="146.57" y="231.53" width="13.39" height="13.39" fill="#231f20"/>
  <rect x="186.8" y="187.49" width="13.39" height="13.39" fill="#231f20"/>
  <rect x="230.83" y="187.49" width="13.39" height="13.39" fill="#231f20"/>
  <rect x="274.27" y="231.53" width="13.39" height="13.39" fill="#231f20"/>
  <rect x="318.3" y="231.53" width="13.39" height="13.39" fill="#231f20"/>
  <rect x="273.11" y="187.49" width="13.39" height="13.39" fill="#231f20"/>
  <rect x="317.13" y="187.49" width="13.39" height="13.39" fill="#231f20"/>
  <rect x="101.38" y="187.49" width="13.39" height="13.39" fill="#231f20"/>
  <rect x="15.07" y="231.53" width="13.39" height="13.39" fill="#231f20"/>
  <rect x="13.91" y="187.49" width="13.39" height="13.39" fill="#231f20"/>
  <rect x="145.41" y="187.49" width="13.39" height="13.39" fill="#231f20"/>
  <rect x="186.8" y="143.45" width="13.39" height="13.39" fill="#231f20"/>
  <rect x="230.83" y="143.45" width="13.39" height="13.39" fill="#231f20"/>
  <rect x="273.11" y="143.45" width="13.39" height="13.39" fill="#231f20"/>
  <rect x="317.13" y="143.45" width="13.39" height="13.39" fill="#231f20"/>
  <rect x="187.34" y="101.54" width="13.39" height="13.39" fill="#231f20"/>
  <rect x="231.36" y="101.54" width="13.39" height="13.39" fill="#231f20"/>
  <rect x="187.34" y="57.46" width="13.39" height="13.39" fill="#231f20"/>
  <rect x="58.52" y="101.54" width="13.39" height="13.39" fill="#231f20"/>
  <rect x="58.52" y="57.46" width="13.39" height="13.39" fill="#231f20"/>
  <rect x="231.36" y="57.46" width="13.39" height="13.39" fill="#231f20"/>
  <rect x="187.34" y="17.82" width="13.39" height="13.39" fill="#231f20"/>
  <rect x="231.36" y="17.82" width="13.39" height="13.39" fill="#231f20"/>
  <rect x="102.55" y="17.82" width="13.39" height="13.39" fill="#231f20"/>
  <rect x="146.57" y="17.82" width="13.39" height="13.39" fill="#231f20"/>
  <rect x="273.64" y="101.54" width="13.39" height="13.39" fill="#231f20"/>
  <rect x="317.67" y="101.54" width="13.39" height="13.39" fill="#231f20"/>
  <rect x="446.75" y="231.53" width="13.39" height="13.39" fill="#231f20"/>
  <rect x="489.03" y="231.53" width="13.39" height="13.39" fill="#231f20"/>
  <rect x="447.36" y="272.41" width="13.39" height="13.39" fill="#231f20"/>
  <rect x="489.64" y="272.41" width="13.39" height="13.39" fill="#231f20"/>
  <rect x="360.96" y="272.41" width="13.39" height="13.39" fill="#231f20"/>
  <rect x="403.24" y="272.41" width="13.39" height="13.39" fill="#231f20"/>
  <rect x="533.06" y="231.53" width="13.39" height="13.39" fill="#231f20"/>
  <rect x="446.75" y="143.45" width="13.39" height="13.39" fill="#231f20"/>
  <rect x="404.17" y="187.49" width="13.39" height="13.39" fill="#231f20"/>
  <rect x="489.03" y="143.45" width="13.39" height="13.39" fill="#231f20"/>
  <rect x="446.75" y="101.54" width="13.39" height="13.39" fill="#231f20"/>
  <rect x="489.03" y="101.54" width="13.39" height="13.39" fill="#231f20"/>
  <rect x="533.06" y="143.45" width="13.39" height="13.39" fill="#231f20"/>
  <rect x="575.68" y="101.54" width="13.39" height="13.39" fill="#231f20"/>
  <rect x="145.41" y="143.45" width="13.39" height="13.39" fill="#231f20"/>
  <rect x="316.59" y="403.48" width="13.39" height="13.39" fill="#231f20"/>
  <rect x="273.23" y="403.48" width="13.39" height="13.39" fill="#231f20"/>
  <rect x="361.64" y="360.04" width="13.39" height="13.39" fill="#231f20"/>
  <rect x="231.33" y="360.04" width="13.39" height="13.39" fill="#231f20"/>
  <rect x="316.59" y="360.04" width="13.39" height="13.39" fill="#231f20"/>
  <rect x="273.23" y="360.04" width="13.39" height="13.39" fill="#231f20"/>
  <rect x="273.23" y="446.92" width="13.39" height="13.39" fill="#231f20"/>
  <rect x="362.3" y="316.97" width="13.39" height="13.39" fill="#231f20"/>
  <rect x="231.99" y="316.97" width="13.39" height="13.39" fill="#231f20"/>
  <rect x="317.25" y="316.97" width="13.39" height="13.39" fill="#231f20"/>
  <rect x="273.89" y="316.97" width="13.39" height="13.39" fill="#231f20"/>
  <rect x="448.01" y="489.07" width="13.39" height="13.39" fill="#231f20"/>
  <rect x="533.27" y="489.07" width="13.39" height="13.39" fill="#231f20"/>
  <rect x="489.91" y="489.07" width="13.39" height="13.39" fill="#231f20"/>
  <rect x="576.3" y="489.07" width="13.39" height="13.39" fill="#231f20"/>
  <rect x="661.56" y="489.07" width="13.39" height="13.39" fill="#231f20"/>
  <rect x="618.2" y="489.07" width="13.39" height="13.39" fill="#231f20"/>
  <rect x="662.65" y="316.97" width="13.39" height="13.39" fill="#231f20"/>
  <rect x="747.91" y="316.97" width="13.39" height="13.39" fill="#231f20"/>
  <rect x="704.55" y="316.97" width="13.39" height="13.39" fill="#231f20"/>
  <rect x="662.65" y="272.41" width="13.39" height="13.39" fill="#231f20"/>
  <rect x="747.91" y="272.41" width="13.39" height="13.39" fill="#231f20"/>
  <rect x="704.55" y="272.41" width="13.39" height="13.39" fill="#231f20"/>
  <rect x="619.71" y="231.53" width="13.39" height="13.39" fill="#231f20"/>
  <rect x="921.14" y="231.55" width="13.37" height="13.37" transform="translate(1855.65 476.46) rotate(180)" fill="#231f20"/>
  <rect x="921.14" y="273.34" width="13.37" height="13.37" transform="translate(1855.65 560.04) rotate(180)" fill="#231f20"/>
  <rect x="836.06" y="231.55" width="13.37" height="13.37" transform="translate(1685.49 476.46) rotate(180)" fill="#231f20"/>
  <rect x="879.33" y="231.55" width="13.37" height="13.37" transform="translate(1772.03 476.46) rotate(180)" fill="#231f20"/>
  <rect x="1051.07" y="231.55" width="13.37" height="13.37" transform="translate(2115.5 476.46) rotate(180)" fill="#231f20"/>
  <rect x="964.84" y="231.55" width="13.37" height="13.37" transform="translate(1943.04 476.46) rotate(180)" fill="#231f20"/>
  <rect x="1008.98" y="231.55" width="13.37" height="13.37" transform="translate(2031.32 476.46) rotate(180)" fill="#231f20"/>
  <rect x="1051.07" y="273.28" width="13.37" height="13.37" transform="translate(2115.5 559.93) rotate(180)" fill="#231f20"/>
  <rect x="964.84" y="273.28" width="13.37" height="13.37" transform="translate(1943.04 559.93) rotate(180)" fill="#231f20"/>
  <rect x="1008.98" y="273.28" width="13.37" height="13.37" transform="translate(2031.32 559.93) rotate(180)" fill="#231f20"/>
  <rect x="1051.07" y="316.7" width="13.37" height="13.37" transform="translate(2115.5 646.76) rotate(180)" fill="#231f20"/>
  <rect x="1051.07" y="360.05" width="13.37" height="13.37" transform="translate(2115.5 733.47) rotate(180)" fill="#231f20"/>
  <rect x="1008.98" y="316.7" width="13.37" height="13.37" transform="translate(2031.32 646.76) rotate(180)" fill="#231f20"/>
  <rect x="790.87" y="231.55" width="13.37" height="13.37" transform="translate(1595.1 476.46) rotate(180)" fill="#231f20"/>
  <rect x="748.02" y="231.55" width="13.37" height="13.37" transform="translate(1509.4 476.46) rotate(180)" fill="#231f20"/>
  <rect x="662.94" y="231.55" width="13.37" height="13.37" transform="translate(1339.24 476.46) rotate(180)" fill="#231f20"/>
  <rect x="575.71" y="446.92" width="13.39" height="13.39" fill="#231f20"/>
  <rect x="575.71" y="403.48" width="13.39" height="13.39" fill="#231f20"/>
  <rect x="576" y="360.05" width="13.37" height="13.37" transform="translate(1165.37 733.47) rotate(180)" fill="#231f20"/>
  <rect x="706.21" y="231.55" width="13.37" height="13.37" transform="translate(1425.78 476.46) rotate(180)" fill="#231f20"/>
  <rect x="921.14" y="187.5" width="13.37" height="13.37" transform="translate(1855.65 388.38) rotate(180)" fill="#231f20"/>
  <rect x="1051.07" y="447.25" width="13.37" height="13.37" transform="translate(2115.5 907.87) rotate(180)" fill="#231f20"/>
  <rect x="1051.07" y="489.04" width="13.37" height="13.37" transform="translate(2115.5 991.45) rotate(180)" fill="#231f20"/>
  <rect x="921.14" y="317.14" width="13.37" height="13.37" transform="translate(1855.65 647.64) rotate(180)" fill="#231f20"/>
  <rect x="836.06" y="187.5" width="13.37" height="13.37" transform="translate(1685.49 388.38) rotate(180)" fill="#231f20"/>
  <rect x="836.06" y="316.63" width="13.37" height="13.37" transform="translate(1685.49 646.62) rotate(180)" fill="#231f20"/>
  <rect x="836.06" y="272.59" width="13.37" height="13.37" transform="translate(1685.49 558.54) rotate(180)" fill="#231f20"/>
  <rect x="879.33" y="272.59" width="13.37" height="13.37" transform="translate(1772.03 558.54) rotate(180)" fill="#231f20"/>
  <rect x="879.33" y="187.5" width="13.37" height="13.37" transform="translate(1772.03 388.38) rotate(180)" fill="#231f20"/>
  <rect x="790.87" y="187.5" width="13.37" height="13.37" transform="translate(1595.1 388.38) rotate(180)" fill="#231f20"/>
  <rect x="748.02" y="187.5" width="13.37" height="13.37" transform="translate(1509.4 388.38) rotate(180)" fill="#231f20"/>
  <rect x="662.94" y="187.5" width="13.37" height="13.37" transform="translate(1339.24 388.38) rotate(180)" fill="#231f20"/>
  <rect x="706.21" y="187.5" width="13.37" height="13.37" transform="translate(1425.78 388.38) rotate(180)" fill="#231f20"/>
  <rect x="790.87" y="143.46" width="13.37" height="13.37" transform="translate(1595.1 300.29) rotate(180)" fill="#231f20"/>
  <rect x="790.87" y="361.03" width="13.37" height="13.37" transform="translate(1595.1 735.42) rotate(180)" fill="#231f20"/>
  <rect x="748.02" y="361.03" width="13.37" height="13.37" transform="translate(1509.4 735.42) rotate(180)" fill="#231f20"/>
  <rect x="747.91" y="447.19" width="13.39" height="13.39" fill="#231f20"/>
  <rect x="747.91" y="402.63" width="13.39" height="13.39" fill="#231f20"/>
  <rect x="662.94" y="447.2" width="13.37" height="13.37" transform="translate(1339.24 907.77) rotate(180)" fill="#231f20"/>
  <rect x="662.94" y="403.49" width="13.37" height="13.37" transform="translate(1339.24 820.35) rotate(180)" fill="#231f20"/>
  <rect x="790.87" y="316.99" width="13.37" height="13.37" transform="translate(1595.1 647.34) rotate(180)" fill="#231f20"/>
  <rect x="790.87" y="272.94" width="13.37" height="13.37" transform="translate(1595.1 559.25) rotate(180)" fill="#231f20"/>
  <rect x="748.02" y="143.46" width="13.37" height="13.37" transform="translate(1509.4 300.29) rotate(180)" fill="#231f20"/>
  <rect x="706.21" y="143.46" width="13.37" height="13.37" transform="translate(1425.78 300.29) rotate(180)" fill="#231f20"/>
  <rect x="705.42" y="101.56" width="13.37" height="13.37" transform="translate(1424.21 216.48) rotate(180)" fill="#231f20"/>
  <rect x="663.61" y="101.56" width="13.37" height="13.37" transform="translate(1340.59 216.48) rotate(180)" fill="#231f20"/>
  <rect x="446.08" y="57.48" width="13.37" height="13.37" transform="translate(905.53 128.32) rotate(180)" fill="#231f20"/>
  <rect x="403.23" y="57.48" width="13.37" height="13.37" transform="translate(819.83 128.32) rotate(180)" fill="#231f20"/>
  <rect x="446.08" y="17.84" width="13.37" height="13.37" transform="translate(905.53 49.04) rotate(180)" fill="#231f20"/>
  <rect x="403.23" y="17.84" width="13.37" height="13.37" transform="translate(819.83 49.04) rotate(180)" fill="#231f20"/>
  <rect x="318.15" y="57.48" width="13.37" height="13.37" transform="translate(649.67 128.32) rotate(180)" fill="#231f20"/>
  <rect x="361.42" y="57.48" width="13.37" height="13.37" transform="translate(736.21 128.32) rotate(180)" fill="#231f20"/>
  <rect x="490.71" y="533.66" width="13.39" height="13.39" fill="#231f20"/>
  <rect x="575.97" y="533.66" width="13.39" height="13.39" fill="#231f20"/>
  <rect x="532.61" y="533.66" width="13.39" height="13.39" fill="#231f20"/>
  <rect x="618.93" y="533.66" width="13.39" height="13.39" fill="#231f20"/>
  <rect x="704.19" y="533.66" width="13.39" height="13.39" fill="#231f20"/>
  <rect x="660.83" y="533.66" width="13.39" height="13.39" fill="#231f20"/>
  <rect x="448.29" y="533.66" width="13.39" height="13.39" fill="#231f20"/>
  <rect x="577.03" y="577.03" width="13.39" height="13.39" fill="#231f20"/>
  <rect x="662.29" y="577.03" width="13.39" height="13.39" fill="#231f20"/>
  <rect x="618.93" y="577.03" width="13.39" height="13.39" fill="#231f20"/>
  <rect x="662.29" y="620.4" width="13.39" height="13.39" fill="#231f20"/>
  <rect x="618.93" y="620.4" width="13.39" height="13.39" fill="#231f20"/>
  <rect x="707.4" y="577.03" width="13.39" height="13.39" fill="#231f20"/>
  <rect x="792.66" y="577.03" width="13.39" height="13.39" fill="#231f20"/>
  <rect x="749.3" y="577.03" width="13.39" height="13.39" fill="#231f20"/>
  <rect x="878.83" y="1009.29" width="13.39" height="13.39" fill="#231f20"/>
  <rect x="922.04" y="1009.29" width="13.39" height="13.39" fill="#231f20"/>
</svg>