<?xml version="1.0" encoding="UTF-8"?>
<svg id="_23" data-name="23" xmlns="http://www.w3.org/2000/svg" viewBox="0 0 1080 1080">
  <rect x="390.29" y="562.69" width="40.84" height="40.84" fill="#231f20"/>
  <rect x="390.26" y="606.31" width="40.84" height="40.84" fill="#231f20"/>
  <rect x="346.77" y="562.69" width="40.84" height="40.84" fill="#231f20"/>
  <rect x="347.25" y="606.15" width="40.84" height="40.84" fill="#231f20"/>
  <rect x="303.26" y="562.69" width="40.84" height="40.84" fill="#231f20"/>
  <rect x="303.74" y="606.15" width="40.84" height="40.84" fill="#231f20"/>
  <rect x="260.29" y="562.69" width="40.84" height="40.84" fill="#231f20"/>
  <rect x="260.77" y="606.15" width="40.84" height="40.84" fill="#231f20"/>
  <rect x="217.33" y="562.69" width="40.84" height="40.84" fill="#231f20"/>
  <rect x="303.55" y="519.58" width="40.84" height="40.84" fill="#231f20"/>
  <rect x="346.46" y="519.58" width="40.84" height="40.84" fill="#231f20"/>
  <rect x="260.29" y="519.58" width="40.84" height="40.84" fill="#231f20"/>
  <rect x="217.02" y="519.58" width="40.84" height="40.84" fill="#231f20"/>
  <rect x="174.06" y="519.58" width="40.84" height="40.84" fill="#231f20"/>
  <rect x="303.94" y="476.39" width="40.84" height="40.84" fill="#231f20"/>
  <rect x="346.85" y="476.39" width="40.84" height="40.84" fill="#231f20"/>
  <rect x="260.67" y="476.39" width="40.84" height="40.84" fill="#231f20"/>
  <rect x="217.41" y="476.39" width="40.84" height="40.84" fill="#231f20"/>
  <rect x="174.44" y="476.39" width="40.84" height="40.84" fill="#231f20"/>
  <rect x="131.09" y="519.58" width="40.84" height="40.84" fill="#231f20"/>
  <rect x="131.48" y="476.39" width="40.84" height="40.84" fill="#231f20"/>
  <rect x="303.9" y="432.36" width="40.84" height="40.84" fill="#231f20"/>
  <rect x="347.56" y="432.36" width="40.84" height="40.84" fill="#231f20"/>
  <rect x="260.46" y="432.36" width="40.84" height="40.84" fill="#231f20"/>
  <rect x="218.12" y="432.36" width="40.84" height="40.84" fill="#231f20"/>
  <rect x="303.9" y="389.5" width="40.84" height="40.84" fill="#231f20"/>
  <rect x="347.56" y="389.5" width="40.84" height="40.84" fill="#231f20"/>
  <rect x="303.9" y="346.52" width="40.84" height="40.84" fill="#231f20"/>
  <rect x="346.93" y="346.52" width="40.84" height="40.84" fill="#231f20"/>
  <rect x="390.58" y="432.36" width="40.84" height="40.84" fill="#231f20"/>
  <rect x="390.58" y="389.5" width="40.84" height="40.84" fill="#231f20"/>
  <rect x="389.95" y="346.52" width="40.84" height="40.84" fill="#231f20"/>
  <rect x="304.2" y="303.54" width="40.84" height="40.84" fill="#231f20"/>
  <rect x="347.56" y="303.54" width="40.84" height="40.84" fill="#231f20"/>
  <rect x="217.41" y="346.52" width="40.84" height="40.84" fill="#231f20"/>
  <rect x="260.88" y="346.52" width="40.84" height="40.84" fill="#231f20"/>
  <rect x="217.1" y="303.54" width="40.84" height="40.84" fill="#231f20"/>
  <rect x="260.46" y="303.54" width="40.84" height="40.84" fill="#231f20"/>
  <rect x="131.25" y="346.52" width="40.84" height="40.84" fill="#231f20"/>
  <rect x="174.16" y="346.52" width="40.84" height="40.84" fill="#231f20"/>
  <rect x="130.38" y="303.54" width="40.84" height="40.84" fill="#231f20"/>
  <rect x="173.74" y="303.54" width="40.84" height="40.84" fill="#231f20"/>
  <rect x="44.15" y="346.52" width="40.84" height="40.84" fill="#231f20"/>
  <rect x="87.06" y="346.52" width="40.84" height="40.84" fill="#231f20"/>
  <rect x="44.15" y="303.54" width="40.84" height="40.84" fill="#231f20"/>
  <rect x="87.26" y="303.38" width="40.84" height="40.84" fill="#231f20"/>
  <rect x="304.36" y="260.25" width="40.84" height="40.84" fill="#231f20"/>
  <rect x="347.72" y="260.25" width="40.84" height="40.84" fill="#231f20"/>
  <rect x="217.26" y="260.25" width="40.84" height="40.84" fill="#231f20"/>
  <rect x="260.62" y="260.25" width="40.84" height="40.84" fill="#231f20"/>
  <rect x="130.54" y="260.25" width="40.84" height="40.84" fill="#231f20"/>
  <rect x="173.9" y="260.25" width="40.84" height="40.84" fill="#231f20"/>
  <rect x="44.76" y="260.25" width="40.84" height="40.84" fill="#231f20"/>
  <rect x="87.02" y="260.25" width="40.84" height="40.84" fill="#231f20"/>
  <rect x="304.36" y="217.11" width="40.84" height="40.84" fill="#231f20"/>
  <rect x="347.72" y="217.11" width="40.84" height="40.84" fill="#231f20"/>
  <rect x="217.26" y="217.11" width="40.84" height="40.84" fill="#231f20"/>
  <rect x="260.62" y="217.11" width="40.84" height="40.84" fill="#231f20"/>
  <rect x="130.54" y="217.11" width="40.84" height="40.84" fill="#231f20"/>
  <rect x="173.9" y="217.11" width="40.84" height="40.84" fill="#231f20"/>
  <rect x="44.76" y="217.11" width="40.84" height="40.84" fill="#231f20"/>
  <rect x=".93" y="346.68" width="40.84" height="40.84" fill="#231f20"/>
  <rect x=".93" y="303.7" width="40.84" height="40.84" fill="#231f20"/>
  <rect x="1.54" y="260.41" width="40.84" height="40.84" fill="#231f20"/>
  <rect x="1.54" y="217.28" width="40.84" height="40.84" fill="#231f20"/>
  <rect x="87.02" y="217.11" width="40.84" height="40.84" fill="#231f20"/>
  <rect x="304.52" y="173.67" width="40.84" height="40.84" fill="#231f20"/>
  <rect x="217.42" y="173.67" width="40.84" height="40.84" fill="#231f20"/>
  <rect x="260.78" y="173.67" width="40.84" height="40.84" fill="#231f20"/>
  <rect x="130.7" y="173.67" width="40.84" height="40.84" fill="#231f20"/>
  <rect x="174.06" y="173.67" width="40.84" height="40.84" fill="#231f20"/>
  <rect x="303.85" y="130.68" width="40.84" height="40.84" fill="#231f20"/>
  <rect x="217.42" y="131.1" width="40.84" height="40.84" fill="#231f20"/>
  <rect x="260.78" y="131.1" width="40.84" height="40.84" fill="#231f20"/>
  <rect x="303.85" y="87.34" width="40.84" height="40.84" fill="#231f20"/>
  <rect x="260.11" y="87.34" width="40.84" height="40.84" fill="#231f20"/>
  <rect x="174.06" y="131.1" width="40.84" height="40.84" fill="#231f20"/>
  <rect x="44.92" y="173.67" width="40.84" height="40.84" fill="#231f20"/>
  <rect x="87.18" y="173.67" width="40.84" height="40.84" fill="#231f20"/>
  <rect x="260.88" y="389.5" width="40.84" height="40.84" fill="#231f20"/>
  <rect x="217.02" y="389.5" width="40.84" height="40.84" fill="#231f20"/>
  <rect x="130.99" y="389.5" width="40.84" height="40.84" fill="#231f20"/>
  <rect x="173.9" y="389.5" width="40.84" height="40.84" fill="#231f20"/>
  <rect x="87.72" y="389.5" width="40.84" height="40.84" fill="#231f20"/>
  <rect x="44.46" y="389.5" width="40.84" height="40.84" fill="#231f20"/>
  <rect x="174.39" y="432.95" width="40.84" height="40.84" fill="#231f20"/>
  <rect x="130.66" y="432.36" width="40.84" height="40.84" fill="#231f20"/>
  <rect x="87.7" y="432.36" width="40.84" height="40.84" fill="#231f20"/>
  <rect x="217.81" y="606.15" width="40.84" height="40.84" fill="#231f20"/>
  <rect x="390.26" y="648.67" width="40.84" height="40.84" fill="#231f20"/>
  <rect x="347.25" y="648.51" width="40.84" height="40.84" fill="#231f20"/>
  <rect x="303.74" y="648.51" width="40.84" height="40.84" fill="#231f20"/>
  <rect x="260.77" y="648.51" width="40.84" height="40.84" fill="#231f20"/>
  <rect x="390.76" y="692.28" width="40.84" height="40.84" fill="#231f20"/>
  <rect x="433.28" y="606.15" width="40.84" height="40.84" fill="#231f20"/>
  <rect x="433.28" y="648.51" width="40.84" height="40.84" fill="#231f20"/>
  <rect x="518.9" y="606.39" width="40.84" height="40.84" fill="#231f20"/>
  <rect x="519.58" y="649.42" width="40.84" height="40.84" fill="#231f20"/>
  <rect x="475.75" y="606.39" width="40.84" height="40.84" fill="#231f20"/>
  <rect x="433.28" y="562.23" width="40.84" height="40.84" fill="#231f20"/>
  <rect x="519.58" y="563.15" width="40.84" height="40.84" fill="#231f20"/>
  <rect x="476.43" y="563.15" width="40.84" height="40.84" fill="#231f20"/>
  <rect x="390.29" y="519.58" width="40.84" height="40.84" fill="#231f20"/>
  <rect x="433.28" y="519.12" width="40.84" height="40.84" fill="#231f20"/>
  <rect x="519.58" y="520.04" width="40.84" height="40.84" fill="#231f20"/>
  <rect x="476.43" y="520.04" width="40.84" height="40.84" fill="#231f20"/>
  <rect x="390.29" y="475.74" width="40.84" height="40.84" fill="#231f20"/>
  <rect x="433.28" y="475.28" width="40.84" height="40.84" fill="#231f20"/>
  <rect x="433.28" y="432.36" width="40.84" height="40.84" fill="#231f20"/>
  <rect x="476.43" y="476.2" width="40.84" height="40.84" fill="#231f20"/>
  <rect x="476.43" y="649.42" width="40.84" height="40.84" fill="#231f20"/>
  <rect x="562.89" y="562.69" width="40.84" height="40.84" fill="#231f20"/>
  <rect x="562.87" y="606.48" width="40.84" height="40.84" fill="#231f20"/>
  <rect x="562.87" y="648.84" width="40.84" height="40.84" fill="#231f20"/>
  <rect x="605.89" y="606.32" width="40.84" height="40.84" fill="#231f20"/>
  <rect x="605.89" y="648.68" width="40.84" height="40.84" fill="#231f20"/>
  <rect x="433.28" y="692.28" width="40.84" height="40.84" fill="#231f20"/>
  <rect x="347.25" y="692.28" width="40.84" height="40.84" fill="#231f20"/>
  <rect x="303.74" y="692.28" width="40.84" height="40.84" fill="#231f20"/>
  <rect x="390.76" y="735.43" width="40.84" height="40.84" fill="#231f20"/>
  <rect x="433.28" y="735.43" width="40.84" height="40.84" fill="#231f20"/>
  <rect x="476.68" y="735.45" width="40.84" height="40.84" fill="#231f20"/>
  <rect x="476.68" y="692.28" width="40.84" height="40.84" fill="#231f20"/>
  <rect x="519.58" y="692.28" width="40.84" height="40.84" fill="#231f20"/>
  <rect x="347.25" y="735.43" width="40.84" height="40.84" fill="#231f20"/>
  <rect x="303.74" y="735.43" width="40.84" height="40.84" fill="#231f20"/>
  <rect x="433.28" y="778.55" width="40.84" height="40.84" fill="#231f20"/>
  <rect x="476.68" y="778.63" width="40.84" height="40.84" fill="#231f20"/>
  <rect x="390.11" y="778.55" width="40.84" height="40.84" fill="#231f20"/>
  <rect x="346.6" y="778.55" width="40.84" height="40.84" fill="#231f20"/>
  <rect x="303.6" y="778.55" width="40.84" height="40.84" fill="#231f20"/>
  <rect x="433.28" y="821.68" width="40.84" height="40.84" fill="#231f20"/>
  <rect x="476.79" y="821.68" width="40.84" height="40.84" fill="#231f20"/>
  <rect x="519.73" y="735.43" width="40.84" height="40.84" fill="#231f20"/>
  <rect x="519.73" y="778.63" width="40.84" height="40.84" fill="#231f20"/>
  <rect x="562.85" y="735.45" width="40.84" height="40.84" fill="#231f20"/>
  <rect x="562.85" y="692.28" width="40.84" height="40.84" fill="#231f20"/>
  <rect x="605.75" y="692.28" width="40.84" height="40.84" fill="#231f20"/>
  <rect x="562.85" y="778.63" width="40.84" height="40.84" fill="#231f20"/>
  <rect x="605.91" y="735.43" width="40.84" height="40.84" fill="#231f20"/>
  <rect x="605.91" y="778.63" width="40.84" height="40.84" fill="#231f20"/>
  <rect x="649.43" y="692.28" width="40.84" height="40.84" fill="#231f20"/>
  <rect x="649.58" y="735.43" width="40.84" height="40.84" fill="#231f20"/>
  <rect x="649.58" y="778.63" width="40.84" height="40.84" fill="#231f20"/>
  <rect x="692.14" y="778.63" width="40.84" height="40.84" fill="#231f20"/>
  <rect x="735.82" y="778.63" width="40.84" height="40.84" fill="#231f20"/>
  <rect x="519.73" y="821.82" width="40.84" height="40.84" fill="#231f20"/>
  <rect x="389.76" y="821.68" width="40.84" height="40.84" fill="#231f20"/>
  <rect x="346.25" y="821.68" width="40.84" height="40.84" fill="#231f20"/>
  <rect x="477.08" y="865.19" width="40.84" height="40.84" fill="#231f20"/>
  <rect x="520.02" y="865.34" width="40.84" height="40.84" fill="#231f20"/>
  <rect x="562.67" y="821.52" width="40.84" height="40.84" fill="#231f20"/>
  <rect x="606.08" y="821.68" width="40.84" height="40.84" fill="#231f20"/>
  <rect x="649.6" y="821.68" width="40.84" height="40.84" fill="#231f20"/>
  <rect x="692.54" y="821.82" width="40.84" height="40.84" fill="#231f20"/>
  <rect x="735.47" y="821.52" width="40.84" height="40.84" fill="#231f20"/>
  <rect x="562.96" y="865.35" width="40.84" height="40.84" fill="#231f20"/>
  <rect x="519.53" y="908.43" width="40.84" height="40.84" fill="#231f20"/>
  <rect x="519.62" y="951.48" width="40.84" height="40.84" fill="#231f20"/>
  <rect x="562.32" y="908.48" width="40.84" height="40.84" fill="#231f20"/>
  <rect x="432.93" y="908.43" width="40.84" height="40.84" fill="#231f20"/>
  <rect x="389.97" y="908.43" width="40.84" height="40.84" fill="#231f20"/>
  <rect x="476.46" y="908.48" width="40.84" height="40.84" fill="#231f20"/>
  <rect x="562.48" y="951.48" width="40.84" height="40.84" fill="#231f20"/>
  <rect x="433.02" y="951.48" width="40.84" height="40.84" fill="#231f20"/>
  <rect x="476.54" y="951.48" width="40.84" height="40.84" fill="#231f20"/>
  <rect x="519.87" y="995.02" width="40.84" height="40.84" fill="#231f20"/>
  <rect x="562.48" y="995.02" width="40.84" height="40.84" fill="#231f20"/>
  <rect x="605.98" y="865.35" width="40.84" height="40.84" fill="#231f20"/>
  <rect x="605.98" y="908.48" width="40.84" height="40.84" fill="#231f20"/>
  <rect x="606.14" y="951.48" width="40.84" height="40.84" fill="#231f20"/>
  <rect x="606.14" y="995.02" width="40.84" height="40.84" fill="#231f20"/>
  <rect x="476.94" y="995.02" width="40.84" height="40.84" fill="#231f20"/>
  <rect x="519.87" y="1038.22" width="40.84" height="40.84" fill="#231f20"/>
  <rect x="562.48" y="1038.22" width="40.84" height="40.84" fill="#231f20"/>
  <rect x="606.14" y="1038.22" width="40.84" height="40.84" fill="#231f20"/>
  <rect x="649.51" y="865.35" width="40.84" height="40.84" fill="#231f20"/>
  <rect x="649.51" y="908.48" width="40.84" height="40.84" fill="#231f20"/>
  <rect x="649.66" y="951.48" width="40.84" height="40.84" fill="#231f20"/>
  <rect x="649.66" y="995.02" width="40.84" height="40.84" fill="#231f20"/>
  <rect x="649.66" y="1038.22" width="40.84" height="40.84" fill="#231f20"/>
  <rect x="692.54" y="865.22" width="40.84" height="40.84" fill="#231f20"/>
  <rect x="735.91" y="865.35" width="40.84" height="40.84" fill="#231f20"/>
  <rect x="735.91" y="907.93" width="40.84" height="40.84" fill="#231f20"/>
  <rect x="778.93" y="865.35" width="40.84" height="40.84" fill="#231f20"/>
  <rect x="692.54" y="908.34" width="40.84" height="40.84" fill="#231f20"/>
  <rect x="691.76" y="951.48" width="40.84" height="40.84" fill="#231f20"/>
  <rect x="691.76" y="995.02" width="40.84" height="40.84" fill="#231f20"/>
  <rect x="691.76" y="1038.22" width="40.84" height="40.84" fill="#231f20"/>
  <rect x="476.94" y="1038.22" width="40.84" height="40.84" fill="#231f20"/>
  <rect x="433.34" y="995.02" width="40.84" height="40.84" fill="#231f20"/>
  <rect x="433.57" y="865.19" width="40.84" height="40.84" fill="#231f20"/>
  <rect x="390.05" y="865.19" width="40.84" height="40.84" fill="#231f20"/>
  <rect x="347.57" y="865.19" width="40.84" height="40.84" fill="#231f20"/>
  <rect x="260.77" y="692.28" width="40.84" height="40.84" fill="#231f20"/>
  <rect x="217.81" y="648.51" width="40.84" height="40.84" fill="#231f20"/>
  <rect x="576.2" y="531.79" width="13.39" height="13.39" fill="#231f20"/>
  <rect x="576.2" y="488.94" width="13.39" height="13.39" fill="#231f20"/>
  <rect x="533.3" y="489.93" width="13.39" height="13.39" fill="#231f20"/>
  <rect x="533.3" y="447.07" width="13.39" height="13.39" fill="#231f20"/>
  <rect x="490.15" y="445.07" width="13.39" height="13.39" fill="#231f20"/>
  <rect x="490.15" y="403.22" width="13.39" height="13.39" fill="#231f20"/>
  <rect x="447" y="402.09" width="13.39" height="13.39" fill="#231f20"/>
  <rect x="447" y="359.24" width="13.39" height="13.39" fill="#231f20"/>
  <rect x="447" y="317.13" width="13.39" height="13.39" fill="#231f20"/>
  <rect x="404.3" y="317.13" width="13.39" height="13.39" fill="#231f20"/>
  <rect x="404.3" y="274.27" width="13.39" height="13.39" fill="#231f20"/>
  <rect x="404.3" y="230.73" width="13.39" height="13.39" fill="#231f20"/>
  <rect x="360.65" y="187.87" width="13.39" height="13.39" fill="#231f20"/>
  <rect x="360.65" y="142.57" width="13.39" height="13.39" fill="#231f20"/>
  <rect x="360.65" y="101.07" width="13.39" height="13.39" fill="#231f20"/>
  <rect x="360.65" y="57.66" width="13.39" height="13.39" fill="#231f20"/>
  <rect x="317.57" y="57.66" width="13.39" height="13.39" fill="#231f20"/>
  <rect x="274.5" y="57.66" width="13.39" height="13.39" fill="#231f20"/>
  <rect x="230.84" y="101.07" width="13.39" height="13.39" fill="#231f20"/>
  <rect x="187.77" y="101.07" width="13.39" height="13.39" fill="#231f20"/>
  <rect x="147.37" y="101.07" width="13.39" height="13.39" fill="#231f20"/>
  <rect x="230.84" y="57.66" width="13.39" height="13.39" fill="#231f20"/>
  <rect x="317.57" y="14.87" width="13.39" height="13.39" fill="#231f20"/>
  <rect x="274.5" y="14.87" width="13.39" height="13.39" fill="#231f20"/>
  <rect x="230.84" y="14.87" width="13.39" height="13.39" fill="#231f20"/>
  <rect x="187.77" y="57.66" width="13.39" height="13.39" fill="#231f20"/>
  <rect x="147.37" y="57.66" width="13.39" height="13.39" fill="#231f20"/>
  <rect x="104.3" y="101.07" width="13.39" height="13.39" fill="#231f20"/>
  <rect x="144.44" y="144.4" width="13.39" height="13.39" fill="#231f20"/>
  <rect x="101.37" y="144.4" width="13.39" height="13.39" fill="#231f20"/>
  <rect x="188.88" y="617.48" width="13.39" height="13.39" fill="#231f20"/>
  <rect x="188.88" y="661.6" width="13.39" height="13.39" fill="#231f20"/>
  <rect x="188.88" y="702.95" width="13.39" height="13.39" fill="#231f20"/>
  <rect x="231.84" y="702.95" width="13.39" height="13.39" fill="#231f20"/>
  <rect x="231.84" y="747.08" width="13.39" height="13.39" fill="#231f20"/>
  <rect x="274.8" y="747.08" width="13.39" height="13.39" fill="#231f20"/>
  <rect x="707.39" y="704.59" width="13.39" height="13.39" fill="#231f20"/>
  <rect x="707.39" y="661.6" width="13.39" height="13.39" fill="#231f20"/>
  <rect x="707.39" y="618.62" width="13.39" height="13.39" fill="#231f20"/>
  <rect x="663.15" y="661.6" width="13.39" height="13.39" fill="#231f20"/>
  <rect x="663.15" y="618.62" width="13.39" height="13.39" fill="#231f20"/>
  <rect x="619.86" y="575.63" width="13.39" height="13.39" fill="#231f20"/>
  <rect x="792.27" y="791.02" width="13.39" height="13.39" fill="#231f20"/>
  <rect x="835.93" y="792.32" width="13.39" height="13.39" fill="#231f20"/>
  <rect x="707.39" y="748.53" width="13.39" height="13.39" fill="#231f20"/>
  <rect x="751.05" y="749.83" width="13.39" height="13.39" fill="#231f20"/>
  <rect x="792.65" y="835.76" width="13.39" height="13.39" fill="#231f20"/>
  <rect x="836.46" y="876.28" width="13.39" height="13.39" fill="#231f20"/>
  <rect x="835.55" y="835.76" width="13.39" height="13.39" fill="#231f20"/>
  <rect x="836.46" y="919.72" width="13.39" height="13.39" fill="#231f20"/>
  <rect x="793.05" y="919.72" width="13.39" height="13.39" fill="#231f20"/>
  <rect x="793.05" y="965.49" width="13.39" height="13.39" fill="#231f20"/>
  <rect x="749.64" y="965.49" width="13.39" height="13.39" fill="#231f20"/>
  <rect x="749.64" y="1008.92" width="13.39" height="13.39" fill="#231f20"/>
  <rect x="749.64" y="1051.94" width="13.39" height="13.39" fill="#231f20"/>
  <rect x="274.8" y="791.02" width="13.39" height="13.39" fill="#231f20"/>
  <rect x="274.8" y="834.46" width="13.39" height="13.39" fill="#231f20"/>
  <rect x="317.77" y="878.68" width="13.39" height="13.39" fill="#231f20"/>
  <rect x="317.77" y="922.12" width="13.39" height="13.39" fill="#231f20"/>
  <rect x="360.73" y="922.12" width="13.39" height="13.39" fill="#231f20"/>
  <rect x="360.73" y="963.14" width="13.39" height="13.39" fill="#231f20"/>
  <rect x="360.73" y="1008.01" width="13.39" height="13.39" fill="#231f20"/>
  <rect x="404.25" y="1008.01" width="13.39" height="13.39" fill="#231f20"/>
  <rect x="404.25" y="1050.76" width="13.39" height="13.39" fill="#231f20"/>
  <rect x="404.25" y="963.14" width="13.39" height="13.39" fill="#231f20"/>
  <rect x="446.07" y="1050.76" width="13.39" height="13.39" fill="#231f20"/>
  <rect x="317.77" y="834.46" width="13.39" height="13.39" fill="#231f20"/>
  <rect x="188.88" y="574.62" width="13.39" height="13.39" fill="#231f20"/>
  <rect x="145.91" y="574.62" width="13.39" height="13.39" fill="#231f20"/>
  <rect x="101.45" y="532.85" width="13.39" height="13.39" fill="#231f20"/>
  <rect x="101.45" y="490.12" width="13.39" height="13.39" fill="#231f20"/>
  <rect x="59.92" y="446.67" width="13.39" height="13.39" fill="#231f20"/>
  <rect x="14.65" y="403.22" width="13.39" height="13.39" fill="#231f20"/>
</svg>