<?xml version="1.0" encoding="UTF-8"?>
<svg id="_24" data-name="24" xmlns="http://www.w3.org/2000/svg" viewBox="0 0 1080 1080">
  <rect x="260.51" y="951.93" width="40.84" height="40.84" fill="#231f20"/>
  <rect x="303.89" y="951.93" width="40.84" height="40.84" fill="#231f20"/>
  <rect x="303.89" y="909.14" width="40.84" height="40.84" fill="#231f20"/>
  <rect x="260.51" y="432.81" width="40.84" height="40.84" fill="#231f20"/>
  <rect x="303.29" y="217.89" width="40.84" height="40.84" fill="#231f20"/>
  <rect x="260.51" y="174.9" width="40.84" height="40.84" fill="#231f20"/>
  <rect x="260.51" y="217.89" width="40.84" height="40.84" fill="#231f20"/>
  <rect x="260.51" y="260.88" width="40.84" height="40.84" fill="#231f20"/>
  <rect x="217.73" y="260.88" width="40.84" height="40.84" fill="#231f20"/>
  <rect x="260.51" y="909.14" width="40.84" height="40.84" fill="#231f20"/>
  <rect x="216.81" y="563.2" width="40.84" height="40.84" fill="#231f20"/>
  <rect x="230.53" y="966.6" width="13.39" height="13.39" fill="#231f20"/>
  <rect x="187.95" y="966.6" width="13.39" height="13.39" fill="#231f20"/>
  <rect x="100.72" y="966.6" width="13.39" height="13.39" fill="#231f20"/>
  <rect x="230.53" y="1008.26" width="13.39" height="13.39" fill="#231f20"/>
  <rect x="187.95" y="1008.26" width="13.39" height="13.39" fill="#231f20"/>
  <rect x="144.56" y="1008.26" width="13.39" height="13.39" fill="#231f20"/>
  <rect x="230.53" y="1051.67" width="13.39" height="13.39" fill="#231f20"/>
  <rect x="187.95" y="1051.67" width="13.39" height="13.39" fill="#231f20"/>
  <rect x="144.56" y="1051.67" width="13.39" height="13.39" fill="#231f20"/>
  <rect x="316.95" y="1008.26" width="13.39" height="13.39" fill="#231f20"/>
  <rect x="361.74" y="1008.26" width="13.39" height="13.39" fill="#231f20"/>
  <rect x="274.46" y="1008.26" width="13.39" height="13.39" fill="#231f20"/>
  <rect x="100.72" y="749.74" width="13.39" height="13.39" fill="#231f20"/>
  <rect x="100.72" y="837.83" width="13.39" height="13.39" fill="#231f20"/>
  <rect x="100.72" y="793.78" width="13.39" height="13.39" fill="#231f20"/>
  <rect x="58.98" y="879.77" width="13.39" height="13.39" fill="#231f20"/>
  <rect x="58.98" y="837.83" width="13.39" height="13.39" fill="#231f20"/>
  <rect x="230.53" y="921.09" width="13.39" height="13.39" fill="#231f20"/>
  <rect x="274.23" y="879.77" width="13.39" height="13.39" fill="#231f20"/>
  <rect x="317.62" y="879.77" width="13.39" height="13.39" fill="#231f20"/>
  <rect x="447.77" y="879.77" width="13.39" height="13.39" fill="#231f20"/>
  <rect x="491.15" y="879.77" width="13.39" height="13.39" fill="#231f20"/>
  <rect x="447.77" y="922.87" width="13.39" height="13.39" fill="#231f20"/>
  <rect x="404.98" y="922.87" width="13.39" height="13.39" fill="#231f20"/>
  <rect x="447.77" y="966.6" width="13.39" height="13.39" fill="#231f20"/>
  <rect x="404.98" y="966.6" width="13.39" height="13.39" fill="#231f20"/>
  <rect x="491.15" y="922.87" width="13.39" height="13.39" fill="#231f20"/>
  <rect x="491.15" y="791.27" width="13.39" height="13.39" fill="#231f20"/>
  <rect x="491.15" y="834.37" width="13.39" height="13.39" fill="#231f20"/>
  <rect x="317.62" y="837.83" width="13.39" height="13.39" fill="#231f20"/>
  <rect x="274.23" y="837.83" width="13.39" height="13.39" fill="#231f20"/>
  <rect x="317.62" y="793.78" width="13.39" height="13.39" fill="#231f20"/>
  <rect x="274.23" y="793.78" width="13.39" height="13.39" fill="#231f20"/>
  <rect x="317.62" y="749.74" width="13.39" height="13.39" fill="#231f20"/>
  <rect x="274.23" y="749.74" width="13.39" height="13.39" fill="#231f20"/>
  <rect x="317.62" y="706.54" width="13.39" height="13.39" fill="#231f20"/>
  <rect x="187.95" y="706.54" width="13.39" height="13.39" fill="#231f20"/>
  <rect x="274.23" y="706.54" width="13.39" height="13.39" fill="#231f20"/>
  <rect x="230.53" y="706.54" width="13.39" height="13.39" fill="#231f20"/>
  <rect x="144.56" y="706.54" width="13.39" height="13.39" fill="#231f20"/>
  <rect x="317.62" y="663.34" width="13.39" height="13.39" fill="#231f20"/>
  <rect x="274.23" y="663.34" width="13.39" height="13.39" fill="#231f20"/>
  <rect x="317.62" y="620.13" width="13.39" height="13.39" fill="#231f20"/>
  <rect x="274.23" y="620.13" width="13.39" height="13.39" fill="#231f20"/>
  <rect x="317.62" y="576.93" width="13.39" height="13.39" fill="#231f20"/>
  <rect x="361" y="706.54" width="13.39" height="13.39" fill="#231f20"/>
  <rect x="361" y="663.34" width="13.39" height="13.39" fill="#231f20"/>
  <rect x="361" y="620.13" width="13.39" height="13.39" fill="#231f20"/>
  <rect x="361" y="576.93" width="13.39" height="13.39" fill="#231f20"/>
  <rect x="274.23" y="576.93" width="13.39" height="13.39" fill="#231f20"/>
  <rect x="317.62" y="492.62" width="13.39" height="13.39" fill="#231f20"/>
  <rect x="361" y="492.62" width="13.39" height="13.39" fill="#231f20"/>
  <rect x="317.21" y="318.05" width="13.39" height="13.39" fill="#231f20"/>
  <rect x="274.38" y="318.05" width="13.39" height="13.39" fill="#231f20"/>
  <rect x="231.45" y="318.05" width="13.39" height="13.39" fill="#231f20"/>
  <rect x="274.38" y="360.57" width="13.39" height="13.39" fill="#231f20"/>
  <rect x="231.45" y="360.57" width="13.39" height="13.39" fill="#231f20"/>
  <rect x="360.59" y="318.05" width="13.39" height="13.39" fill="#231f20"/>
  <rect x="317.21" y="446.53" width="13.39" height="13.39" fill="#231f20"/>
  <rect x="360.59" y="446.53" width="13.39" height="13.39" fill="#231f20"/>
  <rect x="360.59" y="405.33" width="13.39" height="13.39" fill="#231f20"/>
  <rect x="404.38" y="360.57" width="13.39" height="13.39" fill="#231f20"/>
  <rect x="404.38" y="318.05" width="13.39" height="13.39" fill="#231f20"/>
  <rect x="922.38" y="188.62" width="13.39" height="13.39" fill="#231f20"/>
  <rect x="965.76" y="188.62" width="13.39" height="13.39" fill="#231f20"/>
  <rect x="1009.55" y="188.62" width="13.39" height="13.39" fill="#231f20"/>
  <rect x="965.76" y="231.94" width="13.39" height="13.39" fill="#231f20"/>
  <rect x="1009.55" y="231.94" width="13.39" height="13.39" fill="#231f20"/>
  <rect x="1053.34" y="231.94" width="13.39" height="13.39" fill="#231f20"/>
  <rect x="708.88" y="231.94" width="13.39" height="13.39" fill="#231f20"/>
  <rect x="752.67" y="231.94" width="13.39" height="13.39" fill="#231f20"/>
  <rect x="796.46" y="231.94" width="13.39" height="13.39" fill="#231f20"/>
  <rect x="404.38" y="275.5" width="13.39" height="13.39" fill="#231f20"/>
  <rect x="317.21" y="275.5" width="13.39" height="13.39" fill="#231f20"/>
  <rect x="188.02" y="274.61" width="13.39" height="13.39" fill="#231f20"/>
  <rect x="360.59" y="275.5" width="13.39" height="13.39" fill="#231f20"/>
  <rect x="360.59" y="231.17" width="13.39" height="13.39" fill="#231f20"/>
  <rect x="231.45" y="231.17" width="13.39" height="13.39" fill="#231f20"/>
  <rect x="403.98" y="231.17" width="13.39" height="13.39" fill="#231f20"/>
  <rect x="101.21" y="231.17" width="13.39" height="13.39" fill="#231f20"/>
  <rect x="60" y="231.17" width="13.39" height="13.39" fill="#231f20"/>
  <rect x="101.21" y="274.61" width="13.39" height="13.39" fill="#231f20"/>
  <rect x="60" y="274.61" width="13.39" height="13.39" fill="#231f20"/>
  <rect x="144.59" y="231.17" width="13.39" height="13.39" fill="#231f20"/>
  <rect x="360.59" y="187.73" width="13.39" height="13.39" fill="#231f20"/>
  <rect x="403.98" y="187.73" width="13.39" height="13.39" fill="#231f20"/>
  <rect x="317.21" y="187.73" width="13.39" height="13.39" fill="#231f20"/>
  <rect x="360.59" y="145.57" width="13.39" height="13.39" fill="#231f20"/>
  <rect x="317.21" y="145.57" width="13.39" height="13.39" fill="#231f20"/>
  <rect x="274.23" y="145.57" width="13.39" height="13.39" fill="#231f20"/>
  <rect x="317.21" y="59.38" width="13.39" height="13.39" fill="#231f20"/>
  <rect x="274.23" y="59.38" width="13.39" height="13.39" fill="#231f20"/>
  <rect x="403.59" y="59.38" width="13.39" height="13.39" fill="#231f20"/>
  <rect x="360.61" y="59.38" width="13.39" height="13.39" fill="#231f20"/>
  <rect x="232.44" y="59.38" width="13.39" height="13.39" fill="#231f20"/>
  <rect x="317.21" y="16.28" width="13.39" height="13.39" fill="#231f20"/>
  <rect x="274.23" y="16.28" width="13.39" height="13.39" fill="#231f20"/>
  <rect x="232.44" y="16.28" width="13.39" height="13.39" fill="#231f20"/>
  <rect x="360.59" y="102.47" width="13.39" height="13.39" fill="#231f20"/>
  <rect x="317.21" y="102.47" width="13.39" height="13.39" fill="#231f20"/>
  <rect x="447.77" y="492.62" width="13.39" height="13.39" fill="#231f20"/>
  <rect x="491.56" y="492.62" width="13.39" height="13.39" fill="#231f20"/>
  <rect x="274.23" y="492.62" width="13.39" height="13.39" fill="#231f20"/>
  <rect x="230.99" y="492.62" width="13.39" height="13.39" fill="#231f20"/>
  <rect x="187.61" y="492.62" width="13.39" height="13.39" fill="#231f20"/>
  <rect x="230.99" y="447.95" width="13.39" height="13.39" fill="#231f20"/>
  <rect x="187.61" y="447.95" width="13.39" height="13.39" fill="#231f20"/>
  <rect x="231.01" y="620.13" width="13.39" height="13.39" fill="#231f20"/>
  <rect x="231.01" y="663.34" width="13.39" height="13.39" fill="#231f20"/>
  <rect x="187.95" y="663.34" width="13.39" height="13.39" fill="#231f20"/>
  <rect x="187.95" y="620.13" width="13.39" height="13.39" fill="#231f20"/>
  <rect x="144.56" y="620.13" width="13.39" height="13.39" fill="#231f20"/>
  <rect x="187.95" y="576.93" width="13.39" height="13.39" fill="#231f20"/>
  <rect x="144.56" y="576.93" width="13.39" height="13.39" fill="#231f20"/>
  <rect x="100.72" y="620.13" width="13.39" height="13.39" fill="#231f20"/>
  <rect x="57.43" y="620.13" width="13.39" height="13.39" fill="#231f20"/>
  <rect x="57.43" y="663.34" width="13.39" height="13.39" fill="#231f20"/>
  <rect x="100.72" y="576.93" width="13.39" height="13.39" fill="#231f20"/>
  <rect x="144.56" y="663.34" width="13.39" height="13.39" fill="#231f20"/>
  <rect x="230.53" y="749.74" width="13.39" height="13.39" fill="#231f20"/>
  <rect x="187.95" y="749.74" width="13.39" height="13.39" fill="#231f20"/>
  <rect x="144.56" y="749.74" width="13.39" height="13.39" fill="#231f20"/>
</svg>