<?xml version="1.0" encoding="UTF-8"?>
<svg id="_25" data-name="25" xmlns="http://www.w3.org/2000/svg" viewBox="0 0 1080 1080">
  <rect x="519.54" y="605.62" width="40.84" height="40.84" fill="#231f20"/>
  <rect x="519.54" y="562.36" width="40.84" height="40.84" fill="#231f20"/>
  <rect x="519.54" y="519.1" width="40.84" height="40.84" fill="#231f20"/>
  <rect x="476.11" y="562.36" width="40.84" height="40.84" fill="#231f20"/>
  <rect x="476.11" y="605.62" width="40.84" height="40.84" fill="#231f20"/>
  <rect x="433.33" y="562.36" width="40.84" height="40.84" fill="#231f20"/>
  <rect x="433.33" y="605.62" width="40.84" height="40.84" fill="#231f20"/>
  <rect x="390.21" y="605.62" width="40.84" height="40.84" fill="#231f20"/>
  <rect x="433.33" y="648.87" width="40.84" height="40.84" fill="#231f20"/>
  <rect x="562.69" y="605.62" width="40.84" height="40.84" fill="#231f20"/>
  <rect x="562.69" y="562.36" width="40.84" height="40.84" fill="#231f20"/>
  <rect x="476.11" y="519.11" width="40.84" height="40.84" fill="#231f20"/>
  <rect x="519.54" y="475.84" width="40.84" height="40.84" fill="#231f20"/>
  <rect x="519.54" y="432.58" width="40.84" height="40.84" fill="#231f20"/>
  <rect x="519.54" y="389.31" width="40.84" height="40.84" fill="#231f20"/>
  <rect x="519.54" y="346.04" width="40.84" height="40.84" fill="#231f20"/>
  <rect x="476.11" y="475.85" width="40.84" height="40.84" fill="#231f20"/>
  <rect x="476.11" y="432.58" width="40.84" height="40.84" fill="#231f20"/>
  <rect x="519.54" y="648.87" width="40.84" height="40.84" fill="#231f20"/>
  <rect x="519.54" y="691.66" width="40.84" height="40.84" fill="#231f20"/>
  <rect x="519.54" y="735.33" width="40.84" height="40.84" fill="#231f20"/>
  <rect x="562.69" y="648.87" width="40.84" height="40.84" fill="#231f20"/>
  <rect x="562.69" y="691.66" width="40.84" height="40.84" fill="#231f20"/>
  <rect x="562.69" y="735.33" width="40.84" height="40.84" fill="#231f20"/>
  <rect x="519.54" y="778.48" width="40.84" height="40.84" fill="#231f20"/>
  <rect x="562.69" y="778.48" width="40.84" height="40.84" fill="#231f20"/>
  <rect x="562.69" y="821.63" width="40.84" height="40.84" fill="#231f20"/>
  <rect x="476.11" y="648.87" width="40.84" height="40.84" fill="#231f20"/>
  <rect x="476.11" y="691.66" width="40.84" height="40.84" fill="#231f20"/>
  <rect x="404.87" y="576.07" width="13.39" height="13.39" fill="#231f20"/>
  <rect x="534.2" y="835.34" width="13.39" height="13.39" fill="#231f20"/>
  <rect x="490.77" y="792.19" width="13.39" height="13.39" fill="#231f20"/>
  <rect x="490.77" y="749.04" width="13.39" height="13.39" fill="#231f20"/>
  <rect x="534.2" y="878.33" width="13.39" height="13.39" fill="#231f20"/>
  <rect x="577.36" y="878.33" width="13.39" height="13.39" fill="#231f20"/>
  <rect x="534.2" y="921.83" width="13.39" height="13.39" fill="#231f20"/>
  <rect x="490.77" y="921.83" width="13.39" height="13.39" fill="#231f20"/>
  <rect x="448.94" y="921.83" width="13.39" height="13.39" fill="#231f20"/>
  <rect x="577.36" y="921.83" width="13.39" height="13.39" fill="#231f20"/>
  <rect x="576.84" y="964.68" width="13.39" height="13.39" fill="#231f20"/>
  <rect x="620" y="964.68" width="13.39" height="13.39" fill="#231f20"/>
  <rect x="275.71" y="964.68" width="13.39" height="13.39" fill="#231f20"/>
  <rect x="318.86" y="964.68" width="13.39" height="13.39" fill="#231f20"/>
  <rect x="620" y="921.83" width="13.39" height="13.39" fill="#231f20"/>
  <rect x="621.41" y="878.33" width="13.39" height="13.39" fill="#231f20"/>
  <rect x="664.06" y="878.33" width="13.39" height="13.39" fill="#231f20"/>
  <rect x="620" y="1008.18" width="13.39" height="13.39" fill="#231f20"/>
  <rect x="620" y="1050.43" width="13.39" height="13.39" fill="#231f20"/>
  <rect x="750" y="1008.18" width="13.39" height="13.39" fill="#231f20"/>
  <rect x="750" y="1050.43" width="13.39" height="13.39" fill="#231f20"/>
  <rect x="793.28" y="1008.18" width="13.39" height="13.39" fill="#231f20"/>
  <rect x="793.28" y="1050.43" width="13.39" height="13.39" fill="#231f20"/>
  <rect x="577.36" y="1008.18" width="13.39" height="13.39" fill="#231f20"/>
  <rect x="577.36" y="1050.43" width="13.39" height="13.39" fill="#231f20"/>
  <rect x="490.77" y="1008.18" width="13.39" height="13.39" fill="#231f20"/>
  <rect x="490.77" y="1050.43" width="13.39" height="13.39" fill="#231f20"/>
  <rect x="318.86" y="1008.18" width="13.39" height="13.39" fill="#231f20"/>
  <rect x="318.86" y="1050.43" width="13.39" height="13.39" fill="#231f20"/>
  <rect x="187.74" y="966.09" width="13.39" height="13.39" fill="#231f20"/>
  <rect x="187.74" y="1008.18" width="13.39" height="13.39" fill="#231f20"/>
  <rect x="146.96" y="1050.43" width="13.39" height="13.39" fill="#231f20"/>
  <rect x="103.36" y="1050.43" width="13.39" height="13.39" fill="#231f20"/>
  <rect x="446.12" y="532.76" width="13.39" height="13.39" fill="#231f20"/>
  <rect x="446.12" y="489.5" width="13.39" height="13.39" fill="#231f20"/>
  <rect x="446.12" y="446.29" width="13.39" height="13.39" fill="#231f20"/>
  <rect x="145.67" y="404.61" width="13.39" height="13.39" fill="#231f20"/>
  <rect x="188.16" y="406.4" width="13.39" height="13.39" fill="#231f20"/>
  <rect x="145.67" y="361.4" width="13.39" height="13.39" fill="#231f20"/>
  <rect x="577.36" y="532.82" width="13.39" height="13.39" fill="#231f20"/>
  <rect x="490.77" y="403.02" width="13.39" height="13.39" fill="#231f20"/>
  <rect x="490.77" y="359.75" width="13.39" height="13.39" fill="#231f20"/>
  <rect x="490.77" y="316.02" width="13.39" height="13.39" fill="#231f20"/>
  <rect x="490.77" y="274.08" width="13.39" height="13.39" fill="#231f20"/>
  <rect x="490.77" y="229.82" width="13.39" height="13.39" fill="#231f20"/>
  <rect x="534.2" y="229.82" width="13.39" height="13.39" fill="#231f20"/>
  <rect x="447.35" y="229.82" width="13.39" height="13.39" fill="#231f20"/>
  <rect x="403.94" y="229.82" width="13.39" height="13.39" fill="#231f20"/>
  <rect x="447.35" y="187.04" width="13.39" height="13.39" fill="#231f20"/>
  <rect x="447.35" y="144.26" width="13.39" height="13.39" fill="#231f20"/>
  <rect x="447.35" y="101.47" width="13.39" height="13.39" fill="#231f20"/>
  <rect x="534.2" y="187.04" width="13.39" height="13.39" fill="#231f20"/>
  <rect x="534.2" y="144.26" width="13.39" height="13.39" fill="#231f20"/>
  <rect x="881.09" y="101.47" width="13.39" height="13.39" fill="#231f20"/>
  <rect x="490.77" y="144.26" width="13.39" height="13.39" fill="#231f20"/>
  <rect x="534.2" y="101.47" width="13.39" height="13.39" fill="#231f20"/>
  <rect x="836.77" y="101.47" width="13.39" height="13.39" fill="#231f20"/>
  <rect x="881.09" y="144.23" width="13.39" height="13.39" fill="#231f20"/>
  <rect x="836.77" y="144.23" width="13.39" height="13.39" fill="#231f20"/>
  <rect x="881.09" y="58.69" width="13.39" height="13.39" fill="#231f20"/>
  <rect x="923" y="58.69" width="13.39" height="13.39" fill="#231f20"/>
  <rect x="923" y="101.44" width="13.39" height="13.39" fill="#231f20"/>
  <rect x="923" y="15.9" width="13.39" height="13.39" fill="#231f20"/>
  <rect x="836.77" y="58.69" width="13.39" height="13.39" fill="#231f20"/>
  <rect x="795.08" y="101.47" width="13.39" height="13.39" fill="#231f20"/>
  <rect x="750.77" y="101.47" width="13.39" height="13.39" fill="#231f20"/>
  <rect x="795.08" y="58.69" width="13.39" height="13.39" fill="#231f20"/>
  <rect x="750.77" y="58.69" width="13.39" height="13.39" fill="#231f20"/>
  <rect x="794.97" y="187.01" width="13.39" height="13.39" fill="#231f20"/>
  <rect x="750.65" y="187.01" width="13.39" height="13.39" fill="#231f20"/>
  <rect x="794.97" y="144.23" width="13.39" height="13.39" fill="#231f20"/>
  <rect x="750.65" y="144.23" width="13.39" height="13.39" fill="#231f20"/>
  <rect x="707.27" y="101.47" width="13.39" height="13.39" fill="#231f20"/>
  <rect x="707.15" y="187.01" width="13.39" height="13.39" fill="#231f20"/>
  <rect x="750.65" y="316.02" width="13.39" height="13.39" fill="#231f20"/>
  <rect x="750.36" y="359.75" width="13.39" height="13.39" fill="#231f20"/>
  <rect x="706.86" y="359.75" width="13.39" height="13.39" fill="#231f20"/>
  <rect x="1009.65" y="661.14" width="13.39" height="13.39" fill="#231f20"/>
  <rect x="1009.36" y="704.86" width="13.39" height="13.39" fill="#231f20"/>
  <rect x="621.56" y="749.9" width="13.39" height="13.39" fill="#231f20"/>
  <rect x="621.27" y="793.63" width="13.39" height="13.39" fill="#231f20"/>
  <rect x="664.2" y="749.9" width="13.39" height="13.39" fill="#231f20"/>
  <rect x="663.91" y="793.63" width="13.39" height="13.39" fill="#231f20"/>
  <rect x="707.15" y="144.23" width="13.39" height="13.39" fill="#231f20"/>
  <rect x="664.87" y="15.96" width="13.39" height="13.39" fill="#231f20"/>
  <rect x="664.76" y="58.72" width="13.39" height="13.39" fill="#231f20"/>
  <rect x="403.94" y="144.26" width="13.39" height="13.39" fill="#231f20"/>
  <rect x="403.94" y="101.47" width="13.39" height="13.39" fill="#231f20"/>
  <rect x="403.94" y="56.33" width="13.39" height="13.39" fill="#231f20"/>
  <rect x="403.94" y="14.44" width="13.39" height="13.39" fill="#231f20"/>
  <rect x="361.15" y="14.44" width="13.39" height="13.39" fill="#231f20"/>
  <rect x="534.2" y="316.02" width="13.39" height="13.39" fill="#231f20"/>
</svg>