<?xml version="1.0" encoding="UTF-8"?>
<svg id="_26" data-name="26" xmlns="http://www.w3.org/2000/svg" viewBox="0 0 1080 1080">
  <rect x="559.95" y="607.48" width="40.84" height="40.84" fill="#231f20"/>
  <rect x="559.95" y="563.85" width="40.84" height="40.84" fill="#231f20"/>
  <rect x="603.16" y="607.48" width="40.84" height="40.84" fill="#231f20"/>
  <rect x="603.16" y="563.85" width="40.84" height="40.84" fill="#231f20"/>
  <rect x="559.95" y="521" width="40.84" height="40.84" fill="#231f20"/>
  <rect x="559.95" y="478.14" width="40.84" height="40.84" fill="#231f20"/>
  <rect x="559.95" y="435.28" width="40.84" height="40.84" fill="#231f20"/>
  <rect x="516.96" y="391.89" width="40.84" height="40.84" fill="#231f20"/>
  <rect x="559.63" y="391.89" width="40.84" height="40.84" fill="#231f20"/>
  <rect x="559.95" y="348.81" width="40.84" height="40.84" fill="#231f20"/>
  <rect x="559.95" y="305.11" width="40.84" height="40.84" fill="#231f20"/>
  <rect x="559.95" y="262.16" width="40.84" height="40.84" fill="#231f20"/>
  <rect x="559.95" y="219.04" width="40.84" height="40.84" fill="#231f20"/>
  <rect x="559.95" y="175.85" width="40.84" height="40.84" fill="#231f20"/>
  <rect x="603.16" y="175.85" width="40.84" height="40.84" fill="#231f20"/>
  <rect x="559.51" y="132.37" width="40.84" height="40.84" fill="#231f20"/>
  <rect x="603.48" y="132.37" width="40.84" height="40.84" fill="#231f20"/>
  <rect x="559.51" y="89.5" width="40.84" height="40.84" fill="#231f20"/>
  <rect x="559.51" y="45.97" width="40.84" height="40.84" fill="#231f20"/>
  <rect x="603.48" y="45.97" width="40.84" height="40.84" fill="#231f20"/>
  <rect x="559.85" y="2.47" width="40.84" height="40.84" fill="#231f20"/>
  <rect x="516.69" y="2.47" width="40.84" height="40.84" fill="#231f20"/>
  <rect x="603.48" y="89.5" width="40.84" height="40.84" fill="#231f20"/>
  <rect x="603.16" y="521" width="40.84" height="40.84" fill="#231f20"/>
  <rect x="559.95" y="694.01" width="40.84" height="40.84" fill="#231f20"/>
  <rect x="559.95" y="650.39" width="40.84" height="40.84" fill="#231f20"/>
  <rect x="559.95" y="780.41" width="40.84" height="40.84" fill="#231f20"/>
  <rect x="559.95" y="823.25" width="40.84" height="40.84" fill="#231f20"/>
  <rect x="559.95" y="909.87" width="40.84" height="40.84" fill="#231f20"/>
  <rect x="516.51" y="996.32" width="40.84" height="40.84" fill="#231f20"/>
  <rect x="516.51" y="953.61" width="40.84" height="40.84" fill="#231f20"/>
  <rect x="559.95" y="736.79" width="40.84" height="40.84" fill="#231f20"/>
  <rect x="603.16" y="694.01" width="40.84" height="40.84" fill="#231f20"/>
  <rect x="603.16" y="650.39" width="40.84" height="40.84" fill="#231f20"/>
  <rect x="660.08" y="578.61" width="13.39" height="13.39" fill="#231f20"/>
  <rect x="660.08" y="622.23" width="13.39" height="13.39" fill="#231f20"/>
  <rect x="703.76" y="578.61" width="13.39" height="13.39" fill="#231f20"/>
  <rect x="703.76" y="622.23" width="13.39" height="13.39" fill="#231f20"/>
  <rect x="660.08" y="665.14" width="13.39" height="13.39" fill="#231f20"/>
  <rect x="833.33" y="622.23" width="13.39" height="13.39" fill="#231f20"/>
  <rect x="833.33" y="665.14" width="13.39" height="13.39" fill="#231f20"/>
  <rect x="875.48" y="665.14" width="13.39" height="13.39" fill="#231f20"/>
  <rect x="660.08" y="708.77" width="13.39" height="13.39" fill="#231f20"/>
  <rect x="616.39" y="751.16" width="13.39" height="13.39" fill="#231f20"/>
  <rect x="616.39" y="794.13" width="13.39" height="13.39" fill="#231f20"/>
  <rect x="660.08" y="751.16" width="13.39" height="13.39" fill="#231f20"/>
  <rect x="660.08" y="794.13" width="13.39" height="13.39" fill="#231f20"/>
  <rect x="573.68" y="880.84" width="13.39" height="13.39" fill="#231f20"/>
  <rect x="573.68" y="967.72" width="13.39" height="13.39" fill="#231f20"/>
  <rect x="573.68" y="1009.63" width="13.39" height="13.39" fill="#231f20"/>
  <rect x="530.24" y="577.58" width="13.39" height="13.39" fill="#231f20"/>
  <rect x="530.24" y="535.97" width="13.39" height="13.39" fill="#231f20"/>
  <rect x="616.88" y="491.86" width="13.39" height="13.39" fill="#231f20"/>
  <rect x="616.88" y="449.01" width="13.39" height="13.39" fill="#231f20"/>
  <rect x="616.88" y="275.35" width="13.39" height="13.39" fill="#231f20"/>
  <rect x="616.88" y="232.49" width="13.39" height="13.39" fill="#231f20"/>
  <rect x="530.24" y="275.35" width="13.39" height="13.39" fill="#231f20"/>
  <rect x="530.24" y="232.49" width="13.39" height="13.39" fill="#231f20"/>
  <rect x="530.24" y="188.95" width="13.39" height="13.39" fill="#231f20"/>
  <rect x="530.24" y="146.09" width="13.39" height="13.39" fill="#231f20"/>
  <rect x="530.24" y="103.7" width="13.39" height="13.39" fill="#231f20"/>
  <rect x="530.24" y="59.7" width="13.39" height="13.39" fill="#231f20"/>
  <rect x="616.88" y="16.19" width="13.39" height="13.39" fill="#231f20"/>
  <rect x="659.67" y="16.19" width="13.39" height="13.39" fill="#231f20"/>
  <rect x="905.34" y="2.47" width="40.84" height="40.84" fill="#231f20"/>
  <rect x="862.19" y="2.47" width="40.84" height="40.84" fill="#231f20"/>
  <rect x="963.03" y="16.19" width="13.39" height="13.39" fill="#231f20"/>
  <rect x="832.37" y="16.19" width="13.39" height="13.39" fill="#231f20"/>
  <rect x="789.82" y="16.19" width="13.39" height="13.39" fill="#231f20"/>
  <rect x="746.02" y="16.19" width="13.39" height="13.39" fill="#231f20"/>
  <rect x="702.84" y="16.19" width="13.39" height="13.39" fill="#231f20"/>
  <rect x="963.03" y="59.7" width="13.39" height="13.39" fill="#231f20"/>
  <rect x="919.07" y="59.7" width="13.39" height="13.39" fill="#231f20"/>
  <rect x="832.37" y="59.7" width="13.39" height="13.39" fill="#231f20"/>
  <rect x="876.39" y="59.7" width="13.39" height="13.39" fill="#231f20"/>
  <rect x="616.88" y="361.31" width="13.39" height="13.39" fill="#231f20"/>
  <rect x="616.88" y="318.46" width="13.39" height="13.39" fill="#231f20"/>
  <rect x="659.67" y="103.49" width="13.39" height="13.39" fill="#231f20"/>
  <rect x="659.67" y="59.7" width="13.39" height="13.39" fill="#231f20"/>
  <rect x="659.67" y="189.45" width="13.39" height="13.39" fill="#231f20"/>
  <rect x="659.67" y="146.6" width="13.39" height="13.39" fill="#231f20"/>
  <rect x="530.24" y="491.86" width="13.39" height="13.39" fill="#231f20"/>
  <rect x="530.24" y="449.01" width="13.39" height="13.39" fill="#231f20"/>
  <rect x="486.82" y="577.58" width="13.39" height="13.39" fill="#231f20"/>
  <rect x="486.82" y="449.01" width="13.39" height="13.39" fill="#231f20"/>
  <rect x="530.24" y="363.13" width="13.39" height="13.39" fill="#231f20"/>
  <rect x="530.24" y="317.51" width="13.39" height="13.39" fill="#231f20"/>
  <rect x="530.24" y="621.2" width="13.39" height="13.39" fill="#231f20"/>
  <rect x="530.24" y="664.11" width="13.39" height="13.39" fill="#231f20"/>
  <rect x="530.24" y="707.73" width="13.39" height="13.39" fill="#231f20"/>
  <rect x="530.24" y="750.44" width="13.39" height="13.39" fill="#231f20"/>
  <rect x="530.24" y="794.07" width="13.39" height="13.39" fill="#231f20"/>
  <rect x="530.24" y="836.98" width="13.39" height="13.39" fill="#231f20"/>
  <rect x="530.24" y="880.6" width="13.39" height="13.39" fill="#231f20"/>
  <rect x="530.24" y="923.6" width="13.39" height="13.39" fill="#231f20"/>
  <rect x="486.79" y="923.6" width="13.39" height="13.39" fill="#231f20"/>
  <rect x="486.79" y="968.5" width="13.39" height="13.39" fill="#231f20"/>
  <rect x="486.79" y="1011.92" width="13.39" height="13.39" fill="#231f20"/>
  <rect x="486.79" y="1053.02" width="13.39" height="13.39" fill="#231f20"/>
  <rect x="445.41" y="1053.02" width="13.39" height="13.39" fill="#231f20"/>
  <rect x="530.24" y="1053.02" width="13.39" height="13.39" fill="#231f20"/>
  <rect x="573.68" y="1053.02" width="13.39" height="13.39" fill="#231f20"/>
  <rect x="615.41" y="1053.02" width="13.39" height="13.39" fill="#231f20"/>
  <rect x="615.41" y="967.72" width="13.39" height="13.39" fill="#231f20"/>
  <rect x="615.41" y="923.6" width="13.39" height="13.39" fill="#231f20"/>
  <rect x="616.39" y="837.38" width="13.39" height="13.39" fill="#231f20"/>
</svg>