<?xml version="1.0" encoding="UTF-8"?>
<svg id="Layer_44" data-name="Layer 44" xmlns="http://www.w3.org/2000/svg" viewBox="0 0 1080 1080">
  <rect x="560.08" y="301.8" width="40.84" height="40.84" fill="#231f20"/>
  <rect x="516.51" y="301.8" width="40.84" height="40.84" fill="#231f20"/>
  <rect x="560.08" y="259.09" width="40.84" height="40.84" fill="#231f20"/>
  <rect x="602.69" y="259.09" width="40.84" height="40.84" fill="#231f20"/>
  <rect x="516.51" y="259.09" width="40.84" height="40.84" fill="#231f20"/>
  <rect x="560.08" y="216.09" width="40.84" height="40.84" fill="#231f20"/>
  <rect x="602.69" y="216.09" width="40.84" height="40.84" fill="#231f20"/>
  <rect x="516.51" y="216.09" width="40.84" height="40.84" fill="#231f20"/>
  <rect x="472.94" y="259.09" width="40.84" height="40.84" fill="#231f20"/>
  <rect x="560.79" y="42.92" width="40.84" height="40.84" fill="#231f20"/>
  <rect x="603.4" y="42.92" width="40.84" height="40.84" fill="#231f20"/>
  <rect x="517.22" y="42.92" width="40.84" height="40.84" fill="#231f20"/>
  <rect x="473.65" y="42.92" width="40.84" height="40.84" fill="#231f20"/>
  <rect x="560.43" y="86.25" width="40.84" height="40.84" fill="#231f20"/>
  <rect x="516.86" y="86.25" width="40.84" height="40.84" fill="#231f20"/>
  <rect x="473.29" y="86.25" width="40.84" height="40.84" fill="#231f20"/>
  <rect x="560.24" y="129.44" width="40.84" height="40.84" fill="#231f20"/>
  <rect x="516.67" y="129.44" width="40.84" height="40.84" fill="#231f20"/>
  <rect x="473.1" y="129.44" width="40.84" height="40.84" fill="#231f20"/>
  <rect x="560.08" y="345.32" width="40.84" height="40.84" fill="#231f20"/>
  <rect x="602.69" y="301.8" width="40.84" height="40.84" fill="#231f20"/>
  <rect x="602.69" y="345.32" width="40.84" height="40.84" fill="#231f20"/>
  <rect x="516.62" y="345.32" width="40.84" height="40.84" fill="#231f20"/>
  <rect x="560.08" y="388.87" width="40.84" height="40.84" fill="#231f20"/>
  <rect x="602.69" y="388.87" width="40.84" height="40.84" fill="#231f20"/>
  <rect x="516.62" y="388.87" width="40.84" height="40.84" fill="#231f20"/>
  <rect x="472.89" y="301.8" width="40.84" height="40.84" fill="#231f20"/>
  <rect x="473" y="345.32" width="40.84" height="40.84" fill="#231f20"/>
  <rect x="473" y="388.87" width="40.84" height="40.84" fill="#231f20"/>
  <rect x="560.08" y="431.64" width="40.84" height="40.84" fill="#231f20"/>
  <rect x="602.69" y="431.64" width="40.84" height="40.84" fill="#231f20"/>
  <rect x="516.62" y="431.64" width="40.84" height="40.84" fill="#231f20"/>
  <rect x="560.08" y="475.31" width="40.84" height="40.84" fill="#231f20"/>
  <rect x="602.69" y="475.31" width="40.84" height="40.84" fill="#231f20"/>
  <rect x="516.62" y="475.31" width="40.84" height="40.84" fill="#231f20"/>
  <rect x="560.08" y="690.7" width="40.84" height="40.84" fill="#231f20"/>
  <rect x="602.69" y="690.7" width="40.84" height="40.84" fill="#231f20"/>
  <rect x="516.62" y="690.7" width="40.84" height="40.84" fill="#231f20"/>
  <rect x="560.08" y="647.64" width="40.84" height="40.84" fill="#231f20"/>
  <rect x="602.69" y="647.64" width="40.84" height="40.84" fill="#231f20"/>
  <rect x="516.62" y="647.64" width="40.84" height="40.84" fill="#231f20"/>
  <rect x="257.5" y="647.64" width="40.84" height="40.84" fill="#231f20"/>
  <rect x="473.41" y="690.7" width="40.84" height="40.84" fill="#231f20"/>
  <rect x="473.41" y="647.64" width="40.84" height="40.84" fill="#231f20"/>
  <rect x="560.08" y="604.63" width="40.84" height="40.84" fill="#231f20"/>
  <rect x="602.69" y="604.63" width="40.84" height="40.84" fill="#231f20"/>
  <rect x="516.62" y="604.63" width="40.84" height="40.84" fill="#231f20"/>
  <rect x="473.41" y="604.63" width="40.84" height="40.84" fill="#231f20"/>
  <rect x="257.5" y="604.63" width="40.84" height="40.84" fill="#231f20"/>
  <rect x="257.5" y="777.65" width="40.84" height="40.84" fill="#231f20"/>
  <rect x="214.46" y="863.91" width="40.84" height="40.84" fill="#231f20"/>
  <rect x="257.33" y="863.91" width="40.84" height="40.84" fill="#231f20"/>
  <rect x="214.46" y="777.65" width="40.84" height="40.84" fill="#231f20"/>
  <rect x="257.5" y="992.92" width="40.84" height="40.84" fill="#231f20"/>
  <rect x="214.46" y="992.92" width="40.84" height="40.84" fill="#231f20"/>
  <rect x="257.5" y="734.27" width="40.84" height="40.84" fill="#231f20"/>
  <rect x="473" y="431.64" width="40.84" height="40.84" fill="#231f20"/>
  <rect x="560.08" y="734.27" width="40.84" height="40.84" fill="#231f20"/>
  <rect x="602.69" y="734.27" width="40.84" height="40.84" fill="#231f20"/>
  <rect x="516.62" y="734.27" width="40.84" height="40.84" fill="#231f20"/>
  <rect x="473" y="734.27" width="40.84" height="40.84" fill="#231f20"/>
  <rect x="560.08" y="777.65" width="40.84" height="40.84" fill="#231f20"/>
  <rect x="516.62" y="777.65" width="40.84" height="40.84" fill="#231f20"/>
  <rect x="473" y="777.65" width="40.84" height="40.84" fill="#231f20"/>
  <rect x="560.08" y="821.03" width="40.84" height="40.84" fill="#231f20"/>
  <rect x="516.62" y="821.03" width="40.84" height="40.84" fill="#231f20"/>
  <rect x="559.56" y="863.91" width="40.84" height="40.84" fill="#231f20"/>
  <rect x="602.96" y="821.03" width="40.84" height="40.84" fill="#231f20"/>
  <rect x="602.43" y="863.91" width="40.84" height="40.84" fill="#231f20"/>
  <rect x="516.51" y="863.91" width="40.84" height="40.84" fill="#231f20"/>
  <rect x="559.56" y="907.67" width="40.84" height="40.84" fill="#231f20"/>
  <rect x="602.43" y="907.67" width="40.84" height="40.84" fill="#231f20"/>
  <rect x="516.51" y="907.67" width="40.84" height="40.84" fill="#231f20"/>
  <rect x="559.56" y="950.46" width="40.84" height="40.84" fill="#231f20"/>
  <rect x="516.51" y="950.46" width="40.84" height="40.84" fill="#231f20"/>
  <rect x="473.47" y="950.46" width="40.84" height="40.84" fill="#231f20"/>
  <rect x="559.56" y="992.92" width="40.84" height="40.84" fill="#231f20"/>
  <rect x="516.51" y="992.92" width="40.84" height="40.84" fill="#231f20"/>
  <rect x="559.56" y="1036.76" width="40.84" height="40.84" fill="#231f20"/>
  <rect x="516.51" y="1036.76" width="40.84" height="40.84" fill="#231f20"/>
  <rect x="660.08" y="315.52" width="13.39" height="13.39" fill="#231f20"/>
  <rect x="660.08" y="359.05" width="13.39" height="13.39" fill="#231f20"/>
  <rect x="660.08" y="229.81" width="13.39" height="13.39" fill="#231f20"/>
  <rect x="660.08" y="272.81" width="13.39" height="13.39" fill="#231f20"/>
  <rect x="660.24" y="143.17" width="13.39" height="13.39" fill="#231f20"/>
  <rect x="660.78" y="56.64" width="13.39" height="13.39" fill="#231f20"/>
  <rect x="660.42" y="99.98" width="13.39" height="13.39" fill="#231f20"/>
  <rect x="616.58" y="143.17" width="13.39" height="13.39" fill="#231f20"/>
  <rect x="616.76" y="99.98" width="13.39" height="13.39" fill="#231f20"/>
  <rect x="660.08" y="402.59" width="13.39" height="13.39" fill="#231f20"/>
  <rect x="660.08" y="445.37" width="13.39" height="13.39" fill="#231f20"/>
  <rect x="660.08" y="489.03" width="13.39" height="13.39" fill="#231f20"/>
  <rect x="660.08" y="532.4" width="13.39" height="13.39" fill="#231f20"/>
  <rect x="660.08" y="574.61" width="13.39" height="13.39" fill="#231f20"/>
  <rect x="703.93" y="445.37" width="13.39" height="13.39" fill="#231f20"/>
  <rect x="703.93" y="489.03" width="13.39" height="13.39" fill="#231f20"/>
  <rect x="703.93" y="532.4" width="13.39" height="13.39" fill="#231f20"/>
  <rect x="703.93" y="574.61" width="13.39" height="13.39" fill="#231f20"/>
  <rect x="660.08" y="618.36" width="13.39" height="13.39" fill="#231f20"/>
  <rect x="660.08" y="661.36" width="13.39" height="13.39" fill="#231f20"/>
  <rect x="660.08" y="704.42" width="13.39" height="13.39" fill="#231f20"/>
  <rect x="660.08" y="834.76" width="13.39" height="13.39" fill="#231f20"/>
  <rect x="660.08" y="877.64" width="13.39" height="13.39" fill="#231f20"/>
  <rect x="660.08" y="921.39" width="13.39" height="13.39" fill="#231f20"/>
  <rect x="660.08" y="964.19" width="13.39" height="13.39" fill="#231f20"/>
  <rect x="443.74" y="618.36" width="13.39" height="13.39" fill="#231f20"/>
  <rect x="443.74" y="661.36" width="13.39" height="13.39" fill="#231f20"/>
  <rect x="314.27" y="661.36" width="13.39" height="13.39" fill="#231f20"/>
  <rect x="229.1" y="661.36" width="13.39" height="13.39" fill="#231f20"/>
  <rect x="443.74" y="704.42" width="13.39" height="13.39" fill="#231f20"/>
  <rect x="271.22" y="704.42" width="13.39" height="13.39" fill="#231f20"/>
  <rect x="443.74" y="748" width="13.39" height="13.39" fill="#231f20"/>
  <rect x="228.18" y="748" width="13.39" height="13.39" fill="#231f20"/>
  <rect x="443.74" y="791.38" width="13.39" height="13.39" fill="#231f20"/>
  <rect x="486.72" y="834.76" width="13.39" height="13.39" fill="#231f20"/>
  <rect x="486.72" y="877.64" width="13.39" height="13.39" fill="#231f20"/>
  <rect x="486.72" y="921.39" width="13.39" height="13.39" fill="#231f20"/>
  <rect x="616.68" y="574.61" width="13.39" height="13.39" fill="#231f20"/>
  <rect x="660.08" y="748" width="13.39" height="13.39" fill="#231f20"/>
  <rect x="660.08" y="791.38" width="13.39" height="13.39" fill="#231f20"/>
  <rect x="703.93" y="618.36" width="13.39" height="13.39" fill="#231f20"/>
  <rect x="703.93" y="661.36" width="13.39" height="13.39" fill="#231f20"/>
  <rect x="703.93" y="704.42" width="13.39" height="13.39" fill="#231f20"/>
  <rect x="703.93" y="834.76" width="13.39" height="13.39" fill="#231f20"/>
  <rect x="703.93" y="877.64" width="13.39" height="13.39" fill="#231f20"/>
  <rect x="703.93" y="921.39" width="13.39" height="13.39" fill="#231f20"/>
  <rect x="703.93" y="748" width="13.39" height="13.39" fill="#231f20"/>
  <rect x="703.93" y="791.38" width="13.39" height="13.39" fill="#231f20"/>
  <rect x="616.68" y="791.38" width="13.39" height="13.39" fill="#231f20"/>
  <rect x="573.93" y="574.61" width="13.39" height="13.39" fill="#231f20"/>
  <rect x="530.53" y="574.61" width="13.39" height="13.39" fill="#231f20"/>
  <rect x="487.13" y="574.61" width="13.39" height="13.39" fill="#231f20"/>
  <rect x="443.74" y="574.61" width="13.39" height="13.39" fill="#231f20"/>
  <rect x="314.27" y="618.36" width="13.39" height="13.39" fill="#231f20"/>
  <rect x="314.27" y="574.61" width="13.39" height="13.39" fill="#231f20"/>
  <rect x="314.27" y="791.38" width="13.39" height="13.39" fill="#231f20"/>
  <rect x="229.1" y="618.36" width="13.39" height="13.39" fill="#231f20"/>
  <rect x="272.5" y="574.61" width="13.39" height="13.39" fill="#231f20"/>
  <rect x="229.1" y="574.61" width="13.39" height="13.39" fill="#231f20"/>
  <rect x="314.27" y="532.4" width="13.39" height="13.39" fill="#231f20"/>
  <rect x="272.5" y="532.4" width="13.39" height="13.39" fill="#231f20"/>
  <rect x="314.27" y="489.03" width="13.39" height="13.39" fill="#231f20"/>
  <rect x="272.5" y="489.03" width="13.39" height="13.39" fill="#231f20"/>
  <rect x="229.1" y="532.4" width="13.39" height="13.39" fill="#231f20"/>
  <rect x="443.74" y="877.64" width="13.39" height="13.39" fill="#231f20"/>
  <rect x="443.74" y="921.39" width="13.39" height="13.39" fill="#231f20"/>
  <rect x="356.92" y="877.64" width="13.39" height="13.39" fill="#231f20"/>
  <rect x="356.92" y="921.39" width="13.39" height="13.39" fill="#231f20"/>
  <rect x="443.74" y="964.19" width="13.39" height="13.39" fill="#231f20"/>
  <rect x="443.74" y="1006.65" width="13.39" height="13.39" fill="#231f20"/>
  <rect x="443.74" y="1050.49" width="13.39" height="13.39" fill="#231f20"/>
  <rect x="616.99" y="964.19" width="13.39" height="13.39" fill="#231f20"/>
  <rect x="616.99" y="1006.65" width="13.39" height="13.39" fill="#231f20"/>
  <rect x="616.99" y="1050.49" width="13.39" height="13.39" fill="#231f20"/>
  <rect x="487.19" y="1006.65" width="13.39" height="13.39" fill="#231f20"/>
  <rect x="487.19" y="1050.49" width="13.39" height="13.39" fill="#231f20"/>
  <rect x="357.42" y="1050.49" width="13.39" height="13.39" fill="#231f20"/>
  <rect x="400.87" y="1050.49" width="13.39" height="13.39" fill="#231f20"/>
  <rect x="443.74" y="834.76" width="13.39" height="13.39" fill="#231f20"/>
  <rect x="272.29" y="834.76" width="13.39" height="13.39" fill="#231f20"/>
  <rect x="229.31" y="834.76" width="13.39" height="13.39" fill="#231f20"/>
  <rect x="272.29" y="921.39" width="13.39" height="13.39" fill="#231f20"/>
  <rect x="229.31" y="921.39" width="13.39" height="13.39" fill="#231f20"/>
  <rect x="272.29" y="964.19" width="13.39" height="13.39" fill="#231f20"/>
  <rect x="229.31" y="964.19" width="13.39" height="13.39" fill="#231f20"/>
  <rect x="616.68" y="532.4" width="13.39" height="13.39" fill="#231f20"/>
  <rect x="573.53" y="532.4" width="13.39" height="13.39" fill="#231f20"/>
  <rect x="530.14" y="532.4" width="13.39" height="13.39" fill="#231f20"/>
  <rect x="487.13" y="489.03" width="13.39" height="13.39" fill="#231f20"/>
  <rect x="487.13" y="532.4" width="13.39" height="13.39" fill="#231f20"/>
  <rect x="659.75" y="186.7" width="13.39" height="13.39" fill="#231f20"/>
  <rect x="833.02" y="229.81" width="13.39" height="13.39" fill="#231f20"/>
  <rect x="746.55" y="229.81" width="13.39" height="13.39" fill="#231f20"/>
  <rect x="962.63" y="229.81" width="13.39" height="13.39" fill="#231f20"/>
  <rect x="831.02" y="142.44" width="13.39" height="13.39" fill="#231f20"/>
  <rect x="874.87" y="99.57" width="13.39" height="13.39" fill="#231f20"/>
  <rect x="920.73" y="99.57" width="13.39" height="13.39" fill="#231f20"/>
  <rect x="872.86" y="142.44" width="13.39" height="13.39" fill="#231f20"/>
  <rect x="918.72" y="142.44" width="13.39" height="13.39" fill="#231f20"/>
  <rect x="831.02" y="315.52" width="13.39" height="13.39" fill="#231f20"/>
  <rect x="831.02" y="402.59" width="13.39" height="13.39" fill="#231f20"/>
  <rect x="831.02" y="359.05" width="13.39" height="13.39" fill="#231f20"/>
  <rect x="789.39" y="359.05" width="13.39" height="13.39" fill="#231f20"/>
  <rect x="831.02" y="272.81" width="13.39" height="13.39" fill="#231f20"/>
  <rect x="874.87" y="315.52" width="13.39" height="13.39" fill="#231f20"/>
  <rect x="874.87" y="272.81" width="13.39" height="13.39" fill="#231f20"/>
  <rect x="962.63" y="359.05" width="13.39" height="13.39" fill="#231f20"/>
  <rect x="789.39" y="402.59" width="13.39" height="13.39" fill="#231f20"/>
  <rect x="789.39" y="445.37" width="13.39" height="13.39" fill="#231f20"/>
  <rect x="874.87" y="445.37" width="13.39" height="13.39" fill="#231f20"/>
  <rect x="874.87" y="489.03" width="13.39" height="13.39" fill="#231f20"/>
  <rect x="874.87" y="530.98" width="13.39" height="13.39" fill="#231f20"/>
  <rect x="918.72" y="315.52" width="13.39" height="13.39" fill="#231f20"/>
  <rect x="962.58" y="315.52" width="13.39" height="13.39" fill="#231f20"/>
  <rect x="918.72" y="359.05" width="13.39" height="13.39" fill="#231f20"/>
  <rect x="832.7" y="186.7" width="13.39" height="13.39" fill="#231f20"/>
  <rect x="616.36" y="186.7" width="13.39" height="13.39" fill="#231f20"/>
  <rect x="573.21" y="186.7" width="13.39" height="13.39" fill="#231f20"/>
  <rect x="529.81" y="186.7" width="13.39" height="13.39" fill="#231f20"/>
  <rect x="486.81" y="186.7" width="13.39" height="13.39" fill="#231f20"/>
  <rect x="659.75" y="13.79" width="13.39" height="13.39" fill="#231f20"/>
  <rect x="616.36" y="13.79" width="13.39" height="13.39" fill="#231f20"/>
  <rect x="573.21" y="13.79" width="13.39" height="13.39" fill="#231f20"/>
  <rect x="529.81" y="13.79" width="13.39" height="13.39" fill="#231f20"/>
  <rect x="486.81" y="12.97" width="13.39" height="13.39" fill="#231f20"/>
  <rect x="486.81" y="229.81" width="13.39" height="13.39" fill="#231f20"/>
  <rect x="445.28" y="186.7" width="13.39" height="13.39" fill="#231f20"/>
  <rect x="445.28" y="229.81" width="13.39" height="13.39" fill="#231f20"/>
  <rect x="445.63" y="99.98" width="13.39" height="13.39" fill="#231f20"/>
  <rect x="445.45" y="143.17" width="13.39" height="13.39" fill="#231f20"/>
  <rect x="399.43" y="186.7" width="13.39" height="13.39" fill="#231f20"/>
  <rect x="399.43" y="229.81" width="13.39" height="13.39" fill="#231f20"/>
  <rect x="399.59" y="143.17" width="13.39" height="13.39" fill="#231f20"/>
  <rect x="445.28" y="13.38" width="13.39" height="13.39" fill="#231f20"/>
  <rect x="445.99" y="56.64" width="13.39" height="13.39" fill="#231f20"/>
  <rect x="445.28" y="402.59" width="13.39" height="13.39" fill="#231f20"/>
  <rect x="445.28" y="445.37" width="13.39" height="13.39" fill="#231f20"/>
  <rect x="445.28" y="315.52" width="13.39" height="13.39" fill="#231f20"/>
  <rect x="445.28" y="359.05" width="13.39" height="13.39" fill="#231f20"/>
  <rect x="402.5" y="402.59" width="13.39" height="13.39" fill="#231f20"/>
  <rect x="402.5" y="445.37" width="13.39" height="13.39" fill="#231f20"/>
  <rect x="402.5" y="315.52" width="13.39" height="13.39" fill="#231f20"/>
  <rect x="402.5" y="359.05" width="13.39" height="13.39" fill="#231f20"/>
  <rect x="359.13" y="402.59" width="13.39" height="13.39" fill="#231f20"/>
  <rect x="314.14" y="402.59" width="13.39" height="13.39" fill="#231f20"/>
  <rect x="271.35" y="402.59" width="13.39" height="13.39" fill="#231f20"/>
  <rect x="227.98" y="402.59" width="13.39" height="13.39" fill="#231f20"/>
  <rect x="184.6" y="402.59" width="13.39" height="13.39" fill="#231f20"/>
  <rect x="359.13" y="445.37" width="13.39" height="13.39" fill="#231f20"/>
  <rect x="359.13" y="315.52" width="13.39" height="13.39" fill="#231f20"/>
  <rect x="359.13" y="359.05" width="13.39" height="13.39" fill="#231f20"/>
  <rect x="184.6" y="489.03" width="13.39" height="13.39" fill="#231f20"/>
  <rect x="184.6" y="532.4" width="13.39" height="13.39" fill="#231f20"/>
  <rect x="184.6" y="445.37" width="13.39" height="13.39" fill="#231f20"/>
  <rect x="445.28" y="229.81" width="13.39" height="13.39" fill="#231f20"/>
  <rect x="445.28" y="272.81" width="13.39" height="13.39" fill="#231f20"/>
  <rect x="443.74" y="489.03" width="13.39" height="13.39" fill="#231f20"/>
  <rect x="402.5" y="489.03" width="13.39" height="13.39" fill="#231f20"/>
</svg>