<?xml version="1.0" encoding="UTF-8"?>
<svg id="_6" data-name="6" xmlns="http://www.w3.org/2000/svg" viewBox="0 0 1080 1080">
  <rect x="692.1" y="778.73" width="40.84" height="40.84" fill="#231f20"/>
  <rect x="735.15" y="778.73" width="40.84" height="40.84" fill="#231f20"/>
  <rect x="692.1" y="822.22" width="40.84" height="40.84" fill="#231f20"/>
  <rect x="735.15" y="822.22" width="40.84" height="40.84" fill="#231f20"/>
  <rect x="475.57" y="433.19" width="40.84" height="40.84" fill="#231f20"/>
  <rect x="518.97" y="433.19" width="40.84" height="40.84" fill="#231f20"/>
  <rect x="475.57" y="476.45" width="40.84" height="40.84" fill="#231f20"/>
  <rect x="518.97" y="476.45" width="40.84" height="40.84" fill="#231f20"/>
  <rect x="748.87" y="748.73" width="13.39" height="13.39" fill="#231f20"/>
  <rect x="705.82" y="748.73" width="13.39" height="13.39" fill="#231f20"/>
  <rect x="662.64" y="835.94" width="13.39" height="13.39" fill="#231f20"/>
  <rect x="619.39" y="835.94" width="13.39" height="13.39" fill="#231f20"/>
  <rect x="662.3" y="792.45" width="13.39" height="13.39" fill="#231f20"/>
  <rect x="792.11" y="835.94" width="13.39" height="13.39" fill="#231f20"/>
  <rect x="791.77" y="792.45" width="13.39" height="13.39" fill="#231f20"/>
  <rect x="835.85" y="835.94" width="13.39" height="13.39" fill="#231f20"/>
  <rect x="835.52" y="792.45" width="13.39" height="13.39" fill="#231f20"/>
  <rect x="619.06" y="792.45" width="13.39" height="13.39" fill="#231f20"/>
  <rect x="576.19" y="835.94" width="13.39" height="13.39" fill="#231f20"/>
  <rect x="576.19" y="792.45" width="13.39" height="13.39" fill="#231f20"/>
  <rect x="748.87" y="922.74" width="13.39" height="13.39" fill="#231f20"/>
  <rect x="748.87" y="878.8" width="13.39" height="13.39" fill="#231f20"/>
  <rect x="705.82" y="922.21" width="13.39" height="13.39" fill="#231f20"/>
  <rect x="705.82" y="878.27" width="13.39" height="13.39" fill="#231f20"/>
  <rect x="748.87" y="1009.14" width="13.39" height="13.39" fill="#231f20"/>
  <rect x="748.87" y="965.2" width="13.39" height="13.39" fill="#231f20"/>
  <rect x="705.82" y="1008.61" width="13.39" height="13.39" fill="#231f20"/>
  <rect x="662.84" y="1009.14" width="13.39" height="13.39" fill="#231f20"/>
  <rect x="662.84" y="1050.95" width="13.39" height="13.39" fill="#231f20"/>
  <rect x="620.13" y="1008.61" width="13.39" height="13.39" fill="#231f20"/>
  <rect x="705.82" y="964.67" width="13.39" height="13.39" fill="#231f20"/>
  <rect x="576.19" y="749.68" width="13.39" height="13.39" fill="#231f20"/>
  <rect x="576.19" y="705.74" width="13.39" height="13.39" fill="#231f20"/>
  <rect x="576.19" y="663.28" width="13.39" height="13.39" fill="#231f20"/>
  <rect x="576.19" y="619.34" width="13.39" height="13.39" fill="#231f20"/>
  <rect x="532.7" y="835.94" width="13.39" height="13.39" fill="#231f20"/>
  <rect x="143.9" y="836.38" width="13.39" height="13.39" fill="#231f20"/>
  <rect x="100.66" y="836.38" width="13.39" height="13.39" fill="#231f20"/>
  <rect x="57.95" y="836.38" width="13.39" height="13.39" fill="#231f20"/>
  <rect x="14.28" y="836.38" width="13.39" height="13.39" fill="#231f20"/>
  <rect x="143.9" y="879.52" width="13.39" height="13.39" fill="#231f20"/>
  <rect x="100.66" y="879.52" width="13.39" height="13.39" fill="#231f20"/>
  <rect x="57.95" y="879.52" width="13.39" height="13.39" fill="#231f20"/>
  <rect x="273.08" y="836.38" width="13.39" height="13.39" fill="#231f20"/>
  <rect x="229.84" y="836.38" width="13.39" height="13.39" fill="#231f20"/>
  <rect x="187.14" y="836.38" width="13.39" height="13.39" fill="#231f20"/>
  <rect x="273.08" y="879.52" width="13.39" height="13.39" fill="#231f20"/>
  <rect x="229.84" y="879.52" width="13.39" height="13.39" fill="#231f20"/>
  <rect x="187.14" y="879.52" width="13.39" height="13.39" fill="#231f20"/>
  <rect x="14.28" y="879.52" width="13.39" height="13.39" fill="#231f20"/>
  <rect x="532.7" y="792.45" width="13.39" height="13.39" fill="#231f20"/>
  <rect x="532.7" y="749.68" width="13.39" height="13.39" fill="#231f20"/>
  <rect x="532.7" y="705.74" width="13.39" height="13.39" fill="#231f20"/>
  <rect x="532.7" y="663.28" width="13.39" height="13.39" fill="#231f20"/>
  <rect x="532.7" y="619.34" width="13.39" height="13.39" fill="#231f20"/>
  <rect x="576.19" y="576.88" width="13.39" height="13.39" fill="#231f20"/>
  <rect x="576.19" y="532.94" width="13.39" height="13.39" fill="#231f20"/>
  <rect x="532.7" y="576.88" width="13.39" height="13.39" fill="#231f20"/>
  <rect x="532.7" y="532.94" width="13.39" height="13.39" fill="#231f20"/>
  <rect x="489.29" y="576.88" width="13.39" height="13.39" fill="#231f20"/>
  <rect x="489.29" y="532.94" width="13.39" height="13.39" fill="#231f20"/>
  <rect x="446.32" y="576.88" width="13.39" height="13.39" fill="#231f20"/>
  <rect x="446.32" y="532.94" width="13.39" height="13.39" fill="#231f20"/>
  <rect x="446.32" y="490.17" width="13.39" height="13.39" fill="#231f20"/>
  <rect x="446.32" y="446.91" width="13.39" height="13.39" fill="#231f20"/>
  <rect x="446.32" y="404.09" width="13.39" height="13.39" fill="#231f20"/>
  <rect x="446.32" y="360.15" width="13.39" height="13.39" fill="#231f20"/>
  <rect x="402.39" y="576.88" width="13.39" height="13.39" fill="#231f20"/>
  <rect x="360.65" y="619.07" width="13.39" height="13.39" fill="#231f20"/>
  <rect x="316.74" y="619.34" width="13.39" height="13.39" fill="#231f20"/>
  <rect x="402.39" y="532.94" width="13.39" height="13.39" fill="#231f20"/>
  <rect x="402.39" y="490.17" width="13.39" height="13.39" fill="#231f20"/>
  <rect x="402.39" y="446.91" width="13.39" height="13.39" fill="#231f20"/>
  <rect x="402.39" y="404.09" width="13.39" height="13.39" fill="#231f20"/>
  <rect x="402.39" y="360.15" width="13.39" height="13.39" fill="#231f20"/>
  <rect x="360.65" y="532.67" width="13.39" height="13.39" fill="#231f20"/>
  <rect x="360.65" y="489.9" width="13.39" height="13.39" fill="#231f20"/>
  <rect x="360.65" y="446.64" width="13.39" height="13.39" fill="#231f20"/>
  <rect x="360.65" y="403.82" width="13.39" height="13.39" fill="#231f20"/>
  <rect x="360.65" y="359.88" width="13.39" height="13.39" fill="#231f20"/>
  <rect x="316.74" y="532.94" width="13.39" height="13.39" fill="#231f20"/>
  <rect x="316.74" y="490.17" width="13.39" height="13.39" fill="#231f20"/>
  <rect x="316.82" y="446.91" width="13.39" height="13.39" fill="#231f20"/>
  <rect x="316.74" y="404.09" width="13.39" height="13.39" fill="#231f20"/>
  <rect x="316.74" y="360.15" width="13.39" height="13.39" fill="#231f20"/>
  <rect x="360.65" y="315.94" width="13.39" height="13.39" fill="#231f20"/>
  <rect x="360.65" y="271.79" width="13.39" height="13.39" fill="#231f20"/>
  <rect x="360.65" y="227.85" width="13.39" height="13.39" fill="#231f20"/>
  <rect x="316.74" y="316.21" width="13.39" height="13.39" fill="#231f20"/>
  <rect x="316.74" y="272.06" width="13.39" height="13.39" fill="#231f20"/>
  <rect x="316.74" y="228.12" width="13.39" height="13.39" fill="#231f20"/>
  <rect x="446.32" y="316.21" width="13.39" height="13.39" fill="#231f20"/>
  <rect x="446.32" y="272.06" width="13.39" height="13.39" fill="#231f20"/>
  <rect x="446.32" y="228.12" width="13.39" height="13.39" fill="#231f20"/>
  <rect x="402.39" y="316.21" width="13.39" height="13.39" fill="#231f20"/>
  <rect x="402.39" y="272.06" width="13.39" height="13.39" fill="#231f20"/>
  <rect x="402.39" y="228.12" width="13.39" height="13.39" fill="#231f20"/>
  <rect x="446.32" y="187.62" width="13.39" height="13.39" fill="#231f20"/>
  <rect x="446.32" y="143.95" width="13.39" height="13.39" fill="#231f20"/>
  <rect x="446.32" y="99.63" width="13.39" height="13.39" fill="#231f20"/>
  <rect x="489.29" y="272.06" width="13.39" height="13.39" fill="#231f20"/>
  <rect x="489.29" y="228.12" width="13.39" height="13.39" fill="#231f20"/>
  <rect x="489.29" y="187.62" width="13.39" height="13.39" fill="#231f20"/>
  <rect x="489.29" y="143.95" width="13.39" height="13.39" fill="#231f20"/>
  <rect x="489.29" y="99.63" width="13.39" height="13.39" fill="#231f20"/>
  <rect x="576.19" y="143.95" width="13.39" height="13.39" fill="#231f20"/>
  <rect x="576.19" y="99.63" width="13.39" height="13.39" fill="#231f20"/>
  <rect x="532.7" y="99.63" width="13.39" height="13.39" fill="#231f20"/>
  <rect x="619.53" y="143.95" width="13.39" height="13.39" fill="#231f20"/>
  <rect x="619.53" y="99.63" width="13.39" height="13.39" fill="#231f20"/>
  <rect x="749.01" y="187.43" width="13.39" height="13.39" fill="#231f20"/>
  <rect x="749.01" y="143.28" width="13.39" height="13.39" fill="#231f20"/>
  <rect x="360.65" y="187.35" width="13.39" height="13.39" fill="#231f20"/>
  <rect x="360.65" y="143.68" width="13.39" height="13.39" fill="#231f20"/>
  <rect x="402.39" y="187.62" width="13.39" height="13.39" fill="#231f20"/>
  <rect x="402.39" y="143.95" width="13.39" height="13.39" fill="#231f20"/>
  <rect x="402.39" y="99.63" width="13.39" height="13.39" fill="#231f20"/>
  <rect x="360.65" y="99.36" width="13.39" height="13.39" fill="#231f20"/>
  <rect x="360.65" y="57" width="13.39" height="13.39" fill="#231f20"/>
  <rect x="317.04" y="99.63" width="13.39" height="13.39" fill="#231f20"/>
  <rect x="315.54" y="57.27" width="13.39" height="13.39" fill="#231f20"/>
  <rect x="272.63" y="99.63" width="13.39" height="13.39" fill="#231f20"/>
  <rect x="271.14" y="57.27" width="13.39" height="13.39" fill="#231f20"/>
  <rect x="489.29" y="57.27" width="13.39" height="13.39" fill="#231f20"/>
  <rect x="446.32" y="57.27" width="13.39" height="13.39" fill="#231f20"/>
  <rect x="402.39" y="57.27" width="13.39" height="13.39" fill="#231f20"/>
  <rect x="360.65" y="15.13" width="13.39" height="13.39" fill="#231f20"/>
  <rect x="317.04" y="15.4" width="13.39" height="13.39" fill="#231f20"/>
  <rect x="489.29" y="404.09" width="13.39" height="13.39" fill="#231f20"/>
  <rect x="489.29" y="360.15" width="13.39" height="13.39" fill="#231f20"/>
  <rect x="532.7" y="404.09" width="13.39" height="13.39" fill="#231f20"/>
  <rect x="532.7" y="360.15" width="13.39" height="13.39" fill="#231f20"/>
  <rect x="576.19" y="404.09" width="13.39" height="13.39" fill="#231f20"/>
  <rect x="576.19" y="360.15" width="13.39" height="13.39" fill="#231f20"/>
  <rect x="576.19" y="490.17" width="13.39" height="13.39" fill="#231f20"/>
  <rect x="576.19" y="446.91" width="13.39" height="13.39" fill="#231f20"/>
</svg>