<?xml version="1.0" encoding="UTF-8"?>
<svg id="_7" data-name="7" xmlns="http://www.w3.org/2000/svg" viewBox="0 0 1080 1080">
  <rect x=".85" y="260.28" width="40.84" height="40.84" transform="translate(301.97 259.42) rotate(90)" fill="#231f20"/>
  <rect x=".85" y="303.61" width="40.84" height="40.84" transform="translate(345.31 302.76) rotate(90)" fill="#231f20"/>
  <rect x=".85" y="173.82" width="40.84" height="40.84" transform="translate(215.51 172.96) rotate(90)" fill="#231f20"/>
  <rect x=".85" y="217.05" width="40.84" height="40.84" transform="translate(258.74 216.19) rotate(90)" fill="#231f20"/>
  <rect x="43.97" y="346.63" width="40.84" height="40.84" transform="translate(431.45 302.66) rotate(90)" fill="#231f20"/>
  <rect x="43.97" y="390.05" width="40.84" height="40.84" transform="translate(474.86 346.07) rotate(90)" fill="#231f20"/>
  <rect x="43.97" y="433.07" width="40.84" height="40.84" transform="translate(517.88 389.09) rotate(90)" fill="#231f20"/>
  <rect x="43.97" y="476.28" width="40.84" height="40.84" transform="translate(561.09 432.3) rotate(90)" fill="#231f20"/>
  <rect x="43.97" y="519.57" width="40.84" height="40.84" transform="translate(604.38 475.59) rotate(90)" fill="#231f20"/>
  <rect x="43.97" y="260.01" width="40.84" height="40.84" transform="translate(344.82 216.03) rotate(90)" fill="#231f20"/>
  <rect x="43.97" y="303.61" width="40.84" height="40.84" transform="translate(388.43 259.64) rotate(90)" fill="#231f20"/>
  <rect x="87.3" y="346.63" width="40.84" height="40.84" transform="translate(474.77 259.34) rotate(90)" fill="#231f20"/>
  <rect x="87.3" y="390.05" width="40.84" height="40.84" transform="translate(518.18 302.75) rotate(90)" fill="#231f20"/>
  <rect x="87.3" y="433.07" width="40.84" height="40.84" transform="translate(561.2 345.77) rotate(90)" fill="#231f20"/>
  <rect x="87.3" y="476.28" width="40.84" height="40.84" transform="translate(604.41 388.98) rotate(90)" fill="#231f20"/>
  <rect x="130.92" y="346.63" width="40.84" height="40.84" transform="translate(518.4 215.71) rotate(90)" fill="#231f20"/>
  <rect x="174.14" y="390.05" width="40.84" height="40.84" transform="translate(605.03 215.9) rotate(90)" fill="#231f20"/>
  <rect x="130.92" y="390.05" width="40.84" height="40.84" transform="translate(561.81 259.12) rotate(90)" fill="#231f20"/>
  <rect x="130.92" y="433.07" width="40.84" height="40.84" transform="translate(604.83 302.14) rotate(90)" fill="#231f20"/>
  <rect x="87.3" y="303.61" width="40.84" height="40.84" transform="translate(431.75 216.32) rotate(90)" fill="#231f20"/>
  <rect x=".85" y="433.07" width="40.84" height="40.84" transform="translate(474.76 432.21) rotate(90)" fill="#231f20"/>
  <rect x=".85" y="476.28" width="40.84" height="40.84" transform="translate(517.97 475.42) rotate(90)" fill="#231f20"/>
  <rect x=".85" y="346.63" width="40.84" height="40.84" transform="translate(388.32 345.78) rotate(90)" fill="#231f20"/>
  <rect x=".85" y="390.05" width="40.84" height="40.84" transform="translate(431.74 389.19) rotate(90)" fill="#231f20"/>
  <rect x=".85" y="606.09" width="40.84" height="40.84" transform="translate(647.79 605.24) rotate(90)" fill="#231f20"/>
  <rect x=".85" y="648.96" width="40.84" height="40.84" transform="translate(690.65 648.11) rotate(90)" fill="#231f20"/>
  <rect x=".85" y="519.57" width="40.84" height="40.84" transform="translate(561.26 518.72) rotate(90)" fill="#231f20"/>
  <rect x=".85" y="562.61" width="40.84" height="40.84" transform="translate(604.3 561.76) rotate(90)" fill="#231f20"/>
  <rect x=".85" y="779.04" width="40.84" height="40.84" transform="translate(820.73 778.19) rotate(90)" fill="#231f20"/>
  <rect x=".85" y="822.27" width="40.84" height="40.84" transform="translate(863.96 821.42) rotate(90)" fill="#231f20"/>
  <rect x=".85" y="692.58" width="40.84" height="40.84" transform="translate(734.27 691.73) rotate(90)" fill="#231f20"/>
  <rect x=".85" y="735.81" width="40.84" height="40.84" transform="translate(777.5 734.96) rotate(90)" fill="#231f20"/>
  <rect x=".85" y="865.5" width="40.84" height="40.84" transform="translate(907.19 864.65) rotate(90)" fill="#231f20"/>
  <rect x=".85" y="995.19" width="40.84" height="40.84" transform="translate(1036.88 994.34) rotate(90)" fill="#231f20"/>
  <rect x=".85" y="1038.42" width="40.84" height="40.84" transform="translate(1080.11 1037.57) rotate(90)" fill="#231f20"/>
  <rect x=".85" y="908.73" width="40.84" height="40.84" transform="translate(950.42 907.88) rotate(90)" fill="#231f20"/>
  <rect x=".85" y="951.96" width="40.84" height="40.84" transform="translate(993.65 951.11) rotate(90)" fill="#231f20"/>
  <rect x="130.67" y="994.37" width="40.84" height="40.84" transform="translate(1165.88 863.7) rotate(90)" fill="#231f20"/>
  <rect x="130.67" y="1038.12" width="40.84" height="40.84" transform="translate(1209.63 907.45) rotate(90)" fill="#231f20"/>
  <rect x="130.67" y="951.77" width="40.84" height="40.84" transform="translate(1123.28 821.11) rotate(90)" fill="#231f20"/>
  <rect x="475.45" y="476.28" width="40.84" height="40.84" transform="translate(992.57 .83) rotate(90)" fill="#231f20"/>
  <rect x="432.14" y="476.28" width="40.84" height="40.84" transform="translate(949.26 44.14) rotate(90)" fill="#231f20"/>
  <rect x="476.48" y="433.07" width="40.84" height="40.84" transform="translate(950.39 -43.41) rotate(90)" fill="#231f20"/>
  <rect x="433.28" y="433.07" width="40.84" height="40.84" transform="translate(907.19 -.21) rotate(90)" fill="#231f20"/>
  <rect x="389.9" y="476.28" width="40.84" height="40.84" transform="translate(907.02 86.38) rotate(90)" fill="#231f20"/>
  <rect x="389.9" y="433.07" width="40.84" height="40.84" transform="translate(863.81 43.17) rotate(90)" fill="#231f20"/>
  <rect x="562.08" y="476.28" width="40.84" height="40.84" transform="translate(1079.2 -85.8) rotate(90)" fill="#231f20"/>
  <rect x="518.77" y="476.28" width="40.84" height="40.84" transform="translate(1035.88 -42.49) rotate(90)" fill="#231f20"/>
  <rect x="562.88" y="433.07" width="40.84" height="40.84" transform="translate(1036.79 -129.81) rotate(90)" fill="#231f20"/>
  <rect x="519.68" y="433.07" width="40.84" height="40.84" transform="translate(993.59 -86.61) rotate(90)" fill="#231f20"/>
  <rect x="476.48" y="562.61" width="40.84" height="40.84" transform="translate(1079.93 86.13) rotate(90)" fill="#231f20"/>
  <rect x="476.52" y="519.57" width="40.84" height="40.84" transform="translate(1036.93 43.05) rotate(90)" fill="#231f20"/>
  <rect x="562.88" y="562.61" width="40.84" height="40.84" transform="translate(1166.33 -.27) rotate(90)" fill="#231f20"/>
  <rect x="519.68" y="562.61" width="40.84" height="40.84" transform="translate(1123.13 42.93) rotate(90)" fill="#231f20"/>
  <rect x="562.92" y="519.57" width="40.84" height="40.84" transform="translate(1123.33 -43.35) rotate(90)" fill="#231f20"/>
  <rect x="519.72" y="519.57" width="40.84" height="40.84" transform="translate(1080.13 -.15) rotate(90)" fill="#231f20"/>
  <rect x="562.88" y="693.19" width="40.84" height="40.84" transform="translate(1296.91 130.31) rotate(90)" fill="#231f20"/>
  <rect x="476.48" y="606.09" width="40.84" height="40.84" transform="translate(1123.41 129.61) rotate(90)" fill="#231f20"/>
  <rect x="562.88" y="648.96" width="40.84" height="40.84" transform="translate(1252.68 86.08) rotate(90)" fill="#231f20"/>
  <rect x="519.68" y="648.96" width="40.84" height="40.84" transform="translate(1209.48 129.28) rotate(90)" fill="#231f20"/>
  <rect x="562.88" y="606.09" width="40.84" height="40.84" transform="translate(1209.81 43.21) rotate(90)" fill="#231f20"/>
  <rect x="605.39" y="476.28" width="40.84" height="40.84" transform="translate(1122.51 -129.12) rotate(90)" fill="#231f20"/>
  <rect x="606.08" y="433.07" width="40.84" height="40.84" transform="translate(1079.99 -173.01) rotate(90)" fill="#231f20"/>
  <rect x="606.08" y="562.61" width="40.84" height="40.84" transform="translate(1209.53 -43.47) rotate(90)" fill="#231f20"/>
  <rect x="606.12" y="519.57" width="40.84" height="40.84" transform="translate(1166.53 -86.55) rotate(90)" fill="#231f20"/>
  <rect x="692.02" y="476.28" width="40.84" height="40.84" transform="translate(1209.14 -215.74) rotate(90)" fill="#231f20"/>
  <rect x="648.71" y="476.28" width="40.84" height="40.84" transform="translate(1165.83 -172.43) rotate(90)" fill="#231f20"/>
  <rect x="692.48" y="433.07" width="40.84" height="40.84" transform="translate(1166.39 -259.41) rotate(90)" fill="#231f20"/>
  <rect x="649.28" y="433.07" width="40.84" height="40.84" transform="translate(1123.19 -216.21) rotate(90)" fill="#231f20"/>
  <rect x="692.52" y="519.57" width="40.84" height="40.84" transform="translate(1252.93 -172.95) rotate(90)" fill="#231f20"/>
  <rect x="649.32" y="519.57" width="40.84" height="40.84" transform="translate(1209.73 -129.75) rotate(90)" fill="#231f20"/>
  <rect x="735.34" y="476.28" width="40.84" height="40.84" transform="translate(1252.46 -259.06) rotate(90)" fill="#231f20"/>
  <rect x="735.68" y="433.07" width="40.84" height="40.84" transform="translate(1209.59 -302.61) rotate(90)" fill="#231f20"/>
  <rect x="735.72" y="519.57" width="40.84" height="40.84" transform="translate(1296.13 -216.15) rotate(90)" fill="#231f20"/>
  <rect x="606.08" y="693.19" width="40.84" height="40.84" transform="translate(1340.11 87.11) rotate(90)" fill="#231f20"/>
  <rect x="606.08" y="648.96" width="40.84" height="40.84" transform="translate(1295.88 42.88) rotate(90)" fill="#231f20"/>
  <rect x="606.08" y="606.09" width="40.84" height="40.84" transform="translate(1253.01 .01) rotate(90)" fill="#231f20"/>
  <rect x="519.68" y="606.09" width="40.84" height="40.84" transform="translate(1166.61 86.41) rotate(90)" fill="#231f20"/>
  <rect x="692.48" y="693.19" width="40.84" height="40.84" transform="translate(1426.51 .71) rotate(90)" fill="#231f20"/>
  <rect x="692.48" y="648.96" width="40.84" height="40.84" transform="translate(1382.28 -43.52) rotate(90)" fill="#231f20"/>
  <rect x="649.28" y="648.96" width="40.84" height="40.84" transform="translate(1339.08 -.32) rotate(90)" fill="#231f20"/>
  <rect x="649.28" y="693.37" width="40.84" height="40.84" transform="translate(1383.49 44.09) rotate(90)" fill="#231f20"/>
  <rect x="692.48" y="606.09" width="40.84" height="40.84" transform="translate(1339.41 -86.39) rotate(90)" fill="#231f20"/>
  <rect x="735.68" y="693.19" width="40.84" height="40.84" transform="translate(1469.71 -42.49) rotate(90)" fill="#231f20"/>
  <rect x="735.68" y="648.96" width="40.84" height="40.84" transform="translate(1425.48 -86.72) rotate(90)" fill="#231f20"/>
  <rect x="735.68" y="606.09" width="40.84" height="40.84" transform="translate(1382.61 -129.59) rotate(90)" fill="#231f20"/>
  <rect x="692.48" y="562.61" width="40.84" height="40.84" transform="translate(1295.93 -129.87) rotate(90)" fill="#231f20"/>
  <rect x="735.68" y="562.61" width="40.84" height="40.84" transform="translate(1339.13 -173.07) rotate(90)" fill="#231f20"/>
  <rect x="778.65" y="476.28" width="40.84" height="40.84" transform="translate(1295.77 -302.37) rotate(90)" fill="#231f20"/>
  <rect x="778.88" y="433.07" width="40.84" height="40.84" transform="translate(1252.79 -345.81) rotate(90)" fill="#231f20"/>
  <rect x="778.92" y="519.57" width="40.84" height="40.84" transform="translate(1339.33 -259.35) rotate(90)" fill="#231f20"/>
  <rect x="821.96" y="476.28" width="40.84" height="40.84" transform="translate(1339.08 -345.69) rotate(90)" fill="#231f20"/>
  <rect x="822.08" y="433.07" width="40.84" height="40.84" transform="translate(1295.99 -389.01) rotate(90)" fill="#231f20"/>
  <rect x="822.12" y="519.57" width="40.84" height="40.84" transform="translate(1382.53 -302.55) rotate(90)" fill="#231f20"/>
  <rect x="778.88" y="693.19" width="40.84" height="40.84" transform="translate(1512.91 -85.69) rotate(90)" fill="#231f20"/>
  <rect x="778.88" y="648.96" width="40.84" height="40.84" transform="translate(1468.68 -129.92) rotate(90)" fill="#231f20"/>
  <rect x="778.88" y="606.09" width="40.84" height="40.84" transform="translate(1425.81 -172.79) rotate(90)" fill="#231f20"/>
  <rect x="822.08" y="693.19" width="40.84" height="40.84" transform="translate(1556.11 -128.89) rotate(90)" fill="#231f20"/>
  <rect x="822.08" y="648.96" width="40.84" height="40.84" transform="translate(1511.88 -173.12) rotate(90)" fill="#231f20"/>
  <rect x="606.08" y="778.99" width="40.84" height="40.84" transform="translate(1425.91 172.91) rotate(90)" fill="#231f20"/>
  <rect x="606.08" y="735.58" width="40.84" height="40.84" transform="translate(1382.5 129.5) rotate(90)" fill="#231f20"/>
  <rect x="692.48" y="778.99" width="40.84" height="40.84" transform="translate(1512.31 86.51) rotate(90)" fill="#231f20"/>
  <rect x="692.48" y="735.58" width="40.84" height="40.84" transform="translate(1468.9 43.1) rotate(90)" fill="#231f20"/>
  <rect x="649.28" y="735.58" width="40.84" height="40.84" transform="translate(1425.7 86.3) rotate(90)" fill="#231f20"/>
  <rect x="649.28" y="779.17" width="40.84" height="40.84" transform="translate(1469.29 129.89) rotate(90)" fill="#231f20"/>
  <rect x="735.68" y="778.99" width="40.84" height="40.84" transform="translate(1555.51 43.31) rotate(90)" fill="#231f20"/>
  <rect x="735.68" y="735.58" width="40.84" height="40.84" transform="translate(1512.1 -.1) rotate(90)" fill="#231f20"/>
  <rect x="778.88" y="778.99" width="40.84" height="40.84" transform="translate(1598.71 .11) rotate(90)" fill="#231f20"/>
  <rect x="778.88" y="735.58" width="40.84" height="40.84" transform="translate(1555.3 -43.3) rotate(90)" fill="#231f20"/>
  <rect x="822.08" y="778.99" width="40.84" height="40.84" transform="translate(1641.91 -43.09) rotate(90)" fill="#231f20"/>
  <rect x="822.08" y="735.58" width="40.84" height="40.84" transform="translate(1598.5 -86.5) rotate(90)" fill="#231f20"/>
  <rect x="865.28" y="693.19" width="40.84" height="40.84" transform="translate(1599.31 -172.09) rotate(90)" fill="#231f20"/>
  <rect x="865.28" y="648.96" width="40.84" height="40.84" transform="translate(1555.08 -216.32) rotate(90)" fill="#231f20"/>
  <rect x="908.48" y="692.55" width="40.84" height="40.84" transform="translate(1641.87 -215.93) rotate(90)" fill="#231f20"/>
  <rect x="908.48" y="648.96" width="40.84" height="40.84" transform="translate(1598.28 -259.52) rotate(90)" fill="#231f20"/>
  <rect x="951.68" y="692.55" width="40.84" height="40.84" transform="translate(1685.07 -259.13) rotate(90)" fill="#231f20"/>
  <rect x="951.68" y="648.96" width="40.84" height="40.84" transform="translate(1641.48 -302.72) rotate(90)" fill="#231f20"/>
  <rect x="865.28" y="778.99" width="40.84" height="40.84" transform="translate(1685.11 -86.29) rotate(90)" fill="#231f20"/>
  <rect x="865.28" y="735.58" width="40.84" height="40.84" transform="translate(1641.7 -129.7) rotate(90)" fill="#231f20"/>
  <rect x="908.48" y="779.12" width="40.84" height="40.84" transform="translate(1728.44 -129.35) rotate(90)" fill="#231f20"/>
  <rect x="908.48" y="735.84" width="40.84" height="40.84" transform="translate(1685.16 -172.64) rotate(90)" fill="#231f20"/>
  <rect x="951.68" y="779.12" width="40.84" height="40.84" transform="translate(1771.64 -172.55) rotate(90)" fill="#231f20"/>
  <rect x="778.88" y="822.41" width="40.84" height="40.84" transform="translate(1642.13 43.53) rotate(90)" fill="#231f20"/>
  <rect x="822.08" y="822.41" width="40.84" height="40.84" transform="translate(1685.33 .33) rotate(90)" fill="#231f20"/>
  <rect x="865.28" y="822.41" width="40.84" height="40.84" transform="translate(1728.53 -42.87) rotate(90)" fill="#231f20"/>
  <rect x="908.48" y="822.41" width="40.84" height="40.84" transform="translate(1771.73 -86.07) rotate(90)" fill="#231f20"/>
  <rect x="951.68" y="822.41" width="40.84" height="40.84" transform="translate(1814.93 -129.27) rotate(90)" fill="#231f20"/>
  <rect x="951.68" y="735.84" width="40.84" height="40.84" transform="translate(1728.36 -215.84) rotate(90)" fill="#231f20"/>
  <rect x="865.28" y="476.28" width="40.84" height="40.84" transform="translate(1382.4 -389) rotate(90)" fill="#231f20"/>
  <rect x="865.28" y="433.07" width="40.84" height="40.84" transform="translate(1339.19 -432.21) rotate(90)" fill="#231f20"/>
  <rect x="908.48" y="476.28" width="40.84" height="40.84" transform="translate(1425.6 -432.2) rotate(90)" fill="#231f20"/>
  <rect x="908.48" y="433.07" width="40.84" height="40.84" transform="translate(1382.39 -475.41) rotate(90)" fill="#231f20"/>
  <rect x="951.68" y="476.28" width="40.84" height="40.84" transform="translate(1468.8 -475.4) rotate(90)" fill="#231f20"/>
  <rect x="951.68" y="433.07" width="40.84" height="40.84" transform="translate(1425.59 -518.61) rotate(90)" fill="#231f20"/>
  <rect x="865.28" y="562.61" width="40.84" height="40.84" transform="translate(1468.73 -302.67) rotate(90)" fill="#231f20"/>
  <rect x="865.32" y="519.57" width="40.84" height="40.84" transform="translate(1425.73 -345.75) rotate(90)" fill="#231f20"/>
  <rect x="908.48" y="562.61" width="40.84" height="40.84" transform="translate(1511.93 -345.87) rotate(90)" fill="#231f20"/>
  <rect x="908.52" y="519.57" width="40.84" height="40.84" transform="translate(1468.93 -388.95) rotate(90)" fill="#231f20"/>
  <rect x="951.68" y="562.61" width="40.84" height="40.84" transform="translate(1555.13 -389.07) rotate(90)" fill="#231f20"/>
  <rect x="908.48" y="606.09" width="40.84" height="40.84" transform="translate(1555.41 -302.39) rotate(90)" fill="#231f20"/>
  <rect x="951.68" y="606.09" width="40.84" height="40.84" transform="translate(1598.61 -345.59) rotate(90)" fill="#231f20"/>
  <rect x="951.72" y="519.57" width="40.84" height="40.84" transform="translate(1512.13 -432.15) rotate(90)" fill="#231f20"/>
  <rect x="994.96" y="562.61" width="40.84" height="40.84" transform="translate(1598.41 -432.35) rotate(90)" fill="#231f20"/>
  <rect x="995" y="519.57" width="40.84" height="40.84" transform="translate(1555.41 -475.43) rotate(90)" fill="#231f20"/>
  <rect x="1038.6" y="562.61" width="40.84" height="40.84" transform="translate(1642.05 -475.99) rotate(90)" fill="#231f20"/>
  <rect x="994.96" y="606.09" width="40.84" height="40.84" transform="translate(1641.89 -388.86) rotate(90)" fill="#231f20"/>
  <rect x="1038.6" y="606.09" width="40.84" height="40.84" transform="translate(1685.54 -432.51) rotate(90)" fill="#231f20"/>
  <rect x="1038.65" y="519.57" width="40.84" height="40.84" transform="translate(1599.06 -519.08) rotate(90)" fill="#231f20"/>
  <rect x="994.96" y="433.07" width="40.84" height="40.84" transform="translate(1468.86 -561.89) rotate(90)" fill="#231f20"/>
  <rect x="994.96" y="390.06" width="40.84" height="40.84" transform="translate(1425.86 -604.9) rotate(90)" fill="#231f20"/>
  <rect x="1038.6" y="433.07" width="40.84" height="40.84" transform="translate(1512.51 -605.54) rotate(90)" fill="#231f20"/>
  <rect x="994.96" y="476.28" width="40.84" height="40.84" transform="translate(1512.07 -518.68) rotate(90)" fill="#231f20"/>
  <rect x="1038.6" y="476.28" width="40.84" height="40.84" transform="translate(1555.72 -562.33) rotate(90)" fill="#231f20"/>
  <rect x="1038.6" y="778.6" width="40.84" height="40.84" transform="translate(1858.04 -260) rotate(90)" fill="#231f20"/>
  <rect x="1038.6" y="821.81" width="40.84" height="40.84" transform="translate(1901.26 -216.79) rotate(90)" fill="#231f20"/>
  <rect x="1038.6" y="735.38" width="40.84" height="40.84" transform="translate(1814.83 -303.22) rotate(90)" fill="#231f20"/>
  <rect x="1038.6" y="648.96" width="40.84" height="40.84" transform="translate(1728.4 -389.64) rotate(90)" fill="#231f20"/>
  <rect x="1038.6" y="692.17" width="40.84" height="40.84" transform="translate(1771.61 -346.44) rotate(90)" fill="#231f20"/>
  <rect x="1038.6" y="994.68" width="40.84" height="40.84" transform="translate(2074.12 -43.93) rotate(90)" fill="#231f20"/>
  <rect x="1038.6" y="1037.89" width="40.84" height="40.84" transform="translate(2117.34 -.71) rotate(90)" fill="#231f20"/>
  <rect x="1038.6" y="951.46" width="40.84" height="40.84" transform="translate(2030.91 -87.14) rotate(90)" fill="#231f20"/>
  <rect x="1038.6" y="865.03" width="40.84" height="40.84" transform="translate(1944.47 -173.57) rotate(90)" fill="#231f20"/>
  <rect x="1038.6" y="908.25" width="40.84" height="40.84" transform="translate(1987.69 -130.36) rotate(90)" fill="#231f20"/>
  <rect x="1038.6" y="389.66" width="40.84" height="40.84" transform="translate(1469.1 -648.95) rotate(90)" fill="#231f20"/>
  <rect x="994.96" y="303.63" width="40.84" height="40.84" transform="translate(1339.42 -691.33) rotate(90)" fill="#231f20"/>
  <rect x="994.96" y="260.41" width="40.84" height="40.84" transform="translate(1296.21 -734.54) rotate(90)" fill="#231f20"/>
  <rect x="1038.6" y="303.22" width="40.84" height="40.84" transform="translate(1382.67 -735.38) rotate(90)" fill="#231f20"/>
  <rect x="994.96" y="346.84" width="40.84" height="40.84" transform="translate(1382.64 -648.11) rotate(90)" fill="#231f20"/>
  <rect x="1038.6" y="346.44" width="40.84" height="40.84" transform="translate(1425.88 -692.16) rotate(90)" fill="#231f20"/>
  <rect x="1038.6" y="260.01" width="40.84" height="40.84" transform="translate(1339.45 -778.59) rotate(90)" fill="#231f20"/>
  <rect x="994.96" y="173.98" width="40.84" height="40.84" transform="translate(1209.78 -820.98) rotate(90)" fill="#231f20"/>
  <rect x="994.96" y="130.76" width="40.84" height="40.84" transform="translate(1166.56 -864.19) rotate(90)" fill="#231f20"/>
  <rect x="1038.6" y="173.58" width="40.84" height="40.84" transform="translate(1253.02 -865.03) rotate(90)" fill="#231f20"/>
  <rect x="994.96" y="217.19" width="40.84" height="40.84" transform="translate(1252.99 -777.76) rotate(90)" fill="#231f20"/>
  <rect x="1038.6" y="216.79" width="40.84" height="40.84" transform="translate(1296.24 -821.81) rotate(90)" fill="#231f20"/>
  <rect x="1038.6" y="130.36" width="40.84" height="40.84" transform="translate(1209.8 -908.24) rotate(90)" fill="#231f20"/>
  <rect x="994.96" y="44.33" width="40.84" height="40.84" transform="translate(1080.13 -950.62) rotate(90)" fill="#231f20"/>
  <rect x="994.96" y="1.12" width="40.84" height="40.84" transform="translate(1036.91 -993.84) rotate(90)" fill="#231f20"/>
  <rect x="1038.6" y="43.93" width="40.84" height="40.84" transform="translate(1123.37 -994.67) rotate(90)" fill="#231f20"/>
  <rect x="994.96" y="87.55" width="40.84" height="40.84" transform="translate(1123.35 -907.41) rotate(90)" fill="#231f20"/>
  <rect x="1038.6" y="87.14" width="40.84" height="40.84" transform="translate(1166.59 -951.46) rotate(90)" fill="#231f20"/>
  <rect x="1038.6" y=".71" width="40.84" height="40.84" transform="translate(1080.16 -1037.89) rotate(90)" fill="#231f20"/>
  <rect x="822.08" y="606.09" width="40.84" height="40.84" transform="translate(1469.01 -215.99) rotate(90)" fill="#231f20"/>
  <rect x="778.88" y="562.61" width="40.84" height="40.84" transform="translate(1382.33 -216.27) rotate(90)" fill="#231f20"/>
  <rect x="822.08" y="562.61" width="40.84" height="40.84" transform="translate(1425.53 -259.47) rotate(90)" fill="#231f20"/>
  <rect x="649.28" y="606.09" width="40.84" height="40.84" transform="translate(1296.21 -43.19) rotate(90)" fill="#231f20"/>
  <rect x="144.65" y="274.8" width="13.39" height="13.39" transform="translate(432.84 130.15) rotate(90)" fill="#231f20"/>
  <rect x="144.65" y="317.34" width="13.39" height="13.39" transform="translate(475.38 172.69) rotate(90)" fill="#231f20"/>
  <rect x="187.87" y="317.34" width="13.39" height="13.39" transform="translate(518.6 129.47) rotate(90)" fill="#231f20"/>
  <rect x="187.87" y="360.35" width="13.39" height="13.39" transform="translate(561.62 172.49) rotate(90)" fill="#231f20"/>
  <rect x="231.48" y="360.56" width="13.39" height="13.39" transform="translate(605.44 129.07) rotate(90)" fill="#231f20"/>
  <rect x="231.48" y="403.77" width="13.39" height="13.39" transform="translate(648.65 172.28) rotate(90)" fill="#231f20"/>
  <rect x="269.85" y="274.76" width="13.39" height="13.39" transform="translate(558 4.9) rotate(90)" fill="#231f20"/>
  <rect x="269.85" y="317.34" width="13.39" height="13.39" transform="translate(600.58 47.48) rotate(90)" fill="#231f20"/>
  <rect x="269.85" y="361.48" width="13.39" height="13.39" transform="translate(644.73 91.62) rotate(90)" fill="#231f20"/>
  <rect x="269.85" y="403.77" width="13.39" height="13.39" transform="translate(687.02 133.92) rotate(90)" fill="#231f20"/>
  <rect x="269.85" y="446.79" width="13.39" height="13.39" transform="translate(730.04 176.94) rotate(90)" fill="#231f20"/>
  <rect x="315.75" y="446.79" width="13.39" height="13.39" transform="translate(775.94 131.04) rotate(90)" fill="#231f20"/>
  <rect x="357.35" y="446.79" width="13.39" height="13.39" transform="translate(817.53 89.44) rotate(90)" fill="#231f20"/>
  <rect x="313.6" y="403.77" width="13.39" height="13.39" transform="translate(730.76 90.17) rotate(90)" fill="#231f20"/>
  <rect x="359.5" y="403.77" width="13.39" height="13.39" transform="translate(776.66 44.27) rotate(90)" fill="#231f20"/>
  <rect x="401.1" y="403.77" width="13.39" height="13.39" transform="translate(818.26 2.67) rotate(90)" fill="#231f20"/>
  <rect x="446.45" y="403.77" width="13.39" height="13.39" transform="translate(863.62 -42.69) rotate(90)" fill="#231f20"/>
  <rect x="492.35" y="403.77" width="13.39" height="13.39" transform="translate(909.52 -88.58) rotate(90)" fill="#231f20"/>
  <rect x="533.95" y="403.77" width="13.39" height="13.39" transform="translate(951.11 -130.18) rotate(90)" fill="#231f20"/>
  <rect x="577.4" y="403.77" width="13.39" height="13.39" transform="translate(994.56 -173.63) rotate(90)" fill="#231f20"/>
  <rect x="532.7" y="361.93" width="13.39" height="13.39" transform="translate(908.02 -170.77) rotate(90)" fill="#231f20"/>
  <rect x="576.15" y="361.93" width="13.39" height="13.39" transform="translate(951.47 -214.22) rotate(90)" fill="#231f20"/>
  <rect x="623.3" y="403.77" width="13.39" height="13.39" transform="translate(1040.46 -219.53) rotate(90)" fill="#231f20"/>
  <rect x="664.9" y="403.77" width="13.39" height="13.39" transform="translate(1082.06 -261.13) rotate(90)" fill="#231f20"/>
  <rect x="619.25" y="836" width="13.39" height="13.39" transform="translate(1468.65 216.74) rotate(90)" fill="#231f20"/>
  <rect x="661.75" y="836" width="13.39" height="13.39" transform="translate(1511.14 174.25) rotate(90)" fill="#231f20"/>
  <rect x="661.75" y="576.33" width="13.39" height="13.39" transform="translate(1251.47 -85.42) rotate(90)" fill="#231f20"/>
  <rect x="706.75" y="836" width="13.39" height="13.39" transform="translate(1556.14 129.25) rotate(90)" fill="#231f20"/>
  <rect x="618" y="879.99" width="13.39" height="13.39" transform="translate(1511.39 261.99) rotate(90)" fill="#231f20"/>
  <rect x="619.04" y="921.75" width="13.39" height="13.39" transform="translate(1554.19 302.71) rotate(90)" fill="#231f20"/>
  <rect x="619.04" y="965.5" width="13.39" height="13.39" transform="translate(1597.94 346.45) rotate(90)" fill="#231f20"/>
  <rect x="1007.09" y="662.68" width="13.39" height="13.39" transform="translate(1683.17 -344.41) rotate(90)" fill="#231f20"/>
  <rect x="1007.09" y="706.87" width="13.39" height="13.39" transform="translate(1727.35 -300.22) rotate(90)" fill="#231f20"/>
  <rect x="1007.09" y="751.81" width="13.39" height="13.39" transform="translate(1772.3 -255.27) rotate(90)" fill="#231f20"/>
  <rect x="1007.09" y="795.36" width="13.39" height="13.39" transform="translate(1815.84 -211.73) rotate(90)" fill="#231f20"/>
  <rect x="1007.09" y="837.15" width="13.39" height="13.39" transform="translate(1857.63 -169.94) rotate(90)" fill="#231f20"/>
  <rect x="1007.09" y="880.69" width="13.39" height="13.39" transform="translate(1901.18 -126.4) rotate(90)" fill="#231f20"/>
  <rect x="1007.09" y="921.75" width="13.39" height="13.39" transform="translate(1942.24 -85.34) rotate(90)" fill="#231f20"/>
  <rect x="1007.09" y="965.5" width="13.39" height="13.39" transform="translate(1985.98 -41.59) rotate(90)" fill="#231f20"/>
  <rect x="1007.09" y="1008.09" width="13.39" height="13.39" transform="translate(2028.58 1) rotate(90)" fill="#231f20"/>
  <rect x="1007.09" y="1051.84" width="13.39" height="13.39" transform="translate(2072.32 44.75) rotate(90)" fill="#231f20"/>
  <rect x="575.35" y="881.39" width="13.39" height="13.39" transform="translate(1470.14 306.05) rotate(90)" fill="#231f20"/>
  <rect x="576.39" y="921.75" width="13.39" height="13.39" transform="translate(1511.54 345.36) rotate(90)" fill="#231f20"/>
  <rect x="533.4" y="791.36" width="13.39" height="13.39" transform="translate(1338.16 257.96) rotate(90)" fill="#231f20"/>
  <rect x="533.4" y="834.91" width="13.39" height="13.39" transform="translate(1381.71 301.51) rotate(90)" fill="#231f20"/>
  <rect x="660.49" y="879.99" width="13.39" height="13.39" transform="translate(1553.88 219.5) rotate(90)" fill="#231f20"/>
  <rect x="661.54" y="1008.09" width="13.39" height="13.39" transform="translate(1683.02 346.56) rotate(90)" fill="#231f20"/>
  <rect x="661.54" y="1051.84" width="13.39" height="13.39" transform="translate(1726.77 390.3) rotate(90)" fill="#231f20"/>
  <rect x="705.99" y="1008.09" width="13.39" height="13.39" transform="translate(1727.48 302.1) rotate(90)" fill="#231f20"/>
  <rect x="705.99" y="1051.84" width="13.39" height="13.39" transform="translate(1771.23 345.85) rotate(90)" fill="#231f20"/>
  <rect x="832.82" y="14.83" width="13.39" height="13.39" transform="translate(861.04 -817.99) rotate(90)" fill="#231f20"/>
  <rect x="832.82" y="58.38" width="13.39" height="13.39" transform="translate(904.59 -774.44) rotate(90)" fill="#231f20"/>
  <rect x="790.17" y="14.83" width="13.39" height="13.39" transform="translate(818.39 -775.34) rotate(90)" fill="#231f20"/>
  <rect x="875.31" y="100.32" width="13.39" height="13.39" transform="translate(989.03 -774.99) rotate(90)" fill="#231f20"/>
  <rect x="875.31" y="143.87" width="13.39" height="13.39" transform="translate(1032.57 -731.45) rotate(90)" fill="#231f20"/>
  <rect x="919.77" y="100.32" width="13.39" height="13.39" transform="translate(1033.48 -819.45) rotate(90)" fill="#231f20"/>
  <rect x="919.77" y="143.87" width="13.39" height="13.39" transform="translate(1077.03 -775.9) rotate(90)" fill="#231f20"/>
  <rect x="788.37" y="100.32" width="13.39" height="13.39" transform="translate(902.08 -688.05) rotate(90)" fill="#231f20"/>
  <rect x="788.37" y="143.87" width="13.39" height="13.39" transform="translate(945.63 -644.5) rotate(90)" fill="#231f20"/>
  <rect x="832.82" y="100.32" width="13.39" height="13.39" transform="translate(946.53 -732.5) rotate(90)" fill="#231f20"/>
  <rect x="832.82" y="143.87" width="13.39" height="13.39" transform="translate(990.08 -688.96) rotate(90)" fill="#231f20"/>
  <rect x="703.14" y="100.32" width="13.39" height="13.39" transform="translate(816.85 -602.82) rotate(90)" fill="#231f20"/>
  <rect x="703.14" y="143.87" width="13.39" height="13.39" transform="translate(860.4 -559.28) rotate(90)" fill="#231f20"/>
  <rect x="747.6" y="100.32" width="13.39" height="13.39" transform="translate(861.31 -647.28) rotate(90)" fill="#231f20"/>
  <rect x="747.6" y="143.87" width="13.39" height="13.39" transform="translate(904.86 -603.73) rotate(90)" fill="#231f20"/>
  <rect x="788.37" y="187.61" width="13.39" height="13.39" transform="translate(989.37 -600.76) rotate(90)" fill="#231f20"/>
  <rect x="788.37" y="231.15" width="13.39" height="13.39" transform="translate(1032.91 -557.21) rotate(90)" fill="#231f20"/>
  <rect x="747.6" y="187.61" width="13.39" height="13.39" transform="translate(948.6 -559.99) rotate(90)" fill="#231f20"/>
  <rect x="747.6" y="231.15" width="13.39" height="13.39" transform="translate(992.14 -516.44) rotate(90)" fill="#231f20"/>
  <rect x="616.74" y="143.87" width="13.39" height="13.39" transform="translate(774 -472.88) rotate(90)" fill="#231f20"/>
  <rect x="661.2" y="143.87" width="13.39" height="13.39" transform="translate(818.46 -517.33) rotate(90)" fill="#231f20"/>
  <rect x="703.14" y="14.81" width="13.39" height="13.39" transform="translate(731.34 -688.33) rotate(90)" fill="#231f20"/>
  <rect x="703.14" y="58.35" width="13.39" height="13.39" transform="translate(774.89 -644.79) rotate(90)" fill="#231f20"/>
  <rect x="747.6" y="14.81" width="13.39" height="13.39" transform="translate(775.8 -732.79) rotate(90)" fill="#231f20"/>
  <rect x="747.6" y="58.35" width="13.39" height="13.39" transform="translate(819.34 -689.24) rotate(90)" fill="#231f20"/>
  <rect x="875.31" y="15.65" width="13.39" height="13.39" transform="translate(904.36 -859.66) rotate(90)" fill="#231f20"/>
  <rect x="875.31" y="59.2" width="13.39" height="13.39" transform="translate(947.91 -816.11) rotate(90)" fill="#231f20"/>
  <rect x="919.77" y="15.65" width="13.39" height="13.39" transform="translate(948.81 -904.12) rotate(90)" fill="#231f20"/>
  <rect x="919.77" y="59.2" width="13.39" height="13.39" transform="translate(992.36 -860.57) rotate(90)" fill="#231f20"/>
  <rect x="875.31" y="229.37" width="13.39" height="13.39" transform="translate(1118.08 -645.94) rotate(90)" fill="#231f20"/>
  <rect x="875.31" y="272.92" width="13.39" height="13.39" transform="translate(1161.62 -602.4) rotate(90)" fill="#231f20"/>
  <rect x="919.77" y="229.37" width="13.39" height="13.39" transform="translate(1162.53 -690.4) rotate(90)" fill="#231f20"/>
  <rect x="919.77" y="272.92" width="13.39" height="13.39" transform="translate(1206.08 -646.85) rotate(90)" fill="#231f20"/>
  <rect x="875.31" y="317.21" width="13.39" height="13.39" transform="translate(1205.92 -558.1) rotate(90)" fill="#231f20"/>
  <rect x="875.31" y="360.75" width="13.39" height="13.39" transform="translate(1249.46 -514.56) rotate(90)" fill="#231f20"/>
  <rect x="919.77" y="317.21" width="13.39" height="13.39" transform="translate(1250.37 -602.56) rotate(90)" fill="#231f20"/>
  <rect x="743.91" y="317.21" width="13.39" height="13.39" transform="translate(1074.51 -426.7) rotate(90)" fill="#231f20"/>
  <rect x="788.37" y="317.21" width="13.39" height="13.39" transform="translate(1118.97 -471.16) rotate(90)" fill="#231f20"/>
  <rect x="659.94" y="317.21" width="13.39" height="13.39" transform="translate(990.54 -342.73) rotate(90)" fill="#231f20"/>
  <rect x="704.4" y="317.21" width="13.39" height="13.39" transform="translate(1035 -387.19) rotate(90)" fill="#231f20"/>
  <rect x="919.77" y="360.75" width="13.39" height="13.39" transform="translate(1293.92 -559.01) rotate(90)" fill="#231f20"/>
  <rect x="964.15" y="317.21" width="13.39" height="13.39" transform="translate(1294.75 -646.94) rotate(90)" fill="#231f20"/>
  <rect x="964.15" y="360.75" width="13.39" height="13.39" transform="translate(1338.3 -603.39) rotate(90)" fill="#231f20"/>
  <rect x="876.57" y="403.94" width="13.39" height="13.39" transform="translate(1293.9 -472.63) rotate(90)" fill="#231f20"/>
  <rect x="921.02" y="403.94" width="13.39" height="13.39" transform="translate(1338.35 -517.09) rotate(90)" fill="#231f20"/>
  <rect x="789.62" y="403.94" width="13.39" height="13.39" transform="translate(1206.95 -385.69) rotate(90)" fill="#231f20"/>
  <rect x="834.08" y="403.94" width="13.39" height="13.39" transform="translate(1251.4 -430.14) rotate(90)" fill="#231f20"/>
  <rect x="875.31" y="188.25" width="13.39" height="13.39" transform="translate(1076.96 -687.07) rotate(90)" fill="#231f20"/>
  <rect x="919.77" y="188.25" width="13.39" height="13.39" transform="translate(1121.41 -731.52) rotate(90)" fill="#231f20"/>
  <rect x="964.15" y="143.87" width="13.39" height="13.39" transform="translate(1121.41 -820.28) rotate(90)" fill="#231f20"/>
  <rect x="964.15" y="229.37" width="13.39" height="13.39" transform="translate(1206.91 -734.78) rotate(90)" fill="#231f20"/>
  <rect x="964.15" y="188.25" width="13.39" height="13.39" transform="translate(1165.79 -775.9) rotate(90)" fill="#231f20"/>
  <rect x="964.15" y="13.96" width="13.39" height="13.39" transform="translate(991.5 -950.19) rotate(90)" fill="#231f20"/>
  <rect x="964.15" y="58.34" width="13.39" height="13.39" transform="translate(1035.88 -905.81) rotate(90)" fill="#231f20"/>
  <rect x="705.5" y="879.99" width="13.39" height="13.39" transform="translate(1598.88 174.5) rotate(90)" fill="#231f20"/>
  <rect x="747.6" y="879.99" width="13.39" height="13.39" transform="translate(1640.99 132.39) rotate(90)" fill="#231f20"/>
  <rect x="748.85" y="836.13" width="13.39" height="13.39" transform="translate(1598.38 87.28) rotate(90)" fill="#231f20"/>
  <rect x="793.5" y="879.99" width="13.39" height="13.39" transform="translate(1686.88 86.49) rotate(90)" fill="#231f20"/>
  <rect x="835.09" y="879.99" width="13.39" height="13.39" transform="translate(1728.48 44.9) rotate(90)" fill="#231f20"/>
  <rect x="877.2" y="879.99" width="13.39" height="13.39" transform="translate(1770.59 2.79) rotate(90)" fill="#231f20"/>
  <rect x="878.45" y="619.82" width="13.39" height="13.39" transform="translate(1511.66 -258.64) rotate(90)" fill="#231f20"/>
  <rect x="923.1" y="879.99" width="13.39" height="13.39" transform="translate(1816.48 -43.11) rotate(90)" fill="#231f20"/>
  <rect x="964.69" y="879.99" width="13.39" height="13.39" transform="translate(1858.08 -84.7) rotate(90)" fill="#231f20"/>
  <rect x="836.14" y="1051.84" width="13.39" height="13.39" transform="translate(1901.37 215.7) rotate(90)" fill="#231f20"/>
  <rect x="878.24" y="1051.84" width="13.39" height="13.39" transform="translate(1943.48 173.6) rotate(90)" fill="#231f20"/>
  <rect x="924.14" y="1051.84" width="13.39" height="13.39" transform="translate(1989.38 127.7) rotate(90)" fill="#231f20"/>
  <rect x="965.74" y="1051.84" width="13.39" height="13.39" transform="translate(2030.97 86.1) rotate(90)" fill="#231f20"/>
  <rect x="402.22" y="533.29" width="13.39" height="13.39" transform="translate(948.9 131.08) rotate(90)" fill="#231f20"/>
  <rect x="445.07" y="533.29" width="13.39" height="13.39" transform="translate(991.75 88.23) rotate(90)" fill="#231f20"/>
  <rect x="357.35" y="490" width="13.39" height="13.39" transform="translate(860.74 132.65) rotate(90)" fill="#231f20"/>
  <rect x="445.02" y="576.33" width="13.39" height="13.39" transform="translate(1034.75 131.31) rotate(90)" fill="#231f20"/>
  <rect x="445.02" y="619.82" width="13.39" height="13.39" transform="translate(1078.23 174.79) rotate(90)" fill="#231f20"/>
  <rect x="490.2" y="662.68" width="13.39" height="13.39" transform="translate(1166.28 172.48) rotate(90)" fill="#231f20"/>
  <rect x="490.2" y="705.83" width="13.39" height="13.39" transform="translate(1209.42 215.62) rotate(90)" fill="#231f20"/>
  <rect x="533.4" y="707.35" width="13.39" height="13.39" transform="translate(1254.15 173.95) rotate(90)" fill="#231f20"/>
  <rect x="533.4" y="750.74" width="13.39" height="13.39" transform="translate(1297.53 217.33) rotate(90)" fill="#231f20"/>
  <rect x="576.6" y="748.03" width="13.39" height="13.39" transform="translate(1338.03 171.43) rotate(90)" fill="#231f20"/>
  <rect x="576.6" y="791.42" width="13.39" height="13.39" transform="translate(1381.41 214.82) rotate(90)" fill="#231f20"/>
  <rect x="269.85" y="143.35" width="13.39" height="13.39" transform="translate(426.6 -126.5) rotate(90)" fill="#231f20"/>
  <rect x="269.85" y="187.4" width="13.39" height="13.39" transform="translate(470.64 -82.46) rotate(90)" fill="#231f20"/>
  <rect x="269.85" y="230.07" width="13.39" height="13.39" transform="translate(513.32 -39.78) rotate(90)" fill="#231f20"/>
  <rect x="13" y="144.68" width="13.39" height="13.39" transform="translate(171.07 131.68) rotate(90)" fill="#231f20"/>
  <rect x="11.87" y="13.27" width="13.39" height="13.39" transform="translate(38.54 1.4) rotate(90)" fill="#231f20"/>
  <rect x="11.87" y="57.32" width="13.39" height="13.39" transform="translate(82.58 45.45) rotate(90)" fill="#231f20"/>
  <rect x="11.87" y="99.99" width="13.39" height="13.39" transform="translate(125.26 88.12) rotate(90)" fill="#231f20"/>
  <rect x="57.7" y="144.68" width="13.39" height="13.39" transform="translate(215.77 86.98) rotate(90)" fill="#231f20"/>
  <rect x="57.7" y="99.99" width="13.39" height="13.39" transform="translate(171.09 42.3) rotate(90)" fill="#231f20"/>
  <rect x="57.7" y="229.82" width="13.39" height="13.39" transform="translate(300.91 172.12) rotate(90)" fill="#231f20"/>
  <rect x="57.7" y="185.32" width="13.39" height="13.39" transform="translate(256.41 127.62) rotate(90)" fill="#231f20"/>
  <rect x="101.02" y="144.68" width="13.39" height="13.39" transform="translate(259.09 43.66) rotate(90)" fill="#231f20"/>
  <rect x="101.02" y="230" width="13.39" height="13.39" transform="translate(344.41 128.98) rotate(90)" fill="#231f20"/>
  <rect x="101.02" y="273.27" width="13.39" height="13.39" transform="translate(387.69 172.26) rotate(90)" fill="#231f20"/>
  <rect x="101.02" y="185.32" width="13.39" height="13.39" transform="translate(299.73 84.3) rotate(90)" fill="#231f20"/>
  <rect x="144.65" y="17.14" width="13.39" height="13.39" transform="translate(175.19 -127.5) rotate(90)" fill="#231f20"/>
  <rect x="101.02" y="102.47" width="13.39" height="13.39" transform="translate(216.88 1.45) rotate(90)" fill="#231f20"/>
  <rect x="144.65" y="57.78" width="13.39" height="13.39" transform="translate(215.83 -86.86) rotate(90)" fill="#231f20"/>
  <rect x="99.04" y="881.24" width="13.39" height="13.39" transform="translate(993.67 782.2) rotate(90)" fill="#231f20"/>
  <rect x="100.08" y="921.75" width="13.39" height="13.39" transform="translate(1035.23 821.67) rotate(90)" fill="#231f20"/>
  <rect x="100.08" y="965.5" width="13.39" height="13.39" transform="translate(1078.97 865.41) rotate(90)" fill="#231f20"/>
  <rect x="100.08" y="1008.09" width="13.39" height="13.39" transform="translate(1121.57 908.01) rotate(90)" fill="#231f20"/>
  <rect x="100.08" y="1051.84" width="13.39" height="13.39" transform="translate(1165.32 951.76) rotate(90)" fill="#231f20"/>
  <rect x="99.04" y="749.83" width="13.39" height="13.39" transform="translate(862.26 650.79) rotate(90)" fill="#231f20"/>
  <rect x="99.04" y="793.88" width="13.39" height="13.39" transform="translate(906.31 694.84) rotate(90)" fill="#231f20"/>
  <rect x="99.04" y="836.55" width="13.39" height="13.39" transform="translate(948.99 737.52) rotate(90)" fill="#231f20"/>
  <rect x="57.7" y="708.06" width="13.39" height="13.39" transform="translate(779.15 650.36) rotate(90)" fill="#231f20"/>
  <rect x="57.7" y="750.73" width="13.39" height="13.39" transform="translate(821.83 693.04) rotate(90)" fill="#231f20"/>
  <rect x="57.7" y="576.33" width="13.39" height="13.39" transform="translate(647.42 518.63) rotate(90)" fill="#231f20"/>
  <rect x="57.7" y="619.82" width="13.39" height="13.39" transform="translate(690.91 562.12) rotate(90)" fill="#231f20"/>
  <rect x="57.7" y="662.68" width="13.39" height="13.39" transform="translate(733.77 604.99) rotate(90)" fill="#231f20"/>
  <rect x="143.35" y="881.24" width="13.39" height="13.39" transform="translate(1037.98 737.89) rotate(90)" fill="#231f20"/>
  <rect x="144.39" y="921.75" width="13.39" height="13.39" transform="translate(1079.54 777.36) rotate(90)" fill="#231f20"/>
  <rect x="143.35" y="749.83" width="13.39" height="13.39" transform="translate(906.57 606.48) rotate(90)" fill="#231f20"/>
  <rect x="143.35" y="793.88" width="13.39" height="13.39" transform="translate(950.62 650.53) rotate(90)" fill="#231f20"/>
  <rect x="143.35" y="836.55" width="13.39" height="13.39" transform="translate(993.29 693.21) rotate(90)" fill="#231f20"/>
  <rect x="186.76" y="662.68" width="13.39" height="13.39" transform="translate(862.84 475.92) rotate(90)" fill="#231f20"/>
  <rect x="186.76" y="706.96" width="13.39" height="13.39" transform="translate(907.11 520.2) rotate(90)" fill="#231f20"/>
  <rect x="186.76" y="749.64" width="13.39" height="13.39" transform="translate(949.79 562.87) rotate(90)" fill="#231f20"/>
  <rect x="403.59" y="1008.09" width="13.39" height="13.39" transform="translate(1425.08 604.5) rotate(90)" fill="#231f20"/>
  <rect x="403.59" y="1051.84" width="13.39" height="13.39" transform="translate(1468.83 648.25) rotate(90)" fill="#231f20"/>
  <rect x="402.55" y="881.45" width="13.39" height="13.39" transform="translate(1297.39 478.9) rotate(90)" fill="#231f20"/>
  <rect x="403.59" y="921.75" width="13.39" height="13.39" transform="translate(1338.74 518.16) rotate(90)" fill="#231f20"/>
  <rect x="403.59" y="965.5" width="13.39" height="13.39" transform="translate(1382.48 561.91) rotate(90)" fill="#231f20"/>
  <rect x="359.35" y="881.45" width="13.39" height="13.39" transform="translate(1254.19 522.1) rotate(90)" fill="#231f20"/>
  <rect x="314.97" y="881.45" width="13.39" height="13.39" transform="translate(1209.81 566.48) rotate(90)" fill="#231f20"/>
  <rect x="271.77" y="881.45" width="13.39" height="13.39" transform="translate(1166.61 609.68) rotate(90)" fill="#231f20"/>
  <rect x="271.77" y="836.55" width="13.39" height="13.39" transform="translate(1121.72 564.78) rotate(90)" fill="#231f20"/>
  <rect x="360.39" y="921.75" width="13.39" height="13.39" transform="translate(1295.54 561.36) rotate(90)" fill="#231f20"/>
  <rect x="360.39" y="965.5" width="13.39" height="13.39" transform="translate(1339.28 605.11) rotate(90)" fill="#231f20"/>
</svg>