<?xml version="1.0" encoding="UTF-8"?>
<svg id="_8" data-name="8" xmlns="http://www.w3.org/2000/svg" viewBox="0 0 1080 1080">
  <rect x="605.37" y="562.68" width="40.84" height="40.84" fill="#231f20"/>
  <rect x="605.37" y="605.88" width="40.84" height="40.84" fill="#231f20"/>
  <rect x="86.95" y="605.88" width="40.84" height="40.84" fill="#231f20"/>
  <rect x="129.98" y="605.88" width="40.84" height="40.84" fill="#231f20"/>
  <rect x="173.64" y="649.19" width="40.84" height="40.84" fill="#231f20"/>
  <rect x="216.84" y="649.19" width="40.84" height="40.84" fill="#231f20"/>
  <rect x="260.04" y="649.19" width="40.84" height="40.84" fill="#231f20"/>
  <rect x="43.59" y="605.88" width="40.84" height="40.84" fill="#231f20"/>
  <rect x=".26" y="605.88" width="40.84" height="40.84" fill="#231f20"/>
  <rect x="475.36" y="649.19" width="40.84" height="40.84" fill="#231f20"/>
  <rect x="648.9" y="649.19" width="40.84" height="40.84" fill="#231f20"/>
  <rect x="648.9" y="735.48" width="40.84" height="40.84" fill="#231f20"/>
  <rect x="691.36" y="692.28" width="40.84" height="40.84" fill="#231f20"/>
  <rect x="734.56" y="735.48" width="40.84" height="40.84" fill="#231f20"/>
  <rect x="605.37" y="476.28" width="40.84" height="40.84" fill="#231f20"/>
  <rect x="605.37" y="519.48" width="40.84" height="40.84" fill="#231f20"/>
  <rect x="664.47" y="619.95" width="13.39" height="13.39" fill="#231f20"/>
  <rect x="621.23" y="662.91" width="13.39" height="13.39" fill="#231f20"/>
  <rect x="577.31" y="662.91" width="13.39" height="13.39" fill="#231f20"/>
  <rect x="577.31" y="619.6" width="13.39" height="13.39" fill="#231f20"/>
  <rect x="533.38" y="619.6" width="13.39" height="13.39" fill="#231f20"/>
  <rect x="490.48" y="619.6" width="13.39" height="13.39" fill="#231f20"/>
  <rect x="533.38" y="662.91" width="13.39" height="13.39" fill="#231f20"/>
  <rect x="405.54" y="662.91" width="13.39" height="13.39" fill="#231f20"/>
  <rect x="361.62" y="662.91" width="13.39" height="13.39" fill="#231f20"/>
  <rect x="317.69" y="662.91" width="13.39" height="13.39" fill="#231f20"/>
  <rect x="12.94" y="662.91" width="13.39" height="13.39" fill="#231f20"/>
  <rect x="145.16" y="662.91" width="13.39" height="13.39" fill="#231f20"/>
  <rect x="101.24" y="662.91" width="13.39" height="13.39" fill="#231f20"/>
  <rect x="57.31" y="662.91" width="13.39" height="13.39" fill="#231f20"/>
  <rect x="447.59" y="619.6" width="13.39" height="13.39" fill="#231f20"/>
  <rect x="230.09" y="360" width="13.39" height="13.39" transform="translate(-129.91 603.48) rotate(-90)" fill="#231f20"/>
  <rect x="230.09" y="533.81" width="13.39" height="13.39" transform="translate(-303.72 777.29) rotate(-90)" fill="#231f20"/>
  <rect x="273.09" y="489.88" width="13.39" height="13.39" transform="translate(-216.79 776.36) rotate(-90)" fill="#231f20"/>
  <rect x="273.09" y="533.81" width="13.39" height="13.39" transform="translate(-260.72 820.29) rotate(-90)" fill="#231f20"/>
  <rect x="230.09" y="404.42" width="13.39" height="13.39" transform="translate(-174.33 647.9) rotate(-90)" fill="#231f20"/>
  <rect x="230.09" y="448.34" width="13.39" height="13.39" transform="translate(-218.26 691.82) rotate(-90)" fill="#231f20"/>
  <rect x="230.09" y="231.62" width="13.39" height="13.39" transform="translate(-1.53 475.1) rotate(-90)" fill="#231f20"/>
  <rect x="230.09" y="276.03" width="13.39" height="13.39" transform="translate(-45.94 519.51) rotate(-90)" fill="#231f20"/>
  <rect x="230.09" y="319.96" width="13.39" height="13.39" transform="translate(-89.87 563.44) rotate(-90)" fill="#231f20"/>
  <rect x="273.09" y="99.35" width="13.39" height="13.39" transform="translate(173.74 385.83) rotate(-90)" fill="#231f20"/>
  <rect x="273.09" y="143.76" width="13.39" height="13.39" transform="translate(129.33 430.24) rotate(-90)" fill="#231f20"/>
  <rect x="273.09" y="187.69" width="13.39" height="13.39" transform="translate(85.4 474.17) rotate(-90)" fill="#231f20"/>
  <rect x="230.09" y="143.76" width="13.39" height="13.39" transform="translate(86.32 387.24) rotate(-90)" fill="#231f20"/>
  <rect x="230.09" y="187.69" width="13.39" height="13.39" transform="translate(42.4 431.17) rotate(-90)" fill="#231f20"/>
  <rect x="273.09" y="16.54" width="13.39" height="13.39" transform="translate(256.55 303.02) rotate(-90)" fill="#231f20"/>
  <rect x="273.09" y="60.46" width="13.39" height="13.39" transform="translate(212.62 346.94) rotate(-90)" fill="#231f20"/>
  <rect x="273.09" y="404.42" width="13.39" height="13.39" transform="translate(-131.33 690.9) rotate(-90)" fill="#231f20"/>
  <rect x="273.09" y="448.34" width="13.39" height="13.39" transform="translate(-175.26 734.82) rotate(-90)" fill="#231f20"/>
  <rect x="273.09" y="231.62" width="13.39" height="13.39" transform="translate(41.47 518.1) rotate(-90)" fill="#231f20"/>
  <rect x="273.09" y="275.54" width="13.39" height="13.39" transform="translate(-2.46 562.02) rotate(-90)" fill="#231f20"/>
  <rect x="619.1" y="97.07" width="13.39" height="13.39" transform="translate(522.03 729.56) rotate(-90)" fill="#231f20"/>
  <rect x="619.1" y="141.48" width="13.39" height="13.39" transform="translate(477.62 773.98) rotate(-90)" fill="#231f20"/>
  <rect x="619.1" y="185.41" width="13.39" height="13.39" transform="translate(433.69 817.9) rotate(-90)" fill="#231f20"/>
  <rect x="619.1" y="14.26" width="13.39" height="13.39" transform="translate(604.84 646.75) rotate(-90)" fill="#231f20"/>
  <rect x="619.1" y="58.19" width="13.39" height="13.39" transform="translate(560.91 690.68) rotate(-90)" fill="#231f20"/>
  <rect x="619.1" y="229.34" width="13.39" height="13.39" transform="translate(389.76 861.83) rotate(-90)" fill="#231f20"/>
  <rect x="619.1" y="273.26" width="13.39" height="13.39" transform="translate(345.83 905.76) rotate(-90)" fill="#231f20"/>
  <rect x="664.47" y="447.62" width="13.39" height="13.39" transform="translate(216.85 1125.48) rotate(-90)" fill="#231f20"/>
  <rect x="664.47" y="491.54" width="13.39" height="13.39" transform="translate(172.93 1169.4) rotate(-90)" fill="#231f20"/>
  <rect x="664.47" y="363.27" width="13.39" height="13.39" transform="translate(301.2 1041.13) rotate(-90)" fill="#231f20"/>
  <rect x="664.47" y="407.2" width="13.39" height="13.39" transform="translate(257.27 1085.06) rotate(-90)" fill="#231f20"/>
  <rect x="836.44" y="878.59" width="13.39" height="13.39" transform="translate(-42.14 1728.43) rotate(-90)" fill="#231f20"/>
  <rect x="836.44" y="922.52" width="13.39" height="13.39" transform="translate(-86.07 1772.35) rotate(-90)" fill="#231f20"/>
  <rect x="836.44" y="794.24" width="13.39" height="13.39" transform="translate(42.2 1644.08) rotate(-90)" fill="#231f20"/>
  <rect x="836.44" y="838.17" width="13.39" height="13.39" transform="translate(-1.73 1688.01) rotate(-90)" fill="#231f20"/>
  <rect x="792.52" y="878.59" width="13.39" height="13.39" transform="translate(-86.07 1684.5) rotate(-90)" fill="#231f20"/>
  <rect x="792.52" y="922.52" width="13.39" height="13.39" transform="translate(-130 1728.43) rotate(-90)" fill="#231f20"/>
  <rect x="836.44" y="966.44" width="13.39" height="13.39" transform="translate(-130 1816.28) rotate(-90)" fill="#231f20"/>
  <rect x="836.44" y="1010.37" width="13.39" height="13.39" transform="translate(-173.93 1860.21) rotate(-90)" fill="#231f20"/>
  <rect x="792.52" y="966.44" width="13.39" height="13.39" transform="translate(-173.93 1772.35) rotate(-90)" fill="#231f20"/>
  <rect x="792.52" y="1010.37" width="13.39" height="13.39" transform="translate(-217.85 1816.28) rotate(-90)" fill="#231f20"/>
  <rect x="836.44" y="1054.3" width="13.39" height="13.39" transform="translate(-217.85 1904.13) rotate(-90)" fill="#231f20"/>
  <rect x="792.52" y="1054.3" width="13.39" height="13.39" transform="translate(-261.78 1860.21) rotate(-90)" fill="#231f20"/>
  <rect x="792.52" y="794.24" width="13.39" height="13.39" transform="translate(-1.73 1600.15) rotate(-90)" fill="#231f20"/>
  <rect x="792.52" y="838.17" width="13.39" height="13.39" transform="translate(-45.65 1644.08) rotate(-90)" fill="#231f20"/>
  <rect x="664.47" y="141.48" width="13.39" height="13.39" transform="translate(522.99 819.35) rotate(-90)" fill="#231f20"/>
  <rect x="664.47" y="185.41" width="13.39" height="13.39" transform="translate(479.06 863.27) rotate(-90)" fill="#231f20"/>
  <rect x="664.47" y="229.34" width="13.39" height="13.39" transform="translate(435.13 907.2) rotate(-90)" fill="#231f20"/>
  <rect x="664.47" y="273.26" width="13.39" height="13.39" transform="translate(391.2 951.13) rotate(-90)" fill="#231f20"/>
  <rect x="186.69" y="576.7" width="13.39" height="13.39" transform="translate(-390.02 776.78) rotate(-90)" fill="#231f20"/>
  <rect x="186.69" y="619.6" width="13.39" height="13.39" transform="translate(-432.91 819.68) rotate(-90)" fill="#231f20"/>
  <rect x="447.59" y="662.91" width="13.39" height="13.39" fill="#231f20"/>
  <rect x="879.64" y="706.86" width="13.39" height="13.39" fill="#231f20"/>
  <rect x="748.29" y="706.86" width="13.39" height="13.39" fill="#231f20"/>
  <rect x="836.44" y="750.1" width="13.39" height="13.39" fill="#231f20"/>
  <rect x="792.52" y="750.1" width="13.39" height="13.39" fill="#231f20"/>
  <rect x="921.69" y="706.86" width="13.39" height="13.39" fill="#231f20"/>
  <rect x="966.04" y="706.86" width="13.39" height="13.39" fill="#231f20"/>
  <rect x="1008.09" y="706.86" width="13.39" height="13.39" fill="#231f20"/>
  <rect x="1050.13" y="706.86" width="13.39" height="13.39" fill="#231f20"/>
  <rect x="664.47" y="706" width="13.39" height="13.39" fill="#231f20"/>
</svg>