<?xml version="1.0" encoding="UTF-8"?>
<svg id="_9" data-name="9" xmlns="http://www.w3.org/2000/svg" viewBox="0 0 1080 1080">
  <rect x="691.66" y="735.6" width="40.84" height="40.84" fill="#231f20"/>
  <rect x="303.15" y="606.16" width="40.84" height="40.84" fill="#231f20"/>
  <rect x="259.95" y="606.16" width="40.84" height="40.84" fill="#231f20"/>
  <rect x="389.55" y="562.64" width="40.84" height="40.84" fill="#231f20"/>
  <rect x="346.35" y="562.64" width="40.84" height="40.84" fill="#231f20"/>
  <rect x="605.48" y="562.64" width="40.84" height="40.84" fill="#231f20"/>
  <rect x="562.28" y="562.64" width="40.84" height="40.84" fill="#231f20"/>
  <rect x="692.17" y="476.68" width="40.84" height="40.84" fill="#231f20"/>
  <rect x="648.46" y="476.68" width="40.84" height="40.84" fill="#231f20"/>
  <rect x="519.08" y="606.16" width="40.84" height="40.84" fill="#231f20"/>
  <rect x="562.28" y="606.16" width="40.84" height="40.84" fill="#231f20"/>
  <rect x="475.88" y="606.16" width="40.84" height="40.84" fill="#231f20"/>
  <rect x="795.17" y="749.33" width="13.39" height="13.39" fill="#231f20"/>
  <rect x="750.48" y="749.33" width="13.39" height="13.39" fill="#231f20"/>
  <rect x="880.23" y="707.05" width="13.39" height="13.39" fill="#231f20"/>
  <rect x="836.4" y="749.33" width="13.39" height="13.39" fill="#231f20"/>
  <rect x="793.77" y="707.05" width="13.39" height="13.39" fill="#231f20"/>
  <rect x="750.3" y="707.05" width="13.39" height="13.39" fill="#231f20"/>
  <rect x="838.97" y="576.37" width="13.39" height="13.39" fill="#231f20"/>
  <rect x="750.54" y="576.37" width="13.39" height="13.39" fill="#231f20"/>
  <rect x="706.31" y="576.37" width="13.39" height="13.39" fill="#231f20"/>
  <rect x="750.57" y="534.55" width="13.39" height="13.39" fill="#231f20"/>
  <rect x="706.34" y="534.55" width="13.39" height="13.39" fill="#231f20"/>
  <rect x="662.19" y="534.55" width="13.39" height="13.39" fill="#231f20"/>
  <rect x="617.95" y="534.55" width="13.39" height="13.39" fill="#231f20"/>
  <rect x="751.56" y="448.6" width="13.39" height="13.39" fill="#231f20"/>
  <rect x="705.9" y="448.6" width="13.39" height="13.39" fill="#231f20"/>
  <rect x="752.39" y="404.43" width="13.39" height="13.39" fill="#231f20"/>
  <rect x="794.06" y="448.6" width="13.39" height="13.39" fill="#231f20"/>
  <rect x="794.88" y="404.21" width="13.39" height="13.39" fill="#231f20"/>
  <rect x="838.97" y="448.6" width="13.39" height="13.39" fill="#231f20"/>
  <rect x="838.97" y="404.21" width="13.39" height="13.39" fill="#231f20"/>
  <rect x="880.46" y="448.6" width="13.39" height="13.39" fill="#231f20"/>
  <rect x="880.65" y="401.36" width="13.39" height="13.39" fill="#231f20"/>
  <rect x="880.46" y="534.55" width="13.39" height="13.39" fill="#231f20"/>
  <rect x="880.46" y="490.41" width="13.39" height="13.39" fill="#231f20"/>
  <rect x="838.97" y="534.55" width="13.39" height="13.39" fill="#231f20"/>
  <rect x="838.97" y="490.41" width="13.39" height="13.39" fill="#231f20"/>
  <rect x="880.46" y="619.89" width="13.39" height="13.39" fill="#231f20"/>
  <rect x="880.46" y="576.37" width="13.39" height="13.39" fill="#231f20"/>
  <rect x="837.38" y="359.56" width="13.39" height="13.39" fill="#231f20"/>
  <rect x="837.38" y="231.86" width="13.39" height="13.39" fill="#231f20"/>
  <rect x="837.38" y="187.22" width="13.39" height="13.39" fill="#231f20"/>
  <rect x="881.03" y="231.86" width="13.39" height="13.39" fill="#231f20"/>
  <rect x="881.03" y="187.22" width="13.39" height="13.39" fill="#231f20"/>
  <rect x="881.03" y="318.26" width="13.39" height="13.39" fill="#231f20"/>
  <rect x="881.03" y="273.62" width="13.39" height="13.39" fill="#231f20"/>
  <rect x="837.38" y="318.03" width="13.39" height="13.39" fill="#231f20"/>
  <rect x="837.38" y="273.39" width="13.39" height="13.39" fill="#231f20"/>
  <rect x="837.38" y="104.38" width="13.39" height="13.39" fill="#231f20"/>
  <rect x="837.38" y="59.74" width="13.39" height="13.39" fill="#231f20"/>
  <rect x="881.03" y="104.38" width="13.39" height="13.39" fill="#231f20"/>
  <rect x="881.03" y="59.74" width="13.39" height="13.39" fill="#231f20"/>
  <rect x="837.38" y="17.84" width="13.39" height="13.39" fill="#231f20"/>
  <rect x="881.03" y="17.84" width="13.39" height="13.39" fill="#231f20"/>
  <rect x="881.03" y="146.14" width="13.39" height="13.39" fill="#231f20"/>
  <rect x="837.38" y="145.91" width="13.39" height="13.39" fill="#231f20"/>
  <rect x="708.28" y="104.38" width="13.39" height="13.39" fill="#231f20"/>
  <rect x="751.93" y="104.38" width="13.39" height="13.39" fill="#231f20"/>
  <rect x="751.93" y="146.14" width="13.39" height="13.39" fill="#231f20"/>
  <rect x="708.28" y="145.91" width="13.39" height="13.39" fill="#231f20"/>
  <rect x="620.23" y="103.25" width="13.39" height="13.39" fill="#231f20"/>
  <rect x="663.88" y="103.25" width="13.39" height="13.39" fill="#231f20"/>
  <rect x="577.03" y="59.74" width="13.39" height="13.39" fill="#231f20"/>
  <rect x="620.68" y="59.74" width="13.39" height="13.39" fill="#231f20"/>
  <rect x="489.73" y="59.74" width="13.39" height="13.39" fill="#231f20"/>
  <rect x="533.38" y="59.74" width="13.39" height="13.39" fill="#231f20"/>
  <rect x="663.88" y="15.1" width="13.39" height="13.39" fill="#231f20"/>
  <rect x="707.53" y="15.1" width="13.39" height="13.39" fill="#231f20"/>
  <rect x="620.23" y="15.1" width="13.39" height="13.39" fill="#231f20"/>
  <rect x="404.68" y="59.74" width="13.39" height="13.39" fill="#231f20"/>
  <rect x="361.99" y="59.74" width="13.39" height="13.39" fill="#231f20"/>
  <rect x="448.33" y="59.74" width="13.39" height="13.39" fill="#231f20"/>
  <rect x="275.65" y="17.84" width="13.39" height="13.39" transform="translate(306.89 -257.81) rotate(90)" fill="#231f20"/>
  <rect x="275.65" y="61.49" width="13.39" height="13.39" transform="translate(350.54 -214.16) rotate(90)" fill="#231f20"/>
  <rect x="275.65" y="102.3" width="13.39" height="13.39" transform="translate(391.35 -173.35) rotate(90)" fill="#231f20"/>
  <rect x="275.65" y="145.95" width="13.39" height="13.39" transform="translate(435 -129.7) rotate(90)" fill="#231f20"/>
  <rect x="275.65" y="189.67" width="13.39" height="13.39" transform="translate(478.72 -85.98) rotate(90)" fill="#231f20"/>
  <rect x="275.65" y="233.32" width="13.39" height="13.39" transform="translate(522.37 -42.33) rotate(90)" fill="#231f20"/>
  <rect x="275.65" y="274.13" width="13.39" height="13.39" transform="translate(563.18 -1.52) rotate(90)" fill="#231f20"/>
  <rect x="275.65" y="317.78" width="13.39" height="13.39" transform="translate(606.83 42.13) rotate(90)" fill="#231f20"/>
  <rect x="318.26" y="189.67" width="13.39" height="13.39" transform="translate(521.32 -128.58) rotate(90)" fill="#231f20"/>
  <rect x="318.26" y="233.32" width="13.39" height="13.39" transform="translate(564.97 -84.93) rotate(90)" fill="#231f20"/>
  <rect x="318.26" y="274.13" width="13.39" height="13.39" transform="translate(605.78 -44.12) rotate(90)" fill="#231f20"/>
  <rect x="318.26" y="317.78" width="13.39" height="13.39" transform="translate(649.43 -.47) rotate(90)" fill="#231f20"/>
  <rect x="275.65" y="362.47" width="13.39" height="13.39" transform="translate(651.52 86.82) rotate(90)" fill="#231f20"/>
  <rect x="275.65" y="406.12" width="13.39" height="13.39" transform="translate(695.17 130.47) rotate(90)" fill="#231f20"/>
  <rect x="275.65" y="448.6" width="13.39" height="13.39" transform="translate(737.65 172.95) rotate(90)" fill="#231f20"/>
  <rect x="275.65" y="490.41" width="13.39" height="13.39" transform="translate(779.45 214.76) rotate(90)" fill="#231f20"/>
  <rect x="318.26" y="362.47" width="13.39" height="13.39" transform="translate(694.12 44.22) rotate(90)" fill="#231f20"/>
  <rect x="318.26" y="406.12" width="13.39" height="13.39" transform="translate(737.77 87.87) rotate(90)" fill="#231f20"/>
  <rect x="318.26" y="448.6" width="13.39" height="13.39" transform="translate(780.25 130.35) rotate(90)" fill="#231f20"/>
  <rect x="318.26" y="490.41" width="13.39" height="13.39" transform="translate(822.06 172.15) rotate(90)" fill="#231f20"/>
  <rect x="663.88" y="145.01" width="13.39" height="13.39" fill="#231f20"/>
  <rect x="620.23" y="144.78" width="13.39" height="13.39" fill="#231f20"/>
  <rect x="664.71" y="187.79" width="13.39" height="13.39" fill="#231f20"/>
  <rect x="620.3" y="186.88" width="13.39" height="13.39" fill="#231f20"/>
  <rect x="576.65" y="186.65" width="13.39" height="13.39" fill="#231f20"/>
  <rect x="881.03" y="358.56" width="13.39" height="13.39" fill="#231f20"/>
  <rect x="880.41" y="749.33" width="13.39" height="13.39" fill="#231f20"/>
  <rect x="880.46" y="663.11" width="13.39" height="13.39" fill="#231f20"/>
  <rect x="838.97" y="619.89" width="13.39" height="13.39" fill="#231f20"/>
  <rect x="838.97" y="663.11" width="13.39" height="13.39" fill="#231f20"/>
  <rect x="836.22" y="1053.04" width="13.39" height="13.39" fill="#231f20"/>
  <rect x="836.46" y="794.51" width="13.39" height="13.39" fill="#231f20"/>
  <rect x="836.46" y="881.94" width="13.39" height="13.39" fill="#231f20"/>
  <rect x="836.46" y="837.74" width="13.39" height="13.39" fill="#231f20"/>
  <rect x="836.46" y="967.05" width="13.39" height="13.39" fill="#231f20"/>
  <rect x="836.46" y="924.42" width="13.39" height="13.39" fill="#231f20"/>
  <rect x="836.46" y="1009.47" width="13.39" height="13.39" fill="#231f20"/>
  <rect x="706.72" y="404.21" width="13.39" height="13.39" fill="#231f20"/>
  <rect x="663.18" y="448.6" width="13.39" height="13.39" fill="#231f20"/>
  <rect x="618.95" y="448.6" width="13.39" height="13.39" fill="#231f20"/>
  <rect x="750.3" y="663.11" width="13.39" height="13.39" fill="#231f20"/>
  <rect x="273.68" y="794.51" width="13.39" height="13.39" fill="#231f20"/>
  <rect x="273.86" y="749.33" width="13.39" height="13.39" fill="#231f20"/>
  <rect x="273.68" y="707.05" width="13.39" height="13.39" fill="#231f20"/>
  <rect x="232.91" y="924.42" width="13.39" height="13.39" fill="#231f20"/>
  <rect x="273.68" y="924.42" width="13.39" height="13.39" fill="#231f20"/>
  <rect x="232.91" y="881.94" width="13.39" height="13.39" fill="#231f20"/>
  <rect x="232.91" y="837.74" width="13.39" height="13.39" fill="#231f20"/>
  <rect x="273.6" y="1053.04" width="13.39" height="13.39" transform="translate(1340.03 779.44) rotate(90)" fill="#231f20"/>
  <rect x="273.6" y="881.94" width="13.39" height="13.39" fill="#231f20"/>
  <rect x="232.91" y="1009.47" width="13.39" height="13.39" fill="#231f20"/>
  <rect x="232.91" y="967.05" width="13.39" height="13.39" fill="#231f20"/>
  <rect x="273.6" y="967.05" width="13.39" height="13.39" fill="#231f20"/>
  <rect x="190.2" y="1053.04" width="13.39" height="13.39" transform="translate(1256.63 862.84) rotate(90)" fill="#231f20"/>
  <rect x="233.3" y="1053.04" width="13.39" height="13.39" transform="translate(1299.73 819.74) rotate(90)" fill="#231f20"/>
  <rect x="662.29" y="1053.04" width="13.39" height="13.39" transform="translate(1728.72 390.75) rotate(90)" fill="#231f20"/>
  <rect x="577.09" y="1053.04" width="13.39" height="13.39" transform="translate(1643.52 475.95) rotate(90)" fill="#231f20"/>
  <rect x="620.19" y="1053.04" width="13.39" height="13.39" transform="translate(1686.62 432.85) rotate(90)" fill="#231f20"/>
  <rect x="662.29" y="1009.47" width="13.39" height="13.39" transform="translate(1685.15 347.18) rotate(90)" fill="#231f20"/>
  <rect x="577.09" y="1009.47" width="13.39" height="13.39" transform="translate(1599.95 432.38) rotate(90)" fill="#231f20"/>
  <rect x="620.19" y="1009.47" width="13.39" height="13.39" transform="translate(1643.05 389.28) rotate(90)" fill="#231f20"/>
  <rect x="748.27" y="837.74" width="13.39" height="13.39" transform="translate(1599.4 89.46) rotate(90)" fill="#231f20"/>
  <rect x="663.08" y="837.74" width="13.39" height="13.39" transform="translate(1514.21 174.66) rotate(90)" fill="#231f20"/>
  <rect x="706.18" y="837.74" width="13.39" height="13.39" transform="translate(1557.31 131.56) rotate(90)" fill="#231f20"/>
  <rect x="748.27" y="794.51" width="13.39" height="13.39" transform="translate(1556.18 46.23) rotate(90)" fill="#231f20"/>
  <rect x="663.08" y="794.51" width="13.39" height="13.39" transform="translate(1470.98 131.43) rotate(90)" fill="#231f20"/>
  <rect x="706.18" y="794.51" width="13.39" height="13.39" transform="translate(1514.08 88.33) rotate(90)" fill="#231f20"/>
  <rect x="273.6" y="837.74" width="13.39" height="13.39" fill="#231f20"/>
  <rect x="318.3" y="837.74" width="13.39" height="13.39" fill="#231f20"/>
  <rect x="318.22" y="924.42" width="13.39" height="13.39" fill="#231f20"/>
  <rect x="318.22" y="881.94" width="13.39" height="13.39" fill="#231f20"/>
  <rect x="232.8" y="707.05" width="13.39" height="13.39" fill="#231f20"/>
  <rect x="490.07" y="707.05" width="13.39" height="13.39" fill="#231f20"/>
  <rect x="447.55" y="707.05" width="13.39" height="13.39" fill="#231f20"/>
  <rect x="447.55" y="663.11" width="13.39" height="13.39" fill="#231f20"/>
  <rect x="232.8" y="663.11" width="13.39" height="13.39" fill="#231f20"/>
  <rect x="232.8" y="619.89" width="13.39" height="13.39" fill="#231f20"/>
  <rect x="664.03" y="663.11" width="13.39" height="13.39" fill="#231f20"/>
  <rect x="706.31" y="663.11" width="13.39" height="13.39" fill="#231f20"/>
  <rect x="533.18" y="663.11" width="13.39" height="13.39" fill="#231f20"/>
  <rect x="447.55" y="619.89" width="13.39" height="13.39" fill="#231f20"/>
  <rect x="406.69" y="619.89" width="13.39" height="13.39" fill="#231f20"/>
  <rect x="360.08" y="619.89" width="13.39" height="13.39" fill="#231f20"/>
  <rect x="532.61" y="576.37" width="13.39" height="13.39" fill="#231f20"/>
  <rect x="491.4" y="576.37" width="13.39" height="13.39" fill="#231f20"/>
  <rect x="447.55" y="576.37" width="13.39" height="13.39" fill="#231f20"/>
  <rect x="447.55" y="534.55" width="13.39" height="13.39" fill="#231f20"/>
  <rect x="405.48" y="534.55" width="13.39" height="13.39" fill="#231f20"/>
  <rect x="359.86" y="534.55" width="13.39" height="13.39" fill="#231f20"/>
  <rect x="405.48" y="448.6" width="13.39" height="13.39" fill="#231f20"/>
  <rect x="359.86" y="448.6" width="13.39" height="13.39" fill="#231f20"/>
  <rect x="533.47" y="406.12" width="13.39" height="13.39" fill="#231f20"/>
  <rect x="492.26" y="406.12" width="13.39" height="13.39" fill="#231f20"/>
  <rect x="446.63" y="406.12" width="13.39" height="13.39" fill="#231f20"/>
  <rect x="318.26" y="576.37" width="13.39" height="13.39" fill="#231f20"/>
  <rect x="275.65" y="576.37" width="13.39" height="13.39" fill="#231f20"/>
  <rect x="275.65" y="534.55" width="13.39" height="13.39" fill="#231f20"/>
  <rect x="489.19" y="663.11" width="13.39" height="13.39" fill="#231f20"/>
  <rect x="619.91" y="619.89" width="13.39" height="13.39" fill="#231f20"/>
  <rect x="664.03" y="619.89" width="13.39" height="13.39" fill="#231f20"/>
  <rect x="619.87" y="749.33" width="13.39" height="13.39" fill="#231f20"/>
  <rect x="576.84" y="749.33" width="13.39" height="13.39" fill="#231f20"/>
  <rect x="662.9" y="749.33" width="13.39" height="13.39" fill="#231f20"/>
  <rect x="533.63" y="707.05" width="13.39" height="13.39" fill="#231f20"/>
  <rect x="576.66" y="707.05" width="13.39" height="13.39" fill="#231f20"/>
</svg>