<?xml version="1.0" encoding="UTF-8"?>
<svg id="_10" data-name="10" xmlns="http://www.w3.org/2000/svg" viewBox="0 0 1080 1080">
  <rect x="692.9" y="128.62" width="40.84" height="40.84" fill="#231f20"/>
  <rect x="706.62" y="98.51" width="13.39" height="13.39" fill="#231f20"/>
  <rect x="706.62" y="54.94" width="13.39" height="13.39" fill="#231f20"/>
  <rect x="749.11" y="98.51" width="13.39" height="13.39" fill="#231f20"/>
  <rect x="749.11" y="142.61" width="13.39" height="13.39" fill="#231f20"/>
  <rect x="749.11" y="54.94" width="13.39" height="13.39" fill="#231f20"/>
  <rect x="793.23" y="98.51" width="13.39" height="13.39" fill="#231f20"/>
  <rect x="793.23" y="54.94" width="13.39" height="13.39" fill="#231f20"/>
  <rect x="835.72" y="98.51" width="13.39" height="13.39" fill="#231f20"/>
  <rect x="835.72" y="54.94" width="13.39" height="13.39" fill="#231f20"/>
  <rect x="533.92" y="229.75" width="13.39" height="13.39" fill="#231f20"/>
  <rect x="533.92" y="186.18" width="13.39" height="13.39" fill="#231f20"/>
  <rect x="576.42" y="229.75" width="13.39" height="13.39" fill="#231f20"/>
  <rect x="576.42" y="186.18" width="13.39" height="13.39" fill="#231f20"/>
  <rect x="620.53" y="229.75" width="13.39" height="13.39" fill="#231f20"/>
  <rect x="620.53" y="186.18" width="13.39" height="13.39" fill="#231f20"/>
  <rect x="663.02" y="229.75" width="13.39" height="13.39" fill="#231f20"/>
  <rect x="663.02" y="186.18" width="13.39" height="13.39" fill="#231f20"/>
  <rect x="620.53" y="316.89" width="13.39" height="13.39" fill="#231f20"/>
  <rect x="620.53" y="273.32" width="13.39" height="13.39" fill="#231f20"/>
  <rect x="663.02" y="316.89" width="13.39" height="13.39" fill="#231f20"/>
  <rect x="663.02" y="273.32" width="13.39" height="13.39" fill="#231f20"/>
  <rect x="705.52" y="316.89" width="13.39" height="13.39" fill="#231f20"/>
  <rect x="705.52" y="273.32" width="13.39" height="13.39" fill="#231f20"/>
  <rect x="620.53" y="402.9" width="13.39" height="13.39" fill="#231f20"/>
  <rect x="620.53" y="360.46" width="13.39" height="13.39" fill="#231f20"/>
  <rect x="663.02" y="402.9" width="13.39" height="13.39" fill="#231f20"/>
  <rect x="663.02" y="360.46" width="13.39" height="13.39" fill="#231f20"/>
  <rect x="705.52" y="402.9" width="13.39" height="13.39" fill="#231f20"/>
  <rect x="705.52" y="360.46" width="13.39" height="13.39" fill="#231f20"/>
  <rect x="620.53" y="489.54" width="13.39" height="13.39" fill="#231f20"/>
  <rect x="620.53" y="446.26" width="13.39" height="13.39" fill="#231f20"/>
  <rect x="663.02" y="489.54" width="13.39" height="13.39" fill="#231f20"/>
  <rect x="620.53" y="531.25" width="13.39" height="13.39" fill="#231f20"/>
  <rect x="663.02" y="531.25" width="13.39" height="13.39" fill="#231f20"/>
  <rect x="620.53" y="573.31" width="13.39" height="13.39" fill="#231f20"/>
  <rect x="663.02" y="573.31" width="13.39" height="13.39" fill="#231f20"/>
  <rect x="663.02" y="446.26" width="13.39" height="13.39" fill="#231f20"/>
  <rect x="447.63" y="402.9" width="13.39" height="13.39" fill="#231f20"/>
  <rect x="447.63" y="360.46" width="13.39" height="13.39" fill="#231f20"/>
  <rect x="490.12" y="402.9" width="13.39" height="13.39" fill="#231f20"/>
  <rect x="490.12" y="360.46" width="13.39" height="13.39" fill="#231f20"/>
  <rect x="447.63" y="489.54" width="13.39" height="13.39" fill="#231f20"/>
  <rect x="447.63" y="446.26" width="13.39" height="13.39" fill="#231f20"/>
  <rect x="490.12" y="489.54" width="13.39" height="13.39" fill="#231f20"/>
  <rect x="490.12" y="446.26" width="13.39" height="13.39" fill="#231f20"/>
  <rect x="361.23" y="618.33" width="13.39" height="13.39" fill="#231f20"/>
  <rect x="361.23" y="575.07" width="13.39" height="13.39" fill="#231f20"/>
  <rect x="404.44" y="618.33" width="13.39" height="13.39" fill="#231f20"/>
  <rect x="404.44" y="575.07" width="13.39" height="13.39" fill="#231f20"/>
  <rect x="361.23" y="706.7" width="13.39" height="13.39" fill="#231f20"/>
  <rect x="361.23" y="662.87" width="13.39" height="13.39" fill="#231f20"/>
  <rect x="318.02" y="618.33" width="13.39" height="13.39" fill="#231f20"/>
  <rect x="318.02" y="706.7" width="13.39" height="13.39" fill="#231f20"/>
  <rect x="361.23" y="747.2" width="13.39" height="13.39" fill="#231f20"/>
  <rect x="318.02" y="747.2" width="13.39" height="13.39" fill="#231f20"/>
  <rect x="361.23" y="789.46" width="13.39" height="13.39" fill="#231f20"/>
  <rect x="318.02" y="789.46" width="13.39" height="13.39" fill="#231f20"/>
  <rect x="318.02" y="662.87" width="13.39" height="13.39" fill="#231f20"/>
  <rect x="404.44" y="706.7" width="13.39" height="13.39" fill="#231f20"/>
  <rect x="404.44" y="662.87" width="13.39" height="13.39" fill="#231f20"/>
  <rect x="361.23" y="446.26" width="13.39" height="13.39" fill="#231f20"/>
  <rect x="361.23" y="402.9" width="13.39" height="13.39" fill="#231f20"/>
  <rect x="404.44" y="446.26" width="13.39" height="13.39" fill="#231f20"/>
  <rect x="404.44" y="402.9" width="13.39" height="13.39" fill="#231f20"/>
  <rect x="361.23" y="531.25" width="13.39" height="13.39" fill="#231f20"/>
  <rect x="361.23" y="489.54" width="13.39" height="13.39" fill="#231f20"/>
  <rect x="404.44" y="531.25" width="13.39" height="13.39" fill="#231f20"/>
  <rect x="447.63" y="618.33" width="13.39" height="13.39" fill="#231f20"/>
  <rect x="447.63" y="575.07" width="13.39" height="13.39" fill="#231f20"/>
  <rect x="447.63" y="706.7" width="13.39" height="13.39" fill="#231f20"/>
  <rect x="447.63" y="662.87" width="13.39" height="13.39" fill="#231f20"/>
  <rect x="490.1" y="618.33" width="13.39" height="13.39" fill="#231f20"/>
  <rect x="533.31" y="618.33" width="13.39" height="13.39" fill="#231f20"/>
  <rect x="490.1" y="706.7" width="13.39" height="13.39" fill="#231f20"/>
  <rect x="490.1" y="662.87" width="13.39" height="13.39" fill="#231f20"/>
  <rect x="533.31" y="706.7" width="13.39" height="13.39" fill="#231f20"/>
  <rect x="533.31" y="662.87" width="13.39" height="13.39" fill="#231f20"/>
  <rect x="576.5" y="618.33" width="13.39" height="13.39" fill="#231f20"/>
  <rect x="576.5" y="706.7" width="13.39" height="13.39" fill="#231f20"/>
  <rect x="576.5" y="662.87" width="13.39" height="13.39" fill="#231f20"/>
  <rect x="619.82" y="618.33" width="13.39" height="13.39" fill="#231f20"/>
  <rect x="663.03" y="618.33" width="13.39" height="13.39" fill="#231f20"/>
  <rect x="619.82" y="706.7" width="13.39" height="13.39" fill="#231f20"/>
  <rect x="619.82" y="662.87" width="13.39" height="13.39" fill="#231f20"/>
  <rect x="533.31" y="747.2" width="13.39" height="13.39" fill="#231f20"/>
  <rect x="533.31" y="834.13" width="13.39" height="13.39" fill="#231f20"/>
  <rect x="533.31" y="789.53" width="13.39" height="13.39" fill="#231f20"/>
  <rect x="576.5" y="747.2" width="13.39" height="13.39" fill="#231f20"/>
  <rect x="576.5" y="834.13" width="13.39" height="13.39" fill="#231f20"/>
  <rect x="576.5" y="789.53" width="13.39" height="13.39" fill="#231f20"/>
  <rect x="619.82" y="747.2" width="13.39" height="13.39" fill="#231f20"/>
  <rect x="619.82" y="834.13" width="13.39" height="13.39" fill="#231f20"/>
  <rect x="619.82" y="789.53" width="13.39" height="13.39" fill="#231f20"/>
  <rect x="663.02" y="747.2" width="13.39" height="13.39" fill="#231f20"/>
  <rect x="663.02" y="789.53" width="13.39" height="13.39" fill="#231f20"/>
  <rect x="706.24" y="747.2" width="13.39" height="13.39" fill="#231f20"/>
  <rect x="706.24" y="789.53" width="13.39" height="13.39" fill="#231f20"/>
  <rect x="533.31" y="876.17" width="13.39" height="13.39" fill="#231f20"/>
  <rect x="533.31" y="962.87" width="13.39" height="13.39" fill="#231f20"/>
  <rect x="533.31" y="920.05" width="13.39" height="13.39" fill="#231f20"/>
  <rect x="576.5" y="876.17" width="13.39" height="13.39" fill="#231f20"/>
  <rect x="576.5" y="962.87" width="13.39" height="13.39" fill="#231f20"/>
  <rect x="576.5" y="920.05" width="13.39" height="13.39" fill="#231f20"/>
  <rect x="619.82" y="876.17" width="13.39" height="13.39" fill="#231f20"/>
  <rect x="619.82" y="962.87" width="13.39" height="13.39" fill="#231f20"/>
  <rect x="619.82" y="920.05" width="13.39" height="13.39" fill="#231f20"/>
  <rect x="404.37" y="876.17" width="13.39" height="13.39" fill="#231f20"/>
  <rect x="404.37" y="962.87" width="13.39" height="13.39" fill="#231f20"/>
  <rect x="404.37" y="920.05" width="13.39" height="13.39" fill="#231f20"/>
  <rect x="447.56" y="876.17" width="13.39" height="13.39" fill="#231f20"/>
  <rect x="447.56" y="962.87" width="13.39" height="13.39" fill="#231f20"/>
  <rect x="447.56" y="920.05" width="13.39" height="13.39" fill="#231f20"/>
  <rect x="490.88" y="876.17" width="13.39" height="13.39" fill="#231f20"/>
  <rect x="490.88" y="962.87" width="13.39" height="13.39" fill="#231f20"/>
  <rect x="490.88" y="920.05" width="13.39" height="13.39" fill="#231f20"/>
  <rect x="533.31" y="1050.41" width="13.39" height="13.39" fill="#231f20"/>
  <rect x="533.31" y="1005.67" width="13.39" height="13.39" fill="#231f20"/>
  <rect x="576.5" y="1050.41" width="13.39" height="13.39" fill="#231f20"/>
  <rect x="576.5" y="1005.67" width="13.39" height="13.39" fill="#231f20"/>
  <rect x="619.82" y="1050.41" width="13.39" height="13.39" fill="#231f20"/>
  <rect x="619.82" y="1005.67" width="13.39" height="13.39" fill="#231f20"/>
  <rect x="404.37" y="1050.41" width="13.39" height="13.39" fill="#231f20"/>
  <rect x="404.37" y="1005.67" width="13.39" height="13.39" fill="#231f20"/>
  <rect x="447.56" y="1050.41" width="13.39" height="13.39" fill="#231f20"/>
  <rect x="447.56" y="1005.67" width="13.39" height="13.39" fill="#231f20"/>
  <rect x="490.88" y="1050.41" width="13.39" height="13.39" fill="#231f20"/>
  <rect x="490.88" y="1005.67" width="13.39" height="13.39" fill="#231f20"/>
  <rect x="404.37" y="747.2" width="13.39" height="13.39" fill="#231f20"/>
  <rect x="404.37" y="834.13" width="13.39" height="13.39" fill="#231f20"/>
  <rect x="404.37" y="789.53" width="13.39" height="13.39" fill="#231f20"/>
  <rect x="447.56" y="747.2" width="13.39" height="13.39" fill="#231f20"/>
  <rect x="447.56" y="834.13" width="13.39" height="13.39" fill="#231f20"/>
  <rect x="447.56" y="789.53" width="13.39" height="13.39" fill="#231f20"/>
  <rect x="231.28" y="876.17" width="13.39" height="13.39" fill="#231f20"/>
  <rect x="231.28" y="962.87" width="13.39" height="13.39" fill="#231f20"/>
  <rect x="231.28" y="920.05" width="13.39" height="13.39" fill="#231f20"/>
  <rect x="274.47" y="876.17" width="13.39" height="13.39" fill="#231f20"/>
  <rect x="274.47" y="962.87" width="13.39" height="13.39" fill="#231f20"/>
  <rect x="274.47" y="920.05" width="13.39" height="13.39" fill="#231f20"/>
  <rect x="231.28" y="1050.35" width="13.39" height="13.39" fill="#231f20"/>
  <rect x="231.28" y="1005.67" width="13.39" height="13.39" fill="#231f20"/>
  <rect x="188.09" y="962.87" width="13.39" height="13.39" fill="#231f20"/>
  <rect x="188.09" y="1050.41" width="13.39" height="13.39" fill="#231f20"/>
  <rect x="188.09" y="1005.67" width="13.39" height="13.39" fill="#231f20"/>
  <rect x="274.47" y="1050.41" width="13.39" height="13.39" fill="#231f20"/>
  <rect x="274.47" y="1005.67" width="13.39" height="13.39" fill="#231f20"/>
  <rect x="231.28" y="834.06" width="13.39" height="13.39" fill="#231f20"/>
  <rect x="231.28" y="789.46" width="13.39" height="13.39" fill="#231f20"/>
  <rect x="231.28" y="618.33" width="13.39" height="13.39" fill="#231f20"/>
  <rect x="231.28" y="706.7" width="13.39" height="13.39" fill="#231f20"/>
  <rect x="231.28" y="662.87" width="13.39" height="13.39" fill="#231f20"/>
  <rect x="231.28" y="747.2" width="13.39" height="13.39" fill="#231f20"/>
  <rect x="231.28" y="573.31" width="13.39" height="13.39" fill="#231f20"/>
  <rect x="231.28" y="528.71" width="13.39" height="13.39" fill="#231f20"/>
  <rect x="274.48" y="573.31" width="13.39" height="13.39" fill="#231f20"/>
  <rect x="274.48" y="528.71" width="13.39" height="13.39" fill="#231f20"/>
  <rect x="274.47" y="834.13" width="13.39" height="13.39" fill="#231f20"/>
  <rect x="274.47" y="789.53" width="13.39" height="13.39" fill="#231f20"/>
  <rect x="490.88" y="747.2" width="13.39" height="13.39" fill="#231f20"/>
  <rect x="490.88" y="834.13" width="13.39" height="13.39" fill="#231f20"/>
  <rect x="490.88" y="789.53" width="13.39" height="13.39" fill="#231f20"/>
  <rect x="663.03" y="706.7" width="13.39" height="13.39" fill="#231f20"/>
  <rect x="663.03" y="662.87" width="13.39" height="13.39" fill="#231f20"/>
  <rect x="706.22" y="618.33" width="13.39" height="13.39" fill="#231f20"/>
  <rect x="706.22" y="706.7" width="13.39" height="13.39" fill="#231f20"/>
  <rect x="706.22" y="662.87" width="13.39" height="13.39" fill="#231f20"/>
  <rect x="447.63" y="531.25" width="13.39" height="13.39" fill="#231f20"/>
  <rect x="404.44" y="489.54" width="13.39" height="13.39" fill="#231f20"/>
  <rect x="231.27" y="399.12" width="13.39" height="13.39" fill="#231f20"/>
  <rect x="231.27" y="355.76" width="13.39" height="13.39" fill="#231f20"/>
  <rect x="274.48" y="399.12" width="13.39" height="13.39" fill="#231f20"/>
  <rect x="274.48" y="355.76" width="13.39" height="13.39" fill="#231f20"/>
  <rect x="231.27" y="484.11" width="13.39" height="13.39" fill="#231f20"/>
  <rect x="231.27" y="442.4" width="13.39" height="13.39" fill="#231f20"/>
  <rect x="274.48" y="484.11" width="13.39" height="13.39" fill="#231f20"/>
  <rect x="274.48" y="442.4" width="13.39" height="13.39" fill="#231f20"/>
  <rect x="318.02" y="399.12" width="13.39" height="13.39" fill="#231f20"/>
  <rect x="318.02" y="355.76" width="13.39" height="13.39" fill="#231f20"/>
  <rect x="231.27" y="315.33" width="13.39" height="13.39" fill="#231f20"/>
  <rect x="231.27" y="271.97" width="13.39" height="13.39" fill="#231f20"/>
  <rect x="274.48" y="315.33" width="13.39" height="13.39" fill="#231f20"/>
  <rect x="274.48" y="271.97" width="13.39" height="13.39" fill="#231f20"/>
  <rect x="318.02" y="315.33" width="13.39" height="13.39" fill="#231f20"/>
  <rect x="361.23" y="355.76" width="13.39" height="13.39" fill="#231f20"/>
  <rect x="361.23" y="315.33" width="13.39" height="13.39" fill="#231f20"/>
  <rect x="318.02" y="271.97" width="13.39" height="13.39" fill="#231f20"/>
  <rect x="274.48" y="228.93" width="13.39" height="13.39" fill="#231f20"/>
  <rect x="274.48" y="185.57" width="13.39" height="13.39" fill="#231f20"/>
  <rect x="318.02" y="228.93" width="13.39" height="13.39" fill="#231f20"/>
  <rect x="318.02" y="185.57" width="13.39" height="13.39" fill="#231f20"/>
  <rect x="360.7" y="271.97" width="13.39" height="13.39" fill="#231f20"/>
  <rect x="404.24" y="271.97" width="13.39" height="13.39" fill="#231f20"/>
  <rect x="360.7" y="228.93" width="13.39" height="13.39" fill="#231f20"/>
  <rect x="360.7" y="185.57" width="13.39" height="13.39" fill="#231f20"/>
  <rect x="404.24" y="228.93" width="13.39" height="13.39" fill="#231f20"/>
  <rect x="404.24" y="185.57" width="13.39" height="13.39" fill="#231f20"/>
  <rect x="318.02" y="142.2" width="13.39" height="13.39" fill="#231f20"/>
  <rect x="318.02" y="98.84" width="13.39" height="13.39" fill="#231f20"/>
  <rect x="360.7" y="142.2" width="13.39" height="13.39" fill="#231f20"/>
  <rect x="360.7" y="98.84" width="13.39" height="13.39" fill="#231f20"/>
  <rect x="404.24" y="142.2" width="13.39" height="13.39" fill="#231f20"/>
  <rect x="404.24" y="98.84" width="13.39" height="13.39" fill="#231f20"/>
  <rect x="447.65" y="142.2" width="13.39" height="13.39" fill="#231f20"/>
  <rect x="490.33" y="142.2" width="13.39" height="13.39" fill="#231f20"/>
  <rect x="533.87" y="142.2" width="13.39" height="13.39" fill="#231f20"/>
  <rect x="447.65" y="98.84" width="13.39" height="13.39" fill="#231f20"/>
  <rect x="447.65" y="55.48" width="13.39" height="13.39" fill="#231f20"/>
  <rect x="490.33" y="98.84" width="13.39" height="13.39" fill="#231f20"/>
  <rect x="490.33" y="55.48" width="13.39" height="13.39" fill="#231f20"/>
  <rect x="533.87" y="98.84" width="13.39" height="13.39" fill="#231f20"/>
  <rect x="533.87" y="55.48" width="13.39" height="13.39" fill="#231f20"/>
  <rect x="577.13" y="98.84" width="13.39" height="13.39" fill="#231f20"/>
  <rect x="577.13" y="55.48" width="13.39" height="13.39" fill="#231f20"/>
  <rect x="619.82" y="98.84" width="13.39" height="13.39" fill="#231f20"/>
  <rect x="619.82" y="55.48" width="13.39" height="13.39" fill="#231f20"/>
  <rect x="663.36" y="98.84" width="13.39" height="13.39" fill="#231f20"/>
  <rect x="663.36" y="55.48" width="13.39" height="13.39" fill="#231f20"/>
  <rect x="706.62" y="10.83" width="13.39" height="13.39" fill="#231f20"/>
  <rect x="749.11" y="10.83" width="13.39" height="13.39" fill="#231f20"/>
  <rect x="447.65" y="11.37" width="13.39" height="13.39" fill="#231f20"/>
  <rect x="490.33" y="11.37" width="13.39" height="13.39" fill="#231f20"/>
  <rect x="533.87" y="11.37" width="13.39" height="13.39" fill="#231f20"/>
  <rect x="577.13" y="11.37" width="13.39" height="13.39" fill="#231f20"/>
  <rect x="275.47" y="55.48" width="13.39" height="13.39" fill="#231f20"/>
  <rect x="318.16" y="55.48" width="13.39" height="13.39" fill="#231f20"/>
  <rect x="361.7" y="55.48" width="13.39" height="13.39" fill="#231f20"/>
  <rect x="404.96" y="55.48" width="13.39" height="13.39" fill="#231f20"/>
  <rect x="275.47" y="11.37" width="13.39" height="13.39" fill="#231f20"/>
  <rect x="318.16" y="11.37" width="13.39" height="13.39" fill="#231f20"/>
  <rect x="361.7" y="11.37" width="13.39" height="13.39" fill="#231f20"/>
  <rect x="404.96" y="11.37" width="13.39" height="13.39" fill="#231f20"/>
  <rect x="619.82" y="11.37" width="13.39" height="13.39" fill="#231f20"/>
  <rect x="663.36" y="11.37" width="13.39" height="13.39" fill="#231f20"/>
  <rect x="318.02" y="484.11" width="13.39" height="13.39" fill="#231f20"/>
  <rect x="318.02" y="442.4" width="13.39" height="13.39" fill="#231f20"/>
  <rect x="705.52" y="489.54" width="13.39" height="13.39" fill="#231f20"/>
  <rect x="705.52" y="446.26" width="13.39" height="13.39" fill="#231f20"/>
  <rect x="749.41" y="531.29" width="13.39" height="13.39" fill="#231f20"/>
  <rect x="749.41" y="488.01" width="13.39" height="13.39" fill="#231f20"/>
  <rect x="793.23" y="316.89" width="13.39" height="13.39" fill="#231f20"/>
  <rect x="793.23" y="273.32" width="13.39" height="13.39" fill="#231f20"/>
</svg>