<?xml version="1.0" encoding="UTF-8"?>
<svg id="_11" data-name="11" xmlns="http://www.w3.org/2000/svg" viewBox="0 0 1080 1080">
  <rect x="347.33" y="775.86" width="40.84" height="40.84" fill="#231f20"/>
  <rect x="390.18" y="775.86" width="40.84" height="40.84" fill="#231f20"/>
  <rect x="735.91" y="732.62" width="40.84" height="40.84" fill="#231f20"/>
  <rect x="692.7" y="732.62" width="40.84" height="40.84" fill="#231f20"/>
  <rect x="692.7" y="819.41" width="40.84" height="40.84" fill="#231f20"/>
  <rect x="692.7" y="862.42" width="40.84" height="40.84" fill="#231f20"/>
  <rect x="692.7" y="776.4" width="40.84" height="40.84" fill="#231f20"/>
  <rect x="692.7" y="646.5" width="40.84" height="40.84" fill="#231f20"/>
  <rect x="692.7" y="603.17" width="40.84" height="40.84" fill="#231f20"/>
  <rect x="908.5" y="128.07" width="40.84" height="40.84" fill="#231f20"/>
  <rect x="865.47" y="128.07" width="40.84" height="40.84" fill="#231f20"/>
  <rect x="908.5" y="171.46" width="40.84" height="40.84" fill="#231f20"/>
  <rect x="865.47" y="171.46" width="40.84" height="40.84" fill="#231f20"/>
  <rect x="735.91" y="948.87" width="40.84" height="40.84" fill="#231f20"/>
  <rect x="692.7" y="948.87" width="40.84" height="40.84" fill="#231f20"/>
  <rect x="735.91" y="905.53" width="40.84" height="40.84" fill="#231f20"/>
  <rect x="692.7" y="905.53" width="40.84" height="40.84" fill="#231f20"/>
  <rect x="433.75" y="819.41" width="40.84" height="40.84" fill="#231f20"/>
  <rect x="433.75" y="862.42" width="40.84" height="40.84" fill="#231f20"/>
  <rect x="433.75" y="905.44" width="40.84" height="40.84" fill="#231f20"/>
  <rect x="433.75" y="948.45" width="40.84" height="40.84" fill="#231f20"/>
  <rect x="361.06" y="746.91" width="13.39" height="13.39" fill="#231f20"/>
  <rect x="318.03" y="746.91" width="13.39" height="13.39" fill="#231f20"/>
  <rect x="447.94" y="746.91" width="13.39" height="13.39" fill="#231f20"/>
  <rect x="448.57" y="787.7" width="13.39" height="13.39" fill="#231f20"/>
  <rect x="405.54" y="746.91" width="13.39" height="13.39" fill="#231f20"/>
  <rect x="490.02" y="746.91" width="13.39" height="13.39" fill="#231f20"/>
  <rect x="574.17" y="746.91" width="13.39" height="13.39" fill="#231f20"/>
  <rect x="532.09" y="746.91" width="13.39" height="13.39" fill="#231f20"/>
  <rect x="661.98" y="746.91" width="13.39" height="13.39" fill="#231f20"/>
  <rect x="619.9" y="746.91" width="13.39" height="13.39" fill="#231f20"/>
  <rect x="793.86" y="746.91" width="13.39" height="13.39" fill="#231f20"/>
  <rect x="835.93" y="746.91" width="13.39" height="13.39" fill="#231f20"/>
  <rect x="920.08" y="746.91" width="13.39" height="13.39" fill="#231f20"/>
  <rect x="878.01" y="746.91" width="13.39" height="13.39" fill="#231f20"/>
  <rect x="1007.89" y="746.91" width="13.39" height="13.39" fill="#231f20"/>
  <rect x="1052.82" y="746.91" width="13.39" height="13.39" fill="#231f20"/>
  <rect x="965.82" y="746.91" width="13.39" height="13.39" fill="#231f20"/>
  <rect x="747.89" y="789.74" width="13.39" height="13.39" fill="#231f20"/>
  <rect x="747.89" y="832.8" width="13.39" height="13.39" fill="#231f20"/>
  <rect x="747.89" y="876.15" width="13.39" height="13.39" fill="#231f20"/>
  <rect x="793.23" y="1005.79" width="13.39" height="13.39" fill="#231f20"/>
  <rect x="750.88" y="1005.79" width="13.39" height="13.39" fill="#231f20"/>
  <rect x="708.06" y="1005.79" width="13.39" height="13.39" fill="#231f20"/>
  <rect x="793.23" y="1049.13" width="13.39" height="13.39" fill="#231f20"/>
  <rect x="750.88" y="1049.13" width="13.39" height="13.39" fill="#231f20"/>
  <rect x="447.48" y="1009.2" width="13.39" height="13.39" fill="#231f20"/>
  <rect x="447.48" y="1048.46" width="13.39" height="13.39" fill="#231f20"/>
  <rect x="487.28" y="787.7" width="13.39" height="13.39" fill="#231f20"/>
  <rect x="574.79" y="787.7" width="13.39" height="13.39" fill="#231f20"/>
  <rect x="531.76" y="787.7" width="13.39" height="13.39" fill="#231f20"/>
  <rect x="145.9" y="789.59" width="13.39" height="13.39" fill="#231f20"/>
  <rect x="101.25" y="789.59" width="13.39" height="13.39" fill="#231f20"/>
  <rect x="59.74" y="789.59" width="13.39" height="13.39" fill="#231f20"/>
  <rect x="18.23" y="789.59" width="13.39" height="13.39" fill="#231f20"/>
  <rect x="145.9" y="746.91" width="13.39" height="13.39" fill="#231f20"/>
  <rect x="101.25" y="746.91" width="13.39" height="13.39" fill="#231f20"/>
  <rect x="101.25" y="700.97" width="13.39" height="13.39" fill="#231f20"/>
  <rect x="101.25" y="658.3" width="13.39" height="13.39" fill="#231f20"/>
  <rect x="101.25" y="618.09" width="13.39" height="13.39" fill="#231f20"/>
  <rect x="59.65" y="618.09" width="13.39" height="13.39" fill="#231f20"/>
  <rect x="101.25" y="1006.73" width="13.39" height="13.39" fill="#231f20"/>
  <rect x="101.25" y="1049.22" width="13.39" height="13.39" fill="#231f20"/>
  <rect x="101.25" y="965.92" width="13.39" height="13.39" fill="#231f20"/>
  <rect x="101.25" y="921.62" width="13.39" height="13.39" fill="#231f20"/>
  <rect x="101.25" y="874.81" width="13.39" height="13.39" fill="#231f20"/>
  <rect x="59.74" y="874.81" width="13.39" height="13.39" fill="#231f20"/>
  <rect x="59.74" y="834.6" width="13.39" height="13.39" fill="#231f20"/>
  <rect x="101.25" y="572.15" width="13.39" height="13.39" fill="#231f20"/>
  <rect x="101.25" y="529.48" width="13.39" height="13.39" fill="#231f20"/>
  <rect x="59.65" y="531.31" width="13.39" height="13.39" fill="#231f20"/>
  <rect x="59.65" y="485.37" width="13.39" height="13.39" fill="#231f20"/>
  <rect x="59.65" y="442.7" width="13.39" height="13.39" fill="#231f20"/>
  <rect x="101.25" y="485.37" width="13.39" height="13.39" fill="#231f20"/>
  <rect x="101.25" y="442.7" width="13.39" height="13.39" fill="#231f20"/>
  <rect x="59.65" y="400.79" width="13.39" height="13.39" fill="#231f20"/>
  <rect x="59.65" y="358.12" width="13.39" height="13.39" fill="#231f20"/>
  <rect x="101.25" y="400.79" width="13.39" height="13.39" fill="#231f20"/>
  <rect x="101.25" y="358.12" width="13.39" height="13.39" fill="#231f20"/>
  <rect x="59.65" y="314.39" width="13.39" height="13.39" fill="#231f20"/>
  <rect x="59.65" y="271.72" width="13.39" height="13.39" fill="#231f20"/>
  <rect x="101.25" y="314.39" width="13.39" height="13.39" fill="#231f20"/>
  <rect x="101.25" y="271.72" width="13.39" height="13.39" fill="#231f20"/>
  <rect x="59.65" y="227.99" width="13.39" height="13.39" fill="#231f20"/>
  <rect x="59.65" y="185.32" width="13.39" height="13.39" fill="#231f20"/>
  <rect x="18.06" y="185.32" width="13.39" height="13.39" fill="#231f20"/>
  <rect x="101.25" y="227.99" width="13.39" height="13.39" fill="#231f20"/>
  <rect x="101.25" y="185.32" width="13.39" height="13.39" fill="#231f20"/>
  <rect x="144.64" y="185.32" width="13.39" height="13.39" fill="#231f20"/>
  <rect x="231.18" y="185.32" width="13.39" height="13.39" fill="#231f20"/>
  <rect x="189.58" y="185.32" width="13.39" height="13.39" fill="#231f20"/>
  <rect x="272.78" y="141.79" width="13.39" height="13.39" fill="#231f20"/>
  <rect x="316.16" y="141.79" width="13.39" height="13.39" fill="#231f20"/>
  <rect x="360.81" y="141.79" width="13.39" height="13.39" fill="#231f20"/>
  <rect x="402.94" y="141.79" width="13.39" height="13.39" fill="#231f20"/>
  <rect x="402.94" y="184.27" width="13.39" height="13.39" fill="#231f20"/>
  <rect x="447.24" y="184.27" width="13.39" height="13.39" fill="#231f20"/>
  <rect x="402.94" y="227.25" width="13.39" height="13.39" fill="#231f20"/>
  <rect x="447.24" y="227.25" width="13.39" height="13.39" fill="#231f20"/>
  <rect x="447.95" y="273.51" width="13.39" height="13.39" fill="#231f20"/>
  <rect x="491.81" y="358.85" width="13.39" height="13.39" fill="#231f20"/>
  <rect x="447.95" y="315.47" width="13.39" height="13.39" fill="#231f20"/>
  <rect x="491.81" y="402.24" width="13.39" height="13.39" fill="#231f20"/>
  <rect x="533.3" y="443.84" width="13.39" height="13.39" fill="#231f20"/>
  <rect x="533.3" y="486.81" width="13.39" height="13.39" fill="#231f20"/>
  <rect x="576.6" y="486.81" width="13.39" height="13.39" fill="#231f20"/>
  <rect x="576.6" y="530.66" width="13.39" height="13.39" fill="#231f20"/>
  <rect x="619.9" y="530.66" width="13.39" height="13.39" fill="#231f20"/>
  <rect x="619.9" y="573.44" width="13.39" height="13.39" fill="#231f20"/>
  <rect x="491.35" y="573.44" width="13.39" height="13.39" fill="#231f20"/>
  <rect x="663.24" y="573.44" width="13.39" height="13.39" fill="#231f20"/>
  <rect x="447.24" y="141.79" width="13.39" height="13.39" fill="#231f20"/>
  <rect x="488.47" y="141.79" width="13.39" height="13.39" fill="#231f20"/>
  <rect x="533.11" y="141.79" width="13.39" height="13.39" fill="#231f20"/>
  <rect x="575.24" y="141.79" width="13.39" height="13.39" fill="#231f20"/>
  <rect x="619.79" y="141.79" width="13.39" height="13.39" fill="#231f20"/>
  <rect x="663.18" y="141.79" width="13.39" height="13.39" fill="#231f20"/>
  <rect x="663.18" y="184.6" width="13.39" height="13.39" fill="#231f20"/>
  <rect x="707.82" y="141.79" width="13.39" height="13.39" fill="#231f20"/>
  <rect x="749.96" y="141.79" width="13.39" height="13.39" fill="#231f20"/>
  <rect x="796.04" y="141.79" width="13.39" height="13.39" fill="#231f20"/>
  <rect x="838.17" y="141.79" width="13.39" height="13.39" fill="#231f20"/>
  <rect x="1009.41" y="140.99" width="13.39" height="13.39" fill="#231f20"/>
  <rect x="1051.54" y="140.99" width="13.39" height="13.39" fill="#231f20"/>
  <rect x="749.96" y="184.6" width="13.39" height="13.39" fill="#231f20"/>
  <rect x="796.04" y="184.6" width="13.39" height="13.39" fill="#231f20"/>
  <rect x="838.17" y="184.6" width="13.39" height="13.39" fill="#231f20"/>
  <rect x="922.22" y="57.63" width="13.39" height="13.39" fill="#231f20"/>
  <rect x="966.54" y="57.63" width="13.39" height="13.39" fill="#231f20"/>
  <rect x="966.54" y="14.99" width="13.39" height="13.39" fill="#231f20"/>
  <rect x="1009.41" y="14.99" width="13.39" height="13.39" fill="#231f20"/>
  <rect x="922.22" y="14.99" width="13.39" height="13.39" fill="#231f20"/>
  <rect x="880.3" y="14.99" width="13.39" height="13.39" fill="#231f20"/>
  <rect x="880.46" y="100.43" width="13.39" height="13.39" fill="#231f20"/>
  <rect x="360.81" y="97.42" width="13.39" height="13.39" fill="#231f20"/>
  <rect x="360.81" y="56.95" width="13.39" height="13.39" fill="#231f20"/>
  <rect x="360.81" y="14.99" width="13.39" height="13.39" fill="#231f20"/>
  <rect x="663.18" y="97.42" width="13.39" height="13.39" fill="#231f20"/>
  <rect x="663.18" y="56.95" width="13.39" height="13.39" fill="#231f20"/>
  <rect x="663.18" y="14.99" width="13.39" height="13.39" fill="#231f20"/>
  <rect x="706.57" y="312.25" width="13.39" height="13.39" fill="#231f20"/>
  <rect x="706.57" y="269.9" width="13.39" height="13.39" fill="#231f20"/>
  <rect x="706.57" y="229.42" width="13.39" height="13.39" fill="#231f20"/>
  <rect x="706.57" y="184.6" width="13.39" height="13.39" fill="#231f20"/>
  <rect x="706.57" y="485.05" width="13.39" height="13.39" fill="#231f20"/>
  <rect x="706.57" y="442.7" width="13.39" height="13.39" fill="#231f20"/>
  <rect x="706.57" y="573.44" width="13.39" height="13.39" fill="#231f20"/>
  <rect x="706.57" y="703.29" width="13.39" height="13.39" fill="#231f20"/>
  <rect x="706.57" y="531.08" width="13.39" height="13.39" fill="#231f20"/>
  <rect x="1052.82" y="616.79" width="13.39" height="13.39" fill="#231f20"/>
  <rect x="1052.82" y="574.44" width="13.39" height="13.39" fill="#231f20"/>
  <rect x="1052.82" y="705.18" width="13.39" height="13.39" fill="#231f20"/>
  <rect x="1052.82" y="662.82" width="13.39" height="13.39" fill="#231f20"/>
  <rect x="1052.82" y="442.85" width="13.39" height="13.39" fill="#231f20"/>
  <rect x="1052.82" y="400.49" width="13.39" height="13.39" fill="#231f20"/>
  <rect x="1052.82" y="357.99" width="13.39" height="13.39" fill="#231f20"/>
  <rect x="1052.82" y="531.23" width="13.39" height="13.39" fill="#231f20"/>
  <rect x="1052.82" y="488.87" width="13.39" height="13.39" fill="#231f20"/>
  <rect x="966.54" y="226.95" width="13.39" height="13.39" fill="#231f20"/>
  <rect x="966.54" y="184.6" width="13.39" height="13.39" fill="#231f20"/>
  <rect x="966.54" y="140.99" width="13.39" height="13.39" fill="#231f20"/>
  <rect x="1009.08" y="315.81" width="13.39" height="13.39" fill="#231f20"/>
  <rect x="966.54" y="268.68" width="13.39" height="13.39" fill="#231f20"/>
  <rect x="706.57" y="402.22" width="13.39" height="13.39" fill="#231f20"/>
  <rect x="706.57" y="360.26" width="13.39" height="13.39" fill="#231f20"/>
  <rect x="706.57" y="14.99" width="13.39" height="13.39" fill="#231f20"/>
  <rect x="402.94" y="97.42" width="13.39" height="13.39" fill="#231f20"/>
  <rect x="59.65" y="139.78" width="13.39" height="13.39" fill="#231f20"/>
  <rect x="59.65" y="99.83" width="13.39" height="13.39" fill="#231f20"/>
  <rect x="59.65" y="56.1" width="13.39" height="13.39" fill="#231f20"/>
  <rect x="59.65" y="13.43" width="13.39" height="13.39" fill="#231f20"/>
  <rect x="14.53" y="13.43" width="13.39" height="13.39" fill="#231f20"/>
  <rect x="14.53" y="56.1" width="13.39" height="13.39" fill="#231f20"/>
  <rect x="101.25" y="139.78" width="13.39" height="13.39" fill="#231f20"/>
  <rect x="187.48" y="746.91" width="13.39" height="13.39" fill="#231f20"/>
  <rect x="187.48" y="789.59" width="13.39" height="13.39" fill="#231f20"/>
  <rect x="275" y="746.91" width="13.39" height="13.39" fill="#231f20"/>
  <rect x="230.35" y="746.91" width="13.39" height="13.39" fill="#231f20"/>
  <rect x="230.35" y="788.37" width="13.39" height="13.39" fill="#231f20"/>
</svg>