<?xml version="1.0" encoding="UTF-8"?>
<svg id="_12" data-name="12" xmlns="http://www.w3.org/2000/svg" viewBox="0 0 1080 1080">
  <rect x="519.84" y="259.16" width="40.84" height="40.84" fill="#231f20"/>
  <rect x="476.94" y="259.16" width="40.84" height="40.84" fill="#231f20"/>
  <rect x="519.84" y="302.32" width="40.84" height="40.84" fill="#231f20"/>
  <rect x="476.94" y="302.32" width="40.84" height="40.84" fill="#231f20"/>
  <rect x="519.84" y="345.49" width="40.84" height="40.84" fill="#231f20"/>
  <rect x="476.94" y="345.49" width="40.84" height="40.84" fill="#231f20"/>
  <rect x="519.84" y="388.65" width="40.84" height="40.84" fill="#231f20"/>
  <rect x="476.94" y="388.65" width="40.84" height="40.84" fill="#231f20"/>
  <rect x="606.2" y="259.16" width="40.84" height="40.84" fill="#231f20"/>
  <rect x="563.3" y="259.16" width="40.84" height="40.84" fill="#231f20"/>
  <rect x="606.2" y="302.32" width="40.84" height="40.84" fill="#231f20"/>
  <rect x="563.3" y="302.32" width="40.84" height="40.84" fill="#231f20"/>
  <rect x="606.2" y="345.49" width="40.84" height="40.84" fill="#231f20"/>
  <rect x="563.3" y="345.49" width="40.84" height="40.84" fill="#231f20"/>
  <rect x="606.2" y="388.65" width="40.84" height="40.84" fill="#231f20"/>
  <rect x="563.3" y="388.65" width="40.84" height="40.84" fill="#231f20"/>
  <rect x="519.84" y="431.81" width="40.84" height="40.84" fill="#231f20"/>
  <rect x="476.94" y="431.81" width="40.84" height="40.84" fill="#231f20"/>
  <rect x="519.84" y="474.98" width="40.84" height="40.84" fill="#231f20"/>
  <rect x="476.94" y="474.98" width="40.84" height="40.84" fill="#231f20"/>
  <rect x="519.84" y="518.14" width="40.84" height="40.84" fill="#231f20"/>
  <rect x="476.94" y="518.14" width="40.84" height="40.84" fill="#231f20"/>
  <rect x="434.05" y="302.32" width="40.84" height="40.84" fill="#231f20"/>
  <rect x="434.05" y="345.49" width="40.84" height="40.84" fill="#231f20"/>
  <rect x="434.05" y="388.65" width="40.84" height="40.84" fill="#231f20"/>
  <rect x="434.05" y="431.81" width="40.84" height="40.84" fill="#231f20"/>
  <rect x="434.05" y="474.98" width="40.84" height="40.84" fill="#231f20"/>
  <rect x="434.05" y="518.14" width="40.84" height="40.84" fill="#231f20"/>
  <rect x="519.84" y="561.3" width="40.84" height="40.84" fill="#231f20"/>
  <rect x="476.94" y="561.3" width="40.84" height="40.84" fill="#231f20"/>
  <rect x="606.2" y="431.81" width="40.84" height="40.84" fill="#231f20"/>
  <rect x="563.3" y="431.81" width="40.84" height="40.84" fill="#231f20"/>
  <rect x="606.2" y="474.98" width="40.84" height="40.84" fill="#231f20"/>
  <rect x="563.3" y="474.98" width="40.84" height="40.84" fill="#231f20"/>
  <rect x="606.2" y="518.14" width="40.84" height="40.84" fill="#231f20"/>
  <rect x="563.3" y="518.14" width="40.84" height="40.84" fill="#231f20"/>
  <rect x="606.2" y="561.3" width="40.84" height="40.84" fill="#231f20"/>
  <rect x="563.3" y="561.3" width="40.84" height="40.84" fill="#231f20"/>
  <rect x="692.53" y="259.16" width="40.84" height="40.84" fill="#231f20"/>
  <rect x="649.63" y="259.16" width="40.84" height="40.84" fill="#231f20"/>
  <rect x="692.53" y="302.32" width="40.84" height="40.84" fill="#231f20"/>
  <rect x="649.63" y="302.32" width="40.84" height="40.84" fill="#231f20"/>
  <rect x="692.53" y="345.49" width="40.84" height="40.84" fill="#231f20"/>
  <rect x="649.63" y="345.49" width="40.84" height="40.84" fill="#231f20"/>
  <rect x="692.53" y="388.65" width="40.84" height="40.84" fill="#231f20"/>
  <rect x="649.63" y="388.65" width="40.84" height="40.84" fill="#231f20"/>
  <rect x="778.89" y="259.16" width="40.84" height="40.84" fill="#231f20"/>
  <rect x="822.43" y="259.16" width="40.84" height="40.84" fill="#231f20"/>
  <rect x="735.99" y="259.16" width="40.84" height="40.84" fill="#231f20"/>
  <rect x="778.89" y="302.32" width="40.84" height="40.84" fill="#231f20"/>
  <rect x="735.99" y="302.32" width="40.84" height="40.84" fill="#231f20"/>
  <rect x="778.89" y="345.49" width="40.84" height="40.84" fill="#231f20"/>
  <rect x="735.99" y="345.49" width="40.84" height="40.84" fill="#231f20"/>
  <rect x="778.89" y="388.65" width="40.84" height="40.84" fill="#231f20"/>
  <rect x="735.99" y="388.65" width="40.84" height="40.84" fill="#231f20"/>
  <rect x="606.2" y="86.44" width="40.84" height="40.84" fill="#231f20"/>
  <rect x="822.43" y="86.44" width="40.84" height="40.84" fill="#231f20"/>
  <rect x="606.2" y="129.6" width="40.84" height="40.84" fill="#231f20"/>
  <rect x="822.43" y="129.6" width="40.84" height="40.84" fill="#231f20"/>
  <rect x="606.2" y="172.76" width="40.84" height="40.84" fill="#231f20"/>
  <rect x="822.43" y="172.76" width="40.84" height="40.84" fill="#231f20"/>
  <rect x="822.43" y="215.93" width="40.84" height="40.84" fill="#231f20"/>
  <rect x="606.2" y="215.93" width="40.84" height="40.84" fill="#231f20"/>
  <rect x="563.3" y="215.93" width="40.84" height="40.84" fill="#231f20"/>
  <rect x="692.53" y="86.44" width="40.84" height="40.84" fill="#231f20"/>
  <rect x="649.63" y="86.44" width="40.84" height="40.84" fill="#231f20"/>
  <rect x="692.53" y="129.6" width="40.84" height="40.84" fill="#231f20"/>
  <rect x="649.63" y="129.6" width="40.84" height="40.84" fill="#231f20"/>
  <rect x="692.53" y="172.76" width="40.84" height="40.84" fill="#231f20"/>
  <rect x="649.63" y="172.76" width="40.84" height="40.84" fill="#231f20"/>
  <rect x="692.53" y="215.93" width="40.84" height="40.84" fill="#231f20"/>
  <rect x="649.63" y="215.93" width="40.84" height="40.84" fill="#231f20"/>
  <rect x="778.89" y="86.44" width="40.84" height="40.84" fill="#231f20"/>
  <rect x="735.99" y="86.44" width="40.84" height="40.84" fill="#231f20"/>
  <rect x="778.89" y="129.6" width="40.84" height="40.84" fill="#231f20"/>
  <rect x="735.99" y="129.6" width="40.84" height="40.84" fill="#231f20"/>
  <rect x="822.43" width="40.84" height="40.84" fill="#231f20"/>
  <rect x="822.43" y="43.16" width="40.84" height="40.84" fill="#231f20"/>
  <rect x="692.53" width="40.84" height="40.84" fill="#231f20"/>
  <rect x="649.63" width="40.84" height="40.84" fill="#231f20"/>
  <rect x="692.53" y="43.16" width="40.84" height="40.84" fill="#231f20"/>
  <rect x="649.63" y="43.16" width="40.84" height="40.84" fill="#231f20"/>
  <rect x="476.6" width="40.84" height="40.84" fill="#231f20"/>
  <rect x="433.7" width="40.84" height="40.84" fill="#231f20"/>
  <rect x="476.6" y="43.16" width="40.84" height="40.84" fill="#231f20"/>
  <rect x="519.58" y="43.2" width="40.84" height="40.84" fill="#231f20"/>
  <rect x="519.58" y="86.36" width="40.84" height="40.84" fill="#231f20"/>
  <rect x="476.57" y="129.32" width="40.84" height="40.84" fill="#231f20"/>
  <rect x="476.57" y="172.48" width="40.84" height="40.84" fill="#231f20"/>
  <rect x="433.7" y="129.32" width="40.84" height="40.84" fill="#231f20"/>
  <rect x="433.7" y="172.48" width="40.84" height="40.84" fill="#231f20"/>
  <rect x="390.84" y="129.32" width="40.84" height="40.84" fill="#231f20"/>
  <rect x="390.84" y="172.48" width="40.84" height="40.84" fill="#231f20"/>
  <rect x="347.07" y="129.32" width="40.84" height="40.84" fill="#231f20"/>
  <rect x="347.07" y="43.34" width="40.84" height="40.84" fill="#231f20"/>
  <rect x="347.07" y="172.48" width="40.84" height="40.84" fill="#231f20"/>
  <rect x="563.3" y="172.76" width="40.84" height="40.84" fill="#231f20"/>
  <rect x="433.7" y="43.16" width="40.84" height="40.84" fill="#231f20"/>
  <rect x="778.89" width="40.84" height="40.84" fill="#231f20"/>
  <rect x="735.99" width="40.84" height="40.84" fill="#231f20"/>
  <rect x="562.83" width="40.84" height="40.84" fill="#231f20"/>
  <rect x="519.94" width="40.84" height="40.84" fill="#231f20"/>
  <rect x="606.29" width="40.84" height="40.84" fill="#231f20"/>
  <rect x="778.89" y="43.16" width="40.84" height="40.84" fill="#231f20"/>
  <rect x="735.99" y="43.16" width="40.84" height="40.84" fill="#231f20"/>
  <rect x="778.89" y="172.76" width="40.84" height="40.84" fill="#231f20"/>
  <rect x="735.99" y="172.76" width="40.84" height="40.84" fill="#231f20"/>
  <rect x="778.89" y="215.93" width="40.84" height="40.84" fill="#231f20"/>
  <rect x="735.99" y="215.93" width="40.84" height="40.84" fill="#231f20"/>
  <rect x="692.53" y="431.81" width="40.84" height="40.84" fill="#231f20"/>
  <rect x="649.63" y="431.81" width="40.84" height="40.84" fill="#231f20"/>
  <rect x="692.53" y="474.98" width="40.84" height="40.84" fill="#231f20"/>
  <rect x="649.63" y="474.98" width="40.84" height="40.84" fill="#231f20"/>
  <rect x="692.53" y="518.14" width="40.84" height="40.84" fill="#231f20"/>
  <rect x="649.63" y="518.14" width="40.84" height="40.84" fill="#231f20"/>
  <rect x="692.53" y="561.3" width="40.84" height="40.84" fill="#231f20"/>
  <rect x="649.63" y="561.3" width="40.84" height="40.84" fill="#231f20"/>
  <rect x="778.89" y="431.81" width="40.84" height="40.84" fill="#231f20"/>
  <rect x="735.99" y="431.81" width="40.84" height="40.84" fill="#231f20"/>
  <rect x="778.89" y="474.98" width="40.84" height="40.84" fill="#231f20"/>
  <rect x="822.43" y="302.32" width="40.84" height="40.84" fill="#231f20"/>
  <rect x="822.43" y="345.49" width="40.84" height="40.84" fill="#231f20"/>
  <rect x="822.43" y="388.65" width="40.84" height="40.84" fill="#231f20"/>
  <rect x="822.43" y="431.81" width="40.84" height="40.84" fill="#231f20"/>
  <rect x="822.43" y="474.98" width="40.84" height="40.84" fill="#231f20"/>
  <rect x="735.99" y="474.98" width="40.84" height="40.84" fill="#231f20"/>
  <rect x="778.89" y="518.14" width="40.84" height="40.84" fill="#231f20"/>
  <rect x="735.99" y="518.14" width="40.84" height="40.84" fill="#231f20"/>
  <rect x="778.89" y="561.3" width="40.84" height="40.84" fill="#231f20"/>
  <rect x="822.43" y="518.14" width="40.84" height="40.84" fill="#231f20"/>
  <rect x="822.43" y="561.3" width="40.84" height="40.84" fill="#231f20"/>
  <rect x="735.99" y="561.3" width="40.84" height="40.84" fill="#231f20"/>
  <rect x="519.84" y="604.47" width="40.84" height="40.84" fill="#231f20"/>
  <rect x="476.94" y="604.47" width="40.84" height="40.84" fill="#231f20"/>
  <rect x="519.84" y="647.63" width="40.84" height="40.84" fill="#231f20"/>
  <rect x="476.94" y="647.63" width="40.84" height="40.84" fill="#231f20"/>
  <rect x="519.84" y="690.79" width="40.84" height="40.84" fill="#231f20"/>
  <rect x="476.94" y="690.79" width="40.84" height="40.84" fill="#231f20"/>
  <rect x="606.2" y="604.47" width="40.84" height="40.84" fill="#231f20"/>
  <rect x="563.3" y="604.47" width="40.84" height="40.84" fill="#231f20"/>
  <rect x="606.2" y="647.63" width="40.84" height="40.84" fill="#231f20"/>
  <rect x="563.3" y="647.63" width="40.84" height="40.84" fill="#231f20"/>
  <rect x="606.2" y="690.79" width="40.84" height="40.84" fill="#231f20"/>
  <rect x="563.3" y="690.79" width="40.84" height="40.84" fill="#231f20"/>
  <rect x="692.53" y="604.47" width="40.84" height="40.84" fill="#231f20"/>
  <rect x="649.63" y="604.47" width="40.84" height="40.84" fill="#231f20"/>
  <rect x="692.53" y="647.63" width="40.84" height="40.84" fill="#231f20"/>
  <rect x="649.63" y="647.63" width="40.84" height="40.84" fill="#231f20"/>
  <rect x="692.53" y="690.79" width="40.84" height="40.84" fill="#231f20"/>
  <rect x="649.63" y="690.79" width="40.84" height="40.84" fill="#231f20"/>
  <rect x="778.89" y="604.47" width="40.84" height="40.84" fill="#231f20"/>
  <rect x="735.99" y="604.47" width="40.84" height="40.84" fill="#231f20"/>
  <rect x="778.89" y="647.63" width="40.84" height="40.84" fill="#231f20"/>
  <rect x="735.99" y="647.63" width="40.84" height="40.84" fill="#231f20"/>
  <rect x="778.89" y="690.79" width="40.84" height="40.84" fill="#231f20"/>
  <rect x="735.99" y="690.79" width="40.84" height="40.84" fill="#231f20"/>
  <rect x="864.68" y="604.47" width="40.84" height="40.84" fill="#231f20"/>
  <rect x="821.78" y="604.47" width="40.84" height="40.84" fill="#231f20"/>
  <rect x="864.68" y="647.63" width="40.84" height="40.84" fill="#231f20"/>
  <rect x="821.78" y="647.63" width="40.84" height="40.84" fill="#231f20"/>
  <rect x="864.68" y="690.79" width="40.84" height="40.84" fill="#231f20"/>
  <rect x="821.78" y="690.79" width="40.84" height="40.84" fill="#231f20"/>
  <rect x="519.84" y="733.96" width="40.84" height="40.84" fill="#231f20"/>
  <rect x="476.94" y="733.96" width="40.84" height="40.84" fill="#231f20"/>
  <rect x="519.84" y="777.12" width="40.84" height="40.84" fill="#231f20"/>
  <rect x="476.94" y="777.12" width="40.84" height="40.84" fill="#231f20"/>
  <rect x="433.61" y="561.73" width="40.84" height="40.84" fill="#231f20"/>
  <rect x="260.81" y="474.98" width="40.84" height="40.84" fill="#231f20"/>
  <rect x="304.14" y="474.98" width="40.84" height="40.84" fill="#231f20"/>
  <rect x="304.14" y="431.81" width="40.84" height="40.84" fill="#231f20"/>
  <rect x="260.81" y="518.14" width="40.84" height="40.84" fill="#231f20"/>
  <rect x="217.92" y="474.98" width="40.84" height="40.84" fill="#231f20"/>
  <rect x="217.92" y="518.14" width="40.84" height="40.84" fill="#231f20"/>
  <rect x="260.81" y="561.3" width="40.84" height="40.84" fill="#231f20"/>
  <rect x="217.49" y="561.73" width="40.84" height="40.84" fill="#231f20"/>
  <rect x="433.61" y="604.9" width="40.84" height="40.84" fill="#231f20"/>
  <rect x="433.61" y="648.06" width="40.84" height="40.84" fill="#231f20"/>
  <rect x="433.61" y="691.22" width="40.84" height="40.84" fill="#231f20"/>
  <rect x="433.61" y="734.39" width="40.84" height="40.84" fill="#231f20"/>
  <rect x="433.61" y="777.55" width="40.84" height="40.84" fill="#231f20"/>
  <rect x="606.2" y="733.96" width="40.84" height="40.84" fill="#231f20"/>
  <rect x="563.3" y="733.96" width="40.84" height="40.84" fill="#231f20"/>
  <rect x="606.2" y="777.12" width="40.84" height="40.84" fill="#231f20"/>
  <rect x="563.3" y="777.12" width="40.84" height="40.84" fill="#231f20"/>
  <rect x="692.53" y="733.96" width="40.84" height="40.84" fill="#231f20"/>
  <rect x="649.63" y="733.96" width="40.84" height="40.84" fill="#231f20"/>
  <rect x="692.53" y="777.12" width="40.84" height="40.84" fill="#231f20"/>
  <rect x="649.63" y="777.12" width="40.84" height="40.84" fill="#231f20"/>
  <rect x="778.89" y="733.96" width="40.84" height="40.84" fill="#231f20"/>
  <rect x="735.99" y="733.96" width="40.84" height="40.84" fill="#231f20"/>
  <rect x="778.89" y="777.12" width="40.84" height="40.84" fill="#231f20"/>
  <rect x="735.99" y="777.12" width="40.84" height="40.84" fill="#231f20"/>
  <rect x="864.68" y="733.96" width="40.84" height="40.84" fill="#231f20"/>
  <rect x="821.78" y="733.96" width="40.84" height="40.84" fill="#231f20"/>
  <rect x="864.68" y="777.12" width="40.84" height="40.84" fill="#231f20"/>
  <rect x="821.78" y="777.12" width="40.84" height="40.84" fill="#231f20"/>
  <rect x="519.84" y="863.88" width="40.84" height="40.84" fill="#231f20"/>
  <rect x="476.94" y="863.88" width="40.84" height="40.84" fill="#231f20"/>
  <rect x="519.84" y="907.04" width="40.84" height="40.84" fill="#231f20"/>
  <rect x="476.94" y="907.04" width="40.84" height="40.84" fill="#231f20"/>
  <rect x="519.84" y="950.21" width="40.84" height="40.84" fill="#231f20"/>
  <rect x="476.94" y="950.21" width="40.84" height="40.84" fill="#231f20"/>
  <rect x="606.2" y="863.88" width="40.84" height="40.84" fill="#231f20"/>
  <rect x="563.3" y="863.88" width="40.84" height="40.84" fill="#231f20"/>
  <rect x="606.2" y="907.04" width="40.84" height="40.84" fill="#231f20"/>
  <rect x="563.3" y="907.04" width="40.84" height="40.84" fill="#231f20"/>
  <rect x="606.2" y="950.21" width="40.84" height="40.84" fill="#231f20"/>
  <rect x="563.3" y="950.21" width="40.84" height="40.84" fill="#231f20"/>
  <rect x="692.53" y="863.88" width="40.84" height="40.84" fill="#231f20"/>
  <rect x="649.63" y="863.88" width="40.84" height="40.84" fill="#231f20"/>
  <rect x="692.53" y="907.04" width="40.84" height="40.84" fill="#231f20"/>
  <rect x="649.63" y="907.04" width="40.84" height="40.84" fill="#231f20"/>
  <rect x="692.53" y="950.21" width="40.84" height="40.84" fill="#231f20"/>
  <rect x="649.63" y="950.21" width="40.84" height="40.84" fill="#231f20"/>
  <rect x="778.89" y="863.88" width="40.84" height="40.84" fill="#231f20"/>
  <rect x="735.99" y="863.88" width="40.84" height="40.84" fill="#231f20"/>
  <rect x="778.89" y="907.04" width="40.84" height="40.84" fill="#231f20"/>
  <rect x="735.99" y="907.04" width="40.84" height="40.84" fill="#231f20"/>
  <rect x="778.89" y="950.21" width="40.84" height="40.84" fill="#231f20"/>
  <rect x="735.99" y="950.21" width="40.84" height="40.84" fill="#231f20"/>
  <rect x="864.68" y="863.88" width="40.84" height="40.84" fill="#231f20"/>
  <rect x="821.78" y="863.88" width="40.84" height="40.84" fill="#231f20"/>
  <rect x="864.68" y="907.04" width="40.84" height="40.84" fill="#231f20"/>
  <rect x="821.78" y="907.04" width="40.84" height="40.84" fill="#231f20"/>
  <rect x="864.68" y="950.21" width="40.84" height="40.84" fill="#231f20"/>
  <rect x="821.78" y="950.21" width="40.84" height="40.84" fill="#231f20"/>
  <rect x="519.84" y="993.37" width="40.84" height="40.84" fill="#231f20"/>
  <rect x="476.94" y="993.37" width="40.84" height="40.84" fill="#231f20"/>
  <rect x="519.84" y="1036.53" width="40.84" height="40.84" fill="#231f20"/>
  <rect x="476.94" y="1036.53" width="40.84" height="40.84" fill="#231f20"/>
  <rect x="433.61" y="864.31" width="40.84" height="40.84" fill="#231f20"/>
  <rect x="433.61" y="907.47" width="40.84" height="40.84" fill="#231f20"/>
  <rect x="433.61" y="950.64" width="40.84" height="40.84" fill="#231f20"/>
  <rect x="433.61" y="993.8" width="40.84" height="40.84" fill="#231f20"/>
  <rect x="433.61" y="1036.96" width="40.84" height="40.84" fill="#231f20"/>
  <rect x="390.29" y="907.04" width="40.84" height="40.84" fill="#231f20"/>
  <rect x="390.29" y="950.21" width="40.84" height="40.84" fill="#231f20"/>
  <rect x="390.29" y="993.37" width="40.84" height="40.84" fill="#231f20"/>
  <rect x="390.29" y="1036.53" width="40.84" height="40.84" fill="#231f20"/>
  <rect x="346.96" y="907.47" width="40.84" height="40.84" fill="#231f20"/>
  <rect x="390.29" y="864.09" width="40.84" height="40.84" fill="#231f20"/>
  <rect x="346.96" y="864.53" width="40.84" height="40.84" fill="#231f20"/>
  <rect x="346.96" y="950.64" width="40.84" height="40.84" fill="#231f20"/>
  <rect x="304.01" y="950.64" width="40.84" height="40.84" fill="#231f20"/>
  <rect x="260.69" y="950.64" width="40.84" height="40.84" fill="#231f20"/>
  <rect x="346.96" y="993.8" width="40.84" height="40.84" fill="#231f20"/>
  <rect x="346.96" y="1036.96" width="40.84" height="40.84" fill="#231f20"/>
  <rect x="304.01" y="993.37" width="40.84" height="40.84" fill="#231f20"/>
  <rect x="304.01" y="1036.53" width="40.84" height="40.84" fill="#231f20"/>
  <rect x="260.69" y="993.8" width="40.84" height="40.84" fill="#231f20"/>
  <rect x="260.69" y="1036.96" width="40.84" height="40.84" fill="#231f20"/>
  <rect x="606.2" y="993.37" width="40.84" height="40.84" fill="#231f20"/>
  <rect x="563.3" y="993.37" width="40.84" height="40.84" fill="#231f20"/>
  <rect x="606.2" y="1036.53" width="40.84" height="40.84" fill="#231f20"/>
  <rect x="563.3" y="1036.53" width="40.84" height="40.84" fill="#231f20"/>
  <rect x="692.53" y="993.37" width="40.84" height="40.84" fill="#231f20"/>
  <rect x="649.63" y="993.37" width="40.84" height="40.84" fill="#231f20"/>
  <rect x="692.53" y="1036.53" width="40.84" height="40.84" fill="#231f20"/>
  <rect x="649.63" y="1036.53" width="40.84" height="40.84" fill="#231f20"/>
  <rect x="778.89" y="993.37" width="40.84" height="40.84" fill="#231f20"/>
  <rect x="735.99" y="993.37" width="40.84" height="40.84" fill="#231f20"/>
  <rect x="778.89" y="1036.53" width="40.84" height="40.84" fill="#231f20"/>
  <rect x="735.99" y="1036.53" width="40.84" height="40.84" fill="#231f20"/>
  <rect x="864.68" y="993.37" width="40.84" height="40.84" fill="#231f20"/>
  <rect x="821.78" y="993.37" width="40.84" height="40.84" fill="#231f20"/>
  <rect x="864.68" y="1036.53" width="40.84" height="40.84" fill="#231f20"/>
  <rect x="821.78" y="1036.53" width="40.84" height="40.84" fill="#231f20"/>
  <rect x="519.95" y="216" width="40.84" height="40.84" fill="#231f20"/>
  <rect x="447.77" y="271.52" width="13.39" height="13.39" fill="#231f20"/>
  <rect x="404.34" y="271.52" width="13.39" height="13.39" fill="#231f20"/>
  <rect x="404.34" y="316.05" width="13.39" height="13.39" fill="#231f20"/>
  <rect x="363.22" y="271.52" width="13.39" height="13.39" fill="#231f20"/>
  <rect x="363.22" y="316.05" width="13.39" height="13.39" fill="#231f20"/>
  <rect x="1008.73" y="185.84" width="13.39" height="13.39" fill="#231f20"/>
  <rect x="1008.73" y="230.37" width="13.39" height="13.39" fill="#231f20"/>
  <rect x="967.61" y="185.84" width="13.39" height="13.39" fill="#231f20"/>
  <rect x="967.61" y="230.37" width="13.39" height="13.39" fill="#231f20"/>
  <rect x="1008.73" y="272.88" width="13.39" height="13.39" fill="#231f20"/>
  <rect x="1053.24" y="272.53" width="13.39" height="13.39" fill="#231f20"/>
  <rect x="1053.24" y="317.06" width="13.39" height="13.39" fill="#231f20"/>
  <rect x="1053.24" y="359.57" width="13.39" height="13.39" fill="#231f20"/>
  <rect x="1052.84" y="11.03" width="13.39" height="13.39" fill="#231f20"/>
  <rect x="1052.84" y="55.56" width="13.39" height="13.39" fill="#231f20"/>
  <rect x="967.61" y="272.88" width="13.39" height="13.39" fill="#231f20"/>
  <rect x="967.61" y="402.02" width="13.39" height="13.39" fill="#231f20"/>
  <rect x="967.61" y="359.21" width="13.39" height="13.39" fill="#231f20"/>
  <rect x="967.61" y="446.55" width="13.39" height="13.39" fill="#231f20"/>
  <rect x="967.61" y="489.06" width="13.39" height="13.39" fill="#231f20"/>
  <rect x="967.61" y="531.86" width="13.39" height="13.39" fill="#231f20"/>
  <rect x="1009.41" y="920.78" width="13.39" height="13.39" fill="#231f20"/>
  <rect x="1009.41" y="965.31" width="13.39" height="13.39" fill="#231f20"/>
  <rect x="1009.41" y="1007.82" width="13.39" height="13.39" fill="#231f20"/>
  <rect x="1009.41" y="1050.63" width="13.39" height="13.39" fill="#231f20"/>
  <rect x="880.37" y="13.4" width="13.39" height="13.39" fill="#231f20"/>
  <rect x="880.37" y="57.93" width="13.39" height="13.39" fill="#231f20"/>
  <rect x="880.37" y="100.45" width="13.39" height="13.39" fill="#231f20"/>
  <rect x="402.86" y="359.69" width="13.39" height="13.39" fill="#231f20"/>
  <rect x="402.86" y="402.37" width="13.39" height="13.39" fill="#231f20"/>
  <rect x="402.86" y="443.69" width="13.39" height="13.39" fill="#231f20"/>
  <rect x="402.86" y="488.22" width="13.39" height="13.39" fill="#231f20"/>
  <rect x="402.86" y="531.86" width="13.39" height="13.39" fill="#231f20"/>
  <rect x="402.86" y="574.55" width="13.39" height="13.39" fill="#231f20"/>
  <rect x="402.86" y="620.26" width="13.39" height="13.39" fill="#231f20"/>
  <rect x="402.86" y="662.95" width="13.39" height="13.39" fill="#231f20"/>
  <rect x="402.86" y="704.27" width="13.39" height="13.39" fill="#231f20"/>
  <rect x="402.86" y="748.8" width="13.39" height="13.39" fill="#231f20"/>
  <rect x="402.86" y="792.44" width="13.39" height="13.39" fill="#231f20"/>
  <rect x="146.04" y="359.69" width="13.39" height="13.39" fill="#231f20"/>
  <rect x="146.04" y="402.37" width="13.39" height="13.39" fill="#231f20"/>
  <rect x="146.04" y="443.69" width="13.39" height="13.39" fill="#231f20"/>
  <rect x="146.04" y="488.22" width="13.39" height="13.39" fill="#231f20"/>
  <rect x="146.04" y="531.86" width="13.39" height="13.39" fill="#231f20"/>
  <rect x="146.04" y="574.55" width="13.39" height="13.39" fill="#231f20"/>
  <rect x="146.04" y="620.26" width="13.39" height="13.39" fill="#231f20"/>
  <rect x="146.04" y="662.95" width="13.39" height="13.39" fill="#231f20"/>
  <rect x="146.04" y="704.27" width="13.39" height="13.39" fill="#231f20"/>
  <rect x="146.04" y="748.8" width="13.39" height="13.39" fill="#231f20"/>
  <rect x="146.04" y="792.44" width="13.39" height="13.39" fill="#231f20"/>
  <rect x="104.68" y="359.69" width="13.39" height="13.39" fill="#231f20"/>
  <rect x="104.68" y="402.37" width="13.39" height="13.39" fill="#231f20"/>
  <rect x="104.68" y="443.69" width="13.39" height="13.39" fill="#231f20"/>
  <rect x="104.68" y="488.22" width="13.39" height="13.39" fill="#231f20"/>
  <rect x="104.68" y="531.86" width="13.39" height="13.39" fill="#231f20"/>
  <rect x="104.68" y="143.63" width="13.39" height="13.39" fill="#231f20"/>
  <rect x="104.68" y="186.32" width="13.39" height="13.39" fill="#231f20"/>
  <rect x="104.68" y="227.64" width="13.39" height="13.39" fill="#231f20"/>
  <rect x="104.68" y="272.17" width="13.39" height="13.39" fill="#231f20"/>
  <rect x="146.04" y="315.81" width="13.39" height="13.39" fill="#231f20"/>
  <rect x="63.32" y="143.63" width="13.39" height="13.39" fill="#231f20"/>
  <rect x="63.32" y="186.32" width="13.39" height="13.39" fill="#231f20"/>
  <rect x="63.32" y="227.64" width="13.39" height="13.39" fill="#231f20"/>
  <rect x="104.68" y="13.82" width="13.39" height="13.39" fill="#231f20"/>
  <rect x="104.68" y="56.51" width="13.39" height="13.39" fill="#231f20"/>
  <rect x="104.68" y="97.83" width="13.39" height="13.39" fill="#231f20"/>
  <rect x="63.32" y="13.82" width="13.39" height="13.39" fill="#231f20"/>
  <rect x="63.32" y="56.51" width="13.39" height="13.39" fill="#231f20"/>
  <rect x="63.32" y="97.83" width="13.39" height="13.39" fill="#231f20"/>
  <rect x="63.32" y="272.17" width="13.39" height="13.39" fill="#231f20"/>
  <rect x="104.68" y="315.81" width="13.39" height="13.39" fill="#231f20"/>
  <rect x="104.68" y="574.55" width="13.39" height="13.39" fill="#231f20"/>
  <rect x="104.68" y="620.26" width="13.39" height="13.39" fill="#231f20"/>
  <rect x="104.68" y="662.95" width="13.39" height="13.39" fill="#231f20"/>
  <rect x="104.68" y="704.27" width="13.39" height="13.39" fill="#231f20"/>
  <rect x="104.68" y="748.8" width="13.39" height="13.39" fill="#231f20"/>
  <rect x="104.68" y="792.44" width="13.39" height="13.39" fill="#231f20"/>
  <rect x="402.86" y="835.12" width="13.39" height="13.39" fill="#231f20"/>
  <rect x="187.4" y="531.07" width="13.39" height="13.39" fill="#231f20"/>
  <rect x="187.4" y="576.78" width="13.39" height="13.39" fill="#231f20"/>
  <rect x="187.4" y="619.46" width="13.39" height="13.39" fill="#231f20"/>
  <rect x="230.65" y="835.12" width="13.39" height="13.39" transform="translate(-604.48 1079.16) rotate(-90)" fill="#231f20"/>
  <rect x="275.18" y="835.12" width="13.39" height="13.39" transform="translate(-559.95 1123.69) rotate(-90)" fill="#231f20"/>
  <rect x="318.82" y="835.12" width="13.39" height="13.39" transform="translate(-516.31 1167.33) rotate(-90)" fill="#231f20"/>
  <rect x="361.5" y="835.12" width="13.39" height="13.39" transform="translate(-473.62 1210.02) rotate(-90)" fill="#231f20"/>
  <rect x="187.4" y="835.12" width="13.39" height="13.39" fill="#231f20"/>
  <rect x="15.18" y="835.12" width="13.39" height="13.39" transform="translate(-819.94 863.7) rotate(-90)" fill="#231f20"/>
  <rect x="59.71" y="835.12" width="13.39" height="13.39" transform="translate(-775.41 908.23) rotate(-90)" fill="#231f20"/>
  <rect x="103.35" y="835.12" width="13.39" height="13.39" transform="translate(-731.77 951.87) rotate(-90)" fill="#231f20"/>
  <rect x="146.04" y="835.12" width="13.39" height="13.39" transform="translate(-689.09 994.55) rotate(-90)" fill="#231f20"/>
  <rect x="187.4" y="878.25" width="13.39" height="13.39" fill="#231f20"/>
  <rect x="15.18" y="878.25" width="13.39" height="13.39" transform="translate(-863.07 906.82) rotate(-90)" fill="#231f20"/>
  <rect x="59.71" y="878.25" width="13.39" height="13.39" transform="translate(-818.54 951.35) rotate(-90)" fill="#231f20"/>
  <rect x="103.35" y="878.25" width="13.39" height="13.39" transform="translate(-774.9 994.99) rotate(-90)" fill="#231f20"/>
  <rect x="146.04" y="878.25" width="13.39" height="13.39" transform="translate(-732.21 1037.68) rotate(-90)" fill="#231f20"/>
  <rect x="492.59" y="229.54" width="13.39" height="13.39" fill="#231f20"/>
  <rect x="534.85" y="186.21" width="13.39" height="13.39" fill="#231f20"/>
  <rect x="534.85" y="141.7" width="13.39" height="13.39" fill="#231f20"/>
  <rect x="577.03" y="141.7" width="13.39" height="13.39" fill="#231f20"/>
  <rect x="577.03" y="100.09" width="13.39" height="13.39" fill="#231f20"/>
  <rect x="490.32" y="100.09" width="13.39" height="13.39" fill="#231f20"/>
  <rect x="448.49" y="100.09" width="13.39" height="13.39" fill="#231f20"/>
  <rect x="405.06" y="100.09" width="13.39" height="13.39" fill="#231f20"/>
  <rect x="405.06" y="57.07" width="13.39" height="13.39" fill="#231f20"/>
  <rect x="405.06" y="13.72" width="13.39" height="13.39" fill="#231f20"/>
  <rect x="363.22" y="100.09" width="13.39" height="13.39" fill="#231f20"/>
  <rect x="577.03" y="56.92" width="13.39" height="13.39" fill="#231f20"/>
  <rect x="620.02" y="56.92" width="13.39" height="13.39" fill="#231f20"/>
</svg>