<?xml version="1.0" encoding="UTF-8"?>
<svg id="_13" data-name="13" xmlns="http://www.w3.org/2000/svg" viewBox="0 0 1080 1080">
  <rect x="519.85" y="433.03" width="40.84" height="40.84" fill="#231f20"/>
  <rect x="476.83" y="390.08" width="40.84" height="40.84" fill="#231f20"/>
  <rect x="476.83" y="346.62" width="40.84" height="40.84" fill="#231f20"/>
  <rect x="476.83" y="433.03" width="40.84" height="40.84" fill="#231f20"/>
  <rect x="476.83" y="217.27" width="40.84" height="40.84" fill="#231f20"/>
  <rect x="476.83" y="174.18" width="40.84" height="40.84" fill="#231f20"/>
  <rect x="476.83" y="260.22" width="40.84" height="40.84" fill="#231f20"/>
  <rect x="433.62" y="390.08" width="40.84" height="40.84" fill="#231f20"/>
  <rect x="433.62" y="433.03" width="40.84" height="40.84" fill="#231f20"/>
  <rect x="390.35" y="303.71" width="40.84" height="40.84" fill="#231f20"/>
  <rect x="390.35" y="346.65" width="40.84" height="40.84" fill="#231f20"/>
  <rect x="347.15" y="303.71" width="40.84" height="40.84" fill="#231f20"/>
  <rect x="347.15" y="346.65" width="40.84" height="40.84" fill="#231f20"/>
  <rect x="433.81" y="174.18" width="40.84" height="40.84" fill="#231f20"/>
  <rect x="433.81" y="217.27" width="40.84" height="40.84" fill="#231f20"/>
  <rect x="390.6" y="174.18" width="40.84" height="40.84" fill="#231f20"/>
  <rect x="476.83" y="130.88" width="40.84" height="40.84" fill="#231f20"/>
  <rect x="433.81" y="130.88" width="40.84" height="40.84" fill="#231f20"/>
  <rect x="390.6" y="130.88" width="40.84" height="40.84" fill="#231f20"/>
  <rect x="390.6" y="217.27" width="40.84" height="40.84" fill="#231f20"/>
  <rect x="433.56" y="44.51" width="40.84" height="40.84" fill="#231f20"/>
  <rect x="433.56" y="87.45" width="40.84" height="40.84" fill="#231f20"/>
  <rect x="390.35" y="44.51" width="40.84" height="40.84" fill="#231f20"/>
  <rect x="390.35" y="1.54" width="40.84" height="40.84" fill="#231f20"/>
  <rect x="390.35" y="87.45" width="40.84" height="40.84" fill="#231f20"/>
  <rect x="433.68" y="735.79" width="40.84" height="40.84" fill="#231f20"/>
  <rect x="433.68" y="778.89" width="40.84" height="40.84" fill="#231f20"/>
  <rect x="390.47" y="735.79" width="40.84" height="40.84" fill="#231f20"/>
  <rect x="520.18" y="778.89" width="40.84" height="40.84" fill="#231f20"/>
  <rect x="476.97" y="778.89" width="40.84" height="40.84" fill="#231f20"/>
  <rect x="390.47" y="778.89" width="40.84" height="40.84" fill="#231f20"/>
  <rect x="347.15" y="735.79" width="40.84" height="40.84" fill="#231f20"/>
  <rect x="347.15" y="778.89" width="40.84" height="40.84" fill="#231f20"/>
  <rect x="303.95" y="735.79" width="40.84" height="40.84" fill="#231f20"/>
  <rect x="303.95" y="778.89" width="40.84" height="40.84" fill="#231f20"/>
  <rect x="390.47" y="994.83" width="40.84" height="40.84" fill="#231f20"/>
  <rect x="390.47" y="1037.93" width="40.84" height="40.84" fill="#231f20"/>
  <rect x="347.15" y="994.83" width="40.84" height="40.84" fill="#231f20"/>
  <rect x="347.15" y="1037.93" width="40.84" height="40.84" fill="#231f20"/>
  <rect x="303.95" y="994.83" width="40.84" height="40.84" fill="#231f20"/>
  <rect x="303.95" y="1037.93" width="40.84" height="40.84" fill="#231f20"/>
  <rect x="260.74" y="994.83" width="40.84" height="40.84" fill="#231f20"/>
  <rect x="260.74" y="1037.93" width="40.84" height="40.84" fill="#231f20"/>
  <rect x="217.53" y="994.83" width="40.84" height="40.84" fill="#231f20"/>
  <rect x="217.53" y="1037.93" width="40.84" height="40.84" fill="#231f20"/>
  <rect x="260.74" y="908.64" width="40.84" height="40.84" fill="#231f20"/>
  <rect x="260.74" y="951.73" width="40.84" height="40.84" fill="#231f20"/>
  <rect x="217.53" y="908.64" width="40.84" height="40.84" fill="#231f20"/>
  <rect x="217.53" y="951.73" width="40.84" height="40.84" fill="#231f20"/>
  <rect x="303.95" y="822.31" width="40.84" height="40.84" fill="#231f20"/>
  <rect x="519.94" y="735.47" width="40.84" height="40.84" fill="#231f20"/>
  <rect x="563.06" y="778.89" width="40.84" height="40.84" fill="#231f20"/>
  <rect x="562.82" y="735.47" width="40.84" height="40.84" fill="#231f20"/>
  <rect x="476.73" y="735.47" width="40.84" height="40.84" fill="#231f20"/>
  <rect x="692.75" y="1.31" width="40.84" height="40.84" fill="#231f20"/>
  <rect x="692.75" y="44.25" width="40.84" height="40.84" fill="#231f20"/>
  <rect x="649.55" y="1.31" width="40.84" height="40.84" fill="#231f20"/>
  <rect x="649.55" y="44.25" width="40.84" height="40.84" fill="#231f20"/>
  <rect x="577.11" y="447.29" width="13.39" height="13.39" fill="#231f20"/>
  <rect x="577.11" y="403.81" width="13.39" height="13.39" fill="#231f20"/>
  <rect x="533.3" y="403.81" width="13.39" height="13.39" fill="#231f20"/>
  <rect x="533.3" y="360.35" width="13.39" height="13.39" fill="#231f20"/>
  <rect x="533.3" y="317.43" width="13.39" height="13.39" fill="#231f20"/>
  <rect x="490.55" y="317.43" width="13.39" height="13.39" fill="#231f20"/>
  <rect x="533.3" y="273.97" width="13.39" height="13.39" fill="#231f20"/>
  <rect x="447.53" y="360.35" width="13.39" height="13.39" fill="#231f20"/>
  <rect x="447.53" y="317.43" width="13.39" height="13.39" fill="#231f20"/>
  <rect x="447.53" y="273.97" width="13.39" height="13.39" fill="#231f20"/>
  <rect x="404.32" y="273.97" width="13.39" height="13.39" fill="#231f20"/>
  <rect x="360.63" y="273.97" width="13.39" height="13.39" fill="#231f20"/>
  <rect x="317.54" y="273.97" width="13.39" height="13.39" fill="#231f20"/>
  <rect x="447.53" y="491.5" width="13.39" height="13.39" fill="#231f20"/>
  <rect x="404.32" y="491.5" width="13.39" height="13.39" fill="#231f20"/>
  <rect x="362.42" y="491.32" width="13.39" height="13.39" fill="#231f20"/>
  <rect x="317.54" y="491.5" width="13.39" height="13.39" fill="#231f20"/>
  <rect x="619.55" y="491.5" width="13.39" height="13.39" fill="#231f20"/>
  <rect x="576.34" y="491.5" width="13.39" height="13.39" fill="#231f20"/>
  <rect x="532.65" y="491.5" width="13.39" height="13.39" fill="#231f20"/>
  <rect x="491" y="491.5" width="13.39" height="13.39" fill="#231f20"/>
  <rect x="404.32" y="403.81" width="13.39" height="13.39" fill="#231f20"/>
  <rect x="362.42" y="403.63" width="13.39" height="13.39" fill="#231f20"/>
  <rect x="317.54" y="403.81" width="13.39" height="13.39" fill="#231f20"/>
  <rect x="404.32" y="447.29" width="13.39" height="13.39" fill="#231f20"/>
  <rect x="362.42" y="447.11" width="13.39" height="13.39" fill="#231f20"/>
  <rect x="317.54" y="447.29" width="13.39" height="13.39" fill="#231f20"/>
  <rect x="404.32" y="623.28" width="13.39" height="13.39" fill="#231f20"/>
  <rect x="362.42" y="623.1" width="13.39" height="13.39" fill="#231f20"/>
  <rect x="317.54" y="623.28" width="13.39" height="13.39" fill="#231f20"/>
  <rect x="404.32" y="535.59" width="13.39" height="13.39" fill="#231f20"/>
  <rect x="362.42" y="535.41" width="13.39" height="13.39" fill="#231f20"/>
  <rect x="317.54" y="535.59" width="13.39" height="13.39" fill="#231f20"/>
  <rect x="404.32" y="579.07" width="13.39" height="13.39" fill="#231f20"/>
  <rect x="362.42" y="578.89" width="13.39" height="13.39" fill="#231f20"/>
  <rect x="317.54" y="579.07" width="13.39" height="13.39" fill="#231f20"/>
  <rect x="404.32" y="706.7" width="13.39" height="13.39" fill="#231f20"/>
  <rect x="362.42" y="706.52" width="13.39" height="13.39" fill="#231f20"/>
  <rect x="317.54" y="706.7" width="13.39" height="13.39" fill="#231f20"/>
  <rect x="404.32" y="662.49" width="13.39" height="13.39" fill="#231f20"/>
  <rect x="362.42" y="662.31" width="13.39" height="13.39" fill="#231f20"/>
  <rect x="317.54" y="662.49" width="13.39" height="13.39" fill="#231f20"/>
  <rect x="273.73" y="491.5" width="13.39" height="13.39" fill="#231f20"/>
  <rect x="273.73" y="623.28" width="13.39" height="13.39" fill="#231f20"/>
  <rect x="273.73" y="535.59" width="13.39" height="13.39" fill="#231f20"/>
  <rect x="273.73" y="579.07" width="13.39" height="13.39" fill="#231f20"/>
  <rect x="273.73" y="662.49" width="13.39" height="13.39" fill="#231f20"/>
  <rect x="273.73" y="795.14" width="13.39" height="13.39" fill="#231f20"/>
  <rect x="273.73" y="707.45" width="13.39" height="13.39" fill="#231f20"/>
  <rect x="231.25" y="623.28" width="13.39" height="13.39" fill="#231f20"/>
  <rect x="231.25" y="662.49" width="13.39" height="13.39" fill="#231f20"/>
  <rect x="231.25" y="707.45" width="13.39" height="13.39" fill="#231f20"/>
  <rect x="273.73" y="750.94" width="13.39" height="13.39" fill="#231f20"/>
  <rect x="231.25" y="795.14" width="13.39" height="13.39" fill="#231f20"/>
  <rect x="231.25" y="750.94" width="13.39" height="13.39" fill="#231f20"/>
  <rect x="273.73" y="834.35" width="13.39" height="13.39" fill="#231f20"/>
  <rect x="533.84" y="623.28" width="13.39" height="13.39" fill="#231f20"/>
  <rect x="491.94" y="623.1" width="13.39" height="13.39" fill="#231f20"/>
  <rect x="447.06" y="623.28" width="13.39" height="13.39" fill="#231f20"/>
  <rect x="533.84" y="535.59" width="13.39" height="13.39" fill="#231f20"/>
  <rect x="491.94" y="535.41" width="13.39" height="13.39" fill="#231f20"/>
  <rect x="447.06" y="535.59" width="13.39" height="13.39" fill="#231f20"/>
  <rect x="533.84" y="579.07" width="13.39" height="13.39" fill="#231f20"/>
  <rect x="491.94" y="578.89" width="13.39" height="13.39" fill="#231f20"/>
  <rect x="447.06" y="579.07" width="13.39" height="13.39" fill="#231f20"/>
  <rect x="533.84" y="706.7" width="13.39" height="13.39" fill="#231f20"/>
  <rect x="491.94" y="706.52" width="13.39" height="13.39" fill="#231f20"/>
  <rect x="447.06" y="706.7" width="13.39" height="13.39" fill="#231f20"/>
  <rect x="533.84" y="662.49" width="13.39" height="13.39" fill="#231f20"/>
  <rect x="491.94" y="662.31" width="13.39" height="13.39" fill="#231f20"/>
  <rect x="619.42" y="623.28" width="13.39" height="13.39" fill="#231f20"/>
  <rect x="577.52" y="623.1" width="13.39" height="13.39" fill="#231f20"/>
  <rect x="619.42" y="535.59" width="13.39" height="13.39" fill="#231f20"/>
  <rect x="577.52" y="535.41" width="13.39" height="13.39" fill="#231f20"/>
  <rect x="619.42" y="579.07" width="13.39" height="13.39" fill="#231f20"/>
  <rect x="577.52" y="578.89" width="13.39" height="13.39" fill="#231f20"/>
  <rect x="619.42" y="706.7" width="13.39" height="13.39" fill="#231f20"/>
  <rect x="577.52" y="706.52" width="13.39" height="13.39" fill="#231f20"/>
  <rect x="619.42" y="662.49" width="13.39" height="13.39" fill="#231f20"/>
  <rect x="577.52" y="662.31" width="13.39" height="13.39" fill="#231f20"/>
  <rect x="447.06" y="662.49" width="13.39" height="13.39" fill="#231f20"/>
  <rect x="404.32" y="879.42" width="13.39" height="13.39" fill="#231f20"/>
  <rect x="362.42" y="879.42" width="13.39" height="13.39" fill="#231f20"/>
  <rect x="317.54" y="879.42" width="13.39" height="13.39" fill="#231f20"/>
  <rect x="273.73" y="879.42" width="13.39" height="13.39" fill="#231f20"/>
  <rect x="404.32" y="964.16" width="13.39" height="13.39" fill="#231f20"/>
  <rect x="362.42" y="963.98" width="13.39" height="13.39" fill="#231f20"/>
  <rect x="317.54" y="964.16" width="13.39" height="13.39" fill="#231f20"/>
  <rect x="404.32" y="921.23" width="13.39" height="13.39" fill="#231f20"/>
  <rect x="362.42" y="921.23" width="13.39" height="13.39" fill="#231f20"/>
  <rect x="317.54" y="921.23" width="13.39" height="13.39" fill="#231f20"/>
  <rect x="533.84" y="879.42" width="13.39" height="13.39" fill="#231f20"/>
  <rect x="491.94" y="879.42" width="13.39" height="13.39" fill="#231f20"/>
  <rect x="447.06" y="879.42" width="13.39" height="13.39" fill="#231f20"/>
  <rect x="533.84" y="964.16" width="13.39" height="13.39" fill="#231f20"/>
  <rect x="491.94" y="963.98" width="13.39" height="13.39" fill="#231f20"/>
  <rect x="447.06" y="964.16" width="13.39" height="13.39" fill="#231f20"/>
  <rect x="533.84" y="921.23" width="13.39" height="13.39" fill="#231f20"/>
  <rect x="491.94" y="921.23" width="13.39" height="13.39" fill="#231f20"/>
  <rect x="619.42" y="879.42" width="13.39" height="13.39" fill="#231f20"/>
  <rect x="577.52" y="879.42" width="13.39" height="13.39" fill="#231f20"/>
  <rect x="404.32" y="838.18" width="13.39" height="13.39" fill="#231f20"/>
  <rect x="362.42" y="838.18" width="13.39" height="13.39" fill="#231f20"/>
  <rect x="533.84" y="838.18" width="13.39" height="13.39" fill="#231f20"/>
  <rect x="491.94" y="838.18" width="13.39" height="13.39" fill="#231f20"/>
  <rect x="447.06" y="838.18" width="13.39" height="13.39" fill="#231f20"/>
  <rect x="619.42" y="838.18" width="13.39" height="13.39" fill="#231f20"/>
  <rect x="577.52" y="838.18" width="13.39" height="13.39" fill="#231f20"/>
  <rect x="619.42" y="964.16" width="13.39" height="13.39" fill="#231f20"/>
  <rect x="577.52" y="963.98" width="13.39" height="13.39" fill="#231f20"/>
  <rect x="619.42" y="921.23" width="13.39" height="13.39" fill="#231f20"/>
  <rect x="663.36" y="879.42" width="13.39" height="13.39" fill="#231f20"/>
  <rect x="663.36" y="838.18" width="13.39" height="13.39" fill="#231f20"/>
  <rect x="619.42" y="791.52" width="13.39" height="13.39" fill="#231f20"/>
  <rect x="619.42" y="750.28" width="13.39" height="13.39" fill="#231f20"/>
  <rect x="663.36" y="791.52" width="13.39" height="13.39" fill="#231f20"/>
  <rect x="663.36" y="750.28" width="13.39" height="13.39" fill="#231f20"/>
  <rect x="577.52" y="921.23" width="13.39" height="13.39" fill="#231f20"/>
  <rect x="447.06" y="921.23" width="13.39" height="13.39" fill="#231f20"/>
  <rect x="533.84" y="1050.44" width="13.39" height="13.39" fill="#231f20"/>
  <rect x="491.94" y="1050.26" width="13.39" height="13.39" fill="#231f20"/>
  <rect x="447.06" y="1050.44" width="13.39" height="13.39" fill="#231f20"/>
  <rect x="533.84" y="1007.51" width="13.39" height="13.39" fill="#231f20"/>
  <rect x="491.94" y="1007.51" width="13.39" height="13.39" fill="#231f20"/>
  <rect x="619.42" y="1050.44" width="13.39" height="13.39" fill="#231f20"/>
  <rect x="577.52" y="1050.26" width="13.39" height="13.39" fill="#231f20"/>
  <rect x="619.42" y="1007.51" width="13.39" height="13.39" fill="#231f20"/>
  <rect x="577.52" y="1007.51" width="13.39" height="13.39" fill="#231f20"/>
  <rect x="447.06" y="1007.51" width="13.39" height="13.39" fill="#231f20"/>
  <rect x="317.54" y="317.43" width="13.39" height="13.39" fill="#231f20"/>
  <rect x="317.54" y="360.88" width="13.39" height="13.39" fill="#231f20"/>
  <rect x="619.55" y="273.97" width="13.39" height="13.39" fill="#231f20"/>
  <rect x="619.55" y="403.81" width="13.39" height="13.39" fill="#231f20"/>
  <rect x="619.55" y="447.29" width="13.39" height="13.39" fill="#231f20"/>
  <rect x="837.7" y="491.5" width="13.39" height="13.39" fill="#231f20"/>
  <rect x="837.57" y="623.28" width="13.39" height="13.39" fill="#231f20"/>
  <rect x="837.57" y="535.59" width="13.39" height="13.39" fill="#231f20"/>
  <rect x="837.57" y="579.07" width="13.39" height="13.39" fill="#231f20"/>
  <rect x="837.57" y="706.7" width="13.39" height="13.39" fill="#231f20"/>
  <rect x="837.57" y="662.49" width="13.39" height="13.39" fill="#231f20"/>
  <rect x="837.57" y="794.3" width="13.39" height="13.39" fill="#231f20"/>
  <rect x="837.57" y="750.09" width="13.39" height="13.39" fill="#231f20"/>
  <rect x="837.7" y="403.81" width="13.39" height="13.39" fill="#231f20"/>
  <rect x="837.7" y="447.29" width="13.39" height="13.39" fill="#231f20"/>
  <rect x="661.99" y="491.5" width="13.39" height="13.39" fill="#231f20"/>
  <rect x="661.99" y="403.81" width="13.39" height="13.39" fill="#231f20"/>
  <rect x="661.99" y="447.29" width="13.39" height="13.39" fill="#231f20"/>
  <rect x="619.55" y="317.43" width="13.39" height="13.39" fill="#231f20"/>
  <rect x="619.55" y="360.88" width="13.39" height="13.39" fill="#231f20"/>
  <rect x="576.34" y="273.97" width="13.39" height="13.39" fill="#231f20"/>
  <rect x="576.34" y="317.43" width="13.39" height="13.39" fill="#231f20"/>
  <rect x="576.34" y="360.88" width="13.39" height="13.39" fill="#231f20"/>
  <rect x="533.3" y="230.82" width="13.39" height="13.39" fill="#231f20"/>
  <rect x="533.3" y="187.9" width="13.39" height="13.39" fill="#231f20"/>
  <rect x="533.3" y="144.45" width="13.39" height="13.39" fill="#231f20"/>
  <rect x="619.55" y="144.45" width="13.39" height="13.39" fill="#231f20"/>
  <rect x="619.55" y="187.9" width="13.39" height="13.39" fill="#231f20"/>
  <rect x="661.99" y="144.45" width="13.39" height="13.39" fill="#231f20"/>
  <rect x="661.99" y="187.9" width="13.39" height="13.39" fill="#231f20"/>
  <rect x="619.55" y="231.36" width="13.39" height="13.39" fill="#231f20"/>
  <rect x="661.99" y="273.97" width="13.39" height="13.39" fill="#231f20"/>
  <rect x="661.99" y="317.43" width="13.39" height="13.39" fill="#231f20"/>
  <rect x="661.99" y="231.36" width="13.39" height="13.39" fill="#231f20"/>
  <rect x="706.85" y="273.97" width="13.39" height="13.39" fill="#231f20"/>
  <rect x="706.85" y="317.43" width="13.39" height="13.39" fill="#231f20"/>
  <rect x="706.85" y="144.45" width="13.39" height="13.39" fill="#231f20"/>
  <rect x="706.85" y="187.9" width="13.39" height="13.39" fill="#231f20"/>
  <rect x="749.29" y="144.45" width="13.39" height="13.39" fill="#231f20"/>
  <rect x="749.29" y="187.9" width="13.39" height="13.39" fill="#231f20"/>
  <rect x="706.85" y="231.36" width="13.39" height="13.39" fill="#231f20"/>
  <rect x="749.29" y="273.97" width="13.39" height="13.39" fill="#231f20"/>
  <rect x="749.29" y="317.43" width="13.39" height="13.39" fill="#231f20"/>
  <rect x="749.29" y="231.36" width="13.39" height="13.39" fill="#231f20"/>
  <rect x="837.04" y="144.45" width="13.39" height="13.39" fill="#231f20"/>
  <rect x="837.04" y="187.9" width="13.39" height="13.39" fill="#231f20"/>
  <rect x="837.04" y="273.97" width="13.39" height="13.39" fill="#231f20"/>
  <rect x="837.04" y="317.43" width="13.39" height="13.39" fill="#231f20"/>
  <rect x="837.04" y="231.36" width="13.39" height="13.39" fill="#231f20"/>
  <rect x="837.04" y="14.52" width="13.39" height="13.39" fill="#231f20"/>
  <rect x="837.04" y="57.98" width="13.39" height="13.39" fill="#231f20"/>
  <rect x="837.04" y="101.43" width="13.39" height="13.39" fill="#231f20"/>
  <rect x="576.34" y="144.45" width="13.39" height="13.39" fill="#231f20"/>
  <rect x="576.34" y="187.9" width="13.39" height="13.39" fill="#231f20"/>
  <rect x="576.34" y="231.36" width="13.39" height="13.39" fill="#231f20"/>
  <rect x="533.3" y="100.9" width="13.39" height="13.39" fill="#231f20"/>
  <rect x="533.3" y="57.98" width="13.39" height="13.39" fill="#231f20"/>
  <rect x="533.3" y="14.52" width="13.39" height="13.39" fill="#231f20"/>
  <rect x="490.55" y="100.9" width="13.39" height="13.39" fill="#231f20"/>
  <rect x="490.55" y="57.98" width="13.39" height="13.39" fill="#231f20"/>
  <rect x="490.55" y="14.52" width="13.39" height="13.39" fill="#231f20"/>
  <rect x="447.53" y="14.52" width="13.39" height="13.39" fill="#231f20"/>
  <rect x="619.55" y="14.52" width="13.39" height="13.39" fill="#231f20"/>
  <rect x="619.55" y="57.98" width="13.39" height="13.39" fill="#231f20"/>
  <rect x="619.55" y="101.43" width="13.39" height="13.39" fill="#231f20"/>
  <rect x="576.34" y="14.52" width="13.39" height="13.39" fill="#231f20"/>
  <rect x="576.34" y="57.98" width="13.39" height="13.39" fill="#231f20"/>
  <rect x="576.34" y="101.43" width="13.39" height="13.39" fill="#231f20"/>
  <rect x="706.48" y="101.43" width="13.39" height="13.39" fill="#231f20"/>
  <rect x="663.27" y="101.43" width="13.39" height="13.39" fill="#231f20"/>
  <rect x="317.54" y="231.45" width="13.39" height="13.39" fill="#231f20"/>
  <rect x="273.73" y="274.44" width="13.39" height="13.39" fill="#231f20"/>
  <rect x="230.52" y="274.44" width="13.39" height="13.39" fill="#231f20"/>
  <rect x="317.54" y="188.29" width="13.39" height="13.39" fill="#231f20"/>
  <rect x="317.54" y="145.38" width="13.39" height="13.39" fill="#231f20"/>
  <rect x="317.54" y="101.92" width="13.39" height="13.39" fill="#231f20"/>
  <rect x="273.73" y="144.91" width="13.39" height="13.39" fill="#231f20"/>
  <rect x="273.73" y="188.36" width="13.39" height="13.39" fill="#231f20"/>
  <rect x="273.73" y="231.82" width="13.39" height="13.39" fill="#231f20"/>
  <rect x="230.52" y="144.91" width="13.39" height="13.39" fill="#231f20"/>
  <rect x="230.52" y="188.36" width="13.39" height="13.39" fill="#231f20"/>
  <rect x="230.52" y="231.82" width="13.39" height="13.39" fill="#231f20"/>
  <rect x="317.54" y="58.37" width="13.39" height="13.39" fill="#231f20"/>
  <rect x="360.63" y="231.45" width="13.39" height="13.39" fill="#231f20"/>
  <rect x="360.63" y="188.29" width="13.39" height="13.39" fill="#231f20"/>
  <rect x="360.63" y="145.38" width="13.39" height="13.39" fill="#231f20"/>
  <rect x="360.63" y="101.92" width="13.39" height="13.39" fill="#231f20"/>
  <rect x="360.63" y="58.37" width="13.39" height="13.39" fill="#231f20"/>
  <rect x="317.54" y="14.18" width="13.39" height="13.39" fill="#231f20"/>
  <rect x="360.63" y="14.18" width="13.39" height="13.39" fill="#231f20"/>
  <rect x="273.73" y="101.9" width="13.39" height="13.39" fill="#231f20"/>
  <rect x="230.52" y="101.9" width="13.39" height="13.39" fill="#231f20"/>
  <rect x="187.31" y="274.44" width="13.39" height="13.39" fill="#231f20"/>
  <rect x="187.31" y="144.91" width="13.39" height="13.39" fill="#231f20"/>
  <rect x="187.31" y="188.36" width="13.39" height="13.39" fill="#231f20"/>
  <rect x="187.31" y="231.82" width="13.39" height="13.39" fill="#231f20"/>
  <rect x="187.31" y="101.9" width="13.39" height="13.39" fill="#231f20"/>
  <rect x="230.52" y="57.19" width="13.39" height="13.39" fill="#231f20"/>
  <rect x="230.52" y="14.18" width="13.39" height="13.39" fill="#231f20"/>
  <rect x="187.31" y="57.19" width="13.39" height="13.39" fill="#231f20"/>
  <rect x="187.31" y="14.18" width="13.39" height="13.39" fill="#231f20"/>
</svg>