<?xml version="1.0" encoding="UTF-8"?>
<svg id="_14" data-name="14" xmlns="http://www.w3.org/2000/svg" viewBox="0 0 1080 1080">
  <rect x="433.28" y="908.02" width="40.84" height="40.84" fill="#231f20"/>
  <rect x="390.13" y="908.02" width="40.84" height="40.84" fill="#231f20"/>
  <rect x="346.64" y="994.23" width="40.84" height="40.84" fill="#231f20"/>
  <rect x="87.27" y="994.23" width="40.84" height="40.84" fill="#231f20"/>
  <rect x="87.27" y="1037.12" width="40.84" height="40.84" fill="#231f20"/>
  <rect x="44.19" y="1037.12" width="40.84" height="40.84" fill="#231f20"/>
  <rect x="476.43" y="908.02" width="40.84" height="40.84" fill="#231f20"/>
  <rect x="260.41" y="778.21" width="40.84" height="40.84" fill="#231f20"/>
  <rect x="216.99" y="778.21" width="40.84" height="40.84" fill="#231f20"/>
  <rect x="303.83" y="778.21" width="40.84" height="40.84" fill="#231f20"/>
  <rect x="217.52" y="734.92" width="40.84" height="40.84" fill="#231f20"/>
  <rect x="174.1" y="734.92" width="40.84" height="40.84" fill="#231f20"/>
  <rect x="130.66" y="561.91" width="40.84" height="40.84" fill="#231f20"/>
  <rect x="87.69" y="778.21" width="40.84" height="40.84" fill="#231f20"/>
  <rect x="87.69" y="605.45" width="40.84" height="40.84" fill="#231f20"/>
  <rect x="44.27" y="605.45" width="40.84" height="40.84" fill="#231f20"/>
  <rect x="44.27" y="561.91" width="40.84" height="40.84" fill="#231f20"/>
  <rect x="44.27" y="518.99" width="40.84" height="40.84" fill="#231f20"/>
  <rect x=".85" y="432.76" width="40.84" height="40.84" fill="#231f20"/>
  <rect x=".85" y="389.22" width="40.84" height="40.84" fill="#231f20"/>
  <rect x="44.35" y="303.16" width="40.84" height="40.84" fill="#231f20"/>
  <rect x="44.35" y="259.62" width="40.84" height="40.84" fill="#231f20"/>
  <rect x="260.94" y="734.92" width="40.84" height="40.84" fill="#231f20"/>
  <rect x="173.95" y="346.16" width="40.84" height="40.84" fill="#231f20"/>
  <rect x="216.94" y="173.29" width="40.84" height="40.84" fill="#231f20"/>
  <rect x="216.94" y="216.62" width="40.84" height="40.84" fill="#231f20"/>
  <rect x="174.08" y="173.29" width="40.84" height="40.84" fill="#231f20"/>
  <rect x="174.08" y="216.62" width="40.84" height="40.84" fill="#231f20"/>
  <rect x="216.94" y="259.95" width="40.84" height="40.84" fill="#231f20"/>
  <rect x="173.95" y="259.95" width="40.84" height="40.84" fill="#231f20"/>
  <rect x="216.94" y="302.87" width="40.84" height="40.84" fill="#231f20"/>
  <rect x="174.08" y="302.87" width="40.84" height="40.84" fill="#231f20"/>
  <rect x="173.95" y="475.66" width="40.84" height="40.84" fill="#231f20"/>
  <rect x="173.95" y="518.94" width="40.84" height="40.84" fill="#231f20"/>
  <rect x="130.66" y="518.94" width="40.84" height="40.84" fill="#231f20"/>
  <rect x="173.95" y="389.44" width="40.84" height="40.84" fill="#231f20"/>
  <rect x="174.08" y="432.37" width="40.84" height="40.84" fill="#231f20"/>
  <rect x="519.58" y="908.02" width="40.84" height="40.84" fill="#231f20"/>
  <rect x="562.73" y="908.02" width="40.84" height="40.84" fill="#231f20"/>
  <rect x="605.88" y="908.02" width="40.84" height="40.84" fill="#231f20"/>
  <rect x="390.13" y="821.44" width="40.84" height="40.84" fill="#231f20"/>
  <rect x="433.28" y="821.44" width="40.84" height="40.84" fill="#231f20"/>
  <rect x="476.43" y="821.44" width="40.84" height="40.84" fill="#231f20"/>
  <rect x="519.58" y="821.44" width="40.84" height="40.84" fill="#231f20"/>
  <rect x="562.73" y="821.44" width="40.84" height="40.84" fill="#231f20"/>
  <rect x="649.03" y="908.02" width="40.84" height="40.84" fill="#231f20"/>
  <rect x="692.18" y="908.02" width="40.84" height="40.84" fill="#231f20"/>
  <rect x="735.69" y="778.04" width="40.84" height="40.84" fill="#231f20"/>
  <rect x="778.84" y="778.04" width="40.84" height="40.84" fill="#231f20"/>
  <rect x="821.99" y="778.04" width="40.84" height="40.84" fill="#231f20"/>
  <rect x="865.14" y="734.91" width="40.84" height="40.84" fill="#231f20"/>
  <rect x="908.29" y="734.91" width="40.84" height="40.84" fill="#231f20"/>
  <rect x="908.29" y="691.88" width="40.84" height="40.84" fill="#231f20"/>
  <rect x="994.64" y="605.55" width="40.84" height="40.84" fill="#231f20"/>
  <rect x="951.66" y="648.53" width="40.84" height="40.84" fill="#231f20"/>
  <rect x="994.64" y="562.02" width="40.84" height="40.84" fill="#231f20"/>
  <rect x="1038.03" y="518.99" width="40.84" height="40.84" fill="#231f20"/>
  <rect x="994.64" y="518.99" width="40.84" height="40.84" fill="#231f20"/>
  <rect x="1038.03" y="475.6" width="40.84" height="40.84" fill="#231f20"/>
  <rect x="994.64" y="475.6" width="40.84" height="40.84" fill="#231f20"/>
  <rect x="1038.03" y="432.93" width="40.84" height="40.84" fill="#231f20"/>
  <rect x="994.64" y="432.93" width="40.84" height="40.84" fill="#231f20"/>
  <rect x="1038.03" y="389.72" width="40.84" height="40.84" fill="#231f20"/>
  <rect x="994.64" y="389.72" width="40.84" height="40.84" fill="#231f20"/>
  <rect x="994.64" y="346.51" width="40.84" height="40.84" fill="#231f20"/>
  <rect x="1038.03" y="346.51" width="40.84" height="40.84" fill="#231f20"/>
  <rect x="951.68" y="346.51" width="40.84" height="40.84" fill="#231f20"/>
  <rect x="994.64" y="303.3" width="40.84" height="40.84" fill="#231f20"/>
  <rect x="1038.03" y="303.3" width="40.84" height="40.84" fill="#231f20"/>
  <rect x="951.68" y="303.3" width="40.84" height="40.84" fill="#231f20"/>
  <rect x="994.64" y="259.87" width="40.84" height="40.84" fill="#231f20"/>
  <rect x="951.68" y="259.87" width="40.84" height="40.84" fill="#231f20"/>
  <rect x="951.68" y="216.43" width="40.84" height="40.84" fill="#231f20"/>
  <rect x="951.68" y="173.4" width="40.84" height="40.84" fill="#231f20"/>
  <rect x="908.42" y="173.4" width="40.84" height="40.84" fill="#231f20"/>
  <rect x="735.69" y="821.16" width="40.84" height="40.84" fill="#231f20"/>
  <rect x="649.21" y="821.16" width="40.84" height="40.84" fill="#231f20"/>
  <rect x="778.84" y="821.16" width="40.84" height="40.84" fill="#231f20"/>
  <rect x="821.99" y="821.16" width="40.84" height="40.84" fill="#231f20"/>
  <rect x="1037.76" y="735.24" width="40.84" height="40.84" fill="#231f20"/>
  <rect x="994.64" y="735.24" width="40.84" height="40.84" fill="#231f20"/>
  <rect x="1037.76" y="994.52" width="40.84" height="40.84" fill="#231f20"/>
  <rect x="994.64" y="994.52" width="40.84" height="40.84" fill="#231f20"/>
  <rect x="692.38" y="950.96" width="40.84" height="40.84" transform="translate(1684.19 258.58) rotate(90)" fill="#231f20"/>
  <rect x="692.38" y="994.11" width="40.84" height="40.84" transform="translate(1727.34 301.73) rotate(90)" fill="#231f20"/>
  <rect x="692.38" y="1037.26" width="40.84" height="40.84" transform="translate(1770.49 344.88) rotate(90)" fill="#231f20"/>
  <rect x="562.5" y="648.77" width="40.84" height="40.84" fill="#231f20"/>
  <rect x="562.7" y="691.71" width="40.84" height="40.84" transform="translate(1295.25 129.01) rotate(90)" fill="#231f20"/>
  <rect x="562.7" y="734.86" width="40.84" height="40.84" transform="translate(1338.4 172.16) rotate(90)" fill="#231f20"/>
  <rect x="562.7" y="778.01" width="40.84" height="40.84" transform="translate(1381.55 215.31) rotate(90)" fill="#231f20"/>
  <rect x="605.78" y="648.77" width="40.84" height="40.84" fill="#231f20"/>
  <rect x="605.98" y="691.71" width="40.84" height="40.84" transform="translate(1338.53 85.73) rotate(90)" fill="#231f20"/>
  <rect x="605.98" y="734.86" width="40.84" height="40.84" transform="translate(1381.68 128.88) rotate(90)" fill="#231f20"/>
  <rect x="605.98" y="778.01" width="40.84" height="40.84" transform="translate(1424.83 172.03) rotate(90)" fill="#231f20"/>
  <rect x="562.5" y="475.97" width="40.84" height="40.84" fill="#231f20"/>
  <rect x="562.7" y="518.91" width="40.84" height="40.84" transform="translate(1122.45 -43.79) rotate(90)" fill="#231f20"/>
  <rect x="562.7" y="562.06" width="40.84" height="40.84" transform="translate(1165.6 -.64) rotate(90)" fill="#231f20"/>
  <rect x="562.7" y="605.21" width="40.84" height="40.84" transform="translate(1208.75 42.51) rotate(90)" fill="#231f20"/>
  <rect x="605.78" y="475.97" width="40.84" height="40.84" fill="#231f20"/>
  <rect x="605.98" y="518.91" width="40.84" height="40.84" transform="translate(1165.73 -87.07) rotate(90)" fill="#231f20"/>
  <rect x="605.98" y="562.06" width="40.84" height="40.84" transform="translate(1208.88 -43.92) rotate(90)" fill="#231f20"/>
  <rect x="605.98" y="605.21" width="40.84" height="40.84" transform="translate(1252.03 -.77) rotate(90)" fill="#231f20"/>
  <rect x="562.64" y="389.43" width="40.84" height="40.84" fill="#231f20"/>
  <rect x="562.84" y="432.37" width="40.84" height="40.84" transform="translate(1036.05 -130.47) rotate(90)" fill="#231f20"/>
  <rect x="605.92" y="389.43" width="40.84" height="40.84" fill="#231f20"/>
  <rect x="606.12" y="432.37" width="40.84" height="40.84" transform="translate(1079.33 -173.75) rotate(90)" fill="#231f20"/>
  <rect x="562.64" y="216.63" width="40.84" height="40.84" fill="#231f20"/>
  <rect x="562.64" y="174" width="40.84" height="40.84" fill="#231f20"/>
  <rect x="562.84" y="259.57" width="40.84" height="40.84" transform="translate(863.25 -303.27) rotate(90)" fill="#231f20"/>
  <rect x="562.84" y="302.72" width="40.84" height="40.84" transform="translate(906.4 -260.12) rotate(90)" fill="#231f20"/>
  <rect x="562.84" y="345.87" width="40.84" height="40.84" transform="translate(949.55 -216.97) rotate(90)" fill="#231f20"/>
  <rect x="778.5" y="87.07" width="40.84" height="40.84" fill="#231f20"/>
  <rect x="822.24" y="87.07" width="40.84" height="40.84" fill="#231f20"/>
  <rect x="648.91" y="43.51" width="40.84" height="40.84" fill="#231f20"/>
  <rect x="605.83" y="43.51" width="40.84" height="40.84" fill="#231f20"/>
  <rect x="476.37" y="43.51" width="40.84" height="40.84" fill="#231f20"/>
  <rect x="433.3" y="43.51" width="40.84" height="40.84" fill="#231f20"/>
  <rect x="260.14" y="86.89" width="40.84" height="40.84" fill="#231f20"/>
  <rect x="174.08" y="130.36" width="40.84" height="40.84" fill="#231f20"/>
  <rect x="87.41" y="86.95" width="40.84" height="40.84" fill="#231f20"/>
  <rect x="692.65" y="43.51" width="40.84" height="40.84" fill="#231f20"/>
  <rect x="864.74" y="130.1" width="40.84" height="40.84" fill="#231f20"/>
  <rect x="864.74" y="87.07" width="40.84" height="40.84" fill="#231f20"/>
  <rect x="951.6" y="87.07" width="40.84" height="40.84" fill="#231f20"/>
  <rect x="951.6" y="130.1" width="40.84" height="40.84" fill="#231f20"/>
  <rect x="994.72" y="87.07" width="40.84" height="40.84" fill="#231f20"/>
  <rect x="1037.84" y="87.07" width="40.84" height="40.84" fill="#231f20"/>
  <rect x="606.12" y="259.57" width="40.84" height="40.84" transform="translate(906.53 -346.55) rotate(90)" fill="#231f20"/>
  <rect x="606.12" y="302.72" width="40.84" height="40.84" transform="translate(949.68 -303.4) rotate(90)" fill="#231f20"/>
  <rect x="606.12" y="173.41" width="40.84" height="40.84" transform="translate(820.38 -432.71) rotate(90)" fill="#231f20"/>
  <rect x="606.12" y="216.57" width="40.84" height="40.84" transform="translate(863.53 -389.56) rotate(90)" fill="#231f20"/>
  <rect x="562.64" y="130.05" width="40.84" height="40.84" fill="#231f20"/>
  <rect x="476.24" y="130.05" width="40.84" height="40.84" fill="#231f20"/>
  <rect x="519.72" y="130.05" width="40.84" height="40.84" transform="translate(690.62 -389.67) rotate(90)" fill="#231f20"/>
  <rect x="606.12" y="130.05" width="40.84" height="40.84" transform="translate(777.02 -476.07) rotate(90)" fill="#231f20"/>
  <rect x="389.82" y="130.05" width="40.84" height="40.84" fill="#231f20"/>
  <rect x="303.42" y="130.05" width="40.84" height="40.84" fill="#231f20"/>
  <rect x="346.9" y="130.05" width="40.84" height="40.84" transform="translate(517.8 -216.85) rotate(90)" fill="#231f20"/>
  <rect x="217.01" y="130.05" width="40.84" height="40.84" fill="#231f20"/>
  <rect x="260.49" y="130.05" width="40.84" height="40.84" transform="translate(431.39 -130.44) rotate(90)" fill="#231f20"/>
  <rect x="433.3" y="130.05" width="40.84" height="40.84" transform="translate(604.2 -303.25) rotate(90)" fill="#231f20"/>
  <rect x="735.44" y="130.05" width="40.84" height="40.84" fill="#231f20"/>
  <rect x="649.04" y="130.05" width="40.84" height="40.84" fill="#231f20"/>
  <rect x="692.52" y="130.05" width="40.84" height="40.84" transform="translate(863.42 -562.47) rotate(90)" fill="#231f20"/>
  <rect x="778.92" y="130.05" width="40.84" height="40.84" transform="translate(949.82 -648.87) rotate(90)" fill="#231f20"/>
  <rect x="606.12" y="345.87" width="40.84" height="40.84" transform="translate(992.83 -260.25) rotate(90)" fill="#231f20"/>
  <rect x="735.33" y="994.11" width="40.84" height="40.84" transform="translate(1770.29 258.78) rotate(90)" fill="#231f20"/>
  <rect x="735.33" y="1037.26" width="40.84" height="40.84" transform="translate(1813.44 301.93) rotate(90)" fill="#231f20"/>
  <rect x="778.91" y="994.11" width="40.84" height="40.84" transform="translate(1813.86 215.2) rotate(90)" fill="#231f20"/>
  <rect x="778.91" y="1037.26" width="40.84" height="40.84" transform="translate(1857.01 258.35) rotate(90)" fill="#231f20"/>
  <rect x="533.3" y="964.68" width="13.39" height="13.39" fill="#231f20"/>
  <rect x="662.9" y="964.68" width="13.39" height="13.39" fill="#231f20"/>
  <rect x="490.15" y="964.68" width="13.39" height="13.39" fill="#231f20"/>
  <rect x="447.16" y="964.68" width="13.39" height="13.39" fill="#231f20"/>
  <rect x="403.85" y="964.68" width="13.39" height="13.39" fill="#231f20"/>
  <rect x="533.3" y="878.46" width="13.39" height="13.39" fill="#231f20"/>
  <rect x="490.15" y="878.46" width="13.39" height="13.39" fill="#231f20"/>
  <rect x="447.16" y="878.46" width="13.39" height="13.39" fill="#231f20"/>
  <rect x="403.85" y="878.46" width="13.39" height="13.39" fill="#231f20"/>
  <rect x="747.9" y="878.46" width="13.39" height="13.39" fill="#231f20"/>
  <rect x="704.75" y="878.46" width="13.39" height="13.39" fill="#231f20"/>
  <rect x="704.75" y="835.17" width="13.39" height="13.39" fill="#231f20"/>
  <rect x="704.75" y="791.76" width="13.39" height="13.39" fill="#231f20"/>
  <rect x="664.82" y="791.76" width="13.39" height="13.39" fill="#231f20"/>
  <rect x="835.26" y="748.63" width="13.39" height="13.39" fill="#231f20"/>
  <rect x="878.87" y="704.19" width="13.39" height="13.39" fill="#231f20"/>
  <rect x="793.35" y="748.63" width="13.39" height="13.39" fill="#231f20"/>
  <rect x="921.46" y="791.76" width="13.39" height="13.39" fill="#231f20"/>
  <rect x="965.19" y="748.63" width="13.39" height="13.39" fill="#231f20"/>
  <rect x="965.19" y="705.6" width="13.39" height="13.39" fill="#231f20"/>
  <rect x="1008.36" y="704.19" width="13.39" height="13.39" fill="#231f20"/>
  <rect x="1008.36" y="661.16" width="13.39" height="13.39" fill="#231f20"/>
  <rect x="922.47" y="661.21" width="13.39" height="13.39" fill="#231f20"/>
  <rect x="965.38" y="618.18" width="13.39" height="13.39" fill="#231f20"/>
  <rect x="879.55" y="791.76" width="13.39" height="13.39" fill="#231f20"/>
  <rect x="661.76" y="878.46" width="13.39" height="13.39" fill="#231f20"/>
  <rect x="618.45" y="878.46" width="13.39" height="13.39" fill="#231f20"/>
  <rect x="618.45" y="837.94" width="13.39" height="13.39" fill="#231f20"/>
  <rect x="359.55" y="835.17" width="13.39" height="13.39" fill="#231f20"/>
  <rect x="359.55" y="878.81" width="13.39" height="13.39" fill="#231f20"/>
  <rect x="359.55" y="791.73" width="13.39" height="13.39" fill="#231f20"/>
  <rect x="403.57" y="791.73" width="13.39" height="13.39" fill="#231f20"/>
  <rect x="445.41" y="791.73" width="13.39" height="13.39" fill="#231f20"/>
  <rect x="489.43" y="791.73" width="13.39" height="13.39" fill="#231f20"/>
  <rect x="144.36" y="705.08" width="13.39" height="13.39" fill="#231f20"/>
  <rect x="188.38" y="705.08" width="13.39" height="13.39" fill="#231f20"/>
  <rect x="230.23" y="705.08" width="13.39" height="13.39" fill="#231f20"/>
  <rect x="144.38" y="662.05" width="13.39" height="13.39" fill="#231f20"/>
  <rect x="101.4" y="705.08" width="13.39" height="13.39" fill="#231f20"/>
  <rect x="144.36" y="748.64" width="13.39" height="13.39" fill="#231f20"/>
  <rect x="144.36" y="791.73" width="13.39" height="13.39" fill="#231f20"/>
  <rect x="188.38" y="791.73" width="13.39" height="13.39" fill="#231f20"/>
  <rect x="101.4" y="748.64" width="13.39" height="13.39" fill="#231f20"/>
  <rect x="57.99" y="705.08" width="13.39" height="13.39" fill="#231f20"/>
  <rect x="101.43" y="662.05" width="13.39" height="13.39" fill="#231f20"/>
  <rect x="101.43" y="575.63" width="13.39" height="13.39" fill="#231f20"/>
  <rect x="57.99" y="489.38" width="13.39" height="13.39" fill="#231f20"/>
  <rect x="57.99" y="446.48" width="13.39" height="13.39" fill="#231f20"/>
  <rect x="14.57" y="489.38" width="13.39" height="13.39" fill="#231f20"/>
  <rect x="14.57" y="532.67" width="13.39" height="13.39" fill="#231f20"/>
  <rect x="14.57" y="576.29" width="13.39" height="13.39" fill="#231f20"/>
  <rect x="14.57" y="273.14" width="13.39" height="13.39" fill="#231f20"/>
  <rect x="14.57" y="316.43" width="13.39" height="13.39" fill="#231f20"/>
  <rect x="101.13" y="187.07" width="13.39" height="13.39" fill="#231f20"/>
  <rect x="101.13" y="230.34" width="13.39" height="13.39" fill="#231f20"/>
  <rect x="143.41" y="143.88" width="13.39" height="13.39" fill="#231f20"/>
  <rect x="101.57" y="143.88" width="13.39" height="13.39" fill="#231f20"/>
  <rect x="58.85" y="143.88" width="13.39" height="13.39" fill="#231f20"/>
  <rect x="229.78" y="100.68" width="13.39" height="13.39" fill="#231f20"/>
  <rect x="229.78" y="56.57" width="13.39" height="13.39" fill="#231f20"/>
  <rect x="273.87" y="56.57" width="13.39" height="13.39" fill="#231f20"/>
  <rect x="317.14" y="56.57" width="13.39" height="13.39" fill="#231f20"/>
  <rect x="359.41" y="56.57" width="13.39" height="13.39" fill="#231f20"/>
  <rect x="402.68" y="56.57" width="13.39" height="13.39" fill="#231f20"/>
  <rect x="404.09" y="14.76" width="13.39" height="13.39" fill="#231f20"/>
  <rect x="359.41" y="14.76" width="13.39" height="13.39" fill="#231f20"/>
  <rect x="447.37" y="14.76" width="13.39" height="13.39" fill="#231f20"/>
  <rect x="489.64" y="14.76" width="13.39" height="13.39" fill="#231f20"/>
  <rect x="532.91" y="14.76" width="13.39" height="13.39" fill="#231f20"/>
  <rect x="576.36" y="14.76" width="13.39" height="13.39" fill="#231f20"/>
  <rect x="619.55" y="14.76" width="13.39" height="13.39" fill="#231f20"/>
  <rect x="662.76" y="14.76" width="13.39" height="13.39" fill="#231f20"/>
  <rect x="749.3" y="58.04" width="13.39" height="13.39" fill="#231f20"/>
  <rect x="749.3" y="100.79" width="13.39" height="13.39" fill="#231f20"/>
  <rect x="922.14" y="99.83" width="13.39" height="13.39" fill="#231f20"/>
  <rect x="922.14" y="142.59" width="13.39" height="13.39" fill="#231f20"/>
  <rect x="835.55" y="142.59" width="13.39" height="13.39" fill="#231f20"/>
  <rect x="878.46" y="187.72" width="13.39" height="13.39" fill="#231f20"/>
  <rect x="922.14" y="230.16" width="13.39" height="13.39" fill="#231f20"/>
  <rect x="1008.36" y="230.16" width="13.39" height="13.39" fill="#231f20"/>
  <rect x="706.38" y="100.79" width="13.39" height="13.39" fill="#231f20"/>
  <rect x="792.51" y="58.04" width="13.39" height="13.39" fill="#231f20"/>
  <rect x="532.91" y="57.23" width="13.39" height="13.39" fill="#231f20"/>
  <rect x="576.36" y="57.23" width="13.39" height="13.39" fill="#231f20"/>
  <rect x="317.14" y="100.61" width="13.39" height="13.39" fill="#231f20"/>
  <rect x="187.94" y="100.68" width="13.39" height="13.39" fill="#231f20"/>
  <rect x="145.22" y="100.68" width="13.39" height="13.39" fill="#231f20"/>
  <rect x="14.85" y="143.88" width="13.39" height="13.39" fill="#231f20"/>
  <rect x="58.85" y="100.61" width="13.39" height="13.39" fill="#231f20"/>
  <rect x="14.85" y="100.61" width="13.39" height="13.39" fill="#231f20"/>
  <rect x="143.41" y="187.15" width="13.39" height="13.39" fill="#231f20"/>
  <rect x="57.99" y="230.36" width="13.39" height="13.39" fill="#231f20"/>
  <rect x="14.57" y="360.05" width="13.39" height="13.39" fill="#231f20"/>
  <rect x="57.99" y="360.05" width="13.39" height="13.39" fill="#231f20"/>
  <rect x="57.99" y="402.94" width="13.39" height="13.39" fill="#231f20"/>
  <rect x="965.83" y="531.74" width="13.39" height="13.39" fill="#231f20"/>
  <rect x="965.83" y="575.75" width="13.39" height="13.39" fill="#231f20"/>
  <rect x="1051.53" y="618.18" width="13.39" height="13.39" fill="#231f20"/>
  <rect x="1051.98" y="575.75" width="13.39" height="13.39" fill="#231f20"/>
  <rect x="965.83" y="488.84" width="13.39" height="13.39" fill="#231f20"/>
  <rect x="965.83" y="402.41" width="13.39" height="13.39" fill="#231f20"/>
  <rect x="965.83" y="445.3" width="13.39" height="13.39" fill="#231f20"/>
  <rect x="1008.52" y="877.93" width="13.39" height="13.39" fill="#231f20"/>
  <rect x="1008.52" y="921.94" width="13.39" height="13.39" fill="#231f20"/>
  <rect x="1008.52" y="835.03" width="13.39" height="13.39" fill="#231f20"/>
  <rect x="1008.52" y="791.49" width="13.39" height="13.39" fill="#231f20"/>
  <rect x="1051.48" y="877.93" width="13.39" height="13.39" fill="#231f20"/>
  <rect x="1051.48" y="921.94" width="13.39" height="13.39" fill="#231f20"/>
  <rect x="1008.52" y="963.62" width="13.39" height="13.39" fill="#231f20"/>
  <rect x="1051.48" y="963.62" width="13.39" height="13.39" fill="#231f20"/>
  <rect x="923.48" y="1009.72" width="13.39" height="13.39" fill="#231f20"/>
  <rect x="966.44" y="1009.72" width="13.39" height="13.39" fill="#231f20"/>
  <rect x="923.48" y="1051.41" width="13.39" height="13.39" fill="#231f20"/>
  <rect x="966.44" y="1051.41" width="13.39" height="13.39" fill="#231f20"/>
  <rect x="1010.42" y="1051.41" width="13.39" height="13.39" fill="#231f20"/>
  <rect x="1053.39" y="1051.41" width="13.39" height="13.39" fill="#231f20"/>
  <rect x="836.96" y="1009.72" width="13.39" height="13.39" fill="#231f20"/>
  <rect x="879.93" y="1009.72" width="13.39" height="13.39" fill="#231f20"/>
  <rect x="836.96" y="1051.41" width="13.39" height="13.39" fill="#231f20"/>
  <rect x="879.93" y="1051.41" width="13.39" height="13.39" fill="#231f20"/>
  <rect x="272.91" y="1009.72" width="13.39" height="13.39" fill="#231f20"/>
  <rect x="315.87" y="1009.72" width="13.39" height="13.39" fill="#231f20"/>
  <rect x="272.91" y="1051.41" width="13.39" height="13.39" fill="#231f20"/>
  <rect x="315.87" y="1051.41" width="13.39" height="13.39" fill="#231f20"/>
  <rect x="186.39" y="1009.72" width="13.39" height="13.39" fill="#231f20"/>
  <rect x="229.36" y="1009.72" width="13.39" height="13.39" fill="#231f20"/>
  <rect x="186.39" y="1051.41" width="13.39" height="13.39" fill="#231f20"/>
  <rect x="144.38" y="1009.72" width="13.39" height="13.39" fill="#231f20"/>
  <rect x="13.17" y="1051.41" width="13.39" height="13.39" fill="#231f20"/>
  <rect x="229.36" y="1051.41" width="13.39" height="13.39" fill="#231f20"/>
  <rect x="143.75" y="965.59" width="13.39" height="13.39" transform="translate(1122.73 821.84) rotate(90)" fill="#231f20"/>
  <rect x="102.06" y="965.59" width="13.39" height="13.39" transform="translate(1081.04 863.53) rotate(90)" fill="#231f20"/>
  <rect x="143.75" y="879.07" width="13.39" height="13.39" transform="translate(1036.21 735.33) rotate(90)" fill="#231f20"/>
  <rect x="143.75" y="922.04" width="13.39" height="13.39" transform="translate(1079.18 778.29) rotate(90)" fill="#231f20"/>
  <rect x="102.06" y="879.07" width="13.39" height="13.39" transform="translate(994.53 777.01) rotate(90)" fill="#231f20"/>
  <rect x="143.75" y="837.07" width="13.39" height="13.39" transform="translate(994.21 693.32) rotate(90)" fill="#231f20"/>
  <rect x="102.06" y="837.07" width="13.39" height="13.39" transform="translate(952.52 735.01) rotate(90)" fill="#231f20"/>
  <rect x="102.06" y="922.04" width="13.39" height="13.39" transform="translate(1037.49 819.98) rotate(90)" fill="#231f20"/>
  <rect x="57.99" y="965.59" width="13.39" height="13.39" transform="translate(1036.97 907.59) rotate(90)" fill="#231f20"/>
  <rect x="57.99" y="922.04" width="13.39" height="13.39" transform="translate(993.43 864.05) rotate(90)" fill="#231f20"/>
  <rect x="1051.48" y="835.03" width="13.39" height="13.39" fill="#231f20"/>
  <rect x="1051.48" y="791.49" width="13.39" height="13.39" fill="#231f20"/>
  <rect x="57.99" y="662.05" width="13.39" height="13.39" fill="#231f20"/>
  <rect x="316.55" y="835.17" width="13.39" height="13.39" fill="#231f20"/>
  <rect x="273.24" y="835.17" width="13.39" height="13.39" fill="#231f20"/>
  <rect x="231.25" y="835.17" width="13.39" height="13.39" fill="#231f20"/>
  <rect x="403.85" y="1007.96" width="13.39" height="13.39" fill="#231f20"/>
  <rect x="57.91" y="1007.96" width="13.39" height="13.39" fill="#231f20"/>
  <rect x="403.85" y="1050.63" width="13.39" height="13.39" fill="#231f20"/>
  <rect x="662.9" y="1007.74" width="13.39" height="13.39" fill="#231f20"/>
  <rect x="662.9" y="1050.99" width="13.39" height="13.39" fill="#231f20"/>
</svg>