<?xml version="1.0" encoding="UTF-8"?>
<svg id="_15" data-name="15" xmlns="http://www.w3.org/2000/svg" viewBox="0 0 1080 1080">
  <rect x="690.92" y="993.95" width="40.84" height="40.84" fill="#231f20"/>
  <rect x="734.04" y="993.95" width="40.84" height="40.84" fill="#231f20"/>
  <rect x="604.48" y="993.95" width="40.84" height="40.84" fill="#231f20"/>
  <rect x="647.6" y="993.95" width="40.84" height="40.84" fill="#231f20"/>
  <rect x="690.94" y="1037.24" width="40.84" height="40.84" fill="#231f20"/>
  <rect x="777.41" y="993.95" width="40.84" height="40.84" fill="#231f20"/>
  <rect x="690.92" y="950.66" width="40.84" height="40.84" fill="#231f20"/>
  <rect x="734.04" y="950.66" width="40.84" height="40.84" fill="#231f20"/>
  <rect x="604.48" y="950.66" width="40.84" height="40.84" fill="#231f20"/>
  <rect x="647.6" y="950.66" width="40.84" height="40.84" fill="#231f20"/>
  <rect x="777.41" y="950.66" width="40.84" height="40.84" fill="#231f20"/>
  <rect x="777.43" y="1037.24" width="40.84" height="40.84" fill="#231f20"/>
  <rect x="820.43" y="993.95" width="40.84" height="40.84" fill="#231f20"/>
  <rect x="820.46" y="1037.24" width="40.84" height="40.84" fill="#231f20"/>
  <rect x="820.43" y="950.66" width="40.84" height="40.84" fill="#231f20"/>
  <rect x="863.8" y="950.66" width="40.84" height="40.84" fill="#231f20"/>
  <rect x="906.86" y="1037.24" width="40.84" height="40.84" fill="#231f20"/>
  <rect x="950.2" y="993.95" width="40.84" height="40.84" fill="#231f20"/>
  <rect x="906.84" y="950.66" width="40.84" height="40.84" fill="#231f20"/>
  <rect x="950.2" y="950.66" width="40.84" height="40.84" fill="#231f20"/>
  <rect x="690.92" y="907.37" width="40.84" height="40.84" fill="#231f20"/>
  <rect x="734.04" y="907.37" width="40.84" height="40.84" fill="#231f20"/>
  <rect x="647.6" y="907.37" width="40.84" height="40.84" fill="#231f20"/>
  <rect x="777.41" y="907.37" width="40.84" height="40.84" fill="#231f20"/>
  <rect x="690.92" y="864.07" width="40.84" height="40.84" fill="#231f20"/>
  <rect x="734.04" y="864.07" width="40.84" height="40.84" fill="#231f20"/>
  <rect x="647.6" y="864.07" width="40.84" height="40.84" fill="#231f20"/>
  <rect x="777.41" y="864.07" width="40.84" height="40.84" fill="#231f20"/>
  <rect x="820.43" y="907.37" width="40.84" height="40.84" fill="#231f20"/>
  <rect x="863.8" y="907.37" width="40.84" height="40.84" fill="#231f20"/>
  <rect x="820.43" y="864.07" width="40.84" height="40.84" fill="#231f20"/>
  <rect x="863.8" y="864.07" width="40.84" height="40.84" fill="#231f20"/>
  <rect x="906.84" y="907.37" width="40.84" height="40.84" fill="#231f20"/>
  <rect x="950.2" y="907.37" width="40.84" height="40.84" fill="#231f20"/>
  <rect x="906.84" y="864.07" width="40.84" height="40.84" fill="#231f20"/>
  <rect x="604.48" y="864.07" width="40.84" height="40.84" fill="#231f20"/>
  <rect x="690.92" y="820.78" width="40.84" height="40.84" fill="#231f20"/>
  <rect x="734.04" y="820.78" width="40.84" height="40.84" fill="#231f20"/>
  <rect x="647.6" y="820.78" width="40.84" height="40.84" fill="#231f20"/>
  <rect x="777.41" y="820.78" width="40.84" height="40.84" fill="#231f20"/>
  <rect x="820.43" y="820.78" width="40.84" height="40.84" fill="#231f20"/>
  <rect x="604.48" y="820.78" width="40.84" height="40.84" fill="#231f20"/>
  <rect x="647.6" y="777.49" width="40.84" height="40.84" fill="#231f20"/>
  <rect x="604.48" y="777.49" width="40.84" height="40.84" fill="#231f20"/>
  <rect x="647.6" y="734.2" width="40.84" height="40.84" fill="#231f20"/>
  <rect x="604.48" y="734.2" width="40.84" height="40.84" fill="#231f20"/>
  <rect x="561.29" y="864.07" width="40.84" height="40.84" fill="#231f20"/>
  <rect x="518.17" y="864.07" width="40.84" height="40.84" fill="#231f20"/>
  <rect x="561.29" y="820.78" width="40.84" height="40.84" fill="#231f20"/>
  <rect x="518.17" y="820.78" width="40.84" height="40.84" fill="#231f20"/>
  <rect x="561.29" y="777.49" width="40.84" height="40.84" fill="#231f20"/>
  <rect x="518.17" y="777.49" width="40.84" height="40.84" fill="#231f20"/>
  <rect x="561.29" y="734.2" width="40.84" height="40.84" fill="#231f20"/>
  <rect x="518.17" y="734.2" width="40.84" height="40.84" fill="#231f20"/>
  <rect x="474.89" y="777.49" width="40.84" height="40.84" fill="#231f20"/>
  <rect x="431.77" y="777.49" width="40.84" height="40.84" fill="#231f20"/>
  <rect x="474.89" y="734.2" width="40.84" height="40.84" fill="#231f20"/>
  <rect x="431.77" y="734.2" width="40.84" height="40.84" fill="#231f20"/>
  <rect x="474.89" y="690.91" width="40.84" height="40.84" fill="#231f20"/>
  <rect x="431.77" y="690.91" width="40.84" height="40.84" fill="#231f20"/>
  <rect x="950.22" y="1037.24" width="40.84" height="40.84" fill="#231f20"/>
  <rect x="993.23" y="993.95" width="40.84" height="40.84" fill="#231f20"/>
  <rect x="993.25" y="1037.24" width="40.84" height="40.84" fill="#231f20"/>
  <rect x="1036.59" y="993.95" width="40.84" height="40.84" fill="#231f20"/>
  <rect x="993.23" y="950.66" width="40.84" height="40.84" fill="#231f20"/>
  <rect x="1036.59" y="950.66" width="40.84" height="40.84" fill="#231f20"/>
  <rect x="647.63" y="1037.24" width="40.84" height="40.84" fill="#231f20"/>
  <rect x="575.48" y="963.71" width="13.39" height="13.39" fill="#231f20"/>
  <rect x="575.48" y="921.09" width="13.39" height="13.39" fill="#231f20"/>
  <rect x="531.89" y="921.09" width="13.39" height="13.39" fill="#231f20"/>
  <rect x="488.61" y="877.8" width="13.39" height="13.39" fill="#231f20"/>
  <rect x="488.61" y="836.71" width="13.39" height="13.39" fill="#231f20"/>
  <rect x="402.48" y="791.34" width="13.39" height="13.39" fill="#231f20"/>
  <rect x="402.48" y="750.25" width="13.39" height="13.39" fill="#231f20"/>
  <rect x="402.48" y="704.32" width="13.39" height="13.39" fill="#231f20"/>
  <rect x="402.48" y="663.23" width="13.39" height="13.39" fill="#231f20"/>
  <rect x="445.49" y="836.71" width="13.39" height="13.39" fill="#231f20"/>
  <rect x="618.21" y="921.09" width="13.39" height="13.39" fill="#231f20"/>
  <rect x="575.48" y="1008.93" width="13.39" height="13.39" fill="#231f20"/>
  <rect x="575.48" y="1049.2" width="13.39" height="13.39" fill="#231f20"/>
  <rect x="616.73" y="1049.2" width="13.39" height="13.39" fill="#231f20"/>
  <rect x="747.91" y="1050.34" width="13.39" height="13.39" fill="#231f20"/>
  <rect x="877.38" y="1050.34" width="13.39" height="13.39" fill="#231f20"/>
  <rect x="1050.32" y="1050.34" width="13.39" height="13.39" fill="#231f20"/>
  <rect x="1050.32" y="921.09" width="13.39" height="13.39" fill="#231f20"/>
  <rect x="1006.95" y="921.09" width="13.39" height="13.39" fill="#231f20"/>
  <rect x="1007.15" y="877.8" width="13.39" height="13.39" fill="#231f20"/>
  <rect x="963.79" y="877.8" width="13.39" height="13.39" fill="#231f20"/>
  <rect x="920.73" y="834.51" width="13.39" height="13.39" fill="#231f20"/>
  <rect x="963.79" y="834.51" width="13.39" height="13.39" fill="#231f20"/>
  <rect x="877.37" y="834.51" width="13.39" height="13.39" fill="#231f20"/>
  <rect x="747.92" y="791.21" width="13.39" height="13.39" fill="#231f20"/>
  <rect x="790.98" y="791.21" width="13.39" height="13.39" fill="#231f20"/>
  <rect x="834.16" y="791.21" width="13.39" height="13.39" fill="#231f20"/>
  <rect x="704.56" y="791.21" width="13.39" height="13.39" fill="#231f20"/>
  <rect x="747.92" y="750.25" width="13.39" height="13.39" fill="#231f20"/>
  <rect x="704.56" y="750.25" width="13.39" height="13.39" fill="#231f20"/>
  <rect x="575.13" y="706.42" width="13.39" height="13.39" fill="#231f20"/>
  <rect x="531.77" y="706.42" width="13.39" height="13.39" fill="#231f20"/>
  <rect x="662.59" y="706.42" width="13.39" height="13.39" fill="#231f20"/>
  <rect x="619.23" y="706.42" width="13.39" height="13.39" fill="#231f20"/>
  <rect x="489.87" y="663.23" width="13.39" height="13.39" fill="#231f20"/>
  <rect x="446.51" y="663.23" width="13.39" height="13.39" fill="#231f20"/>
  <rect x="575.13" y="663.23" width="13.39" height="13.39" fill="#231f20"/>
  <rect x="531.77" y="663.23" width="13.39" height="13.39" fill="#231f20"/>
  <rect x="402.48" y="620.04" width="13.39" height="13.39" fill="#231f20"/>
  <rect x="489.87" y="620.04" width="13.39" height="13.39" fill="#231f20"/>
  <rect x="446.51" y="620.04" width="13.39" height="13.39" fill="#231f20"/>
  <rect x="575.13" y="620.04" width="13.39" height="13.39" fill="#231f20"/>
  <rect x="531.77" y="620.04" width="13.39" height="13.39" fill="#231f20"/>
  <rect x="359.16" y="446.56" width="13.39" height="13.39" fill="#231f20"/>
  <rect x="446.56" y="446.56" width="13.39" height="13.39" fill="#231f20"/>
  <rect x="403.19" y="446.56" width="13.39" height="13.39" fill="#231f20"/>
  <rect x="531.82" y="446.56" width="13.39" height="13.39" fill="#231f20"/>
  <rect x="488.45" y="446.56" width="13.39" height="13.39" fill="#231f20"/>
  <rect x="360.18" y="403.12" width="13.39" height="13.39" fill="#231f20"/>
  <rect x="447.57" y="403.12" width="13.39" height="13.39" fill="#231f20"/>
  <rect x="404.21" y="403.12" width="13.39" height="13.39" fill="#231f20"/>
  <rect x="532.83" y="403.12" width="13.39" height="13.39" fill="#231f20"/>
  <rect x="489.47" y="403.12" width="13.39" height="13.39" fill="#231f20"/>
  <rect x="447.57" y="359.68" width="13.39" height="13.39" fill="#231f20"/>
  <rect x="532.83" y="359.68" width="13.39" height="13.39" fill="#231f20"/>
  <rect x="489.47" y="359.68" width="13.39" height="13.39" fill="#231f20"/>
  <rect x="142.48" y="359.68" width="13.39" height="13.39" fill="#231f20"/>
  <rect x="229.88" y="403.12" width="13.39" height="13.39" fill="#231f20"/>
  <rect x="229.88" y="446.56" width="13.39" height="13.39" fill="#231f20"/>
  <rect x="189.15" y="403.12" width="13.39" height="13.39" fill="#231f20"/>
  <rect x="186.51" y="359.68" width="13.39" height="13.39" fill="#231f20"/>
  <rect x="98.46" y="316.61" width="13.39" height="13.39" fill="#231f20"/>
  <rect x="142.48" y="316.61" width="13.39" height="13.39" fill="#231f20"/>
  <rect x="98.46" y="272.05" width="13.39" height="13.39" fill="#231f20"/>
  <rect x="142.48" y="272.05" width="13.39" height="13.39" fill="#231f20"/>
  <rect x="13.04" y="272.05" width="13.39" height="13.39" fill="#231f20"/>
  <rect x="13.04" y="316.61" width="13.39" height="13.39" fill="#231f20"/>
  <rect x="13.04" y="358.9" width="13.39" height="13.39" fill="#231f20"/>
  <rect x="57.06" y="272.05" width="13.39" height="13.39" fill="#231f20"/>
  <rect x="272.18" y="272.05" width="13.39" height="13.39" fill="#231f20"/>
  <rect x="316.21" y="272.05" width="13.39" height="13.39" fill="#231f20"/>
  <rect x="186.76" y="272.05" width="13.39" height="13.39" fill="#231f20"/>
  <rect x="230.79" y="272.05" width="13.39" height="13.39" fill="#231f20"/>
  <rect x="574.23" y="272.05" width="13.39" height="13.39" fill="#231f20"/>
  <rect x="618.25" y="272.05" width="13.39" height="13.39" fill="#231f20"/>
  <rect x="532.83" y="272.05" width="13.39" height="13.39" fill="#231f20"/>
  <rect x="532.83" y="315.87" width="13.39" height="13.39" fill="#231f20"/>
  <rect x="186.51" y="231.17" width="13.39" height="13.39" fill="#231f20"/>
  <rect x="230.54" y="231.17" width="13.39" height="13.39" fill="#231f20"/>
  <rect x="101.09" y="231.17" width="13.39" height="13.39" fill="#231f20"/>
  <rect x="145.12" y="231.17" width="13.39" height="13.39" fill="#231f20"/>
  <rect x="185.35" y="187.13" width="13.39" height="13.39" fill="#231f20"/>
  <rect x="229.37" y="187.13" width="13.39" height="13.39" fill="#231f20"/>
  <rect x="272.82" y="231.17" width="13.39" height="13.39" fill="#231f20"/>
  <rect x="316.85" y="231.17" width="13.39" height="13.39" fill="#231f20"/>
  <rect x="271.65" y="187.13" width="13.39" height="13.39" fill="#231f20"/>
  <rect x="315.68" y="187.13" width="13.39" height="13.39" fill="#231f20"/>
  <rect x="99.93" y="187.13" width="13.39" height="13.39" fill="#231f20"/>
  <rect x="13.62" y="231.17" width="13.39" height="13.39" fill="#231f20"/>
  <rect x="12.45" y="187.13" width="13.39" height="13.39" fill="#231f20"/>
  <rect x="143.95" y="187.13" width="13.39" height="13.39" fill="#231f20"/>
  <rect x="185.35" y="143.09" width="13.39" height="13.39" fill="#231f20"/>
  <rect x="229.37" y="143.09" width="13.39" height="13.39" fill="#231f20"/>
  <rect x="271.65" y="143.09" width="13.39" height="13.39" fill="#231f20"/>
  <rect x="315.68" y="143.09" width="13.39" height="13.39" fill="#231f20"/>
  <rect x="185.88" y="101.18" width="13.39" height="13.39" fill="#231f20"/>
  <rect x="229.91" y="101.18" width="13.39" height="13.39" fill="#231f20"/>
  <rect x="185.88" y="57.1" width="13.39" height="13.39" fill="#231f20"/>
  <rect x="57.06" y="101.18" width="13.39" height="13.39" fill="#231f20"/>
  <rect x="57.06" y="57.1" width="13.39" height="13.39" fill="#231f20"/>
  <rect x="229.91" y="57.1" width="13.39" height="13.39" fill="#231f20"/>
  <rect x="185.88" y="17.47" width="13.39" height="13.39" fill="#231f20"/>
  <rect x="229.91" y="17.47" width="13.39" height="13.39" fill="#231f20"/>
  <rect x="101.09" y="17.47" width="13.39" height="13.39" fill="#231f20"/>
  <rect x="145.12" y="17.47" width="13.39" height="13.39" fill="#231f20"/>
  <rect x="272.19" y="101.18" width="13.39" height="13.39" fill="#231f20"/>
  <rect x="316.22" y="101.18" width="13.39" height="13.39" fill="#231f20"/>
  <rect x="445.3" y="231.17" width="13.39" height="13.39" fill="#231f20"/>
  <rect x="487.58" y="231.17" width="13.39" height="13.39" fill="#231f20"/>
  <rect x="445.91" y="272.05" width="13.39" height="13.39" fill="#231f20"/>
  <rect x="488.19" y="272.05" width="13.39" height="13.39" fill="#231f20"/>
  <rect x="359.51" y="272.05" width="13.39" height="13.39" fill="#231f20"/>
  <rect x="401.79" y="272.05" width="13.39" height="13.39" fill="#231f20"/>
  <rect x="531.61" y="231.17" width="13.39" height="13.39" fill="#231f20"/>
  <rect x="445.3" y="143.09" width="13.39" height="13.39" fill="#231f20"/>
  <rect x="402.72" y="187.13" width="13.39" height="13.39" fill="#231f20"/>
  <rect x="487.58" y="143.09" width="13.39" height="13.39" fill="#231f20"/>
  <rect x="445.3" y="101.18" width="13.39" height="13.39" fill="#231f20"/>
  <rect x="487.58" y="101.18" width="13.39" height="13.39" fill="#231f20"/>
  <rect x="531.61" y="143.09" width="13.39" height="13.39" fill="#231f20"/>
  <rect x="574.23" y="101.18" width="13.39" height="13.39" fill="#231f20"/>
  <rect x="143.95" y="143.09" width="13.39" height="13.39" fill="#231f20"/>
  <rect x="315.14" y="403.12" width="13.39" height="13.39" fill="#231f20"/>
  <rect x="271.77" y="403.12" width="13.39" height="13.39" fill="#231f20"/>
  <rect x="360.18" y="359.68" width="13.39" height="13.39" fill="#231f20"/>
  <rect x="229.88" y="359.68" width="13.39" height="13.39" fill="#231f20"/>
  <rect x="315.14" y="359.68" width="13.39" height="13.39" fill="#231f20"/>
  <rect x="271.77" y="359.68" width="13.39" height="13.39" fill="#231f20"/>
  <rect x="271.77" y="446.56" width="13.39" height="13.39" fill="#231f20"/>
  <rect x="360.85" y="316.61" width="13.39" height="13.39" fill="#231f20"/>
  <rect x="230.54" y="316.61" width="13.39" height="13.39" fill="#231f20"/>
  <rect x="315.8" y="316.61" width="13.39" height="13.39" fill="#231f20"/>
  <rect x="272.44" y="316.61" width="13.39" height="13.39" fill="#231f20"/>
  <rect x="446.56" y="488.72" width="13.39" height="13.39" fill="#231f20"/>
  <rect x="531.82" y="488.72" width="13.39" height="13.39" fill="#231f20"/>
  <rect x="488.45" y="488.72" width="13.39" height="13.39" fill="#231f20"/>
  <rect x="574.85" y="488.72" width="13.39" height="13.39" fill="#231f20"/>
  <rect x="660.11" y="488.72" width="13.39" height="13.39" fill="#231f20"/>
  <rect x="616.74" y="488.72" width="13.39" height="13.39" fill="#231f20"/>
  <rect x="661.2" y="316.61" width="13.39" height="13.39" fill="#231f20"/>
  <rect x="746.46" y="316.61" width="13.39" height="13.39" fill="#231f20"/>
  <rect x="703.1" y="316.61" width="13.39" height="13.39" fill="#231f20"/>
  <rect x="661.2" y="272.05" width="13.39" height="13.39" fill="#231f20"/>
  <rect x="746.46" y="272.05" width="13.39" height="13.39" fill="#231f20"/>
  <rect x="703.1" y="272.05" width="13.39" height="13.39" fill="#231f20"/>
  <rect x="618.25" y="231.17" width="13.39" height="13.39" fill="#231f20"/>
  <rect x="919.69" y="231.19" width="13.37" height="13.37" transform="translate(1852.75 475.74) rotate(180)" fill="#231f20"/>
  <rect x="919.69" y="272.98" width="13.37" height="13.37" transform="translate(1852.75 559.32) rotate(180)" fill="#231f20"/>
  <rect x="834.61" y="231.19" width="13.37" height="13.37" transform="translate(1682.59 475.74) rotate(180)" fill="#231f20"/>
  <rect x="877.88" y="231.19" width="13.37" height="13.37" transform="translate(1769.13 475.74) rotate(180)" fill="#231f20"/>
  <rect x="1049.62" y="231.19" width="13.37" height="13.37" transform="translate(2112.6 475.74) rotate(180)" fill="#231f20"/>
  <rect x="963.38" y="231.19" width="13.37" height="13.37" transform="translate(1940.13 475.74) rotate(180)" fill="#231f20"/>
  <rect x="1007.52" y="231.19" width="13.37" height="13.37" transform="translate(2028.41 475.74) rotate(180)" fill="#231f20"/>
  <rect x="1049.62" y="272.92" width="13.37" height="13.37" transform="translate(2112.6 559.21) rotate(180)" fill="#231f20"/>
  <rect x="963.38" y="272.92" width="13.37" height="13.37" transform="translate(1940.13 559.21) rotate(180)" fill="#231f20"/>
  <rect x="1007.52" y="272.92" width="13.37" height="13.37" transform="translate(2028.41 559.21) rotate(180)" fill="#231f20"/>
  <rect x="1049.62" y="316.34" width="13.37" height="13.37" transform="translate(2112.6 646.04) rotate(180)" fill="#231f20"/>
  <rect x="1049.62" y="359.7" width="13.37" height="13.37" transform="translate(2112.6 732.76) rotate(180)" fill="#231f20"/>
  <rect x="1007.52" y="316.34" width="13.37" height="13.37" transform="translate(2028.41 646.04) rotate(180)" fill="#231f20"/>
  <rect x="789.42" y="231.19" width="13.37" height="13.37" transform="translate(1592.2 475.74) rotate(180)" fill="#231f20"/>
  <rect x="746.57" y="231.19" width="13.37" height="13.37" transform="translate(1506.5 475.74) rotate(180)" fill="#231f20"/>
  <rect x="661.49" y="231.19" width="13.37" height="13.37" transform="translate(1336.34 475.74) rotate(180)" fill="#231f20"/>
  <rect x="574.26" y="446.56" width="13.39" height="13.39" fill="#231f20"/>
  <rect x="574.26" y="403.12" width="13.39" height="13.39" fill="#231f20"/>
  <rect x="574.55" y="359.7" width="13.37" height="13.37" transform="translate(1162.46 732.76) rotate(180)" fill="#231f20"/>
  <rect x="704.76" y="231.19" width="13.37" height="13.37" transform="translate(1422.88 475.74) rotate(180)" fill="#231f20"/>
  <rect x="919.69" y="187.15" width="13.37" height="13.37" transform="translate(1852.75 387.66) rotate(180)" fill="#231f20"/>
  <rect x="1049.62" y="446.9" width="13.37" height="13.37" transform="translate(2112.6 907.16) rotate(180)" fill="#231f20"/>
  <rect x="1049.62" y="488.69" width="13.37" height="13.37" transform="translate(2112.6 990.74) rotate(180)" fill="#231f20"/>
  <rect x="919.69" y="316.78" width="13.37" height="13.37" transform="translate(1852.75 646.93) rotate(180)" fill="#231f20"/>
  <rect x="834.61" y="187.15" width="13.37" height="13.37" transform="translate(1682.59 387.66) rotate(180)" fill="#231f20"/>
  <rect x="834.61" y="316.27" width="13.37" height="13.37" transform="translate(1682.59 645.91) rotate(180)" fill="#231f20"/>
  <rect x="834.61" y="272.23" width="13.37" height="13.37" transform="translate(1682.59 557.82) rotate(180)" fill="#231f20"/>
  <rect x="877.88" y="272.23" width="13.37" height="13.37" transform="translate(1769.13 557.82) rotate(180)" fill="#231f20"/>
  <rect x="877.88" y="187.15" width="13.37" height="13.37" transform="translate(1769.13 387.66) rotate(180)" fill="#231f20"/>
  <rect x="789.42" y="187.15" width="13.37" height="13.37" transform="translate(1592.2 387.66) rotate(180)" fill="#231f20"/>
  <rect x="746.57" y="187.15" width="13.37" height="13.37" transform="translate(1506.5 387.66) rotate(180)" fill="#231f20"/>
  <rect x="661.49" y="187.15" width="13.37" height="13.37" transform="translate(1336.34 387.66) rotate(180)" fill="#231f20"/>
  <rect x="704.76" y="187.15" width="13.37" height="13.37" transform="translate(1422.88 387.66) rotate(180)" fill="#231f20"/>
  <rect x="789.42" y="143.1" width="13.37" height="13.37" transform="translate(1592.2 299.57) rotate(180)" fill="#231f20"/>
  <rect x="789.42" y="360.67" width="13.37" height="13.37" transform="translate(1592.2 734.7) rotate(180)" fill="#231f20"/>
  <rect x="746.57" y="360.67" width="13.37" height="13.37" transform="translate(1506.5 734.7) rotate(180)" fill="#231f20"/>
  <rect x="746.46" y="446.83" width="13.39" height="13.39" fill="#231f20"/>
  <rect x="746.46" y="402.27" width="13.39" height="13.39" fill="#231f20"/>
  <rect x="661.49" y="446.84" width="13.37" height="13.37" transform="translate(1336.34 907.05) rotate(180)" fill="#231f20"/>
  <rect x="661.49" y="403.13" width="13.37" height="13.37" transform="translate(1336.34 819.63) rotate(180)" fill="#231f20"/>
  <rect x="789.42" y="316.63" width="13.37" height="13.37" transform="translate(1592.2 646.62) rotate(180)" fill="#231f20"/>
  <rect x="789.42" y="272.59" width="13.37" height="13.37" transform="translate(1592.2 558.54) rotate(180)" fill="#231f20"/>
  <rect x="746.57" y="143.1" width="13.37" height="13.37" transform="translate(1506.5 299.57) rotate(180)" fill="#231f20"/>
  <rect x="704.76" y="143.1" width="13.37" height="13.37" transform="translate(1422.88 299.57) rotate(180)" fill="#231f20"/>
  <rect x="703.97" y="101.2" width="13.37" height="13.37" transform="translate(1421.3 215.76) rotate(180)" fill="#231f20"/>
  <rect x="662.16" y="101.2" width="13.37" height="13.37" transform="translate(1337.69 215.76) rotate(180)" fill="#231f20"/>
  <rect x="444.63" y="57.12" width="13.37" height="13.37" transform="translate(902.63 127.6) rotate(180)" fill="#231f20"/>
  <rect x="401.78" y="57.12" width="13.37" height="13.37" transform="translate(816.92 127.6) rotate(180)" fill="#231f20"/>
  <rect x="444.63" y="17.48" width="13.37" height="13.37" transform="translate(902.63 48.32) rotate(180)" fill="#231f20"/>
  <rect x="401.78" y="17.48" width="13.37" height="13.37" transform="translate(816.92 48.32) rotate(180)" fill="#231f20"/>
  <rect x="316.7" y="57.12" width="13.37" height="13.37" transform="translate(646.76 127.6) rotate(180)" fill="#231f20"/>
  <rect x="359.97" y="57.12" width="13.37" height="13.37" transform="translate(733.3 127.6) rotate(180)" fill="#231f20"/>
  <rect x="489.26" y="533.3" width="13.39" height="13.39" fill="#231f20"/>
  <rect x="574.52" y="533.3" width="13.39" height="13.39" fill="#231f20"/>
  <rect x="531.16" y="533.3" width="13.39" height="13.39" fill="#231f20"/>
  <rect x="617.48" y="533.3" width="13.39" height="13.39" fill="#231f20"/>
  <rect x="702.74" y="533.3" width="13.39" height="13.39" fill="#231f20"/>
  <rect x="659.37" y="533.3" width="13.39" height="13.39" fill="#231f20"/>
  <rect x="446.84" y="533.3" width="13.39" height="13.39" fill="#231f20"/>
  <rect x="575.58" y="576.67" width="13.39" height="13.39" fill="#231f20"/>
  <rect x="660.84" y="576.67" width="13.39" height="13.39" fill="#231f20"/>
  <rect x="617.48" y="576.67" width="13.39" height="13.39" fill="#231f20"/>
  <rect x="660.84" y="620.04" width="13.39" height="13.39" fill="#231f20"/>
  <rect x="617.48" y="620.04" width="13.39" height="13.39" fill="#231f20"/>
  <rect x="705.95" y="576.67" width="13.39" height="13.39" fill="#231f20"/>
  <rect x="791.21" y="576.67" width="13.39" height="13.39" fill="#231f20"/>
  <rect x="747.85" y="576.67" width="13.39" height="13.39" fill="#231f20"/>
  <rect x="877.38" y="1008.93" width="13.39" height="13.39" fill="#231f20"/>
  <rect x="920.58" y="1008.93" width="13.39" height="13.39" fill="#231f20"/>
</svg>