<?xml version="1.0" encoding="UTF-8"?>
<svg id="_5" data-name="5" xmlns="http://www.w3.org/2000/svg" viewBox="0 0 1080 1080">
  <rect x="389.23" y="992.87" width="40.84" height="40.84" fill="#231f20"/>
  <rect x="388.85" y="949.44" width="40.84" height="40.84" fill="#231f20"/>
  <rect x="432.09" y="949.44" width="40.84" height="40.84" fill="#231f20"/>
  <rect x="389.24" y="906.34" width="40.84" height="40.84" fill="#231f20"/>
  <rect x="345.62" y="992.61" width="40.84" height="40.84" fill="#231f20"/>
  <rect x="345.62" y="949.44" width="40.84" height="40.84" fill="#231f20"/>
  <rect x="346.06" y="906.34" width="40.84" height="40.84" fill="#231f20"/>
  <rect x="432.42" y="906.34" width="40.84" height="40.84" fill="#231f20"/>
  <rect x="475.46" y="992.87" width="40.84" height="40.84" fill="#231f20"/>
  <rect x="518.88" y="992.87" width="40.84" height="40.84" fill="#231f20"/>
  <rect x="475.33" y="949.44" width="40.84" height="40.84" fill="#231f20"/>
  <rect x="518.56" y="949.44" width="40.84" height="40.84" fill="#231f20"/>
  <rect x="475.61" y="906.34" width="40.84" height="40.84" fill="#231f20"/>
  <rect x="518.79" y="906.34" width="40.84" height="40.84" fill="#231f20"/>
  <rect x="389.43" y="863.18" width="40.84" height="40.84" fill="#231f20"/>
  <rect x="432.58" y="863.18" width="40.84" height="40.84" fill="#231f20"/>
  <rect x="388.82" y="819.91" width="40.84" height="40.84" fill="#231f20"/>
  <rect x="432.03" y="819.91" width="40.84" height="40.84" fill="#231f20"/>
  <rect x="388.92" y="776.7" width="40.84" height="40.84" fill="#231f20"/>
  <rect x="432.16" y="776.7" width="40.84" height="40.84" fill="#231f20"/>
  <rect x="475.74" y="863.18" width="40.84" height="40.84" fill="#231f20"/>
  <rect x="518.9" y="863.18" width="40.84" height="40.84" fill="#231f20"/>
  <rect x="475.24" y="819.91" width="40.84" height="40.84" fill="#231f20"/>
  <rect x="518.45" y="819.91" width="40.84" height="40.84" fill="#231f20"/>
  <rect x="475.4" y="776.7" width="40.84" height="40.84" fill="#231f20"/>
  <rect x="518.64" y="776.7" width="40.84" height="40.84" fill="#231f20"/>
  <rect x="389.21" y="733.52" width="40.84" height="40.84" fill="#231f20"/>
  <rect x="432.4" y="733.52" width="40.84" height="40.84" fill="#231f20"/>
  <rect x="389.21" y="690.47" width="40.84" height="40.84" fill="#231f20"/>
  <rect x="432.4" y="690.47" width="40.84" height="40.84" fill="#231f20"/>
  <rect x="389.17" y="647.18" width="40.84" height="40.84" fill="#231f20"/>
  <rect x="432.37" y="647.18" width="40.84" height="40.84" fill="#231f20"/>
  <rect x="475.59" y="733.52" width="40.84" height="40.84" fill="#231f20"/>
  <rect x="518.78" y="733.52" width="40.84" height="40.84" fill="#231f20"/>
  <rect x="475.59" y="690.47" width="40.84" height="40.84" fill="#231f20"/>
  <rect x="518.78" y="690.47" width="40.84" height="40.84" fill="#231f20"/>
  <rect x="475.57" y="647.18" width="40.84" height="40.84" fill="#231f20"/>
  <rect x="518.76" y="647.18" width="40.84" height="40.84" fill="#231f20"/>
  <rect x="561.8" y="949.44" width="40.84" height="40.84" fill="#231f20"/>
  <rect x="561.97" y="906.34" width="40.84" height="40.84" fill="#231f20"/>
  <rect x="604.93" y="992.86" width="40.84" height="40.84" fill="#231f20"/>
  <rect x="648.08" y="992.86" width="40.84" height="40.84" fill="#231f20"/>
  <rect x="605.04" y="949.44" width="40.84" height="40.84" fill="#231f20"/>
  <rect x="648.27" y="949.44" width="40.84" height="40.84" fill="#231f20"/>
  <rect x="605.15" y="906.34" width="40.84" height="40.84" fill="#231f20"/>
  <rect x="648.33" y="906.34" width="40.84" height="40.84" fill="#231f20"/>
  <rect x="562.06" y="863.18" width="40.84" height="40.84" fill="#231f20"/>
  <rect x="561.66" y="819.91" width="40.84" height="40.84" fill="#231f20"/>
  <rect x="561.87" y="776.7" width="40.84" height="40.84" fill="#231f20"/>
  <rect x="605.22" y="863.18" width="40.84" height="40.84" fill="#231f20"/>
  <rect x="648.38" y="863.18" width="40.84" height="40.84" fill="#231f20"/>
  <rect x="604.87" y="819.91" width="40.84" height="40.84" fill="#231f20"/>
  <rect x="648.07" y="819.91" width="40.84" height="40.84" fill="#231f20"/>
  <rect x="605.11" y="776.7" width="40.84" height="40.84" fill="#231f20"/>
  <rect x="648.35" y="776.7" width="40.84" height="40.84" fill="#231f20"/>
  <rect x="561.97" y="733.52" width="40.84" height="40.84" fill="#231f20"/>
  <rect x="561.97" y="690.47" width="40.84" height="40.84" fill="#231f20"/>
  <rect x="561.96" y="647.18" width="40.84" height="40.84" fill="#231f20"/>
  <rect x="605.16" y="733.52" width="40.84" height="40.84" fill="#231f20"/>
  <rect x="648.35" y="733.52" width="40.84" height="40.84" fill="#231f20"/>
  <rect x="691.23" y="992.86" width="40.84" height="40.84" fill="#231f20"/>
  <rect x="691.51" y="949.44" width="40.84" height="40.84" fill="#231f20"/>
  <rect x="691.51" y="906.34" width="40.84" height="40.84" fill="#231f20"/>
  <rect x="691.54" y="863.18" width="40.84" height="40.84" fill="#231f20"/>
  <rect x="691.28" y="819.91" width="40.84" height="40.84" fill="#231f20"/>
  <rect x="734.38" y="992.86" width="40.84" height="40.84" fill="#231f20"/>
  <rect x="734.75" y="949.44" width="40.84" height="40.84" fill="#231f20"/>
  <rect x="734.69" y="906.34" width="40.84" height="40.84" fill="#231f20"/>
  <rect x="821.34" y="992.85" width="40.84" height="40.84" fill="#231f20"/>
  <rect x="777.98" y="949.44" width="40.84" height="40.84" fill="#231f20"/>
  <rect x="821.22" y="949.44" width="40.84" height="40.84" fill="#231f20"/>
  <rect x="777.87" y="906.34" width="40.84" height="40.84" fill="#231f20"/>
  <rect x="821.06" y="906.34" width="40.84" height="40.84" fill="#231f20"/>
  <rect x="734.7" y="863.18" width="40.84" height="40.84" fill="#231f20"/>
  <rect x="734.49" y="819.91" width="40.84" height="40.84" fill="#231f20"/>
  <rect x="864.14" y="1036.28" width="40.84" height="40.84" fill="#231f20"/>
  <rect x="864.45" y="992.85" width="40.84" height="40.84" fill="#231f20"/>
  <rect x="864.46" y="949.44" width="40.84" height="40.84" fill="#231f20"/>
  <rect x="864.24" y="906.34" width="40.84" height="40.84" fill="#231f20"/>
  <rect x="907.56" y="992.85" width="40.84" height="40.84" fill="#231f20"/>
  <rect x="907.69" y="949.44" width="40.84" height="40.84" fill="#231f20"/>
  <rect x="907.42" y="906.34" width="40.84" height="40.84" fill="#231f20"/>
  <rect x="950.93" y="1036.28" width="40.84" height="40.84" fill="#231f20"/>
  <rect x="950.67" y="992.85" width="40.84" height="40.84" fill="#231f20"/>
  <rect x="993.78" y="992.85" width="40.84" height="40.84" fill="#231f20"/>
  <rect x="950.93" y="949.44" width="40.84" height="40.84" fill="#231f20"/>
  <rect x="950.6" y="906.34" width="40.84" height="40.84" fill="#231f20"/>
  <rect x="993.78" y="906.34" width="40.84" height="40.84" fill="#231f20"/>
  <rect x="605.16" y="690.47" width="40.84" height="40.84" fill="#231f20"/>
  <rect x="648.35" y="690.47" width="40.84" height="40.84" fill="#231f20"/>
  <rect x="605.16" y="647.18" width="40.84" height="40.84" fill="#231f20"/>
  <rect x="648.35" y="647.18" width="40.84" height="40.84" fill="#231f20"/>
  <rect x="216.45" y="733.52" width="40.84" height="40.84" fill="#231f20"/>
  <rect x="259.2" y="819.91" width="40.84" height="40.84" fill="#231f20"/>
  <rect x="216.45" y="690.47" width="40.84" height="40.84" fill="#231f20"/>
  <rect x="259.2" y="776.7" width="40.84" height="40.84" fill="#231f20"/>
  <rect x="216.39" y="647.18" width="40.84" height="40.84" fill="#231f20"/>
  <rect x="259.64" y="733.52" width="40.84" height="40.84" fill="#231f20"/>
  <rect x="303.11" y="863.18" width="40.84" height="40.84" fill="#231f20"/>
  <rect x="346.27" y="863.18" width="40.84" height="40.84" fill="#231f20"/>
  <rect x="302.41" y="819.91" width="40.84" height="40.84" fill="#231f20"/>
  <rect x="345.61" y="819.91" width="40.84" height="40.84" fill="#231f20"/>
  <rect x="302.44" y="776.7" width="40.84" height="40.84" fill="#231f20"/>
  <rect x="345.68" y="776.7" width="40.84" height="40.84" fill="#231f20"/>
  <rect x="216.33" y="604.64" width="40.84" height="40.84" fill="#231f20"/>
  <rect x="259.64" y="690.47" width="40.84" height="40.84" fill="#231f20"/>
  <rect x="216.34" y="561.06" width="40.84" height="40.84" fill="#231f20"/>
  <rect x="259.58" y="647.18" width="40.84" height="40.84" fill="#231f20"/>
  <rect x="216.36" y="517.57" width="40.84" height="40.84" fill="#231f20"/>
  <rect x="259.53" y="604.64" width="40.84" height="40.84" fill="#231f20"/>
  <rect x="259.54" y="561.06" width="40.84" height="40.84" fill="#231f20"/>
  <rect x="302.83" y="733.52" width="40.84" height="40.84" fill="#231f20"/>
  <rect x="346.02" y="733.52" width="40.84" height="40.84" fill="#231f20"/>
  <rect x="302.83" y="690.47" width="40.84" height="40.84" fill="#231f20"/>
  <rect x="346.02" y="690.47" width="40.84" height="40.84" fill="#231f20"/>
  <rect x="302.78" y="647.18" width="40.84" height="40.84" fill="#231f20"/>
  <rect x="345.98" y="647.18" width="40.84" height="40.84" fill="#231f20"/>
  <rect x="389.14" y="604.64" width="40.84" height="40.84" fill="#231f20"/>
  <rect x="432.34" y="604.64" width="40.84" height="40.84" fill="#231f20"/>
  <rect x="389.15" y="561.06" width="40.84" height="40.84" fill="#231f20"/>
  <rect x="432.36" y="561.06" width="40.84" height="40.84" fill="#231f20"/>
  <rect x="475.55" y="604.64" width="40.84" height="40.84" fill="#231f20"/>
  <rect x="518.75" y="604.64" width="40.84" height="40.84" fill="#231f20"/>
  <rect x="475.56" y="561.06" width="40.84" height="40.84" fill="#231f20"/>
  <rect x="518.77" y="561.06" width="40.84" height="40.84" fill="#231f20"/>
  <rect x="561.95" y="604.64" width="40.84" height="40.84" fill="#231f20"/>
  <rect x="561.97" y="561.06" width="40.84" height="40.84" fill="#231f20"/>
  <rect x="605.15" y="604.64" width="40.84" height="40.84" fill="#231f20"/>
  <rect x="302.74" y="604.64" width="40.84" height="40.84" fill="#231f20"/>
  <rect x="345.94" y="604.64" width="40.84" height="40.84" fill="#231f20"/>
  <rect x="302.74" y="561.06" width="40.84" height="40.84" fill="#231f20"/>
  <rect x="345.95" y="561.06" width="40.84" height="40.84" fill="#231f20"/>
  <rect x="259.41" y="517.57" width="40.84" height="40.84" fill="#231f20"/>
  <rect x="87.22" y="517.57" width="40.84" height="40.84" fill="#231f20"/>
  <rect x="129.93" y="604.64" width="40.84" height="40.84" fill="#231f20"/>
  <rect x="129.93" y="561.06" width="40.84" height="40.84" fill="#231f20"/>
  <rect x="173.19" y="647.18" width="40.84" height="40.84" fill="#231f20"/>
  <rect x="130.26" y="517.57" width="40.84" height="40.84" fill="#231f20"/>
  <rect x="173.13" y="604.64" width="40.84" height="40.84" fill="#231f20"/>
  <rect x="173.13" y="561.06" width="40.84" height="40.84" fill="#231f20"/>
  <rect x="173.31" y="517.57" width="40.84" height="40.84" fill="#231f20"/>
  <rect x="388.55" y="517.57" width="40.84" height="40.84" fill="#231f20"/>
  <rect x="302.45" y="517.57" width="40.84" height="40.84" fill="#231f20"/>
  <rect x="345.5" y="517.57" width="40.84" height="40.84" fill="#231f20"/>
  <rect x="215.96" y="474.45" width="40.84" height="40.84" fill="#231f20"/>
  <rect x="259.11" y="474.45" width="40.84" height="40.84" fill="#231f20"/>
  <rect x="86.5" y="474.45" width="40.84" height="40.84" fill="#231f20"/>
  <rect x="43.35" y="474.45" width="40.84" height="40.84" fill="#231f20"/>
  <rect x="129.65" y="474.45" width="40.84" height="40.84" fill="#231f20"/>
  <rect x="172.8" y="474.45" width="40.84" height="40.84" fill="#231f20"/>
  <rect x="388.57" y="474.45" width="40.84" height="40.84" fill="#231f20"/>
  <rect x="302.26" y="474.45" width="40.84" height="40.84" fill="#231f20"/>
  <rect x="345.41" y="474.45" width="40.84" height="40.84" fill="#231f20"/>
  <rect x="216.56" y="431.16" width="40.84" height="40.84" fill="#231f20"/>
  <rect x="86.69" y="431.16" width="40.84" height="40.84" fill="#231f20"/>
  <rect x="43.35" y="431.16" width="40.84" height="40.84" fill="#231f20"/>
  <rect x="130.04" y="431.16" width="40.84" height="40.84" fill="#231f20"/>
  <rect x="172.62" y="431.16" width="40.84" height="40.84" fill="#231f20"/>
  <rect x="216.56" y="387.96" width="40.84" height="40.84" fill="#231f20"/>
  <rect x="86.62" y="387.96" width="40.84" height="40.84" fill="#231f20"/>
  <rect x="43.31" y="387.96" width="40.84" height="40.84" fill="#231f20"/>
  <rect x="129.94" y="387.96" width="40.84" height="40.84" fill="#231f20"/>
  <rect x="173.25" y="387.96" width="40.84" height="40.84" fill="#231f20"/>
  <rect x="216.56" y="344.76" width="40.84" height="40.84" fill="#231f20"/>
  <rect x="86.62" y="344.76" width="40.84" height="40.84" fill="#231f20"/>
  <rect x="43.31" y="344.76" width="40.84" height="40.84" fill="#231f20"/>
  <rect y="387.96" width="40.84" height="40.84" fill="#231f20"/>
  <rect y="344.76" width="40.84" height="40.84" fill="#231f20"/>
  <rect x="86.69" y="301.56" width="40.84" height="40.84" fill="#231f20"/>
  <rect x="43.35" y="301.56" width="40.84" height="40.84" fill="#231f20"/>
  <rect y="301.56" width="40.84" height="40.84" fill="#231f20"/>
  <rect x="129.94" y="344.76" width="40.84" height="40.84" fill="#231f20"/>
  <rect x="173.25" y="344.76" width="40.84" height="40.84" fill="#231f20"/>
  <rect x="144.11" y="186.35" width="13.39" height="13.39" fill="#231f20"/>
  <rect x="187.4" y="186.35" width="13.39" height="13.39" fill="#231f20"/>
  <rect x="144.11" y="142.97" width="13.39" height="13.39" fill="#231f20"/>
  <rect x="187.4" y="142.97" width="13.39" height="13.39" fill="#231f20"/>
  <rect x="144.11" y="99.58" width="13.39" height="13.39" fill="#231f20"/>
  <rect x="187.4" y="99.58" width="13.39" height="13.39" fill="#231f20"/>
  <rect x="230.7" y="142.97" width="13.39" height="13.39" fill="#231f20"/>
  <rect x="230.7" y="99.58" width="13.39" height="13.39" fill="#231f20"/>
  <rect x="57.51" y="99.58" width="13.39" height="13.39" fill="#231f20"/>
  <rect x="14.21" y="99.58" width="13.39" height="13.39" fill="#231f20"/>
  <rect x="100.81" y="99.58" width="13.39" height="13.39" fill="#231f20"/>
  <rect x="144.11" y="315.28" width="13.39" height="13.39" fill="#231f20"/>
  <rect x="187.4" y="315.28" width="13.39" height="13.39" fill="#231f20"/>
  <rect x="230.85" y="315.28" width="13.39" height="13.39" fill="#231f20"/>
  <rect x="274.15" y="315.28" width="13.39" height="13.39" fill="#231f20"/>
  <rect x="273.26" y="358.48" width="13.39" height="13.39" fill="#231f20"/>
  <rect x="316.56" y="358.48" width="13.39" height="13.39" fill="#231f20"/>
  <rect x="358.75" y="358.48" width="13.39" height="13.39" fill="#231f20"/>
  <rect x="273.26" y="401.68" width="13.39" height="13.39" fill="#231f20"/>
  <rect x="316.56" y="401.68" width="13.39" height="13.39" fill="#231f20"/>
  <rect x="358.75" y="401.68" width="13.39" height="13.39" fill="#231f20"/>
  <rect x="402.29" y="401.68" width="13.39" height="13.39" fill="#231f20"/>
  <rect x="273.26" y="444.88" width="13.39" height="13.39" fill="#231f20"/>
  <rect x="316.56" y="444.88" width="13.39" height="13.39" fill="#231f20"/>
  <rect x="358.75" y="444.88" width="13.39" height="13.39" fill="#231f20"/>
  <rect x="402.29" y="444.88" width="13.39" height="13.39" fill="#231f20"/>
  <rect x="445.71" y="444.88" width="13.39" height="13.39" fill="#231f20"/>
  <rect x="489.25" y="444.88" width="13.39" height="13.39" fill="#231f20"/>
  <rect x="447.06" y="487.93" width="13.39" height="13.39" fill="#231f20"/>
  <rect x="490.6" y="487.93" width="13.39" height="13.39" fill="#231f20"/>
  <rect x="532.23" y="488.68" width="13.39" height="13.39" fill="#231f20"/>
  <rect x="576.26" y="488.68" width="13.39" height="13.39" fill="#231f20"/>
  <rect x="792.74" y="99.58" width="13.39" height="13.39" fill="#231f20"/>
  <rect x="749.71" y="99.58" width="13.39" height="13.39" fill="#231f20"/>
  <rect x="749.71" y="57.81" width="13.39" height="13.39" fill="#231f20"/>
  <rect x="706.24" y="14.34" width="13.39" height="13.39" fill="#231f20"/>
  <rect x="490.19" y="14.34" width="13.39" height="13.39" fill="#231f20"/>
  <rect x="533.13" y="14.34" width="13.39" height="13.39" fill="#231f20"/>
  <rect x="576.78" y="14.34" width="13.39" height="13.39" fill="#231f20"/>
  <rect x="490.19" y="55.34" width="13.39" height="13.39" fill="#231f20"/>
  <rect x="533.13" y="55.34" width="13.39" height="13.39" fill="#231f20"/>
  <rect x="533.13" y="99.58" width="13.39" height="13.39" fill="#231f20"/>
  <rect x="533.13" y="142.97" width="13.39" height="13.39" fill="#231f20"/>
  <rect x="445.72" y="14.34" width="13.39" height="13.39" fill="#231f20"/>
  <rect x="404.12" y="14.34" width="13.39" height="13.39" fill="#231f20"/>
  <rect x="361.63" y="14.34" width="13.39" height="13.39" fill="#231f20"/>
  <rect x="445.72" y="55.34" width="13.39" height="13.39" fill="#231f20"/>
  <rect x="445.72" y="99.58" width="13.39" height="13.39" fill="#231f20"/>
  <rect x="445.72" y="186.35" width="13.39" height="13.39" fill="#231f20"/>
  <rect x="445.72" y="143.73" width="13.39" height="13.39" fill="#231f20"/>
  <rect x="706.68" y="145.3" width="13.39" height="13.39" fill="#231f20"/>
  <rect x="836.77" y="99.58" width="13.39" height="13.39" fill="#231f20"/>
  <rect x="619.25" y="99.58" width="13.39" height="13.39" fill="#231f20"/>
  <rect x="663.29" y="402.15" width="13.39" height="13.39" fill="#231f20"/>
  <rect x="663.29" y="444.88" width="13.39" height="13.39" fill="#231f20"/>
  <rect x="619.75" y="444.88" width="13.39" height="13.39" fill="#231f20"/>
  <rect x="619.75" y="402.52" width="13.39" height="13.39" fill="#231f20"/>
  <rect x="663.29" y="99.58" width="13.39" height="13.39" fill="#231f20"/>
  <rect x="662.79" y="186.35" width="13.39" height="13.39" fill="#231f20"/>
  <rect x="619.75" y="186.35" width="13.39" height="13.39" fill="#231f20"/>
  <rect x="662.79" y="229.64" width="13.39" height="13.39" fill="#231f20"/>
  <rect x="619.75" y="229.64" width="13.39" height="13.39" fill="#231f20"/>
  <rect x="706.82" y="186.35" width="13.39" height="13.39" fill="#231f20"/>
  <rect x="835.77" y="57.81" width="13.39" height="13.39" fill="#231f20"/>
  <rect x="879.81" y="57.81" width="13.39" height="13.39" fill="#231f20"/>
  <rect x="920.61" y="57.81" width="13.39" height="13.39" fill="#231f20"/>
  <rect x="964.64" y="57.81" width="13.39" height="13.39" fill="#231f20"/>
  <rect x="447.06" y="530.74" width="13.39" height="13.39" fill="#231f20"/>
  <rect x="490.6" y="530.74" width="13.39" height="13.39" fill="#231f20"/>
  <rect x="532.23" y="531.49" width="13.39" height="13.39" fill="#231f20"/>
  <rect x="576.26" y="531.49" width="13.39" height="13.39" fill="#231f20"/>
  <rect x="619.68" y="531.71" width="13.39" height="13.39" fill="#231f20"/>
  <rect x="619.68" y="575.4" width="13.39" height="13.39" fill="#231f20"/>
  <rect x="662.19" y="574.67" width="13.39" height="13.39" fill="#231f20"/>
  <rect x="662.19" y="618.35" width="13.39" height="13.39" fill="#231f20"/>
  <rect x="705.82" y="662.68" width="13.39" height="13.39" fill="#231f20"/>
  <rect x="705.82" y="705.04" width="13.39" height="13.39" fill="#231f20"/>
  <rect x="705.82" y="748.14" width="13.39" height="13.39" fill="#231f20"/>
  <rect x="705.82" y="790.49" width="13.39" height="13.39" fill="#231f20"/>
  <rect x="748.22" y="705.04" width="13.39" height="13.39" fill="#231f20"/>
  <rect x="748.22" y="748.14" width="13.39" height="13.39" fill="#231f20"/>
  <rect x="748.22" y="790.49" width="13.39" height="13.39" fill="#231f20"/>
  <rect x="316.63" y="1005.81" width="13.39" height="13.39" fill="#231f20"/>
  <rect x="316.63" y="963.16" width="13.39" height="13.39" fill="#231f20"/>
  <rect x="316.63" y="920.97" width="13.39" height="13.39" fill="#231f20"/>
  <rect x="272.92" y="878.16" width="13.39" height="13.39" fill="#231f20"/>
  <rect x="230.29" y="791.29" width="13.39" height="13.39" fill="#231f20"/>
  <rect x="230.29" y="833.34" width="13.39" height="13.39" fill="#231f20"/>
  <rect x="186.29" y="706.4" width="13.39" height="13.39" fill="#231f20"/>
  <rect x="186.29" y="748.46" width="13.39" height="13.39" fill="#231f20"/>
  <rect x="100.42" y="575.48" width="13.39" height="13.39" fill="#231f20"/>
  <rect x="100.42" y="617.54" width="13.39" height="13.39" fill="#231f20"/>
  <rect x="57.07" y="533.95" width="13.39" height="13.39" fill="#231f20"/>
  <rect x="57.07" y="576" width="13.39" height="13.39" fill="#231f20"/>
  <rect x="13.72" y="445.88" width="13.39" height="13.39" fill="#231f20"/>
  <rect x="13.72" y="487.94" width="13.39" height="13.39" fill="#231f20"/>
  <rect x="316.63" y="1048.17" width="13.39" height="13.39" fill="#231f20"/>
  <rect x="359.02" y="1048.17" width="13.39" height="13.39" fill="#231f20"/>
  <rect x="402.33" y="1048.17" width="13.39" height="13.39" fill="#231f20"/>
  <rect x="446.28" y="1048.17" width="13.39" height="13.39" fill="#231f20"/>
  <rect x="447.96" y="1006.6" width="13.39" height="13.39" fill="#231f20"/>
  <rect x="576.3" y="1006.6" width="13.39" height="13.39" fill="#231f20"/>
  <rect x="488.68" y="1048.17" width="13.39" height="13.39" fill="#231f20"/>
  <rect x="531.99" y="1048.17" width="13.39" height="13.39" fill="#231f20"/>
  <rect x="578.19" y="1048.17" width="13.39" height="13.39" fill="#231f20"/>
  <rect x="620.59" y="1048.17" width="13.39" height="13.39" fill="#231f20"/>
  <rect x="663.9" y="1048.17" width="13.39" height="13.39" fill="#231f20"/>
  <rect x="707.85" y="1048.17" width="13.39" height="13.39" fill="#231f20"/>
  <rect x="750.25" y="1048.17" width="13.39" height="13.39" fill="#231f20"/>
  <rect x="793.56" y="1048.17" width="13.39" height="13.39" fill="#231f20"/>
  <rect x="834.1" y="1048.17" width="13.39" height="13.39" fill="#231f20"/>
  <rect x="924.41" y="1048.17" width="13.39" height="13.39" fill="#231f20"/>
  <rect x="1010.61" y="1048.17" width="13.39" height="13.39" fill="#231f20"/>
  <rect x="793.56" y="1006.6" width="13.39" height="13.39" fill="#231f20"/>
  <rect x="1051.6" y="920.4" width="13.39" height="13.39" fill="#231f20"/>
  <rect x="1051.6" y="963.5" width="13.39" height="13.39" fill="#231f20"/>
  <rect x="1010.61" y="963.5" width="13.39" height="13.39" fill="#231f20"/>
  <rect x="1051.6" y="1005.86" width="13.39" height="13.39" fill="#231f20"/>
  <rect x="1051.6" y="1050.04" width="13.39" height="13.39" fill="#231f20"/>
  <rect x="793.56" y="792.62" width="13.39" height="13.39" fill="#231f20"/>
  <rect x="793.56" y="835.72" width="13.39" height="13.39" fill="#231f20"/>
  <rect x="793.56" y="878.08" width="13.39" height="13.39" fill="#231f20"/>
  <rect x="835.96" y="792.62" width="13.39" height="13.39" fill="#231f20"/>
  <rect x="835.96" y="835.72" width="13.39" height="13.39" fill="#231f20"/>
  <rect x="835.96" y="878.08" width="13.39" height="13.39" fill="#231f20"/>
  <rect x="877.87" y="835.72" width="13.39" height="13.39" fill="#231f20"/>
  <rect x="877.87" y="878.08" width="13.39" height="13.39" fill="#231f20"/>
  <rect x="920.27" y="835.72" width="13.39" height="13.39" fill="#231f20"/>
  <rect x="920.27" y="878.08" width="13.39" height="13.39" fill="#231f20"/>
  <rect x="965.11" y="835.72" width="13.39" height="13.39" fill="#231f20"/>
  <rect x="965.11" y="878.08" width="13.39" height="13.39" fill="#231f20"/>
  <rect x="1007.51" y="835.72" width="13.39" height="13.39" fill="#231f20"/>
  <rect x="1007.51" y="878.08" width="13.39" height="13.39" fill="#231f20"/>
  <rect x="144.11" y="272.92" width="13.39" height="13.39" fill="#231f20"/>
  <rect x="187.4" y="272.92" width="13.39" height="13.39" fill="#231f20"/>
  <rect x="144.11" y="229.64" width="13.39" height="13.39" fill="#231f20"/>
  <rect x="187.4" y="229.64" width="13.39" height="13.39" fill="#231f20"/>
  <rect x="57.51" y="272.92" width="13.39" height="13.39" fill="#231f20"/>
  <rect x="14.21" y="272.92" width="13.39" height="13.39" fill="#231f20"/>
  <rect x="100.81" y="272.92" width="13.39" height="13.39" fill="#231f20"/>
  <rect x="100.18" y="56.19" width="13.39" height="13.39" fill="#231f20"/>
  <rect x="143.48" y="56.19" width="13.39" height="13.39" fill="#231f20"/>
  <rect x="186.58" y="12.8" width="13.39" height="13.39" fill="#231f20"/>
  <rect x="229.88" y="12.8" width="13.39" height="13.39" fill="#231f20"/>
  <rect x="13.78" y="13.99" width="13.39" height="13.39" fill="#231f20"/>
  <rect x="57.08" y="13.99" width="13.39" height="13.39" fill="#231f20"/>
</svg>