<?xml version="1.0" encoding="UTF-8"?>
<svg id="Layer_124" data-name="Layer 124" xmlns="http://www.w3.org/2000/svg" viewBox="0 0 1080 1080">
  <rect x="476.83" y="778.39" width="40.84" height="40.84" fill="#231f20"/>
  <rect x="433.62" y="778.39" width="40.84" height="40.84" fill="#231f20"/>
  <rect x="476.83" y="821.6" width="40.84" height="40.84" fill="#231f20"/>
  <rect x="433.62" y="821.6" width="40.84" height="40.84" fill="#231f20"/>
  <rect x="433.62" y="692.08" width="40.84" height="40.84" fill="#231f20"/>
  <rect x="433.62" y="735.29" width="40.84" height="40.84" fill="#231f20"/>
  <rect x="476.83" y="864.81" width="40.84" height="40.84" fill="#231f20"/>
  <rect x="433.62" y="864.81" width="40.84" height="40.84" fill="#231f20"/>
  <rect x="563.15" y="778.39" width="40.84" height="40.84" fill="#231f20"/>
  <rect x="519.95" y="778.39" width="40.84" height="40.84" fill="#231f20"/>
  <rect x="563.15" y="821.6" width="40.84" height="40.84" fill="#231f20"/>
  <rect x="519.95" y="821.6" width="40.84" height="40.84" fill="#231f20"/>
  <rect x="563.15" y="864.81" width="40.84" height="40.84" fill="#231f20"/>
  <rect x="563.15" y="908.08" width="40.84" height="40.84" fill="#231f20"/>
  <rect x="563.15" y="951.29" width="40.84" height="40.84" fill="#231f20"/>
  <rect x="519.95" y="864.81" width="40.84" height="40.84" fill="#231f20"/>
  <rect x="519.95" y="648.76" width="40.84" height="40.84" fill="#231f20"/>
  <rect x="519.95" y="691.97" width="40.84" height="40.84" fill="#231f20"/>
  <rect x="519.95" y="735.18" width="40.84" height="40.84" fill="#231f20"/>
  <rect x="563.15" y="735.18" width="40.84" height="40.84" fill="#231f20"/>
  <rect x="476.74" y="691.97" width="40.84" height="40.84" fill="#231f20"/>
  <rect x="433.62" y="648.82" width="40.84" height="40.84" fill="#231f20"/>
  <rect x="476.74" y="648.7" width="40.84" height="40.84" fill="#231f20"/>
  <rect x="433.62" y="605.87" width="40.84" height="40.84" fill="#231f20"/>
  <rect x="519.95" y="562.55" width="40.84" height="40.84" fill="#231f20"/>
  <rect x="519.95" y="605.75" width="40.84" height="40.84" fill="#231f20"/>
  <rect x="563.15" y="648.76" width="40.84" height="40.84" fill="#231f20"/>
  <rect x="563.15" y="691.97" width="40.84" height="40.84" fill="#231f20"/>
  <rect x="563.15" y="605.75" width="40.84" height="40.84" fill="#231f20"/>
  <rect x="476.74" y="605.75" width="40.84" height="40.84" fill="#231f20"/>
  <rect x="433.62" y="562.6" width="40.84" height="40.84" fill="#231f20"/>
  <rect x="433.62" y="519.22" width="40.84" height="40.84" fill="#231f20"/>
  <rect x="476.74" y="562.49" width="40.84" height="40.84" fill="#231f20"/>
  <rect x="519.95" y="476.11" width="40.84" height="40.84" fill="#231f20"/>
  <rect x="519.95" y="519.32" width="40.84" height="40.84" fill="#231f20"/>
  <rect x="563.15" y="562.55" width="40.84" height="40.84" fill="#231f20"/>
  <rect x="563.15" y="476.11" width="40.84" height="40.84" fill="#231f20"/>
  <rect x="563.15" y="519.32" width="40.84" height="40.84" fill="#231f20"/>
  <rect x="476.74" y="519.32" width="40.84" height="40.84" fill="#231f20"/>
  <rect x="476.74" y="476.06" width="40.84" height="40.84" fill="#231f20"/>
  <rect x="563.15" y="389.71" width="40.84" height="40.84" fill="#231f20"/>
  <rect x="563.15" y="432.92" width="40.84" height="40.84" fill="#231f20"/>
  <rect x="519.95" y="432.92" width="40.84" height="40.84" fill="#231f20"/>
  <rect x="519.95" y="389.66" width="40.84" height="40.84" fill="#231f20"/>
  <rect x="563.15" y="303.31" width="40.84" height="40.84" fill="#231f20"/>
  <rect x="563.15" y="346.52" width="40.84" height="40.84" fill="#231f20"/>
  <rect x="519.95" y="346.52" width="40.84" height="40.84" fill="#231f20"/>
  <rect x="519.95" y="303.26" width="40.84" height="40.84" fill="#231f20"/>
  <rect x="433.53" y="432.92" width="40.84" height="40.84" fill="#231f20"/>
  <rect x="433.53" y="476.11" width="40.84" height="40.84" fill="#231f20"/>
  <rect x="433.53" y="389.66" width="40.84" height="40.84" fill="#231f20"/>
  <rect x="433.53" y="346.52" width="40.84" height="40.84" fill="#231f20"/>
  <rect x="390.36" y="519.22" width="40.84" height="40.84" fill="#231f20"/>
  <rect x="390.27" y="432.92" width="40.84" height="40.84" fill="#231f20"/>
  <rect x="390.27" y="476.11" width="40.84" height="40.84" fill="#231f20"/>
  <rect x="390.27" y="389.66" width="40.84" height="40.84" fill="#231f20"/>
  <rect x="390.27" y="346.52" width="40.84" height="40.84" fill="#231f20"/>
  <rect x="433.53" y="303.26" width="40.84" height="40.84" fill="#231f20"/>
  <rect x="476.74" y="432.92" width="40.84" height="40.84" fill="#231f20"/>
  <rect x="476.74" y="389.66" width="40.84" height="40.84" fill="#231f20"/>
  <rect x="476.74" y="346.52" width="40.84" height="40.84" fill="#231f20"/>
  <rect x="476.74" y="303.26" width="40.84" height="40.84" fill="#231f20"/>
  <rect x="519.95" y="259.99" width="40.84" height="40.84" fill="#231f20"/>
  <rect x="519.95" y="216.86" width="40.84" height="40.84" fill="#231f20"/>
  <rect x="519.95" y="173.59" width="40.84" height="40.84" fill="#231f20"/>
  <rect x="433.53" y="259.99" width="40.84" height="40.84" fill="#231f20"/>
  <rect x="433.53" y="216.86" width="40.84" height="40.84" fill="#231f20"/>
  <rect x="433.53" y="173.59" width="40.84" height="40.84" fill="#231f20"/>
  <rect x="476.74" y="259.99" width="40.84" height="40.84" fill="#231f20"/>
  <rect x="476.74" y="216.86" width="40.84" height="40.84" fill="#231f20"/>
  <rect x="476.74" y="173.59" width="40.84" height="40.84" fill="#231f20"/>
  <rect x="433.53" y="130.32" width="40.84" height="40.84" fill="#231f20"/>
  <rect x="433.53" y="87.19" width="40.84" height="40.84" fill="#231f20"/>
  <rect x="433.53" y="43.92" width="40.84" height="40.84" fill="#231f20"/>
  <rect x="476.74" y="130.32" width="40.84" height="40.84" fill="#231f20"/>
  <rect x="476.74" y="87.19" width="40.84" height="40.84" fill="#231f20"/>
  <rect x="476.74" y="43.92" width="40.84" height="40.84" fill="#231f20"/>
  <rect x="433.53" y="1.1" width="40.84" height="40.84" fill="#231f20"/>
  <rect x="390.32" y="303.26" width="40.84" height="40.84" fill="#231f20"/>
  <rect x="390.32" y="259.99" width="40.84" height="40.84" fill="#231f20"/>
  <rect x="390.32" y="216.86" width="40.84" height="40.84" fill="#231f20"/>
  <rect x="390.32" y="173.59" width="40.84" height="40.84" fill="#231f20"/>
  <rect x="390.32" y="130.32" width="40.84" height="40.84" fill="#231f20"/>
  <rect x="390.32" y="87.19" width="40.84" height="40.84" fill="#231f20"/>
  <rect x="390.32" y="43.92" width="40.84" height="40.84" fill="#231f20"/>
  <rect x="390.32" y="1.1" width="40.84" height="40.84" fill="#231f20"/>
  <rect x="476.74" y="1.1" width="40.84" height="40.84" fill="#231f20"/>
  <rect x="519.95" y="130.32" width="40.84" height="40.84" fill="#231f20"/>
  <rect x="519.95" y="87.19" width="40.84" height="40.84" fill="#231f20"/>
  <rect x="519.95" y="43.92" width="40.84" height="40.84" fill="#231f20"/>
  <rect x="519.95" y="1.1" width="40.84" height="40.84" fill="#231f20"/>
  <rect x="476.74" y="735.18" width="40.84" height="40.84" fill="#231f20"/>
  <rect x="476.83" y="908.02" width="40.84" height="40.84" fill="#231f20"/>
  <rect x="520.04" y="908.02" width="40.84" height="40.84" fill="#231f20"/>
  <rect x="476.83" y="950.95" width="40.84" height="40.84" fill="#231f20"/>
  <rect x="520.04" y="950.95" width="40.84" height="40.84" fill="#231f20"/>
  <rect x="433.62" y="908.02" width="40.84" height="40.84" fill="#231f20"/>
  <rect x="433.62" y="950.95" width="40.84" height="40.84" fill="#231f20"/>
  <rect x="433.62" y="994.16" width="40.84" height="40.84" fill="#231f20"/>
  <rect x="433.62" y="1037.37" width="40.84" height="40.84" fill="#231f20"/>
  <rect x="476.69" y="994.16" width="40.84" height="40.84" fill="#231f20"/>
  <rect x="476.69" y="1037.37" width="40.84" height="40.84" fill="#231f20"/>
  <rect x="520.04" y="994.16" width="40.84" height="40.84" fill="#231f20"/>
  <rect x="520.04" y="1037.37" width="40.84" height="40.84" fill="#231f20"/>
  <rect x="563.15" y="994.16" width="40.84" height="40.84" fill="#231f20"/>
  <rect x="563.15" y="1037.37" width="40.84" height="40.84" fill="#231f20"/>
  <rect x="619.46" y="835.14" width="13.39" height="13.39" fill="#231f20"/>
  <rect x="619.46" y="878.53" width="13.39" height="13.39" fill="#231f20"/>
  <rect x="619.46" y="920.54" width="13.39" height="13.39" fill="#231f20"/>
  <rect x="619.46" y="963.92" width="13.39" height="13.39" fill="#231f20"/>
  <rect x="619.46" y="1006.61" width="13.39" height="13.39" fill="#231f20"/>
  <rect x="619.46" y="1050" width="13.39" height="13.39" fill="#231f20"/>
  <rect x="619.46" y="576.79" width="13.39" height="13.39" fill="#231f20"/>
  <rect x="619.46" y="620.17" width="13.39" height="13.39" fill="#231f20"/>
  <rect x="619.46" y="662.18" width="13.39" height="13.39" fill="#231f20"/>
  <rect x="619.46" y="705.57" width="13.39" height="13.39" fill="#231f20"/>
  <rect x="619.46" y="748.25" width="13.39" height="13.39" fill="#231f20"/>
  <rect x="619.46" y="791.64" width="13.39" height="13.39" fill="#231f20"/>
  <rect x="619.46" y="317.59" width="13.39" height="13.39" fill="#231f20"/>
  <rect x="619.46" y="360.97" width="13.39" height="13.39" fill="#231f20"/>
  <rect x="619.46" y="402.98" width="13.39" height="13.39" fill="#231f20"/>
  <rect x="619.46" y="446.37" width="13.39" height="13.39" fill="#231f20"/>
  <rect x="619.46" y="489.05" width="13.39" height="13.39" fill="#231f20"/>
  <rect x="619.46" y="532.44" width="13.39" height="13.39" fill="#231f20"/>
  <rect x="664.1" y="835.14" width="13.39" height="13.39" fill="#231f20"/>
  <rect x="664.1" y="878.53" width="13.39" height="13.39" fill="#231f20"/>
  <rect x="664.1" y="920.54" width="13.39" height="13.39" fill="#231f20"/>
  <rect x="664.1" y="963.92" width="13.39" height="13.39" fill="#231f20"/>
  <rect x="664.1" y="1006.61" width="13.39" height="13.39" fill="#231f20"/>
  <rect x="664.1" y="1050" width="13.39" height="13.39" fill="#231f20"/>
  <rect x="792.54" y="835.14" width="13.39" height="13.39" fill="#231f20"/>
  <rect x="792.54" y="878.53" width="13.39" height="13.39" fill="#231f20"/>
  <rect x="792.54" y="920.54" width="13.39" height="13.39" fill="#231f20"/>
  <rect x="792.54" y="963.92" width="13.39" height="13.39" fill="#231f20"/>
  <rect x="792.54" y="1006.61" width="13.39" height="13.39" fill="#231f20"/>
  <rect x="792.54" y="1050" width="13.39" height="13.39" fill="#231f20"/>
  <rect x="835.7" y="835.14" width="13.39" height="13.39" fill="#231f20"/>
  <rect x="835.7" y="878.53" width="13.39" height="13.39" fill="#231f20"/>
  <rect x="835.7" y="920.54" width="13.39" height="13.39" fill="#231f20"/>
  <rect x="835.7" y="963.92" width="13.39" height="13.39" fill="#231f20"/>
  <rect x="835.7" y="1006.61" width="13.39" height="13.39" fill="#231f20"/>
  <rect x="835.7" y="1050" width="13.39" height="13.39" fill="#231f20"/>
  <rect x="880.34" y="835.14" width="13.39" height="13.39" fill="#231f20"/>
  <rect x="880.34" y="878.53" width="13.39" height="13.39" fill="#231f20"/>
  <rect x="880.34" y="920.54" width="13.39" height="13.39" fill="#231f20"/>
  <rect x="880.34" y="963.92" width="13.39" height="13.39" fill="#231f20"/>
  <rect x="880.34" y="1006.61" width="13.39" height="13.39" fill="#231f20"/>
  <rect x="880.34" y="1050" width="13.39" height="13.39" fill="#231f20"/>
  <rect x="924.99" y="835.14" width="13.39" height="13.39" fill="#231f20"/>
  <rect x="924.99" y="878.53" width="13.39" height="13.39" fill="#231f20"/>
  <rect x="924.99" y="920.54" width="13.39" height="13.39" fill="#231f20"/>
  <rect x="924.99" y="963.92" width="13.39" height="13.39" fill="#231f20"/>
  <rect x="924.99" y="1006.61" width="13.39" height="13.39" fill="#231f20"/>
  <rect x="924.99" y="1050" width="13.39" height="13.39" fill="#231f20"/>
  <rect x="792.54" y="577.96" width="13.39" height="13.39" fill="#231f20"/>
  <rect x="792.54" y="621.35" width="13.39" height="13.39" fill="#231f20"/>
  <rect x="792.54" y="663.35" width="13.39" height="13.39" fill="#231f20"/>
  <rect x="792.54" y="706.74" width="13.39" height="13.39" fill="#231f20"/>
  <rect x="792.54" y="749.43" width="13.39" height="13.39" fill="#231f20"/>
  <rect x="792.54" y="792.82" width="13.39" height="13.39" fill="#231f20"/>
  <rect x="835.7" y="577.96" width="13.39" height="13.39" fill="#231f20"/>
  <rect x="835.7" y="621.35" width="13.39" height="13.39" fill="#231f20"/>
  <rect x="835.7" y="663.35" width="13.39" height="13.39" fill="#231f20"/>
  <rect x="835.7" y="706.74" width="13.39" height="13.39" fill="#231f20"/>
  <rect x="835.7" y="749.43" width="13.39" height="13.39" fill="#231f20"/>
  <rect x="835.7" y="792.82" width="13.39" height="13.39" fill="#231f20"/>
  <rect x="880.34" y="577.96" width="13.39" height="13.39" fill="#231f20"/>
  <rect x="880.34" y="621.35" width="13.39" height="13.39" fill="#231f20"/>
  <rect x="880.34" y="663.35" width="13.39" height="13.39" fill="#231f20"/>
  <rect x="880.34" y="706.74" width="13.39" height="13.39" fill="#231f20"/>
  <rect x="880.34" y="749.43" width="13.39" height="13.39" fill="#231f20"/>
  <rect x="880.34" y="792.82" width="13.39" height="13.39" fill="#231f20"/>
  <rect x="924.99" y="577.96" width="13.39" height="13.39" fill="#231f20"/>
  <rect x="924.99" y="621.35" width="13.39" height="13.39" fill="#231f20"/>
  <rect x="924.99" y="663.35" width="13.39" height="13.39" fill="#231f20"/>
  <rect x="924.99" y="706.74" width="13.39" height="13.39" fill="#231f20"/>
  <rect x="924.99" y="749.43" width="13.39" height="13.39" fill="#231f20"/>
  <rect x="924.99" y="792.82" width="13.39" height="13.39" fill="#231f20"/>
  <rect x="792.54" y="316.03" width="13.39" height="13.39" fill="#231f20"/>
  <rect x="792.54" y="359.42" width="13.39" height="13.39" fill="#231f20"/>
  <rect x="792.54" y="401.42" width="13.39" height="13.39" fill="#231f20"/>
  <rect x="792.54" y="444.81" width="13.39" height="13.39" fill="#231f20"/>
  <rect x="792.54" y="487.49" width="13.39" height="13.39" fill="#231f20"/>
  <rect x="792.54" y="530.88" width="13.39" height="13.39" fill="#231f20"/>
  <rect x="835.7" y="316.03" width="13.39" height="13.39" fill="#231f20"/>
  <rect x="835.7" y="359.42" width="13.39" height="13.39" fill="#231f20"/>
  <rect x="835.7" y="401.42" width="13.39" height="13.39" fill="#231f20"/>
  <rect x="835.7" y="444.81" width="13.39" height="13.39" fill="#231f20"/>
  <rect x="835.7" y="487.49" width="13.39" height="13.39" fill="#231f20"/>
  <rect x="835.7" y="530.88" width="13.39" height="13.39" fill="#231f20"/>
  <rect x="880.34" y="316.03" width="13.39" height="13.39" fill="#231f20"/>
  <rect x="880.34" y="359.42" width="13.39" height="13.39" fill="#231f20"/>
  <rect x="880.34" y="401.42" width="13.39" height="13.39" fill="#231f20"/>
  <rect x="880.34" y="444.81" width="13.39" height="13.39" fill="#231f20"/>
  <rect x="880.34" y="487.49" width="13.39" height="13.39" fill="#231f20"/>
  <rect x="880.34" y="530.88" width="13.39" height="13.39" fill="#231f20"/>
  <rect x="924.99" y="316.03" width="13.39" height="13.39" fill="#231f20"/>
  <rect x="924.99" y="359.42" width="13.39" height="13.39" fill="#231f20"/>
  <rect x="924.99" y="401.42" width="13.39" height="13.39" fill="#231f20"/>
  <rect x="924.99" y="444.81" width="13.39" height="13.39" fill="#231f20"/>
  <rect x="792.54" y="144.62" width="13.39" height="13.39" fill="#231f20"/>
  <rect x="792.54" y="188.01" width="13.39" height="13.39" fill="#231f20"/>
  <rect x="792.54" y="230.02" width="13.39" height="13.39" fill="#231f20"/>
  <rect x="792.54" y="273.41" width="13.39" height="13.39" fill="#231f20"/>
  <rect x="835.7" y="144.62" width="13.39" height="13.39" fill="#231f20"/>
  <rect x="835.7" y="188.01" width="13.39" height="13.39" fill="#231f20"/>
  <rect x="835.7" y="230.02" width="13.39" height="13.39" fill="#231f20"/>
  <rect x="835.7" y="273.41" width="13.39" height="13.39" fill="#231f20"/>
  <rect x="880.34" y="144.62" width="13.39" height="13.39" fill="#231f20"/>
  <rect x="880.34" y="188.01" width="13.39" height="13.39" fill="#231f20"/>
  <rect x="880.34" y="230.02" width="13.39" height="13.39" fill="#231f20"/>
  <rect x="880.34" y="273.41" width="13.39" height="13.39" fill="#231f20"/>
  <rect x="924.99" y="144.62" width="13.39" height="13.39" fill="#231f20"/>
  <rect x="924.99" y="188.01" width="13.39" height="13.39" fill="#231f20"/>
  <rect x="924.99" y="230.02" width="13.39" height="13.39" fill="#231f20"/>
  <rect x="792.54" y="14.95" width="13.39" height="13.39" fill="#231f20"/>
  <rect x="792.54" y="58.34" width="13.39" height="13.39" fill="#231f20"/>
  <rect x="792.54" y="100.34" width="13.39" height="13.39" fill="#231f20"/>
  <rect x="749.73" y="316.03" width="13.39" height="13.39" fill="#231f20"/>
  <rect x="749.73" y="144.62" width="13.39" height="13.39" fill="#231f20"/>
  <rect x="749.73" y="188.01" width="13.39" height="13.39" fill="#231f20"/>
  <rect x="749.73" y="230.02" width="13.39" height="13.39" fill="#231f20"/>
  <rect x="749.73" y="273.41" width="13.39" height="13.39" fill="#231f20"/>
  <rect x="749.73" y="14.95" width="13.39" height="13.39" fill="#231f20"/>
  <rect x="749.73" y="58.34" width="13.39" height="13.39" fill="#231f20"/>
  <rect x="749.73" y="100.34" width="13.39" height="13.39" fill="#231f20"/>
  <rect x="835.7" y="14.95" width="13.39" height="13.39" fill="#231f20"/>
  <rect x="835.7" y="58.34" width="13.39" height="13.39" fill="#231f20"/>
  <rect x="835.7" y="100.34" width="13.39" height="13.39" fill="#231f20"/>
  <rect x="880.34" y="14.95" width="13.39" height="13.39" fill="#231f20"/>
  <rect x="880.34" y="58.34" width="13.39" height="13.39" fill="#231f20"/>
  <rect x="880.34" y="100.34" width="13.39" height="13.39" fill="#231f20"/>
  <rect x="924.99" y="14.95" width="13.39" height="13.39" fill="#231f20"/>
  <rect x="924.99" y="58.34" width="13.39" height="13.39" fill="#231f20"/>
  <rect x="924.99" y="100.34" width="13.39" height="13.39" fill="#231f20"/>
  <rect x="924.99" y="273.41" width="13.39" height="13.39" fill="#231f20"/>
  <rect x="924.99" y="487.49" width="13.39" height="13.39" fill="#231f20"/>
  <rect x="924.99" y="530.88" width="13.39" height="13.39" fill="#231f20"/>
  <rect x="966.93" y="835.14" width="13.39" height="13.39" fill="#231f20"/>
  <rect x="966.93" y="878.53" width="13.39" height="13.39" fill="#231f20"/>
  <rect x="1009.69" y="835.14" width="13.39" height="13.39" fill="#231f20"/>
  <rect x="1009.69" y="878.53" width="13.39" height="13.39" fill="#231f20"/>
  <rect x="1056.35" y="835.14" width="13.39" height="13.39" fill="#231f20"/>
  <rect x="1056.35" y="878.53" width="13.39" height="13.39" fill="#231f20"/>
  <rect x="966.93" y="920.54" width="13.39" height="13.39" fill="#231f20"/>
  <rect x="966.93" y="963.92" width="13.39" height="13.39" fill="#231f20"/>
  <rect x="1009.69" y="920.54" width="13.39" height="13.39" fill="#231f20"/>
  <rect x="1009.69" y="963.92" width="13.39" height="13.39" fill="#231f20"/>
  <rect x="1056.35" y="920.54" width="13.39" height="13.39" fill="#231f20"/>
  <rect x="1056.35" y="963.92" width="13.39" height="13.39" fill="#231f20"/>
  <rect x="966.93" y="1008.12" width="13.39" height="13.39" fill="#231f20"/>
  <rect x="966.93" y="1051.51" width="13.39" height="13.39" fill="#231f20"/>
  <rect x="1009.69" y="1008.12" width="13.39" height="13.39" fill="#231f20"/>
  <rect x="1009.69" y="1051.51" width="13.39" height="13.39" fill="#231f20"/>
  <rect x="1056.35" y="1008.12" width="13.39" height="13.39" fill="#231f20"/>
  <rect x="1056.35" y="1051.51" width="13.39" height="13.39" fill="#231f20"/>
  <rect x="966.93" y="577.96" width="13.39" height="13.39" fill="#231f20"/>
  <rect x="966.93" y="621.35" width="13.39" height="13.39" fill="#231f20"/>
  <rect x="966.93" y="663.35" width="13.39" height="13.39" fill="#231f20"/>
  <rect x="966.93" y="706.74" width="13.39" height="13.39" fill="#231f20"/>
  <rect x="966.93" y="749.43" width="13.39" height="13.39" fill="#231f20"/>
  <rect x="966.93" y="792.82" width="13.39" height="13.39" fill="#231f20"/>
  <rect x="1009.69" y="577.96" width="13.39" height="13.39" fill="#231f20"/>
  <rect x="1009.69" y="621.35" width="13.39" height="13.39" fill="#231f20"/>
  <rect x="1009.69" y="663.35" width="13.39" height="13.39" fill="#231f20"/>
  <rect x="1009.69" y="706.74" width="13.39" height="13.39" fill="#231f20"/>
  <rect x="1009.69" y="749.43" width="13.39" height="13.39" fill="#231f20"/>
  <rect x="1009.69" y="792.82" width="13.39" height="13.39" fill="#231f20"/>
  <rect x="1056.35" y="577.96" width="13.39" height="13.39" fill="#231f20"/>
  <rect x="1056.35" y="621.35" width="13.39" height="13.39" fill="#231f20"/>
  <rect x="1056.35" y="663.35" width="13.39" height="13.39" fill="#231f20"/>
  <rect x="1056.35" y="706.74" width="13.39" height="13.39" fill="#231f20"/>
  <rect x="1056.35" y="749.43" width="13.39" height="13.39" fill="#231f20"/>
  <rect x="1056.35" y="792.82" width="13.39" height="13.39" fill="#231f20"/>
  <rect x="966.93" y="316.03" width="13.39" height="13.39" fill="#231f20"/>
  <rect x="966.93" y="359.42" width="13.39" height="13.39" fill="#231f20"/>
  <rect x="966.93" y="401.42" width="13.39" height="13.39" fill="#231f20"/>
  <rect x="966.93" y="444.81" width="13.39" height="13.39" fill="#231f20"/>
  <rect x="966.93" y="487.49" width="13.39" height="13.39" fill="#231f20"/>
  <rect x="966.93" y="530.88" width="13.39" height="13.39" fill="#231f20"/>
  <rect x="1009.69" y="316.03" width="13.39" height="13.39" fill="#231f20"/>
  <rect x="1009.69" y="359.42" width="13.39" height="13.39" fill="#231f20"/>
  <rect x="1009.69" y="401.42" width="13.39" height="13.39" fill="#231f20"/>
  <rect x="1009.69" y="444.81" width="13.39" height="13.39" fill="#231f20"/>
  <rect x="1009.69" y="487.49" width="13.39" height="13.39" fill="#231f20"/>
  <rect x="1009.69" y="530.88" width="13.39" height="13.39" fill="#231f20"/>
  <rect x="1056.35" y="316.03" width="13.39" height="13.39" fill="#231f20"/>
  <rect x="1056.35" y="359.42" width="13.39" height="13.39" fill="#231f20"/>
  <rect x="1056.35" y="401.42" width="13.39" height="13.39" fill="#231f20"/>
  <rect x="1056.35" y="444.81" width="13.39" height="13.39" fill="#231f20"/>
  <rect x="966.93" y="144.62" width="13.39" height="13.39" fill="#231f20"/>
  <rect x="966.93" y="188.01" width="13.39" height="13.39" fill="#231f20"/>
  <rect x="966.93" y="230.02" width="13.39" height="13.39" fill="#231f20"/>
  <rect x="966.93" y="273.41" width="13.39" height="13.39" fill="#231f20"/>
  <rect x="1009.69" y="144.62" width="13.39" height="13.39" fill="#231f20"/>
  <rect x="1009.69" y="188.01" width="13.39" height="13.39" fill="#231f20"/>
  <rect x="1009.69" y="230.02" width="13.39" height="13.39" fill="#231f20"/>
  <rect x="1009.69" y="273.41" width="13.39" height="13.39" fill="#231f20"/>
  <rect x="966.93" y="14.95" width="13.39" height="13.39" fill="#231f20"/>
  <rect x="966.93" y="58.34" width="13.39" height="13.39" fill="#231f20"/>
  <rect x="966.93" y="100.34" width="13.39" height="13.39" fill="#231f20"/>
  <rect x="1009.69" y="14.95" width="13.39" height="13.39" fill="#231f20"/>
  <rect x="1009.69" y="58.34" width="13.39" height="13.39" fill="#231f20"/>
  <rect x="1009.69" y="100.34" width="13.39" height="13.39" fill="#231f20"/>
  <rect x="1056.35" y="487.49" width="13.39" height="13.39" fill="#231f20"/>
  <rect x="1056.35" y="530.88" width="13.39" height="13.39" fill="#231f20"/>
  <rect x="59.81" y="835.14" width="13.39" height="13.39" fill="#231f20"/>
  <rect x="59.81" y="878.53" width="13.39" height="13.39" fill="#231f20"/>
  <rect x="59.81" y="920.54" width="13.39" height="13.39" fill="#231f20"/>
  <rect x="59.81" y="963.92" width="13.39" height="13.39" fill="#231f20"/>
  <rect x="59.81" y="1006.61" width="13.39" height="13.39" fill="#231f20"/>
  <rect x="102.48" y="835.14" width="13.39" height="13.39" fill="#231f20"/>
  <rect x="102.48" y="878.53" width="13.39" height="13.39" fill="#231f20"/>
  <rect x="102.48" y="920.54" width="13.39" height="13.39" fill="#231f20"/>
  <rect x="102.48" y="963.92" width="13.39" height="13.39" fill="#231f20"/>
  <rect x="102.48" y="1006.61" width="13.39" height="13.39" fill="#231f20"/>
  <rect x="144.46" y="835.14" width="13.39" height="13.39" fill="#231f20"/>
  <rect x="144.46" y="878.53" width="13.39" height="13.39" fill="#231f20"/>
  <rect x="144.46" y="920.54" width="13.39" height="13.39" fill="#231f20"/>
  <rect x="144.46" y="963.92" width="13.39" height="13.39" fill="#231f20"/>
  <rect x="144.46" y="1006.61" width="13.39" height="13.39" fill="#231f20"/>
  <rect x="186.93" y="835.14" width="13.39" height="13.39" fill="#231f20"/>
  <rect x="186.93" y="878.53" width="13.39" height="13.39" fill="#231f20"/>
  <rect x="186.93" y="920.54" width="13.39" height="13.39" fill="#231f20"/>
  <rect x="186.93" y="963.92" width="13.39" height="13.39" fill="#231f20"/>
  <rect x="186.93" y="1006.61" width="13.39" height="13.39" fill="#231f20"/>
  <rect x="59.81" y="577.96" width="13.39" height="13.39" fill="#231f20"/>
  <rect x="59.81" y="621.35" width="13.39" height="13.39" fill="#231f20"/>
  <rect x="59.81" y="663.35" width="13.39" height="13.39" fill="#231f20"/>
  <rect x="59.81" y="706.74" width="13.39" height="13.39" fill="#231f20"/>
  <rect x="59.81" y="749.43" width="13.39" height="13.39" fill="#231f20"/>
  <rect x="59.81" y="792.82" width="13.39" height="13.39" fill="#231f20"/>
  <rect x="102.48" y="577.96" width="13.39" height="13.39" fill="#231f20"/>
  <rect x="102.48" y="621.35" width="13.39" height="13.39" fill="#231f20"/>
  <rect x="102.48" y="663.35" width="13.39" height="13.39" fill="#231f20"/>
  <rect x="102.48" y="706.74" width="13.39" height="13.39" fill="#231f20"/>
  <rect x="102.48" y="749.43" width="13.39" height="13.39" fill="#231f20"/>
  <rect x="102.48" y="792.82" width="13.39" height="13.39" fill="#231f20"/>
  <rect x="144.46" y="577.96" width="13.39" height="13.39" fill="#231f20"/>
  <rect x="144.46" y="621.35" width="13.39" height="13.39" fill="#231f20"/>
  <rect x="144.46" y="663.35" width="13.39" height="13.39" fill="#231f20"/>
  <rect x="144.46" y="706.74" width="13.39" height="13.39" fill="#231f20"/>
  <rect x="144.46" y="749.43" width="13.39" height="13.39" fill="#231f20"/>
  <rect x="144.46" y="792.82" width="13.39" height="13.39" fill="#231f20"/>
  <rect x="186.93" y="577.96" width="13.39" height="13.39" fill="#231f20"/>
  <rect x="186.93" y="621.35" width="13.39" height="13.39" fill="#231f20"/>
  <rect x="186.93" y="663.35" width="13.39" height="13.39" fill="#231f20"/>
  <rect x="186.93" y="706.74" width="13.39" height="13.39" fill="#231f20"/>
  <rect x="186.93" y="749.43" width="13.39" height="13.39" fill="#231f20"/>
  <rect x="186.93" y="792.82" width="13.39" height="13.39" fill="#231f20"/>
  <rect x="59.81" y="401.42" width="13.39" height="13.39" fill="#231f20"/>
  <rect x="59.81" y="444.81" width="13.39" height="13.39" fill="#231f20"/>
  <rect x="59.81" y="487.49" width="13.39" height="13.39" fill="#231f20"/>
  <rect x="59.81" y="530.88" width="13.39" height="13.39" fill="#231f20"/>
  <rect x="102.48" y="401.42" width="13.39" height="13.39" fill="#231f20"/>
  <rect x="102.48" y="444.81" width="13.39" height="13.39" fill="#231f20"/>
  <rect x="102.48" y="487.49" width="13.39" height="13.39" fill="#231f20"/>
  <rect x="102.48" y="530.88" width="13.39" height="13.39" fill="#231f20"/>
  <rect x="144.46" y="401.42" width="13.39" height="13.39" fill="#231f20"/>
  <rect x="144.46" y="444.81" width="13.39" height="13.39" fill="#231f20"/>
  <rect x="144.46" y="487.49" width="13.39" height="13.39" fill="#231f20"/>
  <rect x="144.46" y="530.88" width="13.39" height="13.39" fill="#231f20"/>
  <rect x="186.93" y="401.42" width="13.39" height="13.39" fill="#231f20"/>
  <rect x="186.93" y="444.81" width="13.39" height="13.39" fill="#231f20"/>
  <rect x="186.93" y="487.49" width="13.39" height="13.39" fill="#231f20"/>
  <rect x="186.93" y="530.88" width="13.39" height="13.39" fill="#231f20"/>
  <rect x="228.87" y="835.14" width="13.39" height="13.39" fill="#231f20"/>
  <rect x="228.87" y="878.53" width="13.39" height="13.39" fill="#231f20"/>
  <rect x="273.51" y="835.14" width="13.39" height="13.39" fill="#231f20"/>
  <rect x="273.51" y="878.53" width="13.39" height="13.39" fill="#231f20"/>
  <rect x="318.16" y="835.14" width="13.39" height="13.39" fill="#231f20"/>
  <rect x="318.16" y="878.53" width="13.39" height="13.39" fill="#231f20"/>
  <rect x="228.87" y="920.54" width="13.39" height="13.39" fill="#231f20"/>
  <rect x="228.87" y="963.92" width="13.39" height="13.39" fill="#231f20"/>
  <rect x="273.51" y="920.54" width="13.39" height="13.39" fill="#231f20"/>
  <rect x="273.51" y="963.92" width="13.39" height="13.39" fill="#231f20"/>
  <rect x="318.16" y="920.54" width="13.39" height="13.39" fill="#231f20"/>
  <rect x="318.16" y="963.92" width="13.39" height="13.39" fill="#231f20"/>
  <rect x="228.87" y="1008.12" width="13.39" height="13.39" fill="#231f20"/>
  <rect x="273.51" y="1008.12" width="13.39" height="13.39" fill="#231f20"/>
  <rect x="318.16" y="1008.12" width="13.39" height="13.39" fill="#231f20"/>
  <rect x="228.87" y="577.96" width="13.39" height="13.39" fill="#231f20"/>
  <rect x="228.87" y="621.35" width="13.39" height="13.39" fill="#231f20"/>
  <rect x="228.87" y="663.35" width="13.39" height="13.39" fill="#231f20"/>
  <rect x="228.87" y="706.74" width="13.39" height="13.39" fill="#231f20"/>
  <rect x="228.87" y="749.43" width="13.39" height="13.39" fill="#231f20"/>
  <rect x="228.87" y="792.82" width="13.39" height="13.39" fill="#231f20"/>
  <rect x="273.51" y="577.96" width="13.39" height="13.39" fill="#231f20"/>
  <rect x="273.51" y="621.35" width="13.39" height="13.39" fill="#231f20"/>
  <rect x="273.51" y="663.35" width="13.39" height="13.39" fill="#231f20"/>
  <rect x="273.51" y="706.74" width="13.39" height="13.39" fill="#231f20"/>
  <rect x="273.51" y="749.43" width="13.39" height="13.39" fill="#231f20"/>
  <rect x="273.51" y="792.82" width="13.39" height="13.39" fill="#231f20"/>
  <rect x="318.16" y="577.96" width="13.39" height="13.39" fill="#231f20"/>
  <rect x="318.16" y="621.35" width="13.39" height="13.39" fill="#231f20"/>
  <rect x="318.16" y="663.35" width="13.39" height="13.39" fill="#231f20"/>
  <rect x="318.16" y="706.74" width="13.39" height="13.39" fill="#231f20"/>
  <rect x="318.16" y="749.43" width="13.39" height="13.39" fill="#231f20"/>
  <rect x="318.16" y="792.82" width="13.39" height="13.39" fill="#231f20"/>
  <rect x="228.87" y="401.42" width="13.39" height="13.39" fill="#231f20"/>
  <rect x="228.87" y="444.81" width="13.39" height="13.39" fill="#231f20"/>
  <rect x="228.87" y="487.49" width="13.39" height="13.39" fill="#231f20"/>
  <rect x="228.87" y="530.88" width="13.39" height="13.39" fill="#231f20"/>
  <rect x="273.51" y="401.42" width="13.39" height="13.39" fill="#231f20"/>
  <rect x="273.51" y="444.81" width="13.39" height="13.39" fill="#231f20"/>
  <rect x="273.51" y="487.49" width="13.39" height="13.39" fill="#231f20"/>
  <rect x="273.51" y="530.88" width="13.39" height="13.39" fill="#231f20"/>
  <rect x="318.16" y="487.49" width="13.39" height="13.39" fill="#231f20"/>
  <rect x="318.16" y="530.88" width="13.39" height="13.39" fill="#231f20"/>
  <rect x="60.11" y="317.27" width="13.39" height="13.39" fill="#231f20"/>
  <rect x="59.81" y="360.96" width="13.39" height="13.39" fill="#231f20"/>
  <rect x="102.78" y="317.27" width="13.39" height="13.39" fill="#231f20"/>
  <rect x="102.48" y="360.96" width="13.39" height="13.39" fill="#231f20"/>
  <rect x="144.76" y="317.27" width="13.39" height="13.39" fill="#231f20"/>
  <rect x="144.46" y="360.96" width="13.39" height="13.39" fill="#231f20"/>
  <rect x="187.23" y="317.27" width="13.39" height="13.39" fill="#231f20"/>
  <rect x="186.93" y="360.96" width="13.39" height="13.39" fill="#231f20"/>
  <rect x="59.81" y="144" width="13.39" height="13.39" fill="#231f20"/>
  <rect x="59.81" y="186.94" width="13.39" height="13.39" fill="#231f20"/>
  <rect x="59.81" y="229.44" width="13.39" height="13.39" fill="#231f20"/>
  <rect x="59.81" y="273.51" width="13.39" height="13.39" fill="#231f20"/>
  <rect x="13.91" y="401.42" width="13.39" height="13.39" fill="#231f20"/>
  <rect x="13.91" y="444.81" width="13.39" height="13.39" fill="#231f20"/>
  <rect x="13.91" y="487.49" width="13.39" height="13.39" fill="#231f20"/>
  <rect x="13.91" y="530.88" width="13.39" height="13.39" fill="#231f20"/>
  <rect x="14.21" y="317.27" width="13.39" height="13.39" fill="#231f20"/>
  <rect x="13.91" y="360.96" width="13.39" height="13.39" fill="#231f20"/>
  <rect x="13.91" y="144" width="13.39" height="13.39" fill="#231f20"/>
  <rect x="13.91" y="186.94" width="13.39" height="13.39" fill="#231f20"/>
  <rect x="13.91" y="229.44" width="13.39" height="13.39" fill="#231f20"/>
  <rect x="13.91" y="273.51" width="13.39" height="13.39" fill="#231f20"/>
  <rect x="102.48" y="144" width="13.39" height="13.39" fill="#231f20"/>
  <rect x="102.48" y="186.94" width="13.39" height="13.39" fill="#231f20"/>
  <rect x="102.48" y="229.44" width="13.39" height="13.39" fill="#231f20"/>
  <rect x="102.48" y="273.51" width="13.39" height="13.39" fill="#231f20"/>
  <rect x="144.46" y="144" width="13.39" height="13.39" fill="#231f20"/>
  <rect x="144.46" y="186.94" width="13.39" height="13.39" fill="#231f20"/>
  <rect x="144.46" y="229.44" width="13.39" height="13.39" fill="#231f20"/>
  <rect x="144.46" y="273.51" width="13.39" height="13.39" fill="#231f20"/>
  <rect x="186.93" y="144" width="13.39" height="13.39" fill="#231f20"/>
  <rect x="186.93" y="186.94" width="13.39" height="13.39" fill="#231f20"/>
  <rect x="186.93" y="229.44" width="13.39" height="13.39" fill="#231f20"/>
  <rect x="186.93" y="273.51" width="13.39" height="13.39" fill="#231f20"/>
  <rect x="229.17" y="317.27" width="13.39" height="13.39" fill="#231f20"/>
  <rect x="228.87" y="360.96" width="13.39" height="13.39" fill="#231f20"/>
  <rect x="273.81" y="317.27" width="13.39" height="13.39" fill="#231f20"/>
  <rect x="273.51" y="360.96" width="13.39" height="13.39" fill="#231f20"/>
  <rect x="228.87" y="144" width="13.39" height="13.39" fill="#231f20"/>
  <rect x="228.87" y="186.94" width="13.39" height="13.39" fill="#231f20"/>
  <rect x="228.87" y="229.44" width="13.39" height="13.39" fill="#231f20"/>
  <rect x="228.87" y="273.51" width="13.39" height="13.39" fill="#231f20"/>
  <rect x="273.51" y="144" width="13.39" height="13.39" fill="#231f20"/>
  <rect x="273.51" y="186.94" width="13.39" height="13.39" fill="#231f20"/>
  <rect x="273.51" y="229.44" width="13.39" height="13.39" fill="#231f20"/>
  <rect x="59.81" y="14.72" width="13.39" height="13.39" fill="#231f20"/>
  <rect x="59.81" y="57.66" width="13.39" height="13.39" fill="#231f20"/>
  <rect x="59.81" y="100.17" width="13.39" height="13.39" fill="#231f20"/>
  <rect x="13.91" y="14.72" width="13.39" height="13.39" fill="#231f20"/>
  <rect x="13.91" y="57.66" width="13.39" height="13.39" fill="#231f20"/>
  <rect x="13.91" y="100.17" width="13.39" height="13.39" fill="#231f20"/>
  <rect x="102.48" y="14.72" width="13.39" height="13.39" fill="#231f20"/>
  <rect x="102.48" y="57.66" width="13.39" height="13.39" fill="#231f20"/>
  <rect x="102.48" y="100.17" width="13.39" height="13.39" fill="#231f20"/>
  <rect x="144.46" y="14.72" width="13.39" height="13.39" fill="#231f20"/>
  <rect x="144.46" y="57.66" width="13.39" height="13.39" fill="#231f20"/>
  <rect x="144.46" y="100.17" width="13.39" height="13.39" fill="#231f20"/>
  <rect x="186.93" y="14.72" width="13.39" height="13.39" fill="#231f20"/>
  <rect x="186.93" y="57.66" width="13.39" height="13.39" fill="#231f20"/>
  <rect x="186.93" y="100.17" width="13.39" height="13.39" fill="#231f20"/>
  <rect x="228.87" y="14.72" width="13.39" height="13.39" fill="#231f20"/>
  <rect x="228.87" y="57.66" width="13.39" height="13.39" fill="#231f20"/>
  <rect x="228.87" y="100.17" width="13.39" height="13.39" fill="#231f20"/>
  <rect x="273.51" y="14.72" width="13.39" height="13.39" fill="#231f20"/>
  <rect x="273.51" y="57.66" width="13.39" height="13.39" fill="#231f20"/>
  <rect x="273.51" y="100.17" width="13.39" height="13.39" fill="#231f20"/>
  <rect x="273.51" y="273.51" width="13.39" height="13.39" fill="#231f20"/>
  <rect x="664.1" y="576.79" width="13.39" height="13.39" fill="#231f20"/>
  <rect x="664.1" y="620.17" width="13.39" height="13.39" fill="#231f20"/>
  <rect x="664.1" y="662.18" width="13.39" height="13.39" fill="#231f20"/>
  <rect x="664.1" y="705.57" width="13.39" height="13.39" fill="#231f20"/>
  <rect x="664.1" y="748.25" width="13.39" height="13.39" fill="#231f20"/>
  <rect x="664.1" y="791.64" width="13.39" height="13.39" fill="#231f20"/>
  <rect x="664.1" y="317.59" width="13.39" height="13.39" fill="#231f20"/>
  <rect x="664.1" y="360.97" width="13.39" height="13.39" fill="#231f20"/>
  <rect x="664.1" y="402.98" width="13.39" height="13.39" fill="#231f20"/>
  <rect x="576.15" y="187.88" width="13.39" height="13.39" fill="#231f20"/>
  <rect x="576.15" y="231.27" width="13.39" height="13.39" fill="#231f20"/>
  <rect x="576.15" y="273.28" width="13.39" height="13.39" fill="#231f20"/>
  <rect x="620.8" y="187.88" width="13.39" height="13.39" fill="#231f20"/>
  <rect x="620.8" y="231.27" width="13.39" height="13.39" fill="#231f20"/>
  <rect x="620.8" y="273.28" width="13.39" height="13.39" fill="#231f20"/>
  <rect x="576.15" y="58.22" width="13.39" height="13.39" fill="#231f20"/>
  <rect x="576.15" y="101.6" width="13.39" height="13.39" fill="#231f20"/>
  <rect x="576.15" y="143.61" width="13.39" height="13.39" fill="#231f20"/>
  <rect x="620.8" y="58.22" width="13.39" height="13.39" fill="#231f20"/>
  <rect x="576.15" y="14.82" width="13.39" height="13.39" fill="#231f20"/>
  <rect x="620.8" y="14.82" width="13.39" height="13.39" fill="#231f20"/>
  <rect x="620.8" y="101.6" width="13.39" height="13.39" fill="#231f20"/>
  <rect x="620.8" y="143.61" width="13.39" height="13.39" fill="#231f20"/>
  <rect x="664.1" y="187.88" width="13.39" height="13.39" fill="#231f20"/>
  <rect x="664.1" y="231.27" width="13.39" height="13.39" fill="#231f20"/>
  <rect x="664.1" y="273.28" width="13.39" height="13.39" fill="#231f20"/>
  <rect x="664.1" y="446.37" width="13.39" height="13.39" fill="#231f20"/>
  <rect x="664.1" y="489.05" width="13.39" height="13.39" fill="#231f20"/>
  <rect x="664.1" y="532.44" width="13.39" height="13.39" fill="#231f20"/>
</svg>