<?xml version="1.0" encoding="UTF-8"?>
<svg id="_8" data-name="8" xmlns="http://www.w3.org/2000/svg" viewBox="0 0 1080 1080">
  <rect x="476.74" y="950.45" width="40.84" height="40.84" fill="#231f20"/>
  <rect x="519.95" y="950.45" width="40.84" height="40.84" fill="#231f20"/>
  <rect x="563.16" y="950.45" width="40.84" height="40.84" fill="#231f20"/>
  <rect x="606.42" y="950.76" width="40.84" height="40.84" fill="#231f20"/>
  <rect x="606.38" y="994.01" width="40.84" height="40.84" fill="#231f20"/>
  <rect x="649.68" y="994.01" width="40.84" height="40.84" fill="#231f20"/>
  <rect x="649.68" y="1037.27" width="40.84" height="40.84" fill="#231f20"/>
  <rect x="433.53" y="994.01" width="40.84" height="40.84" fill="#231f20"/>
  <rect x="476.74" y="994.01" width="40.84" height="40.84" fill="#231f20"/>
  <rect x="476.57" y="216.35" width="40.84" height="40.84" transform="translate(260.22 733.75) rotate(-90)" fill="#231f20"/>
  <rect x="476.57" y="173.13" width="40.84" height="40.84" transform="translate(303.43 690.54) rotate(-90)" fill="#231f20"/>
  <rect x="476.57" y="129.92" width="40.84" height="40.84" transform="translate(346.65 647.32) rotate(-90)" fill="#231f20"/>
  <rect x="476.88" y="86.66" width="40.84" height="40.84" transform="translate(390.22 604.38) rotate(-90)" fill="#231f20"/>
  <rect x="476.88" y="43.03" width="40.84" height="40.84" transform="translate(433.85 560.75) rotate(-90)" fill="#231f20"/>
  <rect x="865.45" y="86.53" width="40.84" height="40.84" transform="translate(778.92 992.81) rotate(-90)" fill="#231f20"/>
  <rect x="822.6" y="86.53" width="40.84" height="40.84" transform="translate(736.07 949.96) rotate(-90)" fill="#231f20"/>
  <rect x="779.21" y="86.53" width="40.84" height="40.84" transform="translate(692.68 906.57) rotate(-90)" fill="#231f20"/>
  <rect x="994.98" y="86.53" width="40.84" height="40.84" transform="translate(908.46 1122.35) rotate(-90)" fill="#231f20"/>
  <rect x="952.13" y="86.53" width="40.84" height="40.84" transform="translate(865.61 1079.5) rotate(-90)" fill="#231f20"/>
  <rect x="908.74" y="86.53" width="40.84" height="40.84" transform="translate(822.22 1036.11) rotate(-90)" fill="#231f20"/>
  <rect x="865.45" y=".68" width="40.84" height="40.84" transform="translate(864.77 906.97) rotate(-90)" fill="#231f20"/>
  <rect x="822.6" y=".68" width="40.84" height="40.84" transform="translate(821.92 864.12) rotate(-90)" fill="#231f20"/>
  <rect x="779.21" y=".68" width="40.84" height="40.84" transform="translate(778.53 820.73) rotate(-90)" fill="#231f20"/>
  <rect x="994.98" y=".68" width="40.84" height="40.84" transform="translate(994.3 1036.51) rotate(-90)" fill="#231f20"/>
  <rect x="952.13" y=".68" width="40.84" height="40.84" transform="translate(951.45 993.65) rotate(-90)" fill="#231f20"/>
  <rect x="908.74" y=".68" width="40.84" height="40.84" transform="translate(908.06 950.27) rotate(-90)" fill="#231f20"/>
  <rect x="87.9" y=".68" width="40.84" height="40.84" transform="translate(87.22 129.42) rotate(-90)" fill="#231f20"/>
  <rect x="45.05" y=".68" width="40.84" height="40.84" transform="translate(44.37 86.57) rotate(-90)" fill="#231f20"/>
  <rect x="1.66" y=".68" width="40.84" height="40.84" transform="translate(.98 43.18) rotate(-90)" fill="#231f20"/>
  <rect x="1.66" y="43.67" width="40.84" height="40.84" transform="translate(-42.01 86.17) rotate(-90)" fill="#231f20"/>
  <rect x="174.59" y=".68" width="40.84" height="40.84" transform="translate(173.91 216.11) rotate(-90)" fill="#231f20"/>
  <rect x="131.2" y=".68" width="40.84" height="40.84" transform="translate(130.52 172.72) rotate(-90)" fill="#231f20"/>
  <rect x="433.39" y="173.13" width="40.84" height="40.84" transform="translate(260.26 647.36) rotate(-90)" fill="#231f20"/>
  <rect x="433.53" y="1036.86" width="40.84" height="40.84" fill="#231f20"/>
  <rect x="534.44" y="921.34" width="13.39" height="13.39" fill="#231f20"/>
  <rect x="490.46" y="921.34" width="13.39" height="13.39" fill="#231f20"/>
  <rect x="447.66" y="964.48" width="13.39" height="13.39" fill="#231f20"/>
  <rect x="404.48" y="964.48" width="13.39" height="13.39" fill="#231f20"/>
  <rect x="404.48" y="1051.26" width="13.39" height="13.39" fill="#231f20"/>
  <rect x="359.71" y="1051.26" width="13.39" height="13.39" fill="#231f20"/>
  <rect x="404.48" y="1007" width="13.39" height="13.39" fill="#231f20"/>
  <rect x="359.71" y="964.48" width="13.39" height="13.39" fill="#231f20"/>
  <rect x="359.71" y="1007" width="13.39" height="13.39" fill="#231f20"/>
  <rect x="534.44" y="877.95" width="13.39" height="13.39" fill="#231f20"/>
  <rect x="490.46" y="877.95" width="13.39" height="13.39" fill="#231f20"/>
  <rect x="620.46" y="921.34" width="13.39" height="13.39" fill="#231f20"/>
  <rect x="620.46" y="1051.26" width="13.39" height="13.39" fill="#231f20"/>
  <rect x="576.49" y="921.34" width="13.39" height="13.39" fill="#231f20"/>
  <rect x="620.46" y="877.95" width="13.39" height="13.39" fill="#231f20"/>
  <rect x="576.49" y="877.95" width="13.39" height="13.39" fill="#231f20"/>
  <rect x="534.44" y="834.92" width="13.39" height="13.39" fill="#231f20"/>
  <rect x="490.46" y="834.92" width="13.39" height="13.39" fill="#231f20"/>
  <rect x="534.44" y="791.53" width="13.39" height="13.39" fill="#231f20"/>
  <rect x="490.46" y="791.53" width="13.39" height="13.39" fill="#231f20"/>
  <rect x="447.66" y="921.34" width="13.39" height="13.39" fill="#231f20"/>
  <rect x="447.66" y="877.95" width="13.39" height="13.39" fill="#231f20"/>
  <rect x="447.66" y="834.92" width="13.39" height="13.39" fill="#231f20"/>
  <rect x="447.66" y="791.53" width="13.39" height="13.39" fill="#231f20"/>
  <rect x="404.48" y="921.34" width="13.39" height="13.39" fill="#231f20"/>
  <rect x="404.48" y="877.95" width="13.39" height="13.39" fill="#231f20"/>
  <rect x="359.8" y="921.34" width="13.39" height="13.39" fill="#231f20"/>
  <rect x="359.8" y="877.95" width="13.39" height="13.39" fill="#231f20"/>
  <rect x="404.48" y="834.92" width="13.39" height="13.39" fill="#231f20"/>
  <rect x="404.48" y="791.53" width="13.39" height="13.39" fill="#231f20"/>
  <rect x="620.46" y="834.92" width="13.39" height="13.39" fill="#231f20"/>
  <rect x="576.49" y="834.92" width="13.39" height="13.39" fill="#231f20"/>
  <rect x="620.46" y="791.53" width="13.39" height="13.39" fill="#231f20"/>
  <rect x="576.49" y="791.53" width="13.39" height="13.39" fill="#231f20"/>
  <rect x="706.86" y="921.34" width="13.39" height="13.39" fill="#231f20"/>
  <rect x="706.86" y="964.17" width="13.39" height="13.39" fill="#231f20"/>
  <rect x="662.89" y="921.34" width="13.39" height="13.39" fill="#231f20"/>
  <rect x="662.89" y="964.17" width="13.39" height="13.39" fill="#231f20"/>
  <rect x="706.86" y="877.95" width="13.39" height="13.39" fill="#231f20"/>
  <rect x="662.89" y="877.95" width="13.39" height="13.39" fill="#231f20"/>
  <rect x="706.86" y="834.92" width="13.39" height="13.39" fill="#231f20"/>
  <rect x="751.49" y="877.95" width="13.39" height="13.39" fill="#231f20"/>
  <rect x="751.49" y="834.92" width="13.39" height="13.39" fill="#231f20"/>
  <rect x="662.89" y="834.92" width="13.39" height="13.39" fill="#231f20"/>
  <rect x="706.86" y="791.53" width="13.39" height="13.39" fill="#231f20"/>
  <rect x="662.89" y="791.53" width="13.39" height="13.39" fill="#231f20"/>
  <rect x="620.46" y="748.14" width="13.39" height="13.39" fill="#231f20"/>
  <rect x="706.86" y="748.14" width="13.39" height="13.39" fill="#231f20"/>
  <rect x="662.89" y="748.14" width="13.39" height="13.39" fill="#231f20"/>
  <rect x="491.59" y="748.14" width="13.39" height="13.39" fill="#231f20"/>
  <rect x="577.99" y="748.14" width="13.39" height="13.39" fill="#231f20"/>
  <rect x="534.02" y="748.14" width="13.39" height="13.39" fill="#231f20"/>
  <rect x="534.44" y="704.75" width="13.39" height="13.39" fill="#231f20"/>
  <rect x="534.44" y="661.36" width="13.39" height="13.39" fill="#231f20"/>
  <rect x="534.02" y="617.97" width="13.39" height="13.39" fill="#231f20"/>
  <rect x="491.8" y="704.75" width="13.39" height="13.39" fill="#231f20"/>
  <rect x="491.8" y="661.36" width="13.39" height="13.39" fill="#231f20"/>
  <rect x="448.14" y="661.36" width="13.39" height="13.39" fill="#231f20"/>
  <rect x="448.14" y="704.75" width="13.39" height="13.39" fill="#231f20"/>
  <rect x="491.39" y="617.97" width="13.39" height="13.39" fill="#231f20"/>
  <rect x="534.44" y="576.69" width="13.39" height="13.39" fill="#231f20"/>
  <rect x="534.44" y="533.3" width="13.39" height="13.39" fill="#231f20"/>
  <rect x="534.02" y="489.91" width="13.39" height="13.39" fill="#231f20"/>
  <rect x="491.8" y="576.69" width="13.39" height="13.39" fill="#231f20"/>
  <rect x="491.8" y="533.3" width="13.39" height="13.39" fill="#231f20"/>
  <rect x="448.14" y="576.69" width="13.39" height="13.39" fill="#231f20"/>
  <rect x="448.14" y="533.3" width="13.39" height="13.39" fill="#231f20"/>
  <rect x="404.48" y="704.75" width="13.39" height="13.39" fill="#231f20"/>
  <rect x="404.48" y="661.36" width="13.39" height="13.39" fill="#231f20"/>
  <rect x="404.48" y="617.97" width="13.39" height="13.39" fill="#231f20"/>
  <rect x="404.48" y="576.69" width="13.39" height="13.39" fill="#231f20"/>
  <rect x="404.48" y="533.3" width="13.39" height="13.39" fill="#231f20"/>
  <rect x="491.39" y="489.91" width="13.39" height="13.39" fill="#231f20"/>
  <rect x="534.02" y="445.26" width="13.39" height="13.39" fill="#231f20"/>
  <rect x="491.39" y="445.26" width="13.39" height="13.39" fill="#231f20"/>
  <rect x="534.44" y="403.97" width="13.39" height="13.39" fill="#231f20"/>
  <rect x="534.44" y="360.58" width="13.39" height="13.39" fill="#231f20"/>
  <rect x="534.02" y="317.2" width="13.39" height="13.39" fill="#231f20"/>
  <rect x="491.8" y="403.97" width="13.39" height="13.39" fill="#231f20"/>
  <rect x="491.8" y="360.58" width="13.39" height="13.39" fill="#231f20"/>
  <rect x="446.7" y="360.58" width="13.39" height="13.39" fill="#231f20"/>
  <rect x="491.39" y="317.2" width="13.39" height="13.39" fill="#231f20"/>
  <rect x="404.27" y="489.91" width="13.39" height="13.39" fill="#231f20"/>
  <rect x="404.27" y="445.26" width="13.39" height="13.39" fill="#231f20"/>
  <rect x="404.68" y="403.97" width="13.39" height="13.39" fill="#231f20"/>
  <rect x="404.68" y="360.58" width="13.39" height="13.39" fill="#231f20"/>
  <rect x="404.27" y="317.2" width="13.39" height="13.39" fill="#231f20"/>
  <rect x="620" y="704.75" width="13.39" height="13.39" fill="#231f20"/>
  <rect x="620" y="661.36" width="13.39" height="13.39" fill="#231f20"/>
  <rect x="619.58" y="617.97" width="13.39" height="13.39" fill="#231f20"/>
  <rect x="577.37" y="704.75" width="13.39" height="13.39" fill="#231f20"/>
  <rect x="577.37" y="661.36" width="13.39" height="13.39" fill="#231f20"/>
  <rect x="576.95" y="617.97" width="13.39" height="13.39" fill="#231f20"/>
  <rect x="620" y="576.69" width="13.39" height="13.39" fill="#231f20"/>
  <rect x="620" y="533.3" width="13.39" height="13.39" fill="#231f20"/>
  <rect x="619.58" y="489.91" width="13.39" height="13.39" fill="#231f20"/>
  <rect x="577.37" y="576.69" width="13.39" height="13.39" fill="#231f20"/>
  <rect x="577.37" y="533.3" width="13.39" height="13.39" fill="#231f20"/>
  <rect x="576.95" y="489.91" width="13.39" height="13.39" fill="#231f20"/>
  <rect x="619.58" y="445.26" width="13.39" height="13.39" fill="#231f20"/>
  <rect x="576.95" y="445.26" width="13.39" height="13.39" fill="#231f20"/>
  <rect x="620" y="403.97" width="13.39" height="13.39" fill="#231f20"/>
  <rect x="620" y="360.58" width="13.39" height="13.39" fill="#231f20"/>
  <rect x="619.58" y="317.2" width="13.39" height="13.39" fill="#231f20"/>
  <rect x="577.37" y="403.97" width="13.39" height="13.39" fill="#231f20"/>
  <rect x="577.37" y="360.58" width="13.39" height="13.39" fill="#231f20"/>
  <rect x="576.95" y="317.2" width="13.39" height="13.39" fill="#231f20"/>
  <rect x="706.4" y="704.75" width="13.39" height="13.39" fill="#231f20"/>
  <rect x="751.49" y="748.14" width="13.39" height="13.39" fill="#231f20"/>
  <rect x="751.03" y="704.75" width="13.39" height="13.39" fill="#231f20"/>
  <rect x="706.4" y="661.36" width="13.39" height="13.39" fill="#231f20"/>
  <rect x="705.98" y="617.97" width="13.39" height="13.39" fill="#231f20"/>
  <rect x="750.84" y="661.36" width="13.39" height="13.39" fill="#231f20"/>
  <rect x="750.42" y="617.97" width="13.39" height="13.39" fill="#231f20"/>
  <rect x="663.77" y="704.75" width="13.39" height="13.39" fill="#231f20"/>
  <rect x="663.77" y="661.36" width="13.39" height="13.39" fill="#231f20"/>
  <rect x="663.35" y="617.97" width="13.39" height="13.39" fill="#231f20"/>
  <rect x="706.4" y="576.69" width="13.39" height="13.39" fill="#231f20"/>
  <rect x="706.4" y="533.3" width="13.39" height="13.39" fill="#231f20"/>
  <rect x="705.98" y="489.91" width="13.39" height="13.39" fill="#231f20"/>
  <rect x="663.77" y="576.69" width="13.39" height="13.39" fill="#231f20"/>
  <rect x="663.77" y="533.3" width="13.39" height="13.39" fill="#231f20"/>
  <rect x="663.35" y="489.91" width="13.39" height="13.39" fill="#231f20"/>
  <rect x="705.98" y="445.26" width="13.39" height="13.39" fill="#231f20"/>
  <rect x="751.05" y="533.3" width="13.39" height="13.39" fill="#231f20"/>
  <rect x="750.63" y="489.91" width="13.39" height="13.39" fill="#231f20"/>
  <rect x="750.63" y="445.26" width="13.39" height="13.39" fill="#231f20"/>
  <rect x="663.35" y="445.26" width="13.39" height="13.39" fill="#231f20"/>
  <rect x="706.4" y="403.97" width="13.39" height="13.39" fill="#231f20"/>
  <rect x="706.4" y="360.58" width="13.39" height="13.39" fill="#231f20"/>
  <rect x="705.98" y="317.2" width="13.39" height="13.39" fill="#231f20"/>
  <rect x="751.26" y="360.58" width="13.39" height="13.39" fill="#231f20"/>
  <rect x="750.84" y="317.2" width="13.39" height="13.39" fill="#231f20"/>
  <rect x="663.77" y="403.97" width="13.39" height="13.39" fill="#231f20"/>
  <rect x="663.77" y="360.58" width="13.39" height="13.39" fill="#231f20"/>
  <rect x="663.35" y="317.2" width="13.39" height="13.39" fill="#231f20"/>
  <rect x="534.02" y="273.81" width="13.39" height="13.39" fill="#231f20"/>
  <rect x="491.39" y="273.81" width="13.39" height="13.39" fill="#231f20"/>
  <rect x="446.9" y="273.81" width="13.39" height="13.39" fill="#231f20"/>
  <rect x="404.27" y="273.81" width="13.39" height="13.39" fill="#231f20"/>
  <rect x="404.68" y="230.31" width="13.39" height="13.39" fill="#231f20"/>
  <rect x="446.7" y="230.31" width="13.39" height="13.39" fill="#231f20"/>
  <rect x="404.68" y="186.92" width="13.39" height="13.39" fill="#231f20"/>
  <rect x="404.27" y="143.53" width="13.39" height="13.39" fill="#231f20"/>
  <rect x="361.84" y="230.31" width="13.39" height="13.39" fill="#231f20"/>
  <rect x="361.84" y="186.92" width="13.39" height="13.39" fill="#231f20"/>
  <rect x="361.42" y="143.53" width="13.39" height="13.39" fill="#231f20"/>
  <rect x="404.27" y="100.14" width="13.39" height="13.39" fill="#231f20"/>
  <rect x="447.11" y="143.53" width="13.39" height="13.39" fill="#231f20"/>
  <rect x="446.7" y="100.14" width="13.39" height="13.39" fill="#231f20"/>
  <rect x="446.7" y="56.75" width="13.39" height="13.39" fill="#231f20"/>
  <rect x="404.68" y="56.75" width="13.39" height="13.39" fill="#231f20"/>
  <rect x="446.7" y="13.36" width="13.39" height="13.39" fill="#231f20"/>
  <rect x="404.68" y="13.36" width="13.39" height="13.39" fill="#231f20"/>
  <rect x="361" y="100.14" width="13.39" height="13.39" fill="#231f20"/>
  <rect x="361.42" y="56.75" width="13.39" height="13.39" fill="#231f20"/>
  <rect x="361.42" y="13.36" width="13.39" height="13.39" fill="#231f20"/>
  <rect x="319.85" y="100.14" width="13.39" height="13.39" fill="#231f20"/>
  <rect x="100.19" y="100.14" width="13.39" height="13.39" fill="#231f20"/>
  <rect x="142.62" y="100.14" width="13.39" height="13.39" fill="#231f20"/>
  <rect x="56.92" y="100.14" width="13.39" height="13.39" fill="#231f20"/>
  <rect x="15.77" y="100.14" width="13.39" height="13.39" fill="#231f20"/>
  <rect x="143.04" y="57.39" width="13.39" height="13.39" fill="#231f20"/>
  <rect x="185.47" y="57.39" width="13.39" height="13.39" fill="#231f20"/>
  <rect x="185.47" y="100.14" width="13.39" height="13.39" fill="#231f20"/>
  <rect x="231.45" y="57.39" width="13.39" height="13.39" fill="#231f20"/>
  <rect x="231.45" y="100.14" width="13.39" height="13.39" fill="#231f20"/>
  <rect x="100.19" y="186.92" width="13.39" height="13.39" fill="#231f20"/>
  <rect x="142.62" y="186.92" width="13.39" height="13.39" fill="#231f20"/>
  <rect x="56.92" y="186.92" width="13.39" height="13.39" fill="#231f20"/>
  <rect x="15.77" y="186.92" width="13.39" height="13.39" fill="#231f20"/>
  <rect x="185.47" y="186.92" width="13.39" height="13.39" fill="#231f20"/>
  <rect x="231.45" y="186.92" width="13.39" height="13.39" fill="#231f20"/>
  <rect x="100.19" y="273.81" width="13.39" height="13.39" fill="#231f20"/>
  <rect x="142.62" y="273.81" width="13.39" height="13.39" fill="#231f20"/>
  <rect x="56.92" y="273.81" width="13.39" height="13.39" fill="#231f20"/>
  <rect x="15.77" y="273.81" width="13.39" height="13.39" fill="#231f20"/>
  <rect x="185.47" y="273.81" width="13.39" height="13.39" fill="#231f20"/>
  <rect x="231.45" y="273.81" width="13.39" height="13.39" fill="#231f20"/>
  <rect x="100.19" y="316.84" width="13.39" height="13.39" fill="#231f20"/>
  <rect x="142.62" y="316.84" width="13.39" height="13.39" fill="#231f20"/>
  <rect x="56.92" y="316.84" width="13.39" height="13.39" fill="#231f20"/>
  <rect x="15.77" y="316.84" width="13.39" height="13.39" fill="#231f20"/>
  <rect x="185.47" y="316.84" width="13.39" height="13.39" fill="#231f20"/>
  <rect x="231.45" y="316.84" width="13.39" height="13.39" fill="#231f20"/>
  <rect x="100.19" y="575.71" width="13.39" height="13.39" fill="#231f20"/>
  <rect x="142.62" y="575.71" width="13.39" height="13.39" fill="#231f20"/>
  <rect x="56.92" y="575.71" width="13.39" height="13.39" fill="#231f20"/>
  <rect x="15.77" y="575.71" width="13.39" height="13.39" fill="#231f20"/>
  <rect x="185.47" y="575.71" width="13.39" height="13.39" fill="#231f20"/>
  <rect x="231.45" y="575.71" width="13.39" height="13.39" fill="#231f20"/>
  <rect x="100.19" y="618.74" width="13.39" height="13.39" fill="#231f20"/>
  <rect x="142.62" y="618.74" width="13.39" height="13.39" fill="#231f20"/>
  <rect x="56.92" y="618.74" width="13.39" height="13.39" fill="#231f20"/>
  <rect x="15.77" y="618.74" width="13.39" height="13.39" fill="#231f20"/>
  <rect x="100.19" y="661.77" width="13.39" height="13.39" fill="#231f20"/>
  <rect x="142.62" y="661.77" width="13.39" height="13.39" fill="#231f20"/>
  <rect x="56.92" y="661.77" width="13.39" height="13.39" fill="#231f20"/>
  <rect x="15.77" y="661.77" width="13.39" height="13.39" fill="#231f20"/>
  <rect x="100.19" y="704.8" width="13.39" height="13.39" fill="#231f20"/>
  <rect x="142.62" y="704.8" width="13.39" height="13.39" fill="#231f20"/>
  <rect x="56.92" y="704.8" width="13.39" height="13.39" fill="#231f20"/>
  <rect x="15.77" y="704.8" width="13.39" height="13.39" fill="#231f20"/>
  <rect x="100.19" y="748.51" width="13.39" height="13.39" fill="#231f20"/>
  <rect x="142.62" y="748.51" width="13.39" height="13.39" fill="#231f20"/>
  <rect x="56.92" y="748.51" width="13.39" height="13.39" fill="#231f20"/>
  <rect x="15.77" y="748.51" width="13.39" height="13.39" fill="#231f20"/>
  <rect x="100.19" y="791.54" width="13.39" height="13.39" fill="#231f20"/>
  <rect x="142.62" y="791.54" width="13.39" height="13.39" fill="#231f20"/>
  <rect x="56.92" y="791.54" width="13.39" height="13.39" fill="#231f20"/>
  <rect x="15.77" y="791.54" width="13.39" height="13.39" fill="#231f20"/>
  <rect x="273.87" y="748.51" width="13.39" height="13.39" fill="#231f20"/>
  <rect x="316.3" y="748.51" width="13.39" height="13.39" fill="#231f20"/>
  <rect x="230.6" y="748.51" width="13.39" height="13.39" fill="#231f20"/>
  <rect x="189.45" y="748.51" width="13.39" height="13.39" fill="#231f20"/>
  <rect x="273.87" y="791.54" width="13.39" height="13.39" fill="#231f20"/>
  <rect x="316.3" y="791.54" width="13.39" height="13.39" fill="#231f20"/>
  <rect x="230.6" y="791.54" width="13.39" height="13.39" fill="#231f20"/>
  <rect x="189.45" y="791.54" width="13.39" height="13.39" fill="#231f20"/>
  <rect x="100.19" y="921.34" width="13.39" height="13.39" fill="#231f20"/>
  <rect x="142.62" y="921.34" width="13.39" height="13.39" fill="#231f20"/>
  <rect x="56.92" y="921.34" width="13.39" height="13.39" fill="#231f20"/>
  <rect x="15.77" y="921.34" width="13.39" height="13.39" fill="#231f20"/>
  <rect x="273.87" y="921.34" width="13.39" height="13.39" fill="#231f20"/>
  <rect x="316.3" y="921.34" width="13.39" height="13.39" fill="#231f20"/>
  <rect x="230.6" y="921.34" width="13.39" height="13.39" fill="#231f20"/>
  <rect x="189.45" y="921.34" width="13.39" height="13.39" fill="#231f20"/>
  <rect x="185.47" y="618.74" width="13.39" height="13.39" fill="#231f20"/>
  <rect x="100.19" y="489.3" width="13.39" height="13.39" fill="#231f20"/>
  <rect x="142.62" y="489.3" width="13.39" height="13.39" fill="#231f20"/>
  <rect x="56.92" y="489.3" width="13.39" height="13.39" fill="#231f20"/>
  <rect x="185.47" y="489.3" width="13.39" height="13.39" fill="#231f20"/>
  <rect x="100.19" y="532.33" width="13.39" height="13.39" fill="#231f20"/>
  <rect x="142.62" y="532.33" width="13.39" height="13.39" fill="#231f20"/>
  <rect x="100.19" y="402.91" width="13.39" height="13.39" fill="#231f20"/>
  <rect x="142.62" y="402.91" width="13.39" height="13.39" fill="#231f20"/>
  <rect x="100.19" y="445.94" width="13.39" height="13.39" fill="#231f20"/>
  <rect x="142.62" y="445.94" width="13.39" height="13.39" fill="#231f20"/>
  <rect x="56.92" y="532.33" width="13.39" height="13.39" fill="#231f20"/>
  <rect x="15.77" y="532.33" width="13.39" height="13.39" fill="#231f20"/>
  <rect x="185.47" y="532.33" width="13.39" height="13.39" fill="#231f20"/>
  <rect x="231.45" y="618.74" width="13.39" height="13.39" fill="#231f20"/>
  <rect x="100.19" y="143.53" width="13.39" height="13.39" fill="#231f20"/>
  <rect x="142.62" y="143.53" width="13.39" height="13.39" fill="#231f20"/>
  <rect x="56.92" y="143.53" width="13.39" height="13.39" fill="#231f20"/>
  <rect x="15.77" y="143.53" width="13.39" height="13.39" fill="#231f20"/>
  <rect x="185.47" y="143.53" width="13.39" height="13.39" fill="#231f20"/>
  <rect x="231.45" y="143.53" width="13.39" height="13.39" fill="#231f20"/>
  <rect x="922.01" y="143.47" width="13.39" height="13.39" fill="#231f20"/>
  <rect x="964.44" y="143.47" width="13.39" height="13.39" fill="#231f20"/>
  <rect x="878.75" y="143.47" width="13.39" height="13.39" fill="#231f20"/>
  <rect x="837.6" y="143.47" width="13.39" height="13.39" fill="#231f20"/>
  <rect x="1007.3" y="143.47" width="13.39" height="13.39" fill="#231f20"/>
  <rect x="1053.27" y="143.47" width="13.39" height="13.39" fill="#231f20"/>
  <rect x="922.01" y="230.24" width="13.39" height="13.39" fill="#231f20"/>
  <rect x="964.44" y="230.24" width="13.39" height="13.39" fill="#231f20"/>
  <rect x="878.75" y="230.24" width="13.39" height="13.39" fill="#231f20"/>
  <rect x="837.6" y="230.24" width="13.39" height="13.39" fill="#231f20"/>
  <rect x="1007.3" y="230.24" width="13.39" height="13.39" fill="#231f20"/>
  <rect x="1053.27" y="230.24" width="13.39" height="13.39" fill="#231f20"/>
  <rect x="922.01" y="186.86" width="13.39" height="13.39" fill="#231f20"/>
  <rect x="964.44" y="186.86" width="13.39" height="13.39" fill="#231f20"/>
  <rect x="878.75" y="186.86" width="13.39" height="13.39" fill="#231f20"/>
  <rect x="837.6" y="186.86" width="13.39" height="13.39" fill="#231f20"/>
  <rect x="1007.3" y="186.86" width="13.39" height="13.39" fill="#231f20"/>
  <rect x="1053.27" y="186.86" width="13.39" height="13.39" fill="#231f20"/>
  <rect x="922.01" y="625.08" width="13.39" height="13.39" fill="#231f20"/>
  <rect x="964.44" y="625.08" width="13.39" height="13.39" fill="#231f20"/>
  <rect x="878.75" y="625.08" width="13.39" height="13.39" fill="#231f20"/>
  <rect x="837.6" y="625.08" width="13.39" height="13.39" fill="#231f20"/>
  <rect x="1007.3" y="625.08" width="13.39" height="13.39" fill="#231f20"/>
  <rect x="1053.27" y="625.08" width="13.39" height="13.39" fill="#231f20"/>
  <rect x="922.01" y="711.86" width="13.39" height="13.39" fill="#231f20"/>
  <rect x="964.44" y="711.86" width="13.39" height="13.39" fill="#231f20"/>
  <rect x="878.75" y="711.86" width="13.39" height="13.39" fill="#231f20"/>
  <rect x="837.6" y="711.86" width="13.39" height="13.39" fill="#231f20"/>
  <rect x="1007.3" y="711.86" width="13.39" height="13.39" fill="#231f20"/>
  <rect x="1053.27" y="711.86" width="13.39" height="13.39" fill="#231f20"/>
  <rect x="922.01" y="668.47" width="13.39" height="13.39" fill="#231f20"/>
  <rect x="964.44" y="668.47" width="13.39" height="13.39" fill="#231f20"/>
  <rect x="878.75" y="668.47" width="13.39" height="13.39" fill="#231f20"/>
  <rect x="837.6" y="668.47" width="13.39" height="13.39" fill="#231f20"/>
  <rect x="1007.3" y="668.47" width="13.39" height="13.39" fill="#231f20"/>
  <rect x="1053.27" y="668.47" width="13.39" height="13.39" fill="#231f20"/>
  <rect x="922.01" y="922.2" width="13.39" height="13.39" fill="#231f20"/>
  <rect x="964.44" y="922.2" width="13.39" height="13.39" fill="#231f20"/>
  <rect x="878.75" y="922.2" width="13.39" height="13.39" fill="#231f20"/>
  <rect x="837.6" y="922.2" width="13.39" height="13.39" fill="#231f20"/>
  <rect x="1007.3" y="922.2" width="13.39" height="13.39" fill="#231f20"/>
  <rect x="1053.27" y="922.2" width="13.39" height="13.39" fill="#231f20"/>
  <rect x="1053.27" y="834.56" width="13.39" height="13.39" fill="#231f20"/>
  <rect x="99.77" y="57.39" width="13.39" height="13.39" fill="#231f20"/>
  <rect x="58.62" y="57.39" width="13.39" height="13.39" fill="#231f20"/>
  <rect x="320.27" y="56.75" width="13.39" height="13.39" fill="#231f20"/>
  <rect x="320.27" y="13.36" width="13.39" height="13.39" fill="#231f20"/>
  <rect x="619.58" y="273.81" width="13.39" height="13.39" fill="#231f20"/>
  <rect x="576.95" y="273.81" width="13.39" height="13.39" fill="#231f20"/>
  <rect x="705.98" y="273.81" width="13.39" height="13.39" fill="#231f20"/>
  <rect x="750.84" y="273.81" width="13.39" height="13.39" fill="#231f20"/>
  <rect x="663.35" y="273.81" width="13.39" height="13.39" fill="#231f20"/>
  <rect x="705.98" y="230.42" width="13.39" height="13.39" fill="#231f20"/>
  <rect x="750.84" y="230.42" width="13.39" height="13.39" fill="#231f20"/>
  <rect x="663.35" y="230.42" width="13.39" height="13.39" fill="#231f20"/>
  <rect x="705.98" y="187.03" width="13.39" height="13.39" fill="#231f20"/>
  <rect x="750.84" y="187.03" width="13.39" height="13.39" fill="#231f20"/>
  <rect x="663.35" y="187.03" width="13.39" height="13.39" fill="#231f20"/>
  <rect x="705.98" y="143.64" width="13.39" height="13.39" fill="#231f20"/>
  <rect x="750.84" y="143.64" width="13.39" height="13.39" fill="#231f20"/>
  <rect x="663.35" y="143.64" width="13.39" height="13.39" fill="#231f20"/>
  <rect x="705.98" y="100.25" width="13.39" height="13.39" fill="#231f20"/>
  <rect x="750.84" y="100.25" width="13.39" height="13.39" fill="#231f20"/>
  <rect x="750.84" y="56.77" width="13.39" height="13.39" fill="#231f20"/>
  <rect x="663.35" y="100.25" width="13.39" height="13.39" fill="#231f20"/>
  <rect x="620.3" y="230.42" width="13.39" height="13.39" fill="#231f20"/>
  <rect x="577.07" y="230.42" width="13.39" height="13.39" fill="#231f20"/>
  <rect x="620.3" y="187.03" width="13.39" height="13.39" fill="#231f20"/>
  <rect x="577.07" y="187.03" width="13.39" height="13.39" fill="#231f20"/>
  <rect x="620.3" y="143.64" width="13.39" height="13.39" fill="#231f20"/>
  <rect x="576.95" y="143.64" width="13.39" height="13.39" fill="#231f20"/>
  <rect x="576.95" y="100.14" width="13.39" height="13.39" fill="#231f20"/>
  <rect x="534.08" y="230.42" width="13.39" height="13.39" fill="#231f20"/>
  <rect x="534.08" y="187.03" width="13.39" height="13.39" fill="#231f20"/>
  <rect x="533.96" y="143.64" width="13.39" height="13.39" fill="#231f20"/>
  <rect x="533.96" y="100.14" width="13.39" height="13.39" fill="#231f20"/>
  <rect x="620.3" y="100.25" width="13.39" height="13.39" fill="#231f20"/>
  <rect x="705.98" y="56.77" width="13.39" height="13.39" fill="#231f20"/>
  <rect x="663.35" y="56.77" width="13.39" height="13.39" fill="#231f20"/>
  <rect x="576.95" y="56.77" width="13.39" height="13.39" fill="#231f20"/>
  <rect x="533.96" y="56.77" width="13.39" height="13.39" fill="#231f20"/>
  <rect x="620.3" y="56.77" width="13.39" height="13.39" fill="#231f20"/>
  <rect x="1012.58" y="56.77" width="13.39" height="13.39" fill="#231f20"/>
  <rect x="967.72" y="56.77" width="13.39" height="13.39" fill="#231f20"/>
  <rect x="925.09" y="56.77" width="13.39" height="13.39" fill="#231f20"/>
  <rect x="838.69" y="56.77" width="13.39" height="13.39" fill="#231f20"/>
  <rect x="795.7" y="56.77" width="13.39" height="13.39" fill="#231f20"/>
  <rect x="882.04" y="56.77" width="13.39" height="13.39" fill="#231f20"/>
  <rect x="705.98" y="13.6" width="13.39" height="13.39" fill="#231f20"/>
  <rect x="663.35" y="13.6" width="13.39" height="13.39" fill="#231f20"/>
  <rect x="620.3" y="13.6" width="13.39" height="13.39" fill="#231f20"/>
  <rect x="404.48" y="748.14" width="13.39" height="13.39" fill="#231f20"/>
  <rect x="447.66" y="748.14" width="13.39" height="13.39" fill="#231f20"/>
</svg>