<?xml version="1.0" encoding="UTF-8"?>
<svg id="_9" data-name="9" xmlns="http://www.w3.org/2000/svg" viewBox="0 0 1080 1080">
  <rect x="347.1" y="907.02" width="40.84" height="40.84" fill="#231f20"/>
  <rect x="347.1" y="950.14" width="40.84" height="40.84" fill="#231f20"/>
  <rect x="347.1" y="993.35" width="40.84" height="40.84" fill="#231f20"/>
  <rect x="347.1" y="1036.48" width="40.84" height="40.84" fill="#231f20"/>
  <rect x="390.27" y="907.02" width="40.84" height="40.84" fill="#231f20"/>
  <rect x="390.27" y="950.14" width="40.84" height="40.84" fill="#231f20"/>
  <rect x="390.27" y="993.35" width="40.84" height="40.84" fill="#231f20"/>
  <rect x="390.27" y="1036.48" width="40.84" height="40.84" fill="#231f20"/>
  <rect x="433.56" y="907.02" width="40.84" height="40.84" fill="#231f20"/>
  <rect x="433.56" y="950.14" width="40.84" height="40.84" fill="#231f20"/>
  <rect x="433.56" y="993.35" width="40.84" height="40.84" fill="#231f20"/>
  <rect x="433.56" y="1036.48" width="40.84" height="40.84" fill="#231f20"/>
  <rect x="476.74" y="907.02" width="40.84" height="40.84" fill="#231f20"/>
  <rect x="476.74" y="950.14" width="40.84" height="40.84" fill="#231f20"/>
  <rect x="476.74" y="993.35" width="40.84" height="40.84" fill="#231f20"/>
  <rect x="476.74" y="1036.48" width="40.84" height="40.84" fill="#231f20"/>
  <rect x="347.1" y="734.18" width="40.84" height="40.84" fill="#231f20"/>
  <rect x="347.1" y="777.31" width="40.84" height="40.84" fill="#231f20"/>
  <rect x="347.1" y="820.51" width="40.84" height="40.84" fill="#231f20"/>
  <rect x="347.1" y="863.64" width="40.84" height="40.84" fill="#231f20"/>
  <rect x="390.27" y="734.18" width="40.84" height="40.84" fill="#231f20"/>
  <rect x="390.27" y="777.31" width="40.84" height="40.84" fill="#231f20"/>
  <rect x="390.27" y="820.51" width="40.84" height="40.84" fill="#231f20"/>
  <rect x="390.27" y="863.64" width="40.84" height="40.84" fill="#231f20"/>
  <rect x="433.56" y="734.18" width="40.84" height="40.84" fill="#231f20"/>
  <rect x="433.56" y="777.31" width="40.84" height="40.84" fill="#231f20"/>
  <rect x="433.56" y="820.51" width="40.84" height="40.84" fill="#231f20"/>
  <rect x="433.56" y="863.64" width="40.84" height="40.84" fill="#231f20"/>
  <rect x="476.74" y="734.18" width="40.84" height="40.84" fill="#231f20"/>
  <rect x="476.74" y="777.31" width="40.84" height="40.84" fill="#231f20"/>
  <rect x="476.74" y="820.51" width="40.84" height="40.84" fill="#231f20"/>
  <rect x="476.74" y="863.64" width="40.84" height="40.84" fill="#231f20"/>
  <rect x="347.1" y="561.4" width="40.84" height="40.84" fill="#231f20"/>
  <rect x="347.1" y="604.53" width="40.84" height="40.84" fill="#231f20"/>
  <rect x="347.1" y="647.73" width="40.84" height="40.84" fill="#231f20"/>
  <rect x="347.1" y="690.86" width="40.84" height="40.84" fill="#231f20"/>
  <rect x="390.27" y="561.4" width="40.84" height="40.84" fill="#231f20"/>
  <rect x="390.27" y="604.53" width="40.84" height="40.84" fill="#231f20"/>
  <rect x="390.27" y="647.73" width="40.84" height="40.84" fill="#231f20"/>
  <rect x="390.27" y="690.86" width="40.84" height="40.84" fill="#231f20"/>
  <rect x="433.56" y="561.4" width="40.84" height="40.84" fill="#231f20"/>
  <rect x="433.56" y="604.53" width="40.84" height="40.84" fill="#231f20"/>
  <rect x="433.56" y="647.73" width="40.84" height="40.84" fill="#231f20"/>
  <rect x="433.56" y="690.86" width="40.84" height="40.84" fill="#231f20"/>
  <rect x="476.74" y="561.4" width="40.84" height="40.84" fill="#231f20"/>
  <rect x="476.74" y="604.53" width="40.84" height="40.84" fill="#231f20"/>
  <rect x="476.74" y="647.73" width="40.84" height="40.84" fill="#231f20"/>
  <rect x="476.74" y="690.86" width="40.84" height="40.84" fill="#231f20"/>
  <rect x="347.1" y="388.56" width="40.84" height="40.84" fill="#231f20"/>
  <rect x="347.1" y="431.69" width="40.84" height="40.84" fill="#231f20"/>
  <rect x="347.1" y="474.9" width="40.84" height="40.84" fill="#231f20"/>
  <rect x="347.1" y="518.03" width="40.84" height="40.84" fill="#231f20"/>
  <rect x="390.27" y="388.56" width="40.84" height="40.84" fill="#231f20"/>
  <rect x="390.27" y="431.69" width="40.84" height="40.84" fill="#231f20"/>
  <rect x="390.27" y="474.9" width="40.84" height="40.84" fill="#231f20"/>
  <rect x="390.27" y="518.03" width="40.84" height="40.84" fill="#231f20"/>
  <rect x="433.56" y="388.56" width="40.84" height="40.84" fill="#231f20"/>
  <rect x="433.56" y="431.69" width="40.84" height="40.84" fill="#231f20"/>
  <rect x="433.56" y="474.9" width="40.84" height="40.84" fill="#231f20"/>
  <rect x="433.56" y="518.03" width="40.84" height="40.84" fill="#231f20"/>
  <rect x="476.74" y="388.56" width="40.84" height="40.84" fill="#231f20"/>
  <rect x="476.74" y="431.69" width="40.84" height="40.84" fill="#231f20"/>
  <rect x="476.74" y="474.9" width="40.84" height="40.84" fill="#231f20"/>
  <rect x="476.74" y="518.03" width="40.84" height="40.84" fill="#231f20"/>
  <rect x="519.95" y="561.4" width="40.84" height="40.84" fill="#231f20"/>
  <rect x="519.95" y="604.53" width="40.84" height="40.84" fill="#231f20"/>
  <rect x="519.95" y="647.73" width="40.84" height="40.84" fill="#231f20"/>
  <rect x="519.95" y="690.86" width="40.84" height="40.84" fill="#231f20"/>
  <rect x="519.95" y="388.56" width="40.84" height="40.84" fill="#231f20"/>
  <rect x="519.95" y="431.69" width="40.84" height="40.84" fill="#231f20"/>
  <rect x="519.95" y="474.9" width="40.84" height="40.84" fill="#231f20"/>
  <rect x="519.95" y="518.03" width="40.84" height="40.84" fill="#231f20"/>
  <rect x="347.1" y="215.8" width="40.84" height="40.84" fill="#231f20"/>
  <rect x="347.1" y="258.93" width="40.84" height="40.84" fill="#231f20"/>
  <rect x="347.1" y="302.13" width="40.84" height="40.84" fill="#231f20"/>
  <rect x="347.1" y="345.26" width="40.84" height="40.84" fill="#231f20"/>
  <rect x="390.27" y="215.8" width="40.84" height="40.84" fill="#231f20"/>
  <rect x="390.27" y="258.93" width="40.84" height="40.84" fill="#231f20"/>
  <rect x="390.27" y="302.13" width="40.84" height="40.84" fill="#231f20"/>
  <rect x="390.27" y="345.26" width="40.84" height="40.84" fill="#231f20"/>
  <rect x="433.56" y="215.8" width="40.84" height="40.84" fill="#231f20"/>
  <rect x="433.56" y="258.93" width="40.84" height="40.84" fill="#231f20"/>
  <rect x="433.56" y="302.13" width="40.84" height="40.84" fill="#231f20"/>
  <rect x="433.56" y="345.26" width="40.84" height="40.84" fill="#231f20"/>
  <rect x="476.74" y="215.8" width="40.84" height="40.84" fill="#231f20"/>
  <rect x="476.74" y="258.93" width="40.84" height="40.84" fill="#231f20"/>
  <rect x="476.74" y="302.13" width="40.84" height="40.84" fill="#231f20"/>
  <rect x="476.74" y="345.26" width="40.84" height="40.84" fill="#231f20"/>
  <rect x="347.1" y="42.96" width="40.84" height="40.84" fill="#231f20"/>
  <rect x="347.1" y="86.09" width="40.84" height="40.84" fill="#231f20"/>
  <rect x="347.1" y="129.3" width="40.84" height="40.84" fill="#231f20"/>
  <rect x="347.1" y="172.43" width="40.84" height="40.84" fill="#231f20"/>
  <rect x="390.27" y="42.96" width="40.84" height="40.84" fill="#231f20"/>
  <rect x="390.27" y="86.09" width="40.84" height="40.84" fill="#231f20"/>
  <rect x="390.27" y="129.3" width="40.84" height="40.84" fill="#231f20"/>
  <rect x="390.27" y="172.43" width="40.84" height="40.84" fill="#231f20"/>
  <rect x="433.56" y="42.96" width="40.84" height="40.84" fill="#231f20"/>
  <rect x="433.56" y="86.09" width="40.84" height="40.84" fill="#231f20"/>
  <rect x="433.56" y="129.3" width="40.84" height="40.84" fill="#231f20"/>
  <rect x="433.56" y="172.43" width="40.84" height="40.84" fill="#231f20"/>
  <rect x="476.74" y="42.96" width="40.84" height="40.84" fill="#231f20"/>
  <rect x="476.74" y="86.09" width="40.84" height="40.84" fill="#231f20"/>
  <rect x="476.74" y="129.3" width="40.84" height="40.84" fill="#231f20"/>
  <rect x="476.74" y="172.43" width="40.84" height="40.84" fill="#231f20"/>
  <rect x="519.95" y="215.8" width="40.84" height="40.84" fill="#231f20"/>
  <rect x="519.95" y="258.93" width="40.84" height="40.84" fill="#231f20"/>
  <rect x="519.95" y="302.13" width="40.84" height="40.84" fill="#231f20"/>
  <rect x="519.95" y="345.26" width="40.84" height="40.84" fill="#231f20"/>
  <rect x="563.16" y="388.56" width="40.84" height="40.84" fill="#231f20"/>
  <rect x="563.16" y="345.26" width="40.84" height="40.84" fill="#231f20"/>
  <rect x="519.95" y="42.96" width="40.84" height="40.84" fill="#231f20"/>
  <rect x="347.1" y=".03" width="40.84" height="40.84" fill="#231f20"/>
  <rect x="390.27" y=".03" width="40.84" height="40.84" fill="#231f20"/>
  <rect x="433.56" y=".03" width="40.84" height="40.84" fill="#231f20"/>
  <rect x="476.74" y=".03" width="40.84" height="40.84" fill="#231f20"/>
  <rect x="519.95" y=".03" width="40.84" height="40.84" fill="#231f20"/>
  <rect x="519.95" y="86.09" width="40.84" height="40.84" fill="#231f20"/>
  <rect x="519.95" y="129.3" width="40.84" height="40.84" fill="#231f20"/>
  <rect x="519.95" y="172.43" width="40.84" height="40.84" fill="#231f20"/>
  <rect x="304.2" y="950.14" width="40.84" height="40.84" fill="#231f20"/>
  <rect x="318.1" y="920.74" width="13.39" height="13.39" fill="#231f20"/>
  <rect x="319.02" y="1007.07" width="13.39" height="13.39" fill="#231f20"/>
  <rect x="275.23" y="963.87" width="13.39" height="13.39" fill="#231f20"/>
  <rect x="319.02" y="1050.2" width="13.39" height="13.39" fill="#231f20"/>
  <rect x="318.1" y="833.1" width="13.39" height="13.39" fill="#231f20"/>
  <rect x="318.1" y="876.22" width="13.39" height="13.39" fill="#231f20"/>
  <rect x="318.1" y="791.73" width="13.39" height="13.39" fill="#231f20"/>
  <rect x="318.1" y="704.08" width="13.39" height="13.39" fill="#231f20"/>
  <rect x="318.1" y="747.21" width="13.39" height="13.39" fill="#231f20"/>
  <rect x="318.1" y="663.03" width="13.39" height="13.39" fill="#231f20"/>
  <rect x="318.1" y="575.39" width="13.39" height="13.39" fill="#231f20"/>
  <rect x="318.1" y="618.51" width="13.39" height="13.39" fill="#231f20"/>
  <rect x="318.1" y="534.02" width="13.39" height="13.39" fill="#231f20"/>
  <rect x="318.1" y="446.37" width="13.39" height="13.39" fill="#231f20"/>
  <rect x="318.1" y="489.5" width="13.39" height="13.39" fill="#231f20"/>
  <rect x="318.1" y="357.95" width="13.39" height="13.39" fill="#231f20"/>
  <rect x="318.1" y="401.08" width="13.39" height="13.39" fill="#231f20"/>
  <rect x="318.1" y="316.58" width="13.39" height="13.39" fill="#231f20"/>
  <rect x="318.1" y="228.94" width="13.39" height="13.39" fill="#231f20"/>
  <rect x="318.1" y="272.06" width="13.39" height="13.39" fill="#231f20"/>
  <rect x="318.1" y="187.88" width="13.39" height="13.39" fill="#231f20"/>
  <rect x="318.1" y="100.24" width="13.39" height="13.39" fill="#231f20"/>
  <rect x="318.1" y="143.37" width="13.39" height="13.39" fill="#231f20"/>
  <rect x="318.1" y="58.87" width="13.39" height="13.39" fill="#231f20"/>
  <rect x="275.6" y="13.76" width="13.39" height="13.39" fill="#231f20"/>
  <rect x="318.1" y="14.35" width="13.39" height="13.39" fill="#231f20"/>
  <rect x="836.35" y="920.74" width="13.39" height="13.39" fill="#231f20"/>
  <rect x="836.35" y="833.1" width="13.39" height="13.39" fill="#231f20"/>
  <rect x="836.35" y="876.22" width="13.39" height="13.39" fill="#231f20"/>
  <rect x="836.35" y="1050.89" width="13.39" height="13.39" fill="#231f20"/>
  <rect x="836.35" y="963.25" width="13.39" height="13.39" fill="#231f20"/>
  <rect x="836.35" y="1006.38" width="13.39" height="13.39" fill="#231f20"/>
  <rect x="836.35" y="791.73" width="13.39" height="13.39" fill="#231f20"/>
  <rect x="836.35" y="704.08" width="13.39" height="13.39" fill="#231f20"/>
  <rect x="836.35" y="747.21" width="13.39" height="13.39" fill="#231f20"/>
  <rect x="836.35" y="663.03" width="13.39" height="13.39" fill="#231f20"/>
  <rect x="836.35" y="575.39" width="13.39" height="13.39" fill="#231f20"/>
  <rect x="836.35" y="618.51" width="13.39" height="13.39" fill="#231f20"/>
  <rect x="836.35" y="534.02" width="13.39" height="13.39" fill="#231f20"/>
  <rect x="836.35" y="446.37" width="13.39" height="13.39" fill="#231f20"/>
  <rect x="836.35" y="489.5" width="13.39" height="13.39" fill="#231f20"/>
  <rect x="836.35" y="357.95" width="13.39" height="13.39" fill="#231f20"/>
  <rect x="836.35" y="401.08" width="13.39" height="13.39" fill="#231f20"/>
  <rect x="836.35" y="316.58" width="13.39" height="13.39" fill="#231f20"/>
  <rect x="836.35" y="228.94" width="13.39" height="13.39" fill="#231f20"/>
  <rect x="836.35" y="272.06" width="13.39" height="13.39" fill="#231f20"/>
  <rect x="836.35" y="187.88" width="13.39" height="13.39" fill="#231f20"/>
  <rect x="836.35" y="100.24" width="13.39" height="13.39" fill="#231f20"/>
  <rect x="836.35" y="143.37" width="13.39" height="13.39" fill="#231f20"/>
  <rect x="836.35" y="58.87" width="13.39" height="13.39" fill="#231f20"/>
  <rect x="794.93" y="187.88" width="13.39" height="13.39" fill="#231f20"/>
  <rect x="794.93" y="100.24" width="13.39" height="13.39" fill="#231f20"/>
  <rect x="794.93" y="143.37" width="13.39" height="13.39" fill="#231f20"/>
  <rect x="794.93" y="58.87" width="13.39" height="13.39" fill="#231f20"/>
  <rect x="751.72" y="187.88" width="13.39" height="13.39" fill="#231f20"/>
  <rect x="751.72" y="100.24" width="13.39" height="13.39" fill="#231f20"/>
  <rect x="751.72" y="143.37" width="13.39" height="13.39" fill="#231f20"/>
  <rect x="751.72" y="58.87" width="13.39" height="13.39" fill="#231f20"/>
  <rect x="836.35" y="14.35" width="13.39" height="13.39" fill="#231f20"/>
  <rect x="576.89" y="316.58" width="13.39" height="13.39" fill="#231f20"/>
  <rect x="576.89" y="228.94" width="13.39" height="13.39" fill="#231f20"/>
  <rect x="576.89" y="272.06" width="13.39" height="13.39" fill="#231f20"/>
  <rect x="576.89" y="187.88" width="13.39" height="13.39" fill="#231f20"/>
  <rect x="576.89" y="100.24" width="13.39" height="13.39" fill="#231f20"/>
  <rect x="576.89" y="143.37" width="13.39" height="13.39" fill="#231f20"/>
  <rect x="576.89" y="58.87" width="13.39" height="13.39" fill="#231f20"/>
  <rect x="620.51" y="402.29" width="13.39" height="13.39" fill="#231f20"/>
  <rect x="620.51" y="358.98" width="13.39" height="13.39" fill="#231f20"/>
  <rect x="662.88" y="445.49" width="13.39" height="13.39" fill="#231f20"/>
  <rect x="620.51" y="445.49" width="13.39" height="13.39" fill="#231f20"/>
  <rect x="662.88" y="402.18" width="13.39" height="13.39" fill="#231f20"/>
  <rect x="576.89" y="530.7" width="13.39" height="13.39" fill="#231f20"/>
  <rect x="576.89" y="487.39" width="13.39" height="13.39" fill="#231f20"/>
  <rect x="576.89" y="446.37" width="13.39" height="13.39" fill="#231f20"/>
  <rect x="576.89" y="660.67" width="13.39" height="13.39" fill="#231f20"/>
  <rect x="576.89" y="704.58" width="13.39" height="13.39" fill="#231f20"/>
  <rect x="576.89" y="617.37" width="13.39" height="13.39" fill="#231f20"/>
  <rect x="576.89" y="576.35" width="13.39" height="13.39" fill="#231f20"/>
  <rect x="533.67" y="747.29" width="13.39" height="13.39" fill="#231f20"/>
  <rect x="533.67" y="877.27" width="13.39" height="13.39" fill="#231f20"/>
  <rect x="533.67" y="921.18" width="13.39" height="13.39" fill="#231f20"/>
  <rect x="533.67" y="833.97" width="13.39" height="13.39" fill="#231f20"/>
  <rect x="533.67" y="1006.77" width="13.39" height="13.39" fill="#231f20"/>
  <rect x="533.67" y="1050.68" width="13.39" height="13.39" fill="#231f20"/>
  <rect x="533.67" y="963.47" width="13.39" height="13.39" fill="#231f20"/>
  <rect x="533.67" y="792.95" width="13.39" height="13.39" fill="#231f20"/>
  <rect x="620.51" y="316.58" width="13.39" height="13.39" fill="#231f20"/>
</svg>