<?xml version="1.0" encoding="UTF-8"?>
<svg id="_10" data-name="10" xmlns="http://www.w3.org/2000/svg" viewBox="0 0 1080 1080">
  <rect x="476.31" y="735.67" width="40.84" height="40.84" fill="#231f20"/>
  <rect x="476.31" y="778.7" width="40.84" height="40.84" fill="#231f20"/>
  <rect x="476.31" y="649.25" width="40.84" height="40.84" fill="#231f20"/>
  <rect x="476.31" y="692.28" width="40.84" height="40.84" fill="#231f20"/>
  <rect x="519.58" y="865.25" width="40.84" height="40.84" fill="#231f20"/>
  <rect x="519.58" y="908.28" width="40.84" height="40.84" fill="#231f20"/>
  <rect x="649.31" y="865.25" width="40.84" height="40.84" fill="#231f20"/>
  <rect x="649.31" y="908.28" width="40.84" height="40.84" fill="#231f20"/>
  <rect x="649.31" y="951.65" width="40.84" height="40.84" fill="#231f20"/>
  <rect x="649.31" y="994.68" width="40.84" height="40.84" fill="#231f20"/>
  <rect x="649.31" y="1038.01" width="40.84" height="40.84" fill="#231f20"/>
  <rect x="605.88" y="865.25" width="40.84" height="40.84" fill="#231f20"/>
  <rect x="605.88" y="908.28" width="40.84" height="40.84" fill="#231f20"/>
  <rect x="562.73" y="865.25" width="40.84" height="40.84" fill="#231f20"/>
  <rect x="562.73" y="908.28" width="40.84" height="40.84" fill="#231f20"/>
  <rect x="735.54" y="174.05" width="40.84" height="40.84" fill="#231f20"/>
  <rect x="735.54" y="217.08" width="40.84" height="40.84" fill="#231f20"/>
  <rect x="476.64" y="44.45" width="40.84" height="40.84" fill="#231f20"/>
  <rect x="476.64" y="87.48" width="40.84" height="40.84" fill="#231f20"/>
  <rect x="519.58" y="87.48" width="40.84" height="40.84" fill="#231f20"/>
  <rect x="433.04" y="44.45" width="40.84" height="40.84" fill="#231f20"/>
  <rect x="433.04" y="87.48" width="40.84" height="40.84" fill="#231f20"/>
  <rect x="389.96" y="44.45" width="40.84" height="40.84" fill="#231f20"/>
  <rect x="389.96" y="87.48" width="40.84" height="40.84" fill="#231f20"/>
  <rect x="347.06" y="44.45" width="40.84" height="40.84" fill="#231f20"/>
  <rect x="476.64" y="1.42" width="40.84" height="40.84" fill="#231f20"/>
  <rect x="433.04" y="1.42" width="40.84" height="40.84" fill="#231f20"/>
  <rect x="389.96" y="1.42" width="40.84" height="40.84" fill="#231f20"/>
  <rect x="347.06" y="1.42" width="40.84" height="40.84" fill="#231f20"/>
  <rect x="347.06" y="87.48" width="40.84" height="40.84" fill="#231f20"/>
  <rect x="476.64" y="130.45" width="40.84" height="40.84" fill="#231f20"/>
  <rect x="865.27" y="174.05" width="40.84" height="40.84" fill="#231f20"/>
  <rect x="865.27" y="217.08" width="40.84" height="40.84" fill="#231f20"/>
  <rect x="908.71" y="174.05" width="40.84" height="40.84" fill="#231f20"/>
  <rect x="908.71" y="217.08" width="40.84" height="40.84" fill="#231f20"/>
  <rect x="821.84" y="174.05" width="40.84" height="40.84" fill="#231f20"/>
  <rect x="821.84" y="217.08" width="40.84" height="40.84" fill="#231f20"/>
  <rect x="778.69" y="174.05" width="40.84" height="40.84" fill="#231f20"/>
  <rect x="606.09" y="174.05" width="40.84" height="40.84" fill="#231f20"/>
  <rect x="692.39" y="174.05" width="40.84" height="40.84" fill="#231f20"/>
  <rect x="649.24" y="174.05" width="40.84" height="40.84" fill="#231f20"/>
  <rect x="778.69" y="217.08" width="40.84" height="40.84" fill="#231f20"/>
  <rect x="533.33" y="794.2" width="13.39" height="13.39" fill="#231f20"/>
  <rect x="533.33" y="748.27" width="13.39" height="13.39" fill="#231f20"/>
  <rect x="533.33" y="835.62" width="13.39" height="13.39" fill="#231f20"/>
  <rect x="576.45" y="665.23" width="13.39" height="13.39" fill="#231f20"/>
  <rect x="576.45" y="619.3" width="13.39" height="13.39" fill="#231f20"/>
  <rect x="576.45" y="706.65" width="13.39" height="13.39" fill="#231f20"/>
  <rect x="836.28" y="577.32" width="13.39" height="13.39" fill="#231f20"/>
  <rect x="836.28" y="531.38" width="13.39" height="13.39" fill="#231f20"/>
  <rect x="878.51" y="577.32" width="13.39" height="13.39" fill="#231f20"/>
  <rect x="878.51" y="531.38" width="13.39" height="13.39" fill="#231f20"/>
  <rect x="836.28" y="618.73" width="13.39" height="13.39" fill="#231f20"/>
  <rect x="792.89" y="577.32" width="13.39" height="13.39" fill="#231f20"/>
  <rect x="792.89" y="618.73" width="13.39" height="13.39" fill="#231f20"/>
  <rect x="706.23" y="534.18" width="13.39" height="13.39" fill="#231f20"/>
  <rect x="706.23" y="575.6" width="13.39" height="13.39" fill="#231f20"/>
  <rect x="662.84" y="534.18" width="13.39" height="13.39" fill="#231f20"/>
  <rect x="662.84" y="575.6" width="13.39" height="13.39" fill="#231f20"/>
  <rect x="490.35" y="490.53" width="13.39" height="13.39" fill="#231f20"/>
  <rect x="490.35" y="531.94" width="13.39" height="13.39" fill="#231f20"/>
  <rect x="445.88" y="490.53" width="13.39" height="13.39" fill="#231f20"/>
  <rect x="445.88" y="531.94" width="13.39" height="13.39" fill="#231f20"/>
  <rect x="403.83" y="490.53" width="13.39" height="13.39" fill="#231f20"/>
  <rect x="403.83" y="531.94" width="13.39" height="13.39" fill="#231f20"/>
  <rect x="360.44" y="490.53" width="13.39" height="13.39" fill="#231f20"/>
  <rect x="360.44" y="531.94" width="13.39" height="13.39" fill="#231f20"/>
  <rect x="317.05" y="490.53" width="13.39" height="13.39" fill="#231f20"/>
  <rect x="317.05" y="531.94" width="13.39" height="13.39" fill="#231f20"/>
  <rect x="317.05" y="573.36" width="13.39" height="13.39" fill="#231f20"/>
  <rect x="317.05" y="614.78" width="13.39" height="13.39" fill="#231f20"/>
  <rect x="15.16" y="579.34" width="13.39" height="13.39" fill="#231f20"/>
  <rect x="15.16" y="620.76" width="13.39" height="13.39" fill="#231f20"/>
  <rect x="15.16" y="490.53" width="13.39" height="13.39" fill="#231f20"/>
  <rect x="15.16" y="531.94" width="13.39" height="13.39" fill="#231f20"/>
  <rect x="15.16" y="662.18" width="13.39" height="13.39" fill="#231f20"/>
  <rect x="15.16" y="703.59" width="13.39" height="13.39" fill="#231f20"/>
  <rect x="445.88" y="449.11" width="13.39" height="13.39" fill="#231f20"/>
  <rect x="445.88" y="360.65" width="13.39" height="13.39" fill="#231f20"/>
  <rect x="445.88" y="402.06" width="13.39" height="13.39" fill="#231f20"/>
  <rect x="445.88" y="319.23" width="13.39" height="13.39" fill="#231f20"/>
  <rect x="490.35" y="275.66" width="13.39" height="13.39" fill="#231f20"/>
  <rect x="490.35" y="319.23" width="13.39" height="13.39" fill="#231f20"/>
  <rect x="534.83" y="232.09" width="13.39" height="13.39" fill="#231f20"/>
  <rect x="576.97" y="232.09" width="13.39" height="13.39" fill="#231f20"/>
  <rect x="490.35" y="232.09" width="13.39" height="13.39" fill="#231f20"/>
  <rect x="662.97" y="232.09" width="13.39" height="13.39" fill="#231f20"/>
  <rect x="707.44" y="232.09" width="13.39" height="13.39" fill="#231f20"/>
  <rect x="618.49" y="232.09" width="13.39" height="13.39" fill="#231f20"/>
  <rect x="534.83" y="187.77" width="13.39" height="13.39" fill="#231f20"/>
  <rect x="576.97" y="187.77" width="13.39" height="13.39" fill="#231f20"/>
  <rect x="576.97" y="145.05" width="13.39" height="13.39" fill="#231f20"/>
  <rect x="576.97" y="100.73" width="13.39" height="13.39" fill="#231f20"/>
  <rect x="533.3" y="57.72" width="13.39" height="13.39" fill="#231f20"/>
  <rect x="533.3" y="13.41" width="13.39" height="13.39" fill="#231f20"/>
  <rect x="966.01" y="231.37" width="13.39" height="13.39" fill="#231f20"/>
  <rect x="966.01" y="187.05" width="13.39" height="13.39" fill="#231f20"/>
  <rect x="1010.31" y="232.09" width="13.39" height="13.39" fill="#231f20"/>
  <rect x="1010.31" y="187.77" width="13.39" height="13.39" fill="#231f20"/>
  <rect x="490.35" y="187.77" width="13.39" height="13.39" fill="#231f20"/>
  <rect x="446.77" y="187.77" width="13.39" height="13.39" fill="#231f20"/>
  <rect x="446.34" y="144.18" width="13.39" height="13.39" fill="#231f20"/>
  <rect x="401.87" y="144.18" width="13.39" height="13.39" fill="#231f20"/>
  <rect x="315.97" y="102.12" width="13.39" height="13.39" fill="#231f20"/>
  <rect x="315.97" y="58.55" width="13.39" height="13.39" fill="#231f20"/>
  <rect x="315.97" y="14.23" width="13.39" height="13.39" fill="#231f20"/>
  <rect x="534.83" y="143.46" width="13.39" height="13.39" fill="#231f20"/>
  <rect x="275.81" y="531.94" width="13.39" height="13.39" fill="#231f20"/>
  <rect x="275.81" y="573.36" width="13.39" height="13.39" fill="#231f20"/>
  <rect x="275.81" y="614.78" width="13.39" height="13.39" fill="#231f20"/>
  <rect x="533.33" y="706.65" width="13.39" height="13.39" fill="#231f20"/>
  <rect x="490.04" y="836.58" width="13.39" height="13.39" fill="#231f20"/>
  <rect x="446.74" y="836.58" width="13.39" height="13.39" fill="#231f20"/>
  <rect x="490.04" y="878" width="13.39" height="13.39" fill="#231f20"/>
  <rect x="446.74" y="1009.38" width="13.39" height="13.39" fill="#231f20"/>
  <rect x="446.74" y="1050.8" width="13.39" height="13.39" fill="#231f20"/>
  <rect x="446.74" y="924.24" width="13.39" height="13.39" fill="#231f20"/>
  <rect x="446.74" y="965.66" width="13.39" height="13.39" fill="#231f20"/>
  <rect x="490.04" y="1050.8" width="13.39" height="13.39" fill="#231f20"/>
  <rect x="619.6" y="1009.38" width="13.39" height="13.39" fill="#231f20"/>
  <rect x="619.6" y="1050.8" width="13.39" height="13.39" fill="#231f20"/>
  <rect x="576.45" y="835.62" width="13.39" height="13.39" fill="#231f20"/>
  <rect x="490.17" y="619.3" width="13.39" height="13.39" fill="#231f20"/>
  <rect x="533.29" y="619.3" width="13.39" height="13.39" fill="#231f20"/>
  <rect x="619.77" y="835.62" width="13.39" height="13.39" fill="#231f20"/>
  <rect x="533.33" y="965.37" width="13.39" height="13.39" fill="#231f20"/>
  <rect x="576.45" y="965.37" width="13.39" height="13.39" fill="#231f20"/>
  <rect x="533.33" y="1051.73" width="13.39" height="13.39" fill="#231f20"/>
  <rect x="576.45" y="1051.73" width="13.39" height="13.39" fill="#231f20"/>
  <rect x="619.6" y="965.37" width="13.39" height="13.39" fill="#231f20"/>
  <rect x="706.22" y="1009.38" width="13.39" height="13.39" fill="#231f20"/>
  <rect x="706.22" y="1050.8" width="13.39" height="13.39" fill="#231f20"/>
  <rect x="706.22" y="965.37" width="13.39" height="13.39" fill="#231f20"/>
  <rect x="749.56" y="1009.38" width="13.39" height="13.39" fill="#231f20"/>
  <rect x="749.56" y="965.37" width="13.39" height="13.39" fill="#231f20"/>
  <rect x="792.89" y="1009.38" width="13.39" height="13.39" fill="#231f20"/>
  <rect x="792.89" y="965.37" width="13.39" height="13.39" fill="#231f20"/>
  <rect x="706.22" y="880.27" width="13.39" height="13.39" fill="#231f20"/>
  <rect x="706.22" y="921.69" width="13.39" height="13.39" fill="#231f20"/>
  <rect x="706.22" y="836.26" width="13.39" height="13.39" fill="#231f20"/>
  <rect x="662.89" y="835.62" width="13.39" height="13.39" fill="#231f20"/>
</svg>