<?xml version="1.0" encoding="UTF-8"?>
<svg id="_11" data-name="11" xmlns="http://www.w3.org/2000/svg" viewBox="0 0 1080 1080">
  <rect x="258.78" y="950.89" width="40.84" height="40.84" fill="#231f20"/>
  <rect x="258.78" y="907.85" width="40.84" height="40.84" fill="#231f20"/>
  <rect x="258.78" y="864.64" width="40.84" height="40.84" fill="#231f20"/>
  <rect x="258.78" y="994.15" width="40.84" height="40.84" fill="#231f20"/>
  <rect x="258.78" y="778.17" width="40.84" height="40.84" fill="#231f20"/>
  <rect x="258.78" y="735.13" width="40.84" height="40.84" fill="#231f20"/>
  <rect x="258.78" y="691.77" width="40.84" height="40.84" fill="#231f20"/>
  <rect x="258.78" y="648.73" width="40.84" height="40.84" fill="#231f20"/>
  <rect x="215.57" y="778.17" width="40.84" height="40.84" fill="#231f20"/>
  <rect x="215.57" y="735.13" width="40.84" height="40.84" fill="#231f20"/>
  <rect x="258.78" y="821.43" width="40.84" height="40.84" fill="#231f20"/>
  <rect x="215.6" y="389.47" width="40.84" height="40.84" fill="#231f20"/>
  <rect x="215.6" y="346.43" width="40.84" height="40.84" fill="#231f20"/>
  <rect x="215.6" y="303.07" width="40.84" height="40.84" fill="#231f20"/>
  <rect x="258.97" y="389.47" width="40.84" height="40.84" fill="#231f20"/>
  <rect x="258.97" y="346.43" width="40.84" height="40.84" fill="#231f20"/>
  <rect x="258.97" y="303.07" width="40.84" height="40.84" fill="#231f20"/>
  <rect x="431.6" y="346.43" width="40.84" height="40.84" fill="#231f20"/>
  <rect x="431.6" y="303.07" width="40.84" height="40.84" fill="#231f20"/>
  <rect x="474.97" y="346.43" width="40.84" height="40.84" fill="#231f20"/>
  <rect x="474.97" y="303.07" width="40.84" height="40.84" fill="#231f20"/>
  <rect x="518" y="346.43" width="40.84" height="40.84" fill="#231f20"/>
  <rect x="474.97" y="475.87" width="40.84" height="40.84" fill="#231f20"/>
  <rect x="518" y="475.87" width="40.84" height="40.84" fill="#231f20"/>
  <rect x="518" y="303.07" width="40.84" height="40.84" fill="#231f20"/>
  <rect x="561.37" y="346.43" width="40.84" height="40.84" fill="#231f20"/>
  <rect x="561.37" y="389.47" width="40.84" height="40.84" fill="#231f20"/>
  <rect x="604.51" y="432.69" width="40.84" height="40.84" fill="#231f20"/>
  <rect x="604.51" y="475.87" width="40.84" height="40.84" fill="#231f20"/>
  <rect x="561.37" y="303.07" width="40.84" height="40.84" fill="#231f20"/>
  <rect x="474.97" y="259.61" width="40.84" height="40.84" fill="#231f20"/>
  <rect x="431.6" y="259.61" width="40.84" height="40.84" fill="#231f20"/>
  <rect x="388.23" y="259.61" width="40.84" height="40.84" fill="#231f20"/>
  <rect x="345.28" y="259.61" width="40.84" height="40.84" fill="#231f20"/>
  <rect x="388.23" y="303.07" width="40.84" height="40.84" fill="#231f20"/>
  <rect x="518" y="259.61" width="40.84" height="40.84" fill="#231f20"/>
  <rect x="474.97" y=".78" width="40.84" height="40.84" fill="#231f20"/>
  <rect x="518" y=".78" width="40.84" height="40.84" fill="#231f20"/>
  <rect x="474.97" y="43.64" width="40.84" height="40.84" fill="#231f20"/>
  <rect x="215.6" y=".78" width="40.84" height="40.84" fill="#231f20"/>
  <rect x="215.6" y="43.64" width="40.84" height="40.84" fill="#231f20"/>
  <rect x="518" y="43.64" width="40.84" height="40.84" fill="#231f20"/>
  <rect x="604.51" y=".82" width="40.84" height="40.84" fill="#231f20"/>
  <rect x="604.51" y="43.68" width="40.84" height="40.84" fill="#231f20"/>
  <rect x="561.37" y="259.61" width="40.84" height="40.84" fill="#231f20"/>
  <rect x="820.51" y="43.83" width="40.84" height="40.84" fill="#231f20"/>
  <rect x="345.31" y="346.33" width="40.84" height="40.84" fill="#231f20"/>
  <rect x="345.31" y="302.97" width="40.84" height="40.84" fill="#231f20"/>
  <rect x="215.6" y="260.03" width="40.84" height="40.84" fill="#231f20"/>
  <rect x="215.6" y="216.68" width="40.84" height="40.84" fill="#231f20"/>
  <rect x="215.6" y="173.34" width="40.84" height="40.84" fill="#231f20"/>
  <rect x="258.78" y="1037.49" width="40.84" height="40.84" fill="#231f20"/>
  <rect x="315.68" y="964.61" width="13.39" height="13.39" fill="#231f20"/>
  <rect x="315.68" y="1007.87" width="13.39" height="13.39" fill="#231f20"/>
  <rect x="315.68" y="1051.21" width="13.39" height="13.39" fill="#231f20"/>
  <rect x="315.68" y="748.59" width="13.39" height="13.39" fill="#231f20"/>
  <rect x="315.68" y="791.86" width="13.39" height="13.39" fill="#231f20"/>
  <rect x="315.68" y="835.2" width="13.39" height="13.39" fill="#231f20"/>
  <rect x="315.68" y="619.15" width="13.39" height="13.39" fill="#231f20"/>
  <rect x="272.69" y="619.15" width="13.39" height="13.39" fill="#231f20"/>
  <rect x="315.68" y="662.42" width="13.39" height="13.39" fill="#231f20"/>
  <rect x="315.68" y="705.76" width="13.39" height="13.39" fill="#231f20"/>
  <rect x="143.15" y="748.59" width="13.39" height="13.39" fill="#231f20"/>
  <rect x="143.15" y="791.86" width="13.39" height="13.39" fill="#231f20"/>
  <rect x="143.15" y="835.2" width="13.39" height="13.39" fill="#231f20"/>
  <rect x="143.15" y="879.48" width="13.39" height="13.39" fill="#231f20"/>
  <rect x="143.15" y="922.82" width="13.39" height="13.39" fill="#231f20"/>
  <rect x="143.15" y="662.42" width="13.39" height="13.39" fill="#231f20"/>
  <rect x="143.15" y="705.76" width="13.39" height="13.39" fill="#231f20"/>
  <rect x="143.15" y="576.08" width="13.39" height="13.39" fill="#231f20"/>
  <rect x="143.15" y="619.42" width="13.39" height="13.39" fill="#231f20"/>
  <rect x="186.23" y="662.42" width="13.39" height="13.39" fill="#231f20"/>
  <rect x="186.23" y="705.76" width="13.39" height="13.39" fill="#231f20"/>
  <rect x="229.32" y="662.42" width="13.39" height="13.39" fill="#231f20"/>
  <rect x="229.32" y="619.15" width="13.39" height="13.39" fill="#231f20"/>
  <rect x="402.22" y="445.42" width="13.39" height="13.39" fill="#231f20"/>
  <rect x="359.23" y="445.42" width="13.39" height="13.39" fill="#231f20"/>
  <rect x="315.86" y="445.42" width="13.39" height="13.39" fill="#231f20"/>
  <rect x="402.22" y="403.19" width="13.39" height="13.39" fill="#231f20"/>
  <rect x="402.22" y="360.15" width="13.39" height="13.39" fill="#231f20"/>
  <rect x="359.23" y="403.19" width="13.39" height="13.39" fill="#231f20"/>
  <rect x="315.86" y="403.19" width="13.39" height="13.39" fill="#231f20"/>
  <rect x="315.86" y="359.19" width="13.39" height="13.39" fill="#231f20"/>
  <rect x="315.86" y="317.56" width="13.39" height="13.39" fill="#231f20"/>
  <rect x="315.86" y="273.62" width="13.39" height="13.39" fill="#231f20"/>
  <rect x="618.24" y="403.16" width="13.39" height="13.39" fill="#231f20"/>
  <rect x="618.24" y="359.16" width="13.39" height="13.39" fill="#231f20"/>
  <rect x="618.24" y="317.53" width="13.39" height="13.39" fill="#231f20"/>
  <rect x="618.24" y="273.59" width="13.39" height="13.39" fill="#231f20"/>
  <rect x="964.63" y="230.36" width="13.39" height="13.39" fill="#231f20"/>
  <rect x="964.63" y="186.36" width="13.39" height="13.39" fill="#231f20"/>
  <rect x="964.63" y="144.73" width="13.39" height="13.39" fill="#231f20"/>
  <rect x="964.63" y="100.79" width="13.39" height="13.39" fill="#231f20"/>
  <rect x="964.63" y="57.33" width="13.39" height="13.39" fill="#231f20"/>
  <rect x="964.63" y="15.69" width="13.39" height="13.39" fill="#231f20"/>
  <rect x="1007.64" y="14.54" width="13.39" height="13.39" fill="#231f20"/>
  <rect x="315.86" y="231.99" width="13.39" height="13.39" fill="#231f20"/>
  <rect x="315.86" y="187.99" width="13.39" height="13.39" fill="#231f20"/>
  <rect x="273.96" y="273.62" width="13.39" height="13.39" fill="#231f20"/>
  <rect x="273.96" y="231.99" width="13.39" height="13.39" fill="#231f20"/>
  <rect x="273.96" y="187.99" width="13.39" height="13.39" fill="#231f20"/>
  <rect x="187.5" y="273.62" width="13.39" height="13.39" fill="#231f20"/>
  <rect x="187.5" y="231.99" width="13.39" height="13.39" fill="#231f20"/>
  <rect x="187.5" y="187.99" width="13.39" height="13.39" fill="#231f20"/>
  <rect x="144.13" y="273.62" width="13.39" height="13.39" fill="#231f20"/>
  <rect x="187.5" y="316.69" width="13.39" height="13.39" fill="#231f20"/>
  <rect x="144.13" y="316.69" width="13.39" height="13.39" fill="#231f20"/>
  <rect x="144.13" y="231.99" width="13.39" height="13.39" fill="#231f20"/>
  <rect x="144.13" y="187.99" width="13.39" height="13.39" fill="#231f20"/>
  <rect x="315.86" y="146.35" width="13.39" height="13.39" fill="#231f20"/>
  <rect x="359.23" y="231.99" width="13.39" height="13.39" fill="#231f20"/>
  <rect x="359.23" y="187.99" width="13.39" height="13.39" fill="#231f20"/>
  <rect x="359.23" y="146.35" width="13.39" height="13.39" fill="#231f20"/>
  <rect x="531.87" y="403.19" width="13.39" height="13.39" fill="#231f20"/>
  <rect x="488.88" y="403.19" width="13.39" height="13.39" fill="#231f20"/>
  <rect x="488.88" y="445.42" width="13.39" height="13.39" fill="#231f20"/>
  <rect x="445.32" y="445.42" width="13.39" height="13.39" fill="#231f20"/>
  <rect x="445.32" y="489.47" width="13.39" height="13.39" fill="#231f20"/>
  <rect x="531.87" y="532.26" width="13.39" height="13.39" fill="#231f20"/>
  <rect x="488.88" y="532.26" width="13.39" height="13.39" fill="#231f20"/>
  <rect x="531.87" y="576.08" width="13.39" height="13.39" fill="#231f20"/>
  <rect x="445.32" y="532.26" width="13.39" height="13.39" fill="#231f20"/>
  <rect x="619.31" y="532.26" width="13.39" height="13.39" fill="#231f20"/>
  <rect x="576.32" y="532.26" width="13.39" height="13.39" fill="#231f20"/>
  <rect x="574.9" y="445.42" width="13.39" height="13.39" fill="#231f20"/>
  <rect x="574.9" y="489.4" width="13.39" height="13.39" fill="#231f20"/>
  <rect x="531.91" y="445.42" width="13.39" height="13.39" fill="#231f20"/>
  <rect x="445.51" y="403.19" width="13.39" height="13.39" fill="#231f20"/>
  <rect x="402.22" y="231.99" width="13.39" height="13.39" fill="#231f20"/>
  <rect x="531.87" y="231.99" width="13.39" height="13.39" fill="#231f20"/>
  <rect x="575.09" y="231.99" width="13.39" height="13.39" fill="#231f20"/>
  <rect x="488.88" y="231.99" width="13.39" height="13.39" fill="#231f20"/>
  <rect x="445.51" y="231.99" width="13.39" height="13.39" fill="#231f20"/>
  <rect x="315.86" y="57.37" width="13.39" height="13.39" fill="#231f20"/>
  <rect x="359.23" y="57.37" width="13.39" height="13.39" fill="#231f20"/>
  <rect x="315.86" y="101.86" width="13.39" height="13.39" fill="#231f20"/>
  <rect x="359.23" y="101.86" width="13.39" height="13.39" fill="#231f20"/>
  <rect x="230.59" y="146.35" width="13.39" height="13.39" fill="#231f20"/>
  <rect x="273.96" y="146.35" width="13.39" height="13.39" fill="#231f20"/>
  <rect x="230.59" y="101.86" width="13.39" height="13.39" fill="#231f20"/>
  <rect x="273.96" y="101.86" width="13.39" height="13.39" fill="#231f20"/>
  <rect x="273.96" y="57.17" width="13.39" height="13.39" fill="#231f20"/>
  <rect x="273.96" y="12.68" width="13.39" height="13.39" fill="#231f20"/>
  <rect x="187.5" y="57.17" width="13.39" height="13.39" fill="#231f20"/>
  <rect x="187.5" y="12.68" width="13.39" height="13.39" fill="#231f20"/>
  <rect x="487.87" y="101.86" width="13.39" height="13.39" fill="#231f20"/>
  <rect x="531.24" y="101.86" width="13.39" height="13.39" fill="#231f20"/>
  <rect x="576.13" y="101.86" width="13.39" height="13.39" fill="#231f20"/>
  <rect x="619.5" y="101.86" width="13.39" height="13.39" fill="#231f20"/>
  <rect x="402.6" y="101.86" width="13.39" height="13.39" fill="#231f20"/>
  <rect x="445.97" y="101.86" width="13.39" height="13.39" fill="#231f20"/>
  <rect x="144.13" y="146.35" width="13.39" height="13.39" fill="#231f20"/>
  <rect x="187.5" y="146.35" width="13.39" height="13.39" fill="#231f20"/>
  <rect x="144.13" y="101.86" width="13.39" height="13.39" fill="#231f20"/>
  <rect x="100.56" y="187.99" width="13.39" height="13.39" fill="#231f20"/>
  <rect x="100.56" y="146.35" width="13.39" height="13.39" fill="#231f20"/>
  <rect x="100.56" y="101.86" width="13.39" height="13.39" fill="#231f20"/>
  <rect x="187.5" y="101.86" width="13.39" height="13.39" fill="#231f20"/>
  <rect x="402.22" y="57.37" width="13.39" height="13.39" fill="#231f20"/>
  <rect x="445.51" y="57.37" width="13.39" height="13.39" fill="#231f20"/>
  <rect x="445.51" y="13.73" width="13.39" height="13.39" fill="#231f20"/>
  <rect x="575.21" y="58.22" width="13.39" height="13.39" fill="#231f20"/>
  <rect x="574.75" y="13.73" width="13.39" height="13.39" fill="#231f20"/>
  <rect x="791.43" y="58.22" width="13.39" height="13.39" fill="#231f20"/>
  <rect x="834.26" y="101.86" width="13.39" height="13.39" fill="#231f20"/>
  <rect x="790.97" y="101.86" width="13.39" height="13.39" fill="#231f20"/>
  <rect x="834.47" y="185.66" width="13.39" height="13.39" fill="#231f20"/>
  <rect x="834.01" y="229.3" width="13.39" height="13.39" fill="#231f20"/>
  <rect x="791.66" y="185.66" width="13.39" height="13.39" fill="#231f20"/>
  <rect x="791.2" y="229.3" width="13.39" height="13.39" fill="#231f20"/>
  <rect x="834.01" y="272.3" width="13.39" height="13.39" fill="#231f20"/>
  <rect x="791.2" y="272.3" width="13.39" height="13.39" fill="#231f20"/>
  <rect x="920.64" y="922.71" width="13.39" height="13.39" fill="#231f20"/>
  <rect x="920.18" y="966.34" width="13.39" height="13.39" fill="#231f20"/>
  <rect x="877.83" y="922.71" width="13.39" height="13.39" fill="#231f20"/>
  <rect x="920.64" y="878.37" width="13.39" height="13.39" fill="#231f20"/>
  <rect x="877.83" y="878.37" width="13.39" height="13.39" fill="#231f20"/>
  <rect x="877.37" y="966.34" width="13.39" height="13.39" fill="#231f20"/>
  <rect x="920.18" y="1009.35" width="13.39" height="13.39" fill="#231f20"/>
  <rect x="877.37" y="1009.35" width="13.39" height="13.39" fill="#231f20"/>
  <rect x="791.66" y="922.71" width="13.39" height="13.39" fill="#231f20"/>
  <rect x="791.66" y="878.37" width="13.39" height="13.39" fill="#231f20"/>
  <rect x="791.2" y="966.34" width="13.39" height="13.39" fill="#231f20"/>
  <rect x="791.2" y="1009.35" width="13.39" height="13.39" fill="#231f20"/>
  <rect x="920.64" y="315.84" width="13.39" height="13.39" fill="#231f20"/>
  <rect x="964.63" y="273.59" width="13.39" height="13.39" fill="#231f20"/>
  <rect x="920.18" y="230.36" width="13.39" height="13.39" fill="#231f20"/>
  <rect x="920.18" y="186.36" width="13.39" height="13.39" fill="#231f20"/>
  <rect x="920.18" y="144.73" width="13.39" height="13.39" fill="#231f20"/>
  <rect x="920.18" y="100.79" width="13.39" height="13.39" fill="#231f20"/>
  <rect x="920.18" y="273.59" width="13.39" height="13.39" fill="#231f20"/>
  <rect x="920.18" y="359.48" width="13.39" height="13.39" fill="#231f20"/>
  <rect x="920.87" y="446.08" width="13.39" height="13.39" fill="#231f20"/>
  <rect x="920.41" y="489.71" width="13.39" height="13.39" fill="#231f20"/>
  <rect x="920.18" y="402.48" width="13.39" height="13.39" fill="#231f20"/>
  <rect x="920.41" y="532.72" width="13.39" height="13.39" fill="#231f20"/>
  <rect x="920.64" y="574.44" width="13.39" height="13.39" fill="#231f20"/>
  <rect x="920.18" y="618.08" width="13.39" height="13.39" fill="#231f20"/>
  <rect x="920.87" y="704.67" width="13.39" height="13.39" fill="#231f20"/>
  <rect x="920.41" y="748.31" width="13.39" height="13.39" fill="#231f20"/>
  <rect x="920.18" y="661.08" width="13.39" height="13.39" fill="#231f20"/>
  <rect x="920.41" y="791.31" width="13.39" height="13.39" fill="#231f20"/>
  <rect x="790.84" y="360.29" width="13.39" height="13.39" fill="#231f20"/>
  <rect x="790.38" y="403.92" width="13.39" height="13.39" fill="#231f20"/>
  <rect x="791.89" y="490.35" width="13.39" height="13.39" fill="#231f20"/>
  <rect x="791.43" y="533.98" width="13.39" height="13.39" fill="#231f20"/>
  <rect x="790.38" y="446.93" width="13.39" height="13.39" fill="#231f20"/>
  <rect x="791.43" y="576.99" width="13.39" height="13.39" fill="#231f20"/>
  <rect x="790.97" y="13.73" width="13.39" height="13.39" fill="#231f20"/>
  <rect x="877.51" y="58.22" width="13.39" height="13.39" fill="#231f20"/>
  <rect x="877.05" y="101.86" width="13.39" height="13.39" fill="#231f20"/>
  <rect x="877.05" y="13.73" width="13.39" height="13.39" fill="#231f20"/>
  <rect x="834.26" y="13.73" width="13.39" height="13.39" fill="#231f20"/>
  <rect x="229.32" y="705.76" width="13.39" height="13.39" fill="#231f20"/>
  <rect x="229.32" y="532.74" width="13.39" height="13.39" fill="#231f20"/>
  <rect x="229.32" y="489.47" width="13.39" height="13.39" fill="#231f20"/>
  <rect x="229.32" y="445.42" width="13.39" height="13.39" fill="#231f20"/>
  <rect x="229.32" y="576.08" width="13.39" height="13.39" fill="#231f20"/>
  <rect x="272.41" y="532.74" width="13.39" height="13.39" fill="#231f20"/>
  <rect x="272.41" y="489.47" width="13.39" height="13.39" fill="#231f20"/>
  <rect x="272.41" y="445.42" width="13.39" height="13.39" fill="#231f20"/>
  <rect x="272.41" y="576.08" width="13.39" height="13.39" fill="#231f20"/>
  <rect x="619.5" y="749.7" width="13.39" height="13.39" fill="#231f20"/>
  <rect x="619.5" y="922.78" width="13.39" height="13.39" fill="#231f20"/>
  <rect x="619.5" y="836.37" width="13.39" height="13.39" fill="#231f20"/>
  <rect x="619.5" y="793.1" width="13.39" height="13.39" fill="#231f20"/>
  <rect x="576.13" y="575.97" width="13.39" height="13.39" fill="#231f20"/>
  <rect x="619.5" y="879.71" width="13.39" height="13.39" fill="#231f20"/>
  <rect x="619.5" y="1051.08" width="13.39" height="13.39" fill="#231f20"/>
  <rect x="619.5" y="964.66" width="13.39" height="13.39" fill="#231f20"/>
  <rect x="619.5" y="1008" width="13.39" height="13.39" fill="#231f20"/>
  <rect x="619.22" y="663.28" width="13.39" height="13.39" fill="#231f20"/>
  <rect x="619.22" y="620.02" width="13.39" height="13.39" fill="#231f20"/>
  <rect x="619.22" y="575.97" width="13.39" height="13.39" fill="#231f20"/>
  <rect x="619.22" y="706.62" width="13.39" height="13.39" fill="#231f20"/>
  <rect x="229.32" y="964.61" width="13.39" height="13.39" fill="#231f20"/>
  <rect x="229.32" y="1007.87" width="13.39" height="13.39" fill="#231f20"/>
  <rect x="229.32" y="1051.21" width="13.39" height="13.39" fill="#231f20"/>
  <rect x="229.32" y="836.06" width="13.39" height="13.39" fill="#231f20"/>
  <rect x="229.32" y="879.32" width="13.39" height="13.39" fill="#231f20"/>
  <rect x="229.32" y="922.66" width="13.39" height="13.39" fill="#231f20"/>
</svg>