<?xml version="1.0" encoding="UTF-8"?>
<svg id="_12" data-name="12" xmlns="http://www.w3.org/2000/svg" viewBox="0 0 1080 1080">
  <rect x="476.58" y="734.8" width="40.84" height="40.84" fill="#231f20"/>
  <rect x="476.58" y="778.52" width="40.84" height="40.84" fill="#231f20"/>
  <rect x="433.38" y="778.52" width="40.84" height="40.84" fill="#231f20"/>
  <rect x="433.38" y="734.8" width="40.84" height="40.84" fill="#231f20"/>
  <rect x="476.58" y="648.43" width="40.84" height="40.84" fill="#231f20"/>
  <rect x="476.58" y="692.14" width="40.84" height="40.84" fill="#231f20"/>
  <rect x="433.38" y="692.14" width="40.84" height="40.84" fill="#231f20"/>
  <rect x="433.38" y="648.43" width="40.84" height="40.84" fill="#231f20"/>
  <rect x="562.81" y="734.8" width="40.84" height="40.84" fill="#231f20"/>
  <rect x="562.81" y="778.52" width="40.84" height="40.84" fill="#231f20"/>
  <rect x="519.61" y="778.52" width="40.84" height="40.84" fill="#231f20"/>
  <rect x="519.61" y="734.8" width="40.84" height="40.84" fill="#231f20"/>
  <rect x="562.81" y="648.43" width="40.84" height="40.84" fill="#231f20"/>
  <rect x="562.81" y="692.14" width="40.84" height="40.84" fill="#231f20"/>
  <rect x="606" y="734.8" width="40.84" height="40.84" fill="#231f20"/>
  <rect x="606" y="778.52" width="40.84" height="40.84" fill="#231f20"/>
  <rect x="649.2" y="734.8" width="40.84" height="40.84" fill="#231f20"/>
  <rect x="649.2" y="778.52" width="40.84" height="40.84" fill="#231f20"/>
  <rect x="562.81" y="821.41" width="40.84" height="40.84" fill="#231f20"/>
  <rect x="562.81" y="865.12" width="40.84" height="40.84" fill="#231f20"/>
  <rect x="606" y="821.41" width="40.84" height="40.84" fill="#231f20"/>
  <rect x="606" y="865.12" width="40.84" height="40.84" fill="#231f20"/>
  <rect x="649.2" y="821.41" width="40.84" height="40.84" fill="#231f20"/>
  <rect x="649.2" y="865.12" width="40.84" height="40.84" fill="#231f20"/>
  <rect x="562.81" y="908.01" width="40.84" height="40.84" fill="#231f20"/>
  <rect x="606" y="908.01" width="40.84" height="40.84" fill="#231f20"/>
  <rect x="649.2" y="908.01" width="40.84" height="40.84" fill="#231f20"/>
  <rect x="562.81" y="950.9" width="40.84" height="40.84" fill="#231f20"/>
  <rect x="562.81" y="994.62" width="40.84" height="40.84" fill="#231f20"/>
  <rect x="606" y="950.9" width="40.84" height="40.84" fill="#231f20"/>
  <rect x="606" y="994.62" width="40.84" height="40.84" fill="#231f20"/>
  <rect x="649.2" y="950.9" width="40.84" height="40.84" fill="#231f20"/>
  <rect x="649.2" y="994.62" width="40.84" height="40.84" fill="#231f20"/>
  <rect x="562.81" y="1037.74" width="40.84" height="40.84" fill="#231f20"/>
  <rect x="606" y="1037.74" width="40.84" height="40.84" fill="#231f20"/>
  <rect x="649.2" y="1037.74" width="40.84" height="40.84" fill="#231f20"/>
  <rect x="606" y="648.43" width="40.84" height="40.84" fill="#231f20"/>
  <rect x="606" y="692.14" width="40.84" height="40.84" fill="#231f20"/>
  <rect x="519.61" y="692.14" width="40.84" height="40.84" fill="#231f20"/>
  <rect x="519.61" y="648.43" width="40.84" height="40.84" fill="#231f20"/>
  <rect x="476.58" y="907.6" width="40.84" height="40.84" fill="#231f20"/>
  <rect x="476.58" y="951.32" width="40.84" height="40.84" fill="#231f20"/>
  <rect x="433.38" y="951.32" width="40.84" height="40.84" fill="#231f20"/>
  <rect x="390.4" y="951.32" width="40.84" height="40.84" fill="#231f20"/>
  <rect x="433.38" y="907.6" width="40.84" height="40.84" fill="#231f20"/>
  <rect x="476.58" y="821.23" width="40.84" height="40.84" fill="#231f20"/>
  <rect x="476.58" y="864.94" width="40.84" height="40.84" fill="#231f20"/>
  <rect x="433.38" y="864.94" width="40.84" height="40.84" fill="#231f20"/>
  <rect x="433.38" y="821.23" width="40.84" height="40.84" fill="#231f20"/>
  <rect x="519.61" y="951.32" width="40.84" height="40.84" fill="#231f20"/>
  <rect x="519.61" y="907.6" width="40.84" height="40.84" fill="#231f20"/>
  <rect x="476.58" y="994.03" width="40.84" height="40.84" fill="#231f20"/>
  <rect x="476.58" y="1037.74" width="40.84" height="40.84" fill="#231f20"/>
  <rect x="433.38" y="1037.74" width="40.84" height="40.84" fill="#231f20"/>
  <rect x="433.38" y="994.03" width="40.84" height="40.84" fill="#231f20"/>
  <rect x="390.4" y="1037.74" width="40.84" height="40.84" fill="#231f20"/>
  <rect x="390.4" y="994.03" width="40.84" height="40.84" fill="#231f20"/>
  <rect x="347.08" y="951.32" width="40.84" height="40.84" fill="#231f20"/>
  <rect x="347.08" y="1037.74" width="40.84" height="40.84" fill="#231f20"/>
  <rect x="347.08" y="994.03" width="40.84" height="40.84" fill="#231f20"/>
  <rect x="303.64" y="951.32" width="40.84" height="40.84" fill="#231f20"/>
  <rect x="303.64" y="1037.74" width="40.84" height="40.84" fill="#231f20"/>
  <rect x="303.64" y="994.03" width="40.84" height="40.84" fill="#231f20"/>
  <rect x="260.36" y="994.03" width="40.84" height="40.84" fill="#231f20"/>
  <rect x="217.17" y="994.03" width="40.84" height="40.84" fill="#231f20"/>
  <rect x="174.19" y="994.03" width="40.84" height="40.84" fill="#231f20"/>
  <rect x="87.39" y="994.42" width="40.84" height="40.84" fill="#231f20"/>
  <rect x="44.36" y="994.42" width="40.84" height="40.84" fill="#231f20"/>
  <rect x="44.5" y="1037.48" width="40.84" height="40.84" fill="#231f20"/>
  <rect x="1.38" y="994.42" width="40.84" height="40.84" fill="#231f20"/>
  <rect x="1.53" y="1037.48" width="40.84" height="40.84" fill="#231f20"/>
  <rect x="519.61" y="1037.74" width="40.84" height="40.84" fill="#231f20"/>
  <rect x="519.61" y="994.03" width="40.84" height="40.84" fill="#231f20"/>
  <rect x="519.61" y="864.94" width="40.84" height="40.84" fill="#231f20"/>
  <rect x="346.83" y="907.6" width="40.84" height="40.84" fill="#231f20"/>
  <rect x="303.64" y="907.6" width="40.84" height="40.84" fill="#231f20"/>
  <rect x="346.83" y="864.94" width="40.84" height="40.84" fill="#231f20"/>
  <rect x="303.64" y="864.94" width="40.84" height="40.84" fill="#231f20"/>
  <rect x="389.87" y="907.6" width="40.84" height="40.84" fill="#231f20"/>
  <rect x="389.87" y="864.94" width="40.84" height="40.84" fill="#231f20"/>
  <rect x="519.61" y="821.23" width="40.84" height="40.84" fill="#231f20"/>
  <rect x="347.15" y="821.23" width="40.84" height="40.84" fill="#231f20"/>
  <rect x="303.96" y="821.23" width="40.84" height="40.84" fill="#231f20"/>
  <rect x="390.19" y="821.23" width="40.84" height="40.84" fill="#231f20"/>
  <rect x="476.58" y="562.02" width="40.84" height="40.84" fill="#231f20"/>
  <rect x="476.58" y="605.73" width="40.84" height="40.84" fill="#231f20"/>
  <rect x="433.38" y="605.73" width="40.84" height="40.84" fill="#231f20"/>
  <rect x="433.38" y="562.02" width="40.84" height="40.84" fill="#231f20"/>
  <rect x="476.58" y="475.64" width="40.84" height="40.84" fill="#231f20"/>
  <rect x="476.58" y="519.36" width="40.84" height="40.84" fill="#231f20"/>
  <rect x="433.38" y="519.36" width="40.84" height="40.84" fill="#231f20"/>
  <rect x="433.38" y="475.64" width="40.84" height="40.84" fill="#231f20"/>
  <rect x="390.17" y="692.14" width="40.84" height="40.84" fill="#231f20"/>
  <rect x="390.17" y="648.43" width="40.84" height="40.84" fill="#231f20"/>
  <rect x="390.17" y="605.73" width="40.84" height="40.84" fill="#231f20"/>
  <rect x="390.17" y="562.02" width="40.84" height="40.84" fill="#231f20"/>
  <rect x="390.17" y="519.36" width="40.84" height="40.84" fill="#231f20"/>
  <rect x="390.17" y="475.64" width="40.84" height="40.84" fill="#231f20"/>
  <rect x="562.81" y="562.02" width="40.84" height="40.84" fill="#231f20"/>
  <rect x="562.81" y="605.73" width="40.84" height="40.84" fill="#231f20"/>
  <rect x="519.61" y="605.73" width="40.84" height="40.84" fill="#231f20"/>
  <rect x="519.61" y="562.02" width="40.84" height="40.84" fill="#231f20"/>
  <rect x="562.81" y="475.64" width="40.84" height="40.84" fill="#231f20"/>
  <rect x="562.81" y="519.36" width="40.84" height="40.84" fill="#231f20"/>
  <rect x="519.61" y="519.36" width="40.84" height="40.84" fill="#231f20"/>
  <rect x="519.61" y="475.64" width="40.84" height="40.84" fill="#231f20"/>
  <rect x="476.58" y="389.23" width="40.84" height="40.84" fill="#231f20"/>
  <rect x="476.58" y="432.95" width="40.84" height="40.84" fill="#231f20"/>
  <rect x="433.38" y="432.95" width="40.84" height="40.84" fill="#231f20"/>
  <rect x="433.38" y="389.23" width="40.84" height="40.84" fill="#231f20"/>
  <rect x="390.17" y="432.95" width="40.84" height="40.84" fill="#231f20"/>
  <rect x="390.17" y="389.23" width="40.84" height="40.84" fill="#231f20"/>
  <rect x="562.81" y="389.23" width="40.84" height="40.84" fill="#231f20"/>
  <rect x="562.81" y="432.95" width="40.84" height="40.84" fill="#231f20"/>
  <rect x="519.61" y="432.95" width="40.84" height="40.84" fill="#231f20"/>
  <rect x="519.61" y="389.23" width="40.84" height="40.84" fill="#231f20"/>
  <rect x="476.58" y="346.53" width="40.84" height="40.84" fill="#231f20"/>
  <rect x="562.81" y="346.53" width="40.84" height="40.84" fill="#231f20"/>
  <rect x="606" y="389.23" width="40.84" height="40.84" fill="#231f20"/>
  <rect x="606" y="432.95" width="40.84" height="40.84" fill="#231f20"/>
  <rect x="606" y="346.53" width="40.84" height="40.84" fill="#231f20"/>
  <rect x="519.61" y="346.53" width="40.84" height="40.84" fill="#231f20"/>
  <rect x="476.58" y="302.84" width="40.84" height="40.84" fill="#231f20"/>
  <rect x="562.81" y="302.84" width="40.84" height="40.84" fill="#231f20"/>
  <rect x="519.61" y="302.84" width="40.84" height="40.84" fill="#231f20"/>
  <rect x="476.58" y="260.14" width="40.84" height="40.84" fill="#231f20"/>
  <rect x="562.81" y="260.14" width="40.84" height="40.84" fill="#231f20"/>
  <rect x="519.61" y="260.14" width="40.84" height="40.84" fill="#231f20"/>
  <rect x="476.58" y="216.85" width="40.84" height="40.84" fill="#231f20"/>
  <rect x="433.38" y="346.53" width="40.84" height="40.84" fill="#231f20"/>
  <rect x="433.38" y="302.84" width="40.84" height="40.84" fill="#231f20"/>
  <rect x="433.38" y="260.14" width="40.84" height="40.84" fill="#231f20"/>
  <rect x="433.38" y="216.85" width="40.84" height="40.84" fill="#231f20"/>
  <rect x="476.58" y="173.57" width="40.84" height="40.84" fill="#231f20"/>
  <rect x="562.81" y="216.85" width="40.84" height="40.84" fill="#231f20"/>
  <rect x="519.61" y="216.85" width="40.84" height="40.84" fill="#231f20"/>
  <rect x="562.81" y="130.33" width="40.84" height="40.84" fill="#231f20"/>
  <rect x="519.61" y="130.33" width="40.84" height="40.84" fill="#231f20"/>
  <rect x="562.81" y="87.05" width="40.84" height="40.84" fill="#231f20"/>
  <rect x="519.61" y="87.05" width="40.84" height="40.84" fill="#231f20"/>
  <rect x="390.17" y=".49" width="40.84" height="40.84" fill="#231f20"/>
  <rect x="346.98" y=".49" width="40.84" height="40.84" fill="#231f20"/>
  <rect x="390.01" y="43.79" width="40.84" height="40.84" fill="#231f20"/>
  <rect x="433.21" y=".49" width="40.84" height="40.84" fill="#231f20"/>
  <rect x="390.17" y="778.52" width="40.84" height="40.84" fill="#231f20"/>
  <rect x="347.08" y="778.52" width="40.84" height="40.84" fill="#231f20"/>
  <rect x="390.17" y="734.8" width="40.84" height="40.84" fill="#231f20"/>
  <rect x="87.56" y="259.65" width="40.84" height="40.84" fill="#231f20"/>
  <rect x="44.36" y="259.65" width="40.84" height="40.84" fill="#231f20"/>
  <rect x="87.56" y="173.27" width="40.84" height="40.84" fill="#231f20"/>
  <rect x="87.56" y="216.99" width="40.84" height="40.84" fill="#231f20"/>
  <rect x="44.36" y="216.99" width="40.84" height="40.84" fill="#231f20"/>
  <rect x="44.36" y="173.27" width="40.84" height="40.84" fill="#231f20"/>
  <rect x="87.56" y="86.86" width="40.84" height="40.84" fill="#231f20"/>
  <rect x="87.56" y="130.58" width="40.84" height="40.84" fill="#231f20"/>
  <rect x="44.36" y="130.58" width="40.84" height="40.84" fill="#231f20"/>
  <rect x="44.36" y="86.86" width="40.84" height="40.84" fill="#231f20"/>
  <rect x="87.56" y=".49" width="40.84" height="40.84" fill="#231f20"/>
  <rect x="87.56" y="44.2" width="40.84" height="40.84" fill="#231f20"/>
  <rect x="130.75" y="259.65" width="40.84" height="40.84" fill="#231f20"/>
  <rect x="130.75" y="173.27" width="40.84" height="40.84" fill="#231f20"/>
  <rect x="130.75" y="216.99" width="40.84" height="40.84" fill="#231f20"/>
  <rect x="173.95" y="259.65" width="40.84" height="40.84" fill="#231f20"/>
  <rect x="173.95" y="173.27" width="40.84" height="40.84" fill="#231f20"/>
  <rect x="173.95" y="216.99" width="40.84" height="40.84" fill="#231f20"/>
  <rect x="130.75" y="86.86" width="40.84" height="40.84" fill="#231f20"/>
  <rect x="130.75" y="130.58" width="40.84" height="40.84" fill="#231f20"/>
  <rect x="130.75" y="44.2" width="40.84" height="40.84" fill="#231f20"/>
  <rect x="44.36" y="44.2" width="40.84" height="40.84" fill="#231f20"/>
  <rect x="44.36" y=".49" width="40.84" height="40.84" fill="#231f20"/>
  <rect x="1.15" y="216.99" width="40.84" height="40.84" fill="#231f20"/>
  <rect x="1.15" y="173.27" width="40.84" height="40.84" fill="#231f20"/>
  <rect x="1.15" y="130.58" width="40.84" height="40.84" fill="#231f20"/>
  <rect x="1.15" y="86.86" width="40.84" height="40.84" fill="#231f20"/>
  <rect x="1.15" y="44.2" width="40.84" height="40.84" fill="#231f20"/>
  <rect x="1.15" y=".49" width="40.84" height="40.84" fill="#231f20"/>
  <rect x="1.15" y="259.65" width="40.84" height="40.84" fill="#231f20"/>
  <rect x="87.56" y="432.42" width="40.84" height="40.84" fill="#231f20"/>
  <rect x="44.36" y="432.42" width="40.84" height="40.84" fill="#231f20"/>
  <rect x="87.56" y="346.05" width="40.84" height="40.84" fill="#231f20"/>
  <rect x="87.56" y="389.76" width="40.84" height="40.84" fill="#231f20"/>
  <rect x="44.36" y="389.76" width="40.84" height="40.84" fill="#231f20"/>
  <rect x="44.36" y="346.05" width="40.84" height="40.84" fill="#231f20"/>
  <rect x="87.56" y="303.35" width="40.84" height="40.84" fill="#231f20"/>
  <rect x="44.36" y="303.35" width="40.84" height="40.84" fill="#231f20"/>
  <rect x="1.15" y="389.76" width="40.84" height="40.84" fill="#231f20"/>
  <rect x="1.15" y="346.05" width="40.84" height="40.84" fill="#231f20"/>
  <rect x="1.15" y="303.35" width="40.84" height="40.84" fill="#231f20"/>
  <rect x="1.15" y="432.42" width="40.84" height="40.84" fill="#231f20"/>
  <rect x="44.36" y="605.22" width="40.84" height="40.84" fill="#231f20"/>
  <rect x="44.36" y="562.56" width="40.84" height="40.84" fill="#231f20"/>
  <rect x="44.36" y="518.85" width="40.84" height="40.84" fill="#231f20"/>
  <rect x="44.36" y="476.15" width="40.84" height="40.84" fill="#231f20"/>
  <rect x="1.15" y="562.56" width="40.84" height="40.84" fill="#231f20"/>
  <rect x="1.15" y="518.85" width="40.84" height="40.84" fill="#231f20"/>
  <rect x="1.15" y="476.15" width="40.84" height="40.84" fill="#231f20"/>
  <rect x="1.15" y="605.22" width="40.84" height="40.84" fill="#231f20"/>
  <rect x="44.36" y="777.96" width="40.84" height="40.84" fill="#231f20"/>
  <rect x="44.36" y="735.3" width="40.84" height="40.84" fill="#231f20"/>
  <rect x="44.36" y="691.58" width="40.84" height="40.84" fill="#231f20"/>
  <rect x="44.36" y="648.88" width="40.84" height="40.84" fill="#231f20"/>
  <rect x="1.15" y="735.3" width="40.84" height="40.84" fill="#231f20"/>
  <rect x="1.15" y="691.58" width="40.84" height="40.84" fill="#231f20"/>
  <rect x="1.15" y="648.88" width="40.84" height="40.84" fill="#231f20"/>
  <rect x="1.15" y="777.96" width="40.84" height="40.84" fill="#231f20"/>
  <rect x="1.15" y="908.16" width="40.84" height="40.84" fill="#231f20"/>
  <rect x="1.15" y="864.45" width="40.84" height="40.84" fill="#231f20"/>
  <rect x="1.15" y="821.75" width="40.84" height="40.84" fill="#231f20"/>
  <rect x="1.15" y="950.82" width="40.84" height="40.84" fill="#231f20"/>
  <rect x="44.36" y="950.82" width="40.84" height="40.84" fill="#231f20"/>
  <rect x="951.54" y="649.03" width="40.84" height="40.84" fill="#231f20"/>
  <rect x="995.09" y="605.64" width="40.84" height="40.84" fill="#231f20"/>
  <rect x="951.54" y="691.6" width="40.84" height="40.84" fill="#231f20"/>
  <rect x="951.54" y="734.8" width="40.84" height="40.84" fill="#231f20"/>
  <rect x="951.54" y="778.52" width="40.84" height="40.84" fill="#231f20"/>
  <rect x="908.37" y="778.52" width="40.84" height="40.84" fill="#231f20"/>
  <rect x="778.78" y="908.01" width="40.84" height="40.84" fill="#231f20"/>
  <rect x="995.09" y="476.2" width="40.84" height="40.84" fill="#231f20"/>
  <rect x="995.09" y="518.78" width="40.84" height="40.84" fill="#231f20"/>
  <rect x="1037.97" y="476.2" width="40.84" height="40.84" fill="#231f20"/>
  <rect x="1037.97" y="518.78" width="40.84" height="40.84" fill="#231f20"/>
  <rect x="995.09" y="389.8" width="40.84" height="40.84" fill="#231f20"/>
  <rect x="995.09" y="432.38" width="40.84" height="40.84" fill="#231f20"/>
  <rect x="995.09" y="303.4" width="40.84" height="40.84" fill="#231f20"/>
  <rect x="995.09" y="345.98" width="40.84" height="40.84" fill="#231f20"/>
  <rect x="995.09" y="217" width="40.84" height="40.84" fill="#231f20"/>
  <rect x="995.09" y="259.58" width="40.84" height="40.84" fill="#231f20"/>
  <rect x="951.87" y="217" width="40.84" height="40.84" fill="#231f20"/>
  <rect x="951.87" y="259.58" width="40.84" height="40.84" fill="#231f20"/>
  <rect x="1037.97" y="389.8" width="40.84" height="40.84" fill="#231f20"/>
  <rect x="1037.97" y="432.38" width="40.84" height="40.84" fill="#231f20"/>
  <rect x="1037.97" y="303.4" width="40.84" height="40.84" fill="#231f20"/>
  <rect x="1037.97" y="345.98" width="40.84" height="40.84" fill="#231f20"/>
  <rect x="1037.97" y="217" width="40.84" height="40.84" fill="#231f20"/>
  <rect x="1037.97" y="259.58" width="40.84" height="40.84" fill="#231f20"/>
  <rect x="1037.97" y="173.41" width="40.84" height="40.84" fill="#231f20"/>
  <rect x="1037.97" y="87.01" width="40.84" height="40.84" fill="#231f20"/>
  <rect x="1037.97" y="130.34" width="40.84" height="40.84" fill="#231f20"/>
  <rect x="1037.97" y=".61" width="40.84" height="40.84" fill="#231f20"/>
  <rect x="1037.97" y="43.81" width="40.84" height="40.84" fill="#231f20"/>
  <rect x="995.09" y="173.41" width="40.84" height="40.84" fill="#231f20"/>
  <rect x="995.09" y="87.01" width="40.84" height="40.84" fill="#231f20"/>
  <rect x="995.09" y="130.34" width="40.84" height="40.84" fill="#231f20"/>
  <rect x="995.09" y=".61" width="40.84" height="40.84" fill="#231f20"/>
  <rect x="995.09" y="43.81" width="40.84" height="40.84" fill="#231f20"/>
  <rect x="359.32" y="749.51" width="13.39" height="13.39" fill="#231f20"/>
  <rect x="359.32" y="705.31" width="13.39" height="13.39" fill="#231f20"/>
  <rect x="359.32" y="662.15" width="13.39" height="13.39" fill="#231f20"/>
  <rect x="317.47" y="749.51" width="13.39" height="13.39" fill="#231f20"/>
  <rect x="274.2" y="749.51" width="13.39" height="13.39" fill="#231f20"/>
  <rect x="230.87" y="749.51" width="13.39" height="13.39" fill="#231f20"/>
  <rect x="274.2" y="834.95" width="13.39" height="13.39" fill="#231f20"/>
  <rect x="317.47" y="792.24" width="13.39" height="13.39" fill="#231f20"/>
  <rect x="274.2" y="792.24" width="13.39" height="13.39" fill="#231f20"/>
  <rect x="274.2" y="920.44" width="13.39" height="13.39" fill="#231f20"/>
  <rect x="274.2" y="964.55" width="13.39" height="13.39" fill="#231f20"/>
  <rect x="274.2" y="877.73" width="13.39" height="13.39" fill="#231f20"/>
  <rect x="230.87" y="792.24" width="13.39" height="13.39" fill="#231f20"/>
  <rect x="187.8" y="749.51" width="13.39" height="13.39" fill="#231f20"/>
  <rect x="144.47" y="749.51" width="13.39" height="13.39" fill="#231f20"/>
  <rect x="187.8" y="792.24" width="13.39" height="13.39" fill="#231f20"/>
  <rect x="144.47" y="792.24" width="13.39" height="13.39" fill="#231f20"/>
  <rect x="103.3" y="749.51" width="13.39" height="13.39" fill="#231f20"/>
  <rect x="103.3" y="792.24" width="13.39" height="13.39" fill="#231f20"/>
  <rect x="317.47" y="662.15" width="13.39" height="13.39" fill="#231f20"/>
  <rect x="274.2" y="662.15" width="13.39" height="13.39" fill="#231f20"/>
  <rect x="230.87" y="662.15" width="13.39" height="13.39" fill="#231f20"/>
  <rect x="317.47" y="705.31" width="13.39" height="13.39" fill="#231f20"/>
  <rect x="274.2" y="705.31" width="13.39" height="13.39" fill="#231f20"/>
  <rect x="230.87" y="705.31" width="13.39" height="13.39" fill="#231f20"/>
  <rect x="187.8" y="662.15" width="13.39" height="13.39" fill="#231f20"/>
  <rect x="144.47" y="662.15" width="13.39" height="13.39" fill="#231f20"/>
  <rect x="187.8" y="705.31" width="13.39" height="13.39" fill="#231f20"/>
  <rect x="144.47" y="705.31" width="13.39" height="13.39" fill="#231f20"/>
  <rect x="103.3" y="662.15" width="13.39" height="13.39" fill="#231f20"/>
  <rect x="359.32" y="619.46" width="13.39" height="13.39" fill="#231f20"/>
  <rect x="317.47" y="619.46" width="13.39" height="13.39" fill="#231f20"/>
  <rect x="274.2" y="619.46" width="13.39" height="13.39" fill="#231f20"/>
  <rect x="230.87" y="619.46" width="13.39" height="13.39" fill="#231f20"/>
  <rect x="187.8" y="619.46" width="13.39" height="13.39" fill="#231f20"/>
  <rect x="144.47" y="619.46" width="13.39" height="13.39" fill="#231f20"/>
  <rect x="103.3" y="619.46" width="13.39" height="13.39" fill="#231f20"/>
  <rect x="359.32" y="575.74" width="13.39" height="13.39" fill="#231f20"/>
  <rect x="317.47" y="575.74" width="13.39" height="13.39" fill="#231f20"/>
  <rect x="274.2" y="575.74" width="13.39" height="13.39" fill="#231f20"/>
  <rect x="230.87" y="575.74" width="13.39" height="13.39" fill="#231f20"/>
  <rect x="187.8" y="575.74" width="13.39" height="13.39" fill="#231f20"/>
  <rect x="144.47" y="575.74" width="13.39" height="13.39" fill="#231f20"/>
  <rect x="103.3" y="575.74" width="13.39" height="13.39" fill="#231f20"/>
  <rect x="359.32" y="533.07" width="13.39" height="13.39" fill="#231f20"/>
  <rect x="317.47" y="533.07" width="13.39" height="13.39" fill="#231f20"/>
  <rect x="274.2" y="533.07" width="13.39" height="13.39" fill="#231f20"/>
  <rect x="230.87" y="533.07" width="13.39" height="13.39" fill="#231f20"/>
  <rect x="187.8" y="533.07" width="13.39" height="13.39" fill="#231f20"/>
  <rect x="144.47" y="533.07" width="13.39" height="13.39" fill="#231f20"/>
  <rect x="103.3" y="533.07" width="13.39" height="13.39" fill="#231f20"/>
  <rect x="359.32" y="489.35" width="13.39" height="13.39" fill="#231f20"/>
  <rect x="317.47" y="489.35" width="13.39" height="13.39" fill="#231f20"/>
  <rect x="274.2" y="489.35" width="13.39" height="13.39" fill="#231f20"/>
  <rect x="230.87" y="489.35" width="13.39" height="13.39" fill="#231f20"/>
  <rect x="187.8" y="489.35" width="13.39" height="13.39" fill="#231f20"/>
  <rect x="144.47" y="489.35" width="13.39" height="13.39" fill="#231f20"/>
  <rect x="359.32" y="448.12" width="13.39" height="13.39" fill="#231f20"/>
  <rect x="317.47" y="448.12" width="13.39" height="13.39" fill="#231f20"/>
  <rect x="274.2" y="448.12" width="13.39" height="13.39" fill="#231f20"/>
  <rect x="230.87" y="448.12" width="13.39" height="13.39" fill="#231f20"/>
  <rect x="187.8" y="448.12" width="13.39" height="13.39" fill="#231f20"/>
  <rect x="144.47" y="448.12" width="13.39" height="13.39" fill="#231f20"/>
  <rect x="359.32" y="404.4" width="13.39" height="13.39" fill="#231f20"/>
  <rect x="317.47" y="404.4" width="13.39" height="13.39" fill="#231f20"/>
  <rect x="274.2" y="404.4" width="13.39" height="13.39" fill="#231f20"/>
  <rect x="230.87" y="404.4" width="13.39" height="13.39" fill="#231f20"/>
  <rect x="187.8" y="404.4" width="13.39" height="13.39" fill="#231f20"/>
  <rect x="144.47" y="404.4" width="13.39" height="13.39" fill="#231f20"/>
  <rect x="359.32" y="361.73" width="13.39" height="13.39" fill="#231f20"/>
  <rect x="317.47" y="361.73" width="13.39" height="13.39" fill="#231f20"/>
  <rect x="274.2" y="361.73" width="13.39" height="13.39" fill="#231f20"/>
  <rect x="230.87" y="361.73" width="13.39" height="13.39" fill="#231f20"/>
  <rect x="187.8" y="361.73" width="13.39" height="13.39" fill="#231f20"/>
  <rect x="144.47" y="361.73" width="13.39" height="13.39" fill="#231f20"/>
  <rect x="359.32" y="318.02" width="13.39" height="13.39" fill="#231f20"/>
  <rect x="403.74" y="361.73" width="13.39" height="13.39" fill="#231f20"/>
  <rect x="403.74" y="318.02" width="13.39" height="13.39" fill="#231f20"/>
  <rect x="317.47" y="318.02" width="13.39" height="13.39" fill="#231f20"/>
  <rect x="274.2" y="318.02" width="13.39" height="13.39" fill="#231f20"/>
  <rect x="230.87" y="318.02" width="13.39" height="13.39" fill="#231f20"/>
  <rect x="359.32" y="186.33" width="13.39" height="13.39" fill="#231f20"/>
  <rect x="317.47" y="186.33" width="13.39" height="13.39" fill="#231f20"/>
  <rect x="274.2" y="186.33" width="13.39" height="13.39" fill="#231f20"/>
  <rect x="230.87" y="186.33" width="13.39" height="13.39" fill="#231f20"/>
  <rect x="359.32" y="142.62" width="13.39" height="13.39" fill="#231f20"/>
  <rect x="403.74" y="186.33" width="13.39" height="13.39" fill="#231f20"/>
  <rect x="403.74" y="142.62" width="13.39" height="13.39" fill="#231f20"/>
  <rect x="448.47" y="186.33" width="13.39" height="13.39" fill="#231f20"/>
  <rect x="448.47" y="142.62" width="13.39" height="13.39" fill="#231f20"/>
  <rect x="490.3" y="142.62" width="13.39" height="13.39" fill="#231f20"/>
  <rect x="317.47" y="142.62" width="13.39" height="13.39" fill="#231f20"/>
  <rect x="274.2" y="142.62" width="13.39" height="13.39" fill="#231f20"/>
  <rect x="230.87" y="142.62" width="13.39" height="13.39" fill="#231f20"/>
  <rect x="187.8" y="142.62" width="13.39" height="13.39" fill="#231f20"/>
  <rect x="359.32" y="100.58" width="13.39" height="13.39" fill="#231f20"/>
  <rect x="403.74" y="100.58" width="13.39" height="13.39" fill="#231f20"/>
  <rect x="448.47" y="100.58" width="13.39" height="13.39" fill="#231f20"/>
  <rect x="490.3" y="100.58" width="13.39" height="13.39" fill="#231f20"/>
  <rect x="448.47" y="58.46" width="13.39" height="13.39" fill="#231f20"/>
  <rect x="490.3" y="56.27" width="13.39" height="13.39" fill="#231f20"/>
  <rect x="317.47" y="100.58" width="13.39" height="13.39" fill="#231f20"/>
  <rect x="274.2" y="100.58" width="13.39" height="13.39" fill="#231f20"/>
  <rect x="230.87" y="100.58" width="13.39" height="13.39" fill="#231f20"/>
  <rect x="187.8" y="100.58" width="13.39" height="13.39" fill="#231f20"/>
  <rect x="359.32" y="58.46" width="13.39" height="13.39" fill="#231f20"/>
  <rect x="317.47" y="58.46" width="13.39" height="13.39" fill="#231f20"/>
  <rect x="274.2" y="58.46" width="13.39" height="13.39" fill="#231f20"/>
  <rect x="230.87" y="58.46" width="13.39" height="13.39" fill="#231f20"/>
  <rect x="187.8" y="58.46" width="13.39" height="13.39" fill="#231f20"/>
  <rect x="317.47" y="14.21" width="13.39" height="13.39" fill="#231f20"/>
  <rect x="274.2" y="14.21" width="13.39" height="13.39" fill="#231f20"/>
  <rect x="230.87" y="14.21" width="13.39" height="13.39" fill="#231f20"/>
  <rect x="187.8" y="14.21" width="13.39" height="13.39" fill="#231f20"/>
  <rect x="144.48" y="14.21" width="13.39" height="13.39" fill="#231f20"/>
  <rect x="359.32" y="274.81" width="13.39" height="13.39" fill="#231f20"/>
  <rect x="317.47" y="274.81" width="13.39" height="13.39" fill="#231f20"/>
  <rect x="274.2" y="274.81" width="13.39" height="13.39" fill="#231f20"/>
  <rect x="230.87" y="274.81" width="13.39" height="13.39" fill="#231f20"/>
  <rect x="359.32" y="231.09" width="13.39" height="13.39" fill="#231f20"/>
  <rect x="403.74" y="274.81" width="13.39" height="13.39" fill="#231f20"/>
  <rect x="403.74" y="231.09" width="13.39" height="13.39" fill="#231f20"/>
  <rect x="317.47" y="231.09" width="13.39" height="13.39" fill="#231f20"/>
  <rect x="274.2" y="231.09" width="13.39" height="13.39" fill="#231f20"/>
  <rect x="230.87" y="231.09" width="13.39" height="13.39" fill="#231f20"/>
  <rect x="187.8" y="318.02" width="13.39" height="13.39" fill="#231f20"/>
  <rect x="144.47" y="318.02" width="13.39" height="13.39" fill="#231f20"/>
  <rect x="103.3" y="489.35" width="13.39" height="13.39" fill="#231f20"/>
  <rect x="103.3" y="705.31" width="13.39" height="13.39" fill="#231f20"/>
  <rect x="920.52" y="706.37" width="13.39" height="13.39" fill="#231f20"/>
  <rect x="920.52" y="662.16" width="13.39" height="13.39" fill="#231f20"/>
  <rect x="920.52" y="619.01" width="13.39" height="13.39" fill="#231f20"/>
  <rect x="878.66" y="706.37" width="13.39" height="13.39" fill="#231f20"/>
  <rect x="835.4" y="706.37" width="13.39" height="13.39" fill="#231f20"/>
  <rect x="792.07" y="706.37" width="13.39" height="13.39" fill="#231f20"/>
  <rect x="749" y="706.37" width="13.39" height="13.39" fill="#231f20"/>
  <rect x="705.67" y="706.37" width="13.39" height="13.39" fill="#231f20"/>
  <rect x="920.52" y="748.53" width="13.39" height="13.39" fill="#231f20"/>
  <rect x="878.66" y="748.53" width="13.39" height="13.39" fill="#231f20"/>
  <rect x="835.4" y="748.53" width="13.39" height="13.39" fill="#231f20"/>
  <rect x="792.07" y="748.53" width="13.39" height="13.39" fill="#231f20"/>
  <rect x="749" y="748.53" width="13.39" height="13.39" fill="#231f20"/>
  <rect x="705.67" y="748.53" width="13.39" height="13.39" fill="#231f20"/>
  <rect x="878.66" y="792.24" width="13.39" height="13.39" fill="#231f20"/>
  <rect x="835.4" y="792.24" width="13.39" height="13.39" fill="#231f20"/>
  <rect x="792.07" y="792.24" width="13.39" height="13.39" fill="#231f20"/>
  <rect x="749" y="792.24" width="13.39" height="13.39" fill="#231f20"/>
  <rect x="705.67" y="792.24" width="13.39" height="13.39" fill="#231f20"/>
  <rect x="878.66" y="833.51" width="13.39" height="13.39" fill="#231f20"/>
  <rect x="835.4" y="833.51" width="13.39" height="13.39" fill="#231f20"/>
  <rect x="792.07" y="833.51" width="13.39" height="13.39" fill="#231f20"/>
  <rect x="749" y="833.51" width="13.39" height="13.39" fill="#231f20"/>
  <rect x="705.67" y="833.51" width="13.39" height="13.39" fill="#231f20"/>
  <rect x="878.66" y="877.23" width="13.39" height="13.39" fill="#231f20"/>
  <rect x="835.4" y="877.23" width="13.39" height="13.39" fill="#231f20"/>
  <rect x="792.07" y="877.23" width="13.39" height="13.39" fill="#231f20"/>
  <rect x="749" y="877.23" width="13.39" height="13.39" fill="#231f20"/>
  <rect x="1052.89" y="833.51" width="13.39" height="13.39" fill="#231f20"/>
  <rect x="1010.22" y="833.51" width="13.39" height="13.39" fill="#231f20"/>
  <rect x="966.63" y="833.51" width="13.39" height="13.39" fill="#231f20"/>
  <rect x="923.56" y="833.51" width="13.39" height="13.39" fill="#231f20"/>
  <rect x="1052.89" y="877.23" width="13.39" height="13.39" fill="#231f20"/>
  <rect x="1010.22" y="877.23" width="13.39" height="13.39" fill="#231f20"/>
  <rect x="966.63" y="877.23" width="13.39" height="13.39" fill="#231f20"/>
  <rect x="923.56" y="877.23" width="13.39" height="13.39" fill="#231f20"/>
  <rect x="878.66" y="919.89" width="13.39" height="13.39" fill="#231f20"/>
  <rect x="835.4" y="919.89" width="13.39" height="13.39" fill="#231f20"/>
  <rect x="878.66" y="963.6" width="13.39" height="13.39" fill="#231f20"/>
  <rect x="835.4" y="963.6" width="13.39" height="13.39" fill="#231f20"/>
  <rect x="793.18" y="963.6" width="13.39" height="13.39" fill="#231f20"/>
  <rect x="1052.89" y="919.89" width="13.39" height="13.39" fill="#231f20"/>
  <rect x="1010.22" y="919.89" width="13.39" height="13.39" fill="#231f20"/>
  <rect x="966.63" y="919.89" width="13.39" height="13.39" fill="#231f20"/>
  <rect x="923.56" y="919.89" width="13.39" height="13.39" fill="#231f20"/>
  <rect x="1052.89" y="963.6" width="13.39" height="13.39" fill="#231f20"/>
  <rect x="1010.22" y="963.6" width="13.39" height="13.39" fill="#231f20"/>
  <rect x="966.63" y="963.6" width="13.39" height="13.39" fill="#231f20"/>
  <rect x="923.56" y="963.6" width="13.39" height="13.39" fill="#231f20"/>
  <rect x="878.66" y="1006.1" width="13.39" height="13.39" fill="#231f20"/>
  <rect x="835.4" y="1006.1" width="13.39" height="13.39" fill="#231f20"/>
  <rect x="793.18" y="1006.1" width="13.39" height="13.39" fill="#231f20"/>
  <rect x="1052.89" y="1006.1" width="13.39" height="13.39" fill="#231f20"/>
  <rect x="1010.22" y="1006.1" width="13.39" height="13.39" fill="#231f20"/>
  <rect x="966.63" y="1006.1" width="13.39" height="13.39" fill="#231f20"/>
  <rect x="923.56" y="1006.1" width="13.39" height="13.39" fill="#231f20"/>
  <rect x="878.66" y="1049.81" width="13.39" height="13.39" fill="#231f20"/>
  <rect x="835.4" y="1049.81" width="13.39" height="13.39" fill="#231f20"/>
  <rect x="793.18" y="1049.81" width="13.39" height="13.39" fill="#231f20"/>
  <rect x="1052.89" y="1049.81" width="13.39" height="13.39" fill="#231f20"/>
  <rect x="1010.22" y="1049.81" width="13.39" height="13.39" fill="#231f20"/>
  <rect x="966.63" y="1049.81" width="13.39" height="13.39" fill="#231f20"/>
  <rect x="923.56" y="1049.81" width="13.39" height="13.39" fill="#231f20"/>
  <rect x="705.67" y="877.23" width="13.39" height="13.39" fill="#231f20"/>
  <rect x="749" y="921.11" width="13.39" height="13.39" fill="#231f20"/>
  <rect x="705.67" y="921.11" width="13.39" height="13.39" fill="#231f20"/>
  <rect x="749" y="964.83" width="13.39" height="13.39" fill="#231f20"/>
  <rect x="705.67" y="964.83" width="13.39" height="13.39" fill="#231f20"/>
  <rect x="749" y="1006.1" width="13.39" height="13.39" fill="#231f20"/>
  <rect x="705.67" y="1006.1" width="13.39" height="13.39" fill="#231f20"/>
  <rect x="749" y="1049.81" width="13.39" height="13.39" fill="#231f20"/>
  <rect x="705.67" y="1049.81" width="13.39" height="13.39" fill="#231f20"/>
  <rect x="664.5" y="706.37" width="13.39" height="13.39" fill="#231f20"/>
  <rect x="878.66" y="619.01" width="13.39" height="13.39" fill="#231f20"/>
  <rect x="835.4" y="619.01" width="13.39" height="13.39" fill="#231f20"/>
  <rect x="792.07" y="619.01" width="13.39" height="13.39" fill="#231f20"/>
  <rect x="878.66" y="662.16" width="13.39" height="13.39" fill="#231f20"/>
  <rect x="1052.89" y="750.71" width="13.39" height="13.39" fill="#231f20"/>
  <rect x="1052.89" y="706.5" width="13.39" height="13.39" fill="#231f20"/>
  <rect x="1052.89" y="663.35" width="13.39" height="13.39" fill="#231f20"/>
  <rect x="1052.89" y="619.83" width="13.39" height="13.39" fill="#231f20"/>
  <rect x="1010.22" y="750.71" width="13.39" height="13.39" fill="#231f20"/>
  <rect x="1052.89" y="792.87" width="13.39" height="13.39" fill="#231f20"/>
  <rect x="1010.22" y="792.87" width="13.39" height="13.39" fill="#231f20"/>
  <rect x="1010.22" y="663.35" width="13.39" height="13.39" fill="#231f20"/>
  <rect x="1010.22" y="706.5" width="13.39" height="13.39" fill="#231f20"/>
  <rect x="835.4" y="662.16" width="13.39" height="13.39" fill="#231f20"/>
  <rect x="792.07" y="662.16" width="13.39" height="13.39" fill="#231f20"/>
  <rect x="749" y="619.01" width="13.39" height="13.39" fill="#231f20"/>
  <rect x="705.67" y="619.01" width="13.39" height="13.39" fill="#231f20"/>
  <rect x="749" y="662.16" width="13.39" height="13.39" fill="#231f20"/>
  <rect x="705.67" y="662.16" width="13.39" height="13.39" fill="#231f20"/>
  <rect x="664.5" y="619.01" width="13.39" height="13.39" fill="#231f20"/>
  <rect x="920.52" y="576.31" width="13.39" height="13.39" fill="#231f20"/>
  <rect x="878.66" y="576.31" width="13.39" height="13.39" fill="#231f20"/>
  <rect x="835.4" y="576.31" width="13.39" height="13.39" fill="#231f20"/>
  <rect x="792.07" y="576.31" width="13.39" height="13.39" fill="#231f20"/>
  <rect x="749" y="576.31" width="13.39" height="13.39" fill="#231f20"/>
  <rect x="705.67" y="576.31" width="13.39" height="13.39" fill="#231f20"/>
  <rect x="664.5" y="576.31" width="13.39" height="13.39" fill="#231f20"/>
  <rect x="920.52" y="532.6" width="13.39" height="13.39" fill="#231f20"/>
  <rect x="878.66" y="532.6" width="13.39" height="13.39" fill="#231f20"/>
  <rect x="835.4" y="532.6" width="13.39" height="13.39" fill="#231f20"/>
  <rect x="792.07" y="532.6" width="13.39" height="13.39" fill="#231f20"/>
  <rect x="749" y="532.6" width="13.39" height="13.39" fill="#231f20"/>
  <rect x="705.67" y="532.6" width="13.39" height="13.39" fill="#231f20"/>
  <rect x="664.5" y="532.6" width="13.39" height="13.39" fill="#231f20"/>
  <rect x="920.52" y="489.92" width="13.39" height="13.39" fill="#231f20"/>
  <rect x="878.66" y="489.92" width="13.39" height="13.39" fill="#231f20"/>
  <rect x="835.4" y="489.92" width="13.39" height="13.39" fill="#231f20"/>
  <rect x="792.07" y="489.92" width="13.39" height="13.39" fill="#231f20"/>
  <rect x="749" y="489.92" width="13.39" height="13.39" fill="#231f20"/>
  <rect x="705.67" y="489.92" width="13.39" height="13.39" fill="#231f20"/>
  <rect x="664.5" y="489.92" width="13.39" height="13.39" fill="#231f20"/>
  <rect x="619.73" y="619.01" width="13.39" height="13.39" fill="#231f20"/>
  <rect x="619.73" y="576.31" width="13.39" height="13.39" fill="#231f20"/>
  <rect x="619.73" y="532.6" width="13.39" height="13.39" fill="#231f20"/>
  <rect x="619.73" y="489.92" width="13.39" height="13.39" fill="#231f20"/>
  <rect x="920.52" y="446.21" width="13.39" height="13.39" fill="#231f20"/>
  <rect x="965.26" y="619.01" width="13.39" height="13.39" fill="#231f20"/>
  <rect x="965.26" y="576.31" width="13.39" height="13.39" fill="#231f20"/>
  <rect x="1010.92" y="576.31" width="13.39" height="13.39" fill="#231f20"/>
  <rect x="1052.89" y="576.31" width="13.39" height="13.39" fill="#231f20"/>
  <rect x="965.26" y="532.6" width="13.39" height="13.39" fill="#231f20"/>
  <rect x="965.26" y="489.92" width="13.39" height="13.39" fill="#231f20"/>
  <rect x="965.26" y="446.21" width="13.39" height="13.39" fill="#231f20"/>
  <rect x="878.66" y="446.21" width="13.39" height="13.39" fill="#231f20"/>
  <rect x="835.4" y="446.21" width="13.39" height="13.39" fill="#231f20"/>
  <rect x="792.07" y="446.21" width="13.39" height="13.39" fill="#231f20"/>
  <rect x="749" y="446.21" width="13.39" height="13.39" fill="#231f20"/>
  <rect x="705.67" y="446.21" width="13.39" height="13.39" fill="#231f20"/>
  <rect x="664.5" y="446.21" width="13.39" height="13.39" fill="#231f20"/>
  <rect x="920.52" y="404.93" width="13.39" height="13.39" fill="#231f20"/>
  <rect x="878.66" y="404.93" width="13.39" height="13.39" fill="#231f20"/>
  <rect x="835.4" y="404.93" width="13.39" height="13.39" fill="#231f20"/>
  <rect x="792.07" y="404.93" width="13.39" height="13.39" fill="#231f20"/>
  <rect x="749" y="404.93" width="13.39" height="13.39" fill="#231f20"/>
  <rect x="705.67" y="404.93" width="13.39" height="13.39" fill="#231f20"/>
  <rect x="664.5" y="404.93" width="13.39" height="13.39" fill="#231f20"/>
  <rect x="920.52" y="362.25" width="13.39" height="13.39" fill="#231f20"/>
  <rect x="878.66" y="362.25" width="13.39" height="13.39" fill="#231f20"/>
  <rect x="835.4" y="362.25" width="13.39" height="13.39" fill="#231f20"/>
  <rect x="792.07" y="362.25" width="13.39" height="13.39" fill="#231f20"/>
  <rect x="749" y="362.25" width="13.39" height="13.39" fill="#231f20"/>
  <rect x="705.67" y="362.25" width="13.39" height="13.39" fill="#231f20"/>
  <rect x="664.5" y="362.25" width="13.39" height="13.39" fill="#231f20"/>
  <rect x="920.52" y="318.54" width="13.39" height="13.39" fill="#231f20"/>
  <rect x="965.26" y="404.93" width="13.39" height="13.39" fill="#231f20"/>
  <rect x="965.26" y="362.25" width="13.39" height="13.39" fill="#231f20"/>
  <rect x="965.26" y="318.54" width="13.39" height="13.39" fill="#231f20"/>
  <rect x="878.66" y="318.54" width="13.39" height="13.39" fill="#231f20"/>
  <rect x="835.4" y="318.54" width="13.39" height="13.39" fill="#231f20"/>
  <rect x="792.07" y="318.54" width="13.39" height="13.39" fill="#231f20"/>
  <rect x="749" y="318.54" width="13.39" height="13.39" fill="#231f20"/>
  <rect x="705.67" y="318.54" width="13.39" height="13.39" fill="#231f20"/>
  <rect x="664.5" y="318.54" width="13.39" height="13.39" fill="#231f20"/>
  <rect x="920.52" y="271.55" width="13.39" height="13.39" fill="#231f20"/>
  <rect x="878.66" y="271.55" width="13.39" height="13.39" fill="#231f20"/>
  <rect x="835.4" y="271.55" width="13.39" height="13.39" fill="#231f20"/>
  <rect x="792.07" y="271.55" width="13.39" height="13.39" fill="#231f20"/>
  <rect x="749" y="271.55" width="13.39" height="13.39" fill="#231f20"/>
  <rect x="705.67" y="271.55" width="13.39" height="13.39" fill="#231f20"/>
  <rect x="664.5" y="271.55" width="13.39" height="13.39" fill="#231f20"/>
  <rect x="920.52" y="230.27" width="13.39" height="13.39" fill="#231f20"/>
  <rect x="878.66" y="230.27" width="13.39" height="13.39" fill="#231f20"/>
  <rect x="835.4" y="230.27" width="13.39" height="13.39" fill="#231f20"/>
  <rect x="792.07" y="230.27" width="13.39" height="13.39" fill="#231f20"/>
  <rect x="749" y="230.27" width="13.39" height="13.39" fill="#231f20"/>
  <rect x="705.67" y="230.27" width="13.39" height="13.39" fill="#231f20"/>
  <rect x="664.5" y="230.27" width="13.39" height="13.39" fill="#231f20"/>
  <rect x="920.52" y="187.6" width="13.39" height="13.39" fill="#231f20"/>
  <rect x="878.66" y="187.6" width="13.39" height="13.39" fill="#231f20"/>
  <rect x="835.4" y="187.6" width="13.39" height="13.39" fill="#231f20"/>
  <rect x="792.07" y="187.6" width="13.39" height="13.39" fill="#231f20"/>
  <rect x="749" y="187.6" width="13.39" height="13.39" fill="#231f20"/>
  <rect x="705.67" y="187.6" width="13.39" height="13.39" fill="#231f20"/>
  <rect x="664.5" y="187.6" width="13.39" height="13.39" fill="#231f20"/>
  <rect x="920.52" y="143.88" width="13.39" height="13.39" fill="#231f20"/>
  <rect x="965.6" y="187.6" width="13.39" height="13.39" fill="#231f20"/>
  <rect x="965.6" y="143.88" width="13.39" height="13.39" fill="#231f20"/>
  <rect x="878.66" y="143.88" width="13.39" height="13.39" fill="#231f20"/>
  <rect x="835.4" y="143.88" width="13.39" height="13.39" fill="#231f20"/>
  <rect x="792.07" y="143.88" width="13.39" height="13.39" fill="#231f20"/>
  <rect x="749" y="143.88" width="13.39" height="13.39" fill="#231f20"/>
  <rect x="705.67" y="143.88" width="13.39" height="13.39" fill="#231f20"/>
  <rect x="664.5" y="143.88" width="13.39" height="13.39" fill="#231f20"/>
  <rect x="619.73" y="318.54" width="13.39" height="13.39" fill="#231f20"/>
  <rect x="619.73" y="271.55" width="13.39" height="13.39" fill="#231f20"/>
  <rect x="619.73" y="230.27" width="13.39" height="13.39" fill="#231f20"/>
  <rect x="619.73" y="187.6" width="13.39" height="13.39" fill="#231f20"/>
  <rect x="576.14" y="187.6" width="13.39" height="13.39" fill="#231f20"/>
  <rect x="531.37" y="187.6" width="13.39" height="13.39" fill="#231f20"/>
  <rect x="619.73" y="143.88" width="13.39" height="13.39" fill="#231f20"/>
  <rect x="920.52" y="99.79" width="13.39" height="13.39" fill="#231f20"/>
  <rect x="878.66" y="99.79" width="13.39" height="13.39" fill="#231f20"/>
  <rect x="835.4" y="99.79" width="13.39" height="13.39" fill="#231f20"/>
  <rect x="792.07" y="99.79" width="13.39" height="13.39" fill="#231f20"/>
  <rect x="749" y="99.79" width="13.39" height="13.39" fill="#231f20"/>
  <rect x="705.67" y="99.79" width="13.39" height="13.39" fill="#231f20"/>
  <rect x="664.5" y="99.79" width="13.39" height="13.39" fill="#231f20"/>
  <rect x="920.52" y="56.27" width="13.39" height="13.39" fill="#231f20"/>
  <rect x="965.6" y="99.79" width="13.39" height="13.39" fill="#231f20"/>
  <rect x="965.6" y="56.27" width="13.39" height="13.39" fill="#231f20"/>
  <rect x="878.66" y="56.27" width="13.39" height="13.39" fill="#231f20"/>
  <rect x="835.4" y="56.27" width="13.39" height="13.39" fill="#231f20"/>
  <rect x="792.07" y="56.27" width="13.39" height="13.39" fill="#231f20"/>
  <rect x="749" y="56.27" width="13.39" height="13.39" fill="#231f20"/>
  <rect x="705.67" y="56.27" width="13.39" height="13.39" fill="#231f20"/>
  <rect x="664.5" y="56.27" width="13.39" height="13.39" fill="#231f20"/>
  <rect x="619.73" y="99.79" width="13.39" height="13.39" fill="#231f20"/>
  <rect x="619.73" y="56.27" width="13.39" height="13.39" fill="#231f20"/>
  <rect x="576.14" y="56.27" width="13.39" height="13.39" fill="#231f20"/>
  <rect x="531.37" y="56.27" width="13.39" height="13.39" fill="#231f20"/>
  <rect x="490.3" y="14.33" width="13.39" height="13.39" fill="#231f20"/>
  <rect x="920.52" y="14.33" width="13.39" height="13.39" fill="#231f20"/>
  <rect x="965.6" y="14.33" width="13.39" height="13.39" fill="#231f20"/>
  <rect x="878.66" y="14.33" width="13.39" height="13.39" fill="#231f20"/>
  <rect x="835.4" y="14.33" width="13.39" height="13.39" fill="#231f20"/>
  <rect x="792.07" y="14.33" width="13.39" height="13.39" fill="#231f20"/>
  <rect x="749" y="14.33" width="13.39" height="13.39" fill="#231f20"/>
  <rect x="705.67" y="14.33" width="13.39" height="13.39" fill="#231f20"/>
  <rect x="664.5" y="14.33" width="13.39" height="13.39" fill="#231f20"/>
  <rect x="619.73" y="14.33" width="13.39" height="13.39" fill="#231f20"/>
  <rect x="576.14" y="14.33" width="13.39" height="13.39" fill="#231f20"/>
  <rect x="531.37" y="14.33" width="13.39" height="13.39" fill="#231f20"/>
  <rect x="664.5" y="662.16" width="13.39" height="13.39" fill="#231f20"/>
  <rect x="230.87" y="835.45" width="13.39" height="13.39" fill="#231f20"/>
  <rect x="230.87" y="878.17" width="13.39" height="13.39" fill="#231f20"/>
  <rect x="187.8" y="835.45" width="13.39" height="13.39" fill="#231f20"/>
  <rect x="144.47" y="835.45" width="13.39" height="13.39" fill="#231f20"/>
  <rect x="187.8" y="878.17" width="13.39" height="13.39" fill="#231f20"/>
  <rect x="144.47" y="878.17" width="13.39" height="13.39" fill="#231f20"/>
  <rect x="103.3" y="835.45" width="13.39" height="13.39" fill="#231f20"/>
  <rect x="103.3" y="878.17" width="13.39" height="13.39" fill="#231f20"/>
  <rect x="58.09" y="835.45" width="13.39" height="13.39" fill="#231f20"/>
  <rect x="58.09" y="878.17" width="13.39" height="13.39" fill="#231f20"/>
  <rect x="230.87" y="920.44" width="13.39" height="13.39" fill="#231f20"/>
  <rect x="187.8" y="920.44" width="13.39" height="13.39" fill="#231f20"/>
  <rect x="144.47" y="920.44" width="13.39" height="13.39" fill="#231f20"/>
  <rect x="103.3" y="920.44" width="13.39" height="13.39" fill="#231f20"/>
  <rect x="230.87" y="965.04" width="13.39" height="13.39" fill="#231f20"/>
  <rect x="187.8" y="965.04" width="13.39" height="13.39" fill="#231f20"/>
  <rect x="144.47" y="965.04" width="13.39" height="13.39" fill="#231f20"/>
  <rect x="144.47" y="1008.75" width="13.39" height="13.39" fill="#231f20"/>
  <rect x="144.47" y="1053.35" width="13.39" height="13.39" fill="#231f20"/>
  <rect x="103.3" y="965.04" width="13.39" height="13.39" fill="#231f20"/>
  <rect x="274.2" y="1053.1" width="13.39" height="13.39" fill="#231f20"/>
  <rect x="230.87" y="1053.59" width="13.39" height="13.39" fill="#231f20"/>
  <rect x="187.8" y="1053.59" width="13.39" height="13.39" fill="#231f20"/>
  <rect x="103.3" y="1053.59" width="13.39" height="13.39" fill="#231f20"/>
  <rect x="58.09" y="920.44" width="13.39" height="13.39" fill="#231f20"/>
</svg>