<?xml version="1.0" encoding="UTF-8"?>
<svg id="_13" data-name="13" xmlns="http://www.w3.org/2000/svg" viewBox="0 0 1080 1080">
  <rect x="260.39" y="777.58" width="40.84" height="40.84" fill="#231f20"/>
  <rect x="260.39" y="734.48" width="40.84" height="40.84" fill="#231f20"/>
  <rect x="217.18" y="777.58" width="40.84" height="40.84" fill="#231f20"/>
  <rect x="217.18" y="734.48" width="40.84" height="40.84" fill="#231f20"/>
  <rect x="260.39" y="820.68" width="40.84" height="40.84" fill="#231f20"/>
  <rect x="217.18" y="820.68" width="40.84" height="40.84" fill="#231f20"/>
  <rect x="260.39" y="863.78" width="40.84" height="40.84" fill="#231f20"/>
  <rect x="260.39" y="432.04" width="40.84" height="40.84" fill="#231f20"/>
  <rect x="260.39" y="388.94" width="40.84" height="40.84" fill="#231f20"/>
  <rect x="260.39" y="475.14" width="40.84" height="40.84" fill="#231f20"/>
  <rect x="260.15" y="43.1" width="40.84" height="40.84" fill="#231f20"/>
  <rect x="260.15" width="40.84" height="40.84" fill="#231f20"/>
  <rect x="260.15" y="86.2" width="40.84" height="40.84" fill="#231f20"/>
  <rect x="260.39" y="518.24" width="40.84" height="40.84" fill="#231f20"/>
  <rect x="260.39" y="561.34" width="40.84" height="40.84" fill="#231f20"/>
  <rect x="217.18" y="863.78" width="40.84" height="40.84" fill="#231f20"/>
  <rect x="908.41" y="864.05" width="40.84" height="40.84" fill="#231f20"/>
  <rect x="908.41" y="820.95" width="40.84" height="40.84" fill="#231f20"/>
  <rect x="865.2" y="864.05" width="40.84" height="40.84" fill="#231f20"/>
  <rect x="865.2" y="820.95" width="40.84" height="40.84" fill="#231f20"/>
  <rect x="908.41" y="907.15" width="40.84" height="40.84" fill="#231f20"/>
  <rect x="865.2" y="907.15" width="40.84" height="40.84" fill="#231f20"/>
  <rect x="908.41" y="950.25" width="40.84" height="40.84" fill="#231f20"/>
  <rect x="908.41" y="993.65" width="40.84" height="40.84" fill="#231f20"/>
  <rect x="908.41" y="647.97" width="40.84" height="40.84" fill="#231f20"/>
  <rect x="908.41" y="604.87" width="40.84" height="40.84" fill="#231f20"/>
  <rect x="908.41" y="691.07" width="40.84" height="40.84" fill="#231f20"/>
  <rect x="908.41" y="734.17" width="40.84" height="40.84" fill="#231f20"/>
  <rect x="908.41" y="777.57" width="40.84" height="40.84" fill="#231f20"/>
  <rect x="908.41" y="561.58" width="40.84" height="40.84" fill="#231f20"/>
  <rect x="908.41" y="518.48" width="40.84" height="40.84" fill="#231f20"/>
  <rect x="908.41" y="345.5" width="40.84" height="40.84" fill="#231f20"/>
  <rect x="908.41" y="302.4" width="40.84" height="40.84" fill="#231f20"/>
  <rect x="908.41" y="388.6" width="40.84" height="40.84" fill="#231f20"/>
  <rect x="908.41" y="431.7" width="40.84" height="40.84" fill="#231f20"/>
  <rect x="908.41" y="475.1" width="40.84" height="40.84" fill="#231f20"/>
  <rect x="908.41" y="129.62" width="40.84" height="40.84" fill="#231f20"/>
  <rect x="908.41" y="86.52" width="40.84" height="40.84" fill="#231f20"/>
  <rect x="908.41" y="43.15" width="40.84" height="40.84" fill="#231f20"/>
  <rect x="908.41" y=".05" width="40.84" height="40.84" fill="#231f20"/>
  <rect x="908.41" y="172.72" width="40.84" height="40.84" fill="#231f20"/>
  <rect x="908.41" y="215.82" width="40.84" height="40.84" fill="#231f20"/>
  <rect x="908.41" y="259.22" width="40.84" height="40.84" fill="#231f20"/>
  <rect x="865.63" y="777.57" width="40.84" height="40.84" fill="#231f20"/>
  <rect x="908.41" y="1036.75" width="40.84" height="40.84" fill="#231f20"/>
  <rect x="865.2" y="950.25" width="40.84" height="40.84" fill="#231f20"/>
  <rect x="318.11" y="877.76" width="13.39" height="13.39" fill="#231f20"/>
  <rect x="316.9" y="532.93" width="13.39" height="13.39" fill="#231f20"/>
  <rect x="316.9" y="575.97" width="13.39" height="13.39" fill="#231f20"/>
  <rect x="316.9" y="445.09" width="13.39" height="13.39" fill="#231f20"/>
  <rect x="316.9" y="487.74" width="13.39" height="13.39" fill="#231f20"/>
  <rect x="316.9" y="359.99" width="13.39" height="13.39" fill="#231f20"/>
  <rect x="274.12" y="359.99" width="13.39" height="13.39" fill="#231f20"/>
  <rect x="316.9" y="402.99" width="13.39" height="13.39" fill="#231f20"/>
  <rect x="362.08" y="532.93" width="13.39" height="13.39" fill="#231f20"/>
  <rect x="362.08" y="575.97" width="13.39" height="13.39" fill="#231f20"/>
  <rect x="362.08" y="445.09" width="13.39" height="13.39" fill="#231f20"/>
  <rect x="362.08" y="487.74" width="13.39" height="13.39" fill="#231f20"/>
  <rect x="362.08" y="359.99" width="13.39" height="13.39" fill="#231f20"/>
  <rect x="362.08" y="402.99" width="13.39" height="13.39" fill="#231f20"/>
  <rect x="403.82" y="445.09" width="13.39" height="13.39" fill="#231f20"/>
  <rect x="403.82" y="487.74" width="13.39" height="13.39" fill="#231f20"/>
  <rect x="403.82" y="359.99" width="13.39" height="13.39" fill="#231f20"/>
  <rect x="403.82" y="402.99" width="13.39" height="13.39" fill="#231f20"/>
  <rect x="362.08" y="228.55" width="13.39" height="13.39" fill="#231f20"/>
  <rect x="362.08" y="142.81" width="13.39" height="13.39" fill="#231f20"/>
  <rect x="362.08" y="185.45" width="13.39" height="13.39" fill="#231f20"/>
  <rect x="316.9" y="228.55" width="13.39" height="13.39" fill="#231f20"/>
  <rect x="316.9" y="142.81" width="13.39" height="13.39" fill="#231f20"/>
  <rect x="316.9" y="185.45" width="13.39" height="13.39" fill="#231f20"/>
  <rect x="403.82" y="228.55" width="13.39" height="13.39" fill="#231f20"/>
  <rect x="403.82" y="142.81" width="13.39" height="13.39" fill="#231f20"/>
  <rect x="403.82" y="185.45" width="13.39" height="13.39" fill="#231f20"/>
  <rect x="446.91" y="445.09" width="13.39" height="13.39" fill="#231f20"/>
  <rect x="446.91" y="487.74" width="13.39" height="13.39" fill="#231f20"/>
  <rect x="446.91" y="359.99" width="13.39" height="13.39" fill="#231f20"/>
  <rect x="446.91" y="402.99" width="13.39" height="13.39" fill="#231f20"/>
  <rect x="490.19" y="445.09" width="13.39" height="13.39" fill="#231f20"/>
  <rect x="490.19" y="487.74" width="13.39" height="13.39" fill="#231f20"/>
  <rect x="490.19" y="359.99" width="13.39" height="13.39" fill="#231f20"/>
  <rect x="490.19" y="402.99" width="13.39" height="13.39" fill="#231f20"/>
  <rect x="533.28" y="445.09" width="13.39" height="13.39" fill="#231f20"/>
  <rect x="533.28" y="487.74" width="13.39" height="13.39" fill="#231f20"/>
  <rect x="533.28" y="359.99" width="13.39" height="13.39" fill="#231f20"/>
  <rect x="533.28" y="402.99" width="13.39" height="13.39" fill="#231f20"/>
  <rect x="446.91" y="617.63" width="13.39" height="13.39" fill="#231f20"/>
  <rect x="446.91" y="660.98" width="13.39" height="13.39" fill="#231f20"/>
  <rect x="362.08" y="617.63" width="13.39" height="13.39" fill="#231f20"/>
  <rect x="362.08" y="660.98" width="13.39" height="13.39" fill="#231f20"/>
  <rect x="362.08" y="703.96" width="13.39" height="13.39" fill="#231f20"/>
  <rect x="316.9" y="617.63" width="13.39" height="13.39" fill="#231f20"/>
  <rect x="316.9" y="660.98" width="13.39" height="13.39" fill="#231f20"/>
  <rect x="316.9" y="703.96" width="13.39" height="13.39" fill="#231f20"/>
  <rect x="362.08" y="746.85" width="13.39" height="13.39" fill="#231f20"/>
  <rect x="446.91" y="532.93" width="13.39" height="13.39" fill="#231f20"/>
  <rect x="446.91" y="575.97" width="13.39" height="13.39" fill="#231f20"/>
  <rect x="835.79" y="445.09" width="13.39" height="13.39" fill="#231f20"/>
  <rect x="835.79" y="487.74" width="13.39" height="13.39" fill="#231f20"/>
  <rect x="835.79" y="617.63" width="13.39" height="13.39" fill="#231f20"/>
  <rect x="835.79" y="660.98" width="13.39" height="13.39" fill="#231f20"/>
  <rect x="835.79" y="532.93" width="13.39" height="13.39" fill="#231f20"/>
  <rect x="835.79" y="575.97" width="13.39" height="13.39" fill="#231f20"/>
  <rect x="879.35" y="445.09" width="13.39" height="13.39" fill="#231f20"/>
  <rect x="879.35" y="487.74" width="13.39" height="13.39" fill="#231f20"/>
  <rect x="879.35" y="617.63" width="13.39" height="13.39" fill="#231f20"/>
  <rect x="879.35" y="660.98" width="13.39" height="13.39" fill="#231f20"/>
  <rect x="835.79" y="703.96" width="13.39" height="13.39" fill="#231f20"/>
  <rect x="835.79" y="746.85" width="13.39" height="13.39" fill="#231f20"/>
  <rect x="792.22" y="487.74" width="13.39" height="13.39" fill="#231f20"/>
  <rect x="792.22" y="617.63" width="13.39" height="13.39" fill="#231f20"/>
  <rect x="792.22" y="660.98" width="13.39" height="13.39" fill="#231f20"/>
  <rect x="792.22" y="532.93" width="13.39" height="13.39" fill="#231f20"/>
  <rect x="749.52" y="487.74" width="13.39" height="13.39" fill="#231f20"/>
  <rect x="749.52" y="532.93" width="13.39" height="13.39" fill="#231f20"/>
  <rect x="792.22" y="575.97" width="13.39" height="13.39" fill="#231f20"/>
  <rect x="748.65" y="617.63" width="13.39" height="13.39" fill="#231f20"/>
  <rect x="748.65" y="660.98" width="13.39" height="13.39" fill="#231f20"/>
  <rect x="663.12" y="617.63" width="13.39" height="13.39" fill="#231f20"/>
  <rect x="663.12" y="660.98" width="13.39" height="13.39" fill="#231f20"/>
  <rect x="706.68" y="617.63" width="13.39" height="13.39" fill="#231f20"/>
  <rect x="706.68" y="660.98" width="13.39" height="13.39" fill="#231f20"/>
  <rect x="619.55" y="617.63" width="13.39" height="13.39" fill="#231f20"/>
  <rect x="619.55" y="660.98" width="13.39" height="13.39" fill="#231f20"/>
  <rect x="575.98" y="617.63" width="13.39" height="13.39" fill="#231f20"/>
  <rect x="575.98" y="660.98" width="13.39" height="13.39" fill="#231f20"/>
  <rect x="533.52" y="617.63" width="13.39" height="13.39" fill="#231f20"/>
  <rect x="533.52" y="660.98" width="13.39" height="13.39" fill="#231f20"/>
  <rect x="489.95" y="617.63" width="13.39" height="13.39" fill="#231f20"/>
  <rect x="489.95" y="660.98" width="13.39" height="13.39" fill="#231f20"/>
  <rect x="446.91" y="704.85" width="13.39" height="13.39" fill="#231f20"/>
  <rect x="446.91" y="748.2" width="13.39" height="13.39" fill="#231f20"/>
  <rect x="489.95" y="704.85" width="13.39" height="13.39" fill="#231f20"/>
  <rect x="489.95" y="748.2" width="13.39" height="13.39" fill="#231f20"/>
  <rect x="748.65" y="575.97" width="13.39" height="13.39" fill="#231f20"/>
  <rect x="576.34" y="532.93" width="13.39" height="13.39" fill="#231f20"/>
  <rect x="576.34" y="575.97" width="13.39" height="13.39" fill="#231f20"/>
  <rect x="532.77" y="532.93" width="13.39" height="13.39" fill="#231f20"/>
  <rect x="490.22" y="532.93" width="13.39" height="13.39" fill="#231f20"/>
  <rect x="532.77" y="575.97" width="13.39" height="13.39" fill="#231f20"/>
  <rect x="489.2" y="575.97" width="13.39" height="13.39" fill="#231f20"/>
  <rect x="792.22" y="703.96" width="13.39" height="13.39" fill="#231f20"/>
  <rect x="792.22" y="746.85" width="13.39" height="13.39" fill="#231f20"/>
  <rect x="749.52" y="703.96" width="13.39" height="13.39" fill="#231f20"/>
  <rect x="749.52" y="746.85" width="13.39" height="13.39" fill="#231f20"/>
  <rect x="705.95" y="703.96" width="13.39" height="13.39" fill="#231f20"/>
  <rect x="705.95" y="746.85" width="13.39" height="13.39" fill="#231f20"/>
  <rect x="662.85" y="703.96" width="13.39" height="13.39" fill="#231f20"/>
  <rect x="662.85" y="746.85" width="13.39" height="13.39" fill="#231f20"/>
  <rect x="619.28" y="703.96" width="13.39" height="13.39" fill="#231f20"/>
  <rect x="619.28" y="746.85" width="13.39" height="13.39" fill="#231f20"/>
  <rect x="576.58" y="703.96" width="13.39" height="13.39" fill="#231f20"/>
  <rect x="576.58" y="746.85" width="13.39" height="13.39" fill="#231f20"/>
  <rect x="533.01" y="703.96" width="13.39" height="13.39" fill="#231f20"/>
  <rect x="533.01" y="746.85" width="13.39" height="13.39" fill="#231f20"/>
  <rect x="835.79" y="835.61" width="13.39" height="13.39" fill="#231f20"/>
  <rect x="835.79" y="877.76" width="13.39" height="13.39" fill="#231f20"/>
  <rect x="835.79" y="792.86" width="13.39" height="13.39" fill="#231f20"/>
  <rect x="835.79" y="921.32" width="13.39" height="13.39" fill="#231f20"/>
  <rect x="835.79" y="964.47" width="13.39" height="13.39" fill="#231f20"/>
  <rect x="792.22" y="835.61" width="13.39" height="13.39" fill="#231f20"/>
  <rect x="792.22" y="877.76" width="13.39" height="13.39" fill="#231f20"/>
  <rect x="792.22" y="792.86" width="13.39" height="13.39" fill="#231f20"/>
  <rect x="792.22" y="921.32" width="13.39" height="13.39" fill="#231f20"/>
  <rect x="792.22" y="964.47" width="13.39" height="13.39" fill="#231f20"/>
  <rect x="835.79" y="1006.25" width="13.39" height="13.39" fill="#231f20"/>
  <rect x="835.79" y="1049.35" width="13.39" height="13.39" fill="#231f20"/>
  <rect x="878.66" y="1006.25" width="13.39" height="13.39" fill="#231f20"/>
  <rect x="878.66" y="1049.35" width="13.39" height="13.39" fill="#231f20"/>
  <rect x="792.22" y="1006.25" width="13.39" height="13.39" fill="#231f20"/>
  <rect x="749.52" y="921.32" width="13.39" height="13.39" fill="#231f20"/>
  <rect x="749.52" y="964.47" width="13.39" height="13.39" fill="#231f20"/>
  <rect x="705.95" y="921.32" width="13.39" height="13.39" fill="#231f20"/>
  <rect x="705.95" y="964.47" width="13.39" height="13.39" fill="#231f20"/>
  <rect x="749.52" y="1006.25" width="13.39" height="13.39" fill="#231f20"/>
  <rect x="705.95" y="1006.25" width="13.39" height="13.39" fill="#231f20"/>
  <rect x="662.93" y="921.32" width="13.39" height="13.39" fill="#231f20"/>
  <rect x="662.93" y="964.47" width="13.39" height="13.39" fill="#231f20"/>
  <rect x="662.93" y="1006.25" width="13.39" height="13.39" fill="#231f20"/>
  <rect x="619.92" y="921.32" width="13.39" height="13.39" fill="#231f20"/>
  <rect x="619.92" y="964.47" width="13.39" height="13.39" fill="#231f20"/>
  <rect x="576.35" y="921.32" width="13.39" height="13.39" fill="#231f20"/>
  <rect x="576.35" y="964.47" width="13.39" height="13.39" fill="#231f20"/>
  <rect x="619.92" y="1006.25" width="13.39" height="13.39" fill="#231f20"/>
  <rect x="576.35" y="1006.25" width="13.39" height="13.39" fill="#231f20"/>
  <rect x="533.33" y="921.32" width="13.39" height="13.39" fill="#231f20"/>
  <rect x="533.33" y="964.47" width="13.39" height="13.39" fill="#231f20"/>
  <rect x="533.33" y="1006.25" width="13.39" height="13.39" fill="#231f20"/>
  <rect x="490.22" y="921.32" width="13.39" height="13.39" fill="#231f20"/>
  <rect x="490.22" y="964.47" width="13.39" height="13.39" fill="#231f20"/>
  <rect x="446.65" y="921.32" width="13.39" height="13.39" fill="#231f20"/>
  <rect x="446.65" y="964.47" width="13.39" height="13.39" fill="#231f20"/>
  <rect x="490.22" y="1006.25" width="13.39" height="13.39" fill="#231f20"/>
  <rect x="446.65" y="1006.25" width="13.39" height="13.39" fill="#231f20"/>
  <rect x="403.64" y="921.32" width="13.39" height="13.39" fill="#231f20"/>
  <rect x="403.64" y="964.47" width="13.39" height="13.39" fill="#231f20"/>
  <rect x="359.39" y="964.47" width="13.39" height="13.39" fill="#231f20"/>
  <rect x="316.27" y="964.47" width="13.39" height="13.39" fill="#231f20"/>
  <rect x="272.7" y="964.47" width="13.39" height="13.39" fill="#231f20"/>
  <rect x="229.69" y="964.47" width="13.39" height="13.39" fill="#231f20"/>
  <rect x="403.64" y="1006.25" width="13.39" height="13.39" fill="#231f20"/>
  <rect x="662.93" y="792.86" width="13.39" height="13.39" fill="#231f20"/>
  <rect x="662.93" y="835.61" width="13.39" height="13.39" fill="#231f20"/>
  <rect x="662.93" y="877.76" width="13.39" height="13.39" fill="#231f20"/>
  <rect x="619.92" y="792.86" width="13.39" height="13.39" fill="#231f20"/>
  <rect x="619.92" y="835.61" width="13.39" height="13.39" fill="#231f20"/>
  <rect x="576.35" y="792.86" width="13.39" height="13.39" fill="#231f20"/>
  <rect x="576.35" y="835.61" width="13.39" height="13.39" fill="#231f20"/>
  <rect x="619.92" y="877.76" width="13.39" height="13.39" fill="#231f20"/>
  <rect x="749.24" y="792.86" width="13.39" height="13.39" fill="#231f20"/>
  <rect x="749.24" y="835.61" width="13.39" height="13.39" fill="#231f20"/>
  <rect x="749.24" y="877.76" width="13.39" height="13.39" fill="#231f20"/>
  <rect x="706.22" y="792.86" width="13.39" height="13.39" fill="#231f20"/>
  <rect x="706.22" y="835.61" width="13.39" height="13.39" fill="#231f20"/>
  <rect x="706.22" y="877.76" width="13.39" height="13.39" fill="#231f20"/>
  <rect x="1009.08" y="13.69" width="13.39" height="13.39" fill="#231f20"/>
  <rect x="1009.08" y="57.05" width="13.39" height="13.39" fill="#231f20"/>
  <rect x="1052.65" y="13.69" width="13.39" height="13.39" fill="#231f20"/>
  <rect x="1052.65" y="57.05" width="13.39" height="13.39" fill="#231f20"/>
  <rect x="965.52" y="13.69" width="13.39" height="13.39" fill="#231f20"/>
  <rect x="965.52" y="57.05" width="13.39" height="13.39" fill="#231f20"/>
  <rect x="1051.92" y="100.03" width="13.39" height="13.39" fill="#231f20"/>
  <rect x="1051.92" y="142.91" width="13.39" height="13.39" fill="#231f20"/>
  <rect x="1008.81" y="100.03" width="13.39" height="13.39" fill="#231f20"/>
  <rect x="1008.81" y="142.91" width="13.39" height="13.39" fill="#231f20"/>
  <rect x="965.25" y="100.03" width="13.39" height="13.39" fill="#231f20"/>
  <rect x="965.25" y="142.91" width="13.39" height="13.39" fill="#231f20"/>
  <rect x="1051.92" y="317.38" width="13.39" height="13.39" fill="#231f20"/>
  <rect x="1051.92" y="360.53" width="13.39" height="13.39" fill="#231f20"/>
  <rect x="1051.92" y="402.31" width="13.39" height="13.39" fill="#231f20"/>
  <rect x="1008.9" y="317.38" width="13.39" height="13.39" fill="#231f20"/>
  <rect x="1008.9" y="360.53" width="13.39" height="13.39" fill="#231f20"/>
  <rect x="1008.9" y="402.31" width="13.39" height="13.39" fill="#231f20"/>
  <rect x="965.88" y="317.38" width="13.39" height="13.39" fill="#231f20"/>
  <rect x="965.88" y="360.53" width="13.39" height="13.39" fill="#231f20"/>
  <rect x="965.88" y="402.31" width="13.39" height="13.39" fill="#231f20"/>
  <rect x="1008.9" y="188.93" width="13.39" height="13.39" fill="#231f20"/>
  <rect x="1008.9" y="231.68" width="13.39" height="13.39" fill="#231f20"/>
  <rect x="1008.9" y="273.82" width="13.39" height="13.39" fill="#231f20"/>
  <rect x="965.88" y="188.93" width="13.39" height="13.39" fill="#231f20"/>
  <rect x="965.88" y="231.68" width="13.39" height="13.39" fill="#231f20"/>
  <rect x="965.88" y="273.82" width="13.39" height="13.39" fill="#231f20"/>
  <rect x="1052.19" y="188.93" width="13.39" height="13.39" fill="#231f20"/>
  <rect x="1052.19" y="231.68" width="13.39" height="13.39" fill="#231f20"/>
  <rect x="1052.19" y="273.82" width="13.39" height="13.39" fill="#231f20"/>
  <rect x="1009.08" y="439.57" width="13.39" height="13.39" fill="#231f20"/>
  <rect x="1009.08" y="482.92" width="13.39" height="13.39" fill="#231f20"/>
  <rect x="1052.65" y="439.57" width="13.39" height="13.39" fill="#231f20"/>
  <rect x="1052.65" y="482.92" width="13.39" height="13.39" fill="#231f20"/>
  <rect x="965.52" y="439.57" width="13.39" height="13.39" fill="#231f20"/>
  <rect x="965.52" y="482.92" width="13.39" height="13.39" fill="#231f20"/>
  <rect x="1051.92" y="528.63" width="13.39" height="13.39" fill="#231f20"/>
  <rect x="1051.92" y="574.26" width="13.39" height="13.39" fill="#231f20"/>
  <rect x="1008.81" y="528.63" width="13.39" height="13.39" fill="#231f20"/>
  <rect x="1008.81" y="574.26" width="13.39" height="13.39" fill="#231f20"/>
  <rect x="965.25" y="528.63" width="13.39" height="13.39" fill="#231f20"/>
  <rect x="965.25" y="574.26" width="13.39" height="13.39" fill="#231f20"/>
  <rect x="1051.92" y="748.73" width="13.39" height="13.39" fill="#231f20"/>
  <rect x="1051.92" y="791.89" width="13.39" height="13.39" fill="#231f20"/>
  <rect x="1051.92" y="833.66" width="13.39" height="13.39" fill="#231f20"/>
  <rect x="1008.9" y="748.73" width="13.39" height="13.39" fill="#231f20"/>
  <rect x="1008.9" y="791.89" width="13.39" height="13.39" fill="#231f20"/>
  <rect x="1008.9" y="833.66" width="13.39" height="13.39" fill="#231f20"/>
  <rect x="965.88" y="748.73" width="13.39" height="13.39" fill="#231f20"/>
  <rect x="965.88" y="791.89" width="13.39" height="13.39" fill="#231f20"/>
  <rect x="965.88" y="833.66" width="13.39" height="13.39" fill="#231f20"/>
  <rect x="1008.9" y="620.28" width="13.39" height="13.39" fill="#231f20"/>
  <rect x="1008.9" y="663.03" width="13.39" height="13.39" fill="#231f20"/>
  <rect x="1008.9" y="705.17" width="13.39" height="13.39" fill="#231f20"/>
  <rect x="965.88" y="620.28" width="13.39" height="13.39" fill="#231f20"/>
  <rect x="965.88" y="663.03" width="13.39" height="13.39" fill="#231f20"/>
  <rect x="965.88" y="705.17" width="13.39" height="13.39" fill="#231f20"/>
  <rect x="1052.19" y="620.28" width="13.39" height="13.39" fill="#231f20"/>
  <rect x="1052.19" y="663.03" width="13.39" height="13.39" fill="#231f20"/>
  <rect x="1052.19" y="705.17" width="13.39" height="13.39" fill="#231f20"/>
  <rect x="1051.92" y="963.31" width="13.39" height="13.39" fill="#231f20"/>
  <rect x="1051.92" y="1006.46" width="13.39" height="13.39" fill="#231f20"/>
  <rect x="1051.92" y="1048.24" width="13.39" height="13.39" fill="#231f20"/>
  <rect x="1008.9" y="963.31" width="13.39" height="13.39" fill="#231f20"/>
  <rect x="1008.9" y="1006.46" width="13.39" height="13.39" fill="#231f20"/>
  <rect x="1008.9" y="1048.24" width="13.39" height="13.39" fill="#231f20"/>
  <rect x="965.88" y="963.31" width="13.39" height="13.39" fill="#231f20"/>
  <rect x="965.88" y="1006.46" width="13.39" height="13.39" fill="#231f20"/>
  <rect x="965.88" y="1048.24" width="13.39" height="13.39" fill="#231f20"/>
  <rect x="1008.9" y="877.6" width="13.39" height="13.39" fill="#231f20"/>
  <rect x="1008.9" y="919.75" width="13.39" height="13.39" fill="#231f20"/>
  <rect x="965.88" y="877.6" width="13.39" height="13.39" fill="#231f20"/>
  <rect x="965.88" y="919.75" width="13.39" height="13.39" fill="#231f20"/>
  <rect x="1052.19" y="877.6" width="13.39" height="13.39" fill="#231f20"/>
  <rect x="1052.19" y="919.75" width="13.39" height="13.39" fill="#231f20"/>
  <rect x="576.35" y="877.76" width="13.39" height="13.39" fill="#231f20"/>
  <rect x="533.33" y="792.86" width="13.39" height="13.39" fill="#231f20"/>
  <rect x="533.33" y="835.61" width="13.39" height="13.39" fill="#231f20"/>
  <rect x="533.33" y="877.76" width="13.39" height="13.39" fill="#231f20"/>
  <rect x="490.22" y="792.86" width="13.39" height="13.39" fill="#231f20"/>
  <rect x="490.22" y="835.61" width="13.39" height="13.39" fill="#231f20"/>
  <rect x="446.65" y="792.86" width="13.39" height="13.39" fill="#231f20"/>
  <rect x="446.65" y="835.61" width="13.39" height="13.39" fill="#231f20"/>
  <rect x="490.22" y="877.76" width="13.39" height="13.39" fill="#231f20"/>
  <rect x="446.65" y="877.76" width="13.39" height="13.39" fill="#231f20"/>
  <rect x="403.64" y="792.86" width="13.39" height="13.39" fill="#231f20"/>
  <rect x="403.64" y="835.61" width="13.39" height="13.39" fill="#231f20"/>
  <rect x="359.91" y="792.86" width="13.39" height="13.39" fill="#231f20"/>
  <rect x="359.91" y="835.61" width="13.39" height="13.39" fill="#231f20"/>
  <rect x="316.9" y="792.86" width="13.39" height="13.39" fill="#231f20"/>
  <rect x="316.9" y="835.61" width="13.39" height="13.39" fill="#231f20"/>
  <rect x="403.64" y="877.76" width="13.39" height="13.39" fill="#231f20"/>
  <rect x="403.64" y="746.85" width="13.39" height="13.39" fill="#231f20"/>
  <rect x="403.64" y="617.63" width="13.39" height="13.39" fill="#231f20"/>
  <rect x="403.64" y="575.97" width="13.39" height="13.39" fill="#231f20"/>
  <rect x="403.64" y="660.98" width="13.39" height="13.39" fill="#231f20"/>
  <rect x="403.64" y="703.96" width="13.39" height="13.39" fill="#231f20"/>
  <rect x="360.58" y="1006.25" width="13.39" height="13.39" fill="#231f20"/>
  <rect x="576.35" y="1049.35" width="13.39" height="13.39" fill="#231f20"/>
  <rect x="533.33" y="1049.35" width="13.39" height="13.39" fill="#231f20"/>
  <rect x="490.22" y="1049.35" width="13.39" height="13.39" fill="#231f20"/>
  <rect x="446.65" y="1049.35" width="13.39" height="13.39" fill="#231f20"/>
  <rect x="403.64" y="1049.35" width="13.39" height="13.39" fill="#231f20"/>
  <rect x="360.58" y="1049.35" width="13.39" height="13.39" fill="#231f20"/>
  <rect x="317.47" y="1006.25" width="13.39" height="13.39" fill="#231f20"/>
  <rect x="273.9" y="1006.25" width="13.39" height="13.39" fill="#231f20"/>
  <rect x="230.88" y="1006.25" width="13.39" height="13.39" fill="#231f20"/>
  <rect x="792.22" y="1049.35" width="13.39" height="13.39" fill="#231f20"/>
  <rect x="706.01" y="1049.35" width="13.39" height="13.39" fill="#231f20"/>
  <rect x="748.89" y="1049.35" width="13.39" height="13.39" fill="#231f20"/>
  <rect x="662.44" y="1049.35" width="13.39" height="13.39" fill="#231f20"/>
  <rect x="879.35" y="703.96" width="13.39" height="13.39" fill="#231f20"/>
  <rect x="879.35" y="746.85" width="13.39" height="13.39" fill="#231f20"/>
  <rect x="879.35" y="532.93" width="13.39" height="13.39" fill="#231f20"/>
  <rect x="879.35" y="575.97" width="13.39" height="13.39" fill="#231f20"/>
  <rect x="835.79" y="185.27" width="13.39" height="13.39" fill="#231f20"/>
  <rect x="835.79" y="228.55" width="13.39" height="13.39" fill="#231f20"/>
  <rect x="835.79" y="359.99" width="13.39" height="13.39" fill="#231f20"/>
  <rect x="835.79" y="402.99" width="13.39" height="13.39" fill="#231f20"/>
  <rect x="835.79" y="273.09" width="13.39" height="13.39" fill="#231f20"/>
  <rect x="835.79" y="316.21" width="13.39" height="13.39" fill="#231f20"/>
  <rect x="795.39" y="359.99" width="13.39" height="13.39" fill="#231f20"/>
  <rect x="795.39" y="402.99" width="13.39" height="13.39" fill="#231f20"/>
  <rect x="795.39" y="445.09" width="13.39" height="13.39" fill="#231f20"/>
  <rect x="748.65" y="359.99" width="13.39" height="13.39" fill="#231f20"/>
  <rect x="748.65" y="402.99" width="13.39" height="13.39" fill="#231f20"/>
  <rect x="748.65" y="445.09" width="13.39" height="13.39" fill="#231f20"/>
  <rect x="708.26" y="359.99" width="13.39" height="13.39" fill="#231f20"/>
  <rect x="708.26" y="402.99" width="13.39" height="13.39" fill="#231f20"/>
  <rect x="795.39" y="316.21" width="13.39" height="13.39" fill="#231f20"/>
  <rect x="879.35" y="185.27" width="13.39" height="13.39" fill="#231f20"/>
  <rect x="879.35" y="228.55" width="13.39" height="13.39" fill="#231f20"/>
  <rect x="879.35" y="359.99" width="13.39" height="13.39" fill="#231f20"/>
  <rect x="879.35" y="402.99" width="13.39" height="13.39" fill="#231f20"/>
  <rect x="879.35" y="273.09" width="13.39" height="13.39" fill="#231f20"/>
  <rect x="879.35" y="316.21" width="13.39" height="13.39" fill="#231f20"/>
  <rect x="835.79" y="13.57" width="13.39" height="13.39" fill="#231f20"/>
  <rect x="835.79" y="56.67" width="13.39" height="13.39" fill="#231f20"/>
  <rect x="835.79" y="102.34" width="13.39" height="13.39" fill="#231f20"/>
  <rect x="835.79" y="145.04" width="13.39" height="13.39" fill="#231f20"/>
  <rect x="793.16" y="56.67" width="13.39" height="13.39" fill="#231f20"/>
  <rect x="793.72" y="101.05" width="13.39" height="13.39" fill="#231f20"/>
  <rect x="793.16" y="145.04" width="13.39" height="13.39" fill="#231f20"/>
  <rect x="748.37" y="56.67" width="13.39" height="13.39" fill="#231f20"/>
  <rect x="793.16" y="15.01" width="13.39" height="13.39" fill="#231f20"/>
  <rect x="748.37" y="15.01" width="13.39" height="13.39" fill="#231f20"/>
  <rect x="620.35" y="56.67" width="13.39" height="13.39" fill="#231f20"/>
  <rect x="576.22" y="56.67" width="13.39" height="13.39" fill="#231f20"/>
  <rect x="576.22" y="14" width="13.39" height="13.39" fill="#231f20"/>
  <rect x="533.57" y="56.67" width="13.39" height="13.39" fill="#231f20"/>
  <rect x="533.57" y="14" width="13.39" height="13.39" fill="#231f20"/>
  <rect x="621.58" y="14" width="13.39" height="13.39" fill="#231f20"/>
  <rect x="748.93" y="101.05" width="13.39" height="13.39" fill="#231f20"/>
  <rect x="748.37" y="145.04" width="13.39" height="13.39" fill="#231f20"/>
  <rect x="705.9" y="145.04" width="13.39" height="13.39" fill="#231f20"/>
  <rect x="793.16" y="185.27" width="13.39" height="13.39" fill="#231f20"/>
  <rect x="749.05" y="185.27" width="13.39" height="13.39" fill="#231f20"/>
  <rect x="706.42" y="185.27" width="13.39" height="13.39" fill="#231f20"/>
  <rect x="793.72" y="228.55" width="13.39" height="13.39" fill="#231f20"/>
  <rect x="793.16" y="273.09" width="13.39" height="13.39" fill="#231f20"/>
  <rect x="879.35" y="13.57" width="13.39" height="13.39" fill="#231f20"/>
  <rect x="879.35" y="56.67" width="13.39" height="13.39" fill="#231f20"/>
  <rect x="879.35" y="102.34" width="13.39" height="13.39" fill="#231f20"/>
  <rect x="879.35" y="145.04" width="13.39" height="13.39" fill="#231f20"/>
  <rect x="446.91" y="273.09" width="13.39" height="13.39" fill="#231f20"/>
  <rect x="403.82" y="273.09" width="13.39" height="13.39" fill="#231f20"/>
  <rect x="360.71" y="273.09" width="13.39" height="13.39" fill="#231f20"/>
  <rect x="317.62" y="273.09" width="13.39" height="13.39" fill="#231f20"/>
  <rect x="403.82" y="316.54" width="13.39" height="13.39" fill="#231f20"/>
  <rect x="360.71" y="316.54" width="13.39" height="13.39" fill="#231f20"/>
  <rect x="317.62" y="316.54" width="13.39" height="13.39" fill="#231f20"/>
  <rect x="446.91" y="316.21" width="13.39" height="13.39" fill="#231f20"/>
  <rect x="577.17" y="445.09" width="13.39" height="13.39" fill="#231f20"/>
  <rect x="577.17" y="487.74" width="13.39" height="13.39" fill="#231f20"/>
  <rect x="577.17" y="359.99" width="13.39" height="13.39" fill="#231f20"/>
  <rect x="577.17" y="402.99" width="13.39" height="13.39" fill="#231f20"/>
  <rect x="620.45" y="445.09" width="13.39" height="13.39" fill="#231f20"/>
  <rect x="620.45" y="487.74" width="13.39" height="13.39" fill="#231f20"/>
  <rect x="620.45" y="359.99" width="13.39" height="13.39" fill="#231f20"/>
  <rect x="620.45" y="402.99" width="13.39" height="13.39" fill="#231f20"/>
  <rect x="663.54" y="445.09" width="13.39" height="13.39" fill="#231f20"/>
  <rect x="663.54" y="487.74" width="13.39" height="13.39" fill="#231f20"/>
  <rect x="663.54" y="359.99" width="13.39" height="13.39" fill="#231f20"/>
  <rect x="663.54" y="402.99" width="13.39" height="13.39" fill="#231f20"/>
  <rect x="708.26" y="445.09" width="13.39" height="13.39" fill="#231f20"/>
  <rect x="748.65" y="228.55" width="13.39" height="13.39" fill="#231f20"/>
  <rect x="748.65" y="273.09" width="13.39" height="13.39" fill="#231f20"/>
  <rect x="748.65" y="316.21" width="13.39" height="13.39" fill="#231f20"/>
  <rect x="708.26" y="228.55" width="13.39" height="13.39" fill="#231f20"/>
  <rect x="708.26" y="273.09" width="13.39" height="13.39" fill="#231f20"/>
  <rect x="708.26" y="316.21" width="13.39" height="13.39" fill="#231f20"/>
  <rect x="446.91" y="185.45" width="13.39" height="13.39" fill="#231f20"/>
  <rect x="446.91" y="228.55" width="13.39" height="13.39" fill="#231f20"/>
  <rect x="446.91" y="100.94" width="13.39" height="13.39" fill="#231f20"/>
  <rect x="446.91" y="142.81" width="13.39" height="13.39" fill="#231f20"/>
  <rect x="663.54" y="273.09" width="13.39" height="13.39" fill="#231f20"/>
  <rect x="663.54" y="316.21" width="13.39" height="13.39" fill="#231f20"/>
  <rect x="663.54" y="185.27" width="13.39" height="13.39" fill="#231f20"/>
  <rect x="663.54" y="228.55" width="13.39" height="13.39" fill="#231f20"/>
  <rect x="663.54" y="145.04" width="13.39" height="13.39" fill="#231f20"/>
  <rect x="620.45" y="273.09" width="13.39" height="13.39" fill="#231f20"/>
  <rect x="620.45" y="316.21" width="13.39" height="13.39" fill="#231f20"/>
  <rect x="620.45" y="185.27" width="13.39" height="13.39" fill="#231f20"/>
  <rect x="620.45" y="228.55" width="13.39" height="13.39" fill="#231f20"/>
  <rect x="577.58" y="273.09" width="13.39" height="13.39" fill="#231f20"/>
  <rect x="577.58" y="316.21" width="13.39" height="13.39" fill="#231f20"/>
  <rect x="577.58" y="228.55" width="13.39" height="13.39" fill="#231f20"/>
  <rect x="620.45" y="145.04" width="13.39" height="13.39" fill="#231f20"/>
  <rect x="575.75" y="145.04" width="13.39" height="13.39" fill="#231f20"/>
  <rect x="576.27" y="185.27" width="13.39" height="13.39" fill="#231f20"/>
  <rect x="533.39" y="185.27" width="13.39" height="13.39" fill="#231f20"/>
  <rect x="533.39" y="145.04" width="13.39" height="13.39" fill="#231f20"/>
  <rect x="490.29" y="185.27" width="13.39" height="13.39" fill="#231f20"/>
  <rect x="490.29" y="145.04" width="13.39" height="13.39" fill="#231f20"/>
  <rect x="404.07" y="98.95" width="13.39" height="13.39" fill="#231f20"/>
  <rect x="275.33" y="142.81" width="13.39" height="13.39" fill="#231f20"/>
  <rect x="275.33" y="185.45" width="13.39" height="13.39" fill="#231f20"/>
  <rect x="275.33" y="228.55" width="13.39" height="13.39" fill="#231f20"/>
  <rect x="275.33" y="273.09" width="13.39" height="13.39" fill="#231f20"/>
  <rect x="275.33" y="316.21" width="13.39" height="13.39" fill="#231f20"/>
  <rect x="230.86" y="142.81" width="13.39" height="13.39" fill="#231f20"/>
  <rect x="230.86" y="185.45" width="13.39" height="13.39" fill="#231f20"/>
  <rect x="230.86" y="228.55" width="13.39" height="13.39" fill="#231f20"/>
  <rect x="230.86" y="11.31" width="13.39" height="13.39" fill="#231f20"/>
  <rect x="230.86" y="54.14" width="13.39" height="13.39" fill="#231f20"/>
  <rect x="230.86" y="100.94" width="13.39" height="13.39" fill="#231f20"/>
  <rect x="230.86" y="273.09" width="13.39" height="13.39" fill="#231f20"/>
  <rect x="230.86" y="316.21" width="13.39" height="13.39" fill="#231f20"/>
  <rect x="404.07" y="15.01" width="13.39" height="13.39" fill="#231f20"/>
  <rect x="404.07" y="58.11" width="13.39" height="13.39" fill="#231f20"/>
  <rect x="362.08" y="98.95" width="13.39" height="13.39" fill="#231f20"/>
  <rect x="362.08" y="15.01" width="13.39" height="13.39" fill="#231f20"/>
  <rect x="362.08" y="58.11" width="13.39" height="13.39" fill="#231f20"/>
  <rect x="316.9" y="98.95" width="13.39" height="13.39" fill="#231f20"/>
  <rect x="316.9" y="15.01" width="13.39" height="13.39" fill="#231f20"/>
  <rect x="316.9" y="58.11" width="13.39" height="13.39" fill="#231f20"/>
  <rect x="446.91" y="15.01" width="13.39" height="13.39" fill="#231f20"/>
  <rect x="446.91" y="58.11" width="13.39" height="13.39" fill="#231f20"/>
  <rect x="490.14" y="100.94" width="13.39" height="13.39" fill="#231f20"/>
  <rect x="490.14" y="15.01" width="13.39" height="13.39" fill="#231f20"/>
  <rect x="490.14" y="58.11" width="13.39" height="13.39" fill="#231f20"/>
  <rect x="231.34" y="359.99" width="13.39" height="13.39" fill="#231f20"/>
  <rect x="231.34" y="403.79" width="13.39" height="13.39" fill="#231f20"/>
  <rect x="231.34" y="444.64" width="13.39" height="13.39" fill="#231f20"/>
  <rect x="231.34" y="488.87" width="13.39" height="13.39" fill="#231f20"/>
  <rect x="231.34" y="534.24" width="13.39" height="13.39" fill="#231f20"/>
  <rect x="231.34" y="575.07" width="13.39" height="13.39" fill="#231f20"/>
  <rect x="274.12" y="617.63" width="13.39" height="13.39" fill="#231f20"/>
  <rect x="274.12" y="660.98" width="13.39" height="13.39" fill="#231f20"/>
  <rect x="274.12" y="703.96" width="13.39" height="13.39" fill="#231f20"/>
  <rect x="318.11" y="921.32" width="13.39" height="13.39" fill="#231f20"/>
  <rect x="274.12" y="921.32" width="13.39" height="13.39" fill="#231f20"/>
</svg>