<?xml version="1.0" encoding="UTF-8"?>
<svg id="_14" data-name="14" xmlns="http://www.w3.org/2000/svg" viewBox="0 0 1080 1080">
  <rect x="476.08" y="561.06" width="40.81" height="40.81" fill="#231f20"/>
  <rect x="433.39" y="561.06" width="40.81" height="40.81" fill="#231f20"/>
  <rect x="519.44" y="561.06" width="40.81" height="40.81" fill="#231f20"/>
  <rect x="476.08" y="604.05" width="40.81" height="40.81" fill="#231f20"/>
  <rect x="433.39" y="604.05" width="40.81" height="40.81" fill="#231f20"/>
  <rect x="519.44" y="604.05" width="40.81" height="40.81" fill="#231f20"/>
  <rect x="562.51" y="561.06" width="40.81" height="40.81" fill="#231f20"/>
  <rect x="605.87" y="561.06" width="40.81" height="40.81" fill="#231f20"/>
  <rect x="562.51" y="604.05" width="40.81" height="40.81" fill="#231f20"/>
  <rect x="605.87" y="604.05" width="40.81" height="40.81" fill="#231f20"/>
  <rect x="736.51" y="517.99" width="40.81" height="40.81" fill="#231f20"/>
  <rect x="779.87" y="517.99" width="40.81" height="40.81" fill="#231f20"/>
  <rect x="736.51" y="560.99" width="40.81" height="40.81" fill="#231f20"/>
  <rect x="779.87" y="560.99" width="40.81" height="40.81" fill="#231f20"/>
  <rect x="692.01" y="172.66" width="40.81" height="40.81" fill="#231f20"/>
  <rect x="735.37" y="172.66" width="40.81" height="40.81" fill="#231f20"/>
  <rect x="692.01" y="215.66" width="40.81" height="40.81" fill="#231f20"/>
  <rect x="735.37" y="215.66" width="40.81" height="40.81" fill="#231f20"/>
  <rect x="778.72" y="172.66" width="40.81" height="40.81" fill="#231f20"/>
  <rect x="778.72" y="215.66" width="40.81" height="40.81" fill="#231f20"/>
  <rect x="735.37" y="1.09" width="40.81" height="40.81" fill="#231f20"/>
  <rect x="735.37" y="44.09" width="40.81" height="40.81" fill="#231f20"/>
  <rect x="778.72" y="1.09" width="40.81" height="40.81" fill="#231f20"/>
  <rect x="778.72" y="44.09" width="40.81" height="40.81" fill="#231f20"/>
  <rect x="476.08" width="40.81" height="40.81" fill="#231f20"/>
  <rect x="519.44" width="40.81" height="40.81" fill="#231f20"/>
  <rect x="476.08" y="43" width="40.81" height="40.81" fill="#231f20"/>
  <rect x="519.44" y="43" width="40.81" height="40.81" fill="#231f20"/>
  <rect x="476.08" y="85.99" width="40.81" height="40.81" fill="#231f20"/>
  <rect x="519.44" y="85.99" width="40.81" height="40.81" fill="#231f20"/>
  <rect x="562.8" width="40.81" height="40.81" fill="#231f20"/>
  <rect x="562.8" y="43" width="40.81" height="40.81" fill="#231f20"/>
  <rect x="648.81" y="733.82" width="40.81" height="40.81" fill="#231f20"/>
  <rect x="606.12" y="733.82" width="40.81" height="40.81" fill="#231f20"/>
  <rect x="692.17" y="733.82" width="40.81" height="40.81" fill="#231f20"/>
  <rect x="648.81" y="690.44" width="40.81" height="40.81" fill="#231f20"/>
  <rect x="606.12" y="690.44" width="40.81" height="40.81" fill="#231f20"/>
  <rect x="692.17" y="690.44" width="40.81" height="40.81" fill="#231f20"/>
  <rect x="735.24" y="647.72" width="40.81" height="40.81" fill="#231f20"/>
  <rect x="648.81" y="776.82" width="40.81" height="40.81" fill="#231f20"/>
  <rect x="606.12" y="776.82" width="40.81" height="40.81" fill="#231f20"/>
  <rect x="692.17" y="776.82" width="40.81" height="40.81" fill="#231f20"/>
  <rect x="648.62" y="949.58" width="40.81" height="40.81" fill="#231f20"/>
  <rect x="605.93" y="949.58" width="40.81" height="40.81" fill="#231f20"/>
  <rect x="691.98" y="949.58" width="40.81" height="40.81" fill="#231f20"/>
  <rect x="735.24" y="949.58" width="40.81" height="40.81" fill="#231f20"/>
  <rect x="735.24" y="733.82" width="40.81" height="40.81" fill="#231f20"/>
  <rect x="778.59" y="733.82" width="40.81" height="40.81" fill="#231f20"/>
  <rect x="735.24" y="776.82" width="40.81" height="40.81" fill="#231f20"/>
  <rect x="778.59" y="776.82" width="40.81" height="40.81" fill="#231f20"/>
  <rect x="821.95" y="733.82" width="40.81" height="40.81" fill="#231f20"/>
  <rect x="821.95" y="776.82" width="40.81" height="40.81" fill="#231f20"/>
  <rect x="489.8" y="531.58" width="13.38" height="13.38" fill="#231f20"/>
  <rect x="447.1" y="531.58" width="13.38" height="13.38" fill="#231f20"/>
  <rect x="533.15" y="531.58" width="13.38" height="13.38" fill="#231f20"/>
  <rect x="361.16" y="531.58" width="13.38" height="13.38" fill="#231f20"/>
  <rect x="361.16" y="488.73" width="13.38" height="13.38" fill="#231f20"/>
  <rect x="318.47" y="531.58" width="13.38" height="13.38" fill="#231f20"/>
  <rect x="318.47" y="488.73" width="13.38" height="13.38" fill="#231f20"/>
  <rect x="361.16" y="444.82" width="13.38" height="13.38" fill="#231f20"/>
  <rect x="318.47" y="444.82" width="13.38" height="13.38" fill="#231f20"/>
  <rect x="361.16" y="401.74" width="13.38" height="13.38" fill="#231f20"/>
  <rect x="318.47" y="401.74" width="13.38" height="13.38" fill="#231f20"/>
  <rect x="404.52" y="531.58" width="13.38" height="13.38" fill="#231f20"/>
  <rect x="577.5" y="531.58" width="13.38" height="13.38" fill="#231f20"/>
  <rect x="489.8" y="488.73" width="13.38" height="13.38" fill="#231f20"/>
  <rect x="404.52" y="488.73" width="13.38" height="13.38" fill="#231f20"/>
  <rect x="361.16" y="618.22" width="13.38" height="13.38" fill="#231f20"/>
  <rect x="361.16" y="574.51" width="13.38" height="13.38" fill="#231f20"/>
  <rect x="318.47" y="618.22" width="13.38" height="13.38" fill="#231f20"/>
  <rect x="318.47" y="574.51" width="13.38" height="13.38" fill="#231f20"/>
  <rect x="404.52" y="618.22" width="13.38" height="13.38" fill="#231f20"/>
  <rect x="404.52" y="574.51" width="13.38" height="13.38" fill="#231f20"/>
  <rect x="447.1" y="488.73" width="13.38" height="13.38" fill="#231f20"/>
  <rect x="489.8" y="444.82" width="13.38" height="13.38" fill="#231f20"/>
  <rect x="404.52" y="444.82" width="13.38" height="13.38" fill="#231f20"/>
  <rect x="447.1" y="444.82" width="13.38" height="13.38" fill="#231f20"/>
  <rect x="576.61" y="444.82" width="13.38" height="13.38" fill="#231f20"/>
  <rect x="533.92" y="444.82" width="13.38" height="13.38" fill="#231f20"/>
  <rect x="705.24" y="444.82" width="13.38" height="13.38" fill="#231f20"/>
  <rect x="619.97" y="444.82" width="13.38" height="13.38" fill="#231f20"/>
  <rect x="489.8" y="401.74" width="13.38" height="13.38" fill="#231f20"/>
  <rect x="404.52" y="401.74" width="13.38" height="13.38" fill="#231f20"/>
  <rect x="447.1" y="401.74" width="13.38" height="13.38" fill="#231f20"/>
  <rect x="576.61" y="401.74" width="13.38" height="13.38" fill="#231f20"/>
  <rect x="533.92" y="401.74" width="13.38" height="13.38" fill="#231f20"/>
  <rect x="489.8" y="358.96" width="13.38" height="13.38" fill="#231f20"/>
  <rect x="404.52" y="358.96" width="13.38" height="13.38" fill="#231f20"/>
  <rect x="447.1" y="358.96" width="13.38" height="13.38" fill="#231f20"/>
  <rect x="533.92" y="358.96" width="13.38" height="13.38" fill="#231f20"/>
  <rect x="489.8" y="315.86" width="13.38" height="13.38" fill="#231f20"/>
  <rect x="404.52" y="315.86" width="13.38" height="13.38" fill="#231f20"/>
  <rect x="361.16" y="228.43" width="13.38" height="13.38" fill="#231f20"/>
  <rect x="447.1" y="315.86" width="13.38" height="13.38" fill="#231f20"/>
  <rect x="533.92" y="315.86" width="13.38" height="13.38" fill="#231f20"/>
  <rect x="576.22" y="358.96" width="13.38" height="13.38" fill="#231f20"/>
  <rect x="576.22" y="315.86" width="13.38" height="13.38" fill="#231f20"/>
  <rect x="619.97" y="401.74" width="13.38" height="13.38" fill="#231f20"/>
  <rect x="619.97" y="358.96" width="13.38" height="13.38" fill="#231f20"/>
  <rect x="619.97" y="315.86" width="13.38" height="13.38" fill="#231f20"/>
  <rect x="619.97" y="272.56" width="13.38" height="13.38" fill="#231f20"/>
  <rect x="662.55" y="315.86" width="13.38" height="13.38" fill="#231f20"/>
  <rect x="662.55" y="272.56" width="13.38" height="13.38" fill="#231f20"/>
  <rect x="619.97" y="228.43" width="13.38" height="13.38" fill="#231f20"/>
  <rect x="575.85" y="272.56" width="13.38" height="13.38" fill="#231f20"/>
  <rect x="575.85" y="228.43" width="13.38" height="13.38" fill="#231f20"/>
  <rect x="619.97" y="185.13" width="13.38" height="13.38" fill="#231f20"/>
  <rect x="662.55" y="228.43" width="13.38" height="13.38" fill="#231f20"/>
  <rect x="662.55" y="185.13" width="13.38" height="13.38" fill="#231f20"/>
  <rect x="400.9" y="143.47" width="13.38" height="13.38" fill="#231f20"/>
  <rect x="400.9" y="100.5" width="13.38" height="13.38" fill="#231f20"/>
  <rect x="360.87" y="143.47" width="13.38" height="13.38" fill="#231f20"/>
  <rect x="360.87" y="100.5" width="13.38" height="13.38" fill="#231f20"/>
  <rect x="443.48" y="143.47" width="13.38" height="13.38" fill="#231f20"/>
  <rect x="489.14" y="143.47" width="13.38" height="13.38" fill="#231f20"/>
  <rect x="531.72" y="143.47" width="13.38" height="13.38" fill="#231f20"/>
  <rect x="443.48" y="100.5" width="13.38" height="13.38" fill="#231f20"/>
  <rect x="400.9" y="56.61" width="13.38" height="13.38" fill="#231f20"/>
  <rect x="360.87" y="56.61" width="13.38" height="13.38" fill="#231f20"/>
  <rect x="443.48" y="56.61" width="13.38" height="13.38" fill="#231f20"/>
  <rect x="619.97" y="57.96" width="13.38" height="13.38" fill="#231f20"/>
  <rect x="619.97" y="14.65" width="13.38" height="13.38" fill="#231f20"/>
  <rect x="662.55" y="57.96" width="13.38" height="13.38" fill="#231f20"/>
  <rect x="662.55" y="14.65" width="13.38" height="13.38" fill="#231f20"/>
  <rect x="704.8" y="57.96" width="13.38" height="13.38" fill="#231f20"/>
  <rect x="704.8" y="14.65" width="13.38" height="13.38" fill="#231f20"/>
  <rect x="662.55" y="402.08" width="13.38" height="13.38" fill="#231f20"/>
  <rect x="662.55" y="358.96" width="13.38" height="13.38" fill="#231f20"/>
  <rect x="662.94" y="531.58" width="13.38" height="13.38" fill="#231f20"/>
  <rect x="662.94" y="488.73" width="13.38" height="13.38" fill="#231f20"/>
  <rect x="705.53" y="531.58" width="13.38" height="13.38" fill="#231f20"/>
  <rect x="705.53" y="488.73" width="13.38" height="13.38" fill="#231f20"/>
  <rect x="662.94" y="616.31" width="13.38" height="13.38" fill="#231f20"/>
  <rect x="662.94" y="573.56" width="13.38" height="13.38" fill="#231f20"/>
  <rect x="705.53" y="616.65" width="13.38" height="13.38" fill="#231f20"/>
  <rect x="663.16" y="661.05" width="13.38" height="13.38" fill="#231f20"/>
  <rect x="705.74" y="661.39" width="13.38" height="13.38" fill="#231f20"/>
  <rect x="793.86" y="660.16" width="13.38" height="13.38" fill="#231f20"/>
  <rect x="836.44" y="660.5" width="13.38" height="13.38" fill="#231f20"/>
  <rect x="794.08" y="704.9" width="13.38" height="13.38" fill="#231f20"/>
  <rect x="749.72" y="704.9" width="13.38" height="13.38" fill="#231f20"/>
  <rect x="836.66" y="705.24" width="13.38" height="13.38" fill="#231f20"/>
  <rect x="576.61" y="661.05" width="13.38" height="13.38" fill="#231f20"/>
  <rect x="619.19" y="661.39" width="13.38" height="13.38" fill="#231f20"/>
  <rect x="489.69" y="661.05" width="13.38" height="13.38" fill="#231f20"/>
  <rect x="532.27" y="661.39" width="13.38" height="13.38" fill="#231f20"/>
  <rect x="405.41" y="661.05" width="13.38" height="13.38" fill="#231f20"/>
  <rect x="447.99" y="661.39" width="13.38" height="13.38" fill="#231f20"/>
  <rect x="705.53" y="573.56" width="13.38" height="13.38" fill="#231f20"/>
  <rect x="662.55" y="444.82" width="13.38" height="13.38" fill="#231f20"/>
  <rect x="747.49" y="358.96" width="13.38" height="13.38" fill="#231f20"/>
  <rect x="705.19" y="402.67" width="13.38" height="13.38" fill="#231f20"/>
  <rect x="747.77" y="402.67" width="13.38" height="13.38" fill="#231f20"/>
  <rect x="704.8" y="358.96" width="13.38" height="13.38" fill="#231f20"/>
  <rect x="833.92" y="358.96" width="13.38" height="13.38" fill="#231f20"/>
  <rect x="791.62" y="402.67" width="13.38" height="13.38" fill="#231f20"/>
  <rect x="834.2" y="402.67" width="13.38" height="13.38" fill="#231f20"/>
  <rect x="791.23" y="358.96" width="13.38" height="13.38" fill="#231f20"/>
  <rect x="747.49" y="272.56" width="13.38" height="13.38" fill="#231f20"/>
  <rect x="705.53" y="272.56" width="13.38" height="13.38" fill="#231f20"/>
  <rect x="747.77" y="315.86" width="13.38" height="13.38" fill="#231f20"/>
  <rect x="833.92" y="272.56" width="13.38" height="13.38" fill="#231f20"/>
  <rect x="791.62" y="315.86" width="13.38" height="13.38" fill="#231f20"/>
  <rect x="834.2" y="315.86" width="13.38" height="13.38" fill="#231f20"/>
  <rect x="791.23" y="272.56" width="13.38" height="13.38" fill="#231f20"/>
  <rect x="619.97" y="143.47" width="13.38" height="13.38" fill="#231f20"/>
  <rect x="575.85" y="143.47" width="13.38" height="13.38" fill="#231f20"/>
  <rect x="575.85" y="99.34" width="13.38" height="13.38" fill="#231f20"/>
  <rect x="619.97" y="99.34" width="13.38" height="13.38" fill="#231f20"/>
  <rect x="662.55" y="143.47" width="13.38" height="13.38" fill="#231f20"/>
  <rect x="747.49" y="143.47" width="13.38" height="13.38" fill="#231f20"/>
  <rect x="705.53" y="143.47" width="13.38" height="13.38" fill="#231f20"/>
  <rect x="833.92" y="143.47" width="13.38" height="13.38" fill="#231f20"/>
  <rect x="791.23" y="143.47" width="13.38" height="13.38" fill="#231f20"/>
  <rect x="747.49" y="101.32" width="13.38" height="13.38" fill="#231f20"/>
  <rect x="705.53" y="101.32" width="13.38" height="13.38" fill="#231f20"/>
  <rect x="833.92" y="101.32" width="13.38" height="13.38" fill="#231f20"/>
  <rect x="833.92" y="230.1" width="13.38" height="13.38" fill="#231f20"/>
  <rect x="833.92" y="187.83" width="13.38" height="13.38" fill="#231f20"/>
  <rect x="833.92" y="56.35" width="13.38" height="13.38" fill="#231f20"/>
  <rect x="833.92" y="14.08" width="13.38" height="13.38" fill="#231f20"/>
  <rect x="791.23" y="101.32" width="13.38" height="13.38" fill="#231f20"/>
  <rect x="620.86" y="488.73" width="13.38" height="13.38" fill="#231f20"/>
  <rect x="620.86" y="531.58" width="13.38" height="13.38" fill="#231f20"/>
  <rect x="662.31" y="875.34" width="13.38" height="13.38" fill="#231f20"/>
  <rect x="662.31" y="832.5" width="13.38" height="13.38" fill="#231f20"/>
  <rect x="704.89" y="875.34" width="13.38" height="13.38" fill="#231f20"/>
  <rect x="707.25" y="919.56" width="13.38" height="13.38" fill="#231f20"/>
  <rect x="749.84" y="919.56" width="13.38" height="13.38" fill="#231f20"/>
  <rect x="704.89" y="832.5" width="13.38" height="13.38" fill="#231f20"/>
  <rect x="620.22" y="832.5" width="13.38" height="13.38" fill="#231f20"/>
  <rect x="620.22" y="875.34" width="13.38" height="13.38" fill="#231f20"/>
  <rect x="534.33" y="746.08" width="13.38" height="13.38" fill="#231f20"/>
  <rect x="534.33" y="703" width="13.38" height="13.38" fill="#231f20"/>
  <rect x="576.91" y="703.34" width="13.38" height="13.38" fill="#231f20"/>
  <rect x="577.31" y="832.5" width="13.38" height="13.38" fill="#231f20"/>
  <rect x="836.47" y="832.5" width="13.38" height="13.38" fill="#231f20"/>
  <rect x="836.47" y="919.56" width="13.38" height="13.38" fill="#231f20"/>
  <rect x="835.3" y="876.51" width="13.38" height="13.38" fill="#231f20"/>
  <rect x="879.05" y="832.5" width="13.38" height="13.38" fill="#231f20"/>
  <rect x="794.38" y="832.5" width="13.38" height="13.38" fill="#231f20"/>
  <rect x="792.54" y="919.56" width="13.38" height="13.38" fill="#231f20"/>
  <rect x="707.25" y="1006.72" width="13.38" height="13.38" fill="#231f20"/>
  <rect x="749.84" y="1006.72" width="13.38" height="13.38" fill="#231f20"/>
  <rect x="792.31" y="1006.72" width="13.38" height="13.38" fill="#231f20"/>
  <rect x="836.47" y="1006.72" width="13.38" height="13.38" fill="#231f20"/>
  <rect x="575.63" y="1006.72" width="13.38" height="13.38" fill="#231f20"/>
  <rect x="575.63" y="963.29" width="13.38" height="13.38" fill="#231f20"/>
  <rect x="618.21" y="1006.72" width="13.38" height="13.38" fill="#231f20"/>
  <rect x="662.76" y="1006.72" width="13.38" height="13.38" fill="#231f20"/>
  <rect x="751.47" y="832.5" width="13.38" height="13.38" fill="#231f20"/>
  <rect x="577.31" y="789.75" width="13.38" height="13.38" fill="#231f20"/>
  <rect x="576.91" y="746.08" width="13.38" height="13.38" fill="#231f20"/>
  <rect x="535.22" y="789.16" width="13.38" height="13.38" fill="#231f20"/>
  <rect x="535.22" y="832.88" width="13.38" height="13.38" fill="#231f20"/>
  <rect x="749.72" y="618.26" width="13.38" height="13.38" fill="#231f20"/>
  <rect x="835.16" y="617.88" width="13.38" height="13.38" fill="#231f20"/>
  <rect x="834.98" y="575.45" width="13.38" height="13.38" fill="#231f20"/>
  <rect x="835.16" y="532.51" width="13.38" height="13.38" fill="#231f20"/>
  <rect x="834.98" y="488.73" width="13.38" height="13.38" fill="#231f20"/>
  <rect x="877.62" y="617.88" width="13.38" height="13.38" fill="#231f20"/>
  <rect x="877.44" y="575.45" width="13.38" height="13.38" fill="#231f20"/>
  <rect x="877.62" y="532.51" width="13.38" height="13.38" fill="#231f20"/>
  <rect x="877.44" y="488.73" width="13.38" height="13.38" fill="#231f20"/>
  <rect x="877.62" y="791.7" width="13.38" height="13.38" fill="#231f20"/>
  <rect x="877.44" y="749.28" width="13.38" height="13.38" fill="#231f20"/>
  <rect x="877.62" y="706.33" width="13.38" height="13.38" fill="#231f20"/>
  <rect x="877.44" y="662.55" width="13.38" height="13.38" fill="#231f20"/>
  <rect x="749.34" y="488.73" width="13.38" height="13.38" fill="#231f20"/>
  <rect x="791.8" y="488.73" width="13.38" height="13.38" fill="#231f20"/>
  <rect x="793.08" y="618.26" width="13.38" height="13.38" fill="#231f20"/>
</svg>