<?xml version="1.0" encoding="UTF-8"?>
<svg id="_2" data-name="2" xmlns="http://www.w3.org/2000/svg" viewBox="0 0 1080 1080">
  <rect x="346.84" y="562.04" width="40.8" height="40.8" fill="#231f20"/>
  <rect x="303.86" y="562.04" width="40.8" height="40.8" fill="#231f20"/>
  <rect x="260.87" y="562.04" width="40.8" height="40.8" fill="#231f20"/>
  <rect x="389.83" y="562.04" width="40.8" height="40.8" fill="#231f20"/>
  <rect x="346.52" y="605.16" width="40.8" height="40.8" fill="#231f20"/>
  <rect x="303.54" y="605.16" width="40.8" height="40.8" fill="#231f20"/>
  <rect x="346.66" y="648.69" width="40.8" height="40.8" fill="#231f20"/>
  <rect x="303.68" y="648.69" width="40.8" height="40.8" fill="#231f20"/>
  <rect x="389.51" y="605.16" width="40.8" height="40.8" fill="#231f20"/>
  <rect x="346.62" y="475.89" width="40.8" height="40.8" fill="#231f20"/>
  <rect x="389.61" y="475.89" width="40.8" height="40.8" fill="#231f20"/>
  <rect x="346.66" y="432.59" width="40.8" height="40.8" fill="#231f20"/>
  <rect x="389.65" y="432.59" width="40.8" height="40.8" fill="#231f20"/>
  <rect x="260.31" y="432.59" width="40.8" height="40.8" fill="#231f20"/>
  <rect x="260.31" y="389.46" width="40.8" height="40.8" fill="#231f20"/>
  <rect x="260.31" y="476.25" width="40.8" height="40.8" fill="#231f20"/>
  <rect x="217.16" y="518.7" width="40.8" height="40.8" fill="#231f20"/>
  <rect x="303.3" y="432.59" width="40.8" height="40.8" fill="#231f20"/>
  <rect x="346.66" y="389.46" width="40.8" height="40.8" fill="#231f20"/>
  <rect x="303.3" y="389.46" width="40.8" height="40.8" fill="#231f20"/>
  <rect x="217.16" y="346.32" width="40.8" height="40.8" fill="#231f20"/>
  <rect x="260.14" y="346.32" width="40.8" height="40.8" fill="#231f20"/>
  <rect x="260.14" y="303.89" width="40.8" height="40.8" fill="#231f20"/>
  <rect x="217.16" y="303.89" width="40.8" height="40.8" fill="#231f20"/>
  <rect x="346.79" y="519.05" width="40.8" height="40.8" fill="#231f20"/>
  <rect x="389.78" y="519.05" width="40.8" height="40.8" fill="#231f20"/>
  <rect x="432.82" y="562.04" width="40.8" height="40.8" fill="#231f20"/>
  <rect x="475.8" y="562.04" width="40.8" height="40.8" fill="#231f20"/>
  <rect x="432.5" y="605.16" width="40.8" height="40.8" fill="#231f20"/>
  <rect x="475.49" y="605.16" width="40.8" height="40.8" fill="#231f20"/>
  <rect x="519.43" y="562.04" width="40.8" height="40.8" fill="#231f20"/>
  <rect x="562.42" y="562.04" width="40.8" height="40.8" fill="#231f20"/>
  <rect x="519.11" y="605.16" width="40.8" height="40.8" fill="#231f20"/>
  <rect x="562.1" y="605.16" width="40.8" height="40.8" fill="#231f20"/>
  <rect x="432.79" y="648.69" width="40.8" height="40.8" fill="#231f20"/>
  <rect x="475.77" y="648.69" width="40.8" height="40.8" fill="#231f20"/>
  <rect x="519.4" y="648.69" width="40.8" height="40.8" fill="#231f20"/>
  <rect x="562.39" y="648.69" width="40.8" height="40.8" fill="#231f20"/>
  <rect x="432.77" y="519.05" width="40.8" height="40.8" fill="#231f20"/>
  <rect x="475.75" y="519.05" width="40.8" height="40.8" fill="#231f20"/>
  <rect x="404.52" y="706.03" width="13.38" height="13.38" fill="#231f20"/>
  <rect x="404.52" y="662.4" width="13.38" height="13.38" fill="#231f20"/>
  <rect x="404.52" y="791.94" width="13.38" height="13.38" fill="#231f20"/>
  <rect x="404.52" y="748.31" width="13.38" height="13.38" fill="#231f20"/>
  <rect x="404.52" y="878.25" width="13.38" height="13.38" fill="#231f20"/>
  <rect x="404.52" y="834.62" width="13.38" height="13.38" fill="#231f20"/>
  <rect x="446.35" y="748.98" width="13.38" height="13.38" fill="#231f20"/>
  <rect x="446.35" y="705.35" width="13.38" height="13.38" fill="#231f20"/>
  <rect x="316.87" y="706.03" width="13.38" height="13.38" fill="#231f20"/>
  <rect x="358.7" y="705.35" width="13.38" height="13.38" fill="#231f20"/>
  <rect x="274.7" y="532.75" width="13.38" height="13.38" fill="#231f20"/>
  <rect x="316.54" y="532.07" width="13.38" height="13.38" fill="#231f20"/>
  <rect x="316.54" y="489.96" width="13.38" height="13.38" fill="#231f20"/>
  <rect x="446.35" y="834.89" width="13.38" height="13.38" fill="#231f20"/>
  <rect x="446.35" y="791.26" width="13.38" height="13.38" fill="#231f20"/>
  <rect x="491.64" y="706.03" width="13.38" height="13.38" fill="#231f20"/>
  <rect x="491.64" y="791.94" width="13.38" height="13.38" fill="#231f20"/>
  <rect x="491.64" y="748.31" width="13.38" height="13.38" fill="#231f20"/>
  <rect x="533.47" y="748.98" width="13.38" height="13.38" fill="#231f20"/>
  <rect x="533.47" y="705.35" width="13.38" height="13.38" fill="#231f20"/>
  <rect x="533.47" y="834.89" width="13.38" height="13.38" fill="#231f20"/>
  <rect x="491.64" y="834.89" width="13.38" height="13.38" fill="#231f20"/>
  <rect x="446.35" y="878.39" width="13.38" height="13.38" fill="#231f20"/>
  <rect x="533.47" y="878.39" width="13.38" height="13.38" fill="#231f20"/>
  <rect x="491.64" y="878.39" width="13.38" height="13.38" fill="#231f20"/>
  <rect x="533.47" y="791.26" width="13.38" height="13.38" fill="#231f20"/>
  <rect x="533.47" y="965.51" width="13.38" height="13.38" fill="#231f20"/>
  <rect x="533.47" y="921.88" width="13.38" height="13.38" fill="#231f20"/>
  <rect x="533.47" y="1051.42" width="13.38" height="13.38" fill="#231f20"/>
  <rect x="533.47" y="1007.79" width="13.38" height="13.38" fill="#231f20"/>
  <rect x="577.69" y="748.98" width="13.38" height="13.38" fill="#231f20"/>
  <rect x="577.69" y="705.35" width="13.38" height="13.38" fill="#231f20"/>
  <rect x="446.03" y="489.96" width="13.38" height="13.38" fill="#231f20"/>
  <rect x="490.25" y="489.96" width="13.38" height="13.38" fill="#231f20"/>
  <rect x="533.44" y="532.76" width="13.38" height="13.38" fill="#231f20"/>
  <rect x="577.66" y="532.76" width="13.38" height="13.38" fill="#231f20"/>
  <rect x="577.69" y="834.89" width="13.38" height="13.38" fill="#231f20"/>
  <rect x="577.69" y="878.39" width="13.38" height="13.38" fill="#231f20"/>
  <rect x="577.69" y="791.26" width="13.38" height="13.38" fill="#231f20"/>
  <rect x="619.81" y="619.44" width="13.38" height="13.38" fill="#231f20"/>
  <rect x="619.81" y="575.81" width="13.38" height="13.38" fill="#231f20"/>
  <rect x="619.81" y="661.72" width="13.38" height="13.38" fill="#231f20"/>
  <rect x="273.85" y="619.44" width="13.38" height="13.38" fill="#231f20"/>
  <rect x="230.87" y="619.44" width="13.38" height="13.38" fill="#231f20"/>
  <rect x="230.87" y="576.43" width="13.38" height="13.38" fill="#231f20"/>
  <rect x="230.87" y="489.54" width="13.38" height="13.38" fill="#231f20"/>
  <rect x="230.87" y="446.52" width="13.38" height="13.38" fill="#231f20"/>
  <rect x="230.87" y="403.17" width="13.38" height="13.38" fill="#231f20"/>
  <rect x="273.85" y="661.72" width="13.38" height="13.38" fill="#231f20"/>
  <rect x="577.69" y="965.51" width="13.38" height="13.38" fill="#231f20"/>
  <rect x="704.97" y="965.51" width="13.38" height="13.38" fill="#231f20"/>
  <rect x="749.19" y="965.51" width="13.38" height="13.38" fill="#231f20"/>
  <rect x="704.97" y="1051.42" width="13.38" height="13.38" fill="#231f20"/>
  <rect x="749.19" y="1051.42" width="13.38" height="13.38" fill="#231f20"/>
  <rect x="791.28" y="1007.79" width="13.38" height="13.38" fill="#231f20"/>
  <rect x="835.5" y="1007.79" width="13.38" height="13.38" fill="#231f20"/>
  <rect x="835.5" y="1051.42" width="13.38" height="13.38" fill="#231f20"/>
  <rect x="791.28" y="965.51" width="13.38" height="13.38" fill="#231f20"/>
  <rect x="835.5" y="965.51" width="13.38" height="13.38" fill="#231f20"/>
  <rect x="704.97" y="878.25" width="13.38" height="13.38" fill="#231f20"/>
  <rect x="749.19" y="834.62" width="13.38" height="13.38" fill="#231f20"/>
  <rect x="749.19" y="878.39" width="13.38" height="13.38" fill="#231f20"/>
  <rect x="704.97" y="921.81" width="13.38" height="13.38" fill="#231f20"/>
  <rect x="749.19" y="921.95" width="13.38" height="13.38" fill="#231f20"/>
  <rect x="619.22" y="921.81" width="13.38" height="13.38" fill="#231f20"/>
  <rect x="663.44" y="921.95" width="13.38" height="13.38" fill="#231f20"/>
  <rect x="791.28" y="834.62" width="13.38" height="13.38" fill="#231f20"/>
  <rect x="835.5" y="834.62" width="13.38" height="13.38" fill="#231f20"/>
  <rect x="704.97" y="230.8" width="13.38" height="13.38" fill="#231f20"/>
  <rect x="747.06" y="230.8" width="13.38" height="13.38" fill="#231f20"/>
  <rect x="576.56" y="230.8" width="13.38" height="13.38" fill="#231f20"/>
  <rect x="618.66" y="230.8" width="13.38" height="13.38" fill="#231f20"/>
  <rect x="402.71" y="230.8" width="13.38" height="13.38" fill="#231f20"/>
  <rect x="447" y="230.8" width="13.38" height="13.38" fill="#231f20"/>
  <rect x="487.79" y="230.8" width="13.38" height="13.38" fill="#231f20"/>
  <rect x="402.71" y="186.47" width="13.38" height="13.38" fill="#231f20"/>
  <rect x="447" y="186.47" width="13.38" height="13.38" fill="#231f20"/>
  <rect x="402.71" y="143.48" width="13.38" height="13.38" fill="#231f20"/>
  <rect x="447" y="143.48" width="13.38" height="13.38" fill="#231f20"/>
  <rect x="704.97" y="272.71" width="13.38" height="13.38" fill="#231f20"/>
  <rect x="747.06" y="272.71" width="13.38" height="13.38" fill="#231f20"/>
  <rect x="704.97" y="144.98" width="13.38" height="13.38" fill="#231f20"/>
  <rect x="747.06" y="144.98" width="13.38" height="13.38" fill="#231f20"/>
  <rect x="704.97" y="100.5" width="13.38" height="13.38" fill="#231f20"/>
  <rect x="747.06" y="100.5" width="13.38" height="13.38" fill="#231f20"/>
  <rect x="704.97" y="57.62" width="13.38" height="13.38" fill="#231f20"/>
  <rect x="747.06" y="57.62" width="13.38" height="13.38" fill="#231f20"/>
  <rect x="791.28" y="11.95" width="13.38" height="13.38" fill="#231f20"/>
  <rect x="620.93" y="57.62" width="13.38" height="13.38" fill="#231f20"/>
  <rect x="663.02" y="57.62" width="13.38" height="13.38" fill="#231f20"/>
  <rect x="620.93" y="16.31" width="13.38" height="13.38" fill="#231f20"/>
  <rect x="663.02" y="16.31" width="13.38" height="13.38" fill="#231f20"/>
  <rect x="360.78" y="57.62" width="13.38" height="13.38" fill="#231f20"/>
  <rect x="317.44" y="57.62" width="13.38" height="13.38" fill="#231f20"/>
  <rect x="275.29" y="57.62" width="13.38" height="13.38" fill="#231f20"/>
  <rect x="231.95" y="57.62" width="13.38" height="13.38" fill="#231f20"/>
  <rect x="143.83" y="57.62" width="13.38" height="13.38" fill="#231f20"/>
  <rect x="100.49" y="57.62" width="13.38" height="13.38" fill="#231f20"/>
  <rect x="317.44" y="100.5" width="13.38" height="13.38" fill="#231f20"/>
  <rect x="360.78" y="16.31" width="13.38" height="13.38" fill="#231f20"/>
  <rect x="402.87" y="16.31" width="13.38" height="13.38" fill="#231f20"/>
  <rect x="447" y="16.31" width="13.38" height="13.38" fill="#231f20"/>
  <rect x="101.74" y="16.31" width="13.38" height="13.38" fill="#231f20"/>
  <rect x="143.83" y="16.31" width="13.38" height="13.38" fill="#231f20"/>
  <rect x="187.96" y="16.31" width="13.38" height="13.38" fill="#231f20"/>
  <rect x="704.97" y="186.89" width="13.38" height="13.38" fill="#231f20"/>
  <rect x="747.06" y="186.89" width="13.38" height="13.38" fill="#231f20"/>
  <rect x="619.72" y="186.89" width="13.38" height="13.38" fill="#231f20"/>
  <rect x="661.81" y="186.89" width="13.38" height="13.38" fill="#231f20"/>
  <rect x="704.97" y="317.6" width="13.38" height="13.38" fill="#231f20"/>
  <rect x="747.06" y="317.6" width="13.38" height="13.38" fill="#231f20"/>
  <rect x="445.7" y="272.71" width="13.38" height="13.38" fill="#231f20"/>
  <rect x="487.79" y="272.71" width="13.38" height="13.38" fill="#231f20"/>
  <rect x="445.7" y="317.6" width="13.38" height="13.38" fill="#231f20"/>
  <rect x="402.87" y="272.71" width="13.38" height="13.38" fill="#231f20"/>
  <rect x="273.77" y="274.59" width="13.38" height="13.38" fill="#231f20"/>
  <rect x="230.95" y="274.59" width="13.38" height="13.38" fill="#231f20"/>
  <rect x="187.96" y="274.59" width="13.38" height="13.38" fill="#231f20"/>
  <rect x="187.96" y="316.5" width="13.38" height="13.38" fill="#231f20"/>
  <rect x="317.01" y="318.68" width="13.38" height="13.38" fill="#231f20"/>
  <rect x="317.01" y="360.59" width="13.38" height="13.38" fill="#231f20"/>
  <rect x="402.87" y="317.6" width="13.38" height="13.38" fill="#231f20"/>
  <rect x="487.79" y="317.6" width="13.38" height="13.38" fill="#231f20"/>
  <rect x="704.97" y="359.52" width="13.38" height="13.38" fill="#231f20"/>
  <rect x="747.06" y="359.52" width="13.38" height="13.38" fill="#231f20"/>
  <rect x="619.72" y="360.03" width="13.38" height="13.38" fill="#231f20"/>
  <rect x="661.81" y="360.03" width="13.38" height="13.38" fill="#231f20"/>
  <rect x="619.72" y="403.17" width="13.38" height="13.38" fill="#231f20"/>
  <rect x="661.81" y="403.17" width="13.38" height="13.38" fill="#231f20"/>
  <rect x="749.19" y="446.52" width="13.38" height="13.38" fill="#231f20"/>
  <rect x="704.97" y="446.52" width="13.38" height="13.38" fill="#231f20"/>
  <rect x="791.28" y="446.52" width="13.38" height="13.38" fill="#231f20"/>
  <rect x="533.41" y="446.52" width="13.38" height="13.38" fill="#231f20"/>
  <rect x="402.71" y="403.17" width="13.38" height="13.38" fill="#231f20"/>
  <rect x="575.5" y="446.52" width="13.38" height="13.38" fill="#231f20"/>
  <rect x="533.41" y="489.64" width="13.38" height="13.38" fill="#231f20"/>
  <rect x="575.5" y="489.64" width="13.38" height="13.38" fill="#231f20"/>
  <rect x="619.72" y="532.07" width="13.38" height="13.38" fill="#231f20"/>
  <rect x="661.81" y="532.07" width="13.38" height="13.38" fill="#231f20"/>
  <rect x="661.81" y="489.54" width="13.38" height="13.38" fill="#231f20"/>
  <rect x="707.09" y="532.07" width="13.38" height="13.38" fill="#231f20"/>
  <rect x="749.19" y="532.07" width="13.38" height="13.38" fill="#231f20"/>
  <rect x="791.28" y="272.71" width="13.38" height="13.38" fill="#231f20"/>
  <rect x="577.69" y="921.88" width="13.38" height="13.38" fill="#231f20"/>
  <rect x="577.69" y="1051.42" width="13.38" height="13.38" fill="#231f20"/>
  <rect x="577.69" y="1007.79" width="13.38" height="13.38" fill="#231f20"/>
  <rect x="490.8" y="965.51" width="13.38" height="13.38" fill="#231f20"/>
  <rect x="490.8" y="921.88" width="13.38" height="13.38" fill="#231f20"/>
  <rect x="490.8" y="1051.42" width="13.38" height="13.38" fill="#231f20"/>
  <rect x="490.8" y="1007.79" width="13.38" height="13.38" fill="#231f20"/>
  <rect x="447.36" y="965.51" width="13.38" height="13.38" fill="#231f20"/>
  <rect x="447.36" y="921.88" width="13.38" height="13.38" fill="#231f20"/>
  <rect x="447.36" y="1051.42" width="13.38" height="13.38" fill="#231f20"/>
  <rect x="447.36" y="1007.79" width="13.38" height="13.38" fill="#231f20"/>
</svg>