<?xml version="1.0" encoding="UTF-8"?>
<svg id="_25" data-name="25" xmlns="http://www.w3.org/2000/svg" viewBox="0 0 1080 1080">
  <rect x="216" y="735.31" width="40.84" height="40.84" fill="#231f20"/>
  <rect x="172.73" y="735.31" width="40.84" height="40.84" fill="#231f20"/>
  <rect x="216" y="778.58" width="40.84" height="40.84" fill="#231f20"/>
  <rect x="172.73" y="778.58" width="40.84" height="40.84" fill="#231f20"/>
  <rect x="216" y="821.85" width="40.84" height="40.84" fill="#231f20"/>
  <rect x="172.73" y="821.85" width="40.84" height="40.84" fill="#231f20"/>
  <rect x="216" y="865.12" width="40.84" height="40.84" fill="#231f20"/>
  <rect x="172.73" y="865.12" width="40.84" height="40.84" fill="#231f20"/>
  <rect x="216" y="692.04" width="40.84" height="40.84" fill="#231f20"/>
  <rect x="172.73" y="692.04" width="40.84" height="40.84" fill="#231f20"/>
  <rect x="129.61" y="692.04" width="40.84" height="40.84" fill="#231f20"/>
  <rect x="129.61" y="735.31" width="40.84" height="40.84" fill="#231f20"/>
  <rect x="129.61" y="778.58" width="40.84" height="40.84" fill="#231f20"/>
  <rect x="86.34" y="735.31" width="40.84" height="40.84" fill="#231f20"/>
  <rect x="86.34" y="778.58" width="40.84" height="40.84" fill="#231f20"/>
  <rect x="86.34" y="692.04" width="40.84" height="40.84" fill="#231f20"/>
  <rect x="216" y="648.77" width="40.84" height="40.84" fill="#231f20"/>
  <rect x="172.73" y="648.77" width="40.84" height="40.84" fill="#231f20"/>
  <rect x="129.45" y="648.77" width="40.84" height="40.84" fill="#231f20"/>
  <rect x="86.18" y="648.77" width="40.84" height="40.84" fill="#231f20"/>
  <rect x="216" y="605.5" width="40.84" height="40.84" fill="#231f20"/>
  <rect x="172.73" y="605.5" width="40.84" height="40.84" fill="#231f20"/>
  <rect x="129.45" y="605.5" width="40.84" height="40.84" fill="#231f20"/>
  <rect x="86.18" y="605.5" width="40.84" height="40.84" fill="#231f20"/>
  <rect x="86.18" y="562.23" width="40.84" height="40.84" fill="#231f20"/>
  <rect x="216" y="951.66" width="40.84" height="40.84" fill="#231f20"/>
  <rect x="172.73" y="951.66" width="40.84" height="40.84" fill="#231f20"/>
  <rect x="216" y="994.93" width="40.84" height="40.84" fill="#231f20"/>
  <rect x="172.73" y="994.93" width="40.84" height="40.84" fill="#231f20"/>
  <rect x="216" y="1038.2" width="40.84" height="40.84" fill="#231f20"/>
  <rect x="172.73" y="1038.2" width="40.84" height="40.84" fill="#231f20"/>
  <rect x="216" y="908.39" width="40.84" height="40.84" fill="#231f20"/>
  <rect x="259.27" y="735.31" width="40.84" height="40.84" fill="#231f20"/>
  <rect x="259.27" y="778.58" width="40.84" height="40.84" fill="#231f20"/>
  <rect x="259.27" y="821.85" width="40.84" height="40.84" fill="#231f20"/>
  <rect x="259.27" y="865.12" width="40.84" height="40.84" fill="#231f20"/>
  <rect x="259.27" y="692.04" width="40.84" height="40.84" fill="#231f20"/>
  <rect x="259.27" y="648.77" width="40.84" height="40.84" fill="#231f20"/>
  <rect x="259.27" y="605.5" width="40.84" height="40.84" fill="#231f20"/>
  <rect x="259.27" y="951.66" width="40.84" height="40.84" fill="#231f20"/>
  <rect x="259.27" y="994.93" width="40.84" height="40.84" fill="#231f20"/>
  <rect x="259.27" y="1038.2" width="40.84" height="40.84" fill="#231f20"/>
  <rect x="259.27" y="908.39" width="40.84" height="40.84" fill="#231f20"/>
  <rect x="302.47" y="735.31" width="40.84" height="40.84" fill="#231f20"/>
  <rect x="302.47" y="778.58" width="40.84" height="40.84" fill="#231f20"/>
  <rect x="302.47" y="821.85" width="40.84" height="40.84" fill="#231f20"/>
  <rect x="302.47" y="865.12" width="40.84" height="40.84" fill="#231f20"/>
  <rect x="302.47" y="951.66" width="40.84" height="40.84" fill="#231f20"/>
  <rect x="302.47" y="994.93" width="40.84" height="40.84" fill="#231f20"/>
  <rect x="302.47" y="1038.2" width="40.84" height="40.84" fill="#231f20"/>
  <rect x="302.47" y="908.39" width="40.84" height="40.84" fill="#231f20"/>
  <rect x="345.67" y="735.2" width="40.84" height="40.84" fill="#231f20"/>
  <rect x="345.67" y="778.47" width="40.84" height="40.84" fill="#231f20"/>
  <rect x="345.67" y="821.74" width="40.84" height="40.84" fill="#231f20"/>
  <rect x="345.67" y="865.01" width="40.84" height="40.84" fill="#231f20"/>
  <rect x="345.67" y="951.55" width="40.84" height="40.84" fill="#231f20"/>
  <rect x="345.67" y="994.82" width="40.84" height="40.84" fill="#231f20"/>
  <rect x="345.67" y="1038.09" width="40.84" height="40.84" fill="#231f20"/>
  <rect x="345.67" y="908.28" width="40.84" height="40.84" fill="#231f20"/>
  <rect x="172.73" y="908.39" width="40.84" height="40.84" fill="#231f20"/>
  <rect x="359.55" y="316.62" width="13.39" height="13.39" fill="#231f20"/>
  <rect x="317.68" y="316.62" width="13.39" height="13.39" fill="#231f20"/>
  <rect x="447.1" y="1050.91" width="13.39" height="13.39" fill="#231f20"/>
  <rect x="488.47" y="1008.65" width="13.39" height="13.39" fill="#231f20"/>
  <rect x="447.1" y="1008.65" width="13.39" height="13.39" fill="#231f20"/>
  <rect x="488.47" y="965.38" width="13.39" height="13.39" fill="#231f20"/>
  <rect x="447.1" y="965.38" width="13.39" height="13.39" fill="#231f20"/>
  <rect x="316.98" y="705.26" width="13.39" height="13.39" fill="#231f20"/>
  <rect x="358.35" y="662.99" width="13.39" height="13.39" fill="#231f20"/>
  <rect x="316.98" y="662.99" width="13.39" height="13.39" fill="#231f20"/>
  <rect x="358.35" y="619.72" width="13.39" height="13.39" fill="#231f20"/>
  <rect x="316.98" y="619.72" width="13.39" height="13.39" fill="#231f20"/>
  <rect x="358.35" y="575.95" width="13.39" height="13.39" fill="#231f20"/>
  <rect x="403.36" y="575.95" width="13.39" height="13.39" fill="#231f20"/>
  <rect x="316.98" y="575.95" width="13.39" height="13.39" fill="#231f20"/>
  <rect x="487.93" y="575.95" width="13.39" height="13.39" fill="#231f20"/>
  <rect x="532.94" y="575.95" width="13.39" height="13.39" fill="#231f20"/>
  <rect x="446.56" y="575.95" width="13.39" height="13.39" fill="#231f20"/>
  <rect x="271.97" y="575.95" width="13.39" height="13.39" fill="#231f20"/>
  <rect x="230.59" y="575.95" width="13.39" height="13.39" fill="#231f20"/>
  <rect x="316.98" y="533.22" width="13.39" height="13.39" fill="#231f20"/>
  <rect x="271.97" y="533.22" width="13.39" height="13.39" fill="#231f20"/>
  <rect x="230.59" y="533.22" width="13.39" height="13.39" fill="#231f20"/>
  <rect x="186.45" y="575.95" width="13.39" height="13.39" fill="#231f20"/>
  <rect x="186.45" y="533.22" width="13.39" height="13.39" fill="#231f20"/>
  <rect x="144.91" y="533.22" width="13.39" height="13.39" fill="#231f20"/>
  <rect x="144.91" y="575.78" width="13.39" height="13.39" fill="#231f20"/>
  <rect x="99.9" y="533.22" width="13.39" height="13.39" fill="#231f20"/>
  <rect x="58.52" y="533.22" width="13.39" height="13.39" fill="#231f20"/>
  <rect x="316.98" y="491.6" width="13.39" height="13.39" fill="#231f20"/>
  <rect x="358.35" y="533.22" width="13.39" height="13.39" fill="#231f20"/>
  <rect x="358.35" y="491.6" width="13.39" height="13.39" fill="#231f20"/>
  <rect x="271.97" y="491.6" width="13.39" height="13.39" fill="#231f20"/>
  <rect x="230.59" y="491.6" width="13.39" height="13.39" fill="#231f20"/>
  <rect x="186.45" y="491.6" width="13.39" height="13.39" fill="#231f20"/>
  <rect x="144.91" y="491.6" width="13.39" height="13.39" fill="#231f20"/>
  <rect x="99.9" y="491.6" width="13.39" height="13.39" fill="#231f20"/>
  <rect x="58.52" y="491.6" width="13.39" height="13.39" fill="#231f20"/>
  <rect x="316.98" y="448.83" width="13.39" height="13.39" fill="#231f20"/>
  <rect x="358.35" y="448.83" width="13.39" height="13.39" fill="#231f20"/>
  <rect x="403.36" y="533.22" width="13.39" height="13.39" fill="#231f20"/>
  <rect x="403.36" y="491.6" width="13.39" height="13.39" fill="#231f20"/>
  <rect x="444.74" y="491.6" width="13.39" height="13.39" fill="#231f20"/>
  <rect x="489.75" y="491.6" width="13.39" height="13.39" fill="#231f20"/>
  <rect x="444.74" y="533.22" width="13.39" height="13.39" fill="#231f20"/>
  <rect x="489.75" y="533.22" width="13.39" height="13.39" fill="#231f20"/>
  <rect x="403.36" y="448.83" width="13.39" height="13.39" fill="#231f20"/>
  <rect x="444.74" y="360.24" width="13.39" height="13.39" fill="#231f20"/>
  <rect x="444.74" y="317.46" width="13.39" height="13.39" fill="#231f20"/>
  <rect x="402.15" y="360.24" width="13.39" height="13.39" fill="#231f20"/>
  <rect x="359.91" y="360.24" width="13.39" height="13.39" fill="#231f20"/>
  <rect x="402.15" y="317.46" width="13.39" height="13.39" fill="#231f20"/>
  <rect x="489.75" y="360.24" width="13.39" height="13.39" fill="#231f20"/>
  <rect x="489.75" y="317.46" width="13.39" height="13.39" fill="#231f20"/>
  <rect x="532.04" y="401.92" width="13.39" height="13.39" fill="#231f20"/>
  <rect x="532.04" y="359.14" width="13.39" height="13.39" fill="#231f20"/>
  <rect x="532.04" y="316.62" width="13.39" height="13.39" fill="#231f20"/>
  <rect x="575.63" y="448.83" width="13.39" height="13.39" fill="#231f20"/>
  <rect x="534.76" y="448.83" width="13.39" height="13.39" fill="#231f20"/>
  <rect x="575.63" y="401.79" width="13.39" height="13.39" fill="#231f20"/>
  <rect x="575.63" y="359.27" width="13.39" height="13.39" fill="#231f20"/>
  <rect x="618.22" y="359.27" width="13.39" height="13.39" fill="#231f20"/>
  <rect x="618.22" y="401.79" width="13.39" height="13.39" fill="#231f20"/>
  <rect x="618.22" y="317.46" width="13.39" height="13.39" fill="#231f20"/>
  <rect x="575.63" y="317.46" width="13.39" height="13.39" fill="#231f20"/>
  <rect x="662.6" y="317.42" width="13.39" height="13.39" fill="#231f20"/>
  <rect x="790.91" y="187.46" width="13.39" height="13.39" fill="#231f20"/>
  <rect x="748.32" y="187.46" width="13.39" height="13.39" fill="#231f20"/>
  <rect x="833.51" y="187.46" width="13.39" height="13.39" fill="#231f20"/>
  <rect x="790.91" y="143.35" width="13.39" height="13.39" fill="#231f20"/>
  <rect x="833.51" y="143.35" width="13.39" height="13.39" fill="#231f20"/>
  <rect x="618.22" y="273.85" width="13.39" height="13.39" fill="#231f20"/>
  <rect x="575.63" y="273.85" width="13.39" height="13.39" fill="#231f20"/>
  <rect x="532.04" y="273.85" width="13.39" height="13.39" fill="#231f20"/>
  <rect x="618.22" y="232.04" width="13.39" height="13.39" fill="#231f20"/>
  <rect x="575.63" y="232.04" width="13.39" height="13.39" fill="#231f20"/>
  <rect x="662.6" y="273.85" width="13.39" height="13.39" fill="#231f20"/>
  <rect x="662.6" y="231.06" width="13.39" height="13.39" fill="#231f20"/>
  <rect x="662.6" y="187.48" width="13.39" height="13.39" fill="#231f20"/>
  <rect x="662.6" y="143.35" width="13.39" height="13.39" fill="#231f20"/>
  <rect x="662.6" y="99.78" width="13.39" height="13.39" fill="#231f20"/>
  <rect x="619.22" y="187.48" width="13.39" height="13.39" fill="#231f20"/>
  <rect x="619.22" y="143.35" width="13.39" height="13.39" fill="#231f20"/>
  <rect x="575.63" y="185.87" width="13.39" height="13.39" fill="#231f20"/>
  <rect x="662.6" y="56.99" width="13.39" height="13.39" fill="#231f20"/>
  <rect x="705.99" y="56.99" width="13.39" height="13.39" fill="#231f20"/>
  <rect x="748.32" y="100.54" width="13.39" height="13.39" fill="#231f20"/>
  <rect x="662.6" y="13.42" width="13.39" height="13.39" fill="#231f20"/>
  <rect x="619.22" y="13.42" width="13.39" height="13.39" fill="#231f20"/>
  <rect x="359.55" y="273.01" width="13.39" height="13.39" fill="#231f20"/>
  <rect x="444.74" y="273.85" width="13.39" height="13.39" fill="#231f20"/>
  <rect x="402.15" y="273.85" width="13.39" height="13.39" fill="#231f20"/>
  <rect x="444.74" y="230.28" width="13.39" height="13.39" fill="#231f20"/>
  <rect x="402.15" y="230.28" width="13.39" height="13.39" fill="#231f20"/>
  <rect x="444.74" y="187.48" width="13.39" height="13.39" fill="#231f20"/>
  <rect x="402.15" y="187.48" width="13.39" height="13.39" fill="#231f20"/>
  <rect x="444.74" y="143.35" width="13.39" height="13.39" fill="#231f20"/>
  <rect x="444.74" y="100.54" width="13.39" height="13.39" fill="#231f20"/>
  <rect x="402.15" y="143.35" width="13.39" height="13.39" fill="#231f20"/>
  <rect x="489.75" y="273.85" width="13.39" height="13.39" fill="#231f20"/>
  <rect x="187.48" y="273.01" width="13.39" height="13.39" fill="#231f20"/>
  <rect x="272.66" y="273.85" width="13.39" height="13.39" fill="#231f20"/>
  <rect x="272.66" y="316.62" width="13.39" height="13.39" fill="#231f20"/>
  <rect x="230.07" y="273.85" width="13.39" height="13.39" fill="#231f20"/>
  <rect x="317.68" y="273.85" width="13.39" height="13.39" fill="#231f20"/>
  <rect x="403.36" y="746.47" width="13.39" height="13.39" fill="#231f20"/>
  <rect x="444.74" y="746.47" width="13.39" height="13.39" fill="#231f20"/>
  <rect x="403.36" y="703.74" width="13.39" height="13.39" fill="#231f20"/>
  <rect x="359.39" y="703.74" width="13.39" height="13.39" fill="#231f20"/>
  <rect x="403.36" y="662.12" width="13.39" height="13.39" fill="#231f20"/>
  <rect x="403.36" y="619.35" width="13.39" height="13.39" fill="#231f20"/>
  <rect x="444.74" y="703.74" width="13.39" height="13.39" fill="#231f20"/>
  <rect x="444.74" y="662.12" width="13.39" height="13.39" fill="#231f20"/>
  <rect x="444.74" y="619.35" width="13.39" height="13.39" fill="#231f20"/>
  <rect x="403.36" y="919.44" width="13.39" height="13.39" fill="#231f20"/>
  <rect x="444.74" y="919.44" width="13.39" height="13.39" fill="#231f20"/>
  <rect x="403.36" y="876.71" width="13.39" height="13.39" fill="#231f20"/>
  <rect x="403.36" y="835.09" width="13.39" height="13.39" fill="#231f20"/>
  <rect x="403.36" y="1050.82" width="13.39" height="13.39" fill="#231f20"/>
  <rect x="403.36" y="1008.09" width="13.39" height="13.39" fill="#231f20"/>
  <rect x="403.36" y="966.47" width="13.39" height="13.39" fill="#231f20"/>
  <rect x="403.36" y="792.32" width="13.39" height="13.39" fill="#231f20"/>
  <rect x="444.74" y="876.71" width="13.39" height="13.39" fill="#231f20"/>
  <rect x="444.74" y="835.09" width="13.39" height="13.39" fill="#231f20"/>
  <rect x="444.74" y="792.32" width="13.39" height="13.39" fill="#231f20"/>
  <rect x="271.97" y="448.83" width="13.39" height="13.39" fill="#231f20"/>
  <rect x="230.59" y="448.83" width="13.39" height="13.39" fill="#231f20"/>
  <rect x="186.45" y="448.83" width="13.39" height="13.39" fill="#231f20"/>
  <rect x="144.91" y="448.83" width="13.39" height="13.39" fill="#231f20"/>
  <rect x="271.97" y="401.92" width="13.39" height="13.39" fill="#231f20"/>
  <rect x="230.59" y="401.92" width="13.39" height="13.39" fill="#231f20"/>
  <rect x="186.45" y="401.92" width="13.39" height="13.39" fill="#231f20"/>
  <rect x="144.91" y="401.92" width="13.39" height="13.39" fill="#231f20"/>
  <rect x="271.97" y="361.09" width="13.39" height="13.39" fill="#231f20"/>
  <rect x="230.59" y="361.09" width="13.39" height="13.39" fill="#231f20"/>
  <rect x="186.45" y="361.09" width="13.39" height="13.39" fill="#231f20"/>
  <rect x="144.91" y="361.09" width="13.39" height="13.39" fill="#231f20"/>
  <rect x="101.32" y="361.09" width="13.39" height="13.39" fill="#231f20"/>
  <rect x="57.11" y="361.09" width="13.39" height="13.39" fill="#231f20"/>
  <rect x="13.52" y="361.09" width="13.39" height="13.39" fill="#231f20"/>
  <rect x="145.38" y="315.63" width="13.39" height="13.39" fill="#231f20"/>
  <rect x="144.91" y="273.43" width="13.39" height="13.39" fill="#231f20"/>
  <rect x="187.48" y="229.44" width="13.39" height="13.39" fill="#231f20"/>
  <rect x="272.66" y="230.28" width="13.39" height="13.39" fill="#231f20"/>
  <rect x="230.07" y="230.28" width="13.39" height="13.39" fill="#231f20"/>
  <rect x="144.91" y="229.86" width="13.39" height="13.39" fill="#231f20"/>
  <rect x="187.48" y="186.62" width="13.39" height="13.39" fill="#231f20"/>
  <rect x="187.48" y="143.35" width="13.39" height="13.39" fill="#231f20"/>
  <rect x="187.48" y="100.54" width="13.39" height="13.39" fill="#231f20"/>
  <rect x="187.48" y="56.94" width="13.39" height="13.39" fill="#231f20"/>
  <rect x="187.48" y="13.67" width="13.39" height="13.39" fill="#231f20"/>
  <rect x="231.05" y="56.94" width="13.39" height="13.39" fill="#231f20"/>
  <rect x="231.05" y="13.67" width="13.39" height="13.39" fill="#231f20"/>
  <rect x="230.05" y="143.35" width="13.39" height="13.39" fill="#231f20"/>
  <rect x="230.05" y="100.54" width="13.39" height="13.39" fill="#231f20"/>
  <rect x="230.07" y="187.46" width="13.39" height="13.39" fill="#231f20"/>
  <rect x="271.95" y="143.35" width="13.39" height="13.39" fill="#231f20"/>
  <rect x="271.98" y="187.46" width="13.39" height="13.39" fill="#231f20"/>
  <rect x="359.91" y="230.28" width="13.39" height="13.39" fill="#231f20"/>
  <rect x="359.2" y="143.35" width="13.39" height="13.39" fill="#231f20"/>
  <rect x="315.6" y="143.35" width="13.39" height="13.39" fill="#231f20"/>
  <rect x="359.22" y="187.46" width="13.39" height="13.39" fill="#231f20"/>
  <rect x="359.91" y="98.57" width="13.39" height="13.39" fill="#231f20"/>
  <rect x="402.15" y="98.57" width="13.39" height="13.39" fill="#231f20"/>
  <rect x="359.2" y="11.64" width="13.39" height="13.39" fill="#231f20"/>
  <rect x="359.22" y="55.75" width="13.39" height="13.39" fill="#231f20"/>
  <rect x="315.59" y="11.64" width="13.39" height="13.39" fill="#231f20"/>
  <rect x="273.34" y="11.64" width="13.39" height="13.39" fill="#231f20"/>
  <rect x="315.61" y="55.75" width="13.39" height="13.39" fill="#231f20"/>
  <rect x="315.6" y="187.46" width="13.39" height="13.39" fill="#231f20"/>
  <rect x="144.91" y="187.04" width="13.39" height="13.39" fill="#231f20"/>
  <rect x="145.38" y="142.49" width="13.39" height="13.39" fill="#231f20"/>
  <rect x="144.91" y="100.29" width="13.39" height="13.39" fill="#231f20"/>
  <rect x="144.91" y="56.71" width="13.39" height="13.39" fill="#231f20"/>
  <rect x="144.91" y="13.9" width="13.39" height="13.39" fill="#231f20"/>
  <rect x="58.76" y="142.49" width="13.39" height="13.39" fill="#231f20"/>
  <rect x="58.29" y="100.29" width="13.39" height="13.39" fill="#231f20"/>
  <rect x="58.29" y="56.71" width="13.39" height="13.39" fill="#231f20"/>
  <rect x="58.29" y="13.9" width="13.39" height="13.39" fill="#231f20"/>
  <rect x="101.32" y="315.63" width="13.39" height="13.39" fill="#231f20"/>
  <rect x="57.11" y="315.63" width="13.39" height="13.39" fill="#231f20"/>
  <rect x="12.89" y="315.63" width="13.39" height="13.39" fill="#231f20"/>
  <rect x="231.05" y="315.63" width="13.39" height="13.39" fill="#231f20"/>
  <rect x="186.99" y="315.63" width="13.39" height="13.39" fill="#231f20"/>
  <rect x="99.9" y="273.43" width="13.39" height="13.39" fill="#231f20"/>
  <rect x="101.32" y="229.86" width="13.39" height="13.39" fill="#231f20"/>
  <rect x="101.32" y="186.61" width="13.39" height="13.39" fill="#231f20"/>
  <rect x="57.26" y="229.86" width="13.39" height="13.39" fill="#231f20"/>
  <rect x="57.26" y="186.61" width="13.39" height="13.39" fill="#231f20"/>
  <rect x="15.01" y="142.49" width="13.39" height="13.39" fill="#231f20"/>
  <rect x="13.52" y="229.86" width="13.39" height="13.39" fill="#231f20"/>
  <rect x="13.52" y="186.61" width="13.39" height="13.39" fill="#231f20"/>
  <rect x="99.9" y="448.83" width="13.39" height="13.39" fill="#231f20"/>
  <rect x="58.52" y="448.83" width="13.39" height="13.39" fill="#231f20"/>
  <rect x="14.38" y="533.22" width="13.39" height="13.39" fill="#231f20"/>
</svg>