<?xml version="1.0" encoding="UTF-8"?>
<svg id="_8" data-name="8" xmlns="http://www.w3.org/2000/svg" viewBox="0 0 1080 1080">
  <rect x="389.9" y="390.22" width="40.84" height="40.84" transform="translate(820.97 .32) rotate(90)" fill="#231f20"/>
  <rect x="389.9" y="346.68" width="40.84" height="40.84" transform="translate(777.42 -43.23) rotate(90)" fill="#231f20"/>
  <rect x="433" y="433.22" width="40.84" height="40.84" transform="translate(907.06 .22) rotate(90)" fill="#231f20"/>
  <rect x="433" y="476.59" width="40.84" height="40.84" transform="translate(950.43 43.58) rotate(90)" fill="#231f20"/>
  <rect x="433" y="389.67" width="40.84" height="40.84" transform="translate(863.51 -43.33) rotate(90)" fill="#231f20"/>
  <rect x="389.9" y="303.68" width="40.84" height="40.84" transform="translate(734.43 -86.22) rotate(90)" fill="#231f20"/>
  <rect x="476.56" y="390.22" width="40.84" height="40.84" transform="translate(907.63 -86.34) rotate(90)" fill="#231f20"/>
  <rect x="476.56" y="346.68" width="40.84" height="40.84" transform="translate(864.08 -129.89) rotate(90)" fill="#231f20"/>
  <rect x="433" y="346.68" width="40.84" height="40.84" transform="translate(820.52 -86.33) rotate(90)" fill="#231f20"/>
  <rect x="476.56" y="303.68" width="40.84" height="40.84" transform="translate(821.09 -172.88) rotate(90)" fill="#231f20"/>
  <rect x="519.61" y="390.22" width="40.84" height="40.84" transform="translate(950.67 -129.38) rotate(90)" fill="#231f20"/>
  <rect x="519.61" y="346.68" width="40.84" height="40.84" transform="translate(907.13 -172.93) rotate(90)" fill="#231f20"/>
  <rect x="519.61" y="303.68" width="40.84" height="40.84" transform="translate(864.13 -215.92) rotate(90)" fill="#231f20"/>
  <rect x="519.58" y="562.95" width="40.84" height="40.84" transform="translate(1123.37 43.37) rotate(90)" fill="#231f20"/>
  <rect x="433" y="606.31" width="40.84" height="40.84" transform="translate(1080.16 173.31) rotate(90)" fill="#231f20"/>
  <rect x="562.74" y="519.58" width="40.84" height="40.84" transform="translate(1123.16 -43.16) rotate(90)" fill="#231f20"/>
  <rect x="562.74" y="562.95" width="40.84" height="40.84" transform="translate(1166.53 .2) rotate(90)" fill="#231f20"/>
  <rect x="389.9" y="692.49" width="40.84" height="40.84" transform="translate(1123.23 302.58) rotate(90)" fill="#231f20"/>
  <rect x="346.91" y="692.49" width="40.84" height="40.84" transform="translate(1080.24 345.58) rotate(90)" fill="#231f20"/>
  <rect x="389.9" y="735.55" width="40.84" height="40.84" transform="translate(1166.3 345.65) rotate(90)" fill="#231f20"/>
  <rect x="346.91" y="735.55" width="40.84" height="40.84" transform="translate(1123.3 388.64) rotate(90)" fill="#231f20"/>
  <rect x="346.81" y="649.23" width="40.84" height="40.84" transform="translate(1036.88 302.42) rotate(90)" fill="#231f20"/>
  <rect x="389.9" y="562.95" width="40.84" height="40.84" transform="translate(993.69 173.04) rotate(90)" fill="#231f20"/>
  <rect x="519.58" y="519.58" width="40.84" height="40.84" transform="translate(1080 0) rotate(90)" fill="#231f20"/>
  <rect x="519.58" y="476.21" width="40.84" height="40.84" transform="translate(1036.64 -43.37) rotate(90)" fill="#231f20"/>
  <rect x="563.02" y="476.21" width="40.84" height="40.84" transform="translate(1080.07 -86.81) rotate(90)" fill="#231f20"/>
  <rect x="519.58" y="433.22" width="40.84" height="40.84" transform="translate(993.64 -86.37) rotate(90)" fill="#231f20"/>
  <rect x="563.02" y="433.22" width="40.84" height="40.84" transform="translate(1037.08 -129.8) rotate(90)" fill="#231f20"/>
  <rect x="606.03" y="692.65" width="40.84" height="40.84" transform="translate(1339.52 86.62) rotate(90)" fill="#231f20"/>
  <rect x="606.03" y="649.1" width="40.84" height="40.84" transform="translate(1295.97 43.07) rotate(90)" fill="#231f20"/>
  <rect x="606.03" y="606.11" width="40.84" height="40.84" transform="translate(1252.98 .08) rotate(90)" fill="#231f20"/>
  <rect x="822.09" y="519.61" width="40.84" height="40.84" transform="translate(1685.02 1080.06) rotate(180)" fill="#231f20"/>
  <rect x="865.08" y="519.61" width="40.84" height="40.84" transform="translate(1771 1080.06) rotate(180)" fill="#231f20"/>
  <rect x="692.49" y="303.68" width="40.84" height="40.84" transform="translate(1425.82 648.21) rotate(180)" fill="#231f20"/>
  <rect x="735.48" y="303.68" width="40.84" height="40.84" transform="translate(1511.8 648.21) rotate(180)" fill="#231f20"/>
  <rect x="692.49" y="260.59" width="40.84" height="40.84" transform="translate(1425.82 562.01) rotate(180)" fill="#231f20"/>
  <rect x="735.48" y="260.59" width="40.84" height="40.84" transform="translate(1511.8 562.01) rotate(180)" fill="#231f20"/>
  <rect x="692.49" y="346.68" width="40.84" height="40.84" transform="translate(1425.82 734.2) rotate(180)" fill="#231f20"/>
  <rect x="735.48" y="346.68" width="40.84" height="40.84" transform="translate(1511.8 734.2) rotate(180)" fill="#231f20"/>
  <rect x="389.9" y="217.14" width="40.84" height="40.84" transform="translate(647.89 -172.76) rotate(90)" fill="#231f20"/>
  <rect x="389.9" y="174.15" width="40.84" height="40.84" transform="translate(604.89 -215.76) rotate(90)" fill="#231f20"/>
  <rect x="346.91" y="174.15" width="40.84" height="40.84" transform="translate(561.9 -172.76) rotate(90)" fill="#231f20"/>
  <rect x="389.9" y="87.43" width="40.84" height="40.84" transform="translate(518.17 -302.48) rotate(90)" fill="#231f20"/>
  <rect x="389.9" y="44.43" width="40.84" height="40.84" transform="translate(475.18 -345.47) rotate(90)" fill="#231f20"/>
  <rect x="346.81" y="87.43" width="40.84" height="40.84" transform="translate(475.07 -259.38) rotate(90)" fill="#231f20"/>
  <rect x="346.81" y="130.89" width="40.84" height="40.84" transform="translate(518.53 -215.92) rotate(90)" fill="#231f20"/>
  <rect x="346.81" y="44.43" width="40.84" height="40.84" transform="translate(432.08 -302.37) rotate(90)" fill="#231f20"/>
  <rect x="389.9" y="1.23" width="40.84" height="40.84" transform="translate(431.97 -388.68) rotate(90)" fill="#231f20"/>
  <rect x="433" y="87.43" width="40.84" height="40.84" transform="translate(561.27 -345.58) rotate(90)" fill="#231f20"/>
  <rect x="433" y="44.43" width="40.84" height="40.84" transform="translate(518.28 -388.57) rotate(90)" fill="#231f20"/>
  <rect x="433" y="1.23" width="40.84" height="40.84" transform="translate(475.07 -431.77) rotate(90)" fill="#231f20"/>
  <rect x="476.56" y="87.43" width="40.84" height="40.84" transform="translate(604.83 -389.14) rotate(90)" fill="#231f20"/>
  <rect x="476.56" y="44.43" width="40.84" height="40.84" transform="translate(561.84 -432.13) rotate(90)" fill="#231f20"/>
  <rect x="476.56" y="1.23" width="40.84" height="40.84" transform="translate(518.63 -475.33) rotate(90)" fill="#231f20"/>
  <rect x="519.58" y="87.43" width="40.84" height="40.84" transform="translate(647.85 -432.15) rotate(90)" fill="#231f20"/>
  <rect x="519.58" y="44.43" width="40.84" height="40.84" transform="translate(604.85 -475.15) rotate(90)" fill="#231f20"/>
  <rect x="519.58" y="1.23" width="40.84" height="40.84" transform="translate(561.65 -518.35) rotate(90)" fill="#231f20"/>
  <rect x="562.59" y="87.43" width="40.84" height="40.84" transform="translate(690.86 -475.17) rotate(90)" fill="#231f20"/>
  <rect x="562.59" y="44.43" width="40.84" height="40.84" transform="translate(647.87 -518.16) rotate(90)" fill="#231f20"/>
  <rect x="562.59" y="1.23" width="40.84" height="40.84" transform="translate(604.67 -561.37) rotate(90)" fill="#231f20"/>
  <rect x="605.61" y="87.43" width="40.84" height="40.84" transform="translate(733.88 -518.19) rotate(90)" fill="#231f20"/>
  <rect x="476.56" y="130.89" width="40.84" height="40.84" transform="translate(648.29 -345.68) rotate(90)" fill="#231f20"/>
  <rect x="519.58" y="130.89" width="40.84" height="40.84" transform="translate(691.31 -388.69) rotate(90)" fill="#231f20"/>
  <rect x="562.59" y="130.89" width="40.84" height="40.84" transform="translate(734.32 -431.71) rotate(90)" fill="#231f20"/>
  <rect x="605.61" y="130.89" width="40.84" height="40.84" transform="translate(777.34 -474.72) rotate(90)" fill="#231f20"/>
  <rect x="519.58" y="174.15" width="40.84" height="40.84" transform="translate(734.57 -345.43) rotate(90)" fill="#231f20"/>
  <rect x="562.59" y="174.15" width="40.84" height="40.84" transform="translate(777.58 -388.45) rotate(90)" fill="#231f20"/>
  <rect x="605.61" y="174.15" width="40.84" height="40.84" transform="translate(820.6 -431.46) rotate(90)" fill="#231f20"/>
  <rect x="605.61" y="44.43" width="40.84" height="40.84" transform="translate(690.88 -561.18) rotate(90)" fill="#231f20"/>
  <rect x="605.61" y="1.23" width="40.84" height="40.84" transform="translate(647.68 -604.38) rotate(90)" fill="#231f20"/>
  <rect x="649.11" y="87.16" width="40.84" height="40.84" transform="translate(777.11 -561.94) rotate(90)" fill="#231f20"/>
  <rect x="649.11" y="130.62" width="40.84" height="40.84" transform="translate(820.57 -518.48) rotate(90)" fill="#231f20"/>
  <rect x="649.11" y="173.88" width="40.84" height="40.84" transform="translate(863.83 -475.22) rotate(90)" fill="#231f20"/>
  <rect x="649.11" y="44.17" width="40.84" height="40.84" transform="translate(734.12 -604.94) rotate(90)" fill="#231f20"/>
  <rect x="649.11" y=".97" width="40.84" height="40.84" transform="translate(690.91 -648.14) rotate(90)" fill="#231f20"/>
  <rect x="433" y="217.25" width="40.84" height="40.84" transform="translate(691.09 -215.76) rotate(90)" fill="#231f20"/>
  <rect x="433" y="174.25" width="40.84" height="40.84" transform="translate(648.1 -258.75) rotate(90)" fill="#231f20"/>
  <rect x="433" y="131.05" width="40.84" height="40.84" transform="translate(604.89 -301.95) rotate(90)" fill="#231f20"/>
  <rect x="346.81" y="1.23" width="40.84" height="40.84" transform="translate(388.88 -345.58) rotate(90)" fill="#231f20"/>
  <rect x="360.63" y="360.08" width="13.39" height="13.39" transform="translate(734.11 -.55) rotate(90)" fill="#231f20"/>
  <rect x="360.63" y="317.72" width="13.39" height="13.39" transform="translate(691.74 -42.92) rotate(90)" fill="#231f20"/>
  <rect x="360.63" y="273.68" width="13.39" height="13.39" transform="translate(647.71 -86.95) rotate(90)" fill="#231f20"/>
  <rect x="360.63" y="231.32" width="13.39" height="13.39" transform="translate(605.34 -129.32) rotate(90)" fill="#231f20"/>
  <rect x="403.2" y="446.48" width="13.39" height="13.39" transform="translate(863.07 43.28) rotate(90)" fill="#231f20"/>
  <rect x="403.2" y="490.31" width="13.39" height="13.39" transform="translate(906.9 87.11) rotate(90)" fill="#231f20"/>
  <rect x="490.02" y="446.48" width="13.39" height="13.39" transform="translate(949.89 -43.54) rotate(90)" fill="#231f20"/>
  <rect x="490.02" y="490.31" width="13.39" height="13.39" transform="translate(993.72 .29) rotate(90)" fill="#231f20"/>
  <rect x="490.02" y="532.98" width="13.39" height="13.39" transform="translate(1036.4 42.97) rotate(90)" fill="#231f20"/>
  <rect x="490.02" y="576.81" width="13.39" height="13.39" transform="translate(1080.22 86.8) rotate(90)" fill="#231f20"/>
  <rect x="490.02" y="620.62" width="13.39" height="13.39" transform="translate(1124.03 130.6) rotate(90)" fill="#231f20"/>
  <rect x="490.02" y="664.45" width="13.39" height="13.39" transform="translate(1167.86 174.43) rotate(90)" fill="#231f20"/>
  <rect x="533.33" y="620.62" width="13.39" height="13.39" transform="translate(1167.34 87.29) rotate(90)" fill="#231f20"/>
  <rect x="533.33" y="664.45" width="13.39" height="13.39" transform="translate(1211.17 131.12) rotate(90)" fill="#231f20"/>
  <rect x="576.74" y="620.62" width="13.39" height="13.39" transform="translate(1210.76 43.88) rotate(90)" fill="#231f20"/>
  <rect x="576.74" y="664.45" width="13.39" height="13.39" transform="translate(1254.58 87.7) rotate(90)" fill="#231f20"/>
  <rect x="576.74" y="705.87" width="13.39" height="13.39" transform="translate(1296.01 129.13) rotate(90)" fill="#231f20"/>
  <rect x="576.74" y="749.19" width="13.39" height="13.39" transform="translate(1339.33 172.45) rotate(90)" fill="#231f20"/>
  <rect x="576.74" y="792.38" width="13.39" height="13.39" transform="translate(1382.51 215.63) rotate(90)" fill="#231f20"/>
  <rect x="576.74" y="836.05" width="13.39" height="13.39" transform="translate(1426.18 259.31) rotate(90)" fill="#231f20"/>
  <rect x="533.33" y="707.07" width="13.39" height="13.39" transform="translate(1253.8 173.74) rotate(90)" fill="#231f20"/>
  <rect x="533.33" y="749.19" width="13.39" height="13.39" transform="translate(1295.92 215.86) rotate(90)" fill="#231f20"/>
  <rect x="533.33" y="792.38" width="13.39" height="13.39" transform="translate(1339.1 259.04) rotate(90)" fill="#231f20"/>
  <rect x="490.02" y="707.07" width="13.39" height="13.39" transform="translate(1210.48 217.06) rotate(90)" fill="#231f20"/>
  <rect x="490.02" y="749.19" width="13.39" height="13.39" transform="translate(1252.6 259.18) rotate(90)" fill="#231f20"/>
  <rect x="446.73" y="664.45" width="13.39" height="13.39" transform="translate(1124.57 217.72) rotate(90)" fill="#231f20"/>
  <rect x="446.73" y="707.07" width="13.39" height="13.39" transform="translate(1167.19 260.35) rotate(90)" fill="#231f20"/>
  <rect x="446.73" y="749.19" width="13.39" height="13.39" transform="translate(1209.31 302.47) rotate(90)" fill="#231f20"/>
  <rect x="58.18" y="664.89" width="13.39" height="13.39" transform="translate(736.46 606.71) rotate(90)" fill="#231f20"/>
  <rect x="58.18" y="707.01" width="13.39" height="13.39" transform="translate(778.58 648.83) rotate(90)" fill="#231f20"/>
  <rect x="14.89" y="664.89" width="13.39" height="13.39" transform="translate(693.17 650) rotate(90)" fill="#231f20"/>
  <rect x="14.89" y="707.01" width="13.39" height="13.39" transform="translate(735.29 692.12) rotate(90)" fill="#231f20"/>
  <rect x="490.02" y="792.38" width="13.39" height="13.39" transform="translate(1295.79 302.36) rotate(90)" fill="#231f20"/>
  <rect x="446.56" y="792.38" width="13.39" height="13.39" transform="translate(1252.33 345.82) rotate(90)" fill="#231f20"/>
  <rect x="403.15" y="792.38" width="13.39" height="13.39" transform="translate(1208.92 389.23) rotate(90)" fill="#231f20"/>
  <rect x="359.83" y="792.38" width="13.39" height="13.39" transform="translate(1165.6 432.54) rotate(90)" fill="#231f20"/>
  <rect x="533.33" y="836.05" width="13.39" height="13.39" transform="translate(1382.77 302.72) rotate(90)" fill="#231f20"/>
  <rect x="663.04" y="749.19" width="13.39" height="13.39" transform="translate(1425.63 86.16) rotate(90)" fill="#231f20"/>
  <rect x="663.04" y="792.38" width="13.39" height="13.39" transform="translate(1468.81 129.34) rotate(90)" fill="#231f20"/>
  <rect x="663.04" y="836.05" width="13.39" height="13.39" transform="translate(1512.48 173.01) rotate(90)" fill="#231f20"/>
  <rect x="619.63" y="749.19" width="13.39" height="13.39" transform="translate(1382.21 129.57) rotate(90)" fill="#231f20"/>
  <rect x="619.63" y="792.38" width="13.39" height="13.39" transform="translate(1425.4 172.75) rotate(90)" fill="#231f20"/>
  <rect x="619.63" y="836.05" width="13.39" height="13.39" transform="translate(1469.07 216.42) rotate(90)" fill="#231f20"/>
  <rect x="619.63" y="489.16" width="13.39" height="13.39" transform="translate(1122.18 -130.47) rotate(90)" fill="#231f20"/>
  <rect x="619.63" y="532.98" width="13.39" height="13.39" transform="translate(1166 -86.64) rotate(90)" fill="#231f20"/>
  <rect x="619.63" y="576.81" width="13.39" height="13.39" transform="translate(1209.83 -42.81) rotate(90)" fill="#231f20"/>
  <rect x="619.63" y="360.29" width="13.39" height="13.39" transform="translate(993.31 -259.34) rotate(90)" fill="#231f20"/>
  <rect x="619.63" y="404.12" width="13.39" height="13.39" transform="translate(1037.14 -215.51) rotate(90)" fill="#231f20"/>
  <rect x="576.47" y="360.29" width="13.39" height="13.39" transform="translate(950.15 -216.18) rotate(90)" fill="#231f20"/>
  <rect x="619.63" y="317.72" width="13.39" height="13.39" transform="translate(950.74 -301.91) rotate(90)" fill="#231f20"/>
  <rect x="662.83" y="359.77" width="13.39" height="13.39" transform="translate(1036 -303.06) rotate(90)" fill="#231f20"/>
  <rect x="662.83" y="403.6" width="13.39" height="13.39" transform="translate(1079.82 -259.23) rotate(90)" fill="#231f20"/>
  <rect x="662.83" y="446.94" width="13.39" height="13.39" transform="translate(1123.17 -215.89) rotate(90)" fill="#231f20"/>
  <rect x="706.21" y="403.6" width="13.39" height="13.39" transform="translate(1123.21 -302.61) rotate(90)" fill="#231f20"/>
  <rect x="706.21" y="446.94" width="13.39" height="13.39" transform="translate(1166.55 -259.27) rotate(90)" fill="#231f20"/>
  <rect x="749.59" y="403.6" width="13.39" height="13.39" transform="translate(1166.59 -345.99) rotate(90)" fill="#231f20"/>
  <rect x="749.59" y="446.94" width="13.39" height="13.39" transform="translate(1209.93 -302.65) rotate(90)" fill="#231f20"/>
  <rect x="706.21" y="490.03" width="13.39" height="13.39" transform="translate(1209.63 -216.18) rotate(90)" fill="#231f20"/>
  <rect x="706.21" y="533.37" width="13.39" height="13.39" transform="translate(1252.97 -172.84) rotate(90)" fill="#231f20"/>
  <rect x="749.59" y="490.03" width="13.39" height="13.39" transform="translate(1253.01 -259.56) rotate(90)" fill="#231f20"/>
  <rect x="749.59" y="533.37" width="13.39" height="13.39" transform="translate(1296.35 -216.22) rotate(90)" fill="#231f20"/>
  <rect x="706.21" y="577.74" width="13.39" height="13.39" transform="translate(1297.34 -128.47) rotate(90)" fill="#231f20"/>
  <rect x="706.21" y="621.08" width="13.39" height="13.39" transform="translate(1340.68 -85.13) rotate(90)" fill="#231f20"/>
  <rect x="749.59" y="577.74" width="13.39" height="13.39" transform="translate(1340.72 -171.85) rotate(90)" fill="#231f20"/>
  <rect x="749.59" y="621.08" width="13.39" height="13.39" transform="translate(1384.06 -128.51) rotate(90)" fill="#231f20"/>
  <rect x="791.12" y="403.6" width="13.39" height="13.39" transform="translate(1208.11 -387.52) rotate(90)" fill="#231f20"/>
  <rect x="791.12" y="446.94" width="13.39" height="13.39" transform="translate(1251.45 -344.17) rotate(90)" fill="#231f20"/>
  <rect x="791.12" y="490.03" width="13.39" height="13.39" transform="translate(1294.54 -301.09) rotate(90)" fill="#231f20"/>
  <rect x="791.12" y="533.37" width="13.39" height="13.39" transform="translate(1337.88 -257.75) rotate(90)" fill="#231f20"/>
  <rect x="791.12" y="577.74" width="13.39" height="13.39" transform="translate(1382.25 -213.38) rotate(90)" fill="#231f20"/>
  <rect x="791.12" y="621.08" width="13.39" height="13.39" transform="translate(1425.59 -170.04) rotate(90)" fill="#231f20"/>
  <rect x="706.21" y="664.25" width="13.39" height="13.39" transform="translate(1383.85 -41.97) rotate(90)" fill="#231f20"/>
  <rect x="663.04" y="621.08" width="13.39" height="13.39" transform="translate(1297.51 -41.96) rotate(90)" fill="#231f20"/>
  <rect x="663.04" y="664.25" width="13.39" height="13.39" transform="translate(1340.68 1.21) rotate(90)" fill="#231f20"/>
  <rect x="663.04" y="705.87" width="13.39" height="13.39" transform="translate(1382.3 42.83) rotate(90)" fill="#231f20"/>
  <rect x="749.59" y="664.25" width="13.39" height="13.39" transform="translate(1427.23 -85.35) rotate(90)" fill="#231f20"/>
  <rect x="706.21" y="707.07" width="13.39" height="13.39" transform="translate(1426.68 .86) rotate(90)" fill="#231f20"/>
  <rect x="749.59" y="707.07" width="13.39" height="13.39" transform="translate(1470.06 -42.52) rotate(90)" fill="#231f20"/>
  <rect x="706.21" y="749.19" width="13.39" height="13.39" transform="translate(1468.8 42.98) rotate(90)" fill="#231f20"/>
  <rect x="749.59" y="749.19" width="13.39" height="13.39" transform="translate(1512.18 -.4) rotate(90)" fill="#231f20"/>
  <rect x="706.21" y="792.38" width="13.39" height="13.39" transform="translate(1511.98 86.17) rotate(90)" fill="#231f20"/>
  <rect x="749.59" y="792.38" width="13.39" height="13.39" transform="translate(1555.36 42.78) rotate(90)" fill="#231f20"/>
  <rect x="706.21" y="836.05" width="13.39" height="13.39" transform="translate(1555.65 129.84) rotate(90)" fill="#231f20"/>
  <rect x="749.59" y="836.05" width="13.39" height="13.39" transform="translate(1599.03 86.46) rotate(90)" fill="#231f20"/>
  <rect x="791.12" y="836.05" width="13.39" height="13.39" transform="translate(1640.56 44.93) rotate(90)" fill="#231f20"/>
  <rect x="706.21" y="880.06" width="13.39" height="13.39" transform="translate(1599.66 173.85) rotate(90)" fill="#231f20"/>
  <rect x="749.59" y="880.06" width="13.39" height="13.39" transform="translate(1643.04 130.47) rotate(90)" fill="#231f20"/>
  <rect x="791.12" y="880.06" width="13.39" height="13.39" transform="translate(1684.57 88.94) rotate(90)" fill="#231f20"/>
  <rect x="791.12" y="923.9" width="13.39" height="13.39" transform="translate(1728.41 132.78) rotate(90)" fill="#231f20"/>
  <rect x="791.12" y="967.91" width="13.39" height="13.39" transform="translate(1772.42 176.79) rotate(90)" fill="#231f20"/>
  <rect x="836.57" y="836.05" width="13.39" height="13.39" transform="translate(1686.01 -.52) rotate(90)" fill="#231f20"/>
  <rect x="878.09" y="836.05" width="13.39" height="13.39" transform="translate(1727.54 -42.05) rotate(90)" fill="#231f20"/>
  <rect x="836.57" y="880.06" width="13.39" height="13.39" transform="translate(1730.02 43.49) rotate(90)" fill="#231f20"/>
  <rect x="878.09" y="880.06" width="13.39" height="13.39" transform="translate(1771.55 1.96) rotate(90)" fill="#231f20"/>
  <rect x="922.65" y="836.05" width="13.39" height="13.39" transform="translate(1772.09 -86.6) rotate(90)" fill="#231f20"/>
  <rect x="967.21" y="836.05" width="13.39" height="13.39" transform="translate(1816.65 -131.16) rotate(90)" fill="#231f20"/>
  <rect x="922.65" y="880.06" width="13.39" height="13.39" transform="translate(1816.1 -42.59) rotate(90)" fill="#231f20"/>
  <rect x="967.21" y="880.06" width="13.39" height="13.39" transform="translate(1860.66 -87.15) rotate(90)" fill="#231f20"/>
  <rect x="791.12" y="664.25" width="13.39" height="13.39" transform="translate(1468.76 -126.87) rotate(90)" fill="#231f20"/>
  <rect x="791.12" y="706.88" width="13.39" height="13.39" transform="translate(1511.39 -84.24) rotate(90)" fill="#231f20"/>
  <rect x="791.12" y="749.19" width="13.39" height="13.39" transform="translate(1553.71 -41.92) rotate(90)" fill="#231f20"/>
  <rect x="834.74" y="620.69" width="13.39" height="13.39" transform="translate(1468.82 -214.05) rotate(90)" fill="#231f20"/>
  <rect x="834.74" y="663.85" width="13.39" height="13.39" transform="translate(1511.99 -170.88) rotate(90)" fill="#231f20"/>
  <rect x="834.74" y="706.48" width="13.39" height="13.39" transform="translate(1554.62 -128.26) rotate(90)" fill="#231f20"/>
  <rect x="834.74" y="748.8" width="13.39" height="13.39" transform="translate(1596.94 -85.94) rotate(90)" fill="#231f20"/>
  <rect x="791.12" y="792.38" width="13.39" height="13.39" transform="translate(1596.89 1.26) rotate(90)" fill="#231f20"/>
  <rect x="878.8" y="576.54" width="13.39" height="13.39" transform="translate(1468.73 -302.27) rotate(90)" fill="#231f20"/>
  <rect x="834.74" y="576.15" width="13.39" height="13.39" transform="translate(1424.28 -258.59) rotate(90)" fill="#231f20"/>
  <rect x="878.8" y="620.9" width="13.39" height="13.39" transform="translate(1513.1 -257.9) rotate(90)" fill="#231f20"/>
  <rect x="878.8" y="664.25" width="13.39" height="13.39" transform="translate(1556.44 -214.56) rotate(90)" fill="#231f20"/>
  <rect x="878.8" y="706.03" width="13.39" height="13.39" transform="translate(1598.23 -172.78) rotate(90)" fill="#231f20"/>
  <rect x="878.8" y="749.19" width="13.39" height="13.39" transform="translate(1641.39 -129.61) rotate(90)" fill="#231f20"/>
  <rect x="662.83" y="317.2" width="13.39" height="13.39" transform="translate(993.42 -345.63) rotate(90)" fill="#231f20"/>
  <rect x="576.47" y="317.72" width="13.39" height="13.39" transform="translate(907.58 -258.75) rotate(90)" fill="#231f20"/>
  <rect x="619.63" y="274.57" width="13.39" height="13.39" transform="translate(907.59 -345.06) rotate(90)" fill="#231f20"/>
  <rect x="662.83" y="274.05" width="13.39" height="13.39" transform="translate(950.28 -388.78) rotate(90)" fill="#231f20"/>
  <rect x="576.47" y="274.57" width="13.39" height="13.39" transform="translate(864.43 -301.9) rotate(90)" fill="#231f20"/>
  <rect x="533.31" y="274.57" width="13.39" height="13.39" transform="translate(821.27 -258.74) rotate(90)" fill="#231f20"/>
  <rect x="750.34" y="231.57" width="13.39" height="13.39" transform="translate(995.31 -518.76) rotate(90)" fill="#231f20"/>
  <rect x="793.54" y="231.06" width="13.39" height="13.39" transform="translate(1037.99 -562.48) rotate(90)" fill="#231f20"/>
  <rect x="707.18" y="231.57" width="13.39" height="13.39" transform="translate(952.15 -475.61) rotate(90)" fill="#231f20"/>
  <rect x="750.34" y="187.87" width="13.39" height="13.39" transform="translate(951.6 -562.47) rotate(90)" fill="#231f20"/>
  <rect x="793.54" y="187.35" width="13.39" height="13.39" transform="translate(994.29 -606.19) rotate(90)" fill="#231f20"/>
  <rect x="707.18" y="187.87" width="13.39" height="13.39" transform="translate(908.44 -519.31) rotate(90)" fill="#231f20"/>
  <rect x="750.34" y="145.4" width="13.39" height="13.39" transform="translate(909.14 -604.94) rotate(90)" fill="#231f20"/>
  <rect x="793.54" y="144.89" width="13.39" height="13.39" transform="translate(951.82 -648.66) rotate(90)" fill="#231f20"/>
  <rect x="707.18" y="145.4" width="13.39" height="13.39" transform="translate(865.98 -561.78) rotate(90)" fill="#231f20"/>
  <rect x="750.34" y="101.14" width="13.39" height="13.39" transform="translate(864.88 -649.2) rotate(90)" fill="#231f20"/>
  <rect x="793.54" y="100.63" width="13.39" height="13.39" transform="translate(907.56 -692.91) rotate(90)" fill="#231f20"/>
  <rect x="707.18" y="101.14" width="13.39" height="13.39" transform="translate(821.72 -606.04) rotate(90)" fill="#231f20"/>
  <rect x="750.34" y="58.15" width="13.39" height="13.39" transform="translate(821.88 -692.19) rotate(90)" fill="#231f20"/>
  <rect x="793.54" y="57.63" width="13.39" height="13.39" transform="translate(864.57 -735.91) rotate(90)" fill="#231f20"/>
  <rect x="707.18" y="58.15" width="13.39" height="13.39" transform="translate(778.72 -649.03) rotate(90)" fill="#231f20"/>
  <rect x="750.34" y="14.95" width="13.39" height="13.39" transform="translate(778.69 -735.39) rotate(90)" fill="#231f20"/>
  <rect x="707.18" y="14.95" width="13.39" height="13.39" transform="translate(735.53 -692.23) rotate(90)" fill="#231f20"/>
  <rect x="664.02" y="231.57" width="13.39" height="13.39" transform="translate(908.99 -432.45) rotate(90)" fill="#231f20"/>
  <rect x="490.15" y="274.57" width="13.39" height="13.39" transform="translate(778.11 -215.58) rotate(90)" fill="#231f20"/>
  <rect x="576.47" y="404.12" width="13.39" height="13.39" transform="translate(993.98 -172.35) rotate(90)" fill="#231f20"/>
  <rect x="619.63" y="447.95" width="13.39" height="13.39" transform="translate(1080.97 -171.68) rotate(90)" fill="#231f20"/>
  <rect x="490.02" y="836.05" width="13.39" height="13.39" transform="translate(1339.46 346.03) rotate(90)" fill="#231f20"/>
  <rect x="317.82" y="748.5" width="13.39" height="13.39" transform="translate(1079.72 430.67) rotate(90)" fill="#231f20"/>
  <rect x="317.82" y="792.38" width="13.39" height="13.39" transform="translate(1123.59 474.55) rotate(90)" fill="#231f20"/>
  <rect x="446.56" y="836.05" width="13.39" height="13.39" transform="translate(1296 389.49) rotate(90)" fill="#231f20"/>
  <rect x="403.15" y="836.05" width="13.39" height="13.39" transform="translate(1252.59 432.9) rotate(90)" fill="#231f20"/>
  <rect x="359.83" y="836.05" width="13.39" height="13.39" transform="translate(1209.28 476.21) rotate(90)" fill="#231f20"/>
  <rect x="317.82" y="836.05" width="13.39" height="13.39" transform="translate(1167.27 518.22) rotate(90)" fill="#231f20"/>
  <rect x="576.74" y="880.06" width="13.39" height="13.39" transform="translate(1470.19 303.32) rotate(90)" fill="#231f20"/>
  <rect x="533.33" y="880.06" width="13.39" height="13.39" transform="translate(1426.78 346.73) rotate(90)" fill="#231f20"/>
  <rect x="663.04" y="880.06" width="13.39" height="13.39" transform="translate(1556.49 217.02) rotate(90)" fill="#231f20"/>
  <rect x="619.63" y="880.06" width="13.39" height="13.39" transform="translate(1513.08 260.43) rotate(90)" fill="#231f20"/>
  <rect x="490.02" y="880.06" width="13.39" height="13.39" transform="translate(1383.47 390.04) rotate(90)" fill="#231f20"/>
  <rect x="576.74" y="924.07" width="13.39" height="13.39" transform="translate(1514.2 347.33) rotate(90)" fill="#231f20"/>
  <rect x="533.33" y="924.07" width="13.39" height="13.39" transform="translate(1470.79 390.74) rotate(90)" fill="#231f20"/>
  <rect x="490.02" y="924.07" width="13.39" height="13.39" transform="translate(1427.48 434.05) rotate(90)" fill="#231f20"/>
  <rect x="576.74" y="968.08" width="13.39" height="13.39" transform="translate(1558.21 391.33) rotate(90)" fill="#231f20"/>
  <rect x="533.33" y="968.08" width="13.39" height="13.39" transform="translate(1514.8 434.75) rotate(90)" fill="#231f20"/>
  <rect x="490.02" y="968.08" width="13.39" height="13.39" transform="translate(1471.49 478.06) rotate(90)" fill="#231f20"/>
  <rect x="576.74" y="1011.75" width="13.39" height="13.39" transform="translate(1601.89 435.01) rotate(90)" fill="#231f20"/>
  <rect x="533.33" y="1011.75" width="13.39" height="13.39" transform="translate(1558.48 478.42) rotate(90)" fill="#231f20"/>
  <rect x="490.02" y="1011.75" width="13.39" height="13.39" transform="translate(1515.16 521.73) rotate(90)" fill="#231f20"/>
  <rect x="576.74" y="1049.92" width="13.39" height="13.39" transform="translate(1640.06 473.18) rotate(90)" fill="#231f20"/>
  <rect x="619.63" y="924.07" width="13.39" height="13.39" transform="translate(1557.09 304.44) rotate(90)" fill="#231f20"/>
  <rect x="619.63" y="968.08" width="13.39" height="13.39" transform="translate(1601.1 348.45) rotate(90)" fill="#231f20"/>
  <rect x="619.63" y="1011.75" width="13.39" height="13.39" transform="translate(1644.77 392.12) rotate(90)" fill="#231f20"/>
  <rect x="619.63" y="1049.92" width="13.39" height="13.39" transform="translate(1682.94 430.29) rotate(90)" fill="#231f20"/>
  <rect x="663.04" y="924.07" width="13.39" height="13.39" transform="translate(1600.5 261.03) rotate(90)" fill="#231f20"/>
  <rect x="663.04" y="968.08" width="13.39" height="13.39" transform="translate(1644.51 305.04) rotate(90)" fill="#231f20"/>
  <rect x="663.04" y="1011.75" width="13.39" height="13.39" transform="translate(1688.18 348.71) rotate(90)" fill="#231f20"/>
  <rect x="663.04" y="1049.92" width="13.39" height="13.39" transform="translate(1726.35 386.88) rotate(90)" fill="#231f20"/>
  <rect x="922.87" y="924.07" width="13.39" height="13.39" transform="translate(1860.33 1.2) rotate(90)" fill="#231f20"/>
  <rect x="922.87" y="968.08" width="13.39" height="13.39" transform="translate(1904.34 45.21) rotate(90)" fill="#231f20"/>
  <rect x="922.87" y="1011.75" width="13.39" height="13.39" transform="translate(1948.01 88.88) rotate(90)" fill="#231f20"/>
  <rect x="922.87" y="1049.92" width="13.39" height="13.39" transform="translate(1986.18 127.05) rotate(90)" fill="#231f20"/>
  <rect x="878.09" y="1011.75" width="13.39" height="13.39" transform="translate(1903.24 133.65) rotate(90)" fill="#231f20"/>
  <rect x="878.09" y="1049.92" width="13.39" height="13.39" transform="translate(1941.41 171.82) rotate(90)" fill="#231f20"/>
  <rect x="837.75" y="1011.75" width="13.39" height="13.39" transform="translate(1862.89 174) rotate(90)" fill="#231f20"/>
  <rect x="837.75" y="1049.92" width="13.39" height="13.39" transform="translate(1901.06 212.17) rotate(90)" fill="#231f20"/>
  <rect x="792.97" y="1011.75" width="13.39" height="13.39" transform="translate(1818.12 218.78) rotate(90)" fill="#231f20"/>
  <rect x="792.97" y="1049.92" width="13.39" height="13.39" transform="translate(1856.29 256.95) rotate(90)" fill="#231f20"/>
  <rect x="749.59" y="1011.75" width="13.39" height="13.39" transform="translate(1774.73 262.16) rotate(90)" fill="#231f20"/>
  <rect x="749.59" y="1049.92" width="13.39" height="13.39" transform="translate(1812.9 300.33) rotate(90)" fill="#231f20"/>
  <rect x="533.33" y="1049.92" width="13.39" height="13.39" transform="translate(1596.64 516.59) rotate(90)" fill="#231f20"/>
  <rect x="490.02" y="1049.92" width="13.39" height="13.39" transform="translate(1553.33 559.9) rotate(90)" fill="#231f20"/>
  <rect x="446.56" y="880.06" width="13.39" height="13.39" transform="translate(1340.01 433.5) rotate(90)" fill="#231f20"/>
  <rect x="403.15" y="880.06" width="13.39" height="13.39" transform="translate(1296.6 476.91) rotate(90)" fill="#231f20"/>
  <rect x="359.83" y="880.06" width="13.39" height="13.39" transform="translate(1253.29 520.22) rotate(90)" fill="#231f20"/>
  <rect x="317.82" y="880.06" width="13.39" height="13.39" transform="translate(1211.28 562.23) rotate(90)" fill="#231f20"/>
  <rect x="446.56" y="924.07" width="13.39" height="13.39" transform="translate(1384.02 477.51) rotate(90)" fill="#231f20"/>
  <rect x="403.15" y="924.07" width="13.39" height="13.39" transform="translate(1340.61 520.92) rotate(90)" fill="#231f20"/>
  <rect x="359.83" y="924.07" width="13.39" height="13.39" transform="translate(1297.3 564.23) rotate(90)" fill="#231f20"/>
  <rect x="317.82" y="924.07" width="13.39" height="13.39" transform="translate(1255.29 606.24) rotate(90)" fill="#231f20"/>
  <rect x="446.56" y="967.74" width="13.39" height="13.39" transform="translate(1427.69 521.18) rotate(90)" fill="#231f20"/>
  <rect x="403.15" y="967.74" width="13.39" height="13.39" transform="translate(1384.28 564.59) rotate(90)" fill="#231f20"/>
  <rect x="359.83" y="967.74" width="13.39" height="13.39" transform="translate(1340.97 607.91) rotate(90)" fill="#231f20"/>
  <rect x="317.82" y="967.74" width="13.39" height="13.39" transform="translate(1298.96 649.92) rotate(90)" fill="#231f20"/>
  <rect x="446.56" y="1011.75" width="13.39" height="13.39" transform="translate(1471.7 565.19) rotate(90)" fill="#231f20"/>
  <rect x="403.15" y="1011.75" width="13.39" height="13.39" transform="translate(1428.29 608.6) rotate(90)" fill="#231f20"/>
  <rect x="359.83" y="1011.75" width="13.39" height="13.39" transform="translate(1384.98 651.92) rotate(90)" fill="#231f20"/>
  <rect x="317.82" y="1011.75" width="13.39" height="13.39" transform="translate(1342.97 693.92) rotate(90)" fill="#231f20"/>
  <rect x="446.56" y="1049.92" width="13.39" height="13.39" transform="translate(1509.87 603.36) rotate(90)" fill="#231f20"/>
  <rect x="403.15" y="1049.92" width="13.39" height="13.39" transform="translate(1466.46 646.77) rotate(90)" fill="#231f20"/>
  <rect x="359.83" y="1049.92" width="13.39" height="13.39" transform="translate(1423.15 690.09) rotate(90)" fill="#231f20"/>
  <rect x="317.82" y="1049.92" width="13.39" height="13.39" transform="translate(1381.14 732.09) rotate(90)" fill="#231f20"/>
  <rect x="276.43" y="880.06" width="13.39" height="13.39" transform="translate(1169.88 603.63) rotate(90)" fill="#231f20"/>
  <rect x="276.43" y="924.07" width="13.39" height="13.39" transform="translate(1213.89 647.64) rotate(90)" fill="#231f20"/>
  <rect x="276.43" y="967.74" width="13.39" height="13.39" transform="translate(1257.56 691.31) rotate(90)" fill="#231f20"/>
  <rect x="230.03" y="967.74" width="13.39" height="13.39" transform="translate(1211.17 737.71) rotate(90)" fill="#231f20"/>
  <rect x="188.63" y="967.74" width="13.39" height="13.39" transform="translate(1169.77 779.11) rotate(90)" fill="#231f20"/>
  <rect x="276.43" y="1011.75" width="13.39" height="13.39" transform="translate(1301.57 735.32) rotate(90)" fill="#231f20"/>
  <rect x="276.43" y="1049.92" width="13.39" height="13.39" transform="translate(1339.74 773.49) rotate(90)" fill="#231f20"/>
  <rect x="230.03" y="1011.75" width="13.39" height="13.39" transform="translate(1255.17 781.72) rotate(90)" fill="#231f20"/>
  <rect x="230.03" y="1049.92" width="13.39" height="13.39" transform="translate(1293.34 819.89) rotate(90)" fill="#231f20"/>
  <rect x="317.82" y="661.33" width="13.39" height="13.39" transform="translate(992.55 343.51) rotate(90)" fill="#231f20"/>
  <rect x="317.82" y="705.16" width="13.39" height="13.39" transform="translate(1036.38 387.33) rotate(90)" fill="#231f20"/>
  <rect x="446.73" y="532.98" width="13.39" height="13.39" transform="translate(993.1 86.26) rotate(90)" fill="#231f20"/>
  <rect x="403.2" y="532.98" width="13.39" height="13.39" transform="translate(949.58 129.79) rotate(90)" fill="#231f20"/>
  <rect x="360.15" y="532.98" width="13.39" height="13.39" transform="translate(906.52 172.84) rotate(90)" fill="#231f20"/>
  <rect x="273.59" y="404.12" width="13.39" height="13.39" transform="translate(691.1 130.52) rotate(90)" fill="#231f20"/>
  <rect x="317.11" y="404.12" width="13.39" height="13.39" transform="translate(734.62 87) rotate(90)" fill="#231f20"/>
  <rect x="230.3" y="404.12" width="13.39" height="13.39" transform="translate(647.81 173.81) rotate(90)" fill="#231f20"/>
  <rect x="186.77" y="404.12" width="13.39" height="13.39" transform="translate(604.28 217.34) rotate(90)" fill="#231f20"/>
  <rect x="274.27" y="360.4" width="13.39" height="13.39" transform="translate(648.06 86.13) rotate(90)" fill="#231f20"/>
  <rect x="230.98" y="360.4" width="13.39" height="13.39" transform="translate(604.77 129.42) rotate(90)" fill="#231f20"/>
  <rect x="447.95" y="273.68" width="13.39" height="13.39" transform="translate(735.03 -174.27) rotate(90)" fill="#231f20"/>
  <rect x="447.95" y="317.72" width="13.39" height="13.39" transform="translate(779.06 -130.23) rotate(90)" fill="#231f20"/>
  <rect x="404.66" y="273.68" width="13.39" height="13.39" transform="translate(691.73 -130.98) rotate(90)" fill="#231f20"/>
  <rect x="187.45" y="360.4" width="13.39" height="13.39" transform="translate(561.24 172.95) rotate(90)" fill="#231f20"/>
  <rect x="143.72" y="404.12" width="13.39" height="13.39" transform="translate(561.23 260.39) rotate(90)" fill="#231f20"/>
  <rect x="101.78" y="404.12" width="13.39" height="13.39" transform="translate(519.29 302.34) rotate(90)" fill="#231f20"/>
  <rect x="58.25" y="404.12" width="13.39" height="13.39" transform="translate(475.76 345.87) rotate(90)" fill="#231f20"/>
  <rect x="15.2" y="404.12" width="13.39" height="13.39" transform="translate(432.71 388.92) rotate(90)" fill="#231f20"/>
  <rect x="403.2" y="620.04" width="13.39" height="13.39" transform="translate(1036.63 216.84) rotate(90)" fill="#231f20"/>
  <rect x="403.2" y="663.26" width="13.39" height="13.39" transform="translate(1079.85 260.07) rotate(90)" fill="#231f20"/>
  <rect x="360.15" y="620.04" width="13.39" height="13.39" transform="translate(993.58 259.89) rotate(90)" fill="#231f20"/>
  <rect x="317.82" y="620.04" width="13.39" height="13.39" transform="translate(951.26 302.21) rotate(90)" fill="#231f20"/>
  <rect x="317.82" y="576.81" width="13.39" height="13.39" transform="translate(908.03 258.99) rotate(90)" fill="#231f20"/>
  <rect x="360.15" y="576.81" width="13.39" height="13.39" transform="translate(950.35 216.67) rotate(90)" fill="#231f20"/>
  <rect x="446.73" y="576.81" width="13.39" height="13.39" transform="translate(1036.93 130.09) rotate(90)" fill="#231f20"/>
  <rect x="360.63" y="404.12" width="13.39" height="13.39" transform="translate(778.14 43.48) rotate(90)" fill="#231f20"/>
  <rect x="405.77" y="145.1" width="13.39" height="13.39" transform="translate(564.27 -260.67) rotate(90)" fill="#231f20"/>
</svg>