<?xml version="1.0" encoding="UTF-8"?>
<svg id="_9" data-name="9" xmlns="http://www.w3.org/2000/svg" viewBox="0 0 1080 1080">
  <rect x="389.9" y="432.85" width="40.84" height="40.84" fill="#231f20"/>
  <rect x="389.9" y="476.36" width="40.84" height="40.84" fill="#231f20"/>
  <rect x="433" y="476.36" width="40.84" height="40.84" fill="#231f20"/>
  <rect x="389.9" y="519.57" width="40.84" height="40.84" fill="#231f20"/>
  <rect x="389.9" y="562.78" width="40.84" height="40.84" fill="#231f20"/>
  <rect x="389.9" y="174.14" width="40.84" height="40.84" fill="#231f20"/>
  <rect x="433.32" y="174.14" width="40.84" height="40.84" fill="#231f20"/>
  <rect x="389.9" y="217.35" width="40.84" height="40.84" fill="#231f20"/>
  <rect x="389.9" y="260.09" width="40.84" height="40.84" fill="#231f20"/>
  <rect x="433.32" y="217.35" width="40.84" height="40.84" fill="#231f20"/>
  <rect x="389.9" y="87.41" width="40.84" height="40.84" fill="#231f20"/>
  <rect x="389.9" y="130.93" width="40.84" height="40.84" fill="#231f20"/>
  <rect x="433.32" y="130.93" width="40.84" height="40.84" fill="#231f20"/>
  <rect x="476.26" y="174.14" width="40.84" height="40.84" fill="#231f20"/>
  <rect x="476.26" y="130.93" width="40.84" height="40.84" fill="#231f20"/>
  <rect x="562.94" y="44.38" width="40.84" height="40.84" fill="#231f20"/>
  <rect x="562.94" y="1.16" width="40.84" height="40.84" fill="#231f20"/>
  <rect x="605.88" y="44.38" width="40.84" height="40.84" fill="#231f20"/>
  <rect x="605.88" y="1.16" width="40.84" height="40.84" fill="#231f20"/>
  <rect x="433.32" y="260.09" width="40.84" height="40.84" fill="#231f20"/>
  <rect x="476.26" y="217.35" width="40.84" height="40.84" fill="#231f20"/>
  <rect x="476.26" y="260.09" width="40.84" height="40.84" fill="#231f20"/>
  <rect x="389.9" y="303.43" width="40.84" height="40.84" fill="#231f20"/>
  <rect x="433.31" y="303.43" width="40.84" height="40.84" fill="#231f20"/>
  <rect x="389.9" y="346.77" width="40.84" height="40.84" fill="#231f20"/>
  <rect x="389.9" y="389.97" width="40.84" height="40.84" fill="#231f20"/>
  <rect x="389.9" y="605.99" width="40.84" height="40.84" fill="#231f20"/>
  <rect x="389.9" y="649.2" width="40.84" height="40.84" fill="#231f20"/>
  <rect x="389.9" y="692.41" width="40.84" height="40.84" fill="#231f20"/>
  <rect x="433" y="994.94" width="40.84" height="40.84" fill="#231f20"/>
  <rect x="433" y="951.68" width="40.84" height="40.84" fill="#231f20"/>
  <rect x="476.56" y="994.94" width="40.84" height="40.84" fill="#231f20"/>
  <rect x="433" y="1038.19" width="40.84" height="40.84" fill="#231f20"/>
  <rect x="476.56" y="1038.19" width="40.84" height="40.84" fill="#231f20"/>
  <rect x="519.43" y="994.94" width="40.84" height="40.84" fill="#231f20"/>
  <rect x="562.99" y="994.94" width="40.84" height="40.84" fill="#231f20"/>
  <rect x="519.43" y="1038.19" width="40.84" height="40.84" fill="#231f20"/>
  <rect x="562.99" y="1038.19" width="40.84" height="40.84" fill="#231f20"/>
  <rect x="605.61" y="994.94" width="40.84" height="40.84" fill="#231f20"/>
  <rect x="605.61" y="1038.19" width="40.84" height="40.84" fill="#231f20"/>
  <rect x="562.99" y="908.43" width="40.84" height="40.84" fill="#231f20"/>
  <rect x="562.99" y="951.68" width="40.84" height="40.84" fill="#231f20"/>
  <rect x="605.61" y="951.68" width="40.84" height="40.84" fill="#231f20"/>
  <rect x="562.99" y="821.92" width="40.84" height="40.84" fill="#231f20"/>
  <rect x="605.61" y="821.92" width="40.84" height="40.84" fill="#231f20"/>
  <rect x="433" y="519.57" width="40.84" height="40.84" fill="#231f20"/>
  <rect x="448.42" y="662.74" width="13.39" height="13.39" fill="#231f20"/>
  <rect x="448.42" y="619.71" width="13.39" height="13.39" fill="#231f20"/>
  <rect x="448.42" y="576.5" width="13.39" height="13.39" fill="#231f20"/>
  <rect x="490.38" y="662.74" width="13.39" height="13.39" fill="#231f20"/>
  <rect x="490.38" y="619.71" width="13.39" height="13.39" fill="#231f20"/>
  <rect x="490.38" y="576.5" width="13.39" height="13.39" fill="#231f20"/>
  <rect x="533.95" y="662.74" width="13.39" height="13.39" fill="#231f20"/>
  <rect x="533.95" y="619.71" width="13.39" height="13.39" fill="#231f20"/>
  <rect x="533.95" y="576.5" width="13.39" height="13.39" fill="#231f20"/>
  <rect x="575.91" y="662.74" width="13.39" height="13.39" fill="#231f20"/>
  <rect x="575.91" y="619.71" width="13.39" height="13.39" fill="#231f20"/>
  <rect x="575.91" y="576.5" width="13.39" height="13.39" fill="#231f20"/>
  <rect x="617.86" y="662.74" width="13.39" height="13.39" fill="#231f20"/>
  <rect x="490.38" y="706.18" width="13.39" height="13.39" fill="#231f20"/>
  <rect x="533.95" y="706.18" width="13.39" height="13.39" fill="#231f20"/>
  <rect x="575.91" y="706.18" width="13.39" height="13.39" fill="#231f20"/>
  <rect x="617.86" y="706.18" width="13.39" height="13.39" fill="#231f20"/>
  <rect x="617.86" y="619.71" width="13.39" height="13.39" fill="#231f20"/>
  <rect x="617.86" y="576.5" width="13.39" height="13.39" fill="#231f20"/>
  <rect x="490.38" y="533.3" width="13.39" height="13.39" fill="#231f20"/>
  <rect x="490.38" y="490.09" width="13.39" height="13.39" fill="#231f20"/>
  <rect x="533.95" y="533.3" width="13.39" height="13.39" fill="#231f20"/>
  <rect x="533.95" y="490.09" width="13.39" height="13.39" fill="#231f20"/>
  <rect x="575.91" y="533.3" width="13.39" height="13.39" fill="#231f20"/>
  <rect x="575.91" y="490.09" width="13.39" height="13.39" fill="#231f20"/>
  <rect x="617.86" y="533.3" width="13.39" height="13.39" fill="#231f20"/>
  <rect x="617.86" y="490.09" width="13.39" height="13.39" fill="#231f20"/>
  <rect x="490.38" y="446.57" width="13.39" height="13.39" fill="#231f20"/>
  <rect x="446.73" y="447.05" width="13.39" height="13.39" fill="#231f20"/>
  <rect x="446.73" y="403.54" width="13.39" height="13.39" fill="#231f20"/>
  <rect x="446.73" y="360.49" width="13.39" height="13.39" fill="#231f20"/>
  <rect x="489.98" y="360.49" width="13.39" height="13.39" fill="#231f20"/>
  <rect x="489.98" y="317.15" width="13.39" height="13.39" fill="#231f20"/>
  <rect x="533.3" y="360.49" width="13.39" height="13.39" fill="#231f20"/>
  <rect x="533.3" y="317.15" width="13.39" height="13.39" fill="#231f20"/>
  <rect x="533.95" y="446.57" width="13.39" height="13.39" fill="#231f20"/>
  <rect x="575.91" y="446.57" width="13.39" height="13.39" fill="#231f20"/>
  <rect x="617.86" y="446.57" width="13.39" height="13.39" fill="#231f20"/>
  <rect x="617.86" y="407.35" width="13.39" height="13.39" fill="#231f20"/>
  <rect x="617.86" y="363.83" width="13.39" height="13.39" fill="#231f20"/>
  <rect x="617.86" y="317.45" width="13.39" height="13.39" fill="#231f20"/>
  <rect x="617.86" y="273.94" width="13.39" height="13.39" fill="#231f20"/>
  <rect x="617.86" y="231.05" width="13.39" height="13.39" fill="#231f20"/>
  <rect x="617.86" y="187.54" width="13.39" height="13.39" fill="#231f20"/>
  <rect x="617.86" y="145.68" width="13.39" height="13.39" fill="#231f20"/>
  <rect x="617.86" y="102.16" width="13.39" height="13.39" fill="#231f20"/>
  <rect x="403.63" y="59.28" width="13.39" height="13.39" fill="#231f20"/>
  <rect x="403.63" y="15.76" width="13.39" height="13.39" fill="#231f20"/>
  <rect x="448.42" y="749.21" width="13.39" height="13.39" fill="#231f20"/>
  <rect x="405.78" y="749.21" width="13.39" height="13.39" fill="#231f20"/>
  <rect x="405.78" y="792.6" width="13.39" height="13.39" fill="#231f20"/>
  <rect x="448.42" y="792.6" width="13.39" height="13.39" fill="#231f20"/>
  <rect x="405.78" y="835.64" width="13.39" height="13.39" fill="#231f20"/>
  <rect x="448.42" y="835.64" width="13.39" height="13.39" fill="#231f20"/>
  <rect x="404.7" y="922.15" width="13.39" height="13.39" fill="#231f20"/>
  <rect x="404.7" y="965.41" width="13.39" height="13.39" fill="#231f20"/>
  <rect x="445.37" y="922.15" width="13.39" height="13.39" fill="#231f20"/>
  <rect x="490.4" y="965.41" width="13.39" height="13.39" fill="#231f20"/>
  <rect x="533.04" y="965.41" width="13.39" height="13.39" fill="#231f20"/>
  <rect x="533.04" y="922.15" width="13.39" height="13.39" fill="#231f20"/>
  <rect x="448.42" y="706.18" width="13.39" height="13.39" fill="#231f20"/>
</svg>