<?xml version="1.0" encoding="UTF-8"?>
<svg id="_10" data-name="10" xmlns="http://www.w3.org/2000/svg" viewBox="0 0 1080 1080">
  <rect x="561.97" y="904.2" width="40.84" height="40.84" fill="#231f20"/>
  <rect x="605.56" y="818" width="40.84" height="40.84" fill="#231f20"/>
  <rect x="779.32" y="1033.83" width="40.84" height="40.84" fill="#231f20"/>
  <rect x="705.8" y="1047.55" width="13.39" height="13.39" fill="#231f20"/>
  <rect x="748.72" y="1047.55" width="13.39" height="13.39" fill="#231f20"/>
  <rect x="663.85" y="1047.55" width="13.39" height="13.39" fill="#231f20"/>
  <rect x="619.28" y="1047.55" width="13.39" height="13.39" fill="#231f20"/>
  <rect x="447.31" y="1003.33" width="13.39" height="13.39" fill="#231f20"/>
  <rect x="404.46" y="1003.33" width="13.39" height="13.39" fill="#231f20"/>
  <rect x="404.46" y="1047.55" width="13.39" height="13.39" fill="#231f20"/>
  <rect x="360.57" y="1003.33" width="13.39" height="13.39" fill="#231f20"/>
  <rect x="360.57" y="1047.55" width="13.39" height="13.39" fill="#231f20"/>
  <rect x="361.6" y="959.77" width="13.39" height="13.39" fill="#231f20"/>
  <rect x="406.52" y="959.77" width="13.39" height="13.39" fill="#231f20"/>
  <rect x="447.31" y="959.77" width="13.39" height="13.39" fill="#231f20"/>
  <rect x="406.52" y="917.13" width="13.39" height="13.39" fill="#231f20"/>
  <rect x="447.31" y="917.13" width="13.39" height="13.39" fill="#231f20"/>
  <rect x="492.51" y="917.13" width="13.39" height="13.39" fill="#231f20"/>
  <rect x="533.3" y="917.13" width="13.39" height="13.39" fill="#231f20"/>
  <rect x="317.9" y="917.13" width="13.39" height="13.39" fill="#231f20"/>
  <rect x="358.69" y="917.13" width="13.39" height="13.39" fill="#231f20"/>
  <rect x="316.69" y="959.77" width="13.39" height="13.39" fill="#231f20"/>
  <rect x="533.9" y="961.05" width="13.39" height="13.39" fill="#231f20"/>
  <rect x="575.7" y="961.05" width="13.39" height="13.39" fill="#231f20"/>
  <rect x="619.6" y="961.05" width="13.39" height="13.39" fill="#231f20"/>
  <rect x="662.87" y="961.05" width="13.39" height="13.39" fill="#231f20"/>
  <rect x="703.98" y="961.05" width="13.39" height="13.39" fill="#231f20"/>
  <rect x="488.98" y="961.05" width="13.39" height="13.39" fill="#231f20"/>
  <rect x="273.8" y="959.77" width="13.39" height="13.39" fill="#231f20"/>
  <rect x="230.9" y="959.77" width="13.39" height="13.39" fill="#231f20"/>
  <rect x="188" y="959.77" width="13.39" height="13.39" fill="#231f20"/>
  <rect x="316.69" y="873.35" width="13.39" height="13.39" fill="#231f20"/>
  <rect x="361.6" y="873.35" width="13.39" height="13.39" fill="#231f20"/>
  <rect x="361.6" y="832.88" width="13.39" height="13.39" fill="#231f20"/>
  <rect x="275.9" y="832.88" width="13.39" height="13.39" fill="#231f20"/>
  <rect x="273.8" y="917.13" width="13.39" height="13.39" fill="#231f20"/>
  <rect x="230.9" y="917.13" width="13.39" height="13.39" fill="#231f20"/>
  <rect x="230.9" y="873.35" width="13.39" height="13.39" fill="#231f20"/>
  <rect x="188" y="918.41" width="13.39" height="13.39" fill="#231f20"/>
  <rect x="188" y="874.62" width="13.39" height="13.39" fill="#231f20"/>
  <rect x="102.57" y="918.41" width="13.39" height="13.39" fill="#231f20"/>
  <rect x="59.44" y="918.41" width="13.39" height="13.39" fill="#231f20"/>
  <rect x="102.57" y="962.19" width="13.39" height="13.39" fill="#231f20"/>
  <rect x="145.11" y="962.19" width="13.39" height="13.39" fill="#231f20"/>
  <rect x="59.44" y="962.19" width="13.39" height="13.39" fill="#231f20"/>
  <rect x="59.44" y="1003.33" width="13.39" height="13.39" fill="#231f20"/>
  <rect x="101.18" y="1003.33" width="13.39" height="13.39" fill="#231f20"/>
  <rect x="101.18" y="1047.55" width="13.39" height="13.39" fill="#231f20"/>
  <rect x="14.29" y="918.41" width="13.39" height="13.39" fill="#231f20"/>
  <rect x="14.29" y="962.19" width="13.39" height="13.39" fill="#231f20"/>
  <rect x="14.29" y="1003.33" width="13.39" height="13.39" fill="#231f20"/>
  <rect x="14.68" y="1047.55" width="13.39" height="13.39" fill="#231f20"/>
  <rect x="102.57" y="874.62" width="13.39" height="13.39" fill="#231f20"/>
  <rect x="59.44" y="874.62" width="13.39" height="13.39" fill="#231f20"/>
  <rect x="230.9" y="832.88" width="13.39" height="13.39" fill="#231f20"/>
  <rect x="188" y="832.88" width="13.39" height="13.39" fill="#231f20"/>
  <rect x="230.9" y="788.02" width="13.39" height="13.39" fill="#231f20"/>
  <rect x="230.9" y="744.59" width="13.39" height="13.39" fill="#231f20"/>
  <rect x="188" y="744.59" width="13.39" height="13.39" fill="#231f20"/>
  <rect x="145.11" y="744.59" width="13.39" height="13.39" fill="#231f20"/>
  <rect x="230.9" y="702.83" width="13.39" height="13.39" fill="#231f20"/>
  <rect x="230.9" y="658.19" width="13.39" height="13.39" fill="#231f20"/>
  <rect x="230.9" y="615.7" width="13.39" height="13.39" fill="#231f20"/>
  <rect x="145.25" y="702.83" width="13.39" height="13.39" fill="#231f20"/>
  <rect x="188" y="658.19" width="13.39" height="13.39" fill="#231f20"/>
  <rect x="145.25" y="615.7" width="13.39" height="13.39" fill="#231f20"/>
  <rect x="145.25" y="573.25" width="13.39" height="13.39" fill="#231f20"/>
  <rect x="102.42" y="573.25" width="13.39" height="13.39" fill="#231f20"/>
  <rect x="230.9" y="574.36" width="13.39" height="13.39" fill="#231f20"/>
  <rect x="230.9" y="529.72" width="13.39" height="13.39" fill="#231f20"/>
  <rect x="230.9" y="487.22" width="13.39" height="13.39" fill="#231f20"/>
  <rect x="274.2" y="658.19" width="13.39" height="13.39" fill="#231f20"/>
  <rect x="59.6" y="658.19" width="13.39" height="13.39" fill="#231f20"/>
  <rect x="59.6" y="573.2" width="13.39" height="13.39" fill="#231f20"/>
  <rect x="59.6" y="531.23" width="13.39" height="13.39" fill="#231f20"/>
  <rect x="14.29" y="531.23" width="13.39" height="13.39" fill="#231f20"/>
  <rect x="102.9" y="658.19" width="13.39" height="13.39" fill="#231f20"/>
  <rect x="274.2" y="615.7" width="13.39" height="13.39" fill="#231f20"/>
  <rect x="316.06" y="615.7" width="13.39" height="13.39" fill="#231f20"/>
  <rect x="316.06" y="573.46" width="13.39" height="13.39" fill="#231f20"/>
  <rect x="360.17" y="573.46" width="13.39" height="13.39" fill="#231f20"/>
  <rect x="404.27" y="573.46" width="13.39" height="13.39" fill="#231f20"/>
  <rect x="448.34" y="573.46" width="13.39" height="13.39" fill="#231f20"/>
  <rect x="316.06" y="531.23" width="13.39" height="13.39" fill="#231f20"/>
  <rect x="316.06" y="486.84" width="13.39" height="13.39" fill="#231f20"/>
  <rect x="360.17" y="531.23" width="13.39" height="13.39" fill="#231f20"/>
  <rect x="404.27" y="531.23" width="13.39" height="13.39" fill="#231f20"/>
  <rect x="448.38" y="531.23" width="13.39" height="13.39" fill="#231f20"/>
  <rect x="490.3" y="573.46" width="13.39" height="13.39" fill="#231f20"/>
  <rect x="490.35" y="531.23" width="13.39" height="13.39" fill="#231f20"/>
  <rect x="533.53" y="573.46" width="13.39" height="13.39" fill="#231f20"/>
  <rect x="533.58" y="531.23" width="13.39" height="13.39" fill="#231f20"/>
  <rect x="576.91" y="531.23" width="13.39" height="13.39" fill="#231f20"/>
  <rect x="490.3" y="485.63" width="13.39" height="13.39" fill="#231f20"/>
  <rect x="490.35" y="441.35" width="13.39" height="13.39" fill="#231f20"/>
  <rect x="448.38" y="443.76" width="13.39" height="13.39" fill="#231f20"/>
  <rect x="533.53" y="485.63" width="13.39" height="13.39" fill="#231f20"/>
  <rect x="403.62" y="487.31" width="13.39" height="13.39" fill="#231f20"/>
  <rect x="446.85" y="487.31" width="13.39" height="13.39" fill="#231f20"/>
  <rect x="533.58" y="441.35" width="13.39" height="13.39" fill="#231f20"/>
  <rect x="490.3" y="401.16" width="13.39" height="13.39" fill="#231f20"/>
  <rect x="490.35" y="357.32" width="13.39" height="13.39" fill="#231f20"/>
  <rect x="533.53" y="401.16" width="13.39" height="13.39" fill="#231f20"/>
  <rect x="533.58" y="357.32" width="13.39" height="13.39" fill="#231f20"/>
  <rect x="490.3" y="313.25" width="13.39" height="13.39" fill="#231f20"/>
  <rect x="490.35" y="268.55" width="13.39" height="13.39" fill="#231f20"/>
  <rect x="533.53" y="313.25" width="13.39" height="13.39" fill="#231f20"/>
  <rect x="533.58" y="268.55" width="13.39" height="13.39" fill="#231f20"/>
  <rect x="663.69" y="357.24" width="13.39" height="13.39" fill="#231f20"/>
  <rect x="663.39" y="397.01" width="13.39" height="13.39" fill="#231f20"/>
  <rect x="620.2" y="397.01" width="13.39" height="13.39" fill="#231f20"/>
  <rect x="706.96" y="397.01" width="13.39" height="13.39" fill="#231f20"/>
  <rect x="663.64" y="313.25" width="13.39" height="13.39" fill="#231f20"/>
  <rect x="663.69" y="268.19" width="13.39" height="13.39" fill="#231f20"/>
  <rect x="620.25" y="357.24" width="13.39" height="13.39" fill="#231f20"/>
  <rect x="620.2" y="313.25" width="13.39" height="13.39" fill="#231f20"/>
  <rect x="620.25" y="268.19" width="13.39" height="13.39" fill="#231f20"/>
  <rect x="576.91" y="268.19" width="13.39" height="13.39" fill="#231f20"/>
  <rect x="620.25" y="226.33" width="13.39" height="13.39" fill="#231f20"/>
  <rect x="576.91" y="226.33" width="13.39" height="13.39" fill="#231f20"/>
  <rect x="620.25" y="184.12" width="13.39" height="13.39" fill="#231f20"/>
  <rect x="576.91" y="184.12" width="13.39" height="13.39" fill="#231f20"/>
  <rect x="706.92" y="184.12" width="13.39" height="13.39" fill="#231f20"/>
  <rect x="663.58" y="184.12" width="13.39" height="13.39" fill="#231f20"/>
  <rect x="878.36" y="184.12" width="13.39" height="13.39" fill="#231f20"/>
  <rect x="835.02" y="184.12" width="13.39" height="13.39" fill="#231f20"/>
  <rect x="792.64" y="184.12" width="13.39" height="13.39" fill="#231f20"/>
  <rect x="749.3" y="184.12" width="13.39" height="13.39" fill="#231f20"/>
  <rect x="706.92" y="226.33" width="13.39" height="13.39" fill="#231f20"/>
  <rect x="663.58" y="226.33" width="13.39" height="13.39" fill="#231f20"/>
  <rect x="835.02" y="226.33" width="13.39" height="13.39" fill="#231f20"/>
  <rect x="792.64" y="226.33" width="13.39" height="13.39" fill="#231f20"/>
  <rect x="749.3" y="226.33" width="13.39" height="13.39" fill="#231f20"/>
  <rect x="923.29" y="184.12" width="13.39" height="13.39" fill="#231f20"/>
  <rect x="1051.39" y="184.12" width="13.39" height="13.39" fill="#231f20"/>
  <rect x="1009.01" y="184.12" width="13.39" height="13.39" fill="#231f20"/>
  <rect x="965.67" y="184.12" width="13.39" height="13.39" fill="#231f20"/>
  <rect x="878.36" y="226.33" width="13.39" height="13.39" fill="#231f20"/>
  <rect x="923.29" y="226.33" width="13.39" height="13.39" fill="#231f20"/>
  <rect x="1051.39" y="226.33" width="13.39" height="13.39" fill="#231f20"/>
  <rect x="1009.01" y="226.33" width="13.39" height="13.39" fill="#231f20"/>
  <rect x="965.67" y="226.33" width="13.39" height="13.39" fill="#231f20"/>
  <rect x="706.92" y="140.68" width="13.39" height="13.39" fill="#231f20"/>
  <rect x="663.58" y="140.68" width="13.39" height="13.39" fill="#231f20"/>
  <rect x="620.14" y="140.68" width="13.39" height="13.39" fill="#231f20"/>
  <rect x="576.81" y="140.68" width="13.39" height="13.39" fill="#231f20"/>
  <rect x="706.87" y="313.25" width="13.39" height="13.39" fill="#231f20"/>
  <rect x="706.92" y="268.19" width="13.39" height="13.39" fill="#231f20"/>
  <rect x="749.59" y="268.55" width="13.39" height="13.39" fill="#231f20"/>
  <rect x="879.7" y="268.19" width="13.39" height="13.39" fill="#231f20"/>
  <rect x="836.26" y="268.19" width="13.39" height="13.39" fill="#231f20"/>
  <rect x="792.93" y="268.19" width="13.39" height="13.39" fill="#231f20"/>
  <rect x="922.93" y="268.19" width="13.39" height="13.39" fill="#231f20"/>
  <rect x="966.17" y="268.55" width="13.39" height="13.39" fill="#231f20"/>
  <rect x="1052.84" y="268.19" width="13.39" height="13.39" fill="#231f20"/>
  <rect x="1009.5" y="268.19" width="13.39" height="13.39" fill="#231f20"/>
  <rect x="879.7" y="312.33" width="13.39" height="13.39" fill="#231f20"/>
  <rect x="836.26" y="312.33" width="13.39" height="13.39" fill="#231f20"/>
  <rect x="922.93" y="312.33" width="13.39" height="13.39" fill="#231f20"/>
  <rect x="966.17" y="312.68" width="13.39" height="13.39" fill="#231f20"/>
  <rect x="1052.84" y="312.33" width="13.39" height="13.39" fill="#231f20"/>
  <rect x="879.7" y="355.01" width="13.39" height="13.39" fill="#231f20"/>
  <rect x="836.26" y="355.01" width="13.39" height="13.39" fill="#231f20"/>
  <rect x="922.93" y="355.01" width="13.39" height="13.39" fill="#231f20"/>
  <rect x="1009.5" y="399.71" width="13.39" height="13.39" fill="#231f20"/>
  <rect x="1052.84" y="443.85" width="13.39" height="13.39" fill="#231f20"/>
  <rect x="1052.84" y="486.53" width="13.39" height="13.39" fill="#231f20"/>
  <rect x="1009.01" y="529" width="13.39" height="13.39" fill="#231f20"/>
  <rect x="965.67" y="529" width="13.39" height="13.39" fill="#231f20"/>
  <rect x="1009.01" y="573.14" width="13.39" height="13.39" fill="#231f20"/>
  <rect x="965.67" y="573.14" width="13.39" height="13.39" fill="#231f20"/>
  <rect x="965.67" y="442.18" width="13.39" height="13.39" fill="#231f20"/>
  <rect x="965.67" y="486.32" width="13.39" height="13.39" fill="#231f20"/>
  <rect x="1052.84" y="615.82" width="13.39" height="13.39" fill="#231f20"/>
  <rect x="1052.84" y="659.49" width="13.39" height="13.39" fill="#231f20"/>
  <rect x="1052.84" y="528.2" width="13.39" height="13.39" fill="#231f20"/>
  <rect x="1052.84" y="573.14" width="13.39" height="13.39" fill="#231f20"/>
  <rect x="404.27" y="313.25" width="13.39" height="13.39" fill="#231f20"/>
  <rect x="404.32" y="268.55" width="13.39" height="13.39" fill="#231f20"/>
  <rect x="447.51" y="313.25" width="13.39" height="13.39" fill="#231f20"/>
  <rect x="447.55" y="268.55" width="13.39" height="13.39" fill="#231f20"/>
  <rect x="404.27" y="401.16" width="13.39" height="13.39" fill="#231f20"/>
  <rect x="404.32" y="357.32" width="13.39" height="13.39" fill="#231f20"/>
  <rect x="447.51" y="401.16" width="13.39" height="13.39" fill="#231f20"/>
  <rect x="447.55" y="357.32" width="13.39" height="13.39" fill="#231f20"/>
  <rect x="360.17" y="486.84" width="13.39" height="13.39" fill="#231f20"/>
  <rect x="316.06" y="441.89" width="13.39" height="13.39" fill="#231f20"/>
  <rect x="360.17" y="441.89" width="13.39" height="13.39" fill="#231f20"/>
  <rect x="316.06" y="401.7" width="13.39" height="13.39" fill="#231f20"/>
  <rect x="316.06" y="357.32" width="13.39" height="13.39" fill="#231f20"/>
  <rect x="316.06" y="312.93" width="13.39" height="13.39" fill="#231f20"/>
  <rect x="229.84" y="400.3" width="13.39" height="13.39" fill="#231f20"/>
  <rect x="229.84" y="443.76" width="13.39" height="13.39" fill="#231f20"/>
  <rect x="187.49" y="400.3" width="13.39" height="13.39" fill="#231f20"/>
  <rect x="187.49" y="443.76" width="13.39" height="13.39" fill="#231f20"/>
  <rect x="229.84" y="355.92" width="13.39" height="13.39" fill="#231f20"/>
  <rect x="187.23" y="355.92" width="13.39" height="13.39" fill="#231f20"/>
  <rect x="316.06" y="268.55" width="13.39" height="13.39" fill="#231f20"/>
  <rect x="273.94" y="573.46" width="13.39" height="13.39" fill="#231f20"/>
  <rect x="273.94" y="531.23" width="13.39" height="13.39" fill="#231f20"/>
  <rect x="273.94" y="486.84" width="13.39" height="13.39" fill="#231f20"/>
  <rect x="273.94" y="441.89" width="13.39" height="13.39" fill="#231f20"/>
  <rect x="273.94" y="401.7" width="13.39" height="13.39" fill="#231f20"/>
  <rect x="273.94" y="357.32" width="13.39" height="13.39" fill="#231f20"/>
  <rect x="273.94" y="312.93" width="13.39" height="13.39" fill="#231f20"/>
  <rect x="273.94" y="268.55" width="13.39" height="13.39" fill="#231f20"/>
  <rect x="360.17" y="312.93" width="13.39" height="13.39" fill="#231f20"/>
  <rect x="229.84" y="312.93" width="13.39" height="13.39" fill="#231f20"/>
  <rect x="229.84" y="268.55" width="13.39" height="13.39" fill="#231f20"/>
  <rect x="229.84" y="226.33" width="13.39" height="13.39" fill="#231f20"/>
  <rect x="187.54" y="226.33" width="13.39" height="13.39" fill="#231f20"/>
  <rect x="229.84" y="183.77" width="13.39" height="13.39" fill="#231f20"/>
  <rect x="229.84" y="9.22" width="13.39" height="13.39" fill="#231f20"/>
  <rect x="187.54" y="52.21" width="13.39" height="13.39" fill="#231f20"/>
  <rect x="187.54" y="9.22" width="13.39" height="13.39" fill="#231f20"/>
  <rect x="272.13" y="138.37" width="13.39" height="13.39" fill="#231f20"/>
  <rect x="272.13" y="96.32" width="13.39" height="13.39" fill="#231f20"/>
  <rect x="361.09" y="96.32" width="13.39" height="13.39" fill="#231f20"/>
  <rect x="361.09" y="138.37" width="13.39" height="13.39" fill="#231f20"/>
  <rect x="404.27" y="96.32" width="13.39" height="13.39" fill="#231f20"/>
  <rect x="361.72" y="52.77" width="13.39" height="13.39" fill="#231f20"/>
  <rect x="404.9" y="52.77" width="13.39" height="13.39" fill="#231f20"/>
  <rect x="361.09" y="9.22" width="13.39" height="13.39" fill="#231f20"/>
  <rect x="404.27" y="9.22" width="13.39" height="13.39" fill="#231f20"/>
  <rect x="447.46" y="9.22" width="13.39" height="13.39" fill="#231f20"/>
  <rect x="448.09" y="52.77" width="13.39" height="13.39" fill="#231f20"/>
  <rect x="488.83" y="52.77" width="13.39" height="13.39" fill="#231f20"/>
  <rect x="532.7" y="52.21" width="13.39" height="13.39" fill="#231f20"/>
  <rect x="532.7" y="9.22" width="13.39" height="13.39" fill="#231f20"/>
  <rect x="532.7" y="95.2" width="13.39" height="13.39" fill="#231f20"/>
  <rect x="575.88" y="52.21" width="13.39" height="13.39" fill="#231f20"/>
  <rect x="575.88" y="95.2" width="13.39" height="13.39" fill="#231f20"/>
  <rect x="620.25" y="52.21" width="13.39" height="13.39" fill="#231f20"/>
  <rect x="620.25" y="9.22" width="13.39" height="13.39" fill="#231f20"/>
  <rect x="663.58" y="52.21" width="13.39" height="13.39" fill="#231f20"/>
  <rect x="705.42" y="52.21" width="13.39" height="13.39" fill="#231f20"/>
  <rect x="705.42" y="9.22" width="13.39" height="13.39" fill="#231f20"/>
  <rect x="748.76" y="52.21" width="13.39" height="13.39" fill="#231f20"/>
  <rect x="791.69" y="52.21" width="13.39" height="13.39" fill="#231f20"/>
  <rect x="791.69" y="95.2" width="13.39" height="13.39" fill="#231f20"/>
  <rect x="705.42" y="95.2" width="13.39" height="13.39" fill="#231f20"/>
  <rect x="662.84" y="95.2" width="13.39" height="13.39" fill="#231f20"/>
  <rect x="748.76" y="95.2" width="13.39" height="13.39" fill="#231f20"/>
  <rect x="748.76" y="9.22" width="13.39" height="13.39" fill="#231f20"/>
  <rect x="792.64" y="9.22" width="13.39" height="13.39" fill="#231f20"/>
  <rect x="835.02" y="9.22" width="13.39" height="13.39" fill="#231f20"/>
  <rect x="835.02" y="52.21" width="13.39" height="13.39" fill="#231f20"/>
  <rect x="878.36" y="52.21" width="13.39" height="13.39" fill="#231f20"/>
  <rect x="878.36" y="9.22" width="13.39" height="13.39" fill="#231f20"/>
  <rect x="923.29" y="9.22" width="13.39" height="13.39" fill="#231f20"/>
  <rect x="923.29" y="52.21" width="13.39" height="13.39" fill="#231f20"/>
  <rect x="923.29" y="95.2" width="13.39" height="13.39" fill="#231f20"/>
  <rect x="965.67" y="95.2" width="13.39" height="13.39" fill="#231f20"/>
  <rect x="965.67" y="52.21" width="13.39" height="13.39" fill="#231f20"/>
  <rect x="1008.53" y="52.21" width="13.39" height="13.39" fill="#231f20"/>
  <rect x="1008.53" y="95.2" width="13.39" height="13.39" fill="#231f20"/>
  <rect x="1052.34" y="95.2" width="13.39" height="13.39" fill="#231f20"/>
  <rect x="1051.39" y="52.21" width="13.39" height="13.39" fill="#231f20"/>
  <rect x="1051.39" y="9.22" width="13.39" height="13.39" fill="#231f20"/>
  <rect x="965.67" y="9.22" width="13.39" height="13.39" fill="#231f20"/>
  <rect x="878.36" y="95.2" width="13.39" height="13.39" fill="#231f20"/>
  <rect x="835.02" y="95.2" width="13.39" height="13.39" fill="#231f20"/>
  <rect x="663.58" y="9.22" width="13.39" height="13.39" fill="#231f20"/>
  <rect x="620.25" y="95.2" width="13.39" height="13.39" fill="#231f20"/>
  <rect x="273.94" y="312.93" width="13.39" height="13.39" fill="#231f20"/>
  <rect x="316.06" y="226.33" width="13.39" height="13.39" fill="#231f20"/>
  <rect x="316.06" y="183.77" width="13.39" height="13.39" fill="#231f20"/>
  <rect x="273.94" y="226.33" width="13.39" height="13.39" fill="#231f20"/>
  <rect x="273.94" y="183.77" width="13.39" height="13.39" fill="#231f20"/>
  <rect x="273.94" y="226.33" width="13.39" height="13.39" fill="#231f20"/>
  <rect x="360.17" y="268.55" width="13.39" height="13.39" fill="#231f20"/>
  <rect x="490.35" y="184.47" width="13.39" height="13.39" fill="#231f20"/>
  <rect x="404.32" y="184.47" width="13.39" height="13.39" fill="#231f20"/>
  <rect x="447.55" y="184.47" width="13.39" height="13.39" fill="#231f20"/>
  <rect x="360.17" y="184.47" width="13.39" height="13.39" fill="#231f20"/>
  <rect x="490.35" y="226.33" width="13.39" height="13.39" fill="#231f20"/>
  <rect x="533.58" y="226.33" width="13.39" height="13.39" fill="#231f20"/>
  <rect x="404.32" y="226.33" width="13.39" height="13.39" fill="#231f20"/>
  <rect x="447.55" y="226.33" width="13.39" height="13.39" fill="#231f20"/>
  <rect x="360.17" y="226.33" width="13.39" height="13.39" fill="#231f20"/>
  <rect x="143.44" y="312.93" width="13.39" height="13.39" fill="#231f20"/>
  <rect x="143.44" y="268.55" width="13.39" height="13.39" fill="#231f20"/>
  <rect x="14.29" y="268.55" width="13.39" height="13.39" fill="#231f20"/>
  <rect x="14.29" y="312.93" width="13.39" height="13.39" fill="#231f20"/>
  <rect x="187.54" y="312.93" width="13.39" height="13.39" fill="#231f20"/>
  <rect x="187.54" y="268.55" width="13.39" height="13.39" fill="#231f20"/>
  <rect x="146.61" y="226.33" width="13.39" height="13.39" fill="#231f20"/>
  <rect x="56.3" y="226.33" width="13.39" height="13.39" fill="#231f20"/>
  <rect x="15.49" y="226.33" width="13.39" height="13.39" fill="#231f20"/>
  <rect x="146.92" y="96.32" width="13.39" height="13.39" fill="#231f20"/>
  <rect x="146.92" y="52.21" width="13.39" height="13.39" fill="#231f20"/>
  <rect x="146.92" y="9.22" width="13.39" height="13.39" fill="#231f20"/>
  <rect x="146.92" y="180.15" width="13.39" height="13.39" fill="#231f20"/>
  <rect x="146.92" y="138.37" width="13.39" height="13.39" fill="#231f20"/>
  <rect x="56.3" y="96.32" width="13.39" height="13.39" fill="#231f20"/>
  <rect x="56.3" y="52.21" width="13.39" height="13.39" fill="#231f20"/>
  <rect x="56.3" y="9.22" width="13.39" height="13.39" fill="#231f20"/>
  <rect x="56.3" y="138.37" width="13.39" height="13.39" fill="#231f20"/>
  <rect x="101.31" y="181.28" width="13.39" height="13.39" fill="#231f20"/>
  <rect x="56.3" y="181.28" width="13.39" height="13.39" fill="#231f20"/>
  <rect x="101.31" y="138.37" width="13.39" height="13.39" fill="#231f20"/>
  <rect x="58.4" y="443.76" width="13.39" height="13.39" fill="#231f20"/>
  <rect x="14.29" y="443.76" width="13.39" height="13.39" fill="#231f20"/>
  <rect x="58.4" y="487.22" width="13.39" height="13.39" fill="#231f20"/>
  <rect x="14.29" y="487.22" width="13.39" height="13.39" fill="#231f20"/>
  <rect x="187.49" y="487.22" width="13.39" height="13.39" fill="#231f20"/>
  <rect x="187.49" y="526.98" width="13.39" height="13.39" fill="#231f20"/>
  <rect x="187.49" y="570.44" width="13.39" height="13.39" fill="#231f20"/>
  <rect x="187.49" y="613.9" width="13.39" height="13.39" fill="#231f20"/>
  <rect x="102.5" y="400.3" width="13.39" height="13.39" fill="#231f20"/>
  <rect x="102.5" y="443.76" width="13.39" height="13.39" fill="#231f20"/>
  <rect x="102.5" y="355.92" width="13.39" height="13.39" fill="#231f20"/>
  <rect x="360.17" y="401.7" width="13.39" height="13.39" fill="#231f20"/>
  <rect x="360.17" y="357.32" width="13.39" height="13.39" fill="#231f20"/>
  <rect x="275.9" y="788.02" width="13.39" height="13.39" fill="#231f20"/>
  <rect x="316.69" y="788.02" width="13.39" height="13.39" fill="#231f20"/>
  <rect x="100.1" y="788.02" width="13.39" height="13.39" fill="#231f20"/>
  <rect x="100.1" y="832.88" width="13.39" height="13.39" fill="#231f20"/>
  <rect x="59.44" y="788.02" width="13.39" height="13.39" fill="#231f20"/>
  <rect x="14.29" y="788.02" width="13.39" height="13.39" fill="#231f20"/>
  <rect x="59.44" y="832.88" width="13.39" height="13.39" fill="#231f20"/>
  <rect x="145.11" y="788.02" width="13.39" height="13.39" fill="#231f20"/>
  <rect x="188" y="788.02" width="13.39" height="13.39" fill="#231f20"/>
  <rect x="316.69" y="832.88" width="13.39" height="13.39" fill="#231f20"/>
  <rect x="403.92" y="832.88" width="13.39" height="13.39" fill="#231f20"/>
  <rect x="361.6" y="788.02" width="13.39" height="13.39" fill="#231f20"/>
  <rect x="403.92" y="788.02" width="13.39" height="13.39" fill="#231f20"/>
  <rect x="403.92" y="744.59" width="13.39" height="13.39" fill="#231f20"/>
  <rect x="361.6" y="744.59" width="13.39" height="13.39" fill="#231f20"/>
  <rect x="403.92" y="702.83" width="13.39" height="13.39" fill="#231f20"/>
  <rect x="448.34" y="702.83" width="13.39" height="13.39" fill="#231f20"/>
  <rect x="448.34" y="657.88" width="13.39" height="13.39" fill="#231f20"/>
  <rect x="404.27" y="657.88" width="13.39" height="13.39" fill="#231f20"/>
  <rect x="490.32" y="657.88" width="13.39" height="13.39" fill="#231f20"/>
  <rect x="490.32" y="615.67" width="13.39" height="13.39" fill="#231f20"/>
  <rect x="575.7" y="657.88" width="13.39" height="13.39" fill="#231f20"/>
  <rect x="575.7" y="615.67" width="13.39" height="13.39" fill="#231f20"/>
  <rect x="448.34" y="615.67" width="13.39" height="13.39" fill="#231f20"/>
  <rect x="316.69" y="1003.33" width="13.39" height="13.39" fill="#231f20"/>
  <rect x="316.69" y="1047.55" width="13.39" height="13.39" fill="#231f20"/>
  <rect x="273.8" y="1003.33" width="13.39" height="13.39" fill="#231f20"/>
  <rect x="273.8" y="1047.55" width="13.39" height="13.39" fill="#231f20"/>
  <rect x="188" y="1047.55" width="13.39" height="13.39" fill="#231f20"/>
  <rect x="230.9" y="1003.33" width="13.39" height="13.39" fill="#231f20"/>
  <rect x="188.06" y="1003.33" width="13.39" height="13.39" fill="#231f20"/>
  <rect x="619.28" y="917.92" width="13.39" height="13.39" fill="#231f20"/>
  <rect x="575.7" y="874.79" width="13.39" height="13.39" fill="#231f20"/>
  <rect x="575.7" y="831.73" width="13.39" height="13.39" fill="#231f20"/>
  <rect x="662.87" y="831.73" width="13.39" height="13.39" fill="#231f20"/>
  <rect x="706.96" y="831.73" width="13.39" height="13.39" fill="#231f20"/>
  <rect x="705.8" y="873.35" width="13.39" height="13.39" fill="#231f20"/>
  <rect x="619.28" y="874.79" width="13.39" height="13.39" fill="#231f20"/>
  <rect x="836.26" y="831.73" width="13.39" height="13.39" fill="#231f20"/>
  <rect x="879.48" y="831.73" width="13.39" height="13.39" fill="#231f20"/>
  <rect x="879.48" y="788.67" width="13.39" height="13.39" fill="#231f20"/>
  <rect x="879.48" y="745.61" width="13.39" height="13.39" fill="#231f20"/>
  <rect x="922.7" y="745.61" width="13.39" height="13.39" fill="#231f20"/>
  <rect x="836.26" y="745.61" width="13.39" height="13.39" fill="#231f20"/>
  <rect x="836.26" y="702.55" width="13.39" height="13.39" fill="#231f20"/>
  <rect x="878.72" y="702.55" width="13.39" height="13.39" fill="#231f20"/>
  <rect x="922.93" y="658.84" width="13.39" height="13.39" fill="#231f20"/>
  <rect x="965.73" y="658.84" width="13.39" height="13.39" fill="#231f20"/>
  <rect x="922.93" y="615.78" width="13.39" height="13.39" fill="#231f20"/>
  <rect x="965.67" y="615.78" width="13.39" height="13.39" fill="#231f20"/>
  <rect x="922.93" y="571.26" width="13.39" height="13.39" fill="#231f20"/>
  <rect x="922.93" y="528.2" width="13.39" height="13.39" fill="#231f20"/>
  <rect x="922.93" y="483.13" width="13.39" height="13.39" fill="#231f20"/>
  <rect x="793.18" y="483.13" width="13.39" height="13.39" fill="#231f20"/>
  <rect x="922.93" y="441.82" width="13.39" height="13.39" fill="#231f20"/>
  <rect x="706.96" y="571.26" width="13.39" height="13.39" fill="#231f20"/>
  <rect x="750.1" y="571.26" width="13.39" height="13.39" fill="#231f20"/>
  <rect x="662.84" y="571.26" width="13.39" height="13.39" fill="#231f20"/>
  <rect x="662.84" y="530.79" width="13.39" height="13.39" fill="#231f20"/>
  <rect x="706.96" y="530.79" width="13.39" height="13.39" fill="#231f20"/>
  <rect x="750.1" y="397.01" width="13.39" height="13.39" fill="#231f20"/>
  <rect x="706.96" y="485.14" width="13.39" height="13.39" fill="#231f20"/>
  <rect x="750.1" y="441.82" width="13.39" height="13.39" fill="#231f20"/>
  <rect x="793.24" y="397.01" width="13.39" height="13.39" fill="#231f20"/>
  <rect x="835.98" y="397.01" width="13.39" height="13.39" fill="#231f20"/>
  <rect x="835.98" y="441.82" width="13.39" height="13.39" fill="#231f20"/>
  <rect x="793.24" y="441.82" width="13.39" height="13.39" fill="#231f20"/>
  <rect x="750.1" y="312.51" width="13.39" height="13.39" fill="#231f20"/>
  <rect x="750.1" y="357.32" width="13.39" height="13.39" fill="#231f20"/>
  <rect x="793.24" y="312.51" width="13.39" height="13.39" fill="#231f20"/>
  <rect x="793.24" y="357.32" width="13.39" height="13.39" fill="#231f20"/>
  <rect x="750.1" y="484.69" width="13.39" height="13.39" fill="#231f20"/>
  <rect x="750.1" y="529.31" width="13.39" height="13.39" fill="#231f20"/>
  <rect x="793.24" y="529.31" width="13.39" height="13.39" fill="#231f20"/>
  <rect x="878.72" y="658.84" width="13.39" height="13.39" fill="#231f20"/>
  <rect x="878.72" y="615.78" width="13.39" height="13.39" fill="#231f20"/>
  <rect x="878.72" y="571.26" width="13.39" height="13.39" fill="#231f20"/>
  <rect x="878.72" y="528.2" width="13.39" height="13.39" fill="#231f20"/>
  <rect x="878.72" y="483.13" width="13.39" height="13.39" fill="#231f20"/>
  <rect x="878.72" y="441.82" width="13.39" height="13.39" fill="#231f20"/>
  <rect x="965.67" y="399.89" width="13.39" height="13.39" fill="#231f20"/>
  <rect x="922.93" y="399.53" width="13.39" height="13.39" fill="#231f20"/>
  <rect x="878.72" y="399.53" width="13.39" height="13.39" fill="#231f20"/>
  <rect x="793.81" y="702.55" width="13.39" height="13.39" fill="#231f20"/>
  <rect x="836.26" y="874.79" width="13.39" height="13.39" fill="#231f20"/>
  <rect x="836.26" y="961.05" width="13.39" height="13.39" fill="#231f20"/>
  <rect x="793.05" y="961.05" width="13.39" height="13.39" fill="#231f20"/>
  <rect x="793.05" y="917.92" width="13.39" height="13.39" fill="#231f20"/>
  <rect x="836.26" y="917.92" width="13.39" height="13.39" fill="#231f20"/>
  <rect x="879.48" y="917.92" width="13.39" height="13.39" fill="#231f20"/>
  <rect x="922.61" y="917.92" width="13.39" height="13.39" fill="#231f20"/>
  <rect x="922.61" y="874.62" width="13.39" height="13.39" fill="#231f20"/>
  <rect x="879.48" y="874.62" width="13.39" height="13.39" fill="#231f20"/>
  <rect x="662.58" y="917.92" width="13.39" height="13.39" fill="#231f20"/>
  <rect x="705.8" y="917.92" width="13.39" height="13.39" fill="#231f20"/>
  <rect x="749.02" y="917.92" width="13.39" height="13.39" fill="#231f20"/>
  <rect x="965.73" y="917.92" width="13.39" height="13.39" fill="#231f20"/>
  <rect x="965.73" y="874.79" width="13.39" height="13.39" fill="#231f20"/>
  <rect x="965.73" y="831.65" width="13.39" height="13.39" fill="#231f20"/>
  <rect x="922.93" y="831.65" width="13.39" height="13.39" fill="#231f20"/>
  <rect x="1008.95" y="831.65" width="13.39" height="13.39" fill="#231f20"/>
  <rect x="1052.08" y="831.65" width="13.39" height="13.39" fill="#231f20"/>
  <rect x="965.83" y="788.67" width="13.39" height="13.39" fill="#231f20"/>
  <rect x="1008.95" y="659.49" width="13.39" height="13.39" fill="#231f20"/>
  <rect x="965.83" y="745.61" width="13.39" height="13.39" fill="#231f20"/>
  <rect x="1008.95" y="874.79" width="13.39" height="13.39" fill="#231f20"/>
  <rect x="1053.33" y="874.79" width="13.39" height="13.39" fill="#231f20"/>
  <rect x="1008.95" y="917.92" width="13.39" height="13.39" fill="#231f20"/>
  <rect x="1052.08" y="917.92" width="13.39" height="13.39" fill="#231f20"/>
  <rect x="1008.95" y="961.05" width="13.39" height="13.39" fill="#231f20"/>
  <rect x="965.73" y="961.05" width="13.39" height="13.39" fill="#231f20"/>
  <rect x="965.73" y="1004.19" width="13.39" height="13.39" fill="#231f20"/>
  <rect x="836.26" y="1004.19" width="13.39" height="13.39" fill="#231f20"/>
  <rect x="1008.95" y="1004.19" width="13.39" height="13.39" fill="#231f20"/>
  <rect x="748.72" y="961.05" width="13.39" height="13.39" fill="#231f20"/>
  <rect x="793.05" y="1003.33" width="13.39" height="13.39" fill="#231f20"/>
  <rect x="706.96" y="788.67" width="13.39" height="13.39" fill="#231f20"/>
  <rect x="575.7" y="788.67" width="13.39" height="13.39" fill="#231f20"/>
  <rect x="706.96" y="745.61" width="13.39" height="13.39" fill="#231f20"/>
  <rect x="749.02" y="745.61" width="13.39" height="13.39" fill="#231f20"/>
  <rect x="749.02" y="702.55" width="13.39" height="13.39" fill="#231f20"/>
</svg>