<?xml version="1.0" encoding="UTF-8"?>
<svg id="_11" data-name="11" xmlns="http://www.w3.org/2000/svg" viewBox="0 0 1080 1080">
  <rect x="435.44" y="558.82" width="40.84" height="40.84" fill="#231f20"/>
  <rect x="435.44" y="601.68" width="40.84" height="40.84" fill="#231f20"/>
  <rect x="564.78" y="860.37" width="40.84" height="40.84" fill="#231f20"/>
  <rect x="564.78" y="817.8" width="40.84" height="40.84" fill="#231f20"/>
  <rect x="521.45" y="774.37" width="40.84" height="40.84" fill="#231f20"/>
  <rect x="521.45" y="730.98" width="40.84" height="40.84" fill="#231f20"/>
  <rect x="564.78" y="299.25" width="40.84" height="40.84" fill="#231f20"/>
  <rect x="608.25" y="299.25" width="40.84" height="40.84" fill="#231f20"/>
  <rect x="608.33" y="429.21" width="40.84" height="40.84" fill="#231f20"/>
  <rect x="564.78" y="429.21" width="40.84" height="40.84" fill="#231f20"/>
  <rect x="564.78" y="385.59" width="40.84" height="40.84" fill="#231f20"/>
  <rect x="477.86" y="472" width="40.84" height="40.84" fill="#231f20"/>
  <rect x="478.43" y="213" width="40.84" height="40.84" fill="#231f20"/>
  <rect x="478.43" y="256.1" width="40.84" height="40.84" fill="#231f20"/>
  <rect x="737.47" y="83.48" width="40.84" height="40.84" fill="#231f20"/>
  <rect x="694.27" y="83.48" width="40.84" height="40.84" fill="#231f20"/>
  <rect x="651.27" y="126.48" width="40.84" height="40.84" fill="#231f20"/>
  <rect x="651.27" y="169.65" width="40.84" height="40.84" fill="#231f20"/>
  <rect x="392.24" y="558.82" width="40.84" height="40.84" fill="#231f20"/>
  <rect x="176.13" y="687.68" width="40.84" height="40.84" fill="#231f20"/>
  <rect x="622.05" y="528.89" width="13.39" height="13.39" fill="#231f20"/>
  <rect x="622.05" y="571.36" width="13.39" height="13.39" fill="#231f20"/>
  <rect x="665.62" y="572.01" width="13.39" height="13.39" fill="#231f20"/>
  <rect x="708.25" y="613.24" width="13.39" height="13.39" fill="#231f20"/>
  <rect x="665.62" y="613.24" width="13.39" height="13.39" fill="#231f20"/>
  <rect x="622.05" y="485.72" width="13.39" height="13.39" fill="#231f20"/>
  <rect x="664.98" y="399.32" width="13.39" height="13.39" fill="#231f20"/>
  <rect x="664.98" y="443.21" width="13.39" height="13.39" fill="#231f20"/>
  <rect x="622.05" y="399.32" width="13.39" height="13.39" fill="#231f20"/>
  <rect x="579.13" y="356.14" width="13.39" height="13.39" fill="#231f20"/>
  <rect x="535.17" y="312.97" width="13.39" height="13.39" fill="#231f20"/>
  <rect x="535.17" y="269.82" width="13.39" height="13.39" fill="#231f20"/>
  <rect x="578.5" y="269.82" width="13.39" height="13.39" fill="#231f20"/>
  <rect x="622.05" y="269.82" width="13.39" height="13.39" fill="#231f20"/>
  <rect x="664.99" y="226.73" width="13.39" height="13.39" fill="#231f20"/>
  <rect x="664.99" y="269.82" width="13.39" height="13.39" fill="#231f20"/>
  <rect x="706.73" y="312.97" width="13.39" height="13.39" fill="#231f20"/>
  <rect x="795.86" y="226.73" width="13.39" height="13.39" fill="#231f20"/>
  <rect x="795.86" y="183.37" width="13.39" height="13.39" fill="#231f20"/>
  <rect x="795.86" y="140.2" width="13.39" height="13.39" fill="#231f20"/>
  <rect x="707.91" y="140.2" width="13.39" height="13.39" fill="#231f20"/>
  <rect x="707.91" y="183.37" width="13.39" height="13.39" fill="#231f20"/>
  <rect x="751" y="226.73" width="13.39" height="13.39" fill="#231f20"/>
  <rect x="751" y="269.8" width="13.39" height="13.39" fill="#231f20"/>
  <rect x="795.86" y="269.8" width="13.39" height="13.39" fill="#231f20"/>
  <rect x="795.86" y="312.97" width="13.39" height="13.39" fill="#231f20"/>
  <rect x="795.86" y="356.14" width="13.39" height="13.39" fill="#231f20"/>
  <rect x="795.86" y="399.32" width="13.39" height="13.39" fill="#231f20"/>
  <rect x="795.86" y="442.94" width="13.39" height="13.39" fill="#231f20"/>
  <rect x="795.86" y="483.91" width="13.39" height="13.39" fill="#231f20"/>
  <rect x="795.86" y="528.89" width="13.39" height="13.39" fill="#231f20"/>
  <rect x="795.86" y="571.36" width="13.39" height="13.39" fill="#231f20"/>
  <rect x="795.86" y="615.4" width="13.39" height="13.39" fill="#231f20"/>
  <rect x="750.88" y="615.4" width="13.39" height="13.39" fill="#231f20"/>
  <rect x="750.88" y="658.5" width="13.39" height="13.39" fill="#231f20"/>
  <rect x="665.62" y="658.5" width="13.39" height="13.39" fill="#231f20"/>
  <rect x="707.15" y="701.6" width="13.39" height="13.39" fill="#231f20"/>
  <rect x="665.62" y="701.6" width="13.39" height="13.39" fill="#231f20"/>
  <rect x="665.62" y="744.7" width="13.39" height="13.39" fill="#231f20"/>
  <rect x="622.05" y="744.7" width="13.39" height="13.39" fill="#231f20"/>
  <rect x="622.05" y="787.07" width="13.39" height="13.39" fill="#231f20"/>
  <rect x="622.05" y="831.53" width="13.39" height="13.39" fill="#231f20"/>
  <rect x="622.05" y="874.1" width="13.39" height="13.39" fill="#231f20"/>
  <rect x="535.17" y="874.1" width="13.39" height="13.39" fill="#231f20"/>
  <rect x="578.5" y="918.77" width="13.39" height="13.39" fill="#231f20"/>
  <rect x="578.5" y="960.61" width="13.39" height="13.39" fill="#231f20"/>
  <rect x="535.17" y="1004.65" width="13.39" height="13.39" fill="#231f20"/>
  <rect x="535.17" y="1049.53" width="13.39" height="13.39" fill="#231f20"/>
  <rect x="491.84" y="1004.65" width="13.39" height="13.39" fill="#231f20"/>
  <rect x="492.04" y="960.61" width="13.39" height="13.39" fill="#231f20"/>
  <rect x="448.71" y="960.61" width="13.39" height="13.39" fill="#231f20"/>
  <rect x="448.51" y="918.77" width="13.39" height="13.39" fill="#231f20"/>
  <rect x="405.18" y="918.77" width="13.39" height="13.39" fill="#231f20"/>
  <rect x="405.18" y="874.1" width="13.39" height="13.39" fill="#231f20"/>
  <rect x="363.56" y="874.1" width="13.39" height="13.39" fill="#231f20"/>
  <rect x="361.85" y="831.53" width="13.39" height="13.39" fill="#231f20"/>
  <rect x="320.23" y="831.53" width="13.39" height="13.39" fill="#231f20"/>
  <rect x="404.78" y="788.09" width="13.39" height="13.39" fill="#231f20"/>
  <rect x="363.16" y="788.09" width="13.39" height="13.39" fill="#231f20"/>
  <rect x="491.58" y="746.81" width="13.39" height="13.39" fill="#231f20"/>
  <rect x="449.16" y="746.81" width="13.39" height="13.39" fill="#231f20"/>
  <rect x="491.58" y="658.5" width="13.39" height="13.39" fill="#231f20"/>
  <rect x="491.58" y="615.4" width="13.39" height="13.39" fill="#231f20"/>
  <rect x="404.78" y="615.4" width="13.39" height="13.39" fill="#231f20"/>
  <rect x="363.16" y="615.4" width="13.39" height="13.39" fill="#231f20"/>
  <rect x="491.97" y="529.13" width="13.39" height="13.39" fill="#231f20"/>
  <rect x="450.35" y="529.13" width="13.39" height="13.39" fill="#231f20"/>
  <rect x="449.09" y="485.72" width="13.39" height="13.39" fill="#231f20"/>
  <rect x="405.96" y="485.72" width="13.39" height="13.39" fill="#231f20"/>
  <rect x="404.01" y="442.94" width="13.39" height="13.39" fill="#231f20"/>
  <rect x="404.01" y="399.95" width="13.39" height="13.39" fill="#231f20"/>
  <rect x="363.16" y="399.95" width="13.39" height="13.39" fill="#231f20"/>
  <rect x="363.16" y="356.14" width="13.39" height="13.39" fill="#231f20"/>
  <rect x="363.16" y="312.97" width="13.39" height="13.39" fill="#231f20"/>
  <rect x="363.16" y="269.82" width="13.39" height="13.39" fill="#231f20"/>
  <rect x="405.95" y="269.82" width="13.39" height="13.39" fill="#231f20"/>
  <rect x="448.41" y="269.82" width="13.39" height="13.39" fill="#231f20"/>
  <rect x="448.41" y="226.73" width="13.39" height="13.39" fill="#231f20"/>
  <rect x="448.41" y="183.37" width="13.39" height="13.39" fill="#231f20"/>
  <rect x="492.15" y="183.37" width="13.39" height="13.39" fill="#231f20"/>
  <rect x="536.21" y="183.37" width="13.39" height="13.39" fill="#231f20"/>
  <rect x="536.21" y="226.6" width="13.39" height="13.39" fill="#231f20"/>
  <rect x="579.95" y="183.37" width="13.39" height="13.39" fill="#231f20"/>
  <rect x="579.95" y="140.2" width="13.39" height="13.39" fill="#231f20"/>
  <rect x="622.05" y="140.2" width="13.39" height="13.39" fill="#231f20"/>
  <rect x="664.99" y="97.21" width="13.39" height="13.39" fill="#231f20"/>
  <rect x="707.99" y="54.21" width="13.39" height="13.39" fill="#231f20"/>
  <rect x="751" y="54.21" width="13.39" height="13.39" fill="#231f20"/>
  <rect x="707.99" y="11.43" width="13.39" height="13.39" fill="#231f20"/>
  <rect x="751" y="11.43" width="13.39" height="13.39" fill="#231f20"/>
  <rect x="795.86" y="11.43" width="13.39" height="13.39" fill="#231f20"/>
  <rect x="795.86" y="97.21" width="13.39" height="13.39" fill="#231f20"/>
  <rect x="448.41" y="140.01" width="13.39" height="13.39" fill="#231f20"/>
  <rect x="490.88" y="140.01" width="13.39" height="13.39" fill="#231f20"/>
  <rect x="405.62" y="97.22" width="13.39" height="13.39" fill="#231f20"/>
  <rect x="405.62" y="54.21" width="13.39" height="13.39" fill="#231f20"/>
  <rect x="448.08" y="54.21" width="13.39" height="13.39" fill="#231f20"/>
  <rect x="405.62" y="11.43" width="13.39" height="13.39" fill="#231f20"/>
  <rect x="363.16" y="11.43" width="13.39" height="13.39" fill="#231f20"/>
  <rect x="448.09" y="97.22" width="13.39" height="13.39" fill="#231f20"/>
  <rect x="320.38" y="356.14" width="13.39" height="13.39" fill="#231f20"/>
  <rect x="276.76" y="356.14" width="13.39" height="13.39" fill="#231f20"/>
  <rect x="231.98" y="399.95" width="13.39" height="13.39" fill="#231f20"/>
  <rect x="231.98" y="443.21" width="13.39" height="13.39" fill="#231f20"/>
  <rect x="231.98" y="485.72" width="13.39" height="13.39" fill="#231f20"/>
  <rect x="276.03" y="485.72" width="13.39" height="13.39" fill="#231f20"/>
  <rect x="276.03" y="528.89" width="13.39" height="13.39" fill="#231f20"/>
  <rect x="276.03" y="572.54" width="13.39" height="13.39" fill="#231f20"/>
  <rect x="189.04" y="443.21" width="13.39" height="13.39" fill="#231f20"/>
  <rect x="146.1" y="443.21" width="13.39" height="13.39" fill="#231f20"/>
  <rect x="146.1" y="484.1" width="13.39" height="13.39" fill="#231f20"/>
  <rect x="102.37" y="484.1" width="13.39" height="13.39" fill="#231f20"/>
  <rect x="59.43" y="484.1" width="13.39" height="13.39" fill="#231f20"/>
  <rect x="59.43" y="529.13" width="13.39" height="13.39" fill="#231f20"/>
  <rect x="59.43" y="571.18" width="13.39" height="13.39" fill="#231f20"/>
  <rect x="59.43" y="616.21" width="13.39" height="13.39" fill="#231f20"/>
  <rect x="59.43" y="658.5" width="13.39" height="13.39" fill="#231f20"/>
  <rect x="189.04" y="399.95" width="13.39" height="13.39" fill="#231f20"/>
  <rect x="320.38" y="312.97" width="13.39" height="13.39" fill="#231f20"/>
  <rect x="535.17" y="485.72" width="13.39" height="13.39" fill="#231f20"/>
  <rect x="535.17" y="442.94" width="13.39" height="13.39" fill="#231f20"/>
  <rect x="491.58" y="442.94" width="13.39" height="13.39" fill="#231f20"/>
  <rect x="535.17" y="399.95" width="13.39" height="13.39" fill="#231f20"/>
  <rect x="318.38" y="615.4" width="13.39" height="13.39" fill="#231f20"/>
  <rect x="276.76" y="615.4" width="13.39" height="13.39" fill="#231f20"/>
  <rect x="276.76" y="658.5" width="13.39" height="13.39" fill="#231f20"/>
  <rect x="276.76" y="701.4" width="13.39" height="13.39" fill="#231f20"/>
  <rect x="318.38" y="658.5" width="13.39" height="13.39" fill="#231f20"/>
  <rect x="231.98" y="658.5" width="13.39" height="13.39" fill="#231f20"/>
  <rect x="189.86" y="658.5" width="13.39" height="13.39" fill="#231f20"/>
  <rect x="145.11" y="658.05" width="13.39" height="13.39" fill="#231f20"/>
  <rect x="231.98" y="701.6" width="13.39" height="13.39" fill="#231f20"/>
  <rect x="145.17" y="701.6" width="13.39" height="13.39" fill="#231f20"/>
  <rect x="103.04" y="701.6" width="13.39" height="13.39" fill="#231f20"/>
  <rect x="60.92" y="701.6" width="13.39" height="13.39" fill="#231f20"/>
  <rect x="363.16" y="572.54" width="13.39" height="13.39" fill="#231f20"/>
  <rect x="491.58" y="701.6" width="13.39" height="13.39" fill="#231f20"/>
  <rect x="533.99" y="701.6" width="13.39" height="13.39" fill="#231f20"/>
  <rect x="449.16" y="658.5" width="13.39" height="13.39" fill="#231f20"/>
  <rect x="449.16" y="787.07" width="13.39" height="13.39" fill="#231f20"/>
  <rect x="318.38" y="788.09" width="13.39" height="13.39" fill="#231f20"/>
  <rect x="276.76" y="788.09" width="13.39" height="13.39" fill="#231f20"/>
  <rect x="273.6" y="744.7" width="13.39" height="13.39" fill="#231f20"/>
  <rect x="231.98" y="744.7" width="13.39" height="13.39" fill="#231f20"/>
  <rect x="189.86" y="744.7" width="13.39" height="13.39" fill="#231f20"/>
  <rect x="144.66" y="744.7" width="13.39" height="13.39" fill="#231f20"/>
  <rect x="103.04" y="744.7" width="13.39" height="13.39" fill="#231f20"/>
  <rect x="60.92" y="744.7" width="13.39" height="13.39" fill="#231f20"/>
  <rect x="59.43" y="788.31" width="13.39" height="13.39" fill="#231f20"/>
  <rect x="59.43" y="830.35" width="13.39" height="13.39" fill="#231f20"/>
  <rect x="59.43" y="875.38" width="13.39" height="13.39" fill="#231f20"/>
  <rect x="59.43" y="917.68" width="13.39" height="13.39" fill="#231f20"/>
  <rect x="60.92" y="960.78" width="13.39" height="13.39" fill="#231f20"/>
  <rect x="60.92" y="1003.88" width="13.39" height="13.39" fill="#231f20"/>
  <rect x="103.04" y="1003.88" width="13.39" height="13.39" fill="#231f20"/>
  <rect x="145.17" y="1048.69" width="13.39" height="13.39" fill="#231f20"/>
  <rect x="187.29" y="1048.69" width="13.39" height="13.39" fill="#231f20"/>
  <rect x="187.29" y="1004.65" width="13.39" height="13.39" fill="#231f20"/>
  <rect x="234.55" y="1048.69" width="13.39" height="13.39" fill="#231f20"/>
  <rect x="276.67" y="1048.69" width="13.39" height="13.39" fill="#231f20"/>
  <rect x="318.38" y="1048.69" width="13.39" height="13.39" fill="#231f20"/>
  <rect x="60.92" y="1049.53" width="13.39" height="13.39" fill="#231f20"/>
  <rect x="491.84" y="1049.53" width="13.39" height="13.39" fill="#231f20"/>
  <rect x="578.5" y="787.07" width="13.39" height="13.39" fill="#231f20"/>
  <rect x="535.17" y="831.53" width="13.39" height="13.39" fill="#231f20"/>
  <rect x="621.97" y="356.14" width="13.39" height="13.39" fill="#231f20"/>
  <rect x="707.99" y="399.32" width="13.39" height="13.39" fill="#231f20"/>
</svg>