<?xml version="1.0" encoding="UTF-8"?>
<svg id="_12" data-name="12" xmlns="http://www.w3.org/2000/svg" viewBox="0 0 1080 1080">
  <rect x="303.44" y="910.46" width="40.84" height="40.84" fill="#231f20"/>
  <rect x="303.44" y="867.06" width="40.84" height="40.84" fill="#231f20"/>
  <rect x="260.38" y="910.46" width="40.84" height="40.84" fill="#231f20"/>
  <rect x="260.38" y="867.06" width="40.84" height="40.84" fill="#231f20"/>
  <rect x="346.5" y="910.46" width="40.84" height="40.84" fill="#231f20"/>
  <rect x="389.56" y="910.46" width="40.84" height="40.84" fill="#231f20"/>
  <rect x="346.5" y="867.06" width="40.84" height="40.84" fill="#231f20"/>
  <rect x="303.44" y="823.59" width="40.84" height="40.84" fill="#231f20"/>
  <rect x="260.38" y="823.59" width="40.84" height="40.84" fill="#231f20"/>
  <rect x="303.97" y="780.65" width="40.84" height="40.84" fill="#231f20"/>
  <rect x="260.91" y="780.65" width="40.84" height="40.84" fill="#231f20"/>
  <rect x="217.85" y="780.65" width="40.84" height="40.84" fill="#231f20"/>
  <rect x="303.44" y="737.75" width="40.84" height="40.84" fill="#231f20"/>
  <rect x="347.03" y="780.65" width="40.84" height="40.84" fill="#231f20"/>
  <rect x="346.5" y="737.75" width="40.84" height="40.84" fill="#231f20"/>
  <rect x="260.38" y="737.75" width="40.84" height="40.84" fill="#231f20"/>
  <rect x="217.32" y="737.75" width="40.84" height="40.84" fill="#231f20"/>
  <rect x="303.44" y="694.85" width="40.84" height="40.84" fill="#231f20"/>
  <rect x="346.5" y="694.85" width="40.84" height="40.84" fill="#231f20"/>
  <rect x="260.38" y="694.85" width="40.84" height="40.84" fill="#231f20"/>
  <rect x="217.32" y="694.85" width="40.84" height="40.84" fill="#231f20"/>
  <rect x="303.44" y="651.32" width="40.84" height="40.84" fill="#231f20"/>
  <rect x="346.5" y="651.32" width="40.84" height="40.84" fill="#231f20"/>
  <rect x="260.38" y="651.32" width="40.84" height="40.84" fill="#231f20"/>
  <rect x="217.32" y="651.32" width="40.84" height="40.84" fill="#231f20"/>
  <rect x="303.44" y="608.42" width="40.84" height="40.84" fill="#231f20"/>
  <rect x="260.38" y="608.42" width="40.84" height="40.84" fill="#231f20"/>
  <rect x="217.32" y="608.42" width="40.84" height="40.84" fill="#231f20"/>
  <rect x="303.44" y="564.89" width="40.84" height="40.84" fill="#231f20"/>
  <rect x="649.31" y="564.89" width="40.84" height="40.84" fill="#231f20"/>
  <rect x="649.31" y="607.79" width="40.84" height="40.84" fill="#231f20"/>
  <rect x="605.89" y="694.85" width="40.84" height="40.84" fill="#231f20"/>
  <rect x="562.9" y="694.85" width="40.84" height="40.84" fill="#231f20"/>
  <rect x="649.31" y="521.58" width="40.84" height="40.84" fill="#231f20"/>
  <rect x="260.38" y="564.89" width="40.84" height="40.84" fill="#231f20"/>
  <rect x="217.32" y="564.89" width="40.84" height="40.84" fill="#231f20"/>
  <rect x="303.44" y="521.36" width="40.84" height="40.84" fill="#231f20"/>
  <rect x="260.38" y="521.36" width="40.84" height="40.84" fill="#231f20"/>
  <rect x="217.32" y="521.36" width="40.84" height="40.84" fill="#231f20"/>
  <rect x="174.26" y="521.36" width="40.84" height="40.84" fill="#231f20"/>
  <rect x="303.44" y="477.83" width="40.84" height="40.84" fill="#231f20"/>
  <rect x="260.38" y="477.83" width="40.84" height="40.84" fill="#231f20"/>
  <rect x="217.32" y="477.83" width="40.84" height="40.84" fill="#231f20"/>
  <rect x="174.26" y="477.83" width="40.84" height="40.84" fill="#231f20"/>
  <rect x="303.44" y="435.08" width="40.84" height="40.84" fill="#231f20"/>
  <rect x="260.38" y="435.08" width="40.84" height="40.84" fill="#231f20"/>
  <rect x="217.32" y="435.08" width="40.84" height="40.84" fill="#231f20"/>
  <rect x="174.26" y="435.08" width="40.84" height="40.84" fill="#231f20"/>
  <rect x="303.44" y="392.34" width="40.84" height="40.84" fill="#231f20"/>
  <rect x="260.38" y="392.34" width="40.84" height="40.84" fill="#231f20"/>
  <rect x="217.32" y="392.34" width="40.84" height="40.84" fill="#231f20"/>
  <rect x="174.26" y="392.34" width="40.84" height="40.84" fill="#231f20"/>
  <rect x="303.44" y="349.6" width="40.84" height="40.84" fill="#231f20"/>
  <rect x="260.38" y="349.6" width="40.84" height="40.84" fill="#231f20"/>
  <rect x="217.32" y="349.6" width="40.84" height="40.84" fill="#231f20"/>
  <rect x="432.62" y="349.6" width="40.84" height="40.84" fill="#231f20"/>
  <rect x="563.09" y="305.45" width="40.84" height="40.84" fill="#231f20"/>
  <rect x="389.56" y="349.6" width="40.84" height="40.84" fill="#231f20"/>
  <rect x="346.5" y="349.6" width="40.84" height="40.84" fill="#231f20"/>
  <rect x="174.26" y="349.6" width="40.84" height="40.84" fill="#231f20"/>
  <rect x="303.44" y="305.45" width="40.84" height="40.84" fill="#231f20"/>
  <rect x="260.38" y="305.45" width="40.84" height="40.84" fill="#231f20"/>
  <rect x="217.32" y="305.45" width="40.84" height="40.84" fill="#231f20"/>
  <rect x="389.56" y="305.45" width="40.84" height="40.84" fill="#231f20"/>
  <rect x="346.5" y="305.45" width="40.84" height="40.84" fill="#231f20"/>
  <rect x="174.26" y="305.45" width="40.84" height="40.84" fill="#231f20"/>
  <rect x="303.44" y="262.41" width="40.84" height="40.84" fill="#231f20"/>
  <rect x="260.38" y="262.41" width="40.84" height="40.84" fill="#231f20"/>
  <rect x="217.32" y="262.41" width="40.84" height="40.84" fill="#231f20"/>
  <rect x="346.5" y="262.41" width="40.84" height="40.84" fill="#231f20"/>
  <rect x="174.26" y="262.41" width="40.84" height="40.84" fill="#231f20"/>
  <rect x="260.38" y="219.36" width="40.84" height="40.84" fill="#231f20"/>
  <rect x="217.32" y="219.36" width="40.84" height="40.84" fill="#231f20"/>
  <rect x="174.26" y="219.36" width="40.84" height="40.84" fill="#231f20"/>
  <rect x="260.38" y="176.32" width="40.84" height="40.84" fill="#231f20"/>
  <rect x="217.32" y="176.32" width="40.84" height="40.84" fill="#231f20"/>
  <rect x="260.38" y="133.28" width="40.84" height="40.84" fill="#231f20"/>
  <rect x="303.44" y="90.23" width="40.84" height="40.84" fill="#231f20"/>
  <rect x="303.44" y="47.19" width="40.84" height="40.84" fill="#231f20"/>
  <rect x="260.38" y="47.19" width="40.84" height="40.84" fill="#231f20"/>
  <rect x="260.38" y="3.33" width="40.84" height="40.84" fill="#231f20"/>
  <rect x="260.38" y="90.23" width="40.84" height="40.84" fill="#231f20"/>
  <rect x="217.32" y="90.23" width="40.84" height="40.84" fill="#231f20"/>
  <rect x="217.32" y="133.28" width="40.84" height="40.84" fill="#231f20"/>
  <rect x="174.26" y="133.28" width="40.84" height="40.84" fill="#231f20"/>
  <rect x="174.26" y="176.32" width="40.84" height="40.84" fill="#231f20"/>
  <rect x="346.5" y="823.59" width="40.84" height="40.84" fill="#231f20"/>
  <rect x="317.16" y="1052.59" width="13.39" height="13.39" fill="#231f20"/>
  <rect x="360.22" y="1052.59" width="13.39" height="13.39" fill="#231f20"/>
  <rect x="360.22" y="1009.39" width="13.39" height="13.39" fill="#231f20"/>
  <rect x="360.22" y="966.18" width="13.39" height="13.39" fill="#231f20"/>
  <rect x="317.16" y="966.18" width="13.39" height="13.39" fill="#231f20"/>
  <rect x="274.1" y="1009.39" width="13.39" height="13.39" fill="#231f20"/>
  <rect x="274.1" y="966.18" width="13.39" height="13.39" fill="#231f20"/>
  <rect x="231.57" y="880.91" width="13.39" height="13.39" fill="#231f20"/>
  <rect x="231.57" y="837.7" width="13.39" height="13.39" fill="#231f20"/>
  <rect x="274.1" y="1052.59" width="13.39" height="13.39" fill="#231f20"/>
  <rect x="403.28" y="1009.39" width="13.39" height="13.39" fill="#231f20"/>
  <rect x="403.28" y="966.18" width="13.39" height="13.39" fill="#231f20"/>
  <rect x="447.1" y="922.98" width="13.39" height="13.39" fill="#231f20"/>
  <rect x="490.16" y="922.98" width="13.39" height="13.39" fill="#231f20"/>
  <rect x="447.1" y="967.46" width="13.39" height="13.39" fill="#231f20"/>
  <rect x="490.16" y="967.46" width="13.39" height="13.39" fill="#231f20"/>
  <rect x="533.43" y="922.98" width="13.39" height="13.39" fill="#231f20"/>
  <rect x="447.1" y="880.91" width="13.39" height="13.39" fill="#231f20"/>
  <rect x="403.28" y="880.91" width="13.39" height="13.39" fill="#231f20"/>
  <rect x="490.16" y="880.91" width="13.39" height="13.39" fill="#231f20"/>
  <rect x="447.1" y="708.57" width="13.39" height="13.39" fill="#231f20"/>
  <rect x="403.28" y="708.57" width="13.39" height="13.39" fill="#231f20"/>
  <rect x="447.1" y="751.47" width="13.39" height="13.39" fill="#231f20"/>
  <rect x="533.22" y="751.47" width="13.39" height="13.39" fill="#231f20"/>
  <rect x="403.28" y="751.47" width="13.39" height="13.39" fill="#231f20"/>
  <rect x="447.1" y="794.37" width="13.39" height="13.39" fill="#231f20"/>
  <rect x="534.66" y="795.44" width="13.39" height="13.39" fill="#231f20"/>
  <rect x="534.66" y="838.34" width="13.39" height="13.39" fill="#231f20"/>
  <rect x="620.01" y="794.66" width="13.39" height="13.39" fill="#231f20"/>
  <rect x="620.01" y="751.47" width="13.39" height="13.39" fill="#231f20"/>
  <rect x="707.81" y="751.47" width="13.39" height="13.39" fill="#231f20"/>
  <rect x="664.49" y="751.47" width="13.39" height="13.39" fill="#231f20"/>
  <rect x="620.01" y="837.56" width="13.39" height="13.39" fill="#231f20"/>
  <rect x="619.62" y="880.08" width="13.39" height="13.39" fill="#231f20"/>
  <rect x="619.62" y="922.98" width="13.39" height="13.39" fill="#231f20"/>
  <rect x="576.62" y="880.08" width="13.39" height="13.39" fill="#231f20"/>
  <rect x="576.62" y="922.98" width="13.39" height="13.39" fill="#231f20"/>
  <rect x="576.62" y="967.46" width="13.39" height="13.39" fill="#231f20"/>
  <rect x="576.62" y="1010.36" width="13.39" height="13.39" fill="#231f20"/>
  <rect x="576.62" y="1052.59" width="13.39" height="13.39" fill="#231f20"/>
  <rect x="533.43" y="1052.59" width="13.39" height="13.39" fill="#231f20"/>
  <rect x="663.4" y="967.46" width="13.39" height="13.39" fill="#231f20"/>
  <rect x="663.4" y="1010.36" width="13.39" height="13.39" fill="#231f20"/>
  <rect x="663.4" y="1052.59" width="13.39" height="13.39" fill="#231f20"/>
  <rect x="619.62" y="1010.36" width="13.39" height="13.39" fill="#231f20"/>
  <rect x="403.28" y="794.37" width="13.39" height="13.39" fill="#231f20"/>
  <rect x="663.03" y="708.57" width="13.39" height="13.39" fill="#231f20"/>
  <rect x="663.03" y="665.04" width="13.39" height="13.39" fill="#231f20"/>
  <rect x="707.81" y="708.57" width="13.39" height="13.39" fill="#231f20"/>
  <rect x="707.81" y="665.04" width="13.39" height="13.39" fill="#231f20"/>
  <rect x="750.49" y="751.47" width="13.39" height="13.39" fill="#231f20"/>
  <rect x="750.49" y="708.57" width="13.39" height="13.39" fill="#231f20"/>
  <rect x="793.28" y="751.47" width="13.39" height="13.39" fill="#231f20"/>
  <rect x="793.28" y="794.37" width="13.39" height="13.39" fill="#231f20"/>
  <rect x="793.28" y="838.84" width="13.39" height="13.39" fill="#231f20"/>
  <rect x="750.49" y="794.37" width="13.39" height="13.39" fill="#231f20"/>
  <rect x="750.49" y="838.84" width="13.39" height="13.39" fill="#231f20"/>
  <rect x="881.07" y="751.47" width="13.39" height="13.39" fill="#231f20"/>
  <rect x="881.07" y="794.37" width="13.39" height="13.39" fill="#231f20"/>
  <rect x="881.07" y="838.84" width="13.39" height="13.39" fill="#231f20"/>
  <rect x="922.06" y="751.47" width="13.39" height="13.39" fill="#231f20"/>
  <rect x="881.07" y="708.57" width="13.39" height="13.39" fill="#231f20"/>
  <rect x="922.06" y="708.57" width="13.39" height="13.39" fill="#231f20"/>
  <rect x="922.06" y="794.37" width="13.39" height="13.39" fill="#231f20"/>
  <rect x="922.06" y="838.84" width="13.39" height="13.39" fill="#231f20"/>
  <rect x="922.06" y="923.47" width="13.39" height="13.39" fill="#231f20"/>
  <rect x="922.06" y="880.57" width="13.39" height="13.39" fill="#231f20"/>
  <rect x="922.06" y="490.95" width="13.39" height="13.39" fill="#231f20"/>
  <rect x="922.06" y="448.05" width="13.39" height="13.39" fill="#231f20"/>
  <rect x="922.06" y="533.85" width="13.39" height="13.39" fill="#231f20"/>
  <rect x="922.06" y="578.32" width="13.39" height="13.39" fill="#231f20"/>
  <rect x="922.06" y="662.95" width="13.39" height="13.39" fill="#231f20"/>
  <rect x="922.06" y="620.05" width="13.39" height="13.39" fill="#231f20"/>
  <rect x="922.06" y="275.63" width="13.39" height="13.39" fill="#231f20"/>
  <rect x="922.06" y="232.73" width="13.39" height="13.39" fill="#231f20"/>
  <rect x="922.06" y="318.53" width="13.39" height="13.39" fill="#231f20"/>
  <rect x="922.06" y="363" width="13.39" height="13.39" fill="#231f20"/>
  <rect x="922.06" y="404.74" width="13.39" height="13.39" fill="#231f20"/>
  <rect x="922.06" y="60.62" width="13.39" height="13.39" fill="#231f20"/>
  <rect x="922.06" y="17.72" width="13.39" height="13.39" fill="#231f20"/>
  <rect x="922.06" y="103.52" width="13.39" height="13.39" fill="#231f20"/>
  <rect x="922.06" y="147.99" width="13.39" height="13.39" fill="#231f20"/>
  <rect x="922.06" y="189.72" width="13.39" height="13.39" fill="#231f20"/>
  <rect x="1052.65" y="60.62" width="13.39" height="13.39" fill="#231f20"/>
  <rect x="1052.65" y="17.72" width="13.39" height="13.39" fill="#231f20"/>
  <rect x="1052.65" y="103.52" width="13.39" height="13.39" fill="#231f20"/>
  <rect x="1052.65" y="147.99" width="13.39" height="13.39" fill="#231f20"/>
  <rect x="1052.65" y="189.72" width="13.39" height="13.39" fill="#231f20"/>
  <rect x="967.04" y="60.73" width="13.39" height="13.39" fill="#231f20"/>
  <rect x="967.04" y="17.83" width="13.39" height="13.39" fill="#231f20"/>
  <rect x="967.04" y="103.63" width="13.39" height="13.39" fill="#231f20"/>
  <rect x="967.04" y="148.1" width="13.39" height="13.39" fill="#231f20"/>
  <rect x="967.04" y="189.83" width="13.39" height="13.39" fill="#231f20"/>
  <rect x="1052.65" y="276.15" width="13.39" height="13.39" fill="#231f20"/>
  <rect x="1052.65" y="233.25" width="13.39" height="13.39" fill="#231f20"/>
  <rect x="1052.65" y="319.05" width="13.39" height="13.39" fill="#231f20"/>
  <rect x="1052.65" y="363.51" width="13.39" height="13.39" fill="#231f20"/>
  <rect x="1052.65" y="405.25" width="13.39" height="13.39" fill="#231f20"/>
  <rect x="1052.65" y="492.21" width="13.39" height="13.39" fill="#231f20"/>
  <rect x="1052.65" y="449.3" width="13.39" height="13.39" fill="#231f20"/>
  <rect x="1052.65" y="535.11" width="13.39" height="13.39" fill="#231f20"/>
  <rect x="1052.65" y="579.57" width="13.39" height="13.39" fill="#231f20"/>
  <rect x="1052.65" y="621.31" width="13.39" height="13.39" fill="#231f20"/>
  <rect x="1052.65" y="667.28" width="13.39" height="13.39" fill="#231f20"/>
  <rect x="1052.65" y="709.02" width="13.39" height="13.39" fill="#231f20"/>
  <rect x="922.06" y="966.38" width="13.39" height="13.39" fill="#231f20"/>
  <rect x="922.06" y="1010.84" width="13.39" height="13.39" fill="#231f20"/>
  <rect x="922.06" y="1052.59" width="13.39" height="13.39" fill="#231f20"/>
  <rect x="1009.12" y="751.47" width="13.39" height="13.39" fill="#231f20"/>
  <rect x="1009.12" y="794.37" width="13.39" height="13.39" fill="#231f20"/>
  <rect x="1050.85" y="794.37" width="13.39" height="13.39" fill="#231f20"/>
  <rect x="1009.12" y="838.84" width="13.39" height="13.39" fill="#231f20"/>
  <rect x="1009.12" y="880.57" width="13.39" height="13.39" fill="#231f20"/>
  <rect x="1050.85" y="1011.24" width="13.39" height="13.39" fill="#231f20"/>
  <rect x="1050.85" y="1052.98" width="13.39" height="13.39" fill="#231f20"/>
  <rect x="750.49" y="880.91" width="13.39" height="13.39" fill="#231f20"/>
  <rect x="793.28" y="880.91" width="13.39" height="13.39" fill="#231f20"/>
  <rect x="750.49" y="922.98" width="13.39" height="13.39" fill="#231f20"/>
  <rect x="793.28" y="922.98" width="13.39" height="13.39" fill="#231f20"/>
  <rect x="835.01" y="922.98" width="13.39" height="13.39" fill="#231f20"/>
  <rect x="835.01" y="967.46" width="13.39" height="13.39" fill="#231f20"/>
  <rect x="708.97" y="922.98" width="13.39" height="13.39" fill="#231f20"/>
  <rect x="708.97" y="880.91" width="13.39" height="13.39" fill="#231f20"/>
  <rect x="793.28" y="708.57" width="13.39" height="13.39" fill="#231f20"/>
  <rect x="793.28" y="577.87" width="13.39" height="13.39" fill="#231f20"/>
  <rect x="793.28" y="620.78" width="13.39" height="13.39" fill="#231f20"/>
  <rect x="793.28" y="665.24" width="13.39" height="13.39" fill="#231f20"/>
  <rect x="793.28" y="534.97" width="13.39" height="13.39" fill="#231f20"/>
  <rect x="793.28" y="492.33" width="13.39" height="13.39" fill="#231f20"/>
  <rect x="793.28" y="361.64" width="13.39" height="13.39" fill="#231f20"/>
  <rect x="793.28" y="404.54" width="13.39" height="13.39" fill="#231f20"/>
  <rect x="793.28" y="449" width="13.39" height="13.39" fill="#231f20"/>
  <rect x="793.28" y="318.73" width="13.39" height="13.39" fill="#231f20"/>
  <rect x="793.28" y="276.84" width="13.39" height="13.39" fill="#231f20"/>
  <rect x="793.28" y="146.15" width="13.39" height="13.39" fill="#231f20"/>
  <rect x="793.28" y="189.05" width="13.39" height="13.39" fill="#231f20"/>
  <rect x="793.28" y="233.51" width="13.39" height="13.39" fill="#231f20"/>
  <rect x="793.28" y="103.25" width="13.39" height="13.39" fill="#231f20"/>
  <rect x="663.03" y="361.64" width="13.39" height="13.39" fill="#231f20"/>
  <rect x="663.03" y="404.54" width="13.39" height="13.39" fill="#231f20"/>
  <rect x="663.03" y="318.73" width="13.39" height="13.39" fill="#231f20"/>
  <rect x="663.03" y="276.84" width="13.39" height="13.39" fill="#231f20"/>
  <rect x="663.03" y="146.15" width="13.39" height="13.39" fill="#231f20"/>
  <rect x="663.03" y="189.05" width="13.39" height="13.39" fill="#231f20"/>
  <rect x="620.01" y="146.15" width="13.39" height="13.39" fill="#231f20"/>
  <rect x="620.01" y="189.05" width="13.39" height="13.39" fill="#231f20"/>
  <rect x="663.03" y="233.51" width="13.39" height="13.39" fill="#231f20"/>
  <rect x="619.51" y="361.64" width="13.39" height="13.39" fill="#231f20"/>
  <rect x="578.85" y="361.64" width="13.39" height="13.39" fill="#231f20"/>
  <rect x="619.51" y="318.73" width="13.39" height="13.39" fill="#231f20"/>
  <rect x="619.51" y="276.84" width="13.39" height="13.39" fill="#231f20"/>
  <rect x="619.51" y="233.51" width="13.39" height="13.39" fill="#231f20"/>
  <rect x="534.91" y="146.15" width="13.39" height="13.39" fill="#231f20"/>
  <rect x="534.91" y="189.05" width="13.39" height="13.39" fill="#231f20"/>
  <rect x="534.41" y="361.64" width="13.39" height="13.39" fill="#231f20"/>
  <rect x="491.16" y="404.54" width="13.39" height="13.39" fill="#231f20"/>
  <rect x="578.85" y="404.54" width="13.39" height="13.39" fill="#231f20"/>
  <rect x="534.41" y="404.54" width="13.39" height="13.39" fill="#231f20"/>
  <rect x="359.44" y="404.54" width="13.39" height="13.39" fill="#231f20"/>
  <rect x="447.13" y="404.54" width="13.39" height="13.39" fill="#231f20"/>
  <rect x="491.16" y="448.81" width="13.39" height="13.39" fill="#231f20"/>
  <rect x="534.41" y="448.81" width="13.39" height="13.39" fill="#231f20"/>
  <rect x="447.13" y="448.81" width="13.39" height="13.39" fill="#231f20"/>
  <rect x="491.16" y="491.55" width="13.39" height="13.39" fill="#231f20"/>
  <rect x="447.13" y="491.55" width="13.39" height="13.39" fill="#231f20"/>
  <rect x="359.44" y="448.81" width="13.39" height="13.39" fill="#231f20"/>
  <rect x="359.44" y="491.55" width="13.39" height="13.39" fill="#231f20"/>
  <rect x="359.44" y="535.1" width="13.39" height="13.39" fill="#231f20"/>
  <rect x="359.44" y="579.37" width="13.39" height="13.39" fill="#231f20"/>
  <rect x="402.69" y="491.55" width="13.39" height="13.39" fill="#231f20"/>
  <rect x="402.69" y="535.1" width="13.39" height="13.39" fill="#231f20"/>
  <rect x="402.69" y="579.37" width="13.39" height="13.39" fill="#231f20"/>
  <rect x="359.44" y="622.12" width="13.39" height="13.39" fill="#231f20"/>
  <rect x="187.98" y="577.72" width="13.39" height="13.39" fill="#231f20"/>
  <rect x="187.98" y="621.99" width="13.39" height="13.39" fill="#231f20"/>
  <rect x="187.98" y="664.73" width="13.39" height="13.39" fill="#231f20"/>
  <rect x="187.98" y="708.28" width="13.39" height="13.39" fill="#231f20"/>
  <rect x="15.15" y="577.72" width="13.39" height="13.39" fill="#231f20"/>
  <rect x="15.15" y="621.99" width="13.39" height="13.39" fill="#231f20"/>
  <rect x="15.15" y="664.73" width="13.39" height="13.39" fill="#231f20"/>
  <rect x="15.15" y="708.28" width="13.39" height="13.39" fill="#231f20"/>
  <rect x="15.15" y="751.62" width="13.39" height="13.39" fill="#231f20"/>
  <rect x="15.15" y="795.89" width="13.39" height="13.39" fill="#231f20"/>
  <rect x="15.15" y="838.64" width="13.39" height="13.39" fill="#231f20"/>
  <rect x="15.15" y="882.19" width="13.39" height="13.39" fill="#231f20"/>
  <rect x="15.15" y="922.02" width="13.39" height="13.39" fill="#231f20"/>
  <rect x="15.15" y="966.29" width="13.39" height="13.39" fill="#231f20"/>
  <rect x="15.15" y="1009.04" width="13.39" height="13.39" fill="#231f20"/>
  <rect x="15.15" y="1052.59" width="13.39" height="13.39" fill="#231f20"/>
  <rect x="144.63" y="923.62" width="13.39" height="13.39" fill="#231f20"/>
  <rect x="144.63" y="967.89" width="13.39" height="13.39" fill="#231f20"/>
  <rect x="144.63" y="1010.64" width="13.39" height="13.39" fill="#231f20"/>
  <rect x="144.63" y="1054.19" width="13.39" height="13.39" fill="#231f20"/>
  <rect x="144.63" y="749.51" width="13.39" height="13.39" fill="#231f20"/>
  <rect x="144.63" y="793.78" width="13.39" height="13.39" fill="#231f20"/>
  <rect x="144.63" y="836.52" width="13.39" height="13.39" fill="#231f20"/>
  <rect x="144.63" y="880.08" width="13.39" height="13.39" fill="#231f20"/>
  <rect x="101.57" y="620.18" width="13.39" height="13.39" fill="#231f20"/>
  <rect x="101.57" y="664.45" width="13.39" height="13.39" fill="#231f20"/>
  <rect x="101.57" y="707.19" width="13.39" height="13.39" fill="#231f20"/>
  <rect x="101.57" y="750.75" width="13.39" height="13.39" fill="#231f20"/>
  <rect x="15.15" y="405.85" width="13.39" height="13.39" fill="#231f20"/>
  <rect x="15.15" y="450.12" width="13.39" height="13.39" fill="#231f20"/>
  <rect x="15.15" y="318.77" width="13.39" height="13.39" fill="#231f20"/>
  <rect x="15.15" y="363.04" width="13.39" height="13.39" fill="#231f20"/>
  <rect x="60.25" y="405.85" width="13.39" height="13.39" fill="#231f20"/>
  <rect x="60.25" y="318.77" width="13.39" height="13.39" fill="#231f20"/>
  <rect x="60.25" y="363.04" width="13.39" height="13.39" fill="#231f20"/>
  <rect x="143.5" y="233.58" width="13.39" height="13.39" fill="#231f20"/>
  <rect x="143.5" y="146.51" width="13.39" height="13.39" fill="#231f20"/>
  <rect x="143.5" y="190.78" width="13.39" height="13.39" fill="#231f20"/>
  <rect x="187.98" y="104.45" width="13.39" height="13.39" fill="#231f20"/>
  <rect x="187.98" y="17.38" width="13.39" height="13.39" fill="#231f20"/>
  <rect x="187.98" y="61.65" width="13.39" height="13.39" fill="#231f20"/>
  <rect x="231.04" y="17.38" width="13.39" height="13.39" fill="#231f20"/>
  <rect x="316.91" y="17.38" width="13.39" height="13.39" fill="#231f20"/>
  <rect x="361.61" y="17.38" width="13.39" height="13.39" fill="#231f20"/>
  <rect x="403.03" y="17.83" width="13.39" height="13.39" fill="#231f20"/>
  <rect x="450.18" y="17.83" width="13.39" height="13.39" fill="#231f20"/>
  <rect x="231.04" y="61.65" width="13.39" height="13.39" fill="#231f20"/>
  <rect x="143.5" y="362.31" width="13.39" height="13.39" fill="#231f20"/>
  <rect x="143.5" y="275.23" width="13.39" height="13.39" fill="#231f20"/>
  <rect x="143.5" y="319.5" width="13.39" height="13.39" fill="#231f20"/>
  <rect x="15.15" y="492.86" width="13.39" height="13.39" fill="#231f20"/>
  <rect x="15.15" y="536.41" width="13.39" height="13.39" fill="#231f20"/>
  <rect x="187.98" y="795.3" width="13.39" height="13.39" fill="#231f20"/>
  <rect x="402.69" y="404.54" width="13.39" height="13.39" fill="#231f20"/>
  <rect x="534.41" y="318.73" width="13.39" height="13.39" fill="#231f20"/>
  <rect x="534.41" y="276.84" width="13.39" height="13.39" fill="#231f20"/>
  <rect x="576.81" y="276.84" width="13.39" height="13.39" fill="#231f20"/>
  <rect x="534.41" y="233.51" width="13.39" height="13.39" fill="#231f20"/>
  <rect x="491.41" y="146.15" width="13.39" height="13.39" fill="#231f20"/>
  <rect x="491.41" y="189.05" width="13.39" height="13.39" fill="#231f20"/>
  <rect x="490.91" y="361.64" width="13.39" height="13.39" fill="#231f20"/>
  <rect x="490.91" y="318.73" width="13.39" height="13.39" fill="#231f20"/>
  <rect x="490.91" y="276.84" width="13.39" height="13.39" fill="#231f20"/>
  <rect x="490.91" y="233.51" width="13.39" height="13.39" fill="#231f20"/>
  <rect x="447.15" y="146.71" width="13.39" height="13.39" fill="#231f20"/>
  <rect x="447.15" y="189.61" width="13.39" height="13.39" fill="#231f20"/>
  <rect x="446.65" y="319.29" width="13.39" height="13.39" fill="#231f20"/>
  <rect x="446.65" y="277.4" width="13.39" height="13.39" fill="#231f20"/>
  <rect x="446.65" y="234.07" width="13.39" height="13.39" fill="#231f20"/>
  <rect x="403.53" y="146.71" width="13.39" height="13.39" fill="#231f20"/>
  <rect x="403.53" y="189.61" width="13.39" height="13.39" fill="#231f20"/>
  <rect x="403.03" y="277.4" width="13.39" height="13.39" fill="#231f20"/>
  <rect x="403.03" y="234.07" width="13.39" height="13.39" fill="#231f20"/>
  <rect x="359.69" y="146.71" width="13.39" height="13.39" fill="#231f20"/>
  <rect x="359.69" y="189.61" width="13.39" height="13.39" fill="#231f20"/>
  <rect x="359.19" y="234.07" width="13.39" height="13.39" fill="#231f20"/>
  <rect x="317.41" y="146.71" width="13.39" height="13.39" fill="#231f20"/>
  <rect x="317.41" y="189.61" width="13.39" height="13.39" fill="#231f20"/>
  <rect x="316.91" y="234.07" width="13.39" height="13.39" fill="#231f20"/>
  <rect x="663.03" y="103.25" width="13.39" height="13.39" fill="#231f20"/>
  <rect x="708.96" y="59.96" width="13.39" height="13.39" fill="#231f20"/>
  <rect x="708.96" y="17.06" width="13.39" height="13.39" fill="#231f20"/>
  <rect x="663.45" y="17.06" width="13.39" height="13.39" fill="#231f20"/>
  <rect x="793.28" y="59.96" width="13.39" height="13.39" fill="#231f20"/>
  <rect x="793.28" y="17.06" width="13.39" height="13.39" fill="#231f20"/>
  <rect x="574.07" y="665.04" width="13.39" height="13.39" fill="#231f20"/>
  <rect x="534.66" y="665.04" width="13.39" height="13.39" fill="#231f20"/>
  <rect x="620.01" y="665.04" width="13.39" height="13.39" fill="#231f20"/>
  <rect x="708.97" y="622.14" width="13.39" height="13.39" fill="#231f20"/>
  <rect x="708.97" y="578.61" width="13.39" height="13.39" fill="#231f20"/>
  <rect x="708.97" y="535.31" width="13.39" height="13.39" fill="#231f20"/>
  <rect x="619.51" y="535.2" width="13.39" height="13.39" fill="#231f20"/>
  <rect x="576.31" y="535.2" width="13.39" height="13.39" fill="#231f20"/>
  <rect x="619.51" y="491.55" width="13.39" height="13.39" fill="#231f20"/>
  <rect x="619.51" y="621.93" width="13.39" height="13.39" fill="#231f20"/>
  <rect x="619.51" y="578.28" width="13.39" height="13.39" fill="#231f20"/>
  <rect x="663.03" y="491.55" width="13.39" height="13.39" fill="#231f20"/>
  <rect x="663.03" y="448.81" width="13.39" height="13.39" fill="#231f20"/>
  <rect x="576.31" y="491.55" width="13.39" height="13.39" fill="#231f20"/>
  <rect x="534.66" y="708.57" width="13.39" height="13.39" fill="#231f20"/>
  <rect x="403.28" y="1052.59" width="13.39" height="13.39" fill="#231f20"/>
</svg>