<?xml version="1.0" encoding="UTF-8"?>
<svg id="_13" data-name="13" xmlns="http://www.w3.org/2000/svg" viewBox="0 0 1080 1080">
  <rect x="349.77" y="821.63" width="40.84" height="40.84" fill="#231f20"/>
  <rect x="349.45" y="864.78" width="40.84" height="40.84" fill="#231f20"/>
  <rect x="393.04" y="821.63" width="40.84" height="40.84" fill="#231f20"/>
  <rect x="392.73" y="864.78" width="40.84" height="40.84" fill="#231f20"/>
  <rect x="436.63" y="821.63" width="40.84" height="40.84" fill="#231f20"/>
  <rect x="436.31" y="864.78" width="40.84" height="40.84" fill="#231f20"/>
  <rect x="479.9" y="821.63" width="40.84" height="40.84" fill="#231f20"/>
  <rect x="479.59" y="864.78" width="40.84" height="40.84" fill="#231f20"/>
  <rect x="522.72" y="821.63" width="40.84" height="40.84" fill="#231f20"/>
  <rect x="522.4" y="864.78" width="40.84" height="40.84" fill="#231f20"/>
  <rect x="565.88" y="821.63" width="40.84" height="40.84" fill="#231f20"/>
  <rect x="565.57" y="864.78" width="40.84" height="40.84" fill="#231f20"/>
  <rect x="349.45" y="907.93" width="40.84" height="40.84" fill="#231f20"/>
  <rect x="392.73" y="907.93" width="40.84" height="40.84" fill="#231f20"/>
  <rect x="436.31" y="907.93" width="40.84" height="40.84" fill="#231f20"/>
  <rect x="479.59" y="907.93" width="40.84" height="40.84" fill="#231f20"/>
  <rect x="522.4" y="907.93" width="40.84" height="40.84" fill="#231f20"/>
  <rect x="565.57" y="907.93" width="40.84" height="40.84" fill="#231f20"/>
  <rect x="392.73" y="951.71" width="40.84" height="40.84" fill="#231f20"/>
  <rect x="349.77" y="951.71" width="40.84" height="40.84" fill="#231f20"/>
  <rect x="436.31" y="951.71" width="40.84" height="40.84" fill="#231f20"/>
  <rect x="479.59" y="951.71" width="40.84" height="40.84" fill="#231f20"/>
  <rect x="522.4" y="951.71" width="40.84" height="40.84" fill="#231f20"/>
  <rect x="565.57" y="951.71" width="40.84" height="40.84" fill="#231f20"/>
  <rect x="392.73" y="994.54" width="40.84" height="40.84" fill="#231f20"/>
  <rect x="436.31" y="994.54" width="40.84" height="40.84" fill="#231f20"/>
  <rect x="479.59" y="994.54" width="40.84" height="40.84" fill="#231f20"/>
  <rect x="522.4" y="994.54" width="40.84" height="40.84" fill="#231f20"/>
  <rect x="392.73" y="1037.72" width="40.84" height="40.84" fill="#231f20"/>
  <rect x="522.4" y="1036.83" width="40.84" height="40.84" fill="#231f20"/>
  <rect x="565.57" y="994.54" width="40.84" height="40.84" fill="#231f20"/>
  <rect x="565.57" y="1036.83" width="40.84" height="40.84" fill="#231f20"/>
  <rect x="609.16" y="821.63" width="40.84" height="40.84" fill="#231f20"/>
  <rect x="349.37" y="778.91" width="40.84" height="40.84" fill="#231f20"/>
  <rect x="392.64" y="778.91" width="40.84" height="40.84" fill="#231f20"/>
  <rect x="436.23" y="778.91" width="40.84" height="40.84" fill="#231f20"/>
  <rect x="479.5" y="778.91" width="40.84" height="40.84" fill="#231f20"/>
  <rect x="522.32" y="778.91" width="40.84" height="40.84" fill="#231f20"/>
  <rect x="565.48" y="778.91" width="40.84" height="40.84" fill="#231f20"/>
  <rect x="608.76" y="778.91" width="40.84" height="40.84" fill="#231f20"/>
  <rect x="349.37" y="736.18" width="40.84" height="40.84" fill="#231f20"/>
  <rect x="392.64" y="736.18" width="40.84" height="40.84" fill="#231f20"/>
  <rect x="436.23" y="736.18" width="40.84" height="40.84" fill="#231f20"/>
  <rect x="479.5" y="736.18" width="40.84" height="40.84" fill="#231f20"/>
  <rect x="522.32" y="736.18" width="40.84" height="40.84" fill="#231f20"/>
  <rect x="565.48" y="736.18" width="40.84" height="40.84" fill="#231f20"/>
  <rect x="608.76" y="736.18" width="40.84" height="40.84" fill="#231f20"/>
  <rect x="652.43" y="736.18" width="40.84" height="40.84" fill="#231f20"/>
  <rect x="349.37" y="692.2" width="40.84" height="40.84" fill="#231f20"/>
  <rect x="392.64" y="692.2" width="40.84" height="40.84" fill="#231f20"/>
  <rect x="436.23" y="692.2" width="40.84" height="40.84" fill="#231f20"/>
  <rect x="479.5" y="692.2" width="40.84" height="40.84" fill="#231f20"/>
  <rect x="522.32" y="692.2" width="40.84" height="40.84" fill="#231f20"/>
  <rect x="565.48" y="692.2" width="40.84" height="40.84" fill="#231f20"/>
  <rect x="608.76" y="692.2" width="40.84" height="40.84" fill="#231f20"/>
  <rect x="652.43" y="692.2" width="40.84" height="40.84" fill="#231f20"/>
  <rect x="349.37" y="648.21" width="40.84" height="40.84" fill="#231f20"/>
  <rect x="392.64" y="648.21" width="40.84" height="40.84" fill="#231f20"/>
  <rect x="436.23" y="648.21" width="40.84" height="40.84" fill="#231f20"/>
  <rect x="479.5" y="648.21" width="40.84" height="40.84" fill="#231f20"/>
  <rect x="522.32" y="648.21" width="40.84" height="40.84" fill="#231f20"/>
  <rect x="565.48" y="648.21" width="40.84" height="40.84" fill="#231f20"/>
  <rect x="608.76" y="648.21" width="40.84" height="40.84" fill="#231f20"/>
  <rect x="652.43" y="648.21" width="40.84" height="40.84" fill="#231f20"/>
  <rect x="696.1" y="648.21" width="40.84" height="40.84" fill="#231f20"/>
  <rect x="349.37" y="605.48" width="40.84" height="40.84" fill="#231f20"/>
  <rect x="392.64" y="605.48" width="40.84" height="40.84" fill="#231f20"/>
  <rect x="436.23" y="605.48" width="40.84" height="40.84" fill="#231f20"/>
  <rect x="479.5" y="605.48" width="40.84" height="40.84" fill="#231f20"/>
  <rect x="522.32" y="605.48" width="40.84" height="40.84" fill="#231f20"/>
  <rect x="565.48" y="605.48" width="40.84" height="40.84" fill="#231f20"/>
  <rect x="608.76" y="605.48" width="40.84" height="40.84" fill="#231f20"/>
  <rect x="652.43" y="605.48" width="40.84" height="40.84" fill="#231f20"/>
  <rect x="696.1" y="605.48" width="40.84" height="40.84" fill="#231f20"/>
  <rect x="349.37" y="562.74" width="40.84" height="40.84" fill="#231f20"/>
  <rect x="392.64" y="562.74" width="40.84" height="40.84" fill="#231f20"/>
  <rect x="436.23" y="562.74" width="40.84" height="40.84" fill="#231f20"/>
  <rect x="479.5" y="562.74" width="40.84" height="40.84" fill="#231f20"/>
  <rect x="522.32" y="562.74" width="40.84" height="40.84" fill="#231f20"/>
  <rect x="565.48" y="562.74" width="40.84" height="40.84" fill="#231f20"/>
  <rect x="608.76" y="562.74" width="40.84" height="40.84" fill="#231f20"/>
  <rect x="652.43" y="562.74" width="40.84" height="40.84" fill="#231f20"/>
  <rect x="696.1" y="562.74" width="40.84" height="40.84" fill="#231f20"/>
  <rect x="392.64" y="519.31" width="40.84" height="40.84" fill="#231f20"/>
  <rect x="436.23" y="519.31" width="40.84" height="40.84" fill="#231f20"/>
  <rect x="479.5" y="519.31" width="40.84" height="40.84" fill="#231f20"/>
  <rect x="522.32" y="519.31" width="40.84" height="40.84" fill="#231f20"/>
  <rect x="565.48" y="519.31" width="40.84" height="40.84" fill="#231f20"/>
  <rect x="608.76" y="519.31" width="40.84" height="40.84" fill="#231f20"/>
  <rect x="652.43" y="519.31" width="40.84" height="40.84" fill="#231f20"/>
  <rect x="696.1" y="519.31" width="40.84" height="40.84" fill="#231f20"/>
  <rect x="392.64" y="475.88" width="40.84" height="40.84" fill="#231f20"/>
  <rect x="436.23" y="475.88" width="40.84" height="40.84" fill="#231f20"/>
  <rect x="479.5" y="475.88" width="40.84" height="40.84" fill="#231f20"/>
  <rect x="522.32" y="475.88" width="40.84" height="40.84" fill="#231f20"/>
  <rect x="565.48" y="475.88" width="40.84" height="40.84" fill="#231f20"/>
  <rect x="608.76" y="475.88" width="40.84" height="40.84" fill="#231f20"/>
  <rect x="652.43" y="475.88" width="40.84" height="40.84" fill="#231f20"/>
  <rect x="696.1" y="475.88" width="40.84" height="40.84" fill="#231f20"/>
  <rect x="392.64" y="432.46" width="40.84" height="40.84" fill="#231f20"/>
  <rect x="436.23" y="432.46" width="40.84" height="40.84" fill="#231f20"/>
  <rect x="479.5" y="432.46" width="40.84" height="40.84" fill="#231f20"/>
  <rect x="522.32" y="432.46" width="40.84" height="40.84" fill="#231f20"/>
  <rect x="565.48" y="432.46" width="40.84" height="40.84" fill="#231f20"/>
  <rect x="608.76" y="432.46" width="40.84" height="40.84" fill="#231f20"/>
  <rect x="652.43" y="432.46" width="40.84" height="40.84" fill="#231f20"/>
  <rect x="696.1" y="432.46" width="40.84" height="40.84" fill="#231f20"/>
  <rect x="392.64" y="389.03" width="40.84" height="40.84" fill="#231f20"/>
  <rect x="436.23" y="389.03" width="40.84" height="40.84" fill="#231f20"/>
  <rect x="479.5" y="389.03" width="40.84" height="40.84" fill="#231f20"/>
  <rect x="522.32" y="389.03" width="40.84" height="40.84" fill="#231f20"/>
  <rect x="565.48" y="389.03" width="40.84" height="40.84" fill="#231f20"/>
  <rect x="608.76" y="389.03" width="40.84" height="40.84" fill="#231f20"/>
  <rect x="652.43" y="389.03" width="40.84" height="40.84" fill="#231f20"/>
  <rect x="696.1" y="389.03" width="40.84" height="40.84" fill="#231f20"/>
  <rect x="392.64" y="346.49" width="40.84" height="40.84" fill="#231f20"/>
  <rect x="436.23" y="346.49" width="40.84" height="40.84" fill="#231f20"/>
  <rect x="479.5" y="346.49" width="40.84" height="40.84" fill="#231f20"/>
  <rect x="522.32" y="346.49" width="40.84" height="40.84" fill="#231f20"/>
  <rect x="565.48" y="346.49" width="40.84" height="40.84" fill="#231f20"/>
  <rect x="608.76" y="346.49" width="40.84" height="40.84" fill="#231f20"/>
  <rect x="652.43" y="346.49" width="40.84" height="40.84" fill="#231f20"/>
  <rect x="696.1" y="346.49" width="40.84" height="40.84" fill="#231f20"/>
  <rect x="738.33" y="389.03" width="40.84" height="40.84" fill="#231f20"/>
  <rect x="782" y="389.03" width="40.84" height="40.84" fill="#231f20"/>
  <rect x="738.33" y="346.49" width="40.84" height="40.84" fill="#231f20"/>
  <rect x="782" y="346.49" width="40.84" height="40.84" fill="#231f20"/>
  <rect x="392.64" y="302.96" width="40.84" height="40.84" fill="#231f20"/>
  <rect x="436.23" y="302.96" width="40.84" height="40.84" fill="#231f20"/>
  <rect x="479.5" y="302.96" width="40.84" height="40.84" fill="#231f20"/>
  <rect x="522.32" y="302.96" width="40.84" height="40.84" fill="#231f20"/>
  <rect x="565.48" y="302.96" width="40.84" height="40.84" fill="#231f20"/>
  <rect x="608.76" y="302.96" width="40.84" height="40.84" fill="#231f20"/>
  <rect x="652.43" y="302.96" width="40.84" height="40.84" fill="#231f20"/>
  <rect x="696.1" y="302.96" width="40.84" height="40.84" fill="#231f20"/>
  <rect x="738.33" y="302.96" width="40.84" height="40.84" fill="#231f20"/>
  <rect x="782" y="302.96" width="40.84" height="40.84" fill="#231f20"/>
  <rect x="392.46" y="260.19" width="40.84" height="40.84" fill="#231f20"/>
  <rect x="436.05" y="260.19" width="40.84" height="40.84" fill="#231f20"/>
  <rect x="479.32" y="260.19" width="40.84" height="40.84" fill="#231f20"/>
  <rect x="522.14" y="260.19" width="40.84" height="40.84" fill="#231f20"/>
  <rect x="565.3" y="260.19" width="40.84" height="40.84" fill="#231f20"/>
  <rect x="608.58" y="260.19" width="40.84" height="40.84" fill="#231f20"/>
  <rect x="652.25" y="260.19" width="40.84" height="40.84" fill="#231f20"/>
  <rect x="695.92" y="260.19" width="40.84" height="40.84" fill="#231f20"/>
  <rect x="738.15" y="260.19" width="40.84" height="40.84" fill="#231f20"/>
  <rect x="781.82" y="260.19" width="40.84" height="40.84" fill="#231f20"/>
  <rect x="392.64" y="217.15" width="40.84" height="40.84" fill="#231f20"/>
  <rect x="436.23" y="217.15" width="40.84" height="40.84" fill="#231f20"/>
  <rect x="479.5" y="217.15" width="40.84" height="40.84" fill="#231f20"/>
  <rect x="522.32" y="217.15" width="40.84" height="40.84" fill="#231f20"/>
  <rect x="565.48" y="217.15" width="40.84" height="40.84" fill="#231f20"/>
  <rect x="608.76" y="217.15" width="40.84" height="40.84" fill="#231f20"/>
  <rect x="652.43" y="217.15" width="40.84" height="40.84" fill="#231f20"/>
  <rect x="696.1" y="217.15" width="40.84" height="40.84" fill="#231f20"/>
  <rect x="738.33" y="217.15" width="40.84" height="40.84" fill="#231f20"/>
  <rect x="392.64" y="173.83" width="40.84" height="40.84" fill="#231f20"/>
  <rect x="436.23" y="173.83" width="40.84" height="40.84" fill="#231f20"/>
  <rect x="479.5" y="173.83" width="40.84" height="40.84" fill="#231f20"/>
  <rect x="522.32" y="173.83" width="40.84" height="40.84" fill="#231f20"/>
  <rect x="565.48" y="173.83" width="40.84" height="40.84" fill="#231f20"/>
  <rect x="608.76" y="173.83" width="40.84" height="40.84" fill="#231f20"/>
  <rect x="652.43" y="173.83" width="40.84" height="40.84" fill="#231f20"/>
  <rect x="696.1" y="173.83" width="40.84" height="40.84" fill="#231f20"/>
  <rect x="392.64" y="130.5" width="40.84" height="40.84" fill="#231f20"/>
  <rect x="436.23" y="130.5" width="40.84" height="40.84" fill="#231f20"/>
  <rect x="479.5" y="130.5" width="40.84" height="40.84" fill="#231f20"/>
  <rect x="522.32" y="130.5" width="40.84" height="40.84" fill="#231f20"/>
  <rect x="565.48" y="130.5" width="40.84" height="40.84" fill="#231f20"/>
  <rect x="608.76" y="130.5" width="40.84" height="40.84" fill="#231f20"/>
  <rect x="652.43" y="130.5" width="40.84" height="40.84" fill="#231f20"/>
  <rect x="392.64" y="87.18" width="40.84" height="40.84" fill="#231f20"/>
  <rect x="436.23" y="87.18" width="40.84" height="40.84" fill="#231f20"/>
  <rect x="479.5" y="87.18" width="40.84" height="40.84" fill="#231f20"/>
  <rect x="522.32" y="87.18" width="40.84" height="40.84" fill="#231f20"/>
  <rect x="565.48" y="87.18" width="40.84" height="40.84" fill="#231f20"/>
  <rect x="608.76" y="87.18" width="40.84" height="40.84" fill="#231f20"/>
  <rect x="652.43" y="87.18" width="40.84" height="40.84" fill="#231f20"/>
  <rect x="392.64" y="44.46" width="40.84" height="40.84" fill="#231f20"/>
  <rect x="436.23" y="44.46" width="40.84" height="40.84" fill="#231f20"/>
  <rect x="479.5" y="44.46" width="40.84" height="40.84" fill="#231f20"/>
  <rect x="522.32" y="44.46" width="40.84" height="40.84" fill="#231f20"/>
  <rect x="565.48" y="44.46" width="40.84" height="40.84" fill="#231f20"/>
  <rect x="608.76" y="44.46" width="40.84" height="40.84" fill="#231f20"/>
  <rect x="392.64" y="1.44" width="40.84" height="40.84" fill="#231f20"/>
  <rect x="436.23" y="1.44" width="40.84" height="40.84" fill="#231f20"/>
  <rect x="479.5" y="1.44" width="40.84" height="40.84" fill="#231f20"/>
  <rect x="565.48" y="1.44" width="40.84" height="40.84" fill="#231f20"/>
  <rect x="652.43" y="44.46" width="40.84" height="40.84" fill="#231f20"/>
  <rect x="696.1" y="87.18" width="40.84" height="40.84" fill="#231f20"/>
  <rect x="696.1" y="130.5" width="40.84" height="40.84" fill="#231f20"/>
  <rect x="738.33" y="173.83" width="40.84" height="40.84" fill="#231f20"/>
  <rect x="782" y="217.15" width="40.84" height="40.84" fill="#231f20"/>
  <rect x="825.49" y="260.19" width="40.84" height="40.84" fill="#231f20"/>
  <rect x="608.84" y="864.78" width="40.84" height="40.84" fill="#231f20"/>
  <rect x="320.01" y="835.36" width="13.39" height="13.39" fill="#231f20"/>
  <rect x="275.55" y="835.36" width="13.39" height="13.39" fill="#231f20"/>
  <rect x="320.01" y="790.06" width="13.39" height="13.39" fill="#231f20"/>
  <rect x="320.01" y="921.66" width="13.39" height="13.39" fill="#231f20"/>
  <rect x="320.01" y="877.59" width="13.39" height="13.39" fill="#231f20"/>
  <rect x="320.01" y="1007.19" width="13.39" height="13.39" fill="#231f20"/>
  <rect x="320.01" y="965.54" width="13.39" height="13.39" fill="#231f20"/>
  <rect x="666.15" y="835.36" width="13.39" height="13.39" fill="#231f20"/>
  <rect x="666.15" y="792.63" width="13.39" height="13.39" fill="#231f20"/>
  <rect x="666.15" y="921.66" width="13.39" height="13.39" fill="#231f20"/>
  <rect x="666.15" y="877.59" width="13.39" height="13.39" fill="#231f20"/>
  <rect x="709.72" y="835.36" width="13.39" height="13.39" fill="#231f20"/>
  <rect x="709.72" y="921.66" width="13.39" height="13.39" fill="#231f20"/>
  <rect x="709.72" y="877.59" width="13.39" height="13.39" fill="#231f20"/>
  <rect x="709.82" y="750.15" width="13.39" height="13.39" fill="#231f20"/>
  <rect x="709.82" y="707.43" width="13.39" height="13.39" fill="#231f20"/>
  <rect x="709.82" y="792.38" width="13.39" height="13.39" fill="#231f20"/>
  <rect x="666.15" y="1007.19" width="13.39" height="13.39" fill="#231f20"/>
  <rect x="709.82" y="1007.19" width="13.39" height="13.39" fill="#231f20"/>
  <rect x="666.15" y="965.54" width="13.39" height="13.39" fill="#231f20"/>
  <rect x="796.77" y="921.66" width="13.39" height="13.39" fill="#231f20"/>
  <rect x="796.77" y="877.59" width="13.39" height="13.39" fill="#231f20"/>
  <rect x="796.77" y="965.54" width="13.39" height="13.39" fill="#231f20"/>
  <rect x="752.05" y="490.09" width="13.39" height="13.39" fill="#231f20"/>
  <rect x="795.72" y="490.09" width="13.39" height="13.39" fill="#231f20"/>
  <rect x="838.72" y="490.09" width="13.39" height="13.39" fill="#231f20"/>
  <rect x="882.39" y="490.09" width="13.39" height="13.39" fill="#231f20"/>
  <rect x="925.38" y="490.09" width="13.39" height="13.39" fill="#231f20"/>
  <rect x="752.05" y="447.36" width="13.39" height="13.39" fill="#231f20"/>
  <rect x="795.72" y="447.36" width="13.39" height="13.39" fill="#231f20"/>
  <rect x="838.72" y="447.36" width="13.39" height="13.39" fill="#231f20"/>
  <rect x="882.39" y="447.36" width="13.39" height="13.39" fill="#231f20"/>
  <rect x="752.05" y="576.38" width="13.39" height="13.39" fill="#231f20"/>
  <rect x="752.05" y="532.31" width="13.39" height="13.39" fill="#231f20"/>
  <rect x="839.4" y="360.46" width="13.39" height="13.39" fill="#231f20"/>
  <rect x="839.4" y="317.74" width="13.39" height="13.39" fill="#231f20"/>
  <rect x="839.4" y="402.69" width="13.39" height="13.39" fill="#231f20"/>
  <rect x="882.36" y="360.46" width="13.39" height="13.39" fill="#231f20"/>
  <rect x="882.36" y="317.74" width="13.39" height="13.39" fill="#231f20"/>
  <rect x="882.18" y="273.91" width="13.39" height="13.39" fill="#231f20"/>
  <rect x="839.4" y="230.87" width="13.39" height="13.39" fill="#231f20"/>
  <rect x="882.36" y="230.87" width="13.39" height="13.39" fill="#231f20"/>
  <rect x="795.72" y="187.55" width="13.39" height="13.39" fill="#231f20"/>
  <rect x="839.4" y="187.55" width="13.39" height="13.39" fill="#231f20"/>
  <rect x="925.38" y="403.38" width="13.39" height="13.39" fill="#231f20"/>
  <rect x="968.41" y="403.38" width="13.39" height="13.39" fill="#231f20"/>
  <rect x="925.38" y="316.68" width="13.39" height="13.39" fill="#231f20"/>
  <rect x="925.38" y="360.03" width="13.39" height="13.39" fill="#231f20"/>
  <rect x="925.38" y="446.7" width="13.39" height="13.39" fill="#231f20"/>
  <rect x="839.4" y="144.23" width="13.39" height="13.39" fill="#231f20"/>
  <rect x="752.05" y="144.41" width="13.39" height="13.39" fill="#231f20"/>
  <rect x="795.72" y="144.41" width="13.39" height="13.39" fill="#231f20"/>
  <rect x="752.05" y="100.9" width="13.39" height="13.39" fill="#231f20"/>
  <rect x="709.82" y="57.37" width="13.39" height="13.39" fill="#231f20"/>
  <rect x="752.05" y="57.37" width="13.39" height="13.39" fill="#231f20"/>
  <rect x="795.72" y="57.37" width="13.39" height="13.39" fill="#231f20"/>
  <rect x="928.33" y="11.44" width="13.39" height="13.39" fill="#231f20"/>
  <rect x="968.18" y="58.18" width="13.39" height="13.39" fill="#231f20"/>
  <rect x="968.18" y="99.5" width="13.39" height="13.39" fill="#231f20"/>
  <rect x="1009.77" y="99.5" width="13.39" height="13.39" fill="#231f20"/>
  <rect x="1009.77" y="143.33" width="13.39" height="13.39" fill="#231f20"/>
  <rect x="1009.77" y="187.55" width="13.39" height="13.39" fill="#231f20"/>
  <rect x="925.38" y="187.55" width="13.39" height="13.39" fill="#231f20"/>
  <rect x="925.38" y="230.87" width="13.39" height="13.39" fill="#231f20"/>
  <rect x="1054.12" y="187.55" width="13.39" height="13.39" fill="#231f20"/>
  <rect x="1054.12" y="230.87" width="13.39" height="13.39" fill="#231f20"/>
  <rect x="1054.12" y="273.15" width="13.39" height="13.39" fill="#231f20"/>
  <rect x="968.18" y="11.44" width="13.39" height="13.39" fill="#231f20"/>
  <rect x="709.82" y="15.16" width="13.39" height="13.39" fill="#231f20"/>
  <rect x="666.15" y="15.16" width="13.39" height="13.39" fill="#231f20"/>
  <rect x="624.22" y="15.16" width="13.39" height="13.39" fill="#231f20"/>
  <rect x="536.04" y="15.16" width="13.39" height="13.39" fill="#231f20"/>
  <rect x="882.36" y="402.69" width="13.39" height="13.39" fill="#231f20"/>
  <rect x="752.05" y="661.91" width="13.39" height="13.39" fill="#231f20"/>
  <rect x="752.05" y="620.26" width="13.39" height="13.39" fill="#231f20"/>
  <rect x="838.72" y="576.38" width="13.39" height="13.39" fill="#231f20"/>
  <rect x="795.38" y="576.38" width="13.39" height="13.39" fill="#231f20"/>
  <rect x="838.72" y="532.31" width="13.39" height="13.39" fill="#231f20"/>
  <rect x="795.72" y="532.31" width="13.39" height="13.39" fill="#231f20"/>
  <rect x="838.72" y="661.91" width="13.39" height="13.39" fill="#231f20"/>
  <rect x="838.72" y="620.26" width="13.39" height="13.39" fill="#231f20"/>
  <rect x="882.36" y="576.38" width="13.39" height="13.39" fill="#231f20"/>
  <rect x="882.36" y="532.31" width="13.39" height="13.39" fill="#231f20"/>
  <rect x="882.36" y="661.91" width="13.39" height="13.39" fill="#231f20"/>
  <rect x="882.36" y="620.26" width="13.39" height="13.39" fill="#231f20"/>
  <rect x="925.38" y="661.91" width="13.39" height="13.39" fill="#231f20"/>
  <rect x="838.72" y="705.79" width="13.39" height="13.39" fill="#231f20"/>
  <rect x="882.36" y="705.79" width="13.39" height="13.39" fill="#231f20"/>
  <rect x="754.41" y="748.93" width="13.39" height="13.39" fill="#231f20"/>
  <rect x="798.05" y="748.93" width="13.39" height="13.39" fill="#231f20"/>
  <rect x="881.27" y="750.15" width="13.39" height="13.39" fill="#231f20"/>
  <rect x="925.85" y="748.93" width="13.39" height="13.39" fill="#231f20"/>
  <rect x="969.49" y="748.93" width="13.39" height="13.39" fill="#231f20"/>
  <rect x="881.27" y="792.43" width="13.39" height="13.39" fill="#231f20"/>
  <rect x="925.85" y="792.43" width="13.39" height="13.39" fill="#231f20"/>
  <rect x="881.27" y="835.36" width="13.39" height="13.39" fill="#231f20"/>
  <rect x="839.66" y="750.15" width="13.39" height="13.39" fill="#231f20"/>
  <rect x="839.66" y="792.43" width="13.39" height="13.39" fill="#231f20"/>
  <rect x="839.66" y="835.36" width="13.39" height="13.39" fill="#231f20"/>
  <rect x="925.85" y="835.36" width="13.39" height="13.39" fill="#231f20"/>
  <rect x="881.27" y="877.59" width="13.39" height="13.39" fill="#231f20"/>
  <rect x="881.27" y="921.66" width="13.39" height="13.39" fill="#231f20"/>
  <rect x="881.27" y="964.59" width="13.39" height="13.39" fill="#231f20"/>
  <rect x="925.85" y="921.66" width="13.39" height="13.39" fill="#231f20"/>
  <rect x="925.85" y="964.59" width="13.39" height="13.39" fill="#231f20"/>
  <rect x="881.27" y="1006.82" width="13.39" height="13.39" fill="#231f20"/>
  <rect x="753.3" y="921.66" width="13.39" height="13.39" fill="#231f20"/>
  <rect x="753.3" y="964.59" width="13.39" height="13.39" fill="#231f20"/>
  <rect x="753.3" y="1006.82" width="13.39" height="13.39" fill="#231f20"/>
  <rect x="709.72" y="1050.74" width="13.39" height="13.39" fill="#231f20"/>
  <rect x="753.4" y="1050.74" width="13.39" height="13.39" fill="#231f20"/>
  <rect x="796.87" y="1050.36" width="13.39" height="13.39" fill="#231f20"/>
  <rect x="925.85" y="877.59" width="13.39" height="13.39" fill="#231f20"/>
  <rect x="970.44" y="877.59" width="13.39" height="13.39" fill="#231f20"/>
  <rect x="1015.02" y="877.59" width="13.39" height="13.39" fill="#231f20"/>
  <rect x="969.49" y="792.43" width="13.39" height="13.39" fill="#231f20"/>
  <rect x="925.38" y="705.79" width="13.39" height="13.39" fill="#231f20"/>
  <rect x="925.38" y="620.26" width="13.39" height="13.39" fill="#231f20"/>
  <rect x="968.41" y="705.79" width="13.39" height="13.39" fill="#231f20"/>
  <rect x="968.41" y="661.93" width="13.39" height="13.39" fill="#231f20"/>
  <rect x="968.41" y="532.66" width="13.39" height="13.39" fill="#231f20"/>
  <rect x="622.88" y="921.66" width="13.39" height="13.39" fill="#231f20"/>
  <rect x="622.88" y="1007.19" width="13.39" height="13.39" fill="#231f20"/>
  <rect x="622.88" y="1050.55" width="13.39" height="13.39" fill="#231f20"/>
  <rect x="666.3" y="1050.55" width="13.39" height="13.39" fill="#231f20"/>
  <rect x="622.88" y="965.54" width="13.39" height="13.39" fill="#231f20"/>
  <rect x="320.01" y="575.13" width="13.39" height="13.39" fill="#231f20"/>
  <rect x="320.01" y="531.56" width="13.39" height="13.39" fill="#231f20"/>
  <rect x="320.01" y="659.23" width="13.39" height="13.39" fill="#231f20"/>
  <rect x="320.01" y="615.16" width="13.39" height="13.39" fill="#231f20"/>
  <rect x="363.09" y="488.03" width="13.39" height="13.39" fill="#231f20"/>
  <rect x="363.09" y="444.5" width="13.39" height="13.39" fill="#231f20"/>
  <rect x="363.09" y="531.56" width="13.39" height="13.39" fill="#231f20"/>
  <rect x="363.09" y="360.21" width="13.39" height="13.39" fill="#231f20"/>
  <rect x="363.09" y="316.69" width="13.39" height="13.39" fill="#231f20"/>
  <rect x="363.09" y="403.74" width="13.39" height="13.39" fill="#231f20"/>
  <rect x="320.01" y="488.03" width="13.39" height="13.39" fill="#231f20"/>
  <rect x="320.01" y="444.5" width="13.39" height="13.39" fill="#231f20"/>
  <rect x="320.01" y="403.74" width="13.39" height="13.39" fill="#231f20"/>
  <rect x="363.09" y="228.56" width="13.39" height="13.39" fill="#231f20"/>
  <rect x="363.09" y="185.03" width="13.39" height="13.39" fill="#231f20"/>
  <rect x="362.91" y="273.91" width="13.39" height="13.39" fill="#231f20"/>
  <rect x="363.09" y="100.74" width="13.39" height="13.39" fill="#231f20"/>
  <rect x="363.09" y="57.21" width="13.39" height="13.39" fill="#231f20"/>
  <rect x="363.09" y="15.16" width="13.39" height="13.39" fill="#231f20"/>
  <rect x="321.58" y="57.21" width="13.39" height="13.39" fill="#231f20"/>
  <rect x="321.58" y="15.16" width="13.39" height="13.39" fill="#231f20"/>
  <rect x="277.71" y="15.16" width="13.39" height="13.39" fill="#231f20"/>
  <rect x="234.22" y="15.16" width="13.39" height="13.39" fill="#231f20"/>
  <rect x="190.35" y="15.16" width="13.39" height="13.39" fill="#231f20"/>
  <rect x="147.29" y="15.16" width="13.39" height="13.39" fill="#231f20"/>
  <rect x="61.02" y="15.16" width="13.39" height="13.39" fill="#231f20"/>
  <rect x="17.96" y="15.16" width="13.39" height="13.39" fill="#231f20"/>
  <rect x="363.09" y="144.27" width="13.39" height="13.39" fill="#231f20"/>
  <rect x="320.01" y="360.21" width="13.39" height="13.39" fill="#231f20"/>
  <rect x="320.01" y="316.69" width="13.39" height="13.39" fill="#231f20"/>
  <rect x="320.01" y="228.56" width="13.39" height="13.39" fill="#231f20"/>
  <rect x="320.01" y="185.03" width="13.39" height="13.39" fill="#231f20"/>
  <rect x="319.83" y="273.91" width="13.39" height="13.39" fill="#231f20"/>
  <rect x="276.92" y="360.21" width="13.39" height="13.39" fill="#231f20"/>
  <rect x="276.92" y="316.69" width="13.39" height="13.39" fill="#231f20"/>
  <rect x="276.74" y="273.91" width="13.39" height="13.39" fill="#231f20"/>
  <rect x="147.31" y="360.21" width="13.39" height="13.39" fill="#231f20"/>
  <rect x="147.31" y="316.69" width="13.39" height="13.39" fill="#231f20"/>
  <rect x="147.13" y="273.91" width="13.39" height="13.39" fill="#231f20"/>
  <rect x="233.66" y="316.69" width="13.39" height="13.39" fill="#231f20"/>
  <rect x="233.48" y="273.91" width="13.39" height="13.39" fill="#231f20"/>
  <rect x="320.01" y="100.74" width="13.39" height="13.39" fill="#231f20"/>
  <rect x="320.01" y="144.27" width="13.39" height="13.39" fill="#231f20"/>
  <rect x="277.71" y="57.21" width="13.39" height="13.39" fill="#231f20"/>
  <rect x="276.13" y="100.74" width="13.39" height="13.39" fill="#231f20"/>
  <rect x="234.25" y="100.74" width="13.39" height="13.39" fill="#231f20"/>
  <rect x="234.25" y="144.23" width="13.39" height="13.39" fill="#231f20"/>
  <rect x="147.29" y="144.23" width="13.39" height="13.39" fill="#231f20"/>
  <rect x="105.85" y="144.23" width="13.39" height="13.39" fill="#231f20"/>
  <rect x="147.29" y="228.56" width="13.39" height="13.39" fill="#231f20"/>
  <rect x="105.85" y="228.56" width="13.39" height="13.39" fill="#231f20"/>
  <rect x="61.98" y="144.23" width="13.39" height="13.39" fill="#231f20"/>
  <rect x="20.03" y="100.9" width="13.39" height="13.39" fill="#231f20"/>
  <rect x="191.16" y="100.74" width="13.39" height="13.39" fill="#231f20"/>
  <rect x="191.16" y="57.21" width="13.39" height="13.39" fill="#231f20"/>
  <rect x="147.29" y="57.21" width="13.39" height="13.39" fill="#231f20"/>
  <rect x="105.85" y="57.21" width="13.39" height="13.39" fill="#231f20"/>
  <rect x="61.98" y="57.21" width="13.39" height="13.39" fill="#231f20"/>
  <rect x="276.13" y="144.27" width="13.39" height="13.39" fill="#231f20"/>
  <rect x="320.01" y="744.76" width="13.39" height="13.39" fill="#231f20"/>
  <rect x="320.01" y="703.11" width="13.39" height="13.39" fill="#231f20"/>
  <rect x="364.47" y="1052.49" width="13.39" height="13.39" fill="#231f20"/>
  <rect x="450.04" y="1052.49" width="13.39" height="13.39" fill="#231f20"/>
  <rect x="493.31" y="1052.49" width="13.39" height="13.39" fill="#231f20"/>
  <rect x="364.47" y="1007.19" width="13.39" height="13.39" fill="#231f20"/>
  <rect x="275.55" y="790.06" width="13.39" height="13.39" fill="#231f20"/>
  <rect x="191.81" y="835.36" width="13.39" height="13.39" fill="#231f20"/>
  <rect x="191.81" y="790.06" width="13.39" height="13.39" fill="#231f20"/>
  <rect x="276.31" y="922.89" width="13.39" height="13.39" fill="#231f20"/>
  <rect x="235.09" y="965.43" width="13.39" height="13.39" fill="#231f20"/>
  <rect x="276.31" y="877.59" width="13.39" height="13.39" fill="#231f20"/>
  <rect x="233.52" y="835.36" width="13.39" height="13.39" fill="#231f20"/>
  <rect x="233.52" y="790.06" width="13.39" height="13.39" fill="#231f20"/>
  <rect x="275.55" y="576.47" width="13.39" height="13.39" fill="#231f20"/>
  <rect x="189.94" y="576.47" width="13.39" height="13.39" fill="#231f20"/>
  <rect x="233.52" y="576.47" width="13.39" height="13.39" fill="#231f20"/>
  <rect x="235.03" y="490.09" width="13.39" height="13.39" fill="#231f20"/>
  <rect x="148.23" y="619.2" width="13.39" height="13.39" fill="#231f20"/>
  <rect x="189.94" y="619.2" width="13.39" height="13.39" fill="#231f20"/>
  <rect x="234.28" y="922.89" width="13.39" height="13.39" fill="#231f20"/>
  <rect x="234.28" y="877.59" width="13.39" height="13.39" fill="#231f20"/>
  <rect x="192.62" y="965.43" width="13.39" height="13.39" fill="#231f20"/>
  <rect x="60.72" y="1050.55" width="13.39" height="13.39" fill="#231f20"/>
  <rect x="18.25" y="1050.55" width="13.39" height="13.39" fill="#231f20"/>
  <rect x="60.72" y="1008.26" width="13.39" height="13.39" fill="#231f20"/>
  <rect x="18.25" y="1008.26" width="13.39" height="13.39" fill="#231f20"/>
  <rect x="191.81" y="922.89" width="13.39" height="13.39" fill="#231f20"/>
  <rect x="191.81" y="877.59" width="13.39" height="13.39" fill="#231f20"/>
  <rect x="149.35" y="877.59" width="13.39" height="13.39" fill="#231f20"/>
</svg>