<?xml version="1.0" encoding="UTF-8"?>
<svg id="_14" data-name="14" xmlns="http://www.w3.org/2000/svg" viewBox="0 0 1080 1080">
  <rect x="491.14" y="1050.75" width="13.39" height="13.39" fill="#231f20"/>
  <rect x="579.36" y="1050.75" width="13.39" height="13.39" fill="#231f20"/>
  <rect x="579.36" y="1007.53" width="13.39" height="13.39" transform="translate(1172.12 2028.46) rotate(180)" fill="#231f20"/>
  <rect x="663.37" y="1007.53" width="13.39" height="13.39" transform="translate(1340.13 2028.46) rotate(180)" fill="#231f20"/>
  <rect x="663.37" y="1048.95" width="13.39" height="13.39" transform="translate(1340.13 2111.29) rotate(180)" fill="#231f20"/>
  <rect x="667.2" y="919.51" width="13.39" height="13.39" transform="translate(1347.79 1852.41) rotate(180)" fill="#231f20"/>
  <rect x="667.2" y="960.93" width="13.39" height="13.39" transform="translate(1347.79 1935.25) rotate(180)" fill="#231f20"/>
  <rect x="623.45" y="919.51" width="13.39" height="13.39" transform="translate(1260.29 1852.41) rotate(180)" fill="#231f20"/>
  <rect x="623.45" y="960.93" width="13.39" height="13.39" transform="translate(1260.29 1935.25) rotate(180)" fill="#231f20"/>
  <rect x="579.7" y="919.51" width="13.39" height="13.39" transform="translate(1172.8 1852.41) rotate(180)" fill="#231f20"/>
  <rect x="579.7" y="960.93" width="13.39" height="13.39" transform="translate(1172.8 1935.25) rotate(180)" fill="#231f20"/>
  <rect x="533.3" y="919.51" width="13.39" height="13.39" transform="translate(1080 1852.41) rotate(180)" fill="#231f20"/>
  <rect x="533.3" y="960.93" width="13.39" height="13.39" transform="translate(1080 1935.25) rotate(180)" fill="#231f20"/>
  <rect x="491.14" y="919.51" width="13.39" height="13.39" transform="translate(995.67 1852.41) rotate(180)" fill="#231f20"/>
  <rect x="491.14" y="960.93" width="13.39" height="13.39" transform="translate(995.67 1935.25) rotate(180)" fill="#231f20"/>
  <rect x="447.83" y="919.51" width="13.39" height="13.39" transform="translate(909.06 1852.41) rotate(180)" fill="#231f20"/>
  <rect x="447.83" y="960.93" width="13.39" height="13.39" transform="translate(909.06 1935.25) rotate(180)" fill="#231f20"/>
  <rect x="405.07" y="919.51" width="13.39" height="13.39" transform="translate(823.53 1852.41) rotate(180)" fill="#231f20"/>
  <rect x="405.07" y="960.93" width="13.39" height="13.39" transform="translate(823.53 1935.25) rotate(180)" fill="#231f20"/>
  <rect x="361.65" y="919.51" width="13.39" height="13.39" transform="translate(736.69 1852.41) rotate(180)" fill="#231f20"/>
  <rect x="361.65" y="960.93" width="13.39" height="13.39" transform="translate(736.69 1935.25) rotate(180)" fill="#231f20"/>
  <rect x="317.99" y="919.51" width="13.39" height="13.39" transform="translate(649.38 1852.41) rotate(180)" fill="#231f20"/>
  <rect x="317.99" y="960.93" width="13.39" height="13.39" transform="translate(649.38 1935.25) rotate(180)" fill="#231f20"/>
  <rect x="144.67" y="919.51" width="13.39" height="13.39" transform="translate(302.73 1852.41) rotate(180)" fill="#231f20"/>
  <rect x="144.67" y="960.93" width="13.39" height="13.39" transform="translate(302.73 1935.25) rotate(180)" fill="#231f20"/>
  <rect x="102.59" y="919.51" width="13.39" height="13.39" transform="translate(218.58 1852.41) rotate(180)" fill="#231f20"/>
  <rect x="102.59" y="960.93" width="13.39" height="13.39" transform="translate(218.58 1935.25) rotate(180)" fill="#231f20"/>
  <rect x="58.39" y="919.51" width="13.39" height="13.39" transform="translate(130.18 1852.41) rotate(180)" fill="#231f20"/>
  <rect x="58.39" y="960.93" width="13.39" height="13.39" transform="translate(130.18 1935.25) rotate(180)" fill="#231f20"/>
  <rect x="274.12" y="919.51" width="13.39" height="13.39" transform="translate(561.64 1852.41) rotate(180)" fill="#231f20"/>
  <rect x="274.12" y="960.93" width="13.39" height="13.39" transform="translate(561.64 1935.25) rotate(180)" fill="#231f20"/>
  <rect x="447.83" y="1004.5" width="13.39" height="13.39" transform="translate(909.06 2022.39) rotate(180)" fill="#231f20"/>
  <rect x="447.83" y="1045.91" width="13.39" height="13.39" transform="translate(909.06 2105.22) rotate(180)" fill="#231f20"/>
  <rect x="405.07" y="1004.5" width="13.39" height="13.39" transform="translate(823.53 2022.39) rotate(180)" fill="#231f20"/>
  <rect x="405.07" y="1045.91" width="13.39" height="13.39" transform="translate(823.53 2105.22) rotate(180)" fill="#231f20"/>
  <rect x="361.65" y="1004.5" width="13.39" height="13.39" transform="translate(736.69 2022.39) rotate(180)" fill="#231f20"/>
  <rect x="361.65" y="1045.91" width="13.39" height="13.39" transform="translate(736.69 2105.22) rotate(180)" fill="#231f20"/>
  <rect x="317.99" y="1004.5" width="13.39" height="13.39" transform="translate(649.38 2022.39) rotate(180)" fill="#231f20"/>
  <rect x="317.99" y="1045.91" width="13.39" height="13.39" transform="translate(649.38 2105.22) rotate(180)" fill="#231f20"/>
  <rect x="274.12" y="1004.5" width="13.39" height="13.39" transform="translate(561.64 2022.39) rotate(180)" fill="#231f20"/>
  <rect x="274.12" y="1045.91" width="13.39" height="13.39" transform="translate(561.64 2105.22) rotate(180)" fill="#231f20"/>
  <rect x="231.75" y="919.51" width="13.39" height="13.39" transform="translate(476.88 1852.41) rotate(180)" fill="#231f20"/>
  <rect x="231.75" y="960.93" width="13.39" height="13.39" transform="translate(476.88 1935.25) rotate(180)" fill="#231f20"/>
  <rect x="188.44" y="919.51" width="13.39" height="13.39" transform="translate(390.28 1852.41) rotate(180)" fill="#231f20"/>
  <rect x="188.44" y="960.93" width="13.39" height="13.39" transform="translate(390.28 1935.25) rotate(180)" fill="#231f20"/>
  <rect x="447.83" y="834.61" width="13.39" height="13.39" transform="translate(909.06 1682.61) rotate(180)" fill="#231f20"/>
  <rect x="447.83" y="876.02" width="13.39" height="13.39" transform="translate(909.06 1765.44) rotate(180)" fill="#231f20"/>
  <rect x="405.07" y="834.61" width="13.39" height="13.39" transform="translate(823.53 1682.61) rotate(180)" fill="#231f20"/>
  <rect x="405.07" y="876.02" width="13.39" height="13.39" transform="translate(823.53 1765.44) rotate(180)" fill="#231f20"/>
  <rect x="361.65" y="834.61" width="13.39" height="13.39" transform="translate(736.69 1682.61) rotate(180)" fill="#231f20"/>
  <rect x="361.65" y="876.02" width="13.39" height="13.39" transform="translate(736.69 1765.44) rotate(180)" fill="#231f20"/>
  <rect x="317.99" y="834.61" width="13.39" height="13.39" transform="translate(649.38 1682.61) rotate(180)" fill="#231f20"/>
  <rect x="317.99" y="876.02" width="13.39" height="13.39" transform="translate(649.38 1765.44) rotate(180)" fill="#231f20"/>
  <rect x="144.67" y="834.61" width="13.39" height="13.39" transform="translate(302.73 1682.61) rotate(180)" fill="#231f20"/>
  <rect x="144.67" y="876.02" width="13.39" height="13.39" transform="translate(302.73 1765.44) rotate(180)" fill="#231f20"/>
  <rect x="102.59" y="834.61" width="13.39" height="13.39" transform="translate(218.58 1682.61) rotate(180)" fill="#231f20"/>
  <rect x="102.59" y="876.02" width="13.39" height="13.39" transform="translate(218.58 1765.44) rotate(180)" fill="#231f20"/>
  <rect x="58.39" y="834.61" width="13.39" height="13.39" transform="translate(130.18 1682.61) rotate(180)" fill="#231f20"/>
  <rect x="58.39" y="876.02" width="13.39" height="13.39" transform="translate(130.18 1765.44) rotate(180)" fill="#231f20"/>
  <rect x="274.12" y="834.61" width="13.39" height="13.39" transform="translate(561.64 1682.61) rotate(180)" fill="#231f20"/>
  <rect x="274.12" y="876.02" width="13.39" height="13.39" transform="translate(561.64 1765.44) rotate(180)" fill="#231f20"/>
  <rect x="231.75" y="834.61" width="13.39" height="13.39" transform="translate(476.88 1682.61) rotate(180)" fill="#231f20"/>
  <rect x="231.75" y="876.02" width="13.39" height="13.39" transform="translate(476.88 1765.44) rotate(180)" fill="#231f20"/>
  <rect x="188.44" y="834.61" width="13.39" height="13.39" transform="translate(390.28 1682.61) rotate(180)" fill="#231f20"/>
  <rect x="188.44" y="876.02" width="13.39" height="13.39" transform="translate(390.28 1765.44) rotate(180)" fill="#231f20"/>
  <rect x="880.7" y="877.06" width="13.39" height="13.39" transform="translate(1774.79 1767.51) rotate(180)" fill="#231f20"/>
  <rect x="880.7" y="834.61" width="13.39" height="13.39" transform="translate(1774.79 1682.61) rotate(180)" fill="#231f20"/>
  <rect x="927.1" y="877.06" width="13.39" height="13.39" transform="translate(1867.6 1767.51) rotate(180)" fill="#231f20"/>
  <rect x="835.23" y="877.26" width="13.39" height="13.39" transform="translate(1683.86 1767.91) rotate(180)" fill="#231f20"/>
  <rect x="794.37" y="877.06" width="13.39" height="13.39" transform="translate(1602.13 1767.51) rotate(180)" fill="#231f20"/>
  <rect x="748.62" y="877.06" width="13.39" height="13.39" transform="translate(1510.63 1767.51) rotate(180)" fill="#231f20"/>
  <rect x="581.35" y="877.06" width="13.39" height="13.39" transform="translate(1176.09 1767.51) rotate(180)" fill="#231f20"/>
  <rect x="533.3" y="877.06" width="13.39" height="13.39" transform="translate(1080 1767.51) rotate(180)" fill="#231f20"/>
  <rect x="491.14" y="877.06" width="13.39" height="13.39" transform="translate(995.67 1767.51) rotate(180)" fill="#231f20"/>
  <rect x="706.46" y="877.06" width="13.39" height="13.39" transform="translate(1426.32 1767.51) rotate(180)" fill="#231f20"/>
  <rect x="668.05" y="877.06" width="13.39" height="13.39" transform="translate(1349.5 1767.51) rotate(180)" fill="#231f20"/>
  <rect x="626.25" y="877.06" width="13.39" height="13.39" transform="translate(1265.88 1767.51) rotate(180)" fill="#231f20"/>
  <rect x="447.83" y="748.21" width="13.39" height="13.39" transform="translate(909.06 1509.81) rotate(180)" fill="#231f20"/>
  <rect x="447.83" y="789.62" width="13.39" height="13.39" transform="translate(909.06 1592.64) rotate(180)" fill="#231f20"/>
  <rect x="405.07" y="748.21" width="13.39" height="13.39" transform="translate(823.53 1509.81) rotate(180)" fill="#231f20"/>
  <rect x="405.07" y="789.62" width="13.39" height="13.39" transform="translate(823.53 1592.64) rotate(180)" fill="#231f20"/>
  <rect x="361.65" y="748.21" width="13.39" height="13.39" transform="translate(736.69 1509.81) rotate(180)" fill="#231f20"/>
  <rect x="361.65" y="789.62" width="13.39" height="13.39" transform="translate(736.69 1592.64) rotate(180)" fill="#231f20"/>
  <rect x="317.99" y="748.21" width="13.39" height="13.39" transform="translate(649.38 1509.81) rotate(180)" fill="#231f20"/>
  <rect x="317.99" y="789.62" width="13.39" height="13.39" transform="translate(649.38 1592.64) rotate(180)" fill="#231f20"/>
  <rect x="144.67" y="748.21" width="13.39" height="13.39" transform="translate(302.73 1509.81) rotate(180)" fill="#231f20"/>
  <rect x="144.67" y="789.62" width="13.39" height="13.39" transform="translate(302.73 1592.64) rotate(180)" fill="#231f20"/>
  <rect x="102.59" y="748.21" width="13.39" height="13.39" transform="translate(218.58 1509.81) rotate(180)" fill="#231f20"/>
  <rect x="102.59" y="789.62" width="13.39" height="13.39" transform="translate(218.58 1592.64) rotate(180)" fill="#231f20"/>
  <rect x="58.39" y="748.21" width="13.39" height="13.39" transform="translate(130.18 1509.81) rotate(180)" fill="#231f20"/>
  <rect x="58.39" y="789.62" width="13.39" height="13.39" transform="translate(130.18 1592.64) rotate(180)" fill="#231f20"/>
  <rect x="274.12" y="748.21" width="13.39" height="13.39" transform="translate(561.64 1509.81) rotate(180)" fill="#231f20"/>
  <rect x="274.12" y="789.62" width="13.39" height="13.39" transform="translate(561.64 1592.64) rotate(180)" fill="#231f20"/>
  <rect x="231.75" y="748.21" width="13.39" height="13.39" transform="translate(476.88 1509.81) rotate(180)" fill="#231f20"/>
  <rect x="231.75" y="789.62" width="13.39" height="13.39" transform="translate(476.88 1592.64) rotate(180)" fill="#231f20"/>
  <rect x="188.44" y="748.21" width="13.39" height="13.39" transform="translate(390.28 1509.81) rotate(180)" fill="#231f20"/>
  <rect x="188.44" y="789.62" width="13.39" height="13.39" transform="translate(390.28 1592.64) rotate(180)" fill="#231f20"/>
  <rect x="835.23" y="834.81" width="13.39" height="13.39" transform="translate(1683.86 1683.01) rotate(180)" fill="#231f20"/>
  <rect x="794.37" y="834.61" width="13.39" height="13.39" transform="translate(1602.13 1682.61) rotate(180)" fill="#231f20"/>
  <rect x="748.62" y="834.61" width="13.39" height="13.39" transform="translate(1510.63 1682.61) rotate(180)" fill="#231f20"/>
  <rect x="706.46" y="834.61" width="13.39" height="13.39" transform="translate(1426.32 1682.61) rotate(180)" fill="#231f20"/>
  <rect x="533.3" y="834.61" width="13.39" height="13.39" transform="translate(1080 1682.61) rotate(180)" fill="#231f20"/>
  <rect x="491.14" y="834.61" width="13.39" height="13.39" transform="translate(995.67 1682.61) rotate(180)" fill="#231f20"/>
  <rect x="670.35" y="834.61" width="13.39" height="13.39" transform="translate(1354.1 1682.61) rotate(180)" fill="#231f20"/>
  <rect x="626.25" y="834.61" width="13.39" height="13.39" transform="translate(1265.88 1682.61) rotate(180)" fill="#231f20"/>
  <rect x="584.44" y="834.61" width="13.39" height="13.39" transform="translate(1182.27 1682.61) rotate(180)" fill="#231f20"/>
  <rect x="835.23" y="789.83" width="13.39" height="13.39" transform="translate(1683.86 1593.04) rotate(180)" fill="#231f20"/>
  <rect x="794.37" y="789.62" width="13.39" height="13.39" transform="translate(1602.13 1592.64) rotate(180)" fill="#231f20"/>
  <rect x="748.62" y="789.62" width="13.39" height="13.39" transform="translate(1510.63 1592.64) rotate(180)" fill="#231f20"/>
  <rect x="706.46" y="789.62" width="13.39" height="13.39" transform="translate(1426.32 1592.64) rotate(180)" fill="#231f20"/>
  <rect x="533.3" y="789.62" width="13.39" height="13.39" transform="translate(1080 1592.64) rotate(180)" fill="#231f20"/>
  <rect x="491.14" y="789.62" width="13.39" height="13.39" transform="translate(995.67 1592.64) rotate(180)" fill="#231f20"/>
  <rect x="670.35" y="789.62" width="13.39" height="13.39" transform="translate(1354.1 1592.64) rotate(180)" fill="#231f20"/>
  <rect x="626.25" y="789.62" width="13.39" height="13.39" transform="translate(1265.88 1592.64) rotate(180)" fill="#231f20"/>
  <rect x="584.44" y="789.62" width="13.39" height="13.39" transform="translate(1182.27 1592.64) rotate(180)" fill="#231f20"/>
  <rect x="447.83" y="661.81" width="13.39" height="13.39" transform="translate(909.06 1337.01) rotate(180)" fill="#231f20"/>
  <rect x="447.83" y="703.22" width="13.39" height="13.39" transform="translate(909.06 1419.84) rotate(180)" fill="#231f20"/>
  <rect x="405.07" y="661.81" width="13.39" height="13.39" transform="translate(823.53 1337.01) rotate(180)" fill="#231f20"/>
  <rect x="405.07" y="703.22" width="13.39" height="13.39" transform="translate(823.53 1419.84) rotate(180)" fill="#231f20"/>
  <rect x="361.65" y="661.81" width="13.39" height="13.39" transform="translate(736.69 1337.01) rotate(180)" fill="#231f20"/>
  <rect x="361.65" y="703.22" width="13.39" height="13.39" transform="translate(736.69 1419.84) rotate(180)" fill="#231f20"/>
  <rect x="317.99" y="661.81" width="13.39" height="13.39" transform="translate(649.38 1337.01) rotate(180)" fill="#231f20"/>
  <rect x="317.99" y="703.22" width="13.39" height="13.39" transform="translate(649.38 1419.84) rotate(180)" fill="#231f20"/>
  <rect x="144.67" y="661.81" width="13.39" height="13.39" transform="translate(302.73 1337.01) rotate(180)" fill="#231f20"/>
  <rect x="144.67" y="703.22" width="13.39" height="13.39" transform="translate(302.73 1419.84) rotate(180)" fill="#231f20"/>
  <rect x="102.59" y="661.81" width="13.39" height="13.39" transform="translate(218.58 1337.01) rotate(180)" fill="#231f20"/>
  <rect x="102.59" y="703.22" width="13.39" height="13.39" transform="translate(218.58 1419.84) rotate(180)" fill="#231f20"/>
  <rect x="58.39" y="661.81" width="13.39" height="13.39" transform="translate(130.18 1337.01) rotate(180)" fill="#231f20"/>
  <rect x="14.46" y="661.81" width="13.39" height="13.39" transform="translate(42.32 1337.01) rotate(180)" fill="#231f20"/>
  <rect x="58.39" y="703.22" width="13.39" height="13.39" transform="translate(130.18 1419.84) rotate(180)" fill="#231f20"/>
  <rect x="14.46" y="834.61" width="13.39" height="13.39" transform="translate(42.32 1682.61) rotate(180)" fill="#231f20"/>
  <rect x="14.46" y="748.21" width="13.39" height="13.39" transform="translate(42.32 1509.81) rotate(180)" fill="#231f20"/>
  <rect x="14.46" y="789.62" width="13.39" height="13.39" transform="translate(42.32 1592.64) rotate(180)" fill="#231f20"/>
  <rect x="14.46" y="703.22" width="13.39" height="13.39" transform="translate(42.32 1419.84) rotate(180)" fill="#231f20"/>
  <rect x="274.12" y="661.81" width="13.39" height="13.39" transform="translate(561.64 1337.01) rotate(180)" fill="#231f20"/>
  <rect x="274.12" y="703.22" width="13.39" height="13.39" transform="translate(561.64 1419.84) rotate(180)" fill="#231f20"/>
  <rect x="231.75" y="661.81" width="13.39" height="13.39" transform="translate(476.88 1337.01) rotate(180)" fill="#231f20"/>
  <rect x="231.75" y="703.22" width="13.39" height="13.39" transform="translate(476.88 1419.84) rotate(180)" fill="#231f20"/>
  <rect x="188.44" y="661.81" width="13.39" height="13.39" transform="translate(390.28 1337.01) rotate(180)" fill="#231f20"/>
  <rect x="188.44" y="703.22" width="13.39" height="13.39" transform="translate(390.28 1419.84) rotate(180)" fill="#231f20"/>
  <rect x="835.23" y="748.41" width="13.39" height="13.39" transform="translate(1683.86 1510.21) rotate(180)" fill="#231f20"/>
  <rect x="794.37" y="748.21" width="13.39" height="13.39" transform="translate(1602.13 1509.81) rotate(180)" fill="#231f20"/>
  <rect x="748.62" y="748.21" width="13.39" height="13.39" transform="translate(1510.63 1509.81) rotate(180)" fill="#231f20"/>
  <rect x="706.46" y="748.21" width="13.39" height="13.39" transform="translate(1426.32 1509.81) rotate(180)" fill="#231f20"/>
  <rect x="1008.52" y="789.62" width="13.39" height="13.39" transform="translate(2030.43 1592.64) rotate(180)" fill="#231f20"/>
  <rect x="967.48" y="789.62" width="13.39" height="13.39" transform="translate(1948.35 1592.64) rotate(180)" fill="#231f20"/>
  <rect x="925.67" y="789.62" width="13.39" height="13.39" transform="translate(1864.73 1592.64) rotate(180)" fill="#231f20"/>
  <rect x="880.7" y="789.62" width="13.39" height="13.39" transform="translate(1774.79 1592.64) rotate(180)" fill="#231f20"/>
  <rect x="1008.52" y="748.21" width="13.39" height="13.39" transform="translate(2030.43 1509.81) rotate(180)" fill="#231f20"/>
  <rect x="965.47" y="748.21" width="13.39" height="13.39" transform="translate(1944.34 1509.81) rotate(180)" fill="#231f20"/>
  <rect x="923.66" y="748.21" width="13.39" height="13.39" transform="translate(1860.72 1509.81) rotate(180)" fill="#231f20"/>
  <rect x="880.7" y="748.21" width="13.39" height="13.39" transform="translate(1774.79 1509.81) rotate(180)" fill="#231f20"/>
  <rect x="533.3" y="748.21" width="13.39" height="13.39" transform="translate(1080 1509.81) rotate(180)" fill="#231f20"/>
  <rect x="491.14" y="748.21" width="13.39" height="13.39" transform="translate(995.67 1509.81) rotate(180)" fill="#231f20"/>
  <rect x="668.35" y="748.21" width="13.39" height="13.39" transform="translate(1350.09 1509.81) rotate(180)" fill="#231f20"/>
  <rect x="624.24" y="748.21" width="13.39" height="13.39" transform="translate(1261.87 1509.81) rotate(180)" fill="#231f20"/>
  <rect x="582.43" y="748.21" width="13.39" height="13.39" transform="translate(1178.26 1509.81) rotate(180)" fill="#231f20"/>
  <rect x="835.23" y="662.01" width="13.39" height="13.39" transform="translate(1683.86 1337.41) rotate(180)" fill="#231f20"/>
  <rect x="835.23" y="703.43" width="13.39" height="13.39" transform="translate(1683.86 1420.24) rotate(180)" fill="#231f20"/>
  <rect x="794.37" y="661.81" width="13.39" height="13.39" transform="translate(1602.13 1337.01) rotate(180)" fill="#231f20"/>
  <rect x="794.37" y="703.22" width="13.39" height="13.39" transform="translate(1602.13 1419.84) rotate(180)" fill="#231f20"/>
  <rect x="748.62" y="661.81" width="13.39" height="13.39" transform="translate(1510.63 1337.01) rotate(180)" fill="#231f20"/>
  <rect x="748.62" y="703.22" width="13.39" height="13.39" transform="translate(1510.63 1419.84) rotate(180)" fill="#231f20"/>
  <rect x="706.46" y="661.81" width="13.39" height="13.39" transform="translate(1426.32 1337.01) rotate(180)" fill="#231f20"/>
  <rect x="706.46" y="703.22" width="13.39" height="13.39" transform="translate(1426.32 1419.84) rotate(180)" fill="#231f20"/>
  <rect x="1008.52" y="661.81" width="13.39" height="13.39" transform="translate(2030.43 1337.01) rotate(180)" fill="#231f20"/>
  <rect x="1008.52" y="703.22" width="13.39" height="13.39" transform="translate(2030.43 1419.84) rotate(180)" fill="#231f20"/>
  <rect x="1052.18" y="661.81" width="13.39" height="13.39" transform="translate(2117.75 1337.01) rotate(180)" fill="#231f20"/>
  <rect x="1052.18" y="703.22" width="13.39" height="13.39" transform="translate(2117.75 1419.84) rotate(180)" fill="#231f20"/>
  <rect x="966.47" y="661.81" width="13.39" height="13.39" transform="translate(1946.34 1337.01) rotate(180)" fill="#231f20"/>
  <rect x="966.47" y="703.22" width="13.39" height="13.39" transform="translate(1946.34 1419.84) rotate(180)" fill="#231f20"/>
  <rect x="924.67" y="661.81" width="13.39" height="13.39" transform="translate(1862.72 1337.01) rotate(180)" fill="#231f20"/>
  <rect x="924.67" y="703.22" width="13.39" height="13.39" transform="translate(1862.72 1419.84) rotate(180)" fill="#231f20"/>
  <rect x="880.7" y="661.81" width="13.39" height="13.39" transform="translate(1774.79 1337.01) rotate(180)" fill="#231f20"/>
  <rect x="880.7" y="703.22" width="13.39" height="13.39" transform="translate(1774.79 1419.84) rotate(180)" fill="#231f20"/>
  <rect x="533.3" y="661.81" width="13.39" height="13.39" transform="translate(1080 1337.01) rotate(180)" fill="#231f20"/>
  <rect x="533.3" y="703.22" width="13.39" height="13.39" transform="translate(1080 1419.84) rotate(180)" fill="#231f20"/>
  <rect x="491.14" y="661.81" width="13.39" height="13.39" transform="translate(995.67 1337.01) rotate(180)" fill="#231f20"/>
  <rect x="491.14" y="703.22" width="13.39" height="13.39" transform="translate(995.67 1419.84) rotate(180)" fill="#231f20"/>
  <rect x="668.35" y="661.81" width="13.39" height="13.39" transform="translate(1350.09 1337.01) rotate(180)" fill="#231f20"/>
  <rect x="668.35" y="703.22" width="13.39" height="13.39" transform="translate(1350.09 1419.84) rotate(180)" fill="#231f20"/>
  <rect x="624.24" y="661.81" width="13.39" height="13.39" transform="translate(1261.87 1337.01) rotate(180)" fill="#231f20"/>
  <rect x="624.24" y="703.22" width="13.39" height="13.39" transform="translate(1261.87 1419.84) rotate(180)" fill="#231f20"/>
  <rect x="582.43" y="661.81" width="13.39" height="13.39" transform="translate(1178.26 1337.01) rotate(180)" fill="#231f20"/>
  <rect x="447.83" y="618.24" width="13.39" height="13.39" transform="translate(909.06 1249.87) rotate(180)" fill="#231f20"/>
  <rect x="405.07" y="618.24" width="13.39" height="13.39" transform="translate(823.53 1249.87) rotate(180)" fill="#231f20"/>
  <rect x="361.65" y="618.24" width="13.39" height="13.39" transform="translate(736.69 1249.87) rotate(180)" fill="#231f20"/>
  <rect x="317.99" y="618.24" width="13.39" height="13.39" transform="translate(649.38 1249.87) rotate(180)" fill="#231f20"/>
  <rect x="144.67" y="618.24" width="13.39" height="13.39" transform="translate(302.73 1249.87) rotate(180)" fill="#231f20"/>
  <rect x="102.59" y="618.24" width="13.39" height="13.39" transform="translate(218.58 1249.87) rotate(180)" fill="#231f20"/>
  <rect x="58.39" y="618.24" width="13.39" height="13.39" transform="translate(130.18 1249.87) rotate(180)" fill="#231f20"/>
  <rect x="14.46" y="618.24" width="13.39" height="13.39" transform="translate(42.32 1249.87) rotate(180)" fill="#231f20"/>
  <rect x="274.12" y="618.24" width="13.39" height="13.39" transform="translate(561.64 1249.87) rotate(180)" fill="#231f20"/>
  <rect x="231.75" y="618.24" width="13.39" height="13.39" transform="translate(476.88 1249.87) rotate(180)" fill="#231f20"/>
  <rect x="188.44" y="618.24" width="13.39" height="13.39" transform="translate(390.28 1249.87) rotate(180)" fill="#231f20"/>
  <rect x="835.23" y="618.44" width="13.39" height="13.39" transform="translate(1683.86 1250.27) rotate(180)" fill="#231f20"/>
  <rect x="794.37" y="618.24" width="13.39" height="13.39" transform="translate(1602.13 1249.87) rotate(180)" fill="#231f20"/>
  <rect x="748.62" y="618.24" width="13.39" height="13.39" transform="translate(1510.63 1249.87) rotate(180)" fill="#231f20"/>
  <rect x="706.46" y="618.24" width="13.39" height="13.39" transform="translate(1426.32 1249.87) rotate(180)" fill="#231f20"/>
  <rect x="1008.52" y="618.24" width="13.39" height="13.39" transform="translate(2030.43 1249.87) rotate(180)" fill="#231f20"/>
  <rect x="1052.18" y="618.24" width="13.39" height="13.39" transform="translate(2117.75 1249.87) rotate(180)" fill="#231f20"/>
  <rect x="966.47" y="618.24" width="13.39" height="13.39" transform="translate(1946.34 1249.87) rotate(180)" fill="#231f20"/>
  <rect x="924.67" y="618.24" width="13.39" height="13.39" transform="translate(1862.72 1249.87) rotate(180)" fill="#231f20"/>
  <rect x="880.7" y="618.24" width="13.39" height="13.39" transform="translate(1774.79 1249.87) rotate(180)" fill="#231f20"/>
  <rect x="533.3" y="618.24" width="13.39" height="13.39" transform="translate(1080 1249.87) rotate(180)" fill="#231f20"/>
  <rect x="491.14" y="618.24" width="13.39" height="13.39" transform="translate(995.67 1249.87) rotate(180)" fill="#231f20"/>
  <rect x="668.35" y="618.24" width="13.39" height="13.39" transform="translate(1350.09 1249.87) rotate(180)" fill="#231f20"/>
  <rect x="624.24" y="618.24" width="13.39" height="13.39" transform="translate(1261.87 1249.87) rotate(180)" fill="#231f20"/>
  <rect x="582.43" y="618.24" width="13.39" height="13.39" transform="translate(1178.26 1249.87) rotate(180)" fill="#231f20"/>
  <rect x="582.43" y="703.22" width="13.39" height="13.39" transform="translate(1178.26 1419.84) rotate(180)" fill="#231f20"/>
  <rect x="447.83" y="533.25" width="13.39" height="13.39" transform="translate(909.06 1079.9) rotate(180)" fill="#231f20"/>
  <rect x="447.83" y="574.67" width="13.39" height="13.39" transform="translate(909.06 1162.73) rotate(180)" fill="#231f20"/>
  <rect x="405.07" y="533.25" width="13.39" height="13.39" transform="translate(823.53 1079.9) rotate(180)" fill="#231f20"/>
  <rect x="405.07" y="574.67" width="13.39" height="13.39" transform="translate(823.53 1162.73) rotate(180)" fill="#231f20"/>
  <rect x="361.65" y="533.25" width="13.39" height="13.39" transform="translate(736.69 1079.9) rotate(180)" fill="#231f20"/>
  <rect x="361.65" y="574.67" width="13.39" height="13.39" transform="translate(736.69 1162.73) rotate(180)" fill="#231f20"/>
  <rect x="317.99" y="533.25" width="13.39" height="13.39" transform="translate(649.38 1079.9) rotate(180)" fill="#231f20"/>
  <rect x="317.99" y="574.67" width="13.39" height="13.39" transform="translate(649.38 1162.73) rotate(180)" fill="#231f20"/>
  <rect x="144.67" y="533.25" width="13.39" height="13.39" transform="translate(302.73 1079.9) rotate(180)" fill="#231f20"/>
  <rect x="144.67" y="574.67" width="13.39" height="13.39" transform="translate(302.73 1162.73) rotate(180)" fill="#231f20"/>
  <rect x="102.59" y="533.25" width="13.39" height="13.39" transform="translate(218.58 1079.9) rotate(180)" fill="#231f20"/>
  <rect x="102.59" y="574.67" width="13.39" height="13.39" transform="translate(218.58 1162.73) rotate(180)" fill="#231f20"/>
  <rect x="58.39" y="533.25" width="13.39" height="13.39" transform="translate(130.18 1079.9) rotate(180)" fill="#231f20"/>
  <rect x="14.46" y="533.25" width="13.39" height="13.39" transform="translate(42.32 1079.9) rotate(180)" fill="#231f20"/>
  <rect x="58.39" y="574.67" width="13.39" height="13.39" transform="translate(130.18 1162.73) rotate(180)" fill="#231f20"/>
  <rect x="14.46" y="574.67" width="13.39" height="13.39" transform="translate(42.32 1162.73) rotate(180)" fill="#231f20"/>
  <rect x="274.12" y="533.25" width="13.39" height="13.39" transform="translate(561.64 1079.9) rotate(180)" fill="#231f20"/>
  <rect x="274.12" y="574.67" width="13.39" height="13.39" transform="translate(561.64 1162.73) rotate(180)" fill="#231f20"/>
  <rect x="231.75" y="533.25" width="13.39" height="13.39" transform="translate(476.88 1079.9) rotate(180)" fill="#231f20"/>
  <rect x="231.75" y="574.67" width="13.39" height="13.39" transform="translate(476.88 1162.73) rotate(180)" fill="#231f20"/>
  <rect x="188.44" y="533.25" width="13.39" height="13.39" transform="translate(390.28 1079.9) rotate(180)" fill="#231f20"/>
  <rect x="188.44" y="574.67" width="13.39" height="13.39" transform="translate(390.28 1162.73) rotate(180)" fill="#231f20"/>
  <rect x="835.23" y="533.46" width="13.39" height="13.39" transform="translate(1683.86 1080.3) rotate(180)" fill="#231f20"/>
  <rect x="835.23" y="574.87" width="13.39" height="13.39" transform="translate(1683.86 1163.14) rotate(180)" fill="#231f20"/>
  <rect x="794.37" y="533.25" width="13.39" height="13.39" transform="translate(1602.13 1079.9) rotate(180)" fill="#231f20"/>
  <rect x="794.37" y="574.67" width="13.39" height="13.39" transform="translate(1602.13 1162.73) rotate(180)" fill="#231f20"/>
  <rect x="748.62" y="533.25" width="13.39" height="13.39" transform="translate(1510.63 1079.9) rotate(180)" fill="#231f20"/>
  <rect x="748.62" y="574.67" width="13.39" height="13.39" transform="translate(1510.63 1162.73) rotate(180)" fill="#231f20"/>
  <rect x="706.46" y="533.25" width="13.39" height="13.39" transform="translate(1426.32 1079.9) rotate(180)" fill="#231f20"/>
  <rect x="706.46" y="574.67" width="13.39" height="13.39" transform="translate(1426.32 1162.73) rotate(180)" fill="#231f20"/>
  <rect x="1008.52" y="533.25" width="13.39" height="13.39" transform="translate(2030.43 1079.9) rotate(180)" fill="#231f20"/>
  <rect x="1008.52" y="574.67" width="13.39" height="13.39" transform="translate(2030.43 1162.73) rotate(180)" fill="#231f20"/>
  <rect x="1052.18" y="533.25" width="13.39" height="13.39" transform="translate(2117.75 1079.9) rotate(180)" fill="#231f20"/>
  <rect x="1052.18" y="574.67" width="13.39" height="13.39" transform="translate(2117.75 1162.73) rotate(180)" fill="#231f20"/>
  <rect x="966.47" y="533.25" width="13.39" height="13.39" transform="translate(1946.34 1079.9) rotate(180)" fill="#231f20"/>
  <rect x="966.47" y="574.67" width="13.39" height="13.39" transform="translate(1946.34 1162.73) rotate(180)" fill="#231f20"/>
  <rect x="924.67" y="533.25" width="13.39" height="13.39" transform="translate(1862.72 1079.9) rotate(180)" fill="#231f20"/>
  <rect x="924.67" y="574.67" width="13.39" height="13.39" transform="translate(1862.72 1162.73) rotate(180)" fill="#231f20"/>
  <rect x="880.7" y="533.25" width="13.39" height="13.39" transform="translate(1774.79 1079.9) rotate(180)" fill="#231f20"/>
  <rect x="880.7" y="574.67" width="13.39" height="13.39" transform="translate(1774.79 1162.73) rotate(180)" fill="#231f20"/>
  <rect x="533.3" y="533.25" width="13.39" height="13.39" transform="translate(1080 1079.9) rotate(180)" fill="#231f20"/>
  <rect x="533.3" y="574.67" width="13.39" height="13.39" transform="translate(1080 1162.73) rotate(180)" fill="#231f20"/>
  <rect x="491.14" y="533.25" width="13.39" height="13.39" transform="translate(995.67 1079.9) rotate(180)" fill="#231f20"/>
  <rect x="491.14" y="574.67" width="13.39" height="13.39" transform="translate(995.67 1162.73) rotate(180)" fill="#231f20"/>
  <rect x="668.35" y="533.25" width="13.39" height="13.39" transform="translate(1350.09 1079.9) rotate(180)" fill="#231f20"/>
  <rect x="668.35" y="574.67" width="13.39" height="13.39" transform="translate(1350.09 1162.73) rotate(180)" fill="#231f20"/>
  <rect x="624.24" y="533.25" width="13.39" height="13.39" transform="translate(1261.87 1079.9) rotate(180)" fill="#231f20"/>
  <rect x="624.24" y="574.67" width="13.39" height="13.39" transform="translate(1261.87 1162.73) rotate(180)" fill="#231f20"/>
  <rect x="582.43" y="533.25" width="13.39" height="13.39" transform="translate(1178.26 1079.9) rotate(180)" fill="#231f20"/>
  <rect x="447.83" y="489.68" width="13.39" height="13.39" transform="translate(909.06 992.76) rotate(180)" fill="#231f20"/>
  <rect x="405.07" y="489.68" width="13.39" height="13.39" transform="translate(823.53 992.76) rotate(180)" fill="#231f20"/>
  <rect x="361.65" y="489.68" width="13.39" height="13.39" transform="translate(736.69 992.76) rotate(180)" fill="#231f20"/>
  <rect x="317.99" y="489.68" width="13.39" height="13.39" transform="translate(649.38 992.76) rotate(180)" fill="#231f20"/>
  <rect x="144.67" y="489.68" width="13.39" height="13.39" transform="translate(302.73 992.76) rotate(180)" fill="#231f20"/>
  <rect x="102.59" y="489.68" width="13.39" height="13.39" transform="translate(218.58 992.76) rotate(180)" fill="#231f20"/>
  <rect x="58.39" y="489.68" width="13.39" height="13.39" transform="translate(130.18 992.76) rotate(180)" fill="#231f20"/>
  <rect x="14.46" y="489.68" width="13.39" height="13.39" transform="translate(42.32 992.76) rotate(180)" fill="#231f20"/>
  <rect x="274.12" y="489.68" width="13.39" height="13.39" transform="translate(561.64 992.76) rotate(180)" fill="#231f20"/>
  <rect x="231.75" y="489.68" width="13.39" height="13.39" transform="translate(476.88 992.76) rotate(180)" fill="#231f20"/>
  <rect x="188.44" y="489.68" width="13.39" height="13.39" transform="translate(390.28 992.76) rotate(180)" fill="#231f20"/>
  <rect x="835.23" y="489.89" width="13.39" height="13.39" transform="translate(1683.86 993.17) rotate(180)" fill="#231f20"/>
  <rect x="794.37" y="489.68" width="13.39" height="13.39" transform="translate(1602.13 992.76) rotate(180)" fill="#231f20"/>
  <rect x="748.62" y="489.68" width="13.39" height="13.39" transform="translate(1510.63 992.76) rotate(180)" fill="#231f20"/>
  <rect x="706.46" y="489.68" width="13.39" height="13.39" transform="translate(1426.32 992.76) rotate(180)" fill="#231f20"/>
  <rect x="1008.52" y="489.68" width="13.39" height="13.39" transform="translate(2030.43 992.76) rotate(180)" fill="#231f20"/>
  <rect x="1052.18" y="489.68" width="13.39" height="13.39" transform="translate(2117.75 992.76) rotate(180)" fill="#231f20"/>
  <rect x="966.47" y="489.68" width="13.39" height="13.39" transform="translate(1946.34 992.76) rotate(180)" fill="#231f20"/>
  <rect x="924.67" y="489.68" width="13.39" height="13.39" transform="translate(1862.72 992.76) rotate(180)" fill="#231f20"/>
  <rect x="880.7" y="489.68" width="13.39" height="13.39" transform="translate(1774.79 992.76) rotate(180)" fill="#231f20"/>
  <rect x="533.3" y="489.68" width="13.39" height="13.39" transform="translate(1080 992.76) rotate(180)" fill="#231f20"/>
  <rect x="491.14" y="489.68" width="13.39" height="13.39" transform="translate(995.67 992.76) rotate(180)" fill="#231f20"/>
  <rect x="668.35" y="489.68" width="13.39" height="13.39" transform="translate(1350.09 992.76) rotate(180)" fill="#231f20"/>
  <rect x="624.24" y="489.68" width="13.39" height="13.39" transform="translate(1261.87 992.76) rotate(180)" fill="#231f20"/>
  <rect x="582.43" y="489.68" width="13.39" height="13.39" transform="translate(1178.26 992.76) rotate(180)" fill="#231f20"/>
  <rect x="582.43" y="574.67" width="13.39" height="13.39" transform="translate(1178.26 1162.73) rotate(180)" fill="#231f20"/>
  <rect x="447.83" y="404.7" width="13.39" height="13.39" transform="translate(909.06 822.79) rotate(180)" fill="#231f20"/>
  <rect x="447.83" y="446.12" width="13.39" height="13.39" transform="translate(909.06 905.63) rotate(180)" fill="#231f20"/>
  <rect x="405.07" y="404.7" width="13.39" height="13.39" transform="translate(823.53 822.79) rotate(180)" fill="#231f20"/>
  <rect x="405.07" y="446.12" width="13.39" height="13.39" transform="translate(823.53 905.63) rotate(180)" fill="#231f20"/>
  <rect x="361.65" y="404.7" width="13.39" height="13.39" transform="translate(736.69 822.79) rotate(180)" fill="#231f20"/>
  <rect x="361.65" y="446.12" width="13.39" height="13.39" transform="translate(736.69 905.63) rotate(180)" fill="#231f20"/>
  <rect x="317.99" y="404.7" width="13.39" height="13.39" transform="translate(649.38 822.79) rotate(180)" fill="#231f20"/>
  <rect x="317.99" y="446.12" width="13.39" height="13.39" transform="translate(649.38 905.63) rotate(180)" fill="#231f20"/>
  <rect x="144.67" y="404.7" width="13.39" height="13.39" transform="translate(302.73 822.79) rotate(180)" fill="#231f20"/>
  <rect x="144.67" y="446.12" width="13.39" height="13.39" transform="translate(302.73 905.63) rotate(180)" fill="#231f20"/>
  <rect x="102.59" y="404.7" width="13.39" height="13.39" transform="translate(218.58 822.79) rotate(180)" fill="#231f20"/>
  <rect x="102.59" y="446.12" width="13.39" height="13.39" transform="translate(218.58 905.63) rotate(180)" fill="#231f20"/>
  <rect x="58.39" y="404.7" width="13.39" height="13.39" transform="translate(130.18 822.79) rotate(180)" fill="#231f20"/>
  <rect x="14.46" y="404.7" width="13.39" height="13.39" transform="translate(42.32 822.79) rotate(180)" fill="#231f20"/>
  <rect x="58.39" y="446.12" width="13.39" height="13.39" transform="translate(130.18 905.63) rotate(180)" fill="#231f20"/>
  <rect x="14.46" y="446.12" width="13.39" height="13.39" transform="translate(42.32 905.63) rotate(180)" fill="#231f20"/>
  <rect x="274.12" y="404.7" width="13.39" height="13.39" transform="translate(561.64 822.79) rotate(180)" fill="#231f20"/>
  <rect x="274.12" y="446.12" width="13.39" height="13.39" transform="translate(561.64 905.63) rotate(180)" fill="#231f20"/>
  <rect x="231.75" y="404.7" width="13.39" height="13.39" transform="translate(476.88 822.79) rotate(180)" fill="#231f20"/>
  <rect x="231.75" y="446.12" width="13.39" height="13.39" transform="translate(476.88 905.63) rotate(180)" fill="#231f20"/>
  <rect x="188.44" y="404.7" width="13.39" height="13.39" transform="translate(390.28 822.79) rotate(180)" fill="#231f20"/>
  <rect x="188.44" y="446.12" width="13.39" height="13.39" transform="translate(390.28 905.63) rotate(180)" fill="#231f20"/>
  <rect x="835.23" y="404.9" width="13.39" height="13.39" transform="translate(1683.86 823.2) rotate(180)" fill="#231f20"/>
  <rect x="835.23" y="446.32" width="13.39" height="13.39" transform="translate(1683.86 906.03) rotate(180)" fill="#231f20"/>
  <rect x="794.37" y="404.7" width="13.39" height="13.39" transform="translate(1602.13 822.79) rotate(180)" fill="#231f20"/>
  <rect x="794.37" y="446.12" width="13.39" height="13.39" transform="translate(1602.13 905.63) rotate(180)" fill="#231f20"/>
  <rect x="748.62" y="404.7" width="13.39" height="13.39" transform="translate(1510.63 822.79) rotate(180)" fill="#231f20"/>
  <rect x="748.62" y="446.12" width="13.39" height="13.39" transform="translate(1510.63 905.63) rotate(180)" fill="#231f20"/>
  <rect x="706.46" y="404.7" width="13.39" height="13.39" transform="translate(1426.32 822.79) rotate(180)" fill="#231f20"/>
  <rect x="706.46" y="446.12" width="13.39" height="13.39" transform="translate(1426.32 905.63) rotate(180)" fill="#231f20"/>
  <rect x="1008.52" y="404.7" width="13.39" height="13.39" transform="translate(2030.43 822.79) rotate(180)" fill="#231f20"/>
  <rect x="1008.52" y="446.12" width="13.39" height="13.39" transform="translate(2030.43 905.63) rotate(180)" fill="#231f20"/>
  <rect x="1052.18" y="404.7" width="13.39" height="13.39" transform="translate(2117.75 822.79) rotate(180)" fill="#231f20"/>
  <rect x="1052.18" y="446.12" width="13.39" height="13.39" transform="translate(2117.75 905.63) rotate(180)" fill="#231f20"/>
  <rect x="966.47" y="404.7" width="13.39" height="13.39" transform="translate(1946.34 822.79) rotate(180)" fill="#231f20"/>
  <rect x="966.47" y="446.12" width="13.39" height="13.39" transform="translate(1946.34 905.63) rotate(180)" fill="#231f20"/>
  <rect x="924.67" y="404.7" width="13.39" height="13.39" transform="translate(1862.72 822.79) rotate(180)" fill="#231f20"/>
  <rect x="924.67" y="446.12" width="13.39" height="13.39" transform="translate(1862.72 905.63) rotate(180)" fill="#231f20"/>
  <rect x="880.7" y="404.7" width="13.39" height="13.39" transform="translate(1774.79 822.79) rotate(180)" fill="#231f20"/>
  <rect x="880.7" y="446.12" width="13.39" height="13.39" transform="translate(1774.79 905.63) rotate(180)" fill="#231f20"/>
  <rect x="533.3" y="404.7" width="13.39" height="13.39" transform="translate(1080 822.79) rotate(180)" fill="#231f20"/>
  <rect x="533.3" y="446.12" width="13.39" height="13.39" transform="translate(1080 905.63) rotate(180)" fill="#231f20"/>
  <rect x="491.14" y="404.7" width="13.39" height="13.39" transform="translate(995.67 822.79) rotate(180)" fill="#231f20"/>
  <rect x="491.14" y="446.12" width="13.39" height="13.39" transform="translate(995.67 905.63) rotate(180)" fill="#231f20"/>
  <rect x="668.35" y="404.7" width="13.39" height="13.39" transform="translate(1350.09 822.79) rotate(180)" fill="#231f20"/>
  <rect x="668.35" y="446.12" width="13.39" height="13.39" transform="translate(1350.09 905.63) rotate(180)" fill="#231f20"/>
  <rect x="624.24" y="404.7" width="13.39" height="13.39" transform="translate(1261.87 822.79) rotate(180)" fill="#231f20"/>
  <rect x="624.24" y="446.12" width="13.39" height="13.39" transform="translate(1261.87 905.63) rotate(180)" fill="#231f20"/>
  <rect x="582.43" y="404.7" width="13.39" height="13.39" transform="translate(1178.26 822.79) rotate(180)" fill="#231f20"/>
  <rect x="447.83" y="361.13" width="13.39" height="13.39" transform="translate(909.06 735.66) rotate(180)" fill="#231f20"/>
  <rect x="405.07" y="361.13" width="13.39" height="13.39" transform="translate(823.53 735.66) rotate(180)" fill="#231f20"/>
  <rect x="361.65" y="361.13" width="13.39" height="13.39" transform="translate(736.69 735.66) rotate(180)" fill="#231f20"/>
  <rect x="317.99" y="361.13" width="13.39" height="13.39" transform="translate(649.38 735.66) rotate(180)" fill="#231f20"/>
  <rect x="144.67" y="361.13" width="13.39" height="13.39" transform="translate(302.73 735.66) rotate(180)" fill="#231f20"/>
  <rect x="102.59" y="361.13" width="13.39" height="13.39" transform="translate(218.58 735.66) rotate(180)" fill="#231f20"/>
  <rect x="58.39" y="361.13" width="13.39" height="13.39" transform="translate(130.18 735.66) rotate(180)" fill="#231f20"/>
  <rect x="14.46" y="361.13" width="13.39" height="13.39" transform="translate(42.32 735.66) rotate(180)" fill="#231f20"/>
  <rect x="274.12" y="361.13" width="13.39" height="13.39" transform="translate(561.64 735.66) rotate(180)" fill="#231f20"/>
  <rect x="231.75" y="361.13" width="13.39" height="13.39" transform="translate(476.88 735.66) rotate(180)" fill="#231f20"/>
  <rect x="188.44" y="361.13" width="13.39" height="13.39" transform="translate(390.28 735.66) rotate(180)" fill="#231f20"/>
  <rect x="835.23" y="361.33" width="13.39" height="13.39" transform="translate(1683.86 736.06) rotate(180)" fill="#231f20"/>
  <rect x="794.37" y="361.13" width="13.39" height="13.39" transform="translate(1602.13 735.66) rotate(180)" fill="#231f20"/>
  <rect x="748.62" y="361.13" width="13.39" height="13.39" transform="translate(1510.63 735.66) rotate(180)" fill="#231f20"/>
  <rect x="706.46" y="361.13" width="13.39" height="13.39" transform="translate(1426.32 735.66) rotate(180)" fill="#231f20"/>
  <rect x="1008.52" y="361.13" width="13.39" height="13.39" transform="translate(2030.43 735.66) rotate(180)" fill="#231f20"/>
  <rect x="1052.18" y="361.13" width="13.39" height="13.39" transform="translate(2117.75 735.66) rotate(180)" fill="#231f20"/>
  <rect x="966.47" y="361.13" width="13.39" height="13.39" transform="translate(1946.34 735.66) rotate(180)" fill="#231f20"/>
  <rect x="924.67" y="361.13" width="13.39" height="13.39" transform="translate(1862.72 735.66) rotate(180)" fill="#231f20"/>
  <rect x="880.7" y="361.13" width="13.39" height="13.39" transform="translate(1774.79 735.66) rotate(180)" fill="#231f20"/>
  <rect x="533.3" y="361.13" width="13.39" height="13.39" transform="translate(1080 735.66) rotate(180)" fill="#231f20"/>
  <rect x="491.14" y="361.13" width="13.39" height="13.39" transform="translate(995.67 735.66) rotate(180)" fill="#231f20"/>
  <rect x="668.35" y="361.13" width="13.39" height="13.39" transform="translate(1350.09 735.66) rotate(180)" fill="#231f20"/>
  <rect x="624.24" y="361.13" width="13.39" height="13.39" transform="translate(1261.87 735.66) rotate(180)" fill="#231f20"/>
  <rect x="582.43" y="361.13" width="13.39" height="13.39" transform="translate(1178.26 735.66) rotate(180)" fill="#231f20"/>
  <rect x="582.43" y="446.12" width="13.39" height="13.39" transform="translate(1178.26 905.63) rotate(180)" fill="#231f20"/>
  <rect x="447.83" y="276.15" width="13.39" height="13.39" transform="translate(909.06 565.69) rotate(180)" fill="#231f20"/>
  <rect x="447.83" y="317.56" width="13.39" height="13.39" transform="translate(909.06 648.52) rotate(180)" fill="#231f20"/>
  <rect x="405.07" y="276.15" width="13.39" height="13.39" transform="translate(823.53 565.69) rotate(180)" fill="#231f20"/>
  <rect x="405.07" y="317.56" width="13.39" height="13.39" transform="translate(823.53 648.52) rotate(180)" fill="#231f20"/>
  <rect x="361.65" y="276.15" width="13.39" height="13.39" transform="translate(736.69 565.69) rotate(180)" fill="#231f20"/>
  <rect x="361.65" y="317.56" width="13.39" height="13.39" transform="translate(736.69 648.52) rotate(180)" fill="#231f20"/>
  <rect x="317.99" y="276.15" width="13.39" height="13.39" transform="translate(649.38 565.69) rotate(180)" fill="#231f20"/>
  <rect x="317.99" y="317.56" width="13.39" height="13.39" transform="translate(649.38 648.52) rotate(180)" fill="#231f20"/>
  <rect x="144.67" y="276.15" width="13.39" height="13.39" transform="translate(302.73 565.69) rotate(180)" fill="#231f20"/>
  <rect x="144.67" y="317.56" width="13.39" height="13.39" transform="translate(302.73 648.52) rotate(180)" fill="#231f20"/>
  <rect x="102.59" y="276.15" width="13.39" height="13.39" transform="translate(218.58 565.69) rotate(180)" fill="#231f20"/>
  <rect x="102.59" y="317.56" width="13.39" height="13.39" transform="translate(218.58 648.52) rotate(180)" fill="#231f20"/>
  <rect x="58.39" y="276.15" width="13.39" height="13.39" transform="translate(130.18 565.69) rotate(180)" fill="#231f20"/>
  <rect x="14.46" y="276.15" width="13.39" height="13.39" transform="translate(42.32 565.69) rotate(180)" fill="#231f20"/>
  <rect x="58.39" y="317.56" width="13.39" height="13.39" transform="translate(130.18 648.52) rotate(180)" fill="#231f20"/>
  <rect x="14.46" y="317.56" width="13.39" height="13.39" transform="translate(42.32 648.52) rotate(180)" fill="#231f20"/>
  <rect x="274.12" y="276.15" width="13.39" height="13.39" transform="translate(561.64 565.69) rotate(180)" fill="#231f20"/>
  <rect x="274.12" y="317.56" width="13.39" height="13.39" transform="translate(561.64 648.52) rotate(180)" fill="#231f20"/>
  <rect x="231.75" y="276.15" width="13.39" height="13.39" transform="translate(476.88 565.69) rotate(180)" fill="#231f20"/>
  <rect x="231.75" y="317.56" width="13.39" height="13.39" transform="translate(476.88 648.52) rotate(180)" fill="#231f20"/>
  <rect x="188.44" y="276.15" width="13.39" height="13.39" transform="translate(390.28 565.69) rotate(180)" fill="#231f20"/>
  <rect x="188.44" y="317.56" width="13.39" height="13.39" transform="translate(390.28 648.52) rotate(180)" fill="#231f20"/>
  <rect x="835.23" y="276.35" width="13.39" height="13.39" transform="translate(1683.86 566.09) rotate(180)" fill="#231f20"/>
  <rect x="835.23" y="317.76" width="13.39" height="13.39" transform="translate(1683.86 648.92) rotate(180)" fill="#231f20"/>
  <rect x="794.37" y="276.15" width="13.39" height="13.39" transform="translate(1602.13 565.69) rotate(180)" fill="#231f20"/>
  <rect x="794.37" y="317.56" width="13.39" height="13.39" transform="translate(1602.13 648.52) rotate(180)" fill="#231f20"/>
  <rect x="748.62" y="276.15" width="13.39" height="13.39" transform="translate(1510.63 565.69) rotate(180)" fill="#231f20"/>
  <rect x="748.62" y="317.56" width="13.39" height="13.39" transform="translate(1510.63 648.52) rotate(180)" fill="#231f20"/>
  <rect x="706.46" y="276.15" width="13.39" height="13.39" transform="translate(1426.32 565.69) rotate(180)" fill="#231f20"/>
  <rect x="706.46" y="317.56" width="13.39" height="13.39" transform="translate(1426.32 648.52) rotate(180)" fill="#231f20"/>
  <rect x="1008.52" y="276.15" width="13.39" height="13.39" transform="translate(2030.43 565.69) rotate(180)" fill="#231f20"/>
  <rect x="1008.52" y="317.56" width="13.39" height="13.39" transform="translate(2030.43 648.52) rotate(180)" fill="#231f20"/>
  <rect x="1052.18" y="276.15" width="13.39" height="13.39" transform="translate(2117.75 565.69) rotate(180)" fill="#231f20"/>
  <rect x="1052.18" y="317.56" width="13.39" height="13.39" transform="translate(2117.75 648.52) rotate(180)" fill="#231f20"/>
  <rect x="966.47" y="276.15" width="13.39" height="13.39" transform="translate(1946.34 565.69) rotate(180)" fill="#231f20"/>
  <rect x="966.47" y="317.56" width="13.39" height="13.39" transform="translate(1946.34 648.52) rotate(180)" fill="#231f20"/>
  <rect x="924.67" y="276.15" width="13.39" height="13.39" transform="translate(1862.72 565.69) rotate(180)" fill="#231f20"/>
  <rect x="924.67" y="317.56" width="13.39" height="13.39" transform="translate(1862.72 648.52) rotate(180)" fill="#231f20"/>
  <rect x="880.7" y="276.15" width="13.39" height="13.39" transform="translate(1774.79 565.69) rotate(180)" fill="#231f20"/>
  <rect x="880.7" y="317.56" width="13.39" height="13.39" transform="translate(1774.79 648.52) rotate(180)" fill="#231f20"/>
  <rect x="533.3" y="276.15" width="13.39" height="13.39" transform="translate(1080 565.69) rotate(180)" fill="#231f20"/>
  <rect x="533.3" y="317.56" width="13.39" height="13.39" transform="translate(1080 648.52) rotate(180)" fill="#231f20"/>
  <rect x="491.14" y="276.15" width="13.39" height="13.39" transform="translate(995.67 565.69) rotate(180)" fill="#231f20"/>
  <rect x="491.14" y="317.56" width="13.39" height="13.39" transform="translate(995.67 648.52) rotate(180)" fill="#231f20"/>
  <rect x="668.35" y="276.15" width="13.39" height="13.39" transform="translate(1350.09 565.69) rotate(180)" fill="#231f20"/>
  <rect x="668.35" y="317.56" width="13.39" height="13.39" transform="translate(1350.09 648.52) rotate(180)" fill="#231f20"/>
  <rect x="624.24" y="276.15" width="13.39" height="13.39" transform="translate(1261.87 565.69) rotate(180)" fill="#231f20"/>
  <rect x="624.24" y="317.56" width="13.39" height="13.39" transform="translate(1261.87 648.52) rotate(180)" fill="#231f20"/>
  <rect x="582.43" y="276.15" width="13.39" height="13.39" transform="translate(1178.26 565.69) rotate(180)" fill="#231f20"/>
  <rect x="447.83" y="232.58" width="13.39" height="13.39" transform="translate(909.06 478.55) rotate(180)" fill="#231f20"/>
  <rect x="405.07" y="232.58" width="13.39" height="13.39" transform="translate(823.53 478.55) rotate(180)" fill="#231f20"/>
  <rect x="361.65" y="232.58" width="13.39" height="13.39" transform="translate(736.69 478.55) rotate(180)" fill="#231f20"/>
  <rect x="317.99" y="232.58" width="13.39" height="13.39" transform="translate(649.38 478.55) rotate(180)" fill="#231f20"/>
  <rect x="144.67" y="232.58" width="13.39" height="13.39" transform="translate(302.73 478.55) rotate(180)" fill="#231f20"/>
  <rect x="102.59" y="232.58" width="13.39" height="13.39" transform="translate(218.58 478.55) rotate(180)" fill="#231f20"/>
  <rect x="58.39" y="232.58" width="13.39" height="13.39" transform="translate(130.18 478.55) rotate(180)" fill="#231f20"/>
  <rect x="14.46" y="232.58" width="13.39" height="13.39" transform="translate(42.32 478.55) rotate(180)" fill="#231f20"/>
  <rect x="58.39" y="185.9" width="13.39" height="13.39" transform="translate(130.18 385.19) rotate(180)" fill="#231f20"/>
  <rect x="14.46" y="185.9" width="13.39" height="13.39" transform="translate(42.32 385.19) rotate(180)" fill="#231f20"/>
  <rect x="58.39" y="142.33" width="13.39" height="13.39" transform="translate(130.18 298.06) rotate(180)" fill="#231f20"/>
  <rect x="102.59" y="142.33" width="13.39" height="13.39" transform="translate(218.58 298.06) rotate(180)" fill="#231f20"/>
  <rect x="14.46" y="142.33" width="13.39" height="13.39" transform="translate(42.32 298.06) rotate(180)" fill="#231f20"/>
  <rect x="14.46" y="56.3" width="13.39" height="13.39" transform="translate(42.32 125.99) rotate(180)" fill="#231f20"/>
  <rect x="14.46" y="12.73" width="13.39" height="13.39" transform="translate(42.32 38.86) rotate(180)" fill="#231f20"/>
  <rect x="274.12" y="232.58" width="13.39" height="13.39" transform="translate(561.64 478.55) rotate(180)" fill="#231f20"/>
  <rect x="231.75" y="232.58" width="13.39" height="13.39" transform="translate(476.88 478.55) rotate(180)" fill="#231f20"/>
  <rect x="188.44" y="232.58" width="13.39" height="13.39" transform="translate(390.28 478.55) rotate(180)" fill="#231f20"/>
  <rect x="835.23" y="232.78" width="13.39" height="13.39" transform="translate(1683.86 478.95) rotate(180)" fill="#231f20"/>
  <rect x="835.23" y="186.1" width="13.39" height="13.39" transform="translate(1683.86 385.6) rotate(180)" fill="#231f20"/>
  <rect x="835.23" y="142.53" width="13.39" height="13.39" transform="translate(1683.86 298.46) rotate(180)" fill="#231f20"/>
  <rect x="794.37" y="232.58" width="13.39" height="13.39" transform="translate(1602.13 478.55) rotate(180)" fill="#231f20"/>
  <rect x="748.62" y="232.58" width="13.39" height="13.39" transform="translate(1510.63 478.55) rotate(180)" fill="#231f20"/>
  <rect x="706.46" y="232.58" width="13.39" height="13.39" transform="translate(1426.32 478.55) rotate(180)" fill="#231f20"/>
  <rect x="1008.52" y="232.58" width="13.39" height="13.39" transform="translate(2030.43 478.55) rotate(180)" fill="#231f20"/>
  <rect x="1052.18" y="232.58" width="13.39" height="13.39" transform="translate(2117.75 478.55) rotate(180)" fill="#231f20"/>
  <rect x="966.47" y="232.58" width="13.39" height="13.39" transform="translate(1946.34 478.55) rotate(180)" fill="#231f20"/>
  <rect x="924.67" y="232.58" width="13.39" height="13.39" transform="translate(1862.72 478.55) rotate(180)" fill="#231f20"/>
  <rect x="880.7" y="232.58" width="13.39" height="13.39" transform="translate(1774.79 478.55) rotate(180)" fill="#231f20"/>
  <rect x="533.3" y="232.58" width="13.39" height="13.39" transform="translate(1080 478.55) rotate(180)" fill="#231f20"/>
  <rect x="491.14" y="232.58" width="13.39" height="13.39" transform="translate(995.67 478.55) rotate(180)" fill="#231f20"/>
  <rect x="668.35" y="232.58" width="13.39" height="13.39" transform="translate(1350.09 478.55) rotate(180)" fill="#231f20"/>
  <rect x="624.24" y="232.58" width="13.39" height="13.39" transform="translate(1261.87 478.55) rotate(180)" fill="#231f20"/>
  <rect x="582.43" y="232.58" width="13.39" height="13.39" transform="translate(1178.26 478.55) rotate(180)" fill="#231f20"/>
  <rect x="447.83" y="185.9" width="13.39" height="13.39" transform="translate(909.06 385.19) rotate(180)" fill="#231f20"/>
  <rect x="405.07" y="185.9" width="13.39" height="13.39" transform="translate(823.53 385.19) rotate(180)" fill="#231f20"/>
  <rect x="361.65" y="185.9" width="13.39" height="13.39" transform="translate(736.69 385.19) rotate(180)" fill="#231f20"/>
  <rect x="317.99" y="185.9" width="13.39" height="13.39" transform="translate(649.38 385.19) rotate(180)" fill="#231f20"/>
  <rect x="274.12" y="185.9" width="13.39" height="13.39" transform="translate(561.64 385.19) rotate(180)" fill="#231f20"/>
  <rect x="794.37" y="185.9" width="13.39" height="13.39" transform="translate(1602.13 385.19) rotate(180)" fill="#231f20"/>
  <rect x="966.56" y="185.9" width="13.39" height="13.39" transform="translate(1946.51 385.19) rotate(180)" fill="#231f20"/>
  <rect x="924.75" y="185.9" width="13.39" height="13.39" transform="translate(1862.89 385.19) rotate(180)" fill="#231f20"/>
  <rect x="748.62" y="185.9" width="13.39" height="13.39" transform="translate(1510.63 385.19) rotate(180)" fill="#231f20"/>
  <rect x="706.46" y="185.9" width="13.39" height="13.39" transform="translate(1426.32 385.19) rotate(180)" fill="#231f20"/>
  <rect x="533.3" y="185.9" width="13.39" height="13.39" transform="translate(1080 385.19) rotate(180)" fill="#231f20"/>
  <rect x="491.14" y="185.9" width="13.39" height="13.39" transform="translate(995.67 385.19) rotate(180)" fill="#231f20"/>
  <rect x="668.35" y="185.9" width="13.39" height="13.39" transform="translate(1350.09 385.19) rotate(180)" fill="#231f20"/>
  <rect x="624.24" y="185.9" width="13.39" height="13.39" transform="translate(1261.87 385.19) rotate(180)" fill="#231f20"/>
  <rect x="582.43" y="185.9" width="13.39" height="13.39" transform="translate(1178.26 385.19) rotate(180)" fill="#231f20"/>
  <rect x="447.83" y="142.33" width="13.39" height="13.39" transform="translate(909.06 298.06) rotate(180)" fill="#231f20"/>
  <rect x="405.07" y="142.33" width="13.39" height="13.39" transform="translate(823.53 298.06) rotate(180)" fill="#231f20"/>
  <rect x="361.65" y="142.33" width="13.39" height="13.39" transform="translate(736.69 298.06) rotate(180)" fill="#231f20"/>
  <rect x="317.99" y="142.33" width="13.39" height="13.39" transform="translate(649.38 298.06) rotate(180)" fill="#231f20"/>
  <rect x="274.12" y="142.33" width="13.39" height="13.39" transform="translate(561.64 298.06) rotate(180)" fill="#231f20"/>
  <rect x="794.37" y="142.33" width="13.39" height="13.39" transform="translate(1602.13 298.06) rotate(180)" fill="#231f20"/>
  <rect x="748.62" y="142.33" width="13.39" height="13.39" transform="translate(1510.63 298.06) rotate(180)" fill="#231f20"/>
  <rect x="706.46" y="142.33" width="13.39" height="13.39" transform="translate(1426.32 298.06) rotate(180)" fill="#231f20"/>
  <rect x="533.3" y="142.33" width="13.39" height="13.39" transform="translate(1080 298.06) rotate(180)" fill="#231f20"/>
  <rect x="491.14" y="142.33" width="13.39" height="13.39" transform="translate(995.67 298.06) rotate(180)" fill="#231f20"/>
  <rect x="447.83" y="99.5" width="13.39" height="13.39" transform="translate(909.06 212.39) rotate(180)" fill="#231f20"/>
  <rect x="405.07" y="99.5" width="13.39" height="13.39" transform="translate(823.53 212.39) rotate(180)" fill="#231f20"/>
  <rect x="361.65" y="99.5" width="13.39" height="13.39" transform="translate(736.69 212.39) rotate(180)" fill="#231f20"/>
  <rect x="317.99" y="99.5" width="13.39" height="13.39" transform="translate(649.38 212.39) rotate(180)" fill="#231f20"/>
  <rect x="274.12" y="99.5" width="13.39" height="13.39" transform="translate(561.64 212.39) rotate(180)" fill="#231f20"/>
  <rect x="533.3" y="99.5" width="13.39" height="13.39" transform="translate(1080 212.39) rotate(180)" fill="#231f20"/>
  <rect x="491.14" y="99.5" width="13.39" height="13.39" transform="translate(995.67 212.39) rotate(180)" fill="#231f20"/>
  <rect x="447.83" y="55.93" width="13.39" height="13.39" transform="translate(909.06 125.26) rotate(180)" fill="#231f20"/>
  <rect x="405.07" y="55.93" width="13.39" height="13.39" transform="translate(823.53 125.26) rotate(180)" fill="#231f20"/>
  <rect x="361.65" y="55.93" width="13.39" height="13.39" transform="translate(736.69 125.26) rotate(180)" fill="#231f20"/>
  <rect x="533.3" y="55.93" width="13.39" height="13.39" transform="translate(1080 125.26) rotate(180)" fill="#231f20"/>
  <rect x="491.14" y="55.93" width="13.39" height="13.39" transform="translate(995.67 125.26) rotate(180)" fill="#231f20"/>
  <rect x="668.35" y="142.33" width="13.39" height="13.39" transform="translate(1350.09 298.06) rotate(180)" fill="#231f20"/>
  <rect x="624.24" y="142.33" width="13.39" height="13.39" transform="translate(1261.87 298.06) rotate(180)" fill="#231f20"/>
  <rect x="624.24" y="98.76" width="13.39" height="13.39" transform="translate(1261.87 210.92) rotate(180)" fill="#231f20"/>
  <rect x="624.24" y="55.19" width="13.39" height="13.39" transform="translate(1261.87 123.78) rotate(180)" fill="#231f20"/>
  <rect x="582.43" y="142.33" width="13.39" height="13.39" transform="translate(1178.26 298.06) rotate(180)" fill="#231f20"/>
  <rect x="582.43" y="317.56" width="13.39" height="13.39" transform="translate(1178.26 648.52) rotate(180)" fill="#231f20"/>
  <rect x="144.67" y="1004.5" width="13.39" height="13.39" transform="translate(302.73 2022.39) rotate(180)" fill="#231f20"/>
  <rect x="144.67" y="1045.91" width="13.39" height="13.39" transform="translate(302.73 2105.22) rotate(180)" fill="#231f20"/>
  <rect x="102.59" y="1004.5" width="13.39" height="13.39" transform="translate(218.58 2022.39) rotate(180)" fill="#231f20"/>
  <rect x="102.59" y="1045.91" width="13.39" height="13.39" transform="translate(218.58 2105.22) rotate(180)" fill="#231f20"/>
  <rect x="14.46" y="1004.5" width="13.39" height="13.39" transform="translate(42.32 2022.39) rotate(180)" fill="#231f20"/>
  <rect x="58.39" y="1004.5" width="13.39" height="13.39" transform="translate(130.18 2022.39) rotate(180)" fill="#231f20"/>
  <rect x="58.39" y="1045.91" width="13.39" height="13.39" transform="translate(130.18 2105.22) rotate(180)" fill="#231f20"/>
  <rect x="231.75" y="1004.5" width="13.39" height="13.39" transform="translate(476.88 2022.39) rotate(180)" fill="#231f20"/>
  <rect x="231.75" y="1045.91" width="13.39" height="13.39" transform="translate(476.88 2105.22) rotate(180)" fill="#231f20"/>
  <rect x="188.44" y="1004.5" width="13.39" height="13.39" transform="translate(390.28 2022.39) rotate(180)" fill="#231f20"/>
  <rect x="188.44" y="1045.91" width="13.39" height="13.39" transform="translate(390.28 2105.22) rotate(180)" fill="#231f20"/>
  <rect x="748.62" y="919.51" width="13.39" height="13.39" transform="translate(1510.63 1852.41) rotate(180)" fill="#231f20"/>
  <rect x="748.62" y="960.93" width="13.39" height="13.39" transform="translate(1510.63 1935.25) rotate(180)" fill="#231f20"/>
  <rect x="706.46" y="919.51" width="13.39" height="13.39" transform="translate(1426.32 1852.41) rotate(180)" fill="#231f20"/>
  <rect x="706.46" y="960.93" width="13.39" height="13.39" transform="translate(1426.32 1935.25) rotate(180)" fill="#231f20"/>
  <rect x="835.23" y="919.71" width="13.39" height="13.39" transform="translate(1683.86 1852.82) rotate(180)" fill="#231f20"/>
  <rect x="835.23" y="961.13" width="13.39" height="13.39" transform="translate(1683.86 1935.65) rotate(180)" fill="#231f20"/>
  <rect x="794.37" y="919.51" width="13.39" height="13.39" transform="translate(1602.13 1852.41) rotate(180)" fill="#231f20"/>
  <rect x="794.37" y="960.93" width="13.39" height="13.39" transform="translate(1602.13 1935.25) rotate(180)" fill="#231f20"/>
  <rect x="926.49" y="919.51" width="13.39" height="13.39" transform="translate(1866.37 1852.41) rotate(180)" fill="#231f20"/>
  <rect x="926.49" y="960.93" width="13.39" height="13.39" transform="translate(1866.37 1935.25) rotate(180)" fill="#231f20"/>
  <rect x="880.7" y="919.51" width="13.39" height="13.39" transform="translate(1774.79 1852.41) rotate(180)" fill="#231f20"/>
  <rect x="880.7" y="960.93" width="13.39" height="13.39" transform="translate(1774.79 1935.25) rotate(180)" fill="#231f20"/>
  <rect x="1008.52" y="919.51" width="13.39" height="13.39" transform="translate(2030.43 1852.41) rotate(180)" fill="#231f20"/>
  <rect x="1008.52" y="960.93" width="13.39" height="13.39" transform="translate(2030.43 1935.25) rotate(180)" fill="#231f20"/>
  <rect x="1052.18" y="919.51" width="13.39" height="13.39" transform="translate(2117.75 1852.41) rotate(180)" fill="#231f20"/>
  <rect x="1052.18" y="960.93" width="13.39" height="13.39" transform="translate(2117.75 1935.25) rotate(180)" fill="#231f20"/>
  <rect x="1052.18" y="834.61" width="13.39" height="13.39" transform="translate(2117.75 1682.61) rotate(180)" fill="#231f20"/>
  <rect x="1052.18" y="876.02" width="13.39" height="13.39" transform="translate(2117.75 1765.44) rotate(180)" fill="#231f20"/>
  <rect x="968.04" y="919.51" width="13.39" height="13.39" transform="translate(1949.48 1852.41) rotate(180)" fill="#231f20"/>
  <rect x="968.04" y="960.93" width="13.39" height="13.39" transform="translate(1949.48 1935.25) rotate(180)" fill="#231f20"/>
  <rect x="1008.52" y="1009.34" width="13.39" height="13.39" transform="translate(2030.43 2032.07) rotate(180)" fill="#231f20"/>
  <rect x="1008.52" y="1050.75" width="13.39" height="13.39" transform="translate(2030.43 2114.9) rotate(180)" fill="#231f20"/>
  <rect x="968.04" y="1009.34" width="13.39" height="13.39" transform="translate(1949.48 2032.07) rotate(180)" fill="#231f20"/>
  <rect x="968.04" y="1050.75" width="13.39" height="13.39" transform="translate(1949.48 2114.9) rotate(180)" fill="#231f20"/>
  <rect x="753.2" y="1048.95" width="13.39" height="13.39" transform="translate(1519.79 2111.29) rotate(180)" fill="#231f20"/>
  <rect x="835.23" y="1049.15" width="13.39" height="13.39" transform="translate(1683.86 2111.69) rotate(180)" fill="#231f20"/>
  <rect x="880.7" y="1048.95" width="13.39" height="13.39" transform="translate(1774.79 2111.29) rotate(180)" fill="#231f20"/>
</svg>