<?xml version="1.0" encoding="UTF-8"?>
<svg id="_15" data-name="15" xmlns="http://www.w3.org/2000/svg" viewBox="0 0 1080 1080">
  <rect x="86.58" y="603.56" width="40.84" height="40.84" fill="#231f20"/>
  <rect x="43.41" y="993.02" width="40.84" height="40.84" fill="#231f20"/>
  <rect x="86.83" y="993.02" width="40.84" height="40.84" fill="#231f20"/>
  <rect x="43.41" y="949.5" width="40.84" height="40.84" fill="#231f20"/>
  <rect y="993.02" width="40.84" height="40.84" fill="#231f20"/>
  <rect x="173.04" y="993.02" width="40.84" height="40.84" fill="#231f20"/>
  <rect x="216.23" y="993.02" width="40.84" height="40.84" fill="#231f20"/>
  <rect x="259.74" y="993.02" width="40.84" height="40.84" fill="#231f20"/>
  <rect x="302.52" y="993.02" width="40.84" height="40.84" fill="#231f20"/>
  <rect x="561.65" y="776.8" width="40.84" height="40.84" fill="#231f20"/>
  <rect x="475.54" y="776.8" width="40.84" height="40.84" fill="#231f20"/>
  <rect x="345.68" y="733.84" width="40.84" height="40.84" fill="#231f20"/>
  <rect x="302.69" y="776.8" width="40.84" height="40.84" fill="#231f20"/>
  <rect x="302.69" y="820.59" width="40.84" height="40.84" fill="#231f20"/>
  <rect x="216.23" y="819.94" width="40.84" height="40.84" fill="#231f20"/>
  <rect x="216.23" y="863.73" width="40.84" height="40.84" fill="#231f20"/>
  <rect x="345.68" y="776.96" width="40.84" height="40.84" fill="#231f20"/>
  <rect x="129.77" y="733.72" width="40.84" height="40.84" fill="#231f20"/>
  <rect x="86.93" y="776.8" width="40.84" height="40.84" fill="#231f20"/>
  <rect x="129.77" y="776.8" width="40.84" height="40.84" fill="#231f20"/>
  <rect x="388.93" y="776.8" width="40.84" height="40.84" fill="#231f20"/>
  <rect x="345.52" y="820.59" width="40.84" height="40.84" fill="#231f20"/>
  <rect x="475.45" y="992.93" width="40.84" height="40.84" fill="#231f20"/>
  <rect x="432.21" y="1036" width="40.84" height="40.84" fill="#231f20"/>
  <rect x="604.91" y="1036" width="40.84" height="40.84" fill="#231f20"/>
  <rect x="648" y="1036" width="40.84" height="40.84" fill="#231f20"/>
  <rect x="993.6" y="1036" width="40.84" height="40.84" fill="#231f20"/>
  <rect x="1036.69" y="1036" width="40.84" height="40.84" fill="#231f20"/>
  <rect x="907.5" y="863.57" width="40.84" height="40.84" fill="#231f20"/>
  <rect x="950.9" y="863.47" width="40.84" height="40.84" fill="#231f20"/>
  <rect x="863.96" y="863.57" width="40.84" height="40.84" fill="#231f20"/>
  <rect x="907.5" y="820.29" width="40.84" height="40.84" fill="#231f20"/>
  <rect x="950.9" y="820.19" width="40.84" height="40.84" fill="#231f20"/>
  <rect x="993.53" y="863.57" width="40.84" height="40.84" fill="#231f20"/>
  <rect x="1037.23" y="906.73" width="40.84" height="40.84" fill="#231f20"/>
  <rect x="993.53" y="820.29" width="40.84" height="40.84" fill="#231f20"/>
  <rect x="907.2" y="776.8" width="40.84" height="40.84" fill="#231f20"/>
  <rect x="950.29" y="776.8" width="40.84" height="40.84" fill="#231f20"/>
  <rect x="993.53" y="776.8" width="40.84" height="40.84" fill="#231f20"/>
  <rect x="863.96" y="820.29" width="40.84" height="40.84" fill="#231f20"/>
  <rect x="864.1" y="345.06" width="40.84" height="40.84" fill="#231f20"/>
  <rect x="907.2" y="345.06" width="40.84" height="40.84" fill="#231f20"/>
  <rect x="820.25" y="345.06" width="40.84" height="40.84" fill="#231f20"/>
  <rect x="864.1" y="301.53" width="40.84" height="40.84" fill="#231f20"/>
  <rect x="907.2" y="301.53" width="40.84" height="40.84" fill="#231f20"/>
  <rect x="864.1" y="258.39" width="40.84" height="40.84" fill="#231f20"/>
  <rect x="907.2" y="258.39" width="40.84" height="40.84" fill="#231f20"/>
  <rect x="820.25" y="301.53" width="40.84" height="40.84" fill="#231f20"/>
  <rect x="820.64" y="258.52" width="40.84" height="40.84" fill="#231f20"/>
  <rect x="864.48" y="215.28" width="40.84" height="40.84" fill="#231f20"/>
  <rect x="907.58" y="215.28" width="40.84" height="40.84" fill="#231f20"/>
  <rect x="820.64" y="215.41" width="40.84" height="40.84" fill="#231f20"/>
  <rect x="777.6" y="215.41" width="40.84" height="40.84" fill="#231f20"/>
  <rect x="648.47" y="215.23" width="40.84" height="40.84" fill="#231f20"/>
  <rect x="691.68" y="214.91" width="40.84" height="40.84" fill="#231f20"/>
  <rect x="605.36" y="215.23" width="40.84" height="40.84" fill="#231f20"/>
  <rect x="648.39" y="172.26" width="40.84" height="40.84" fill="#231f20"/>
  <rect x="691.61" y="171.94" width="40.84" height="40.84" fill="#231f20"/>
  <rect x="734.55" y="214.91" width="40.84" height="40.84" fill="#231f20"/>
  <rect x="734.48" y="171.94" width="40.84" height="40.84" fill="#231f20"/>
  <rect x="605.28" y="171.94" width="40.84" height="40.84" fill="#231f20"/>
  <rect x="43.65" y="85.75" width="40.84" height="40.84" fill="#231f20"/>
  <rect x=".29" y="85.75" width="40.84" height="40.84" fill="#231f20"/>
  <rect x="43.65" y="42.71" width="40.84" height="40.84" fill="#231f20"/>
  <rect x="864.23" y="128.82" width="40.84" height="40.84" fill="#231f20"/>
  <rect x="907.33" y="128.82" width="40.84" height="40.84" fill="#231f20"/>
  <rect x="820.38" y="128.82" width="40.84" height="40.84" fill="#231f20"/>
  <rect x="864.23" y="85.8" width="40.84" height="40.84" fill="#231f20"/>
  <rect x="907.33" y="85.8" width="40.84" height="40.84" fill="#231f20"/>
  <rect x="820.38" y="85.8" width="40.84" height="40.84" fill="#231f20"/>
  <rect x="129.77" y="993.02" width="40.84" height="40.84" fill="#231f20"/>
  <rect x="86.83" y="1036.17" width="40.84" height="40.84" fill="#231f20"/>
  <rect x="173.04" y="1036.17" width="40.84" height="40.84" fill="#231f20"/>
  <rect x="129.77" y="1036.17" width="40.84" height="40.84" fill="#231f20"/>
  <rect y="949.5" width="40.84" height="40.84" fill="#231f20"/>
  <rect x="86.58" y="560.15" width="40.84" height="40.84" fill="#231f20"/>
  <rect x="950.28" y="42.41" width="40.84" height="40.84" fill="#231f20"/>
  <rect x="950.41" y="172.26" width="40.84" height="40.84" fill="#231f20"/>
  <rect x="993.53" y="215.54" width="40.84" height="40.84" fill="#231f20"/>
  <rect x="993.53" y="258.32" width="40.84" height="40.84" fill="#231f20"/>
  <rect x="993.53" y="302.02" width="40.84" height="40.84" fill="#231f20"/>
  <rect x="993.53" y="344.8" width="40.84" height="40.84" fill="#231f20"/>
  <rect x="993.53" y="388.48" width="40.84" height="40.84" fill="#231f20"/>
  <rect x="993.53" y="431.28" width="40.84" height="40.84" fill="#231f20"/>
  <rect x="993.53" y="474.06" width="40.84" height="40.84" fill="#231f20"/>
  <rect x="993.53" y="517.94" width="40.84" height="40.84" fill="#231f20"/>
  <rect x="993.53" y="561.63" width="40.84" height="40.84" fill="#231f20"/>
  <rect x="993.53" y="604.42" width="40.84" height="40.84" fill="#231f20"/>
  <rect x="993.53" y="647.2" width="40.84" height="40.84" fill="#231f20"/>
  <rect x="993.53" y="690.9" width="40.84" height="40.84" fill="#231f20"/>
  <rect x="993.53" y="733.68" width="40.84" height="40.84" fill="#231f20"/>
  <rect x="648.08" y="776.8" width="40.84" height="40.84" fill="#231f20"/>
  <rect x="648.08" y="820.59" width="40.84" height="40.84" fill="#231f20"/>
  <rect x="691.48" y="776.8" width="40.84" height="40.84" fill="#231f20"/>
  <rect x="950.41" y="85.8" width="40.84" height="40.84" fill="#231f20"/>
  <rect x="950.41" y="128.82" width="40.84" height="40.84" fill="#231f20"/>
  <rect x="143.3" y="573.87" width="13.39" height="13.39" fill="#231f20"/>
  <rect x="143.3" y="528.96" width="13.39" height="13.39" fill="#231f20"/>
  <rect x="57.14" y="661.54" width="13.39" height="13.39" fill="#231f20"/>
  <rect x="13.3" y="661.54" width="13.39" height="13.39" fill="#231f20"/>
  <rect x="57.14" y="703.11" width="13.39" height="13.39" fill="#231f20"/>
  <rect x="13.3" y="703.11" width="13.39" height="13.39" fill="#231f20"/>
  <rect x="100.02" y="661.54" width="13.39" height="13.39" fill="#231f20"/>
  <rect x="142.47" y="661.54" width="13.39" height="13.39" fill="#231f20"/>
  <rect x="142.47" y="703.11" width="13.39" height="13.39" fill="#231f20"/>
  <rect x="185.35" y="703.11" width="13.39" height="13.39" fill="#231f20"/>
  <rect x="186.63" y="746.73" width="13.39" height="13.39" fill="#231f20"/>
  <rect x="229.51" y="746.73" width="13.39" height="13.39" fill="#231f20"/>
  <rect x="186.63" y="790.52" width="13.39" height="13.39" fill="#231f20"/>
  <rect x="185.35" y="833.23" width="13.39" height="13.39" fill="#231f20"/>
  <rect x="186.63" y="876.94" width="13.39" height="13.39" fill="#231f20"/>
  <rect x="186.63" y="920.73" width="13.39" height="13.39" fill="#231f20"/>
  <rect x="229.95" y="920.73" width="13.39" height="13.39" fill="#231f20"/>
  <rect x="317.16" y="876.98" width="13.39" height="13.39" fill="#231f20"/>
  <rect x="360.48" y="876.98" width="13.39" height="13.39" fill="#231f20"/>
  <rect x="447.72" y="834.31" width="13.39" height="13.39" fill="#231f20"/>
  <rect x="447.72" y="790.52" width="13.39" height="13.39" fill="#231f20"/>
  <rect x="403.1" y="746.73" width="13.39" height="13.39" fill="#231f20"/>
  <rect x="403.1" y="703.11" width="13.39" height="13.39" fill="#231f20"/>
  <rect x="360.48" y="703.11" width="13.39" height="13.39" fill="#231f20"/>
  <rect x="403.1" y="834.31" width="13.39" height="13.39" fill="#231f20"/>
  <rect x="491.04" y="834.31" width="13.39" height="13.39" fill="#231f20"/>
  <rect x="317.16" y="919.85" width="13.39" height="13.39" fill="#231f20"/>
  <rect x="360.48" y="919.85" width="13.39" height="13.39" fill="#231f20"/>
  <rect x="229.51" y="790.52" width="13.39" height="13.39" fill="#231f20"/>
  <rect x="101.63" y="833.19" width="13.39" height="13.39" fill="#231f20"/>
  <rect x="144.51" y="833.19" width="13.39" height="13.39" fill="#231f20"/>
  <rect x="185.35" y="962.71" width="13.39" height="13.39" fill="#231f20"/>
  <rect x="101.63" y="962.67" width="13.39" height="13.39" fill="#231f20"/>
  <rect x="144.51" y="962.67" width="13.39" height="13.39" fill="#231f20"/>
  <rect x="315.33" y="962.71" width="13.39" height="13.39" fill="#231f20"/>
  <rect x="231.61" y="962.67" width="13.39" height="13.39" fill="#231f20"/>
  <rect x="274.49" y="962.67" width="13.39" height="13.39" fill="#231f20"/>
  <rect x="228.9" y="1049.56" width="13.39" height="13.39" fill="#231f20"/>
  <rect x="358.88" y="1049.56" width="13.39" height="13.39" fill="#231f20"/>
  <rect x="403.1" y="1049.56" width="13.39" height="13.39" fill="#231f20"/>
  <rect x="275.16" y="1049.56" width="13.39" height="13.39" fill="#231f20"/>
  <rect x="318.04" y="1049.56" width="13.39" height="13.39" fill="#231f20"/>
  <rect x="703.91" y="1049.74" width="13.39" height="13.39" fill="#231f20"/>
  <rect x="833.88" y="1049.74" width="13.39" height="13.39" fill="#231f20"/>
  <rect x="878.11" y="1049.74" width="13.39" height="13.39" fill="#231f20"/>
  <rect x="919.23" y="1049.74" width="13.39" height="13.39" fill="#231f20"/>
  <rect x="963.45" y="1049.74" width="13.39" height="13.39" fill="#231f20"/>
  <rect x="750.16" y="1049.7" width="13.39" height="13.39" fill="#231f20"/>
  <rect x="793.04" y="1049.7" width="13.39" height="13.39" fill="#231f20"/>
  <rect x="703.91" y="1006.23" width="13.39" height="13.39" fill="#231f20"/>
  <rect x="833.88" y="1006.23" width="13.39" height="13.39" fill="#231f20"/>
  <rect x="750.16" y="1006.19" width="13.39" height="13.39" fill="#231f20"/>
  <rect x="793.04" y="1006.19" width="13.39" height="13.39" fill="#231f20"/>
  <rect x="532.84" y="1049.74" width="13.39" height="13.39" fill="#231f20"/>
  <rect x="577.07" y="1049.74" width="13.39" height="13.39" fill="#231f20"/>
  <rect x="492" y="1049.7" width="13.39" height="13.39" fill="#231f20"/>
  <rect x="404.24" y="963.9" width="13.39" height="13.39" fill="#231f20"/>
  <rect x="531.8" y="962.71" width="13.39" height="13.39" fill="#231f20"/>
  <rect x="448.07" y="962.67" width="13.39" height="13.39" fill="#231f20"/>
  <rect x="357.98" y="1006.25" width="13.39" height="13.39" fill="#231f20"/>
  <rect x="404.24" y="1006.21" width="13.39" height="13.39" fill="#231f20"/>
  <rect x="448.07" y="1006.21" width="13.39" height="13.39" fill="#231f20"/>
  <rect x="490.95" y="962.67" width="13.39" height="13.39" fill="#231f20"/>
  <rect x="531.8" y="920.75" width="13.39" height="13.39" fill="#231f20"/>
  <rect x="490.95" y="920.7" width="13.39" height="13.39" fill="#231f20"/>
  <rect x="273.47" y="746.73" width="13.39" height="13.39" fill="#231f20"/>
  <rect x="317.43" y="746.73" width="13.39" height="13.39" fill="#231f20"/>
  <rect x="273.47" y="703.11" width="13.39" height="13.39" fill="#231f20"/>
  <rect x="273.47" y="834.86" width="13.39" height="13.39" fill="#231f20"/>
  <rect x="273.47" y="791.16" width="13.39" height="13.39" fill="#231f20"/>
  <rect x="317.43" y="703.11" width="13.39" height="13.39" fill="#231f20"/>
  <rect x="532.64" y="703.11" width="13.39" height="13.39" fill="#231f20"/>
  <rect x="490.02" y="703.11" width="13.39" height="13.39" fill="#231f20"/>
  <rect x="446.96" y="703.11" width="13.39" height="13.39" fill="#231f20"/>
  <rect x="704.64" y="703.11" width="13.39" height="13.39" fill="#231f20"/>
  <rect x="662.02" y="703.11" width="13.39" height="13.39" fill="#231f20"/>
  <rect x="618.96" y="703.11" width="13.39" height="13.39" fill="#231f20"/>
  <rect x="877.47" y="746.95" width="13.39" height="13.39" fill="#231f20"/>
  <rect x="834.85" y="746.95" width="13.39" height="13.39" fill="#231f20"/>
  <rect x="791.01" y="790.52" width="13.39" height="13.39" fill="#231f20"/>
  <rect x="791.01" y="833.65" width="13.39" height="13.39" fill="#231f20"/>
  <rect x="834.85" y="833.48" width="13.39" height="13.39" fill="#231f20"/>
  <rect x="748.39" y="790.52" width="13.39" height="13.39" fill="#231f20"/>
  <rect x="748.39" y="833.65" width="13.39" height="13.39" fill="#231f20"/>
  <rect x="705.21" y="833.65" width="13.39" height="13.39" fill="#231f20"/>
  <rect x="791.01" y="876.22" width="13.39" height="13.39" fill="#231f20"/>
  <rect x="834.85" y="876.22" width="13.39" height="13.39" fill="#231f20"/>
  <rect x="879.95" y="920.45" width="13.39" height="13.39" fill="#231f20"/>
  <rect x="748.39" y="876.22" width="13.39" height="13.39" fill="#231f20"/>
  <rect x="963.41" y="920.45" width="13.39" height="13.39" fill="#231f20"/>
  <rect x="1007.25" y="920.45" width="13.39" height="13.39" fill="#231f20"/>
  <rect x="920.79" y="920.45" width="13.39" height="13.39" fill="#231f20"/>
  <rect x="705.21" y="876.22" width="13.39" height="13.39" fill="#231f20"/>
  <rect x="705.21" y="919.6" width="13.39" height="13.39" fill="#231f20"/>
  <rect x="705.21" y="962.16" width="13.39" height="13.39" fill="#231f20"/>
  <rect x="1052.2" y="963.41" width="13.39" height="13.39" fill="#231f20"/>
  <rect x="1007.32" y="963.41" width="13.39" height="13.39" fill="#231f20"/>
  <rect x="1052.2" y="1005.97" width="13.39" height="13.39" fill="#231f20"/>
  <rect x="1007.25" y="1005.97" width="13.39" height="13.39" fill="#231f20"/>
  <rect x="748.33" y="746.95" width="13.39" height="13.39" fill="#231f20"/>
  <rect x="704.64" y="660.48" width="13.39" height="13.39" fill="#231f20"/>
  <rect x="662.02" y="660.48" width="13.39" height="13.39" fill="#231f20"/>
  <rect x="618.96" y="661.66" width="13.39" height="13.39" fill="#231f20"/>
  <rect x="618.96" y="789.61" width="13.39" height="13.39" fill="#231f20"/>
  <rect x="618.96" y="834.61" width="13.39" height="13.39" fill="#231f20"/>
  <rect x="532.31" y="788.43" width="13.39" height="13.39" fill="#231f20"/>
  <rect x="618.96" y="747.06" width="13.39" height="13.39" fill="#231f20"/>
  <rect x="618.96" y="488.16" width="13.39" height="13.39" fill="#231f20"/>
  <rect x="618.96" y="445.61" width="13.39" height="13.39" fill="#231f20"/>
  <rect x="618.96" y="531.01" width="13.39" height="13.39" fill="#231f20"/>
  <rect x="661.43" y="488.16" width="13.39" height="13.39" fill="#231f20"/>
  <rect x="661.43" y="445.61" width="13.39" height="13.39" fill="#231f20"/>
  <rect x="661.43" y="531.01" width="13.39" height="13.39" fill="#231f20"/>
  <rect x="661.73" y="919.6" width="13.39" height="13.39" fill="#231f20"/>
  <rect x="661.73" y="962.16" width="13.39" height="13.39" fill="#231f20"/>
  <rect x="661.73" y="1006.21" width="13.39" height="13.39" fill="#231f20"/>
  <rect x="619.3" y="1006.23" width="13.39" height="13.39" fill="#231f20"/>
  <rect x="577.12" y="1006.21" width="13.39" height="13.39" fill="#231f20"/>
  <rect x="532.84" y="1006.21" width="13.39" height="13.39" fill="#231f20"/>
  <rect x="661.73" y="876.22" width="13.39" height="13.39" fill="#231f20"/>
  <rect x="661.8" y="745.88" width="13.39" height="13.39" fill="#231f20"/>
  <rect x="446.96" y="617.38" width="13.39" height="13.39" fill="#231f20"/>
  <rect x="403.1" y="617.38" width="13.39" height="13.39" fill="#231f20"/>
  <rect x="359.8" y="617.38" width="13.39" height="13.39" fill="#231f20"/>
  <rect x="403.1" y="573.03" width="13.39" height="13.39" fill="#231f20"/>
  <rect x="403.1" y="531.66" width="13.39" height="13.39" fill="#231f20"/>
  <rect x="403.1" y="487.31" width="13.39" height="13.39" fill="#231f20"/>
  <rect x="360.48" y="573.03" width="13.39" height="13.39" fill="#231f20"/>
  <rect x="360.48" y="531.66" width="13.39" height="13.39" fill="#231f20"/>
  <rect x="360.48" y="487.31" width="13.39" height="13.39" fill="#231f20"/>
  <rect x="446.96" y="659.33" width="13.39" height="13.39" fill="#231f20"/>
  <rect x="57.14" y="616.63" width="13.39" height="13.39" fill="#231f20"/>
  <rect x="100.02" y="747.94" width="13.39" height="13.39" fill="#231f20"/>
  <rect x="100.02" y="703.11" width="13.39" height="13.39" fill="#231f20"/>
  <rect x="186.29" y="488.74" width="13.39" height="13.39" fill="#231f20"/>
  <rect x="186.29" y="528.96" width="13.39" height="13.39" fill="#231f20"/>
  <rect x="186.29" y="443.83" width="13.39" height="13.39" fill="#231f20"/>
  <rect x="100.65" y="443.83" width="13.39" height="13.39" fill="#231f20"/>
  <rect x="14.96" y="443.83" width="13.39" height="13.39" fill="#231f20"/>
  <rect x="187.47" y="357.61" width="13.39" height="13.39" fill="#231f20"/>
  <rect x="142.59" y="357.61" width="13.39" height="13.39" fill="#231f20"/>
  <rect x="100.02" y="357.61" width="13.39" height="13.39" fill="#231f20"/>
  <rect x="317.4" y="357.61" width="13.39" height="13.39" fill="#231f20"/>
  <rect x="272.51" y="357.61" width="13.39" height="13.39" fill="#231f20"/>
  <rect x="229.94" y="357.61" width="13.39" height="13.39" fill="#231f20"/>
  <rect x="229.94" y="401.65" width="13.39" height="13.39" fill="#231f20"/>
  <rect x="229.94" y="444.26" width="13.39" height="13.39" fill="#231f20"/>
  <rect x="272.41" y="401.65" width="13.39" height="13.39" fill="#231f20"/>
  <rect x="319.81" y="401.65" width="13.39" height="13.39" fill="#231f20"/>
  <rect x="360.25" y="401.65" width="13.39" height="13.39" fill="#231f20"/>
  <rect x="319.81" y="444.26" width="13.39" height="13.39" fill="#231f20"/>
  <rect x="360.25" y="444.26" width="13.39" height="13.39" fill="#231f20"/>
  <rect x="272.41" y="444.26" width="13.39" height="13.39" fill="#231f20"/>
  <rect x="229.94" y="488.31" width="13.39" height="13.39" fill="#231f20"/>
  <rect x="447.42" y="357.61" width="13.39" height="13.39" fill="#231f20"/>
  <rect x="489.01" y="357.61" width="13.39" height="13.39" fill="#231f20"/>
  <rect x="404.85" y="357.61" width="13.39" height="13.39" fill="#231f20"/>
  <rect x="360.25" y="357.61" width="13.39" height="13.39" fill="#231f20"/>
  <rect x="533.15" y="315.75" width="13.39" height="13.39" fill="#231f20"/>
  <rect x="533.15" y="356.71" width="13.39" height="13.39" fill="#231f20"/>
  <rect x="533.15" y="272.18" width="13.39" height="13.39" fill="#231f20"/>
  <rect x="790.56" y="315.75" width="13.39" height="13.39" fill="#231f20"/>
  <rect x="790.56" y="272.18" width="13.39" height="13.39" fill="#231f20"/>
  <rect x="790.56" y="400.28" width="13.39" height="13.39" fill="#231f20"/>
  <rect x="833.97" y="400.28" width="13.39" height="13.39" fill="#231f20"/>
  <rect x="876.79" y="400.28" width="13.39" height="13.39" fill="#231f20"/>
  <rect x="920.92" y="400.28" width="13.39" height="13.39" fill="#231f20"/>
  <rect x="790.56" y="356.71" width="13.39" height="13.39" fill="#231f20"/>
  <rect x="963.82" y="315.75" width="13.39" height="13.39" fill="#231f20"/>
  <rect x="963.82" y="272.18" width="13.39" height="13.39" fill="#231f20"/>
  <rect x="964.58" y="228.63" width="13.39" height="13.39" fill="#231f20"/>
  <rect x="963.82" y="400.28" width="13.39" height="13.39" fill="#231f20"/>
  <rect x="963.82" y="356.71" width="13.39" height="13.39" fill="#231f20"/>
  <rect x="963.82" y="532.51" width="13.39" height="13.39" fill="#231f20"/>
  <rect x="963.82" y="488.94" width="13.39" height="13.39" fill="#231f20"/>
  <rect x="963.82" y="445.13" width="13.39" height="13.39" fill="#231f20"/>
  <rect x="963.82" y="617.04" width="13.39" height="13.39" fill="#231f20"/>
  <rect x="963.82" y="573.47" width="13.39" height="13.39" fill="#231f20"/>
  <rect x="920.92" y="532.51" width="13.39" height="13.39" fill="#231f20"/>
  <rect x="920.92" y="617.04" width="13.39" height="13.39" fill="#231f20"/>
  <rect x="920.92" y="573.47" width="13.39" height="13.39" fill="#231f20"/>
  <rect x="877.39" y="532.51" width="13.39" height="13.39" fill="#231f20"/>
  <rect x="877.39" y="617.04" width="13.39" height="13.39" fill="#231f20"/>
  <rect x="834.63" y="617.04" width="13.39" height="13.39" fill="#231f20"/>
  <rect x="791.1" y="617.04" width="13.39" height="13.39" fill="#231f20"/>
  <rect x="834.63" y="660.48" width="13.39" height="13.39" fill="#231f20"/>
  <rect x="791.1" y="660.48" width="13.39" height="13.39" fill="#231f20"/>
  <rect x="877.39" y="573.47" width="13.39" height="13.39" fill="#231f20"/>
  <rect x="747.52" y="272.18" width="13.39" height="13.39" fill="#231f20"/>
  <rect x="747.52" y="315.29" width="13.39" height="13.39" fill="#231f20"/>
  <rect x="574.83" y="272.18" width="13.39" height="13.39" fill="#231f20"/>
  <rect x="446.43" y="272.18" width="13.39" height="13.39" fill="#231f20"/>
  <rect x="488.11" y="272.18" width="13.39" height="13.39" fill="#231f20"/>
  <rect x="618.32" y="272.18" width="13.39" height="13.39" fill="#231f20"/>
  <rect x="661.43" y="272.18" width="13.39" height="13.39" fill="#231f20"/>
  <rect x="574.83" y="315.75" width="13.39" height="13.39" fill="#231f20"/>
  <rect x="618.32" y="315.75" width="13.39" height="13.39" fill="#231f20"/>
  <rect x="661.43" y="315.75" width="13.39" height="13.39" fill="#231f20"/>
  <rect x="790.59" y="185.99" width="13.39" height="13.39" fill="#231f20"/>
  <rect x="833.48" y="185.99" width="13.39" height="13.39" fill="#231f20"/>
  <rect x="876.97" y="185.99" width="13.39" height="13.39" fill="#231f20"/>
  <rect x="920.08" y="185.99" width="13.39" height="13.39" fill="#231f20"/>
  <rect x="661.06" y="142.55" width="13.39" height="13.39" fill="#231f20"/>
  <rect x="574.97" y="142.55" width="13.39" height="13.39" fill="#231f20"/>
  <rect x="533.28" y="142.55" width="13.39" height="13.39" fill="#231f20"/>
  <rect x="574.83" y="98.84" width="13.39" height="13.39" fill="#231f20"/>
  <rect x="618.32" y="98.84" width="13.39" height="13.39" fill="#231f20"/>
  <rect x="445.59" y="99.01" width="13.39" height="13.39" fill="#231f20"/>
  <rect x="445.59" y="55.96" width="13.39" height="13.39" fill="#231f20"/>
  <rect x="489.08" y="99.01" width="13.39" height="13.39" fill="#231f20"/>
  <rect x="532.31" y="99.01" width="13.39" height="13.39" fill="#231f20"/>
  <rect x="618.32" y="55.73" width="13.39" height="13.39" fill="#231f20"/>
  <rect x="575.54" y="55.73" width="13.39" height="13.39" fill="#231f20"/>
  <rect x="618.32" y="10.42" width="13.39" height="13.39" fill="#231f20"/>
  <rect x="747.52" y="10.42" width="13.39" height="13.39" fill="#231f20"/>
  <rect x="660.49" y="55.73" width="13.39" height="13.39" fill="#231f20"/>
  <rect x="660.49" y="97.87" width="13.39" height="13.39" fill="#231f20"/>
  <rect x="702.74" y="142.55" width="13.39" height="13.39" fill="#231f20"/>
  <rect x="746.23" y="142.55" width="13.39" height="13.39" fill="#231f20"/>
  <rect x="403.14" y="142.55" width="13.39" height="13.39" fill="#231f20"/>
  <rect x="444.82" y="142.55" width="13.39" height="13.39" fill="#231f20"/>
  <rect x="446.43" y="185.66" width="13.39" height="13.39" fill="#231f20"/>
  <rect x="446.43" y="228.7" width="13.39" height="13.39" fill="#231f20"/>
  <rect x="402.32" y="228.7" width="13.39" height="13.39" fill="#231f20"/>
  <rect x="402.32" y="271.56" width="13.39" height="13.39" fill="#231f20"/>
  <rect x="359.8" y="272.01" width="13.39" height="13.39" fill="#231f20"/>
  <rect x="488.31" y="142.55" width="13.39" height="13.39" fill="#231f20"/>
  <rect x="273.67" y="184.58" width="13.39" height="13.39" fill="#231f20"/>
  <rect x="316.49" y="184.58" width="13.39" height="13.39" fill="#231f20"/>
  <rect x="359.98" y="184.58" width="13.39" height="13.39" fill="#231f20"/>
  <rect x="316.49" y="55.73" width="13.39" height="13.39" fill="#231f20"/>
  <rect x="359.98" y="55.73" width="13.39" height="13.39" fill="#231f20"/>
  <rect x="402.32" y="10.42" width="13.39" height="13.39" fill="#231f20"/>
  <rect x="402.32" y="55.73" width="13.39" height="13.39" fill="#231f20"/>
  <rect x="445.81" y="10.42" width="13.39" height="13.39" fill="#231f20"/>
  <rect x="187.35" y="228.7" width="13.39" height="13.39" fill="#231f20"/>
  <rect x="187.35" y="271.56" width="13.39" height="13.39" fill="#231f20"/>
  <rect x="144.31" y="271.56" width="13.39" height="13.39" fill="#231f20"/>
  <rect x="229.04" y="228.7" width="13.39" height="13.39" fill="#231f20"/>
  <rect x="273.67" y="228.7" width="13.39" height="13.39" fill="#231f20"/>
  <rect x="100.02" y="101.53" width="13.39" height="13.39" fill="#231f20"/>
  <rect x="144.4" y="101.53" width="13.39" height="13.39" fill="#231f20"/>
  <rect x="100.02" y="142.09" width="13.39" height="13.39" fill="#231f20"/>
  <rect x="144.4" y="142.09" width="13.39" height="13.39" fill="#231f20"/>
  <rect x="187.35" y="142.09" width="13.39" height="13.39" fill="#231f20"/>
  <rect x="229.04" y="142.09" width="13.39" height="13.39" fill="#231f20"/>
  <rect x="14.96" y="142.09" width="13.39" height="13.39" fill="#231f20"/>
  <rect x="14.96" y="186.22" width="13.39" height="13.39" fill="#231f20"/>
  <rect x="14.96" y="230.35" width="13.39" height="13.39" fill="#231f20"/>
  <rect x="56.6" y="230.35" width="13.39" height="13.39" fill="#231f20"/>
  <rect x="101.15" y="230.35" width="13.39" height="13.39" fill="#231f20"/>
  <rect x="144.4" y="184.58" width="13.39" height="13.39" fill="#231f20"/>
  <rect x="187.03" y="14.44" width="13.39" height="13.39" fill="#231f20"/>
  <rect x="187.91" y="55" width="13.39" height="13.39" fill="#231f20"/>
  <rect x="144.4" y="55.14" width="13.39" height="13.39" fill="#231f20"/>
  <rect x="56.6" y="271.56" width="13.39" height="13.39" fill="#231f20"/>
  <rect x="56.7" y="184.58" width="13.39" height="13.39" fill="#231f20"/>
  <rect x="790.55" y="142.55" width="13.39" height="13.39" fill="#231f20"/>
  <rect x="790.55" y="99.53" width="13.39" height="13.39" fill="#231f20"/>
  <rect x="790.41" y="54.42" width="13.39" height="13.39" fill="#231f20"/>
  <rect x="919.9" y="54.42" width="13.39" height="13.39" fill="#231f20"/>
  <rect x="919.9" y="10.98" width="13.39" height="13.39" fill="#231f20"/>
  <rect x="963.82" y="10.98" width="13.39" height="13.39" fill="#231f20"/>
  <rect x="490" y="315.75" width="13.39" height="13.39" fill="#231f20"/>
  <rect x="447.42" y="315.75" width="13.39" height="13.39" fill="#231f20"/>
  <rect x="359.81" y="316.2" width="13.39" height="13.39" fill="#231f20"/>
  <rect x="317.11" y="315.75" width="13.39" height="13.39" fill="#231f20"/>
  <rect x="317.11" y="272.18" width="13.39" height="13.39" fill="#231f20"/>
  <rect x="274.53" y="315.75" width="13.39" height="13.39" fill="#231f20"/>
  <rect x="100.3" y="528.96" width="13.39" height="13.39" fill="#231f20"/>
  <rect x="56.7" y="528.96" width="13.39" height="13.39" fill="#231f20"/>
</svg>