<?xml version="1.0" encoding="UTF-8"?>
<svg id="_16" data-name="16" xmlns="http://www.w3.org/2000/svg" viewBox="0 0 1080 1080">
  <rect x="563.15" y="819.54" width="40.84" height="40.84" fill="#231f20"/>
  <rect x="563.15" y="776.59" width="40.84" height="40.84" fill="#231f20"/>
  <rect x="606.22" y="819.54" width="40.84" height="40.84" fill="#231f20"/>
  <rect x="606.22" y="776.59" width="40.84" height="40.84" fill="#231f20"/>
  <rect x="649.66" y="819.54" width="40.84" height="40.84" fill="#231f20"/>
  <rect x="649.66" y="776.59" width="40.84" height="40.84" fill="#231f20"/>
  <rect x="692.73" y="819.54" width="40.84" height="40.84" fill="#231f20"/>
  <rect x="605.95" y="863.16" width="40.84" height="40.84" fill="#231f20"/>
  <rect x="649.39" y="863.16" width="40.84" height="40.84" fill="#231f20"/>
  <rect x="692.46" y="863.16" width="40.84" height="40.84" fill="#231f20"/>
  <rect x="692.77" y="906.04" width="40.84" height="40.84" fill="#231f20"/>
  <rect x="692.73" y="776.59" width="40.84" height="40.84" fill="#231f20"/>
  <rect x="735.81" y="819.54" width="40.84" height="40.84" fill="#231f20"/>
  <rect x="735.54" y="863.16" width="40.84" height="40.84" fill="#231f20"/>
  <rect x="735.85" y="906.04" width="40.84" height="40.84" fill="#231f20"/>
  <rect x="735.85" y="949.4" width="40.84" height="40.84" fill="#231f20"/>
  <rect x="735.85" y="992.34" width="40.84" height="40.84" fill="#231f20"/>
  <rect x="735.85" y="1035.96" width="40.84" height="40.84" fill="#231f20"/>
  <rect x="735.81" y="776.59" width="40.84" height="40.84" fill="#231f20"/>
  <rect x="778.88" y="819.54" width="40.84" height="40.84" fill="#231f20"/>
  <rect x="778.61" y="863.16" width="40.84" height="40.84" fill="#231f20"/>
  <rect x="778.88" y="776.59" width="40.84" height="40.84" fill="#231f20"/>
  <rect x="563.15" y="646.71" width="40.84" height="40.84" fill="#231f20"/>
  <rect x="563.15" y="603.21" width="40.84" height="40.84" fill="#231f20"/>
  <rect x="606.22" y="646.71" width="40.84" height="40.84" fill="#231f20"/>
  <rect x="606.22" y="603.21" width="40.84" height="40.84" fill="#231f20"/>
  <rect x="476.29" y="646.71" width="40.84" height="40.84" fill="#231f20"/>
  <rect x="173.01" y="646.71" width="40.84" height="40.84" fill="#231f20"/>
  <rect x="476.29" y="603.21" width="40.84" height="40.84" fill="#231f20"/>
  <rect x="519.37" y="646.71" width="40.84" height="40.84" fill="#231f20"/>
  <rect x="519.37" y="603.21" width="40.84" height="40.84" fill="#231f20"/>
  <rect x="649.66" y="646.71" width="40.84" height="40.84" fill="#231f20"/>
  <rect x="649.66" y="603.21" width="40.84" height="40.84" fill="#231f20"/>
  <rect x="692.73" y="646.71" width="40.84" height="40.84" fill="#231f20"/>
  <rect x="692.73" y="603.21" width="40.84" height="40.84" fill="#231f20"/>
  <rect x="735.81" y="646.71" width="40.84" height="40.84" fill="#231f20"/>
  <rect x="735.81" y="603.21" width="40.84" height="40.84" fill="#231f20"/>
  <rect x="778.88" y="646.71" width="40.84" height="40.84" fill="#231f20"/>
  <rect x="779.33" y="603.21" width="40.84" height="40.84" fill="#231f20"/>
  <rect x="822.66" y="646.71" width="40.84" height="40.84" fill="#231f20"/>
  <rect x="822.66" y="603.21" width="40.84" height="40.84" fill="#231f20"/>
  <rect x="865.73" y="646.71" width="40.84" height="40.84" fill="#231f20"/>
  <rect x="865.73" y="603.21" width="40.84" height="40.84" fill="#231f20"/>
  <rect x="692.64" y="560.34" width="40.84" height="40.84" fill="#231f20"/>
  <rect x="735.72" y="560.34" width="40.84" height="40.84" fill="#231f20"/>
  <rect x="778.79" y="560.34" width="40.84" height="40.84" fill="#231f20"/>
  <rect x="736.07" y="517.5" width="40.84" height="40.84" fill="#231f20"/>
  <rect x="779.14" y="517.5" width="40.84" height="40.84" fill="#231f20"/>
  <rect x="779.14" y="473.81" width="40.84" height="40.84" fill="#231f20"/>
  <rect x="736.07" y="473.81" width="40.84" height="40.84" fill="#231f20"/>
  <rect x="779.01" y="430.9" width="40.84" height="40.84" fill="#231f20"/>
  <rect x="779.01" y="387.77" width="40.84" height="40.84" fill="#231f20"/>
  <rect x="779.01" y="344.98" width="40.84" height="40.84" fill="#231f20"/>
  <rect x="822.92" y="473.81" width="40.84" height="40.84" fill="#231f20"/>
  <rect x="822.79" y="430.9" width="40.84" height="40.84" fill="#231f20"/>
  <rect x="822.79" y="387.77" width="40.84" height="40.84" fill="#231f20"/>
  <rect x="822.79" y="344.98" width="40.84" height="40.84" fill="#231f20"/>
  <rect x="779.01" y="301.07" width="40.84" height="40.84" fill="#231f20"/>
  <rect x="778.79" y="257.45" width="40.84" height="40.84" fill="#231f20"/>
  <rect x="778.79" y="214.88" width="40.84" height="40.84" fill="#231f20"/>
  <rect x="822.79" y="301.07" width="40.84" height="40.84" fill="#231f20"/>
  <rect x="822.57" y="257.45" width="40.84" height="40.84" fill="#231f20"/>
  <rect x="822.57" y="214.88" width="40.84" height="40.84" fill="#231f20"/>
  <rect x="865.41" y="257.97" width="40.84" height="40.84" fill="#231f20"/>
  <rect x="865.41" y="214.35" width="40.84" height="40.84" fill="#231f20"/>
  <rect x="865.41" y="171.79" width="40.84" height="40.84" fill="#231f20"/>
  <rect x="909.03" y="257.97" width="40.84" height="40.84" fill="#231f20"/>
  <rect x="909.03" y="214.35" width="40.84" height="40.84" fill="#231f20"/>
  <rect x="909.03" y="171.79" width="40.84" height="40.84" fill="#231f20"/>
  <rect x="952.65" y="171.79" width="40.84" height="40.84" fill="#231f20"/>
  <rect x="996.27" y="171.79" width="40.84" height="40.84" fill="#231f20"/>
  <rect x="778.92" y="171.79" width="40.84" height="40.84" fill="#231f20"/>
  <rect x="822.7" y="171.79" width="40.84" height="40.84" fill="#231f20"/>
  <rect x="735.8" y="171.79" width="40.84" height="40.84" fill="#231f20"/>
  <rect x="649.13" y="171.79" width="40.84" height="40.84" fill="#231f20"/>
  <rect x="606.03" y="171.79" width="40.84" height="40.84" fill="#231f20"/>
  <rect x="692.47" y="171.79" width="40.84" height="40.84" fill="#231f20"/>
  <rect x="735.8" y="214.35" width="40.84" height="40.84" fill="#231f20"/>
  <rect x="692.47" y="214.35" width="40.84" height="40.84" fill="#231f20"/>
  <rect x="865.41" y="128.77" width="40.84" height="40.84" fill="#231f20"/>
  <rect x="909.03" y="128.77" width="40.84" height="40.84" fill="#231f20"/>
  <rect x="778.92" y="128.77" width="40.84" height="40.84" fill="#231f20"/>
  <rect x="822.7" y="128.77" width="40.84" height="40.84" fill="#231f20"/>
  <rect x="995.35" y="128.77" width="40.84" height="40.84" fill="#231f20"/>
  <rect x="1038.97" y="128.77" width="40.84" height="40.84" fill="#231f20"/>
  <rect x="952.65" y="128.77" width="40.84" height="40.84" fill="#231f20"/>
  <rect x="865.41" y="85.42" width="40.84" height="40.84" fill="#231f20"/>
  <rect x="866.08" y="41.82" width="40.84" height="40.84" fill="#231f20"/>
  <rect x="909.03" y="85.42" width="40.84" height="40.84" fill="#231f20"/>
  <rect x="822.7" y="85.42" width="40.84" height="40.84" fill="#231f20"/>
  <rect x="995.35" y="85.42" width="40.84" height="40.84" fill="#231f20"/>
  <rect x="1038.97" y="85.42" width="40.84" height="40.84" fill="#231f20"/>
  <rect x="952.65" y="85.42" width="40.84" height="40.84" fill="#231f20"/>
  <rect x="995.35" y="42.63" width="40.84" height="40.84" fill="#231f20"/>
  <rect x="1038.97" y="42.63" width="40.84" height="40.84" fill="#231f20"/>
  <rect x="952.65" y="42.63" width="40.84" height="40.84" fill="#231f20"/>
  <rect x="735.8" y="128.77" width="40.84" height="40.84" fill="#231f20"/>
  <rect x="649.13" y="127.73" width="40.84" height="40.84" fill="#231f20"/>
  <rect x="692.47" y="128.77" width="40.84" height="40.84" fill="#231f20"/>
  <rect x="606.03" y="127.73" width="40.84" height="40.84" fill="#231f20"/>
  <rect x="562.91" y="127.73" width="40.84" height="40.84" fill="#231f20"/>
  <rect x="476.25" y="127.73" width="40.84" height="40.84" fill="#231f20"/>
  <rect x="519.58" y="127.73" width="40.84" height="40.84" fill="#231f20"/>
  <rect x="649.13" y="84.94" width="40.84" height="40.84" fill="#231f20"/>
  <rect x="606.03" y="84.94" width="40.84" height="40.84" fill="#231f20"/>
  <rect x="562.91" y="84.94" width="40.84" height="40.84" fill="#231f20"/>
  <rect x="476.25" y="84.94" width="40.84" height="40.84" fill="#231f20"/>
  <rect x="519.58" y="84.94" width="40.84" height="40.84" fill="#231f20"/>
  <rect x="432.91" y="127.73" width="40.84" height="40.84" fill="#231f20"/>
  <rect x="389.79" y="127.73" width="40.84" height="40.84" fill="#231f20"/>
  <rect x="303.12" y="127.73" width="40.84" height="40.84" fill="#231f20"/>
  <rect x="346.46" y="127.73" width="40.84" height="40.84" fill="#231f20"/>
  <rect x="476.25" y="171.79" width="40.84" height="40.84" fill="#231f20"/>
  <rect x="432.91" y="171.79" width="40.84" height="40.84" fill="#231f20"/>
  <rect x="389.79" y="171.79" width="40.84" height="40.84" fill="#231f20"/>
  <rect x="389.79" y="214.97" width="40.84" height="40.84" fill="#231f20"/>
  <rect x="303.12" y="171.79" width="40.84" height="40.84" fill="#231f20"/>
  <rect x="346.46" y="171.79" width="40.84" height="40.84" fill="#231f20"/>
  <rect x="432.91" y="84.94" width="40.84" height="40.84" fill="#231f20"/>
  <rect x="389.79" y="84.94" width="40.84" height="40.84" fill="#231f20"/>
  <rect x="303.12" y="84.94" width="40.84" height="40.84" fill="#231f20"/>
  <rect x="346.46" y="84.94" width="40.84" height="40.84" fill="#231f20"/>
  <rect x="259.79" y="127.73" width="40.84" height="40.84" fill="#231f20"/>
  <rect x="259.79" y="84.94" width="40.84" height="40.84" fill="#231f20"/>
  <rect x="216.46" y="127.73" width="40.84" height="40.84" fill="#231f20"/>
  <rect x="173.33" y="127.73" width="40.84" height="40.84" fill="#231f20"/>
  <rect x="86.67" y="127.73" width="40.84" height="40.84" fill="#231f20"/>
  <rect x="130" y="127.73" width="40.84" height="40.84" fill="#231f20"/>
  <rect x="259.79" y="171.79" width="40.84" height="40.84" fill="#231f20"/>
  <rect x="216.46" y="171.79" width="40.84" height="40.84" fill="#231f20"/>
  <rect x="173.33" y="171.79" width="40.84" height="40.84" fill="#231f20"/>
  <rect x="86.67" y="171.79" width="40.84" height="40.84" fill="#231f20"/>
  <rect x="130" y="171.79" width="40.84" height="40.84" fill="#231f20"/>
  <rect x="86.67" y="213.82" width="40.84" height="40.84" fill="#231f20"/>
  <rect x="130" y="213.82" width="40.84" height="40.84" fill="#231f20"/>
  <rect x="216.46" y="84.94" width="40.84" height="40.84" fill="#231f20"/>
  <rect x="173.33" y="84.94" width="40.84" height="40.84" fill="#231f20"/>
  <rect x="86.67" y="84.94" width="40.84" height="40.84" fill="#231f20"/>
  <rect x="130" y="84.94" width="40.84" height="40.84" fill="#231f20"/>
  <rect y="127.73" width="40.84" height="40.84" fill="#231f20"/>
  <rect x="43.33" y="127.73" width="40.84" height="40.84" fill="#231f20"/>
  <rect y="84.94" width="40.84" height="40.84" fill="#231f20"/>
  <rect x="43.33" y="84.94" width="40.84" height="40.84" fill="#231f20"/>
  <rect x="43.24" y="776.36" width="40.84" height="40.84" fill="#231f20"/>
  <rect x="86.31" y="776.36" width="40.84" height="40.84" fill="#231f20"/>
  <rect x="129.75" y="776.36" width="40.84" height="40.84" fill="#231f20"/>
  <rect x="129.93" y="733.62" width="40.84" height="40.84" fill="#231f20"/>
  <rect x="172.82" y="776.36" width="40.84" height="40.84" fill="#231f20"/>
  <rect x="215.9" y="776.36" width="40.84" height="40.84" fill="#231f20"/>
  <rect x="43.37" y="819.68" width="40.84" height="40.84" fill="#231f20"/>
  <rect x=".16" y="776.36" width="40.84" height="40.84" fill="#231f20"/>
  <rect x=".3" y="819.68" width="40.84" height="40.84" fill="#231f20"/>
  <rect x="86.45" y="819.68" width="40.84" height="40.84" fill="#231f20"/>
  <rect x="129.88" y="819.68" width="40.84" height="40.84" fill="#231f20"/>
  <rect x="172.96" y="819.68" width="40.84" height="40.84" fill="#231f20"/>
  <rect x="216.03" y="819.68" width="40.84" height="40.84" fill="#231f20"/>
  <rect x="258.97" y="776.36" width="40.84" height="40.84" fill="#231f20"/>
  <rect x="533.11" y="833.26" width="13.39" height="13.39" fill="#231f20"/>
  <rect x="533.11" y="789.64" width="13.39" height="13.39" fill="#231f20"/>
  <rect x="576.6" y="876.88" width="13.39" height="13.39" fill="#231f20"/>
  <rect x="533.11" y="876.88" width="13.39" height="13.39" fill="#231f20"/>
  <rect x="359.16" y="1006.06" width="13.39" height="13.39" fill="#231f20"/>
  <rect x="359.16" y="962.44" width="13.39" height="13.39" fill="#231f20"/>
  <rect x="402.34" y="962.44" width="13.39" height="13.39" fill="#231f20"/>
  <rect x="402.34" y="918.81" width="13.39" height="13.39" fill="#231f20"/>
  <rect x="445.52" y="918.81" width="13.39" height="13.39" fill="#231f20"/>
  <rect x="445.52" y="876.88" width="13.39" height="13.39" fill="#231f20"/>
  <rect x="489.32" y="876.88" width="13.39" height="13.39" fill="#231f20"/>
  <rect x="664.79" y="747.9" width="13.39" height="13.39" fill="#231f20"/>
  <rect x="621.31" y="747.9" width="13.39" height="13.39" fill="#231f20"/>
  <rect x="533.71" y="747.9" width="13.39" height="13.39" fill="#231f20"/>
  <rect x="577.51" y="747.9" width="13.39" height="13.39" fill="#231f20"/>
  <rect x="490.41" y="747.9" width="13.39" height="13.39" fill="#231f20"/>
  <rect x="446.93" y="747.9" width="13.39" height="13.39" fill="#231f20"/>
  <rect x="359.33" y="747.9" width="13.39" height="13.39" fill="#231f20"/>
  <rect x="316.29" y="747.9" width="13.39" height="13.39" fill="#231f20"/>
  <rect x="403.13" y="747.9" width="13.39" height="13.39" fill="#231f20"/>
  <rect x="273.24" y="747.9" width="13.39" height="13.39" fill="#231f20"/>
  <rect x="185.64" y="747.9" width="13.39" height="13.39" fill="#231f20"/>
  <rect x="143.29" y="659.74" width="13.39" height="13.39" fill="#231f20"/>
  <rect x="229.44" y="747.9" width="13.39" height="13.39" fill="#231f20"/>
  <rect x="359.33" y="660.44" width="13.39" height="13.39" fill="#231f20"/>
  <rect x="316.29" y="660.44" width="13.39" height="13.39" fill="#231f20"/>
  <rect x="403.13" y="660.44" width="13.39" height="13.39" fill="#231f20"/>
  <rect x="273.24" y="660.44" width="13.39" height="13.39" fill="#231f20"/>
  <rect x="229.44" y="660.44" width="13.39" height="13.39" fill="#231f20"/>
  <rect x="100.58" y="747.9" width="13.39" height="13.39" fill="#231f20"/>
  <rect x="12.98" y="747.9" width="13.39" height="13.39" fill="#231f20"/>
  <rect x="56.78" y="747.9" width="13.39" height="13.39" fill="#231f20"/>
  <rect x="100.58" y="659.74" width="13.39" height="13.39" fill="#231f20"/>
  <rect x="12.98" y="659.74" width="13.39" height="13.39" fill="#231f20"/>
  <rect x="56.78" y="659.74" width="13.39" height="13.39" fill="#231f20"/>
  <rect x="12.98" y="705.68" width="13.39" height="13.39" fill="#231f20"/>
  <rect x="56.78" y="705.68" width="13.39" height="13.39" fill="#231f20"/>
  <rect x="836.78" y="747.9" width="13.39" height="13.39" fill="#231f20"/>
  <rect x="793.3" y="747.9" width="13.39" height="13.39" fill="#231f20"/>
  <rect x="705.7" y="747.9" width="13.39" height="13.39" fill="#231f20"/>
  <rect x="749.5" y="747.9" width="13.39" height="13.39" fill="#231f20"/>
  <rect x="359.16" y="1049.68" width="13.39" height="13.39" fill="#231f20"/>
  <rect x="317.29" y="1049.68" width="13.39" height="13.39" fill="#231f20"/>
  <rect x="706.19" y="1006.06" width="13.39" height="13.39" fill="#231f20"/>
  <rect x="706.19" y="962.44" width="13.39" height="13.39" fill="#231f20"/>
  <rect x="663.11" y="918.81" width="13.39" height="13.39" fill="#231f20"/>
  <rect x="619.67" y="918.81" width="13.39" height="13.39" fill="#231f20"/>
  <rect x="706.19" y="1049.68" width="13.39" height="13.39" fill="#231f20"/>
  <rect x="792.34" y="1006.06" width="13.39" height="13.39" fill="#231f20"/>
  <rect x="792.34" y="962.44" width="13.39" height="13.39" fill="#231f20"/>
  <rect x="792.34" y="918.81" width="13.39" height="13.39" fill="#231f20"/>
  <rect x="836.8" y="876.88" width="13.39" height="13.39" fill="#231f20"/>
  <rect x="836.8" y="833.26" width="13.39" height="13.39" fill="#231f20"/>
  <rect x="836.8" y="789.64" width="13.39" height="13.39" fill="#231f20"/>
  <rect x="879.25" y="747.9" width="13.39" height="13.39" fill="#231f20"/>
  <rect x="879.27" y="789.64" width="13.39" height="13.39" fill="#231f20"/>
  <rect x="921.74" y="747.9" width="13.39" height="13.39" fill="#231f20"/>
  <rect x="921.75" y="789.64" width="13.39" height="13.39" fill="#231f20"/>
  <rect x="964.2" y="747.9" width="13.39" height="13.39" fill="#231f20"/>
  <rect x="1006.69" y="747.9" width="13.39" height="13.39" fill="#231f20"/>
  <rect x="1006.69" y="789.64" width="13.39" height="13.39" fill="#231f20"/>
  <rect x="1052.02" y="747.9" width="13.39" height="13.39" fill="#231f20"/>
  <rect x="664.79" y="705.68" width="13.39" height="13.39" fill="#231f20"/>
  <rect x="621.31" y="705.68" width="13.39" height="13.39" fill="#231f20"/>
  <rect x="533.71" y="705.68" width="13.39" height="13.39" fill="#231f20"/>
  <rect x="577.51" y="705.68" width="13.39" height="13.39" fill="#231f20"/>
  <rect x="490.41" y="705.68" width="13.39" height="13.39" fill="#231f20"/>
  <rect x="662.91" y="575.28" width="13.39" height="13.39" fill="#231f20"/>
  <rect x="621.31" y="575.28" width="13.39" height="13.39" fill="#231f20"/>
  <rect x="706.39" y="530.63" width="13.39" height="13.39" fill="#231f20"/>
  <rect x="662.91" y="530.63" width="13.39" height="13.39" fill="#231f20"/>
  <rect x="533.71" y="575.28" width="13.39" height="13.39" fill="#231f20"/>
  <rect x="577.51" y="575.28" width="13.39" height="13.39" fill="#231f20"/>
  <rect x="490.41" y="575.28" width="13.39" height="13.39" fill="#231f20"/>
  <rect x="446.95" y="575.28" width="13.39" height="13.39" fill="#231f20"/>
  <rect x="621.31" y="530.63" width="13.39" height="13.39" fill="#231f20"/>
  <rect x="706.39" y="487.53" width="13.39" height="13.39" fill="#231f20"/>
  <rect x="662.91" y="487.53" width="13.39" height="13.39" fill="#231f20"/>
  <rect x="878.46" y="574.32" width="13.39" height="13.39" fill="#231f20"/>
  <rect x="834.97" y="574.32" width="13.39" height="13.39" fill="#231f20"/>
  <rect x="1006.69" y="660.17" width="13.39" height="13.39" fill="#231f20"/>
  <rect x="1052.02" y="660.17" width="13.39" height="13.39" fill="#231f20"/>
  <rect x="964.2" y="660.17" width="13.39" height="13.39" fill="#231f20"/>
  <rect x="878.46" y="531.22" width="13.39" height="13.39" fill="#231f20"/>
  <rect x="921.75" y="660.17" width="13.39" height="13.39" fill="#231f20"/>
  <rect x="921.75" y="616.93" width="13.39" height="13.39" fill="#231f20"/>
  <rect x="834.97" y="531.22" width="13.39" height="13.39" fill="#231f20"/>
  <rect x="749.88" y="444.26" width="13.39" height="13.39" fill="#231f20"/>
  <rect x="707.36" y="444.26" width="13.39" height="13.39" fill="#231f20"/>
  <rect x="749.88" y="400.99" width="13.39" height="13.39" fill="#231f20"/>
  <rect x="749.88" y="357.89" width="13.39" height="13.39" fill="#231f20"/>
  <rect x="749.88" y="314.62" width="13.39" height="13.39" fill="#231f20"/>
  <rect x="403.51" y="400.99" width="13.39" height="13.39" fill="#231f20"/>
  <rect x="403.51" y="357.89" width="13.39" height="13.39" fill="#231f20"/>
  <rect x="403.51" y="487.37" width="13.39" height="13.39" fill="#231f20"/>
  <rect x="403.51" y="444.28" width="13.39" height="13.39" fill="#231f20"/>
  <rect x="403.51" y="314.62" width="13.39" height="13.39" fill="#231f20"/>
  <rect x="360.18" y="400.99" width="13.39" height="13.39" fill="#231f20"/>
  <rect x="360.18" y="357.89" width="13.39" height="13.39" fill="#231f20"/>
  <rect x="360.18" y="314.62" width="13.39" height="13.39" fill="#231f20"/>
  <rect x="360.18" y="530.56" width="13.39" height="13.39" fill="#231f20"/>
  <rect x="360.18" y="487.46" width="13.39" height="13.39" fill="#231f20"/>
  <rect x="360.18" y="444.19" width="13.39" height="13.39" fill="#231f20"/>
  <rect x="749.88" y="271.7" width="13.39" height="13.39" fill="#231f20"/>
  <rect x="879.37" y="486.57" width="13.39" height="13.39" fill="#231f20"/>
  <rect x="879.37" y="443.3" width="13.39" height="13.39" fill="#231f20"/>
  <rect x="879.37" y="400.2" width="13.39" height="13.39" fill="#231f20"/>
  <rect x="879.37" y="356.93" width="13.39" height="13.39" fill="#231f20"/>
  <rect x="879.37" y="314.01" width="13.39" height="13.39" fill="#231f20"/>
  <rect x="922.98" y="314.01" width="13.39" height="13.39" fill="#231f20"/>
  <rect x="707.36" y="271.7" width="13.39" height="13.39" fill="#231f20"/>
  <rect x="490.81" y="227.55" width="13.39" height="13.39" fill="#231f20"/>
  <rect x="448.29" y="227.55" width="13.39" height="13.39" fill="#231f20"/>
  <rect x="358.74" y="227.55" width="13.39" height="13.39" fill="#231f20"/>
  <rect x="316.22" y="227.55" width="13.39" height="13.39" fill="#231f20"/>
  <rect x="403.51" y="271.7" width="13.39" height="13.39" fill="#231f20"/>
  <rect x="360.18" y="271.7" width="13.39" height="13.39" fill="#231f20"/>
  <rect x="663.13" y="227.55" width="13.39" height="13.39" fill="#231f20"/>
  <rect x="621.31" y="487.53" width="13.39" height="13.39" fill="#231f20"/>
  <rect x="533.71" y="530.63" width="13.39" height="13.39" fill="#231f20"/>
  <rect x="577.51" y="530.63" width="13.39" height="13.39" fill="#231f20"/>
  <rect x="533.71" y="182.98" width="13.39" height="13.39" fill="#231f20"/>
  <rect x="577.51" y="182.98" width="13.39" height="13.39" fill="#231f20"/>
  <rect x="490.41" y="530.63" width="13.39" height="13.39" fill="#231f20"/>
  <rect x="446.95" y="530.63" width="13.39" height="13.39" fill="#231f20"/>
  <rect x="403.65" y="530.63" width="13.39" height="13.39" fill="#231f20"/>
  <rect x="229.93" y="228.6" width="13.39" height="13.39" fill="#231f20"/>
  <rect x="273.73" y="228.6" width="13.39" height="13.39" fill="#231f20"/>
  <rect x="186.63" y="228.6" width="13.39" height="13.39" fill="#231f20"/>
  <rect x="143.48" y="271.7" width="13.39" height="13.39" fill="#231f20"/>
  <rect x="187.27" y="271.7" width="13.39" height="13.39" fill="#231f20"/>
  <rect x="100.18" y="271.7" width="13.39" height="13.39" fill="#231f20"/>
  <rect x="54.18" y="271.7" width="13.39" height="13.39" fill="#231f20"/>
  <rect x="54.18" y="185.51" width="13.39" height="13.39" fill="#231f20"/>
  <rect x="54.18" y="227.55" width="13.39" height="13.39" fill="#231f20"/>
  <rect x="10.88" y="185.51" width="13.39" height="13.39" fill="#231f20"/>
  <rect x="446.93" y="705.68" width="13.39" height="13.39" fill="#231f20"/>
  <rect x="446.93" y="659.74" width="13.39" height="13.39" fill="#231f20"/>
  <rect x="446.93" y="616.93" width="13.39" height="13.39" fill="#231f20"/>
  <rect x="185.64" y="617.5" width="13.39" height="13.39" fill="#231f20"/>
  <rect x="185.64" y="575.28" width="13.39" height="13.39" fill="#231f20"/>
  <rect x="144.37" y="575.28" width="13.39" height="13.39" fill="#231f20"/>
  <rect x="144.37" y="533.06" width="13.39" height="13.39" fill="#231f20"/>
  <rect x="359.33" y="705.68" width="13.39" height="13.39" fill="#231f20"/>
  <rect x="403.13" y="705.68" width="13.39" height="13.39" fill="#231f20"/>
  <rect x="275.05" y="705.68" width="13.39" height="13.39" fill="#231f20"/>
  <rect x="318.85" y="705.68" width="13.39" height="13.39" fill="#231f20"/>
  <rect x="231.75" y="705.68" width="13.39" height="13.39" fill="#231f20"/>
  <rect x="188.26" y="705.68" width="13.39" height="13.39" fill="#231f20"/>
  <rect x="100.67" y="705.68" width="13.39" height="13.39" fill="#231f20"/>
  <rect x="144.47" y="705.68" width="13.39" height="13.39" fill="#231f20"/>
  <rect x="12.98" y="55.83" width="13.39" height="13.39" fill="#231f20"/>
  <rect x="56.78" y="55.83" width="13.39" height="13.39" fill="#231f20"/>
  <rect x="533.71" y="55.83" width="13.39" height="13.39" fill="#231f20"/>
  <rect x="577.51" y="55.83" width="13.39" height="13.39" fill="#231f20"/>
  <rect x="490.41" y="55.83" width="13.39" height="13.39" fill="#231f20"/>
  <rect x="446.93" y="55.83" width="13.39" height="13.39" fill="#231f20"/>
  <rect x="359.33" y="55.83" width="13.39" height="13.39" fill="#231f20"/>
  <rect x="403.13" y="55.83" width="13.39" height="13.39" fill="#231f20"/>
  <rect x="275.05" y="55.83" width="13.39" height="13.39" fill="#231f20"/>
  <rect x="318.85" y="55.83" width="13.39" height="13.39" fill="#231f20"/>
  <rect x="835.41" y="56.35" width="13.39" height="13.39" fill="#231f20"/>
  <rect x="922.75" y="56.35" width="13.39" height="13.39" fill="#231f20"/>
  <rect x="792.11" y="56.35" width="13.39" height="13.39" fill="#231f20"/>
  <rect x="748.63" y="56.35" width="13.39" height="13.39" fill="#231f20"/>
  <rect x="661.03" y="56.35" width="13.39" height="13.39" fill="#231f20"/>
  <rect x="704.83" y="56.35" width="13.39" height="13.39" fill="#231f20"/>
  <rect x="792.11" y="98.67" width="13.39" height="13.39" fill="#231f20"/>
  <rect x="748.63" y="98.67" width="13.39" height="13.39" fill="#231f20"/>
  <rect x="704.83" y="98.67" width="13.39" height="13.39" fill="#231f20"/>
  <rect x="620.55" y="56.35" width="13.39" height="13.39" fill="#231f20"/>
  <rect x="231.75" y="55.83" width="13.39" height="13.39" fill="#231f20"/>
  <rect x="188.26" y="55.83" width="13.39" height="13.39" fill="#231f20"/>
  <rect x="100.67" y="55.83" width="13.39" height="13.39" fill="#231f20"/>
  <rect x="144.47" y="55.83" width="13.39" height="13.39" fill="#231f20"/>
  <rect x="12.98" y="12.32" width="13.39" height="13.39" fill="#231f20"/>
  <rect x="56.78" y="12.32" width="13.39" height="13.39" fill="#231f20"/>
  <rect x="533.71" y="12.32" width="13.39" height="13.39" fill="#231f20"/>
  <rect x="577.51" y="12.32" width="13.39" height="13.39" fill="#231f20"/>
  <rect x="490.41" y="12.32" width="13.39" height="13.39" fill="#231f20"/>
  <rect x="446.93" y="12.32" width="13.39" height="13.39" fill="#231f20"/>
  <rect x="359.33" y="12.32" width="13.39" height="13.39" fill="#231f20"/>
  <rect x="403.13" y="12.32" width="13.39" height="13.39" fill="#231f20"/>
  <rect x="275.05" y="12.32" width="13.39" height="13.39" fill="#231f20"/>
  <rect x="318.85" y="12.32" width="13.39" height="13.39" fill="#231f20"/>
  <rect x="835.41" y="12.84" width="13.39" height="13.39" fill="#231f20"/>
  <rect x="792.11" y="12.84" width="13.39" height="13.39" fill="#231f20"/>
  <rect x="748.63" y="12.84" width="13.39" height="13.39" fill="#231f20"/>
  <rect x="661.03" y="12.84" width="13.39" height="13.39" fill="#231f20"/>
  <rect x="704.83" y="12.84" width="13.39" height="13.39" fill="#231f20"/>
  <rect x="1053.56" y="12.84" width="13.39" height="13.39" fill="#231f20"/>
  <rect x="1010.26" y="12.84" width="13.39" height="13.39" fill="#231f20"/>
  <rect x="966.78" y="12.84" width="13.39" height="13.39" fill="#231f20"/>
  <rect x="1053.56" y="271.17" width="13.39" height="13.39" fill="#231f20"/>
  <rect x="1010.26" y="271.17" width="13.39" height="13.39" fill="#231f20"/>
  <rect x="966.78" y="271.17" width="13.39" height="13.39" fill="#231f20"/>
  <rect x="1053.56" y="227.55" width="13.39" height="13.39" fill="#231f20"/>
  <rect x="1053.56" y="185.51" width="13.39" height="13.39" fill="#231f20"/>
  <rect x="1010.26" y="227.55" width="13.39" height="13.39" fill="#231f20"/>
  <rect x="966.78" y="227.55" width="13.39" height="13.39" fill="#231f20"/>
  <rect x="879.18" y="12.84" width="13.39" height="13.39" fill="#231f20"/>
  <rect x="922.98" y="12.84" width="13.39" height="13.39" fill="#231f20"/>
  <rect x="620.55" y="12.84" width="13.39" height="13.39" fill="#231f20"/>
  <rect x="231.75" y="12.32" width="13.39" height="13.39" fill="#231f20"/>
  <rect x="188.26" y="12.32" width="13.39" height="13.39" fill="#231f20"/>
  <rect x="100.67" y="12.32" width="13.39" height="13.39" fill="#231f20"/>
  <rect x="144.47" y="12.32" width="13.39" height="13.39" fill="#231f20"/>
  <rect x="836.78" y="705.68" width="13.39" height="13.39" fill="#231f20"/>
  <rect x="793.3" y="705.68" width="13.39" height="13.39" fill="#231f20"/>
  <rect x="705.7" y="705.68" width="13.39" height="13.39" fill="#231f20"/>
  <rect x="749.5" y="705.68" width="13.39" height="13.39" fill="#231f20"/>
  <rect x="879.25" y="705.68" width="13.39" height="13.39" fill="#231f20"/>
  <rect x="921.74" y="705.68" width="13.39" height="13.39" fill="#231f20"/>
  <rect x="964.2" y="705.68" width="13.39" height="13.39" fill="#231f20"/>
  <rect x="1006.69" y="705.68" width="13.39" height="13.39" fill="#231f20"/>
  <rect x="1052.02" y="705.68" width="13.39" height="13.39" fill="#231f20"/>
  <rect x="964.22" y="789.64" width="13.39" height="13.39" fill="#231f20"/>
  <rect x="1052.03" y="789.64" width="13.39" height="13.39" fill="#231f20"/>
  <rect x="792.34" y="1049.68" width="13.39" height="13.39" fill="#231f20"/>
  <rect x="836.8" y="1049.68" width="13.39" height="13.39" fill="#231f20"/>
</svg>