<?xml version="1.0" encoding="UTF-8"?>
<svg id="_17" data-name="17" xmlns="http://www.w3.org/2000/svg" viewBox="0 0 1080 1080">
  <rect x="778.3" y="906.03" width="40.84" height="40.84" fill="#231f20"/>
  <rect x="735.12" y="906.03" width="40.84" height="40.84" fill="#231f20"/>
  <rect x="735.12" y="949.23" width="40.84" height="40.84" fill="#231f20"/>
  <rect x="692.11" y="906.03" width="40.84" height="40.84" fill="#231f20"/>
  <rect x="778.3" y="863.35" width="40.84" height="40.84" fill="#231f20"/>
  <rect x="735.12" y="863.35" width="40.84" height="40.84" fill="#231f20"/>
  <rect x="778.3" y="819.14" width="40.84" height="40.84" fill="#231f20"/>
  <rect x="735.12" y="819.14" width="40.84" height="40.84" fill="#231f20"/>
  <rect x="605.5" y="819.14" width="40.84" height="40.84" fill="#231f20"/>
  <rect x="778.3" y="776.46" width="40.84" height="40.84" fill="#231f20"/>
  <rect x="735.12" y="776.46" width="40.84" height="40.84" fill="#231f20"/>
  <rect x="778.3" y="733.08" width="40.84" height="40.84" fill="#231f20"/>
  <rect x="735.12" y="733.08" width="40.84" height="40.84" fill="#231f20"/>
  <rect x="778.3" y="647.06" width="40.84" height="40.84" fill="#231f20"/>
  <rect x="735.12" y="647.06" width="40.84" height="40.84" fill="#231f20"/>
  <rect x="778.3" y="690.05" width="40.84" height="40.84" fill="#231f20"/>
  <rect x="735.12" y="690.05" width="40.84" height="40.84" fill="#231f20"/>
  <rect x="691.94" y="647.06" width="40.84" height="40.84" fill="#231f20"/>
  <rect x="778.09" y="603.63" width="40.84" height="40.84" fill="#231f20"/>
  <rect x="734.91" y="603.63" width="40.84" height="40.84" fill="#231f20"/>
  <rect x="691.73" y="603.63" width="40.84" height="40.84" fill="#231f20"/>
  <rect x="648.67" y="603.63" width="40.84" height="40.84" fill="#231f20"/>
  <rect x="778.09" y="560.21" width="40.84" height="40.84" fill="#231f20"/>
  <rect x="734.91" y="560.21" width="40.84" height="40.84" fill="#231f20"/>
  <rect x="691.73" y="560.21" width="40.84" height="40.84" fill="#231f20"/>
  <rect x="648.67" y="560.21" width="40.84" height="40.84" fill="#231f20"/>
  <rect x="605.58" y="560.21" width="40.84" height="40.84" fill="#231f20"/>
  <rect x="778.09" y="517" width="40.84" height="40.84" fill="#231f20"/>
  <rect x="778.09" y="473.64" width="40.84" height="40.84" fill="#231f20"/>
  <rect x="734.91" y="517" width="40.84" height="40.84" fill="#231f20"/>
  <rect x="777.91" y="387.64" width="40.84" height="40.84" fill="#231f20"/>
  <rect x="734.73" y="387.64" width="40.84" height="40.84" fill="#231f20"/>
  <rect x="778.09" y="344.25" width="40.84" height="40.84" fill="#231f20"/>
  <rect x="734.91" y="344.25" width="40.84" height="40.84" fill="#231f20"/>
  <rect x="778.09" y="301.25" width="40.84" height="40.84" fill="#231f20"/>
  <rect x="734.91" y="301.25" width="40.84" height="40.84" fill="#231f20"/>
  <rect x="778.09" y="258.08" width="40.84" height="40.84" fill="#231f20"/>
  <rect x="734.91" y="258.08" width="40.84" height="40.84" fill="#231f20"/>
  <rect x="778.09" y="214.87" width="40.84" height="40.84" fill="#231f20"/>
  <rect x="734.91" y="214.87" width="40.84" height="40.84" fill="#231f20"/>
  <rect x="691.98" y="258.08" width="40.84" height="40.84" fill="#231f20"/>
  <rect x="691.98" y="214.87" width="40.84" height="40.84" fill="#231f20"/>
  <rect x="648.67" y="214.87" width="40.84" height="40.84" fill="#231f20"/>
  <rect x="648.67" y="172.01" width="40.84" height="40.84" fill="#231f20"/>
  <rect x="605.62" y="214.87" width="40.84" height="40.84" fill="#231f20"/>
  <rect x="562.43" y="214.87" width="40.84" height="40.84" fill="#231f20"/>
  <rect x="648.67" y="258.08" width="40.84" height="40.84" fill="#231f20"/>
  <rect x="605.62" y="258.08" width="40.84" height="40.84" fill="#231f20"/>
  <rect x="561.92" y="258.08" width="40.84" height="40.84" fill="#231f20"/>
  <rect x="778.09" y="172.01" width="40.84" height="40.84" fill="#231f20"/>
  <rect x="734.91" y="172.01" width="40.84" height="40.84" fill="#231f20"/>
  <rect x="561.92" y="172.01" width="40.84" height="40.84" fill="#231f20"/>
  <rect x="605.31" y="172.01" width="40.84" height="40.84" fill="#231f20"/>
  <rect x="778.09" y="128.26" width="40.84" height="40.84" fill="#231f20"/>
  <rect x="734.91" y="128.26" width="40.84" height="40.84" fill="#231f20"/>
  <rect x="734.91" y="85.22" width="40.84" height="40.84" fill="#231f20"/>
  <rect x="691.98" y="128.26" width="40.84" height="40.84" fill="#231f20"/>
  <rect x="691.98" y="85.22" width="40.84" height="40.84" fill="#231f20"/>
  <rect x="734.91" y="41.83" width="40.84" height="40.84" fill="#231f20"/>
  <rect x="691.98" y="41.83" width="40.84" height="40.84" fill="#231f20"/>
  <rect x="648.85" y="128.26" width="40.84" height="40.84" fill="#231f20"/>
  <rect x="648.85" y="85.22" width="40.84" height="40.84" fill="#231f20"/>
  <rect x="648.85" y="41.83" width="40.84" height="40.84" fill="#231f20"/>
  <rect x="691.8" y="387.64" width="40.84" height="40.84" fill="#231f20"/>
  <rect x="648.63" y="387.64" width="40.84" height="40.84" fill="#231f20"/>
  <rect x="561.74" y="387.64" width="40.84" height="40.84" fill="#231f20"/>
  <rect x="691.98" y="344.25" width="40.84" height="40.84" fill="#231f20"/>
  <rect x="648.81" y="344.25" width="40.84" height="40.84" fill="#231f20"/>
  <rect x="605.61" y="344.25" width="40.84" height="40.84" fill="#231f20"/>
  <rect x="562.43" y="344.25" width="40.84" height="40.84" fill="#231f20"/>
  <rect x="691.98" y="301.25" width="40.84" height="40.84" fill="#231f20"/>
  <rect x="648.81" y="301.25" width="40.84" height="40.84" fill="#231f20"/>
  <rect x="605.37" y="301.25" width="40.84" height="40.84" fill="#231f20"/>
  <rect x="562.44" y="301.25" width="40.84" height="40.84" fill="#231f20"/>
  <rect x="519.27" y="301.25" width="40.84" height="40.84" fill="#231f20"/>
  <rect x="691.73" y="517" width="40.84" height="40.84" fill="#231f20"/>
  <rect x="648.67" y="517" width="40.84" height="40.84" fill="#231f20"/>
  <rect x="734.91" y="430.91" width="40.84" height="40.84" fill="#231f20"/>
  <rect x="691.73" y="430.91" width="40.84" height="40.84" fill="#231f20"/>
  <rect x="648.67" y="430.91" width="40.84" height="40.84" fill="#231f20"/>
  <rect x="605.61" y="430.91" width="40.84" height="40.84" fill="#231f20"/>
  <rect x="562.41" y="430.91" width="40.84" height="40.84" fill="#231f20"/>
  <rect x="519.37" y="560.21" width="40.84" height="40.84" fill="#231f20"/>
  <rect x="605.5" y="603.63" width="40.84" height="40.84" fill="#231f20"/>
  <rect x="562.32" y="603.63" width="40.84" height="40.84" fill="#231f20"/>
  <rect x="648.77" y="647.06" width="40.84" height="40.84" fill="#231f20"/>
  <rect x="605.58" y="647.06" width="40.84" height="40.84" fill="#231f20"/>
  <rect x="562.41" y="647.06" width="40.84" height="40.84" fill="#231f20"/>
  <rect x="691.98" y="776.46" width="40.84" height="40.84" fill="#231f20"/>
  <rect x="648.81" y="776.46" width="40.84" height="40.84" fill="#231f20"/>
  <rect x="692.11" y="949.23" width="40.84" height="40.84" fill="#231f20"/>
  <rect x="692.11" y="992.33" width="40.84" height="40.84" fill="#231f20"/>
  <rect x="649.05" y="949.23" width="40.84" height="40.84" fill="#231f20"/>
  <rect x="649.05" y="992.33" width="40.84" height="40.84" fill="#231f20"/>
  <rect x="735.12" y="1035.74" width="40.84" height="40.84" fill="#231f20"/>
  <rect x="735.16" y="992.33" width="40.84" height="40.84" fill="#231f20"/>
  <rect x="606" y="949.23" width="40.84" height="40.84" fill="#231f20"/>
  <rect x="562.32" y="949.23" width="40.84" height="40.84" fill="#231f20"/>
  <rect x="519.27" y="949.23" width="40.84" height="40.84" fill="#231f20"/>
  <rect x="606" y="992.33" width="40.84" height="40.84" fill="#231f20"/>
  <rect x="606" y="1034.87" width="40.84" height="40.84" fill="#231f20"/>
  <rect x="562.32" y="992.33" width="40.84" height="40.84" fill="#231f20"/>
  <rect x="519.27" y="992.33" width="40.84" height="40.84" fill="#231f20"/>
  <rect x="476.21" y="949.23" width="40.84" height="40.84" fill="#231f20"/>
  <rect x="476.21" y="992.33" width="40.84" height="40.84" fill="#231f20"/>
  <rect x="476.21" y="1035.42" width="40.84" height="40.84" fill="#231f20"/>
  <rect x="880.07" y="877.08" width="13.39" height="13.39" fill="#231f20"/>
  <rect x="836.42" y="877.08" width="13.39" height="13.39" fill="#231f20"/>
  <rect x="880.07" y="919.75" width="13.39" height="13.39" fill="#231f20"/>
  <rect x="836.42" y="919.75" width="13.39" height="13.39" fill="#231f20"/>
  <rect x="880.07" y="962.95" width="13.39" height="13.39" fill="#231f20"/>
  <rect x="836.42" y="962.95" width="13.39" height="13.39" fill="#231f20"/>
  <rect x="791.81" y="962.95" width="13.39" height="13.39" fill="#231f20"/>
  <rect x="663.35" y="919.45" width="13.39" height="13.39" fill="#231f20"/>
  <rect x="619.69" y="919.45" width="13.39" height="13.39" fill="#231f20"/>
  <rect x="576.13" y="919.45" width="13.39" height="13.39" fill="#231f20"/>
  <rect x="535.55" y="919.45" width="13.39" height="13.39" fill="#231f20"/>
  <rect x="491.89" y="919.45" width="13.39" height="13.39" fill="#231f20"/>
  <rect x="447.29" y="919.45" width="13.39" height="13.39" fill="#231f20"/>
  <rect x="663.35" y="877.08" width="13.39" height="13.39" fill="#231f20"/>
  <rect x="705.83" y="877.08" width="13.39" height="13.39" fill="#231f20"/>
  <rect x="663.35" y="832.86" width="13.39" height="13.39" fill="#231f20"/>
  <rect x="705.83" y="832.86" width="13.39" height="13.39" fill="#231f20"/>
  <rect x="619.69" y="877.08" width="13.39" height="13.39" fill="#231f20"/>
  <rect x="576.13" y="877.08" width="13.39" height="13.39" fill="#231f20"/>
  <rect x="533.09" y="877.08" width="13.39" height="13.39" fill="#231f20"/>
  <rect x="491.89" y="877.08" width="13.39" height="13.39" fill="#231f20"/>
  <rect x="447.29" y="877.08" width="13.39" height="13.39" fill="#231f20"/>
  <rect x="576.13" y="832.86" width="13.39" height="13.39" fill="#231f20"/>
  <rect x="533.09" y="832.86" width="13.39" height="13.39" fill="#231f20"/>
  <rect x="491.89" y="832.86" width="13.39" height="13.39" fill="#231f20"/>
  <rect x="576.13" y="790.18" width="13.39" height="13.39" fill="#231f20"/>
  <rect x="619.22" y="790.18" width="13.39" height="13.39" fill="#231f20"/>
  <rect x="533.09" y="790.18" width="13.39" height="13.39" fill="#231f20"/>
  <rect x="491.89" y="790.18" width="13.39" height="13.39" fill="#231f20"/>
  <rect x="576.13" y="746.8" width="13.39" height="13.39" fill="#231f20"/>
  <rect x="619.22" y="746.8" width="13.39" height="13.39" fill="#231f20"/>
  <rect x="533.09" y="746.8" width="13.39" height="13.39" fill="#231f20"/>
  <rect x="576.13" y="705.27" width="13.39" height="13.39" fill="#231f20"/>
  <rect x="619.22" y="705.27" width="13.39" height="13.39" fill="#231f20"/>
  <rect x="661.27" y="705.27" width="13.39" height="13.39" fill="#231f20"/>
  <rect x="704.36" y="705.27" width="13.39" height="13.39" fill="#231f20"/>
  <rect x="661.27" y="746.8" width="13.39" height="13.39" fill="#231f20"/>
  <rect x="704.36" y="746.8" width="13.39" height="13.39" fill="#231f20"/>
  <rect x="533.09" y="705.27" width="13.39" height="13.39" fill="#231f20"/>
  <rect x="576.13" y="487.36" width="13.39" height="13.39" fill="#231f20"/>
  <rect x="619.22" y="487.36" width="13.39" height="13.39" fill="#231f20"/>
  <rect x="619.04" y="401.36" width="13.39" height="13.39" fill="#231f20"/>
  <rect x="661.27" y="487.36" width="13.39" height="13.39" fill="#231f20"/>
  <rect x="704.36" y="487.36" width="13.39" height="13.39" fill="#231f20"/>
  <rect x="748.84" y="487.36" width="13.39" height="13.39" fill="#231f20"/>
  <rect x="791.81" y="444.63" width="13.39" height="13.39" fill="#231f20"/>
  <rect x="532.92" y="487.36" width="13.39" height="13.39" fill="#231f20"/>
  <rect x="576.13" y="531.65" width="13.39" height="13.39" fill="#231f20"/>
  <rect x="576.13" y="573.93" width="13.39" height="13.39" fill="#231f20"/>
  <rect x="619.22" y="531.65" width="13.39" height="13.39" fill="#231f20"/>
  <rect x="534.01" y="531.65" width="13.39" height="13.39" fill="#231f20"/>
  <rect x="491.89" y="705.27" width="13.39" height="13.39" fill="#231f20"/>
  <rect x="533.09" y="660.78" width="13.39" height="13.39" fill="#231f20"/>
  <rect x="489.94" y="660.78" width="13.39" height="13.39" fill="#231f20"/>
  <rect x="533.09" y="617.36" width="13.39" height="13.39" fill="#231f20"/>
  <rect x="489.94" y="617.36" width="13.39" height="13.39" fill="#231f20"/>
  <rect x="447.29" y="617.36" width="13.39" height="13.39" fill="#231f20"/>
  <rect x="404.15" y="617.36" width="13.39" height="13.39" fill="#231f20"/>
  <rect x="362.08" y="617.36" width="13.39" height="13.39" fill="#231f20"/>
  <rect x="447.29" y="660.78" width="13.39" height="13.39" fill="#231f20"/>
  <rect x="404.15" y="660.78" width="13.39" height="13.39" fill="#231f20"/>
  <rect x="362.08" y="660.78" width="13.39" height="13.39" fill="#231f20"/>
  <rect x="404.15" y="705.27" width="13.39" height="13.39" fill="#231f20"/>
  <rect x="362.08" y="705.27" width="13.39" height="13.39" fill="#231f20"/>
  <rect x="447.29" y="705.27" width="13.39" height="13.39" fill="#231f20"/>
  <rect x="491.89" y="746.8" width="13.39" height="13.39" fill="#231f20"/>
  <rect x="446.31" y="790.18" width="13.39" height="13.39" fill="#231f20"/>
  <rect x="405.73" y="790.18" width="13.39" height="13.39" fill="#231f20"/>
  <rect x="362.08" y="790.18" width="13.39" height="13.39" fill="#231f20"/>
  <rect x="446.31" y="746.8" width="13.39" height="13.39" fill="#231f20"/>
  <rect x="405.73" y="746.8" width="13.39" height="13.39" fill="#231f20"/>
  <rect x="362.08" y="746.8" width="13.39" height="13.39" fill="#231f20"/>
  <rect x="318.44" y="746.8" width="13.39" height="13.39" fill="#231f20"/>
  <rect x="274.78" y="746.8" width="13.39" height="13.39" fill="#231f20"/>
  <rect x="489.94" y="531.65" width="13.39" height="13.39" fill="#231f20"/>
  <rect x="489.94" y="487.36" width="13.39" height="13.39" fill="#231f20"/>
  <rect x="489.94" y="444.63" width="13.39" height="13.39" fill="#231f20"/>
  <rect x="447.67" y="487.36" width="13.39" height="13.39" fill="#231f20"/>
  <rect x="447.67" y="444.63" width="13.39" height="13.39" fill="#231f20"/>
  <rect x="533.09" y="444.63" width="13.39" height="13.39" fill="#231f20"/>
  <rect x="446.11" y="401.36" width="13.39" height="13.39" fill="#231f20"/>
  <rect x="489.76" y="401.36" width="13.39" height="13.39" fill="#231f20"/>
  <rect x="532.91" y="401.36" width="13.39" height="13.39" fill="#231f20"/>
  <rect x="533.6" y="357.98" width="13.39" height="13.39" fill="#231f20"/>
  <rect x="532.92" y="271.8" width="13.39" height="13.39" fill="#231f20"/>
  <rect x="533.09" y="228.59" width="13.39" height="13.39" fill="#231f20"/>
  <rect x="533.09" y="185.74" width="13.39" height="13.39" fill="#231f20"/>
  <rect x="533.09" y="141.98" width="13.39" height="13.39" fill="#231f20"/>
  <rect x="575.86" y="141.98" width="13.39" height="13.39" fill="#231f20"/>
  <rect x="575.86" y="98.95" width="13.39" height="13.39" fill="#231f20"/>
  <rect x="576.48" y="55.55" width="13.39" height="13.39" fill="#231f20"/>
  <rect x="619.03" y="141.98" width="13.39" height="13.39" fill="#231f20"/>
  <rect x="705.7" y="185.74" width="13.39" height="13.39" fill="#231f20"/>
  <rect x="619.03" y="98.95" width="13.39" height="13.39" fill="#231f20"/>
  <rect x="619.65" y="55.55" width="13.39" height="13.39" fill="#231f20"/>
  <rect x="792.12" y="98.95" width="13.39" height="13.39" fill="#231f20"/>
  <rect x="792.12" y="55.55" width="13.39" height="13.39" fill="#231f20"/>
  <rect x="532.78" y="98.95" width="13.39" height="13.39" fill="#231f20"/>
  <rect x="533.4" y="55.55" width="13.39" height="13.39" fill="#231f20"/>
  <rect x="359.15" y="271.8" width="13.39" height="13.39" fill="#231f20"/>
  <rect x="359.15" y="228.59" width="13.39" height="13.39" fill="#231f20"/>
  <rect x="359.15" y="185.74" width="13.39" height="13.39" fill="#231f20"/>
  <rect x="359.15" y="141.98" width="13.39" height="13.39" fill="#231f20"/>
  <rect x="359.15" y="98.95" width="13.39" height="13.39" fill="#231f20"/>
  <rect x="359.15" y="55.55" width="13.39" height="13.39" fill="#231f20"/>
  <rect x="403.77" y="271.8" width="13.39" height="13.39" fill="#231f20"/>
  <rect x="403.77" y="228.59" width="13.39" height="13.39" fill="#231f20"/>
  <rect x="403.77" y="185.74" width="13.39" height="13.39" fill="#231f20"/>
  <rect x="403.77" y="141.98" width="13.39" height="13.39" fill="#231f20"/>
  <rect x="403.77" y="98.95" width="13.39" height="13.39" fill="#231f20"/>
  <rect x="403.77" y="55.55" width="13.39" height="13.39" fill="#231f20"/>
  <rect x="273.01" y="98.95" width="13.39" height="13.39" fill="#231f20"/>
  <rect x="273.01" y="55.55" width="13.39" height="13.39" fill="#231f20"/>
  <rect x="228.38" y="98.95" width="13.39" height="13.39" fill="#231f20"/>
  <rect x="228.38" y="55.55" width="13.39" height="13.39" fill="#231f20"/>
  <rect x="317.63" y="98.95" width="13.39" height="13.39" fill="#231f20"/>
  <rect x="317.63" y="55.55" width="13.39" height="13.39" fill="#231f20"/>
  <rect x="359.15" y="12.04" width="13.39" height="13.39" fill="#231f20"/>
  <rect x="403.77" y="12.04" width="13.39" height="13.39" fill="#231f20"/>
  <rect x="273.01" y="12.04" width="13.39" height="13.39" fill="#231f20"/>
  <rect x="228.38" y="12.04" width="13.39" height="13.39" fill="#231f20"/>
  <rect x="317.63" y="12.04" width="13.39" height="13.39" fill="#231f20"/>
  <rect x="447.67" y="271.8" width="13.39" height="13.39" fill="#231f20"/>
  <rect x="447.67" y="228.59" width="13.39" height="13.39" fill="#231f20"/>
  <rect x="447.67" y="185.74" width="13.39" height="13.39" fill="#231f20"/>
  <rect x="447.67" y="141.98" width="13.39" height="13.39" fill="#231f20"/>
  <rect x="447.67" y="98.95" width="13.39" height="13.39" fill="#231f20"/>
  <rect x="447.67" y="55.55" width="13.39" height="13.39" fill="#231f20"/>
  <rect x="492.29" y="271.8" width="13.39" height="13.39" fill="#231f20"/>
  <rect x="492.29" y="228.59" width="13.39" height="13.39" fill="#231f20"/>
  <rect x="359.15" y="357.98" width="13.39" height="13.39" fill="#231f20"/>
  <rect x="359.15" y="314.97" width="13.39" height="13.39" fill="#231f20"/>
  <rect x="403.77" y="357.98" width="13.39" height="13.39" fill="#231f20"/>
  <rect x="403.77" y="314.97" width="13.39" height="13.39" fill="#231f20"/>
  <rect x="358.97" y="401.36" width="13.39" height="13.39" fill="#231f20"/>
  <rect x="403.59" y="401.36" width="13.39" height="13.39" fill="#231f20"/>
  <rect x="316.4" y="401.36" width="13.39" height="13.39" fill="#231f20"/>
  <rect x="229.26" y="401.36" width="13.39" height="13.39" fill="#231f20"/>
  <rect x="273.88" y="401.36" width="13.39" height="13.39" fill="#231f20"/>
  <rect x="359.15" y="487.36" width="13.39" height="13.39" fill="#231f20"/>
  <rect x="359.15" y="444.63" width="13.39" height="13.39" fill="#231f20"/>
  <rect x="403.77" y="487.36" width="13.39" height="13.39" fill="#231f20"/>
  <rect x="403.77" y="444.63" width="13.39" height="13.39" fill="#231f20"/>
  <rect x="447.67" y="573.95" width="13.39" height="13.39" fill="#231f20"/>
  <rect x="447.67" y="529.52" width="13.39" height="13.39" fill="#231f20"/>
  <rect x="359.15" y="575.12" width="13.39" height="13.39" fill="#231f20"/>
  <rect x="359.15" y="530.69" width="13.39" height="13.39" fill="#231f20"/>
  <rect x="318.44" y="575.12" width="13.39" height="13.39" fill="#231f20"/>
  <rect x="318.44" y="530.69" width="13.39" height="13.39" fill="#231f20"/>
  <rect x="403.77" y="575.12" width="13.39" height="13.39" fill="#231f20"/>
  <rect x="403.77" y="530.69" width="13.39" height="13.39" fill="#231f20"/>
  <rect x="447.67" y="357.98" width="13.39" height="13.39" fill="#231f20"/>
  <rect x="447.67" y="314.97" width="13.39" height="13.39" fill="#231f20"/>
  <rect x="492.29" y="357.98" width="13.39" height="13.39" fill="#231f20"/>
  <rect x="492.29" y="314.97" width="13.39" height="13.39" fill="#231f20"/>
  <rect x="492.29" y="185.74" width="13.39" height="13.39" fill="#231f20"/>
  <rect x="492.29" y="141.98" width="13.39" height="13.39" fill="#231f20"/>
  <rect x="492.29" y="98.95" width="13.39" height="13.39" fill="#231f20"/>
  <rect x="492.29" y="55.55" width="13.39" height="13.39" fill="#231f20"/>
  <rect x="619.26" y="12.04" width="13.39" height="13.39" fill="#231f20"/>
  <rect x="576.18" y="12.04" width="13.39" height="13.39" fill="#231f20"/>
  <rect x="705.66" y="12.04" width="13.39" height="13.39" fill="#231f20"/>
  <rect x="662.58" y="12.04" width="13.39" height="13.39" fill="#231f20"/>
  <rect x="790.59" y="12.04" width="13.39" height="13.39" fill="#231f20"/>
  <rect x="747.52" y="12.04" width="13.39" height="13.39" fill="#231f20"/>
  <rect x="489.94" y="573.17" width="13.39" height="13.39" fill="#231f20"/>
  <rect x="447.29" y="832.86" width="13.39" height="13.39" fill="#231f20"/>
  <rect x="880.07" y="1006.05" width="13.39" height="13.39" fill="#231f20"/>
  <rect x="836.42" y="1006.05" width="13.39" height="13.39" fill="#231f20"/>
  <rect x="791.81" y="1006.05" width="13.39" height="13.39" fill="#231f20"/>
  <rect x="880.07" y="1048.6" width="13.39" height="13.39" fill="#231f20"/>
  <rect x="880.07" y="660.78" width="13.39" height="13.39" fill="#231f20"/>
  <rect x="880.07" y="703.72" width="13.39" height="13.39" fill="#231f20"/>
  <rect x="880.07" y="746.92" width="13.39" height="13.39" fill="#231f20"/>
  <rect x="880.07" y="790.01" width="13.39" height="13.39" fill="#231f20"/>
  <rect x="880.07" y="832.56" width="13.39" height="13.39" fill="#231f20"/>
  <rect x="836.42" y="1048.6" width="13.39" height="13.39" fill="#231f20"/>
  <rect x="836.42" y="660.78" width="13.39" height="13.39" fill="#231f20"/>
  <rect x="836.42" y="703.72" width="13.39" height="13.39" fill="#231f20"/>
  <rect x="836.42" y="746.92" width="13.39" height="13.39" fill="#231f20"/>
  <rect x="836.42" y="790.01" width="13.39" height="13.39" fill="#231f20"/>
  <rect x="836.42" y="832.56" width="13.39" height="13.39" fill="#231f20"/>
  <rect x="880.07" y="444.63" width="13.39" height="13.39" fill="#231f20"/>
  <rect x="880.07" y="487.36" width="13.39" height="13.39" fill="#231f20"/>
  <rect x="880.07" y="530.56" width="13.39" height="13.39" fill="#231f20"/>
  <rect x="880.07" y="573.66" width="13.39" height="13.39" fill="#231f20"/>
  <rect x="880.07" y="617.36" width="13.39" height="13.39" fill="#231f20"/>
  <rect x="836.42" y="444.63" width="13.39" height="13.39" fill="#231f20"/>
  <rect x="836.42" y="487.36" width="13.39" height="13.39" fill="#231f20"/>
  <rect x="836.42" y="530.56" width="13.39" height="13.39" fill="#231f20"/>
  <rect x="836.42" y="573.66" width="13.39" height="13.39" fill="#231f20"/>
  <rect x="836.42" y="617.36" width="13.39" height="13.39" fill="#231f20"/>
  <rect x="880.07" y="228.59" width="13.39" height="13.39" fill="#231f20"/>
  <rect x="880.07" y="271.8" width="13.39" height="13.39" fill="#231f20"/>
  <rect x="880.07" y="314.97" width="13.39" height="13.39" fill="#231f20"/>
  <rect x="880.07" y="357.98" width="13.39" height="13.39" fill="#231f20"/>
  <rect x="879.89" y="401.36" width="13.39" height="13.39" fill="#231f20"/>
  <rect x="836.42" y="228.59" width="13.39" height="13.39" fill="#231f20"/>
  <rect x="836.42" y="271.8" width="13.39" height="13.39" fill="#231f20"/>
  <rect x="836.42" y="314.97" width="13.39" height="13.39" fill="#231f20"/>
  <rect x="836.42" y="357.98" width="13.39" height="13.39" fill="#231f20"/>
  <rect x="880.07" y="55.55" width="13.39" height="13.39" fill="#231f20"/>
  <rect x="880.07" y="98.95" width="13.39" height="13.39" fill="#231f20"/>
  <rect x="880.07" y="141.98" width="13.39" height="13.39" fill="#231f20"/>
  <rect x="880.07" y="185.74" width="13.39" height="13.39" fill="#231f20"/>
  <rect x="836.42" y="55.55" width="13.39" height="13.39" fill="#231f20"/>
  <rect x="880.07" y="12.04" width="13.39" height="13.39" fill="#231f20"/>
  <rect x="836.42" y="12.04" width="13.39" height="13.39" fill="#231f20"/>
  <rect x="836.42" y="98.95" width="13.39" height="13.39" fill="#231f20"/>
  <rect x="836.42" y="141.98" width="13.39" height="13.39" fill="#231f20"/>
  <rect x="836.42" y="185.74" width="13.39" height="13.39" fill="#231f20"/>
  <rect x="836.24" y="401.36" width="13.39" height="13.39" fill="#231f20"/>
  <rect x="791.81" y="1048.6" width="13.39" height="13.39" fill="#231f20"/>
  <rect x="447.93" y="962.95" width="13.39" height="13.39" fill="#231f20"/>
  <rect x="447.93" y="1006.05" width="13.39" height="13.39" fill="#231f20"/>
  <rect x="447.93" y="1048.6" width="13.39" height="13.39" fill="#231f20"/>
  <rect x="404.19" y="919.45" width="13.39" height="13.39" fill="#231f20"/>
  <rect x="404.19" y="877.08" width="13.39" height="13.39" fill="#231f20"/>
  <rect x="404.19" y="832.86" width="13.39" height="13.39" fill="#231f20"/>
  <rect x="404.84" y="962.95" width="13.39" height="13.39" fill="#231f20"/>
  <rect x="404.84" y="1006.05" width="13.39" height="13.39" fill="#231f20"/>
  <rect x="404.84" y="1048.6" width="13.39" height="13.39" fill="#231f20"/>
  <rect x="360.01" y="919.45" width="13.39" height="13.39" fill="#231f20"/>
  <rect x="274.78" y="919.45" width="13.39" height="13.39" fill="#231f20"/>
  <rect x="230.6" y="919.45" width="13.39" height="13.39" fill="#231f20"/>
  <rect x="274.78" y="962.95" width="13.39" height="13.39" fill="#231f20"/>
  <rect x="230.6" y="962.95" width="13.39" height="13.39" fill="#231f20"/>
  <rect x="360.01" y="877.08" width="13.39" height="13.39" fill="#231f20"/>
  <rect x="360.01" y="832.86" width="13.39" height="13.39" fill="#231f20"/>
  <rect x="360.66" y="962.95" width="13.39" height="13.39" fill="#231f20"/>
  <rect x="360.66" y="1006.05" width="13.39" height="13.39" fill="#231f20"/>
  <rect x="360.66" y="1048.6" width="13.39" height="13.39" fill="#231f20"/>
  <rect x="232.75" y="1048.6" width="13.39" height="13.39" fill="#231f20"/>
  <rect x="707.72" y="1048.6" width="13.39" height="13.39" fill="#231f20"/>
  <rect x="663.11" y="1048.6" width="13.39" height="13.39" fill="#231f20"/>
  <rect x="579.52" y="1048.6" width="13.39" height="13.39" fill="#231f20"/>
  <rect x="534.92" y="1048.6" width="13.39" height="13.39" fill="#231f20"/>
</svg>