<?xml version="1.0" encoding="UTF-8"?>
<svg id="_18" data-name="18" xmlns="http://www.w3.org/2000/svg" viewBox="0 0 1080 1080">
  <rect x="691.88" y="993.49" width="40.84" height="40.84" fill="#231f20"/>
  <rect x="648.68" y="993.49" width="40.84" height="40.84" fill="#231f20"/>
  <rect x="691.88" y="950.24" width="40.84" height="40.84" fill="#231f20"/>
  <rect x="648.68" y="950.24" width="40.84" height="40.84" fill="#231f20"/>
  <rect x="648.68" y="906.99" width="40.84" height="40.84" fill="#231f20"/>
  <rect x="691.88" y="1036.75" width="40.84" height="40.84" fill="#231f20"/>
  <rect x="648.68" y="1036.75" width="40.84" height="40.84" fill="#231f20"/>
  <rect x="605.47" y="993.49" width="40.84" height="40.84" fill="#231f20"/>
  <rect x="562.27" y="993.49" width="40.84" height="40.84" fill="#231f20"/>
  <rect x="605.47" y="1036.75" width="40.84" height="40.84" fill="#231f20"/>
  <rect x="605.47" y="906.99" width="40.84" height="40.84" fill="#231f20"/>
  <rect x="605.47" y="950.24" width="40.84" height="40.84" fill="#231f20"/>
  <rect x="605.47" y="863.74" width="40.84" height="40.84" fill="#231f20"/>
  <rect x="648.68" y="777.23" width="40.84" height="40.84" fill="#231f20"/>
  <rect x="605.47" y="777.23" width="40.84" height="40.84" fill="#231f20"/>
  <rect x="605.47" y="820.48" width="40.84" height="40.84" fill="#231f20"/>
  <rect x="648.68" y="733.98" width="40.84" height="40.84" fill="#231f20"/>
  <rect x="648.68" y="690.73" width="40.84" height="40.84" fill="#231f20"/>
  <rect x="648.68" y="604.22" width="40.84" height="40.84" fill="#231f20"/>
  <rect x="648.68" y="647.47" width="40.84" height="40.84" fill="#231f20"/>
  <rect x="648.68" y="561.49" width="40.84" height="40.84" fill="#231f20"/>
  <rect x="648.68" y="518.24" width="40.84" height="40.84" fill="#231f20"/>
  <rect x="605.47" y="561.49" width="40.84" height="40.84" fill="#231f20"/>
  <rect x="605.47" y="518.24" width="40.84" height="40.84" fill="#231f20"/>
  <rect x="562.27" y="518.24" width="40.84" height="40.84" fill="#231f20"/>
  <rect x="648.68" y="431.74" width="40.84" height="40.84" fill="#231f20"/>
  <rect x="648.68" y="474.99" width="40.84" height="40.84" fill="#231f20"/>
  <rect x="605.47" y="474.99" width="40.84" height="40.84" fill="#231f20"/>
  <rect x="605.47" y="431.74" width="40.84" height="40.84" fill="#231f20"/>
  <rect x="648.68" y="388.48" width="40.84" height="40.84" fill="#231f20"/>
  <rect x="432.49" y="561.49" width="40.84" height="40.84" fill="#231f20"/>
  <rect x="432.49" y="518.24" width="40.84" height="40.84" fill="#231f20"/>
  <rect x="432.49" y="431.74" width="40.84" height="40.84" fill="#231f20"/>
  <rect x="432.49" y="474.99" width="40.84" height="40.84" fill="#231f20"/>
  <rect x="389.33" y="561.49" width="40.84" height="40.84" fill="#231f20"/>
  <rect x="389.33" y="518.24" width="40.84" height="40.84" fill="#231f20"/>
  <rect x="389.33" y="647.84" width="40.84" height="40.84" fill="#231f20"/>
  <rect x="389.33" y="604.59" width="40.84" height="40.84" fill="#231f20"/>
  <rect x="389.33" y="474.99" width="40.84" height="40.84" fill="#231f20"/>
  <rect x="432.49" y="388.48" width="40.84" height="40.84" fill="#231f20"/>
  <rect x="605.47" y="388.48" width="40.84" height="40.84" fill="#231f20"/>
  <rect x="562.27" y="388.48" width="40.84" height="40.84" fill="#231f20"/>
  <rect x="648.68" y="301.98" width="40.84" height="40.84" fill="#231f20"/>
  <rect x="648.68" y="345.23" width="40.84" height="40.84" fill="#231f20"/>
  <rect x="648.68" y="258.73" width="40.84" height="40.84" fill="#231f20"/>
  <rect x="648.68" y="172.22" width="40.84" height="40.84" fill="#231f20"/>
  <rect x="648.68" y="215.48" width="40.84" height="40.84" fill="#231f20"/>
  <rect x="605.47" y="345.23" width="40.84" height="40.84" fill="#231f20"/>
  <rect x="605.47" y="301.98" width="40.84" height="40.84" fill="#231f20"/>
  <rect x="605.42" y="258.73" width="40.84" height="40.84" fill="#231f20"/>
  <rect x="562.21" y="258.73" width="40.84" height="40.84" fill="#231f20"/>
  <rect x="519.01" y="258.73" width="40.84" height="40.84" fill="#231f20"/>
  <rect x="475.75" y="258.73" width="40.84" height="40.84" fill="#231f20"/>
  <rect x="562.21" y="301.98" width="40.84" height="40.84" fill="#231f20"/>
  <rect x="519.01" y="301.98" width="40.84" height="40.84" fill="#231f20"/>
  <rect x="475.75" y="301.98" width="40.84" height="40.84" fill="#231f20"/>
  <rect x="519.01" y="345.23" width="40.84" height="40.84" fill="#231f20"/>
  <rect x="475.75" y="345.23" width="40.84" height="40.84" fill="#231f20"/>
  <rect x="432.55" y="258.73" width="40.84" height="40.84" fill="#231f20"/>
  <rect x="605.42" y="128.97" width="40.84" height="40.84" fill="#231f20"/>
  <rect x="562.21" y="128.97" width="40.84" height="40.84" fill="#231f20"/>
  <rect x="605.42" y="86.52" width="40.84" height="40.84" fill="#231f20"/>
  <rect x="648.68" y="128.97" width="40.84" height="40.84" fill="#231f20"/>
  <rect x="648.68" y="86.52" width="40.84" height="40.84" fill="#231f20"/>
  <rect x="562.21" y="86.52" width="40.84" height="40.84" fill="#231f20"/>
  <rect x="519.01" y="128.97" width="40.84" height="40.84" fill="#231f20"/>
  <rect x="605.42" y="172.22" width="40.84" height="40.84" fill="#231f20"/>
  <rect x="562.21" y="172.22" width="40.84" height="40.84" fill="#231f20"/>
  <rect x="519.01" y="172.22" width="40.84" height="40.84" fill="#231f20"/>
  <rect x="475.75" y="128.97" width="40.84" height="40.84" fill="#231f20"/>
  <rect x="432.55" y="128.97" width="40.84" height="40.84" fill="#231f20"/>
  <rect x="475.75" y="85.72" width="40.84" height="40.84" fill="#231f20"/>
  <rect x="475.75" y="42.88" width="40.84" height="40.84" fill="#231f20"/>
  <rect x="519.19" y="42.88" width="40.84" height="40.84" fill="#231f20"/>
  <rect x="562.21" y="42.88" width="40.84" height="40.84" fill="#231f20"/>
  <rect x="432.55" y="85.72" width="40.84" height="40.84" fill="#231f20"/>
  <rect x="562.27" y="431.74" width="40.84" height="40.84" fill="#231f20"/>
  <rect x="691.88" y="777.23" width="40.84" height="40.84" fill="#231f20"/>
  <rect x="691.88" y="733.98" width="40.84" height="40.84" fill="#231f20"/>
  <rect x="691.88" y="690.73" width="40.84" height="40.84" fill="#231f20"/>
  <rect x="691.88" y="604.22" width="40.84" height="40.84" fill="#231f20"/>
  <rect x="691.88" y="647.47" width="40.84" height="40.84" fill="#231f20"/>
  <rect x="605.47" y="604.22" width="40.84" height="40.84" fill="#231f20"/>
  <rect x="605.47" y="647.47" width="40.84" height="40.84" fill="#231f20"/>
  <rect x="562.27" y="647.47" width="40.84" height="40.84" fill="#231f20"/>
  <rect x="389.33" y="820.69" width="40.84" height="40.84" fill="#231f20"/>
  <rect x="389.33" y="1036.75" width="40.84" height="40.84" fill="#231f20"/>
  <rect x="389.33" y="777.44" width="40.84" height="40.84" fill="#231f20"/>
  <rect x="389.33" y="690.94" width="40.84" height="40.84" fill="#231f20"/>
  <rect x="389.33" y="734.19" width="40.84" height="40.84" fill="#231f20"/>
  <rect x="691.88" y="820.48" width="40.84" height="40.84" fill="#231f20"/>
  <rect x="562.27" y="1036.75" width="40.84" height="40.84" fill="#231f20"/>
  <rect x="748.46" y="1007.22" width="13.39" height="13.39" fill="#231f20"/>
  <rect x="748.46" y="1050.47" width="13.39" height="13.39" fill="#231f20"/>
  <rect x="748.46" y="920.71" width="13.39" height="13.39" fill="#231f20"/>
  <rect x="748.46" y="963.97" width="13.39" height="13.39" fill="#231f20"/>
  <rect x="790.41" y="1007.22" width="13.39" height="13.39" fill="#231f20"/>
  <rect x="790.41" y="963.97" width="13.39" height="13.39" fill="#231f20"/>
  <rect x="705.6" y="920.71" width="13.39" height="13.39" fill="#231f20"/>
  <rect x="705.6" y="877.46" width="13.39" height="13.39" fill="#231f20"/>
  <rect x="748.46" y="877.46" width="13.39" height="13.39" fill="#231f20"/>
  <rect x="532.91" y="1007.22" width="13.39" height="13.39" fill="#231f20"/>
  <rect x="532.91" y="1050.47" width="13.39" height="13.39" fill="#231f20"/>
  <rect x="532.91" y="920.71" width="13.39" height="13.39" fill="#231f20"/>
  <rect x="532.91" y="963.97" width="13.39" height="13.39" fill="#231f20"/>
  <rect x="532.91" y="877.46" width="13.39" height="13.39" fill="#231f20"/>
  <rect x="575.99" y="920.71" width="13.39" height="13.39" fill="#231f20"/>
  <rect x="575.99" y="963.97" width="13.39" height="13.39" fill="#231f20"/>
  <rect x="575.99" y="877.46" width="13.39" height="13.39" fill="#231f20"/>
  <rect x="575.99" y="791.17" width="13.39" height="13.39" fill="#231f20"/>
  <rect x="575.99" y="834.42" width="13.39" height="13.39" fill="#231f20"/>
  <rect x="575.99" y="747.91" width="13.39" height="13.39" fill="#231f20"/>
  <rect x="619.2" y="747.91" width="13.39" height="13.39" fill="#231f20"/>
  <rect x="575.99" y="704.66" width="13.39" height="13.39" fill="#231f20"/>
  <rect x="532.91" y="791.17" width="13.39" height="13.39" fill="#231f20"/>
  <rect x="532.91" y="834.42" width="13.39" height="13.39" fill="#231f20"/>
  <rect x="532.91" y="747.91" width="13.39" height="13.39" fill="#231f20"/>
  <rect x="532.91" y="704.66" width="13.39" height="13.39" fill="#231f20"/>
  <rect x="489.53" y="1007.22" width="13.39" height="13.39" fill="#231f20"/>
  <rect x="489.53" y="1050.47" width="13.39" height="13.39" fill="#231f20"/>
  <rect x="489.53" y="920.71" width="13.39" height="13.39" fill="#231f20"/>
  <rect x="489.53" y="963.97" width="13.39" height="13.39" fill="#231f20"/>
  <rect x="489.53" y="877.46" width="13.39" height="13.39" fill="#231f20"/>
  <rect x="489.53" y="791.17" width="13.39" height="13.39" fill="#231f20"/>
  <rect x="489.53" y="834.42" width="13.39" height="13.39" fill="#231f20"/>
  <rect x="489.53" y="747.91" width="13.39" height="13.39" fill="#231f20"/>
  <rect x="489.53" y="704.66" width="13.39" height="13.39" fill="#231f20"/>
  <rect x="447.49" y="1007.22" width="13.39" height="13.39" fill="#231f20"/>
  <rect x="447.49" y="1050.47" width="13.39" height="13.39" fill="#231f20"/>
  <rect x="447.49" y="920.71" width="13.39" height="13.39" fill="#231f20"/>
  <rect x="447.49" y="963.97" width="13.39" height="13.39" fill="#231f20"/>
  <rect x="447.49" y="877.46" width="13.39" height="13.39" fill="#231f20"/>
  <rect x="403.06" y="1007.22" width="13.39" height="13.39" fill="#231f20"/>
  <rect x="403.06" y="920.71" width="13.39" height="13.39" fill="#231f20"/>
  <rect x="403.06" y="963.97" width="13.39" height="13.39" fill="#231f20"/>
  <rect x="360.59" y="1007.22" width="13.39" height="13.39" fill="#231f20"/>
  <rect x="360.59" y="1050.47" width="13.39" height="13.39" fill="#231f20"/>
  <rect x="360.59" y="963.97" width="13.39" height="13.39" fill="#231f20"/>
  <rect x="318.12" y="963.97" width="13.39" height="13.39" fill="#231f20"/>
  <rect x="403.06" y="877.46" width="13.39" height="13.39" fill="#231f20"/>
  <rect x="360.59" y="920.71" width="13.39" height="13.39" fill="#231f20"/>
  <rect x="360.59" y="877.46" width="13.39" height="13.39" fill="#231f20"/>
  <rect x="447.49" y="791.17" width="13.39" height="13.39" fill="#231f20"/>
  <rect x="447.49" y="834.42" width="13.39" height="13.39" fill="#231f20"/>
  <rect x="447.49" y="747.91" width="13.39" height="13.39" fill="#231f20"/>
  <rect x="447.49" y="704.66" width="13.39" height="13.39" fill="#231f20"/>
  <rect x="532.91" y="661.57" width="13.39" height="13.39" fill="#231f20"/>
  <rect x="489.53" y="661.57" width="13.39" height="13.39" fill="#231f20"/>
  <rect x="447.49" y="661.57" width="13.39" height="13.39" fill="#231f20"/>
  <rect x="532.91" y="620.49" width="13.39" height="13.39" fill="#231f20"/>
  <rect x="575.99" y="620.49" width="13.39" height="13.39" fill="#231f20"/>
  <rect x="489.53" y="620.49" width="13.39" height="13.39" fill="#231f20"/>
  <rect x="532.91" y="575.22" width="13.39" height="13.39" fill="#231f20"/>
  <rect x="575.99" y="575.22" width="13.39" height="13.39" fill="#231f20"/>
  <rect x="489.53" y="575.22" width="13.39" height="13.39" fill="#231f20"/>
  <rect x="532.91" y="531.86" width="13.39" height="13.39" fill="#231f20"/>
  <rect x="791.31" y="877.46" width="13.39" height="13.39" fill="#231f20"/>
  <rect x="791.31" y="791.17" width="13.39" height="13.39" fill="#231f20"/>
  <rect x="791.31" y="834.42" width="13.39" height="13.39" fill="#231f20"/>
  <rect x="791.31" y="747.91" width="13.39" height="13.39" fill="#231f20"/>
  <rect x="791.31" y="704.66" width="13.39" height="13.39" fill="#231f20"/>
  <rect x="791.31" y="661.57" width="13.39" height="13.39" fill="#231f20"/>
  <rect x="791.31" y="620.49" width="13.39" height="13.39" fill="#231f20"/>
  <rect x="791.31" y="575.22" width="13.39" height="13.39" fill="#231f20"/>
  <rect x="791.31" y="531.86" width="13.39" height="13.39" fill="#231f20"/>
  <rect x="748.46" y="791.17" width="13.39" height="13.39" fill="#231f20"/>
  <rect x="748.46" y="834.42" width="13.39" height="13.39" fill="#231f20"/>
  <rect x="748.46" y="747.91" width="13.39" height="13.39" fill="#231f20"/>
  <rect x="748.46" y="704.66" width="13.39" height="13.39" fill="#231f20"/>
  <rect x="748.46" y="661.57" width="13.39" height="13.39" fill="#231f20"/>
  <rect x="748.46" y="620.49" width="13.39" height="13.39" fill="#231f20"/>
  <rect x="748.46" y="575.22" width="13.39" height="13.39" fill="#231f20"/>
  <rect x="748.46" y="531.86" width="13.39" height="13.39" fill="#231f20"/>
  <rect x="705.6" y="575.22" width="13.39" height="13.39" fill="#231f20"/>
  <rect x="705.6" y="531.86" width="13.39" height="13.39" fill="#231f20"/>
  <rect x="791.31" y="488.82" width="13.39" height="13.39" fill="#231f20"/>
  <rect x="791.31" y="445.46" width="13.39" height="13.39" fill="#231f20"/>
  <rect x="748.46" y="488.82" width="13.39" height="13.39" fill="#231f20"/>
  <rect x="748.46" y="445.46" width="13.39" height="13.39" fill="#231f20"/>
  <rect x="705.6" y="488.82" width="13.39" height="13.39" fill="#231f20"/>
  <rect x="705.6" y="445.46" width="13.39" height="13.39" fill="#231f20"/>
  <rect x="791.31" y="403.41" width="13.39" height="13.39" fill="#231f20"/>
  <rect x="791.31" y="360.06" width="13.39" height="13.39" fill="#231f20"/>
  <rect x="748.46" y="403.41" width="13.39" height="13.39" fill="#231f20"/>
  <rect x="748.46" y="360.06" width="13.39" height="13.39" fill="#231f20"/>
  <rect x="705.6" y="403.41" width="13.39" height="13.39" fill="#231f20"/>
  <rect x="705.6" y="360.06" width="13.39" height="13.39" fill="#231f20"/>
  <rect x="791.31" y="273.66" width="13.39" height="13.39" fill="#231f20"/>
  <rect x="748.46" y="317.01" width="13.39" height="13.39" fill="#231f20"/>
  <rect x="748.46" y="273.66" width="13.39" height="13.39" fill="#231f20"/>
  <rect x="705.6" y="317.01" width="13.39" height="13.39" fill="#231f20"/>
  <rect x="705.6" y="273.66" width="13.39" height="13.39" fill="#231f20"/>
  <rect x="791.31" y="229.62" width="13.39" height="13.39" fill="#231f20"/>
  <rect x="791.31" y="186.26" width="13.39" height="13.39" fill="#231f20"/>
  <rect x="748.46" y="229.62" width="13.39" height="13.39" fill="#231f20"/>
  <rect x="748.46" y="186.26" width="13.39" height="13.39" fill="#231f20"/>
  <rect x="705.6" y="229.62" width="13.39" height="13.39" fill="#231f20"/>
  <rect x="705.6" y="186.26" width="13.39" height="13.39" fill="#231f20"/>
  <rect x="791.31" y="99.86" width="13.39" height="13.39" fill="#231f20"/>
  <rect x="748.46" y="143.22" width="13.39" height="13.39" fill="#231f20"/>
  <rect x="748.46" y="99.86" width="13.39" height="13.39" fill="#231f20"/>
  <rect x="705.6" y="143.22" width="13.39" height="13.39" fill="#231f20"/>
  <rect x="705.6" y="99.86" width="13.39" height="13.39" fill="#231f20"/>
  <rect x="402.9" y="445.46" width="13.39" height="13.39" fill="#231f20"/>
  <rect x="402.9" y="403.41" width="13.39" height="13.39" fill="#231f20"/>
  <rect x="402.9" y="360.06" width="13.39" height="13.39" fill="#231f20"/>
  <rect x="360.59" y="445.46" width="13.39" height="13.39" fill="#231f20"/>
  <rect x="360.59" y="403.41" width="13.39" height="13.39" fill="#231f20"/>
  <rect x="360.59" y="360.06" width="13.39" height="13.39" fill="#231f20"/>
  <rect x="360.59" y="574.56" width="13.39" height="13.39" fill="#231f20"/>
  <rect x="360.59" y="532.52" width="13.39" height="13.39" fill="#231f20"/>
  <rect x="360.59" y="489.16" width="13.39" height="13.39" fill="#231f20"/>
  <rect x="402.9" y="317.01" width="13.39" height="13.39" fill="#231f20"/>
  <rect x="402.9" y="273.66" width="13.39" height="13.39" fill="#231f20"/>
  <rect x="402.9" y="229.62" width="13.39" height="13.39" fill="#231f20"/>
  <rect x="360.59" y="273.66" width="13.39" height="13.39" fill="#231f20"/>
  <rect x="360.59" y="229.62" width="13.39" height="13.39" fill="#231f20"/>
  <rect x="402.9" y="186.26" width="13.39" height="13.39" fill="#231f20"/>
  <rect x="402.9" y="143.22" width="13.39" height="13.39" fill="#231f20"/>
  <rect x="402.9" y="99.86" width="13.39" height="13.39" fill="#231f20"/>
  <rect x="748.46" y="59.05" width="13.39" height="13.39" fill="#231f20"/>
  <rect x="748.46" y="15.69" width="13.39" height="13.39" fill="#231f20"/>
  <rect x="705.6" y="59.05" width="13.39" height="13.39" fill="#231f20"/>
  <rect x="705.6" y="15.69" width="13.39" height="13.39" fill="#231f20"/>
  <rect x="663.4" y="59.05" width="13.39" height="13.39" fill="#231f20"/>
  <rect x="663.4" y="15.69" width="13.39" height="13.39" fill="#231f20"/>
  <rect x="620.55" y="59.05" width="13.39" height="13.39" fill="#231f20"/>
  <rect x="620.55" y="15.69" width="13.39" height="13.39" fill="#231f20"/>
  <rect x="573.85" y="15.69" width="13.39" height="13.39" fill="#231f20"/>
  <rect x="532.91" y="15.69" width="13.39" height="13.39" fill="#231f20"/>
  <rect x="532.91" y="100.24" width="13.39" height="13.39" fill="#231f20"/>
  <rect x="488.8" y="15.69" width="13.39" height="13.39" fill="#231f20"/>
  <rect x="445.94" y="15.69" width="13.39" height="13.39" fill="#231f20"/>
  <rect x="620.55" y="229.2" width="13.39" height="13.39" fill="#231f20"/>
  <rect x="573.85" y="229.2" width="13.39" height="13.39" fill="#231f20"/>
  <rect x="532.91" y="229.2" width="13.39" height="13.39" fill="#231f20"/>
  <rect x="488.8" y="229.2" width="13.39" height="13.39" fill="#231f20"/>
  <rect x="445.94" y="229.2" width="13.39" height="13.39" fill="#231f20"/>
  <rect x="488.8" y="188.46" width="13.39" height="13.39" fill="#231f20"/>
  <rect x="445.94" y="188.46" width="13.39" height="13.39" fill="#231f20"/>
  <rect x="445.94" y="56.61" width="13.39" height="13.39" fill="#231f20"/>
  <rect x="489.53" y="531.86" width="13.39" height="13.39" fill="#231f20"/>
  <rect x="532.91" y="488.77" width="13.39" height="13.39" fill="#231f20"/>
  <rect x="575.99" y="488.77" width="13.39" height="13.39" fill="#231f20"/>
  <rect x="575.99" y="358.96" width="13.39" height="13.39" fill="#231f20"/>
  <rect x="489.53" y="488.77" width="13.39" height="13.39" fill="#231f20"/>
  <rect x="532.91" y="447.69" width="13.39" height="13.39" fill="#231f20"/>
  <rect x="489.53" y="447.69" width="13.39" height="13.39" fill="#231f20"/>
  <rect x="532.91" y="402.42" width="13.39" height="13.39" fill="#231f20"/>
  <rect x="489.53" y="402.42" width="13.39" height="13.39" fill="#231f20"/>
  <rect x="447.49" y="620.49" width="13.39" height="13.39" fill="#231f20"/>
  <rect x="360.59" y="791.17" width="13.39" height="13.39" fill="#231f20"/>
  <rect x="360.59" y="834.42" width="13.39" height="13.39" fill="#231f20"/>
  <rect x="318.12" y="834.34" width="13.39" height="13.39" fill="#231f20"/>
  <rect x="360.59" y="747.91" width="13.39" height="13.39" fill="#231f20"/>
  <rect x="360.59" y="704.66" width="13.39" height="13.39" fill="#231f20"/>
  <rect x="360.59" y="661.57" width="13.39" height="13.39" fill="#231f20"/>
  <rect x="318.12" y="791.09" width="13.39" height="13.39" fill="#231f20"/>
  <rect x="318.12" y="747.83" width="13.39" height="13.39" fill="#231f20"/>
  <rect x="318.12" y="704.58" width="13.39" height="13.39" fill="#231f20"/>
  <rect x="318.12" y="661.49" width="13.39" height="13.39" fill="#231f20"/>
  <rect x="360.59" y="620.49" width="13.39" height="13.39" fill="#231f20"/>
  <rect x="619.2" y="704.66" width="13.39" height="13.39" fill="#231f20"/>
  <rect x="662.4" y="878.67" width="13.39" height="13.39" fill="#231f20"/>
  <rect x="662.4" y="835.41" width="13.39" height="13.39" fill="#231f20"/>
</svg>