<?xml version="1.0" encoding="UTF-8"?>
<svg id="_19" data-name="19" xmlns="http://www.w3.org/2000/svg" viewBox="0 0 1080 1080">
  <rect x="691.45" y="993.45" width="40.84" height="40.84" fill="#231f20"/>
  <rect x="648.54" y="993.55" width="40.84" height="40.84" fill="#231f20"/>
  <rect x="691.45" y="950.29" width="40.84" height="40.84" fill="#231f20"/>
  <rect x="648.54" y="950.3" width="40.84" height="40.84" fill="#231f20"/>
  <rect x="691.45" y="907.12" width="40.84" height="40.84" fill="#231f20"/>
  <rect x="648.54" y="907.05" width="40.84" height="40.84" fill="#231f20"/>
  <rect x="648.54" y="863.79" width="40.84" height="40.84" fill="#231f20"/>
  <rect x="648.54" y="820.54" width="40.84" height="40.84" fill="#231f20"/>
  <rect x="648.54" y="777.29" width="40.84" height="40.84" fill="#231f20"/>
  <rect x="648.54" y="734.04" width="40.84" height="40.84" fill="#231f20"/>
  <rect x="648.54" y="690.79" width="40.84" height="40.84" fill="#231f20"/>
  <rect x="648.54" y="647.53" width="40.84" height="40.84" fill="#231f20"/>
  <rect x="605.2" y="604.54" width="40.84" height="40.84" fill="#231f20"/>
  <rect x="605.2" y="561.37" width="40.84" height="40.84" fill="#231f20"/>
  <rect x="605.2" y="518.2" width="40.84" height="40.84" fill="#231f20"/>
  <rect x="562.26" y="474.97" width="40.84" height="40.84" fill="#231f20"/>
  <rect x="562.26" y="431.67" width="40.84" height="40.84" fill="#231f20"/>
  <rect x="562.26" y="388.38" width="40.84" height="40.84" fill="#231f20"/>
  <rect x="518.98" y="301.9" width="40.84" height="40.84" fill="#231f20"/>
  <rect x="518.98" y="345.31" width="40.84" height="40.84" fill="#231f20"/>
  <rect x="475.86" y="215.23" width="40.84" height="40.84" fill="#231f20"/>
  <rect x="475.99" y="259.17" width="40.84" height="40.84" fill="#231f20"/>
  <rect x="475.59" y="171.75" width="40.84" height="40.84" fill="#231f20"/>
  <rect x="691.45" y="1036.62" width="40.84" height="40.84" fill="#231f20"/>
  <rect x="648.54" y="1036.8" width="40.84" height="40.84" fill="#231f20"/>
  <rect x="749.12" y="1006.8" width="13.39" height="13.39" fill="#231f20"/>
  <rect x="749.12" y="1047.94" width="13.39" height="13.39" fill="#231f20"/>
  <rect x="792.02" y="1006.8" width="13.39" height="13.39" fill="#231f20"/>
  <rect x="792.02" y="1047.94" width="13.39" height="13.39" fill="#231f20"/>
  <rect x="618.14" y="1006.82" width="13.39" height="13.39" fill="#231f20"/>
  <rect x="618.14" y="963.64" width="13.39" height="13.39" fill="#231f20"/>
  <rect x="618.14" y="1049.99" width="13.39" height="13.39" fill="#231f20"/>
  <rect x="618.14" y="877.3" width="13.39" height="13.39" fill="#231f20"/>
  <rect x="402.96" y="877.09" width="13.39" height="13.39" fill="#231f20"/>
  <rect x="705.18" y="877.68" width="13.39" height="13.39" fill="#231f20"/>
  <rect x="705.18" y="834.51" width="13.39" height="13.39" fill="#231f20"/>
  <rect x="705.18" y="791.34" width="13.39" height="13.39" fill="#231f20"/>
  <rect x="705.18" y="748.18" width="13.39" height="13.39" fill="#231f20"/>
  <rect x="705.18" y="705.01" width="13.39" height="13.39" fill="#231f20"/>
  <rect x="749.12" y="748.18" width="13.39" height="13.39" fill="#231f20"/>
  <rect x="749.12" y="704.38" width="13.39" height="13.39" fill="#231f20"/>
  <rect x="792.02" y="704.38" width="13.39" height="13.39" fill="#231f20"/>
  <rect x="836.31" y="661.28" width="13.39" height="13.39" fill="#231f20"/>
  <rect x="877.96" y="661.28" width="13.39" height="13.39" fill="#231f20"/>
  <rect x="618.14" y="834.13" width="13.39" height="13.39" fill="#231f20"/>
  <rect x="618.14" y="790.96" width="13.39" height="13.39" fill="#231f20"/>
  <rect x="618.14" y="747.78" width="13.39" height="13.39" fill="#231f20"/>
  <rect x="618.14" y="704.61" width="13.39" height="13.39" fill="#231f20"/>
  <rect x="575.99" y="791.76" width="13.39" height="13.39" fill="#231f20"/>
  <rect x="575.99" y="748.47" width="13.39" height="13.39" fill="#231f20"/>
  <rect x="575.99" y="705.17" width="13.39" height="13.39" fill="#231f20"/>
  <rect x="575.99" y="661.88" width="13.39" height="13.39" fill="#231f20"/>
  <rect x="575.99" y="618.58" width="13.39" height="13.39" fill="#231f20"/>
  <rect x="575.99" y="575.28" width="13.39" height="13.39" fill="#231f20"/>
  <rect x="618.14" y="661.44" width="13.39" height="13.39" fill="#231f20"/>
  <rect x="662.26" y="617.33" width="13.39" height="13.39" fill="#231f20"/>
  <rect x="662.26" y="574.08" width="13.39" height="13.39" fill="#231f20"/>
  <rect x="662.26" y="530.83" width="13.39" height="13.39" fill="#231f20"/>
  <rect x="575.99" y="531.99" width="13.39" height="13.39" fill="#231f20"/>
  <rect x="532.7" y="532.69" width="13.39" height="13.39" fill="#231f20"/>
  <rect x="532.7" y="402.45" width="13.39" height="13.39" fill="#231f20"/>
  <rect x="532.7" y="576.1" width="13.39" height="13.39" fill="#231f20"/>
  <rect x="230.66" y="574.44" width="13.39" height="13.39" fill="#231f20"/>
  <rect x="145.1" y="530.83" width="13.39" height="13.39" fill="#231f20"/>
  <rect x="187.93" y="530.83" width="13.39" height="13.39" fill="#231f20"/>
  <rect x="145.1" y="574.44" width="13.39" height="13.39" fill="#231f20"/>
  <rect x="102.27" y="574.44" width="13.39" height="13.39" fill="#231f20"/>
  <rect x="187.93" y="574.44" width="13.39" height="13.39" fill="#231f20"/>
  <rect x="188.2" y="228.96" width="13.39" height="13.39" fill="#231f20"/>
  <rect x="145.08" y="228.96" width="13.39" height="13.39" fill="#231f20"/>
  <rect x="145.21" y="272.9" width="13.39" height="13.39" fill="#231f20"/>
  <rect x="188.34" y="272.9" width="13.39" height="13.39" fill="#231f20"/>
  <rect x="274.1" y="272.9" width="13.39" height="13.39" fill="#231f20"/>
  <rect x="317.22" y="272.9" width="13.39" height="13.39" fill="#231f20"/>
  <rect x="274.74" y="574.44" width="13.39" height="13.39" fill="#231f20"/>
  <rect x="532.7" y="445.86" width="13.39" height="13.39" fill="#231f20"/>
  <rect x="575.99" y="315.51" width="13.39" height="13.39" fill="#231f20"/>
  <rect x="575.99" y="358.8" width="13.39" height="13.39" fill="#231f20"/>
  <rect x="576.26" y="228.96" width="13.39" height="13.39" fill="#231f20"/>
  <rect x="576.39" y="272.9" width="13.39" height="13.39" fill="#231f20"/>
  <rect x="533.11" y="272.9" width="13.39" height="13.39" fill="#231f20"/>
  <rect x="447.76" y="228.96" width="13.39" height="13.39" fill="#231f20"/>
  <rect x="447.49" y="185.48" width="13.39" height="13.39" fill="#231f20"/>
  <rect x="447.89" y="272.9" width="13.39" height="13.39" fill="#231f20"/>
  <rect x="489.31" y="100.55" width="13.39" height="13.39" fill="#231f20"/>
  <rect x="533.03" y="56.6" width="13.39" height="13.39" fill="#231f20"/>
  <rect x="533.03" y="99.12" width="13.39" height="13.39" fill="#231f20"/>
  <rect x="533.03" y="141.64" width="13.39" height="13.39" fill="#231f20"/>
  <rect x="576.33" y="99.12" width="13.39" height="13.39" fill="#231f20"/>
  <rect x="316.81" y="98.75" width="13.39" height="13.39" fill="#231f20"/>
  <rect x="316.81" y="141.64" width="13.39" height="13.39" fill="#231f20"/>
  <rect x="274.92" y="98.75" width="13.39" height="13.39" fill="#231f20"/>
  <rect x="359.59" y="98.75" width="13.39" height="13.39" fill="#231f20"/>
  <rect x="403.5" y="98.75" width="13.39" height="13.39" fill="#231f20"/>
  <rect x="403.5" y="141.64" width="13.39" height="13.39" fill="#231f20"/>
  <rect x="274.04" y="56.44" width="13.39" height="13.39" fill="#231f20"/>
  <rect x="316.81" y="56.6" width="13.39" height="13.39" fill="#231f20"/>
  <rect x="230.88" y="56.44" width="13.39" height="13.39" fill="#231f20"/>
  <rect x="101.69" y="56.44" width="13.39" height="13.39" fill="#231f20"/>
  <rect x="101.69" y="98.75" width="13.39" height="13.39" fill="#231f20"/>
  <rect x="101.69" y="142.79" width="13.39" height="13.39" fill="#231f20"/>
  <rect x="142.8" y="142.79" width="13.39" height="13.39" fill="#231f20"/>
  <rect x="142.8" y="185.48" width="13.39" height="13.39" fill="#231f20"/>
  <rect x="101.69" y="185.48" width="13.39" height="13.39" fill="#231f20"/>
  <rect x="14.86" y="56.44" width="13.39" height="13.39" fill="#231f20"/>
  <rect x="101.69" y="12.25" width="13.39" height="13.39" fill="#231f20"/>
  <rect x="14.86" y="12.25" width="13.39" height="13.39" fill="#231f20"/>
  <rect x="58.28" y="12.25" width="13.39" height="13.39" fill="#231f20"/>
  <rect x="14.86" y="98.75" width="13.39" height="13.39" fill="#231f20"/>
  <rect x="14.86" y="142.79" width="13.39" height="13.39" fill="#231f20"/>
  <rect x="14.86" y="185.48" width="13.39" height="13.39" fill="#231f20"/>
  <rect x="101.96" y="228.96" width="13.39" height="13.39" fill="#231f20"/>
  <rect x="58.55" y="228.96" width="13.39" height="13.39" fill="#231f20"/>
  <rect x="230.88" y="98.75" width="13.39" height="13.39" fill="#231f20"/>
  <rect x="186.84" y="98.75" width="13.39" height="13.39" fill="#231f20"/>
  <rect x="359.07" y="185.48" width="13.39" height="13.39" fill="#231f20"/>
  <rect x="273.7" y="185.48" width="13.39" height="13.39" fill="#231f20"/>
  <rect x="402.37" y="185.48" width="13.39" height="13.39" fill="#231f20"/>
  <rect x="576.33" y="56.6" width="13.39" height="13.39" fill="#231f20"/>
  <rect x="576.33" y="12.25" width="13.39" height="13.39" fill="#231f20"/>
  <rect x="619.3" y="12.25" width="13.39" height="13.39" fill="#231f20"/>
  <rect x="662.61" y="12.25" width="13.39" height="13.39" fill="#231f20"/>
  <rect x="489.31" y="143.61" width="13.39" height="13.39" fill="#231f20"/>
  <rect x="359.59" y="141.64" width="13.39" height="13.39" fill="#231f20"/>
  <rect x="489.31" y="315.85" width="13.39" height="13.39" fill="#231f20"/>
  <rect x="489.31" y="358.91" width="13.39" height="13.39" fill="#231f20"/>
  <rect x="532.7" y="489.28" width="13.39" height="13.39" fill="#231f20"/>
  <rect x="618.93" y="402.41" width="13.39" height="13.39" fill="#231f20"/>
  <rect x="618.93" y="445.58" width="13.39" height="13.39" fill="#231f20"/>
  <rect x="618.93" y="488.75" width="13.39" height="13.39" fill="#231f20"/>
  <rect x="618.14" y="920.47" width="13.39" height="13.39" fill="#231f20"/>
</svg>