<?xml version="1.0" encoding="UTF-8"?>
<svg id="_20" data-name="20" xmlns="http://www.w3.org/2000/svg" viewBox="0 0 1080 1080">
  <rect x="346.96" y="562.09" width="40.84" height="40.84" fill="#231f20"/>
  <rect x="303.89" y="562.36" width="40.84" height="40.84" fill="#231f20"/>
  <rect x="346.96" y="605.09" width="40.84" height="40.84" fill="#231f20"/>
  <rect x="303.89" y="605.22" width="40.84" height="40.84" fill="#231f20"/>
  <rect x="346.96" y="648.96" width="40.84" height="40.84" fill="#231f20"/>
  <rect x="303.89" y="648.58" width="40.84" height="40.84" fill="#231f20"/>
  <rect x="346.96" y="691.38" width="40.84" height="40.84" fill="#231f20"/>
  <rect x="346.96" y="389.37" width="40.84" height="40.84" fill="#231f20"/>
  <rect x="346.96" y="432.81" width="40.84" height="40.84" fill="#231f20"/>
  <rect x="346.96" y="475.88" width="40.84" height="40.84" fill="#231f20"/>
  <rect x="346.96" y="518.97" width="40.84" height="40.84" fill="#231f20"/>
  <rect x="346.96" y="346.34" width="40.84" height="40.84" fill="#231f20"/>
  <rect x="346.96" y="173.65" width="40.84" height="40.84" fill="#231f20"/>
  <rect x="346.96" y="216.62" width="40.84" height="40.84" fill="#231f20"/>
  <rect x="346.96" y="260.16" width="40.84" height="40.84" fill="#231f20"/>
  <rect x="346.96" y="43.9" width="40.84" height="40.84" fill="#231f20"/>
  <rect x="346.96" y="87.1" width="40.84" height="40.84" fill="#231f20"/>
  <rect x="346.96" y="130.5" width="40.84" height="40.84" fill="#231f20"/>
  <rect x="346.96" y="303.11" width="40.84" height="40.84" fill="#231f20"/>
  <rect x="303.89" y="432.81" width="40.84" height="40.84" fill="#231f20"/>
  <rect x="303.89" y="475.88" width="40.84" height="40.84" fill="#231f20"/>
  <rect x="303.89" y="520" width="40.84" height="40.84" fill="#231f20"/>
  <rect x="303.89" y="692.41" width="40.84" height="40.84" fill="#231f20"/>
  <rect x="346.96" y="734.97" width="40.84" height="40.84" fill="#231f20"/>
  <rect x="303.89" y="734.97" width="40.84" height="40.84" fill="#231f20"/>
  <rect x="346.96" y="778.41" width="40.84" height="40.84" fill="#231f20"/>
  <rect x="303.89" y="778.41" width="40.84" height="40.84" fill="#231f20"/>
  <rect x="346.96" y="821.35" width="40.84" height="40.84" fill="#231f20"/>
  <rect x="303.89" y="822.38" width="40.84" height="40.84" fill="#231f20"/>
  <rect x="346.96" y="865.17" width="40.84" height="40.84" fill="#231f20"/>
  <rect x="303.89" y="864.91" width="40.84" height="40.84" fill="#231f20"/>
  <rect x="346.96" y="908.02" width="40.84" height="40.84" fill="#231f20"/>
  <rect x="303.89" y="908.02" width="40.84" height="40.84" fill="#231f20"/>
  <rect x="346.96" y="951.21" width="40.84" height="40.84" fill="#231f20"/>
  <rect x="303.89" y="951.21" width="40.84" height="40.84" fill="#231f20"/>
  <rect x="346.96" y="994.15" width="40.84" height="40.84" fill="#231f20"/>
  <rect x="303.89" y="994.15" width="40.84" height="40.84" fill="#231f20"/>
  <rect x="346.62" y="1037.42" width="40.84" height="40.84" fill="#231f20"/>
  <rect x="390.04" y="907.9" width="40.84" height="40.84" fill="#231f20"/>
  <rect x="390.04" y="951.21" width="40.84" height="40.84" fill="#231f20"/>
  <rect x="390.04" y="994.15" width="40.84" height="40.84" fill="#231f20"/>
  <rect x="390.37" y="1037.42" width="40.84" height="40.84" fill="#231f20"/>
  <rect x="692.63" y="475.71" width="40.84" height="40.84" fill="#231f20"/>
  <rect x="692.63" y="518.94" width="40.84" height="40.84" fill="#231f20"/>
  <rect x="692.63" y="562.18" width="40.84" height="40.84" fill="#231f20"/>
  <rect x="692.63" y="605.41" width="40.84" height="40.84" fill="#231f20"/>
  <rect x="692.63" y="648.64" width="40.84" height="40.84" fill="#231f20"/>
  <rect x="692.63" y="691.88" width="40.84" height="40.84" fill="#231f20"/>
  <rect x="692.63" y="735.11" width="40.84" height="40.84" fill="#231f20"/>
  <rect x="519.78" y="475.79" width="40.84" height="40.84" fill="#231f20"/>
  <rect x="519.78" y="519.03" width="40.84" height="40.84" fill="#231f20"/>
  <rect x="519.78" y="562.27" width="40.84" height="40.84" fill="#231f20"/>
  <rect x="519.78" y="605.51" width="40.84" height="40.84" fill="#231f20"/>
  <rect x="519.78" y="648.75" width="40.84" height="40.84" fill="#231f20"/>
  <rect x="519.78" y="691.99" width="40.84" height="40.84" fill="#231f20"/>
  <rect x="476.55" y="475.93" width="40.84" height="40.84" fill="#231f20"/>
  <rect x="476.55" y="519.15" width="40.84" height="40.84" fill="#231f20"/>
  <rect x="476.55" y="562.37" width="40.84" height="40.84" fill="#231f20"/>
  <rect x="476.55" y="605.59" width="40.84" height="40.84" fill="#231f20"/>
  <rect x="476.55" y="648.8" width="40.84" height="40.84" fill="#231f20"/>
  <rect x="476.55" y="692.02" width="40.84" height="40.84" fill="#231f20"/>
  <rect x="519.78" y="216.36" width="40.84" height="40.84" fill="#231f20"/>
  <rect x="519.78" y="259.6" width="40.84" height="40.84" fill="#231f20"/>
  <rect x="519.78" y="302.84" width="40.84" height="40.84" fill="#231f20"/>
  <rect x="519.78" y="346.08" width="40.84" height="40.84" fill="#231f20"/>
  <rect x="519.78" y="43.4" width="40.84" height="40.84" fill="#231f20"/>
  <rect x="519.78" y="86.64" width="40.84" height="40.84" fill="#231f20"/>
  <rect x="519.78" y="129.88" width="40.84" height="40.84" fill="#231f20"/>
  <rect x="519.78" y="173.12" width="40.84" height="40.84" fill="#231f20"/>
  <rect x="519.78" y="389.31" width="40.84" height="40.84" fill="#231f20"/>
  <rect x="519.78" y="432.55" width="40.84" height="40.84" fill="#231f20"/>
  <rect x="476.55" y="216.61" width="40.84" height="40.84" fill="#231f20"/>
  <rect x="476.55" y="259.83" width="40.84" height="40.84" fill="#231f20"/>
  <rect x="476.55" y="303.05" width="40.84" height="40.84" fill="#231f20"/>
  <rect x="476.55" y="346.27" width="40.84" height="40.84" fill="#231f20"/>
  <rect x="476.55" y="389.49" width="40.84" height="40.84" fill="#231f20"/>
  <rect x="476.55" y="432.71" width="40.84" height="40.84" fill="#231f20"/>
  <rect x="519.78" y="735.23" width="40.84" height="40.84" fill="#231f20"/>
  <rect x="519.78" y="778.47" width="40.84" height="40.84" fill="#231f20"/>
  <rect x="519.78" y="821.71" width="40.84" height="40.84" fill="#231f20"/>
  <rect x="476.55" y="735.24" width="40.84" height="40.84" fill="#231f20"/>
  <rect x="476.55" y="778.46" width="40.84" height="40.84" fill="#231f20"/>
  <rect x="692.63" y="778.35" width="40.84" height="40.84" fill="#231f20"/>
  <rect x="692.63" y="821.58" width="40.84" height="40.84" fill="#231f20"/>
  <rect x="692.63" y="864.81" width="40.84" height="40.84" fill="#231f20"/>
  <rect x="692.63" y="908.05" width="40.84" height="40.84" fill="#231f20"/>
  <rect x="735.73" y="908.05" width="40.84" height="40.84" fill="#231f20"/>
  <rect x="303.55" y="1037.42" width="40.84" height="40.84" fill="#231f20"/>
  <rect x="533.51" y="13.88" width="13.39" height="13.39" fill="#231f20"/>
  <rect x="577.84" y="13.03" width="13.39" height="13.39" fill="#231f20"/>
  <rect x="577.84" y="57.63" width="13.39" height="13.39" fill="#231f20"/>
  <rect x="577.84" y="100.04" width="13.39" height="13.39" fill="#231f20"/>
  <rect x="577.84" y="143.33" width="13.39" height="13.39" fill="#231f20"/>
  <rect x="577.84" y="187.93" width="13.39" height="13.39" fill="#231f20"/>
  <rect x="577.84" y="230.34" width="13.39" height="13.39" fill="#231f20"/>
  <rect x="577.84" y="272.25" width="13.39" height="13.39" fill="#231f20"/>
  <rect x="577.84" y="314.67" width="13.39" height="13.39" fill="#231f20"/>
  <rect x="621.34" y="13.03" width="13.39" height="13.39" fill="#231f20"/>
  <rect x="621.34" y="57.63" width="13.39" height="13.39" fill="#231f20"/>
  <rect x="621.34" y="100.04" width="13.39" height="13.39" fill="#231f20"/>
  <rect x="621.34" y="143.33" width="13.39" height="13.39" fill="#231f20"/>
  <rect x="792.84" y="13.03" width="13.39" height="13.39" fill="#231f20"/>
  <rect x="792.84" y="57.63" width="13.39" height="13.39" fill="#231f20"/>
  <rect x="792.84" y="100.04" width="13.39" height="13.39" fill="#231f20"/>
  <rect x="792.84" y="143.33" width="13.39" height="13.39" fill="#231f20"/>
  <rect x="836.35" y="13.03" width="13.39" height="13.39" fill="#231f20"/>
  <rect x="836.35" y="57.63" width="13.39" height="13.39" fill="#231f20"/>
  <rect x="707.09" y="13.03" width="13.39" height="13.39" fill="#231f20"/>
  <rect x="707.09" y="57.63" width="13.39" height="13.39" fill="#231f20"/>
  <rect x="664.22" y="13.03" width="13.39" height="13.39" fill="#231f20"/>
  <rect x="664.22" y="57.63" width="13.39" height="13.39" fill="#231f20"/>
  <rect x="750.6" y="13.03" width="13.39" height="13.39" fill="#231f20"/>
  <rect x="750.6" y="57.63" width="13.39" height="13.39" fill="#231f20"/>
  <rect x="836.35" y="100.04" width="13.39" height="13.39" fill="#231f20"/>
  <rect x="836.35" y="143.33" width="13.39" height="13.39" fill="#231f20"/>
  <rect x="707.09" y="100.04" width="13.39" height="13.39" fill="#231f20"/>
  <rect x="707.09" y="143.33" width="13.39" height="13.39" fill="#231f20"/>
  <rect x="750.6" y="100.04" width="13.39" height="13.39" fill="#231f20"/>
  <rect x="750.6" y="143.33" width="13.39" height="13.39" fill="#231f20"/>
  <rect x="792.84" y="186.14" width="13.39" height="13.39" fill="#231f20"/>
  <rect x="792.84" y="228.55" width="13.39" height="13.39" fill="#231f20"/>
  <rect x="792.84" y="271.84" width="13.39" height="13.39" fill="#231f20"/>
  <rect x="836.35" y="186.14" width="13.39" height="13.39" fill="#231f20"/>
  <rect x="707.09" y="186.14" width="13.39" height="13.39" fill="#231f20"/>
  <rect x="750.6" y="186.14" width="13.39" height="13.39" fill="#231f20"/>
  <rect x="836.35" y="228.55" width="13.39" height="13.39" fill="#231f20"/>
  <rect x="836.35" y="271.84" width="13.39" height="13.39" fill="#231f20"/>
  <rect x="707.09" y="228.55" width="13.39" height="13.39" fill="#231f20"/>
  <rect x="664.22" y="186.14" width="13.39" height="13.39" fill="#231f20"/>
  <rect x="664.22" y="228.55" width="13.39" height="13.39" fill="#231f20"/>
  <rect x="707.09" y="271.84" width="13.39" height="13.39" fill="#231f20"/>
  <rect x="750.6" y="228.55" width="13.39" height="13.39" fill="#231f20"/>
  <rect x="750.6" y="271.84" width="13.39" height="13.39" fill="#231f20"/>
  <rect x="707.09" y="316.25" width="13.39" height="13.39" fill="#231f20"/>
  <rect x="664.22" y="316.25" width="13.39" height="13.39" fill="#231f20"/>
  <rect x="707.09" y="359.54" width="13.39" height="13.39" fill="#231f20"/>
  <rect x="750.6" y="316.25" width="13.39" height="13.39" fill="#231f20"/>
  <rect x="750.6" y="359.54" width="13.39" height="13.39" fill="#231f20"/>
  <rect x="621.34" y="187.93" width="13.39" height="13.39" fill="#231f20"/>
  <rect x="404.04" y="13.03" width="13.39" height="13.39" fill="#231f20"/>
  <rect x="360.68" y="12.9" width="13.39" height="13.39" fill="#231f20"/>
  <rect x="404.04" y="57.63" width="13.39" height="13.39" fill="#231f20"/>
  <rect x="404.04" y="100.04" width="13.39" height="13.39" fill="#231f20"/>
  <rect x="404.04" y="143.33" width="13.39" height="13.39" fill="#231f20"/>
  <rect x="404.04" y="187.93" width="13.39" height="13.39" fill="#231f20"/>
  <rect x="447.55" y="13.03" width="13.39" height="13.39" fill="#231f20"/>
  <rect x="447.55" y="57.63" width="13.39" height="13.39" fill="#231f20"/>
  <rect x="447.55" y="100.04" width="13.39" height="13.39" fill="#231f20"/>
  <rect x="447.55" y="143.33" width="13.39" height="13.39" fill="#231f20"/>
  <rect x="447.55" y="187.93" width="13.39" height="13.39" fill="#231f20"/>
  <rect x="404.04" y="228.99" width="13.39" height="13.39" fill="#231f20"/>
  <rect x="404.04" y="273.58" width="13.39" height="13.39" fill="#231f20"/>
  <rect x="404.04" y="316" width="13.39" height="13.39" fill="#231f20"/>
  <rect x="404.04" y="359.29" width="13.39" height="13.39" fill="#231f20"/>
  <rect x="404.04" y="403.88" width="13.39" height="13.39" fill="#231f20"/>
  <rect x="404.04" y="446.98" width="13.39" height="13.39" fill="#231f20"/>
  <rect x="404.04" y="491.57" width="13.39" height="13.39" fill="#231f20"/>
  <rect x="404.04" y="533.99" width="13.39" height="13.39" fill="#231f20"/>
  <rect x="404.04" y="577.27" width="13.39" height="13.39" fill="#231f20"/>
  <rect x="404.04" y="621.87" width="13.39" height="13.39" fill="#231f20"/>
  <rect x="404.04" y="662.93" width="13.39" height="13.39" fill="#231f20"/>
  <rect x="404.04" y="707.53" width="13.39" height="13.39" fill="#231f20"/>
  <rect x="404.04" y="749.94" width="13.39" height="13.39" fill="#231f20"/>
  <rect x="404.04" y="793.23" width="13.39" height="13.39" fill="#231f20"/>
  <rect x="404.04" y="837.83" width="13.39" height="13.39" fill="#231f20"/>
  <rect x="447.55" y="446.98" width="13.39" height="13.39" fill="#231f20"/>
  <rect x="447.55" y="491.57" width="13.39" height="13.39" fill="#231f20"/>
  <rect x="447.55" y="533.99" width="13.39" height="13.39" fill="#231f20"/>
  <rect x="447.55" y="577.27" width="13.39" height="13.39" fill="#231f20"/>
  <rect x="447.55" y="621.87" width="13.39" height="13.39" fill="#231f20"/>
  <rect x="447.55" y="662.93" width="13.39" height="13.39" fill="#231f20"/>
  <rect x="447.55" y="707.53" width="13.39" height="13.39" fill="#231f20"/>
  <rect x="447.55" y="749.94" width="13.39" height="13.39" fill="#231f20"/>
  <rect x="447.55" y="793.23" width="13.39" height="13.39" fill="#231f20"/>
  <rect x="447.55" y="837.83" width="13.39" height="13.39" fill="#231f20"/>
  <rect x="404.04" y="877.8" width="13.39" height="13.39" fill="#231f20"/>
  <rect x="447.55" y="877.8" width="13.39" height="13.39" fill="#231f20"/>
  <rect x="447.55" y="919.84" width="13.39" height="13.39" fill="#231f20"/>
  <rect x="447.55" y="964.44" width="13.39" height="13.39" fill="#231f20"/>
  <rect x="447.55" y="1004.4" width="13.39" height="13.39" fill="#231f20"/>
  <rect x="447.55" y="1050.29" width="13.39" height="13.39" fill="#231f20"/>
  <rect x="490.95" y="834.19" width="13.39" height="13.39" fill="#231f20"/>
  <rect x="490.95" y="877.41" width="13.39" height="13.39" fill="#231f20"/>
  <rect x="490.95" y="920.63" width="13.39" height="13.39" fill="#231f20"/>
  <rect x="490.95" y="963.85" width="13.39" height="13.39" fill="#231f20"/>
  <rect x="490.95" y="1007.07" width="13.39" height="13.39" fill="#231f20"/>
  <rect x="490.95" y="1050.29" width="13.39" height="13.39" fill="#231f20"/>
  <rect x="749.74" y="447.24" width="13.39" height="13.39" fill="#231f20"/>
  <rect x="706.65" y="447.24" width="13.39" height="13.39" fill="#231f20"/>
  <rect x="749.74" y="405.35" width="13.39" height="13.39" fill="#231f20"/>
  <rect x="706.65" y="405.35" width="13.39" height="13.39" fill="#231f20"/>
  <rect x="749.45" y="489.93" width="13.39" height="13.39" fill="#231f20"/>
  <rect x="749.45" y="531.98" width="13.39" height="13.39" fill="#231f20"/>
  <rect x="749.45" y="576.57" width="13.39" height="13.39" fill="#231f20"/>
  <rect x="836.92" y="359.54" width="13.39" height="13.39" fill="#231f20"/>
  <rect x="836.06" y="447.24" width="13.39" height="13.39" fill="#231f20"/>
  <rect x="836.06" y="405.35" width="13.39" height="13.39" fill="#231f20"/>
  <rect x="835.78" y="489.93" width="13.39" height="13.39" fill="#231f20"/>
  <rect x="835.78" y="531.98" width="13.39" height="13.39" fill="#231f20"/>
  <rect x="835.78" y="576.57" width="13.39" height="13.39" fill="#231f20"/>
  <rect x="836.92" y="618.51" width="13.39" height="13.39" fill="#231f20"/>
  <rect x="836.06" y="706.21" width="13.39" height="13.39" fill="#231f20"/>
  <rect x="836.06" y="664.31" width="13.39" height="13.39" fill="#231f20"/>
  <rect x="835.78" y="748.9" width="13.39" height="13.39" fill="#231f20"/>
  <rect x="835.78" y="790.95" width="13.39" height="13.39" fill="#231f20"/>
  <rect x="835.78" y="835.54" width="13.39" height="13.39" fill="#231f20"/>
  <rect x="836.06" y="877.38" width="13.39" height="13.39" fill="#231f20"/>
  <rect x="835.78" y="920.08" width="13.39" height="13.39" fill="#231f20"/>
  <rect x="835.78" y="962.12" width="13.39" height="13.39" fill="#231f20"/>
  <rect x="835.78" y="1006.72" width="13.39" height="13.39" fill="#231f20"/>
  <rect x="880.37" y="618.51" width="13.39" height="13.39" fill="#231f20"/>
  <rect x="879.51" y="706.21" width="13.39" height="13.39" fill="#231f20"/>
  <rect x="879.51" y="664.31" width="13.39" height="13.39" fill="#231f20"/>
  <rect x="879.22" y="748.9" width="13.39" height="13.39" fill="#231f20"/>
  <rect x="879.22" y="790.95" width="13.39" height="13.39" fill="#231f20"/>
  <rect x="879.22" y="835.54" width="13.39" height="13.39" fill="#231f20"/>
  <rect x="749.45" y="616.54" width="13.39" height="13.39" fill="#231f20"/>
  <rect x="749.45" y="662.43" width="13.39" height="13.39" fill="#231f20"/>
  <rect x="533.79" y="877.8" width="13.39" height="13.39" fill="#231f20"/>
  <rect x="533.79" y="919.84" width="13.39" height="13.39" fill="#231f20"/>
  <rect x="533.79" y="964.44" width="13.39" height="13.39" fill="#231f20"/>
  <rect x="533.79" y="1004.4" width="13.39" height="13.39" fill="#231f20"/>
  <rect x="533.79" y="1050.29" width="13.39" height="13.39" fill="#231f20"/>
  <rect x="577.11" y="964.44" width="13.39" height="13.39" fill="#231f20"/>
  <rect x="577.11" y="1004.4" width="13.39" height="13.39" fill="#231f20"/>
  <rect x="577.11" y="1050.29" width="13.39" height="13.39" fill="#231f20"/>
  <rect x="620.23" y="877.8" width="13.39" height="13.39" fill="#231f20"/>
  <rect x="620.23" y="919.84" width="13.39" height="13.39" fill="#231f20"/>
  <rect x="620.23" y="964.44" width="13.39" height="13.39" fill="#231f20"/>
  <rect x="620.23" y="1004.4" width="13.39" height="13.39" fill="#231f20"/>
  <rect x="620.23" y="1050.29" width="13.39" height="13.39" fill="#231f20"/>
  <rect x="749.45" y="707.4" width="13.39" height="13.39" fill="#231f20"/>
  <rect x="749.45" y="749.44" width="13.39" height="13.39" fill="#231f20"/>
  <rect x="749.45" y="794.04" width="13.39" height="13.39" fill="#231f20"/>
  <rect x="749.45" y="834.01" width="13.39" height="13.39" fill="#231f20"/>
  <rect x="749.45" y="879.89" width="13.39" height="13.39" fill="#231f20"/>
  <rect x="663.55" y="662.09" width="13.39" height="13.39" fill="#231f20"/>
  <rect x="663.55" y="707.06" width="13.39" height="13.39" fill="#231f20"/>
  <rect x="663.55" y="749.1" width="13.39" height="13.39" fill="#231f20"/>
  <rect x="620.23" y="489.75" width="13.39" height="13.39" fill="#231f20"/>
  <rect x="620.23" y="534.72" width="13.39" height="13.39" fill="#231f20"/>
  <rect x="661.91" y="489.75" width="13.39" height="13.39" fill="#231f20"/>
  <rect x="661.91" y="534.72" width="13.39" height="13.39" fill="#231f20"/>
  <rect x="620.23" y="576.77" width="13.39" height="13.39" fill="#231f20"/>
  <rect x="577.84" y="489.75" width="13.39" height="13.39" fill="#231f20"/>
  <rect x="577.84" y="534.72" width="13.39" height="13.39" fill="#231f20"/>
  <rect x="577.84" y="576.77" width="13.39" height="13.39" fill="#231f20"/>
  <rect x="577.84" y="360.38" width="13.39" height="13.39" fill="#231f20"/>
  <rect x="577.84" y="405.35" width="13.39" height="13.39" fill="#231f20"/>
  <rect x="577.84" y="447.39" width="13.39" height="13.39" fill="#231f20"/>
  <rect x="620.23" y="405.35" width="13.39" height="13.39" fill="#231f20"/>
  <rect x="620.23" y="447.39" width="13.39" height="13.39" fill="#231f20"/>
  <rect x="663.55" y="793.7" width="13.39" height="13.39" fill="#231f20"/>
  <rect x="663.55" y="833.67" width="13.39" height="13.39" fill="#231f20"/>
  <rect x="663.55" y="879.55" width="13.39" height="13.39" fill="#231f20"/>
  <rect x="663.55" y="921.2" width="13.39" height="13.39" fill="#231f20"/>
  <rect x="663.55" y="965.8" width="13.39" height="13.39" fill="#231f20"/>
  <rect x="663.55" y="1005.77" width="13.39" height="13.39" fill="#231f20"/>
  <rect x="663.55" y="1051.65" width="13.39" height="13.39" fill="#231f20"/>
  <rect x="706.63" y="964.44" width="13.39" height="13.39" fill="#231f20"/>
  <rect x="706.63" y="1004.4" width="13.39" height="13.39" fill="#231f20"/>
  <rect x="706.63" y="1050.29" width="13.39" height="13.39" fill="#231f20"/>
  <rect x="749.75" y="964.44" width="13.39" height="13.39" fill="#231f20"/>
  <rect x="749.75" y="1004.4" width="13.39" height="13.39" fill="#231f20"/>
  <rect x="749.75" y="1050.29" width="13.39" height="13.39" fill="#231f20"/>
  <rect x="447.55" y="228.99" width="13.39" height="13.39" fill="#231f20"/>
  <rect x="447.55" y="273.58" width="13.39" height="13.39" fill="#231f20"/>
  <rect x="447.55" y="316" width="13.39" height="13.39" fill="#231f20"/>
  <rect x="447.55" y="359.29" width="13.39" height="13.39" fill="#231f20"/>
  <rect x="447.55" y="403.88" width="13.39" height="13.39" fill="#231f20"/>
  <rect x="621.34" y="230.34" width="13.39" height="13.39" fill="#231f20"/>
  <rect x="621.34" y="272.25" width="13.39" height="13.39" fill="#231f20"/>
  <rect x="621.34" y="314.67" width="13.39" height="13.39" fill="#231f20"/>
  <rect x="275.85" y="13.03" width="13.39" height="13.39" fill="#231f20"/>
  <rect x="275.85" y="57.63" width="13.39" height="13.39" fill="#231f20"/>
  <rect x="275.85" y="100.04" width="13.39" height="13.39" fill="#231f20"/>
  <rect x="275.85" y="143.33" width="13.39" height="13.39" fill="#231f20"/>
  <rect x="275.85" y="187.93" width="13.39" height="13.39" fill="#231f20"/>
  <rect x="275.85" y="230.34" width="13.39" height="13.39" fill="#231f20"/>
  <rect x="275.85" y="272.25" width="13.39" height="13.39" fill="#231f20"/>
  <rect x="275.85" y="314.67" width="13.39" height="13.39" fill="#231f20"/>
  <rect x="231.81" y="13.03" width="13.39" height="13.39" fill="#231f20"/>
  <rect x="231.81" y="57.63" width="13.39" height="13.39" fill="#231f20"/>
  <rect x="231.81" y="100.04" width="13.39" height="13.39" fill="#231f20"/>
  <rect x="231.81" y="143.33" width="13.39" height="13.39" fill="#231f20"/>
  <rect x="231.81" y="187.93" width="13.39" height="13.39" fill="#231f20"/>
  <rect x="231.81" y="230.34" width="13.39" height="13.39" fill="#231f20"/>
  <rect x="231.81" y="272.25" width="13.39" height="13.39" fill="#231f20"/>
  <rect x="231.81" y="314.67" width="13.39" height="13.39" fill="#231f20"/>
  <rect x="317.61" y="13.93" width="13.39" height="13.39" fill="#231f20"/>
  <rect x="317.61" y="58.53" width="13.39" height="13.39" fill="#231f20"/>
  <rect x="317.61" y="100.94" width="13.39" height="13.39" fill="#231f20"/>
  <rect x="317.61" y="144.23" width="13.39" height="13.39" fill="#231f20"/>
  <rect x="317.61" y="188.82" width="13.39" height="13.39" fill="#231f20"/>
  <rect x="317.61" y="231.24" width="13.39" height="13.39" fill="#231f20"/>
  <rect x="317.61" y="273.15" width="13.39" height="13.39" fill="#231f20"/>
  <rect x="317.61" y="315.56" width="13.39" height="13.39" fill="#231f20"/>
  <rect x="275.85" y="360.42" width="13.39" height="13.39" fill="#231f20"/>
  <rect x="275.85" y="402.84" width="13.39" height="13.39" fill="#231f20"/>
  <rect x="231.81" y="360.42" width="13.39" height="13.39" fill="#231f20"/>
  <rect x="231.81" y="402.84" width="13.39" height="13.39" fill="#231f20"/>
  <rect x="275.85" y="446.58" width="13.39" height="13.39" fill="#231f20"/>
  <rect x="275.85" y="488.49" width="13.39" height="13.39" fill="#231f20"/>
  <rect x="275.85" y="530.91" width="13.39" height="13.39" fill="#231f20"/>
  <rect x="231.81" y="446.58" width="13.39" height="13.39" fill="#231f20"/>
  <rect x="231.81" y="488.49" width="13.39" height="13.39" fill="#231f20"/>
  <rect x="231.81" y="530.91" width="13.39" height="13.39" fill="#231f20"/>
  <rect x="275.85" y="576.66" width="13.39" height="13.39" fill="#231f20"/>
  <rect x="275.85" y="619.08" width="13.39" height="13.39" fill="#231f20"/>
  <rect x="231.81" y="576.66" width="13.39" height="13.39" fill="#231f20"/>
  <rect x="231.81" y="619.08" width="13.39" height="13.39" fill="#231f20"/>
  <rect x="275.85" y="663.56" width="13.39" height="13.39" fill="#231f20"/>
  <rect x="275.85" y="705.48" width="13.39" height="13.39" fill="#231f20"/>
  <rect x="275.85" y="747.89" width="13.39" height="13.39" fill="#231f20"/>
  <rect x="231.81" y="663.56" width="13.39" height="13.39" fill="#231f20"/>
  <rect x="231.81" y="705.48" width="13.39" height="13.39" fill="#231f20"/>
  <rect x="231.81" y="747.89" width="13.39" height="13.39" fill="#231f20"/>
  <rect x="275.85" y="793.64" width="13.39" height="13.39" fill="#231f20"/>
  <rect x="275.85" y="836.06" width="13.39" height="13.39" fill="#231f20"/>
  <rect x="231.81" y="793.64" width="13.39" height="13.39" fill="#231f20"/>
  <rect x="231.81" y="836.06" width="13.39" height="13.39" fill="#231f20"/>
  <rect x="275.85" y="877.8" width="13.39" height="13.39" fill="#231f20"/>
  <rect x="275.85" y="919.71" width="13.39" height="13.39" fill="#231f20"/>
  <rect x="275.85" y="962.12" width="13.39" height="13.39" fill="#231f20"/>
  <rect x="231.81" y="877.8" width="13.39" height="13.39" fill="#231f20"/>
  <rect x="231.81" y="919.71" width="13.39" height="13.39" fill="#231f20"/>
  <rect x="231.81" y="962.12" width="13.39" height="13.39" fill="#231f20"/>
  <rect x="275.85" y="1007.88" width="13.39" height="13.39" fill="#231f20"/>
  <rect x="275.85" y="1050.29" width="13.39" height="13.39" fill="#231f20"/>
  <rect x="231.81" y="1007.88" width="13.39" height="13.39" fill="#231f20"/>
  <rect x="231.81" y="1050.29" width="13.39" height="13.39" fill="#231f20"/>
  <rect x="317.61" y="361.32" width="13.39" height="13.39" fill="#231f20"/>
  <rect x="317.61" y="403.73" width="13.39" height="13.39" fill="#231f20"/>
  <rect x="490.95" y="13.03" width="13.39" height="13.39" fill="#231f20"/>
  <rect x="490.95" y="56.25" width="13.39" height="13.39" fill="#231f20"/>
  <rect x="490.95" y="99.47" width="13.39" height="13.39" fill="#231f20"/>
  <rect x="490.95" y="142.69" width="13.39" height="13.39" fill="#231f20"/>
  <rect x="490.95" y="185.91" width="13.39" height="13.39" fill="#231f20"/>
</svg>