<?xml version="1.0" encoding="UTF-8"?>
<svg id="_21" data-name="21" xmlns="http://www.w3.org/2000/svg" viewBox="0 0 1080 1080">
  <rect x="433.17" y="821.91" width="40.83" height="40.83" fill="#231f20"/>
  <rect x="433.17" y="865.1" width="40.83" height="40.83" fill="#231f20"/>
  <rect x="476.78" y="821.91" width="40.83" height="40.83" fill="#231f20"/>
  <rect x="476.78" y="865.1" width="40.83" height="40.83" fill="#231f20"/>
  <rect x="433.17" y="735.44" width="40.83" height="40.83" fill="#231f20"/>
  <rect x="433.17" y="605.78" width="40.83" height="40.83" fill="#231f20"/>
  <rect x="433.17" y="648.98" width="40.83" height="40.83" fill="#231f20"/>
  <rect x="389.87" y="605.78" width="40.83" height="40.83" fill="#231f20"/>
  <rect x="433.17" y="562.59" width="40.83" height="40.83" fill="#231f20"/>
  <rect x="389.87" y="562.59" width="40.83" height="40.83" fill="#231f20"/>
  <rect x="519.74" y="562.59" width="40.83" height="40.83" fill="#231f20"/>
  <rect x="563.03" y="562.59" width="40.83" height="40.83" fill="#231f20"/>
  <rect x="563.03" y="648.98" width="40.83" height="40.83" fill="#231f20"/>
  <rect x="520.4" y="692.46" width="40.83" height="40.83" fill="#231f20"/>
  <rect x="606.33" y="476.2" width="40.83" height="40.83" fill="#231f20"/>
  <rect x="606.33" y="433" width="40.83" height="40.83" fill="#231f20"/>
  <rect x="519.68" y="476.2" width="40.83" height="40.83" fill="#231f20"/>
  <rect x="563.01" y="476.2" width="40.83" height="40.83" fill="#231f20"/>
  <rect x="519.68" y="433" width="40.83" height="40.83" fill="#231f20"/>
  <rect x="476.44" y="562.59" width="40.83" height="40.83" fill="#231f20"/>
  <rect x="476.44" y="519.39" width="40.83" height="40.83" fill="#231f20"/>
  <rect x="433.17" y="519.39" width="40.83" height="40.83" fill="#231f20"/>
  <rect x="778.87" y="433" width="40.83" height="40.83" fill="#231f20"/>
  <rect x="735.6" y="433" width="40.83" height="40.83" fill="#231f20"/>
  <rect x="692.6" y="433" width="40.83" height="40.83" fill="#231f20"/>
  <rect x="692.36" y="217.01" width="40.83" height="40.83" fill="#231f20"/>
  <rect x="692.36" y="174.4" width="40.83" height="40.83" fill="#231f20"/>
  <rect x="822.07" y="130.83" width="40.83" height="40.83" fill="#231f20"/>
  <rect x="778.87" y="130.83" width="40.83" height="40.83" fill="#231f20"/>
  <rect x="649.35" y="217.01" width="40.83" height="40.83" fill="#231f20"/>
  <rect x="562.86" y="260.22" width="40.83" height="40.83" fill="#231f20"/>
  <rect x="519.68" y="260.22" width="40.83" height="40.83" fill="#231f20"/>
  <rect x="822.07" y="476.2" width="40.83" height="40.83" fill="#231f20"/>
  <rect x="778.8" y="476.2" width="40.83" height="40.83" fill="#231f20"/>
  <rect x="865.41" y="389.91" width="40.83" height="40.83" fill="#231f20"/>
  <rect x="865.33" y="433.1" width="40.83" height="40.83" fill="#231f20"/>
  <rect x="865.41" y="476.29" width="40.83" height="40.83" fill="#231f20"/>
  <rect x="865.33" y="519.48" width="40.83" height="40.83" fill="#231f20"/>
  <rect x="822.07" y="433.1" width="40.83" height="40.83" fill="#231f20"/>
  <rect x="389.87" y="519.39" width="40.83" height="40.83" fill="#231f20"/>
  <rect x="389.87" y="389.8" width="40.83" height="40.83" fill="#231f20"/>
  <rect x="476.47" y="303.52" width="40.83" height="40.83" fill="#231f20"/>
  <rect x="433.17" y="346.71" width="40.83" height="40.83" fill="#231f20"/>
  <rect x="389.87" y="346.71" width="40.83" height="40.83" fill="#231f20"/>
  <rect x="346.77" y="389.8" width="40.83" height="40.83" fill="#231f20"/>
  <rect x="304.57" y="389.8" width="40.83" height="40.83" fill="#231f20"/>
  <rect x="260.51" y="562.59" width="40.83" height="40.83" fill="#231f20"/>
  <rect x="260.51" y="519.39" width="40.83" height="40.83" fill="#231f20"/>
  <rect x="433.17" y="778.64" width="40.83" height="40.83" fill="#231f20"/>
  <rect x="476.78" y="735.44" width="40.83" height="40.83" fill="#231f20"/>
  <rect x="476.78" y="778.64" width="40.83" height="40.83" fill="#231f20"/>
  <rect x="951.63" y="994.63" width="40.83" height="40.83" fill="#231f20"/>
  <rect x="951.63" y="1037.83" width="40.83" height="40.83" fill="#231f20"/>
  <rect x="951.63" y="908.17" width="40.83" height="40.83" fill="#231f20"/>
  <rect x="951.63" y="951.36" width="40.83" height="40.83" fill="#231f20"/>
  <rect x="447.86" y="922.44" width="13.39" height="13.39" fill="#231f20"/>
  <rect x="402.8" y="922.44" width="13.39" height="13.39" fill="#231f20"/>
  <rect x="361.57" y="878.82" width="13.39" height="13.39" fill="#231f20"/>
  <rect x="361.57" y="922.44" width="13.39" height="13.39" fill="#231f20"/>
  <rect x="317.81" y="878.82" width="13.39" height="13.39" fill="#231f20"/>
  <rect x="317.81" y="922.44" width="13.39" height="13.39" fill="#231f20"/>
  <rect x="317.81" y="964.91" width="13.39" height="13.39" fill="#231f20"/>
  <rect x="274.08" y="878.82" width="13.39" height="13.39" fill="#231f20"/>
  <rect x="274.08" y="922.44" width="13.39" height="13.39" fill="#231f20"/>
  <rect x="361.57" y="749.04" width="13.39" height="13.39" fill="#231f20"/>
  <rect x="361.57" y="792.57" width="13.39" height="13.39" fill="#231f20"/>
  <rect x="402.8" y="878.82" width="13.39" height="13.39" fill="#231f20"/>
  <rect x="402.8" y="749.04" width="13.39" height="13.39" fill="#231f20"/>
  <rect x="402.8" y="792.57" width="13.39" height="13.39" fill="#231f20"/>
  <rect x="361.57" y="835.71" width="13.39" height="13.39" fill="#231f20"/>
  <rect x="402.8" y="835.71" width="13.39" height="13.39" fill="#231f20"/>
  <rect x="318.42" y="749.04" width="13.39" height="13.39" fill="#231f20"/>
  <rect x="361.57" y="706.18" width="13.39" height="13.39" fill="#231f20"/>
  <rect x="361.57" y="662.63" width="13.39" height="13.39" fill="#231f20"/>
  <rect x="361.57" y="532.76" width="13.39" height="13.39" fill="#231f20"/>
  <rect x="361.57" y="576.37" width="13.39" height="13.39" fill="#231f20"/>
  <rect x="361.57" y="619.43" width="13.39" height="13.39" fill="#231f20"/>
  <rect x="361.57" y="489.98" width="13.39" height="13.39" fill="#231f20"/>
  <rect x="402.8" y="706.18" width="13.39" height="13.39" fill="#231f20"/>
  <rect x="446.76" y="706.18" width="13.39" height="13.39" fill="#231f20"/>
  <rect x="487.86" y="706.18" width="13.39" height="13.39" fill="#231f20"/>
  <rect x="402.8" y="662.63" width="13.39" height="13.39" fill="#231f20"/>
  <rect x="487.86" y="661.69" width="13.39" height="13.39" fill="#231f20"/>
  <rect x="487.86" y="618.15" width="13.39" height="13.39" fill="#231f20"/>
  <rect x="533.4" y="661.69" width="13.39" height="13.39" fill="#231f20"/>
  <rect x="533.4" y="618.15" width="13.39" height="13.39" fill="#231f20"/>
  <rect x="533.4" y="834.55" width="13.39" height="13.39" fill="#231f20"/>
  <rect x="533.4" y="878.82" width="13.39" height="13.39" fill="#231f20"/>
  <rect x="533.4" y="791" width="13.39" height="13.39" fill="#231f20"/>
  <rect x="575.42" y="834.55" width="13.39" height="13.39" fill="#231f20"/>
  <rect x="575.42" y="878.82" width="13.39" height="13.39" fill="#231f20"/>
  <rect x="620.11" y="878.82" width="13.39" height="13.39" fill="#231f20"/>
  <rect x="575.42" y="791" width="13.39" height="13.39" fill="#231f20"/>
  <rect x="620.97" y="791" width="13.39" height="13.39" fill="#231f20"/>
  <rect x="620.97" y="835.71" width="13.39" height="13.39" fill="#231f20"/>
  <rect x="662.98" y="791" width="13.39" height="13.39" fill="#231f20"/>
  <rect x="704.99" y="791" width="13.39" height="13.39" fill="#231f20"/>
  <rect x="750.54" y="791" width="13.39" height="13.39" fill="#231f20"/>
  <rect x="792.56" y="791" width="13.39" height="13.39" fill="#231f20"/>
  <rect x="662.98" y="835.71" width="13.39" height="13.39" fill="#231f20"/>
  <rect x="704.99" y="835.71" width="13.39" height="13.39" fill="#231f20"/>
  <rect x="750.54" y="835.71" width="13.39" height="13.39" fill="#231f20"/>
  <rect x="792.56" y="835.71" width="13.39" height="13.39" fill="#231f20"/>
  <rect x="662.98" y="878.82" width="13.39" height="13.39" fill="#231f20"/>
  <rect x="704.99" y="878.82" width="13.39" height="13.39" fill="#231f20"/>
  <rect x="750.54" y="878.82" width="13.39" height="13.39" fill="#231f20"/>
  <rect x="792.56" y="878.82" width="13.39" height="13.39" fill="#231f20"/>
  <rect x="835.2" y="878.82" width="13.39" height="13.39" fill="#231f20"/>
  <rect x="879.22" y="878.82" width="13.39" height="13.39" fill="#231f20"/>
  <rect x="921.86" y="878.82" width="13.39" height="13.39" fill="#231f20"/>
  <rect x="965.35" y="878.82" width="13.39" height="13.39" fill="#231f20"/>
  <rect x="620.97" y="575.3" width="13.39" height="13.39" fill="#231f20"/>
  <rect x="620.97" y="531.76" width="13.39" height="13.39" fill="#231f20"/>
  <rect x="575.42" y="618.15" width="13.39" height="13.39" fill="#231f20"/>
  <rect x="620.97" y="618.15" width="13.39" height="13.39" fill="#231f20"/>
  <rect x="620.97" y="706.53" width="13.39" height="13.39" fill="#231f20"/>
  <rect x="620.97" y="662.98" width="13.39" height="13.39" fill="#231f20"/>
  <rect x="662.98" y="575.3" width="13.39" height="13.39" fill="#231f20"/>
  <rect x="662.98" y="531.76" width="13.39" height="13.39" fill="#231f20"/>
  <rect x="533.53" y="531.76" width="13.39" height="13.39" fill="#231f20"/>
  <rect x="575.54" y="531.76" width="13.39" height="13.39" fill="#231f20"/>
  <rect x="662.98" y="618.15" width="13.39" height="13.39" fill="#231f20"/>
  <rect x="706.32" y="575.3" width="13.39" height="13.39" fill="#231f20"/>
  <rect x="706.32" y="531.76" width="13.39" height="13.39" fill="#231f20"/>
  <rect x="749.84" y="531.76" width="13.39" height="13.39" fill="#231f20"/>
  <rect x="791.85" y="531.76" width="13.39" height="13.39" fill="#231f20"/>
  <rect x="835.2" y="531.76" width="13.39" height="13.39" fill="#231f20"/>
  <rect x="749.84" y="575.3" width="13.39" height="13.39" fill="#231f20"/>
  <rect x="791.85" y="575.3" width="13.39" height="13.39" fill="#231f20"/>
  <rect x="835.2" y="575.3" width="13.39" height="13.39" fill="#231f20"/>
  <rect x="749.84" y="618.15" width="13.39" height="13.39" fill="#231f20"/>
  <rect x="791.85" y="618.15" width="13.39" height="13.39" fill="#231f20"/>
  <rect x="835.2" y="618.15" width="13.39" height="13.39" fill="#231f20"/>
  <rect x="879.13" y="574.95" width="13.39" height="13.39" fill="#231f20"/>
  <rect x="879.13" y="618.5" width="13.39" height="13.39" fill="#231f20"/>
  <rect x="879.13" y="661.34" width="13.39" height="13.39" fill="#231f20"/>
  <rect x="879.13" y="706.53" width="13.39" height="13.39" fill="#231f20"/>
  <rect x="663.65" y="490.01" width="13.39" height="13.39" fill="#231f20"/>
  <rect x="663.65" y="446.82" width="13.39" height="13.39" fill="#231f20"/>
  <rect x="663.65" y="403.53" width="13.39" height="13.39" fill="#231f20"/>
  <rect x="705.66" y="490.01" width="13.39" height="13.39" fill="#231f20"/>
  <rect x="749" y="490.01" width="13.39" height="13.39" fill="#231f20"/>
  <rect x="706.32" y="618.15" width="13.39" height="13.39" fill="#231f20"/>
  <rect x="662.98" y="706.53" width="13.39" height="13.39" fill="#231f20"/>
  <rect x="662.98" y="662.98" width="13.39" height="13.39" fill="#231f20"/>
  <rect x="706.32" y="706.53" width="13.39" height="13.39" fill="#231f20"/>
  <rect x="706.32" y="662.98" width="13.39" height="13.39" fill="#231f20"/>
  <rect x="749.33" y="662.98" width="13.39" height="13.39" fill="#231f20"/>
  <rect x="749.33" y="706.53" width="13.39" height="13.39" fill="#231f20"/>
  <rect x="791.43" y="706.53" width="13.39" height="13.39" fill="#231f20"/>
  <rect x="662.98" y="748.77" width="13.39" height="13.39" fill="#231f20"/>
  <rect x="706.32" y="748.77" width="13.39" height="13.39" fill="#231f20"/>
  <rect x="749.33" y="748.77" width="13.39" height="13.39" fill="#231f20"/>
  <rect x="792.02" y="748.77" width="13.39" height="13.39" fill="#231f20"/>
  <rect x="835.37" y="748.77" width="13.39" height="13.39" fill="#231f20"/>
  <rect x="878.37" y="748.77" width="13.39" height="13.39" fill="#231f20"/>
  <rect x="878.37" y="791" width="13.39" height="13.39" fill="#231f20"/>
  <rect x="922.4" y="574.95" width="13.39" height="13.39" fill="#231f20"/>
  <rect x="922.4" y="618.5" width="13.39" height="13.39" fill="#231f20"/>
  <rect x="922.4" y="661.34" width="13.39" height="13.39" fill="#231f20"/>
  <rect x="922.4" y="706.53" width="13.39" height="13.39" fill="#231f20"/>
  <rect x="922.4" y="401.35" width="13.39" height="13.39" fill="#231f20"/>
  <rect x="922.4" y="444.9" width="13.39" height="13.39" fill="#231f20"/>
  <rect x="922.4" y="487.74" width="13.39" height="13.39" fill="#231f20"/>
  <rect x="922.4" y="532.93" width="13.39" height="13.39" fill="#231f20"/>
  <rect x="921.63" y="748.77" width="13.39" height="13.39" fill="#231f20"/>
  <rect x="921.63" y="791" width="13.39" height="13.39" fill="#231f20"/>
  <rect x="835.2" y="791" width="13.39" height="13.39" fill="#231f20"/>
  <rect x="878.37" y="835.71" width="13.39" height="13.39" fill="#231f20"/>
  <rect x="922.02" y="835.71" width="13.39" height="13.39" fill="#231f20"/>
  <rect x="791.43" y="662.98" width="13.39" height="13.39" fill="#231f20"/>
  <rect x="834.44" y="662.98" width="13.39" height="13.39" fill="#231f20"/>
  <rect x="620.97" y="749.37" width="13.39" height="13.39" fill="#231f20"/>
  <rect x="575.42" y="706.53" width="13.39" height="13.39" fill="#231f20"/>
  <rect x="575.42" y="749.37" width="13.39" height="13.39" fill="#231f20"/>
  <rect x="534.12" y="749.37" width="13.39" height="13.39" fill="#231f20"/>
  <rect x="922.02" y="964.77" width="13.39" height="13.39" fill="#231f20"/>
  <rect x="922.02" y="1008.39" width="13.39" height="13.39" fill="#231f20"/>
  <rect x="922.02" y="1051.45" width="13.39" height="13.39" fill="#231f20"/>
  <rect x="922.02" y="922" width="13.39" height="13.39" fill="#231f20"/>
  <rect x="318.42" y="706.18" width="13.39" height="13.39" fill="#231f20"/>
  <rect x="274.23" y="706.18" width="13.39" height="13.39" fill="#231f20"/>
  <rect x="231.08" y="706.18" width="13.39" height="13.39" fill="#231f20"/>
  <rect x="274.23" y="749.04" width="13.39" height="13.39" fill="#231f20"/>
  <rect x="274.23" y="619.75" width="13.39" height="13.39" fill="#231f20"/>
  <rect x="274.23" y="662.61" width="13.39" height="13.39" fill="#231f20"/>
  <rect x="231.08" y="619.75" width="13.39" height="13.39" fill="#231f20"/>
  <rect x="231.08" y="662.61" width="13.39" height="13.39" fill="#231f20"/>
  <rect x="231.08" y="749.04" width="13.39" height="13.39" fill="#231f20"/>
  <rect x="274.23" y="835.71" width="13.39" height="13.39" fill="#231f20"/>
  <rect x="231.08" y="835.71" width="13.39" height="13.39" fill="#231f20"/>
  <rect x="318.42" y="792.57" width="13.39" height="13.39" fill="#231f20"/>
  <rect x="318.42" y="619.45" width="13.39" height="13.39" fill="#231f20"/>
  <rect x="361.57" y="360.27" width="13.39" height="13.39" fill="#231f20"/>
  <rect x="274.23" y="360.59" width="13.39" height="13.39" fill="#231f20"/>
  <rect x="231.08" y="360.59" width="13.39" height="13.39" fill="#231f20"/>
  <rect x="274.23" y="317.5" width="13.39" height="13.39" fill="#231f20"/>
  <rect x="231.08" y="317.5" width="13.39" height="13.39" fill="#231f20"/>
  <rect x="230.05" y="274.03" width="13.39" height="13.39" fill="#231f20"/>
  <rect x="186.89" y="274.03" width="13.39" height="13.39" fill="#231f20"/>
  <rect x="186.89" y="232.79" width="13.39" height="13.39" fill="#231f20"/>
  <rect x="143.74" y="232.79" width="13.39" height="13.39" fill="#231f20"/>
  <rect x="143.74" y="188.12" width="13.39" height="13.39" fill="#231f20"/>
  <rect x="100.58" y="188.12" width="13.39" height="13.39" fill="#231f20"/>
  <rect x="100.58" y="143.46" width="13.39" height="13.39" fill="#231f20"/>
  <rect x="55.92" y="102.02" width="13.39" height="13.39" fill="#231f20"/>
  <rect x="55.92" y="57.36" width="13.39" height="13.39" fill="#231f20"/>
  <rect x="14.27" y="55.16" width="13.39" height="13.39" fill="#231f20"/>
  <rect x="14.27" y="13.95" width="13.39" height="13.39" fill="#231f20"/>
  <rect x="57.43" y="143.46" width="13.39" height="13.39" fill="#231f20"/>
  <rect x="318.42" y="360.29" width="13.39" height="13.39" fill="#231f20"/>
  <rect x="447" y="317.23" width="13.39" height="13.39" fill="#231f20"/>
  <rect x="490.19" y="273.94" width="13.39" height="13.39" fill="#231f20"/>
  <rect x="403.85" y="317.25" width="13.39" height="13.39" fill="#231f20"/>
  <rect x="318.42" y="576.59" width="13.39" height="13.39" fill="#231f20"/>
  <rect x="318.42" y="662.98" width="13.39" height="13.39" fill="#231f20"/>
  <rect x="404.03" y="446.55" width="13.39" height="13.39" fill="#231f20"/>
  <rect x="445.12" y="446.55" width="13.39" height="13.39" fill="#231f20"/>
  <rect x="489.6" y="446.55" width="13.39" height="13.39" fill="#231f20"/>
  <rect x="445.12" y="403.63" width="13.39" height="13.39" fill="#231f20"/>
  <rect x="404.03" y="490.01" width="13.39" height="13.39" fill="#231f20"/>
  <rect x="445.12" y="490.01" width="13.39" height="13.39" fill="#231f20"/>
  <rect x="316.69" y="446.54" width="13.39" height="13.39" fill="#231f20"/>
  <rect x="316.69" y="490.01" width="13.39" height="13.39" fill="#231f20"/>
  <rect x="316.69" y="531.76" width="13.39" height="13.39" fill="#231f20"/>
  <rect x="360.87" y="446.91" width="13.39" height="13.39" fill="#231f20"/>
  <rect x="576.94" y="403.34" width="13.39" height="13.39" fill="#231f20"/>
  <rect x="576.94" y="446.55" width="13.39" height="13.39" fill="#231f20"/>
  <rect x="620.05" y="403.34" width="13.39" height="13.39" fill="#231f20"/>
  <rect x="663.65" y="317.15" width="13.39" height="13.39" fill="#231f20"/>
  <rect x="620.05" y="316.97" width="13.39" height="13.39" fill="#231f20"/>
  <rect x="663.65" y="274.03" width="13.39" height="13.39" fill="#231f20"/>
  <rect x="705.66" y="274.03" width="13.39" height="13.39" fill="#231f20"/>
  <rect x="620.05" y="273.85" width="13.39" height="13.39" fill="#231f20"/>
  <rect x="620.05" y="230.47" width="13.39" height="13.39" fill="#231f20"/>
  <rect x="576.94" y="230.47" width="13.39" height="13.39" fill="#231f20"/>
  <rect x="533.79" y="230.47" width="13.39" height="13.39" fill="#231f20"/>
  <rect x="620.05" y="188.28" width="13.39" height="13.39" fill="#231f20"/>
  <rect x="663.08" y="188.28" width="13.39" height="13.39" fill="#231f20"/>
  <rect x="489.6" y="403.33" width="13.39" height="13.39" fill="#231f20"/>
  <rect x="533.79" y="403.69" width="13.39" height="13.39" fill="#231f20"/>
  <rect x="837.11" y="403.53" width="13.39" height="13.39" fill="#231f20"/>
  <rect x="750.4" y="403.34" width="13.39" height="13.39" fill="#231f20"/>
  <rect x="793.52" y="403.34" width="13.39" height="13.39" fill="#231f20"/>
  <rect x="837.11" y="360.87" width="13.39" height="13.39" fill="#231f20"/>
  <rect x="750.4" y="360.68" width="13.39" height="13.39" fill="#231f20"/>
  <rect x="707.25" y="360.68" width="13.39" height="13.39" fill="#231f20"/>
  <rect x="793.52" y="360.68" width="13.39" height="13.39" fill="#231f20"/>
  <rect x="837.11" y="317.5" width="13.39" height="13.39" fill="#231f20"/>
  <rect x="879.13" y="360.87" width="13.39" height="13.39" fill="#231f20"/>
  <rect x="879.13" y="317.5" width="13.39" height="13.39" fill="#231f20"/>
  <rect x="921.16" y="360.87" width="13.39" height="13.39" fill="#231f20"/>
  <rect x="921.16" y="317.5" width="13.39" height="13.39" fill="#231f20"/>
  <rect x="837.11" y="273.85" width="13.39" height="13.39" fill="#231f20"/>
  <rect x="879.13" y="273.85" width="13.39" height="13.39" fill="#231f20"/>
  <rect x="750.4" y="317.32" width="13.39" height="13.39" fill="#231f20"/>
  <rect x="793.52" y="317.32" width="13.39" height="13.39" fill="#231f20"/>
  <rect x="837.11" y="230.82" width="13.39" height="13.39" fill="#231f20"/>
  <rect x="750.4" y="230.64" width="13.39" height="13.39" fill="#231f20"/>
  <rect x="793.52" y="230.64" width="13.39" height="13.39" fill="#231f20"/>
  <rect x="837.11" y="188.47" width="13.39" height="13.39" fill="#231f20"/>
  <rect x="879.06" y="230.82" width="13.39" height="13.39" fill="#231f20"/>
  <rect x="879.06" y="188.47" width="13.39" height="13.39" fill="#231f20"/>
  <rect x="921.24" y="273.85" width="13.39" height="13.39" fill="#231f20"/>
  <rect x="921.16" y="230.82" width="13.39" height="13.39" fill="#231f20"/>
  <rect x="921.16" y="188.47" width="13.39" height="13.39" fill="#231f20"/>
  <rect x="837.11" y="100.65" width="13.39" height="13.39" fill="#231f20"/>
  <rect x="879.06" y="100.65" width="13.39" height="13.39" fill="#231f20"/>
  <rect x="921.16" y="100.65" width="13.39" height="13.39" fill="#231f20"/>
  <rect x="879.06" y="145.93" width="13.39" height="13.39" fill="#231f20"/>
  <rect x="921.16" y="145.93" width="13.39" height="13.39" fill="#231f20"/>
  <rect x="921.16" y="13.86" width="13.39" height="13.39" fill="#231f20"/>
  <rect x="921.16" y="59.14" width="13.39" height="13.39" fill="#231f20"/>
  <rect x="750.4" y="188.28" width="13.39" height="13.39" fill="#231f20"/>
  <rect x="750.4" y="145.93" width="13.39" height="13.39" fill="#231f20"/>
  <rect x="793.52" y="188.28" width="13.39" height="13.39" fill="#231f20"/>
  <rect x="793.52" y="273.85" width="13.39" height="13.39" fill="#231f20"/>
  <rect x="707.25" y="403.69" width="13.39" height="13.39" fill="#231f20"/>
  <rect x="576.94" y="360.42" width="13.39" height="13.39" fill="#231f20"/>
  <rect x="489.6" y="360.41" width="13.39" height="13.39" fill="#231f20"/>
  <rect x="533.79" y="360.78" width="13.39" height="13.39" fill="#231f20"/>
  <rect x="576.94" y="317.06" width="13.39" height="13.39" fill="#231f20"/>
  <rect x="533.79" y="317.41" width="13.39" height="13.39" fill="#231f20"/>
  <rect x="274.23" y="792.57" width="13.39" height="13.39" fill="#231f20"/>
  <rect x="231.08" y="792.57" width="13.39" height="13.39" fill="#231f20"/>
  <rect x="231.08" y="489.93" width="13.39" height="13.39" fill="#231f20"/>
  <rect x="231.08" y="403.51" width="13.39" height="13.39" fill="#231f20"/>
  <rect x="231.08" y="446.37" width="13.39" height="13.39" fill="#231f20"/>
  <rect x="274.23" y="489.93" width="13.39" height="13.39" fill="#231f20"/>
  <rect x="274.23" y="403.51" width="13.39" height="13.39" fill="#231f20"/>
  <rect x="274.23" y="446.37" width="13.39" height="13.39" fill="#231f20"/>
  <rect x="231.08" y="532.79" width="13.39" height="13.39" fill="#231f20"/>
  <rect x="231.08" y="576.32" width="13.39" height="13.39" fill="#231f20"/>
  <rect x="230.89" y="878.82" width="13.39" height="13.39" fill="#231f20"/>
  <rect x="230.89" y="922.44" width="13.39" height="13.39" fill="#231f20"/>
  <rect x="274.08" y="964.91" width="13.39" height="13.39" fill="#231f20"/>
  <rect x="274.08" y="1008.53" width="13.39" height="13.39" fill="#231f20"/>
  <rect x="230.89" y="964.91" width="13.39" height="13.39" fill="#231f20"/>
  <rect x="230.89" y="1008.53" width="13.39" height="13.39" fill="#231f20"/>
  <rect x="187.69" y="1008.11" width="13.39" height="13.39" fill="#231f20"/>
  <rect x="187.69" y="1051.72" width="13.39" height="13.39" fill="#231f20"/>
</svg>