<?xml version="1.0" encoding="UTF-8"?>
<svg id="_22" data-name="22" xmlns="http://www.w3.org/2000/svg" viewBox="0 0 1080 1080">
  <rect x="259.32" y="693.15" width="40.84" height="40.84" fill="#231f20"/>
  <rect x="302.86" y="693.15" width="40.84" height="40.84" fill="#231f20"/>
  <rect x="172.24" y="693.15" width="40.84" height="40.84" fill="#231f20"/>
  <rect x="215.78" y="693.15" width="40.84" height="40.84" fill="#231f20"/>
  <rect x="129.72" y="693.15" width="40.84" height="40.84" fill="#231f20"/>
  <rect x="43.16" y="693.15" width="40.84" height="40.84" fill="#231f20"/>
  <rect x="86.18" y="693.15" width="40.84" height="40.84" fill="#231f20"/>
  <rect x="172.75" y="650.31" width="40.84" height="40.84" fill="#231f20"/>
  <rect x="129.34" y="650.31" width="40.84" height="40.84" fill="#231f20"/>
  <rect x="43.16" y="650.31" width="40.84" height="40.84" fill="#231f20"/>
  <rect x="86.7" y="650.31" width="40.84" height="40.84" fill="#231f20"/>
  <rect x="172.75" y="606.87" width="40.84" height="40.84" fill="#231f20"/>
  <rect x="129.34" y="606.87" width="40.84" height="40.84" fill="#231f20"/>
  <rect x="86.7" y="606.87" width="40.84" height="40.84" fill="#231f20"/>
  <rect x="172.7" y="563.62" width="40.84" height="40.84" fill="#231f20"/>
  <rect x="129.29" y="563.62" width="40.84" height="40.84" fill="#231f20"/>
  <rect x="86.65" y="563.62" width="40.84" height="40.84" fill="#231f20"/>
  <rect x="172.7" y="520.59" width="40.84" height="40.84" fill="#231f20"/>
  <rect x="215.78" y="520.59" width="40.84" height="40.84" fill="#231f20"/>
  <rect x="129.29" y="520.59" width="40.84" height="40.84" fill="#231f20"/>
  <rect x="86.65" y="520.59" width="40.84" height="40.84" fill="#231f20"/>
  <rect x="42.64" y="520.59" width="40.84" height="40.84" fill="#231f20"/>
  <rect y="520.59" width="40.84" height="40.84" fill="#231f20"/>
  <rect x="86.65" y="477.25" width="40.84" height="40.84" fill="#231f20"/>
  <rect x="42.64" y="477.25" width="40.84" height="40.84" fill="#231f20"/>
  <rect y="477.25" width="40.84" height="40.84" fill="#231f20"/>
  <rect x="172.7" y="390.87" width="40.84" height="40.84" fill="#231f20"/>
  <rect x="172.75" y="477.25" width="40.84" height="40.84" fill="#231f20"/>
  <rect x="129.34" y="477.25" width="40.84" height="40.84" fill="#231f20"/>
  <rect x="86.65" y="433.9" width="40.84" height="40.84" fill="#231f20"/>
  <rect x="42.64" y="433.9" width="40.84" height="40.84" fill="#231f20"/>
  <rect y="433.9" width="40.84" height="40.84" fill="#231f20"/>
  <rect x="172.75" y="433.9" width="40.84" height="40.84" fill="#231f20"/>
  <rect x="215.76" y="390.87" width="40.84" height="40.84" fill="#231f20"/>
  <rect x="215.8" y="477.25" width="40.84" height="40.84" fill="#231f20"/>
  <rect x="215.8" y="433.9" width="40.84" height="40.84" fill="#231f20"/>
  <rect x="258.92" y="477.25" width="40.84" height="40.84" fill="#231f20"/>
  <rect x="258.92" y="433.9" width="40.84" height="40.84" fill="#231f20"/>
  <rect x="129.34" y="433.9" width="40.84" height="40.84" fill="#231f20"/>
  <rect x="302.46" y="390.87" width="40.84" height="40.84" fill="#231f20"/>
  <rect x="302.46" y="433.9" width="40.84" height="40.84" fill="#231f20"/>
  <rect x="259.05" y="390.87" width="40.84" height="40.84" fill="#231f20"/>
  <rect x="302.27" y="218.12" width="40.84" height="40.84" fill="#231f20"/>
  <rect x="302.27" y="261.15" width="40.84" height="40.84" fill="#231f20"/>
  <rect x="258.86" y="218.12" width="40.84" height="40.84" fill="#231f20"/>
  <rect x="258.86" y="261.15" width="40.84" height="40.84" fill="#231f20"/>
  <rect x="258.86" y="304.81" width="40.84" height="40.84" fill="#231f20"/>
  <rect x="216.16" y="304.5" width="40.84" height="40.84" fill="#231f20"/>
  <rect x="258.86" y="348" width="40.84" height="40.84" fill="#231f20"/>
  <rect x="216.16" y="347.68" width="40.84" height="40.84" fill="#231f20"/>
  <rect x="129.29" y="390.87" width="40.84" height="40.84" fill="#231f20"/>
  <rect x="129.29" y="348" width="40.84" height="40.84" fill="#231f20"/>
  <rect x="86.65" y="390.87" width="40.84" height="40.84" fill="#231f20"/>
  <rect x="42.64" y="390.87" width="40.84" height="40.84" fill="#231f20"/>
  <rect y="390.87" width="40.84" height="40.84" fill="#231f20"/>
  <rect x="86.65" y="347.84" width="40.84" height="40.84" fill="#231f20"/>
  <rect x="42.64" y="347.84" width="40.84" height="40.84" fill="#231f20"/>
  <rect y="347.84" width="40.84" height="40.84" fill="#231f20"/>
  <rect x="86.65" y="304.81" width="40.84" height="40.84" fill="#231f20"/>
  <rect x="42.64" y="304.81" width="40.84" height="40.84" fill="#231f20"/>
  <rect x="42.64" y="261.15" width="40.84" height="40.84" fill="#231f20"/>
  <rect y="175.09" width="40.84" height="40.84" fill="#231f20"/>
  <rect y="304.81" width="40.84" height="40.84" fill="#231f20"/>
  <rect x="172.24" y="736.89" width="40.84" height="40.84" fill="#231f20"/>
  <rect x="215.78" y="736.89" width="40.84" height="40.84" fill="#231f20"/>
  <rect x="86.18" y="736.89" width="40.84" height="40.84" fill="#231f20"/>
  <rect x="129.72" y="736.89" width="40.84" height="40.84" fill="#231f20"/>
  <rect x="431.58" y="736.89" width="40.84" height="40.84" fill="#231f20"/>
  <rect x="474.97" y="780.02" width="40.84" height="40.84" fill="#231f20"/>
  <rect x="518.35" y="780.02" width="40.84" height="40.84" fill="#231f20"/>
  <rect x="604.89" y="606.87" width="40.84" height="40.84" fill="#231f20"/>
  <rect x="604.89" y="650.31" width="40.84" height="40.84" fill="#231f20"/>
  <rect x="604.89" y="563.73" width="40.84" height="40.84" fill="#231f20"/>
  <rect x="561.26" y="563.73" width="40.84" height="40.84" fill="#231f20"/>
  <rect x="647.94" y="563.73" width="40.84" height="40.84" fill="#231f20"/>
  <rect x="604.89" y="520.6" width="40.84" height="40.84" fill="#231f20"/>
  <rect x="561.26" y="520.6" width="40.84" height="40.84" fill="#231f20"/>
  <rect x="647.94" y="520.6" width="40.84" height="40.84" fill="#231f20"/>
  <rect x="604.89" y="477.47" width="40.84" height="40.84" fill="#231f20"/>
  <rect x="561.26" y="477.47" width="40.84" height="40.84" fill="#231f20"/>
  <rect x="518.57" y="477.47" width="40.84" height="40.84" fill="#231f20"/>
  <rect x="474.94" y="477.47" width="40.84" height="40.84" fill="#231f20"/>
  <rect x="647.94" y="477.47" width="40.84" height="40.84" fill="#231f20"/>
  <rect x="604.89" y="434.34" width="40.84" height="40.84" fill="#231f20"/>
  <rect x="561.26" y="434.34" width="40.84" height="40.84" fill="#231f20"/>
  <rect x="518.57" y="434.34" width="40.84" height="40.84" fill="#231f20"/>
  <rect x="474.94" y="434.34" width="40.84" height="40.84" fill="#231f20"/>
  <rect x="647.94" y="434.34" width="40.84" height="40.84" fill="#231f20"/>
  <rect x="604.89" y="391.2" width="40.84" height="40.84" fill="#231f20"/>
  <rect x="561.26" y="391.2" width="40.84" height="40.84" fill="#231f20"/>
  <rect x="518.57" y="391.2" width="40.84" height="40.84" fill="#231f20"/>
  <rect x="474.94" y="391.2" width="40.84" height="40.84" fill="#231f20"/>
  <rect x="647.94" y="391.2" width="40.84" height="40.84" fill="#231f20"/>
  <rect x="690.99" y="434.34" width="40.84" height="40.84" fill="#231f20"/>
  <rect x="690.99" y="391.2" width="40.84" height="40.84" fill="#231f20"/>
  <rect x="734.05" y="391.2" width="40.84" height="40.84" fill="#231f20"/>
  <rect x="604.89" y="348.07" width="40.84" height="40.84" fill="#231f20"/>
  <rect x="561.26" y="348.07" width="40.84" height="40.84" fill="#231f20"/>
  <rect x="518.57" y="348.07" width="40.84" height="40.84" fill="#231f20"/>
  <rect x="518.57" y="304.94" width="40.84" height="40.84" fill="#231f20"/>
  <rect x="518.57" y="261.62" width="40.84" height="40.84" fill="#231f20"/>
  <rect x="647.94" y="348.07" width="40.84" height="40.84" fill="#231f20"/>
  <rect x="690.99" y="348.07" width="40.84" height="40.84" fill="#231f20"/>
  <rect x="734.05" y="348.07" width="40.84" height="40.84" fill="#231f20"/>
  <rect x="647.94" y="304.94" width="40.84" height="40.84" fill="#231f20"/>
  <rect x="690.99" y="304.94" width="40.84" height="40.84" fill="#231f20"/>
  <rect x="690.99" y="261.62" width="40.84" height="40.84" fill="#231f20"/>
  <rect x="690.99" y="218.45" width="40.84" height="40.84" fill="#231f20"/>
  <rect x="690.99" y="175.32" width="40.84" height="40.84" fill="#231f20"/>
  <rect x="690.99" y="132" width="40.84" height="40.84" fill="#231f20"/>
  <rect x="734.05" y="304.94" width="40.84" height="40.84" fill="#231f20"/>
  <rect x="863.93" y="218.11" width="40.84" height="40.84" fill="#231f20"/>
  <rect x="906.83" y="218.11" width="40.84" height="40.84" fill="#231f20"/>
  <rect x="863.93" y="174.6" width="40.84" height="40.84" fill="#231f20"/>
  <rect x="863.93" y="132" width="40.84" height="40.84" fill="#231f20"/>
  <rect x="906.83" y="174.6" width="40.84" height="40.84" fill="#231f20"/>
  <rect x="863.93" y="261.62" width="40.84" height="40.84" fill="#231f20"/>
  <rect x="906.83" y="261.62" width="40.84" height="40.84" fill="#231f20"/>
  <rect x="863.93" y="304.94" width="40.84" height="40.84" fill="#231f20"/>
  <rect x="863.93" y="348.07" width="40.84" height="40.84" fill="#231f20"/>
  <rect x="906.83" y="304.94" width="40.84" height="40.84" fill="#231f20"/>
  <rect x="863.93" y="390.87" width="40.84" height="40.84" fill="#231f20"/>
  <rect x="906.83" y="390.87" width="40.84" height="40.84" fill="#231f20"/>
  <rect x="863.93" y="434.34" width="40.84" height="40.84" fill="#231f20"/>
  <rect x="906.83" y="434.34" width="40.84" height="40.84" fill="#231f20"/>
  <rect x="863.93" y="477.47" width="40.84" height="40.84" fill="#231f20"/>
  <rect x="906.83" y="477.47" width="40.84" height="40.84" fill="#231f20"/>
  <rect x="863.93" y="520.6" width="40.84" height="40.84" fill="#231f20"/>
  <rect x="820.16" y="520.6" width="40.84" height="40.84" fill="#231f20"/>
  <rect x="906.83" y="520.6" width="40.84" height="40.84" fill="#231f20"/>
  <rect x="863.93" y="563.73" width="40.84" height="40.84" fill="#231f20"/>
  <rect x="820.16" y="563.73" width="40.84" height="40.84" fill="#231f20"/>
  <rect x="863.93" y="606.87" width="40.84" height="40.84" fill="#231f20"/>
  <rect x="820.16" y="606.87" width="40.84" height="40.84" fill="#231f20"/>
  <rect x="863.93" y="650.31" width="40.84" height="40.84" fill="#231f20"/>
  <rect x="820.16" y="650.31" width="40.84" height="40.84" fill="#231f20"/>
  <rect x="863.93" y="693.15" width="40.84" height="40.84" fill="#231f20"/>
  <rect x="863.93" y="737.16" width="40.84" height="40.84" fill="#231f20"/>
  <rect x="820.16" y="693.15" width="40.84" height="40.84" fill="#231f20"/>
  <rect x="906.83" y="563.73" width="40.84" height="40.84" fill="#231f20"/>
  <rect x="950.46" y="218.11" width="40.84" height="40.84" fill="#231f20"/>
  <rect x="734.05" y="132.19" width="40.84" height="40.84" fill="#231f20"/>
  <rect x="734.05" y="175.43" width="40.84" height="40.84" fill="#231f20"/>
  <rect x="777.1" y="132.19" width="40.84" height="40.84" fill="#231f20"/>
  <rect x="734.05" y="89.05" width="40.84" height="40.84" fill="#231f20"/>
  <rect x="734.05" y="45.92" width="40.84" height="40.84" fill="#231f20"/>
  <rect x="690.99" y="89.05" width="40.84" height="40.84" fill="#231f20"/>
  <rect x="690.99" y="45.92" width="40.84" height="40.84" fill="#231f20"/>
  <rect x="647.88" y="89.05" width="40.84" height="40.84" fill="#231f20"/>
  <rect x="647.88" y="132" width="40.84" height="40.84" fill="#231f20"/>
  <rect x="647.88" y="45.92" width="40.84" height="40.84" fill="#231f20"/>
  <rect x="604.83" y="89.05" width="40.84" height="40.84" fill="#231f20"/>
  <rect x="604.83" y="45.92" width="40.84" height="40.84" fill="#231f20"/>
  <rect x="561.26" y="45.92" width="40.84" height="40.84" fill="#231f20"/>
  <rect x="518.35" y="823.29" width="40.84" height="40.84" fill="#231f20"/>
  <rect x="561.74" y="865.95" width="40.84" height="40.84" fill="#231f20"/>
  <rect x="561.74" y="909.24" width="40.84" height="40.84" fill="#231f20"/>
  <rect x="431.58" y="780.02" width="40.84" height="40.84" fill="#231f20"/>
  <rect x="345.34" y="736.89" width="40.84" height="40.84" fill="#231f20"/>
  <rect x="388.46" y="736.89" width="40.84" height="40.84" fill="#231f20"/>
  <rect x="259.19" y="736.89" width="40.84" height="40.84" fill="#231f20"/>
  <rect x="302.31" y="736.89" width="40.84" height="40.84" fill="#231f20"/>
  <rect x="345.34" y="780.63" width="40.84" height="40.84" fill="#231f20"/>
  <rect x="345.34" y="823.29" width="40.84" height="40.84" fill="#231f20"/>
  <rect x="388.99" y="823.29" width="40.84" height="40.84" fill="#231f20"/>
  <rect x="388.46" y="780.63" width="40.84" height="40.84" fill="#231f20"/>
  <rect x="259.19" y="780.63" width="40.84" height="40.84" fill="#231f20"/>
  <rect x="302.31" y="780.63" width="40.84" height="40.84" fill="#231f20"/>
  <rect x="316.58" y="663.13" width="13.39" height="13.39" fill="#231f20"/>
  <rect x="316.58" y="620.59" width="13.39" height="13.39" fill="#231f20"/>
  <rect x="359.06" y="620.59" width="13.39" height="13.39" fill="#231f20"/>
  <rect x="272.92" y="663.13" width="13.39" height="13.39" fill="#231f20"/>
  <rect x="272.92" y="620.59" width="13.39" height="13.39" fill="#231f20"/>
  <rect x="402.71" y="706.88" width="13.39" height="13.39" fill="#231f20"/>
  <rect x="359.05" y="706.88" width="13.39" height="13.39" fill="#231f20"/>
  <rect x="489.11" y="706.88" width="13.39" height="13.39" fill="#231f20"/>
  <rect x="489.11" y="664.04" width="13.39" height="13.39" fill="#231f20"/>
  <rect x="445.45" y="706.88" width="13.39" height="13.39" fill="#231f20"/>
  <rect x="532.31" y="751.69" width="13.39" height="13.39" fill="#231f20"/>
  <rect x="576.06" y="751.69" width="13.39" height="13.39" fill="#231f20"/>
  <rect x="576.06" y="793.75" width="13.39" height="13.39" fill="#231f20"/>
  <rect x="576.06" y="837.02" width="13.39" height="13.39" fill="#231f20"/>
  <rect x="532.08" y="922.96" width="13.39" height="13.39" fill="#231f20"/>
  <rect x="532.08" y="965.46" width="13.39" height="13.39" fill="#231f20"/>
  <rect x="532.08" y="1009.55" width="13.39" height="13.39" fill="#231f20"/>
  <rect x="576.06" y="965.46" width="13.39" height="13.39" fill="#231f20"/>
  <rect x="576.06" y="1009.55" width="13.39" height="13.39" fill="#231f20"/>
  <rect x="532.08" y="1050.28" width="13.39" height="13.39" fill="#231f20"/>
  <rect x="576.06" y="1050.28" width="13.39" height="13.39" fill="#231f20"/>
  <rect x="618.61" y="965.46" width="13.39" height="13.39" fill="#231f20"/>
  <rect x="661.16" y="965.46" width="13.39" height="13.39" fill="#231f20"/>
  <rect x="705.14" y="965.46" width="13.39" height="13.39" fill="#231f20"/>
  <rect x="747.7" y="965.46" width="13.39" height="13.39" fill="#231f20"/>
  <rect x="790.25" y="965.46" width="13.39" height="13.39" fill="#231f20"/>
  <rect x="747.7" y="923.14" width="13.39" height="13.39" fill="#231f20"/>
  <rect x="705.14" y="923.14" width="13.39" height="13.39" fill="#231f20"/>
  <rect x="790.25" y="1009.55" width="13.39" height="13.39" fill="#231f20"/>
  <rect x="832.8" y="1009.55" width="13.39" height="13.39" fill="#231f20"/>
  <rect x="790.25" y="1050.28" width="13.39" height="13.39" fill="#231f20"/>
  <rect x="832.8" y="1050.28" width="13.39" height="13.39" fill="#231f20"/>
  <rect x="877.65" y="1009.55" width="13.39" height="13.39" fill="#231f20"/>
  <rect x="877.65" y="1050.28" width="13.39" height="13.39" fill="#231f20"/>
  <rect x="877.65" y="923.14" width="13.39" height="13.39" fill="#231f20"/>
  <rect x="877.65" y="879.77" width="13.39" height="13.39" fill="#231f20"/>
  <rect x="922.03" y="923.14" width="13.39" height="13.39" fill="#231f20"/>
  <rect x="922.03" y="879.77" width="13.39" height="13.39" fill="#231f20"/>
  <rect x="833.88" y="879.77" width="13.39" height="13.39" fill="#231f20"/>
  <rect x="877.65" y="837.89" width="13.39" height="13.39" fill="#231f20"/>
  <rect x="877.65" y="794.31" width="13.39" height="13.39" fill="#231f20"/>
  <rect x="833.88" y="837.89" width="13.39" height="13.39" fill="#231f20"/>
  <rect x="965.8" y="750.48" width="13.39" height="13.39" fill="#231f20"/>
  <rect x="922.03" y="751.69" width="13.39" height="13.39" fill="#231f20"/>
  <rect x="922.03" y="794.31" width="13.39" height="13.39" fill="#231f20"/>
  <rect x="965.8" y="705.67" width="13.39" height="13.39" fill="#231f20"/>
  <rect x="922.03" y="706.88" width="13.39" height="13.39" fill="#231f20"/>
  <rect x="965.8" y="662.83" width="13.39" height="13.39" fill="#231f20"/>
  <rect x="922.03" y="664.04" width="13.39" height="13.39" fill="#231f20"/>
  <rect x="965.8" y="621.59" width="13.39" height="13.39" fill="#231f20"/>
  <rect x="965.8" y="577.14" width="13.39" height="13.39" fill="#231f20"/>
  <rect x="963.83" y="965.46" width="13.39" height="13.39" fill="#231f20"/>
  <rect x="963.83" y="923.14" width="13.39" height="13.39" fill="#231f20"/>
  <rect x="963.83" y="879.77" width="13.39" height="13.39" fill="#231f20"/>
  <rect x="963.83" y="837.89" width="13.39" height="13.39" fill="#231f20"/>
  <rect x="963.83" y="794.31" width="13.39" height="13.39" fill="#231f20"/>
  <rect x="965.8" y="532.33" width="13.39" height="13.39" fill="#231f20"/>
  <rect x="965.8" y="489.48" width="13.39" height="13.39" fill="#231f20"/>
  <rect x="965.8" y="448.25" width="13.39" height="13.39" fill="#231f20"/>
  <rect x="965.8" y="403.72" width="13.39" height="13.39" fill="#231f20"/>
  <rect x="965.8" y="360.58" width="13.39" height="13.39" fill="#231f20"/>
  <rect x="965.8" y="318.66" width="13.39" height="13.39" fill="#231f20"/>
  <rect x="965.8" y="275.35" width="13.39" height="13.39" fill="#231f20"/>
  <rect x="834.24" y="272.51" width="13.39" height="13.39" fill="#231f20"/>
  <rect x="834.24" y="229.37" width="13.39" height="13.39" fill="#231f20"/>
  <rect x="748.24" y="272.51" width="13.39" height="13.39" fill="#231f20"/>
  <rect x="748.24" y="229.37" width="13.39" height="13.39" fill="#231f20"/>
  <rect x="791.01" y="188.32" width="13.39" height="13.39" fill="#231f20"/>
  <rect x="834.42" y="188.32" width="13.39" height="13.39" fill="#231f20"/>
  <rect x="790.83" y="405.02" width="13.39" height="13.39" fill="#231f20"/>
  <rect x="790.83" y="361.88" width="13.39" height="13.39" fill="#231f20"/>
  <rect x="834.24" y="492.34" width="13.39" height="13.39" fill="#231f20"/>
  <rect x="834.24" y="449.2" width="13.39" height="13.39" fill="#231f20"/>
  <rect x="704.72" y="532.96" width="13.39" height="13.39" fill="#231f20"/>
  <rect x="704.72" y="577.46" width="13.39" height="13.39" fill="#231f20"/>
  <rect x="661.66" y="620.59" width="13.39" height="13.39" fill="#231f20"/>
  <rect x="574.98" y="620.59" width="13.39" height="13.39" fill="#231f20"/>
  <rect x="532.08" y="577.46" width="13.39" height="13.39" fill="#231f20"/>
  <rect x="532.08" y="533.3" width="13.39" height="13.39" fill="#231f20"/>
  <rect x="489.11" y="533.3" width="13.39" height="13.39" fill="#231f20"/>
  <rect x="445.45" y="489.83" width="13.39" height="13.39" fill="#231f20"/>
  <rect x="445.45" y="447.62" width="13.39" height="13.39" fill="#231f20"/>
  <rect x="574.98" y="663.13" width="13.39" height="13.39" fill="#231f20"/>
  <rect x="574.98" y="706.88" width="13.39" height="13.39" fill="#231f20"/>
  <rect x="704.72" y="489.83" width="13.39" height="13.39" fill="#231f20"/>
  <rect x="748.29" y="449.2" width="13.39" height="13.39" fill="#231f20"/>
  <rect x="790.83" y="318.57" width="13.39" height="13.39" fill="#231f20"/>
  <rect x="833.88" y="361.97" width="13.39" height="13.39" fill="#231f20"/>
  <rect x="1006.68" y="232.17" width="13.39" height="13.39" fill="#231f20"/>
  <rect x="964.18" y="189.15" width="13.39" height="13.39" fill="#231f20"/>
  <rect x="920.56" y="145.91" width="13.39" height="13.39" fill="#231f20"/>
  <rect x="877.65" y="102.78" width="13.39" height="13.39" fill="#231f20"/>
  <rect x="877.65" y="59.81" width="13.39" height="13.39" fill="#231f20"/>
  <rect x="920.56" y="59.81" width="13.39" height="13.39" fill="#231f20"/>
  <rect x="964.61" y="59.81" width="13.39" height="13.39" fill="#231f20"/>
  <rect x="1008.18" y="59.81" width="13.39" height="13.39" fill="#231f20"/>
  <rect x="964.61" y="102.86" width="13.39" height="13.39" fill="#231f20"/>
  <rect x="1008.18" y="102.86" width="13.39" height="13.39" fill="#231f20"/>
  <rect x="1050.4" y="59.81" width="13.39" height="13.39" fill="#231f20"/>
  <rect x="272.29" y="59.81" width="13.39" height="13.39" fill="#231f20"/>
  <rect x="315.19" y="59.81" width="13.39" height="13.39" fill="#231f20"/>
  <rect x="359.24" y="59.81" width="13.39" height="13.39" fill="#231f20"/>
  <rect x="402.81" y="59.81" width="13.39" height="13.39" fill="#231f20"/>
  <rect x="445.04" y="59.81" width="13.39" height="13.39" fill="#231f20"/>
  <rect x="272.29" y="17.22" width="13.39" height="13.39" fill="#231f20"/>
  <rect x="315.19" y="17.22" width="13.39" height="13.39" fill="#231f20"/>
  <rect x="359.24" y="17.22" width="13.39" height="13.39" fill="#231f20"/>
  <rect x="402.81" y="17.22" width="13.39" height="13.39" fill="#231f20"/>
  <rect x="445.04" y="17.22" width="13.39" height="13.39" fill="#231f20"/>
  <rect x="488.66" y="59.81" width="13.39" height="13.39" fill="#231f20"/>
  <rect x="272.29" y="102.87" width="13.39" height="13.39" fill="#231f20"/>
  <rect x="315.19" y="102.87" width="13.39" height="13.39" fill="#231f20"/>
  <rect x="186.45" y="60.28" width="13.39" height="13.39" fill="#231f20"/>
  <rect x="230.92" y="59.81" width="13.39" height="13.39" fill="#231f20"/>
  <rect x="100.64" y="59.81" width="13.39" height="13.39" fill="#231f20"/>
  <rect x="143.54" y="59.81" width="13.39" height="13.39" fill="#231f20"/>
  <rect x="16.36" y="59.81" width="13.39" height="13.39" fill="#231f20"/>
  <rect x="59.27" y="59.81" width="13.39" height="13.39" fill="#231f20"/>
  <rect x="100.64" y="17.22" width="13.39" height="13.39" fill="#231f20"/>
  <rect x="143.54" y="17.22" width="13.39" height="13.39" fill="#231f20"/>
  <rect x="59.27" y="17.22" width="13.39" height="13.39" fill="#231f20"/>
  <rect x="186.45" y="17.22" width="13.39" height="13.39" fill="#231f20"/>
  <rect x="229.53" y="16.75" width="13.39" height="13.39" fill="#231f20"/>
  <rect x="186.45" y="103.33" width="13.39" height="13.39" fill="#231f20"/>
  <rect x="186.45" y="146.26" width="13.39" height="13.39" fill="#231f20"/>
  <rect x="186.45" y="189.18" width="13.39" height="13.39" fill="#231f20"/>
  <rect x="230.92" y="102.87" width="13.39" height="13.39" fill="#231f20"/>
  <rect x="100.67" y="146.26" width="13.39" height="13.39" fill="#231f20"/>
  <rect x="143.54" y="146.26" width="13.39" height="13.39" fill="#231f20"/>
  <rect x="14.89" y="146.22" width="13.39" height="13.39" fill="#231f20"/>
  <rect x="57.79" y="146.22" width="13.39" height="13.39" fill="#231f20"/>
  <rect x="57.79" y="188.81" width="13.39" height="13.39" fill="#231f20"/>
  <rect x="359.24" y="102.87" width="13.39" height="13.39" fill="#231f20"/>
  <rect x="402.81" y="102.87" width="13.39" height="13.39" fill="#231f20"/>
  <rect x="445.04" y="102.87" width="13.39" height="13.39" fill="#231f20"/>
  <rect x="1008.18" y="15.54" width="13.39" height="13.39" fill="#231f20"/>
  <rect x="1050.4" y="15.54" width="13.39" height="13.39" fill="#231f20"/>
  <rect x="1050.4" y="102.86" width="13.39" height="13.39" fill="#231f20"/>
  <rect x="1008.18" y="145.73" width="13.39" height="13.39" fill="#231f20"/>
  <rect x="1008.18" y="275.7" width="13.39" height="13.39" fill="#231f20"/>
  <rect x="1008.18" y="318.76" width="13.39" height="13.39" fill="#231f20"/>
  <rect x="1008.18" y="361.62" width="13.39" height="13.39" fill="#231f20"/>
  <rect x="1008.18" y="406.5" width="13.39" height="13.39" fill="#231f20"/>
  <rect x="1008.18" y="449.55" width="13.39" height="13.39" fill="#231f20"/>
  <rect x="1008.18" y="492.42" width="13.39" height="13.39" fill="#231f20"/>
  <rect x="1008.18" y="534.77" width="13.39" height="13.39" fill="#231f20"/>
  <rect x="1008.18" y="579.65" width="13.39" height="13.39" fill="#231f20"/>
  <rect x="1008.18" y="622.7" width="13.39" height="13.39" fill="#231f20"/>
  <rect x="1008.18" y="665.57" width="13.39" height="13.39" fill="#231f20"/>
  <rect x="1008.18" y="707.93" width="13.39" height="13.39" fill="#231f20"/>
  <rect x="1008.18" y="752.81" width="13.39" height="13.39" fill="#231f20"/>
  <rect x="1008.18" y="794.31" width="13.39" height="13.39" fill="#231f20"/>
  <rect x="1008.18" y="837.89" width="13.39" height="13.39" fill="#231f20"/>
  <rect x="1050.56" y="275.7" width="13.39" height="13.39" fill="#231f20"/>
  <rect x="1050.56" y="318.76" width="13.39" height="13.39" fill="#231f20"/>
  <rect x="1050.56" y="361.62" width="13.39" height="13.39" fill="#231f20"/>
  <rect x="1050.4" y="145.73" width="13.39" height="13.39" fill="#231f20"/>
  <rect x="1050.4" y="189.15" width="13.39" height="13.39" fill="#231f20"/>
  <rect x="1050.4" y="232.17" width="13.39" height="13.39" fill="#231f20"/>
  <rect x="1050.56" y="448.32" width="13.39" height="13.39" fill="#231f20"/>
  <rect x="1050.56" y="491.37" width="13.39" height="13.39" fill="#231f20"/>
  <rect x="1050.56" y="534.24" width="13.39" height="13.39" fill="#231f20"/>
  <rect x="1050.4" y="404.79" width="13.39" height="13.39" fill="#231f20"/>
  <rect x="790.83" y="102.78" width="13.39" height="13.39" fill="#231f20"/>
  <rect x="834.24" y="102.78" width="13.39" height="13.39" fill="#231f20"/>
  <rect x="790.83" y="59.81" width="13.39" height="13.39" fill="#231f20"/>
  <rect x="920.56" y="102.78" width="13.39" height="13.39" fill="#231f20"/>
  <rect x="920.56" y="361.79" width="13.39" height="13.39" fill="#231f20"/>
  <rect x="922.03" y="622.8" width="13.39" height="13.39" fill="#231f20"/>
  <rect x="790.25" y="794.35" width="13.39" height="13.39" fill="#231f20"/>
  <rect x="790.25" y="706.88" width="13.39" height="13.39" fill="#231f20"/>
  <rect x="748.29" y="706.88" width="13.39" height="13.39" fill="#231f20"/>
  <rect x="748.29" y="751.69" width="13.39" height="13.39" fill="#231f20"/>
  <rect x="833.88" y="751.69" width="13.39" height="13.39" fill="#231f20"/>
  <rect x="877.65" y="965.46" width="13.39" height="13.39" fill="#231f20"/>
  <rect x="922.03" y="1009.55" width="13.39" height="13.39" fill="#231f20"/>
  <rect x="922.03" y="1050.28" width="13.39" height="13.39" fill="#231f20"/>
  <rect x="963.83" y="1009.55" width="13.39" height="13.39" fill="#231f20"/>
  <rect x="963.83" y="1050.28" width="13.39" height="13.39" fill="#231f20"/>
  <rect x="1008.18" y="965.46" width="13.39" height="13.39" fill="#231f20"/>
  <rect x="1008.18" y="923.14" width="13.39" height="13.39" fill="#231f20"/>
  <rect x="1008.18" y="879.77" width="13.39" height="13.39" fill="#231f20"/>
  <rect x="1008.18" y="1009.55" width="13.39" height="13.39" fill="#231f20"/>
  <rect x="1008.18" y="1050.28" width="13.39" height="13.39" fill="#231f20"/>
  <rect x="1049.59" y="579.65" width="13.39" height="13.39" fill="#231f20"/>
  <rect x="1049.59" y="622.7" width="13.39" height="13.39" fill="#231f20"/>
  <rect x="1049.59" y="665.57" width="13.39" height="13.39" fill="#231f20"/>
  <rect x="1049.59" y="707.93" width="13.39" height="13.39" fill="#231f20"/>
  <rect x="1049.59" y="752.81" width="13.39" height="13.39" fill="#231f20"/>
  <rect x="1049.59" y="794.31" width="13.39" height="13.39" fill="#231f20"/>
  <rect x="1049.59" y="837.89" width="13.39" height="13.39" fill="#231f20"/>
  <rect x="1049.59" y="965.46" width="13.39" height="13.39" fill="#231f20"/>
  <rect x="1049.59" y="923.14" width="13.39" height="13.39" fill="#231f20"/>
  <rect x="1049.59" y="879.77" width="13.39" height="13.39" fill="#231f20"/>
  <rect x="1049.59" y="1009.55" width="13.39" height="13.39" fill="#231f20"/>
  <rect x="1049.59" y="1050.28" width="13.39" height="13.39" fill="#231f20"/>
  <rect x="922.03" y="965.46" width="13.39" height="13.39" fill="#231f20"/>
  <rect x="618.61" y="923.14" width="13.39" height="13.39" fill="#231f20"/>
  <rect x="618.61" y="1009.55" width="13.39" height="13.39" fill="#231f20"/>
  <rect x="618.61" y="1050.28" width="13.39" height="13.39" fill="#231f20"/>
  <rect x="618.34" y="837.02" width="13.39" height="13.39" fill="#231f20"/>
  <rect x="618.34" y="879.68" width="13.39" height="13.39" fill="#231f20"/>
  <rect x="532.31" y="879.68" width="13.39" height="13.39" fill="#231f20"/>
  <rect x="488.65" y="751.69" width="13.39" height="13.39" fill="#231f20"/>
  <rect x="490.11" y="837.02" width="13.39" height="13.39" fill="#231f20"/>
  <rect x="446.44" y="837.02" width="13.39" height="13.39" fill="#231f20"/>
  <rect x="445.45" y="664.04" width="13.39" height="13.39" fill="#231f20"/>
  <rect x="229.05" y="794.66" width="13.39" height="13.39" fill="#231f20"/>
  <rect x="187.25" y="794.35" width="13.39" height="13.39" fill="#231f20"/>
  <rect x="229.05" y="837.32" width="13.39" height="13.39" fill="#231f20"/>
  <rect x="229.05" y="879.31" width="13.39" height="13.39" fill="#231f20"/>
  <rect x="229.05" y="921.97" width="13.39" height="13.39" fill="#231f20"/>
  <rect x="229.05" y="965.63" width="13.39" height="13.39" fill="#231f20"/>
  <rect x="13.72" y="922.47" width="13.39" height="13.39" fill="#231f20"/>
  <rect x="13.72" y="965.13" width="13.39" height="13.39" fill="#231f20"/>
  <rect x="13.72" y="1008.78" width="13.39" height="13.39" fill="#231f20"/>
  <rect x="13.72" y="1050.28" width="13.39" height="13.39" fill="#231f20"/>
  <rect x="229.05" y="1007.62" width="13.39" height="13.39" fill="#231f20"/>
  <rect x="229.05" y="1050.28" width="13.39" height="13.39" fill="#231f20"/>
  <rect x="187.25" y="1007.62" width="13.39" height="13.39" fill="#231f20"/>
  <rect x="187.25" y="1050.28" width="13.39" height="13.39" fill="#231f20"/>
  <rect x="187.25" y="837.02" width="13.39" height="13.39" fill="#231f20"/>
  <rect x="143.96" y="837.02" width="13.39" height="13.39" fill="#231f20"/>
  <rect x="99.91" y="837.02" width="13.39" height="13.39" fill="#231f20"/>
  <rect x="99.91" y="879.65" width="13.39" height="13.39" fill="#231f20"/>
  <rect x="316.31" y="837.02" width="13.39" height="13.39" fill="#231f20"/>
  <rect x="316.31" y="880.76" width="13.39" height="13.39" fill="#231f20"/>
  <rect x="359.06" y="880.76" width="13.39" height="13.39" fill="#231f20"/>
  <rect x="402.19" y="880.76" width="13.39" height="13.39" fill="#231f20"/>
  <rect x="272.65" y="837.02" width="13.39" height="13.39" fill="#231f20"/>
  <rect x="143.96" y="794.35" width="13.39" height="13.39" fill="#231f20"/>
  <rect x="100.42" y="794.35" width="13.39" height="13.39" fill="#231f20"/>
  <rect x="54.25" y="879.65" width="13.39" height="13.39" fill="#231f20"/>
  <rect x="12.85" y="879.65" width="13.39" height="13.39" fill="#231f20"/>
  <rect x="54.76" y="836.98" width="13.39" height="13.39" fill="#231f20"/>
  <rect x="12.85" y="836.98" width="13.39" height="13.39" fill="#231f20"/>
  <rect x="56.88" y="750.62" width="13.39" height="13.39" fill="#231f20"/>
  <rect x="229.5" y="663.13" width="13.39" height="13.39" fill="#231f20"/>
  <rect x="229.5" y="620.59" width="13.39" height="13.39" fill="#231f20"/>
  <rect x="229.5" y="577.35" width="13.39" height="13.39" fill="#231f20"/>
  <rect x="186.45" y="361.11" width="13.39" height="13.39" fill="#231f20"/>
  <rect x="186.45" y="318.57" width="13.39" height="13.39" fill="#231f20"/>
  <rect x="316.18" y="361.11" width="13.39" height="13.39" fill="#231f20"/>
  <rect x="316.18" y="318.57" width="13.39" height="13.39" fill="#231f20"/>
  <rect x="186.45" y="275.03" width="13.39" height="13.39" fill="#231f20"/>
  <rect x="229.48" y="275.03" width="13.39" height="13.39" fill="#231f20"/>
  <rect x="100.16" y="275.03" width="13.39" height="13.39" fill="#231f20"/>
  <rect x="14.89" y="275.03" width="13.39" height="13.39" fill="#231f20"/>
  <rect x="56.37" y="232.2" width="13.39" height="13.39" fill="#231f20"/>
  <rect x="14.89" y="232.2" width="13.39" height="13.39" fill="#231f20"/>
  <rect x="143.19" y="275.03" width="13.39" height="13.39" fill="#231f20"/>
  <rect x="316.11" y="188.95" width="13.39" height="13.39" fill="#231f20"/>
  <rect x="359.14" y="188.95" width="13.39" height="13.39" fill="#231f20"/>
  <rect x="272.85" y="188.95" width="13.39" height="13.39" fill="#231f20"/>
  <rect x="143.19" y="318.57" width="13.39" height="13.39" fill="#231f20"/>
  <rect x="229.48" y="232.2" width="13.39" height="13.39" fill="#231f20"/>
  <rect x="229.48" y="188.95" width="13.39" height="13.39" fill="#231f20"/>
  <rect x="359.14" y="317.91" width="13.39" height="13.39" fill="#231f20"/>
  <rect x="359.14" y="275.08" width="13.39" height="13.39" fill="#231f20"/>
  <rect x="359.14" y="231.83" width="13.39" height="13.39" fill="#231f20"/>
  <rect x="359.14" y="362.72" width="13.39" height="13.39" fill="#231f20"/>
  <rect x="359.14" y="491.68" width="13.39" height="13.39" fill="#231f20"/>
  <rect x="316.18" y="491.68" width="13.39" height="13.39" fill="#231f20"/>
  <rect x="272.58" y="533.3" width="13.39" height="13.39" fill="#231f20"/>
  <rect x="359.14" y="448.85" width="13.39" height="13.39" fill="#231f20"/>
  <rect x="359.14" y="405.6" width="13.39" height="13.39" fill="#231f20"/>
  <rect x="445.45" y="405.6" width="13.39" height="13.39" fill="#231f20"/>
  <rect x="488.66" y="361.11" width="13.39" height="13.39" fill="#231f20"/>
  <rect x="488.66" y="317.91" width="13.39" height="13.39" fill="#231f20"/>
  <rect x="488.66" y="275.35" width="13.39" height="13.39" fill="#231f20"/>
  <rect x="488.66" y="230.82" width="13.39" height="13.39" fill="#231f20"/>
  <rect x="532.29" y="230.82" width="13.39" height="13.39" fill="#231f20"/>
  <rect x="575.92" y="230.82" width="13.39" height="13.39" fill="#231f20"/>
  <rect x="575.92" y="275.35" width="13.39" height="13.39" fill="#231f20"/>
  <rect x="662.08" y="275.35" width="13.39" height="13.39" fill="#231f20"/>
  <rect x="661.61" y="230.82" width="13.39" height="13.39" fill="#231f20"/>
  <rect x="661.61" y="189.15" width="13.39" height="13.39" fill="#231f20"/>
  <rect x="575.92" y="317.91" width="13.39" height="13.39" fill="#231f20"/>
  <rect x="618.61" y="317.91" width="13.39" height="13.39" fill="#231f20"/>
  <rect x="532.29" y="189.05" width="13.39" height="13.39" fill="#231f20"/>
  <rect x="575.92" y="189.05" width="13.39" height="13.39" fill="#231f20"/>
  <rect x="618.61" y="145.91" width="13.39" height="13.39" fill="#231f20"/>
  <rect x="575.68" y="102.42" width="13.39" height="13.39" fill="#231f20"/>
  <rect x="532.29" y="59.64" width="13.39" height="13.39" fill="#231f20"/>
  <rect x="532.29" y="15.54" width="13.39" height="13.39" fill="#231f20"/>
  <rect x="575.92" y="15.54" width="13.39" height="13.39" fill="#231f20"/>
  <rect x="618.26" y="15.54" width="13.39" height="13.39" fill="#231f20"/>
  <rect x="661.89" y="15.54" width="13.39" height="13.39" fill="#231f20"/>
  <rect x="704.66" y="15.54" width="13.39" height="13.39" fill="#231f20"/>
  <rect x="748.29" y="15.54" width="13.39" height="13.39" fill="#231f20"/>
  <rect x="789.43" y="15.54" width="13.39" height="13.39" fill="#231f20"/>
  <rect x="833.06" y="15.54" width="13.39" height="13.39" fill="#231f20"/>
  <rect x="877.83" y="15.54" width="13.39" height="13.39" fill="#231f20"/>
  <rect x="445.45" y="230.82" width="13.39" height="13.39" fill="#231f20"/>
  <rect x="445.45" y="189.05" width="13.39" height="13.39" fill="#231f20"/>
  <rect x="488.66" y="189.05" width="13.39" height="13.39" fill="#231f20"/>
  <rect x="488.66" y="145.91" width="13.39" height="13.39" fill="#231f20"/>
  <rect x="56.88" y="620.59" width="13.39" height="13.39" fill="#231f20"/>
  <rect x="56.88" y="577.35" width="13.39" height="13.39" fill="#231f20"/>
  <rect x="13.72" y="577.35" width="13.39" height="13.39" fill="#231f20"/>
  <rect x="13.72" y="620.59" width="13.39" height="13.39" fill="#231f20"/>
  <rect x="13.72" y="663.13" width="13.39" height="13.39" fill="#231f20"/>
  <rect x="13.72" y="706.88" width="13.39" height="13.39" fill="#231f20"/>
</svg>