<?xml version="1.0" encoding="UTF-8"?>
<svg id="_23" data-name="23" xmlns="http://www.w3.org/2000/svg" viewBox="0 0 1080 1080">
  <rect x="732.83" y="821.88" width="40.84" height="40.84" fill="#231f20"/>
  <rect x="732.83" y="778.81" width="40.84" height="40.84" fill="#231f20"/>
  <rect x="732.83" y="864.94" width="40.84" height="40.84" fill="#231f20"/>
  <rect x="775.61" y="822.25" width="40.84" height="40.84" fill="#231f20"/>
  <rect x="775.61" y="865.32" width="40.84" height="40.84" fill="#231f20"/>
  <rect x="732.83" y="908.01" width="40.84" height="40.84" fill="#231f20"/>
  <rect x="732.83" y="951.07" width="40.84" height="40.84" fill="#231f20"/>
  <rect x="775.61" y="908.38" width="40.84" height="40.84" fill="#231f20"/>
  <rect x="775.61" y="951.45" width="40.84" height="40.84" fill="#231f20"/>
  <rect x="818.99" y="822.18" width="40.84" height="40.84" fill="#231f20"/>
  <rect x="818.99" y="778.81" width="40.84" height="40.84" fill="#231f20"/>
  <rect x="775.61" y="778.81" width="40.84" height="40.84" fill="#231f20"/>
  <rect x="818.99" y="865.25" width="40.84" height="40.84" fill="#231f20"/>
  <rect x="818.99" y="908.31" width="40.84" height="40.84" fill="#231f20"/>
  <rect x="818.99" y="951.38" width="40.84" height="40.84" fill="#231f20"/>
  <rect x="862.37" y="822.18" width="40.84" height="40.84" fill="#231f20"/>
  <rect x="862.37" y="778.81" width="40.84" height="40.84" fill="#231f20"/>
  <rect x="862.37" y="865.25" width="40.84" height="40.84" fill="#231f20"/>
  <rect x="862.37" y="908.31" width="40.84" height="40.84" fill="#231f20"/>
  <rect x="862.37" y="951.38" width="40.84" height="40.84" fill="#231f20"/>
  <rect x="905.15" y="822.18" width="40.84" height="40.84" fill="#231f20"/>
  <rect x="905.15" y="865.25" width="40.84" height="40.84" fill="#231f20"/>
  <rect x="905.15" y="908.31" width="40.84" height="40.84" fill="#231f20"/>
  <rect x="905.15" y="951.38" width="40.84" height="40.84" fill="#231f20"/>
  <rect x="948.55" y="822.18" width="40.84" height="40.84" fill="#231f20"/>
  <rect x="948.55" y="865.25" width="40.84" height="40.84" fill="#231f20"/>
  <rect x="948.55" y="908.31" width="40.84" height="40.84" fill="#231f20"/>
  <rect x="948.55" y="951.38" width="40.84" height="40.84" fill="#231f20"/>
  <rect x="991.95" y="822.18" width="40.84" height="40.84" fill="#231f20"/>
  <rect x="991.95" y="865.25" width="40.84" height="40.84" fill="#231f20"/>
  <rect x="948.55" y="735.65" width="40.84" height="40.84" fill="#231f20"/>
  <rect x="948.55" y="778.71" width="40.84" height="40.84" fill="#231f20"/>
  <rect x="991.95" y="735.65" width="40.84" height="40.84" fill="#231f20"/>
  <rect x="991.95" y="692.58" width="40.84" height="40.84" fill="#231f20"/>
  <rect x="1035.35" y="735.65" width="40.84" height="40.84" fill="#231f20"/>
  <rect x="1035.35" y="692.58" width="40.84" height="40.84" fill="#231f20"/>
  <rect x="1035.35" y="649.11" width="40.84" height="40.84" fill="#231f20"/>
  <rect x="1035.35" y="606.05" width="40.84" height="40.84" fill="#231f20"/>
  <rect x="1035.35" y="562.98" width="40.84" height="40.84" fill="#231f20"/>
  <rect x="1035.35" y="519.92" width="40.84" height="40.84" fill="#231f20"/>
  <rect x="1035.35" y="476.85" width="40.84" height="40.84" fill="#231f20"/>
  <rect x="1035.35" y="346.48" width="40.84" height="40.84" fill="#231f20"/>
  <rect x="1035.35" y="303.51" width="40.84" height="40.84" fill="#231f20"/>
  <rect x="991.79" y="303.51" width="40.84" height="40.84" fill="#231f20"/>
  <rect x="948.55" y="303.51" width="40.84" height="40.84" fill="#231f20"/>
  <rect x="1035.35" y="260.4" width="40.84" height="40.84" fill="#231f20"/>
  <rect x="991.79" y="260.4" width="40.84" height="40.84" fill="#231f20"/>
  <rect x="948.55" y="260.4" width="40.84" height="40.84" fill="#231f20"/>
  <rect x="1035.35" y="217.3" width="40.84" height="40.84" fill="#231f20"/>
  <rect x="991.79" y="217.3" width="40.84" height="40.84" fill="#231f20"/>
  <rect x="948.55" y="217.3" width="40.84" height="40.84" fill="#231f20"/>
  <rect x="905.31" y="260.4" width="40.84" height="40.84" fill="#231f20"/>
  <rect x="905.31" y="217.3" width="40.84" height="40.84" fill="#231f20"/>
  <rect x="1035.35" y="174.2" width="40.84" height="40.84" fill="#231f20"/>
  <rect x="991.79" y="174.2" width="40.84" height="40.84" fill="#231f20"/>
  <rect x="948.55" y="174.2" width="40.84" height="40.84" fill="#231f20"/>
  <rect x="905.31" y="174.2" width="40.84" height="40.84" fill="#231f20"/>
  <rect x="861.91" y="217.3" width="40.84" height="40.84" fill="#231f20"/>
  <rect x="861.91" y="174.2" width="40.84" height="40.84" fill="#231f20"/>
  <rect x="818.35" y="174.2" width="40.84" height="40.84" fill="#231f20"/>
  <rect x="1035.35" y="131.31" width="40.84" height="40.84" fill="#231f20"/>
  <rect x="991.79" y="131.31" width="40.84" height="40.84" fill="#231f20"/>
  <rect x="948.55" y="131.31" width="40.84" height="40.84" fill="#231f20"/>
  <rect x="905.31" y="131.31" width="40.84" height="40.84" fill="#231f20"/>
  <rect x="861.91" y="131.31" width="40.84" height="40.84" fill="#231f20"/>
  <rect x="818.35" y="131.31" width="40.84" height="40.84" fill="#231f20"/>
  <rect x="1035.35" y="87.43" width="40.84" height="40.84" fill="#231f20"/>
  <rect x="991.79" y="87.43" width="40.84" height="40.84" fill="#231f20"/>
  <rect x="948.55" y="87.43" width="40.84" height="40.84" fill="#231f20"/>
  <rect x="905.31" y="87.43" width="40.84" height="40.84" fill="#231f20"/>
  <rect x="861.91" y="87.43" width="40.84" height="40.84" fill="#231f20"/>
  <rect x="818.35" y="87.43" width="40.84" height="40.84" fill="#231f20"/>
  <rect x="775.87" y="87.43" width="40.84" height="40.84" fill="#231f20"/>
  <rect x="732.31" y="87.43" width="40.84" height="40.84" fill="#231f20"/>
  <rect x="1035.35" y="44.68" width="40.84" height="40.84" fill="#231f20"/>
  <rect x="991.79" y="44.68" width="40.84" height="40.84" fill="#231f20"/>
  <rect x="948.55" y="44.68" width="40.84" height="40.84" fill="#231f20"/>
  <rect x="905.31" y="44.68" width="40.84" height="40.84" fill="#231f20"/>
  <rect x="861.91" y="44.68" width="40.84" height="40.84" fill="#231f20"/>
  <rect x="818.35" y="44.68" width="40.84" height="40.84" fill="#231f20"/>
  <rect x="775.87" y="44.68" width="40.84" height="40.84" fill="#231f20"/>
  <rect x="732.31" y="44.68" width="40.84" height="40.84" fill="#231f20"/>
  <rect x="1035.35" y="1.93" width="40.84" height="40.84" fill="#231f20"/>
  <rect x="991.79" y="1.93" width="40.84" height="40.84" fill="#231f20"/>
  <rect x="948.55" y="1.93" width="40.84" height="40.84" fill="#231f20"/>
  <rect x="905.31" y="1.93" width="40.84" height="40.84" fill="#231f20"/>
  <rect x="861.91" y="1.93" width="40.84" height="40.84" fill="#231f20"/>
  <rect x="818.35" y="1.93" width="40.84" height="40.84" fill="#231f20"/>
  <rect x="775.87" y="1.93" width="40.84" height="40.84" fill="#231f20"/>
  <rect x="732.31" y="1.93" width="40.84" height="40.84" fill="#231f20"/>
  <rect x="991.95" y="778.71" width="40.84" height="40.84" fill="#231f20"/>
  <rect x="991.95" y="908.31" width="40.84" height="40.84" fill="#231f20"/>
  <rect x="991.95" y="951.38" width="40.84" height="40.84" fill="#231f20"/>
  <rect x="732.83" y="994.51" width="40.84" height="40.84" fill="#231f20"/>
  <rect x="775.61" y="994.89" width="40.84" height="40.84" fill="#231f20"/>
  <rect x="818.99" y="994.82" width="40.84" height="40.84" fill="#231f20"/>
  <rect x="775.6" y="1037.58" width="40.84" height="40.84" fill="#231f20"/>
  <rect x="818.39" y="1037.95" width="40.84" height="40.84" fill="#231f20"/>
  <rect x="861.77" y="1037.88" width="40.84" height="40.84" fill="#231f20"/>
  <rect x="905.16" y="994.89" width="40.84" height="40.84" fill="#231f20"/>
  <rect x="861.77" y="994.89" width="40.84" height="40.84" fill="#231f20"/>
  <rect x="948.54" y="994.82" width="40.84" height="40.84" fill="#231f20"/>
  <rect x="905.15" y="1037.58" width="40.84" height="40.84" fill="#231f20"/>
  <rect x="947.94" y="1037.95" width="40.84" height="40.84" fill="#231f20"/>
  <rect x="991.92" y="994.89" width="40.84" height="40.84" fill="#231f20"/>
  <rect x="1035.29" y="994.82" width="40.84" height="40.84" fill="#231f20"/>
  <rect x="1034.69" y="1037.95" width="40.84" height="40.84" fill="#231f20"/>
  <rect x="991.31" y="1037.88" width="40.84" height="40.84" fill="#231f20"/>
  <rect x="703.26" y="835.36" width="13.39" height="13.39" fill="#231f20"/>
  <rect x="703.26" y="878.13" width="13.39" height="13.39" fill="#231f20"/>
  <rect x="703.26" y="921.14" width="13.39" height="13.39" fill="#231f20"/>
  <rect x="703.26" y="963.91" width="13.39" height="13.39" fill="#231f20"/>
  <rect x="1049.07" y="835.36" width="13.39" height="13.39" fill="#231f20"/>
  <rect x="1049.07" y="792.44" width="13.39" height="13.39" fill="#231f20"/>
  <rect x="918.87" y="792.44" width="13.39" height="13.39" fill="#231f20"/>
  <rect x="918.87" y="749.37" width="13.39" height="13.39" fill="#231f20"/>
  <rect x="962.27" y="706.3" width="13.39" height="13.39" fill="#231f20"/>
  <rect x="1005.67" y="662.84" width="13.39" height="13.39" fill="#231f20"/>
  <rect x="1005.67" y="619.77" width="13.39" height="13.39" fill="#231f20"/>
  <rect x="1005.67" y="577.82" width="13.39" height="13.39" fill="#231f20"/>
  <rect x="1005.67" y="534.75" width="13.39" height="13.39" fill="#231f20"/>
  <rect x="1005.67" y="490.3" width="13.39" height="13.39" fill="#231f20"/>
  <rect x="962.27" y="490.3" width="13.39" height="13.39" fill="#231f20"/>
  <rect x="918.87" y="490.3" width="13.39" height="13.39" fill="#231f20"/>
  <rect x="875.47" y="490.3" width="13.39" height="13.39" fill="#231f20"/>
  <rect x="832.07" y="490.3" width="13.39" height="13.39" fill="#231f20"/>
  <rect x="832.07" y="445.86" width="13.39" height="13.39" fill="#231f20"/>
  <rect x="788.67" y="445.86" width="13.39" height="13.39" fill="#231f20"/>
  <rect x="745.27" y="445.86" width="13.39" height="13.39" fill="#231f20"/>
  <rect x="701.87" y="445.86" width="13.39" height="13.39" fill="#231f20"/>
  <rect x="658.79" y="445.86" width="13.39" height="13.39" fill="#231f20"/>
  <rect x="615.78" y="445.86" width="13.39" height="13.39" fill="#231f20"/>
  <rect x="615.78" y="488.17" width="13.39" height="13.39" fill="#231f20"/>
  <rect x="658.79" y="488.17" width="13.39" height="13.39" fill="#231f20"/>
  <rect x="745.27" y="403.46" width="13.39" height="13.39" fill="#231f20"/>
  <rect x="701.87" y="403.46" width="13.39" height="13.39" fill="#231f20"/>
  <rect x="658.79" y="403.46" width="13.39" height="13.39" fill="#231f20"/>
  <rect x="615.78" y="403.46" width="13.39" height="13.39" fill="#231f20"/>
  <rect x="574.55" y="403.46" width="13.39" height="13.39" fill="#231f20"/>
  <rect x="574.55" y="445.86" width="13.39" height="13.39" fill="#231f20"/>
  <rect x="530.14" y="445.86" width="13.39" height="13.39" fill="#231f20"/>
  <rect x="832.07" y="360.2" width="13.39" height="13.39" fill="#231f20"/>
  <rect x="788.67" y="360.2" width="13.39" height="13.39" fill="#231f20"/>
  <rect x="745.27" y="360.2" width="13.39" height="13.39" fill="#231f20"/>
  <rect x="701.87" y="360.2" width="13.39" height="13.39" fill="#231f20"/>
  <rect x="919.03" y="403.46" width="13.39" height="13.39" fill="#231f20"/>
  <rect x="875.63" y="403.46" width="13.39" height="13.39" fill="#231f20"/>
  <rect x="1005.51" y="403.46" width="13.39" height="13.39" fill="#231f20"/>
  <rect x="962.11" y="403.46" width="13.39" height="13.39" fill="#231f20"/>
  <rect x="919.03" y="360.2" width="13.39" height="13.39" fill="#231f20"/>
  <rect x="875.63" y="360.2" width="13.39" height="13.39" fill="#231f20"/>
  <rect x="832.07" y="317.94" width="13.39" height="13.39" fill="#231f20"/>
  <rect x="788.67" y="317.94" width="13.39" height="13.39" fill="#231f20"/>
  <rect x="745.27" y="317.94" width="13.39" height="13.39" fill="#231f20"/>
  <rect x="701.87" y="317.94" width="13.39" height="13.39" fill="#231f20"/>
  <rect x="919.03" y="317.94" width="13.39" height="13.39" fill="#231f20"/>
  <rect x="875.63" y="317.94" width="13.39" height="13.39" fill="#231f20"/>
  <rect x="832.07" y="273.41" width="13.39" height="13.39" fill="#231f20"/>
  <rect x="788.67" y="273.41" width="13.39" height="13.39" fill="#231f20"/>
  <rect x="745.27" y="273.41" width="13.39" height="13.39" fill="#231f20"/>
  <rect x="701.87" y="273.41" width="13.39" height="13.39" fill="#231f20"/>
  <rect x="875.63" y="273.41" width="13.39" height="13.39" fill="#231f20"/>
  <rect x="832.07" y="230.78" width="13.39" height="13.39" fill="#231f20"/>
  <rect x="788.67" y="230.78" width="13.39" height="13.39" fill="#231f20"/>
  <rect x="745.27" y="230.78" width="13.39" height="13.39" fill="#231f20"/>
  <rect x="701.87" y="230.78" width="13.39" height="13.39" fill="#231f20"/>
  <rect x="788.67" y="187.87" width="13.39" height="13.39" fill="#231f20"/>
  <rect x="788.67" y="145.03" width="13.39" height="13.39" fill="#231f20"/>
  <rect x="745.27" y="187.87" width="13.39" height="13.39" fill="#231f20"/>
  <rect x="701.87" y="187.87" width="13.39" height="13.39" fill="#231f20"/>
  <rect x="747.81" y="145.03" width="13.39" height="13.39" fill="#231f20"/>
  <rect x="701.87" y="145.03" width="13.39" height="13.39" fill="#231f20"/>
  <rect x="659.77" y="187.87" width="13.39" height="13.39" fill="#231f20"/>
  <rect x="616.37" y="187.87" width="13.39" height="13.39" fill="#231f20"/>
  <rect x="572.96" y="187.87" width="13.39" height="13.39" fill="#231f20"/>
  <rect x="618.9" y="145.03" width="13.39" height="13.39" fill="#231f20"/>
  <rect x="660.39" y="145.03" width="13.39" height="13.39" fill="#231f20"/>
  <rect x="572.96" y="145.03" width="13.39" height="13.39" fill="#231f20"/>
  <rect x="572.96" y="273.41" width="13.39" height="13.39" fill="#231f20"/>
  <rect x="572.96" y="230.78" width="13.39" height="13.39" fill="#231f20"/>
  <rect x="616.37" y="273.41" width="13.39" height="13.39" fill="#231f20"/>
  <rect x="616.37" y="230.78" width="13.39" height="13.39" fill="#231f20"/>
  <rect x="660.39" y="273.41" width="13.39" height="13.39" fill="#231f20"/>
  <rect x="660.39" y="230.78" width="13.39" height="13.39" fill="#231f20"/>
  <rect x="530.31" y="187.87" width="13.39" height="13.39" fill="#231f20"/>
  <rect x="486.32" y="187.87" width="13.39" height="13.39" fill="#231f20"/>
  <rect x="444.01" y="187.87" width="13.39" height="13.39" fill="#231f20"/>
  <rect x="400.65" y="187.87" width="13.39" height="13.39" fill="#231f20"/>
  <rect x="530.31" y="145.03" width="13.39" height="13.39" fill="#231f20"/>
  <rect x="486.32" y="145.03" width="13.39" height="13.39" fill="#231f20"/>
  <rect x="701.87" y="101.16" width="13.39" height="13.39" fill="#231f20"/>
  <rect x="618.9" y="101.16" width="13.39" height="13.39" fill="#231f20"/>
  <rect x="660.39" y="101.16" width="13.39" height="13.39" fill="#231f20"/>
  <rect x="572.96" y="101.16" width="13.39" height="13.39" fill="#231f20"/>
  <rect x="530.31" y="101.16" width="13.39" height="13.39" fill="#231f20"/>
  <rect x="486.32" y="101.16" width="13.39" height="13.39" fill="#231f20"/>
  <rect x="701.87" y="58.93" width="13.39" height="13.39" fill="#231f20"/>
  <rect x="618.9" y="58.93" width="13.39" height="13.39" fill="#231f20"/>
  <rect x="660.39" y="58.93" width="13.39" height="13.39" fill="#231f20"/>
  <rect x="572.96" y="58.93" width="13.39" height="13.39" fill="#231f20"/>
  <rect x="530.31" y="58.93" width="13.39" height="13.39" fill="#231f20"/>
  <rect x="486.32" y="58.93" width="13.39" height="13.39" fill="#231f20"/>
  <rect x="701.87" y="15.65" width="13.39" height="13.39" fill="#231f20"/>
  <rect x="618.9" y="15.65" width="13.39" height="13.39" fill="#231f20"/>
  <rect x="660.39" y="15.65" width="13.39" height="13.39" fill="#231f20"/>
  <rect x="572.96" y="15.65" width="13.39" height="13.39" fill="#231f20"/>
  <rect x="530.31" y="15.65" width="13.39" height="13.39" fill="#231f20"/>
  <rect x="486.32" y="15.65" width="13.39" height="13.39" fill="#231f20"/>
  <rect x="444.01" y="101.16" width="13.39" height="13.39" fill="#231f20"/>
  <rect x="444.01" y="58.93" width="13.39" height="13.39" fill="#231f20"/>
  <rect x="444.01" y="15.65" width="13.39" height="13.39" fill="#231f20"/>
  <rect x="400.65" y="101.16" width="13.39" height="13.39" fill="#231f20"/>
  <rect x="444.01" y="145.03" width="13.39" height="13.39" fill="#231f20"/>
  <rect x="400.65" y="145.03" width="13.39" height="13.39" fill="#231f20"/>
  <rect x="400.65" y="58.93" width="13.39" height="13.39" fill="#231f20"/>
  <rect x="400.65" y="15.65" width="13.39" height="13.39" fill="#231f20"/>
  <rect x="357.71" y="187.87" width="13.39" height="13.39" fill="#231f20"/>
  <rect x="357.71" y="101.16" width="13.39" height="13.39" fill="#231f20"/>
  <rect x="357.71" y="145.03" width="13.39" height="13.39" fill="#231f20"/>
  <rect x="357.71" y="58.93" width="13.39" height="13.39" fill="#231f20"/>
  <rect x="357.71" y="15.65" width="13.39" height="13.39" fill="#231f20"/>
  <rect x="313.61" y="187.87" width="13.39" height="13.39" fill="#231f20"/>
  <rect x="313.61" y="101.16" width="13.39" height="13.39" fill="#231f20"/>
  <rect x="313.61" y="145.03" width="13.39" height="13.39" fill="#231f20"/>
  <rect x="313.61" y="58.93" width="13.39" height="13.39" fill="#231f20"/>
  <rect x="313.61" y="15.65" width="13.39" height="13.39" fill="#231f20"/>
  <rect x="271.46" y="187.87" width="13.39" height="13.39" fill="#231f20"/>
  <rect x="313.61" y="230.78" width="13.39" height="13.39" fill="#231f20"/>
  <rect x="271.46" y="230.78" width="13.39" height="13.39" fill="#231f20"/>
  <rect x="271.46" y="101.16" width="13.39" height="13.39" fill="#231f20"/>
  <rect x="271.46" y="145.03" width="13.39" height="13.39" fill="#231f20"/>
  <rect x="271.46" y="58.93" width="13.39" height="13.39" fill="#231f20"/>
  <rect x="271.46" y="15.65" width="13.39" height="13.39" fill="#231f20"/>
  <rect x="227.37" y="187.87" width="13.39" height="13.39" fill="#231f20"/>
  <rect x="227.37" y="101.16" width="13.39" height="13.39" fill="#231f20"/>
  <rect x="227.37" y="145.03" width="13.39" height="13.39" fill="#231f20"/>
  <rect x="227.37" y="58.93" width="13.39" height="13.39" fill="#231f20"/>
  <rect x="227.37" y="15.65" width="13.39" height="13.39" fill="#231f20"/>
  <rect x="185.1" y="101.16" width="13.39" height="13.39" fill="#231f20"/>
  <rect x="185.1" y="58.93" width="13.39" height="13.39" fill="#231f20"/>
  <rect x="185.1" y="15.65" width="13.39" height="13.39" fill="#231f20"/>
  <rect x="141.76" y="58.93" width="13.39" height="13.39" fill="#231f20"/>
  <rect x="141.76" y="15.65" width="13.39" height="13.39" fill="#231f20"/>
  <rect x="98.84" y="15.65" width="13.39" height="13.39" fill="#231f20"/>
  <rect x="530.31" y="273.41" width="13.39" height="13.39" fill="#231f20"/>
  <rect x="486.32" y="273.41" width="13.39" height="13.39" fill="#231f20"/>
  <rect x="444.01" y="273.41" width="13.39" height="13.39" fill="#231f20"/>
  <rect x="530.31" y="230.78" width="13.39" height="13.39" fill="#231f20"/>
  <rect x="486.32" y="230.78" width="13.39" height="13.39" fill="#231f20"/>
  <rect x="444.01" y="230.78" width="13.39" height="13.39" fill="#231f20"/>
  <rect x="400.65" y="273.41" width="13.39" height="13.39" fill="#231f20"/>
  <rect x="530.31" y="317.94" width="13.39" height="13.39" fill="#231f20"/>
  <rect x="486.32" y="317.94" width="13.39" height="13.39" fill="#231f20"/>
  <rect x="444.01" y="317.94" width="13.39" height="13.39" fill="#231f20"/>
  <rect x="400.65" y="317.94" width="13.39" height="13.39" fill="#231f20"/>
  <rect x="400.65" y="230.78" width="13.39" height="13.39" fill="#231f20"/>
  <rect x="1005.51" y="360.2" width="13.39" height="13.39" fill="#231f20"/>
  <rect x="962.11" y="360.2" width="13.39" height="13.39" fill="#231f20"/>
  <rect x="919.03" y="445.86" width="13.39" height="13.39" fill="#231f20"/>
  <rect x="875.63" y="445.86" width="13.39" height="13.39" fill="#231f20"/>
  <rect x="1005.51" y="445.86" width="13.39" height="13.39" fill="#231f20"/>
  <rect x="962.11" y="445.86" width="13.39" height="13.39" fill="#231f20"/>
  <rect x="832.23" y="403.46" width="13.39" height="13.39" fill="#231f20"/>
  <rect x="788.83" y="403.46" width="13.39" height="13.39" fill="#231f20"/>
  <rect x="658.79" y="360.2" width="13.39" height="13.39" fill="#231f20"/>
  <rect x="615.78" y="360.2" width="13.39" height="13.39" fill="#231f20"/>
  <rect x="574.55" y="360.2" width="13.39" height="13.39" fill="#231f20"/>
  <rect x="572.96" y="317.94" width="13.39" height="13.39" fill="#231f20"/>
  <rect x="530.14" y="360.2" width="13.39" height="13.39" fill="#231f20"/>
  <rect x="486.32" y="360.2" width="13.39" height="13.39" fill="#231f20"/>
  <rect x="486.32" y="403.46" width="13.39" height="13.39" fill="#231f20"/>
  <rect x="530.14" y="488.75" width="13.39" height="13.39" fill="#231f20"/>
  <rect x="487.32" y="488.75" width="13.39" height="13.39" fill="#231f20"/>
  <rect x="487.32" y="533.3" width="13.39" height="13.39" fill="#231f20"/>
  <rect x="530.14" y="533.3" width="13.39" height="13.39" fill="#231f20"/>
  <rect x="487.32" y="445.86" width="13.39" height="13.39" fill="#231f20"/>
  <rect x="444.42" y="445.86" width="13.39" height="13.39" fill="#231f20"/>
  <rect x="401.18" y="488.17" width="13.39" height="13.39" fill="#231f20"/>
  <rect x="356.85" y="488.17" width="13.39" height="13.39" fill="#231f20"/>
  <rect x="313.61" y="488.17" width="13.39" height="13.39" fill="#231f20"/>
  <rect x="270.16" y="488.17" width="13.39" height="13.39" fill="#231f20"/>
  <rect x="225.83" y="488.17" width="13.39" height="13.39" fill="#231f20"/>
  <rect x="183.85" y="488.17" width="13.39" height="13.39" fill="#231f20"/>
  <rect x="401.18" y="445.86" width="13.39" height="13.39" fill="#231f20"/>
  <rect x="401.18" y="403.46" width="13.39" height="13.39" fill="#231f20"/>
  <rect x="401.18" y="360.2" width="13.39" height="13.39" fill="#231f20"/>
  <rect x="356.85" y="445.86" width="13.39" height="13.39" fill="#231f20"/>
  <rect x="356.85" y="403.46" width="13.39" height="13.39" fill="#231f20"/>
  <rect x="356.85" y="360.2" width="13.39" height="13.39" fill="#231f20"/>
  <rect x="356.63" y="662.82" width="13.39" height="13.39" fill="#231f20"/>
  <rect x="356.85" y="619.23" width="13.39" height="13.39" fill="#231f20"/>
  <rect x="313.4" y="662.82" width="13.39" height="13.39" fill="#231f20"/>
  <rect x="313.61" y="619.23" width="13.39" height="13.39" fill="#231f20"/>
  <rect x="356.85" y="578" width="13.39" height="13.39" fill="#231f20"/>
  <rect x="400.63" y="578" width="13.39" height="13.39" fill="#231f20"/>
  <rect x="444.2" y="662.82" width="13.39" height="13.39" fill="#231f20"/>
  <rect x="444.42" y="619.23" width="13.39" height="13.39" fill="#231f20"/>
  <rect x="444.42" y="578" width="13.39" height="13.39" fill="#231f20"/>
  <rect x="444.42" y="790.21" width="13.39" height="13.39" fill="#231f20"/>
  <rect x="444.42" y="747.99" width="13.39" height="13.39" fill="#231f20"/>
  <rect x="444.42" y="706.75" width="13.39" height="13.39" fill="#231f20"/>
  <rect x="445.07" y="921.41" width="13.39" height="13.39" fill="#231f20"/>
  <rect x="401.18" y="921.41" width="13.39" height="13.39" fill="#231f20"/>
  <rect x="444.42" y="878.5" width="13.39" height="13.39" fill="#231f20"/>
  <rect x="401.18" y="878.5" width="13.39" height="13.39" fill="#231f20"/>
  <rect x="357.38" y="878.5" width="13.39" height="13.39" fill="#231f20"/>
  <rect x="313.99" y="878.5" width="13.39" height="13.39" fill="#231f20"/>
  <rect x="270.38" y="878.5" width="13.39" height="13.39" fill="#231f20"/>
  <rect x="357.38" y="835.6" width="13.39" height="13.39" fill="#231f20"/>
  <rect x="313.99" y="835.6" width="13.39" height="13.39" fill="#231f20"/>
  <rect x="357.38" y="790.21" width="13.39" height="13.39" fill="#231f20"/>
  <rect x="313.99" y="790.21" width="13.39" height="13.39" fill="#231f20"/>
  <rect x="444.42" y="835.6" width="13.39" height="13.39" fill="#231f20"/>
  <rect x="486.49" y="790.21" width="13.39" height="13.39" fill="#231f20"/>
  <rect x="486.49" y="747.99" width="13.39" height="13.39" fill="#231f20"/>
  <rect x="530.21" y="790.21" width="13.39" height="13.39" fill="#231f20"/>
  <rect x="574.05" y="790.21" width="13.39" height="13.39" fill="#231f20"/>
  <rect x="530.21" y="747.99" width="13.39" height="13.39" fill="#231f20"/>
  <rect x="486.49" y="706.75" width="13.39" height="13.39" fill="#231f20"/>
  <rect x="530.21" y="706.75" width="13.39" height="13.39" fill="#231f20"/>
  <rect x="486.28" y="662.82" width="13.39" height="13.39" fill="#231f20"/>
  <rect x="530" y="662.82" width="13.39" height="13.39" fill="#231f20"/>
  <rect x="616.51" y="790.21" width="13.39" height="13.39" fill="#231f20"/>
  <rect x="530.21" y="835.98" width="13.39" height="13.39" fill="#231f20"/>
  <rect x="574.05" y="835.98" width="13.39" height="13.39" fill="#231f20"/>
  <rect x="616.51" y="835.98" width="13.39" height="13.39" fill="#231f20"/>
  <rect x="530.21" y="879.04" width="13.39" height="13.39" fill="#231f20"/>
  <rect x="574.05" y="879.04" width="13.39" height="13.39" fill="#231f20"/>
  <rect x="616.51" y="879.04" width="13.39" height="13.39" fill="#231f20"/>
  <rect x="659.88" y="790.21" width="13.39" height="13.39" fill="#231f20"/>
  <rect x="659.88" y="835.98" width="13.39" height="13.39" fill="#231f20"/>
  <rect x="659.88" y="879.04" width="13.39" height="13.39" fill="#231f20"/>
  <rect x="530.21" y="922.11" width="13.39" height="13.39" fill="#231f20"/>
  <rect x="530.21" y="965.23" width="13.39" height="13.39" fill="#231f20"/>
  <rect x="574.05" y="922.11" width="13.39" height="13.39" fill="#231f20"/>
  <rect x="574.05" y="965.23" width="13.39" height="13.39" fill="#231f20"/>
  <rect x="616.51" y="922.11" width="13.39" height="13.39" fill="#231f20"/>
  <rect x="616.51" y="965.23" width="13.39" height="13.39" fill="#231f20"/>
  <rect x="659.88" y="922.11" width="13.39" height="13.39" fill="#231f20"/>
  <rect x="616.51" y="747.99" width="13.39" height="13.39" fill="#231f20"/>
  <rect x="616.51" y="706.75" width="13.39" height="13.39" fill="#231f20"/>
  <rect x="574.05" y="747.99" width="13.39" height="13.39" fill="#231f20"/>
  <rect x="574.05" y="706.75" width="13.39" height="13.39" fill="#231f20"/>
  <rect x="615.78" y="662.82" width="13.39" height="13.39" fill="#231f20"/>
  <rect x="615.78" y="620.95" width="13.39" height="13.39" fill="#231f20"/>
  <rect x="615.78" y="579.71" width="13.39" height="13.39" fill="#231f20"/>
  <rect x="615.78" y="535.78" width="13.39" height="13.39" fill="#231f20"/>
  <rect x="574.55" y="488.17" width="13.39" height="13.39" fill="#231f20"/>
  <rect x="574.55" y="662.82" width="13.39" height="13.39" fill="#231f20"/>
  <rect x="574.55" y="620.95" width="13.39" height="13.39" fill="#231f20"/>
  <rect x="574.55" y="579.71" width="13.39" height="13.39" fill="#231f20"/>
  <rect x="574.55" y="535.78" width="13.39" height="13.39" fill="#231f20"/>
  <rect x="658.79" y="620.95" width="13.39" height="13.39" fill="#231f20"/>
  <rect x="658.79" y="579.71" width="13.39" height="13.39" fill="#231f20"/>
  <rect x="658.79" y="535.78" width="13.39" height="13.39" fill="#231f20"/>
  <rect x="701.87" y="620.41" width="13.39" height="13.39" fill="#231f20"/>
  <rect x="701.87" y="579.18" width="13.39" height="13.39" fill="#231f20"/>
  <rect x="701.87" y="535.25" width="13.39" height="13.39" fill="#231f20"/>
  <rect x="487.15" y="921.41" width="13.39" height="13.39" fill="#231f20"/>
  <rect x="487.15" y="965.23" width="13.39" height="13.39" fill="#231f20"/>
  <rect x="530.21" y="1008.62" width="13.39" height="13.39" fill="#231f20"/>
  <rect x="574.05" y="1008.62" width="13.39" height="13.39" fill="#231f20"/>
  <rect x="616.51" y="1008.62" width="13.39" height="13.39" fill="#231f20"/>
  <rect x="660.03" y="1008.62" width="13.39" height="13.39" fill="#231f20"/>
  <rect x="530.21" y="1051.3" width="13.39" height="13.39" fill="#231f20"/>
  <rect x="574.05" y="1051.3" width="13.39" height="13.39" fill="#231f20"/>
  <rect x="616.51" y="1051.3" width="13.39" height="13.39" fill="#231f20"/>
  <rect x="660.03" y="1051.3" width="13.39" height="13.39" fill="#231f20"/>
  <rect x="487.15" y="1008.62" width="13.39" height="13.39" fill="#231f20"/>
  <rect x="487.15" y="1051.3" width="13.39" height="13.39" fill="#231f20"/>
  <rect x="486.49" y="878.5" width="13.39" height="13.39" fill="#231f20"/>
  <rect x="486.49" y="835.6" width="13.39" height="13.39" fill="#231f20"/>
  <rect x="400.08" y="835.6" width="13.39" height="13.39" fill="#231f20"/>
  <rect x="444.42" y="1052" width="13.39" height="13.39" fill="#231f20"/>
  <rect x="401.18" y="1052" width="13.39" height="13.39" fill="#231f20"/>
  <rect x="444.42" y="1009.91" width="13.39" height="13.39" fill="#231f20"/>
  <rect x="401.18" y="1007.45" width="13.39" height="13.39" fill="#231f20"/>
  <rect x="401.18" y="965.85" width="13.39" height="13.39" fill="#231f20"/>
  <rect x="313.99" y="921.41" width="13.39" height="13.39" fill="#231f20"/>
  <rect x="313.99" y="1052" width="13.39" height="13.39" fill="#231f20"/>
  <rect x="313.99" y="1007.45" width="13.39" height="13.39" fill="#231f20"/>
  <rect x="313.99" y="965.85" width="13.39" height="13.39" fill="#231f20"/>
  <rect x="270.42" y="921.41" width="13.39" height="13.39" fill="#231f20"/>
  <rect x="270.42" y="1052" width="13.39" height="13.39" fill="#231f20"/>
  <rect x="270.42" y="1007.45" width="13.39" height="13.39" fill="#231f20"/>
  <rect x="270.42" y="965.85" width="13.39" height="13.39" fill="#231f20"/>
  <rect x="226.77" y="965.85" width="13.39" height="13.39" fill="#231f20"/>
  <rect x="183.2" y="965.85" width="13.39" height="13.39" fill="#231f20"/>
  <rect x="142.01" y="965.85" width="13.39" height="13.39" fill="#231f20"/>
  <rect x="98.44" y="965.85" width="13.39" height="13.39" fill="#231f20"/>
  <rect x="54.79" y="965.85" width="13.39" height="13.39" fill="#231f20"/>
  <rect x="11.22" y="965.85" width="13.39" height="13.39" fill="#231f20"/>
  <rect x="54.79" y="921.41" width="13.39" height="13.39" fill="#231f20"/>
  <rect x="11.22" y="921.41" width="13.39" height="13.39" fill="#231f20"/>
  <rect x="54.79" y="878.74" width="13.39" height="13.39" fill="#231f20"/>
  <rect x="11.22" y="878.74" width="13.39" height="13.39" fill="#231f20"/>
  <rect x="54.79" y="835.6" width="13.39" height="13.39" fill="#231f20"/>
  <rect x="140.8" y="878.74" width="13.39" height="13.39" fill="#231f20"/>
  <rect x="140.8" y="835.6" width="13.39" height="13.39" fill="#231f20"/>
  <rect x="183.2" y="878.74" width="13.39" height="13.39" fill="#231f20"/>
  <rect x="183.2" y="835.6" width="13.39" height="13.39" fill="#231f20"/>
  <rect x="270.16" y="835.6" width="13.39" height="13.39" fill="#231f20"/>
  <rect x="11.22" y="835.6" width="13.39" height="13.39" fill="#231f20"/>
  <rect x="11.22" y="792.46" width="13.39" height="13.39" fill="#231f20"/>
  <rect x="11.22" y="748.21" width="13.39" height="13.39" fill="#231f20"/>
  <rect x="98.36" y="792.46" width="13.39" height="13.39" fill="#231f20"/>
  <rect x="98.36" y="748.21" width="13.39" height="13.39" fill="#231f20"/>
  <rect x="11.22" y="706.75" width="13.39" height="13.39" fill="#231f20"/>
  <rect x="98.44" y="1007.45" width="13.39" height="13.39" fill="#231f20"/>
  <rect x="54.79" y="1007.45" width="13.39" height="13.39" fill="#231f20"/>
  <rect x="11.22" y="1007.45" width="13.39" height="13.39" fill="#231f20"/>
  <rect x="98.44" y="1052" width="13.39" height="13.39" fill="#231f20"/>
  <rect x="54.79" y="1052" width="13.39" height="13.39" fill="#231f20"/>
  <rect x="11.22" y="1052" width="13.39" height="13.39" fill="#231f20"/>
  <rect x="444.42" y="965.85" width="13.39" height="13.39" fill="#231f20"/>
  <rect x="400.96" y="662.82" width="13.39" height="13.39" fill="#231f20"/>
  <rect x="401.18" y="790.21" width="13.39" height="13.39" fill="#231f20"/>
  <rect x="401.18" y="747.99" width="13.39" height="13.39" fill="#231f20"/>
  <rect x="357.4" y="747.99" width="13.39" height="13.39" fill="#231f20"/>
  <rect x="313.89" y="747.99" width="13.39" height="13.39" fill="#231f20"/>
  <rect x="401.18" y="706.75" width="13.39" height="13.39" fill="#231f20"/>
  <rect x="356.85" y="706.75" width="13.39" height="13.39" fill="#231f20"/>
  <rect x="313.61" y="706.75" width="13.39" height="13.39" fill="#231f20"/>
  <rect x="356.85" y="533.37" width="13.39" height="13.39" fill="#231f20"/>
  <rect x="401.18" y="533.37" width="13.39" height="13.39" fill="#231f20"/>
  <rect x="444.42" y="488.17" width="13.39" height="13.39" fill="#231f20"/>
  <rect x="444.42" y="533.37" width="13.39" height="13.39" fill="#231f20"/>
  <rect x="313.61" y="360.2" width="13.39" height="13.39" fill="#231f20"/>
  <rect x="313.61" y="445.86" width="13.39" height="13.39" fill="#231f20"/>
  <rect x="313.61" y="403.46" width="13.39" height="13.39" fill="#231f20"/>
  <rect x="270.38" y="403.46" width="13.39" height="13.39" fill="#231f20"/>
  <rect x="270.38" y="445.86" width="13.39" height="13.39" fill="#231f20"/>
  <rect x="270.38" y="360.2" width="13.39" height="13.39" fill="#231f20"/>
  <rect x="228.49" y="360.2" width="13.39" height="13.39" fill="#231f20"/>
  <rect x="183.85" y="360.2" width="13.39" height="13.39" fill="#231f20"/>
  <rect x="270.38" y="317.94" width="13.39" height="13.39" fill="#231f20"/>
  <rect x="228.49" y="317.94" width="13.39" height="13.39" fill="#231f20"/>
  <rect x="228.49" y="273.41" width="13.39" height="13.39" fill="#231f20"/>
  <rect x="271.46" y="273.41" width="13.39" height="13.39" fill="#231f20"/>
  <rect x="185.1" y="230.78" width="13.39" height="13.39" fill="#231f20"/>
  <rect x="185.1" y="187.87" width="13.39" height="13.39" fill="#231f20"/>
  <rect x="185.1" y="145.03" width="13.39" height="13.39" fill="#231f20"/>
  <rect x="140.91" y="187.87" width="13.39" height="13.39" fill="#231f20"/>
  <rect x="140.91" y="145.03" width="13.39" height="13.39" fill="#231f20"/>
  <rect x="140.91" y="101.16" width="13.39" height="13.39" fill="#231f20"/>
  <rect x="98.42" y="101.16" width="13.39" height="13.39" fill="#231f20"/>
  <rect x="55.92" y="101.16" width="13.39" height="13.39" fill="#231f20"/>
  <rect x="98.42" y="58.93" width="13.39" height="13.39" fill="#231f20"/>
  <rect x="55.92" y="58.93" width="13.39" height="13.39" fill="#231f20"/>
  <rect x="55.92" y="15.65" width="13.39" height="13.39" fill="#231f20"/>
  <rect x="13.43" y="15.65" width="13.39" height="13.39" fill="#231f20"/>
  <rect x="98.42" y="145.03" width="13.39" height="13.39" fill="#231f20"/>
  <rect x="98.42" y="187.87" width="13.39" height="13.39" fill="#231f20"/>
  <rect x="98.42" y="228.88" width="13.39" height="13.39" fill="#231f20"/>
  <rect x="55.92" y="187.87" width="13.39" height="13.39" fill="#231f20"/>
  <rect x="227.15" y="230.78" width="13.39" height="13.39" fill="#231f20"/>
  <rect x="228.49" y="403.46" width="13.39" height="13.39" fill="#231f20"/>
  <rect x="183.85" y="403.46" width="13.39" height="13.39" fill="#231f20"/>
  <rect x="228.49" y="445.86" width="13.39" height="13.39" fill="#231f20"/>
  <rect x="183.85" y="445.86" width="13.39" height="13.39" fill="#231f20"/>
  <rect x="313.61" y="533.37" width="13.39" height="13.39" fill="#231f20"/>
  <rect x="270.38" y="533.37" width="13.39" height="13.39" fill="#231f20"/>
  <rect x="227.15" y="533.37" width="13.39" height="13.39" fill="#231f20"/>
  <rect x="227.15" y="578" width="13.39" height="13.39" fill="#231f20"/>
  <rect x="183.92" y="578" width="13.39" height="13.39" fill="#231f20"/>
  <rect x="183.92" y="619.23" width="13.39" height="13.39" fill="#231f20"/>
  <rect x="140.68" y="533.37" width="13.39" height="13.39" fill="#231f20"/>
  <rect x="140.68" y="578" width="13.39" height="13.39" fill="#231f20"/>
  <rect x="97.45" y="578" width="13.39" height="13.39" fill="#231f20"/>
  <rect x="54.22" y="578" width="13.39" height="13.39" fill="#231f20"/>
  <rect x="54.22" y="533.37" width="13.39" height="13.39" fill="#231f20"/>
  <rect x="54.22" y="619.23" width="13.39" height="13.39" fill="#231f20"/>
  <rect x="54.22" y="660.92" width="13.39" height="13.39" fill="#231f20"/>
  <rect x="10.98" y="578" width="13.39" height="13.39" fill="#231f20"/>
  <rect x="10.98" y="619.23" width="13.39" height="13.39" fill="#231f20"/>
  <rect x="270.38" y="578" width="13.39" height="13.39" fill="#231f20"/>
  <rect x="270.38" y="619.23" width="13.39" height="13.39" fill="#231f20"/>
  <rect x="270.16" y="662.82" width="13.39" height="13.39" fill="#231f20"/>
  <rect x="270.38" y="706.73" width="13.39" height="13.39" fill="#231f20"/>
  <rect x="227.15" y="706.73" width="13.39" height="13.39" fill="#231f20"/>
  <rect x="918.4" y="706.32" width="13.39" height="13.39" fill="#231f20"/>
  <rect x="875.15" y="706.32" width="13.39" height="13.39" fill="#231f20"/>
  <rect x="830.82" y="706.32" width="13.39" height="13.39" fill="#231f20"/>
  <rect x="787.59" y="706.32" width="13.39" height="13.39" fill="#231f20"/>
  <rect x="744.36" y="706.29" width="13.39" height="13.39" fill="#231f20"/>
  <rect x="918.4" y="662.85" width="13.39" height="13.39" fill="#231f20"/>
  <rect x="875.15" y="662.85" width="13.39" height="13.39" fill="#231f20"/>
  <rect x="830.82" y="662.85" width="13.39" height="13.39" fill="#231f20"/>
  <rect x="787.59" y="662.85" width="13.39" height="13.39" fill="#231f20"/>
  <rect x="744.36" y="662.82" width="13.39" height="13.39" fill="#231f20"/>
  <rect x="875.15" y="749.38" width="13.39" height="13.39" fill="#231f20"/>
  <rect x="830.82" y="749.38" width="13.39" height="13.39" fill="#231f20"/>
  <rect x="787.59" y="749.38" width="13.39" height="13.39" fill="#231f20"/>
  <rect x="744.36" y="749.36" width="13.39" height="13.39" fill="#231f20"/>
  <rect x="962.26" y="662.84" width="13.39" height="13.39" fill="#231f20"/>
  <rect x="918.4" y="619.25" width="13.39" height="13.39" fill="#231f20"/>
  <rect x="875.15" y="619.25" width="13.39" height="13.39" fill="#231f20"/>
  <rect x="830.82" y="619.25" width="13.39" height="13.39" fill="#231f20"/>
  <rect x="787.59" y="619.25" width="13.39" height="13.39" fill="#231f20"/>
  <rect x="744.36" y="619.22" width="13.39" height="13.39" fill="#231f20"/>
  <rect x="962.26" y="619.23" width="13.39" height="13.39" fill="#231f20"/>
  <rect x="918.4" y="577.83" width="13.39" height="13.39" fill="#231f20"/>
  <rect x="875.15" y="577.83" width="13.39" height="13.39" fill="#231f20"/>
  <rect x="830.82" y="577.83" width="13.39" height="13.39" fill="#231f20"/>
  <rect x="787.59" y="577.83" width="13.39" height="13.39" fill="#231f20"/>
  <rect x="744.36" y="577.8" width="13.39" height="13.39" fill="#231f20"/>
  <rect x="962.26" y="577.82" width="13.39" height="13.39" fill="#231f20"/>
  <rect x="918.4" y="534.76" width="13.39" height="13.39" fill="#231f20"/>
  <rect x="875.15" y="534.76" width="13.39" height="13.39" fill="#231f20"/>
  <rect x="830.82" y="534.76" width="13.39" height="13.39" fill="#231f20"/>
  <rect x="787.59" y="534.76" width="13.39" height="13.39" fill="#231f20"/>
  <rect x="744.36" y="534.74" width="13.39" height="13.39" fill="#231f20"/>
  <rect x="787.59" y="490.3" width="13.39" height="13.39" fill="#231f20"/>
  <rect x="744.36" y="490.3" width="13.39" height="13.39" fill="#231f20"/>
  <rect x="701.87" y="490.3" width="13.39" height="13.39" fill="#231f20"/>
  <rect x="962.26" y="534.75" width="13.39" height="13.39" fill="#231f20"/>
  <rect x="270.38" y="748.21" width="13.39" height="13.39" fill="#231f20"/>
  <rect x="228.49" y="748.21" width="13.39" height="13.39" fill="#231f20"/>
  <rect x="313.61" y="578" width="13.39" height="13.39" fill="#231f20"/>
  <rect x="1049.07" y="445.86" width="13.39" height="13.39" fill="#231f20"/>
  <rect x="1049.07" y="403.46" width="13.39" height="13.39" fill="#231f20"/>
  <rect x="1049.07" y="878.13" width="13.39" height="13.39" fill="#231f20"/>
  <rect x="1049.07" y="921.14" width="13.39" height="13.39" fill="#231f20"/>
  <rect x="1049.07" y="963.91" width="13.39" height="13.39" fill="#231f20"/>
  <rect x="703.26" y="1008.72" width="13.39" height="13.39" fill="#231f20"/>
  <rect x="703.26" y="1051.49" width="13.39" height="13.39" fill="#231f20"/>
  <rect x="746.55" y="1051.49" width="13.39" height="13.39" fill="#231f20"/>
</svg>