<?xml version="1.0" encoding="UTF-8"?>
<svg id="_24" data-name="24" xmlns="http://www.w3.org/2000/svg" viewBox="0 0 1080 1080">
  <rect x="475.74" y="952.53" width="40.77" height="40.77" fill="#231f20"/>
  <rect x="432.93" y="952.53" width="40.77" height="40.77" fill="#231f20"/>
  <rect x="475.74" y="995.61" width="40.77" height="40.77" fill="#231f20"/>
  <rect x="518.7" y="952.53" width="40.77" height="40.77" fill="#231f20"/>
  <rect x="518.7" y="995.61" width="40.77" height="40.77" fill="#231f20"/>
  <rect x="561.91" y="952.53" width="40.77" height="40.77" fill="#231f20"/>
  <rect x="561.91" y="995.61" width="40.77" height="40.77" fill="#231f20"/>
  <rect x="604.87" y="952.53" width="40.77" height="40.77" fill="#231f20"/>
  <rect x="475.74" y="909.44" width="40.77" height="40.77" fill="#231f20"/>
  <rect x="432.93" y="909.44" width="40.77" height="40.77" fill="#231f20"/>
  <rect x="518.7" y="909.44" width="40.77" height="40.77" fill="#231f20"/>
  <rect x="561.91" y="909.44" width="40.77" height="40.77" fill="#231f20"/>
  <rect x="604.87" y="909.44" width="40.77" height="40.77" fill="#231f20"/>
  <rect x="604.87" y="995.61" width="40.77" height="40.77" fill="#231f20"/>
  <rect x="647.83" y="952.53" width="40.77" height="40.77" fill="#231f20"/>
  <rect x="647.83" y="909.44" width="40.77" height="40.77" fill="#231f20"/>
  <rect x="475.74" y="866.36" width="40.77" height="40.77" fill="#231f20"/>
  <rect x="432.93" y="866.36" width="40.77" height="40.77" fill="#231f20"/>
  <rect x="518.7" y="866.36" width="40.77" height="40.77" fill="#231f20"/>
  <rect x="561.91" y="866.36" width="40.77" height="40.77" fill="#231f20"/>
  <rect x="604.87" y="866.36" width="40.77" height="40.77" fill="#231f20"/>
  <rect x="647.83" y="866.36" width="40.77" height="40.77" fill="#231f20"/>
  <rect x="475.74" y="823.28" width="40.77" height="40.77" fill="#231f20"/>
  <rect x="432.93" y="823.28" width="40.77" height="40.77" fill="#231f20"/>
  <rect x="518.7" y="823.28" width="40.77" height="40.77" fill="#231f20"/>
  <rect x="561.91" y="823.28" width="40.77" height="40.77" fill="#231f20"/>
  <rect x="604.87" y="823.28" width="40.77" height="40.77" fill="#231f20"/>
  <rect x="647.83" y="823.28" width="40.77" height="40.77" fill="#231f20"/>
  <rect x="475.74" y="780.2" width="40.77" height="40.77" fill="#231f20"/>
  <rect x="432.93" y="780.2" width="40.77" height="40.77" fill="#231f20"/>
  <rect x="518.7" y="780.2" width="40.77" height="40.77" fill="#231f20"/>
  <rect x="561.91" y="780.2" width="40.77" height="40.77" fill="#231f20"/>
  <rect x="604.87" y="780.2" width="40.77" height="40.77" fill="#231f20"/>
  <rect x="647.83" y="780.2" width="40.77" height="40.77" fill="#231f20"/>
  <rect x="475.74" y="737.11" width="40.77" height="40.77" fill="#231f20"/>
  <rect x="432.93" y="737.11" width="40.77" height="40.77" fill="#231f20"/>
  <rect x="518.7" y="737.11" width="40.77" height="40.77" fill="#231f20"/>
  <rect x="561.91" y="737.11" width="40.77" height="40.77" fill="#231f20"/>
  <rect x="604.87" y="737.11" width="40.77" height="40.77" fill="#231f20"/>
  <rect x="647.83" y="737.11" width="40.77" height="40.77" fill="#231f20"/>
  <rect x="475.74" y="694.03" width="40.77" height="40.77" fill="#231f20"/>
  <rect x="432.93" y="694.03" width="40.77" height="40.77" fill="#231f20"/>
  <rect x="518.7" y="694.03" width="40.77" height="40.77" fill="#231f20"/>
  <rect x="561.91" y="694.03" width="40.77" height="40.77" fill="#231f20"/>
  <rect x="604.87" y="694.03" width="40.77" height="40.77" fill="#231f20"/>
  <rect x="647.83" y="694.03" width="40.77" height="40.77" fill="#231f20"/>
  <rect x="475.74" y="650.95" width="40.77" height="40.77" fill="#231f20"/>
  <rect x="432.93" y="650.95" width="40.77" height="40.77" fill="#231f20"/>
  <rect x="518.7" y="650.95" width="40.77" height="40.77" fill="#231f20"/>
  <rect x="561.91" y="650.95" width="40.77" height="40.77" fill="#231f20"/>
  <rect x="604.87" y="650.95" width="40.77" height="40.77" fill="#231f20"/>
  <rect x="647.83" y="650.95" width="40.77" height="40.77" fill="#231f20"/>
  <rect x="475.74" y="607.87" width="40.77" height="40.77" fill="#231f20"/>
  <rect x="432.93" y="607.87" width="40.77" height="40.77" fill="#231f20"/>
  <rect x="518.7" y="607.87" width="40.77" height="40.77" fill="#231f20"/>
  <rect x="561.91" y="607.87" width="40.77" height="40.77" fill="#231f20"/>
  <rect x="604.87" y="607.87" width="40.77" height="40.77" fill="#231f20"/>
  <rect x="647.83" y="607.87" width="40.77" height="40.77" fill="#231f20"/>
  <rect x="475.74" y="564.79" width="40.77" height="40.77" fill="#231f20"/>
  <rect x="432.93" y="564.79" width="40.77" height="40.77" fill="#231f20"/>
  <rect x="518.7" y="564.79" width="40.77" height="40.77" fill="#231f20"/>
  <rect x="561.91" y="564.79" width="40.77" height="40.77" fill="#231f20"/>
  <rect x="604.87" y="564.79" width="40.77" height="40.77" fill="#231f20"/>
  <rect x="647.83" y="564.79" width="40.77" height="40.77" fill="#231f20"/>
  <rect x="475.74" y="521.7" width="40.77" height="40.77" fill="#231f20"/>
  <rect x="432.93" y="521.7" width="40.77" height="40.77" fill="#231f20"/>
  <rect x="518.7" y="521.7" width="40.77" height="40.77" fill="#231f20"/>
  <rect x="561.91" y="521.7" width="40.77" height="40.77" fill="#231f20"/>
  <rect x="604.87" y="521.7" width="40.77" height="40.77" fill="#231f20"/>
  <rect x="647.83" y="521.7" width="40.77" height="40.77" fill="#231f20"/>
  <rect x="475.74" y="478.62" width="40.77" height="40.77" fill="#231f20"/>
  <rect x="432.93" y="478.62" width="40.77" height="40.77" fill="#231f20"/>
  <rect x="518.7" y="478.62" width="40.77" height="40.77" fill="#231f20"/>
  <rect x="561.91" y="478.62" width="40.77" height="40.77" fill="#231f20"/>
  <rect x="604.87" y="478.62" width="40.77" height="40.77" fill="#231f20"/>
  <rect x="647.83" y="478.62" width="40.77" height="40.77" fill="#231f20"/>
  <rect x="475.74" y="435.54" width="40.77" height="40.77" fill="#231f20"/>
  <rect x="432.93" y="435.54" width="40.77" height="40.77" fill="#231f20"/>
  <rect x="518.7" y="435.54" width="40.77" height="40.77" fill="#231f20"/>
  <rect x="561.91" y="435.54" width="40.77" height="40.77" fill="#231f20"/>
  <rect x="604.87" y="435.54" width="40.77" height="40.77" fill="#231f20"/>
  <rect x="647.83" y="435.54" width="40.77" height="40.77" fill="#231f20"/>
  <rect x="475.74" y="392.46" width="40.77" height="40.77" fill="#231f20"/>
  <rect x="432.93" y="392.46" width="40.77" height="40.77" fill="#231f20"/>
  <rect x="518.7" y="392.46" width="40.77" height="40.77" fill="#231f20"/>
  <rect x="561.91" y="392.46" width="40.77" height="40.77" fill="#231f20"/>
  <rect x="604.87" y="392.46" width="40.77" height="40.77" fill="#231f20"/>
  <rect x="647.83" y="392.46" width="40.77" height="40.77" fill="#231f20"/>
  <rect x="475.74" y="349.37" width="40.77" height="40.77" fill="#231f20"/>
  <rect x="432.93" y="349.37" width="40.77" height="40.77" fill="#231f20"/>
  <rect x="390.13" y="349.37" width="40.77" height="40.77" fill="#231f20"/>
  <rect x="518.7" y="349.37" width="40.77" height="40.77" fill="#231f20"/>
  <rect x="561.91" y="349.37" width="40.77" height="40.77" fill="#231f20"/>
  <rect x="604.87" y="349.37" width="40.77" height="40.77" fill="#231f20"/>
  <rect x="647.83" y="349.37" width="40.77" height="40.77" fill="#231f20"/>
  <rect x="475.74" y="306.29" width="40.77" height="40.77" fill="#231f20"/>
  <rect x="432.93" y="306.29" width="40.77" height="40.77" fill="#231f20"/>
  <rect x="390.13" y="306.29" width="40.77" height="40.77" fill="#231f20"/>
  <rect x="518.7" y="306.29" width="40.77" height="40.77" fill="#231f20"/>
  <rect x="561.91" y="306.29" width="40.77" height="40.77" fill="#231f20"/>
  <rect x="604.87" y="306.29" width="40.77" height="40.77" fill="#231f20"/>
  <rect x="647.83" y="306.29" width="40.77" height="40.77" fill="#231f20"/>
  <rect x="475.74" y="263.21" width="40.77" height="40.77" fill="#231f20"/>
  <rect x="432.93" y="263.21" width="40.77" height="40.77" fill="#231f20"/>
  <rect x="390.13" y="263.21" width="40.77" height="40.77" fill="#231f20"/>
  <rect x="518.7" y="263.21" width="40.77" height="40.77" fill="#231f20"/>
  <rect x="561.91" y="263.21" width="40.77" height="40.77" fill="#231f20"/>
  <rect x="604.87" y="263.21" width="40.77" height="40.77" fill="#231f20"/>
  <rect x="647.83" y="263.21" width="40.77" height="40.77" fill="#231f20"/>
  <rect x="475.74" y="220.13" width="40.77" height="40.77" fill="#231f20"/>
  <rect x="432.93" y="220.13" width="40.77" height="40.77" fill="#231f20"/>
  <rect x="518.7" y="220.13" width="40.77" height="40.77" fill="#231f20"/>
  <rect x="561.91" y="220.13" width="40.77" height="40.77" fill="#231f20"/>
  <rect x="604.87" y="220.13" width="40.77" height="40.77" fill="#231f20"/>
  <rect x="647.83" y="220.13" width="40.77" height="40.77" fill="#231f20"/>
  <rect x="475.74" y="176.47" width="40.77" height="40.77" fill="#231f20"/>
  <rect x="432.93" y="176.47" width="40.77" height="40.77" fill="#231f20"/>
  <rect x="518.7" y="176.47" width="40.77" height="40.77" fill="#231f20"/>
  <rect x="561.91" y="176.47" width="40.77" height="40.77" fill="#231f20"/>
  <rect x="604.87" y="176.47" width="40.77" height="40.77" fill="#231f20"/>
  <rect x="647.83" y="176.47" width="40.77" height="40.77" fill="#231f20"/>
  <rect x="475.74" y="132.81" width="40.77" height="40.77" fill="#231f20"/>
  <rect x="432.93" y="132.81" width="40.77" height="40.77" fill="#231f20"/>
  <rect x="518.7" y="132.81" width="40.77" height="40.77" fill="#231f20"/>
  <rect x="561.91" y="132.81" width="40.77" height="40.77" fill="#231f20"/>
  <rect x="604.87" y="132.81" width="40.77" height="40.77" fill="#231f20"/>
  <rect x="647.83" y="132.81" width="40.77" height="40.77" fill="#231f20"/>
  <rect x="475.74" y="89.87" width="40.77" height="40.77" fill="#231f20"/>
  <rect x="432.93" y="89.87" width="40.77" height="40.77" fill="#231f20"/>
  <rect x="518.7" y="89.87" width="40.77" height="40.77" fill="#231f20"/>
  <rect x="561.91" y="89.87" width="40.77" height="40.77" fill="#231f20"/>
  <rect x="604.87" y="89.87" width="40.77" height="40.77" fill="#231f20"/>
  <rect x="647.83" y="89.87" width="40.77" height="40.77" fill="#231f20"/>
  <rect x="475.74" y="47.44" width="40.77" height="40.77" fill="#231f20"/>
  <rect x="518.7" y="47.44" width="40.77" height="40.77" fill="#231f20"/>
  <rect x="561.91" y="47.44" width="40.77" height="40.77" fill="#231f20"/>
  <rect x="604.87" y="47.44" width="40.77" height="40.77" fill="#231f20"/>
  <rect x="647.83" y="47.44" width="40.77" height="40.77" fill="#231f20"/>
  <rect x="475.74" y="3.8" width="40.77" height="40.77" fill="#231f20"/>
  <rect x="518.7" y="3.8" width="40.77" height="40.77" fill="#231f20"/>
  <rect x="561.91" y="3.8" width="40.77" height="40.77" fill="#231f20"/>
  <rect x="604.87" y="3.8" width="40.77" height="40.77" fill="#231f20"/>
  <rect x="647.83" y="3.8" width="40.77" height="40.77" fill="#231f20"/>
  <rect x="647.83" y="995.61" width="40.77" height="40.77" fill="#231f20"/>
  <rect x="518.7" y="1039.23" width="40.77" height="40.77" fill="#231f20"/>
  <rect x="561.91" y="1039.23" width="40.77" height="40.77" fill="#231f20"/>
  <rect x="604.87" y="1039.23" width="40.77" height="40.77" fill="#231f20"/>
  <rect x="647.83" y="1039.23" width="40.77" height="40.77" fill="#231f20"/>
  <rect x="446.63" y="1011.47" width="13.37" height="13.37" fill="#231f20"/>
  <rect x="402.12" y="1011.47" width="13.37" height="13.37" fill="#231f20"/>
  <rect x="489.44" y="1053.13" width="13.37" height="13.37" fill="#231f20"/>
  <rect x="446.63" y="1053.13" width="13.37" height="13.37" fill="#231f20"/>
  <rect x="704.97" y="1053.13" width="13.37" height="13.37" fill="#231f20"/>
  <rect x="704.97" y="1009.31" width="13.37" height="13.37" fill="#231f20"/>
  <rect x="704.97" y="964.17" width="13.37" height="13.37" fill="#231f20"/>
  <rect x="704.97" y="920.35" width="13.37" height="13.37" fill="#231f20"/>
  <rect x="704.97" y="880.06" width="13.37" height="13.37" fill="#231f20"/>
  <rect x="704.97" y="706.71" width="13.37" height="13.37" fill="#231f20"/>
  <rect x="704.97" y="793.38" width="13.37" height="13.37" fill="#231f20"/>
  <rect x="704.97" y="836.72" width="13.37" height="13.37" fill="#231f20"/>
  <rect x="704.97" y="662.88" width="13.37" height="13.37" fill="#231f20"/>
  <rect x="704.97" y="622.6" width="13.37" height="13.37" fill="#231f20"/>
  <rect x="402.12" y="966.4" width="13.37" height="13.37" fill="#231f20"/>
  <rect x="402.12" y="921.26" width="13.37" height="13.37" fill="#231f20"/>
  <rect x="402.12" y="877.44" width="13.37" height="13.37" fill="#231f20"/>
  <rect x="402.12" y="837.15" width="13.37" height="13.37" fill="#231f20"/>
  <rect x="402.12" y="792.87" width="13.37" height="13.37" fill="#231f20"/>
  <rect x="402.12" y="749.05" width="13.37" height="13.37" fill="#231f20"/>
  <rect x="402.12" y="708.76" width="13.37" height="13.37" fill="#231f20"/>
  <rect x="402.12" y="663.62" width="13.37" height="13.37" fill="#231f20"/>
  <rect x="402.12" y="619.8" width="13.37" height="13.37" fill="#231f20"/>
  <rect x="402.12" y="579.51" width="13.37" height="13.37" fill="#231f20"/>
  <rect x="402.12" y="534.38" width="13.37" height="13.37" fill="#231f20"/>
  <rect x="402.12" y="490.55" width="13.37" height="13.37" fill="#231f20"/>
  <rect x="402.12" y="450.27" width="13.37" height="13.37" fill="#231f20"/>
  <rect x="360.24" y="534.38" width="13.37" height="13.37" fill="#231f20"/>
  <rect x="360.24" y="490.55" width="13.37" height="13.37" fill="#231f20"/>
  <rect x="360.24" y="450.27" width="13.37" height="13.37" fill="#231f20"/>
  <rect x="402.12" y="406.16" width="13.37" height="13.37" fill="#231f20"/>
  <rect x="360.24" y="406.16" width="13.37" height="13.37" fill="#231f20"/>
  <rect x="360.24" y="362.19" width="13.37" height="13.37" fill="#231f20"/>
  <rect x="360.24" y="321.9" width="13.37" height="13.37" fill="#231f20"/>
  <rect x="360.24" y="277.79" width="13.37" height="13.37" fill="#231f20"/>
  <rect x="403.83" y="232.8" width="13.37" height="13.37" fill="#231f20"/>
  <rect x="403.83" y="188.83" width="13.37" height="13.37" fill="#231f20"/>
  <rect x="403.83" y="148.54" width="13.37" height="13.37" fill="#231f20"/>
  <rect x="403.83" y="104.43" width="13.37" height="13.37" fill="#231f20"/>
  <rect x="704.53" y="232.8" width="13.37" height="13.37" fill="#231f20"/>
  <rect x="704.53" y="188.83" width="13.37" height="13.37" fill="#231f20"/>
  <rect x="704.53" y="148.54" width="13.37" height="13.37" fill="#231f20"/>
  <rect x="704.53" y="364.03" width="13.37" height="13.37" fill="#231f20"/>
  <rect x="704.53" y="320.07" width="13.37" height="13.37" fill="#231f20"/>
  <rect x="704.53" y="279.78" width="13.37" height="13.37" fill="#231f20"/>
  <rect x="704.53" y="104.43" width="13.37" height="13.37" fill="#231f20"/>
  <rect x="748.2" y="232.8" width="13.37" height="13.37" fill="#231f20"/>
  <rect x="748.2" y="188.83" width="13.37" height="13.37" fill="#231f20"/>
  <rect x="748.2" y="148.54" width="13.37" height="13.37" fill="#231f20"/>
  <rect x="748.2" y="279.78" width="13.37" height="13.37" fill="#231f20"/>
  <rect x="748.2" y="104.43" width="13.37" height="13.37" fill="#231f20"/>
  <rect x="704.53" y="59.94" width="13.37" height="13.37" fill="#231f20"/>
  <rect x="748.2" y="59.94" width="13.37" height="13.37" fill="#231f20"/>
  <rect x="704.53" y="15.83" width="13.37" height="13.37" fill="#231f20"/>
  <rect x="447.42" y="59.94" width="13.37" height="13.37" fill="#231f20"/>
  <rect x="447.42" y="15.83" width="13.37" height="13.37" fill="#231f20"/>
</svg>