<?xml version="1.0" encoding="UTF-8"?>
<svg id="_25" data-name="25" xmlns="http://www.w3.org/2000/svg" viewBox="0 0 1080 1080">
  <rect x="559.51" y="954.51" width="40.84" height="40.84" fill="#231f20"/>
  <rect x="560.06" y="910.84" width="40.84" height="40.84" fill="#231f20"/>
  <rect x="516.84" y="910.84" width="40.84" height="40.84" fill="#231f20"/>
  <rect x="516.84" y="954.51" width="40.84" height="40.84" fill="#231f20"/>
  <rect x="559.51" y="868.19" width="40.84" height="40.84" fill="#231f20"/>
  <rect x="559.9" y="824.75" width="40.84" height="40.84" fill="#231f20"/>
  <rect x="516.84" y="781.32" width="40.84" height="40.84" fill="#231f20"/>
  <rect x="473.43" y="522.43" width="40.84" height="40.84" fill="#231f20"/>
  <rect x="387.56" y="176.88" width="40.84" height="40.84" fill="#231f20"/>
  <rect x="430.5" y="349.27" width="40.84" height="40.84" fill="#231f20"/>
  <rect x="516.84" y="824.75" width="40.84" height="40.84" fill="#231f20"/>
  <rect x="516.84" y="868.19" width="40.84" height="40.84" fill="#231f20"/>
  <rect x="559.51" y="997.95" width="40.84" height="40.84" fill="#231f20"/>
  <rect x="516.84" y="997.95" width="40.84" height="40.84" fill="#231f20"/>
  <rect x="473.43" y="910.84" width="40.84" height="40.84" fill="#231f20"/>
  <rect x="474.17" y="954.51" width="40.84" height="40.84" fill="#231f20"/>
  <rect x="474.17" y="997.95" width="40.84" height="40.84" fill="#231f20"/>
  <rect x="487.89" y="881.91" width="13.39" height="13.39" fill="#231f20"/>
  <rect x="443.53" y="881.91" width="13.39" height="13.39" fill="#231f20"/>
  <rect x="401.83" y="881.91" width="13.39" height="13.39" fill="#231f20"/>
  <rect x="358" y="881.91" width="13.39" height="13.39" fill="#231f20"/>
  <rect x="487.89" y="838.48" width="13.39" height="13.39" fill="#231f20"/>
  <rect x="443.53" y="969.53" width="13.39" height="13.39" fill="#231f20"/>
  <rect x="443.53" y="1010.18" width="13.39" height="13.39" fill="#231f20"/>
  <rect x="401.83" y="969.53" width="13.39" height="13.39" fill="#231f20"/>
  <rect x="401.83" y="1010.18" width="13.39" height="13.39" fill="#231f20"/>
  <rect x="357.85" y="969.53" width="13.39" height="13.39" fill="#231f20"/>
  <rect x="443.53" y="1052.32" width="13.39" height="13.39" fill="#231f20"/>
  <rect x="487.89" y="1052.32" width="13.39" height="13.39" fill="#231f20"/>
  <rect x="530.63" y="1052.32" width="13.39" height="13.39" fill="#231f20"/>
  <rect x="574.99" y="1052.32" width="13.39" height="13.39" fill="#231f20"/>
  <rect x="616.3" y="1052.32" width="13.39" height="13.39" fill="#231f20"/>
  <rect x="616.3" y="1011.67" width="13.39" height="13.39" fill="#231f20"/>
  <rect x="704.74" y="1011.67" width="13.39" height="13.39" fill="#231f20"/>
  <rect x="747.36" y="1011.67" width="13.39" height="13.39" fill="#231f20"/>
  <rect x="747.36" y="1052.32" width="13.39" height="13.39" fill="#231f20"/>
  <rect x="704.74" y="966.83" width="13.39" height="13.39" fill="#231f20"/>
  <rect x="616.3" y="966.83" width="13.39" height="13.39" fill="#231f20"/>
  <rect x="704.74" y="1052.32" width="13.39" height="13.39" fill="#231f20"/>
  <rect x="616.3" y="926.29" width="13.39" height="13.39" fill="#231f20"/>
  <rect x="443.53" y="926.1" width="13.39" height="13.39" fill="#231f20"/>
  <rect x="487.89" y="795.04" width="13.39" height="13.39" fill="#231f20"/>
  <rect x="443.53" y="838.48" width="13.39" height="13.39" fill="#231f20"/>
  <rect x="443.53" y="795.04" width="13.39" height="13.39" fill="#231f20"/>
  <rect x="401.83" y="838.48" width="13.39" height="13.39" fill="#231f20"/>
  <rect x="401.83" y="795.04" width="13.39" height="13.39" fill="#231f20"/>
  <rect x="530.09" y="750.79" width="13.39" height="13.39" fill="#231f20"/>
  <rect x="574.97" y="750.79" width="13.39" height="13.39" fill="#231f20"/>
  <rect x="574.97" y="795.04" width="13.39" height="13.39" fill="#231f20"/>
  <rect x="487.89" y="750.79" width="13.39" height="13.39" fill="#231f20"/>
  <rect x="401.83" y="750.79" width="13.39" height="13.39" fill="#231f20"/>
  <rect x="487.89" y="708.43" width="13.39" height="13.39" fill="#231f20"/>
  <rect x="530.09" y="708.43" width="13.39" height="13.39" fill="#231f20"/>
  <rect x="445.69" y="665.34" width="13.39" height="13.39" fill="#231f20"/>
  <rect x="487.89" y="665.34" width="13.39" height="13.39" fill="#231f20"/>
  <rect x="530.09" y="665.34" width="13.39" height="13.39" fill="#231f20"/>
  <rect x="574.97" y="665.34" width="13.39" height="13.39" fill="#231f20"/>
  <rect x="446.48" y="622.73" width="13.39" height="13.39" fill="#231f20"/>
  <rect x="530.88" y="622.73" width="13.39" height="13.39" fill="#231f20"/>
  <rect x="530.09" y="580.61" width="13.39" height="13.39" fill="#231f20"/>
  <rect x="530.09" y="536.16" width="13.39" height="13.39" fill="#231f20"/>
  <rect x="445.69" y="536.16" width="13.39" height="13.39" fill="#231f20"/>
  <rect x="487.16" y="491.7" width="13.39" height="13.39" fill="#231f20"/>
  <rect x="444.22" y="491.7" width="13.39" height="13.39" fill="#231f20"/>
  <rect x="487.16" y="449.24" width="13.39" height="13.39" fill="#231f20"/>
  <rect x="487.16" y="406.77" width="13.39" height="13.39" fill="#231f20"/>
  <rect x="487.89" y="362.99" width="13.39" height="13.39" fill="#231f20"/>
  <rect x="445.69" y="320.52" width="13.39" height="13.39" fill="#231f20"/>
  <rect x="445.69" y="276.59" width="13.39" height="13.39" fill="#231f20"/>
  <rect x="445.69" y="234.12" width="13.39" height="13.39" fill="#231f20"/>
  <rect x="401.28" y="234.12" width="13.39" height="13.39" fill="#231f20"/>
  <rect x="445.69" y="189.77" width="13.39" height="13.39" fill="#231f20"/>
  <rect x="356.88" y="234.12" width="13.39" height="13.39" fill="#231f20"/>
  <rect x="356.88" y="191.65" width="13.39" height="13.39" fill="#231f20"/>
  <rect x="444.22" y="149.19" width="13.39" height="13.39" fill="#231f20"/>
  <rect x="487.42" y="149.19" width="13.39" height="13.39" fill="#231f20"/>
  <rect x="487.42" y="104.83" width="13.39" height="13.39" fill="#231f20"/>
  <rect x="401.28" y="147.19" width="13.39" height="13.39" fill="#231f20"/>
  <rect x="356.88" y="147.19" width="13.39" height="13.39" fill="#231f20"/>
  <rect x="356.88" y="104.83" width="13.39" height="13.39" fill="#231f20"/>
  <rect x="356.88" y="60.79" width="13.39" height="13.39" fill="#231f20"/>
  <rect x="356.88" y="16.74" width="13.39" height="13.39" fill="#231f20"/>
  <rect x="315.02" y="16.74" width="13.39" height="13.39" fill="#231f20"/>
  <rect x="401.28" y="104.83" width="13.39" height="13.39" fill="#231f20"/>
  <rect x="444.22" y="406.77" width="13.39" height="13.39" fill="#231f20"/>
  <rect x="444.22" y="449.24" width="13.39" height="13.39" fill="#231f20"/>
  <rect x="487.89" y="580.61" width="13.39" height="13.39" fill="#231f20"/>
  <rect x="488.68" y="622.73" width="13.39" height="13.39" fill="#231f20"/>
</svg>