<?xml version="1.0" encoding="UTF-8"?>
<svg id="_28" data-name="28" xmlns="http://www.w3.org/2000/svg" viewBox="0 0 1080 1080">
  <rect x="519.72" y="776.84" width="40.74" height="40.74" fill="#231f20"/>
  <rect x="476.8" y="776.84" width="40.74" height="40.74" fill="#231f20"/>
  <rect x="519.72" y="819.88" width="40.74" height="40.74" fill="#231f20"/>
  <rect x="476.8" y="819.88" width="40.74" height="40.74" fill="#231f20"/>
  <rect x="519.72" y="862.93" width="40.74" height="40.74" fill="#231f20"/>
  <rect x="476.8" y="862.93" width="40.74" height="40.74" fill="#231f20"/>
  <rect x="519.72" y="905.97" width="40.74" height="40.74" fill="#231f20"/>
  <rect x="476.8" y="905.97" width="40.74" height="40.74" fill="#231f20"/>
  <rect x="519.72" y="949.02" width="40.74" height="40.74" fill="#231f20"/>
  <rect x="476.8" y="949.02" width="40.74" height="40.74" fill="#231f20"/>
  <rect x="519.72" y="992.07" width="40.74" height="40.74" fill="#231f20"/>
  <rect x="476.8" y="992.07" width="40.74" height="40.74" fill="#231f20"/>
  <rect x="519.72" y="1035.11" width="40.74" height="40.74" fill="#231f20"/>
  <rect x="562.64" y="776.84" width="40.74" height="40.74" fill="#231f20"/>
  <rect x="562.64" y="819.88" width="40.74" height="40.74" fill="#231f20"/>
  <rect x="562.64" y="862.93" width="40.74" height="40.74" fill="#231f20"/>
  <rect x="562.64" y="905.97" width="40.74" height="40.74" fill="#231f20"/>
  <rect x="562.64" y="949.02" width="40.74" height="40.74" fill="#231f20"/>
  <rect x="562.64" y="992.07" width="40.74" height="40.74" fill="#231f20"/>
  <rect x="562.64" y="1035.11" width="40.74" height="40.74" fill="#231f20"/>
  <rect x="605.56" y="776.84" width="40.74" height="40.74" fill="#231f20"/>
  <rect x="519.72" y="733.79" width="40.74" height="40.74" fill="#231f20"/>
  <rect x="476.8" y="733.79" width="40.74" height="40.74" fill="#231f20"/>
  <rect x="433.87" y="776.84" width="40.74" height="40.74" fill="#231f20"/>
  <rect x="433.87" y="819.88" width="40.74" height="40.74" fill="#231f20"/>
  <rect x="433.87" y="733.79" width="40.74" height="40.74" fill="#231f20"/>
  <rect x="390.95" y="776.84" width="40.74" height="40.74" fill="#231f20"/>
  <rect x="390.95" y="733.79" width="40.74" height="40.74" fill="#231f20"/>
  <rect x="562.64" y="733.79" width="40.74" height="40.74" fill="#231f20"/>
  <rect x="605.56" y="733.79" width="40.74" height="40.74" fill="#231f20"/>
  <rect x="519.72" y="690.75" width="40.74" height="40.74" fill="#231f20"/>
  <rect x="476.8" y="690.75" width="40.74" height="40.74" fill="#231f20"/>
  <rect x="433.87" y="690.75" width="40.74" height="40.74" fill="#231f20"/>
  <rect x="390.95" y="690.75" width="40.74" height="40.74" fill="#231f20"/>
  <rect x="562.64" y="690.75" width="40.74" height="40.74" fill="#231f20"/>
  <rect x="605.56" y="690.75" width="40.74" height="40.74" fill="#231f20"/>
  <rect x="519.72" y="647.7" width="40.74" height="40.74" fill="#231f20"/>
  <rect x="476.8" y="647.7" width="40.74" height="40.74" fill="#231f20"/>
  <rect x="433.87" y="647.7" width="40.74" height="40.74" fill="#231f20"/>
  <rect x="390.95" y="647.7" width="40.74" height="40.74" fill="#231f20"/>
  <rect x="562.64" y="647.7" width="40.74" height="40.74" fill="#231f20"/>
  <rect x="605.56" y="647.7" width="40.74" height="40.74" fill="#231f20"/>
  <rect x="519.72" y="604.66" width="40.74" height="40.74" fill="#231f20"/>
  <rect x="476.8" y="604.66" width="40.74" height="40.74" fill="#231f20"/>
  <rect x="562.64" y="604.66" width="40.74" height="40.74" fill="#231f20"/>
  <rect x="605.56" y="604.66" width="40.74" height="40.74" fill="#231f20"/>
  <rect x="605.56" y="819.88" width="40.74" height="40.74" fill="#231f20"/>
  <rect x="605.56" y="862.93" width="40.74" height="40.74" fill="#231f20"/>
  <rect x="605.56" y="905.97" width="40.74" height="40.74" fill="#231f20"/>
  <rect x="605.56" y="949.02" width="40.74" height="40.74" fill="#231f20"/>
  <rect x="605.56" y="992.07" width="40.74" height="40.74" fill="#231f20"/>
  <rect x="605.56" y="1035.11" width="40.74" height="40.74" fill="#231f20"/>
  <rect x="476.8" y="1035.11" width="40.74" height="40.74" fill="#231f20"/>
  <rect x="361.23" y="661.39" width="13.36" height="13.36" fill="#231f20"/>
  <rect x="361.23" y="704.44" width="13.36" height="13.36" fill="#231f20"/>
  <rect x="448.06" y="575.34" width="13.36" height="13.36" fill="#231f20"/>
  <rect x="448.06" y="618.38" width="13.36" height="13.36" fill="#231f20"/>
  <rect x="404.64" y="618.38" width="13.36" height="13.36" fill="#231f20"/>
  <rect x="534.74" y="575.34" width="13.36" height="13.36" fill="#231f20"/>
  <rect x="576.33" y="575.34" width="13.36" height="13.36" fill="#231f20"/>
  <rect x="619.25" y="575.34" width="13.36" height="13.36" fill="#231f20"/>
  <rect x="491.33" y="575.34" width="13.36" height="13.36" fill="#231f20"/>
  <rect x="361.23" y="747.48" width="13.36" height="13.36" fill="#231f20"/>
  <rect x="361.23" y="790.53" width="13.36" height="13.36" fill="#231f20"/>
  <rect x="404.64" y="833.57" width="13.36" height="13.36" fill="#231f20"/>
  <rect x="404.64" y="876.62" width="13.36" height="13.36" fill="#231f20"/>
  <rect x="447.56" y="876.62" width="13.36" height="13.36" fill="#231f20"/>
  <rect x="447.56" y="919.66" width="13.36" height="13.36" fill="#231f20"/>
  <rect x="404.64" y="919.66" width="13.36" height="13.36" fill="#231f20"/>
  <rect x="447.56" y="962.71" width="13.36" height="13.36" fill="#231f20"/>
  <rect x="361.23" y="833.57" width="13.36" height="13.36" fill="#231f20"/>
  <rect x="190.11" y="833.57" width="13.36" height="13.36" fill="#231f20"/>
  <rect x="190.11" y="876.62" width="13.36" height="13.36" fill="#231f20"/>
  <rect x="190.11" y="919.66" width="13.36" height="13.36" fill="#231f20"/>
  <rect x="190.11" y="962.71" width="13.36" height="13.36" fill="#231f20"/>
  <rect x="190.11" y="1005.75" width="13.36" height="13.36" fill="#231f20"/>
  <rect x="664.05" y="661.39" width="13.36" height="13.36" fill="#231f20"/>
  <rect x="664.05" y="704.44" width="13.36" height="13.36" fill="#231f20"/>
  <rect x="664.05" y="575.34" width="13.36" height="13.36" fill="#231f20"/>
  <rect x="448.06" y="532.29" width="13.36" height="13.36" fill="#231f20"/>
  <rect x="534.74" y="532.29" width="13.36" height="13.36" fill="#231f20"/>
  <rect x="576.33" y="532.29" width="13.36" height="13.36" fill="#231f20"/>
  <rect x="619.25" y="532.29" width="13.36" height="13.36" fill="#231f20"/>
  <rect x="491.33" y="532.29" width="13.36" height="13.36" fill="#231f20"/>
  <rect x="664.05" y="532.29" width="13.36" height="13.36" fill="#231f20"/>
  <rect x="448.06" y="489.25" width="13.36" height="13.36" fill="#231f20"/>
  <rect x="534.74" y="489.25" width="13.36" height="13.36" fill="#231f20"/>
  <rect x="576.33" y="489.25" width="13.36" height="13.36" fill="#231f20"/>
  <rect x="619.25" y="489.25" width="13.36" height="13.36" fill="#231f20"/>
  <rect x="491.33" y="489.25" width="13.36" height="13.36" fill="#231f20"/>
  <rect x="233.38" y="575.34" width="13.36" height="13.36" fill="#231f20"/>
  <rect x="320.07" y="575.34" width="13.36" height="13.36" fill="#231f20"/>
  <rect x="361.65" y="575.34" width="13.36" height="13.36" fill="#231f20"/>
  <rect x="404.57" y="575.34" width="13.36" height="13.36" fill="#231f20"/>
  <rect x="276.66" y="575.34" width="13.36" height="13.36" fill="#231f20"/>
  <rect x="103.42" y="575.34" width="13.36" height="13.36" fill="#231f20"/>
  <rect x="190.11" y="575.34" width="13.36" height="13.36" fill="#231f20"/>
  <rect x="146.69" y="575.34" width="13.36" height="13.36" fill="#231f20"/>
  <rect x="103.42" y="618.35" width="13.36" height="13.36" fill="#231f20"/>
  <rect x="190.11" y="618.35" width="13.36" height="13.36" fill="#231f20"/>
  <rect x="146.69" y="618.35" width="13.36" height="13.36" fill="#231f20"/>
  <rect x="103.42" y="661.39" width="13.36" height="13.36" fill="#231f20"/>
  <rect x="190.11" y="661.39" width="13.36" height="13.36" fill="#231f20"/>
  <rect x="146.69" y="661.39" width="13.36" height="13.36" fill="#231f20"/>
  <rect x="103.42" y="704.44" width="13.36" height="13.36" fill="#231f20"/>
  <rect x="190.11" y="704.44" width="13.36" height="13.36" fill="#231f20"/>
  <rect x="146.69" y="704.44" width="13.36" height="13.36" fill="#231f20"/>
  <rect x="103.42" y="747.48" width="13.36" height="13.36" fill="#231f20"/>
  <rect x="146.69" y="747.48" width="13.36" height="13.36" fill="#231f20"/>
  <rect x="233.38" y="532.29" width="13.36" height="13.36" fill="#231f20"/>
  <rect x="320.07" y="532.29" width="13.36" height="13.36" fill="#231f20"/>
  <rect x="361.65" y="532.29" width="13.36" height="13.36" fill="#231f20"/>
  <rect x="404.57" y="532.29" width="13.36" height="13.36" fill="#231f20"/>
  <rect x="276.66" y="532.29" width="13.36" height="13.36" fill="#231f20"/>
  <rect x="233.38" y="489.25" width="13.36" height="13.36" fill="#231f20"/>
  <rect x="320.07" y="489.25" width="13.36" height="13.36" fill="#231f20"/>
  <rect x="361.65" y="489.25" width="13.36" height="13.36" fill="#231f20"/>
  <rect x="404.57" y="489.25" width="13.36" height="13.36" fill="#231f20"/>
  <rect x="276.66" y="489.25" width="13.36" height="13.36" fill="#231f20"/>
  <rect x="276.66" y="446.2" width="13.36" height="13.36" fill="#231f20"/>
  <rect x="276.66" y="403.16" width="13.36" height="13.36" fill="#231f20"/>
  <rect x="276.66" y="360.11" width="13.36" height="13.36" fill="#231f20"/>
  <rect x="276.66" y="316.75" width="13.36" height="13.36" fill="#231f20"/>
  <rect x="276.66" y="273.71" width="13.36" height="13.36" fill="#231f20"/>
  <rect x="233.38" y="316.86" width="13.36" height="13.36" fill="#231f20"/>
  <rect x="233.38" y="273.82" width="13.36" height="13.36" fill="#231f20"/>
  <rect x="361.3" y="100.91" width="13.36" height="13.36" fill="#231f20"/>
  <rect x="361.3" y="57.86" width="13.36" height="13.36" fill="#231f20"/>
  <rect x="361.3" y="446.2" width="13.36" height="13.36" fill="#231f20"/>
  <rect x="447.99" y="446.2" width="13.36" height="13.36" fill="#231f20"/>
  <rect x="404.57" y="446.2" width="13.36" height="13.36" fill="#231f20"/>
  <rect x="361.3" y="403.16" width="13.36" height="13.36" fill="#231f20"/>
  <rect x="447.99" y="403.16" width="13.36" height="13.36" fill="#231f20"/>
  <rect x="404.57" y="403.16" width="13.36" height="13.36" fill="#231f20"/>
  <rect x="361.3" y="360.11" width="13.36" height="13.36" fill="#231f20"/>
  <rect x="447.99" y="360.11" width="13.36" height="13.36" fill="#231f20"/>
  <rect x="404.57" y="360.11" width="13.36" height="13.36" fill="#231f20"/>
  <rect x="491.4" y="446.2" width="13.36" height="13.36" fill="#231f20"/>
  <rect x="578.09" y="446.2" width="13.36" height="13.36" fill="#231f20"/>
  <rect x="534.67" y="446.2" width="13.36" height="13.36" fill="#231f20"/>
  <rect x="491.4" y="403.16" width="13.36" height="13.36" fill="#231f20"/>
  <rect x="578.09" y="403.16" width="13.36" height="13.36" fill="#231f20"/>
  <rect x="534.67" y="403.16" width="13.36" height="13.36" fill="#231f20"/>
  <rect x="491.4" y="360.11" width="13.36" height="13.36" fill="#231f20"/>
  <rect x="491.33" y="317.06" width="13.36" height="13.36" fill="#231f20"/>
  <rect x="491.33" y="274.02" width="13.36" height="13.36" fill="#231f20"/>
  <rect x="491.4" y="230.97" width="13.36" height="13.36" fill="#231f20"/>
  <rect x="491.4" y="187.93" width="13.36" height="13.36" fill="#231f20"/>
  <rect x="491.4" y="144.88" width="13.36" height="13.36" fill="#231f20"/>
  <rect x="447.95" y="317.06" width="13.36" height="13.36" fill="#231f20"/>
  <rect x="447.95" y="274.02" width="13.36" height="13.36" fill="#231f20"/>
  <rect x="448.02" y="230.97" width="13.36" height="13.36" fill="#231f20"/>
  <rect x="448.02" y="187.93" width="13.36" height="13.36" fill="#231f20"/>
  <rect x="448.02" y="144.88" width="13.36" height="13.36" fill="#231f20"/>
  <rect x="404.54" y="317.06" width="13.36" height="13.36" fill="#231f20"/>
  <rect x="404.54" y="274.02" width="13.36" height="13.36" fill="#231f20"/>
  <rect x="404.61" y="230.97" width="13.36" height="13.36" fill="#231f20"/>
  <rect x="404.61" y="187.93" width="13.36" height="13.36" fill="#231f20"/>
  <rect x="404.61" y="144.88" width="13.36" height="13.36" fill="#231f20"/>
  <rect x="578.09" y="360.11" width="13.36" height="13.36" fill="#231f20"/>
  <rect x="534.67" y="360.11" width="13.36" height="13.36" fill="#231f20"/>
  <rect x="534.74" y="317.06" width="13.36" height="13.36" fill="#231f20"/>
  <rect x="534.74" y="274.02" width="13.36" height="13.36" fill="#231f20"/>
  <rect x="534.67" y="230.97" width="13.36" height="13.36" fill="#231f20"/>
  <rect x="534.67" y="187.93" width="13.36" height="13.36" fill="#231f20"/>
  <rect x="708.22" y="187.93" width="13.36" height="13.36" fill="#231f20"/>
  <rect x="534.67" y="144.88" width="13.36" height="13.36" fill="#231f20"/>
  <rect x="664.95" y="144.88" width="13.36" height="13.36" fill="#231f20"/>
  <rect x="621.57" y="144.88" width="13.36" height="13.36" fill="#231f20"/>
  <rect x="578.16" y="144.88" width="13.36" height="13.36" fill="#231f20"/>
  <rect x="708.22" y="144.88" width="13.36" height="13.36" fill="#231f20"/>
  <rect x="705.98" y="14.82" width="13.36" height="13.36" fill="#231f20"/>
  <rect x="662.6" y="14.82" width="13.36" height="13.36" fill="#231f20"/>
  <rect x="619.19" y="14.82" width="13.36" height="13.36" fill="#231f20"/>
  <rect x="749.25" y="14.82" width="13.36" height="13.36" fill="#231f20"/>
  <rect x="749.31" y="57.86" width="13.36" height="13.36" fill="#231f20"/>
  <rect x="705.93" y="57.86" width="13.36" height="13.36" fill="#231f20"/>
  <rect x="792.58" y="57.86" width="13.36" height="13.36" fill="#231f20"/>
  <rect x="491.4" y="101.84" width="13.36" height="13.36" fill="#231f20"/>
  <rect x="448.02" y="101.84" width="13.36" height="13.36" fill="#231f20"/>
  <rect x="404.61" y="101.84" width="13.36" height="13.36" fill="#231f20"/>
  <rect x="534.67" y="101.84" width="13.36" height="13.36" fill="#231f20"/>
  <rect x="491.4" y="58.79" width="13.36" height="13.36" fill="#231f20"/>
  <rect x="448.02" y="58.79" width="13.36" height="13.36" fill="#231f20"/>
  <rect x="404.61" y="58.79" width="13.36" height="13.36" fill="#231f20"/>
  <rect x="361.3" y="14.35" width="13.36" height="13.36" fill="#231f20"/>
  <rect x="491.4" y="15.28" width="13.36" height="13.36" fill="#231f20"/>
  <rect x="448.02" y="15.28" width="13.36" height="13.36" fill="#231f20"/>
  <rect x="404.61" y="15.28" width="13.36" height="13.36" fill="#231f20"/>
  <rect x="534.67" y="58.79" width="13.36" height="13.36" fill="#231f20"/>
  <rect x="620.7" y="446.2" width="13.36" height="13.36" fill="#231f20"/>
  <rect x="707.39" y="446.2" width="13.36" height="13.36" fill="#231f20"/>
  <rect x="663.98" y="446.2" width="13.36" height="13.36" fill="#231f20"/>
  <rect x="620.7" y="403.16" width="13.36" height="13.36" fill="#231f20"/>
  <rect x="707.39" y="403.16" width="13.36" height="13.36" fill="#231f20"/>
  <rect x="663.98" y="403.16" width="13.36" height="13.36" fill="#231f20"/>
  <rect x="620.7" y="360.11" width="13.36" height="13.36" fill="#231f20"/>
  <rect x="707.39" y="360.11" width="13.36" height="13.36" fill="#231f20"/>
  <rect x="750.8" y="446.2" width="13.36" height="13.36" fill="#231f20"/>
  <rect x="921.58" y="446.2" width="13.36" height="13.36" fill="#231f20"/>
  <rect x="878.17" y="446.2" width="13.36" height="13.36" fill="#231f20"/>
  <rect x="964.99" y="446.2" width="13.36" height="13.36" fill="#231f20"/>
  <rect x="750.8" y="403.16" width="13.36" height="13.36" fill="#231f20"/>
  <rect x="750.8" y="360.11" width="13.36" height="13.36" fill="#231f20"/>
  <rect x="921.58" y="230.05" width="13.36" height="13.36" fill="#231f20"/>
  <rect x="921.58" y="187" width="13.36" height="13.36" fill="#231f20"/>
  <rect x="921.58" y="143.96" width="13.36" height="13.36" fill="#231f20"/>
  <rect x="965.36" y="100.91" width="13.36" height="13.36" fill="#231f20"/>
  <rect x="965.36" y="57.86" width="13.36" height="13.36" fill="#231f20"/>
  <rect x="965.36" y="14.82" width="13.36" height="13.36" fill="#231f20"/>
  <rect x="921.58" y="100.91" width="13.36" height="13.36" fill="#231f20"/>
  <rect x="921.58" y="57.86" width="13.36" height="13.36" fill="#231f20"/>
  <rect x="921.58" y="14.82" width="13.36" height="13.36" fill="#231f20"/>
  <rect x="663.98" y="360.11" width="13.36" height="13.36" fill="#231f20"/>
  <rect x="879.23" y="274.02" width="13.36" height="13.36" fill="#231f20"/>
  <rect x="879.23" y="230.05" width="13.36" height="13.36" fill="#231f20"/>
  <rect x="965.92" y="274.02" width="13.36" height="13.36" fill="#231f20"/>
  <rect x="1009.33" y="274.02" width="13.36" height="13.36" fill="#231f20"/>
  <rect x="965.92" y="316.27" width="13.36" height="13.36" fill="#231f20"/>
  <rect x="1009.33" y="316.27" width="13.36" height="13.36" fill="#231f20"/>
  <rect x="1051.21" y="360.29" width="13.36" height="13.36" fill="#231f20"/>
  <rect x="1051.21" y="402.53" width="13.36" height="13.36" fill="#231f20"/>
  <rect x="922.51" y="274.02" width="13.36" height="13.36" fill="#231f20"/>
  <rect x="578.09" y="274.02" width="13.36" height="13.36" fill="#231f20"/>
  <rect x="620.7" y="274.02" width="13.36" height="13.36" fill="#231f20"/>
  <rect x="620.7" y="317.06" width="13.36" height="13.36" fill="#231f20"/>
  <rect x="620.7" y="230.97" width="13.36" height="13.36" fill="#231f20"/>
  <rect x="664.12" y="230.97" width="13.36" height="13.36" fill="#231f20"/>
  <rect x="663.98" y="274.02" width="13.36" height="13.36" fill="#231f20"/>
  <rect x="664.05" y="489.25" width="13.36" height="13.36" fill="#231f20"/>
  <rect x="752.12" y="489.25" width="13.36" height="13.36" fill="#231f20"/>
  <rect x="796.92" y="489.25" width="13.36" height="13.36" fill="#231f20"/>
  <rect x="664.05" y="618.38" width="13.36" height="13.36" fill="#231f20"/>
  <rect x="794.22" y="575.34" width="13.36" height="13.36" fill="#231f20"/>
  <rect x="794.22" y="618.38" width="13.36" height="13.36" fill="#231f20"/>
  <rect x="664.05" y="747.48" width="13.36" height="13.36" fill="#231f20"/>
  <rect x="707.39" y="661.39" width="13.36" height="13.36" fill="#231f20"/>
  <rect x="707.39" y="704.44" width="13.36" height="13.36" fill="#231f20"/>
  <rect x="750.8" y="661.39" width="13.36" height="13.36" fill="#231f20"/>
  <rect x="750.8" y="704.44" width="13.36" height="13.36" fill="#231f20"/>
  <rect x="707.39" y="747.48" width="13.36" height="13.36" fill="#231f20"/>
  <rect x="664.05" y="790.53" width="13.36" height="13.36" fill="#231f20"/>
  <rect x="664.05" y="833.57" width="13.36" height="13.36" fill="#231f20"/>
  <rect x="664.05" y="876.62" width="13.36" height="13.36" fill="#231f20"/>
  <rect x="664.05" y="919.66" width="13.36" height="13.36" fill="#231f20"/>
  <rect x="664.05" y="962.71" width="13.36" height="13.36" fill="#231f20"/>
</svg>