<?xml version="1.0" encoding="UTF-8"?>
<svg id="_6" data-name="6" xmlns="http://www.w3.org/2000/svg" viewBox="0 0 1080 1080">
  <rect x="517.92" y="863.41" width="40.84" height="40.84" fill="#231f20"/>
  <rect x="517.92" y="820.58" width="40.84" height="40.84" fill="#231f20"/>
  <rect x="561.13" y="863.41" width="40.84" height="40.84" fill="#231f20"/>
  <rect x="561.13" y="820.58" width="40.84" height="40.84" fill="#231f20"/>
  <rect x="604.33" y="863.41" width="40.84" height="40.84" fill="#231f20"/>
  <rect x="517.92" y="906.24" width="40.84" height="40.84" fill="#231f20"/>
  <rect x="474.72" y="863.41" width="40.84" height="40.84" fill="#231f20"/>
  <rect x="474.72" y="820.58" width="40.84" height="40.84" fill="#231f20"/>
  <rect x="474.72" y="906.24" width="40.84" height="40.84" fill="#231f20"/>
  <rect x="561.13" y="906.24" width="40.84" height="40.84" fill="#231f20"/>
  <rect x="604.33" y="906.24" width="40.84" height="40.84" fill="#231f20"/>
  <rect x="604.33" y="820.58" width="40.84" height="40.84" fill="#231f20"/>
  <rect x="647.53" y="863.41" width="40.84" height="40.84" fill="#231f20"/>
  <rect x="647.53" y="906.24" width="40.84" height="40.84" fill="#231f20"/>
  <rect x="647.53" y="820.58" width="40.84" height="40.84" fill="#231f20"/>
  <rect x="690.74" y="863.41" width="40.84" height="40.84" fill="#231f20"/>
  <rect x="690.74" y="906.24" width="40.84" height="40.84" fill="#231f20"/>
  <rect x="561.13" y="949.35" width="40.84" height="40.84" fill="#231f20"/>
  <rect x="604.33" y="949.35" width="40.84" height="40.84" fill="#231f20"/>
  <rect x="647.53" y="949.35" width="40.84" height="40.84" fill="#231f20"/>
  <rect x="690.74" y="949.35" width="40.84" height="40.84" fill="#231f20"/>
  <rect x="561.13" y="992.18" width="40.84" height="40.84" fill="#231f20"/>
  <rect x="604.33" y="992.18" width="40.84" height="40.84" fill="#231f20"/>
  <rect x="647.53" y="992.18" width="40.84" height="40.84" fill="#231f20"/>
  <rect x="690.74" y="992.18" width="40.84" height="40.84" fill="#231f20"/>
  <rect x="690.74" y="820.58" width="40.84" height="40.84" fill="#231f20"/>
  <rect x="517.92" y="777.75" width="40.84" height="40.84" fill="#231f20"/>
  <rect x="561.13" y="777.75" width="40.84" height="40.84" fill="#231f20"/>
  <rect x="474.72" y="777.75" width="40.84" height="40.84" fill="#231f20"/>
  <rect x="604.33" y="777.75" width="40.84" height="40.84" fill="#231f20"/>
  <rect x="647.53" y="777.75" width="40.84" height="40.84" fill="#231f20"/>
  <rect x="690.74" y="777.75" width="40.84" height="40.84" fill="#231f20"/>
  <rect x="517.92" y="733.97" width="40.84" height="40.84" fill="#231f20"/>
  <rect x="561.13" y="733.97" width="40.84" height="40.84" fill="#231f20"/>
  <rect x="474.72" y="733.97" width="40.84" height="40.84" fill="#231f20"/>
  <rect x="604.33" y="733.97" width="40.84" height="40.84" fill="#231f20"/>
  <rect x="647.53" y="733.97" width="40.84" height="40.84" fill="#231f20"/>
  <rect x="690.74" y="733.97" width="40.84" height="40.84" fill="#231f20"/>
  <rect x="517.92" y="690.98" width="40.84" height="40.84" fill="#231f20"/>
  <rect x="561.13" y="690.98" width="40.84" height="40.84" fill="#231f20"/>
  <rect x="474.72" y="690.98" width="40.84" height="40.84" fill="#231f20"/>
  <rect x="604.33" y="690.98" width="40.84" height="40.84" fill="#231f20"/>
  <rect x="647.53" y="690.98" width="40.84" height="40.84" fill="#231f20"/>
  <rect x="517.92" y="647.99" width="40.84" height="40.84" fill="#231f20"/>
  <rect x="561.13" y="647.99" width="40.84" height="40.84" fill="#231f20"/>
  <rect x="517.92" y="605" width="40.84" height="40.84" fill="#231f20"/>
  <rect x="604.33" y="647.99" width="40.84" height="40.84" fill="#231f20"/>
  <rect x="647.53" y="647.99" width="40.84" height="40.84" fill="#231f20"/>
  <rect x="690.74" y="647.99" width="40.84" height="40.84" fill="#231f20"/>
  <rect x="561.13" y="605" width="40.84" height="40.84" fill="#231f20"/>
  <rect x="604.33" y="605" width="40.84" height="40.84" fill="#231f20"/>
  <rect x="647.53" y="605" width="40.84" height="40.84" fill="#231f20"/>
  <rect x="517.05" y="561.14" width="40.84" height="40.84" fill="#231f20"/>
  <rect x="474.72" y="561.14" width="40.84" height="40.84" fill="#231f20"/>
  <rect x="560.26" y="561.14" width="40.84" height="40.84" fill="#231f20"/>
  <rect x="603.46" y="561.14" width="40.84" height="40.84" fill="#231f20"/>
  <rect x="646.66" y="561.14" width="40.84" height="40.84" fill="#231f20"/>
  <rect x="517.92" y="517.89" width="40.84" height="40.84" fill="#231f20"/>
  <rect x="474.72" y="517.89" width="40.84" height="40.84" fill="#231f20"/>
  <rect x="561.13" y="517.89" width="40.84" height="40.84" fill="#231f20"/>
  <rect x="604.33" y="517.89" width="40.84" height="40.84" fill="#231f20"/>
  <rect x="647.53" y="517.89" width="40.84" height="40.84" fill="#231f20"/>
  <rect x="517.92" y="474.64" width="40.84" height="40.84" fill="#231f20"/>
  <rect x="474.72" y="474.64" width="40.84" height="40.84" fill="#231f20"/>
  <rect x="561.13" y="474.64" width="40.84" height="40.84" fill="#231f20"/>
  <rect x="604.33" y="474.64" width="40.84" height="40.84" fill="#231f20"/>
  <rect x="647.53" y="474.64" width="40.84" height="40.84" fill="#231f20"/>
  <rect x="517.92" y="431.4" width="40.84" height="40.84" fill="#231f20"/>
  <rect x="474.72" y="431.4" width="40.84" height="40.84" fill="#231f20"/>
  <rect x="561.13" y="431.4" width="40.84" height="40.84" fill="#231f20"/>
  <rect x="604.33" y="431.4" width="40.84" height="40.84" fill="#231f20"/>
  <rect x="647.53" y="431.4" width="40.84" height="40.84" fill="#231f20"/>
  <rect x="517.92" y="388.15" width="40.84" height="40.84" fill="#231f20"/>
  <rect x="474.72" y="388.15" width="40.84" height="40.84" fill="#231f20"/>
  <rect x="561.13" y="388.15" width="40.84" height="40.84" fill="#231f20"/>
  <rect x="604.33" y="388.15" width="40.84" height="40.84" fill="#231f20"/>
  <rect x="647.53" y="388.15" width="40.84" height="40.84" fill="#231f20"/>
  <rect x="517.92" y="344.9" width="40.84" height="40.84" fill="#231f20"/>
  <rect x="474.72" y="344.9" width="40.84" height="40.84" fill="#231f20"/>
  <rect x="561.13" y="344.9" width="40.84" height="40.84" fill="#231f20"/>
  <rect x="604.33" y="344.9" width="40.84" height="40.84" fill="#231f20"/>
  <rect x="647.53" y="344.9" width="40.84" height="40.84" fill="#231f20"/>
  <rect x="517.92" y="301.66" width="40.84" height="40.84" fill="#231f20"/>
  <rect x="474.72" y="301.66" width="40.84" height="40.84" fill="#231f20"/>
  <rect x="431.52" y="301.66" width="40.84" height="40.84" fill="#231f20"/>
  <rect x="561.13" y="301.66" width="40.84" height="40.84" fill="#231f20"/>
  <rect x="604.33" y="301.66" width="40.84" height="40.84" fill="#231f20"/>
  <rect x="647.53" y="301.66" width="40.84" height="40.84" fill="#231f20"/>
  <rect x="517.92" y="258.41" width="40.84" height="40.84" fill="#231f20"/>
  <rect x="474.72" y="258.41" width="40.84" height="40.84" fill="#231f20"/>
  <rect x="431.52" y="258.41" width="40.84" height="40.84" fill="#231f20"/>
  <rect x="561.13" y="258.41" width="40.84" height="40.84" fill="#231f20"/>
  <rect x="604.33" y="258.41" width="40.84" height="40.84" fill="#231f20"/>
  <rect x="647.53" y="258.41" width="40.84" height="40.84" fill="#231f20"/>
  <rect x="517.92" y="215.17" width="40.84" height="40.84" fill="#231f20"/>
  <rect x="474.72" y="215.17" width="40.84" height="40.84" fill="#231f20"/>
  <rect x="431.52" y="215.17" width="40.84" height="40.84" fill="#231f20"/>
  <rect x="561.13" y="215.17" width="40.84" height="40.84" fill="#231f20"/>
  <rect x="604.33" y="215.17" width="40.84" height="40.84" fill="#231f20"/>
  <rect x="647.53" y="215.17" width="40.84" height="40.84" fill="#231f20"/>
  <rect x="690.7" y="215.17" width="40.84" height="40.84" fill="#231f20"/>
  <rect x="517.92" y="172.45" width="40.84" height="40.84" fill="#231f20"/>
  <rect x="474.72" y="172.45" width="40.84" height="40.84" fill="#231f20"/>
  <rect x="431.52" y="172.45" width="40.84" height="40.84" fill="#231f20"/>
  <rect x="561.13" y="172.45" width="40.84" height="40.84" fill="#231f20"/>
  <rect x="604.33" y="172.45" width="40.84" height="40.84" fill="#231f20"/>
  <rect x="647.53" y="172.45" width="40.84" height="40.84" fill="#231f20"/>
  <rect x="517.92" y="129.74" width="40.84" height="40.84" fill="#231f20"/>
  <rect x="474.72" y="129.74" width="40.84" height="40.84" fill="#231f20"/>
  <rect x="561.13" y="129.74" width="40.84" height="40.84" fill="#231f20"/>
  <rect x="604.33" y="129.74" width="40.84" height="40.84" fill="#231f20"/>
  <rect x="647.53" y="129.74" width="40.84" height="40.84" fill="#231f20"/>
  <rect x="517.92" y="85.96" width="40.84" height="40.84" fill="#231f20"/>
  <rect x="474.72" y="85.96" width="40.84" height="40.84" fill="#231f20"/>
  <rect x="561.13" y="85.96" width="40.84" height="40.84" fill="#231f20"/>
  <rect x="604.33" y="85.96" width="40.84" height="40.84" fill="#231f20"/>
  <rect x="647.53" y="85.96" width="40.84" height="40.84" fill="#231f20"/>
  <rect x="517.92" y="43.25" width="40.84" height="40.84" fill="#231f20"/>
  <rect x="474.72" y="43.25" width="40.84" height="40.84" fill="#231f20"/>
  <rect x="561.13" y="43.25" width="40.84" height="40.84" fill="#231f20"/>
  <rect x="604.33" y="43.25" width="40.84" height="40.84" fill="#231f20"/>
  <rect x="647.53" y="43.25" width="40.84" height="40.84" fill="#231f20"/>
  <rect x="517.92" width="40.84" height="40.84" fill="#231f20"/>
  <rect x="561.13" width="40.84" height="40.84" fill="#231f20"/>
  <rect x="604.33" width="40.84" height="40.84" fill="#231f20"/>
  <rect x="647.53" width="40.84" height="40.84" fill="#231f20"/>
  <rect x="690.7" width="40.84" height="40.84" fill="#231f20"/>
  <rect x="690.7" y="43.25" width="40.84" height="40.84" fill="#231f20"/>
  <rect x="690.7" y="85.96" width="40.84" height="40.84" fill="#231f20"/>
  <rect x="690.7" y="129.74" width="40.84" height="40.84" fill="#231f20"/>
  <rect x="690.7" y="171.92" width="40.84" height="40.84" fill="#231f20"/>
  <rect x="690.74" y="690.98" width="40.84" height="40.84" fill="#231f20"/>
  <rect x="443.8" y="877.14" width="13.39" height="13.39" fill="#231f20"/>
  <rect x="443.8" y="919.97" width="13.39" height="13.39" fill="#231f20"/>
  <rect x="443.8" y="617.73" width="13.39" height="13.39" fill="#231f20"/>
  <rect x="443.8" y="660.56" width="13.39" height="13.39" fill="#231f20"/>
  <rect x="443.8" y="530.62" width="13.39" height="13.39" fill="#231f20"/>
  <rect x="443.8" y="573.45" width="13.39" height="13.39" fill="#231f20"/>
  <rect x="443.8" y="444.13" width="13.39" height="13.39" fill="#231f20"/>
  <rect x="443.8" y="486.96" width="13.39" height="13.39" fill="#231f20"/>
  <rect x="704.46" y="530.62" width="13.39" height="13.39" fill="#231f20"/>
  <rect x="704.46" y="573.45" width="13.39" height="13.39" fill="#231f20"/>
  <rect x="704.46" y="617.73" width="13.39" height="13.39" fill="#231f20"/>
  <rect x="704.46" y="486.96" width="13.39" height="13.39" fill="#231f20"/>
  <rect x="704.46" y="445.12" width="13.39" height="13.39" fill="#231f20"/>
  <rect x="704.46" y="401.88" width="13.39" height="13.39" fill="#231f20"/>
  <rect x="704.46" y="357.63" width="13.39" height="13.39" fill="#231f20"/>
  <rect x="704.46" y="315.38" width="13.39" height="13.39" fill="#231f20"/>
  <rect x="704.46" y="272.14" width="13.39" height="13.39" fill="#231f20"/>
  <rect x="747.82" y="228.39" width="13.39" height="13.39" fill="#231f20"/>
  <rect x="747.82" y="186.14" width="13.39" height="13.39" fill="#231f20"/>
  <rect x="747.82" y="142.9" width="13.39" height="13.39" fill="#231f20"/>
  <rect x="747.82" y="99.72" width="13.39" height="13.39" fill="#231f20"/>
  <rect x="747.82" y="57.47" width="13.39" height="13.39" fill="#231f20"/>
  <rect x="747.82" y="14.22" width="13.39" height="13.39" fill="#231f20"/>
  <rect x="791.23" y="14.22" width="13.39" height="13.39" fill="#231f20"/>
  <rect x="443.8" y="357.63" width="13.39" height="13.39" fill="#231f20"/>
  <rect x="443.8" y="400.47" width="13.39" height="13.39" fill="#231f20"/>
  <rect x="401.85" y="444.13" width="13.39" height="13.39" fill="#231f20"/>
  <rect x="401.85" y="357.63" width="13.39" height="13.39" fill="#231f20"/>
  <rect x="401.85" y="400.47" width="13.39" height="13.39" fill="#231f20"/>
  <rect x="401.85" y="315.38" width="13.39" height="13.39" fill="#231f20"/>
  <rect x="401.85" y="228.89" width="13.39" height="13.39" fill="#231f20"/>
  <rect x="445.24" y="143.46" width="13.39" height="13.39" fill="#231f20"/>
  <rect x="401.85" y="271.72" width="13.39" height="13.39" fill="#231f20"/>
  <rect x="445.24" y="56.91" width="13.39" height="13.39" fill="#231f20"/>
  <rect x="488.74" y="13.72" width="13.39" height="13.39" fill="#231f20"/>
  <rect x="445.24" y="99.74" width="13.39" height="13.39" fill="#231f20"/>
  <rect x="488.45" y="617.73" width="13.39" height="13.39" fill="#231f20"/>
  <rect x="488.45" y="660.56" width="13.39" height="13.39" fill="#231f20"/>
  <rect x="488.45" y="963.07" width="13.39" height="13.39" fill="#231f20"/>
  <rect x="530.68" y="963.07" width="13.39" height="13.39" fill="#231f20"/>
  <rect x="530.68" y="1005.9" width="13.39" height="13.39" fill="#231f20"/>
  <rect x="530.68" y="1051.2" width="13.39" height="13.39" fill="#231f20"/>
  <rect x="574.85" y="1051.2" width="13.39" height="13.39" fill="#231f20"/>
  <rect x="618.05" y="1051.2" width="13.39" height="13.39" fill="#231f20"/>
  <rect x="661.26" y="1051.2" width="13.39" height="13.39" fill="#231f20"/>
  <rect x="704.46" y="1051.2" width="13.39" height="13.39" fill="#231f20"/>
  <rect x="746.93" y="1051.2" width="13.39" height="13.39" fill="#231f20"/>
  <rect x="746.93" y="1005.9" width="13.39" height="13.39" fill="#231f20"/>
  <rect x="746.93" y="963.07" width="13.39" height="13.39" fill="#231f20"/>
  <rect x="746.93" y="747.43" width="13.39" height="13.39" fill="#231f20"/>
  <rect x="746.93" y="704.6" width="13.39" height="13.39" fill="#231f20"/>
</svg>