<?xml version="1.0" encoding="UTF-8"?>
<svg id="_7" data-name="7" xmlns="http://www.w3.org/2000/svg" viewBox="0 0 1080 1080">
  <rect x="734.35" y="859.95" width="40.84" height="40.84" fill="#231f20"/>
  <rect x="734.35" y="989.85" width="40.84" height="40.84" fill="#231f20"/>
  <rect x="690.95" y="989.85" width="40.84" height="40.84" fill="#231f20"/>
  <rect x="647.55" y="946.55" width="40.84" height="40.84" fill="#231f20"/>
  <rect x="690.95" y="1033.15" width="40.84" height="40.84" fill="#231f20"/>
  <rect x="734.35" y="1033.15" width="40.84" height="40.84" fill="#231f20"/>
  <rect x="647.55" y="1033.15" width="40.84" height="40.84" fill="#231f20"/>
  <rect x="518.1" y="558.25" width="40.84" height="40.84" fill="#231f20"/>
  <rect x="518.1" y="514.75" width="40.84" height="40.84" fill="#231f20"/>
  <rect x="475.04" y="514.75" width="40.84" height="40.84" fill="#231f20"/>
  <rect x="431.69" y="471.25" width="40.84" height="40.84" fill="#231f20"/>
  <rect x="605.26" y="558.25" width="40.84" height="40.84" fill="#231f20"/>
  <rect x="605.26" y="514.75" width="40.84" height="40.84" fill="#231f20"/>
  <rect x="561.68" y="558.25" width="40.84" height="40.84" fill="#231f20"/>
  <rect x="561.68" y="514.75" width="40.84" height="40.84" fill="#231f20"/>
  <rect x="561.68" y="471.25" width="40.84" height="40.84" fill="#231f20"/>
  <rect x="561.68" y="600.88" width="40.84" height="40.84" fill="#231f20"/>
  <rect x="604.48" y="428.36" width="40.84" height="40.84" fill="#231f20"/>
  <rect x="647.8" y="428.36" width="40.84" height="40.84" fill="#231f20"/>
  <rect x="647.8" y="384.91" width="40.84" height="40.84" fill="#231f20"/>
  <rect x="517.93" y="384.81" width="40.84" height="40.84" fill="#231f20"/>
  <rect x="517.93" y="341.36" width="40.84" height="40.84" fill="#231f20"/>
  <rect x="647.55" y="341.46" width="40.84" height="40.84" fill="#231f20"/>
  <rect x="647.8" y="298.73" width="40.84" height="40.84" fill="#231f20"/>
  <rect x="518.1" y="298.62" width="40.84" height="40.84" fill="#231f20"/>
  <rect x="518.1" y="255.89" width="40.84" height="40.84" fill="#231f20"/>
  <rect x="647.55" y="255.99" width="40.84" height="40.84" fill="#231f20"/>
  <rect x="647.8" y="212.54" width="40.84" height="40.84" fill="#231f20"/>
  <rect x="475.18" y="213.16" width="40.84" height="40.84" fill="#231f20"/>
  <rect x="604.48" y="255.99" width="40.84" height="40.84" fill="#231f20"/>
  <rect x="604.48" y="298.73" width="40.84" height="40.84" fill="#231f20"/>
  <rect x="604.14" y="341.46" width="40.84" height="40.84" fill="#231f20"/>
  <rect x="604.48" y="384.91" width="40.84" height="40.84" fill="#231f20"/>
  <rect x="475.18" y="558.25" width="40.84" height="40.84" fill="#231f20"/>
  <rect x="431.62" y="514.75" width="40.84" height="40.84" fill="#231f20"/>
  <rect x="431.76" y="558.25" width="40.84" height="40.84" fill="#231f20"/>
  <rect x="388.39" y="558.25" width="40.84" height="40.84" fill="#231f20"/>
  <rect x="345.09" y="558.25" width="40.84" height="40.84" fill="#231f20"/>
  <rect x="388.39" y="514.75" width="40.84" height="40.84" fill="#231f20"/>
  <rect x="345.09" y="514.75" width="40.84" height="40.84" fill="#231f20"/>
  <rect x="302.15" y="514.75" width="40.84" height="40.84" fill="#231f20"/>
  <rect x="258.85" y="514.75" width="40.84" height="40.84" fill="#231f20"/>
  <rect x="345.09" y="601.28" width="40.84" height="40.84" fill="#231f20"/>
  <rect x="345.09" y="644.31" width="40.84" height="40.84" fill="#231f20"/>
  <rect x="301.79" y="644.31" width="40.84" height="40.84" fill="#231f20"/>
  <rect x="301.79" y="687.45" width="40.84" height="40.84" fill="#231f20"/>
  <rect x="215.73" y="687.45" width="40.84" height="40.84" fill="#231f20"/>
  <rect x="86.79" y="730.25" width="40.84" height="40.84" fill="#231f20"/>
  <rect x="129.97" y="730.25" width="40.84" height="40.84" fill="#231f20"/>
  <rect x="345.09" y="687.45" width="40.84" height="40.84" fill="#231f20"/>
  <rect x="388.39" y="687.45" width="40.84" height="40.84" fill="#231f20"/>
  <rect x="431.69" y="687.45" width="40.84" height="40.84" fill="#231f20"/>
  <rect x="431.69" y="644.31" width="40.84" height="40.84" fill="#231f20"/>
  <rect x="475.18" y="644.31" width="40.84" height="40.84" fill="#231f20"/>
  <rect x="475.18" y="687.45" width="40.84" height="40.84" fill="#231f20"/>
  <rect x="388.39" y="644.31" width="40.84" height="40.84" fill="#231f20"/>
  <rect x="388.39" y="600.88" width="40.84" height="40.84" fill="#231f20"/>
  <rect x="431.69" y="600.88" width="40.84" height="40.84" fill="#231f20"/>
  <rect x="704.67" y="831.38" width="13.39" height="13.39" fill="#231f20"/>
  <rect x="748.08" y="831.38" width="13.39" height="13.39" fill="#231f20"/>
  <rect x="748.08" y="789.08" width="13.39" height="13.39" fill="#231f20"/>
  <rect x="704.67" y="789.08" width="13.39" height="13.39" fill="#231f20"/>
  <rect x="704.67" y="745.33" width="13.39" height="13.39" fill="#231f20"/>
  <rect x="661.27" y="745.33" width="13.39" height="13.39" fill="#231f20"/>
  <rect x="661.27" y="789.08" width="13.39" height="13.39" fill="#231f20"/>
  <rect x="617.87" y="789.08" width="13.39" height="13.39" fill="#231f20"/>
  <rect x="617.87" y="745.33" width="13.39" height="13.39" fill="#231f20"/>
  <rect x="617.87" y="701.17" width="13.39" height="13.39" fill="#231f20"/>
  <rect x="661.27" y="701.17" width="13.39" height="13.39" fill="#231f20"/>
  <rect x="661.27" y="658.04" width="13.39" height="13.39" fill="#231f20"/>
  <rect x="704.84" y="658.04" width="13.39" height="13.39" fill="#231f20"/>
  <rect x="704.84" y="613.3" width="13.39" height="13.39" fill="#231f20"/>
  <rect x="748.41" y="613.3" width="13.39" height="13.39" fill="#231f20"/>
  <rect x="748.41" y="658.04" width="13.39" height="13.39" fill="#231f20"/>
  <rect x="748.41" y="701.17" width="13.39" height="13.39" fill="#231f20"/>
  <rect x="748.41" y="745.33" width="13.39" height="13.39" fill="#231f20"/>
  <rect x="791.48" y="745.33" width="13.39" height="13.39" fill="#231f20"/>
  <rect x="706.37" y="701.17" width="13.39" height="13.39" fill="#231f20"/>
  <rect x="661.27" y="614.6" width="13.39" height="13.39" fill="#231f20"/>
  <rect x="661.27" y="571.17" width="13.39" height="13.39" fill="#231f20"/>
  <rect x="704.84" y="567.51" width="13.39" height="13.39" fill="#231f20"/>
  <rect x="704.84" y="528.47" width="13.39" height="13.39" fill="#231f20"/>
  <rect x="748.08" y="528.47" width="13.39" height="13.39" fill="#231f20"/>
  <rect x="748.08" y="486.04" width="13.39" height="13.39" fill="#231f20"/>
  <rect x="748.08" y="442.09" width="13.39" height="13.39" fill="#231f20"/>
  <rect x="748.08" y="398.13" width="13.39" height="13.39" fill="#231f20"/>
  <rect x="704.84" y="398.13" width="13.39" height="13.39" fill="#231f20"/>
  <rect x="748.08" y="571.17" width="13.39" height="13.39" fill="#231f20"/>
  <rect x="791.64" y="613.3" width="13.39" height="13.39" fill="#231f20"/>
  <rect x="791.64" y="658.04" width="13.39" height="13.39" fill="#231f20"/>
  <rect x="791.64" y="701.17" width="13.39" height="13.39" fill="#231f20"/>
  <rect x="791.31" y="528.47" width="13.39" height="13.39" fill="#231f20"/>
  <rect x="791.31" y="486.04" width="13.39" height="13.39" fill="#231f20"/>
  <rect x="791.31" y="442.09" width="13.39" height="13.39" fill="#231f20"/>
  <rect x="791.31" y="398.13" width="13.39" height="13.39" fill="#231f20"/>
  <rect x="791.31" y="571.17" width="13.39" height="13.39" fill="#231f20"/>
  <rect x="661.27" y="526.99" width="13.39" height="13.39" fill="#231f20"/>
  <rect x="661.27" y="486.04" width="13.39" height="13.39" fill="#231f20"/>
  <rect x="617.87" y="486.04" width="13.39" height="13.39" fill="#231f20"/>
  <rect x="704.67" y="486.04" width="13.39" height="13.39" fill="#231f20"/>
  <rect x="704.67" y="442.09" width="13.39" height="13.39" fill="#231f20"/>
  <rect x="704.67" y="224.69" width="13.39" height="13.39" fill="#231f20"/>
  <rect x="748.27" y="224.69" width="13.39" height="13.39" fill="#231f20"/>
  <rect x="748.27" y="181.32" width="13.39" height="13.39" fill="#231f20"/>
  <rect x="748.27" y="138.29" width="13.39" height="13.39" fill="#231f20"/>
  <rect x="748.27" y="95.26" width="13.39" height="13.39" fill="#231f20"/>
  <rect x="748.27" y="52.23" width="13.39" height="13.39" fill="#231f20"/>
  <rect x="704.67" y="181.32" width="13.39" height="13.39" fill="#231f20"/>
  <rect x="704.67" y="138.29" width="13.39" height="13.39" fill="#231f20"/>
  <rect x="704.67" y="95.26" width="13.39" height="13.39" fill="#231f20"/>
  <rect x="704.67" y="52.23" width="13.39" height="13.39" fill="#231f20"/>
  <rect x="661.52" y="52.23" width="13.39" height="13.39" fill="#231f20"/>
  <rect x="618.37" y="52.23" width="13.39" height="13.39" fill="#231f20"/>
  <rect x="618.37" y="9.2" width="13.39" height="13.39" fill="#231f20"/>
  <rect x="575.98" y="9.2" width="13.39" height="13.39" fill="#231f20"/>
  <rect x="660.76" y="9.2" width="13.39" height="13.39" fill="#231f20"/>
  <rect x="704.84" y="9.2" width="13.39" height="13.39" fill="#231f20"/>
  <rect x="575.98" y="52.23" width="13.39" height="13.39" fill="#231f20"/>
  <rect x="661.52" y="95.26" width="13.39" height="13.39" fill="#231f20"/>
  <rect x="618.21" y="95.26" width="13.39" height="13.39" fill="#231f20"/>
  <rect x="575.98" y="95.26" width="13.39" height="13.39" fill="#231f20"/>
  <rect x="617.87" y="224.69" width="13.39" height="13.39" fill="#231f20"/>
  <rect x="575.98" y="224.69" width="13.39" height="13.39" fill="#231f20"/>
  <rect x="575.98" y="269.72" width="13.39" height="13.39" fill="#231f20"/>
  <rect x="575.98" y="312.45" width="13.39" height="13.39" fill="#231f20"/>
  <rect x="575.98" y="355.19" width="13.39" height="13.39" fill="#231f20"/>
  <rect x="575.98" y="398.64" width="13.39" height="13.39" fill="#231f20"/>
  <rect x="575.98" y="442.09" width="13.39" height="13.39" fill="#231f20"/>
  <rect x="530.93" y="442.09" width="13.39" height="13.39" fill="#231f20"/>
  <rect x="618.21" y="181.32" width="13.39" height="13.39" fill="#231f20"/>
  <rect x="661.52" y="181.32" width="13.39" height="13.39" fill="#231f20"/>
  <rect x="661.52" y="138.29" width="13.39" height="13.39" fill="#231f20"/>
  <rect x="618.21" y="138.29" width="13.39" height="13.39" fill="#231f20"/>
  <rect x="575.98" y="138.29" width="13.39" height="13.39" fill="#231f20"/>
  <rect x="575.98" y="181.32" width="13.39" height="13.39" fill="#231f20"/>
  <rect x="531.82" y="9.2" width="13.39" height="13.39" fill="#231f20"/>
  <rect x="531.82" y="52.23" width="13.39" height="13.39" fill="#231f20"/>
  <rect x="531.82" y="95.26" width="13.39" height="13.39" fill="#231f20"/>
  <rect x="531.82" y="224.69" width="13.39" height="13.39" fill="#231f20"/>
  <rect x="531.82" y="138.29" width="13.39" height="13.39" fill="#231f20"/>
  <rect x="531.82" y="181.32" width="13.39" height="13.39" fill="#231f20"/>
  <rect x="488.9" y="9.2" width="13.39" height="13.39" fill="#231f20"/>
  <rect x="488.9" y="52.23" width="13.39" height="13.39" fill="#231f20"/>
  <rect x="488.9" y="95.26" width="13.39" height="13.39" fill="#231f20"/>
  <rect x="488.9" y="138.29" width="13.39" height="13.39" fill="#231f20"/>
  <rect x="488.9" y="181.32" width="13.39" height="13.39" fill="#231f20"/>
  <rect x="445.49" y="9.2" width="13.39" height="13.39" fill="#231f20"/>
  <rect x="445.49" y="52.23" width="13.39" height="13.39" fill="#231f20"/>
  <rect x="445.49" y="95.26" width="13.39" height="13.39" fill="#231f20"/>
  <rect x="445.49" y="138.29" width="13.39" height="13.39" fill="#231f20"/>
  <rect x="445.49" y="181.32" width="13.39" height="13.39" fill="#231f20"/>
  <rect x="445.49" y="224.69" width="13.39" height="13.39" fill="#231f20"/>
  <rect x="488.9" y="270.22" width="13.39" height="13.39" fill="#231f20"/>
  <rect x="488.9" y="313.25" width="13.39" height="13.39" fill="#231f20"/>
  <rect x="488.9" y="356.28" width="13.39" height="13.39" fill="#231f20"/>
  <rect x="488.9" y="399.31" width="13.39" height="13.39" fill="#231f20"/>
  <rect x="617.87" y="658.04" width="13.39" height="13.39" fill="#231f20"/>
  <rect x="617.87" y="614.6" width="13.39" height="13.39" fill="#231f20"/>
  <rect x="575.4" y="701.17" width="13.39" height="13.39" fill="#231f20"/>
  <rect x="575.4" y="658.04" width="13.39" height="13.39" fill="#231f20"/>
  <rect x="531.82" y="701.17" width="13.39" height="13.39" fill="#231f20"/>
  <rect x="531.82" y="658.04" width="13.39" height="13.39" fill="#231f20"/>
  <rect x="531.82" y="613.3" width="13.39" height="13.39" fill="#231f20"/>
  <rect x="488.9" y="613.3" width="13.39" height="13.39" fill="#231f20"/>
  <rect x="402.12" y="486.04" width="13.39" height="13.39" fill="#231f20"/>
  <rect x="315.52" y="615.01" width="13.39" height="13.39" fill="#231f20"/>
  <rect x="315.52" y="571.97" width="13.39" height="13.39" fill="#231f20"/>
  <rect x="272.32" y="573.23" width="13.39" height="13.39" fill="#231f20"/>
  <rect x="272.32" y="615.86" width="13.39" height="13.39" fill="#231f20"/>
  <rect x="272.32" y="659.29" width="13.39" height="13.39" fill="#231f20"/>
  <rect x="229.46" y="658.04" width="13.39" height="13.39" fill="#231f20"/>
  <rect x="186.88" y="657.68" width="13.39" height="13.39" fill="#231f20"/>
  <rect x="143.7" y="657.68" width="13.39" height="13.39" fill="#231f20"/>
  <rect x="100.51" y="657.68" width="13.39" height="13.39" fill="#231f20"/>
  <rect x="57.33" y="657.68" width="13.39" height="13.39" fill="#231f20"/>
  <rect x="14.14" y="657.68" width="13.39" height="13.39" fill="#231f20"/>
  <rect x="57.33" y="701.07" width="13.39" height="13.39" fill="#231f20"/>
  <rect x="14.56" y="701.07" width="13.39" height="13.39" fill="#231f20"/>
  <rect x="57.33" y="743.97" width="13.39" height="13.39" fill="#231f20"/>
  <rect x="14.56" y="743.97" width="13.39" height="13.39" fill="#231f20"/>
  <rect x="100.51" y="701.07" width="13.39" height="13.39" fill="#231f20"/>
  <rect x="143.7" y="615.01" width="13.39" height="13.39" fill="#231f20"/>
  <rect x="100.51" y="615.01" width="13.39" height="13.39" fill="#231f20"/>
  <rect x="57.33" y="615.01" width="13.39" height="13.39" fill="#231f20"/>
  <rect x="57.33" y="571.97" width="13.39" height="13.39" fill="#231f20"/>
  <rect x="13.3" y="571.97" width="13.39" height="13.39" fill="#231f20"/>
  <rect x="100.51" y="571.97" width="13.39" height="13.39" fill="#231f20"/>
  <rect x="14.14" y="615.01" width="13.39" height="13.39" fill="#231f20"/>
  <rect x="143.7" y="571.97" width="13.39" height="13.39" fill="#231f20"/>
  <rect x="186.88" y="615.01" width="13.39" height="13.39" fill="#231f20"/>
  <rect x="186.88" y="571.97" width="13.39" height="13.39" fill="#231f20"/>
  <rect x="229.46" y="615.01" width="13.39" height="13.39" fill="#231f20"/>
  <rect x="229.46" y="571.97" width="13.39" height="13.39" fill="#231f20"/>
  <rect x="100.51" y="529.43" width="13.39" height="13.39" fill="#231f20"/>
  <rect x="143.7" y="529.43" width="13.39" height="13.39" fill="#231f20"/>
  <rect x="186.88" y="529.43" width="13.39" height="13.39" fill="#231f20"/>
  <rect x="229.46" y="529.43" width="13.39" height="13.39" fill="#231f20"/>
  <rect x="57.33" y="791.51" width="13.39" height="13.39" fill="#231f20"/>
  <rect x="13.3" y="791.51" width="13.39" height="13.39" fill="#231f20"/>
  <rect x="100.51" y="791.51" width="13.39" height="13.39" fill="#231f20"/>
  <rect x="143.7" y="791.51" width="13.39" height="13.39" fill="#231f20"/>
  <rect x="186.88" y="791.51" width="13.39" height="13.39" fill="#231f20"/>
  <rect x="229.46" y="791.51" width="13.39" height="13.39" fill="#231f20"/>
  <rect x="57.33" y="831.38" width="13.39" height="13.39" fill="#231f20"/>
  <rect x="13.3" y="831.38" width="13.39" height="13.39" fill="#231f20"/>
  <rect x="100.51" y="831.38" width="13.39" height="13.39" fill="#231f20"/>
  <rect x="143.7" y="831.38" width="13.39" height="13.39" fill="#231f20"/>
  <rect x="186.88" y="831.38" width="13.39" height="13.39" fill="#231f20"/>
  <rect x="229.46" y="831.38" width="13.39" height="13.39" fill="#231f20"/>
  <rect x="186.88" y="701.17" width="13.39" height="13.39" fill="#231f20"/>
  <rect x="143.7" y="701.17" width="13.39" height="13.39" fill="#231f20"/>
  <rect x="229.05" y="745.58" width="13.39" height="13.39" fill="#231f20"/>
  <rect x="186.29" y="745.58" width="13.39" height="13.39" fill="#231f20"/>
  <rect x="272.32" y="745.58" width="13.39" height="13.39" fill="#231f20"/>
  <rect x="358.61" y="745.58" width="13.39" height="13.39" fill="#231f20"/>
  <rect x="315.42" y="745.58" width="13.39" height="13.39" fill="#231f20"/>
  <rect x="445.36" y="745.58" width="13.39" height="13.39" fill="#231f20"/>
  <rect x="402.6" y="745.58" width="13.39" height="13.39" fill="#231f20"/>
  <rect x="488.64" y="745.58" width="13.39" height="13.39" fill="#231f20"/>
  <rect x="574.92" y="745.58" width="13.39" height="13.39" fill="#231f20"/>
  <rect x="531.73" y="745.58" width="13.39" height="13.39" fill="#231f20"/>
  <rect x="445.36" y="789.08" width="13.39" height="13.39" fill="#231f20"/>
  <rect x="402.6" y="789.08" width="13.39" height="13.39" fill="#231f20"/>
  <rect x="488.64" y="789.08" width="13.39" height="13.39" fill="#231f20"/>
  <rect x="574.92" y="789.08" width="13.39" height="13.39" fill="#231f20"/>
  <rect x="531.73" y="789.08" width="13.39" height="13.39" fill="#231f20"/>
  <rect x="445.36" y="831.38" width="13.39" height="13.39" fill="#231f20"/>
  <rect x="402.6" y="831.38" width="13.39" height="13.39" fill="#231f20"/>
  <rect x="488.64" y="831.38" width="13.39" height="13.39" fill="#231f20"/>
  <rect x="315.61" y="789.08" width="13.39" height="13.39" fill="#231f20"/>
  <rect x="272.85" y="789.08" width="13.39" height="13.39" fill="#231f20"/>
  <rect x="358.89" y="789.08" width="13.39" height="13.39" fill="#231f20"/>
  <rect x="315.61" y="831.38" width="13.39" height="13.39" fill="#231f20"/>
  <rect x="272.85" y="831.38" width="13.39" height="13.39" fill="#231f20"/>
  <rect x="358.89" y="831.38" width="13.39" height="13.39" fill="#231f20"/>
  <rect x="531.73" y="831.38" width="13.39" height="13.39" fill="#231f20"/>
  <rect x="272.32" y="702.43" width="13.39" height="13.39" fill="#231f20"/>
  <rect x="359.05" y="486.88" width="13.39" height="13.39" fill="#231f20"/>
  <rect x="315.75" y="486.88" width="13.39" height="13.39" fill="#231f20"/>
  <rect x="272.45" y="486.88" width="13.39" height="13.39" fill="#231f20"/>
  <rect x="229.15" y="486.88" width="13.39" height="13.39" fill="#231f20"/>
  <rect x="187.55" y="486.88" width="13.39" height="13.39" fill="#231f20"/>
  <rect x="402.12" y="442.09" width="13.39" height="13.39" fill="#231f20"/>
  <rect x="359.05" y="442.92" width="13.39" height="13.39" fill="#231f20"/>
  <rect x="315.75" y="442.92" width="13.39" height="13.39" fill="#231f20"/>
  <rect x="272.45" y="442.92" width="13.39" height="13.39" fill="#231f20"/>
  <rect x="229.15" y="442.92" width="13.39" height="13.39" fill="#231f20"/>
  <rect x="187.55" y="442.92" width="13.39" height="13.39" fill="#231f20"/>
  <rect x="143.7" y="486.88" width="13.39" height="13.39" fill="#231f20"/>
  <rect x="100.05" y="486.88" width="13.39" height="13.39" fill="#231f20"/>
  <rect x="58.45" y="486.88" width="13.39" height="13.39" fill="#231f20"/>
  <rect x="14.6" y="486.88" width="13.39" height="13.39" fill="#231f20"/>
  <rect x="488.9" y="442.09" width="13.39" height="13.39" fill="#231f20"/>
  <rect x="445.49" y="270.22" width="13.39" height="13.39" fill="#231f20"/>
  <rect x="445.49" y="313.25" width="13.39" height="13.39" fill="#231f20"/>
  <rect x="445.49" y="356.28" width="13.39" height="13.39" fill="#231f20"/>
  <rect x="445.49" y="399.31" width="13.39" height="13.39" fill="#231f20"/>
  <rect x="445.49" y="442.09" width="13.39" height="13.39" fill="#231f20"/>
  <rect x="530.93" y="484.97" width="13.39" height="13.39" fill="#231f20"/>
  <rect x="488.9" y="484.97" width="13.39" height="13.39" fill="#231f20"/>
  <rect x="791.48" y="789.08" width="13.39" height="13.39" fill="#231f20"/>
  <rect x="791.48" y="831.38" width="13.39" height="13.39" fill="#231f20"/>
  <rect x="704.67" y="873.67" width="13.39" height="13.39" fill="#231f20"/>
  <rect x="704.67" y="918.59" width="13.39" height="13.39" fill="#231f20"/>
  <rect x="704.67" y="960.27" width="13.39" height="13.39" fill="#231f20"/>
  <rect x="661.27" y="1003.57" width="13.39" height="13.39" fill="#231f20"/>
  <rect x="617.87" y="1003.57" width="13.39" height="13.39" fill="#231f20"/>
  <rect x="617.87" y="960.27" width="13.39" height="13.39" fill="#231f20"/>
  <rect x="617.87" y="1046.87" width="13.39" height="13.39" fill="#231f20"/>
  <rect x="575.4" y="1003.57" width="13.39" height="13.39" fill="#231f20"/>
  <rect x="575.4" y="1046.87" width="13.39" height="13.39" fill="#231f20"/>
  <rect x="531.45" y="1003.57" width="13.39" height="13.39" fill="#231f20"/>
  <rect x="531.45" y="1046.87" width="13.39" height="13.39" fill="#231f20"/>
  <rect x="488.99" y="1003.57" width="13.39" height="13.39" fill="#231f20"/>
  <rect x="488.99" y="1046.87" width="13.39" height="13.39" fill="#231f20"/>
  <rect x="791.48" y="1046.87" width="13.39" height="13.39" fill="#231f20"/>
  <rect x="791.48" y="1003.57" width="13.39" height="13.39" fill="#231f20"/>
  <rect x="791.48" y="960.27" width="13.39" height="13.39" fill="#231f20"/>
  <rect x="791.48" y="917.47" width="13.39" height="13.39" fill="#231f20"/>
  <rect x="791.48" y="873.67" width="13.39" height="13.39" fill="#231f20"/>
  <rect x="833.28" y="745.33" width="13.39" height="13.39" fill="#231f20"/>
  <rect x="833.45" y="613.3" width="13.39" height="13.39" fill="#231f20"/>
  <rect x="833.45" y="658.04" width="13.39" height="13.39" fill="#231f20"/>
  <rect x="833.45" y="701.17" width="13.39" height="13.39" fill="#231f20"/>
  <rect x="833.11" y="528.47" width="13.39" height="13.39" fill="#231f20"/>
  <rect x="833.11" y="486.04" width="13.39" height="13.39" fill="#231f20"/>
  <rect x="833.11" y="442.09" width="13.39" height="13.39" fill="#231f20"/>
  <rect x="833.11" y="398.13" width="13.39" height="13.39" fill="#231f20"/>
  <rect x="748.08" y="355.37" width="13.39" height="13.39" fill="#231f20"/>
  <rect x="704.84" y="355.37" width="13.39" height="13.39" fill="#231f20"/>
  <rect x="791.31" y="355.37" width="13.39" height="13.39" fill="#231f20"/>
  <rect x="833.11" y="355.37" width="13.39" height="13.39" fill="#231f20"/>
  <rect x="748.08" y="312.35" width="13.39" height="13.39" fill="#231f20"/>
  <rect x="704.84" y="312.35" width="13.39" height="13.39" fill="#231f20"/>
  <rect x="791.31" y="312.35" width="13.39" height="13.39" fill="#231f20"/>
  <rect x="833.11" y="312.35" width="13.39" height="13.39" fill="#231f20"/>
  <rect x="748.08" y="268.52" width="13.39" height="13.39" fill="#231f20"/>
  <rect x="704.84" y="268.52" width="13.39" height="13.39" fill="#231f20"/>
  <rect x="791.31" y="268.52" width="13.39" height="13.39" fill="#231f20"/>
  <rect x="833.11" y="268.52" width="13.39" height="13.39" fill="#231f20"/>
  <rect x="791.31" y="226.08" width="13.39" height="13.39" fill="#231f20"/>
  <rect x="833.11" y="226.08" width="13.39" height="13.39" fill="#231f20"/>
  <rect x="791.31" y="183.32" width="13.39" height="13.39" fill="#231f20"/>
  <rect x="833.11" y="183.32" width="13.39" height="13.39" fill="#231f20"/>
  <rect x="791.31" y="140.3" width="13.39" height="13.39" fill="#231f20"/>
  <rect x="833.11" y="140.3" width="13.39" height="13.39" fill="#231f20"/>
  <rect x="791.31" y="96.47" width="13.39" height="13.39" fill="#231f20"/>
  <rect x="833.11" y="96.47" width="13.39" height="13.39" fill="#231f20"/>
  <rect x="791.31" y="53.59" width="13.39" height="13.39" fill="#231f20"/>
  <rect x="833.11" y="53.59" width="13.39" height="13.39" fill="#231f20"/>
  <rect x="791.31" y="9.76" width="13.39" height="13.39" fill="#231f20"/>
  <rect x="748.27" y="9.76" width="13.39" height="13.39" fill="#231f20"/>
  <rect x="833.11" y="9.76" width="13.39" height="13.39" fill="#231f20"/>
  <rect x="833.11" y="571.17" width="13.39" height="13.39" fill="#231f20"/>
  <rect x="833.28" y="789.08" width="13.39" height="13.39" fill="#231f20"/>
  <rect x="833.28" y="831.38" width="13.39" height="13.39" fill="#231f20"/>
  <rect x="833.28" y="1046.87" width="13.39" height="13.39" fill="#231f20"/>
  <rect x="833.28" y="1003.57" width="13.39" height="13.39" fill="#231f20"/>
  <rect x="833.28" y="960.27" width="13.39" height="13.39" fill="#231f20"/>
  <rect x="833.28" y="917.47" width="13.39" height="13.39" fill="#231f20"/>
  <rect x="833.28" y="873.67" width="13.39" height="13.39" fill="#231f20"/>
  <rect x="879.91" y="1046.87" width="13.39" height="13.39" fill="#231f20"/>
  <rect x="879.91" y="1003.57" width="13.39" height="13.39" fill="#231f20"/>
  <rect x="879.91" y="960.27" width="13.39" height="13.39" fill="#231f20"/>
  <rect x="879.91" y="917.47" width="13.39" height="13.39" fill="#231f20"/>
  <rect x="879.91" y="873.67" width="13.39" height="13.39" fill="#231f20"/>
  <rect x="748.08" y="960.27" width="13.39" height="13.39" fill="#231f20"/>
  <rect x="748.08" y="918.59" width="13.39" height="13.39" fill="#231f20"/>
  <rect x="661.27" y="918.59" width="13.39" height="13.39" fill="#231f20"/>
  <rect x="617.87" y="918.59" width="13.39" height="13.39" fill="#231f20"/>
  <rect x="661.27" y="873.67" width="13.39" height="13.39" fill="#231f20"/>
  <rect x="617.87" y="873.67" width="13.39" height="13.39" fill="#231f20"/>
  <rect x="661.27" y="831.38" width="13.39" height="13.39" fill="#231f20"/>
  <rect x="617.87" y="831.38" width="13.39" height="13.39" fill="#231f20"/>
  <rect x="575.4" y="960.27" width="13.39" height="13.39" fill="#231f20"/>
  <rect x="575.4" y="918.59" width="13.39" height="13.39" fill="#231f20"/>
  <rect x="575.4" y="873.67" width="13.39" height="13.39" fill="#231f20"/>
  <rect x="531.82" y="960.27" width="13.39" height="13.39" fill="#231f20"/>
  <rect x="531.82" y="918.59" width="13.39" height="13.39" fill="#231f20"/>
  <rect x="531.82" y="873.67" width="13.39" height="13.39" fill="#231f20"/>
  <rect x="488.99" y="960.27" width="13.39" height="13.39" fill="#231f20"/>
  <rect x="488.99" y="918.59" width="13.39" height="13.39" fill="#231f20"/>
  <rect x="488.99" y="873.67" width="13.39" height="13.39" fill="#231f20"/>
  <rect x="575.4" y="831.38" width="13.39" height="13.39" fill="#231f20"/>
</svg>