<?xml version="1.0" encoding="UTF-8"?>
<svg id="_8" data-name="8" xmlns="http://www.w3.org/2000/svg" viewBox="0 0 1080 1080">
  <rect x="994.43" y="1.51" width="40.84" height="40.84" transform="translate(1036.78 -992.92) rotate(90)" fill="#231f20"/>
  <rect x="1037.19" y="1.51" width="40.84" height="40.84" transform="translate(1079.54 -1035.69) rotate(90)" fill="#231f20"/>
  <rect x="994.43" y="45.11" width="40.84" height="40.84" transform="translate(1080.38 -949.32) rotate(90)" fill="#231f20"/>
  <rect x="1037.19" y="45.11" width="40.84" height="40.84" transform="translate(1123.14 -992.08) rotate(90)" fill="#231f20"/>
  <rect x="1037.19" y="88.71" width="40.84" height="40.84" transform="translate(1166.75 -948.48) rotate(90)" fill="#231f20"/>
  <rect x="994.43" y="88.71" width="40.84" height="40.84" transform="translate(1123.99 -905.72) rotate(90)" fill="#231f20"/>
  <rect x="994.43" y="131.51" width="40.84" height="40.84" transform="translate(1166.78 -862.92) rotate(90)" fill="#231f20"/>
  <rect x="1037.19" y="131.51" width="40.84" height="40.84" transform="translate(1209.54 -905.68) rotate(90)" fill="#231f20"/>
  <rect x="1037.19" y="174.31" width="40.84" height="40.84" transform="translate(1252.34 -862.89) rotate(90)" fill="#231f20"/>
  <rect x="994.43" y="174.31" width="40.84" height="40.84" transform="translate(1209.58 -820.12) rotate(90)" fill="#231f20"/>
  <rect x="994.43" y="217.73" width="40.84" height="40.84" transform="translate(1253 -776.7) rotate(90)" fill="#231f20"/>
  <rect x="1037.19" y="217.73" width="40.84" height="40.84" transform="translate(1295.77 -819.46) rotate(90)" fill="#231f20"/>
  <rect x="1037.19" y="261.16" width="40.84" height="40.84" transform="translate(1339.19 -776.04) rotate(90)" fill="#231f20"/>
  <rect x="1037.19" y="304.58" width="40.84" height="40.84" transform="translate(1382.61 -732.61) rotate(90)" fill="#231f20"/>
  <rect x="994.43" y="304.58" width="40.84" height="40.84" transform="translate(1339.85 -689.85) rotate(90)" fill="#231f20"/>
  <rect x="994.43" y="347.25" width="40.84" height="40.84" transform="translate(1382.52 -647.18) rotate(90)" fill="#231f20"/>
  <rect x="1037.19" y="347.25" width="40.84" height="40.84" transform="translate(1425.29 -689.94) rotate(90)" fill="#231f20"/>
  <rect x="1037.19" y="390.69" width="40.84" height="40.84" transform="translate(1468.72 -646.51) rotate(90)" fill="#231f20"/>
  <rect x="994.43" y="390.69" width="40.84" height="40.84" transform="translate(1425.96 -603.75) rotate(90)" fill="#231f20"/>
  <rect x="994.43" y="434.12" width="40.84" height="40.84" transform="translate(1469.39 -560.31) rotate(90)" fill="#231f20"/>
  <rect x="1037.19" y="434.12" width="40.84" height="40.84" transform="translate(1512.15 -603.07) rotate(90)" fill="#231f20"/>
  <rect x="1037.19" y="476.61" width="40.84" height="40.84" transform="translate(1554.65 -560.58) rotate(90)" fill="#231f20"/>
  <rect x="994.43" y="476.61" width="40.84" height="40.84" transform="translate(1511.88 -517.82) rotate(90)" fill="#231f20"/>
  <rect x="994.43" y="520.14" width="40.84" height="40.84" transform="translate(1555.42 -474.29) rotate(90)" fill="#231f20"/>
  <rect x="994.43" y="563.68" width="40.84" height="40.84" transform="translate(1598.95 -430.75) rotate(90)" fill="#231f20"/>
  <rect x="1037.19" y="563.68" width="40.84" height="40.84" transform="translate(1641.71 -473.52) rotate(90)" fill="#231f20"/>
  <rect x="1037.19" y="607.21" width="40.84" height="40.84" transform="translate(1685.24 -429.98) rotate(90)" fill="#231f20"/>
  <rect x="994.43" y="607.21" width="40.84" height="40.84" transform="translate(1642.48 -387.22) rotate(90)" fill="#231f20"/>
  <rect x="994.43" y="650.07" width="40.84" height="40.84" transform="translate(1685.34 -344.36) rotate(90)" fill="#231f20"/>
  <rect x="1037.19" y="650.07" width="40.84" height="40.84" transform="translate(1728.11 -387.12) rotate(90)" fill="#231f20"/>
  <rect x="1037.19" y="692.93" width="40.84" height="40.84" transform="translate(1770.97 -344.26) rotate(90)" fill="#231f20"/>
  <rect x="994.43" y="692.93" width="40.84" height="40.84" transform="translate(1728.2 -301.5) rotate(90)" fill="#231f20"/>
  <rect x="951" y="692.93" width="40.84" height="40.84" transform="translate(1684.77 -258.07) rotate(90)" fill="#231f20"/>
  <rect x="951" y="650.07" width="40.84" height="40.84" transform="translate(1641.91 -300.93) rotate(90)" fill="#231f20"/>
  <rect x="951" y="606.76" width="40.84" height="40.84" transform="translate(1598.6 -344.23) rotate(90)" fill="#231f20"/>
  <rect x="951" y="563.68" width="40.84" height="40.84" transform="translate(1555.52 -387.32) rotate(90)" fill="#231f20"/>
  <rect x="951" y="520.14" width="40.84" height="40.84" transform="translate(1511.98 -430.85) rotate(90)" fill="#231f20"/>
  <rect x="951" y="476.61" width="40.84" height="40.84" transform="translate(1468.45 -474.39) rotate(90)" fill="#231f20"/>
  <rect x="951" y="434.12" width="40.84" height="40.84" transform="translate(1425.96 -516.88) rotate(90)" fill="#231f20"/>
  <rect x="951" y="390.69" width="40.84" height="40.84" transform="translate(1382.52 -560.31) rotate(90)" fill="#231f20"/>
  <rect x="951" y="347.25" width="40.84" height="40.84" transform="translate(1339.09 -603.75) rotate(90)" fill="#231f20"/>
  <rect x="951" y="304.58" width="40.84" height="40.84" transform="translate(1296.42 -646.42) rotate(90)" fill="#231f20"/>
  <rect x="951" y="261.16" width="40.84" height="40.84" transform="translate(1252.99 -689.84) rotate(90)" fill="#231f20"/>
  <rect x="951" y="217.73" width="40.84" height="40.84" transform="translate(1209.57 -733.27) rotate(90)" fill="#231f20"/>
  <rect x="907.86" y="693.14" width="40.84" height="40.84" transform="translate(1641.84 -214.73) rotate(90)" fill="#231f20"/>
  <rect x="907.86" y="650.28" width="40.84" height="40.84" transform="translate(1598.98 -257.59) rotate(90)" fill="#231f20"/>
  <rect x="907.86" y="606.97" width="40.84" height="40.84" transform="translate(1555.67 -300.9) rotate(90)" fill="#231f20"/>
  <rect x="907.86" y="563.88" width="40.84" height="40.84" transform="translate(1512.59 -343.98) rotate(90)" fill="#231f20"/>
  <rect x="907.86" y="520.35" width="40.84" height="40.84" transform="translate(1469.06 -387.51) rotate(90)" fill="#231f20"/>
  <rect x="907.86" y="476.82" width="40.84" height="40.84" transform="translate(1425.52 -431.05) rotate(90)" fill="#231f20"/>
  <rect x="907.86" y="434.32" width="40.84" height="40.84" transform="translate(1383.03 -473.54) rotate(90)" fill="#231f20"/>
  <rect x="907.86" y="390.89" width="40.84" height="40.84" transform="translate(1339.6 -516.97) rotate(90)" fill="#231f20"/>
  <rect x="907.86" y="347.46" width="40.84" height="40.84" transform="translate(1296.16 -560.41) rotate(90)" fill="#231f20"/>
  <rect x="907.86" y="304.78" width="40.84" height="40.84" transform="translate(1253.49 -603.08) rotate(90)" fill="#231f20"/>
  <rect x="907.86" y="261.36" width="40.84" height="40.84" transform="translate(1210.07 -646.5) rotate(90)" fill="#231f20"/>
  <rect x="907.86" y="217.94" width="40.84" height="40.84" transform="translate(1166.64 -689.93) rotate(90)" fill="#231f20"/>
  <rect x="951" y="174.31" width="40.84" height="40.84" transform="translate(1166.15 -776.69) rotate(90)" fill="#231f20"/>
  <rect x="951" y="131.51" width="40.84" height="40.84" transform="translate(1123.35 -819.49) rotate(90)" fill="#231f20"/>
  <rect x="951" y="88.71" width="40.84" height="40.84" transform="translate(1080.55 -862.28) rotate(90)" fill="#231f20"/>
  <rect x="951" y="45.11" width="40.84" height="40.84" transform="translate(1036.95 -905.89) rotate(90)" fill="#231f20"/>
  <rect x="951" y="1.51" width="40.84" height="40.84" transform="translate(993.35 -949.49) rotate(90)" fill="#231f20"/>
  <rect x="907.86" y="1.71" width="40.84" height="40.84" transform="translate(950.42 -906.15) rotate(90)" fill="#231f20"/>
  <rect x="907.86" y="45.32" width="40.84" height="40.84" transform="translate(994.02 -862.55) rotate(90)" fill="#231f20"/>
  <rect x="907.86" y="88.92" width="40.84" height="40.84" transform="translate(1037.62 -818.94) rotate(90)" fill="#231f20"/>
  <rect x="907.86" y="131.72" width="40.84" height="40.84" transform="translate(1080.42 -776.15) rotate(90)" fill="#231f20"/>
  <rect x="907.86" y="174.51" width="40.84" height="40.84" transform="translate(1123.22 -733.35) rotate(90)" fill="#231f20"/>
  <rect x="864.53" y="692.8" width="40.84" height="40.84" transform="translate(1598.17 -171.74) rotate(90)" fill="#231f20"/>
  <rect x="864.53" y="649.94" width="40.84" height="40.84" transform="translate(1555.31 -214.6) rotate(90)" fill="#231f20"/>
  <rect x="864.53" y="606.63" width="40.84" height="40.84" transform="translate(1512 -257.91) rotate(90)" fill="#231f20"/>
  <rect x="864.53" y="563.54" width="40.84" height="40.84" transform="translate(1468.92 -300.99) rotate(90)" fill="#231f20"/>
  <rect x="864.53" y="520.01" width="40.84" height="40.84" transform="translate(1425.38 -344.52) rotate(90)" fill="#231f20"/>
  <rect x="864.53" y="476.48" width="40.84" height="40.84" transform="translate(1381.85 -388.06) rotate(90)" fill="#231f20"/>
  <rect x="864.53" y="433.98" width="40.84" height="40.84" transform="translate(1339.36 -430.55) rotate(90)" fill="#231f20"/>
  <rect x="864.53" y="390.55" width="40.84" height="40.84" transform="translate(1295.93 -473.98) rotate(90)" fill="#231f20"/>
  <rect x="864.53" y="347.12" width="40.84" height="40.84" transform="translate(1252.49 -517.42) rotate(90)" fill="#231f20"/>
  <rect x="864.53" y="304.44" width="40.84" height="40.84" transform="translate(1209.82 -560.09) rotate(90)" fill="#231f20"/>
  <rect x="864.53" y="261.02" width="40.84" height="40.84" transform="translate(1166.4 -603.51) rotate(90)" fill="#231f20"/>
  <rect x="864.53" y="217.6" width="40.84" height="40.84" transform="translate(1122.97 -646.94) rotate(90)" fill="#231f20"/>
  <rect x="864.53" y="1.37" width="40.84" height="40.84" transform="translate(906.75 -863.16) rotate(90)" fill="#231f20"/>
  <rect x="864.53" y="44.98" width="40.84" height="40.84" transform="translate(950.35 -819.56) rotate(90)" fill="#231f20"/>
  <rect x="864.53" y="88.58" width="40.84" height="40.84" transform="translate(993.95 -775.95) rotate(90)" fill="#231f20"/>
  <rect x="864.53" y="131.38" width="40.84" height="40.84" transform="translate(1036.75 -733.16) rotate(90)" fill="#231f20"/>
  <rect x="864.53" y="174.17" width="40.84" height="40.84" transform="translate(1079.55 -690.36) rotate(90)" fill="#231f20"/>
  <rect x="821.77" y="692.93" width="40.84" height="40.84" transform="translate(1555.54 -128.84) rotate(90)" fill="#231f20"/>
  <rect x="821.77" y="650.07" width="40.84" height="40.84" transform="translate(1512.68 -171.7) rotate(90)" fill="#231f20"/>
  <rect x="821.77" y="606.76" width="40.84" height="40.84" transform="translate(1469.38 -215.01) rotate(90)" fill="#231f20"/>
  <rect x="821.77" y="563.68" width="40.84" height="40.84" transform="translate(1426.29 -258.09) rotate(90)" fill="#231f20"/>
  <rect x="821.77" y="520.14" width="40.84" height="40.84" transform="translate(1382.76 -301.63) rotate(90)" fill="#231f20"/>
  <rect x="821.77" y="476.61" width="40.84" height="40.84" transform="translate(1339.22 -345.16) rotate(90)" fill="#231f20"/>
  <rect x="821.77" y="434.12" width="40.84" height="40.84" transform="translate(1296.73 -387.65) rotate(90)" fill="#231f20"/>
  <rect x="821.77" y="390.69" width="40.84" height="40.84" transform="translate(1253.3 -431.09) rotate(90)" fill="#231f20"/>
  <rect x="821.77" y="347.25" width="40.84" height="40.84" transform="translate(1209.86 -474.52) rotate(90)" fill="#231f20"/>
  <rect x="821.77" y="304.58" width="40.84" height="40.84" transform="translate(1167.19 -517.19) rotate(90)" fill="#231f20"/>
  <rect x="821.77" y="261.16" width="40.84" height="40.84" transform="translate(1123.77 -560.62) rotate(90)" fill="#231f20"/>
  <rect x="821.77" y="217.73" width="40.84" height="40.84" transform="translate(1080.34 -604.04) rotate(90)" fill="#231f20"/>
  <rect x="821.77" y="1.51" width="40.84" height="40.84" transform="translate(864.12 -820.26) rotate(90)" fill="#231f20"/>
  <rect x="821.77" y="45.11" width="40.84" height="40.84" transform="translate(907.72 -776.66) rotate(90)" fill="#231f20"/>
  <rect x="821.77" y="88.71" width="40.84" height="40.84" transform="translate(951.33 -733.06) rotate(90)" fill="#231f20"/>
  <rect x="821.77" y="131.51" width="40.84" height="40.84" transform="translate(994.12 -690.26) rotate(90)" fill="#231f20"/>
  <rect x="821.77" y="174.31" width="40.84" height="40.84" transform="translate(1036.92 -647.46) rotate(90)" fill="#231f20"/>
  <rect x="778.47" y="692.93" width="40.84" height="40.84" transform="translate(1512.24 -85.54) rotate(90)" fill="#231f20"/>
  <rect x="778.47" y="650.07" width="40.84" height="40.84" transform="translate(1469.38 -128.4) rotate(90)" fill="#231f20"/>
  <rect x="778.47" y="606.76" width="40.84" height="40.84" transform="translate(1426.08 -171.71) rotate(90)" fill="#231f20"/>
  <rect x="778.47" y="563.68" width="40.84" height="40.84" transform="translate(1382.99 -214.79) rotate(90)" fill="#231f20"/>
  <rect x="778.47" y="520.14" width="40.84" height="40.84" transform="translate(1339.46 -258.33) rotate(90)" fill="#231f20"/>
  <rect x="778.47" y="476.61" width="40.84" height="40.84" transform="translate(1295.93 -301.86) rotate(90)" fill="#231f20"/>
  <rect x="778.47" y="434.12" width="40.84" height="40.84" transform="translate(1253.43 -344.35) rotate(90)" fill="#231f20"/>
  <rect x="778.47" y="390.69" width="40.84" height="40.84" transform="translate(1210 -387.79) rotate(90)" fill="#231f20"/>
  <rect x="778.47" y="347.25" width="40.84" height="40.84" transform="translate(1166.56 -431.22) rotate(90)" fill="#231f20"/>
  <rect x="778.47" y="304.58" width="40.84" height="40.84" transform="translate(1123.89 -473.89) rotate(90)" fill="#231f20"/>
  <rect x="778.47" y="261.16" width="40.84" height="40.84" transform="translate(1080.47 -517.32) rotate(90)" fill="#231f20"/>
  <rect x="778.47" y="217.73" width="40.84" height="40.84" transform="translate(1037.04 -560.74) rotate(90)" fill="#231f20"/>
  <rect x="778.47" y="1.51" width="40.84" height="40.84" transform="translate(820.82 -776.96) rotate(90)" fill="#231f20"/>
  <rect x="778.47" y="45.11" width="40.84" height="40.84" transform="translate(864.42 -733.36) rotate(90)" fill="#231f20"/>
  <rect x="778.47" y="88.71" width="40.84" height="40.84" transform="translate(908.03 -689.76) rotate(90)" fill="#231f20"/>
  <rect x="778.47" y="131.51" width="40.84" height="40.84" transform="translate(950.82 -646.96) rotate(90)" fill="#231f20"/>
  <rect x="778.47" y="174.31" width="40.84" height="40.84" transform="translate(993.62 -604.16) rotate(90)" fill="#231f20"/>
  <rect x="735.17" y="692.93" width="40.84" height="40.84" transform="translate(1468.95 -42.24) rotate(90)" fill="#231f20"/>
  <rect x="735.17" y="650.07" width="40.84" height="40.84" transform="translate(1426.08 -85.1) rotate(90)" fill="#231f20"/>
  <rect x="735.17" y="606.76" width="40.84" height="40.84" transform="translate(1382.78 -128.41) rotate(90)" fill="#231f20"/>
  <rect x="735.17" y="563.68" width="40.84" height="40.84" transform="translate(1339.69 -171.49) rotate(90)" fill="#231f20"/>
  <rect x="735.17" y="520.14" width="40.84" height="40.84" transform="translate(1296.16 -215.03) rotate(90)" fill="#231f20"/>
  <rect x="735.17" y="476.61" width="40.84" height="40.84" transform="translate(1252.63 -258.56) rotate(90)" fill="#231f20"/>
  <rect x="735.17" y="434.12" width="40.84" height="40.84" transform="translate(1210.13 -301.05) rotate(90)" fill="#231f20"/>
  <rect x="735.17" y="390.69" width="40.84" height="40.84" transform="translate(1166.7 -344.49) rotate(90)" fill="#231f20"/>
  <rect x="735.17" y="347.25" width="40.84" height="40.84" transform="translate(1123.27 -387.92) rotate(90)" fill="#231f20"/>
  <rect x="735.17" y="304.58" width="40.84" height="40.84" transform="translate(1080.59 -430.59) rotate(90)" fill="#231f20"/>
  <rect x="735.17" y="261.16" width="40.84" height="40.84" transform="translate(1037.17 -474.02) rotate(90)" fill="#231f20"/>
  <rect x="735.17" y="217.73" width="40.84" height="40.84" transform="translate(993.75 -517.44) rotate(90)" fill="#231f20"/>
  <rect x="735.17" y="1.51" width="40.84" height="40.84" transform="translate(777.52 -733.67) rotate(90)" fill="#231f20"/>
  <rect x="735.17" y="45.11" width="40.84" height="40.84" transform="translate(821.12 -690.06) rotate(90)" fill="#231f20"/>
  <rect x="735.17" y="88.71" width="40.84" height="40.84" transform="translate(864.73 -646.46) rotate(90)" fill="#231f20"/>
  <rect x="735.17" y="131.51" width="40.84" height="40.84" transform="translate(907.52 -603.66) rotate(90)" fill="#231f20"/>
  <rect x="735.17" y="174.31" width="40.84" height="40.84" transform="translate(950.32 -560.87) rotate(90)" fill="#231f20"/>
  <rect x="691.87" y="692.93" width="40.84" height="40.84" transform="translate(1425.65 1.06) rotate(90)" fill="#231f20"/>
  <rect x="691.87" y="650.07" width="40.84" height="40.84" transform="translate(1382.79 -41.8) rotate(90)" fill="#231f20"/>
  <rect x="691.87" y="606.76" width="40.84" height="40.84" transform="translate(1339.48 -85.11) rotate(90)" fill="#231f20"/>
  <rect x="691.87" y="563.68" width="40.84" height="40.84" transform="translate(1296.39 -128.2) rotate(90)" fill="#231f20"/>
  <rect x="691.87" y="520.14" width="40.84" height="40.84" transform="translate(1252.86 -171.73) rotate(90)" fill="#231f20"/>
  <rect x="691.87" y="476.61" width="40.84" height="40.84" transform="translate(1209.33 -215.26) rotate(90)" fill="#231f20"/>
  <rect x="691.87" y="434.12" width="40.84" height="40.84" transform="translate(1166.83 -257.75) rotate(90)" fill="#231f20"/>
  <rect x="691.87" y="390.69" width="40.84" height="40.84" transform="translate(1123.4 -301.19) rotate(90)" fill="#231f20"/>
  <rect x="691.87" y="347.25" width="40.84" height="40.84" transform="translate(1079.97 -344.62) rotate(90)" fill="#231f20"/>
  <rect x="691.87" y="304.58" width="40.84" height="40.84" transform="translate(1037.29 -387.29) rotate(90)" fill="#231f20"/>
  <rect x="691.87" y="261.16" width="40.84" height="40.84" transform="translate(993.87 -430.72) rotate(90)" fill="#231f20"/>
  <rect x="691.87" y="217.73" width="40.84" height="40.84" transform="translate(950.45 -474.14) rotate(90)" fill="#231f20"/>
  <rect x="691.87" y="1.51" width="40.84" height="40.84" transform="translate(734.22 -690.37) rotate(90)" fill="#231f20"/>
  <rect x="691.87" y="45.11" width="40.84" height="40.84" transform="translate(777.83 -646.76) rotate(90)" fill="#231f20"/>
  <rect x="691.87" y="88.71" width="40.84" height="40.84" transform="translate(821.43 -603.16) rotate(90)" fill="#231f20"/>
  <rect x="691.87" y="131.51" width="40.84" height="40.84" transform="translate(864.23 -560.36) rotate(90)" fill="#231f20"/>
  <rect x="691.87" y="174.31" width="40.84" height="40.84" transform="translate(907.02 -517.57) rotate(90)" fill="#231f20"/>
  <rect x="648.57" y="692.93" width="40.84" height="40.84" transform="translate(1382.35 44.36) rotate(90)" fill="#231f20"/>
  <rect x="648.57" y="650.07" width="40.84" height="40.84" transform="translate(1339.49 1.5) rotate(90)" fill="#231f20"/>
  <rect x="648.57" y="606.76" width="40.84" height="40.84" transform="translate(1296.18 -41.81) rotate(90)" fill="#231f20"/>
  <rect x="648.57" y="563.68" width="40.84" height="40.84" transform="translate(1253.09 -84.9) rotate(90)" fill="#231f20"/>
  <rect x="648.57" y="520.14" width="40.84" height="40.84" transform="translate(1209.56 -128.43) rotate(90)" fill="#231f20"/>
  <rect x="648.57" y="476.61" width="40.84" height="40.84" transform="translate(1166.03 -171.96) rotate(90)" fill="#231f20"/>
  <rect x="648.57" y="434.12" width="40.84" height="40.84" transform="translate(1123.53 -214.45) rotate(90)" fill="#231f20"/>
  <rect x="648.57" y="390.69" width="40.84" height="40.84" transform="translate(1080.1 -257.89) rotate(90)" fill="#231f20"/>
  <rect x="648.57" y="347.25" width="40.84" height="40.84" transform="translate(1036.67 -301.32) rotate(90)" fill="#231f20"/>
  <rect x="648.57" y="304.58" width="40.84" height="40.84" transform="translate(993.99 -343.99) rotate(90)" fill="#231f20"/>
  <rect x="648.57" y="261.16" width="40.84" height="40.84" transform="translate(950.57 -387.42) rotate(90)" fill="#231f20"/>
  <rect x="648.57" y="217.73" width="40.84" height="40.84" transform="translate(907.15 -430.84) rotate(90)" fill="#231f20"/>
  <rect x="648.57" y="1.51" width="40.84" height="40.84" transform="translate(690.92 -647.07) rotate(90)" fill="#231f20"/>
  <rect x="648.57" y="45.11" width="40.84" height="40.84" transform="translate(734.53 -603.46) rotate(90)" fill="#231f20"/>
  <rect x="648.57" y="88.71" width="40.84" height="40.84" transform="translate(778.13 -559.86) rotate(90)" fill="#231f20"/>
  <rect x="648.57" y="131.51" width="40.84" height="40.84" transform="translate(820.93 -517.06) rotate(90)" fill="#231f20"/>
  <rect x="648.57" y="174.31" width="40.84" height="40.84" transform="translate(863.72 -474.27) rotate(90)" fill="#231f20"/>
  <rect x="605.27" y="692.93" width="40.84" height="40.84" transform="translate(1339.05 87.66) rotate(90)" fill="#231f20"/>
  <rect x="605.27" y="650.07" width="40.84" height="40.84" transform="translate(1296.19 44.8) rotate(90)" fill="#231f20"/>
  <rect x="605.27" y="606.76" width="40.84" height="40.84" transform="translate(1252.88 1.49) rotate(90)" fill="#231f20"/>
  <rect x="605.27" y="563.68" width="40.84" height="40.84" transform="translate(1209.79 -41.6) rotate(90)" fill="#231f20"/>
  <rect x="605.27" y="520.14" width="40.84" height="40.84" transform="translate(1166.26 -85.13) rotate(90)" fill="#231f20"/>
  <rect x="605.27" y="476.61" width="40.84" height="40.84" transform="translate(1122.73 -128.66) rotate(90)" fill="#231f20"/>
  <rect x="605.27" y="434.12" width="40.84" height="40.84" transform="translate(1080.24 -171.15) rotate(90)" fill="#231f20"/>
  <rect x="605.27" y="390.69" width="40.84" height="40.84" transform="translate(1036.8 -214.59) rotate(90)" fill="#231f20"/>
  <rect x="605.27" y="347.25" width="40.84" height="40.84" transform="translate(993.37 -258.02) rotate(90)" fill="#231f20"/>
  <rect x="605.27" y="304.58" width="40.84" height="40.84" transform="translate(950.7 -300.69) rotate(90)" fill="#231f20"/>
  <rect x="605.27" y="261.16" width="40.84" height="40.84" transform="translate(907.27 -344.12) rotate(90)" fill="#231f20"/>
  <rect x="605.27" y="217.73" width="40.84" height="40.84" transform="translate(863.85 -387.54) rotate(90)" fill="#231f20"/>
  <rect x="605.27" y="1.51" width="40.84" height="40.84" transform="translate(647.62 -603.77) rotate(90)" fill="#231f20"/>
  <rect x="605.27" y="45.11" width="40.84" height="40.84" transform="translate(691.23 -560.16) rotate(90)" fill="#231f20"/>
  <rect x="605.27" y="88.71" width="40.84" height="40.84" transform="translate(734.83 -516.56) rotate(90)" fill="#231f20"/>
  <rect x="605.27" y="131.51" width="40.84" height="40.84" transform="translate(777.63 -473.76) rotate(90)" fill="#231f20"/>
  <rect x="605.27" y="174.31" width="40.84" height="40.84" transform="translate(820.42 -430.97) rotate(90)" fill="#231f20"/>
  <rect x="563.01" y="692.93" width="40.84" height="40.84" transform="translate(1296.78 129.93) rotate(90)" fill="#231f20"/>
  <rect x="563.01" y="650.07" width="40.84" height="40.84" transform="translate(1253.92 87.07) rotate(90)" fill="#231f20"/>
  <rect x="563.01" y="606.76" width="40.84" height="40.84" transform="translate(1210.61 43.76) rotate(90)" fill="#231f20"/>
  <rect x="563.01" y="563.68" width="40.84" height="40.84" transform="translate(1167.52 .67) rotate(90)" fill="#231f20"/>
  <rect x="563.01" y="520.14" width="40.84" height="40.84" transform="translate(1123.99 -42.86) rotate(90)" fill="#231f20"/>
  <rect x="563.01" y="476.61" width="40.84" height="40.84" transform="translate(1080.46 -86.39) rotate(90)" fill="#231f20"/>
  <rect x="563.01" y="434.12" width="40.84" height="40.84" transform="translate(1037.97 -128.89) rotate(90)" fill="#231f20"/>
  <rect x="563.01" y="390.69" width="40.84" height="40.84" transform="translate(994.53 -172.32) rotate(90)" fill="#231f20"/>
  <rect x="563.01" y="347.25" width="40.84" height="40.84" transform="translate(951.1 -215.75) rotate(90)" fill="#231f20"/>
  <rect x="563.01" y="304.58" width="40.84" height="40.84" transform="translate(908.43 -258.43) rotate(90)" fill="#231f20"/>
  <rect x="563.01" y="261.16" width="40.84" height="40.84" transform="translate(865 -301.85) rotate(90)" fill="#231f20"/>
  <rect x="563.01" y="217.73" width="40.84" height="40.84" transform="translate(821.58 -345.27) rotate(90)" fill="#231f20"/>
  <rect x="563.01" y="1.51" width="40.84" height="40.84" transform="translate(605.35 -561.5) rotate(90)" fill="#231f20"/>
  <rect x="563.01" y="45.11" width="40.84" height="40.84" transform="translate(648.96 -517.89) rotate(90)" fill="#231f20"/>
  <rect x="563.01" y="88.71" width="40.84" height="40.84" transform="translate(692.56 -474.29) rotate(90)" fill="#231f20"/>
  <rect x="563.01" y="131.51" width="40.84" height="40.84" transform="translate(735.36 -431.49) rotate(90)" fill="#231f20"/>
  <rect x="563.01" y="174.31" width="40.84" height="40.84" transform="translate(778.15 -388.7) rotate(90)" fill="#231f20"/>
  <rect x="519.71" y="692.8" width="40.84" height="40.84" transform="translate(1253.35 173.09) rotate(90)" fill="#231f20"/>
  <rect x="519.71" y="649.94" width="40.84" height="40.84" transform="translate(1210.49 130.23) rotate(90)" fill="#231f20"/>
  <rect x="519.71" y="606.63" width="40.84" height="40.84" transform="translate(1167.18 86.92) rotate(90)" fill="#231f20"/>
  <rect x="519.71" y="563.54" width="40.84" height="40.84" transform="translate(1124.1 43.83) rotate(90)" fill="#231f20"/>
  <rect x="735.17" y="865.11" width="40.84" height="40.84" transform="translate(1641.12 129.94) rotate(90)" fill="#231f20"/>
  <rect x="735.17" y="822.25" width="40.84" height="40.84" transform="translate(1598.26 87.08) rotate(90)" fill="#231f20"/>
  <rect x="735.17" y="778.94" width="40.84" height="40.84" transform="translate(1554.95 43.77) rotate(90)" fill="#231f20"/>
  <rect x="735.17" y="735.86" width="40.84" height="40.84" transform="translate(1511.87 .68) rotate(90)" fill="#231f20"/>
  <rect x="691.87" y="865.11" width="40.84" height="40.84" transform="translate(1597.82 173.24) rotate(90)" fill="#231f20"/>
  <rect x="691.87" y="822.25" width="40.84" height="40.84" transform="translate(1554.96 130.38) rotate(90)" fill="#231f20"/>
  <rect x="691.87" y="778.94" width="40.84" height="40.84" transform="translate(1511.66 87.07) rotate(90)" fill="#231f20"/>
  <rect x="691.87" y="735.86" width="40.84" height="40.84" transform="translate(1468.57 43.98) rotate(90)" fill="#231f20"/>
  <rect x="648.57" y="865.11" width="40.84" height="40.84" transform="translate(1554.53 216.54) rotate(90)" fill="#231f20"/>
  <rect x="648.57" y="822.25" width="40.84" height="40.84" transform="translate(1511.66 173.68) rotate(90)" fill="#231f20"/>
  <rect x="648.57" y="778.94" width="40.84" height="40.84" transform="translate(1468.36 130.37) rotate(90)" fill="#231f20"/>
  <rect x="648.57" y="735.86" width="40.84" height="40.84" transform="translate(1425.27 87.28) rotate(90)" fill="#231f20"/>
  <rect x="605.27" y="865.11" width="40.84" height="40.84" transform="translate(1511.23 259.84) rotate(90)" fill="#231f20"/>
  <rect x="605.27" y="822.25" width="40.84" height="40.84" transform="translate(1468.37 216.98) rotate(90)" fill="#231f20"/>
  <rect x="605.27" y="778.94" width="40.84" height="40.84" transform="translate(1425.06 173.67) rotate(90)" fill="#231f20"/>
  <rect x="605.27" y="735.86" width="40.84" height="40.84" transform="translate(1381.97 130.58) rotate(90)" fill="#231f20"/>
  <rect x="563.01" y="865.11" width="40.84" height="40.84" transform="translate(1468.96 302.1) rotate(90)" fill="#231f20"/>
  <rect x="563.01" y="822.25" width="40.84" height="40.84" transform="translate(1426.1 259.24) rotate(90)" fill="#231f20"/>
  <rect x="563.01" y="778.94" width="40.84" height="40.84" transform="translate(1382.79 215.94) rotate(90)" fill="#231f20"/>
  <rect x="563.01" y="735.86" width="40.84" height="40.84" transform="translate(1339.7 172.85) rotate(90)" fill="#231f20"/>
  <rect x="519.71" y="864.98" width="40.84" height="40.84" transform="translate(1425.53 345.26) rotate(90)" fill="#231f20"/>
  <rect x="519.71" y="822.11" width="40.84" height="40.84" transform="translate(1382.67 302.4) rotate(90)" fill="#231f20"/>
  <rect x="519.71" y="778.81" width="40.84" height="40.84" transform="translate(1339.36 259.1) rotate(90)" fill="#231f20"/>
  <rect x="519.71" y="735.72" width="40.84" height="40.84" transform="translate(1296.27 216.01) rotate(90)" fill="#231f20"/>
  <rect x="476.62" y="735.72" width="40.84" height="40.84" transform="translate(1253.18 259.1) rotate(90)" fill="#231f20"/>
  <rect x="735.17" y="1038.37" width="40.84" height="40.84" transform="translate(1814.39 303.2) rotate(90)" fill="#231f20"/>
  <rect x="779.28" y="1038.37" width="40.84" height="40.84" transform="translate(1858.49 259.09) rotate(90)" fill="#231f20"/>
  <rect x="821.77" y="1038.37" width="40.84" height="40.84" transform="translate(1900.98 216.6) rotate(90)" fill="#231f20"/>
  <rect x="864.53" y="1038.24" width="40.84" height="40.84" transform="translate(1943.61 173.7) rotate(90)" fill="#231f20"/>
  <rect x="907.86" y="1038.58" width="40.84" height="40.84" transform="translate(1987.28 130.71) rotate(90)" fill="#231f20"/>
  <rect x="951" y="1038.37" width="40.84" height="40.84" transform="translate(2030.21 87.37) rotate(90)" fill="#231f20"/>
  <rect x="994.97" y="1038.37" width="40.84" height="40.84" transform="translate(2074.18 43.4) rotate(90)" fill="#231f20"/>
  <rect x="1037.19" y="1038.37" width="40.84" height="40.84" transform="translate(2116.41 1.18) rotate(90)" fill="#231f20"/>
  <rect x="1037.19" y="994.17" width="40.84" height="40.84" transform="translate(2072.2 -43.03) rotate(90)" fill="#231f20"/>
  <rect x="1037.19" y="951.86" width="40.84" height="40.84" transform="translate(2029.9 -85.33) rotate(90)" fill="#231f20"/>
  <rect x="1037.19" y="909.19" width="40.84" height="40.84" transform="translate(1987.22 -128) rotate(90)" fill="#231f20"/>
  <rect x="1037.19" y="864.98" width="40.84" height="40.84" transform="translate(1943.01 -172.21) rotate(90)" fill="#231f20"/>
  <rect x="1037.19" y="822.49" width="40.84" height="40.84" transform="translate(1900.53 -214.7) rotate(90)" fill="#231f20"/>
  <rect x="907.86" y="823" width="40.84" height="40.84" transform="translate(1771.7 -84.87) rotate(90)" fill="#231f20"/>
  <rect x="1037.19" y="779.14" width="40.84" height="40.84" transform="translate(1857.18 -258.05) rotate(90)" fill="#231f20"/>
  <rect x="735.17" y="995.51" width="40.84" height="40.84" transform="translate(1771.53 260.34) rotate(90)" fill="#231f20"/>
  <rect x="735.17" y="952.2" width="40.84" height="40.84" transform="translate(1728.22 217.03) rotate(90)" fill="#231f20"/>
  <rect x="735.17" y="909.12" width="40.84" height="40.84" transform="translate(1685.13 173.95) rotate(90)" fill="#231f20"/>
  <rect x="778.47" y="865.56" width="40.84" height="40.84" transform="translate(1684.87 87.09) rotate(90)" fill="#231f20"/>
  <rect x="821.14" y="865.52" width="40.84" height="40.84" transform="translate(1727.5 44.38) rotate(90)" fill="#231f20"/>
  <rect x="778.47" y="952.65" width="40.84" height="40.84" transform="translate(1771.96 174.18) rotate(90)" fill="#231f20"/>
  <rect x="778.47" y="909.57" width="40.84" height="40.84" transform="translate(1728.88 131.09) rotate(90)" fill="#231f20"/>
  <rect x="821.14" y="909.53" width="40.84" height="40.84" transform="translate(1771.51 88.38) rotate(90)" fill="#231f20"/>
  <rect x="691.87" y="1038.37" width="40.84" height="40.84" transform="translate(1771.09 346.5) rotate(90)" fill="#231f20"/>
  <rect x="691.87" y="995.51" width="40.84" height="40.84" transform="translate(1728.23 303.64) rotate(90)" fill="#231f20"/>
  <rect x="691.87" y="952.2" width="40.84" height="40.84" transform="translate(1684.92 260.33) rotate(90)" fill="#231f20"/>
  <rect x="691.87" y="909.12" width="40.84" height="40.84" transform="translate(1641.83 217.24) rotate(90)" fill="#231f20"/>
  <rect x="648.57" y="1038.37" width="40.84" height="40.84" transform="translate(1727.79 389.8) rotate(90)" fill="#231f20"/>
  <rect x="648.57" y="995.51" width="40.84" height="40.84" transform="translate(1684.93 346.94) rotate(90)" fill="#231f20"/>
  <rect x="648.57" y="952.2" width="40.84" height="40.84" transform="translate(1641.62 303.63) rotate(90)" fill="#231f20"/>
  <rect x="648.57" y="909.12" width="40.84" height="40.84" transform="translate(1598.53 260.54) rotate(90)" fill="#231f20"/>
  <rect x="605.27" y="1038.37" width="40.84" height="40.84" transform="translate(1684.49 433.1) rotate(90)" fill="#231f20"/>
  <rect x="605.27" y="995.51" width="40.84" height="40.84" transform="translate(1641.63 390.24) rotate(90)" fill="#231f20"/>
  <rect x="605.27" y="952.2" width="40.84" height="40.84" transform="translate(1598.32 346.93) rotate(90)" fill="#231f20"/>
  <rect x="605.27" y="909.12" width="40.84" height="40.84" transform="translate(1555.23 303.84) rotate(90)" fill="#231f20"/>
  <rect x="563.01" y="1038.37" width="40.84" height="40.84" transform="translate(1642.22 475.37) rotate(90)" fill="#231f20"/>
  <rect x="563.01" y="995.51" width="40.84" height="40.84" transform="translate(1599.36 432.51) rotate(90)" fill="#231f20"/>
  <rect x="563.01" y="952.2" width="40.84" height="40.84" transform="translate(1556.05 389.2) rotate(90)" fill="#231f20"/>
  <rect x="563.01" y="909.12" width="40.84" height="40.84" transform="translate(1512.96 346.11) rotate(90)" fill="#231f20"/>
  <rect x="519.71" y="1038.24" width="40.84" height="40.84" transform="translate(1598.79 518.53) rotate(90)" fill="#231f20"/>
  <rect x="519.71" y="995.38" width="40.84" height="40.84" transform="translate(1555.93 475.67) rotate(90)" fill="#231f20"/>
  <rect x="519.71" y="952.07" width="40.84" height="40.84" transform="translate(1512.62 432.36) rotate(90)" fill="#231f20"/>
  <rect x="519.71" y="908.98" width="40.84" height="40.84" transform="translate(1469.54 389.27) rotate(90)" fill="#231f20"/>
  <rect x="519.71" y="520.01" width="40.84" height="40.84" transform="translate(1080.56 .3) rotate(90)" fill="#231f20"/>
  <rect x="519.71" y="476.48" width="40.84" height="40.84" transform="translate(1037.03 -43.23) rotate(90)" fill="#231f20"/>
  <rect x="519.71" y="433.98" width="40.84" height="40.84" transform="translate(994.54 -85.73) rotate(90)" fill="#231f20"/>
  <rect x="519.71" y="390.55" width="40.84" height="40.84" transform="translate(951.1 -129.16) rotate(90)" fill="#231f20"/>
  <rect x="519.71" y="347.12" width="40.84" height="40.84" transform="translate(907.67 -172.59) rotate(90)" fill="#231f20"/>
  <rect x="519.71" y="304.44" width="40.84" height="40.84" transform="translate(865 -215.27) rotate(90)" fill="#231f20"/>
  <rect x="519.71" y="261.02" width="40.84" height="40.84" transform="translate(821.57 -258.69) rotate(90)" fill="#231f20"/>
  <rect x="519.71" y="217.6" width="40.84" height="40.84" transform="translate(778.15 -302.11) rotate(90)" fill="#231f20"/>
  <rect x="519.71" y="1.37" width="40.84" height="40.84" transform="translate(561.93 -518.34) rotate(90)" fill="#231f20"/>
  <rect x="519.71" y="44.98" width="40.84" height="40.84" transform="translate(605.53 -474.73) rotate(90)" fill="#231f20"/>
  <rect x="519.71" y="88.58" width="40.84" height="40.84" transform="translate(649.13 -431.13) rotate(90)" fill="#231f20"/>
  <rect x="519.71" y="131.38" width="40.84" height="40.84" transform="translate(691.93 -388.33) rotate(90)" fill="#231f20"/>
  <rect x="519.71" y="174.17" width="40.84" height="40.84" transform="translate(734.73 -345.54) rotate(90)" fill="#231f20"/>
  <rect x="476.62" y="693" width="40.84" height="40.84" transform="translate(1210.46 216.38) rotate(90)" fill="#231f20"/>
  <rect x="476.62" y="650.13" width="40.84" height="40.84" transform="translate(1167.59 173.52) rotate(90)" fill="#231f20"/>
  <rect x="476.62" y="606.83" width="40.84" height="40.84" transform="translate(1124.29 130.21) rotate(90)" fill="#231f20"/>
  <rect x="476.62" y="563.74" width="40.84" height="40.84" transform="translate(1081.2 87.12) rotate(90)" fill="#231f20"/>
  <rect x="476.62" y="520.21" width="40.84" height="40.84" transform="translate(1037.67 43.59) rotate(90)" fill="#231f20"/>
  <rect x="476.62" y="476.68" width="40.84" height="40.84" transform="translate(994.14 .06) rotate(90)" fill="#231f20"/>
  <rect x="476.62" y="434.18" width="40.84" height="40.84" transform="translate(951.64 -42.43) rotate(90)" fill="#231f20"/>
  <rect x="476.62" y="390.75" width="40.84" height="40.84" transform="translate(908.21 -85.87) rotate(90)" fill="#231f20"/>
  <rect x="476.62" y="347.32" width="40.84" height="40.84" transform="translate(864.78 -129.3) rotate(90)" fill="#231f20"/>
  <rect x="476.62" y="304.64" width="40.84" height="40.84" transform="translate(822.1 -171.97) rotate(90)" fill="#231f20"/>
  <rect x="476.62" y="261.22" width="40.84" height="40.84" transform="translate(778.68 -215.4) rotate(90)" fill="#231f20"/>
  <rect x="476.62" y="217.8" width="40.84" height="40.84" transform="translate(735.25 -258.82) rotate(90)" fill="#231f20"/>
  <rect x="476.62" y="1.57" width="40.84" height="40.84" transform="translate(519.03 -475.05) rotate(90)" fill="#231f20"/>
  <rect x="476.62" y="45.17" width="40.84" height="40.84" transform="translate(562.63 -431.44) rotate(90)" fill="#231f20"/>
  <rect x="476.62" y="88.78" width="40.84" height="40.84" transform="translate(606.24 -387.84) rotate(90)" fill="#231f20"/>
  <rect x="476.62" y="131.57" width="40.84" height="40.84" transform="translate(649.03 -345.04) rotate(90)" fill="#231f20"/>
  <rect x="476.62" y="174.37" width="40.84" height="40.84" transform="translate(691.83 -302.25) rotate(90)" fill="#231f20"/>
  <rect x="433.3" y="692.96" width="40.84" height="40.84" transform="translate(1167.11 259.66) rotate(90)" fill="#231f20"/>
  <rect x="390.32" y="692.96" width="40.84" height="40.84" transform="translate(1124.12 302.64) rotate(90)" fill="#231f20"/>
  <rect x="346.87" y="692.96" width="40.84" height="40.84" transform="translate(1080.68 346.09) rotate(90)" fill="#231f20"/>
  <rect x="44.5" y="735.86" width="40.84" height="40.84" transform="translate(821.2 691.36) rotate(90)" fill="#231f20"/>
  <rect x=".89" y="735.86" width="40.84" height="40.84" transform="translate(777.59 734.97) rotate(90)" fill="#231f20"/>
  <rect x=".89" y="994.98" width="40.84" height="40.84" transform="translate(1036.71 994.09) rotate(90)" fill="#231f20"/>
  <rect x="88.11" y="735.86" width="40.84" height="40.84" transform="translate(864.8 647.75) rotate(90)" fill="#231f20"/>
  <rect x="130.96" y="735.86" width="40.84" height="40.84" transform="translate(907.65 604.9) rotate(90)" fill="#231f20"/>
  <rect x="173.81" y="735.86" width="40.84" height="40.84" transform="translate(950.51 562.05) rotate(90)" fill="#231f20"/>
  <rect x="304.02" y="735.86" width="40.84" height="40.84" transform="translate(1080.72 431.84) rotate(90)" fill="#231f20"/>
  <rect x="346.87" y="735.86" width="40.84" height="40.84" transform="translate(1123.57 388.98) rotate(90)" fill="#231f20"/>
  <rect x="304.02" y="692.93" width="40.84" height="40.84" transform="translate(1037.79 388.91) rotate(90)" fill="#231f20"/>
  <rect x="433.3" y="650.1" width="40.84" height="40.84" transform="translate(1124.25 216.8) rotate(90)" fill="#231f20"/>
  <rect x="433.3" y="606.79" width="40.84" height="40.84" transform="translate(1080.94 173.49) rotate(90)" fill="#231f20"/>
  <rect x="433.3" y="563.71" width="40.84" height="40.84" transform="translate(1037.85 130.41) rotate(90)" fill="#231f20"/>
  <rect x="433.3" y="520.18" width="40.84" height="40.84" transform="translate(994.32 86.88) rotate(90)" fill="#231f20"/>
  <rect x="433.3" y="476.64" width="40.84" height="40.84" transform="translate(950.79 43.34) rotate(90)" fill="#231f20"/>
  <rect x="389.98" y="606.79" width="40.84" height="40.84" transform="translate(1037.62 216.81) rotate(90)" fill="#231f20"/>
  <rect x="389.98" y="563.71" width="40.84" height="40.84" transform="translate(994.53 173.73) rotate(90)" fill="#231f20"/>
  <rect x="389.98" y="520.18" width="40.84" height="40.84" transform="translate(951 130.19) rotate(90)" fill="#231f20"/>
  <rect x="389.98" y="476.64" width="40.84" height="40.84" transform="translate(907.47 86.66) rotate(90)" fill="#231f20"/>
  <rect x="389.98" y="433.52" width="40.84" height="40.84" transform="translate(864.35 43.54) rotate(90)" fill="#231f20"/>
  <rect x="389.98" y="389.99" width="40.84" height="40.84" transform="translate(820.81 0) rotate(90)" fill="#231f20"/>
  <rect x="389.98" y="347.25" width="40.84" height="40.84" transform="translate(778.08 -42.73) rotate(90)" fill="#231f20"/>
  <rect x="346.67" y="520.18" width="40.84" height="40.84" transform="translate(907.68 173.51) rotate(90)" fill="#231f20"/>
  <rect x="346.67" y="476.64" width="40.84" height="40.84" transform="translate(864.15 129.98) rotate(90)" fill="#231f20"/>
  <rect x="130.96" y="433.91" width="40.84" height="40.84" transform="translate(605.71 302.95) rotate(90)" fill="#231f20"/>
  <rect x="88.11" y="433.91" width="40.84" height="40.84" transform="translate(562.86 345.81) rotate(90)" fill="#231f20"/>
  <rect x="173.81" y="433.91" width="40.84" height="40.84" transform="translate(648.56 260.1) rotate(90)" fill="#231f20"/>
  <rect x="130.96" y="390.38" width="40.84" height="40.84" transform="translate(562.18 259.42) rotate(90)" fill="#231f20"/>
  <rect x="433.3" y="434.15" width="40.84" height="40.84" transform="translate(908.29 .85) rotate(90)" fill="#231f20"/>
  <rect x="433.3" y="390.72" width="40.84" height="40.84" transform="translate(864.86 -42.58) rotate(90)" fill="#231f20"/>
  <rect x="433.3" y="347.28" width="40.84" height="40.84" transform="translate(821.43 -86.02) rotate(90)" fill="#231f20"/>
  <rect x="433.3" y="304.61" width="40.84" height="40.84" transform="translate(778.75 -128.69) rotate(90)" fill="#231f20"/>
  <rect x="433.3" y="261.19" width="40.84" height="40.84" transform="translate(735.33 -172.11) rotate(90)" fill="#231f20"/>
  <rect x="433.3" y="217.76" width="40.84" height="40.84" transform="translate(691.91 -215.54) rotate(90)" fill="#231f20"/>
  <rect x="433.3" y="1.54" width="40.84" height="40.84" transform="translate(475.68 -431.76) rotate(90)" fill="#231f20"/>
  <rect x="433.3" y="45.14" width="40.84" height="40.84" transform="translate(519.28 -388.16) rotate(90)" fill="#231f20"/>
  <rect x="389.98" y="1.54" width="40.84" height="40.84" transform="translate(432.37 -388.44) rotate(90)" fill="#231f20"/>
  <rect x="346.67" y="1.54" width="40.84" height="40.84" transform="translate(389.05 -345.13) rotate(90)" fill="#231f20"/>
  <rect x="389.98" y="45.15" width="40.84" height="40.84" transform="translate(475.97 -344.84) rotate(90)" fill="#231f20"/>
  <rect x="131.15" y="45.15" width="40.84" height="40.84" transform="translate(217.14 -86) rotate(90)" fill="#231f20"/>
  <rect x="433.3" y="88.75" width="40.84" height="40.84" transform="translate(562.89 -344.55) rotate(90)" fill="#231f20"/>
  <rect x="433.3" y="131.54" width="40.84" height="40.84" transform="translate(605.68 -301.76) rotate(90)" fill="#231f20"/>
  <rect x="433.3" y="174.34" width="40.84" height="40.84" transform="translate(648.48 -258.96) rotate(90)" fill="#231f20"/>
  <rect x="389.98" y="131.54" width="40.84" height="40.84" transform="translate(562.37 -258.44) rotate(90)" fill="#231f20"/>
  <rect x="389.98" y="174.34" width="40.84" height="40.84" transform="translate(605.16 -215.64) rotate(90)" fill="#231f20"/>
  <rect x="346.67" y="174.31" width="40.84" height="40.84" transform="translate(561.82 -172.36) rotate(90)" fill="#231f20"/>
  <rect x="347.46" y="217.73" width="40.84" height="40.84" transform="translate(606.03 -129.73) rotate(90)" fill="#231f20"/>
  <rect x="304.29" y="174.43" width="40.84" height="40.84" transform="translate(519.56 -129.86) rotate(90)" fill="#231f20"/>
  <rect x="261.02" y="174.43" width="40.84" height="40.84" transform="translate(476.29 -86.59) rotate(90)" fill="#231f20"/>
  <rect x="304.29" y="217.86" width="40.84" height="40.84" transform="translate(562.99 -86.43) rotate(90)" fill="#231f20"/>
  <rect x="304.29" y="261.19" width="40.84" height="40.84" transform="translate(606.32 -43.1) rotate(90)" fill="#231f20"/>
  <rect x="346.67" y="261.19" width="40.84" height="40.84" transform="translate(648.7 -85.48) rotate(90)" fill="#231f20"/>
  <rect x="346.67" y="304.61" width="40.84" height="40.84" transform="translate(692.12 -42.05) rotate(90)" fill="#231f20"/>
  <rect x="304.29" y="304.61" width="40.84" height="40.84" transform="translate(649.74 .32) rotate(90)" fill="#231f20"/>
  <rect x="260.72" y="304.61" width="40.84" height="40.84" transform="translate(606.18 43.89) rotate(90)" fill="#231f20"/>
  <rect x="217.72" y="304.61" width="40.84" height="40.84" transform="translate(563.18 86.89) rotate(90)" fill="#231f20"/>
  <rect x="217.72" y="347.32" width="40.84" height="40.84" transform="translate(605.88 129.59) rotate(90)" fill="#231f20"/>
  <rect x="260.72" y="347.32" width="40.84" height="40.84" transform="translate(648.88 86.59) rotate(90)" fill="#231f20"/>
  <rect x="304.29" y="347.32" width="40.84" height="40.84" transform="translate(692.45 43.03) rotate(90)" fill="#231f20"/>
  <rect x="304.29" y="390.72" width="40.84" height="40.84" transform="translate(735.85 86.43) rotate(90)" fill="#231f20"/>
  <rect x="260.87" y="390.72" width="40.84" height="40.84" transform="translate(692.43 129.85) rotate(90)" fill="#231f20"/>
  <rect x="217.72" y="390.72" width="40.84" height="40.84" transform="translate(649.28 172.99) rotate(90)" fill="#231f20"/>
  <rect x="260.72" y="217.86" width="40.84" height="40.84" transform="translate(519.42 -42.87) rotate(90)" fill="#231f20"/>
  <rect x="260.87" y="261.28" width="40.84" height="40.84" transform="translate(562.99 .41) rotate(90)" fill="#231f20"/>
  <rect x="217.72" y="261.28" width="40.84" height="40.84" transform="translate(519.85 43.56) rotate(90)" fill="#231f20"/>
  <rect x="1037.19" y="735.79" width="40.84" height="40.84" transform="translate(1813.83 -301.4) rotate(90)" fill="#231f20"/>
  <rect x="1037.19" y="520.14" width="40.84" height="40.84" transform="translate(1598.18 -517.05) rotate(90)" fill="#231f20"/>
  <rect x="994.43" y="261.16" width="40.84" height="40.84" transform="translate(1296.43 -733.28) rotate(90)" fill="#231f20"/>
  <rect x="273.79" y="145.27" width="13.39" height="13.39" transform="translate(432.45 -128.52) rotate(90)" fill="#231f20"/>
  <rect x="271.28" y="102.5" width="13.39" height="13.39" transform="translate(387.17 -168.77) rotate(90)" fill="#231f20"/>
  <rect x="231.45" y="102.5" width="13.39" height="13.39" transform="translate(347.34 -128.94) rotate(90)" fill="#231f20"/>
  <rect x="229.78" y="58.87" width="13.39" height="13.39" transform="translate(302.05 -170.91) rotate(90)" fill="#231f20"/>
  <rect x="189.88" y="58.87" width="13.39" height="13.39" transform="translate(262.15 -131.01) rotate(90)" fill="#231f20"/>
  <rect x="189.88" y="15.32" width="13.39" height="13.39" transform="translate(218.6 -174.56) rotate(90)" fill="#231f20"/>
  <rect x="144.87" y="15.32" width="13.39" height="13.39" transform="translate(173.59 -129.55) rotate(90)" fill="#231f20"/>
  <rect x="101.57" y="15.32" width="13.39" height="13.39" transform="translate(130.29 -86.25) rotate(90)" fill="#231f20"/>
  <rect x="101.57" y="58.87" width="13.39" height="13.39" transform="translate(173.84 -42.7) rotate(90)" fill="#231f20"/>
  <rect x="13.26" y="15.32" width="13.39" height="13.39" transform="translate(41.98 2.06) rotate(90)" fill="#231f20"/>
  <rect x="13.26" y="58.87" width="13.39" height="13.39" transform="translate(85.53 45.61) rotate(90)" fill="#231f20"/>
  <rect x="13.26" y="102.5" width="13.39" height="13.39" transform="translate(129.16 89.24) rotate(90)" fill="#231f20"/>
  <rect x="58.27" y="102.5" width="13.39" height="13.39" transform="translate(174.17 44.23) rotate(90)" fill="#231f20"/>
  <rect x="229.78" y="15.32" width="13.39" height="13.39" transform="translate(258.5 -214.46) rotate(90)" fill="#231f20"/>
  <rect x="231.45" y="145.27" width="13.39" height="13.39" transform="translate(390.11 -86.18) rotate(90)" fill="#231f20"/>
  <rect x="231.45" y="188.16" width="13.39" height="13.39" transform="translate(433 -43.29) rotate(90)" fill="#231f20"/>
  <rect x="231.45" y="231.58" width="13.39" height="13.39" transform="translate(476.42 .13) rotate(90)" fill="#231f20"/>
  <rect x="317.07" y="145.27" width="13.39" height="13.39" transform="translate(475.73 -171.81) rotate(90)" fill="#231f20"/>
  <rect x="360.39" y="145.27" width="13.39" height="13.39" transform="translate(519.05 -215.12) rotate(90)" fill="#231f20"/>
  <rect x="360.39" y="447.91" width="13.39" height="13.39" transform="translate(821.69 87.52) rotate(90)" fill="#231f20"/>
  <rect x="358.6" y="577.42" width="13.39" height="13.39" transform="translate(949.42 218.82) rotate(90)" fill="#231f20"/>
  <rect x="358.6" y="619.91" width="13.39" height="13.39" transform="translate(991.91 261.32) rotate(90)" fill="#231f20"/>
  <rect x="273.55" y="490.4" width="13.39" height="13.39" transform="translate(777.34 216.85) rotate(90)" fill="#231f20"/>
  <rect x="232.67" y="490.4" width="13.39" height="13.39" transform="translate(736.46 257.73) rotate(90)" fill="#231f20"/>
  <rect x="187.53" y="490.4" width="13.39" height="13.39" transform="translate(691.33 302.87) rotate(90)" fill="#231f20"/>
  <rect x="144.68" y="490.4" width="13.39" height="13.39" transform="translate(648.47 345.72) rotate(90)" fill="#231f20"/>
  <rect x="100.24" y="490.4" width="13.39" height="13.39" transform="translate(604.03 390.16) rotate(90)" fill="#231f20"/>
  <rect x="57.02" y="490.4" width="13.39" height="13.39" transform="translate(560.81 433.38) rotate(90)" fill="#231f20"/>
  <rect x="13.79" y="490.4" width="13.39" height="13.39" transform="translate(517.59 476.61) rotate(90)" fill="#231f20"/>
  <rect x="13.79" y="533.9" width="13.39" height="13.39" transform="translate(561.09 520.11) rotate(90)" fill="#231f20"/>
  <rect x="187.53" y="403.58" width="13.39" height="13.39" transform="translate(604.51 216.05) rotate(90)" fill="#231f20"/>
  <rect x="187.53" y="361.04" width="13.39" height="13.39" transform="translate(561.97 173.51) rotate(90)" fill="#231f20"/>
  <rect x="187.53" y="317.11" width="13.39" height="13.39" transform="translate(518.04 129.58) rotate(90)" fill="#231f20"/>
  <rect x="187.53" y="275" width="13.39" height="13.39" transform="translate(475.93 87.47) rotate(90)" fill="#231f20"/>
  <rect x="269.22" y="706.69" width="13.39" height="13.39" transform="translate(989.3 437.47) rotate(90)" fill="#231f20"/>
  <rect x="269.22" y="749.48" width="13.39" height="13.39" transform="translate(1032.1 480.26) rotate(90)" fill="#231f20"/>
  <rect x="231.57" y="706.69" width="13.39" height="13.39" transform="translate(951.65 475.12) rotate(90)" fill="#231f20"/>
  <rect x="231.57" y="749.58" width="13.39" height="13.39" transform="translate(994.54 518.01) rotate(90)" fill="#231f20"/>
  <rect x="231.57" y="794.2" width="13.39" height="13.39" transform="translate(1039.17 562.63) rotate(90)" fill="#231f20"/>
  <rect x="231.57" y="837.75" width="13.39" height="13.39" transform="translate(1082.71 606.18) rotate(90)" fill="#231f20"/>
  <rect x="231.57" y="881.29" width="13.39" height="13.39" transform="translate(1126.26 649.72) rotate(90)" fill="#231f20"/>
  <rect x="231.57" y="923.76" width="13.39" height="13.39" transform="translate(1168.73 692.19) rotate(90)" fill="#231f20"/>
  <rect x="231.57" y="966.23" width="13.39" height="13.39" transform="translate(1211.2 734.66) rotate(90)" fill="#231f20"/>
  <rect x="231.57" y="1008.7" width="13.39" height="13.39" transform="translate(1253.67 777.13) rotate(90)" fill="#231f20"/>
  <rect x="275.92" y="1008.7" width="13.39" height="13.39" transform="translate(1298.02 732.79) rotate(90)" fill="#231f20"/>
  <rect x="317.74" y="1008.7" width="13.39" height="13.39" transform="translate(1339.84 690.96) rotate(90)" fill="#231f20"/>
  <rect x="317.74" y="1054.45" width="13.39" height="13.39" transform="translate(1385.59 736.71) rotate(90)" fill="#231f20"/>
  <rect x="362.5" y="1008.7" width="13.39" height="13.39" transform="translate(1384.59 646.21) rotate(90)" fill="#231f20"/>
  <rect x="362.5" y="966.23" width="13.39" height="13.39" transform="translate(1342.12 603.74) rotate(90)" fill="#231f20"/>
  <rect x="404.46" y="1008.7" width="13.39" height="13.39" transform="translate(1426.55 604.25) rotate(90)" fill="#231f20"/>
  <rect x="404.46" y="965.79" width="13.39" height="13.39" transform="translate(1383.64 561.34) rotate(90)" fill="#231f20"/>
  <rect x="447.13" y="965.79" width="13.39" height="13.39" transform="translate(1426.31 518.66) rotate(90)" fill="#231f20"/>
  <rect x="447.13" y="1008.7" width="13.39" height="13.39" transform="translate(1469.23 561.58) rotate(90)" fill="#231f20"/>
  <rect x="490.16" y="1008.7" width="13.39" height="13.39" transform="translate(1512.26 518.55) rotate(90)" fill="#231f20"/>
  <rect x="793" y="1009.23" width="13.39" height="13.39" transform="translate(1815.63 216.23) rotate(90)" fill="#231f20"/>
  <rect x="835.5" y="966.37" width="13.39" height="13.39" transform="translate(1815.26 130.88) rotate(90)" fill="#231f20"/>
  <rect x="793" y="836.51" width="13.39" height="13.39" transform="translate(1642.91 43.51) rotate(90)" fill="#231f20"/>
  <rect x="836.48" y="836.51" width="13.39" height="13.39" transform="translate(1686.39 .03) rotate(90)" fill="#231f20"/>
  <rect x="878.26" y="836.38" width="13.39" height="13.39" transform="translate(1728.03 -41.88) rotate(90)" fill="#231f20"/>
  <rect x="964.72" y="836.51" width="13.39" height="13.39" transform="translate(1814.63 -128.21) rotate(90)" fill="#231f20"/>
  <rect x="964.72" y="792.87" width="13.39" height="13.39" transform="translate(1770.98 -171.86) rotate(90)" fill="#231f20"/>
  <rect x="1008.15" y="792.87" width="13.39" height="13.39" transform="translate(1814.41 -215.29) rotate(90)" fill="#231f20"/>
  <rect x="1008.15" y="749.52" width="13.39" height="13.39" transform="translate(1771.06 -258.64) rotate(90)" fill="#231f20"/>
  <rect x="964.72" y="749.52" width="13.39" height="13.39" transform="translate(1727.63 -215.21) rotate(90)" fill="#231f20"/>
  <rect x="921.59" y="749.72" width="13.39" height="13.39" transform="translate(1684.7 -171.87) rotate(90)" fill="#231f20"/>
  <rect x="878.26" y="749.38" width="13.39" height="13.39" transform="translate(1641.03 -128.88) rotate(90)" fill="#231f20"/>
  <rect x="835.5" y="749.52" width="13.39" height="13.39" transform="translate(1598.4 -85.98) rotate(90)" fill="#231f20"/>
  <rect x="792.2" y="749.52" width="13.39" height="13.39" transform="translate(1555.11 -42.68) rotate(90)" fill="#231f20"/>
  <rect x="792.2" y="793.02" width="13.39" height="13.39" transform="translate(1598.6 .82) rotate(90)" fill="#231f20"/>
  <rect x="490.16" y="965.79" width="13.39" height="13.39" transform="translate(1469.34 475.63) rotate(90)" fill="#231f20"/>
  <rect x="490.16" y="922.84" width="13.39" height="13.39" transform="translate(1426.39 432.68) rotate(90)" fill="#231f20"/>
  <rect x="490.16" y="878.83" width="13.39" height="13.39" transform="translate(1382.39 388.68) rotate(90)" fill="#231f20"/>
  <rect x="490.16" y="835.97" width="13.39" height="13.39" transform="translate(1339.53 345.81) rotate(90)" fill="#231f20"/>
  <rect x="490.16" y="792.66" width="13.39" height="13.39" transform="translate(1296.22 302.51) rotate(90)" fill="#231f20"/>
  <rect x="317.74" y="792.66" width="13.39" height="13.39" transform="translate(1123.8 474.92) rotate(90)" fill="#231f20"/>
  <rect x="360.6" y="792.66" width="13.39" height="13.39" transform="translate(1166.65 432.07) rotate(90)" fill="#231f20"/>
  <rect x="446.98" y="749.48" width="13.39" height="13.39" transform="translate(1209.85 302.51) rotate(90)" fill="#231f20"/>
  <rect x="403.71" y="749.48" width="13.39" height="13.39" transform="translate(1166.58 345.78) rotate(90)" fill="#231f20"/>
  <rect x="403.71" y="663.79" width="13.39" height="13.39" transform="translate(1080.9 260.09) rotate(90)" fill="#231f20"/>
  <rect x="275.92" y="1054.45" width="13.39" height="13.39" transform="translate(1343.76 778.53) rotate(90)" fill="#231f20"/>
  <rect x="188.58" y="1008.7" width="13.39" height="13.39" transform="translate(1210.68 820.12) rotate(90)" fill="#231f20"/>
  <rect x="188.58" y="1052.92" width="13.39" height="13.39" transform="translate(1254.89 864.34) rotate(90)" fill="#231f20"/>
  <rect x="231.57" y="1052.92" width="13.39" height="13.39" transform="translate(1297.88 821.35) rotate(90)" fill="#231f20"/>
  <rect x="144.68" y="1008.7" width="13.39" height="13.39" transform="translate(1166.78 864.02) rotate(90)" fill="#231f20"/>
  <rect x="101.83" y="1008.7" width="13.39" height="13.39" transform="translate(1123.93 906.87) rotate(90)" fill="#231f20"/>
  <rect x="101.83" y="1052.92" width="13.39" height="13.39" transform="translate(1168.14 951.09) rotate(90)" fill="#231f20"/>
  <rect x="58.22" y="1008.7" width="13.39" height="13.39" transform="translate(1080.32 950.48) rotate(90)" fill="#231f20"/>
  <rect x="14.61" y="966.23" width="13.39" height="13.39" transform="translate(994.24 951.62) rotate(90)" fill="#231f20"/>
  <rect x="187.53" y="706.69" width="13.39" height="13.39" transform="translate(907.61 519.16) rotate(90)" fill="#231f20"/>
  <rect x="146.02" y="706.66" width="13.39" height="13.39" transform="translate(866.07 560.64) rotate(90)" fill="#231f20"/>
  <rect x="101.83" y="706.66" width="13.39" height="13.39" transform="translate(821.88 604.83) rotate(90)" fill="#231f20"/>
  <rect x="58.22" y="706.66" width="13.39" height="13.39" transform="translate(778.27 648.43) rotate(90)" fill="#231f20"/>
  <rect x="11.16" y="706.66" width="13.39" height="13.39" transform="translate(731.21 695.5) rotate(90)" fill="#231f20"/>
  <rect x="14.61" y="794.62" width="13.39" height="13.39" transform="translate(822.63 780.01) rotate(90)" fill="#231f20"/>
  <rect x="58.22" y="794.62" width="13.39" height="13.39" transform="translate(866.24 736.4) rotate(90)" fill="#231f20"/>
  <rect x="101.83" y="794.62" width="13.39" height="13.39" transform="translate(909.85 692.79) rotate(90)" fill="#231f20"/>
  <rect x="146.02" y="794.62" width="13.39" height="13.39" transform="translate(954.04 648.6) rotate(90)" fill="#231f20"/>
  <rect x="146.02" y="837.75" width="13.39" height="13.39" transform="translate(997.16 691.73) rotate(90)" fill="#231f20"/>
  <rect x="101.83" y="879.95" width="13.39" height="13.39" transform="translate(995.17 778.12) rotate(90)" fill="#231f20"/>
  <rect x="101.83" y="923.13" width="13.39" height="13.39" transform="translate(1038.35 821.3) rotate(90)" fill="#231f20"/>
  <rect x="101.83" y="966.23" width="13.39" height="13.39" transform="translate(1081.46 864.4) rotate(90)" fill="#231f20"/>
  <rect x="58.22" y="966.23" width="13.39" height="13.39" transform="translate(1037.85 908.01) rotate(90)" fill="#231f20"/>
  <rect x="188.79" y="794.62" width="13.39" height="13.39" transform="translate(996.81 605.83) rotate(90)" fill="#231f20"/>
  <rect x="188.79" y="837.75" width="13.39" height="13.39" transform="translate(1039.94 648.95) rotate(90)" fill="#231f20"/>
  <rect x="188.79" y="881.29" width="13.39" height="13.39" transform="translate(1083.48 692.5) rotate(90)" fill="#231f20"/>
  <rect x="188.79" y="923.76" width="13.39" height="13.39" transform="translate(1125.95 734.97) rotate(90)" fill="#231f20"/>
  <rect x="188.79" y="966.23" width="13.39" height="13.39" transform="translate(1168.42 777.44) rotate(90)" fill="#231f20"/>
  <rect x="273.55" y="447.91" width="13.39" height="13.39" transform="translate(734.85 174.36) rotate(90)" fill="#231f20"/>
  <rect x="232.67" y="447.91" width="13.39" height="13.39" transform="translate(693.97 215.24) rotate(90)" fill="#231f20"/>
  <rect x="317.66" y="490.4" width="13.39" height="13.39" transform="translate(821.45 172.74) rotate(90)" fill="#231f20"/>
  <rect x="317.66" y="533.9" width="13.39" height="13.39" transform="translate(864.95 216.24) rotate(90)" fill="#231f20"/>
  <rect x="317.66" y="447.91" width="13.39" height="13.39" transform="translate(778.96 130.25) rotate(90)" fill="#231f20"/>
  <rect x="360.39" y="404.44" width="13.39" height="13.39" transform="translate(778.23 44.05) rotate(90)" fill="#231f20"/>
  <rect x="360.39" y="361.04" width="13.39" height="13.39" transform="translate(734.82 .65) rotate(90)" fill="#231f20"/>
  <rect x="403.71" y="318.37" width="13.39" height="13.39" transform="translate(735.47 -85.34) rotate(90)" fill="#231f20"/>
  <rect x="403.71" y="274.94" width="13.39" height="13.39" transform="translate(692.04 -128.76) rotate(90)" fill="#231f20"/>
  <rect x="403.71" y="231.32" width="13.39" height="13.39" transform="translate(648.42 -172.39) rotate(90)" fill="#231f20"/>
  <rect x="403.71" y="102.5" width="13.39" height="13.39" transform="translate(519.6 -301.21) rotate(90)" fill="#231f20"/>
  <rect x="360.39" y="58.9" width="13.39" height="13.39" transform="translate(432.68 -301.49) rotate(90)" fill="#231f20"/>
  <rect x="317.07" y="58.9" width="13.39" height="13.39" transform="translate(389.37 -258.17) rotate(90)" fill="#231f20"/>
  <rect x="315.72" y="15.3" width="13.39" height="13.39" transform="translate(344.41 -300.43) rotate(90)" fill="#231f20"/>
  <rect x="275.64" y="15.26" width="13.39" height="13.39" transform="translate(304.29 -260.37) rotate(90)" fill="#231f20"/>
</svg>