<?xml version="1.0" encoding="UTF-8"?>
<svg id="_9" data-name="9" xmlns="http://www.w3.org/2000/svg" viewBox="0 0 1080 1080">
  <rect x="518.15" y="387.74" width="40.78" height="40.78" transform="translate(946.67 -130.4) rotate(90)" fill="#231f20"/>
  <rect x="561.17" y="387.74" width="40.78" height="40.78" transform="translate(989.7 -173.43) rotate(90)" fill="#231f20"/>
  <rect x="561.17" y="431.24" width="40.78" height="40.78" transform="translate(1033.2 -129.93) rotate(90)" fill="#231f20"/>
  <rect x="518.15" y="431.24" width="40.78" height="40.78" transform="translate(990.17 -86.9) rotate(90)" fill="#231f20"/>
  <rect x="604.2" y="431.24" width="40.78" height="40.78" transform="translate(1076.23 -172.96) rotate(90)" fill="#231f20"/>
  <rect x="604.2" y="560.35" width="40.78" height="40.78" transform="translate(1205.33 -43.85) rotate(90)" fill="#231f20"/>
  <rect x="604.2" y="516.97" width="40.78" height="40.78" transform="translate(1161.96 -87.23) rotate(90)" fill="#231f20"/>
  <rect x="604.2" y="474.11" width="40.78" height="40.78" transform="translate(1119.09 -130.09) rotate(90)" fill="#231f20"/>
  <rect x="561.17" y="516.97" width="40.78" height="40.78" transform="translate(1118.93 -44.2) rotate(90)" fill="#231f20"/>
  <rect x="561.17" y="474.11" width="40.78" height="40.78" transform="translate(1076.06 -87.07) rotate(90)" fill="#231f20"/>
  <rect x="561.17" y="560.35" width="40.78" height="40.78" transform="translate(1162.3 -.82) rotate(90)" fill="#231f20"/>
  <rect x="561.17" y="732.96" width="40.78" height="40.78" transform="translate(1334.91 171.78) rotate(90)" fill="#231f20"/>
  <rect x="604.2" y="732.96" width="40.78" height="40.78" transform="translate(1377.94 128.75) rotate(90)" fill="#231f20"/>
  <rect x="604.2" y="948.94" width="40.78" height="40.78" transform="translate(1593.92 344.74) rotate(90)" fill="#231f20"/>
  <rect x="517.92" y="948.94" width="40.78" height="40.78" transform="translate(1507.64 431.02) rotate(90)" fill="#231f20"/>
  <rect x="517.92" y="1034.69" width="40.78" height="40.78" transform="translate(1593.39 516.77) rotate(90)" fill="#231f20"/>
  <rect x="647.48" y="905.66" width="40.78" height="40.78" transform="translate(1593.92 258.18) rotate(90)" fill="#231f20"/>
  <rect x="647.08" y="948.94" width="40.78" height="40.78" transform="translate(1636.8 301.86) rotate(90)" fill="#231f20"/>
  <rect x="647.27" y="992.22" width="40.78" height="40.78" transform="translate(1680.26 344.95) rotate(90)" fill="#231f20"/>
  <rect x="690.95" y="992.22" width="40.78" height="40.78" transform="translate(1723.94 301.27) rotate(90)" fill="#231f20"/>
  <rect x="733.22" y="948.94" width="40.78" height="40.78" transform="translate(1722.94 215.72) rotate(90)" fill="#231f20"/>
  <rect x="776.27" y="948.94" width="40.78" height="40.78" transform="translate(1765.99 172.67) rotate(90)" fill="#231f20"/>
  <rect x="776.27" y="992.22" width="40.78" height="40.78" transform="translate(1809.27 215.94) rotate(90)" fill="#231f20"/>
  <rect x="776.27" y="1034.69" width="40.78" height="40.78" transform="translate(1851.74 258.42) rotate(90)" fill="#231f20"/>
  <rect x="733.61" y="1034.69" width="40.78" height="40.78" transform="translate(1809.08 301.08) rotate(90)" fill="#231f20"/>
  <rect x="820.31" y="1034.69" width="40.78" height="40.78" transform="translate(1895.78 214.38) rotate(90)" fill="#231f20"/>
  <rect x="819.51" y="992.22" width="40.78" height="40.78" transform="translate(1852.5 172.71) rotate(90)" fill="#231f20"/>
  <rect x="690.95" y="1034.69" width="40.78" height="40.78" transform="translate(1766.41 343.74) rotate(90)" fill="#231f20"/>
  <rect x="646.58" y="1034.69" width="40.78" height="40.78" transform="translate(1722.05 388.11) rotate(90)" fill="#231f20"/>
  <rect x="690.76" y="948.94" width="40.78" height="40.78" transform="translate(1680.48 258.18) rotate(90)" fill="#231f20"/>
  <rect x="690.76" y="905.66" width="40.78" height="40.78" transform="translate(1637.2 214.9) rotate(90)" fill="#231f20"/>
  <rect x="604.2" y="905.26" width="40.78" height="40.78" transform="translate(1550.24 301.06) rotate(90)" fill="#231f20"/>
  <rect x="690.76" y="732.96" width="40.78" height="40.78" transform="translate(1464.49 42.2) rotate(90)" fill="#231f20"/>
  <rect x="518.15" y="905.26" width="40.78" height="40.78" transform="translate(1464.19 387.12) rotate(90)" fill="#231f20"/>
  <rect x="518.15" y="861.58" width="40.78" height="40.78" transform="translate(1420.51 343.44) rotate(90)" fill="#231f20"/>
  <rect x="561.17" y="818.79" width="40.78" height="40.78" transform="translate(1420.75 257.62) rotate(90)" fill="#231f20"/>
  <rect x="561.17" y="861.58" width="40.78" height="40.78" transform="translate(1463.54 300.41) rotate(90)" fill="#231f20"/>
  <rect x="604.2" y="861.58" width="40.78" height="40.78" transform="translate(1506.57 257.38) rotate(90)" fill="#231f20"/>
  <rect x="647.23" y="689.78" width="40.78" height="40.78" transform="translate(1377.79 42.55) rotate(90)" fill="#231f20"/>
  <rect x="604.2" y="689.78" width="40.78" height="40.78" transform="translate(1334.76 85.58) rotate(90)" fill="#231f20"/>
  <rect x="647.23" y="646.59" width="40.78" height="40.78" transform="translate(1334.6 -.64) rotate(90)" fill="#231f20"/>
  <rect x="518.15" y="646.59" width="40.78" height="40.78" transform="translate(1205.52 128.45) rotate(90)" fill="#231f20"/>
  <rect x="518.15" y="603.73" width="40.78" height="40.78" transform="translate(1162.65 85.58) rotate(90)" fill="#231f20"/>
  <rect x="604.2" y="387.74" width="40.78" height="40.78" transform="translate(1032.73 -216.46) rotate(90)" fill="#231f20"/>
  <rect x="604.2" y="344.24" width="40.78" height="40.78" transform="translate(989.23 -259.96) rotate(90)" fill="#231f20"/>
  <rect x="604.2" y="257.88" width="40.78" height="40.78" transform="translate(902.86 -346.32) rotate(90)" fill="#231f20"/>
  <rect x="561.17" y="257.88" width="40.78" height="40.78" transform="translate(859.83 -303.29) rotate(90)" fill="#231f20"/>
  <rect x="604.2" y="171.52" width="40.78" height="40.78" transform="translate(816.5 -432.69) rotate(90)" fill="#231f20"/>
  <rect x="604.2" y="128.51" width="40.78" height="40.78" transform="translate(773.49 -475.7) rotate(90)" fill="#231f20"/>
  <rect x="475.12" y="128.51" width="40.78" height="40.78" transform="translate(644.4 -346.61) rotate(90)" fill="#231f20"/>
  <rect x="604.2" y="85.5" width="40.78" height="40.78" transform="translate(730.48 -518.71) rotate(90)" fill="#231f20"/>
  <rect x="604.2" y="42.49" width="40.78" height="40.78" transform="translate(687.47 -561.72) rotate(90)" fill="#231f20"/>
  <rect x="518.15" y="-.61" width="40.78" height="40.78" transform="translate(558.31 -518.76) rotate(90)" fill="#231f20"/>
  <rect x="475.12" y="387.74" width="40.78" height="40.78" transform="translate(903.64 -87.37) rotate(90)" fill="#231f20"/>
  <rect x="475.12" y="344.24" width="40.78" height="40.78" transform="translate(860.14 -130.87) rotate(90)" fill="#231f20"/>
  <rect x="432.09" y="344.24" width="40.78" height="40.78" transform="translate(817.11 -87.84) rotate(90)" fill="#231f20"/>
  <rect x="518.15" y="344.24" width="40.78" height="40.78" transform="translate(903.17 -173.9) rotate(90)" fill="#231f20"/>
  <rect x="530.67" y="487.81" width="13.37" height="13.37" transform="translate(1031.86 -42.86) rotate(90)" fill="#231f20"/>
  <rect x="530.67" y="574.05" width="13.37" height="13.37" transform="translate(1118.1 43.38) rotate(90)" fill="#231f20"/>
  <rect x="488.82" y="574.05" width="13.37" height="13.37" transform="translate(1076.25 85.23) rotate(90)" fill="#231f20"/>
  <rect x="488.82" y="617.43" width="13.37" height="13.37" transform="translate(1119.62 128.61) rotate(90)" fill="#231f20"/>
  <rect x="446.13" y="617.43" width="13.37" height="13.37" transform="translate(1076.93 171.3) rotate(90)" fill="#231f20"/>
  <rect x="446.13" y="660.81" width="13.37" height="13.37" transform="translate(1120.31 214.68) rotate(90)" fill="#231f20"/>
  <rect x="488.82" y="703.49" width="13.37" height="13.37" transform="translate(1205.68 214.67) rotate(90)" fill="#231f20"/>
  <rect x="531.85" y="703.49" width="13.37" height="13.37" transform="translate(1248.71 171.64) rotate(90)" fill="#231f20"/>
  <rect x="531.85" y="746.66" width="13.37" height="13.37" transform="translate(1291.88 214.81) rotate(90)" fill="#231f20"/>
  <rect x="531.85" y="789.31" width="13.37" height="13.37" transform="translate(1334.54 257.47) rotate(90)" fill="#231f20"/>
  <rect x="488.82" y="789.31" width="13.37" height="13.37" transform="translate(1291.51 300.5) rotate(90)" fill="#231f20"/>
  <rect x="488.82" y="746.4" width="13.37" height="13.37" transform="translate(1248.59 257.58) rotate(90)" fill="#231f20"/>
  <rect x="531.85" y="832.5" width="13.37" height="13.37" transform="translate(1377.72 300.65) rotate(90)" fill="#231f20"/>
  <rect x="488.82" y="875.29" width="13.37" height="13.37" transform="translate(1377.48 386.47) rotate(90)" fill="#231f20"/>
  <rect x="488.82" y="962.64" width="13.37" height="13.37" transform="translate(1464.84 473.82) rotate(90)" fill="#231f20"/>
  <rect x="488.82" y="918.97" width="13.37" height="13.37" transform="translate(1421.16 430.15) rotate(90)" fill="#231f20"/>
  <rect x="446.13" y="962.64" width="13.37" height="13.37" transform="translate(1422.14 516.52) rotate(90)" fill="#231f20"/>
  <rect x="403.51" y="962.64" width="13.37" height="13.37" transform="translate(1379.53 559.13) rotate(90)" fill="#231f20"/>
  <rect x="403.51" y="918.97" width="13.37" height="13.37" transform="translate(1335.85 515.45) rotate(90)" fill="#231f20"/>
  <rect x="403.51" y="875.29" width="13.37" height="13.37" transform="translate(1292.17 471.77) rotate(90)" fill="#231f20"/>
  <rect x="403.51" y="832.5" width="13.37" height="13.37" transform="translate(1249.38 428.98) rotate(90)" fill="#231f20"/>
  <rect x="403.51" y="789.31" width="13.37" height="13.37" transform="translate(1206.2 385.8) rotate(90)" fill="#231f20"/>
  <rect x="445.35" y="789.31" width="13.37" height="13.37" transform="translate(1248.04 343.96) rotate(90)" fill="#231f20"/>
  <rect x="403.51" y="746.4" width="13.37" height="13.37" transform="translate(1163.29 342.89) rotate(90)" fill="#231f20"/>
  <rect x="403.51" y="660.81" width="13.37" height="13.37" transform="translate(1077.69 257.29) rotate(90)" fill="#231f20"/>
  <rect x="403.51" y="703.6" width="13.37" height="13.37" transform="translate(1120.49 300.09) rotate(90)" fill="#231f20"/>
  <rect x="488.82" y="444.95" width="13.37" height="13.37" transform="translate(947.14 -43.87) rotate(90)" fill="#231f20"/>
  <rect x="446.13" y="444.95" width="13.37" height="13.37" transform="translate(904.44 -1.18) rotate(90)" fill="#231f20"/>
  <rect x="446.13" y="487.81" width="13.37" height="13.37" transform="translate(947.31 41.69) rotate(90)" fill="#231f20"/>
  <rect x="446.13" y="530.68" width="13.37" height="13.37" transform="translate(990.18 84.55) rotate(90)" fill="#231f20"/>
  <rect x="446.13" y="574.05" width="13.37" height="13.37" transform="translate(1033.55 127.93) rotate(90)" fill="#231f20"/>
  <rect x="488.82" y="315.96" width="13.37" height="13.37" transform="translate(818.15 -172.86) rotate(90)" fill="#231f20"/>
  <rect x="530.89" y="315.96" width="13.37" height="13.37" transform="translate(860.22 -214.93) rotate(90)" fill="#231f20"/>
  <rect x="530.89" y="230.03" width="13.37" height="13.37" transform="translate(774.29 -300.86) rotate(90)" fill="#231f20"/>
  <rect x="530.89" y="271.58" width="13.37" height="13.37" transform="translate(815.84 -259.3) rotate(90)" fill="#231f20"/>
  <rect x="617.91" y="230.03" width="13.37" height="13.37" transform="translate(861.31 -387.87) rotate(90)" fill="#231f20"/>
  <rect x="661.74" y="230.03" width="13.37" height="13.37" transform="translate(905.14 -431.71) rotate(90)" fill="#231f20"/>
  <rect x="704.88" y="230.03" width="13.37" height="13.37" transform="translate(948.29 -474.85) rotate(90)" fill="#231f20"/>
  <rect x="704.88" y="185.22" width="13.37" height="13.37" transform="translate(903.47 -519.66) rotate(90)" fill="#231f20"/>
  <rect x="662.3" y="185.22" width="13.37" height="13.37" transform="translate(860.89 -477.08) rotate(90)" fill="#231f20"/>
  <rect x="661.74" y="271.58" width="13.37" height="13.37" transform="translate(946.7 -390.16) rotate(90)" fill="#231f20"/>
  <rect x="574.07" y="186.27" width="13.37" height="13.37" transform="translate(773.72 -387.8) rotate(90)" fill="#231f20"/>
  <rect x="531.85" y="186.27" width="13.37" height="13.37" transform="translate(731.5 -345.57) rotate(90)" fill="#231f20"/>
  <rect x="488.82" y="186.27" width="13.37" height="13.37" transform="translate(688.47 -302.55) rotate(90)" fill="#231f20"/>
  <rect x="445.79" y="186.27" width="13.37" height="13.37" transform="translate(645.44 -259.52) rotate(90)" fill="#231f20"/>
  <rect x="445.79" y="142.21" width="13.37" height="13.37" transform="translate(601.37 -303.58) rotate(90)" fill="#231f20"/>
  <rect x="401.22" y="142.21" width="13.37" height="13.37" transform="translate(556.8 -259.01) rotate(90)" fill="#231f20"/>
  <rect x="401.22" y="99.29" width="13.37" height="13.37" transform="translate(513.88 -301.93) rotate(90)" fill="#231f20"/>
  <rect x="401.22" y="56.19" width="13.37" height="13.37" transform="translate(470.78 -345.03) rotate(90)" fill="#231f20"/>
  <rect x="401.22" y="13.09" width="13.37" height="13.37" transform="translate(427.68 -388.13) rotate(90)" fill="#231f20"/>
  <rect x="445.79" y="13.09" width="13.37" height="13.37" transform="translate(472.25 -432.7) rotate(90)" fill="#231f20"/>
  <rect x="488.82" y="13.09" width="13.37" height="13.37" transform="translate(515.28 -475.73) rotate(90)" fill="#231f20"/>
  <rect x="401.22" y="186.27" width="13.37" height="13.37" transform="translate(600.86 -214.94) rotate(90)" fill="#231f20"/>
  <rect x="401.22" y="230.03" width="13.37" height="13.37" transform="translate(644.62 -171.19) rotate(90)" fill="#231f20"/>
  <rect x="401.22" y="271.58" width="13.37" height="13.37" transform="translate(686.17 -129.63) rotate(90)" fill="#231f20"/>
  <rect x="401.22" y="315.96" width="13.37" height="13.37" transform="translate(730.55 -85.26) rotate(90)" fill="#231f20"/>
  <rect x="445.79" y="315.96" width="13.37" height="13.37" transform="translate(775.12 -129.83) rotate(90)" fill="#231f20"/>
  <rect x="445.79" y="99.2" width="13.37" height="13.37" transform="translate(558.36 -346.59) rotate(90)" fill="#231f20"/>
  <rect x="574.07" y="142.21" width="13.37" height="13.37" transform="translate(729.65 -431.86) rotate(90)" fill="#231f20"/>
  <rect x="531.85" y="142.21" width="13.37" height="13.37" transform="translate(687.43 -389.64) rotate(90)" fill="#231f20"/>
  <rect x="531.85" y="99.2" width="13.37" height="13.37" transform="translate(644.42 -432.65) rotate(90)" fill="#231f20"/>
  <rect x="488.82" y="99.2" width="13.37" height="13.37" transform="translate(601.39 -389.62) rotate(90)" fill="#231f20"/>
  <rect x="574.07" y="99.2" width="13.37" height="13.37" transform="translate(686.64 -474.87) rotate(90)" fill="#231f20"/>
  <rect x="574.07" y="56.19" width="13.37" height="13.37" transform="translate(643.64 -517.88) rotate(90)" fill="#231f20"/>
  <rect x="531.85" y="56.19" width="13.37" height="13.37" transform="translate(601.41 -475.66) rotate(90)" fill="#231f20"/>
  <rect x="574.07" y="13.09" width="13.37" height="13.37" transform="translate(600.53 -560.98) rotate(90)" fill="#231f20"/>
  <rect x="617.91" y="13.09" width="13.37" height="13.37" transform="translate(644.37 -604.82) rotate(90)" fill="#231f20"/>
  <rect x="662.3" y="13.09" width="13.37" height="13.37" transform="translate(688.76 -649.21) rotate(90)" fill="#231f20"/>
  <rect x="662.3" y="56.19" width="13.37" height="13.37" transform="translate(731.86 -606.11) rotate(90)" fill="#231f20"/>
  <rect x="662.3" y="100.9" width="13.37" height="13.37" transform="translate(776.57 -561.4) rotate(90)" fill="#231f20"/>
  <rect x="575.91" y="315.96" width="13.37" height="13.37" transform="translate(905.23 -259.95) rotate(90)" fill="#231f20"/>
  <rect x="619.89" y="315.96" width="13.37" height="13.37" transform="translate(949.22 -303.93) rotate(90)" fill="#231f20"/>
  <rect x="661.74" y="315.96" width="13.37" height="13.37" transform="translate(991.07 -345.78) rotate(90)" fill="#231f20"/>
  <rect x="661.74" y="357.95" width="13.37" height="13.37" transform="translate(1033.06 -303.79) rotate(90)" fill="#231f20"/>
  <rect x="661.74" y="401.45" width="13.37" height="13.37" transform="translate(1076.56 -260.29) rotate(90)" fill="#231f20"/>
  <rect x="661.74" y="617.19" width="13.37" height="13.37" transform="translate(1292.3 -44.55) rotate(90)" fill="#231f20"/>
  <rect x="617.91" y="617.19" width="13.37" height="13.37" transform="translate(1248.46 -.72) rotate(90)" fill="#231f20"/>
  <rect x="574.88" y="617.19" width="13.37" height="13.37" transform="translate(1205.44 42.31) rotate(90)" fill="#231f20"/>
  <rect x="574.88" y="703.49" width="13.37" height="13.37" transform="translate(1291.74 128.61) rotate(90)" fill="#231f20"/>
  <rect x="617.05" y="832.5" width="13.37" height="13.37" transform="translate(1462.92 215.44) rotate(90)" fill="#231f20"/>
  <rect x="660.78" y="832.5" width="13.37" height="13.37" transform="translate(1506.65 171.71) rotate(90)" fill="#231f20"/>
  <rect x="660.78" y="875.29" width="13.37" height="13.37" transform="translate(1549.44 214.5) rotate(90)" fill="#231f20"/>
  <rect x="704.46" y="875.29" width="13.37" height="13.37" transform="translate(1593.12 170.83) rotate(90)" fill="#231f20"/>
  <rect x="746.92" y="919.37" width="13.37" height="13.37" transform="translate(1679.66 172.44) rotate(90)" fill="#231f20"/>
  <rect x="746.92" y="875.29" width="13.37" height="13.37" transform="translate(1635.58 128.36) rotate(90)" fill="#231f20"/>
  <rect x="746.92" y="832.5" width="13.37" height="13.37" transform="translate(1592.79 85.57) rotate(90)" fill="#231f20"/>
  <rect x="746.92" y="789.31" width="13.37" height="13.37" transform="translate(1549.61 42.39) rotate(90)" fill="#231f20"/>
  <rect x="789.98" y="789.31" width="13.37" height="13.37" transform="translate(1592.66 -.66) rotate(90)" fill="#231f20"/>
  <rect x="789.98" y="746.66" width="13.37" height="13.37" transform="translate(1550.01 -43.32) rotate(90)" fill="#231f20"/>
  <rect x="835.62" y="789.31" width="13.37" height="13.37" transform="translate(1638.31 -46.31) rotate(90)" fill="#231f20"/>
  <rect x="835.62" y="746.66" width="13.37" height="13.37" transform="translate(1595.66 -88.96) rotate(90)" fill="#231f20"/>
  <rect x="789.98" y="832.5" width="13.37" height="13.37" transform="translate(1635.85 42.52) rotate(90)" fill="#231f20"/>
  <rect x="835.62" y="832.5" width="13.37" height="13.37" transform="translate(1681.49 -3.13) rotate(90)" fill="#231f20"/>
  <rect x="877.55" y="832.5" width="13.37" height="13.37" transform="translate(1723.41 -45.05) rotate(90)" fill="#231f20"/>
  <rect x="919.47" y="832.5" width="13.37" height="13.37" transform="translate(1765.34 -86.97) rotate(90)" fill="#231f20"/>
  <rect x="919.47" y="878.14" width="13.37" height="13.37" transform="translate(1810.98 -41.33) rotate(90)" fill="#231f20"/>
  <rect x="919.47" y="918.65" width="13.37" height="13.37" transform="translate(1851.49 -.82) rotate(90)" fill="#231f20"/>
  <rect x="877.55" y="918.65" width="13.37" height="13.37" transform="translate(1809.57 41.11) rotate(90)" fill="#231f20"/>
  <rect x="919.47" y="962.64" width="13.37" height="13.37" transform="translate(1895.48 43.18) rotate(90)" fill="#231f20"/>
  <rect x="964.62" y="962.64" width="13.37" height="13.37" transform="translate(1940.63 -1.97) rotate(90)" fill="#231f20"/>
  <rect x="964.62" y="1005.92" width="13.37" height="13.37" transform="translate(1983.91 41.31) rotate(90)" fill="#231f20"/>
  <rect x="877.55" y="1005.92" width="13.37" height="13.37" transform="translate(1896.84 128.37) rotate(90)" fill="#231f20"/>
  <rect x="877.55" y="1048.39" width="13.37" height="13.37" transform="translate(1939.31 170.85) rotate(90)" fill="#231f20"/>
  <rect x="919.67" y="1048.39" width="13.37" height="13.37" transform="translate(1981.44 128.72) rotate(90)" fill="#231f20"/>
  <rect x="962.9" y="1048.39" width="13.37" height="13.37" transform="translate(2024.67 85.49) rotate(90)" fill="#231f20"/>
  <rect x="1049.36" y="1048.39" width="13.37" height="13.37" transform="translate(2111.13 -.97) rotate(90)" fill="#231f20"/>
  <rect x="1006.13" y="1048.39" width="13.37" height="13.37" transform="translate(2067.9 42.26) rotate(90)" fill="#231f20"/>
  <rect x="1049.36" y="1005.92" width="13.37" height="13.37" transform="translate(2068.66 -43.44) rotate(90)" fill="#231f20"/>
  <rect x="964.62" y="918.65" width="13.37" height="13.37" transform="translate(1896.64 -45.96) rotate(90)" fill="#231f20"/>
  <rect x="964.62" y="878.14" width="13.37" height="13.37" transform="translate(1856.13 -86.47) rotate(90)" fill="#231f20"/>
  <rect x="919.47" y="789.31" width="13.37" height="13.37" transform="translate(1722.16 -130.15) rotate(90)" fill="#231f20"/>
  <rect x="877.55" y="789.31" width="13.37" height="13.37" transform="translate(1680.23 -88.23) rotate(90)" fill="#231f20"/>
  <rect x="877.55" y="878.14" width="13.37" height="13.37" transform="translate(1769.06 .6) rotate(90)" fill="#231f20"/>
  <rect x="789.98" y="875.29" width="13.37" height="13.37" transform="translate(1678.64 85.31) rotate(90)" fill="#231f20"/>
  <rect x="746.92" y="746.66" width="13.37" height="13.37" transform="translate(1506.96 -.26) rotate(90)" fill="#231f20"/>
  <rect x="789.98" y="919.37" width="13.37" height="13.37" transform="translate(1722.72 129.39) rotate(90)" fill="#231f20"/>
  <rect x="746.75" y="1005.92" width="13.37" height="13.37" transform="translate(1766.04 259.18) rotate(90)" fill="#231f20"/>
  <rect x="833.21" y="919.37" width="13.37" height="13.37" transform="translate(1765.95 86.16) rotate(90)" fill="#231f20"/>
  <rect x="833.21" y="962.64" width="13.37" height="13.37" transform="translate(1809.22 129.44) rotate(90)" fill="#231f20"/>
  <rect x="704.46" y="832.5" width="13.37" height="13.37" transform="translate(1550.33 128.03) rotate(90)" fill="#231f20"/>
  <rect x="704.46" y="789.31" width="13.37" height="13.37" transform="translate(1507.15 84.85) rotate(90)" fill="#231f20"/>
  <rect x="661.74" y="746.66" width="13.37" height="13.37" transform="translate(1421.77 84.92) rotate(90)" fill="#231f20"/>
  <rect x="661.74" y="789.31" width="13.37" height="13.37" transform="translate(1464.43 127.57) rotate(90)" fill="#231f20"/>
  <rect x="617.05" y="789.31" width="13.37" height="13.37" transform="translate(1419.74 172.26) rotate(90)" fill="#231f20"/>
  <rect x="574.88" y="789.31" width="13.37" height="13.37" transform="translate(1377.56 214.44) rotate(90)" fill="#231f20"/>
  <rect x="574.88" y="919.37" width="13.37" height="13.37" transform="translate(1507.62 344.49) rotate(90)" fill="#231f20"/>
  <rect x="574.88" y="962.64" width="13.37" height="13.37" transform="translate(1550.89 387.77) rotate(90)" fill="#231f20"/>
  <rect x="574.88" y="1005.92" width="13.37" height="13.37" transform="translate(1594.17 431.04) rotate(90)" fill="#231f20"/>
  <rect x="531.62" y="1005.92" width="13.37" height="13.37" transform="translate(1550.92 474.3) rotate(90)" fill="#231f20"/>
  <rect x="488.6" y="1005.92" width="13.37" height="13.37" transform="translate(1507.89 517.32) rotate(90)" fill="#231f20"/>
  <rect x="445.35" y="1005.92" width="13.37" height="13.37" transform="translate(1464.65 560.57) rotate(90)" fill="#231f20"/>
  <rect x="445.35" y="1048.39" width="13.37" height="13.37" transform="translate(1507.12 603.04) rotate(90)" fill="#231f20"/>
  <rect x="403.51" y="1048.39" width="13.37" height="13.37" transform="translate(1465.28 644.88) rotate(90)" fill="#231f20"/>
  <rect x="358.85" y="1048.39" width="13.37" height="13.37" transform="translate(1420.62 689.54) rotate(90)" fill="#231f20"/>
  <rect x="358.85" y="1005.92" width="13.37" height="13.37" transform="translate(1378.15 647.07) rotate(90)" fill="#231f20"/>
  <rect x="403.51" y="1005.52" width="13.37" height="13.37" transform="translate(1422.41 602) rotate(90)" fill="#231f20"/>
  <rect x="358.85" y="962.64" width="13.37" height="13.37" transform="translate(1334.87 603.79) rotate(90)" fill="#231f20"/>
  <rect x="488.82" y="1048.39" width="13.37" height="13.37" transform="translate(1550.59 559.57) rotate(90)" fill="#231f20"/>
  <rect x="617.05" y="1005.92" width="13.37" height="13.37" transform="translate(1636.35 388.87) rotate(90)" fill="#231f20"/>
  <rect x="617.05" y="1048.39" width="13.37" height="13.37" transform="translate(1678.82 431.34) rotate(90)" fill="#231f20"/>
  <rect x="574.88" y="1048.39" width="13.37" height="13.37" transform="translate(1636.64 473.52) rotate(90)" fill="#231f20"/>
  <rect x="617.91" y="660.3" width="13.37" height="13.37" transform="translate(1291.57 42.39) rotate(90)" fill="#231f20"/>
  <rect x="661.74" y="530.68" width="13.37" height="13.37" transform="translate(1205.79 -131.06) rotate(90)" fill="#231f20"/>
  <rect x="703.96" y="530.68" width="13.37" height="13.37" transform="translate(1248.01 -173.29) rotate(90)" fill="#231f20"/>
  <rect x="703.96" y="487.57" width="13.37" height="13.37" transform="translate(1204.9 -216.4) rotate(90)" fill="#231f20"/>
  <rect x="703.96" y="444.95" width="13.37" height="13.37" transform="translate(1162.28 -259.02) rotate(90)" fill="#231f20"/>
  <rect x="703.96" y="357.95" width="13.37" height="13.37" transform="translate(1075.28 -346.02) rotate(90)" fill="#231f20"/>
  <rect x="703.96" y="315.96" width="13.37" height="13.37" transform="translate(1033.29 -388.01) rotate(90)" fill="#231f20"/>
  <rect x="703.96" y="271.58" width="13.37" height="13.37" transform="translate(988.92 -432.38) rotate(90)" fill="#231f20"/>
  <rect x="703.96" y="574.05" width="13.37" height="13.37" transform="translate(1291.39 -129.91) rotate(90)" fill="#231f20"/>
  <rect x="703.96" y="617.19" width="13.37" height="13.37" transform="translate(1334.52 -86.78) rotate(90)" fill="#231f20"/>
  <rect x="661.74" y="487.57" width="13.37" height="13.37" transform="translate(1162.68 -174.17) rotate(90)" fill="#231f20"/>
  <rect x="661.74" y="444.95" width="13.37" height="13.37" transform="translate(1120.06 -216.79) rotate(90)" fill="#231f20"/>
  <rect x="575.91" y="357.95" width="13.37" height="13.37" transform="translate(947.23 -217.96) rotate(90)" fill="#231f20"/>
</svg>