<?xml version="1.0" encoding="UTF-8"?>
<svg id="_10" data-name="10" xmlns="http://www.w3.org/2000/svg" viewBox="0 0 1080 1080">
  <rect x="472.28" y="573.8" width="40.84" height="40.84" fill="#231f20"/>
  <rect x="429.15" y="573.8" width="40.84" height="40.84" fill="#231f20"/>
  <rect x="558.55" y="573.8" width="40.84" height="40.84" fill="#231f20"/>
  <rect x="515.42" y="573.8" width="40.84" height="40.84" fill="#231f20"/>
  <rect x="472.39" y="616.43" width="40.84" height="40.84" fill="#231f20"/>
  <rect x="558.66" y="616.43" width="40.84" height="40.84" fill="#231f20"/>
  <rect x="601.8" y="573.8" width="40.84" height="40.84" fill="#231f20"/>
  <rect x="601.91" y="616.43" width="40.84" height="40.84" fill="#231f20"/>
  <rect x="558.66" y="660.54" width="40.84" height="40.84" fill="#231f20"/>
  <rect x="601.91" y="660.54" width="40.84" height="40.84" fill="#231f20"/>
  <rect x="645.15" y="573.8" width="40.84" height="40.84" fill="#231f20"/>
  <rect x="645.26" y="616.43" width="40.84" height="40.84" fill="#231f20"/>
  <rect x="558.55" y="487.97" width="40.84" height="40.84" fill="#231f20"/>
  <rect x="558.66" y="530.6" width="40.84" height="40.84" fill="#231f20"/>
  <rect x="515.58" y="530.6" width="40.84" height="40.84" fill="#231f20"/>
  <rect x="601.8" y="487.97" width="40.84" height="40.84" fill="#231f20"/>
  <rect x="601.91" y="530.6" width="40.84" height="40.84" fill="#231f20"/>
  <rect x="645.15" y="487.97" width="40.84" height="40.84" fill="#231f20"/>
  <rect x="645.26" y="530.6" width="40.84" height="40.84" fill="#231f20"/>
  <rect x="688.61" y="573.8" width="40.84" height="40.84" fill="#231f20"/>
  <rect x="732.18" y="573.8" width="40.84" height="40.84" fill="#231f20"/>
  <rect x="688.72" y="616.43" width="40.84" height="40.84" fill="#231f20"/>
  <rect x="688.61" y="487.97" width="40.84" height="40.84" fill="#231f20"/>
  <rect x="731.1" y="487.97" width="40.84" height="40.84" fill="#231f20"/>
  <rect x="688.72" y="530.6" width="40.84" height="40.84" fill="#231f20"/>
  <rect x="732.18" y="530.6" width="40.84" height="40.84" fill="#231f20"/>
  <rect x="774.94" y="271.69" width="40.84" height="40.84" fill="#231f20"/>
  <rect x="774.52" y="314.92" width="40.84" height="40.84" fill="#231f20"/>
  <rect x="775.04" y="401.15" width="40.84" height="40.84" fill="#231f20"/>
  <rect x="774.94" y="185.41" width="40.84" height="40.84" fill="#231f20"/>
  <rect x="775.04" y="228.48" width="40.84" height="40.84" fill="#231f20"/>
  <rect x="818.67" y="271.69" width="40.84" height="40.84" fill="#231f20"/>
  <rect x="861.25" y="271.69" width="40.84" height="40.84" fill="#231f20"/>
  <rect x="818.25" y="314.92" width="40.84" height="40.84" fill="#231f20"/>
  <rect x="818.67" y="185.41" width="40.84" height="40.84" fill="#231f20"/>
  <rect x="818.78" y="228.48" width="40.84" height="40.84" fill="#231f20"/>
  <rect x="774.94" y="98.47" width="40.84" height="40.84" fill="#231f20"/>
  <rect x="775.04" y="142.07" width="40.84" height="40.84" fill="#231f20"/>
  <rect x="731.1" y="185.41" width="40.84" height="40.84" fill="#231f20"/>
  <rect x="731.21" y="228.48" width="40.84" height="40.84" fill="#231f20"/>
  <rect x="731.21" y="142.07" width="40.84" height="40.84" fill="#231f20"/>
  <rect x="817.77" y="98.47" width="40.84" height="40.84" fill="#231f20"/>
  <rect x="818.78" y="142.07" width="40.84" height="40.84" fill="#231f20"/>
  <rect x="861.25" y="185.41" width="40.84" height="40.84" fill="#231f20"/>
  <rect x="861.36" y="228.48" width="40.84" height="40.84" fill="#231f20"/>
  <rect x="861.25" y="98.47" width="40.84" height="40.84" fill="#231f20"/>
  <rect x="904.07" y="98.47" width="40.84" height="40.84" fill="#231f20"/>
  <rect x="904.07" y="142.07" width="40.84" height="40.84" fill="#231f20"/>
  <rect x="861.49" y="55.14" width="40.84" height="40.84" fill="#231f20"/>
  <rect x="904.07" y="55.14" width="40.84" height="40.84" fill="#231f20"/>
  <rect x="861.36" y="142.07" width="40.84" height="40.84" fill="#231f20"/>
  <rect x="645.26" y="660.54" width="40.84" height="40.84" fill="#231f20"/>
  <rect x="558.66" y="703.5" width="40.84" height="40.84" fill="#231f20"/>
  <rect x="601.91" y="703.5" width="40.84" height="40.84" fill="#231f20"/>
  <rect x="428.98" y="1006.25" width="40.84" height="40.84" fill="#231f20"/>
  <rect x="428.98" y="963.19" width="40.84" height="40.84" fill="#231f20"/>
  <rect x="645.26" y="703.5" width="40.84" height="40.84" fill="#231f20"/>
  <rect x="515.42" y="833.55" width="40.84" height="40.84" fill="#231f20"/>
  <rect x="558.66" y="833.55" width="40.84" height="40.84" fill="#231f20"/>
  <rect x="515.53" y="616.43" width="40.84" height="40.84" fill="#231f20"/>
  <rect x="355.93" y="587.53" width="13.39" height="13.39" fill="#231f20"/>
  <rect x="400.96" y="587.53" width="13.39" height="13.39" fill="#231f20"/>
  <rect x="355.93" y="544.32" width="13.39" height="13.39" fill="#231f20"/>
  <rect x="400.96" y="544.32" width="13.39" height="13.39" fill="#231f20"/>
  <rect x="355.93" y="501.7" width="13.39" height="13.39" fill="#231f20"/>
  <rect x="400.96" y="501.7" width="13.39" height="13.39" fill="#231f20"/>
  <rect x="440.78" y="544.32" width="13.39" height="13.39" fill="#231f20"/>
  <rect x="485.81" y="544.32" width="13.39" height="13.39" fill="#231f20"/>
  <rect x="440.78" y="501.7" width="13.39" height="13.39" fill="#231f20"/>
  <rect x="485.81" y="501.7" width="13.39" height="13.39" fill="#231f20"/>
  <rect x="529.14" y="501.7" width="13.39" height="13.39" fill="#231f20"/>
  <rect x="571.45" y="458.28" width="13.39" height="13.39" fill="#231f20"/>
  <rect x="530.87" y="458.28" width="13.39" height="13.39" fill="#231f20"/>
  <rect x="616.48" y="458.28" width="13.39" height="13.39" fill="#231f20"/>
  <rect x="528.65" y="371.95" width="13.39" height="13.39" fill="#231f20"/>
  <rect x="488.07" y="371.95" width="13.39" height="13.39" fill="#231f20"/>
  <rect x="573.67" y="329.04" width="13.39" height="13.39" fill="#231f20"/>
  <rect x="616.48" y="285.62" width="13.39" height="13.39" fill="#231f20"/>
  <rect x="616.48" y="242.21" width="13.39" height="13.39" fill="#231f20"/>
  <rect x="659.81" y="242.21" width="13.39" height="13.39" fill="#231f20"/>
  <rect x="659.81" y="285.41" width="13.39" height="13.39" fill="#231f20"/>
  <rect x="703.88" y="242.21" width="13.39" height="13.39" fill="#231f20"/>
  <rect x="703.88" y="285.41" width="13.39" height="13.39" fill="#231f20"/>
  <rect x="744.93" y="285.41" width="13.39" height="13.39" fill="#231f20"/>
  <rect x="744.93" y="326.24" width="13.39" height="13.39" fill="#231f20"/>
  <rect x="659.81" y="458.28" width="13.39" height="13.39" fill="#231f20"/>
  <rect x="744.45" y="458.28" width="13.39" height="13.39" fill="#231f20"/>
  <rect x="703.88" y="458.28" width="13.39" height="13.39" fill="#231f20"/>
  <rect x="789.48" y="458.28" width="13.39" height="13.39" fill="#231f20"/>
  <rect x="832.82" y="458.28" width="13.39" height="13.39" fill="#231f20"/>
  <rect x="832.82" y="414.88" width="13.39" height="13.39" fill="#231f20"/>
  <rect x="744.45" y="371.46" width="13.39" height="13.39" fill="#231f20"/>
  <rect x="744.45" y="414.88" width="13.39" height="13.39" fill="#231f20"/>
  <rect x="789.48" y="371.46" width="13.39" height="13.39" fill="#231f20"/>
  <rect x="832.82" y="371.46" width="13.39" height="13.39" fill="#231f20"/>
  <rect x="789.48" y="501.7" width="13.39" height="13.39" fill="#231f20"/>
  <rect x="832.82" y="501.7" width="13.39" height="13.39" fill="#231f20"/>
  <rect x="789.48" y="545.4" width="13.39" height="13.39" fill="#231f20"/>
  <rect x="832.82" y="545.4" width="13.39" height="13.39" fill="#231f20"/>
  <rect x="789.48" y="588.81" width="13.39" height="13.39" fill="#231f20"/>
  <rect x="832.82" y="588.81" width="13.39" height="13.39" fill="#231f20"/>
  <rect x="832.82" y="630.54" width="13.39" height="13.39" fill="#231f20"/>
  <rect x="875.08" y="458.28" width="13.39" height="13.39" fill="#231f20"/>
  <rect x="875.08" y="414.88" width="13.39" height="13.39" fill="#231f20"/>
  <rect x="875.08" y="371.46" width="13.39" height="13.39" fill="#231f20"/>
  <rect x="875.08" y="329.04" width="13.39" height="13.39" fill="#231f20"/>
  <rect x="875.08" y="501.7" width="13.39" height="13.39" fill="#231f20"/>
  <rect x="875.08" y="545.4" width="13.39" height="13.39" fill="#231f20"/>
  <rect x="875.08" y="588.81" width="13.39" height="13.39" fill="#231f20"/>
  <rect x="875.08" y="630.54" width="13.39" height="13.39" fill="#231f20"/>
  <rect x="917.8" y="458.28" width="13.39" height="13.39" fill="#231f20"/>
  <rect x="917.8" y="414.88" width="13.39" height="13.39" fill="#231f20"/>
  <rect x="917.8" y="371.46" width="13.39" height="13.39" fill="#231f20"/>
  <rect x="917.8" y="329.04" width="13.39" height="13.39" fill="#231f20"/>
  <rect x="917.8" y="284.62" width="13.39" height="13.39" fill="#231f20"/>
  <rect x="917.8" y="241.2" width="13.39" height="13.39" fill="#231f20"/>
  <rect x="917.8" y="199.14" width="13.39" height="13.39" fill="#231f20"/>
  <rect x="917.8" y="501.7" width="13.39" height="13.39" fill="#231f20"/>
  <rect x="960.61" y="458.28" width="13.39" height="13.39" fill="#231f20"/>
  <rect x="960.61" y="414.88" width="13.39" height="13.39" fill="#231f20"/>
  <rect x="960.61" y="371.46" width="13.39" height="13.39" fill="#231f20"/>
  <rect x="960.61" y="329.04" width="13.39" height="13.39" fill="#231f20"/>
  <rect x="960.61" y="284.62" width="13.39" height="13.39" fill="#231f20"/>
  <rect x="960.61" y="241.2" width="13.39" height="13.39" fill="#231f20"/>
  <rect x="960.61" y="199.14" width="13.39" height="13.39" fill="#231f20"/>
  <rect x="960.61" y="155.8" width="13.39" height="13.39" fill="#231f20"/>
  <rect x="703.88" y="199.14" width="13.39" height="13.39" fill="#231f20"/>
  <rect x="660.65" y="199.14" width="13.39" height="13.39" fill="#231f20"/>
  <rect x="702.98" y="155.8" width="13.39" height="13.39" fill="#231f20"/>
  <rect x="960.61" y="112.19" width="13.39" height="13.39" fill="#231f20"/>
  <rect x="960.61" y="68.86" width="13.39" height="13.39" fill="#231f20"/>
  <rect x="960.61" y="25.88" width="13.39" height="13.39" fill="#231f20"/>
  <rect x="1003.84" y="199.14" width="13.39" height="13.39" fill="#231f20"/>
  <rect x="1003.84" y="155.8" width="13.39" height="13.39" fill="#231f20"/>
  <rect x="1003.84" y="112.19" width="13.39" height="13.39" fill="#231f20"/>
  <rect x="702.98" y="112.19" width="13.39" height="13.39" fill="#231f20"/>
  <rect x="660.65" y="155.8" width="13.39" height="13.39" fill="#231f20"/>
  <rect x="660.65" y="112.19" width="13.39" height="13.39" fill="#231f20"/>
  <rect x="615.48" y="112.19" width="13.39" height="13.39" fill="#231f20"/>
  <rect x="615.48" y="68.86" width="13.39" height="13.39" fill="#231f20"/>
  <rect x="572.01" y="68.86" width="13.39" height="13.39" fill="#231f20"/>
  <rect x="572.01" y="25.6" width="13.39" height="13.39" fill="#231f20"/>
  <rect x="745.32" y="112.19" width="13.39" height="13.39" fill="#231f20"/>
  <rect x="1003.84" y="68.86" width="13.39" height="13.39" fill="#231f20"/>
  <rect x="789.36" y="68.86" width="13.39" height="13.39" fill="#231f20"/>
  <rect x="745.32" y="68.86" width="13.39" height="13.39" fill="#231f20"/>
  <rect x="832.59" y="68.86" width="13.39" height="13.39" fill="#231f20"/>
  <rect x="1003.84" y="25.88" width="13.39" height="13.39" fill="#231f20"/>
  <rect x="875.76" y="25.88" width="13.39" height="13.39" fill="#231f20"/>
  <rect x="918.99" y="25.88" width="13.39" height="13.39" fill="#231f20"/>
  <rect x="744.69" y="25.88" width="13.39" height="13.39" fill="#231f20"/>
  <rect x="702.98" y="25.88" width="13.39" height="13.39" fill="#231f20"/>
  <rect x="660.65" y="25.88" width="13.39" height="13.39" fill="#231f20"/>
  <rect x="660.65" y="68.86" width="13.39" height="13.39" fill="#231f20"/>
  <rect x="787.92" y="25.88" width="13.39" height="13.39" fill="#231f20"/>
  <rect x="960.61" y="501.7" width="13.39" height="13.39" fill="#231f20"/>
  <rect x="917.8" y="545.4" width="13.39" height="13.39" fill="#231f20"/>
  <rect x="917.8" y="588.81" width="13.39" height="13.39" fill="#231f20"/>
  <rect x="917.8" y="630.54" width="13.39" height="13.39" fill="#231f20"/>
  <rect x="832.82" y="673.96" width="13.39" height="13.39" fill="#231f20"/>
  <rect x="832.82" y="717.66" width="13.39" height="13.39" fill="#231f20"/>
  <rect x="832.82" y="761.08" width="13.39" height="13.39" fill="#231f20"/>
  <rect x="789.48" y="630.54" width="13.39" height="13.39" fill="#231f20"/>
  <rect x="747.15" y="673.96" width="13.39" height="13.39" fill="#231f20"/>
  <rect x="747.15" y="630.16" width="13.39" height="13.39" fill="#231f20"/>
  <rect x="747.15" y="717.66" width="13.39" height="13.39" fill="#231f20"/>
  <rect x="747.15" y="761.08" width="13.39" height="13.39" fill="#231f20"/>
  <rect x="703.81" y="673.96" width="13.39" height="13.39" fill="#231f20"/>
  <rect x="703.81" y="717.22" width="13.39" height="13.39" fill="#231f20"/>
  <rect x="789.48" y="673.96" width="13.39" height="13.39" fill="#231f20"/>
  <rect x="789.48" y="717.66" width="13.39" height="13.39" fill="#231f20"/>
  <rect x="789.48" y="761.08" width="13.39" height="13.39" fill="#231f20"/>
  <rect x="702.65" y="761.08" width="13.39" height="13.39" fill="#231f20"/>
  <rect x="616.98" y="761.08" width="13.39" height="13.39" fill="#231f20"/>
  <rect x="572.81" y="761.08" width="13.39" height="13.39" fill="#231f20"/>
  <rect x="659.31" y="761.08" width="13.39" height="13.39" fill="#231f20"/>
  <rect x="747.15" y="802.12" width="13.39" height="13.39" fill="#231f20"/>
  <rect x="702.65" y="802.12" width="13.39" height="13.39" fill="#231f20"/>
  <rect x="531.46" y="673.96" width="13.39" height="13.39" fill="#231f20"/>
  <rect x="486.11" y="673.96" width="13.39" height="13.39" fill="#231f20"/>
  <rect x="442.87" y="630.54" width="13.39" height="13.39" fill="#231f20"/>
  <rect x="400.96" y="630.54" width="13.39" height="13.39" fill="#231f20"/>
  <rect x="531.46" y="717.22" width="13.39" height="13.39" fill="#231f20"/>
  <rect x="530.29" y="761.08" width="13.39" height="13.39" fill="#231f20"/>
  <rect x="530.29" y="802.12" width="13.39" height="13.39" fill="#231f20"/>
  <rect x="616.98" y="802.12" width="13.39" height="13.39" fill="#231f20"/>
  <rect x="572.81" y="802.12" width="13.39" height="13.39" fill="#231f20"/>
  <rect x="659.31" y="802.12" width="13.39" height="13.39" fill="#231f20"/>
  <rect x="747.15" y="846.92" width="13.39" height="13.39" fill="#231f20"/>
  <rect x="702.65" y="846.92" width="13.39" height="13.39" fill="#231f20"/>
  <rect x="616.98" y="846.92" width="13.39" height="13.39" fill="#231f20"/>
  <rect x="659.31" y="846.92" width="13.39" height="13.39" fill="#231f20"/>
  <rect x="747.15" y="890.51" width="13.39" height="13.39" fill="#231f20"/>
  <rect x="702.65" y="890.51" width="13.39" height="13.39" fill="#231f20"/>
  <rect x="616.98" y="890.51" width="13.39" height="13.39" fill="#231f20"/>
  <rect x="659.31" y="890.51" width="13.39" height="13.39" fill="#231f20"/>
  <rect x="572.79" y="890.51" width="13.39" height="13.39" fill="#231f20"/>
  <rect x="528.29" y="890.51" width="13.39" height="13.39" fill="#231f20"/>
  <rect x="442.62" y="890.51" width="13.39" height="13.39" fill="#231f20"/>
  <rect x="484.95" y="890.51" width="13.39" height="13.39" fill="#231f20"/>
  <rect x="702.65" y="933" width="13.39" height="13.39" fill="#231f20"/>
  <rect x="616.98" y="933" width="13.39" height="13.39" fill="#231f20"/>
  <rect x="659.31" y="933" width="13.39" height="13.39" fill="#231f20"/>
  <rect x="572.79" y="933" width="13.39" height="13.39" fill="#231f20"/>
  <rect x="528.29" y="933" width="13.39" height="13.39" fill="#231f20"/>
  <rect x="442.62" y="933" width="13.39" height="13.39" fill="#231f20"/>
  <rect x="399.15" y="890.51" width="13.39" height="13.39" fill="#231f20"/>
  <rect x="442.62" y="848.01" width="13.39" height="13.39" fill="#231f20"/>
  <rect x="484.95" y="848.01" width="13.39" height="13.39" fill="#231f20"/>
  <rect x="399.15" y="848.01" width="13.39" height="13.39" fill="#231f20"/>
  <rect x="442.62" y="803.48" width="13.39" height="13.39" fill="#231f20"/>
  <rect x="484.95" y="803.48" width="13.39" height="13.39" fill="#231f20"/>
  <rect x="399.15" y="803.48" width="13.39" height="13.39" fill="#231f20"/>
  <rect x="442.62" y="761.08" width="13.39" height="13.39" fill="#231f20"/>
  <rect x="399.15" y="761.08" width="13.39" height="13.39" fill="#231f20"/>
  <rect x="355.68" y="761.08" width="13.39" height="13.39" fill="#231f20"/>
  <rect x="312.21" y="761.08" width="13.39" height="13.39" fill="#231f20"/>
  <rect x="442.62" y="717.22" width="13.39" height="13.39" fill="#231f20"/>
  <rect x="399.15" y="717.22" width="13.39" height="13.39" fill="#231f20"/>
  <rect x="355.68" y="717.22" width="13.39" height="13.39" fill="#231f20"/>
  <rect x="312.21" y="717.22" width="13.39" height="13.39" fill="#231f20"/>
  <rect x="269.19" y="761.08" width="13.39" height="13.39" fill="#231f20"/>
  <rect x="269.19" y="717.22" width="13.39" height="13.39" fill="#231f20"/>
  <rect x="269.19" y="674.26" width="13.39" height="13.39" fill="#231f20"/>
  <rect x="185.11" y="674.26" width="13.39" height="13.39" fill="#231f20"/>
  <rect x="142.08" y="717.22" width="13.39" height="13.39" fill="#231f20"/>
  <rect x="53.51" y="803.6" width="13.39" height="13.39" fill="#231f20"/>
  <rect x="53.51" y="759.47" width="13.39" height="13.39" fill="#231f20"/>
  <rect x="11.56" y="803.6" width="13.39" height="13.39" fill="#231f20"/>
  <rect x="11.56" y="760.28" width="13.39" height="13.39" fill="#231f20"/>
  <rect x="97.8" y="803.6" width="13.39" height="13.39" fill="#231f20"/>
  <rect x="53.51" y="845.57" width="13.39" height="13.39" fill="#231f20"/>
  <rect x="11.56" y="845.57" width="13.39" height="13.39" fill="#231f20"/>
  <rect x="97.8" y="845.57" width="13.39" height="13.39" fill="#231f20"/>
  <rect x="184.04" y="845.57" width="13.39" height="13.39" fill="#231f20"/>
  <rect x="142.08" y="845.57" width="13.39" height="13.39" fill="#231f20"/>
  <rect x="228.32" y="845.57" width="13.39" height="13.39" fill="#231f20"/>
  <rect x="313.05" y="845.57" width="13.39" height="13.39" fill="#231f20"/>
  <rect x="271.1" y="845.57" width="13.39" height="13.39" fill="#231f20"/>
  <rect x="357.34" y="845.57" width="13.39" height="13.39" fill="#231f20"/>
  <rect x="313.05" y="803.6" width="13.39" height="13.39" fill="#231f20"/>
  <rect x="271.1" y="803.6" width="13.39" height="13.39" fill="#231f20"/>
  <rect x="357.34" y="803.6" width="13.39" height="13.39" fill="#231f20"/>
  <rect x="53.51" y="890.04" width="13.39" height="13.39" fill="#231f20"/>
  <rect x="11.56" y="890.04" width="13.39" height="13.39" fill="#231f20"/>
  <rect x="53.51" y="1020.6" width="13.39" height="13.39" fill="#231f20"/>
  <rect x="11.56" y="1020.6" width="13.39" height="13.39" fill="#231f20"/>
  <rect x="53.51" y="977.55" width="13.39" height="13.39" fill="#231f20"/>
  <rect x="11.56" y="977.55" width="13.39" height="13.39" fill="#231f20"/>
  <rect x="53.51" y="1065.07" width="13.39" height="13.39" fill="#231f20"/>
  <rect x="11.56" y="1065.07" width="13.39" height="13.39" fill="#231f20"/>
  <rect x="97.8" y="890.04" width="13.39" height="13.39" fill="#231f20"/>
  <rect x="97.8" y="759.47" width="13.39" height="13.39" fill="#231f20"/>
  <rect x="399.15" y="933" width="13.39" height="13.39" fill="#231f20"/>
  <rect x="484.95" y="933" width="13.39" height="13.39" fill="#231f20"/>
  <rect x="528.29" y="975.35" width="13.39" height="13.39" fill="#231f20"/>
  <rect x="484.95" y="975.35" width="13.39" height="13.39" fill="#231f20"/>
  <rect x="528.29" y="1017.84" width="13.39" height="13.39" fill="#231f20"/>
  <rect x="484.95" y="1017.84" width="13.39" height="13.39" fill="#231f20"/>
  <rect x="614.96" y="975.35" width="13.39" height="13.39" fill="#231f20"/>
  <rect x="571.62" y="975.35" width="13.39" height="13.39" fill="#231f20"/>
  <rect x="614.96" y="1017.84" width="13.39" height="13.39" fill="#231f20"/>
  <rect x="571.62" y="1017.84" width="13.39" height="13.39" fill="#231f20"/>
  <rect x="528.29" y="1062.31" width="13.39" height="13.39" fill="#231f20"/>
  <rect x="484.95" y="1062.31" width="13.39" height="13.39" fill="#231f20"/>
  <rect x="614.96" y="1062.31" width="13.39" height="13.39" fill="#231f20"/>
  <rect x="571.62" y="1062.31" width="13.39" height="13.39" fill="#231f20"/>
  <rect x="399.15" y="1062.31" width="13.39" height="13.39" fill="#231f20"/>
  <rect x="399.15" y="1020.38" width="13.39" height="13.39" fill="#231f20"/>
  <rect x="399.15" y="976.18" width="13.39" height="13.39" fill="#231f20"/>
  <rect x="354.94" y="1020.38" width="13.39" height="13.39" fill="#231f20"/>
  <rect x="354.94" y="976.18" width="13.39" height="13.39" fill="#231f20"/>
  <rect x="354.94" y="1062.31" width="13.39" height="13.39" fill="#231f20"/>
  <rect x="315.31" y="1062.31" width="13.39" height="13.39" fill="#231f20"/>
  <rect x="315.31" y="1020.38" width="13.39" height="13.39" fill="#231f20"/>
  <rect x="315.31" y="976.18" width="13.39" height="13.39" fill="#231f20"/>
  <rect x="271.1" y="1020.38" width="13.39" height="13.39" fill="#231f20"/>
  <rect x="271.1" y="976.18" width="13.39" height="13.39" fill="#231f20"/>
  <rect x="271.1" y="1062.31" width="13.39" height="13.39" fill="#231f20"/>
  <rect x="441.61" y="1062.31" width="13.39" height="13.39" fill="#231f20"/>
  <rect x="269.19" y="544.32" width="13.39" height="13.39" fill="#231f20"/>
  <rect x="314.22" y="544.32" width="13.39" height="13.39" fill="#231f20"/>
  <rect x="269.19" y="501.7" width="13.39" height="13.39" fill="#231f20"/>
  <rect x="226.31" y="501.7" width="13.39" height="13.39" fill="#231f20"/>
  <rect x="226.31" y="544.61" width="13.39" height="13.39" fill="#231f20"/>
  <rect x="97.68" y="371.95" width="13.39" height="13.39" fill="#231f20"/>
  <rect x="97.68" y="414.87" width="13.39" height="13.39" fill="#231f20"/>
  <rect x="141.75" y="371.95" width="13.39" height="13.39" fill="#231f20"/>
  <rect x="141.75" y="414.87" width="13.39" height="13.39" fill="#231f20"/>
  <rect x="97.68" y="458.28" width="13.39" height="13.39" fill="#231f20"/>
  <rect x="141.75" y="458.28" width="13.39" height="13.39" fill="#231f20"/>
  <rect x="226.31" y="414.87" width="13.39" height="13.39" fill="#231f20"/>
  <rect x="183.44" y="414.87" width="13.39" height="13.39" fill="#231f20"/>
  <rect x="226.31" y="458.28" width="13.39" height="13.39" fill="#231f20"/>
  <rect x="57.19" y="371.95" width="13.39" height="13.39" fill="#231f20"/>
  <rect x="53.61" y="329.04" width="13.39" height="13.39" fill="#231f20"/>
  <rect x="13.12" y="329.04" width="13.39" height="13.39" fill="#231f20"/>
  <rect x="57.19" y="414.87" width="13.39" height="13.39" fill="#231f20"/>
  <rect x="183.44" y="501.7" width="13.39" height="13.39" fill="#231f20"/>
  <rect x="141.75" y="544.61" width="13.39" height="13.39" fill="#231f20"/>
  <rect x="97.68" y="587.52" width="13.39" height="13.39" fill="#231f20"/>
  <rect x="314.22" y="501.7" width="13.39" height="13.39" fill="#231f20"/>
</svg>