<?xml version="1.0" encoding="UTF-8"?>
<svg id="_11" data-name="11" xmlns="http://www.w3.org/2000/svg" viewBox="0 0 1080 1080">
  <rect x="302.74" y="605.9" width="40.86" height="40.86" transform="translate(646.34 1252.67) rotate(-180)" fill="#231f20"/>
  <rect x="302.74" y="562.8" width="40.86" height="40.86" transform="translate(646.34 1166.46) rotate(-180)" fill="#231f20"/>
  <rect x="258.91" y="735.57" width="40.86" height="40.86" transform="translate(558.68 1511.99) rotate(-180)" fill="#231f20"/>
  <rect x="258.91" y="692.5" width="40.86" height="40.86" transform="translate(558.68 1425.86) rotate(-180)" fill="#231f20"/>
  <rect x="302.74" y="649.49" width="40.86" height="40.86" transform="translate(646.34 1339.85) rotate(-180)" fill="#231f20"/>
  <rect x="345.62" y="735.57" width="40.86" height="40.86" transform="translate(732.11 1511.99) rotate(-180)" fill="#231f20"/>
  <rect x="302.74" y="821.7" width="40.86" height="40.86" transform="translate(646.34 1684.27) rotate(-180)" fill="#231f20"/>
  <rect x="302.74" y="865.69" width="40.86" height="40.86" transform="translate(646.34 1772.24) rotate(-180)" fill="#231f20"/>
  <rect x="302.74" y="908.6" width="40.86" height="40.86" transform="translate(646.34 1858.07) rotate(-180)" fill="#231f20"/>
  <rect x="302.74" y="951.73" width="40.86" height="40.86" transform="translate(646.34 1944.31) rotate(-180)" fill="#231f20"/>
  <rect x="302.74" y="995.04" width="40.86" height="40.86" transform="translate(646.34 2030.95) rotate(-180)" fill="#231f20"/>
  <rect x="302.74" y="1038.17" width="40.86" height="40.86" transform="translate(646.34 2117.2) rotate(-180)" fill="#231f20"/>
  <rect x="216.38" y="821.7" width="40.86" height="40.86" transform="translate(473.61 1684.27) rotate(-180)" fill="#231f20"/>
  <rect x="216.38" y="865.69" width="40.86" height="40.86" transform="translate(473.61 1772.24) rotate(-180)" fill="#231f20"/>
  <rect x="216.38" y="908.6" width="40.86" height="40.86" transform="translate(473.61 1858.07) rotate(-180)" fill="#231f20"/>
  <rect x="216.38" y="951.73" width="40.86" height="40.86" transform="translate(473.61 1944.31) rotate(-180)" fill="#231f20"/>
  <rect x="216.38" y="995.04" width="40.86" height="40.86" transform="translate(473.61 2030.95) rotate(-180)" fill="#231f20"/>
  <rect x="216.38" y="1038.17" width="40.86" height="40.86" transform="translate(473.61 2117.2) rotate(-180)" fill="#231f20"/>
  <rect x="432.16" y="735.57" width="40.86" height="40.86" transform="translate(905.19 1511.99) rotate(-180)" fill="#231f20"/>
  <rect x="432.16" y="692.5" width="40.86" height="40.86" transform="translate(905.19 1425.86) rotate(-180)" fill="#231f20"/>
  <rect x="518.52" y="735.57" width="40.86" height="40.86" transform="translate(1077.9 1511.99) rotate(-180)" fill="#231f20"/>
  <rect x="518.52" y="692.5" width="40.86" height="40.86" transform="translate(1077.9 1425.86) rotate(-180)" fill="#231f20"/>
  <rect x="561.72" y="649.43" width="40.86" height="40.86" transform="translate(1164.31 1339.72) rotate(-180)" fill="#231f20"/>
  <rect x="432.16" y="649.43" width="40.86" height="40.86" transform="translate(905.19 1339.72) rotate(-180)" fill="#231f20"/>
  <rect x="605.02" y="649.43" width="40.86" height="40.86" transform="translate(1250.9 1339.72) rotate(-180)" fill="#231f20"/>
  <rect x="648.03" y="649.43" width="40.86" height="40.86" transform="translate(1336.93 1339.72) rotate(-180)" fill="#231f20"/>
  <rect x="691.05" y="649.43" width="40.86" height="40.86" transform="translate(1422.96 1339.72) rotate(-180)" fill="#231f20"/>
  <rect x="734.06" y="649.43" width="40.86" height="40.86" transform="translate(1508.99 1339.72) rotate(-180)" fill="#231f20"/>
  <rect x="605.02" y="606.11" width="40.86" height="40.86" transform="translate(1250.9 1253.09) rotate(-180)" fill="#231f20"/>
  <rect x="648.03" y="606.11" width="40.86" height="40.86" transform="translate(1336.93 1253.09) rotate(-180)" fill="#231f20"/>
  <rect x="691.05" y="606.11" width="40.86" height="40.86" transform="translate(1422.96 1253.09) rotate(-180)" fill="#231f20"/>
  <rect x="734.06" y="606.11" width="40.86" height="40.86" transform="translate(1508.99 1253.09) rotate(-180)" fill="#231f20"/>
  <rect x="778.22" y="649.43" width="40.86" height="40.86" transform="translate(1597.31 1339.72) rotate(-180)" fill="#231f20"/>
  <rect x="821.24" y="649.43" width="40.86" height="40.86" transform="translate(1683.34 1339.72) rotate(-180)" fill="#231f20"/>
  <rect x="864.25" y="649.43" width="40.86" height="40.86" transform="translate(1769.37 1339.72) rotate(-180)" fill="#231f20"/>
  <rect x="907.17" y="649.43" width="40.86" height="40.86" transform="translate(1855.19 1339.72) rotate(-180)" fill="#231f20"/>
  <rect x="993.81" y="606.11" width="40.86" height="40.86" transform="translate(2028.48 1253.09) rotate(-180)" fill="#231f20"/>
  <rect x="1037.06" y="606.11" width="40.86" height="40.86" transform="translate(2114.98 1253.09) rotate(-180)" fill="#231f20"/>
  <rect x="778.22" y="606.11" width="40.86" height="40.86" transform="translate(1597.31 1253.09) rotate(-180)" fill="#231f20"/>
  <rect x="777.75" y="562.73" width="40.86" height="40.86" transform="translate(1596.37 1166.33) rotate(-180)" fill="#231f20"/>
  <rect x="821.24" y="519.56" width="40.86" height="40.86" transform="translate(1683.34 1079.99) rotate(-180)" fill="#231f20"/>
  <rect x="864.25" y="519.56" width="40.86" height="40.86" transform="translate(1769.37 1079.99) rotate(-180)" fill="#231f20"/>
  <rect x="821.24" y="476.55" width="40.86" height="40.86" transform="translate(1683.34 993.96) rotate(-180)" fill="#231f20"/>
  <rect x="864.25" y="476.55" width="40.86" height="40.86" transform="translate(1769.37 993.96) rotate(-180)" fill="#231f20"/>
  <rect x="1037.15" y="433.23" width="40.86" height="40.86" transform="translate(2115.16 907.31) rotate(-180)" fill="#231f20"/>
  <rect x="907.01" y="476.55" width="40.86" height="40.86" transform="translate(1854.88 993.96) rotate(-180)" fill="#231f20"/>
  <rect x="821.24" y="606.11" width="40.86" height="40.86" transform="translate(1683.34 1253.09) rotate(-180)" fill="#231f20"/>
  <rect x="864.25" y="606.11" width="40.86" height="40.86" transform="translate(1769.37 1253.09) rotate(-180)" fill="#231f20"/>
  <rect x="907.47" y="562.81" width="40.86" height="40.86" transform="translate(1855.8 1166.48) rotate(-180)" fill="#231f20"/>
  <rect x="993.81" y="519.56" width="40.86" height="40.86" transform="translate(2028.48 1079.99) rotate(-180)" fill="#231f20"/>
  <rect x="1036.78" y="519.56" width="40.86" height="40.86" transform="translate(2114.42 1079.99) rotate(-180)" fill="#231f20"/>
  <rect x="605.02" y="692.5" width="40.86" height="40.86" transform="translate(1250.9 1425.86) rotate(-180)" fill="#231f20"/>
  <rect x="648.03" y="692.5" width="40.86" height="40.86" transform="translate(1336.93 1425.86) rotate(-180)" fill="#231f20"/>
  <rect x="691.05" y="692.5" width="40.86" height="40.86" transform="translate(1422.96 1425.86) rotate(-180)" fill="#231f20"/>
  <rect x="734.06" y="692.5" width="40.86" height="40.86" transform="translate(1508.99 1425.86) rotate(-180)" fill="#231f20"/>
  <rect x="605.02" y="735.57" width="40.86" height="40.86" transform="translate(1250.9 1511.99) rotate(-180)" fill="#231f20"/>
  <rect x="648.03" y="735.57" width="40.86" height="40.86" transform="translate(1336.93 1511.99) rotate(-180)" fill="#231f20"/>
  <rect x="648.03" y="778.63" width="40.86" height="40.86" transform="translate(1336.93 1598.13) rotate(-180)" fill="#231f20"/>
  <rect x="605.02" y="865.22" width="40.86" height="40.86" transform="translate(1250.9 1771.3) rotate(-180)" fill="#231f20"/>
  <rect x="648.01" y="821.7" width="40.86" height="40.86" transform="translate(1336.89 1684.27) rotate(-180)" fill="#231f20"/>
  <rect x="432.16" y="822.1" width="40.86" height="40.86" transform="translate(905.19 1685.06) rotate(-180)" fill="#231f20"/>
  <rect x="475.27" y="822.1" width="40.86" height="40.86" transform="translate(991.4 1685.06) rotate(-180)" fill="#231f20"/>
  <rect x="475.27" y="778.63" width="40.86" height="40.86" transform="translate(991.4 1598.13) rotate(-180)" fill="#231f20"/>
  <rect x="432.16" y="865.22" width="40.86" height="40.86" transform="translate(905.19 1771.3) rotate(-180)" fill="#231f20"/>
  <rect x="475.27" y="865.22" width="40.86" height="40.86" transform="translate(991.4 1771.3) rotate(-180)" fill="#231f20"/>
  <rect x="388.91" y="908.6" width="40.86" height="40.86" transform="translate(818.67 1858.07) rotate(-180)" fill="#231f20"/>
  <rect x="432.16" y="908.6" width="40.86" height="40.86" transform="translate(905.19 1858.07) rotate(-180)" fill="#231f20"/>
  <rect x="388.91" y="951.73" width="40.86" height="40.86" transform="translate(818.67 1944.31) rotate(-180)" fill="#231f20"/>
  <rect x="388.91" y="822.16" width="40.86" height="40.86" transform="translate(818.67 1685.18) rotate(-180)" fill="#231f20"/>
  <rect x="388.91" y="778.63" width="40.86" height="40.86" transform="translate(818.67 1598.13) rotate(-180)" fill="#231f20"/>
  <rect x="388.91" y="865.28" width="40.86" height="40.86" transform="translate(818.67 1771.43) rotate(-180)" fill="#231f20"/>
  <rect x="432.16" y="951.73" width="40.86" height="40.86" transform="translate(905.19 1944.31) rotate(-180)" fill="#231f20"/>
  <rect x="388.91" y="995.04" width="40.86" height="40.86" transform="translate(818.67 2030.95) rotate(-180)" fill="#231f20"/>
  <rect x="432.16" y="995.04" width="40.86" height="40.86" transform="translate(905.19 2030.95) rotate(-180)" fill="#231f20"/>
  <rect x="388.91" y="1038.17" width="40.86" height="40.86" transform="translate(818.67 2117.2) rotate(-180)" fill="#231f20"/>
  <rect x="432.16" y="1038.17" width="40.86" height="40.86" transform="translate(905.19 2117.2) rotate(-180)" fill="#231f20"/>
  <rect x="518.52" y="995.04" width="40.86" height="40.86" transform="translate(1077.9 2030.95) rotate(-180)" fill="#231f20"/>
  <rect x="518.52" y="908.49" width="40.86" height="40.86" transform="translate(1077.9 1857.83) rotate(-180)" fill="#231f20"/>
  <rect x="562" y="822.1" width="40.86" height="40.86" transform="translate(1164.87 1685.06) rotate(-180)" fill="#231f20"/>
  <rect x="562" y="778.63" width="40.86" height="40.86" transform="translate(1164.87 1598.13) rotate(-180)" fill="#231f20"/>
  <rect x="518.52" y="952.25" width="40.86" height="40.86" transform="translate(1077.9 1945.37) rotate(-180)" fill="#231f20"/>
  <rect x="518.52" y="1038.17" width="40.86" height="40.86" transform="translate(1077.9 2117.2) rotate(-180)" fill="#231f20"/>
  <rect x="605.02" y="908.74" width="40.86" height="40.86" transform="translate(1250.9 1858.34) rotate(-180)" fill="#231f20"/>
  <rect x="605.02" y="952.25" width="40.86" height="40.86" transform="translate(1250.9 1945.37) rotate(-180)" fill="#231f20"/>
  <rect x="605.02" y="994.71" width="40.86" height="40.86" transform="translate(1250.9 2030.29) rotate(-180)" fill="#231f20"/>
  <rect x="605.02" y="1038.48" width="40.86" height="40.86" transform="translate(1250.9 2117.83) rotate(-180)" fill="#231f20"/>
  <rect x="691.05" y="778.63" width="40.86" height="40.86" transform="translate(1422.96 1598.13) rotate(-180)" fill="#231f20"/>
  <rect x="691.05" y="821.7" width="40.86" height="40.86" transform="translate(1422.96 1684.27) rotate(-180)" fill="#231f20"/>
  <rect x="691.05" y="864.77" width="40.86" height="40.86" transform="translate(1422.96 1770.41) rotate(-180)" fill="#231f20"/>
  <rect x="691.05" y="907.84" width="40.86" height="40.86" transform="translate(1422.96 1856.54) rotate(-180)" fill="#231f20"/>
  <rect x="691.05" y="952.25" width="40.86" height="40.86" transform="translate(1422.96 1945.37) rotate(-180)" fill="#231f20"/>
  <rect x="691.05" y="994.71" width="40.86" height="40.86" transform="translate(1422.96 2030.29) rotate(-180)" fill="#231f20"/>
  <rect x="691.05" y="1038.48" width="40.86" height="40.86" transform="translate(1422.96 2117.83) rotate(-180)" fill="#231f20"/>
  <rect x="734.06" y="778.63" width="40.86" height="40.86" transform="translate(1508.99 1598.13) rotate(-180)" fill="#231f20"/>
  <rect x="778.02" y="778.63" width="40.86" height="40.86" transform="translate(1596.9 1598.13) rotate(-180)" fill="#231f20"/>
  <rect x="821.03" y="778.63" width="40.86" height="40.86" transform="translate(1682.93 1598.13) rotate(-180)" fill="#231f20"/>
  <rect x="864.05" y="778.63" width="40.86" height="40.86" transform="translate(1768.96 1598.13) rotate(-180)" fill="#231f20"/>
  <rect x="907.06" y="778.63" width="40.86" height="40.86" transform="translate(1854.99 1598.13) rotate(-180)" fill="#231f20"/>
  <rect x="778.02" y="821.7" width="40.86" height="40.86" transform="translate(1596.9 1684.27) rotate(-180)" fill="#231f20"/>
  <rect x="778.02" y="864.77" width="40.86" height="40.86" transform="translate(1596.9 1770.41) rotate(-180)" fill="#231f20"/>
  <rect x="778.02" y="907.84" width="40.86" height="40.86" transform="translate(1596.9 1856.54) rotate(-180)" fill="#231f20"/>
  <rect x="778.02" y="952.25" width="40.86" height="40.86" transform="translate(1596.9 1945.37) rotate(-180)" fill="#231f20"/>
  <rect x="778.02" y="994.91" width="40.86" height="40.86" transform="translate(1596.9 2030.69) rotate(-180)" fill="#231f20"/>
  <rect x="778.02" y="1038.48" width="40.86" height="40.86" transform="translate(1596.9 2117.83) rotate(-180)" fill="#231f20"/>
  <rect x="821.03" y="821.7" width="40.86" height="40.86" transform="translate(1682.93 1684.27) rotate(-180)" fill="#231f20"/>
  <rect x="821.03" y="865.22" width="40.86" height="40.86" transform="translate(1682.93 1771.3) rotate(-180)" fill="#231f20"/>
  <rect x="821.03" y="908.74" width="40.86" height="40.86" transform="translate(1682.93 1858.34) rotate(-180)" fill="#231f20"/>
  <rect x="821.03" y="952.25" width="40.86" height="40.86" transform="translate(1682.93 1945.37) rotate(-180)" fill="#231f20"/>
  <rect x="821.03" y="994.51" width="40.86" height="40.86" transform="translate(1682.93 2029.89) rotate(-180)" fill="#231f20"/>
  <rect x="907.06" y="995.77" width="40.86" height="40.86" transform="translate(1854.99 2032.41) rotate(-180)" fill="#231f20"/>
  <rect x="907.06" y="952.25" width="40.86" height="40.86" transform="translate(1854.99 1945.37) rotate(-180)" fill="#231f20"/>
  <rect x="907.06" y="907.84" width="40.86" height="40.86" transform="translate(1854.99 1856.54) rotate(-180)" fill="#231f20"/>
  <rect x="907.06" y="864.77" width="40.86" height="40.86" transform="translate(1854.99 1770.41) rotate(-180)" fill="#231f20"/>
  <rect x="1036.78" y="994.67" width="40.86" height="40.86" transform="translate(2114.42 2030.2) rotate(-180)" fill="#231f20"/>
  <rect x="1036.78" y="951.96" width="40.86" height="40.86" transform="translate(2114.42 1944.78) rotate(-180)" fill="#231f20"/>
  <rect x="1036.78" y="908.49" width="40.86" height="40.86" transform="translate(2114.42 1857.84) rotate(-180)" fill="#231f20"/>
  <rect x="1036.78" y="865.69" width="40.86" height="40.86" transform="translate(2114.42 1772.24) rotate(-180)" fill="#231f20"/>
  <rect x="993.57" y="865.69" width="40.86" height="40.86" transform="translate(2028 1772.24) rotate(-180)" fill="#231f20"/>
  <rect x="1036.78" y="821.7" width="40.86" height="40.86" transform="translate(2114.42 1684.27) rotate(-180)" fill="#231f20"/>
  <rect x="1036.78" y="778.63" width="40.86" height="40.86" transform="translate(2114.42 1598.13) rotate(-180)" fill="#231f20"/>
  <rect x="993.57" y="1038.19" width="40.86" height="40.86" transform="translate(2028 2117.23) rotate(-180)" fill="#231f20"/>
  <rect x="1036.78" y="1038.19" width="40.86" height="40.86" transform="translate(2114.42 2117.23) rotate(-180)" fill="#231f20"/>
  <rect x="993.57" y="994.67" width="40.86" height="40.86" transform="translate(2028 2030.2) rotate(-180)" fill="#231f20"/>
  <rect x="993.57" y="951.96" width="40.86" height="40.86" transform="translate(2028 1944.78) rotate(-180)" fill="#231f20"/>
  <rect x="993.57" y="908.93" width="40.86" height="40.86" transform="translate(2028 1858.73) rotate(-180)" fill="#231f20"/>
  <rect x="950.08" y="821.7" width="40.86" height="40.86" transform="translate(1941.02 1684.27) rotate(-180)" fill="#231f20"/>
  <rect x="993.57" y="778.63" width="40.86" height="40.86" transform="translate(2028 1598.13) rotate(-180)" fill="#231f20"/>
  <rect x="993.57" y="821.7" width="40.86" height="40.86" transform="translate(2028 1684.27) rotate(-180)" fill="#231f20"/>
  <rect x="950.08" y="692.5" width="40.86" height="40.86" transform="translate(1941.02 1425.86) rotate(-180)" fill="#231f20"/>
  <rect x="993.57" y="692.5" width="40.86" height="40.86" transform="translate(2028 1425.86) rotate(-180)" fill="#231f20"/>
  <rect x="950.08" y="735.57" width="40.86" height="40.86" transform="translate(1941.02 1511.99) rotate(-180)" fill="#231f20"/>
  <rect x="1036.78" y="692.5" width="40.86" height="40.86" transform="translate(2114.42 1425.86) rotate(-180)" fill="#231f20"/>
  <rect x="820.46" y="692.5" width="40.86" height="40.86" transform="translate(1681.79 1425.86) rotate(-180)" fill="#231f20"/>
  <rect x="863.95" y="692.5" width="40.86" height="40.86" transform="translate(1768.77 1425.86) rotate(-180)" fill="#231f20"/>
  <rect x="907.17" y="692.5" width="40.86" height="40.86" transform="translate(1855.19 1425.86) rotate(-180)" fill="#231f20"/>
  <rect x="820.46" y="735.57" width="40.86" height="40.86" transform="translate(1681.79 1511.99) rotate(-180)" fill="#231f20"/>
  <rect x="778.02" y="692.5" width="40.86" height="40.86" transform="translate(1596.9 1425.86) rotate(-180)" fill="#231f20"/>
  <rect x="778.02" y="735.57" width="40.86" height="40.86" transform="translate(1596.9 1511.99) rotate(-180)" fill="#231f20"/>
  <rect x="863.95" y="735.57" width="40.86" height="40.86" transform="translate(1768.77 1511.99) rotate(-180)" fill="#231f20"/>
  <rect x="907.17" y="735.57" width="40.86" height="40.86" transform="translate(1855.19 1511.99) rotate(-180)" fill="#231f20"/>
  <rect x="1036.78" y="735.57" width="40.86" height="40.86" transform="translate(2114.42 1512) rotate(-180)" fill="#231f20"/>
  <rect x="864.05" y="1038.48" width="40.86" height="40.86" transform="translate(1768.96 2117.83) rotate(-180)" fill="#231f20"/>
  <rect x="907.06" y="1038.48" width="40.86" height="40.86" transform="translate(1854.99 2117.83) rotate(-180)" fill="#231f20"/>
  <rect x="864.05" y="821.7" width="40.86" height="40.86" transform="translate(1768.96 1684.27) rotate(-180)" fill="#231f20"/>
  <rect x="864.05" y="865.22" width="40.86" height="40.86" transform="translate(1768.96 1771.3) rotate(-180)" fill="#231f20"/>
  <rect x="864.05" y="908.74" width="40.86" height="40.86" transform="translate(1768.96 1858.34) rotate(-180)" fill="#231f20"/>
  <rect x="691.05" y="735.57" width="40.86" height="40.86" transform="translate(1422.96 1511.99) rotate(-180)" fill="#231f20"/>
  <rect x="734.06" y="735.57" width="40.86" height="40.86" transform="translate(1508.99 1511.99) rotate(-180)" fill="#231f20"/>
  <rect x="475.27" y="605.9" width="40.86" height="40.86" transform="translate(991.4 1252.67) rotate(-180)" fill="#231f20"/>
  <rect x="561.72" y="605.9" width="40.86" height="40.86" transform="translate(1164.31 1252.67) rotate(-180)" fill="#231f20"/>
  <rect x="561.72" y="562.73" width="40.86" height="40.86" transform="translate(1164.31 1166.33) rotate(-180)" fill="#231f20"/>
  <rect x="518.52" y="562.8" width="40.86" height="40.86" transform="translate(1077.9 1166.46) rotate(-180)" fill="#231f20"/>
  <rect x="518.52" y="519.56" width="40.86" height="40.86" transform="translate(1077.9 1079.99) rotate(-180)" fill="#231f20"/>
  <rect x="345.62" y="519.53" width="40.86" height="40.86" transform="translate(732.11 1079.93) rotate(-180)" fill="#231f20"/>
  <rect x="388.91" y="519.53" width="40.86" height="40.86" transform="translate(818.67 1079.93) rotate(-180)" fill="#231f20"/>
  <rect x="432.16" y="519.53" width="40.86" height="40.86" transform="translate(905.19 1079.93) rotate(-180)" fill="#231f20"/>
  <rect x="475.27" y="519.53" width="40.86" height="40.86" transform="translate(991.4 1079.93) rotate(-180)" fill="#231f20"/>
  <rect x="518.52" y="605.9" width="40.86" height="40.86" transform="translate(1077.9 1252.67) rotate(-180)" fill="#231f20"/>
  <rect x="561.72" y="519.56" width="40.86" height="40.86" transform="translate(1164.31 1079.99) rotate(-180)" fill="#231f20"/>
  <rect x="648.15" y="562.73" width="40.86" height="40.86" transform="translate(1337.16 1166.33) rotate(-180)" fill="#231f20"/>
  <rect x="604.9" y="562.8" width="40.86" height="40.86" transform="translate(1250.66 1166.46) rotate(-180)" fill="#231f20"/>
  <rect x="604.9" y="519.56" width="40.86" height="40.86" transform="translate(1250.66 1079.99) rotate(-180)" fill="#231f20"/>
  <rect x="648.15" y="519.56" width="40.86" height="40.86" transform="translate(1337.16 1079.99) rotate(-180)" fill="#231f20"/>
  <rect x="735.26" y="562.73" width="40.86" height="40.86" transform="translate(1511.38 1166.33) rotate(-180)" fill="#231f20"/>
  <rect x="692" y="562.8" width="40.86" height="40.86" transform="translate(1424.87 1166.46) rotate(-180)" fill="#231f20"/>
  <rect x="692" y="519.56" width="40.86" height="40.86" transform="translate(1424.87 1079.99) rotate(-180)" fill="#231f20"/>
  <rect x="735.26" y="519.56" width="40.86" height="40.86" transform="translate(1511.38 1079.99) rotate(-180)" fill="#231f20"/>
  <rect x="518.52" y="476.55" width="40.86" height="40.86" transform="translate(1077.9 993.96) rotate(-180)" fill="#231f20"/>
  <rect x="561.72" y="476.55" width="40.86" height="40.86" transform="translate(1164.31 993.96) rotate(-180)" fill="#231f20"/>
  <rect x="561.72" y="433.19" width="40.86" height="40.86" transform="translate(1164.31 907.25) rotate(-180)" fill="#231f20"/>
  <rect x="518.52" y="433.26" width="40.86" height="40.86" transform="translate(1077.9 907.38) rotate(-180)" fill="#231f20"/>
  <rect x="518.52" y="390.02" width="40.86" height="40.86" transform="translate(1077.9 820.91) rotate(-180)" fill="#231f20"/>
  <rect x="561.72" y="390.02" width="40.86" height="40.86" transform="translate(1164.31 820.91) rotate(-180)" fill="#231f20"/>
  <rect x="518.52" y="346.85" width="40.86" height="40.86" transform="translate(1077.9 734.57) rotate(-180)" fill="#231f20"/>
  <rect x="561.72" y="346.85" width="40.86" height="40.86" transform="translate(1164.31 734.57) rotate(-180)" fill="#231f20"/>
  <rect x="518.52" y="303.7" width="40.86" height="40.86" transform="translate(1077.9 648.26) rotate(-180)" fill="#231f20"/>
  <rect x="561.72" y="303.7" width="40.86" height="40.86" transform="translate(1164.31 648.26) rotate(-180)" fill="#231f20"/>
  <rect x="388.91" y="433.23" width="40.86" height="40.86" transform="translate(818.67 907.31) rotate(-180)" fill="#231f20"/>
  <rect x="345.73" y="433.29" width="40.86" height="40.86" transform="translate(732.31 907.44) rotate(-180)" fill="#231f20"/>
  <rect x="345.73" y="390.06" width="40.86" height="40.86" transform="translate(732.31 820.97) rotate(-180)" fill="#231f20"/>
  <rect x="388.91" y="390.06" width="40.86" height="40.86" transform="translate(818.67 820.97) rotate(-180)" fill="#231f20"/>
  <rect x="432.16" y="390.06" width="40.86" height="40.86" transform="translate(905.19 820.97) rotate(-180)" fill="#231f20"/>
  <rect x="475.27" y="390.06" width="40.86" height="40.86" transform="translate(991.4 820.97) rotate(-180)" fill="#231f20"/>
  <rect x="345.73" y="346.89" width="40.86" height="40.86" transform="translate(732.31 734.63) rotate(-180)" fill="#231f20"/>
  <rect x="388.91" y="346.89" width="40.86" height="40.86" transform="translate(818.67 734.63) rotate(-180)" fill="#231f20"/>
  <rect x="432.16" y="346.89" width="40.86" height="40.86" transform="translate(905.19 734.63) rotate(-180)" fill="#231f20"/>
  <rect x="475.27" y="346.89" width="40.86" height="40.86" transform="translate(991.4 734.63) rotate(-180)" fill="#231f20"/>
  <rect x="432.16" y="303.72" width="40.86" height="40.86" transform="translate(905.19 648.3) rotate(-180)" fill="#231f20"/>
  <rect x="475.27" y="303.72" width="40.86" height="40.86" transform="translate(991.4 648.3) rotate(-180)" fill="#231f20"/>
  <rect x="432.16" y="260.55" width="40.86" height="40.86" transform="translate(905.19 561.96) rotate(-180)" fill="#231f20"/>
  <rect x="432.16" y="217.38" width="40.86" height="40.86" transform="translate(905.19 475.62) rotate(-180)" fill="#231f20"/>
  <rect x="475.27" y="260.55" width="40.86" height="40.86" transform="translate(991.4 561.96) rotate(-180)" fill="#231f20"/>
  <rect x="518.52" y="260.55" width="40.86" height="40.86" transform="translate(1077.9 561.96) rotate(-180)" fill="#231f20"/>
  <rect x="475.27" y="217.38" width="40.86" height="40.86" transform="translate(991.4 475.62) rotate(-180)" fill="#231f20"/>
  <rect x="604.83" y="390.02" width="40.86" height="40.86" transform="translate(1250.51 820.91) rotate(-180)" fill="#231f20"/>
  <rect x="604.83" y="346.85" width="40.86" height="40.86" transform="translate(1250.51 734.57) rotate(-180)" fill="#231f20"/>
  <rect x="604.9" y="476.55" width="40.86" height="40.86" transform="translate(1250.66 993.96) rotate(-180)" fill="#231f20"/>
  <rect x="604.9" y="433.23" width="40.86" height="40.86" transform="translate(1250.66 907.31) rotate(-180)" fill="#231f20"/>
  <rect x="648.15" y="390.06" width="40.86" height="40.86" transform="translate(1337.16 820.97) rotate(-180)" fill="#231f20"/>
  <rect x="648.15" y="346.89" width="40.86" height="40.86" transform="translate(1337.16 734.63) rotate(-180)" fill="#231f20"/>
  <rect x="734.06" y="217.38" width="40.86" height="40.86" transform="translate(1508.99 475.62) rotate(-180)" fill="#231f20"/>
  <rect x="691.38" y="260.55" width="40.86" height="40.86" transform="translate(1423.62 561.96) rotate(-180)" fill="#231f20"/>
  <rect x="691.38" y="346.89" width="40.86" height="40.86" transform="translate(1423.62 734.63) rotate(-180)" fill="#231f20"/>
  <rect x="734.59" y="346.89" width="40.86" height="40.86" transform="translate(1510.03 734.63) rotate(-180)" fill="#231f20"/>
  <rect x="691.38" y="390.06" width="40.86" height="40.86" transform="translate(1423.62 820.97) rotate(-180)" fill="#231f20"/>
  <rect x="734.59" y="390.06" width="40.86" height="40.86" transform="translate(1510.03 820.97) rotate(-180)" fill="#231f20"/>
  <rect x="648.15" y="476.55" width="40.86" height="40.86" transform="translate(1337.16 993.96) rotate(-180)" fill="#231f20"/>
  <rect x="692" y="476.55" width="40.86" height="40.86" transform="translate(1424.87 993.96) rotate(-180)" fill="#231f20"/>
  <rect x="735.26" y="476.55" width="40.86" height="40.86" transform="translate(1511.38 993.96) rotate(-180)" fill="#231f20"/>
  <rect x="692" y="433.23" width="40.86" height="40.86" transform="translate(1424.87 907.31) rotate(-180)" fill="#231f20"/>
  <rect x="735.26" y="433.23" width="40.86" height="40.86" transform="translate(1511.38 907.31) rotate(-180)" fill="#231f20"/>
  <rect x="777.75" y="390.06" width="40.86" height="40.86" transform="translate(1596.37 820.97) rotate(-180)" fill="#231f20"/>
  <rect x="821.24" y="346.89" width="40.86" height="40.86" transform="translate(1683.34 734.63) rotate(-180)" fill="#231f20"/>
  <rect x="821.24" y="390.06" width="40.86" height="40.86" transform="translate(1683.34 820.97) rotate(-180)" fill="#231f20"/>
  <rect x="864.44" y="346.89" width="40.86" height="40.86" transform="translate(1769.75 734.63) rotate(-180)" fill="#231f20"/>
  <rect x="821.24" y="303.72" width="40.86" height="40.86" transform="translate(1683.34 648.3) rotate(-180)" fill="#231f20"/>
  <rect x="864.44" y="303.72" width="40.86" height="40.86" transform="translate(1769.75 648.3) rotate(-180)" fill="#231f20"/>
  <rect x="734.59" y="303.72" width="40.86" height="40.86" transform="translate(1510.03 648.3) rotate(-180)" fill="#231f20"/>
  <rect x="777.79" y="303.72" width="40.86" height="40.86" transform="translate(1596.44 648.3) rotate(-180)" fill="#231f20"/>
  <rect x="863.95" y="390.02" width="40.86" height="40.86" transform="translate(1768.77 820.91) rotate(-180)" fill="#231f20"/>
  <rect x="907.47" y="303.72" width="40.86" height="40.86" transform="translate(1855.8 648.3) rotate(-180)" fill="#231f20"/>
  <rect x="950.67" y="303.72" width="40.86" height="40.86" transform="translate(1942.21 648.3) rotate(-180)" fill="#231f20"/>
  <rect x="907.47" y="346.85" width="40.86" height="40.86" transform="translate(1855.8 734.57) rotate(-180)" fill="#231f20"/>
  <rect x="950.67" y="346.85" width="40.86" height="40.86" transform="translate(1942.21 734.57) rotate(-180)" fill="#231f20"/>
  <rect x="993.91" y="303.72" width="40.86" height="40.86" transform="translate(2028.69 648.3) rotate(-180)" fill="#231f20"/>
  <rect x="1037.12" y="303.72" width="40.86" height="40.86" transform="translate(2115.1 648.3) rotate(-180)" fill="#231f20"/>
  <rect x="821.24" y="260.55" width="40.86" height="40.86" transform="translate(1683.34 561.96) rotate(-180)" fill="#231f20"/>
  <rect x="864.44" y="260.55" width="40.86" height="40.86" transform="translate(1769.75 561.96) rotate(-180)" fill="#231f20"/>
  <rect x="907.47" y="260.55" width="40.86" height="40.86" transform="translate(1855.8 561.96) rotate(-180)" fill="#231f20"/>
  <rect x="950.67" y="260.55" width="40.86" height="40.86" transform="translate(1942.21 561.96) rotate(-180)" fill="#231f20"/>
  <rect x="993.91" y="260.55" width="40.86" height="40.86" transform="translate(2028.69 561.96) rotate(-180)" fill="#231f20"/>
  <rect x="1037.12" y="260.55" width="40.86" height="40.86" transform="translate(2115.1 561.96) rotate(-180)" fill="#231f20"/>
  <rect x="907.47" y="217.38" width="40.86" height="40.86" transform="translate(1855.8 475.62) rotate(-180)" fill="#231f20"/>
  <rect x="950.67" y="217.38" width="40.86" height="40.86" transform="translate(1942.21 475.62) rotate(-180)" fill="#231f20"/>
  <rect x="993.91" y="217.38" width="40.86" height="40.86" transform="translate(2028.69 475.62) rotate(-180)" fill="#231f20"/>
  <rect x="1037.12" y="217.38" width="40.86" height="40.86" transform="translate(2115.1 475.62) rotate(-180)" fill="#231f20"/>
  <rect x="907.47" y="131.04" width="40.86" height="40.86" transform="translate(1855.8 302.94) rotate(-180)" fill="#231f20"/>
  <rect x="864.26" y="174.21" width="40.86" height="40.86" transform="translate(1769.39 389.28) rotate(-180)" fill="#231f20"/>
  <rect x="821.24" y="174.21" width="40.86" height="40.86" transform="translate(1683.34 389.28) rotate(-180)" fill="#231f20"/>
  <rect x="864.26" y="130.47" width="40.86" height="40.86" transform="translate(1769.39 301.8) rotate(-180)" fill="#231f20"/>
  <rect x="821.24" y="131.04" width="40.86" height="40.86" transform="translate(1683.34 302.94) rotate(-180)" fill="#231f20"/>
  <rect x="777.79" y="217.38" width="40.86" height="40.86" transform="translate(1596.44 475.62) rotate(-180)" fill="#231f20"/>
  <rect x="820.77" y="217.38" width="40.86" height="40.86" transform="translate(1682.39 475.62) rotate(-180)" fill="#231f20"/>
  <rect x="864.49" y="217.38" width="40.86" height="40.86" transform="translate(1769.85 475.62) rotate(-180)" fill="#231f20"/>
  <rect x="734.06" y="174.21" width="40.86" height="40.86" transform="translate(1508.99 389.28) rotate(-180)" fill="#231f20"/>
  <rect x="777.79" y="174.21" width="40.86" height="40.86" transform="translate(1596.44 389.28) rotate(-180)" fill="#231f20"/>
  <rect x="647.62" y="217.38" width="40.86" height="40.86" transform="translate(1336.09 475.62) rotate(-180)" fill="#231f20"/>
  <rect x="691.34" y="217.38" width="40.86" height="40.86" transform="translate(1423.55 475.62) rotate(-180)" fill="#231f20"/>
  <rect x="734.3" y="131.04" width="40.86" height="40.86" transform="translate(1509.47 302.94) rotate(-180)" fill="#231f20"/>
  <rect x="778.03" y="131.04" width="40.86" height="40.86" transform="translate(1596.93 302.94) rotate(-180)" fill="#231f20"/>
  <rect x="647.88" y="131.04" width="40.86" height="40.86" transform="translate(1336.63 302.94) rotate(-180)" fill="#231f20"/>
  <rect x="691.61" y="131.04" width="40.86" height="40.86" transform="translate(1424.08 302.94) rotate(-180)" fill="#231f20"/>
  <rect x="734.3" y="87.87" width="40.86" height="40.86" transform="translate(1509.47 216.6) rotate(-180)" fill="#231f20"/>
  <rect x="778.03" y="87.87" width="40.86" height="40.86" transform="translate(1596.93 216.6) rotate(-180)" fill="#231f20"/>
  <rect x="647.88" y="87.87" width="40.86" height="40.86" transform="translate(1336.63 216.6) rotate(-180)" fill="#231f20"/>
  <rect x="475.27" y="174.21" width="40.86" height="40.86" transform="translate(991.4 389.28) rotate(-180)" fill="#231f20"/>
  <rect x="518.52" y="174.21" width="40.86" height="40.86" transform="translate(1077.9 389.28) rotate(-180)" fill="#231f20"/>
  <rect x="561.72" y="130.47" width="40.86" height="40.86" transform="translate(1164.31 301.8) rotate(-180)" fill="#231f20"/>
  <rect x="691.61" y="87.87" width="40.86" height="40.86" transform="translate(1424.08 216.6) rotate(-180)" fill="#231f20"/>
  <rect x="734.3" y="44.7" width="40.86" height="40.86" transform="translate(1509.47 130.26) rotate(-180)" fill="#231f20"/>
  <rect x="778.03" y="44.7" width="40.86" height="40.86" transform="translate(1596.93 130.26) rotate(-180)" fill="#231f20"/>
  <rect x="647.88" y="44.7" width="40.86" height="40.86" transform="translate(1336.63 130.26) rotate(-180)" fill="#231f20"/>
  <rect x="691.61" y="44.7" width="40.86" height="40.86" transform="translate(1424.08 130.26) rotate(-180)" fill="#231f20"/>
  <rect x="907.2" y="44.7" width="40.86" height="40.86" transform="translate(1855.26 130.26) rotate(-180)" fill="#231f20"/>
  <rect x="950.93" y="44.7" width="40.86" height="40.86" transform="translate(1942.72 130.26) rotate(-180)" fill="#231f20"/>
  <rect x="820.78" y="44.7" width="40.86" height="40.86" transform="translate(1682.41 130.26) rotate(-180)" fill="#231f20"/>
  <rect x="864.5" y="44.7" width="40.86" height="40.86" transform="translate(1769.87 130.26) rotate(-180)" fill="#231f20"/>
  <rect x="647.88" y="174.21" width="40.86" height="40.86" transform="translate(1336.63 389.28) rotate(-180)" fill="#231f20"/>
  <rect x="604.83" y="303.72" width="40.86" height="40.86" transform="translate(1250.51 648.3) rotate(-180)" fill="#231f20"/>
  <rect x="561.52" y="260.55" width="40.86" height="40.86" transform="translate(1163.9 561.96) rotate(-180)" fill="#231f20"/>
  <rect x="604.9" y="217.38" width="40.86" height="40.86" transform="translate(1250.66 475.62) rotate(-180)" fill="#231f20"/>
  <rect x="647.62" y="260.55" width="40.86" height="40.86" transform="translate(1336.09 561.96) rotate(-180)" fill="#231f20"/>
  <rect x="691.38" y="303.72" width="40.86" height="40.86" transform="translate(1423.62 648.3) rotate(-180)" fill="#231f20"/>
  <rect x="647.62" y="303.72" width="40.86" height="40.86" transform="translate(1336.09 648.3) rotate(-180)" fill="#231f20"/>
  <rect x="778.07" y="260.55" width="40.86" height="40.86" transform="translate(1597 561.96) rotate(-180)" fill="#231f20"/>
  <rect x="734.31" y="260.55" width="40.86" height="40.86" transform="translate(1509.47 561.96) rotate(-180)" fill="#231f20"/>
  <rect x="604.9" y="260.55" width="40.86" height="40.86" transform="translate(1250.66 561.96) rotate(-180)" fill="#231f20"/>
  <rect x="561.5" y="217.38" width="40.86" height="40.86" transform="translate(1163.86 475.62) rotate(-180)" fill="#231f20"/>
  <rect x="518.52" y="217.38" width="40.86" height="40.86" transform="translate(1077.9 475.62) rotate(-180)" fill="#231f20"/>
  <rect x="691.61" y="174.21" width="40.86" height="40.86" transform="translate(1424.08 389.28) rotate(-180)" fill="#231f20"/>
  <rect x="561.44" y="174.21" width="40.86" height="40.86" transform="translate(1163.74 389.28) rotate(-180)" fill="#231f20"/>
  <rect x="605.17" y="174.21" width="40.86" height="40.86" transform="translate(1251.2 389.28) rotate(-180)" fill="#231f20"/>
  <rect x="605.17" y="130.47" width="40.86" height="40.86" transform="translate(1251.2 301.8) rotate(-180)" fill="#231f20"/>
  <rect x="864.44" y="87.87" width="40.86" height="40.86" transform="translate(1769.75 216.6) rotate(-180)" fill="#231f20"/>
  <rect x="821.24" y="87.87" width="40.86" height="40.86" transform="translate(1683.34 216.6) rotate(-180)" fill="#231f20"/>
  <rect x="993.88" y="44.7" width="40.86" height="40.86" transform="translate(2028.62 130.26) rotate(-180)" fill="#231f20"/>
  <rect x="1037.15" y="44.7" width="40.86" height="40.86" transform="translate(2115.16 130.26) rotate(-180)" fill="#231f20"/>
  <rect x="907.2" y="1.53" width="40.86" height="40.86" transform="translate(1855.26 43.92) rotate(-180)" fill="#231f20"/>
  <rect x="950.93" y="1.53" width="40.86" height="40.86" transform="translate(1942.72 43.92) rotate(-180)" fill="#231f20"/>
  <rect x="820.78" y="1.53" width="40.86" height="40.86" transform="translate(1682.41 43.92) rotate(-180)" fill="#231f20"/>
  <rect x="864.5" y="1.53" width="40.86" height="40.86" transform="translate(1769.87 43.92) rotate(-180)" fill="#231f20"/>
  <rect x="993.88" y="1.53" width="40.86" height="40.86" transform="translate(2028.62 43.92) rotate(-180)" fill="#231f20"/>
  <rect x="1037.15" y="1.53" width="40.86" height="40.86" transform="translate(2115.16 43.92) rotate(-180)" fill="#231f20"/>
  <rect x="950.68" y="131.04" width="40.86" height="40.86" transform="translate(1942.21 302.94) rotate(-180)" fill="#231f20"/>
  <rect x="993.91" y="131.04" width="40.86" height="40.86" transform="translate(2028.69 302.94) rotate(-180)" fill="#231f20"/>
  <rect x="1037.12" y="131.04" width="40.86" height="40.86" transform="translate(2115.1 302.94) rotate(-180)" fill="#231f20"/>
  <rect x="907.47" y="87.87" width="40.86" height="40.86" transform="translate(1855.8 216.6) rotate(-180)" fill="#231f20"/>
  <rect x="950.68" y="87.87" width="40.86" height="40.86" transform="translate(1942.21 216.6) rotate(-180)" fill="#231f20"/>
  <rect x="993.91" y="87.87" width="40.86" height="40.86" transform="translate(2028.69 216.6) rotate(-180)" fill="#231f20"/>
  <rect x="1037.12" y="87.87" width="40.86" height="40.86" transform="translate(2115.1 216.6) rotate(-180)" fill="#231f20"/>
  <rect x="907.47" y="174.21" width="40.86" height="40.86" transform="translate(1855.8 389.28) rotate(-180)" fill="#231f20"/>
  <rect x="950.68" y="174.21" width="40.86" height="40.86" transform="translate(1942.21 389.28) rotate(-180)" fill="#231f20"/>
  <rect x="993.91" y="174.21" width="40.86" height="40.86" transform="translate(2028.69 389.28) rotate(-180)" fill="#231f20"/>
  <rect x="1037.12" y="174.21" width="40.86" height="40.86" transform="translate(2115.1 389.28) rotate(-180)" fill="#231f20"/>
  <rect x="778.22" y="476.55" width="40.86" height="40.86" transform="translate(1597.31 993.96) rotate(-180)" fill="#231f20"/>
  <rect x="821.24" y="433.23" width="40.86" height="40.86" transform="translate(1683.34 907.31) rotate(-180)" fill="#231f20"/>
  <rect x="778.22" y="433.23" width="40.86" height="40.86" transform="translate(1597.31 907.31) rotate(-180)" fill="#231f20"/>
  <rect x="907.47" y="390.06" width="40.86" height="40.86" transform="translate(1855.8 820.97) rotate(-180)" fill="#231f20"/>
  <rect x="950.67" y="390.06" width="40.86" height="40.86" transform="translate(1942.21 820.97) rotate(-180)" fill="#231f20"/>
  <rect x="993.88" y="346.89" width="40.86" height="40.86" transform="translate(2028.62 734.64) rotate(-180)" fill="#231f20"/>
  <rect x="1037.12" y="346.89" width="40.86" height="40.86" transform="translate(2115.1 734.64) rotate(-180)" fill="#231f20"/>
  <rect x="345.62" y="692.5" width="40.86" height="40.86" transform="translate(732.11 1425.86) rotate(-180)" fill="#231f20"/>
  <rect x="388.91" y="605.9" width="40.86" height="40.86" transform="translate(818.67 1252.67) rotate(-180)" fill="#231f20"/>
  <rect x="258.91" y="778.63" width="40.86" height="40.86" transform="translate(558.68 1598.13) rotate(-180)" fill="#231f20"/>
  <rect x="216.38" y="735.57" width="40.86" height="40.86" transform="translate(473.61 1511.99) rotate(-180)" fill="#231f20"/>
  <rect x="216.38" y="692.5" width="40.86" height="40.86" transform="translate(473.61 1425.86) rotate(-180)" fill="#231f20"/>
  <rect x="258.91" y="606.11" width="40.86" height="40.86" transform="translate(558.68 1253.09) rotate(-180)" fill="#231f20"/>
  <rect x="216.38" y="606.11" width="40.86" height="40.86" transform="translate(473.61 1253.09) rotate(-180)" fill="#231f20"/>
  <rect x="216.38" y="649.49" width="40.86" height="40.86" transform="translate(473.61 1339.85) rotate(-180)" fill="#231f20"/>
  <rect x="216.38" y="778.63" width="40.86" height="40.86" transform="translate(473.61 1598.13) rotate(-180)" fill="#231f20"/>
  <rect x="86.21" y="821.7" width="40.86" height="40.86" transform="translate(213.27 1684.27) rotate(-180)" fill="#231f20"/>
  <rect x="86.21" y="865.69" width="40.86" height="40.86" transform="translate(213.27 1772.24) rotate(-180)" fill="#231f20"/>
  <rect x="86.21" y="908.6" width="40.86" height="40.86" transform="translate(213.27 1858.07) rotate(-180)" fill="#231f20"/>
  <rect x="86.21" y="951.73" width="40.86" height="40.86" transform="translate(213.27 1944.31) rotate(-180)" fill="#231f20"/>
  <rect x="86.21" y="995.04" width="40.86" height="40.86" transform="translate(213.27 2030.95) rotate(-180)" fill="#231f20"/>
  <rect x="86.21" y="1038.17" width="40.86" height="40.86" transform="translate(213.27 2117.2) rotate(-180)" fill="#231f20"/>
  <rect x="86.21" y="735.57" width="40.86" height="40.86" transform="translate(213.27 1511.99) rotate(-180)" fill="#231f20"/>
  <rect x="86.21" y="692.5" width="40.86" height="40.86" transform="translate(213.27 1425.86) rotate(-180)" fill="#231f20"/>
  <rect x="86.21" y="562.8" width="40.86" height="40.86" transform="translate(213.27 1166.46) rotate(-180)" fill="#231f20"/>
  <rect x="86.21" y="519.53" width="40.86" height="40.86" transform="translate(213.27 1079.93) rotate(-180)" fill="#231f20"/>
  <rect x="86.21" y="476.55" width="40.86" height="40.86" transform="translate(213.27 993.96) rotate(-180)" fill="#231f20"/>
  <rect x="86.21" y="433.1" width="40.86" height="40.86" transform="translate(213.27 907.06) rotate(-180)" fill="#231f20"/>
  <rect x="43.2" y="562.8" width="40.86" height="40.86" transform="translate(127.26 1166.46) rotate(-180)" fill="#231f20"/>
  <rect x="43.2" y="519.53" width="40.86" height="40.86" transform="translate(127.26 1079.93) rotate(-180)" fill="#231f20"/>
  <rect x="43.2" y="476.55" width="40.86" height="40.86" transform="translate(127.26 993.96) rotate(-180)" fill="#231f20"/>
  <rect x="43.2" y="433.1" width="40.86" height="40.86" transform="translate(127.26 907.06) rotate(-180)" fill="#231f20"/>
  <rect x="259.65" y="303.72" width="40.86" height="40.86" transform="translate(560.15 648.3) rotate(-180)" fill="#231f20"/>
  <rect x="345.38" y="217.41" width="40.86" height="40.86" transform="translate(731.61 475.67) rotate(-180)" fill="#231f20"/>
  <rect x="388.91" y="174.21" width="40.86" height="40.86" transform="translate(818.67 389.28) rotate(-180)" fill="#231f20"/>
  <rect x="475.27" y="87.87" width="40.86" height="40.86" transform="translate(991.4 216.6) rotate(-180)" fill="#231f20"/>
  <rect x="518.52" y="44.7" width="40.86" height="40.86" transform="translate(1077.9 130.26) rotate(-180)" fill="#231f20"/>
  <rect x="605.17" y="1.53" width="40.86" height="40.86" transform="translate(1251.2 43.92) rotate(-180)" fill="#231f20"/>
  <rect x="345.87" y="303.72" width="40.86" height="40.86" transform="translate(732.61 648.3) rotate(-180)" fill="#231f20"/>
  <rect x="215.72" y="346.63" width="40.86" height="40.86" transform="translate(472.3 734.12) rotate(-180)" fill="#231f20"/>
  <rect x="173.14" y="303.56" width="40.86" height="40.86" transform="translate(387.15 647.98) rotate(-180)" fill="#231f20"/>
  <rect x="173.14" y="260.49" width="40.86" height="40.86" transform="translate(387.15 561.84) rotate(-180)" fill="#231f20"/>
  <rect x="215.72" y="217.35" width="40.86" height="40.86" transform="translate(472.3 475.56) rotate(-180)" fill="#231f20"/>
  <rect x="259.23" y="173.49" width="40.86" height="40.86" transform="translate(559.32 387.84) rotate(-180)" fill="#231f20"/>
  <rect x="302.69" y="130.47" width="40.86" height="40.86" transform="translate(646.24 301.8) rotate(-180)" fill="#231f20"/>
  <rect x="345.87" y="87.16" width="40.86" height="40.86" transform="translate(732.61 215.19) rotate(-180)" fill="#231f20"/>
  <rect x="388.91" y="44.25" width="40.86" height="40.86" transform="translate(818.67 129.36) rotate(-180)" fill="#231f20"/>
  <rect x="432.16" y=".66" width="40.86" height="40.86" transform="translate(905.19 42.17) rotate(-180)" fill="#231f20"/>
  <rect x="129.67" y="346.63" width="40.86" height="40.86" transform="translate(300.19 734.12) rotate(-180)" fill="#231f20"/>
  <rect x="43.2" y="260.55" width="40.86" height="40.86" transform="translate(127.26 561.96) rotate(-180)" fill="#231f20"/>
  <rect x="86.21" y="260.55" width="40.86" height="40.86" transform="translate(213.27 561.96) rotate(-180)" fill="#231f20"/>
  <rect x="43.2" y="303.72" width="40.86" height="40.86" transform="translate(127.26 648.3) rotate(-180)" fill="#231f20"/>
  <rect x="86.21" y="303.72" width="40.86" height="40.86" transform="translate(213.27 648.3) rotate(-180)" fill="#231f20"/>
  <rect x="86.21" y="217.35" width="40.86" height="40.86" transform="translate(213.27 475.56) rotate(-180)" fill="#231f20"/>
  <rect x="129.67" y="217.35" width="40.86" height="40.86" transform="translate(300.19 475.56) rotate(-180)" fill="#231f20"/>
  <rect x="172.69" y="174.24" width="40.86" height="40.86" transform="translate(386.25 389.33) rotate(-180)" fill="#231f20"/>
  <rect x="215.72" y="130.47" width="40.86" height="40.86" transform="translate(472.3 301.8) rotate(-180)" fill="#231f20"/>
  <rect x="259.51" y="44.7" width="40.86" height="40.86" transform="translate(559.88 130.26) rotate(-180)" fill="#231f20"/>
  <rect x="345.87" y="1.53" width="40.86" height="40.86" transform="translate(732.61 43.92) rotate(-180)" fill="#231f20"/>
  <rect x="86.21" y="174.21" width="40.86" height="40.86" transform="translate(213.27 389.28) rotate(-180)" fill="#231f20"/>
  <rect x="86.21" y="131.04" width="40.86" height="40.86" transform="translate(213.27 302.94) rotate(-180)" fill="#231f20"/>
  <rect x="129.67" y="87.16" width="40.86" height="40.86" transform="translate(300.19 215.19) rotate(-180)" fill="#231f20"/>
  <rect x="173.14" y="44.7" width="40.86" height="40.86" transform="translate(387.15 130.26) rotate(-180)" fill="#231f20"/>
  <rect x="216.15" y=".66" width="40.86" height="40.86" transform="translate(473.17 42.17) rotate(-180)" fill="#231f20"/>
  <rect x="215.72" y="390.02" width="40.86" height="40.86" transform="translate(472.3 820.91) rotate(-180)" fill="#231f20"/>
  <rect x="173.02" y="433.22" width="40.86" height="40.86" transform="translate(386.9 907.31) rotate(-180)" fill="#231f20"/>
  <rect x="259.65" y="433.22" width="40.86" height="40.86" transform="translate(560.15 907.31) rotate(-180)" fill="#231f20"/>
  <rect x="302.74" y="476.55" width="40.86" height="40.86" transform="translate(646.34 993.96) rotate(-180)" fill="#231f20"/>
  <rect x="302.91" y="519.56" width="40.86" height="40.86" transform="translate(646.69 1079.99) rotate(-180)" fill="#231f20"/>
  <rect x="259.68" y="562.8" width="40.86" height="40.86" transform="translate(560.22 1166.46) rotate(-180)" fill="#231f20"/>
  <rect x="259.86" y="519.56" width="40.86" height="40.86" transform="translate(560.58 1079.99) rotate(-180)" fill="#231f20"/>
  <rect x="302.91" y="389.7" width="40.86" height="40.86" transform="translate(646.69 820.26) rotate(-180)" fill="#231f20"/>
  <rect x="86.21" y="778.63" width="40.86" height="40.86" transform="translate(213.27 1598.13) rotate(-180)" fill="#231f20"/>
  <rect x=".41" y="821.7" width="40.86" height="40.86" transform="translate(41.69 1684.27) rotate(-180)" fill="#231f20"/>
  <rect x=".41" y="865.69" width="40.86" height="40.86" transform="translate(41.69 1772.23) rotate(-180)" fill="#231f20"/>
  <rect x=".41" y="908.6" width="40.86" height="40.86" transform="translate(41.69 1858.07) rotate(-180)" fill="#231f20"/>
  <rect x=".41" y="951.73" width="40.86" height="40.86" transform="translate(41.69 1944.31) rotate(-180)" fill="#231f20"/>
  <rect x=".41" y="995.04" width="40.86" height="40.86" transform="translate(41.69 2030.95) rotate(-180)" fill="#231f20"/>
  <rect x=".41" y="1038.17" width="40.86" height="40.86" transform="translate(41.69 2117.2) rotate(-180)" fill="#231f20"/>
  <rect x=".41" y="735.57" width="40.86" height="40.86" transform="translate(41.69 1511.99) rotate(-180)" fill="#231f20"/>
  <rect x=".41" y="692.5" width="40.86" height="40.86" transform="translate(41.69 1425.86) rotate(-180)" fill="#231f20"/>
  <rect x=".41" y="778.63" width="40.86" height="40.86" transform="translate(41.69 1598.13) rotate(-180)" fill="#231f20"/>
  <rect x=".41" y="432.77" width="40.86" height="40.86" transform="translate(41.69 906.39) rotate(-180)" fill="#231f20"/>
  <rect x=".41" y="476.55" width="40.86" height="40.86" transform="translate(41.69 993.96) rotate(-180)" fill="#231f20"/>
  <rect x=".41" y="519.66" width="40.86" height="40.86" transform="translate(41.69 1080.19) rotate(-180)" fill="#231f20"/>
  <rect x=".41" y="562.79" width="40.86" height="40.86" transform="translate(41.69 1166.44) rotate(-180)" fill="#231f20"/>
  <rect x=".41" y="606.11" width="40.86" height="40.86" transform="translate(41.69 1253.08) rotate(-180)" fill="#231f20"/>
  <rect x=".41" y="649.23" width="40.86" height="40.86" transform="translate(41.69 1339.32) rotate(-180)" fill="#231f20"/>
  <rect x=".41" y="346.63" width="40.86" height="40.86" transform="translate(41.69 734.12) rotate(-180)" fill="#231f20"/>
  <rect x=".41" y="303.56" width="40.86" height="40.86" transform="translate(41.69 647.98) rotate(-180)" fill="#231f20"/>
  <rect x=".41" y="389.7" width="40.86" height="40.86" transform="translate(41.69 820.26) rotate(-180)" fill="#231f20"/>
  <rect x=".41" y="130.47" width="40.86" height="40.86" transform="translate(41.69 301.8) rotate(-180)" fill="#231f20"/>
  <rect x=".41" y="174.45" width="40.86" height="40.86" transform="translate(41.69 389.77) rotate(-180)" fill="#231f20"/>
  <rect x=".41" y="217.37" width="40.86" height="40.86" transform="translate(41.69 475.6) rotate(-180)" fill="#231f20"/>
  <rect x="43.2" y="174.45" width="40.86" height="40.86" transform="translate(127.26 389.77) rotate(-180)" fill="#231f20"/>
  <rect x="43.2" y="217.37" width="40.86" height="40.86" transform="translate(127.26 475.6) rotate(-180)" fill="#231f20"/>
  <rect x=".41" y="260.49" width="40.86" height="40.86" transform="translate(41.69 561.84) rotate(-180)" fill="#231f20"/>
  <rect x=".41" y="44.33" width="40.86" height="40.86" transform="translate(41.69 129.53) rotate(-180)" fill="#231f20"/>
  <rect x="43.2" y="44.33" width="40.86" height="40.86" transform="translate(127.26 129.53) rotate(-180)" fill="#231f20"/>
  <rect x=".41" y="1.26" width="40.86" height="40.86" transform="translate(41.69 43.39) rotate(-180)" fill="#231f20"/>
  <rect x=".41" y="87.4" width="40.86" height="40.86" transform="translate(41.69 215.66) rotate(-180)" fill="#231f20"/>
  <rect x="230.11" y="447.02" width="13.4" height="13.4" transform="translate(473.61 907.44) rotate(-180)" fill="#231f20"/>
  <rect x="99.94" y="403.43" width="13.4" height="13.4" transform="translate(213.27 820.26) rotate(-180)" fill="#231f20"/>
  <rect x="56.93" y="403.43" width="13.4" height="13.4" transform="translate(127.26 820.26) rotate(-180)" fill="#231f20"/>
  <rect x="99.94" y="360.67" width="13.4" height="13.4" transform="translate(213.27 734.75) rotate(-180)" fill="#231f20"/>
  <rect x="56.93" y="360.67" width="13.4" height="13.4" transform="translate(127.26 734.75) rotate(-180)" fill="#231f20"/>
  <rect x="272.15" y="403.75" width="13.4" height="13.4" transform="translate(557.71 820.91) rotate(-180)" fill="#231f20"/>
  <rect x="272.15" y="360.62" width="13.4" height="13.4" transform="translate(557.71 734.63) rotate(-180)" fill="#231f20"/>
  <rect x="316.47" y="360.62" width="13.4" height="13.4" transform="translate(646.34 734.63) rotate(-180)" fill="#231f20"/>
  <rect x="359.46" y="274.28" width="13.4" height="13.4" transform="translate(732.31 561.96) rotate(-180)" fill="#231f20"/>
  <rect x="402.64" y="231.11" width="13.4" height="13.4" transform="translate(818.67 475.62) rotate(-180)" fill="#231f20"/>
  <rect x="445.89" y="185.9" width="13.4" height="13.4" transform="translate(905.19 385.21) rotate(-180)" fill="#231f20"/>
  <rect x="489" y="143.36" width="13.4" height="13.4" transform="translate(991.4 300.12) rotate(-180)" fill="#231f20"/>
  <rect x="532.25" y="143.36" width="13.4" height="13.4" transform="translate(1077.9 300.12) rotate(-180)" fill="#231f20"/>
  <rect x="445.89" y="143.36" width="13.4" height="13.4" transform="translate(905.19 300.12) rotate(-180)" fill="#231f20"/>
  <rect x="532.25" y="101.6" width="13.4" height="13.4" transform="translate(1077.9 216.6) rotate(-180)" fill="#231f20"/>
  <rect x="575.46" y="101.6" width="13.4" height="13.4" transform="translate(1164.31 216.6) rotate(-180)" fill="#231f20"/>
  <rect x="618.56" y="101.6" width="13.4" height="13.4" transform="translate(1250.51 216.6) rotate(-180)" fill="#231f20"/>
  <rect x="575.46" y="58.43" width="13.4" height="13.4" transform="translate(1164.31 130.26) rotate(-180)" fill="#231f20"/>
  <rect x="618.9" y="58.43" width="13.4" height="13.4" transform="translate(1251.2 130.26) rotate(-180)" fill="#231f20"/>
  <rect x="660.32" y="13.59" width="13.4" height="13.4" transform="translate(1334.04 40.57) rotate(-180)" fill="#231f20"/>
  <rect x="703.77" y="13.59" width="13.4" height="13.4" transform="translate(1420.93 40.57) rotate(-180)" fill="#231f20"/>
  <rect x="748.2" y="13.59" width="13.4" height="13.4" transform="translate(1509.79 40.57) rotate(-180)" fill="#231f20"/>
  <rect x="791.64" y="13.59" width="13.4" height="13.4" transform="translate(1596.68 40.57) rotate(-180)" fill="#231f20"/>
  <rect x="575.17" y="12.15" width="13.4" height="13.4" transform="translate(1163.74 37.7) rotate(-180)" fill="#231f20"/>
  <rect x="532.25" y="12.15" width="13.4" height="13.4" transform="translate(1077.9 37.7) rotate(-180)" fill="#231f20"/>
  <rect x="489" y="12.15" width="13.4" height="13.4" transform="translate(991.4 37.7) rotate(-180)" fill="#231f20"/>
  <rect x="489" y="58.43" width="13.4" height="13.4" transform="translate(991.4 130.26) rotate(-180)" fill="#231f20"/>
  <rect x="445.89" y="58.43" width="13.4" height="13.4" transform="translate(905.19 130.26) rotate(-180)" fill="#231f20"/>
  <rect x="445.89" y="101.6" width="13.4" height="13.4" transform="translate(905.19 216.6) rotate(-180)" fill="#231f20"/>
  <rect x="316.47" y="187.94" width="13.4" height="13.4" transform="translate(646.34 389.28) rotate(-180)" fill="#231f20"/>
  <rect x="359.6" y="187.94" width="13.4" height="13.4" transform="translate(732.61 389.28) rotate(-180)" fill="#231f20"/>
  <rect x="359.6" y="143.36" width="13.4" height="13.4" transform="translate(732.61 300.12) rotate(-180)" fill="#231f20"/>
  <rect x="402.64" y="101.6" width="13.4" height="13.4" transform="translate(818.67 216.6) rotate(-180)" fill="#231f20"/>
  <rect x="402.64" y="143.36" width="13.4" height="13.4" transform="translate(818.67 300.12) rotate(-180)" fill="#231f20"/>
  <rect x="316.65" y="317.45" width="13.4" height="13.4" transform="translate(646.69 648.3) rotate(-180)" fill="#231f20"/>
  <rect x="316.65" y="274.28" width="13.4" height="13.4" transform="translate(646.69 561.96) rotate(-180)" fill="#231f20"/>
  <rect x="230.11" y="490.28" width="13.4" height="13.4" transform="translate(473.61 993.96) rotate(-180)" fill="#231f20"/>
  <rect x="272.15" y="490.28" width="13.4" height="13.4" transform="translate(557.71 993.96) rotate(-180)" fill="#231f20"/>
  <rect x="186.75" y="490.28" width="13.4" height="13.4" transform="translate(386.9 993.96) rotate(-180)" fill="#231f20"/>
  <rect x="402.64" y="490.28" width="13.4" height="13.4" transform="translate(818.67 993.96) rotate(-180)" fill="#231f20"/>
  <rect x="358.21" y="490.28" width="13.4" height="13.4" transform="translate(729.82 993.96) rotate(-180)" fill="#231f20"/>
  <rect x="1052.04" y="663.16" width="13.4" height="13.4" transform="translate(2117.47 1339.72) rotate(-180)" fill="#231f20"/>
  <rect x="1008.68" y="663.16" width="13.4" height="13.4" transform="translate(2030.76 1339.72) rotate(-180)" fill="#231f20"/>
  <rect x="963.81" y="663.16" width="13.4" height="13.4" transform="translate(1941.02 1339.72) rotate(-180)" fill="#231f20"/>
  <rect x="1052.04" y="576.57" width="13.4" height="13.4" transform="translate(2117.47 1166.54) rotate(-180)" fill="#231f20"/>
  <rect x="1008.68" y="576.57" width="13.4" height="13.4" transform="translate(2030.76 1166.54) rotate(-180)" fill="#231f20"/>
  <rect x="963.81" y="576.57" width="13.4" height="13.4" transform="translate(1941.02 1166.54) rotate(-180)" fill="#231f20"/>
  <rect x="878.8" y="576.57" width="13.4" height="13.4" transform="translate(1770.99 1166.54) rotate(-180)" fill="#231f20"/>
  <rect x="833.93" y="576.57" width="13.4" height="13.4" transform="translate(1681.25 1166.54) rotate(-180)" fill="#231f20"/>
  <rect x="965.24" y="533.3" width="13.4" height="13.4" transform="translate(1943.88 1079.99) rotate(-180)" fill="#231f20"/>
  <rect x="920.37" y="533.3" width="13.4" height="13.4" transform="translate(1854.14 1079.99) rotate(-180)" fill="#231f20"/>
  <rect x="791.48" y="533.29" width="13.4" height="13.4" transform="translate(1596.37 1079.99) rotate(-180)" fill="#231f20"/>
  <rect x="1052.04" y="490.28" width="13.4" height="13.4" transform="translate(2117.47 993.96) rotate(-180)" fill="#231f20"/>
  <rect x="1008.68" y="490.28" width="13.4" height="13.4" transform="translate(2030.76 993.96) rotate(-180)" fill="#231f20"/>
  <rect x="963.81" y="490.28" width="13.4" height="13.4" transform="translate(1941.02 993.96) rotate(-180)" fill="#231f20"/>
  <rect x="1007.92" y="446.96" width="13.4" height="13.4" transform="translate(2029.24 907.31) rotate(-180)" fill="#231f20"/>
  <rect x="964.56" y="446.96" width="13.4" height="13.4" transform="translate(1942.53 907.31) rotate(-180)" fill="#231f20"/>
  <rect x="1052.04" y="403.79" width="13.4" height="13.4" transform="translate(2117.47 820.97) rotate(-180)" fill="#231f20"/>
  <rect x="1008.68" y="403.79" width="13.4" height="13.4" transform="translate(2030.76 820.97) rotate(-180)" fill="#231f20"/>
  <rect x="922.65" y="446.96" width="13.4" height="13.4" transform="translate(1858.71 907.31) rotate(-180)" fill="#231f20"/>
  <rect x="877.68" y="446.96" width="13.4" height="13.4" transform="translate(1768.77 907.31) rotate(-180)" fill="#231f20"/>
  <rect x="966.41" y="619.84" width="13.4" height="13.4" transform="translate(1946.22 1253.09) rotate(-180)" fill="#231f20"/>
  <rect x="921.54" y="619.84" width="13.4" height="13.4" transform="translate(1856.48 1253.09) rotate(-180)" fill="#231f20"/>
  <rect x="186.75" y="534.56" width="13.4" height="13.4" transform="translate(386.9 1082.52) rotate(-180)" fill="#231f20"/>
  <rect x="186.75" y="576.4" width="13.4" height="13.4" transform="translate(386.9 1166.19) rotate(-180)" fill="#231f20"/>
  <rect x="186.75" y="619.86" width="13.4" height="13.4" transform="translate(386.9 1253.11) rotate(-180)" fill="#231f20"/>
  <rect x="144.16" y="576.97" width="13.4" height="13.4" transform="translate(301.73 1167.34) rotate(-180)" fill="#231f20"/>
  <rect x="144.16" y="534.56" width="13.4" height="13.4" transform="translate(301.73 1082.52) rotate(-180)" fill="#231f20"/>
  <rect x="144.16" y="448.2" width="13.4" height="13.4" transform="translate(301.73 909.81) rotate(-180)" fill="#231f20"/>
  <rect x="144.16" y="490.28" width="13.4" height="13.4" transform="translate(301.73 993.96) rotate(-180)" fill="#231f20"/>
  <rect x="273.5" y="663.22" width="13.4" height="13.4" transform="translate(560.4 1339.85) rotate(-180)" fill="#231f20"/>
  <rect x="230.92" y="576.97" width="13.4" height="13.4" transform="translate(475.23 1167.34) rotate(-180)" fill="#231f20"/>
  <rect x="144.16" y="404.78" width="13.4" height="13.4" transform="translate(301.73 822.96) rotate(-180)" fill="#231f20"/>
  <rect x="186.75" y="404.78" width="13.4" height="13.4" transform="translate(386.9 822.96) rotate(-180)" fill="#231f20"/>
  <rect x="186.75" y="360.62" width="13.4" height="13.4" transform="translate(386.9 734.63) rotate(-180)" fill="#231f20"/>
  <rect x="144.16" y="274.28" width="13.4" height="13.4" transform="translate(301.73 561.96) rotate(-180)" fill="#231f20"/>
  <rect x="143.4" y="144.2" width="13.4" height="13.4" transform="translate(300.19 301.8) rotate(-180)" fill="#231f20"/>
  <rect x="186.87" y="101.6" width="13.4" height="13.4" transform="translate(387.15 216.6) rotate(-180)" fill="#231f20"/>
  <rect x="229.45" y="101.6" width="13.4" height="13.4" transform="translate(472.3 216.6) rotate(-180)" fill="#231f20"/>
  <rect x="229.45" y="58.43" width="13.4" height="13.4" transform="translate(472.3 130.26) rotate(-180)" fill="#231f20"/>
  <rect x="143.4" y="184.59" width="13.4" height="13.4" transform="translate(300.19 382.58) rotate(-180)" fill="#231f20"/>
  <rect x="186.87" y="231.14" width="13.4" height="13.4" transform="translate(387.15 475.67) rotate(-180)" fill="#231f20"/>
  <rect x="144.16" y="317.45" width="13.4" height="13.4" transform="translate(301.73 648.3) rotate(-180)" fill="#231f20"/>
  <rect x="230.11" y="317.45" width="13.4" height="13.4" transform="translate(473.61 648.3) rotate(-180)" fill="#231f20"/>
  <rect x="230.11" y="274.22" width="13.4" height="13.4" transform="translate(473.61 561.84) rotate(-180)" fill="#231f20"/>
  <rect x="272.15" y="274.22" width="13.4" height="13.4" transform="translate(557.71 561.84) rotate(-180)" fill="#231f20"/>
  <rect x="229.45" y="187.97" width="13.4" height="13.4" transform="translate(472.3 389.33) rotate(-180)" fill="#231f20"/>
  <rect x="273.24" y="143.36" width="13.4" height="13.4" transform="translate(559.88 300.12) rotate(-180)" fill="#231f20"/>
  <rect x="273.24" y="101.6" width="13.4" height="13.4" transform="translate(559.88 216.6) rotate(-180)" fill="#231f20"/>
  <rect x="359.11" y="58.43" width="13.4" height="13.4" transform="translate(731.61 130.26) rotate(-180)" fill="#231f20"/>
  <rect x="316.65" y="58.43" width="13.4" height="13.4" transform="translate(646.69 130.26) rotate(-180)" fill="#231f20"/>
  <rect x="316.65" y="12.15" width="13.4" height="13.4" transform="translate(646.69 37.7) rotate(-180)" fill="#231f20"/>
  <rect x="273.24" y="12.15" width="13.4" height="13.4" transform="translate(559.88 37.7) rotate(-180)" fill="#231f20"/>
  <rect x="186.53" y="12.15" width="13.4" height="13.4" transform="translate(386.46 37.7) rotate(-180)" fill="#231f20"/>
  <rect x="143.12" y="12.15" width="13.4" height="13.4" transform="translate(299.64 37.7) rotate(-180)" fill="#231f20"/>
  <rect x="142.18" y="58.06" width="13.4" height="13.4" transform="translate(297.76 129.53) rotate(-180)" fill="#231f20"/>
  <rect x="99.94" y="58.06" width="13.4" height="13.4" transform="translate(213.27 129.53) rotate(-180)" fill="#231f20"/>
  <rect x="99.94" y="101.13" width="13.4" height="13.4" transform="translate(213.27 215.66) rotate(-180)" fill="#231f20"/>
  <rect x="56.93" y="144.2" width="13.4" height="13.4" transform="translate(127.26 301.8) rotate(-180)" fill="#231f20"/>
  <rect x="316.65" y="231.14" width="13.4" height="13.4" transform="translate(646.69 475.67) rotate(-180)" fill="#231f20"/>
  <rect x="272.15" y="231.08" width="13.4" height="13.4" transform="translate(557.71 475.56) rotate(-180)" fill="#231f20"/>
  <rect x="230.92" y="533.55" width="13.4" height="13.4" transform="translate(475.23 1080.5) rotate(-180)" fill="#231f20"/>
  <rect x="402.64" y="576.4" width="13.4" height="13.4" transform="translate(818.67 1166.19) rotate(-180)" fill="#231f20"/>
  <rect x="489" y="576.4" width="13.4" height="13.4" transform="translate(991.4 1166.19) rotate(-180)" fill="#231f20"/>
  <rect x="445.89" y="576.97" width="13.4" height="13.4" transform="translate(905.19 1167.34) rotate(-180)" fill="#231f20"/>
  <rect x="445.89" y="618.93" width="13.4" height="13.4" transform="translate(905.19 1251.26) rotate(-180)" fill="#231f20"/>
  <rect x="144.16" y="620.43" width="13.4" height="13.4" transform="translate(301.73 1254.26) rotate(-180)" fill="#231f20"/>
  <rect x="144.16" y="662.78" width="13.4" height="13.4" transform="translate(301.73 1338.95) rotate(-180)" fill="#231f20"/>
  <rect x="99.94" y="620.43" width="13.4" height="13.4" transform="translate(213.27 1254.26) rotate(-180)" fill="#231f20"/>
  <rect x="99.94" y="662.78" width="13.4" height="13.4" transform="translate(213.27 1338.95) rotate(-180)" fill="#231f20"/>
  <rect x="56.93" y="620.43" width="13.4" height="13.4" transform="translate(127.26 1254.26) rotate(-180)" fill="#231f20"/>
  <rect x="56.93" y="662.78" width="13.4" height="13.4" transform="translate(127.26 1338.95) rotate(-180)" fill="#231f20"/>
  <rect x="144.16" y="705.72" width="13.4" height="13.4" transform="translate(301.73 1424.85) rotate(-180)" fill="#231f20"/>
  <rect x="186.75" y="707.56" width="13.4" height="13.4" transform="translate(386.9 1428.52) rotate(-180)" fill="#231f20"/>
  <rect x="186.75" y="662.78" width="13.4" height="13.4" transform="translate(386.9 1338.95) rotate(-180)" fill="#231f20"/>
  <rect x="186.75" y="751.02" width="13.4" height="13.4" transform="translate(386.9 1515.43) rotate(-180)" fill="#231f20"/>
  <rect x="186.75" y="792.85" width="13.4" height="13.4" transform="translate(386.9 1599.1) rotate(-180)" fill="#231f20"/>
  <rect x="186.75" y="836.31" width="13.4" height="13.4" transform="translate(386.9 1686.02) rotate(-180)" fill="#231f20"/>
  <rect x="186.75" y="881.18" width="13.4" height="13.4" transform="translate(386.9 1775.75) rotate(-180)" fill="#231f20"/>
  <rect x="186.75" y="924.64" width="13.4" height="13.4" transform="translate(386.9 1862.67) rotate(-180)" fill="#231f20"/>
  <rect x="186.75" y="966.47" width="13.4" height="13.4" transform="translate(386.9 1946.34) rotate(-180)" fill="#231f20"/>
  <rect x="186.75" y="1009.93" width="13.4" height="13.4" transform="translate(386.9 2033.26) rotate(-180)" fill="#231f20"/>
  <rect x="186.75" y="1051.9" width="13.4" height="13.4" transform="translate(386.9 2117.2) rotate(-180)" fill="#231f20"/>
  <rect x="144.16" y="751.02" width="13.4" height="13.4" transform="translate(301.73 1515.43) rotate(-180)" fill="#231f20"/>
  <rect x="144.16" y="792.85" width="13.4" height="13.4" transform="translate(301.73 1599.1) rotate(-180)" fill="#231f20"/>
  <rect x="144.16" y="836.31" width="13.4" height="13.4" transform="translate(301.73 1686.02) rotate(-180)" fill="#231f20"/>
  <rect x="144.16" y="881.18" width="13.4" height="13.4" transform="translate(301.73 1775.75) rotate(-180)" fill="#231f20"/>
  <rect x="144.16" y="924.64" width="13.4" height="13.4" transform="translate(301.73 1862.67) rotate(-180)" fill="#231f20"/>
  <rect x="144.16" y="966.47" width="13.4" height="13.4" transform="translate(301.73 1946.34) rotate(-180)" fill="#231f20"/>
  <rect x="144.16" y="1009.93" width="13.4" height="13.4" transform="translate(301.73 2033.26) rotate(-180)" fill="#231f20"/>
  <rect x="144.16" y="1051.9" width="13.4" height="13.4" transform="translate(301.73 2117.2) rotate(-180)" fill="#231f20"/>
  <rect x="56.93" y="707.56" width="13.4" height="13.4" transform="translate(127.26 1428.52) rotate(-180)" fill="#231f20"/>
  <rect x="56.93" y="751.02" width="13.4" height="13.4" transform="translate(127.26 1515.43) rotate(-180)" fill="#231f20"/>
  <rect x="56.93" y="792.85" width="13.4" height="13.4" transform="translate(127.26 1599.1) rotate(-180)" fill="#231f20"/>
  <rect x="56.93" y="836.31" width="13.4" height="13.4" transform="translate(127.26 1686.02) rotate(-180)" fill="#231f20"/>
  <rect x="56.93" y="881.18" width="13.4" height="13.4" transform="translate(127.26 1775.75) rotate(-180)" fill="#231f20"/>
  <rect x="56.93" y="924.64" width="13.4" height="13.4" transform="translate(127.26 1862.67) rotate(-180)" fill="#231f20"/>
  <rect x="56.93" y="966.47" width="13.4" height="13.4" transform="translate(127.26 1946.34) rotate(-180)" fill="#231f20"/>
  <rect x="56.93" y="1009.93" width="13.4" height="13.4" transform="translate(127.26 2033.26) rotate(-180)" fill="#231f20"/>
  <rect x="56.93" y="1051.9" width="13.4" height="13.4" transform="translate(127.26 2117.2) rotate(-180)" fill="#231f20"/>
  <rect x="359.46" y="792.85" width="13.4" height="13.4" transform="translate(732.31 1599.11) rotate(-180)" fill="#231f20"/>
  <rect x="359.46" y="836.31" width="13.4" height="13.4" transform="translate(732.31 1686.02) rotate(-180)" fill="#231f20"/>
  <rect x="359.46" y="881.18" width="13.4" height="13.4" transform="translate(732.31 1775.76) rotate(-180)" fill="#231f20"/>
  <rect x="316" y="705.72" width="13.4" height="13.4" transform="translate(645.39 1424.85) rotate(-180)" fill="#231f20"/>
  <rect x="316" y="749.18" width="13.4" height="13.4" transform="translate(645.39 1511.77) rotate(-180)" fill="#231f20"/>
  <rect x="316" y="794.05" width="13.4" height="13.4" transform="translate(645.39 1601.5) rotate(-180)" fill="#231f20"/>
  <rect x="532.25" y="792.85" width="13.4" height="13.4" transform="translate(1077.9 1599.11) rotate(-180)" fill="#231f20"/>
  <rect x="532.25" y="836.31" width="13.4" height="13.4" transform="translate(1077.9 1686.02) rotate(-180)" fill="#231f20"/>
  <rect x="618.75" y="792.85" width="13.4" height="13.4" transform="translate(1250.9 1599.11) rotate(-180)" fill="#231f20"/>
  <rect x="618.75" y="836.31" width="13.4" height="13.4" transform="translate(1250.9 1686.02) rotate(-180)" fill="#231f20"/>
  <rect x="747.79" y="836.31" width="13.4" height="13.4" transform="translate(1508.99 1686.02) rotate(-180)" fill="#231f20"/>
  <rect x="532.25" y="881.18" width="13.4" height="13.4" transform="translate(1077.9 1775.76) rotate(-180)" fill="#231f20"/>
  <rect x="489" y="661.56" width="13.4" height="13.4" transform="translate(991.4 1336.52) rotate(-180)" fill="#231f20"/>
  <rect x="532.25" y="661.56" width="13.4" height="13.4" transform="translate(1077.9 1336.52) rotate(-180)" fill="#231f20"/>
  <rect x="489" y="705.02" width="13.4" height="13.4" transform="translate(991.4 1423.44) rotate(-180)" fill="#231f20"/>
  <rect x="489" y="749.89" width="13.4" height="13.4" transform="translate(991.4 1513.17) rotate(-180)" fill="#231f20"/>
  <rect x="445.89" y="792.37" width="13.4" height="13.4" transform="translate(905.19 1598.13) rotate(-180)" fill="#231f20"/>
  <rect x="402.64" y="661.56" width="13.4" height="13.4" transform="translate(818.67 1336.52) rotate(-180)" fill="#231f20"/>
  <rect x="402.64" y="705.02" width="13.4" height="13.4" transform="translate(818.67 1423.44) rotate(-180)" fill="#231f20"/>
  <rect x="402.64" y="749.89" width="13.4" height="13.4" transform="translate(818.67 1513.17) rotate(-180)" fill="#231f20"/>
  <rect x="358.21" y="575.47" width="13.4" height="13.4" transform="translate(729.82 1164.34) rotate(-180)" fill="#231f20"/>
  <rect x="358.21" y="618.93" width="13.4" height="13.4" transform="translate(729.82 1251.26) rotate(-180)" fill="#231f20"/>
  <rect x="358.21" y="663.8" width="13.4" height="13.4" transform="translate(729.82 1340.99) rotate(-180)" fill="#231f20"/>
  <rect x="575.73" y="705.02" width="13.4" height="13.4" transform="translate(1164.87 1423.44) rotate(-180)" fill="#231f20"/>
  <rect x="575.73" y="749.89" width="13.4" height="13.4" transform="translate(1164.87 1513.17) rotate(-180)" fill="#231f20"/>
  <rect x="359.46" y="924.64" width="13.4" height="13.4" transform="translate(732.31 1862.67) rotate(-180)" fill="#231f20"/>
  <rect x="359.46" y="966.47" width="13.4" height="13.4" transform="translate(732.31 1946.34) rotate(-180)" fill="#231f20"/>
  <rect x="359.46" y="1009.93" width="13.4" height="13.4" transform="translate(732.31 2033.26) rotate(-180)" fill="#231f20"/>
  <rect x="359.46" y="1051.9" width="13.4" height="13.4" transform="translate(732.31 2117.2) rotate(-180)" fill="#231f20"/>
  <rect x="272.64" y="836.31" width="13.4" height="13.4" transform="translate(558.68 1686.02) rotate(-180)" fill="#231f20"/>
  <rect x="272.64" y="881.18" width="13.4" height="13.4" transform="translate(558.68 1775.75) rotate(-180)" fill="#231f20"/>
  <rect x="272.64" y="924.64" width="13.4" height="13.4" transform="translate(558.68 1862.67) rotate(-180)" fill="#231f20"/>
  <rect x="272.64" y="966.47" width="13.4" height="13.4" transform="translate(558.68 1946.34) rotate(-180)" fill="#231f20"/>
  <rect x="272.64" y="1009.93" width="13.4" height="13.4" transform="translate(558.68 2033.26) rotate(-180)" fill="#231f20"/>
  <rect x="272.64" y="1051.9" width="13.4" height="13.4" transform="translate(558.68 2117.2) rotate(-180)" fill="#231f20"/>
  <rect x="575.25" y="881.18" width="13.4" height="13.4" transform="translate(1163.9 1775.76) rotate(-180)" fill="#231f20"/>
  <rect x="575.25" y="924.64" width="13.4" height="13.4" transform="translate(1163.9 1862.67) rotate(-180)" fill="#231f20"/>
  <rect x="575.25" y="966.47" width="13.4" height="13.4" transform="translate(1163.9 1946.34) rotate(-180)" fill="#231f20"/>
  <rect x="575.25" y="1009.93" width="13.4" height="13.4" transform="translate(1163.9 2033.26) rotate(-180)" fill="#231f20"/>
  <rect x="575.25" y="1051.9" width="13.4" height="13.4" transform="translate(1163.9 2117.2) rotate(-180)" fill="#231f20"/>
  <rect x="661.74" y="881.18" width="13.4" height="13.4" transform="translate(1336.89 1775.76) rotate(-180)" fill="#231f20"/>
  <rect x="661.74" y="924.64" width="13.4" height="13.4" transform="translate(1336.89 1862.67) rotate(-180)" fill="#231f20"/>
  <rect x="661.74" y="966.47" width="13.4" height="13.4" transform="translate(1336.89 1946.34) rotate(-180)" fill="#231f20"/>
  <rect x="661.74" y="1009.93" width="13.4" height="13.4" transform="translate(1336.89 2033.26) rotate(-180)" fill="#231f20"/>
  <rect x="661.74" y="1051.9" width="13.4" height="13.4" transform="translate(1336.89 2117.2) rotate(-180)" fill="#231f20"/>
  <rect x="747.79" y="881.18" width="13.4" height="13.4" transform="translate(1508.98 1775.76) rotate(-180)" fill="#231f20"/>
  <rect x="747.79" y="924.64" width="13.4" height="13.4" transform="translate(1508.98 1862.67) rotate(-180)" fill="#231f20"/>
  <rect x="747.79" y="966.47" width="13.4" height="13.4" transform="translate(1508.98 1946.35) rotate(-180)" fill="#231f20"/>
  <rect x="747.79" y="1009.93" width="13.4" height="13.4" transform="translate(1508.98 2033.26) rotate(-180)" fill="#231f20"/>
  <rect x="877.98" y="966.47" width="13.4" height="13.4" transform="translate(1769.37 1946.35) rotate(-180)" fill="#231f20"/>
  <rect x="877.98" y="1009.93" width="13.4" height="13.4" transform="translate(1769.37 2033.26) rotate(-180)" fill="#231f20"/>
  <rect x="747.79" y="1051.9" width="13.4" height="13.4" transform="translate(1508.98 2117.2) rotate(-180)" fill="#231f20"/>
  <rect x="834.97" y="1051.9" width="13.4" height="13.4" transform="translate(1683.34 2117.2) rotate(-180)" fill="#231f20"/>
  <rect x="964.05" y="881.18" width="13.4" height="13.4" transform="translate(1941.49 1775.76) rotate(-180)" fill="#231f20"/>
  <rect x="964.05" y="792.85" width="13.4" height="13.4" transform="translate(1941.49 1599.11) rotate(-180)" fill="#231f20"/>
  <rect x="1007.54" y="749.89" width="13.4" height="13.4" transform="translate(2028.48 1513.18) rotate(-180)" fill="#231f20"/>
  <rect x="920.79" y="835.43" width="13.4" height="13.4" transform="translate(1854.99 1684.27) rotate(-180)" fill="#231f20"/>
  <rect x="964.05" y="924.64" width="13.4" height="13.4" transform="translate(1941.49 1862.67) rotate(-180)" fill="#231f20"/>
  <rect x="964.05" y="966.47" width="13.4" height="13.4" transform="translate(1941.49 1946.35) rotate(-180)" fill="#231f20"/>
  <rect x="964.05" y="1009.93" width="13.4" height="13.4" transform="translate(1941.49 2033.26) rotate(-180)" fill="#231f20"/>
  <rect x="964.05" y="1051.9" width="13.4" height="13.4" transform="translate(1941.49 2117.2) rotate(-180)" fill="#231f20"/>
  <rect x="489" y="924.64" width="13.4" height="13.4" transform="translate(991.4 1862.67) rotate(-180)" fill="#231f20"/>
  <rect x="489" y="966.47" width="13.4" height="13.4" transform="translate(991.4 1946.34) rotate(-180)" fill="#231f20"/>
  <rect x="489" y="1009.93" width="13.4" height="13.4" transform="translate(991.4 2033.26) rotate(-180)" fill="#231f20"/>
  <rect x="489" y="1051.9" width="13.4" height="13.4" transform="translate(991.4 2117.2) rotate(-180)" fill="#231f20"/>
</svg>