<?xml version="1.0" encoding="UTF-8"?>
<svg id="_12" data-name="12" xmlns="http://www.w3.org/2000/svg" viewBox="0 0 1080 1080">
  <rect x="215.98" y="785.18" width="40.83" height="40.83" fill="#231f20"/>
  <rect x="215.98" y="741.98" width="40.83" height="40.83" fill="#231f20"/>
  <rect x="215.7" y="957.99" width="40.83" height="40.83" fill="#231f20"/>
  <rect x="215.7" y="914.8" width="40.83" height="40.83" fill="#231f20"/>
  <rect x="389.15" y="224.12" width="40.83" height="40.83" fill="#231f20"/>
  <rect x="475" y="93.85" width="40.83" height="40.83" fill="#231f20"/>
  <rect x="605.32" y="224.12" width="40.83" height="40.83" fill="#231f20"/>
  <rect x="518.44" y="266.96" width="40.83" height="40.83" fill="#231f20"/>
  <rect x="86.5" y="267.3" width="40.83" height="40.83" fill="#231f20"/>
  <rect y="180.44" width="40.83" height="40.83" fill="#231f20"/>
  <rect x="86.59" y="180.44" width="40.83" height="40.83" fill="#231f20"/>
  <rect x="43.31" y="396.62" width="40.83" height="40.83" fill="#231f20"/>
  <rect x="43.31" y="568.16" width="40.83" height="40.83" fill="#231f20"/>
  <rect x="129.7" y="267.3" width="40.83" height="40.83" fill="#231f20"/>
  <rect x="475.45" y="353.16" width="40.83" height="40.83" fill="#231f20"/>
  <rect x="432.33" y="310.13" width="40.83" height="40.83" fill="#231f20"/>
  <rect x="734.13" y="526.15" width="40.83" height="40.83" fill="#231f20"/>
  <rect x="734.13" y="439.89" width="40.83" height="40.83" fill="#231f20"/>
  <rect x="691.48" y="526.15" width="40.83" height="40.83" fill="#231f20"/>
  <rect x="863.89" y="439.35" width="40.83" height="40.83" fill="#231f20"/>
  <rect x="820.61" y="439.89" width="40.83" height="40.83" fill="#231f20"/>
  <rect x="950.46" y="396.35" width="40.83" height="40.83" fill="#231f20"/>
  <rect x="907.17" y="396.89" width="40.83" height="40.83" fill="#231f20"/>
  <rect x="950.46" y="353.08" width="40.83" height="40.83" fill="#231f20"/>
  <rect x="907.17" y="353.62" width="40.83" height="40.83" fill="#231f20"/>
  <rect x="863.96" y="136.86" width="40.83" height="40.83" fill="#231f20"/>
  <rect x="863.96" y="94.38" width="40.83" height="40.83" fill="#231f20"/>
  <rect x="863.96" y="9.13" width="40.83" height="40.83" fill="#231f20"/>
  <rect x="820.65" y="8.23" width="40.83" height="40.83" fill="#231f20"/>
  <rect x="820.68" y="266.41" width="40.83" height="40.83" fill="#231f20"/>
  <rect x="389.15" y="439.89" width="40.83" height="40.83" fill="#231f20"/>
  <rect x="475.45" y="396.62" width="40.83" height="40.83" fill="#231f20"/>
  <rect x="561.64" y="439.89" width="40.83" height="40.83" fill="#231f20"/>
  <rect x="561.64" y="569.3" width="40.83" height="40.83" fill="#231f20"/>
  <rect x="302.42" y="612.06" width="40.83" height="40.83" fill="#231f20"/>
  <rect x="345.47" y="569.3" width="40.83" height="40.83" fill="#231f20"/>
  <rect x="690.94" y="741.98" width="40.83" height="40.83" fill="#231f20"/>
  <rect x="690.94" y="784.88" width="40.83" height="40.83" fill="#231f20"/>
  <rect x="518.44" y="871.79" width="40.83" height="40.83" fill="#231f20"/>
  <rect x="777.51" y="785.18" width="40.83" height="40.83" fill="#231f20"/>
  <rect x="820.63" y="569.57" width="40.83" height="40.83" fill="#231f20"/>
  <rect x="259.46" y="785.18" width="40.83" height="40.83" fill="#231f20"/>
  <rect x="316.14" y="798.9" width="13.39" height="13.39" fill="#231f20"/>
  <rect x="272.55" y="757.93" width="13.39" height="13.39" fill="#231f20"/>
  <rect x="316.14" y="757.93" width="13.39" height="13.39" fill="#231f20"/>
  <rect x="316.14" y="711.5" width="13.39" height="13.39" fill="#231f20"/>
  <rect x="316.14" y="670.53" width="13.39" height="13.39" fill="#231f20"/>
  <rect x="272.55" y="711.5" width="13.39" height="13.39" fill="#231f20"/>
  <rect x="272.55" y="670.53" width="13.39" height="13.39" fill="#231f20"/>
  <rect x="272.35" y="625.85" width="13.39" height="13.39" fill="#231f20"/>
  <rect x="272.55" y="584.16" width="13.39" height="13.39" fill="#231f20"/>
  <rect x="316.14" y="584.16" width="13.39" height="13.39" fill="#231f20"/>
  <rect x="186.32" y="584.16" width="13.39" height="13.39" fill="#231f20"/>
  <rect x="229.9" y="584.16" width="13.39" height="13.39" fill="#231f20"/>
  <rect x="102.08" y="584.16" width="13.39" height="13.39" fill="#231f20"/>
  <rect x="145.66" y="584.16" width="13.39" height="13.39" fill="#231f20"/>
  <rect x="272.55" y="539.87" width="13.39" height="13.39" fill="#231f20"/>
  <rect x="316.14" y="539.87" width="13.39" height="13.39" fill="#231f20"/>
  <rect x="359.72" y="539.87" width="13.39" height="13.39" fill="#231f20"/>
  <rect x="186.32" y="539.87" width="13.39" height="13.39" fill="#231f20"/>
  <rect x="229.9" y="539.87" width="13.39" height="13.39" fill="#231f20"/>
  <rect x="102.08" y="539.87" width="13.39" height="13.39" fill="#231f20"/>
  <rect x="145.66" y="539.87" width="13.39" height="13.39" fill="#231f20"/>
  <rect x="13.83" y="539.87" width="13.39" height="13.39" fill="#231f20"/>
  <rect x="13.83" y="582.86" width="13.39" height="13.39" fill="#231f20"/>
  <rect x="58.41" y="539.87" width="13.39" height="13.39" fill="#231f20"/>
  <rect x="186.12" y="625.85" width="13.39" height="13.39" fill="#231f20"/>
  <rect x="229.7" y="625.85" width="13.39" height="13.39" fill="#231f20"/>
  <rect x="101.88" y="625.85" width="13.39" height="13.39" fill="#231f20"/>
  <rect x="145.46" y="625.85" width="13.39" height="13.39" fill="#231f20"/>
  <rect x="186.12" y="670.53" width="13.39" height="13.39" fill="#231f20"/>
  <rect x="229.7" y="670.53" width="13.39" height="13.39" fill="#231f20"/>
  <rect x="101.88" y="670.53" width="13.39" height="13.39" fill="#231f20"/>
  <rect x="57.03" y="625.85" width="13.39" height="13.39" fill="#231f20"/>
  <rect x="57.03" y="670.53" width="13.39" height="13.39" fill="#231f20"/>
  <rect x="13.83" y="625.85" width="13.39" height="13.39" fill="#231f20"/>
  <rect x="13.83" y="670.53" width="13.39" height="13.39" fill="#231f20"/>
  <rect x="145.46" y="670.53" width="13.39" height="13.39" fill="#231f20"/>
  <rect x="186.12" y="711.5" width="13.39" height="13.39" fill="#231f20"/>
  <rect x="229.7" y="711.5" width="13.39" height="13.39" fill="#231f20"/>
  <rect x="101.88" y="711.5" width="13.39" height="13.39" fill="#231f20"/>
  <rect x="57.03" y="711.5" width="13.39" height="13.39" fill="#231f20"/>
  <rect x="13.83" y="711.5" width="13.39" height="13.39" fill="#231f20"/>
  <rect x="145.46" y="711.5" width="13.39" height="13.39" fill="#231f20"/>
  <rect x="186.12" y="755.7" width="13.39" height="13.39" fill="#231f20"/>
  <rect x="101.88" y="755.7" width="13.39" height="13.39" fill="#231f20"/>
  <rect x="57.03" y="755.7" width="13.39" height="13.39" fill="#231f20"/>
  <rect x="13.83" y="755.7" width="13.39" height="13.39" fill="#231f20"/>
  <rect x="145.46" y="755.7" width="13.39" height="13.39" fill="#231f20"/>
  <rect x="186.12" y="798.9" width="13.39" height="13.39" fill="#231f20"/>
  <rect x="101.88" y="798.9" width="13.39" height="13.39" fill="#231f20"/>
  <rect x="57.03" y="798.9" width="13.39" height="13.39" fill="#231f20"/>
  <rect x="13.83" y="798.9" width="13.39" height="13.39" fill="#231f20"/>
  <rect x="145.46" y="798.9" width="13.39" height="13.39" fill="#231f20"/>
  <rect x="186.12" y="843.12" width="13.39" height="13.39" fill="#231f20"/>
  <rect x="101.88" y="843.12" width="13.39" height="13.39" fill="#231f20"/>
  <rect x="57.03" y="843.12" width="13.39" height="13.39" fill="#231f20"/>
  <rect x="13.83" y="843.12" width="13.39" height="13.39" fill="#231f20"/>
  <rect x="145.46" y="843.12" width="13.39" height="13.39" fill="#231f20"/>
  <rect x="400.94" y="843.12" width="13.39" height="13.39" fill="#231f20"/>
  <rect x="316.71" y="843.12" width="13.39" height="13.39" fill="#231f20"/>
  <rect x="271.85" y="843.12" width="13.39" height="13.39" fill="#231f20"/>
  <rect x="231.33" y="843.12" width="13.39" height="13.39" fill="#231f20"/>
  <rect x="360.29" y="843.12" width="13.39" height="13.39" fill="#231f20"/>
  <rect x="618.14" y="843.12" width="13.39" height="13.39" fill="#231f20"/>
  <rect x="531.49" y="843.12" width="13.39" height="13.39" fill="#231f20"/>
  <rect x="486.63" y="843.12" width="13.39" height="13.39" fill="#231f20"/>
  <rect x="446.11" y="843.12" width="13.39" height="13.39" fill="#231f20"/>
  <rect x="186.12" y="882.51" width="13.39" height="13.39" fill="#231f20"/>
  <rect x="101.88" y="882.51" width="13.39" height="13.39" fill="#231f20"/>
  <rect x="57.03" y="882.51" width="13.39" height="13.39" fill="#231f20"/>
  <rect x="13.83" y="882.51" width="13.39" height="13.39" fill="#231f20"/>
  <rect x="145.46" y="882.51" width="13.39" height="13.39" fill="#231f20"/>
  <rect x="186.12" y="930.36" width="13.39" height="13.39" fill="#231f20"/>
  <rect x="101.88" y="930.36" width="13.39" height="13.39" fill="#231f20"/>
  <rect x="57.03" y="930.36" width="13.39" height="13.39" fill="#231f20"/>
  <rect x="13.83" y="930.36" width="13.39" height="13.39" fill="#231f20"/>
  <rect x="145.46" y="930.36" width="13.39" height="13.39" fill="#231f20"/>
  <rect x="186.12" y="969.88" width="13.39" height="13.39" fill="#231f20"/>
  <rect x="101.88" y="969.88" width="13.39" height="13.39" fill="#231f20"/>
  <rect x="57.03" y="969.88" width="13.39" height="13.39" fill="#231f20"/>
  <rect x="13.83" y="969.88" width="13.39" height="13.39" fill="#231f20"/>
  <rect x="145.46" y="969.88" width="13.39" height="13.39" fill="#231f20"/>
  <rect x="186.12" y="1016.72" width="13.39" height="13.39" fill="#231f20"/>
  <rect x="101.88" y="1016.72" width="13.39" height="13.39" fill="#231f20"/>
  <rect x="57.03" y="1016.72" width="13.39" height="13.39" fill="#231f20"/>
  <rect x="13.83" y="1016.72" width="13.39" height="13.39" fill="#231f20"/>
  <rect x="145.46" y="1016.72" width="13.39" height="13.39" fill="#231f20"/>
  <rect x="186.12" y="1056.24" width="13.39" height="13.39" fill="#231f20"/>
  <rect x="231.33" y="1016.72" width="13.39" height="13.39" fill="#231f20"/>
  <rect x="231.33" y="1056.24" width="13.39" height="13.39" fill="#231f20"/>
  <rect x="101.88" y="1056.24" width="13.39" height="13.39" fill="#231f20"/>
  <rect x="57.03" y="1056.24" width="13.39" height="13.39" fill="#231f20"/>
  <rect x="13.83" y="1056.24" width="13.39" height="13.39" fill="#231f20"/>
  <rect x="145.46" y="1056.24" width="13.39" height="13.39" fill="#231f20"/>
  <rect x="400.94" y="882.51" width="13.39" height="13.39" fill="#231f20"/>
  <rect x="316.71" y="882.51" width="13.39" height="13.39" fill="#231f20"/>
  <rect x="271.85" y="882.51" width="13.39" height="13.39" fill="#231f20"/>
  <rect x="231.33" y="882.51" width="13.39" height="13.39" fill="#231f20"/>
  <rect x="360.29" y="882.51" width="13.39" height="13.39" fill="#231f20"/>
  <rect x="486.63" y="882.51" width="13.39" height="13.39" fill="#231f20"/>
  <rect x="446.11" y="882.51" width="13.39" height="13.39" fill="#231f20"/>
  <rect x="400.94" y="929.17" width="13.39" height="13.39" fill="#231f20"/>
  <rect x="316.71" y="929.17" width="13.39" height="13.39" fill="#231f20"/>
  <rect x="271.85" y="929.17" width="13.39" height="13.39" fill="#231f20"/>
  <rect x="360.29" y="929.17" width="13.39" height="13.39" fill="#231f20"/>
  <rect x="486.63" y="929.17" width="13.39" height="13.39" fill="#231f20"/>
  <rect x="446.11" y="929.17" width="13.39" height="13.39" fill="#231f20"/>
  <rect x="400.94" y="970.31" width="13.39" height="13.39" fill="#231f20"/>
  <rect x="316.71" y="970.31" width="13.39" height="13.39" fill="#231f20"/>
  <rect x="271.85" y="970.31" width="13.39" height="13.39" fill="#231f20"/>
  <rect x="360.29" y="970.31" width="13.39" height="13.39" fill="#231f20"/>
  <rect x="486.63" y="970.31" width="13.39" height="13.39" fill="#231f20"/>
  <rect x="446.11" y="970.31" width="13.39" height="13.39" fill="#231f20"/>
  <rect x="662.44" y="970.31" width="13.39" height="13.39" fill="#231f20"/>
  <rect x="578.2" y="970.31" width="13.39" height="13.39" fill="#231f20"/>
  <rect x="533.35" y="970.31" width="13.39" height="13.39" fill="#231f20"/>
  <rect x="621.78" y="970.31" width="13.39" height="13.39" fill="#231f20"/>
  <rect x="747.46" y="970.31" width="13.39" height="13.39" fill="#231f20"/>
  <rect x="707.6" y="970.31" width="13.39" height="13.39" fill="#231f20"/>
  <rect x="662.44" y="929.17" width="13.39" height="13.39" fill="#231f20"/>
  <rect x="578.2" y="929.17" width="13.39" height="13.39" fill="#231f20"/>
  <rect x="533.35" y="929.17" width="13.39" height="13.39" fill="#231f20"/>
  <rect x="621.78" y="929.17" width="13.39" height="13.39" fill="#231f20"/>
  <rect x="747.46" y="929.17" width="13.39" height="13.39" fill="#231f20"/>
  <rect x="707.6" y="929.17" width="13.39" height="13.39" fill="#231f20"/>
  <rect x="662.44" y="885.51" width="13.39" height="13.39" fill="#231f20"/>
  <rect x="578.2" y="885.51" width="13.39" height="13.39" fill="#231f20"/>
  <rect x="621.78" y="885.51" width="13.39" height="13.39" fill="#231f20"/>
  <rect x="747.46" y="885.51" width="13.39" height="13.39" fill="#231f20"/>
  <rect x="707.6" y="885.51" width="13.39" height="13.39" fill="#231f20"/>
  <rect x="662.44" y="843.12" width="13.39" height="13.39" fill="#231f20"/>
  <rect x="707.6" y="843.12" width="13.39" height="13.39" fill="#231f20"/>
  <rect x="400.94" y="1016.72" width="13.39" height="13.39" fill="#231f20"/>
  <rect x="316.71" y="1016.72" width="13.39" height="13.39" fill="#231f20"/>
  <rect x="271.85" y="1016.72" width="13.39" height="13.39" fill="#231f20"/>
  <rect x="360.29" y="1016.72" width="13.39" height="13.39" fill="#231f20"/>
  <rect x="486.63" y="1016.72" width="13.39" height="13.39" fill="#231f20"/>
  <rect x="446.11" y="1016.72" width="13.39" height="13.39" fill="#231f20"/>
  <rect x="703.91" y="1016.72" width="13.39" height="13.39" fill="#231f20"/>
  <rect x="619.68" y="1016.72" width="13.39" height="13.39" fill="#231f20"/>
  <rect x="574.82" y="1016.72" width="13.39" height="13.39" fill="#231f20"/>
  <rect x="534.3" y="1016.72" width="13.39" height="13.39" fill="#231f20"/>
  <rect x="663.26" y="1016.72" width="13.39" height="13.39" fill="#231f20"/>
  <rect x="749.12" y="1016.72" width="13.39" height="13.39" fill="#231f20"/>
  <rect x="789.65" y="1016.72" width="13.39" height="13.39" fill="#231f20"/>
  <rect x="400.94" y="1056.24" width="13.39" height="13.39" fill="#231f20"/>
  <rect x="316.71" y="1056.24" width="13.39" height="13.39" fill="#231f20"/>
  <rect x="271.85" y="1056.24" width="13.39" height="13.39" fill="#231f20"/>
  <rect x="360.29" y="1056.24" width="13.39" height="13.39" fill="#231f20"/>
  <rect x="486.63" y="1056.24" width="13.39" height="13.39" fill="#231f20"/>
  <rect x="446.11" y="1056.24" width="13.39" height="13.39" fill="#231f20"/>
  <rect x="573.98" y="1056.24" width="13.39" height="13.39" fill="#231f20"/>
  <rect x="619.19" y="1056.24" width="13.39" height="13.39" fill="#231f20"/>
  <rect x="533.33" y="1056.24" width="13.39" height="13.39" fill="#231f20"/>
  <rect x="788.81" y="1056.24" width="13.39" height="13.39" fill="#231f20"/>
  <rect x="704.57" y="1056.24" width="13.39" height="13.39" fill="#231f20"/>
  <rect x="659.72" y="1056.24" width="13.39" height="13.39" fill="#231f20"/>
  <rect x="748.15" y="1056.24" width="13.39" height="13.39" fill="#231f20"/>
  <rect x="874.5" y="1056.24" width="13.39" height="13.39" fill="#231f20"/>
  <rect x="833.97" y="1056.24" width="13.39" height="13.39" fill="#231f20"/>
  <rect x="575.07" y="843.12" width="13.39" height="13.39" fill="#231f20"/>
  <rect x="359.72" y="798.9" width="13.39" height="13.39" fill="#231f20"/>
  <rect x="359.72" y="757.93" width="13.39" height="13.39" fill="#231f20"/>
  <rect x="359.72" y="711.5" width="13.39" height="13.39" fill="#231f20"/>
  <rect x="701.87" y="711.5" width="13.39" height="13.39" fill="#231f20"/>
  <rect x="658.29" y="711.5" width="13.39" height="13.39" fill="#231f20"/>
  <rect x="571.86" y="711.5" width="13.39" height="13.39" fill="#231f20"/>
  <rect x="617.86" y="711.5" width="13.39" height="13.39" fill="#231f20"/>
  <rect x="487.62" y="711.5" width="13.39" height="13.39" fill="#231f20"/>
  <rect x="442.77" y="711.5" width="13.39" height="13.39" fill="#231f20"/>
  <rect x="402.24" y="711.5" width="13.39" height="13.39" fill="#231f20"/>
  <rect x="531.2" y="711.5" width="13.39" height="13.39" fill="#231f20"/>
  <rect x="658.29" y="757.93" width="13.39" height="13.39" fill="#231f20"/>
  <rect x="571.86" y="757.93" width="13.39" height="13.39" fill="#231f20"/>
  <rect x="617.86" y="757.93" width="13.39" height="13.39" fill="#231f20"/>
  <rect x="487.62" y="757.93" width="13.39" height="13.39" fill="#231f20"/>
  <rect x="442.77" y="757.93" width="13.39" height="13.39" fill="#231f20"/>
  <rect x="402.24" y="757.93" width="13.39" height="13.39" fill="#231f20"/>
  <rect x="531.2" y="757.93" width="13.39" height="13.39" fill="#231f20"/>
  <rect x="658.29" y="798.59" width="13.39" height="13.39" fill="#231f20"/>
  <rect x="571.86" y="798.59" width="13.39" height="13.39" fill="#231f20"/>
  <rect x="617.86" y="798.59" width="13.39" height="13.39" fill="#231f20"/>
  <rect x="487.62" y="798.59" width="13.39" height="13.39" fill="#231f20"/>
  <rect x="442.77" y="798.59" width="13.39" height="13.39" fill="#231f20"/>
  <rect x="402.24" y="798.59" width="13.39" height="13.39" fill="#231f20"/>
  <rect x="531.2" y="798.59" width="13.39" height="13.39" fill="#231f20"/>
  <rect x="745.46" y="711.5" width="13.39" height="13.39" fill="#231f20"/>
  <rect x="701.87" y="670.53" width="13.39" height="13.39" fill="#231f20"/>
  <rect x="658.29" y="670.53" width="13.39" height="13.39" fill="#231f20"/>
  <rect x="571.86" y="670.53" width="13.39" height="13.39" fill="#231f20"/>
  <rect x="617.86" y="670.53" width="13.39" height="13.39" fill="#231f20"/>
  <rect x="487.62" y="670.53" width="13.39" height="13.39" fill="#231f20"/>
  <rect x="442.77" y="670.53" width="13.39" height="13.39" fill="#231f20"/>
  <rect x="402.24" y="670.53" width="13.39" height="13.39" fill="#231f20"/>
  <rect x="531.2" y="670.53" width="13.39" height="13.39" fill="#231f20"/>
  <rect x="745.46" y="670.53" width="13.39" height="13.39" fill="#231f20"/>
  <rect x="701.87" y="625.78" width="13.39" height="13.39" fill="#231f20"/>
  <rect x="658.29" y="625.78" width="13.39" height="13.39" fill="#231f20"/>
  <rect x="571.86" y="625.78" width="13.39" height="13.39" fill="#231f20"/>
  <rect x="617.86" y="625.78" width="13.39" height="13.39" fill="#231f20"/>
  <rect x="487.62" y="625.78" width="13.39" height="13.39" fill="#231f20"/>
  <rect x="442.77" y="625.78" width="13.39" height="13.39" fill="#231f20"/>
  <rect x="402.24" y="625.78" width="13.39" height="13.39" fill="#231f20"/>
  <rect x="531.2" y="625.78" width="13.39" height="13.39" fill="#231f20"/>
  <rect x="487.62" y="583.02" width="13.39" height="13.39" fill="#231f20"/>
  <rect x="442.77" y="583.02" width="13.39" height="13.39" fill="#231f20"/>
  <rect x="402.24" y="583.02" width="13.39" height="13.39" fill="#231f20"/>
  <rect x="531.2" y="583.02" width="13.39" height="13.39" fill="#231f20"/>
  <rect x="487.62" y="539.87" width="13.39" height="13.39" fill="#231f20"/>
  <rect x="442.77" y="539.87" width="13.39" height="13.39" fill="#231f20"/>
  <rect x="402.24" y="539.87" width="13.39" height="13.39" fill="#231f20"/>
  <rect x="531.2" y="539.87" width="13.39" height="13.39" fill="#231f20"/>
  <rect x="575.14" y="539.87" width="13.39" height="13.39" fill="#231f20"/>
  <rect x="618.73" y="539.87" width="13.39" height="13.39" fill="#231f20"/>
  <rect x="658.29" y="539.87" width="13.39" height="13.39" fill="#231f20"/>
  <rect x="272.55" y="496.68" width="13.39" height="13.39" fill="#231f20"/>
  <rect x="316.14" y="496.68" width="13.39" height="13.39" fill="#231f20"/>
  <rect x="359.72" y="496.68" width="13.39" height="13.39" fill="#231f20"/>
  <rect x="186.32" y="496.68" width="13.39" height="13.39" fill="#231f20"/>
  <rect x="229.9" y="496.68" width="13.39" height="13.39" fill="#231f20"/>
  <rect x="102.08" y="496.68" width="13.39" height="13.39" fill="#231f20"/>
  <rect x="145.66" y="496.68" width="13.39" height="13.39" fill="#231f20"/>
  <rect x="13.83" y="496.68" width="13.39" height="13.39" fill="#231f20"/>
  <rect x="58.41" y="496.68" width="13.39" height="13.39" fill="#231f20"/>
  <rect x="272.55" y="453.61" width="13.39" height="13.39" fill="#231f20"/>
  <rect x="316.14" y="453.61" width="13.39" height="13.39" fill="#231f20"/>
  <rect x="359.72" y="453.61" width="13.39" height="13.39" fill="#231f20"/>
  <rect x="186.32" y="453.61" width="13.39" height="13.39" fill="#231f20"/>
  <rect x="229.9" y="453.61" width="13.39" height="13.39" fill="#231f20"/>
  <rect x="102.08" y="453.61" width="13.39" height="13.39" fill="#231f20"/>
  <rect x="145.66" y="453.61" width="13.39" height="13.39" fill="#231f20"/>
  <rect x="272.55" y="410.34" width="13.39" height="13.39" fill="#231f20"/>
  <rect x="316.14" y="410.34" width="13.39" height="13.39" fill="#231f20"/>
  <rect x="359.72" y="410.34" width="13.39" height="13.39" fill="#231f20"/>
  <rect x="401.49" y="410.34" width="13.39" height="13.39" fill="#231f20"/>
  <rect x="445.07" y="410.34" width="13.39" height="13.39" fill="#231f20"/>
  <rect x="186.32" y="410.34" width="13.39" height="13.39" fill="#231f20"/>
  <rect x="229.9" y="410.34" width="13.39" height="13.39" fill="#231f20"/>
  <rect x="102.08" y="410.34" width="13.39" height="13.39" fill="#231f20"/>
  <rect x="145.66" y="410.34" width="13.39" height="13.39" fill="#231f20"/>
  <rect x="272.55" y="366.88" width="13.39" height="13.39" fill="#231f20"/>
  <rect x="316.14" y="366.88" width="13.39" height="13.39" fill="#231f20"/>
  <rect x="359.72" y="366.88" width="13.39" height="13.39" fill="#231f20"/>
  <rect x="401.49" y="366.88" width="13.39" height="13.39" fill="#231f20"/>
  <rect x="445.07" y="366.88" width="13.39" height="13.39" fill="#231f20"/>
  <rect x="186.32" y="366.88" width="13.39" height="13.39" fill="#231f20"/>
  <rect x="229.9" y="366.88" width="13.39" height="13.39" fill="#231f20"/>
  <rect x="102.08" y="366.88" width="13.39" height="13.39" fill="#231f20"/>
  <rect x="145.66" y="366.88" width="13.39" height="13.39" fill="#231f20"/>
  <rect x="13.76" y="366.88" width="13.39" height="13.39" fill="#231f20"/>
  <rect x="57.34" y="366.88" width="13.39" height="13.39" fill="#231f20"/>
  <rect x="272.55" y="323.85" width="13.39" height="13.39" fill="#231f20"/>
  <rect x="316.14" y="323.85" width="13.39" height="13.39" fill="#231f20"/>
  <rect x="359.72" y="323.85" width="13.39" height="13.39" fill="#231f20"/>
  <rect x="401.49" y="323.85" width="13.39" height="13.39" fill="#231f20"/>
  <rect x="186.32" y="323.85" width="13.39" height="13.39" fill="#231f20"/>
  <rect x="229.9" y="323.85" width="13.39" height="13.39" fill="#231f20"/>
  <rect x="272.55" y="281.02" width="13.39" height="13.39" fill="#231f20"/>
  <rect x="316.14" y="281.02" width="13.39" height="13.39" fill="#231f20"/>
  <rect x="359.72" y="281.02" width="13.39" height="13.39" fill="#231f20"/>
  <rect x="401.49" y="281.02" width="13.39" height="13.39" fill="#231f20"/>
  <rect x="445.58" y="281.02" width="13.39" height="13.39" fill="#231f20"/>
  <rect x="487.35" y="281.02" width="13.39" height="13.39" fill="#231f20"/>
  <rect x="445.77" y="237.23" width="13.39" height="13.39" fill="#231f20"/>
  <rect x="487.54" y="237.23" width="13.39" height="13.39" fill="#231f20"/>
  <rect x="531.63" y="237.23" width="13.39" height="13.39" fill="#231f20"/>
  <rect x="573.4" y="237.23" width="13.39" height="13.39" fill="#231f20"/>
  <rect x="186.32" y="281.02" width="13.39" height="13.39" fill="#231f20"/>
  <rect x="229.9" y="281.02" width="13.39" height="13.39" fill="#231f20"/>
  <rect x="272.55" y="237.84" width="13.39" height="13.39" fill="#231f20"/>
  <rect x="316.14" y="237.84" width="13.39" height="13.39" fill="#231f20"/>
  <rect x="359.72" y="237.84" width="13.39" height="13.39" fill="#231f20"/>
  <rect x="186.32" y="237.84" width="13.39" height="13.39" fill="#231f20"/>
  <rect x="229.9" y="237.84" width="13.39" height="13.39" fill="#231f20"/>
  <rect x="101.13" y="237.84" width="13.39" height="13.39" fill="#231f20"/>
  <rect x="144.72" y="237.84" width="13.39" height="13.39" fill="#231f20"/>
  <rect x="272.55" y="194.66" width="13.39" height="13.39" fill="#231f20"/>
  <rect x="316.14" y="194.66" width="13.39" height="13.39" fill="#231f20"/>
  <rect x="359.72" y="194.66" width="13.39" height="13.39" fill="#231f20"/>
  <rect x="186.32" y="194.66" width="13.39" height="13.39" fill="#231f20"/>
  <rect x="229.9" y="194.66" width="13.39" height="13.39" fill="#231f20"/>
  <rect x="144.72" y="194.66" width="13.39" height="13.39" fill="#231f20"/>
  <rect x="532.08" y="194.66" width="13.39" height="13.39" fill="#231f20"/>
  <rect x="575.67" y="194.66" width="13.39" height="13.39" fill="#231f20"/>
  <rect x="619.25" y="194.66" width="13.39" height="13.39" fill="#231f20"/>
  <rect x="445.84" y="194.66" width="13.39" height="13.39" fill="#231f20"/>
  <rect x="489.43" y="194.66" width="13.39" height="13.39" fill="#231f20"/>
  <rect x="532.08" y="323.85" width="13.39" height="13.39" fill="#231f20"/>
  <rect x="575.67" y="323.85" width="13.39" height="13.39" fill="#231f20"/>
  <rect x="619.25" y="323.85" width="13.39" height="13.39" fill="#231f20"/>
  <rect x="532.08" y="367.34" width="13.39" height="13.39" fill="#231f20"/>
  <rect x="575.67" y="367.34" width="13.39" height="13.39" fill="#231f20"/>
  <rect x="619.25" y="367.34" width="13.39" height="13.39" fill="#231f20"/>
  <rect x="532.08" y="410.61" width="13.39" height="13.39" fill="#231f20"/>
  <rect x="532.08" y="453.07" width="13.39" height="13.39" fill="#231f20"/>
  <rect x="575.67" y="410.61" width="13.39" height="13.39" fill="#231f20"/>
  <rect x="619.25" y="410.61" width="13.39" height="13.39" fill="#231f20"/>
  <rect x="661.94" y="323.85" width="13.39" height="13.39" fill="#231f20"/>
  <rect x="705.53" y="323.85" width="13.39" height="13.39" fill="#231f20"/>
  <rect x="749.11" y="323.85" width="13.39" height="13.39" fill="#231f20"/>
  <rect x="661.94" y="367.34" width="13.39" height="13.39" fill="#231f20"/>
  <rect x="705.53" y="367.34" width="13.39" height="13.39" fill="#231f20"/>
  <rect x="749.11" y="367.34" width="13.39" height="13.39" fill="#231f20"/>
  <rect x="661.94" y="410.61" width="13.39" height="13.39" fill="#231f20"/>
  <rect x="705.53" y="410.61" width="13.39" height="13.39" fill="#231f20"/>
  <rect x="619.25" y="453.07" width="13.39" height="13.39" fill="#231f20"/>
  <rect x="661.94" y="453.07" width="13.39" height="13.39" fill="#231f20"/>
  <rect x="705.53" y="453.07" width="13.39" height="13.39" fill="#231f20"/>
  <rect x="749.11" y="410.61" width="13.39" height="13.39" fill="#231f20"/>
  <rect x="789.84" y="323.85" width="13.39" height="13.39" fill="#231f20"/>
  <rect x="575.67" y="280.67" width="13.39" height="13.39" fill="#231f20"/>
  <rect x="619.25" y="280.67" width="13.39" height="13.39" fill="#231f20"/>
  <rect x="661.94" y="280.67" width="13.39" height="13.39" fill="#231f20"/>
  <rect x="705.53" y="280.67" width="13.39" height="13.39" fill="#231f20"/>
  <rect x="749.11" y="280.67" width="13.39" height="13.39" fill="#231f20"/>
  <rect x="789.84" y="280.67" width="13.39" height="13.39" fill="#231f20"/>
  <rect x="877.01" y="280.67" width="13.39" height="13.39" fill="#231f20"/>
  <rect x="919.7" y="280.67" width="13.39" height="13.39" fill="#231f20"/>
  <rect x="963.28" y="280.67" width="13.39" height="13.39" fill="#231f20"/>
  <rect x="1006.87" y="280.67" width="13.39" height="13.39" fill="#231f20"/>
  <rect x="1047.6" y="280.67" width="13.39" height="13.39" fill="#231f20"/>
  <rect x="919.7" y="237.84" width="13.39" height="13.39" fill="#231f20"/>
  <rect x="963.28" y="237.84" width="13.39" height="13.39" fill="#231f20"/>
  <rect x="1006.87" y="237.84" width="13.39" height="13.39" fill="#231f20"/>
  <rect x="1047.6" y="237.84" width="13.39" height="13.39" fill="#231f20"/>
  <rect x="661.94" y="237.84" width="13.39" height="13.39" fill="#231f20"/>
  <rect x="705.53" y="237.84" width="13.39" height="13.39" fill="#231f20"/>
  <rect x="749.11" y="237.84" width="13.39" height="13.39" fill="#231f20"/>
  <rect x="789.84" y="237.84" width="13.39" height="13.39" fill="#231f20"/>
  <rect x="833.42" y="323.85" width="13.39" height="13.39" fill="#231f20"/>
  <rect x="877.01" y="323.85" width="13.39" height="13.39" fill="#231f20"/>
  <rect x="921.64" y="323.85" width="13.39" height="13.39" fill="#231f20"/>
  <rect x="962.37" y="323.85" width="13.39" height="13.39" fill="#231f20"/>
  <rect x="1005.96" y="323.85" width="13.39" height="13.39" fill="#231f20"/>
  <rect x="1049.54" y="323.85" width="13.39" height="13.39" fill="#231f20"/>
  <rect x="1006.87" y="368.61" width="13.39" height="13.39" fill="#231f20"/>
  <rect x="1047.6" y="368.61" width="13.39" height="13.39" fill="#231f20"/>
  <rect x="1005.96" y="411.78" width="13.39" height="13.39" fill="#231f20"/>
  <rect x="1049.54" y="411.78" width="13.39" height="13.39" fill="#231f20"/>
  <rect x="833.42" y="237.23" width="13.39" height="13.39" fill="#231f20"/>
  <rect x="877.01" y="237.23" width="13.39" height="13.39" fill="#231f20"/>
  <rect x="919.7" y="194.96" width="13.39" height="13.39" fill="#231f20"/>
  <rect x="963.28" y="194.96" width="13.39" height="13.39" fill="#231f20"/>
  <rect x="1006.87" y="194.96" width="13.39" height="13.39" fill="#231f20"/>
  <rect x="1047.6" y="194.96" width="13.39" height="13.39" fill="#231f20"/>
  <rect x="919.7" y="108.96" width="13.39" height="13.39" fill="#231f20"/>
  <rect x="963.28" y="108.96" width="13.39" height="13.39" fill="#231f20"/>
  <rect x="1006.87" y="108.96" width="13.39" height="13.39" fill="#231f20"/>
  <rect x="1047.6" y="108.96" width="13.39" height="13.39" fill="#231f20"/>
  <rect x="919.7" y="66.12" width="13.39" height="13.39" fill="#231f20"/>
  <rect x="963.28" y="66.12" width="13.39" height="13.39" fill="#231f20"/>
  <rect x="1006.87" y="66.12" width="13.39" height="13.39" fill="#231f20"/>
  <rect x="1047.6" y="66.12" width="13.39" height="13.39" fill="#231f20"/>
  <rect x="921.64" y="152.13" width="13.39" height="13.39" fill="#231f20"/>
  <rect x="962.37" y="152.13" width="13.39" height="13.39" fill="#231f20"/>
  <rect x="1005.96" y="152.13" width="13.39" height="13.39" fill="#231f20"/>
  <rect x="1049.54" y="152.13" width="13.39" height="13.39" fill="#231f20"/>
  <rect x="919.7" y="23.24" width="13.39" height="13.39" fill="#231f20"/>
  <rect x="963.28" y="23.24" width="13.39" height="13.39" fill="#231f20"/>
  <rect x="1006.87" y="23.24" width="13.39" height="13.39" fill="#231f20"/>
  <rect x="1047.6" y="23.24" width="13.39" height="13.39" fill="#231f20"/>
  <rect x="661.94" y="194.96" width="13.39" height="13.39" fill="#231f20"/>
  <rect x="705.53" y="194.96" width="13.39" height="13.39" fill="#231f20"/>
  <rect x="749.11" y="194.96" width="13.39" height="13.39" fill="#231f20"/>
  <rect x="789.84" y="194.96" width="13.39" height="13.39" fill="#231f20"/>
  <rect x="833.42" y="194.35" width="13.39" height="13.39" fill="#231f20"/>
  <rect x="532.08" y="152.13" width="13.39" height="13.39" fill="#231f20"/>
  <rect x="489.43" y="152.13" width="13.39" height="13.39" fill="#231f20"/>
  <rect x="575.67" y="152.13" width="13.39" height="13.39" fill="#231f20"/>
  <rect x="619.25" y="152.13" width="13.39" height="13.39" fill="#231f20"/>
  <rect x="661.94" y="152.44" width="13.39" height="13.39" fill="#231f20"/>
  <rect x="705.53" y="152.44" width="13.39" height="13.39" fill="#231f20"/>
  <rect x="749.11" y="152.44" width="13.39" height="13.39" fill="#231f20"/>
  <rect x="789.84" y="152.44" width="13.39" height="13.39" fill="#231f20"/>
  <rect x="833.42" y="151.82" width="13.39" height="13.39" fill="#231f20"/>
  <rect x="532.08" y="106.5" width="13.39" height="13.39" fill="#231f20"/>
  <rect x="575.67" y="106.5" width="13.39" height="13.39" fill="#231f20"/>
  <rect x="619.25" y="106.5" width="13.39" height="13.39" fill="#231f20"/>
  <rect x="661.94" y="106.8" width="13.39" height="13.39" fill="#231f20"/>
  <rect x="705.53" y="106.8" width="13.39" height="13.39" fill="#231f20"/>
  <rect x="749.11" y="106.8" width="13.39" height="13.39" fill="#231f20"/>
  <rect x="789.84" y="106.8" width="13.39" height="13.39" fill="#231f20"/>
  <rect x="833.42" y="106.19" width="13.39" height="13.39" fill="#231f20"/>
  <rect x="532.08" y="63.97" width="13.39" height="13.39" fill="#231f20"/>
  <rect x="575.67" y="63.97" width="13.39" height="13.39" fill="#231f20"/>
  <rect x="619.25" y="63.97" width="13.39" height="13.39" fill="#231f20"/>
  <rect x="661.94" y="64.28" width="13.39" height="13.39" fill="#231f20"/>
  <rect x="705.53" y="64.28" width="13.39" height="13.39" fill="#231f20"/>
  <rect x="749.11" y="64.28" width="13.39" height="13.39" fill="#231f20"/>
  <rect x="789.84" y="64.28" width="13.39" height="13.39" fill="#231f20"/>
  <rect x="532.08" y="21.79" width="13.39" height="13.39" fill="#231f20"/>
  <rect x="445.58" y="152.13" width="13.39" height="13.39" fill="#231f20"/>
  <rect x="445.58" y="106.5" width="13.39" height="13.39" fill="#231f20"/>
  <rect x="445.58" y="63.97" width="13.39" height="13.39" fill="#231f20"/>
  <rect x="445.58" y="21.79" width="13.39" height="13.39" fill="#231f20"/>
  <rect x="490.61" y="63.97" width="13.39" height="13.39" fill="#231f20"/>
  <rect x="490.61" y="21.79" width="13.39" height="13.39" fill="#231f20"/>
  <rect x="575.67" y="21.79" width="13.39" height="13.39" fill="#231f20"/>
  <rect x="619.25" y="21.79" width="13.39" height="13.39" fill="#231f20"/>
  <rect x="661.94" y="22.1" width="13.39" height="13.39" fill="#231f20"/>
  <rect x="705.53" y="22.1" width="13.39" height="13.39" fill="#231f20"/>
  <rect x="749.11" y="22.1" width="13.39" height="13.39" fill="#231f20"/>
  <rect x="789.84" y="22.1" width="13.39" height="13.39" fill="#231f20"/>
  <rect x="833.42" y="63.66" width="13.39" height="13.39" fill="#231f20"/>
  <rect x="877.01" y="194.35" width="13.39" height="13.39" fill="#231f20"/>
  <rect x="789.84" y="367.34" width="13.39" height="13.39" fill="#231f20"/>
  <rect x="833.42" y="367.34" width="13.39" height="13.39" fill="#231f20"/>
  <rect x="877.01" y="367.34" width="13.39" height="13.39" fill="#231f20"/>
  <rect x="789.84" y="410.61" width="13.39" height="13.39" fill="#231f20"/>
  <rect x="789.84" y="453.07" width="13.39" height="13.39" fill="#231f20"/>
  <rect x="833.42" y="410.61" width="13.39" height="13.39" fill="#231f20"/>
  <rect x="877.01" y="410.61" width="13.39" height="13.39" fill="#231f20"/>
  <rect x="489.43" y="323.85" width="13.39" height="13.39" fill="#231f20"/>
  <rect x="404.25" y="194.66" width="13.39" height="13.39" fill="#231f20"/>
  <rect x="272.55" y="152.13" width="13.39" height="13.39" fill="#231f20"/>
  <rect x="316.14" y="152.13" width="13.39" height="13.39" fill="#231f20"/>
  <rect x="359.72" y="152.13" width="13.39" height="13.39" fill="#231f20"/>
  <rect x="186.32" y="152.13" width="13.39" height="13.39" fill="#231f20"/>
  <rect x="229.9" y="152.13" width="13.39" height="13.39" fill="#231f20"/>
  <rect x="144.72" y="152.13" width="13.39" height="13.39" fill="#231f20"/>
  <rect x="404.25" y="152.13" width="13.39" height="13.39" fill="#231f20"/>
  <rect x="272.55" y="106.5" width="13.39" height="13.39" fill="#231f20"/>
  <rect x="316.14" y="106.5" width="13.39" height="13.39" fill="#231f20"/>
  <rect x="359.72" y="106.5" width="13.39" height="13.39" fill="#231f20"/>
  <rect x="186.32" y="106.5" width="13.39" height="13.39" fill="#231f20"/>
  <rect x="229.9" y="106.5" width="13.39" height="13.39" fill="#231f20"/>
  <rect x="144.72" y="106.5" width="13.39" height="13.39" fill="#231f20"/>
  <rect x="404.25" y="106.5" width="13.39" height="13.39" fill="#231f20"/>
  <rect x="272.55" y="63.97" width="13.39" height="13.39" fill="#231f20"/>
  <rect x="316.14" y="63.97" width="13.39" height="13.39" fill="#231f20"/>
  <rect x="359.72" y="63.97" width="13.39" height="13.39" fill="#231f20"/>
  <rect x="186.32" y="63.97" width="13.39" height="13.39" fill="#231f20"/>
  <rect x="229.9" y="63.97" width="13.39" height="13.39" fill="#231f20"/>
  <rect x="144.72" y="63.97" width="13.39" height="13.39" fill="#231f20"/>
  <rect x="404.25" y="63.97" width="13.39" height="13.39" fill="#231f20"/>
  <rect x="272.55" y="21.79" width="13.39" height="13.39" fill="#231f20"/>
  <rect x="316.14" y="21.79" width="13.39" height="13.39" fill="#231f20"/>
  <rect x="359.72" y="21.79" width="13.39" height="13.39" fill="#231f20"/>
  <rect x="186.32" y="21.79" width="13.39" height="13.39" fill="#231f20"/>
  <rect x="229.9" y="21.79" width="13.39" height="13.39" fill="#231f20"/>
  <rect x="144.72" y="21.79" width="13.39" height="13.39" fill="#231f20"/>
  <rect x="57.49" y="152.13" width="13.39" height="13.39" fill="#231f20"/>
  <rect x="101.07" y="152.13" width="13.39" height="13.39" fill="#231f20"/>
  <rect x="15.89" y="152.13" width="13.39" height="13.39" fill="#231f20"/>
  <rect x="57.49" y="106.5" width="13.39" height="13.39" fill="#231f20"/>
  <rect x="101.07" y="106.5" width="13.39" height="13.39" fill="#231f20"/>
  <rect x="15.89" y="106.5" width="13.39" height="13.39" fill="#231f20"/>
  <rect x="57.49" y="63.97" width="13.39" height="13.39" fill="#231f20"/>
  <rect x="101.07" y="63.97" width="13.39" height="13.39" fill="#231f20"/>
  <rect x="15.89" y="63.97" width="13.39" height="13.39" fill="#231f20"/>
  <rect x="57.49" y="21.79" width="13.39" height="13.39" fill="#231f20"/>
  <rect x="101.07" y="21.79" width="13.39" height="13.39" fill="#231f20"/>
  <rect x="15.89" y="21.79" width="13.39" height="13.39" fill="#231f20"/>
  <rect x="404.25" y="21.79" width="13.39" height="13.39" fill="#231f20"/>
  <rect x="14.9" y="237.84" width="13.39" height="13.39" fill="#231f20"/>
  <rect x="58.48" y="237.84" width="13.39" height="13.39" fill="#231f20"/>
  <rect x="58.48" y="194.66" width="13.39" height="13.39" fill="#231f20"/>
  <rect x="102.08" y="323.85" width="13.39" height="13.39" fill="#231f20"/>
  <rect x="145.66" y="323.85" width="13.39" height="13.39" fill="#231f20"/>
  <rect x="13.76" y="323.85" width="13.39" height="13.39" fill="#231f20"/>
  <rect x="57.34" y="323.85" width="13.39" height="13.39" fill="#231f20"/>
  <rect x="13.76" y="281.02" width="13.39" height="13.39" fill="#231f20"/>
  <rect x="57.34" y="281.02" width="13.39" height="13.39" fill="#231f20"/>
  <rect x="13.83" y="453.61" width="13.39" height="13.39" fill="#231f20"/>
  <rect x="13.83" y="410.34" width="13.39" height="13.39" fill="#231f20"/>
  <rect x="58.41" y="453.61" width="13.39" height="13.39" fill="#231f20"/>
  <rect x="487.62" y="496.68" width="13.39" height="13.39" fill="#231f20"/>
  <rect x="442.77" y="496.68" width="13.39" height="13.39" fill="#231f20"/>
  <rect x="487.62" y="453.61" width="13.39" height="13.39" fill="#231f20"/>
  <rect x="442.77" y="453.61" width="13.39" height="13.39" fill="#231f20"/>
  <rect x="402.24" y="496.68" width="13.39" height="13.39" fill="#231f20"/>
  <rect x="531.2" y="496.68" width="13.39" height="13.39" fill="#231f20"/>
  <rect x="575.14" y="496.68" width="13.39" height="13.39" fill="#231f20"/>
  <rect x="618.73" y="496.68" width="13.39" height="13.39" fill="#231f20"/>
  <rect x="658.29" y="496.68" width="13.39" height="13.39" fill="#231f20"/>
  <rect x="705.53" y="497.1" width="13.39" height="13.39" fill="#231f20"/>
  <rect x="833.42" y="497.1" width="13.39" height="13.39" fill="#231f20"/>
  <rect x="788.57" y="497.1" width="13.39" height="13.39" fill="#231f20"/>
  <rect x="748.05" y="497.1" width="13.39" height="13.39" fill="#231f20"/>
  <rect x="877.01" y="497.1" width="13.39" height="13.39" fill="#231f20"/>
  <rect x="920.95" y="497.1" width="13.39" height="13.39" fill="#231f20"/>
  <rect x="964.53" y="497.1" width="13.39" height="13.39" fill="#231f20"/>
  <rect x="1004.1" y="497.1" width="13.39" height="13.39" fill="#231f20"/>
  <rect x="833.42" y="539.87" width="13.39" height="13.39" fill="#231f20"/>
  <rect x="788.57" y="539.87" width="13.39" height="13.39" fill="#231f20"/>
  <rect x="877.01" y="539.87" width="13.39" height="13.39" fill="#231f20"/>
  <rect x="920.95" y="539.87" width="13.39" height="13.39" fill="#231f20"/>
  <rect x="964.53" y="539.87" width="13.39" height="13.39" fill="#231f20"/>
  <rect x="877.01" y="583.29" width="13.39" height="13.39" fill="#231f20"/>
  <rect x="920.95" y="583.29" width="13.39" height="13.39" fill="#231f20"/>
  <rect x="964.53" y="583.29" width="13.39" height="13.39" fill="#231f20"/>
  <rect x="920.95" y="625.78" width="13.39" height="13.39" fill="#231f20"/>
  <rect x="964.53" y="625.78" width="13.39" height="13.39" fill="#231f20"/>
  <rect x="1004.1" y="539.87" width="13.39" height="13.39" fill="#231f20"/>
  <rect x="1049.8" y="497.1" width="13.39" height="13.39" fill="#231f20"/>
  <rect x="920.95" y="456.24" width="13.39" height="13.39" fill="#231f20"/>
  <rect x="964.53" y="456.24" width="13.39" height="13.39" fill="#231f20"/>
  <rect x="1004.1" y="456.24" width="13.39" height="13.39" fill="#231f20"/>
  <rect x="1049.8" y="456.24" width="13.39" height="13.39" fill="#231f20"/>
  <rect x="1049.8" y="539.87" width="13.39" height="13.39" fill="#231f20"/>
  <rect x="745.46" y="625.78" width="13.39" height="13.39" fill="#231f20"/>
  <rect x="701.87" y="584.16" width="13.39" height="13.39" fill="#231f20"/>
  <rect x="658.29" y="584.16" width="13.39" height="13.39" fill="#231f20"/>
  <rect x="617.86" y="584.16" width="13.39" height="13.39" fill="#231f20"/>
  <rect x="745.46" y="584.16" width="13.39" height="13.39" fill="#231f20"/>
  <rect x="790.51" y="711.5" width="13.39" height="13.39" fill="#231f20"/>
  <rect x="745.46" y="757.93" width="13.39" height="13.39" fill="#231f20"/>
  <rect x="745.46" y="798.9" width="13.39" height="13.39" fill="#231f20"/>
  <rect x="747.46" y="843.12" width="13.39" height="13.39" fill="#231f20"/>
  <rect x="790.51" y="970.31" width="13.39" height="13.39" fill="#231f20"/>
  <rect x="790.51" y="929.17" width="13.39" height="13.39" fill="#231f20"/>
  <rect x="790.51" y="885.51" width="13.39" height="13.39" fill="#231f20"/>
  <rect x="790.51" y="843.12" width="13.39" height="13.39" fill="#231f20"/>
  <rect x="833.89" y="970.31" width="13.39" height="13.39" fill="#231f20"/>
  <rect x="833.89" y="929.17" width="13.39" height="13.39" fill="#231f20"/>
  <rect x="833.89" y="885.51" width="13.39" height="13.39" fill="#231f20"/>
  <rect x="833.89" y="843.12" width="13.39" height="13.39" fill="#231f20"/>
  <rect x="790.51" y="757.93" width="13.39" height="13.39" fill="#231f20"/>
  <rect x="790.51" y="670.53" width="13.39" height="13.39" fill="#231f20"/>
  <rect x="790.51" y="625.78" width="13.39" height="13.39" fill="#231f20"/>
  <rect x="832.22" y="711.5" width="13.39" height="13.39" fill="#231f20"/>
  <rect x="832.22" y="670.53" width="13.39" height="13.39" fill="#231f20"/>
  <rect x="832.22" y="625.78" width="13.39" height="13.39" fill="#231f20"/>
  <rect x="877.26" y="711.5" width="13.39" height="13.39" fill="#231f20"/>
  <rect x="832.22" y="757.93" width="13.39" height="13.39" fill="#231f20"/>
  <rect x="877.26" y="757.93" width="13.39" height="13.39" fill="#231f20"/>
  <rect x="832.22" y="800.15" width="13.39" height="13.39" fill="#231f20"/>
  <rect x="877.26" y="800.15" width="13.39" height="13.39" fill="#231f20"/>
  <rect x="877.26" y="670.53" width="13.39" height="13.39" fill="#231f20"/>
  <rect x="920.95" y="711.5" width="13.39" height="13.39" fill="#231f20"/>
  <rect x="920.95" y="757.93" width="13.39" height="13.39" fill="#231f20"/>
  <rect x="920.95" y="670.53" width="13.39" height="13.39" fill="#231f20"/>
  <rect x="877.26" y="625.78" width="13.39" height="13.39" fill="#231f20"/>
  <rect x="790.51" y="584.16" width="13.39" height="13.39" fill="#231f20"/>
  <rect x="359.72" y="670.53" width="13.39" height="13.39" fill="#231f20"/>
  <rect x="359.72" y="625.78" width="13.39" height="13.39" fill="#231f20"/>
</svg>