<?xml version="1.0" encoding="UTF-8"?>
<svg id="_13" data-name="13" xmlns="http://www.w3.org/2000/svg" viewBox="0 0 1080 1080">
  <rect x="303.35" y="563.75" width="40.84" height="40.84" fill="#231f20"/>
  <rect x="260.23" y="563.75" width="40.84" height="40.84" fill="#231f20"/>
  <rect x="346.43" y="563.75" width="40.84" height="40.84" fill="#231f20"/>
  <rect x="303.35" y="520.42" width="40.84" height="40.84" fill="#231f20"/>
  <rect x="346.43" y="520.42" width="40.84" height="40.84" fill="#231f20"/>
  <rect x="303.35" y="477.09" width="40.84" height="40.84" fill="#231f20"/>
  <rect x="346.43" y="477.09" width="40.84" height="40.84" fill="#231f20"/>
  <rect x="389.36" y="434.43" width="40.84" height="40.84" fill="#231f20"/>
  <rect x="432.44" y="434.43" width="40.84" height="40.84" fill="#231f20"/>
  <rect x="302.97" y="434.43" width="40.84" height="40.84" fill="#231f20"/>
  <rect x="346.05" y="434.43" width="40.84" height="40.84" fill="#231f20"/>
  <rect x="389.72" y="391.12" width="40.84" height="40.84" fill="#231f20"/>
  <rect x="432.8" y="391.12" width="40.84" height="40.84" fill="#231f20"/>
  <rect x="518.94" y="434.43" width="40.84" height="40.84" fill="#231f20"/>
  <rect x="562.02" y="434.43" width="40.84" height="40.84" fill="#231f20"/>
  <rect x="605.1" y="434.43" width="40.84" height="40.84" fill="#231f20"/>
  <rect x="648.4" y="434.43" width="40.84" height="40.84" fill="#231f20"/>
  <rect x="648.54" y="477.09" width="40.84" height="40.84" fill="#231f20"/>
  <rect x="648.54" y="520.63" width="40.84" height="40.84" fill="#231f20"/>
  <rect x="865.02" y="477.37" width="40.84" height="40.84" fill="#231f20"/>
  <rect x="864.66" y="434.43" width="40.84" height="40.84" fill="#231f20"/>
  <rect x="821.72" y="391.12" width="40.84" height="40.84" fill="#231f20"/>
  <rect x="865.02" y="520.7" width="40.84" height="40.84" fill="#231f20"/>
  <rect x="1037.64" y="563.75" width="40.84" height="40.84" fill="#231f20"/>
  <rect x="605.68" y="563.75" width="40.84" height="40.84" fill="#231f20"/>
  <rect x="519.3" y="391.12" width="40.84" height="40.84" fill="#231f20"/>
  <rect x="562.38" y="391.12" width="40.84" height="40.84" fill="#231f20"/>
  <rect x="605.46" y="391.12" width="40.84" height="40.84" fill="#231f20"/>
  <rect x="605.68" y="347.73" width="40.84" height="40.84" fill="#231f20"/>
  <rect x="562.38" y="347.73" width="40.84" height="40.84" fill="#231f20"/>
  <rect x="519.3" y="347.73" width="40.84" height="40.84" fill="#231f20"/>
  <rect x="648.76" y="347.73" width="40.84" height="40.84" fill="#231f20"/>
  <rect x="691.84" y="347.73" width="40.84" height="40.84" fill="#231f20"/>
  <rect x="821.65" y="304.7" width="40.84" height="40.84" fill="#231f20"/>
  <rect x="778.34" y="304.7" width="40.84" height="40.84" fill="#231f20"/>
  <rect x="691.71" y="218.46" width="40.84" height="40.84" fill="#231f20"/>
  <rect x="691.69" y="261.32" width="40.84" height="40.84" fill="#231f20"/>
  <rect x="821.56" y="261.32" width="40.84" height="40.84" fill="#231f20"/>
  <rect x="821.58" y="218.46" width="40.84" height="40.84" fill="#231f20"/>
  <rect x="908.45" y="88.59" width="40.84" height="40.84" fill="#231f20"/>
  <rect x="908.12" y="45.22" width="40.84" height="40.84" fill="#231f20"/>
  <rect x="908.16" y="2.35" width="40.84" height="40.84" fill="#231f20"/>
  <rect x="951.64" y="88.59" width="40.84" height="40.84" fill="#231f20"/>
  <rect x="951.31" y="45.22" width="40.84" height="40.84" fill="#231f20"/>
  <rect x="951.36" y="2.35" width="40.84" height="40.84" fill="#231f20"/>
  <rect x="778.25" y="261.32" width="40.84" height="40.84" fill="#231f20"/>
  <rect x="303.33" y="391.12" width="40.84" height="40.84" fill="#231f20"/>
  <rect x="303.33" y="347.73" width="40.84" height="40.84" fill="#231f20"/>
  <rect x="303.26" y="304.7" width="40.84" height="40.84" fill="#231f20"/>
  <rect x="346.34" y="304.7" width="40.84" height="40.84" fill="#231f20"/>
  <rect x="260.25" y="520.42" width="40.84" height="40.84" fill="#231f20"/>
  <rect x="217.13" y="520.42" width="40.84" height="40.84" fill="#231f20"/>
  <rect x="130.93" y="563.75" width="40.84" height="40.84" fill="#231f20"/>
  <rect x="86.94" y="650.46" width="40.84" height="40.84" fill="#231f20"/>
  <rect x="260.25" y="477.09" width="40.84" height="40.84" fill="#231f20"/>
  <rect x="259.87" y="434.43" width="40.84" height="40.84" fill="#231f20"/>
  <rect x="216.77" y="434.43" width="40.84" height="40.84" fill="#231f20"/>
  <rect x="260.23" y="391.12" width="40.84" height="40.84" fill="#231f20"/>
  <rect x="217.13" y="391.12" width="40.84" height="40.84" fill="#231f20"/>
  <rect x="2.1" y="391.12" width="40.84" height="40.84" fill="#231f20"/>
  <rect x="346.41" y="391.12" width="40.84" height="40.84" fill="#231f20"/>
  <rect x="346.41" y="347.73" width="40.84" height="40.84" fill="#231f20"/>
  <rect x="389.51" y="175.07" width="40.84" height="40.84" fill="#231f20"/>
  <rect x="432.8" y="175.07" width="40.84" height="40.84" fill="#231f20"/>
  <rect x="346.41" y="175.07" width="40.84" height="40.84" fill="#231f20"/>
  <rect x="346.29" y="261.32" width="40.84" height="40.84" fill="#231f20"/>
  <rect x="389.38" y="261.32" width="40.84" height="40.84" fill="#231f20"/>
  <rect x="389.51" y="131.9" width="40.84" height="40.84" fill="#231f20"/>
  <rect x="346.45" y="131.9" width="40.84" height="40.84" fill="#231f20"/>
  <rect x="389.78" y="88.59" width="40.84" height="40.84" fill="#231f20"/>
  <rect x="346.41" y="88.59" width="40.84" height="40.84" fill="#231f20"/>
  <rect x="346.51" y="45.22" width="40.84" height="40.84" fill="#231f20"/>
  <rect x="346.56" y="2.35" width="40.84" height="40.84" fill="#231f20"/>
  <rect x="303.14" y="45.22" width="40.84" height="40.84" fill="#231f20"/>
  <rect x="303.19" y="2.35" width="40.84" height="40.84" fill="#231f20"/>
  <rect x="346.32" y="218.46" width="40.84" height="40.84" fill="#231f20"/>
  <rect x="389.4" y="218.46" width="40.84" height="40.84" fill="#231f20"/>
  <rect x="605.57" y="131.9" width="40.84" height="40.84" fill="#231f20"/>
  <rect x="562.47" y="131.9" width="40.84" height="40.84" fill="#231f20"/>
  <rect x="691.77" y="131.9" width="40.84" height="40.84" fill="#231f20"/>
  <rect x="648.67" y="131.9" width="40.84" height="40.84" fill="#231f20"/>
  <rect x="648.67" y="88.59" width="40.84" height="40.84" fill="#231f20"/>
  <rect x="691.77" y="88.59" width="40.84" height="40.84" fill="#231f20"/>
  <rect x="562.51" y="175.07" width="40.84" height="40.84" fill="#231f20"/>
  <rect x="605.59" y="175.07" width="40.84" height="40.84" fill="#231f20"/>
  <rect x="346.43" y="607.07" width="40.84" height="40.84" fill="#231f20"/>
  <rect x="346.45" y="650.4" width="40.84" height="40.84" fill="#231f20"/>
  <rect x="389.51" y="909.43" width="40.84" height="40.84" fill="#231f20"/>
  <rect x="994.24" y="952.76" width="40.84" height="40.84" fill="#231f20"/>
  <rect x="951.39" y="952.76" width="40.84" height="40.84" fill="#231f20"/>
  <rect x="1037.68" y="952.76" width="40.84" height="40.84" fill="#231f20"/>
  <rect x="994.2" y="1038.74" width="40.84" height="40.84" fill="#231f20"/>
  <rect x="951.39" y="1038.74" width="40.84" height="40.84" fill="#231f20"/>
  <rect x="1037.64" y="1038.74" width="40.84" height="40.84" fill="#231f20"/>
  <rect x="994.2" y="995.53" width="40.84" height="40.84" fill="#231f20"/>
  <rect x="951.39" y="995.53" width="40.84" height="40.84" fill="#231f20"/>
  <rect x="1037.64" y="995.53" width="40.84" height="40.84" fill="#231f20"/>
  <rect x="994.2" y="909.44" width="40.84" height="40.84" fill="#231f20"/>
  <rect x="1037.64" y="909.44" width="40.84" height="40.84" fill="#231f20"/>
  <rect x="389.51" y="866.28" width="40.84" height="40.84" fill="#231f20"/>
  <rect x="346.49" y="909.43" width="40.84" height="40.84" fill="#231f20"/>
  <rect x="87.43" y="952.93" width="40.84" height="40.84" fill="#231f20"/>
  <rect x="130.25" y="909.53" width="40.84" height="40.84" fill="#231f20"/>
  <rect x="346.49" y="952.93" width="40.84" height="40.84" fill="#231f20"/>
  <rect x="303.33" y="995.48" width="40.84" height="40.84" fill="#231f20"/>
  <rect x="303.19" y="1039.16" width="40.84" height="40.84" fill="#231f20"/>
  <rect x="260.05" y="1039.16" width="40.84" height="40.84" fill="#231f20"/>
  <rect x="217.04" y="1039.16" width="40.84" height="40.84" fill="#231f20"/>
  <rect x="173.3" y="1039.16" width="40.84" height="40.84" fill="#231f20"/>
  <rect x=".67" y="1039.16" width="40.84" height="40.84" fill="#231f20"/>
  <rect x="389.51" y="952.93" width="40.84" height="40.84" fill="#231f20"/>
  <rect x="403.96" y="620.79" width="13.39" height="13.39" fill="#231f20"/>
  <rect x="403.96" y="663.66" width="13.39" height="13.39" fill="#231f20"/>
  <rect x="446.52" y="663.66" width="13.39" height="13.39" fill="#231f20"/>
  <rect x="360.17" y="707.67" width="13.39" height="13.39" fill="#231f20"/>
  <rect x="317.05" y="707.67" width="13.39" height="13.39" fill="#231f20"/>
  <rect x="360.17" y="750.31" width="13.39" height="13.39" fill="#231f20"/>
  <rect x="317.05" y="750.31" width="13.39" height="13.39" fill="#231f20"/>
  <rect x="360.17" y="793.64" width="13.39" height="13.39" fill="#231f20"/>
  <rect x="317.05" y="793.64" width="13.39" height="13.39" fill="#231f20"/>
  <rect x="273.45" y="793.64" width="13.39" height="13.39" fill="#231f20"/>
  <rect x="360.17" y="837.2" width="13.39" height="13.39" fill="#231f20"/>
  <rect x="317.05" y="837.2" width="13.39" height="13.39" fill="#231f20"/>
  <rect x="273.45" y="837.2" width="13.39" height="13.39" fill="#231f20"/>
  <rect x="360.17" y="880.01" width="13.39" height="13.39" fill="#231f20"/>
  <rect x="317.05" y="880.01" width="13.39" height="13.39" fill="#231f20"/>
  <rect x="273.77" y="880.01" width="13.39" height="13.39" fill="#231f20"/>
  <rect x="230.65" y="880.01" width="13.39" height="13.39" fill="#231f20"/>
  <rect x="317.05" y="923.15" width="13.39" height="13.39" fill="#231f20"/>
  <rect x="273.77" y="923.15" width="13.39" height="13.39" fill="#231f20"/>
  <rect x="230.65" y="923.15" width="13.39" height="13.39" fill="#231f20"/>
  <rect x="317.05" y="966.66" width="13.39" height="13.39" fill="#231f20"/>
  <rect x="273.77" y="966.66" width="13.39" height="13.39" fill="#231f20"/>
  <rect x="403.52" y="1009.81" width="13.39" height="13.39" fill="#231f20"/>
  <rect x="360.24" y="1009.81" width="13.39" height="13.39" fill="#231f20"/>
  <rect x="360.02" y="1052.89" width="13.39" height="13.39" fill="#231f20"/>
  <rect x="230.65" y="966.66" width="13.39" height="13.39" fill="#231f20"/>
  <rect x="273.71" y="1009.81" width="13.39" height="13.39" fill="#231f20"/>
  <rect x="230.59" y="1009.81" width="13.39" height="13.39" fill="#231f20"/>
  <rect x="187.73" y="880.01" width="13.39" height="13.39" fill="#231f20"/>
  <rect x="144.25" y="880.01" width="13.39" height="13.39" fill="#231f20"/>
  <rect x="100.96" y="880.01" width="13.39" height="13.39" fill="#231f20"/>
  <rect x="57.84" y="880.01" width="13.39" height="13.39" fill="#231f20"/>
  <rect x="14.93" y="880.01" width="13.39" height="13.39" fill="#231f20"/>
  <rect x="187.73" y="837.2" width="13.39" height="13.39" fill="#231f20"/>
  <rect x="144.25" y="837.2" width="13.39" height="13.39" fill="#231f20"/>
  <rect x="187.73" y="793.64" width="13.39" height="13.39" fill="#231f20"/>
  <rect x="144.25" y="793.64" width="13.39" height="13.39" fill="#231f20"/>
  <rect x="100.96" y="837.2" width="13.39" height="13.39" fill="#231f20"/>
  <rect x="57.84" y="837.2" width="13.39" height="13.39" fill="#231f20"/>
  <rect x="14.93" y="837.2" width="13.39" height="13.39" fill="#231f20"/>
  <rect x="187.73" y="923.15" width="13.39" height="13.39" fill="#231f20"/>
  <rect x="187.73" y="966.66" width="13.39" height="13.39" fill="#231f20"/>
  <rect x="187.67" y="1009.81" width="13.39" height="13.39" fill="#231f20"/>
  <rect x="145.59" y="966.66" width="13.39" height="13.39" fill="#231f20"/>
  <rect x="145.53" y="1009.81" width="13.39" height="13.39" fill="#231f20"/>
  <rect x="145.31" y="1052.89" width="13.39" height="13.39" fill="#231f20"/>
  <rect x="101.87" y="1009.81" width="13.39" height="13.39" fill="#231f20"/>
  <rect x="58.16" y="1009.81" width="13.39" height="13.39" fill="#231f20"/>
  <rect x="57.95" y="1052.89" width="13.39" height="13.39" fill="#231f20"/>
  <rect x="58.22" y="922.39" width="13.39" height="13.39" fill="#231f20"/>
  <rect x="101.15" y="922.39" width="13.39" height="13.39" fill="#231f20"/>
  <rect x="58.22" y="966.66" width="13.39" height="13.39" fill="#231f20"/>
  <rect x="14.57" y="922.39" width="13.39" height="13.39" fill="#231f20"/>
  <rect x="14.57" y="966.66" width="13.39" height="13.39" fill="#231f20"/>
  <rect x="14.51" y="1009.81" width="13.39" height="13.39" fill="#231f20"/>
  <rect x="101.66" y="1052.89" width="13.39" height="13.39" fill="#231f20"/>
  <rect x="445.21" y="837.2" width="13.39" height="13.39" fill="#231f20"/>
  <rect x="445.21" y="880.01" width="13.39" height="13.39" fill="#231f20"/>
  <rect x="445.21" y="924.75" width="13.39" height="13.39" fill="#231f20"/>
  <rect x="662.92" y="880.01" width="13.39" height="13.39" fill="#231f20"/>
  <rect x="662.92" y="925.21" width="13.39" height="13.39" fill="#231f20"/>
  <rect x="705.58" y="880.01" width="13.39" height="13.39" fill="#231f20"/>
  <rect x="705.58" y="925.2" width="13.39" height="13.39" fill="#231f20"/>
  <rect x="705.58" y="967.38" width="13.39" height="13.39" fill="#231f20"/>
  <rect x="748.24" y="796.55" width="13.39" height="13.39" fill="#231f20"/>
  <rect x="748.24" y="841.47" width="13.39" height="13.39" fill="#231f20"/>
  <rect x="790.89" y="796.54" width="13.39" height="13.39" fill="#231f20"/>
  <rect x="790.89" y="841.46" width="13.39" height="13.39" fill="#231f20"/>
  <rect x="835.58" y="796.55" width="13.39" height="13.39" fill="#231f20"/>
  <rect x="835.58" y="841.47" width="13.39" height="13.39" fill="#231f20"/>
  <rect x="835.58" y="880.01" width="13.39" height="13.39" fill="#231f20"/>
  <rect x="833.77" y="578.06" width="13.39" height="13.39" fill="#231f20"/>
  <rect x="833.77" y="622.98" width="13.39" height="13.39" fill="#231f20"/>
  <rect x="833.77" y="707.67" width="13.39" height="13.39" fill="#231f20"/>
  <rect x="792.13" y="622.98" width="13.39" height="13.39" fill="#231f20"/>
  <rect x="833.77" y="490.29" width="13.39" height="13.39" fill="#231f20"/>
  <rect x="833.42" y="448.15" width="13.39" height="13.39" fill="#231f20"/>
  <rect x="833.77" y="535.22" width="13.39" height="13.39" fill="#231f20"/>
  <rect x="878.59" y="275.05" width="13.39" height="13.39" fill="#231f20"/>
  <rect x="878.61" y="232.18" width="13.39" height="13.39" fill="#231f20"/>
  <rect x="1051.92" y="276.98" width="13.39" height="13.39" fill="#231f20"/>
  <rect x="1008.61" y="276.98" width="13.39" height="13.39" fill="#231f20"/>
  <rect x="1051.92" y="233.42" width="13.39" height="13.39" fill="#231f20"/>
  <rect x="878.67" y="318.42" width="13.39" height="13.39" fill="#231f20"/>
  <rect x="705.57" y="490.29" width="13.39" height="13.39" fill="#231f20"/>
  <rect x="705.21" y="448.15" width="13.39" height="13.39" fill="#231f20"/>
  <rect x="748.6" y="448.15" width="13.39" height="13.39" fill="#231f20"/>
  <rect x="748.96" y="404.84" width="13.39" height="13.39" fill="#231f20"/>
  <rect x="748.96" y="361.45" width="13.39" height="13.39" fill="#231f20"/>
  <rect x="791.77" y="448.15" width="13.39" height="13.39" fill="#231f20"/>
  <rect x="617.54" y="492.99" width="13.39" height="13.39" fill="#231f20"/>
  <rect x="489.33" y="492.99" width="13.39" height="13.39" fill="#231f20"/>
  <rect x="446.52" y="492.99" width="13.39" height="13.39" fill="#231f20"/>
  <rect x="489.33" y="533.5" width="13.39" height="13.39" fill="#231f20"/>
  <rect x="532.73" y="533.5" width="13.39" height="13.39" fill="#231f20"/>
  <rect x="489.33" y="404.84" width="13.39" height="13.39" fill="#231f20"/>
  <rect x="488.97" y="448.15" width="13.39" height="13.39" fill="#231f20"/>
  <rect x="489.26" y="318.42" width="13.39" height="13.39" fill="#231f20"/>
  <rect x="489.33" y="361.45" width="13.39" height="13.39" fill="#231f20"/>
  <rect x="447.51" y="232.18" width="13.39" height="13.39" fill="#231f20"/>
  <rect x="447.49" y="275.05" width="13.39" height="13.39" fill="#231f20"/>
  <rect x="446.52" y="533.5" width="13.39" height="13.39" fill="#231f20"/>
  <rect x="404.69" y="492.99" width="13.39" height="13.39" fill="#231f20"/>
  <rect x="404.69" y="534.14" width="13.39" height="13.39" fill="#231f20"/>
  <rect x="404.69" y="577.47" width="13.39" height="13.39" fill="#231f20"/>
  <rect x="532.73" y="492.99" width="13.39" height="13.39" fill="#231f20"/>
  <rect x="575.9" y="492.99" width="13.39" height="13.39" fill="#231f20"/>
  <rect x="660.55" y="318.42" width="13.39" height="13.39" fill="#231f20"/>
  <rect x="532.34" y="318.42" width="13.39" height="13.39" fill="#231f20"/>
  <rect x="404.49" y="318.42" width="13.39" height="13.39" fill="#231f20"/>
  <rect x="447.57" y="318.42" width="13.39" height="13.39" fill="#231f20"/>
  <rect x="317.07" y="188.79" width="13.39" height="13.39" fill="#231f20"/>
  <rect x="316.94" y="232.18" width="13.39" height="13.39" fill="#231f20"/>
  <rect x="317.07" y="102.31" width="13.39" height="13.39" fill="#231f20"/>
  <rect x="317.07" y="145.62" width="13.39" height="13.39" fill="#231f20"/>
  <rect x="316.92" y="275.05" width="13.39" height="13.39" fill="#231f20"/>
  <rect x="575.74" y="318.42" width="13.39" height="13.39" fill="#231f20"/>
  <rect x="618.91" y="318.42" width="13.39" height="13.39" fill="#231f20"/>
  <rect x="489.2" y="232.18" width="13.39" height="13.39" fill="#231f20"/>
  <rect x="660.49" y="232.18" width="13.39" height="13.39" fill="#231f20"/>
  <rect x="532.28" y="232.18" width="13.39" height="13.39" fill="#231f20"/>
  <rect x="489.33" y="188.79" width="13.39" height="13.39" fill="#231f20"/>
  <rect x="532.41" y="188.79" width="13.39" height="13.39" fill="#231f20"/>
  <rect x="489.33" y="145.62" width="13.39" height="13.39" fill="#231f20"/>
  <rect x="446.52" y="145.62" width="13.39" height="13.39" fill="#231f20"/>
  <rect x="446.52" y="102.31" width="13.39" height="13.39" fill="#231f20"/>
  <rect x="403.19" y="58.95" width="13.39" height="13.39" fill="#231f20"/>
  <rect x="403.23" y="16.07" width="13.39" height="13.39" fill="#231f20"/>
  <rect x="273.7" y="58.95" width="13.39" height="13.39" fill="#231f20"/>
  <rect x="273.75" y="16.07" width="13.39" height="13.39" fill="#231f20"/>
  <rect x="532.41" y="145.62" width="13.39" height="13.39" fill="#231f20"/>
  <rect x="489.33" y="102.31" width="13.39" height="13.39" fill="#231f20"/>
  <rect x="532.41" y="102.31" width="13.39" height="13.39" fill="#231f20"/>
  <rect x="576.68" y="102.31" width="13.39" height="13.39" fill="#231f20"/>
  <rect x="619.76" y="102.31" width="13.39" height="13.39" fill="#231f20"/>
  <rect x="661.22" y="58.95" width="13.39" height="13.39" fill="#231f20"/>
  <rect x="704.31" y="58.95" width="13.39" height="13.39" fill="#231f20"/>
  <rect x="878.74" y="102.31" width="13.39" height="13.39" fill="#231f20"/>
  <rect x="878.7" y="58.95" width="13.39" height="13.39" fill="#231f20"/>
  <rect x="878.74" y="16.07" width="13.39" height="13.39" fill="#231f20"/>
  <rect x="575.67" y="232.18" width="13.39" height="13.39" fill="#231f20"/>
  <rect x="618.84" y="232.18" width="13.39" height="13.39" fill="#231f20"/>
  <rect x="748.08" y="318.42" width="13.39" height="13.39" fill="#231f20"/>
  <rect x="748.8" y="275.05" width="13.39" height="13.39" fill="#231f20"/>
  <rect x="748.02" y="232.18" width="13.39" height="13.39" fill="#231f20"/>
  <rect x="792" y="232.18" width="13.39" height="13.39" fill="#231f20"/>
  <rect x="706.44" y="318.42" width="13.39" height="13.39" fill="#231f20"/>
  <rect x="661.52" y="188.79" width="13.39" height="13.39" fill="#231f20"/>
  <rect x="706.51" y="188.79" width="13.39" height="13.39" fill="#231f20"/>
  <rect x="792.13" y="404.84" width="13.39" height="13.39" fill="#231f20"/>
  <rect x="662.55" y="404.84" width="13.39" height="13.39" fill="#231f20"/>
  <rect x="705.72" y="404.84" width="13.39" height="13.39" fill="#231f20"/>
  <rect x="705.57" y="535.22" width="13.39" height="13.39" fill="#231f20"/>
  <rect x="705.57" y="577.47" width="13.39" height="13.39" fill="#231f20"/>
  <rect x="748.96" y="535.22" width="13.39" height="13.39" fill="#231f20"/>
  <rect x="748.96" y="577.47" width="13.39" height="13.39" fill="#231f20"/>
  <rect x="662.48" y="577.47" width="13.39" height="13.39" fill="#231f20"/>
  <rect x="619.39" y="620.56" width="13.39" height="13.39" fill="#231f20"/>
  <rect x="878.74" y="577.47" width="13.39" height="13.39" fill="#231f20"/>
  <rect x="1051.92" y="535.22" width="13.39" height="13.39" fill="#231f20"/>
  <rect x="835.58" y="925.21" width="13.39" height="13.39" fill="#231f20"/>
  <rect x="920.77" y="966.37" width="13.39" height="13.39" fill="#231f20"/>
  <rect x="920.15" y="1010.76" width="13.39" height="13.39" fill="#231f20"/>
  <rect x="965.58" y="880.01" width="13.39" height="13.39" fill="#231f20"/>
  <rect x="1007.92" y="880.01" width="13.39" height="13.39" fill="#231f20"/>
  <rect x="1051.36" y="880.01" width="13.39" height="13.39" fill="#231f20"/>
  <rect x="965.11" y="923.16" width="13.39" height="13.39" fill="#231f20"/>
  <rect x="445.21" y="966.66" width="13.39" height="13.39" fill="#231f20"/>
  <rect x="402.09" y="837.2" width="13.39" height="13.39" fill="#231f20"/>
  <rect x="317.05" y="663.66" width="13.39" height="13.39" fill="#231f20"/>
  <rect x="317.05" y="620.79" width="13.39" height="13.39" fill="#231f20"/>
  <rect x="273.97" y="620.79" width="13.39" height="13.39" fill="#231f20"/>
  <rect x="273.75" y="361.45" width="13.39" height="13.39" fill="#231f20"/>
  <rect x="230.67" y="361.45" width="13.39" height="13.39" fill="#231f20"/>
  <rect x="273.97" y="663.66" width="13.39" height="13.39" fill="#231f20"/>
  <rect x="230.86" y="577.47" width="13.39" height="13.39" fill="#231f20"/>
  <rect x="188.19" y="577.47" width="13.39" height="13.39" fill="#231f20"/>
  <rect x="187.16" y="620.79" width="13.39" height="13.39" fill="#231f20"/>
  <rect x="144.49" y="620.79" width="13.39" height="13.39" fill="#231f20"/>
  <rect x="100.66" y="620.79" width="13.39" height="13.39" fill="#231f20"/>
  <rect x="187.73" y="663.66" width="13.39" height="13.39" fill="#231f20"/>
  <rect x="188.19" y="404.84" width="13.39" height="13.39" fill="#231f20"/>
  <rect x="188.19" y="361.45" width="13.39" height="13.39" fill="#231f20"/>
  <rect x="186.8" y="448.15" width="13.39" height="13.39" fill="#231f20"/>
  <rect x="103.58" y="404.84" width="13.39" height="13.39" fill="#231f20"/>
  <rect x="144.85" y="404.84" width="13.39" height="13.39" fill="#231f20"/>
  <rect x="102.19" y="448.15" width="13.39" height="13.39" fill="#231f20"/>
  <rect x="144.49" y="448.15" width="13.39" height="13.39" fill="#231f20"/>
  <rect x="187.73" y="490.58" width="13.39" height="13.39" fill="#231f20"/>
  <rect x="143.91" y="663.66" width="13.39" height="13.39" fill="#231f20"/>
  <rect x="58.16" y="663.66" width="13.39" height="13.39" fill="#231f20"/>
  <rect x="14.33" y="663.66" width="13.39" height="13.39" fill="#231f20"/>
  <rect x="58.16" y="706.98" width="13.39" height="13.39" fill="#231f20"/>
  <rect x="14.33" y="706.98" width="13.39" height="13.39" fill="#231f20"/>
</svg>