<?xml version="1.0" encoding="UTF-8"?>
<svg id="_14" data-name="14" xmlns="http://www.w3.org/2000/svg" viewBox="0 0 1080 1080">
  <rect x="345.5" y="821.63" width="40.82" height="40.82" fill="#231f20"/>
  <rect x="388.71" y="821.63" width="40.82" height="40.82" fill="#231f20"/>
  <rect x="345.5" y="778.18" width="40.82" height="40.82" fill="#231f20"/>
  <rect x="388.71" y="778.18" width="40.82" height="40.82" fill="#231f20"/>
  <rect x="345.5" y="865.08" width="40.82" height="40.82" fill="#231f20"/>
  <rect x="388.71" y="865.08" width="40.82" height="40.82" fill="#231f20"/>
  <rect x="431.92" y="821.63" width="40.82" height="40.82" fill="#231f20"/>
  <rect x="345.5" y="735.17" width="40.82" height="40.82" fill="#231f20"/>
  <rect x="388.71" y="735.17" width="40.82" height="40.82" fill="#231f20"/>
  <rect x="431.92" y="735.17" width="40.82" height="40.82" fill="#231f20"/>
  <rect x="475.14" y="735.17" width="40.82" height="40.82" fill="#231f20"/>
  <rect x="475.14" y="778.18" width="40.82" height="40.82" fill="#231f20"/>
  <rect x="345.5" y="691.81" width="40.82" height="40.82" fill="#231f20"/>
  <rect x="388.71" y="691.81" width="40.82" height="40.82" fill="#231f20"/>
  <rect x="431.92" y="691.81" width="40.82" height="40.82" fill="#231f20"/>
  <rect x="475.14" y="691.81" width="40.82" height="40.82" fill="#231f20"/>
  <rect x="345.5" y="648.66" width="40.82" height="40.82" fill="#231f20"/>
  <rect x="388.71" y="648.66" width="40.82" height="40.82" fill="#231f20"/>
  <rect x="431.92" y="648.66" width="40.82" height="40.82" fill="#231f20"/>
  <rect x="345.5" y="605.63" width="40.82" height="40.82" fill="#231f20"/>
  <rect x="129.45" y="519.14" width="40.82" height="40.82" fill="#231f20"/>
  <rect x="129.45" y="476.28" width="40.82" height="40.82" fill="#231f20"/>
  <rect x="129.45" y="433.52" width="40.82" height="40.82" fill="#231f20"/>
  <rect x="172.75" y="476.28" width="40.82" height="40.82" fill="#231f20"/>
  <rect x="172.75" y="433.52" width="40.82" height="40.82" fill="#231f20"/>
  <rect x="129.45" y="389.97" width="40.82" height="40.82" fill="#231f20"/>
  <rect x="129.45" y="346.85" width="40.82" height="40.82" fill="#231f20"/>
  <rect x="129.45" y="303.83" width="40.82" height="40.82" fill="#231f20"/>
  <rect x="345.5" y="562.56" width="40.82" height="40.82" fill="#231f20"/>
  <rect x="388.71" y="562.56" width="40.82" height="40.82" fill="#231f20"/>
  <rect x="345.41" y="389.97" width="40.82" height="40.82" fill="#231f20"/>
  <rect x="302.02" y="303.83" width="40.82" height="40.82" fill="#231f20"/>
  <rect x="302.02" y="346.85" width="40.82" height="40.82" fill="#231f20"/>
  <rect x="302.02" y="260.47" width="40.82" height="40.82" fill="#231f20"/>
  <rect x="302.02" y="217.3" width="40.82" height="40.82" fill="#231f20"/>
  <rect x="302.02" y="174.11" width="40.82" height="40.82" fill="#231f20"/>
  <rect x="474.85" y="217.3" width="40.82" height="40.82" fill="#231f20"/>
  <rect x="474.85" y="174.11" width="40.82" height="40.82" fill="#231f20"/>
  <rect x="302.02" y="87.66" width="40.82" height="40.82" fill="#231f20"/>
  <rect x="302.02" y="131.01" width="40.82" height="40.82" fill="#231f20"/>
  <rect x="302.02" y="44.4" width="40.82" height="40.82" fill="#231f20"/>
  <rect x="259.26" y="44.4" width="40.82" height="40.82" fill="#231f20"/>
  <rect x="302.28" y="648.66" width="40.82" height="40.82" fill="#231f20"/>
  <rect x="302.28" y="605.63" width="40.82" height="40.82" fill="#231f20"/>
  <rect x="172.75" y="648.66" width="40.82" height="40.82" fill="#231f20"/>
  <rect x="172.75" y="605.63" width="40.82" height="40.82" fill="#231f20"/>
  <rect x="129.54" y="648.66" width="40.82" height="40.82" fill="#231f20"/>
  <rect x="129.54" y="605.63" width="40.82" height="40.82" fill="#231f20"/>
  <rect y="605.63" width="40.82" height="40.82" fill="#231f20"/>
  <rect x="172.75" y="562.56" width="40.82" height="40.82" fill="#231f20"/>
  <rect x="129.54" y="562.56" width="40.82" height="40.82" fill="#231f20"/>
  <rect x="388.71" y="605.63" width="40.82" height="40.82" fill="#231f20"/>
  <rect x="431.92" y="605.63" width="40.82" height="40.82" fill="#231f20"/>
  <rect x="561.57" y="303.83" width="40.82" height="40.82" fill="#231f20"/>
  <rect x="604.31" y="303.83" width="40.82" height="40.82" fill="#231f20"/>
  <rect x="647.28" y="303.83" width="40.82" height="40.82" fill="#231f20"/>
  <rect x="561.57" y="346.85" width="40.82" height="40.82" fill="#231f20"/>
  <rect x="604.31" y="346.85" width="40.82" height="40.82" fill="#231f20"/>
  <rect x="647.28" y="346.85" width="40.82" height="40.82" fill="#231f20"/>
  <rect x="647.28" y="389.97" width="40.82" height="40.82" fill="#231f20"/>
  <rect x="561.57" y="217.3" width="40.82" height="40.82" fill="#231f20"/>
  <rect x="604.31" y="217.3" width="40.82" height="40.82" fill="#231f20"/>
  <rect x="647.28" y="217.3" width="40.82" height="40.82" fill="#231f20"/>
  <rect x="690.54" y="217.3" width="40.82" height="40.82" fill="#231f20"/>
  <rect x="561.57" y="174.11" width="40.82" height="40.82" fill="#231f20"/>
  <rect x="604.31" y="174.11" width="40.82" height="40.82" fill="#231f20"/>
  <rect x="647.28" y="174.11" width="40.82" height="40.82" fill="#231f20"/>
  <rect x="690.54" y="174.11" width="40.82" height="40.82" fill="#231f20"/>
  <rect x="733.62" y="174.11" width="40.82" height="40.82" fill="#231f20"/>
  <rect x="561.57" y="131.01" width="40.82" height="40.82" fill="#231f20"/>
  <rect x="604.31" y="131.01" width="40.82" height="40.82" fill="#231f20"/>
  <rect x="647.28" y="131.01" width="40.82" height="40.82" fill="#231f20"/>
  <rect x="690.54" y="131.01" width="40.82" height="40.82" fill="#231f20"/>
  <rect x="733.62" y="131.01" width="40.82" height="40.82" fill="#231f20"/>
  <rect x="733.62" y="87.66" width="40.82" height="40.82" fill="#231f20"/>
  <rect x="777.55" y="87.66" width="40.82" height="40.82" fill="#231f20"/>
  <rect x="820.86" y="87.66" width="40.82" height="40.82" fill="#231f20"/>
  <rect x="863.27" y="87.66" width="40.82" height="40.82" fill="#231f20"/>
  <rect x="863.27" y="131.01" width="40.82" height="40.82" fill="#231f20"/>
  <rect x="906.87" y="87.66" width="40.82" height="40.82" fill="#231f20"/>
  <rect x="604.31" y="87.66" width="40.82" height="40.82" fill="#231f20"/>
  <rect x="647.28" y="87.66" width="40.82" height="40.82" fill="#231f20"/>
  <rect x="690.54" y="87.66" width="40.82" height="40.82" fill="#231f20"/>
  <rect x="733.62" y="44.4" width="40.82" height="40.82" fill="#231f20"/>
  <rect x="777.55" y="44.4" width="40.82" height="40.82" fill="#231f20"/>
  <rect x="820.86" y="44.4" width="40.82" height="40.82" fill="#231f20"/>
  <rect x="863.27" y="44.4" width="40.82" height="40.82" fill="#231f20"/>
  <rect x="906.87" y="44.4" width="40.82" height="40.82" fill="#231f20"/>
  <rect x="604.31" y="44.4" width="40.82" height="40.82" fill="#231f20"/>
  <rect x="647.28" y="44.4" width="40.82" height="40.82" fill="#231f20"/>
  <rect x="690.54" y="44.4" width="40.82" height="40.82" fill="#231f20"/>
  <rect x="733.62" y="1.53" width="40.82" height="40.82" fill="#231f20"/>
  <rect x="777.55" y="1.53" width="40.82" height="40.82" fill="#231f20"/>
  <rect x="820.86" y="1.53" width="40.82" height="40.82" fill="#231f20"/>
  <rect x="863.27" y="1.53" width="40.82" height="40.82" fill="#231f20"/>
  <rect x="906.87" y="1.53" width="40.82" height="40.82" fill="#231f20"/>
  <rect x="949.61" y="1.53" width="40.82" height="40.82" fill="#231f20"/>
  <rect x="604.31" y="1.53" width="40.82" height="40.82" fill="#231f20"/>
  <rect x="474.75" y="1.53" width="40.82" height="40.82" fill="#231f20"/>
  <rect x="647.28" y="1.53" width="40.82" height="40.82" fill="#231f20"/>
  <rect x="690.54" y="1.53" width="40.82" height="40.82" fill="#231f20"/>
  <rect x="604.31" y="260.47" width="40.82" height="40.82" fill="#231f20"/>
  <rect x="647.28" y="260.47" width="40.82" height="40.82" fill="#231f20"/>
  <rect x="475.14" y="648.66" width="40.82" height="40.82" fill="#231f20"/>
  <rect x="734.03" y="735.17" width="40.82" height="40.82" fill="#231f20"/>
  <rect x="777.24" y="735.17" width="40.82" height="40.82" fill="#231f20"/>
  <rect x="734.03" y="691.81" width="40.82" height="40.82" fill="#231f20"/>
  <rect x="777.24" y="691.81" width="40.82" height="40.82" fill="#231f20"/>
  <rect x="820.46" y="691.81" width="40.82" height="40.82" fill="#231f20"/>
  <rect x="820.46" y="648.66" width="40.82" height="40.82" fill="#231f20"/>
  <rect x="734.03" y="778.18" width="40.82" height="40.82" fill="#231f20"/>
  <rect x="777.24" y="778.18" width="40.82" height="40.82" fill="#231f20"/>
  <rect x="733.99" y="562.56" width="40.82" height="40.82" fill="#231f20"/>
  <rect x="777.2" y="562.56" width="40.82" height="40.82" fill="#231f20"/>
  <rect x="733.99" y="519.14" width="40.82" height="40.82" fill="#231f20"/>
  <rect x="690.77" y="562.56" width="40.82" height="40.82" fill="#231f20"/>
  <rect x="690.77" y="519.14" width="40.82" height="40.82" fill="#231f20"/>
  <rect x="777.2" y="519.14" width="40.82" height="40.82" fill="#231f20"/>
  <rect x="733.99" y="605.63" width="40.82" height="40.82" fill="#231f20"/>
  <rect x="777.2" y="605.63" width="40.82" height="40.82" fill="#231f20"/>
  <rect x="907.02" y="778.18" width="40.82" height="40.82" fill="#231f20"/>
  <rect x="907.02" y="735.17" width="40.82" height="40.82" fill="#231f20"/>
  <rect x="907.02" y="821.14" width="40.82" height="40.82" fill="#231f20"/>
  <rect x="431.92" y="865.08" width="40.82" height="40.82" fill="#231f20"/>
  <rect x="345.5" y="908.52" width="40.82" height="40.82" fill="#231f20"/>
  <rect x="388.71" y="908.52" width="40.82" height="40.82" fill="#231f20"/>
  <rect x="431.92" y="908.52" width="40.82" height="40.82" fill="#231f20"/>
  <rect x="345.5" y="951.23" width="40.82" height="40.82" fill="#231f20"/>
  <rect x="172.63" y="821.63" width="40.82" height="40.82" fill="#231f20"/>
  <rect x="86.28" y="821.63" width="40.82" height="40.82" fill="#231f20"/>
  <rect x="172.63" y="778.18" width="40.82" height="40.82" fill="#231f20"/>
  <rect x="172.63" y="865.08" width="40.82" height="40.82" fill="#231f20"/>
  <rect x="172.63" y="735.17" width="40.82" height="40.82" fill="#231f20"/>
  <rect x="129.45" y="691.81" width="40.82" height="40.82" fill="#231f20"/>
  <rect x="172.63" y="908.52" width="40.82" height="40.82" fill="#231f20"/>
  <rect x="172.63" y="951.23" width="40.82" height="40.82" fill="#231f20"/>
  <rect x="172.63" y="1037.64" width="40.82" height="40.82" fill="#231f20"/>
  <rect x="172.63" y="994.44" width="40.82" height="40.82" fill="#231f20"/>
  <rect x="388.71" y="951.23" width="40.82" height="40.82" fill="#231f20"/>
  <rect x="431.92" y="951.23" width="40.82" height="40.82" fill="#231f20"/>
  <rect x="475.14" y="951.23" width="40.82" height="40.82" fill="#231f20"/>
  <rect x="345.5" y="994.06" width="40.82" height="40.82" fill="#231f20"/>
  <rect x="388.71" y="994.06" width="40.82" height="40.82" fill="#231f20"/>
  <rect x="431.92" y="994.06" width="40.82" height="40.82" fill="#231f20"/>
  <rect x="475.14" y="994.06" width="40.82" height="40.82" fill="#231f20"/>
  <rect x="690.34" y="994.06" width="40.82" height="40.82" fill="#231f20"/>
  <rect x="733.56" y="994.06" width="40.82" height="40.82" fill="#231f20"/>
  <rect x="345.5" y="1036.84" width="40.82" height="40.82" fill="#231f20"/>
  <rect x="388.71" y="1036.84" width="40.82" height="40.82" fill="#231f20"/>
  <rect x="431.92" y="1036.84" width="40.82" height="40.82" fill="#231f20"/>
  <rect x="475.14" y="1036.84" width="40.82" height="40.82" fill="#231f20"/>
  <rect x="647.13" y="1036.84" width="40.82" height="40.82" fill="#231f20"/>
  <rect x="603.96" y="1036.84" width="40.82" height="40.82" fill="#231f20"/>
  <rect x="647.13" y="994.06" width="40.82" height="40.82" fill="#231f20"/>
  <rect x="604.5" y="994.06" width="40.82" height="40.82" fill="#231f20"/>
  <rect x="561.29" y="994.06" width="40.82" height="40.82" fill="#231f20"/>
  <rect x="604.5" y="951.23" width="40.82" height="40.82" fill="#231f20"/>
  <rect x="561.29" y="951.23" width="40.82" height="40.82" fill="#231f20"/>
  <rect x="690.34" y="1036.84" width="40.82" height="40.82" fill="#231f20"/>
  <rect x="733.56" y="1036.84" width="40.82" height="40.82" fill="#231f20"/>
  <rect x="776.77" y="1036.84" width="40.82" height="40.82" fill="#231f20"/>
  <rect x="316" y="835.35" width="13.39" height="13.39" fill="#231f20"/>
  <rect x="316" y="791.9" width="13.39" height="13.39" fill="#231f20"/>
  <rect x="445.64" y="791.9" width="13.39" height="13.39" fill="#231f20"/>
  <rect x="316" y="920.17" width="13.39" height="13.39" fill="#231f20"/>
  <rect x="316" y="878.24" width="13.39" height="13.39" fill="#231f20"/>
  <rect x="488.86" y="835.35" width="13.39" height="13.39" fill="#231f20"/>
  <rect x="530.29" y="835.35" width="13.39" height="13.39" fill="#231f20"/>
  <rect x="488.86" y="619.35" width="13.39" height="13.39" fill="#231f20"/>
  <rect x="445.64" y="576.28" width="13.39" height="13.39" fill="#231f20"/>
  <rect x="530.29" y="619.35" width="13.39" height="13.39" fill="#231f20"/>
  <rect x="530.29" y="662.37" width="13.39" height="13.39" fill="#231f20"/>
  <rect x="530.29" y="791.9" width="13.39" height="13.39" fill="#231f20"/>
  <rect x="530.29" y="748.89" width="13.39" height="13.39" fill="#231f20"/>
  <rect x="530.29" y="705.53" width="13.39" height="13.39" fill="#231f20"/>
  <rect x="488.86" y="920.17" width="13.39" height="13.39" fill="#231f20"/>
  <rect x="531.67" y="920.17" width="13.39" height="13.39" fill="#231f20"/>
  <rect x="574.39" y="920.17" width="13.39" height="13.39" fill="#231f20"/>
  <rect x="616.44" y="920.17" width="13.39" height="13.39" fill="#231f20"/>
  <rect x="661.88" y="964.95" width="13.39" height="13.39" fill="#231f20"/>
  <rect x="703.93" y="964.95" width="13.39" height="13.39" fill="#231f20"/>
  <rect x="747.41" y="964.95" width="13.39" height="13.39" fill="#231f20"/>
  <rect x="789.46" y="964.95" width="13.39" height="13.39" fill="#231f20"/>
  <rect x="789.46" y="1008.34" width="13.39" height="13.39" fill="#231f20"/>
  <rect x="616.44" y="878.88" width="13.39" height="13.39" fill="#231f20"/>
  <rect x="488.86" y="878.24" width="13.39" height="13.39" fill="#231f20"/>
  <rect x="531.67" y="1008.34" width="13.39" height="13.39" fill="#231f20"/>
  <rect x="531.67" y="1051.36" width="13.39" height="13.39" fill="#231f20"/>
  <rect x="575" y="1051.36" width="13.39" height="13.39" fill="#231f20"/>
  <rect x="531.67" y="966.41" width="13.39" height="13.39" fill="#231f20"/>
  <rect x="1006.72" y="705.53" width="13.39" height="13.39" fill="#231f20"/>
  <rect x="920.39" y="705.53" width="13.39" height="13.39" fill="#231f20"/>
  <rect x="963.32" y="791.9" width="13.39" height="13.39" fill="#231f20"/>
  <rect x="963.32" y="834.91" width="13.39" height="13.39" fill="#231f20"/>
  <rect x="920.74" y="878.88" width="13.39" height="13.39" fill="#231f20"/>
  <rect x="963.32" y="878.88" width="13.39" height="13.39" fill="#231f20"/>
  <rect x="1007.07" y="878.88" width="13.39" height="13.39" fill="#231f20"/>
  <rect x="1049.65" y="878.88" width="13.39" height="13.39" fill="#231f20"/>
  <rect x="746.39" y="835.35" width="13.39" height="13.39" fill="#231f20"/>
  <rect x="788.97" y="835.35" width="13.39" height="13.39" fill="#231f20"/>
  <rect x="834.17" y="835.35" width="13.39" height="13.39" fill="#231f20"/>
  <rect x="704.5" y="489.99" width="13.39" height="13.39" fill="#231f20"/>
  <rect x="747.08" y="489.99" width="13.39" height="13.39" fill="#231f20"/>
  <rect x="792.28" y="489.99" width="13.39" height="13.39" fill="#231f20"/>
  <rect x="963.32" y="748.89" width="13.39" height="13.39" fill="#231f20"/>
  <rect x="920.39" y="532.85" width="13.39" height="13.39" fill="#231f20"/>
  <rect x="920.39" y="619.35" width="13.39" height="13.39" fill="#231f20"/>
  <rect x="920.39" y="662.37" width="13.39" height="13.39" fill="#231f20"/>
  <rect x="920.39" y="576.28" width="13.39" height="13.39" fill="#231f20"/>
  <rect x="964.02" y="532.85" width="13.39" height="13.39" fill="#231f20"/>
  <rect x="964.02" y="619.35" width="13.39" height="13.39" fill="#231f20"/>
  <rect x="1007.42" y="662.37" width="13.39" height="13.39" fill="#231f20"/>
  <rect x="964.02" y="576.28" width="13.39" height="13.39" fill="#231f20"/>
  <rect x="964.02" y="445.22" width="13.39" height="13.39" fill="#231f20"/>
  <rect x="964.02" y="489.99" width="13.39" height="13.39" fill="#231f20"/>
  <rect x="834.17" y="532.85" width="13.39" height="13.39" fill="#231f20"/>
  <rect x="834.17" y="576.28" width="13.39" height="13.39" fill="#231f20"/>
  <rect x="661.72" y="532.85" width="13.39" height="13.39" fill="#231f20"/>
  <rect x="618.03" y="403.69" width="13.39" height="13.39" fill="#231f20"/>
  <rect x="575.29" y="403.69" width="13.39" height="13.39" fill="#231f20"/>
  <rect x="661.72" y="576.28" width="13.39" height="13.39" fill="#231f20"/>
  <rect x="877.46" y="662.37" width="13.39" height="13.39" fill="#231f20"/>
  <rect x="877.46" y="748.89" width="13.39" height="13.39" fill="#231f20"/>
  <rect x="834.17" y="748.89" width="13.39" height="13.39" fill="#231f20"/>
  <rect x="834.17" y="791.9" width="13.39" height="13.39" fill="#231f20"/>
  <rect x="704.49" y="791.9" width="13.39" height="13.39" fill="#231f20"/>
  <rect x="704.49" y="705.53" width="13.39" height="13.39" fill="#231f20"/>
  <rect x="704.49" y="748.89" width="13.39" height="13.39" fill="#231f20"/>
  <rect x="877.46" y="705.53" width="13.39" height="13.39" fill="#231f20"/>
  <rect x="792.71" y="662.37" width="13.39" height="13.39" fill="#231f20"/>
  <rect x="748.39" y="662.37" width="13.39" height="13.39" fill="#231f20"/>
  <rect x="704.49" y="662.37" width="13.39" height="13.39" fill="#231f20"/>
  <rect x="704.49" y="619.35" width="13.39" height="13.39" fill="#231f20"/>
  <rect x="13.72" y="705.53" width="13.39" height="13.39" fill="#231f20"/>
  <rect x="13.72" y="662.37" width="13.39" height="13.39" fill="#231f20"/>
  <rect x="13.72" y="791.9" width="13.39" height="13.39" fill="#231f20"/>
  <rect x="13.72" y="748.89" width="13.39" height="13.39" fill="#231f20"/>
  <rect x="99.99" y="576.28" width="13.39" height="13.39" fill="#231f20"/>
  <rect x="186.51" y="532.85" width="13.39" height="13.39" fill="#231f20"/>
  <rect x="359.13" y="447.24" width="13.39" height="13.39" fill="#231f20"/>
  <rect x="315.74" y="403.69" width="13.39" height="13.39" fill="#231f20"/>
  <rect x="359.13" y="489.99" width="13.39" height="13.39" fill="#231f20"/>
  <rect x="402.43" y="447.24" width="13.39" height="13.39" fill="#231f20"/>
  <rect x="402.43" y="489.99" width="13.39" height="13.39" fill="#231f20"/>
  <rect x="359.13" y="532.85" width="13.39" height="13.39" fill="#231f20"/>
  <rect x="315.14" y="576.28" width="13.39" height="13.39" fill="#231f20"/>
  <rect x="272.84" y="619.35" width="13.39" height="13.39" fill="#231f20"/>
  <rect x="272.84" y="662.37" width="13.39" height="13.39" fill="#231f20"/>
  <rect x="315.14" y="705.53" width="13.39" height="13.39" fill="#231f20"/>
  <rect x="402.43" y="532.85" width="13.39" height="13.39" fill="#231f20"/>
  <rect x="488.86" y="317.55" width="13.39" height="13.39" fill="#231f20"/>
  <rect x="488.86" y="360.56" width="13.39" height="13.39" fill="#231f20"/>
  <rect x="488.86" y="403.69" width="13.39" height="13.39" fill="#231f20"/>
  <rect x="445.51" y="144.73" width="13.39" height="13.39" fill="#231f20"/>
  <rect x="445.51" y="187.83" width="13.39" height="13.39" fill="#231f20"/>
  <rect x="488.73" y="101.38" width="13.39" height="13.39" fill="#231f20"/>
  <rect x="488.73" y="144.73" width="13.39" height="13.39" fill="#231f20"/>
  <rect x="445.51" y="231.01" width="13.39" height="13.39" fill="#231f20"/>
  <rect x="358.78" y="187.83" width="13.39" height="13.39" fill="#231f20"/>
  <rect x="358.78" y="101.38" width="13.39" height="13.39" fill="#231f20"/>
  <rect x="358.78" y="144.73" width="13.39" height="13.39" fill="#231f20"/>
  <rect x="358.78" y="317.55" width="13.39" height="13.39" fill="#231f20"/>
  <rect x="358.78" y="360.56" width="13.39" height="13.39" fill="#231f20"/>
  <rect x="358.78" y="231.01" width="13.39" height="13.39" fill="#231f20"/>
  <rect x="358.78" y="274.19" width="13.39" height="13.39" fill="#231f20"/>
  <rect x="272.94" y="317.55" width="13.39" height="13.39" fill="#231f20"/>
  <rect x="272.94" y="360.56" width="13.39" height="13.39" fill="#231f20"/>
  <rect x="272.94" y="231.01" width="13.39" height="13.39" fill="#231f20"/>
  <rect x="272.94" y="274.19" width="13.39" height="13.39" fill="#231f20"/>
  <rect x="272.94" y="101.38" width="13.39" height="13.39" fill="#231f20"/>
  <rect x="272.94" y="144.73" width="13.39" height="13.39" fill="#231f20"/>
  <rect x="58.89" y="58.12" width="13.39" height="13.39" fill="#231f20"/>
  <rect x="58.89" y="15.26" width="13.39" height="13.39" fill="#231f20"/>
  <rect x="58.89" y="101.38" width="13.39" height="13.39" fill="#231f20"/>
  <rect x="13.37" y="101.38" width="13.39" height="13.39" fill="#231f20"/>
  <rect x="186.51" y="360.56" width="13.39" height="13.39" fill="#231f20"/>
  <rect x="186.51" y="403.69" width="13.39" height="13.39" fill="#231f20"/>
  <rect x="186.51" y="317.55" width="13.39" height="13.39" fill="#231f20"/>
  <rect x="99.55" y="360.56" width="13.39" height="13.39" fill="#231f20"/>
  <rect x="99.55" y="403.69" width="13.39" height="13.39" fill="#231f20"/>
  <rect x="99.55" y="317.55" width="13.39" height="13.39" fill="#231f20"/>
  <rect x="531.21" y="317.55" width="13.39" height="13.39" fill="#231f20"/>
  <rect x="531.21" y="274.19" width="13.39" height="13.39" fill="#231f20"/>
  <rect x="574.46" y="274.19" width="13.39" height="13.39" fill="#231f20"/>
  <rect x="531.21" y="360.56" width="13.39" height="13.39" fill="#231f20"/>
  <rect x="531.21" y="187.83" width="13.39" height="13.39" fill="#231f20"/>
  <rect x="531.21" y="144.73" width="13.39" height="13.39" fill="#231f20"/>
  <rect x="531.21" y="231.01" width="13.39" height="13.39" fill="#231f20"/>
  <rect x="531.21" y="403.69" width="13.39" height="13.39" fill="#231f20"/>
  <rect x="876.98" y="187.83" width="13.39" height="13.39" fill="#231f20"/>
  <rect x="834.58" y="187.83" width="13.39" height="13.39" fill="#231f20"/>
  <rect x="964.97" y="144.73" width="13.39" height="13.39" fill="#231f20"/>
  <rect x="964.97" y="101.38" width="13.39" height="13.39" fill="#231f20"/>
  <rect x="964.97" y="58.12" width="13.39" height="13.39" fill="#231f20"/>
  <rect x="920.59" y="144.73" width="13.39" height="13.39" fill="#231f20"/>
  <rect x="1049.97" y="15.26" width="13.39" height="13.39" fill="#231f20"/>
  <rect x="1006.75" y="15.26" width="13.39" height="13.39" fill="#231f20"/>
  <rect x="791.27" y="144.73" width="13.39" height="13.39" fill="#231f20"/>
  <rect x="747.33" y="274.19" width="13.39" height="13.39" fill="#231f20"/>
  <rect x="747.33" y="231.01" width="13.39" height="13.39" fill="#231f20"/>
  <rect x="703.02" y="274.19" width="13.39" height="13.39" fill="#231f20"/>
  <rect x="188.26" y="274.19" width="13.39" height="13.39" fill="#231f20"/>
  <rect x="99.55" y="274.19" width="13.39" height="13.39" fill="#231f20"/>
  <rect x="144.19" y="274.19" width="13.39" height="13.39" fill="#231f20"/>
  <rect x="488.86" y="447.24" width="13.39" height="13.39" fill="#231f20"/>
  <rect x="531.21" y="447.24" width="13.39" height="13.39" fill="#231f20"/>
  <rect x="13.72" y="576.28" width="13.39" height="13.39" fill="#231f20"/>
  <rect x="13.72" y="532.85" width="13.39" height="13.39" fill="#231f20"/>
  <rect x="99.99" y="662.37" width="13.39" height="13.39" fill="#231f20"/>
  <rect x="99.99" y="619.35" width="13.39" height="13.39" fill="#231f20"/>
  <rect x="57.8" y="619.35" width="13.39" height="13.39" fill="#231f20"/>
  <rect x="57.8" y="662.37" width="13.39" height="13.39" fill="#231f20"/>
  <rect x="13.72" y="876.72" width="13.39" height="13.39" fill="#231f20"/>
  <rect x="13.72" y="834.79" width="13.39" height="13.39" fill="#231f20"/>
  <rect x="13.72" y="964.31" width="13.39" height="13.39" fill="#231f20"/>
  <rect x="13.72" y="1051.25" width="13.39" height="13.39" fill="#231f20"/>
  <rect x="13.72" y="1009.32" width="13.39" height="13.39" fill="#231f20"/>
  <rect x="229.89" y="920.81" width="13.39" height="13.39" fill="#231f20"/>
  <rect x="229.89" y="965.59" width="13.39" height="13.39" fill="#231f20"/>
  <rect x="142.8" y="1051.36" width="13.39" height="13.39" fill="#231f20"/>
  <rect x="142.8" y="1008.15" width="13.39" height="13.39" fill="#231f20"/>
  <rect x="99.99" y="878.24" width="13.39" height="13.39" fill="#231f20"/>
  <rect x="56.86" y="878.24" width="13.39" height="13.39" fill="#231f20"/>
  <rect x="99.99" y="791.9" width="13.39" height="13.39" fill="#231f20"/>
  <rect x="272.27" y="965.59" width="13.39" height="13.39" fill="#231f20"/>
  <rect x="229.89" y="878.88" width="13.39" height="13.39" fill="#231f20"/>
</svg>