<?xml version="1.0" encoding="UTF-8"?>
<svg id="_15" data-name="15" xmlns="http://www.w3.org/2000/svg" viewBox="0 0 1080 1080">
  <rect x="908.24" y="216.53" width="40.84" height="40.84" transform="translate(1165.62 -691.71) rotate(90)" fill="#231f20"/>
  <rect x="692.25" y=".37" width="40.84" height="40.84" transform="translate(733.47 -691.88) rotate(90)" fill="#231f20"/>
  <rect x="951.99" y="43.75" width="40.84" height="40.84" transform="translate(1036.59 -908.24) rotate(90)" fill="#231f20"/>
  <rect x="879.11" y="187.46" width="13.39" height="13.39" transform="translate(1079.96 -691.65) rotate(90)" fill="#231f20"/>
  <rect x="879.11" y="144.11" width="13.39" height="13.39" transform="translate(1036.61 -735) rotate(90)" fill="#231f20"/>
  <rect x="879.11" y="101.99" width="13.39" height="13.39" transform="translate(994.49 -777.12) rotate(90)" fill="#231f20"/>
  <rect x="921.06" y="58.25" width="13.39" height="13.39" transform="translate(992.71 -862.81) rotate(90)" fill="#231f20"/>
  <rect x="1010.37" y="59.6" width="13.39" height="13.39" transform="translate(1083.36 -950.77) rotate(90)" fill="#231f20"/>
  <rect x="1010.37" y="15.86" width="13.39" height="13.39" transform="translate(1039.62 -994.51) rotate(90)" fill="#231f20"/>
  <rect x="1053.04" y="15.86" width="13.39" height="13.39" transform="translate(1082.29 -1037.18) rotate(90)" fill="#231f20"/>
  <rect x="1010.37" y="144.11" width="13.39" height="13.39" transform="translate(1167.87 -866.26) rotate(90)" fill="#231f20"/>
  <rect x="1055.02" y="144.11" width="13.39" height="13.39" transform="translate(1212.52 -910.91) rotate(90)" fill="#231f20"/>
  <rect x="1055.02" y="187.46" width="13.39" height="13.39" transform="translate(1255.87 -867.56) rotate(90)" fill="#231f20"/>
  <rect x="965.72" y="230.26" width="13.39" height="13.39" transform="translate(1209.37 -735.46) rotate(90)" fill="#231f20"/>
  <rect x="965.72" y="274.11" width="13.39" height="13.39" transform="translate(1253.22 -691.61) rotate(90)" fill="#231f20"/>
  <rect x="1010.37" y="274.11" width="13.39" height="13.39" transform="translate(1297.87 -736.26) rotate(90)" fill="#231f20"/>
  <rect x="1010.37" y="318.93" width="13.39" height="13.39" transform="translate(1342.69 -691.44) rotate(90)" fill="#231f20"/>
  <rect x="965.72" y="187.46" width="13.39" height="13.39" transform="translate(1166.57 -778.26) rotate(90)" fill="#231f20"/>
  <rect x="923.76" y="187.46" width="13.39" height="13.39" transform="translate(1124.61 -736.3) rotate(90)" fill="#231f20"/>
  <rect x="1010.37" y="101.99" width="13.39" height="13.39" transform="translate(1125.75 -908.38) rotate(90)" fill="#231f20"/>
  <rect x="965.72" y="15.86" width="13.39" height="13.39" transform="translate(994.97 -949.86) rotate(90)" fill="#231f20"/>
  <rect x="880.11" y="58.25" width="13.39" height="13.39" transform="translate(951.76 -821.86) rotate(90)" fill="#231f20"/>
  <rect x="880.11" y="15.86" width="13.39" height="13.39" transform="translate(909.37 -864.26) rotate(90)" fill="#231f20"/>
  <rect x="837.16" y="144.11" width="13.39" height="13.39" transform="translate(994.66 -693.05) rotate(90)" fill="#231f20"/>
  <rect x="837.16" y="101.99" width="13.39" height="13.39" transform="translate(952.54 -735.17) rotate(90)" fill="#231f20"/>
  <rect x="794.2" y="100.17" width="13.39" height="13.39" transform="translate(907.76 -694.03) rotate(90)" fill="#231f20"/>
  <rect x="794.2" y="59.6" width="13.39" height="13.39" transform="translate(867.19 -734.6) rotate(90)" fill="#231f20"/>
  <rect x="748.43" y="187.46" width="13.39" height="13.39" transform="translate(949.28 -560.97) rotate(90)" fill="#231f20"/>
  <rect x="748.43" y="228.83" width="13.39" height="13.39" transform="translate(990.65 -519.6) rotate(90)" fill="#231f20"/>
  <rect x="748.43" y="144.11" width="13.39" height="13.39" transform="translate(905.93 -604.32) rotate(90)" fill="#231f20"/>
  <rect x="794.2" y="228.83" width="13.39" height="13.39" transform="translate(1036.42 -565.37) rotate(90)" fill="#231f20"/>
  <rect x="794.2" y="187.46" width="13.39" height="13.39" transform="translate(995.05 -606.74) rotate(90)" fill="#231f20"/>
  <rect x="794.2" y="315.26" width="13.39" height="13.39" transform="translate(1122.85 -478.94) rotate(90)" fill="#231f20"/>
  <rect x="794.2" y="274.69" width="13.39" height="13.39" transform="translate(1082.28 -519.51) rotate(90)" fill="#231f20"/>
  <rect x="749.82" y="361.72" width="13.39" height="13.39" transform="translate(1124.93 -388.1) rotate(90)" fill="#231f20"/>
  <rect x="794.2" y="361.72" width="13.39" height="13.39" transform="translate(1169.31 -432.48) rotate(90)" fill="#231f20"/>
  <rect x="839.09" y="361.72" width="13.39" height="13.39" transform="translate(1214.2 -477.37) rotate(90)" fill="#231f20"/>
  <rect x="879.11" y="401.35" width="13.39" height="13.39" transform="translate(1293.85 -477.76) rotate(90)" fill="#231f20"/>
  <rect x="879.11" y="447.8" width="13.39" height="13.39" transform="translate(1340.31 -431.31) rotate(90)" fill="#231f20"/>
  <rect x="923.46" y="401.35" width="13.39" height="13.39" transform="translate(1338.2 -522.12) rotate(90)" fill="#231f20"/>
  <rect x="923.46" y="447.8" width="13.39" height="13.39" transform="translate(1384.66 -475.66) rotate(90)" fill="#231f20"/>
  <rect x="923.46" y="530.95" width="13.39" height="13.39" transform="translate(1467.8 -392.52) rotate(90)" fill="#231f20"/>
  <rect x="923.46" y="577.4" width="13.39" height="13.39" transform="translate(1514.26 -346.06) rotate(90)" fill="#231f20"/>
  <rect x="923.46" y="617.52" width="13.39" height="13.39" transform="translate(1554.38 -305.94) rotate(90)" fill="#231f20"/>
  <rect x="1006.48" y="530.95" width="13.39" height="13.39" transform="translate(1550.82 -475.53) rotate(90)" fill="#231f20"/>
  <rect x="1052.46" y="530.95" width="13.39" height="13.39" transform="translate(1596.8 -521.52) rotate(90)" fill="#231f20"/>
  <rect x="964.52" y="530.95" width="13.39" height="13.39" transform="translate(1508.86 -433.58) rotate(90)" fill="#231f20"/>
  <rect x="964.52" y="489.37" width="13.39" height="13.39" transform="translate(1467.29 -475.15) rotate(90)" fill="#231f20"/>
  <rect x="964.52" y="447.8" width="13.39" height="13.39" transform="translate(1425.72 -516.72) rotate(90)" fill="#231f20"/>
  <rect x="1006.48" y="447.8" width="13.39" height="13.39" transform="translate(1467.67 -558.67) rotate(90)" fill="#231f20"/>
  <rect x="1052.46" y="401.35" width="13.39" height="13.39" transform="translate(1467.2 -651.12) rotate(90)" fill="#231f20"/>
  <rect x="1052.46" y="447.8" width="13.39" height="13.39" transform="translate(1513.66 -604.66) rotate(90)" fill="#231f20"/>
  <rect x="1006.48" y="401.35" width="13.39" height="13.39" transform="translate(1421.22 -605.13) rotate(90)" fill="#231f20"/>
  <rect x="965.72" y="359.82" width="13.39" height="13.39" transform="translate(1338.93 -605.9) rotate(90)" fill="#231f20"/>
  <rect x="965.72" y="317.96" width="13.39" height="13.39" transform="translate(1297.07 -647.76) rotate(90)" fill="#231f20"/>
  <rect x="1006.48" y="577.4" width="13.39" height="13.39" transform="translate(1597.27 -429.07) rotate(90)" fill="#231f20"/>
  <rect x="1052.46" y="577.4" width="13.39" height="13.39" transform="translate(1643.26 -475.06) rotate(90)" fill="#231f20"/>
  <rect x="1006.48" y="617.35" width="13.39" height="13.39" transform="translate(1637.22 -389.13) rotate(90)" fill="#231f20"/>
  <rect x="964.97" y="617.35" width="13.39" height="13.39" transform="translate(1595.71 -347.62) rotate(90)" fill="#231f20"/>
  <rect x="964.97" y="705.78" width="13.39" height="13.39" transform="translate(1684.15 -259.18) rotate(90)" fill="#231f20"/>
  <rect x="1006.48" y="663.8" width="13.39" height="13.39" transform="translate(1683.67 -342.67) rotate(90)" fill="#231f20"/>
  <rect x="1006.48" y="705.78" width="13.39" height="13.39" transform="translate(1725.65 -300.69) rotate(90)" fill="#231f20"/>
  <rect x="1006.48" y="747.77" width="13.39" height="13.39" transform="translate(1767.64 -258.71) rotate(90)" fill="#231f20"/>
  <rect x="1052.46" y="747.77" width="13.39" height="13.39" transform="translate(1813.63 -304.7) rotate(90)" fill="#231f20"/>
  <rect x="1052.46" y="705.78" width="13.39" height="13.39" transform="translate(1771.64 -346.68) rotate(90)" fill="#231f20"/>
  <rect x="1006.48" y="792.38" width="13.39" height="13.39" transform="translate(1812.25 -214.09) rotate(90)" fill="#231f20"/>
  <rect x="1006.48" y="834.37" width="13.39" height="13.39" transform="translate(1854.23 -172.11) rotate(90)" fill="#231f20"/>
  <rect x="1052.46" y="834.37" width="13.39" height="13.39" transform="translate(1900.22 -218.1) rotate(90)" fill="#231f20"/>
  <rect x="1052.46" y="792.38" width="13.39" height="13.39" transform="translate(1858.24 -260.08) rotate(90)" fill="#231f20"/>
  <rect x="1006.48" y="879.65" width="13.39" height="13.39" transform="translate(1899.52 -126.83) rotate(90)" fill="#231f20"/>
  <rect x="1006.48" y="921.63" width="13.39" height="13.39" transform="translate(1941.5 -84.84) rotate(90)" fill="#231f20"/>
  <rect x="964.52" y="879.65" width="13.39" height="13.39" transform="translate(1857.56 -84.87) rotate(90)" fill="#231f20"/>
  <rect x="923.46" y="879.65" width="13.39" height="13.39" transform="translate(1816.51 -43.81) rotate(90)" fill="#231f20"/>
  <rect x="964.52" y="921.63" width="13.39" height="13.39" transform="translate(1899.55 -42.89) rotate(90)" fill="#231f20"/>
  <rect x="1052.46" y="921.63" width="13.39" height="13.39" transform="translate(1987.49 -130.83) rotate(90)" fill="#231f20"/>
  <rect x="1052.46" y="879.65" width="13.39" height="13.39" transform="translate(1945.51 -172.81) rotate(90)" fill="#231f20"/>
  <rect x="1052.46" y="964.89" width="13.39" height="13.39" transform="translate(2030.75 -87.57) rotate(90)" fill="#231f20"/>
  <rect x="1006.48" y="964.89" width="13.39" height="13.39" transform="translate(1984.76 -41.58) rotate(90)" fill="#231f20"/>
  <rect x="1052.46" y="1052.16" width="13.39" height="13.39" transform="translate(2118.02 -.3) rotate(90)" fill="#231f20"/>
  <rect x="1052.46" y="1010.18" width="13.39" height="13.39" transform="translate(2076.04 -42.29) rotate(90)" fill="#231f20"/>
  <rect x="794.2" y="487.43" width="13.39" height="13.39" transform="translate(1295.02 -306.77) rotate(90)" fill="#231f20"/>
  <rect x="749.82" y="446.85" width="13.39" height="13.39" transform="translate(1210.07 -302.97) rotate(90)" fill="#231f20"/>
  <rect x="749.82" y="487.43" width="13.39" height="13.39" transform="translate(1250.65 -262.39) rotate(90)" fill="#231f20"/>
  <rect x="794.2" y="532.57" width="13.39" height="13.39" transform="translate(1340.16 -261.62) rotate(90)" fill="#231f20"/>
  <rect x="749.82" y="532.57" width="13.39" height="13.39" transform="translate(1295.79 -217.25) rotate(90)" fill="#231f20"/>
  <rect x="837.34" y="574.95" width="13.39" height="13.39" transform="translate(1425.69 -262.39) rotate(90)" fill="#231f20"/>
  <rect x="792.97" y="574.95" width="13.39" height="13.39" transform="translate(1381.32 -218.01) rotate(90)" fill="#231f20"/>
  <rect x="663.53" y="361.72" width="13.39" height="13.39" transform="translate(1038.64 -301.81) rotate(90)" fill="#231f20"/>
  <rect x="663.53" y="404.29" width="13.39" height="13.39" transform="translate(1081.21 -259.24) rotate(90)" fill="#231f20"/>
  <rect x="706.67" y="361.72" width="13.39" height="13.39" transform="translate(1081.79 -344.96) rotate(90)" fill="#231f20"/>
  <rect x="706.67" y="228.83" width="13.39" height="13.39" transform="translate(948.9 -477.85) rotate(90)" fill="#231f20"/>
  <rect x="749.82" y="404.29" width="13.39" height="13.39" transform="translate(1167.5 -345.54) rotate(90)" fill="#231f20"/>
  <rect x="663.53" y="446.85" width="13.39" height="13.39" transform="translate(1123.78 -216.67) rotate(90)" fill="#231f20"/>
  <rect x="663.53" y="489.42" width="13.39" height="13.39" transform="translate(1166.34 -174.1) rotate(90)" fill="#231f20"/>
  <rect x="663.53" y="532.38" width="13.39" height="13.39" transform="translate(1209.31 -131.14) rotate(90)" fill="#231f20"/>
  <rect x="663.53" y="574.95" width="13.39" height="13.39" transform="translate(1251.87 -88.57) rotate(90)" fill="#231f20"/>
  <rect x="663.53" y="617.52" width="13.39" height="13.39" transform="translate(1294.44 -46) rotate(90)" fill="#231f20"/>
  <rect x="706.67" y="663.1" width="13.39" height="13.39" transform="translate(1383.17 -43.58) rotate(90)" fill="#231f20"/>
  <rect x="663.53" y="663.1" width="13.39" height="13.39" transform="translate(1340.02 -.43) rotate(90)" fill="#231f20"/>
  <rect x="620.38" y="663.1" width="13.39" height="13.39" transform="translate(1296.87 42.72) rotate(90)" fill="#231f20"/>
  <rect x="620.38" y="705.78" width="13.39" height="13.39" transform="translate(1339.56 85.41) rotate(90)" fill="#231f20"/>
  <rect x="577.08" y="705.78" width="13.39" height="13.39" transform="translate(1296.26 128.7) rotate(90)" fill="#231f20"/>
  <rect x="577.08" y="746.82" width="13.39" height="13.39" transform="translate(1337.29 169.74) rotate(90)" fill="#231f20"/>
  <rect x="577.08" y="793.53" width="13.39" height="13.39" transform="translate(1384 216.45) rotate(90)" fill="#231f20"/>
  <rect x="533.94" y="793.53" width="13.39" height="13.39" transform="translate(1340.86 259.59) rotate(90)" fill="#231f20"/>
  <rect x="533.94" y="746.82" width="13.39" height="13.39" transform="translate(1294.15 212.88) rotate(90)" fill="#231f20"/>
  <rect x="706.67" y="617.52" width="13.39" height="13.39" transform="translate(1337.59 -89.15) rotate(90)" fill="#231f20"/>
  <rect x="748.43" y="617.52" width="13.39" height="13.39" transform="translate(1379.35 -130.91) rotate(90)" fill="#231f20"/>
  <rect x="748.43" y="577.4" width="13.39" height="13.39" transform="translate(1339.23 -171.03) rotate(90)" fill="#231f20"/>
  <rect x="706.67" y="751.36" width="13.39" height="13.39" transform="translate(1471.43 44.69) rotate(90)" fill="#231f20"/>
  <rect x="706.67" y="705.78" width="13.39" height="13.39" transform="translate(1425.85 -.89) rotate(90)" fill="#231f20"/>
  <rect x="749.82" y="836.16" width="13.39" height="13.39" transform="translate(1599.38 86.34) rotate(90)" fill="#231f20"/>
  <rect x="749.82" y="790.59" width="13.39" height="13.39" transform="translate(1553.8 40.76) rotate(90)" fill="#231f20"/>
  <rect x="706.67" y="881.74" width="13.39" height="13.39" transform="translate(1601.81 175.06) rotate(90)" fill="#231f20"/>
  <rect x="706.67" y="836.16" width="13.39" height="13.39" transform="translate(1556.23 129.49) rotate(90)" fill="#231f20"/>
  <rect x="663.53" y="922.22" width="13.39" height="13.39" transform="translate(1599.14 258.7) rotate(90)" fill="#231f20"/>
  <rect x="620.38" y="922.22" width="13.39" height="13.39" transform="translate(1556 301.84) rotate(90)" fill="#231f20"/>
  <rect x="663.53" y="881.74" width="13.39" height="13.39" transform="translate(1558.66 218.21) rotate(90)" fill="#231f20"/>
  <rect x="663.53" y="1006.42" width="13.39" height="13.39" transform="translate(1683.34 342.89) rotate(90)" fill="#231f20"/>
  <rect x="620.38" y="1006.42" width="13.39" height="13.39" transform="translate(1640.19 386.04) rotate(90)" fill="#231f20"/>
  <rect x="620.38" y="1052.8" width="13.39" height="13.39" transform="translate(1686.57 432.42) rotate(90)" fill="#231f20"/>
  <rect x="663.53" y="965.93" width="13.39" height="13.39" transform="translate(1642.85 302.4) rotate(90)" fill="#231f20"/>
  <rect x="620.38" y="965.93" width="13.39" height="13.39" transform="translate(1599.7 345.55) rotate(90)" fill="#231f20"/>
  <rect x="749.82" y="751.36" width="13.39" height="13.39" transform="translate(1514.58 1.54) rotate(90)" fill="#231f20"/>
  <rect x="749.82" y="1050.73" width="13.39" height="13.39" transform="translate(1813.95 300.91) rotate(90)" fill="#231f20"/>
  <rect x="749.82" y="1005.16" width="13.39" height="13.39" transform="translate(1768.37 255.34) rotate(90)" fill="#231f20"/>
  <rect x="749.82" y="965.93" width="13.39" height="13.39" transform="translate(1729.15 216.11) rotate(90)" fill="#231f20"/>
  <rect x="792.97" y="1050.73" width="13.39" height="13.39" transform="translate(1857.1 257.76) rotate(90)" fill="#231f20"/>
  <rect x="792.97" y="1005.16" width="13.39" height="13.39" transform="translate(1811.52 212.19) rotate(90)" fill="#231f20"/>
  <rect x="879.26" y="1050.73" width="13.39" height="13.39" transform="translate(1943.39 171.47) rotate(90)" fill="#231f20"/>
  <rect x="879.26" y="1005.16" width="13.39" height="13.39" transform="translate(1897.81 125.89) rotate(90)" fill="#231f20"/>
  <rect x="879.26" y="922.22" width="13.39" height="13.39" transform="translate(1814.88 42.96) rotate(90)" fill="#231f20"/>
  <rect x="879.26" y="879.55" width="13.39" height="13.39" transform="translate(1772.21 .29) rotate(90)" fill="#231f20"/>
  <rect x="879.26" y="836.16" width="13.39" height="13.39" transform="translate(1728.82 -43.1) rotate(90)" fill="#231f20"/>
  <rect x="879.26" y="792.77" width="13.39" height="13.39" transform="translate(1685.43 -86.49) rotate(90)" fill="#231f20"/>
  <rect x="922.41" y="792.77" width="13.39" height="13.39" transform="translate(1728.58 -129.64) rotate(90)" fill="#231f20"/>
  <rect x="879.26" y="751.36" width="13.39" height="13.39" transform="translate(1644.02 -127.9) rotate(90)" fill="#231f20"/>
  <rect x="792.97" y="965.93" width="13.39" height="13.39" transform="translate(1772.29 172.96) rotate(90)" fill="#231f20"/>
  <rect x="792.97" y="922.22" width="13.39" height="13.39" transform="translate(1728.59 129.25) rotate(90)" fill="#231f20"/>
  <rect x="836.12" y="965.93" width="13.39" height="13.39" transform="translate(1815.44 129.82) rotate(90)" fill="#231f20"/>
  <rect x="836.12" y="922.22" width="13.39" height="13.39" transform="translate(1771.73 86.11) rotate(90)" fill="#231f20"/>
  <rect x="835.64" y="705.78" width="13.39" height="13.39" transform="translate(1554.81 -129.85) rotate(90)" fill="#231f20"/>
  <rect x="792.97" y="705.78" width="13.39" height="13.39" transform="translate(1512.15 -87.18) rotate(90)" fill="#231f20"/>
  <rect x="878.78" y="705.78" width="13.39" height="13.39" transform="translate(1597.96 -173) rotate(90)" fill="#231f20"/>
  <rect x="923.46" y="705.78" width="13.39" height="13.39" transform="translate(1642.64 -217.68) rotate(90)" fill="#231f20"/>
  <rect x="878.78" y="574.95" width="13.39" height="13.39" transform="translate(1467.13 -303.83) rotate(90)" fill="#231f20"/>
  <rect x="706.67" y="489.42" width="13.39" height="13.39" transform="translate(1209.49 -217.25) rotate(90)" fill="#231f20"/>
  <rect x="794.2" y="14.58" width="13.39" height="13.39" transform="translate(822.17 -779.62) rotate(90)" fill="#231f20"/>
  <rect x="748.43" y="56.97" width="13.39" height="13.39" transform="translate(818.79 -691.46) rotate(90)" fill="#231f20"/>
  <rect x="663.53" y="56.97" width="13.39" height="13.39" transform="translate(733.89 -606.56) rotate(90)" fill="#231f20"/>
  <rect x="748.43" y="14.58" width="13.39" height="13.39" transform="translate(776.4 -733.85) rotate(90)" fill="#231f20"/>
  <rect x="663.53" y="14.58" width="13.39" height="13.39" transform="translate(691.5 -648.95) rotate(90)" fill="#231f20"/>
  <rect x="620.85" y="56.97" width="13.39" height="13.39" transform="translate(691.22 -563.88) rotate(90)" fill="#231f20"/>
  <rect x="576.15" y="56.97" width="13.39" height="13.39" transform="translate(646.51 -519.17) rotate(90)" fill="#231f20"/>
  <rect x="533.47" y="56.97" width="13.39" height="13.39" transform="translate(603.84 -476.5) rotate(90)" fill="#231f20"/>
  <rect x="620.85" y="14.58" width="13.39" height="13.39" transform="translate(648.83 -606.28) rotate(90)" fill="#231f20"/>
  <rect x="620.85" y="144.11" width="13.39" height="13.39" transform="translate(778.36 -476.75) rotate(90)" fill="#231f20"/>
  <rect x="620.85" y="100.98" width="13.39" height="13.39" transform="translate(735.23 -519.88) rotate(90)" fill="#231f20"/>
  <rect x="620.85" y="228.83" width="13.39" height="13.39" transform="translate(863.08 -392.03) rotate(90)" fill="#231f20"/>
  <rect x="620.85" y="187.46" width="13.39" height="13.39" transform="translate(821.71 -433.4) rotate(90)" fill="#231f20"/>
  <rect x="490.8" y="144.11" width="13.39" height="13.39" transform="translate(648.3 -346.69) rotate(90)" fill="#231f20"/>
  <rect x="448.93" y="144.11" width="13.39" height="13.39" transform="translate(606.43 -304.82) rotate(90)" fill="#231f20"/>
  <rect x="448.93" y="100.98" width="13.39" height="13.39" transform="translate(563.3 -347.95) rotate(90)" fill="#231f20"/>
  <rect x="403.87" y="56.97" width="13.39" height="13.39" transform="translate(474.24 -346.9) rotate(90)" fill="#231f20"/>
  <rect x="531.6" y="144.11" width="13.39" height="13.39" transform="translate(689.1 -387.49) rotate(90)" fill="#231f20"/>
  <rect x="576.23" y="144.11" width="13.39" height="13.39" transform="translate(733.73 -432.12) rotate(90)" fill="#231f20"/>
  <rect x="531.6" y="228.83" width="13.39" height="13.39" transform="translate(773.82 -302.77) rotate(90)" fill="#231f20"/>
  <rect x="490.8" y="228.83" width="13.39" height="13.39" transform="translate(733.02 -261.97) rotate(90)" fill="#231f20"/>
  <rect x="576.23" y="228.83" width="13.39" height="13.39" transform="translate(818.45 -347.4) rotate(90)" fill="#231f20"/>
  <rect x="490.8" y="100.98" width="13.39" height="13.39" transform="translate(605.17 -389.82) rotate(90)" fill="#231f20"/>
  <rect x="490.8" y="56.97" width="13.39" height="13.39" transform="translate(561.17 -433.83) rotate(90)" fill="#231f20"/>
  <rect x="359.97" y="100.98" width="13.39" height="13.39" transform="translate(474.34 -258.99) rotate(90)" fill="#231f20"/>
  <rect x="359.97" y="56.97" width="13.39" height="13.39" transform="translate(430.34 -303) rotate(90)" fill="#231f20"/>
  <rect x="316.94" y="100.98" width="13.39" height="13.39" transform="translate(431.31 -215.96) rotate(90)" fill="#231f20"/>
  <rect x="316.94" y="56.97" width="13.39" height="13.39" transform="translate(387.3 -259.97) rotate(90)" fill="#231f20"/>
  <rect x="316.94" y="14.58" width="13.39" height="13.39" transform="translate(344.91 -302.36) rotate(90)" fill="#231f20"/>
  <rect x="490.8" y="14.58" width="13.39" height="13.39" transform="translate(518.77 -476.22) rotate(90)" fill="#231f20"/>
  <rect x="445.49" y="14.58" width="13.39" height="13.39" transform="translate(473.46 -430.92) rotate(90)" fill="#231f20"/>
  <rect x="404.61" y="14.58" width="13.39" height="13.39" transform="translate(432.59 -390.04) rotate(90)" fill="#231f20"/>
  <rect x="359.97" y="14.58" width="13.39" height="13.39" transform="translate(387.94 -345.39) rotate(90)" fill="#231f20"/>
  <rect x="490.8" y="187.46" width="13.39" height="13.39" transform="translate(691.65 -303.35) rotate(90)" fill="#231f20"/>
  <rect x="448.93" y="228.83" width="13.39" height="13.39" transform="translate(691.15 -220.1) rotate(90)" fill="#231f20"/>
  <rect x="402.5" y="228.83" width="13.39" height="13.39" transform="translate(644.72 -173.67) rotate(90)" fill="#231f20"/>
  <rect x="359.97" y="228.83" width="13.39" height="13.39" transform="translate(602.19 -131.14) rotate(90)" fill="#231f20"/>
  <rect x="448.93" y="274.58" width="13.39" height="13.39" transform="translate(736.91 -174.35) rotate(90)" fill="#231f20"/>
  <rect x="448.93" y="187.46" width="13.39" height="13.39" transform="translate(649.78 -261.47) rotate(90)" fill="#231f20"/>
  <rect x="402.5" y="144.11" width="13.39" height="13.39" transform="translate(560 -258.39) rotate(90)" fill="#231f20"/>
  <rect x="360.62" y="144.11" width="13.39" height="13.39" transform="translate(518.13 -216.52) rotate(90)" fill="#231f20"/>
  <rect x="316.27" y="144.11" width="13.39" height="13.39" transform="translate(473.77 -172.16) rotate(90)" fill="#231f20"/>
  <rect x="360.62" y="187.46" width="13.39" height="13.39" transform="translate(561.48 -173.17) rotate(90)" fill="#231f20"/>
  <rect x="316.27" y="187.46" width="13.39" height="13.39" transform="translate(517.12 -128.81) rotate(90)" fill="#231f20"/>
  <rect x="316.27" y="228.83" width="13.39" height="13.39" transform="translate(558.49 -87.44) rotate(90)" fill="#231f20"/>
  <rect x="274.39" y="144.11" width="13.39" height="13.39" transform="translate(431.9 -130.29) rotate(90)" fill="#231f20"/>
  <rect x="232.52" y="144.11" width="13.39" height="13.39" transform="translate(390.02 -88.41) rotate(90)" fill="#231f20"/>
  <rect x="274.39" y="187.46" width="13.39" height="13.39" transform="translate(475.25 -86.94) rotate(90)" fill="#231f20"/>
  <rect x="232.52" y="187.46" width="13.39" height="13.39" transform="translate(433.37 -45.07) rotate(90)" fill="#231f20"/>
  <rect x="101.5" y="57.3" width="13.39" height="13.39" transform="translate(172.19 -44.2) rotate(90)" fill="#231f20"/>
  <rect x="101.5" y="100.65" width="13.39" height="13.39" transform="translate(215.54 -.85) rotate(90)" fill="#231f20"/>
  <rect x="101.5" y="143.7" width="13.39" height="13.39" transform="translate(258.59 42.2) rotate(90)" fill="#231f20"/>
  <rect x="101.5" y="187.05" width="13.39" height="13.39" transform="translate(301.94 85.55) rotate(90)" fill="#231f20"/>
  <rect x="15.44" y="57.3" width="13.39" height="13.39" transform="translate(86.13 41.86) rotate(90)" fill="#231f20"/>
  <rect x="15.44" y="100.65" width="13.39" height="13.39" transform="translate(129.48 85.21) rotate(90)" fill="#231f20"/>
  <rect x="58.47" y="13.62" width="13.39" height="13.39" transform="translate(85.48 -44.84) rotate(90)" fill="#231f20"/>
  <rect x="58.47" y="56.97" width="13.39" height="13.39" transform="translate(128.83 -1.49) rotate(90)" fill="#231f20"/>
  <rect x="274.39" y="273.74" width="13.39" height="13.39" transform="translate(561.53 -.65) rotate(90)" fill="#231f20"/>
  <rect x="232.52" y="273.74" width="13.39" height="13.39" transform="translate(519.66 41.22) rotate(90)" fill="#231f20"/>
  <rect x="187.2" y="230.81" width="13.39" height="13.39" transform="translate(431.4 43.61) rotate(90)" fill="#231f20"/>
  <rect x="144.53" y="230.81" width="13.39" height="13.39" transform="translate(388.73 86.28) rotate(90)" fill="#231f20"/>
  <rect x="101.86" y="230.81" width="13.39" height="13.39" transform="translate(346.06 128.95) rotate(90)" fill="#231f20"/>
  <rect x="15.07" y="318.65" width="13.39" height="13.39" transform="translate(347.12 303.58) rotate(90)" fill="#231f20"/>
  <rect x="15.07" y="362" width="13.39" height="13.39" transform="translate(390.47 346.93) rotate(90)" fill="#231f20"/>
  <rect x="15.07" y="405.05" width="13.39" height="13.39" transform="translate(433.52 389.98) rotate(90)" fill="#231f20"/>
  <rect x="15.07" y="448.4" width="13.39" height="13.39" transform="translate(476.87 433.33) rotate(90)" fill="#231f20"/>
  <rect x="15.44" y="492.16" width="13.39" height="13.39" transform="translate(520.99 476.72) rotate(90)" fill="#231f20"/>
  <rect x="58.29" y="491.75" width="13.39" height="13.39" transform="translate(563.43 433.47) rotate(90)" fill="#231f20"/>
  <rect x="58.29" y="535.1" width="13.39" height="13.39" transform="translate(606.78 476.81) rotate(90)" fill="#231f20"/>
  <rect x="58.65" y="578.86" width="13.39" height="13.39" transform="translate(650.9 520.21) rotate(90)" fill="#231f20"/>
  <rect x="101.32" y="578.45" width="13.39" height="13.39" transform="translate(693.16 477.13) rotate(90)" fill="#231f20"/>
  <rect x="101.68" y="622.21" width="13.39" height="13.39" transform="translate(737.28 520.53) rotate(90)" fill="#231f20"/>
  <rect x="144.35" y="578.45" width="13.39" height="13.39" transform="translate(736.19 434.1) rotate(90)" fill="#231f20"/>
  <rect x="144.71" y="622.21" width="13.39" height="13.39" transform="translate(780.31 477.5) rotate(90)" fill="#231f20"/>
  <rect x="144.35" y="661.9" width="13.39" height="13.39" transform="translate(819.64 517.55) rotate(90)" fill="#231f20"/>
  <rect x="187.56" y="578.45" width="13.39" height="13.39" transform="translate(779.4 390.89) rotate(90)" fill="#231f20"/>
  <rect x="187.92" y="622.21" width="13.39" height="13.39" transform="translate(823.52 434.29) rotate(90)" fill="#231f20"/>
  <rect x="187.56" y="661.9" width="13.39" height="13.39" transform="translate(862.85 474.34) rotate(90)" fill="#231f20"/>
  <rect x="231.13" y="450.03" width="13.39" height="13.39" transform="translate(694.55 218.9) rotate(90)" fill="#231f20"/>
  <rect x="231.13" y="403.13" width="13.39" height="13.39" transform="translate(647.65 172) rotate(90)" fill="#231f20"/>
  <rect x="144.71" y="450.03" width="13.39" height="13.39" transform="translate(608.13 305.32) rotate(90)" fill="#231f20"/>
  <rect x="144.71" y="403.13" width="13.39" height="13.39" transform="translate(561.23 258.42) rotate(90)" fill="#231f20"/>
  <rect x="187.2" y="450.03" width="13.39" height="13.39" transform="translate(650.62 262.83) rotate(90)" fill="#231f20"/>
  <rect x="187.2" y="403.13" width="13.39" height="13.39" transform="translate(603.72 215.93) rotate(90)" fill="#231f20"/>
  <rect x="231.49" y="493.78" width="13.39" height="13.39" transform="translate(738.67 262.3) rotate(90)" fill="#231f20"/>
  <rect x="231.13" y="533.47" width="13.39" height="13.39" transform="translate(778 302.35) rotate(90)" fill="#231f20"/>
  <rect x="274.21" y="359.37" width="13.39" height="13.39" transform="translate(646.98 85.16) rotate(90)" fill="#231f20"/>
  <rect x="274.21" y="316.56" width="13.39" height="13.39" transform="translate(604.16 42.34) rotate(90)" fill="#231f20"/>
  <rect x="232.52" y="316.56" width="13.39" height="13.39" transform="translate(562.47 84.03) rotate(90)" fill="#231f20"/>
  <rect x="274.57" y="403.13" width="13.39" height="13.39" transform="translate(691.1 128.55) rotate(90)" fill="#231f20"/>
  <rect x="274.21" y="442.82" width="13.39" height="13.39" transform="translate(730.43 168.6) rotate(90)" fill="#231f20"/>
  <rect x="231.13" y="578.45" width="13.39" height="13.39" transform="translate(822.97 347.32) rotate(90)" fill="#231f20"/>
  <rect x="316.94" y="533.47" width="13.39" height="13.39" transform="translate(863.81 216.53) rotate(90)" fill="#231f20"/>
  <rect x="316.94" y="578.45" width="13.39" height="13.39" transform="translate(908.78 261.51) rotate(90)" fill="#231f20"/>
  <rect x="231.49" y="622.21" width="13.39" height="13.39" transform="translate(867.09 390.72) rotate(90)" fill="#231f20"/>
  <rect x="231.13" y="661.9" width="13.39" height="13.39" transform="translate(906.42 430.77) rotate(90)" fill="#231f20"/>
  <rect x="274.39" y="622.21" width="13.39" height="13.39" transform="translate(909.99 347.81) rotate(90)" fill="#231f20"/>
  <rect x="274.03" y="661.9" width="13.39" height="13.39" transform="translate(949.32 387.86) rotate(90)" fill="#231f20"/>
  <rect x="318.38" y="707.13" width="13.39" height="13.39" transform="translate(1038.9 388.75) rotate(90)" fill="#231f20"/>
  <rect x="274.21" y="707.13" width="13.39" height="13.39" transform="translate(994.74 432.91) rotate(90)" fill="#231f20"/>
  <rect x="318.02" y="746.82" width="13.39" height="13.39" transform="translate(1078.23 428.8) rotate(90)" fill="#231f20"/>
  <rect x="362.91" y="707.13" width="13.39" height="13.39" transform="translate(1083.43 344.22) rotate(90)" fill="#231f20"/>
  <rect x="362.91" y="660.42" width="13.39" height="13.39" transform="translate(1036.72 297.51) rotate(90)" fill="#231f20"/>
  <rect x="362.55" y="746.82" width="13.39" height="13.39" transform="translate(1122.76 384.27) rotate(90)" fill="#231f20"/>
  <rect x="362.91" y="534.33" width="13.39" height="13.39" transform="translate(910.63 171.42) rotate(90)" fill="#231f20"/>
  <rect x="362.55" y="574.02" width="13.39" height="13.39" transform="translate(949.96 211.47) rotate(90)" fill="#231f20"/>
  <rect x="404.06" y="707.13" width="13.39" height="13.39" transform="translate(1124.58 303.07) rotate(90)" fill="#231f20"/>
  <rect x="403.7" y="746.82" width="13.39" height="13.39" transform="translate(1163.91 343.12) rotate(90)" fill="#231f20"/>
  <rect x="404.06" y="620.73" width="13.39" height="13.39" transform="translate(1038.18 216.67) rotate(90)" fill="#231f20"/>
  <rect x="448.84" y="620.73" width="13.39" height="13.39" transform="translate(1082.96 171.89) rotate(90)" fill="#231f20"/>
  <rect x="448.84" y="660.42" width="13.39" height="13.39" transform="translate(1122.65 211.58) rotate(90)" fill="#231f20"/>
  <rect x="490.8" y="620.73" width="13.39" height="13.39" transform="translate(1124.92 129.93) rotate(90)" fill="#231f20"/>
  <rect x="490.8" y="660.42" width="13.39" height="13.39" transform="translate(1164.61 169.62) rotate(90)" fill="#231f20"/>
  <rect x="533.21" y="620.73" width="13.39" height="13.39" transform="translate(1167.33 87.52) rotate(90)" fill="#231f20"/>
  <rect x="533.21" y="660.42" width="13.39" height="13.39" transform="translate(1207.02 127.21) rotate(90)" fill="#231f20"/>
  <rect x="533.21" y="535.26" width="13.39" height="13.39" transform="translate(1081.87 2.05) rotate(90)" fill="#231f20"/>
  <rect x="533.21" y="574.95" width="13.39" height="13.39" transform="translate(1121.56 41.74) rotate(90)" fill="#231f20"/>
  <rect x="490.8" y="707.13" width="13.39" height="13.39" transform="translate(1211.32 216.33) rotate(90)" fill="#231f20"/>
  <rect x="490.8" y="746.82" width="13.39" height="13.39" transform="translate(1251.01 256.02) rotate(90)" fill="#231f20"/>
  <rect x="490.8" y="793.53" width="13.39" height="13.39" transform="translate(1297.72 302.73) rotate(90)" fill="#231f20"/>
  <rect x="490.8" y="833.22" width="13.39" height="13.39" transform="translate(1337.41 342.42) rotate(90)" fill="#231f20"/>
  <rect x="490.8" y="879.93" width="13.39" height="13.39" transform="translate(1384.12 389.13) rotate(90)" fill="#231f20"/>
  <rect x="490.8" y="919.62" width="13.39" height="13.39" transform="translate(1423.81 428.82) rotate(90)" fill="#231f20"/>
  <rect x="490.8" y="965.59" width="13.39" height="13.39" transform="translate(1469.78 474.78) rotate(90)" fill="#231f20"/>
  <rect x="490.8" y="1009.44" width="13.39" height="13.39" transform="translate(1513.64 518.64) rotate(90)" fill="#231f20"/>
  <rect x="490.8" y="1052.19" width="13.39" height="13.39" transform="translate(1556.39 561.39) rotate(90)" fill="#231f20"/>
  <rect x="403.7" y="660.42" width="13.39" height="13.39" transform="translate(1077.51 256.72) rotate(90)" fill="#231f20"/>
  <rect x="404.06" y="534.33" width="13.39" height="13.39" transform="translate(951.78 130.27) rotate(90)" fill="#231f20"/>
  <rect x="403.7" y="574.02" width="13.39" height="13.39" transform="translate(991.11 170.32) rotate(90)" fill="#231f20"/>
  <rect x="404.06" y="447.93" width="13.39" height="13.39" transform="translate(865.38 43.87) rotate(90)" fill="#231f20"/>
  <rect x="448.93" y="447.93" width="13.39" height="13.39" transform="translate(910.25 -1) rotate(90)" fill="#231f20"/>
  <rect x="403.7" y="487.62" width="13.39" height="13.39" transform="translate(904.71 83.92) rotate(90)" fill="#231f20"/>
  <rect x="318.38" y="793.53" width="13.39" height="13.39" transform="translate(1125.3 475.15) rotate(90)" fill="#231f20"/>
  <rect x="318.02" y="833.22" width="13.39" height="13.39" transform="translate(1164.63 515.2) rotate(90)" fill="#231f20"/>
  <rect x="275.06" y="833.22" width="13.39" height="13.39" transform="translate(1121.67 558.16) rotate(90)" fill="#231f20"/>
  <rect x="318.38" y="879.93" width="13.39" height="13.39" transform="translate(1211.7 561.55) rotate(90)" fill="#231f20"/>
  <rect x="318.02" y="919.62" width="13.39" height="13.39" transform="translate(1251.03 601.6) rotate(90)" fill="#231f20"/>
  <rect x="362.86" y="965.59" width="13.39" height="13.39" transform="translate(1341.84 602.73) rotate(90)" fill="#231f20"/>
  <rect x="406.93" y="965.59" width="13.39" height="13.39" transform="translate(1385.91 558.65) rotate(90)" fill="#231f20"/>
  <rect x="448.44" y="965.59" width="13.39" height="13.39" transform="translate(1427.42 517.14) rotate(90)" fill="#231f20"/>
  <rect x="361.71" y="1008.35" width="13.39" height="13.39" transform="translate(1383.45 646.64) rotate(90)" fill="#231f20"/>
  <rect x="361.71" y="1051.02" width="13.39" height="13.39" transform="translate(1426.12 689.32) rotate(90)" fill="#231f20"/>
  <rect x="274.39" y="919.62" width="13.39" height="13.39" transform="translate(1207.41 645.22) rotate(90)" fill="#231f20"/>
  <rect x="144.71" y="705.65" width="13.39" height="13.39" transform="translate(863.75 560.95) rotate(90)" fill="#231f20"/>
  <rect x="101.5" y="661.9" width="13.39" height="13.39" transform="translate(776.79 560.4) rotate(90)" fill="#231f20"/>
  <rect x="101.86" y="705.65" width="13.39" height="13.39" transform="translate(820.9 603.8) rotate(90)" fill="#231f20"/>
  <rect x="101.5" y="749.41" width="13.39" height="13.39" transform="translate(864.3 647.91) rotate(90)" fill="#231f20"/>
  <rect x="101.86" y="793.17" width="13.39" height="13.39" transform="translate(908.42 691.31) rotate(90)" fill="#231f20"/>
  <rect x="58.47" y="749.41" width="13.39" height="13.39" transform="translate(821.27 690.94) rotate(90)" fill="#231f20"/>
  <rect x="58.83" y="793.17" width="13.39" height="13.39" transform="translate(865.39 734.34) rotate(90)" fill="#231f20"/>
  <rect x="58.47" y="836.92" width="13.39" height="13.39" transform="translate(908.78 778.46) rotate(90)" fill="#231f20"/>
  <rect x="58.83" y="880.68" width="13.39" height="13.39" transform="translate(952.9 821.85) rotate(90)" fill="#231f20"/>
  <rect x="58.47" y="921.57" width="13.39" height="13.39" transform="translate(993.43 863.1) rotate(90)" fill="#231f20"/>
  <rect x="58.83" y="965.32" width="13.39" height="13.39" transform="translate(1037.54 906.5) rotate(90)" fill="#231f20"/>
  <rect x="145.25" y="923.26" width="13.39" height="13.39" transform="translate(1081.91 778.02) rotate(90)" fill="#231f20"/>
  <rect x="144.89" y="964.15" width="13.39" height="13.39" transform="translate(1122.43 819.26) rotate(90)" fill="#231f20"/>
  <rect x="187.92" y="1007.91" width="13.39" height="13.39" transform="translate(1209.22 819.99) rotate(90)" fill="#231f20"/>
  <rect x="187.92" y="964.15" width="13.39" height="13.39" transform="translate(1165.46 776.23) rotate(90)" fill="#231f20"/>
  <rect x="187.92" y="877.19" width="13.39" height="13.39" transform="translate(1078.51 689.27) rotate(90)" fill="#231f20"/>
  <rect x="187.92" y="834.71" width="13.39" height="13.39" transform="translate(1036.02 646.79) rotate(90)" fill="#231f20"/>
  <rect x="187.92" y="791.68" width="13.39" height="13.39" transform="translate(992.99 603.76) rotate(90)" fill="#231f20"/>
  <rect x="144.35" y="791.68" width="13.39" height="13.39" transform="translate(949.42 647.33) rotate(90)" fill="#231f20"/>
  <rect x="145.25" y="1051.28" width="13.39" height="13.39" transform="translate(1209.92 906.03) rotate(90)" fill="#231f20"/>
  <rect x="187.92" y="1051.28" width="13.39" height="13.39" transform="translate(1252.59 863.36) rotate(90)" fill="#231f20"/>
  <rect x="101.14" y="1011.55" width="13.39" height="13.39" transform="translate(1126.08 910.42) rotate(90)" fill="#231f20"/>
  <rect x="101.5" y="1051.28" width="13.39" height="13.39" transform="translate(1166.17 949.78) rotate(90)" fill="#231f20"/>
  <rect x="15.07" y="836.92" width="13.39" height="13.39" transform="translate(865.39 821.85) rotate(90)" fill="#231f20"/>
  <rect x="15.44" y="880.68" width="13.39" height="13.39" transform="translate(909.51 865.25) rotate(90)" fill="#231f20"/>
  <rect x="59.19" y="230.81" width="13.39" height="13.39" transform="translate(303.39 171.62) rotate(90)" fill="#231f20"/>
  <rect x="15.44" y="230.81" width="13.39" height="13.39" transform="translate(259.63 215.37) rotate(90)" fill="#231f20"/>
  <rect x="274.39" y="14.58" width="13.39" height="13.39" transform="translate(302.37 -259.82) rotate(90)" fill="#231f20"/>
  <rect x="274.39" y="56.97" width="13.39" height="13.39" transform="translate(344.76 -217.42) rotate(90)" fill="#231f20"/>
  <rect x="232.52" y="14.58" width="13.39" height="13.39" transform="translate(260.49 -217.94) rotate(90)" fill="#231f20"/>
  <rect x="490.8" y="316.98" width="13.39" height="13.39" transform="translate(821.17 -173.82) rotate(90)" fill="#231f20"/>
  <rect x="448.93" y="316.98" width="13.39" height="13.39" transform="translate(779.3 -131.95) rotate(90)" fill="#231f20"/>
  <rect x="490.8" y="401.76" width="13.39" height="13.39" transform="translate(905.96 -89.04) rotate(90)" fill="#231f20"/>
  <rect x="490.8" y="274.58" width="13.39" height="13.39" transform="translate(778.78 -216.22) rotate(90)" fill="#231f20"/>
  <rect x="316.94" y="273.74" width="13.39" height="13.39" transform="translate(604.07 -43.2) rotate(90)" fill="#231f20"/>
  <rect x="359.97" y="273.74" width="13.39" height="13.39" transform="translate(647.11 -86.23) rotate(90)" fill="#231f20"/>
  <rect x="359.97" y="316.56" width="13.39" height="13.39" transform="translate(689.92 -43.41) rotate(90)" fill="#231f20"/>
  <rect x="404.06" y="361.24" width="13.39" height="13.39" transform="translate(778.69 -42.82) rotate(90)" fill="#231f20"/>
  <rect x="404.06" y="401.76" width="13.39" height="13.39" transform="translate(819.22 -2.29) rotate(90)" fill="#231f20"/>
  <rect x="490.8" y="359.37" width="13.39" height="13.39" transform="translate(863.57 -131.43) rotate(90)" fill="#231f20"/>
  <rect x="448.93" y="401.76" width="13.39" height="13.39" transform="translate(864.09 -47.16) rotate(90)" fill="#231f20"/>
  <rect x="448.93" y="359.37" width="13.39" height="13.39" transform="translate(821.69 -89.56) rotate(90)" fill="#231f20"/>
  <rect x="620.85" y="314.56" width="13.39" height="13.39" transform="translate(948.81 -306.3) rotate(90)" fill="#231f20"/>
  <rect x="620.85" y="272.16" width="13.39" height="13.39" transform="translate(906.41 -348.69) rotate(90)" fill="#231f20"/>
  <rect x="576.23" y="272.16" width="13.39" height="13.39" transform="translate(861.79 -304.06) rotate(90)" fill="#231f20"/>
  <rect x="576.23" y="314.56" width="13.39" height="13.39" transform="translate(904.18 -261.67) rotate(90)" fill="#231f20"/>
  <rect x="620.85" y="361.72" width="13.39" height="13.39" transform="translate(995.97 -259.14) rotate(90)" fill="#231f20"/>
  <rect x="576.23" y="361.72" width="13.39" height="13.39" transform="translate(951.34 -214.51) rotate(90)" fill="#231f20"/>
  <rect x="620.85" y="404.29" width="13.39" height="13.39" transform="translate(1038.53 -216.57) rotate(90)" fill="#231f20"/>
  <rect x="576.23" y="404.29" width="13.39" height="13.39" transform="translate(993.91 -171.94) rotate(90)" fill="#231f20"/>
  <rect x="576.23" y="442.57" width="13.39" height="13.39" transform="translate(1032.19 -133.66) rotate(90)" fill="#231f20"/>
  <rect x="533.21" y="361.72" width="13.39" height="13.39" transform="translate(908.32 -171.49) rotate(90)" fill="#231f20"/>
  <rect x="533.21" y="404.29" width="13.39" height="13.39" transform="translate(950.89 -128.92) rotate(90)" fill="#231f20"/>
  <rect x="533.21" y="442.57" width="13.39" height="13.39" transform="translate(989.17 -90.64) rotate(90)" fill="#231f20"/>
  <rect x="576.23" y="489.73" width="13.39" height="13.39" transform="translate(1079.35 -86.5) rotate(90)" fill="#231f20"/>
  <rect x="576.23" y="532.29" width="13.39" height="13.39" transform="translate(1121.91 -43.93) rotate(90)" fill="#231f20"/>
  <rect x="663.53" y="228.83" width="13.39" height="13.39" transform="translate(905.75 -434.7) rotate(90)" fill="#231f20"/>
  <rect x="663.53" y="187.46" width="13.39" height="13.39" transform="translate(864.38 -476.07) rotate(90)" fill="#231f20"/>
  <rect x="705.98" y="187.46" width="13.39" height="13.39" transform="translate(906.83 -518.52) rotate(90)" fill="#231f20"/>
  <rect x="663.53" y="314.56" width="13.39" height="13.39" transform="translate(991.48 -348.97) rotate(90)" fill="#231f20"/>
  <rect x="663.53" y="272.16" width="13.39" height="13.39" transform="translate(949.09 -391.36) rotate(90)" fill="#231f20"/>
  <rect x="663.53" y="144.11" width="13.39" height="13.39" transform="translate(821.03 -519.42) rotate(90)" fill="#231f20"/>
  <rect x="663.53" y="100.98" width="13.39" height="13.39" transform="translate(777.9 -562.55) rotate(90)" fill="#231f20"/>
</svg>