<?xml version="1.0" encoding="UTF-8"?>
<svg id="_16" data-name="16" xmlns="http://www.w3.org/2000/svg" viewBox="0 0 1080 1080">
  <rect x="735.68" y="994.97" width="40.83" height="40.83" fill="#231f20"/>
  <rect x="692.16" y="994.97" width="40.83" height="40.83" fill="#231f20"/>
  <rect x="649.43" y="994.97" width="40.83" height="40.83" fill="#231f20"/>
  <rect x="735.68" y="951.58" width="40.83" height="40.83" fill="#231f20"/>
  <rect x="692.16" y="951.58" width="40.83" height="40.83" fill="#231f20"/>
  <rect x="562.53" y="347.25" width="40.83" height="40.83" fill="#231f20"/>
  <rect x="562.53" y="390.54" width="40.83" height="40.83" fill="#231f20"/>
  <rect x="822.04" y="390.54" width="40.83" height="40.83" fill="#231f20"/>
  <rect x="822.04" y="347.25" width="40.83" height="40.83" fill="#231f20"/>
  <rect x="822.04" y="303.96" width="40.83" height="40.83" fill="#231f20"/>
  <rect x="735.58" y="174.52" width="40.83" height="40.83" fill="#231f20"/>
  <rect x="735.58" y="131.23" width="40.83" height="40.83" fill="#231f20"/>
  <rect x="735.58" y="87.87" width="40.83" height="40.83" fill="#231f20"/>
  <rect x="735.58" y="217.72" width="40.83" height="40.83" fill="#231f20"/>
  <rect x="779.08" y="174.43" width="40.83" height="40.83" fill="#231f20"/>
  <rect x="779.08" y="217.64" width="40.83" height="40.83" fill="#231f20"/>
  <rect x="822.57" y="174.52" width="40.83" height="40.83" fill="#231f20"/>
  <rect x="822.57" y="217.72" width="40.83" height="40.83" fill="#231f20"/>
  <rect x="865.39" y="174.43" width="40.83" height="40.83" fill="#231f20"/>
  <rect x="865.39" y="217.64" width="40.83" height="40.83" fill="#231f20"/>
  <rect x="735.58" y="260.88" width="40.83" height="40.83" fill="#231f20"/>
  <rect x="692.24" y="260.88" width="40.83" height="40.83" fill="#231f20"/>
  <rect x="779.08" y="260.8" width="40.83" height="40.83" fill="#231f20"/>
  <rect x="822.57" y="260.88" width="40.83" height="40.83" fill="#231f20"/>
  <rect x="865.39" y="260.8" width="40.83" height="40.83" fill="#231f20"/>
  <rect x="908.64" y="174.43" width="40.83" height="40.83" fill="#231f20"/>
  <rect x="908.64" y="217.64" width="40.83" height="40.83" fill="#231f20"/>
  <rect x="908.64" y="260.8" width="40.83" height="40.83" fill="#231f20"/>
  <rect x="952.03" y="174.52" width="40.83" height="40.83" fill="#231f20"/>
  <rect x="952.03" y="217.72" width="40.83" height="40.83" fill="#231f20"/>
  <rect x="994.85" y="174.43" width="40.83" height="40.83" fill="#231f20"/>
  <rect x="994.85" y="217.64" width="40.83" height="40.83" fill="#231f20"/>
  <rect x="952.03" y="260.88" width="40.83" height="40.83" fill="#231f20"/>
  <rect x="994.85" y="260.8" width="40.83" height="40.83" fill="#231f20"/>
  <rect x="44.74" y="260.88" width="40.83" height="40.83" fill="#231f20"/>
  <rect x="1.39" y="260.88" width="40.83" height="40.83" fill="#231f20"/>
  <rect x="88.23" y="260.8" width="40.83" height="40.83" fill="#231f20"/>
  <rect x="131.73" y="260.88" width="40.83" height="40.83" fill="#231f20"/>
  <rect x="44.74" y="217.47" width="40.83" height="40.83" fill="#231f20"/>
  <rect x="1.39" y="217.47" width="40.83" height="40.83" fill="#231f20"/>
  <rect x="88.23" y="217.39" width="40.83" height="40.83" fill="#231f20"/>
  <rect x="131.73" y="217.47" width="40.83" height="40.83" fill="#231f20"/>
  <rect x="44.74" y="173.99" width="40.83" height="40.83" fill="#231f20"/>
  <rect x="1.39" y="173.99" width="40.83" height="40.83" fill="#231f20"/>
  <rect x="88.23" y="173.9" width="40.83" height="40.83" fill="#231f20"/>
  <rect x="131.73" y="173.99" width="40.83" height="40.83" fill="#231f20"/>
  <rect x="174.55" y="260.8" width="40.83" height="40.83" fill="#231f20"/>
  <rect x="217.79" y="260.8" width="40.83" height="40.83" fill="#231f20"/>
  <rect x="261.19" y="260.88" width="40.83" height="40.83" fill="#231f20"/>
  <rect x="304.01" y="260.8" width="40.83" height="40.83" fill="#231f20"/>
  <rect x="303.51" y="217.68" width="40.83" height="40.83" fill="#231f20"/>
  <rect x="346.9" y="217.76" width="40.83" height="40.83" fill="#231f20"/>
  <rect x="389.72" y="217.68" width="40.83" height="40.83" fill="#231f20"/>
  <rect x="174.51" y="217.35" width="40.83" height="40.83" fill="#231f20"/>
  <rect x="217.9" y="217.43" width="40.83" height="40.83" fill="#231f20"/>
  <rect x="174.51" y="173.99" width="40.83" height="40.83" fill="#231f20"/>
  <rect x="217.37" y="173.99" width="40.83" height="40.83" fill="#231f20"/>
  <rect x="476.79" y="174.98" width="40.83" height="40.83" fill="#231f20"/>
  <rect x="476.9" y="131.61" width="40.83" height="40.83" fill="#231f20"/>
  <rect x="476.37" y="88.17" width="40.83" height="40.83" fill="#231f20"/>
  <rect x="476.79" y="44.74" width="40.83" height="40.83" fill="#231f20"/>
  <rect x="476.9" y="1.37" width="40.83" height="40.83" fill="#231f20"/>
  <rect x="346.9" y="260.88" width="40.83" height="40.83" fill="#231f20"/>
  <rect x="389.82" y="260.88" width="40.83" height="40.83" fill="#231f20"/>
  <rect x="260.72" y="217.35" width="40.83" height="40.83" fill="#231f20"/>
  <rect x="1038.1" y="174.43" width="40.83" height="40.83" fill="#231f20"/>
  <rect x="1038.1" y="131.23" width="40.83" height="40.83" fill="#231f20"/>
  <rect x="994.85" y="131.23" width="40.83" height="40.83" fill="#231f20"/>
  <rect x="994.85" y="87.83" width="40.83" height="40.83" fill="#231f20"/>
  <rect x="1038.1" y="87.83" width="40.83" height="40.83" fill="#231f20"/>
  <rect x="1038.1" y="44.63" width="40.83" height="40.83" fill="#231f20"/>
  <rect x="994.85" y="44.63" width="40.83" height="40.83" fill="#231f20"/>
  <rect x="1038.1" y="1.33" width="40.83" height="40.83" fill="#231f20"/>
  <rect x="994.85" y="1.33" width="40.83" height="40.83" fill="#231f20"/>
  <rect x="908.21" y="87.83" width="40.83" height="40.83" fill="#231f20"/>
  <rect x="951.46" y="87.83" width="40.83" height="40.83" fill="#231f20"/>
  <rect x="951.46" y="44.63" width="40.83" height="40.83" fill="#231f20"/>
  <rect x="908.21" y="44.63" width="40.83" height="40.83" fill="#231f20"/>
  <rect x="951.46" y="1.33" width="40.83" height="40.83" fill="#231f20"/>
  <rect x="908.21" y="1.33" width="40.83" height="40.83" fill="#231f20"/>
  <rect x="865.38" y="1.33" width="40.83" height="40.83" fill="#231f20"/>
  <rect x="822.13" y="1.33" width="40.83" height="40.83" fill="#231f20"/>
  <rect x="778.74" y="1.33" width="40.83" height="40.83" fill="#231f20"/>
  <rect x="735.49" y="1.33" width="40.83" height="40.83" fill="#231f20"/>
  <rect x="562.53" y="1.33" width="40.83" height="40.83" fill="#231f20"/>
  <rect x="1038.1" y="217.64" width="40.83" height="40.83" fill="#231f20"/>
  <rect x="1038.1" y="260.8" width="40.83" height="40.83" fill="#231f20"/>
  <rect x="864.79" y="390.54" width="40.83" height="40.83" fill="#231f20"/>
  <rect x="864.79" y="347.25" width="40.83" height="40.83" fill="#231f20"/>
  <rect x="908.64" y="390.54" width="40.83" height="40.83" fill="#231f20"/>
  <rect x="908.64" y="347.25" width="40.83" height="40.83" fill="#231f20"/>
  <rect x="951.38" y="390.54" width="40.83" height="40.83" fill="#231f20"/>
  <rect x="951.38" y="347.25" width="40.83" height="40.83" fill="#231f20"/>
  <rect x="994.13" y="347.25" width="40.83" height="40.83" fill="#231f20"/>
  <rect x="822.04" y="433.84" width="40.83" height="40.83" fill="#231f20"/>
  <rect x="606.09" y="347.25" width="40.83" height="40.83" fill="#231f20"/>
  <rect x="606.09" y="303.96" width="40.83" height="40.83" fill="#231f20"/>
  <rect x="649.16" y="303.96" width="40.83" height="40.83" fill="#231f20"/>
  <rect x="605.91" y="994.97" width="40.83" height="40.83" fill="#231f20"/>
  <rect x="735.68" y="1037.62" width="40.83" height="40.83" fill="#231f20"/>
  <rect x="779.2" y="994.97" width="40.83" height="40.83" fill="#231f20"/>
  <rect x="779.2" y="951.58" width="40.83" height="40.83" fill="#231f20"/>
  <rect x="779.2" y="1037.62" width="40.83" height="40.83" fill="#231f20"/>
  <rect x="692.16" y="1037.62" width="40.83" height="40.83" fill="#231f20"/>
  <rect x="649.43" y="1037.62" width="40.83" height="40.83" fill="#231f20"/>
  <rect x="605.91" y="1037.62" width="40.83" height="40.83" fill="#231f20"/>
  <rect x="562.39" y="994.97" width="40.83" height="40.83" fill="#231f20"/>
  <rect x="794.08" y="922.96" width="13.39" height="13.39" fill="#231f20"/>
  <rect x="619.63" y="965.3" width="13.39" height="13.39" fill="#231f20"/>
  <rect x="576.11" y="1051.34" width="13.39" height="13.39" fill="#231f20"/>
  <rect x="576.11" y="965.3" width="13.39" height="13.39" fill="#231f20"/>
  <rect x="794.08" y="879.22" width="13.39" height="13.39" fill="#231f20"/>
  <rect x="794.08" y="835.48" width="13.39" height="13.39" fill="#231f20"/>
  <rect x="794.08" y="791.74" width="13.39" height="13.39" fill="#231f20"/>
  <rect x="794.08" y="748" width="13.39" height="13.39" fill="#231f20"/>
  <rect x="794.08" y="704.26" width="13.39" height="13.39" fill="#231f20"/>
  <rect x="794.08" y="664.36" width="13.39" height="13.39" fill="#231f20"/>
  <rect x="794.08" y="620.62" width="13.39" height="13.39" fill="#231f20"/>
  <rect x="794.08" y="576.88" width="13.39" height="13.39" fill="#231f20"/>
  <rect x="794.08" y="533.14" width="13.39" height="13.39" fill="#231f20"/>
  <rect x="836.57" y="577.43" width="13.39" height="13.39" fill="#231f20"/>
  <rect x="836.57" y="533.69" width="13.39" height="13.39" fill="#231f20"/>
  <rect x="836.57" y="489.95" width="13.39" height="13.39" fill="#231f20"/>
  <rect x="879.99" y="447.78" width="13.39" height="13.39" fill="#231f20"/>
  <rect x="922.36" y="447.78" width="13.39" height="13.39" fill="#231f20"/>
  <rect x="879.99" y="317.69" width="13.39" height="13.39" fill="#231f20"/>
  <rect x="749.3" y="317.69" width="13.39" height="13.39" fill="#231f20"/>
  <rect x="922.36" y="317.69" width="13.39" height="13.39" fill="#231f20"/>
  <rect x="1008.78" y="317.69" width="13.39" height="13.39" fill="#231f20"/>
  <rect x="964.55" y="317.69" width="13.39" height="13.39" fill="#231f20"/>
  <rect x="1051.15" y="317.69" width="13.39" height="13.39" fill="#231f20"/>
  <rect x="1051.15" y="360.75" width="13.39" height="13.39" fill="#231f20"/>
  <rect x="794.08" y="489.95" width="13.39" height="13.39" fill="#231f20"/>
  <rect x="792.8" y="446.21" width="13.39" height="13.39" fill="#231f20"/>
  <rect x="792.8" y="402.47" width="13.39" height="13.39" fill="#231f20"/>
  <rect x="792.8" y="360.08" width="13.39" height="13.39" fill="#231f20"/>
  <rect x="792.8" y="317.69" width="13.39" height="13.39" fill="#231f20"/>
  <rect x="533.41" y="489.95" width="13.39" height="13.39" fill="#231f20"/>
  <rect x="490.58" y="489.95" width="13.39" height="13.39" fill="#231f20"/>
  <rect x="489.87" y="533.69" width="13.39" height="13.39" fill="#231f20"/>
  <rect x="533.41" y="404.27" width="13.39" height="13.39" fill="#231f20"/>
  <rect x="533.41" y="362.32" width="13.39" height="13.39" fill="#231f20"/>
  <rect x="533.41" y="317.69" width="13.39" height="13.39" fill="#231f20"/>
  <rect x="576.25" y="317.69" width="13.39" height="13.39" fill="#231f20"/>
  <rect x="533.41" y="446.21" width="13.39" height="13.39" fill="#231f20"/>
  <rect x="489.87" y="446.21" width="13.39" height="13.39" fill="#231f20"/>
  <rect x="447.38" y="533.69" width="13.39" height="13.39" fill="#231f20"/>
  <rect x="359.71" y="620.53" width="13.39" height="13.39" fill="#231f20"/>
  <rect x="359.71" y="662.48" width="13.39" height="13.39" fill="#231f20"/>
  <rect x="317.1" y="707.11" width="13.39" height="13.39" fill="#231f20"/>
  <rect x="359.71" y="707.11" width="13.39" height="13.39" fill="#231f20"/>
  <rect x="359.71" y="492.01" width="13.39" height="13.39" fill="#231f20"/>
  <rect x="359.71" y="533.95" width="13.39" height="13.39" fill="#231f20"/>
  <rect x="403.55" y="533.95" width="13.39" height="13.39" fill="#231f20"/>
  <rect x="403.55" y="492.01" width="13.39" height="13.39" fill="#231f20"/>
  <rect x="359.71" y="578.59" width="13.39" height="13.39" fill="#231f20"/>
  <rect x="359.71" y="446.21" width="13.39" height="13.39" fill="#231f20"/>
  <rect x="402.31" y="446.21" width="13.39" height="13.39" fill="#231f20"/>
  <rect x="359.71" y="317.69" width="13.39" height="13.39" fill="#231f20"/>
  <rect x="359.71" y="187.81" width="13.39" height="13.39" fill="#231f20"/>
  <rect x="403.44" y="187.81" width="13.39" height="13.39" fill="#231f20"/>
  <rect x="274.94" y="187.81" width="13.39" height="13.39" fill="#231f20"/>
  <rect x="318.68" y="187.81" width="13.39" height="13.39" fill="#231f20"/>
  <rect x="359.71" y="145.34" width="13.39" height="13.39" fill="#231f20"/>
  <rect x="403.44" y="145.34" width="13.39" height="13.39" fill="#231f20"/>
  <rect x="274.94" y="145.34" width="13.39" height="13.39" fill="#231f20"/>
  <rect x="318.68" y="145.34" width="13.39" height="13.39" fill="#231f20"/>
  <rect x="188.23" y="145.34" width="13.39" height="13.39" fill="#231f20"/>
  <rect x="230.54" y="145.34" width="13.39" height="13.39" fill="#231f20"/>
  <rect x="101.95" y="145.34" width="13.39" height="13.39" fill="#231f20"/>
  <rect x="145.45" y="145.34" width="13.39" height="13.39" fill="#231f20"/>
  <rect x="14.97" y="145.34" width="13.39" height="13.39" fill="#231f20"/>
  <rect x="58.46" y="145.34" width="13.39" height="13.39" fill="#231f20"/>
  <rect x="359.71" y="101.89" width="13.39" height="13.39" fill="#231f20"/>
  <rect x="403.44" y="101.89" width="13.39" height="13.39" fill="#231f20"/>
  <rect x="274.94" y="101.89" width="13.39" height="13.39" fill="#231f20"/>
  <rect x="318.68" y="101.89" width="13.39" height="13.39" fill="#231f20"/>
  <rect x="188.23" y="101.89" width="13.39" height="13.39" fill="#231f20"/>
  <rect x="230.54" y="101.89" width="13.39" height="13.39" fill="#231f20"/>
  <rect x="101.95" y="101.89" width="13.39" height="13.39" fill="#231f20"/>
  <rect x="145.45" y="101.89" width="13.39" height="13.39" fill="#231f20"/>
  <rect x="14.97" y="101.89" width="13.39" height="13.39" fill="#231f20"/>
  <rect x="58.46" y="101.89" width="13.39" height="13.39" fill="#231f20"/>
  <rect x="359.71" y="57.2" width="13.39" height="13.39" fill="#231f20"/>
  <rect x="403.44" y="57.2" width="13.39" height="13.39" fill="#231f20"/>
  <rect x="274.94" y="57.2" width="13.39" height="13.39" fill="#231f20"/>
  <rect x="318.68" y="57.2" width="13.39" height="13.39" fill="#231f20"/>
  <rect x="188.23" y="57.2" width="13.39" height="13.39" fill="#231f20"/>
  <rect x="230.54" y="57.2" width="13.39" height="13.39" fill="#231f20"/>
  <rect x="101.95" y="57.2" width="13.39" height="13.39" fill="#231f20"/>
  <rect x="145.45" y="57.2" width="13.39" height="13.39" fill="#231f20"/>
  <rect x="14.97" y="57.2" width="13.39" height="13.39" fill="#231f20"/>
  <rect x="58.46" y="57.2" width="13.39" height="13.39" fill="#231f20"/>
  <rect x="359.71" y="13.75" width="13.39" height="13.39" fill="#231f20"/>
  <rect x="403.44" y="13.75" width="13.39" height="13.39" fill="#231f20"/>
  <rect x="446.09" y="187.81" width="13.39" height="13.39" fill="#231f20"/>
  <rect x="532.62" y="231.15" width="13.39" height="13.39" fill="#231f20"/>
  <rect x="576.53" y="231.15" width="13.39" height="13.39" fill="#231f20"/>
  <rect x="446.09" y="231.15" width="13.39" height="13.39" fill="#231f20"/>
  <rect x="491.77" y="231.15" width="13.39" height="13.39" fill="#231f20"/>
  <rect x="618.8" y="231.15" width="13.39" height="13.39" fill="#231f20"/>
  <rect x="532.62" y="274.6" width="13.39" height="13.39" fill="#231f20"/>
  <rect x="576.53" y="274.6" width="13.39" height="13.39" fill="#231f20"/>
  <rect x="446.09" y="274.6" width="13.39" height="13.39" fill="#231f20"/>
  <rect x="491.77" y="274.6" width="13.39" height="13.39" fill="#231f20"/>
  <rect x="618.8" y="274.6" width="13.39" height="13.39" fill="#231f20"/>
  <rect x="662.88" y="231.15" width="13.39" height="13.39" fill="#231f20"/>
  <rect x="662.88" y="274.6" width="13.39" height="13.39" fill="#231f20"/>
  <rect x="446.09" y="145.34" width="13.39" height="13.39" fill="#231f20"/>
  <rect x="446.09" y="101.89" width="13.39" height="13.39" fill="#231f20"/>
  <rect x="446.09" y="57.2" width="13.39" height="13.39" fill="#231f20"/>
  <rect x="446.09" y="13.75" width="13.39" height="13.39" fill="#231f20"/>
  <rect x="532.62" y="187.81" width="13.39" height="13.39" fill="#231f20"/>
  <rect x="532.62" y="145.34" width="13.39" height="13.39" fill="#231f20"/>
  <rect x="532.62" y="101.89" width="13.39" height="13.39" fill="#231f20"/>
  <rect x="532.62" y="57.2" width="13.39" height="13.39" fill="#231f20"/>
  <rect x="532.62" y="13.75" width="13.39" height="13.39" fill="#231f20"/>
  <rect x="705.29" y="187.81" width="13.39" height="13.39" fill="#231f20"/>
  <rect x="705.29" y="231.44" width="13.39" height="13.39" fill="#231f20"/>
  <rect x="705.29" y="145.34" width="13.39" height="13.39" fill="#231f20"/>
  <rect x="705.29" y="101.89" width="13.39" height="13.39" fill="#231f20"/>
  <rect x="705.29" y="57.2" width="13.39" height="13.39" fill="#231f20"/>
  <rect x="705.29" y="13.75" width="13.39" height="13.39" fill="#231f20"/>
  <rect x="662.88" y="187.81" width="13.39" height="13.39" fill="#231f20"/>
  <rect x="662.88" y="145.34" width="13.39" height="13.39" fill="#231f20"/>
  <rect x="662.88" y="101.89" width="13.39" height="13.39" fill="#231f20"/>
  <rect x="662.88" y="57.2" width="13.39" height="13.39" fill="#231f20"/>
  <rect x="619.4" y="187.81" width="13.39" height="13.39" fill="#231f20"/>
  <rect x="619.4" y="145.34" width="13.39" height="13.39" fill="#231f20"/>
  <rect x="619.4" y="101.89" width="13.39" height="13.39" fill="#231f20"/>
  <rect x="619.4" y="57.2" width="13.39" height="13.39" fill="#231f20"/>
  <rect x="577" y="187.81" width="13.39" height="13.39" fill="#231f20"/>
  <rect x="577" y="145.34" width="13.39" height="13.39" fill="#231f20"/>
  <rect x="577" y="101.89" width="13.39" height="13.39" fill="#231f20"/>
  <rect x="577" y="57.2" width="13.39" height="13.39" fill="#231f20"/>
  <rect x="662.88" y="13.75" width="13.39" height="13.39" fill="#231f20"/>
  <rect x="619.81" y="13.75" width="13.39" height="13.39" fill="#231f20"/>
  <rect x="274.94" y="13.75" width="13.39" height="13.39" fill="#231f20"/>
  <rect x="318.68" y="13.75" width="13.39" height="13.39" fill="#231f20"/>
  <rect x="188.23" y="13.75" width="13.39" height="13.39" fill="#231f20"/>
  <rect x="230.54" y="13.75" width="13.39" height="13.39" fill="#231f20"/>
  <rect x="101.95" y="13.75" width="13.39" height="13.39" fill="#231f20"/>
  <rect x="145.45" y="13.75" width="13.39" height="13.39" fill="#231f20"/>
  <rect x="14.97" y="13.75" width="13.39" height="13.39" fill="#231f20"/>
  <rect x="58.46" y="13.75" width="13.39" height="13.39" fill="#231f20"/>
  <rect x="359.71" y="359.63" width="13.39" height="13.39" fill="#231f20"/>
  <rect x="359.71" y="404.27" width="13.39" height="13.39" fill="#231f20"/>
  <rect x="187.43" y="620.53" width="13.39" height="13.39" fill="#231f20"/>
  <rect x="187.43" y="662.48" width="13.39" height="13.39" fill="#231f20"/>
  <rect x="187.43" y="492.01" width="13.39" height="13.39" fill="#231f20"/>
  <rect x="187.43" y="533.95" width="13.39" height="13.39" fill="#231f20"/>
  <rect x="187.43" y="578.59" width="13.39" height="13.39" fill="#231f20"/>
  <rect x="187.43" y="446.21" width="13.39" height="13.39" fill="#231f20"/>
  <rect x="187.43" y="317.69" width="13.39" height="13.39" fill="#231f20"/>
  <rect x="187.43" y="359.63" width="13.39" height="13.39" fill="#231f20"/>
  <rect x="187.43" y="404.27" width="13.39" height="13.39" fill="#231f20"/>
  <rect x="403.55" y="404.27" width="13.39" height="13.39" fill="#231f20"/>
  <rect x="403.55" y="578.59" width="13.39" height="13.39" fill="#231f20"/>
  <rect x="187.43" y="838.33" width="13.39" height="13.39" fill="#231f20"/>
  <rect x="187.43" y="880.28" width="13.39" height="13.39" fill="#231f20"/>
  <rect x="187.43" y="924.91" width="13.39" height="13.39" fill="#231f20"/>
  <rect x="144.81" y="966.32" width="13.39" height="13.39" fill="#231f20"/>
  <rect x="144.81" y="1008.27" width="13.39" height="13.39" fill="#231f20"/>
  <rect x="144.81" y="1052.9" width="13.39" height="13.39" fill="#231f20"/>
  <rect x="144.81" y="838.33" width="13.39" height="13.39" fill="#231f20"/>
  <rect x="102.19" y="838.33" width="13.39" height="13.39" fill="#231f20"/>
  <rect x="144.81" y="880.28" width="13.39" height="13.39" fill="#231f20"/>
  <rect x="102.19" y="880.28" width="13.39" height="13.39" fill="#231f20"/>
  <rect x="144.81" y="924.91" width="13.39" height="13.39" fill="#231f20"/>
  <rect x="274.62" y="751.08" width="13.39" height="13.39" fill="#231f20"/>
  <rect x="317.1" y="751.08" width="13.39" height="13.39" fill="#231f20"/>
  <rect x="230.79" y="793.11" width="13.39" height="13.39" fill="#231f20"/>
  <rect x="187.43" y="793.11" width="13.39" height="13.39" fill="#231f20"/>
  <rect x="144.81" y="793.11" width="13.39" height="13.39" fill="#231f20"/>
  <rect x="274.15" y="793.11" width="13.39" height="13.39" fill="#231f20"/>
  <rect x="187.9" y="707.03" width="13.39" height="13.39" fill="#231f20"/>
  <rect x="187.43" y="749.07" width="13.39" height="13.39" fill="#231f20"/>
</svg>