<?xml version="1.0" encoding="UTF-8"?>
<svg id="_17" data-name="17" xmlns="http://www.w3.org/2000/svg" viewBox="0 0 1080 1080">
  <rect x="518.96" y="303.79" width="40.84" height="40.84" fill="#231f20"/>
  <rect x="476.6" y="303.79" width="40.84" height="40.84" fill="#231f20"/>
  <rect x="562.01" y="303.79" width="40.84" height="40.84" fill="#231f20"/>
  <rect x="562.01" y="347.02" width="40.84" height="40.84" fill="#231f20"/>
  <rect x="605.13" y="347.02" width="40.84" height="40.84" fill="#231f20"/>
  <rect x="648.69" y="347.02" width="40.84" height="40.84" fill="#231f20"/>
  <rect x="605.13" y="390.48" width="40.84" height="40.84" fill="#231f20"/>
  <rect x="648.69" y="390.48" width="40.84" height="40.84" fill="#231f20"/>
  <rect x="692.3" y="390.48" width="40.84" height="40.84" fill="#231f20"/>
  <rect x="692.3" y="433.84" width="40.84" height="40.84" fill="#231f20"/>
  <rect x="735.26" y="433.84" width="40.84" height="40.84" fill="#231f20"/>
  <rect x="692.3" y="476.8" width="40.84" height="40.84" fill="#231f20"/>
  <rect x="735.26" y="476.8" width="40.84" height="40.84" fill="#231f20"/>
  <rect x="692.3" y="519.71" width="40.84" height="40.84" fill="#231f20"/>
  <rect x="735.26" y="519.71" width="40.84" height="40.84" fill="#231f20"/>
  <rect x="648.69" y="563.19" width="40.84" height="40.84" fill="#231f20"/>
  <rect x="648.69" y="606.59" width="40.84" height="40.84" fill="#231f20"/>
  <rect x="692.3" y="563.19" width="40.84" height="40.84" fill="#231f20"/>
  <rect x="778.64" y="476.8" width="40.84" height="40.84" fill="#231f20"/>
  <rect x="952.06" y="476.52" width="40.84" height="40.84" fill="#231f20"/>
  <rect x="995.13" y="476.01" width="40.84" height="40.84" fill="#231f20"/>
  <rect x="1038.71" y="476.8" width="40.84" height="40.84" fill="#231f20"/>
  <rect x="952.06" y="519.43" width="40.84" height="40.84" fill="#231f20"/>
  <rect x="908.88" y="476.65" width="40.84" height="40.84" fill="#231f20"/>
  <rect x="908.88" y="519.56" width="40.84" height="40.84" fill="#231f20"/>
  <rect x="865.53" y="476.68" width="40.84" height="40.84" fill="#231f20"/>
  <rect x="865.53" y="519.6" width="40.84" height="40.84" fill="#231f20"/>
  <rect x="995.13" y="518.93" width="40.84" height="40.84" fill="#231f20"/>
  <rect x="1038.71" y="519.71" width="40.84" height="40.84" fill="#231f20"/>
  <rect x="952.06" y="562.91" width="40.84" height="40.84" fill="#231f20"/>
  <rect x="908.88" y="563.04" width="40.84" height="40.84" fill="#231f20"/>
  <rect x="995.13" y="562.41" width="40.84" height="40.84" fill="#231f20"/>
  <rect x="1038.71" y="563.19" width="40.84" height="40.84" fill="#231f20"/>
  <rect x="995.13" y="605.8" width="40.84" height="40.84" fill="#231f20"/>
  <rect x="1038.71" y="606.59" width="40.84" height="40.84" fill="#231f20"/>
  <rect x="995.13" y="649.72" width="40.84" height="40.84" fill="#231f20"/>
  <rect x="1038.71" y="650.51" width="40.84" height="40.84" fill="#231f20"/>
  <rect x="995.13" y="693.27" width="40.84" height="40.84" fill="#231f20"/>
  <rect x="1038.71" y="694.06" width="40.84" height="40.84" fill="#231f20"/>
  <rect x="605.13" y="303.79" width="40.84" height="40.84" fill="#231f20"/>
  <rect x="648.69" y="303.79" width="40.84" height="40.84" fill="#231f20"/>
  <rect x="346.36" y="217.45" width="40.84" height="40.84" fill="#231f20"/>
  <rect x="389.63" y="260.65" width="40.84" height="40.84" fill="#231f20"/>
  <rect x="389.63" y="217.45" width="40.84" height="40.84" fill="#231f20"/>
  <rect x="432.72" y="260.65" width="40.84" height="40.84" fill="#231f20"/>
  <rect x="476.6" y="260.65" width="40.84" height="40.84" fill="#231f20"/>
  <rect x="216.91" y="217.45" width="40.84" height="40.84" fill="#231f20"/>
  <rect x="259.99" y="217.45" width="40.84" height="40.84" fill="#231f20"/>
  <rect x="216.83" y="174.55" width="40.84" height="40.84" fill="#231f20"/>
  <rect x="259.92" y="174.55" width="40.84" height="40.84" fill="#231f20"/>
  <rect x="216.83" y="131" width="40.84" height="40.84" fill="#231f20"/>
  <rect x="87.29" y="88.44" width="40.84" height="40.84" fill="#231f20"/>
  <rect x="87.29" y="131" width="40.84" height="40.84" fill="#231f20"/>
  <rect x="44.06" y="88.44" width="40.84" height="40.84" fill="#231f20"/>
  <rect x="44.06" y="131" width="40.84" height="40.84" fill="#231f20"/>
  <rect x="1.53" y="88.44" width="40.84" height="40.84" fill="#231f20"/>
  <rect x="1.53" y="131" width="40.84" height="40.84" fill="#231f20"/>
  <rect x="1.53" y="174.55" width="40.84" height="40.84" fill="#231f20"/>
  <rect x="1.53" y="217.45" width="40.84" height="40.84" fill="#231f20"/>
  <rect x="1.53" y="260.65" width="40.84" height="40.84" fill="#231f20"/>
  <rect x="1.53" y="303.64" width="40.84" height="40.84" fill="#231f20"/>
  <rect x="1.53" y="347.02" width="40.84" height="40.84" fill="#231f20"/>
  <rect x="1.53" y="390.48" width="40.84" height="40.84" fill="#231f20"/>
  <rect x="1.53" y="433.84" width="40.84" height="40.84" fill="#231f20"/>
  <rect x="1.53" y="476.8" width="40.84" height="40.84" fill="#231f20"/>
  <rect x="1.53" y="606.59" width="40.84" height="40.84" fill="#231f20"/>
  <rect x="1.53" y="649.86" width="40.84" height="40.84" fill="#231f20"/>
  <rect x="1.53" y="692.51" width="40.84" height="40.84" fill="#231f20"/>
  <rect x="1.53" y="736.28" width="40.84" height="40.84" fill="#231f20"/>
  <rect x="1.53" y="779.15" width="40.84" height="40.84" fill="#231f20"/>
  <rect x="1.53" y="822.6" width="40.84" height="40.84" fill="#231f20"/>
  <rect x="1.53" y="864.97" width="40.84" height="40.84" fill="#231f20"/>
  <rect x="1.53" y="908.38" width="40.84" height="40.84" fill="#231f20"/>
  <rect x="1.53" y="951.78" width="40.84" height="40.84" fill="#231f20"/>
  <rect x="1.53" y="994.58" width="40.84" height="40.84" fill="#231f20"/>
  <rect x="1.53" y="1038.24" width="40.84" height="40.84" fill="#231f20"/>
  <rect x="43.62" y="1038.24" width="40.84" height="40.84" fill="#231f20"/>
  <rect x="86.75" y="1038.24" width="40.84" height="40.84" fill="#231f20"/>
  <rect x="130.41" y="1038.24" width="40.84" height="40.84" fill="#231f20"/>
  <rect x="174.08" y="1038.24" width="40.84" height="40.84" fill="#231f20"/>
  <rect x="217.06" y="1038.24" width="40.84" height="40.84" fill="#231f20"/>
  <rect x="260.05" y="1038.24" width="40.84" height="40.84" fill="#231f20"/>
  <rect x="303.17" y="1038.24" width="40.84" height="40.84" fill="#231f20"/>
  <rect x="346.3" y="1038.24" width="40.84" height="40.84" fill="#231f20"/>
  <rect x="389.97" y="1038.24" width="40.84" height="40.84" fill="#231f20"/>
  <rect x="433.63" y="1038.24" width="40.84" height="40.84" fill="#231f20"/>
  <rect x="476.61" y="1038.24" width="40.84" height="40.84" fill="#231f20"/>
  <rect x="519.35" y="1038.24" width="40.84" height="40.84" fill="#231f20"/>
  <rect x="562.47" y="1038.24" width="40.84" height="40.84" fill="#231f20"/>
  <rect x="606.14" y="1038.24" width="40.84" height="40.84" fill="#231f20"/>
  <rect x="649.81" y="1038.24" width="40.84" height="40.84" fill="#231f20"/>
  <rect x="692.79" y="1038.24" width="40.84" height="40.84" fill="#231f20"/>
  <rect x="735.77" y="1038.24" width="40.84" height="40.84" fill="#231f20"/>
  <rect x="778.9" y="1038.24" width="40.84" height="40.84" fill="#231f20"/>
  <rect x="822.03" y="1038.24" width="40.84" height="40.84" fill="#231f20"/>
  <rect x="865.69" y="1038.24" width="40.84" height="40.84" fill="#231f20"/>
  <rect x="908.29" y="1038.24" width="40.84" height="40.84" fill="#231f20"/>
  <rect x="951.27" y="1038.24" width="40.84" height="40.84" fill="#231f20"/>
  <rect x="994.25" y="1038.24" width="40.84" height="40.84" fill="#231f20"/>
  <rect x="1038.58" y="1038.24" width="40.84" height="40.84" fill="#231f20"/>
  <rect x="259.92" y="131" width="40.84" height="40.84" fill="#231f20"/>
  <rect x="303.27" y="217.45" width="40.84" height="40.84" fill="#231f20"/>
  <rect x="446.71" y="317.51" width="13.39" height="13.39" fill="#231f20"/>
  <rect x="446.78" y="360.74" width="13.39" height="13.39" fill="#231f20"/>
  <rect x="360.08" y="274.37" width="13.39" height="13.39" fill="#231f20"/>
  <rect x="360.01" y="317.51" width="13.39" height="13.39" fill="#231f20"/>
  <rect x="403.28" y="317.51" width="13.39" height="13.39" fill="#231f20"/>
  <rect x="273.66" y="274.37" width="13.39" height="13.39" fill="#231f20"/>
  <rect x="316.94" y="274.37" width="13.39" height="13.39" fill="#231f20"/>
  <rect x="490.32" y="360.74" width="13.39" height="13.39" fill="#231f20"/>
  <rect x="532.69" y="360.74" width="13.39" height="13.39" fill="#231f20"/>
  <rect x="360.52" y="404.21" width="13.39" height="13.39" fill="#231f20"/>
  <rect x="360.52" y="447.56" width="13.39" height="13.39" fill="#231f20"/>
  <rect x="403.45" y="404.21" width="13.39" height="13.39" fill="#231f20"/>
  <rect x="273.83" y="447.56" width="13.39" height="13.39" fill="#231f20"/>
  <rect x="316.77" y="447.56" width="13.39" height="13.39" fill="#231f20"/>
  <rect x="360.96" y="490.53" width="13.39" height="13.39" fill="#231f20"/>
  <rect x="274.28" y="490.53" width="13.39" height="13.39" fill="#231f20"/>
  <rect x="230.41" y="447.56" width="13.39" height="13.39" fill="#231f20"/>
  <rect x="230.86" y="490.53" width="13.39" height="13.39" fill="#231f20"/>
  <rect x="187.11" y="490.53" width="13.39" height="13.39" fill="#231f20"/>
  <rect x="143.36" y="533.44" width="13.39" height="13.39" fill="#231f20"/>
  <rect x="99.61" y="533.44" width="13.39" height="13.39" fill="#231f20"/>
  <rect x="55.87" y="533.44" width="13.39" height="13.39" fill="#231f20"/>
  <rect x="15.25" y="533.44" width="13.39" height="13.39" fill="#231f20"/>
  <rect x="55.87" y="576.92" width="13.39" height="13.39" fill="#231f20"/>
  <rect x="15.25" y="576.92" width="13.39" height="13.39" fill="#231f20"/>
  <rect x="317.22" y="490.53" width="13.39" height="13.39" fill="#231f20"/>
  <rect x="662.42" y="663.77" width="13.39" height="13.39" fill="#231f20"/>
  <rect x="575.74" y="663.77" width="13.39" height="13.39" fill="#231f20"/>
  <rect x="618.85" y="663.77" width="13.39" height="13.39" fill="#231f20"/>
  <rect x="575.74" y="707.4" width="13.39" height="13.39" fill="#231f20"/>
  <rect x="618.85" y="707.4" width="13.39" height="13.39" fill="#231f20"/>
  <rect x="532.69" y="751.03" width="13.39" height="13.39" fill="#231f20"/>
  <rect x="575.74" y="751.03" width="13.39" height="13.39" fill="#231f20"/>
  <rect x="532.69" y="792.55" width="13.39" height="13.39" fill="#231f20"/>
  <rect x="532.69" y="836.18" width="13.39" height="13.39" fill="#231f20"/>
  <rect x="490.32" y="879.82" width="13.39" height="13.39" fill="#231f20"/>
  <rect x="532.69" y="879.82" width="13.39" height="13.39" fill="#231f20"/>
  <rect x="490.32" y="923.45" width="13.39" height="13.39" fill="#231f20"/>
  <rect x="490.32" y="967.08" width="13.39" height="13.39" fill="#231f20"/>
  <rect x="490.32" y="1010.72" width="13.39" height="13.39" fill="#231f20"/>
  <rect x="964.32" y="879.82" width="13.39" height="13.39" fill="#231f20"/>
  <rect x="964.32" y="923.45" width="13.39" height="13.39" fill="#231f20"/>
  <rect x="964.32" y="967.08" width="13.39" height="13.39" fill="#231f20"/>
  <rect x="1008.85" y="750.37" width="13.39" height="13.39" fill="#231f20"/>
  <rect x="963.06" y="750.37" width="13.39" height="13.39" fill="#231f20"/>
  <rect x="1008.85" y="794" width="13.39" height="13.39" fill="#231f20"/>
  <rect x="964.32" y="794" width="13.39" height="13.39" fill="#231f20"/>
  <rect x="921.93" y="794" width="13.39" height="13.39" fill="#231f20"/>
  <rect x="878.27" y="794" width="13.39" height="13.39" fill="#231f20"/>
  <rect x="1007.98" y="837.63" width="13.39" height="13.39" fill="#231f20"/>
  <rect x="964.32" y="837.63" width="13.39" height="13.39" fill="#231f20"/>
  <rect x="964.32" y="1010.72" width="13.39" height="13.39" fill="#231f20"/>
  <rect x="447.36" y="967.08" width="13.39" height="13.39" fill="#231f20"/>
  <rect x="447.36" y="1010.72" width="13.39" height="13.39" fill="#231f20"/>
  <rect x="446.05" y="404.21" width="13.39" height="13.39" fill="#231f20"/>
  <rect x="446.78" y="231.17" width="13.39" height="13.39" fill="#231f20"/>
  <rect x="490.32" y="231.17" width="13.39" height="13.39" fill="#231f20"/>
  <rect x="532.69" y="231.17" width="13.39" height="13.39" fill="#231f20"/>
  <rect x="317.24" y="188.28" width="13.39" height="13.39" fill="#231f20"/>
  <rect x="360.18" y="188.28" width="13.39" height="13.39" fill="#231f20"/>
  <rect x="402.77" y="188.28" width="13.39" height="13.39" fill="#231f20"/>
  <rect x="317.24" y="144.73" width="13.39" height="13.39" fill="#231f20"/>
  <rect x="231.92" y="102.17" width="13.39" height="13.39" fill="#231f20"/>
  <rect x="186.81" y="102.17" width="13.39" height="13.39" fill="#231f20"/>
  <rect x="186.81" y="144.73" width="13.39" height="13.39" fill="#231f20"/>
  <rect x="144.32" y="102.17" width="13.39" height="13.39" fill="#231f20"/>
  <rect x="144.32" y="56.27" width="13.39" height="13.39" fill="#231f20"/>
  <rect x="186.81" y="56.27" width="13.39" height="13.39" fill="#231f20"/>
  <rect x="99.2" y="56.27" width="13.39" height="13.39" fill="#231f20"/>
  <rect x="56.71" y="56.27" width="13.39" height="13.39" fill="#231f20"/>
  <rect x="15.25" y="56.27" width="13.39" height="13.39" fill="#231f20"/>
  <rect x="15.25" y="15.39" width="13.39" height="13.39" fill="#231f20"/>
  <rect x="144.32" y="144.73" width="13.39" height="13.39" fill="#231f20"/>
  <rect x="186.81" y="188.28" width="13.39" height="13.39" fill="#231f20"/>
  <rect x="186.81" y="231.17" width="13.39" height="13.39" fill="#231f20"/>
  <rect x="274.52" y="102.17" width="13.39" height="13.39" fill="#231f20"/>
  <rect x="532.69" y="274.37" width="13.39" height="13.39" fill="#231f20"/>
  <rect x="575.74" y="274.37" width="13.39" height="13.39" fill="#231f20"/>
  <rect x="618.85" y="274.37" width="13.39" height="13.39" fill="#231f20"/>
  <rect x="662.42" y="274.37" width="13.39" height="13.39" fill="#231f20"/>
  <rect x="706.03" y="274.37" width="13.39" height="13.39" fill="#231f20"/>
  <rect x="706.03" y="316.97" width="13.39" height="13.39" fill="#231f20"/>
  <rect x="706.03" y="360.74" width="13.39" height="13.39" fill="#231f20"/>
  <rect x="749.09" y="360.74" width="13.39" height="13.39" fill="#231f20"/>
  <rect x="749.09" y="404.21" width="13.39" height="13.39" fill="#231f20"/>
  <rect x="662.42" y="490.53" width="13.39" height="13.39" fill="#231f20"/>
  <rect x="662.42" y="533.44" width="13.39" height="13.39" fill="#231f20"/>
  <rect x="835.54" y="490.53" width="13.39" height="13.39" fill="#231f20"/>
  <rect x="835.54" y="533.44" width="13.39" height="13.39" fill="#231f20"/>
  <rect x="879.25" y="576.8" width="13.39" height="13.39" fill="#231f20"/>
  <rect x="792.37" y="533.44" width="13.39" height="13.39" fill="#231f20"/>
  <rect x="618.85" y="576.92" width="13.39" height="13.39" fill="#231f20"/>
  <rect x="532.69" y="404.21" width="13.39" height="13.39" fill="#231f20"/>
  <rect x="575.74" y="404.21" width="13.39" height="13.39" fill="#231f20"/>
  <rect x="618.85" y="447.56" width="13.39" height="13.39" fill="#231f20"/>
  <rect x="618.85" y="620.32" width="13.39" height="13.39" fill="#231f20"/>
  <rect x="662.42" y="447.56" width="13.39" height="13.39" fill="#231f20"/>
</svg>