<?xml version="1.0" encoding="UTF-8"?>
<svg id="_18" data-name="18" xmlns="http://www.w3.org/2000/svg" viewBox="0 0 1080 1080">
  <rect x="562.31" y="562.83" width="40.84" height="40.84" fill="#231f20"/>
  <rect x="605.76" y="476.95" width="40.84" height="40.84" fill="#231f20"/>
  <rect x="605.76" y="519.92" width="40.84" height="40.84" fill="#231f20"/>
  <rect x="562.31" y="519.52" width="40.84" height="40.84" fill="#231f20"/>
  <rect x="605.76" y="433.41" width="40.84" height="40.84" fill="#231f20"/>
  <rect x="562.31" y="606.15" width="40.84" height="40.84" fill="#231f20"/>
  <rect x="562.31" y="649.53" width="40.84" height="40.84" fill="#231f20"/>
  <rect x="562.31" y="692.87" width="40.84" height="40.84" fill="#231f20"/>
  <rect x="389.36" y="693" width="40.84" height="40.84" fill="#231f20"/>
  <rect x="389.36" y="649.53" width="40.84" height="40.84" fill="#231f20"/>
  <rect x="389.36" y="606.15" width="40.84" height="40.84" fill="#231f20"/>
  <rect x="389.36" y="519.52" width="40.84" height="40.84" fill="#231f20"/>
  <rect x="389.36" y="390.49" width="40.84" height="40.84" fill="#231f20"/>
  <rect x="389.36" y="131.18" width="40.84" height="40.84" fill="#231f20"/>
  <rect x="389.36" y="87.86" width="40.84" height="40.84" fill="#231f20"/>
  <rect x="389.36" y="174.43" width="40.84" height="40.84" fill="#231f20"/>
  <rect x="346.38" y="260.54" width="40.84" height="40.84" fill="#231f20"/>
  <rect x="389.36" y="736.22" width="40.84" height="40.84" fill="#231f20"/>
  <rect x="260" y="736.22" width="40.84" height="40.84" fill="#231f20"/>
  <rect x="173.78" y="865.68" width="40.84" height="40.84" fill="#231f20"/>
  <rect x="130.64" y="908.68" width="40.84" height="40.84" fill="#231f20"/>
  <rect x="216.89" y="779.22" width="40.84" height="40.84" fill="#231f20"/>
  <rect x="562.31" y="736.22" width="40.84" height="40.84" fill="#231f20"/>
  <rect x="778.49" y="779.22" width="40.84" height="40.84" fill="#231f20"/>
  <rect x="865" y="821.79" width="40.84" height="40.84" fill="#231f20"/>
  <rect x="821.33" y="779.22" width="40.84" height="40.84" fill="#231f20"/>
  <rect x="691.82" y="736.22" width="40.84" height="40.84" fill="#231f20"/>
  <rect x="346.22" y="1038.48" width="40.84" height="40.84" fill="#231f20"/>
  <rect x="389.72" y="995.18" width="40.84" height="40.84" fill="#231f20"/>
  <rect x="389.72" y="908.68" width="40.84" height="40.84" fill="#231f20"/>
  <rect x="908.18" y="995.06" width="40.84" height="40.84" fill="#231f20"/>
  <rect x="908.18" y="1038.38" width="40.84" height="40.84" fill="#231f20"/>
  <rect x="951.36" y="995.06" width="40.84" height="40.84" fill="#231f20"/>
  <rect x="908.18" y="951.74" width="40.84" height="40.84" fill="#231f20"/>
  <rect x="908.18" y="908.43" width="40.84" height="40.84" fill="#231f20"/>
  <rect x="908.18" y="865.11" width="40.84" height="40.84" fill="#231f20"/>
  <rect x="519.13" y="995.18" width="40.84" height="40.84" fill="#231f20"/>
  <rect x="519.13" y="1038.49" width="40.84" height="40.84" fill="#231f20"/>
  <rect x="519.13" y="951.86" width="40.84" height="40.84" fill="#231f20"/>
  <rect x="519.13" y="908.54" width="40.84" height="40.84" fill="#231f20"/>
  <rect x="951.36" y="951.74" width="40.84" height="40.84" fill="#231f20"/>
  <rect x="951.36" y="1038.38" width="40.84" height="40.84" fill="#231f20"/>
  <rect x="648.96" y="303.86" width="40.84" height="40.84" fill="#231f20"/>
  <rect x="605.16" y="303.86" width="40.84" height="40.84" fill="#231f20"/>
  <rect x="648.96" y="347.18" width="40.84" height="40.84" fill="#231f20"/>
  <rect x="648.96" y="389.88" width="40.84" height="40.84" fill="#231f20"/>
  <rect x="605.76" y="389.88" width="40.84" height="40.84" fill="#231f20"/>
  <rect x="649.01" y="87.86" width="40.84" height="40.84" fill="#231f20"/>
  <rect x="649.01" y="131.18" width="40.84" height="40.84" fill="#231f20"/>
  <rect x="649.01" y="1.46" width="40.84" height="40.84" fill="#231f20"/>
  <rect x="605.76" y="1.46" width="40.84" height="40.84" fill="#231f20"/>
  <rect x="649.01" y="44.78" width="40.84" height="40.84" fill="#231f20"/>
  <rect x="649.01" y="174.26" width="40.84" height="40.84" fill="#231f20"/>
  <rect x="649.01" y="217.58" width="40.84" height="40.84" fill="#231f20"/>
  <rect x="649.01" y="260.72" width="40.84" height="40.84" fill="#231f20"/>
  <rect x="605.16" y="347.18" width="40.84" height="40.84" fill="#231f20"/>
  <rect x="532.85" y="706.73" width="13.39" height="13.39" fill="#231f20"/>
  <rect x="489.56" y="706.73" width="13.39" height="13.39" fill="#231f20"/>
  <rect x="532.85" y="749.94" width="13.39" height="13.39" fill="#231f20"/>
  <rect x="619.48" y="706.73" width="13.39" height="13.39" fill="#231f20"/>
  <rect x="619.48" y="749.94" width="13.39" height="13.39" fill="#231f20"/>
  <rect x="662.69" y="706.73" width="13.39" height="13.39" fill="#231f20"/>
  <rect x="705.55" y="706.73" width="13.39" height="13.39" fill="#231f20"/>
  <rect x="619.48" y="793.12" width="13.39" height="13.39" fill="#231f20"/>
  <rect x="576.14" y="793.12" width="13.39" height="13.39" fill="#231f20"/>
  <rect x="532.85" y="793.12" width="13.39" height="13.39" fill="#231f20"/>
  <rect x="532.85" y="837.93" width="13.39" height="13.39" fill="#231f20"/>
  <rect x="532.85" y="878.81" width="13.39" height="13.39" fill="#231f20"/>
  <rect x="576.14" y="490.52" width="13.39" height="13.39" fill="#231f20"/>
  <rect x="532.85" y="533.73" width="13.39" height="13.39" fill="#231f20"/>
  <rect x="532.85" y="576.95" width="13.39" height="13.39" fill="#231f20"/>
  <rect x="403.44" y="576.95" width="13.39" height="13.39" fill="#231f20"/>
  <rect x="532.85" y="621.72" width="13.39" height="13.39" fill="#231f20"/>
  <rect x="532.85" y="662.6" width="13.39" height="13.39" fill="#231f20"/>
  <rect x="576.14" y="316.89" width="13.39" height="13.39" fill="#231f20"/>
  <rect x="576.14" y="360.1" width="13.39" height="13.39" fill="#231f20"/>
  <rect x="576.14" y="404.87" width="13.39" height="13.39" fill="#231f20"/>
  <rect x="576.04" y="187.31" width="13.39" height="13.39" fill="#231f20"/>
  <rect x="576.04" y="230.52" width="13.39" height="13.39" fill="#231f20"/>
  <rect x="532.91" y="187.31" width="13.39" height="13.39" fill="#231f20"/>
  <rect x="532.91" y="230.52" width="13.39" height="13.39" fill="#231f20"/>
  <rect x="446.74" y="231.3" width="13.39" height="13.39" fill="#231f20"/>
  <rect x="491.63" y="230.52" width="13.39" height="13.39" fill="#231f20"/>
  <rect x="576.04" y="275.29" width="13.39" height="13.39" fill="#231f20"/>
  <rect x="403.14" y="316.89" width="13.39" height="13.39" fill="#231f20"/>
  <rect x="403.14" y="360.1" width="13.39" height="13.39" fill="#231f20"/>
  <rect x="403.03" y="230.52" width="13.39" height="13.39" fill="#231f20"/>
  <rect x="403.14" y="273.7" width="13.39" height="13.39" fill="#231f20"/>
  <rect x="446.74" y="316.89" width="13.39" height="13.39" fill="#231f20"/>
  <rect x="446.74" y="360.1" width="13.39" height="13.39" fill="#231f20"/>
  <rect x="446.74" y="273.7" width="13.39" height="13.39" fill="#231f20"/>
  <rect x="273.26" y="275.29" width="13.39" height="13.39" fill="#231f20"/>
  <rect x="273.26" y="230.52" width="13.39" height="13.39" fill="#231f20"/>
  <rect x="273.26" y="188.16" width="13.39" height="13.39" fill="#231f20"/>
  <rect x="273.26" y="403.67" width="13.39" height="13.39" fill="#231f20"/>
  <rect x="273.26" y="358.9" width="13.39" height="13.39" fill="#231f20"/>
  <rect x="273.26" y="316.54" width="13.39" height="13.39" fill="#231f20"/>
  <rect x="231.65" y="275.29" width="13.39" height="13.39" fill="#231f20"/>
  <rect x="231.65" y="230.52" width="13.39" height="13.39" fill="#231f20"/>
  <rect x="231.65" y="358.9" width="13.39" height="13.39" fill="#231f20"/>
  <rect x="231.65" y="316.54" width="13.39" height="13.39" fill="#231f20"/>
  <rect x="317.06" y="275.29" width="13.39" height="13.39" fill="#231f20"/>
  <rect x="317.06" y="403.67" width="13.39" height="13.39" fill="#231f20"/>
  <rect x="317.06" y="358.9" width="13.39" height="13.39" fill="#231f20"/>
  <rect x="359.52" y="403.67" width="13.39" height="13.39" fill="#231f20"/>
  <rect x="359.52" y="358.9" width="13.39" height="13.39" fill="#231f20"/>
  <rect x="317.06" y="316.54" width="13.39" height="13.39" fill="#231f20"/>
  <rect x="317.06" y="188.16" width="13.39" height="13.39" fill="#231f20"/>
  <rect x="317.06" y="145.58" width="13.39" height="13.39" fill="#231f20"/>
  <rect x="359.52" y="145.79" width="13.39" height="13.39" fill="#231f20"/>
  <rect x="359.52" y="101.58" width="13.39" height="13.39" fill="#231f20"/>
  <rect x="403.14" y="57.71" width="13.39" height="13.39" fill="#231f20"/>
  <rect x="403.14" y="13.5" width="13.39" height="13.39" fill="#231f20"/>
  <rect x="359.52" y="57.71" width="13.39" height="13.39" fill="#231f20"/>
  <rect x="359.52" y="13.5" width="13.39" height="13.39" fill="#231f20"/>
  <rect x="446.74" y="145.79" width="13.39" height="13.39" fill="#231f20"/>
  <rect x="446.74" y="101.58" width="13.39" height="13.39" fill="#231f20"/>
  <rect x="446.74" y="57.71" width="13.39" height="13.39" fill="#231f20"/>
  <rect x="446.74" y="13.5" width="13.39" height="13.39" fill="#231f20"/>
  <rect x="489.23" y="101.58" width="13.39" height="13.39" fill="#231f20"/>
  <rect x="489.23" y="57.71" width="13.39" height="13.39" fill="#231f20"/>
  <rect x="489.23" y="13.5" width="13.39" height="13.39" fill="#231f20"/>
  <rect x="576.14" y="57.59" width="13.39" height="13.39" fill="#231f20"/>
  <rect x="619.48" y="57.59" width="13.39" height="13.39" fill="#231f20"/>
  <rect x="619.48" y="100.54" width="13.39" height="13.39" fill="#231f20"/>
  <rect x="619.48" y="145.58" width="13.39" height="13.39" fill="#231f20"/>
  <rect x="576.14" y="15.18" width="13.39" height="13.39" fill="#231f20"/>
  <rect x="576.14" y="100.81" width="13.39" height="13.39" fill="#231f20"/>
  <rect x="576.14" y="145.58" width="13.39" height="13.39" fill="#231f20"/>
  <rect x="576.14" y="445.75" width="13.39" height="13.39" fill="#231f20"/>
  <rect x="403.09" y="490.52" width="13.39" height="13.39" fill="#231f20"/>
  <rect x="403.09" y="445.75" width="13.39" height="13.39" fill="#231f20"/>
  <rect x="359.52" y="490.52" width="13.39" height="13.39" fill="#231f20"/>
  <rect x="359.52" y="445.75" width="13.39" height="13.39" fill="#231f20"/>
  <rect x="359.52" y="576.81" width="13.39" height="13.39" fill="#231f20"/>
  <rect x="359.52" y="663.65" width="13.39" height="13.39" fill="#231f20"/>
  <rect x="359.52" y="618.89" width="13.39" height="13.39" fill="#231f20"/>
  <rect x="403.44" y="793.16" width="13.39" height="13.39" fill="#231f20"/>
  <rect x="403.44" y="837.93" width="13.39" height="13.39" fill="#231f20"/>
  <rect x="403.44" y="878.81" width="13.39" height="13.39" fill="#231f20"/>
  <rect x="403.44" y="965.65" width="13.39" height="13.39" fill="#231f20"/>
  <rect x="576.04" y="878.81" width="13.39" height="13.39" fill="#231f20"/>
  <rect x="662.69" y="793.12" width="13.39" height="13.39" fill="#231f20"/>
  <rect x="705.55" y="793.12" width="13.39" height="13.39" fill="#231f20"/>
  <rect x="662.69" y="749.94" width="13.39" height="13.39" fill="#231f20"/>
  <rect x="748.88" y="749.94" width="13.39" height="13.39" fill="#231f20"/>
  <rect x="748.88" y="793.12" width="13.39" height="13.39" fill="#231f20"/>
  <rect x="619.48" y="1052.32" width="13.39" height="13.39" fill="#231f20"/>
  <rect x="576.14" y="1052.32" width="13.39" height="13.39" fill="#231f20"/>
  <rect x="662.69" y="1052.32" width="13.39" height="13.39" fill="#231f20"/>
  <rect x="705.55" y="1052.32" width="13.39" height="13.39" fill="#231f20"/>
  <rect x="748.88" y="1052.11" width="13.39" height="13.39" fill="#231f20"/>
  <rect x="793.4" y="749.94" width="13.39" height="13.39" fill="#231f20"/>
  <rect x="835.06" y="749.94" width="13.39" height="13.39" fill="#231f20"/>
  <rect x="705.55" y="837.93" width="13.39" height="13.39" fill="#231f20"/>
  <rect x="748.88" y="837.93" width="13.39" height="13.39" fill="#231f20"/>
  <rect x="793.4" y="878.81" width="13.39" height="13.39" fill="#231f20"/>
  <rect x="835.06" y="878.81" width="13.39" height="13.39" fill="#231f20"/>
  <rect x="835.06" y="922.19" width="13.39" height="13.39" fill="#231f20"/>
  <rect x="878.72" y="922.19" width="13.39" height="13.39" fill="#231f20"/>
  <rect x="878.72" y="965.47" width="13.39" height="13.39" fill="#231f20"/>
  <rect x="793.4" y="965.58" width="13.39" height="13.39" fill="#231f20"/>
  <rect x="793.4" y="1052.32" width="13.39" height="13.39" fill="#231f20"/>
  <rect x="835.06" y="965.58" width="13.39" height="13.39" fill="#231f20"/>
  <rect x="878.72" y="878.81" width="13.39" height="13.39" fill="#231f20"/>
  <rect x="835.06" y="1008.74" width="13.39" height="13.39" fill="#231f20"/>
  <rect x="878.72" y="1008.74" width="13.39" height="13.39" fill="#231f20"/>
  <rect x="835.06" y="1052.1" width="13.39" height="13.39" fill="#231f20"/>
  <rect x="878.72" y="1052.1" width="13.39" height="13.39" fill="#231f20"/>
  <rect x="793.4" y="837.93" width="13.39" height="13.39" fill="#231f20"/>
  <rect x="835.06" y="837.93" width="13.39" height="13.39" fill="#231f20"/>
  <rect x="705.55" y="878.81" width="13.39" height="13.39" fill="#231f20"/>
  <rect x="748.88" y="878.81" width="13.39" height="13.39" fill="#231f20"/>
  <rect x="793.4" y="922.15" width="13.39" height="13.39" fill="#231f20"/>
  <rect x="748.88" y="922.15" width="13.39" height="13.39" fill="#231f20"/>
  <rect x="489.56" y="749.94" width="13.39" height="13.39" fill="#231f20"/>
  <rect x="448.32" y="706.73" width="13.39" height="13.39" fill="#231f20"/>
  <rect x="532.85" y="445.75" width="13.39" height="13.39" fill="#231f20"/>
  <rect x="489.56" y="445.75" width="13.39" height="13.39" fill="#231f20"/>
  <rect x="447.79" y="445.75" width="13.39" height="13.39" fill="#231f20"/>
  <rect x="447.79" y="490.52" width="13.39" height="13.39" fill="#231f20"/>
  <rect x="448.32" y="749.94" width="13.39" height="13.39" fill="#231f20"/>
  <rect x="490.59" y="1052.32" width="13.39" height="13.39" fill="#231f20"/>
  <rect x="447.3" y="1052.32" width="13.39" height="13.39" fill="#231f20"/>
  <rect x="406.06" y="1052.32" width="13.39" height="13.39" fill="#231f20"/>
  <rect x="357.85" y="1009.08" width="13.39" height="13.39" fill="#231f20"/>
  <rect x="357.85" y="965.65" width="13.39" height="13.39" fill="#231f20"/>
  <rect x="357.85" y="922.7" width="13.39" height="13.39" fill="#231f20"/>
  <rect x="357.85" y="879.41" width="13.39" height="13.39" fill="#231f20"/>
  <rect x="357.85" y="837.93" width="13.39" height="13.39" fill="#231f20"/>
  <rect x="276.1" y="834.73" width="13.39" height="13.39" fill="#231f20"/>
  <rect x="230.51" y="834.73" width="13.39" height="13.39" fill="#231f20"/>
  <rect x="144.51" y="834.73" width="13.39" height="13.39" fill="#231f20"/>
  <rect x="144.51" y="879.41" width="13.39" height="13.39" fill="#231f20"/>
  <rect x="144.51" y="964.9" width="13.39" height="13.39" fill="#231f20"/>
  <rect x="144.51" y="1009.58" width="13.39" height="13.39" fill="#231f20"/>
  <rect x="187.51" y="834.73" width="13.39" height="13.39" fill="#231f20"/>
  <rect x="359.94" y="706.6" width="13.39" height="13.39" fill="#231f20"/>
  <rect x="314.35" y="706.6" width="13.39" height="13.39" fill="#231f20"/>
  <rect x="228.35" y="706.6" width="13.39" height="13.39" fill="#231f20"/>
  <rect x="271.35" y="706.6" width="13.39" height="13.39" fill="#231f20"/>
  <rect x="271.35" y="663.65" width="13.39" height="13.39" fill="#231f20"/>
  <rect x="144.51" y="792.94" width="13.39" height="13.39" fill="#231f20"/>
  <rect x="103.06" y="792.94" width="13.39" height="13.39" fill="#231f20"/>
  <rect x="187.51" y="792.94" width="13.39" height="13.39" fill="#231f20"/>
  <rect x="273.32" y="1052.21" width="13.39" height="13.39" fill="#231f20"/>
  <rect x="230.62" y="1052.32" width="13.39" height="13.39" fill="#231f20"/>
  <rect x="144.51" y="1052.32" width="13.39" height="13.39" fill="#231f20"/>
  <rect x="187.51" y="1052.32" width="13.39" height="13.39" fill="#231f20"/>
  <rect x="357.85" y="792.94" width="13.39" height="13.39" fill="#231f20"/>
  <rect x="314.56" y="1009.08" width="13.39" height="13.39" fill="#231f20"/>
  <rect x="273.32" y="1009.08" width="13.39" height="13.39" fill="#231f20"/>
  <rect x="314.56" y="965.65" width="13.39" height="13.39" fill="#231f20"/>
  <rect x="103.06" y="922.7" width="13.39" height="13.39" fill="#231f20"/>
  <rect x="57.46" y="922.7" width="13.39" height="13.39" fill="#231f20"/>
  <rect x="14.17" y="922.7" width="13.39" height="13.39" fill="#231f20"/>
  <rect x="357.85" y="749.94" width="13.39" height="13.39" fill="#231f20"/>
  <rect x="314.56" y="749.94" width="13.39" height="13.39" fill="#231f20"/>
  <rect x="273.32" y="965.65" width="13.39" height="13.39" fill="#231f20"/>
  <rect x="187.51" y="965.65" width="13.39" height="13.39" fill="#231f20"/>
  <rect x="489.56" y="922.7" width="13.39" height="13.39" fill="#231f20"/>
  <rect x="448.32" y="922.7" width="13.39" height="13.39" fill="#231f20"/>
  <rect x="489.56" y="1009.08" width="13.39" height="13.39" fill="#231f20"/>
  <rect x="448.32" y="1009.08" width="13.39" height="13.39" fill="#231f20"/>
</svg>