<?xml version="1.0" encoding="UTF-8"?>
<svg id="_19" data-name="19" xmlns="http://www.w3.org/2000/svg" viewBox="0 0 1080 1080">
  <rect x="304.18" y="476.95" width="40.84" height="40.84" fill="#231f20"/>
  <rect x="304.18" y="520.09" width="40.84" height="40.84" fill="#231f20"/>
  <rect x="346.62" y="476.95" width="40.84" height="40.84" fill="#231f20"/>
  <rect x="346.62" y="520.09" width="40.84" height="40.84" fill="#231f20"/>
  <rect x="390.58" y="476.95" width="40.84" height="40.84" fill="#231f20"/>
  <rect x="390.58" y="520.09" width="40.84" height="40.84" fill="#231f20"/>
  <rect x="433.01" y="476.95" width="40.84" height="40.84" fill="#231f20"/>
  <rect x="304.18" y="433.59" width="40.84" height="40.84" fill="#231f20"/>
  <rect x="346.62" y="433.59" width="40.84" height="40.84" fill="#231f20"/>
  <rect x="390.58" y="433.59" width="40.84" height="40.84" fill="#231f20"/>
  <rect x="433.01" y="433.59" width="40.84" height="40.84" fill="#231f20"/>
  <rect x="433.01" y="520.09" width="40.84" height="40.84" fill="#231f20"/>
  <rect x="476.51" y="477.04" width="40.84" height="40.84" fill="#231f20"/>
  <rect x="476.51" y="520.18" width="40.84" height="40.84" fill="#231f20"/>
  <rect x="519.46" y="476.95" width="40.84" height="40.84" fill="#231f20"/>
  <rect x="476.51" y="433.68" width="40.84" height="40.84" fill="#231f20"/>
  <rect x="519.46" y="433.59" width="40.84" height="40.84" fill="#231f20"/>
  <rect x="562.32" y="476.95" width="40.84" height="40.84" fill="#231f20"/>
  <rect x="562.32" y="433.59" width="40.84" height="40.84" fill="#231f20"/>
  <rect x="605.91" y="476.95" width="40.84" height="40.84" fill="#231f20"/>
  <rect x="648.77" y="476.95" width="40.84" height="40.84" fill="#231f20"/>
  <rect x="605.91" y="433.59" width="40.84" height="40.84" fill="#231f20"/>
  <rect x="648.77" y="433.59" width="40.84" height="40.84" fill="#231f20"/>
  <rect x="691.64" y="476.95" width="40.84" height="40.84" fill="#231f20"/>
  <rect x="691.64" y="433.59" width="40.84" height="40.84" fill="#231f20"/>
  <rect x="735.23" y="476.95" width="40.84" height="40.84" fill="#231f20"/>
  <rect x="778.09" y="476.95" width="40.84" height="40.84" fill="#231f20"/>
  <rect x="735.23" y="433.59" width="40.84" height="40.84" fill="#231f20"/>
  <rect x="605.91" y="389.74" width="40.84" height="40.84" fill="#231f20"/>
  <rect x="648.77" y="389.74" width="40.84" height="40.84" fill="#231f20"/>
  <rect x="605.91" y="346.54" width="40.84" height="40.84" fill="#231f20"/>
  <rect x="648.77" y="346.54" width="40.84" height="40.84" fill="#231f20"/>
  <rect x="605.91" y="303.02" width="40.84" height="40.84" fill="#231f20"/>
  <rect x="648.77" y="303.02" width="40.84" height="40.84" fill="#231f20"/>
  <rect x="605.91" y="260.04" width="40.84" height="40.84" fill="#231f20"/>
  <rect x="648.77" y="260.04" width="40.84" height="40.84" fill="#231f20"/>
  <rect x="605.91" y="217.58" width="40.84" height="40.84" fill="#231f20"/>
  <rect x="562.32" y="217.58" width="40.84" height="40.84" fill="#231f20"/>
  <rect x="648.77" y="217.58" width="40.84" height="40.84" fill="#231f20"/>
  <rect x="519.63" y="217.58" width="40.84" height="40.84" fill="#231f20"/>
  <rect x="605.91" y="174.65" width="40.84" height="40.84" fill="#231f20"/>
  <rect x="562.32" y="174.65" width="40.84" height="40.84" fill="#231f20"/>
  <rect x="648.77" y="174.65" width="40.84" height="40.84" fill="#231f20"/>
  <rect x="519.63" y="174.65" width="40.84" height="40.84" fill="#231f20"/>
  <rect x="605.91" y="131.4" width="40.84" height="40.84" fill="#231f20"/>
  <rect x="562.32" y="131.4" width="40.84" height="40.84" fill="#231f20"/>
  <rect x="648.77" y="131.4" width="40.84" height="40.84" fill="#231f20"/>
  <rect x="519.63" y="131.4" width="40.84" height="40.84" fill="#231f20"/>
  <rect x="433.34" y="131.4" width="40.84" height="40.84" fill="#231f20"/>
  <rect x="390.58" y="131.4" width="40.84" height="40.84" fill="#231f20"/>
  <rect x="476.2" y="131.4" width="40.84" height="40.84" fill="#231f20"/>
  <rect x="346.62" y="131.4" width="40.84" height="40.84" fill="#231f20"/>
  <rect x="605.91" y="88.02" width="40.84" height="40.84" fill="#231f20"/>
  <rect x="562.32" y="88.02" width="40.84" height="40.84" fill="#231f20"/>
  <rect x="648.77" y="88.02" width="40.84" height="40.84" fill="#231f20"/>
  <rect x="519.63" y="88.02" width="40.84" height="40.84" fill="#231f20"/>
  <rect x="433.34" y="88.02" width="40.84" height="40.84" fill="#231f20"/>
  <rect x="390.58" y="88.02" width="40.84" height="40.84" fill="#231f20"/>
  <rect x="476.2" y="88.02" width="40.84" height="40.84" fill="#231f20"/>
  <rect x="346.62" y="88.02" width="40.84" height="40.84" fill="#231f20"/>
  <rect x="605.91" y="44.59" width="40.84" height="40.84" fill="#231f20"/>
  <rect x="562.32" y="44.59" width="40.84" height="40.84" fill="#231f20"/>
  <rect x="648.77" y="44.59" width="40.84" height="40.84" fill="#231f20"/>
  <rect x="519.63" y="44.59" width="40.84" height="40.84" fill="#231f20"/>
  <rect x="433.34" y="44.59" width="40.84" height="40.84" fill="#231f20"/>
  <rect x="390.58" y="44.59" width="40.84" height="40.84" fill="#231f20"/>
  <rect x="476.2" y="44.59" width="40.84" height="40.84" fill="#231f20"/>
  <rect x="346.62" y="44.59" width="40.84" height="40.84" fill="#231f20"/>
  <rect x="260.54" y="44.59" width="40.84" height="40.84" fill="#231f20"/>
  <rect x="216.95" y="44.59" width="40.84" height="40.84" fill="#231f20"/>
  <rect x="304.18" y="44.59" width="40.84" height="40.84" fill="#231f20"/>
  <rect x="174.26" y="44.59" width="40.84" height="40.84" fill="#231f20"/>
  <rect x="562.32" y="1.08" width="40.84" height="40.84" fill="#231f20"/>
  <rect x="519.63" y="1.08" width="40.84" height="40.84" fill="#231f20"/>
  <rect x="433.34" y="1.08" width="40.84" height="40.84" fill="#231f20"/>
  <rect x="390.58" y="1.08" width="40.84" height="40.84" fill="#231f20"/>
  <rect x="476.2" y="1.08" width="40.84" height="40.84" fill="#231f20"/>
  <rect x="346.62" y="1.08" width="40.84" height="40.84" fill="#231f20"/>
  <rect x="260.54" y="1.08" width="40.84" height="40.84" fill="#231f20"/>
  <rect x="216.95" y="1.08" width="40.84" height="40.84" fill="#231f20"/>
  <rect x="304.18" y="1.08" width="40.84" height="40.84" fill="#231f20"/>
  <rect x="174.26" y="1.08" width="40.84" height="40.84" fill="#231f20"/>
  <rect x="259.79" y="131.4" width="40.84" height="40.84" fill="#231f20"/>
  <rect x="259.79" y="88.02" width="40.84" height="40.84" fill="#231f20"/>
  <rect x="691.64" y="389.74" width="40.84" height="40.84" fill="#231f20"/>
  <rect x="735.23" y="389.74" width="40.84" height="40.84" fill="#231f20"/>
  <rect x="778.09" y="433.59" width="40.84" height="40.84" fill="#231f20"/>
  <rect x="821.57" y="433.59" width="40.84" height="40.84" fill="#231f20"/>
  <rect x="865.33" y="433.59" width="40.84" height="40.84" fill="#231f20"/>
  <rect x="778.09" y="389.74" width="40.84" height="40.84" fill="#231f20"/>
  <rect x="821.57" y="389.74" width="40.84" height="40.84" fill="#231f20"/>
  <rect x="865.33" y="389.74" width="40.84" height="40.84" fill="#231f20"/>
  <rect x="908.17" y="389.74" width="40.84" height="40.84" fill="#231f20"/>
  <rect x="950.94" y="389.74" width="40.84" height="40.84" fill="#231f20"/>
  <rect x="994.72" y="389.74" width="40.84" height="40.84" fill="#231f20"/>
  <rect x="1038.06" y="389.74" width="40.84" height="40.84" fill="#231f20"/>
  <rect x="908.17" y="346.54" width="40.84" height="40.84" fill="#231f20"/>
  <rect x="950.94" y="346.54" width="40.84" height="40.84" fill="#231f20"/>
  <rect x="994.72" y="346.54" width="40.84" height="40.84" fill="#231f20"/>
  <rect x="1038.06" y="346.54" width="40.84" height="40.84" fill="#231f20"/>
  <rect x="950.4" y="303.02" width="40.84" height="40.84" fill="#231f20"/>
  <rect x="994.72" y="303.02" width="40.84" height="40.84" fill="#231f20"/>
  <rect x="1038.06" y="303.02" width="40.84" height="40.84" fill="#231f20"/>
  <rect x="950.4" y="260.04" width="40.84" height="40.84" fill="#231f20"/>
  <rect x="994.72" y="260.04" width="40.84" height="40.84" fill="#231f20"/>
  <rect x="1038.06" y="260.04" width="40.84" height="40.84" fill="#231f20"/>
  <rect x="994.72" y="217.58" width="40.84" height="40.84" fill="#231f20"/>
  <rect x="1038.06" y="217.58" width="40.84" height="40.84" fill="#231f20"/>
  <rect x="519.46" y="520.09" width="40.84" height="40.84" fill="#231f20"/>
  <rect x="476.51" y="562.61" width="40.84" height="40.84" fill="#231f20"/>
  <rect x="519.46" y="562.52" width="40.84" height="40.84" fill="#231f20"/>
  <rect x="519.46" y="606.88" width="40.84" height="40.84" fill="#231f20"/>
  <rect x="563.81" y="692.86" width="40.84" height="40.84" fill="#231f20"/>
  <rect x="390.58" y="606.88" width="40.84" height="40.84" fill="#231f20"/>
  <rect x="433.01" y="606.88" width="40.84" height="40.84" fill="#231f20"/>
  <rect x="433.01" y="650.13" width="40.84" height="40.84" fill="#231f20"/>
  <rect x="304.18" y="563.23" width="40.84" height="40.84" fill="#231f20"/>
  <rect x="260.13" y="563.23" width="40.84" height="40.84" fill="#231f20"/>
  <rect x="346.62" y="563.23" width="40.84" height="40.84" fill="#231f20"/>
  <rect x="87.25" y="563.23" width="40.84" height="40.84" fill="#231f20"/>
  <rect x="44.1" y="563.23" width="40.84" height="40.84" fill="#231f20"/>
  <rect x="1.36" y="563.23" width="40.84" height="40.84" fill="#231f20"/>
  <rect x="87.25" y="606.88" width="40.84" height="40.84" fill="#231f20"/>
  <rect x="44.1" y="606.88" width="40.84" height="40.84" fill="#231f20"/>
  <rect x="1.36" y="606.88" width="40.84" height="40.84" fill="#231f20"/>
  <rect x="87.25" y="650.13" width="40.84" height="40.84" fill="#231f20"/>
  <rect x="44.1" y="650.13" width="40.84" height="40.84" fill="#231f20"/>
  <rect x="1.36" y="650.13" width="40.84" height="40.84" fill="#231f20"/>
  <rect x="1.36" y="433.59" width="40.84" height="40.84" fill="#231f20"/>
  <rect x="1.36" y="476.95" width="40.84" height="40.84" fill="#231f20"/>
  <rect x="44.1" y="476.95" width="40.84" height="40.84" fill="#231f20"/>
  <rect x="1.36" y="520.09" width="40.84" height="40.84" fill="#231f20"/>
  <rect x="87.25" y="692.86" width="40.84" height="40.84" fill="#231f20"/>
  <rect x="44.1" y="692.86" width="40.84" height="40.84" fill="#231f20"/>
  <rect x="1.36" y="692.86" width="40.84" height="40.84" fill="#231f20"/>
  <rect x="87.25" y="736.23" width="40.84" height="40.84" fill="#231f20"/>
  <rect x="44.1" y="736.23" width="40.84" height="40.84" fill="#231f20"/>
  <rect x="1.36" y="736.23" width="40.84" height="40.84" fill="#231f20"/>
  <rect x="87.39" y="865.21" width="40.84" height="40.84" fill="#231f20"/>
  <rect x="44.44" y="865.21" width="40.84" height="40.84" fill="#231f20"/>
  <rect x="1.5" y="865.21" width="40.84" height="40.84" fill="#231f20"/>
  <rect x="1.08" y="951.74" width="40.84" height="40.84" fill="#231f20"/>
  <rect x="44.23" y="951.74" width="40.84" height="40.84" fill="#231f20"/>
  <rect x="44.44" y="908.4" width="40.84" height="40.84" fill="#231f20"/>
  <rect x="1.5" y="908.4" width="40.84" height="40.84" fill="#231f20"/>
  <rect x="1.08" y="1038.6" width="40.84" height="40.84" fill="#231f20"/>
  <rect x="44.23" y="1038.6" width="40.84" height="40.84" fill="#231f20"/>
  <rect x="44.23" y="995.08" width="40.84" height="40.84" fill="#231f20"/>
  <rect x="1.08" y="995.08" width="40.84" height="40.84" fill="#231f20"/>
  <rect x="217.45" y="736.23" width="40.84" height="40.84" fill="#231f20"/>
  <rect x="174.3" y="736.23" width="40.84" height="40.84" fill="#231f20"/>
  <rect x="217.21" y="692.86" width="40.84" height="40.84" fill="#231f20"/>
  <rect x="174.05" y="692.86" width="40.84" height="40.84" fill="#231f20"/>
  <rect x="217.21" y="650.13" width="40.84" height="40.84" fill="#231f20"/>
  <rect x="174.05" y="650.13" width="40.84" height="40.84" fill="#231f20"/>
  <rect x="304.18" y="692.86" width="40.84" height="40.84" fill="#231f20"/>
  <rect x="346.62" y="692.86" width="40.84" height="40.84" fill="#231f20"/>
  <rect x="346.62" y="736.23" width="40.84" height="40.84" fill="#231f20"/>
  <rect x="346.62" y="779.32" width="40.84" height="40.84" fill="#231f20"/>
  <rect x="346.62" y="822.28" width="40.84" height="40.84" fill="#231f20"/>
  <rect x="346.62" y="865.21" width="40.84" height="40.84" fill="#231f20"/>
  <rect x="346.62" y="908.4" width="40.84" height="40.84" fill="#231f20"/>
  <rect x="346.62" y="951.74" width="40.84" height="40.84" fill="#231f20"/>
  <rect x="346.62" y="995.08" width="40.84" height="40.84" fill="#231f20"/>
  <rect x="304.18" y="865.21" width="40.84" height="40.84" fill="#231f20"/>
  <rect x="304.18" y="908.4" width="40.84" height="40.84" fill="#231f20"/>
  <rect x="304.18" y="951.74" width="40.84" height="40.84" fill="#231f20"/>
  <rect x="304.18" y="995.08" width="40.84" height="40.84" fill="#231f20"/>
  <rect x="346.62" y="1038.6" width="40.84" height="40.84" fill="#231f20"/>
  <rect x="390.58" y="822.28" width="40.84" height="40.84" fill="#231f20"/>
  <rect x="390.58" y="865.21" width="40.84" height="40.84" fill="#231f20"/>
  <rect x="390.58" y="908.4" width="40.84" height="40.84" fill="#231f20"/>
  <rect x="390.58" y="951.74" width="40.84" height="40.84" fill="#231f20"/>
  <rect x="390.58" y="995.08" width="40.84" height="40.84" fill="#231f20"/>
  <rect x="390.58" y="1038.6" width="40.84" height="40.84" fill="#231f20"/>
  <rect x="433.49" y="822.28" width="40.84" height="40.84" fill="#231f20"/>
  <rect x="433.49" y="865.21" width="40.84" height="40.84" fill="#231f20"/>
  <rect x="433.49" y="908.4" width="40.84" height="40.84" fill="#231f20"/>
  <rect x="433.49" y="951.74" width="40.84" height="40.84" fill="#231f20"/>
  <rect x="433.49" y="995.08" width="40.84" height="40.84" fill="#231f20"/>
  <rect x="433.49" y="1038.6" width="40.84" height="40.84" fill="#231f20"/>
  <rect x="476.51" y="822.37" width="40.84" height="40.84" fill="#231f20"/>
  <rect x="476.51" y="865.3" width="40.84" height="40.84" fill="#231f20"/>
  <rect x="476.51" y="908.49" width="40.84" height="40.84" fill="#231f20"/>
  <rect x="476.51" y="951.83" width="40.84" height="40.84" fill="#231f20"/>
  <rect x="476.51" y="995.17" width="40.84" height="40.84" fill="#231f20"/>
  <rect x="476.51" y="1038.69" width="40.84" height="40.84" fill="#231f20"/>
  <rect x="519.53" y="822.28" width="40.84" height="40.84" fill="#231f20"/>
  <rect x="519.53" y="865.21" width="40.84" height="40.84" fill="#231f20"/>
  <rect x="519.53" y="908.4" width="40.84" height="40.84" fill="#231f20"/>
  <rect x="519.53" y="951.74" width="40.84" height="40.84" fill="#231f20"/>
  <rect x="519.53" y="995.08" width="40.84" height="40.84" fill="#231f20"/>
  <rect x="519.53" y="1038.6" width="40.84" height="40.84" fill="#231f20"/>
  <rect x="562.57" y="822.28" width="40.84" height="40.84" fill="#231f20"/>
  <rect x="562.57" y="865.21" width="40.84" height="40.84" fill="#231f20"/>
  <rect x="562.57" y="908.4" width="40.84" height="40.84" fill="#231f20"/>
  <rect x="562.57" y="951.74" width="40.84" height="40.84" fill="#231f20"/>
  <rect x="562.57" y="995.08" width="40.84" height="40.84" fill="#231f20"/>
  <rect x="562.57" y="1038.6" width="40.84" height="40.84" fill="#231f20"/>
  <rect x="606.31" y="865.21" width="40.84" height="40.84" fill="#231f20"/>
  <rect x="606.31" y="908.4" width="40.84" height="40.84" fill="#231f20"/>
  <rect x="606.31" y="951.74" width="40.84" height="40.84" fill="#231f20"/>
  <rect x="606.31" y="995.08" width="40.84" height="40.84" fill="#231f20"/>
  <rect x="606.31" y="1038.6" width="40.84" height="40.84" fill="#231f20"/>
  <rect x="650.04" y="865.21" width="40.84" height="40.84" fill="#231f20"/>
  <rect x="650.04" y="908.4" width="40.84" height="40.84" fill="#231f20"/>
  <rect x="650.04" y="951.74" width="40.84" height="40.84" fill="#231f20"/>
  <rect x="650.04" y="995.08" width="40.84" height="40.84" fill="#231f20"/>
  <rect x="650.04" y="1038.6" width="40.84" height="40.84" fill="#231f20"/>
  <rect x="692.71" y="865.21" width="40.84" height="40.84" fill="#231f20"/>
  <rect x="692.71" y="908.4" width="40.84" height="40.84" fill="#231f20"/>
  <rect x="650.04" y="779.32" width="40.84" height="40.84" fill="#231f20"/>
  <rect x="650.04" y="822.28" width="40.84" height="40.84" fill="#231f20"/>
  <rect x="692.71" y="779.32" width="40.84" height="40.84" fill="#231f20"/>
  <rect x="692.71" y="822.28" width="40.84" height="40.84" fill="#231f20"/>
  <rect x="692.71" y="951.74" width="40.84" height="40.84" fill="#231f20"/>
  <rect x="692.71" y="995.08" width="40.84" height="40.84" fill="#231f20"/>
  <rect x="692.71" y="1038.6" width="40.84" height="40.84" fill="#231f20"/>
  <rect x="736.33" y="865.21" width="40.84" height="40.84" fill="#231f20"/>
  <rect x="736.33" y="908.4" width="40.84" height="40.84" fill="#231f20"/>
  <rect x="736.33" y="951.74" width="40.84" height="40.84" fill="#231f20"/>
  <rect x="736.33" y="995.08" width="40.84" height="40.84" fill="#231f20"/>
  <rect x="736.33" y="1038.6" width="40.84" height="40.84" fill="#231f20"/>
  <rect x="779" y="865.21" width="40.84" height="40.84" fill="#231f20"/>
  <rect x="779" y="908.4" width="40.84" height="40.84" fill="#231f20"/>
  <rect x="736.33" y="779.32" width="40.84" height="40.84" fill="#231f20"/>
  <rect x="736.33" y="822.28" width="40.84" height="40.84" fill="#231f20"/>
  <rect x="779" y="779.32" width="40.84" height="40.84" fill="#231f20"/>
  <rect x="779" y="822.28" width="40.84" height="40.84" fill="#231f20"/>
  <rect x="779" y="951.74" width="40.84" height="40.84" fill="#231f20"/>
  <rect x="779" y="995.08" width="40.84" height="40.84" fill="#231f20"/>
  <rect x="779" y="1038.6" width="40.84" height="40.84" fill="#231f20"/>
  <rect x="821.57" y="865.21" width="40.84" height="40.84" fill="#231f20"/>
  <rect x="821.57" y="908.4" width="40.84" height="40.84" fill="#231f20"/>
  <rect x="821.57" y="951.74" width="40.84" height="40.84" fill="#231f20"/>
  <rect x="821.57" y="995.08" width="40.84" height="40.84" fill="#231f20"/>
  <rect x="821.57" y="1038.6" width="40.84" height="40.84" fill="#231f20"/>
  <rect x="865.33" y="865.21" width="40.84" height="40.84" fill="#231f20"/>
  <rect x="865.33" y="908.4" width="40.84" height="40.84" fill="#231f20"/>
  <rect x="821.57" y="779.32" width="40.84" height="40.84" fill="#231f20"/>
  <rect x="821.57" y="822.28" width="40.84" height="40.84" fill="#231f20"/>
  <rect x="865.33" y="779.32" width="40.84" height="40.84" fill="#231f20"/>
  <rect x="865.33" y="822.28" width="40.84" height="40.84" fill="#231f20"/>
  <rect x="865.33" y="951.74" width="40.84" height="40.84" fill="#231f20"/>
  <rect x="865.33" y="995.08" width="40.84" height="40.84" fill="#231f20"/>
  <rect x="865.33" y="1038.6" width="40.84" height="40.84" fill="#231f20"/>
  <rect x="908.17" y="865.21" width="40.84" height="40.84" fill="#231f20"/>
  <rect x="908.17" y="908.4" width="40.84" height="40.84" fill="#231f20"/>
  <rect x="908.17" y="951.74" width="40.84" height="40.84" fill="#231f20"/>
  <rect x="908.17" y="995.08" width="40.84" height="40.84" fill="#231f20"/>
  <rect x="908.17" y="1038.6" width="40.84" height="40.84" fill="#231f20"/>
  <rect x="951.41" y="865.21" width="40.84" height="40.84" fill="#231f20"/>
  <rect x="951.41" y="908.4" width="40.84" height="40.84" fill="#231f20"/>
  <rect x="908.17" y="779.32" width="40.84" height="40.84" fill="#231f20"/>
  <rect x="908.17" y="822.28" width="40.84" height="40.84" fill="#231f20"/>
  <rect x="951.41" y="779.32" width="40.84" height="40.84" fill="#231f20"/>
  <rect x="951.41" y="822.28" width="40.84" height="40.84" fill="#231f20"/>
  <rect x="951.41" y="951.74" width="40.84" height="40.84" fill="#231f20"/>
  <rect x="951.41" y="995.08" width="40.84" height="40.84" fill="#231f20"/>
  <rect x="951.41" y="1038.6" width="40.84" height="40.84" fill="#231f20"/>
  <rect x="994.72" y="865.21" width="40.84" height="40.84" fill="#231f20"/>
  <rect x="994.72" y="908.4" width="40.84" height="40.84" fill="#231f20"/>
  <rect x="994.72" y="951.74" width="40.84" height="40.84" fill="#231f20"/>
  <rect x="994.72" y="995.08" width="40.84" height="40.84" fill="#231f20"/>
  <rect x="994.72" y="1038.6" width="40.84" height="40.84" fill="#231f20"/>
  <rect x="1038.06" y="865.21" width="40.84" height="40.84" fill="#231f20"/>
  <rect x="1038.06" y="908.4" width="40.84" height="40.84" fill="#231f20"/>
  <rect x="994.72" y="779.32" width="40.84" height="40.84" fill="#231f20"/>
  <rect x="994.72" y="822.28" width="40.84" height="40.84" fill="#231f20"/>
  <rect x="1038.06" y="779.32" width="40.84" height="40.84" fill="#231f20"/>
  <rect x="1038.06" y="822.28" width="40.84" height="40.84" fill="#231f20"/>
  <rect x="779" y="692.86" width="40.84" height="40.84" fill="#231f20"/>
  <rect x="779" y="736.23" width="40.84" height="40.84" fill="#231f20"/>
  <rect x="736.33" y="736.23" width="40.84" height="40.84" fill="#231f20"/>
  <rect x="821.57" y="692.86" width="40.84" height="40.84" fill="#231f20"/>
  <rect x="821.57" y="736.23" width="40.84" height="40.84" fill="#231f20"/>
  <rect x="865.33" y="692.86" width="40.84" height="40.84" fill="#231f20"/>
  <rect x="865.33" y="736.23" width="40.84" height="40.84" fill="#231f20"/>
  <rect x="908.17" y="692.86" width="40.84" height="40.84" fill="#231f20"/>
  <rect x="908.17" y="736.23" width="40.84" height="40.84" fill="#231f20"/>
  <rect x="951.41" y="692.86" width="40.84" height="40.84" fill="#231f20"/>
  <rect x="951.41" y="736.23" width="40.84" height="40.84" fill="#231f20"/>
  <rect x="994.72" y="692.86" width="40.84" height="40.84" fill="#231f20"/>
  <rect x="994.72" y="736.23" width="40.84" height="40.84" fill="#231f20"/>
  <rect x="1038.06" y="692.86" width="40.84" height="40.84" fill="#231f20"/>
  <rect x="821.57" y="650.13" width="40.84" height="40.84" fill="#231f20"/>
  <rect x="865.33" y="650.13" width="40.84" height="40.84" fill="#231f20"/>
  <rect x="865.33" y="606.88" width="40.84" height="40.84" fill="#231f20"/>
  <rect x="908.17" y="650.13" width="40.84" height="40.84" fill="#231f20"/>
  <rect x="951.41" y="650.13" width="40.84" height="40.84" fill="#231f20"/>
  <rect x="994.72" y="650.13" width="40.84" height="40.84" fill="#231f20"/>
  <rect x="1038.06" y="650.13" width="40.84" height="40.84" fill="#231f20"/>
  <rect x="1038.06" y="736.23" width="40.84" height="40.84" fill="#231f20"/>
  <rect x="1038.06" y="951.74" width="40.84" height="40.84" fill="#231f20"/>
  <rect x="1038.06" y="995.08" width="40.84" height="40.84" fill="#231f20"/>
  <rect x="1038.06" y="1038.6" width="40.84" height="40.84" fill="#231f20"/>
  <rect x="304.18" y="1038.6" width="40.84" height="40.84" fill="#231f20"/>
  <rect x="260.45" y="692.86" width="40.84" height="40.84" fill="#231f20"/>
  <rect x="260.45" y="736.23" width="40.84" height="40.84" fill="#231f20"/>
  <rect x="304.18" y="650.13" width="40.84" height="40.84" fill="#231f20"/>
  <rect x="260.45" y="650.13" width="40.84" height="40.84" fill="#231f20"/>
  <rect x="130.41" y="736.23" width="40.84" height="40.84" fill="#231f20"/>
  <rect x="130.41" y="779.32" width="40.84" height="40.84" fill="#231f20"/>
  <rect x="130.41" y="822.28" width="40.84" height="40.84" fill="#231f20"/>
  <rect x="130.41" y="563.23" width="40.84" height="40.84" fill="#231f20"/>
  <rect x="273.51" y="533.81" width="13.39" height="13.39" fill="#231f20"/>
  <rect x="273.51" y="490.67" width="13.39" height="13.39" fill="#231f20"/>
  <rect x="273.51" y="447.32" width="13.39" height="13.39" fill="#231f20"/>
  <rect x="144.13" y="706.58" width="13.39" height="13.39" fill="#231f20"/>
  <rect x="144.13" y="878.93" width="13.39" height="13.39" fill="#231f20"/>
  <rect x="144.13" y="922.12" width="13.39" height="13.39" fill="#231f20"/>
  <rect x="101.9" y="922.12" width="13.39" height="13.39" fill="#231f20"/>
  <rect x="144.13" y="663.86" width="13.39" height="13.39" fill="#231f20"/>
  <rect x="144.13" y="620.61" width="13.39" height="13.39" fill="#231f20"/>
  <rect x="100.98" y="1052.32" width="13.39" height="13.39" fill="#231f20"/>
  <rect x="100.98" y="1008.8" width="13.39" height="13.39" fill="#231f20"/>
  <rect x="100.98" y="965.46" width="13.39" height="13.39" fill="#231f20"/>
  <rect x="230.48" y="533.81" width="13.39" height="13.39" fill="#231f20"/>
  <rect x="446.62" y="576.96" width="13.39" height="13.39" fill="#231f20"/>
  <rect x="404.3" y="576.96" width="13.39" height="13.39" fill="#231f20"/>
  <rect x="360.34" y="620.61" width="13.39" height="13.39" fill="#231f20"/>
  <rect x="360.34" y="663.86" width="13.39" height="13.39" fill="#231f20"/>
  <rect x="317.9" y="620.61" width="13.39" height="13.39" fill="#231f20"/>
  <rect x="273.85" y="620.61" width="13.39" height="13.39" fill="#231f20"/>
  <rect x="230.48" y="620.61" width="13.39" height="13.39" fill="#231f20"/>
  <rect x="188.02" y="620.61" width="13.39" height="13.39" fill="#231f20"/>
  <rect x="317.9" y="793.04" width="13.39" height="13.39" fill="#231f20"/>
  <rect x="317.9" y="749.96" width="13.39" height="13.39" fill="#231f20"/>
  <rect x="317.9" y="836.01" width="13.39" height="13.39" fill="#231f20"/>
  <rect x="404.3" y="706.58" width="13.39" height="13.39" fill="#231f20"/>
  <rect x="404.3" y="663.86" width="13.39" height="13.39" fill="#231f20"/>
  <rect x="404.3" y="749.96" width="13.39" height="13.39" fill="#231f20"/>
  <rect x="404.3" y="793.04" width="13.39" height="13.39" fill="#231f20"/>
  <rect x="447.24" y="793.04" width="13.39" height="13.39" fill="#231f20"/>
  <rect x="490.24" y="793.13" width="13.39" height="13.39" fill="#231f20"/>
  <rect x="532.01" y="793.04" width="13.39" height="13.39" fill="#231f20"/>
  <rect x="577.54" y="793.04" width="13.39" height="13.39" fill="#231f20"/>
  <rect x="618.77" y="793.04" width="13.39" height="13.39" fill="#231f20"/>
  <rect x="447.24" y="706.58" width="13.39" height="13.39" fill="#231f20"/>
  <rect x="490.24" y="706.67" width="13.39" height="13.39" fill="#231f20"/>
  <rect x="532.37" y="706.58" width="13.39" height="13.39" fill="#231f20"/>
  <rect x="577.54" y="749.96" width="13.39" height="13.39" fill="#231f20"/>
  <rect x="618.77" y="749.96" width="13.39" height="13.39" fill="#231f20"/>
  <rect x="662.68" y="706.58" width="13.39" height="13.39" fill="#231f20"/>
  <rect x="662.68" y="663.86" width="13.39" height="13.39" fill="#231f20"/>
  <rect x="662.68" y="620.61" width="13.39" height="13.39" fill="#231f20"/>
  <rect x="577.54" y="663.86" width="13.39" height="13.39" fill="#231f20"/>
  <rect x="490.24" y="663.95" width="13.39" height="13.39" fill="#231f20"/>
  <rect x="577.54" y="620.61" width="13.39" height="13.39" fill="#231f20"/>
  <rect x="620.72" y="576.25" width="13.39" height="13.39" fill="#231f20"/>
  <rect x="705.17" y="576.3" width="13.39" height="13.39" fill="#231f20"/>
  <rect x="751.07" y="576.3" width="13.39" height="13.39" fill="#231f20"/>
  <rect x="751.07" y="620.61" width="13.39" height="13.39" fill="#231f20"/>
  <rect x="793.03" y="620.61" width="13.39" height="13.39" fill="#231f20"/>
  <rect x="793.03" y="663.86" width="13.39" height="13.39" fill="#231f20"/>
  <rect x="793.03" y="576.3" width="13.39" height="13.39" fill="#231f20"/>
  <rect x="705.17" y="533.81" width="13.39" height="13.39" fill="#231f20"/>
  <rect x="662.68" y="533.81" width="13.39" height="13.39" fill="#231f20"/>
  <rect x="620.72" y="533.81" width="13.39" height="13.39" fill="#231f20"/>
  <rect x="577.54" y="533.81" width="13.39" height="13.39" fill="#231f20"/>
  <rect x="577.81" y="403.46" width="13.39" height="13.39" fill="#231f20"/>
  <rect x="751.07" y="533.81" width="13.39" height="13.39" fill="#231f20"/>
  <rect x="490.24" y="403.55" width="13.39" height="13.39" fill="#231f20"/>
  <rect x="446.76" y="403.46" width="13.39" height="13.39" fill="#231f20"/>
  <rect x="446.76" y="360.26" width="13.39" height="13.39" fill="#231f20"/>
  <rect x="446.76" y="316.75" width="13.39" height="13.39" fill="#231f20"/>
  <rect x="446.76" y="273.76" width="13.39" height="13.39" fill="#231f20"/>
  <rect x="490.19" y="316.75" width="13.39" height="13.39" fill="#231f20"/>
  <rect x="490.19" y="273.76" width="13.39" height="13.39" fill="#231f20"/>
  <rect x="446.76" y="188.37" width="13.39" height="13.39" fill="#231f20"/>
  <rect x="490.19" y="188.37" width="13.39" height="13.39" fill="#231f20"/>
  <rect x="446.76" y="231.31" width="13.39" height="13.39" fill="#231f20"/>
  <rect x="534.66" y="273.76" width="13.39" height="13.39" fill="#231f20"/>
  <rect x="490.19" y="231.31" width="13.39" height="13.39" fill="#231f20"/>
  <rect x="404.3" y="403.46" width="13.39" height="13.39" fill="#231f20"/>
  <rect x="360.34" y="403.46" width="13.39" height="13.39" fill="#231f20"/>
  <rect x="317.9" y="403.46" width="13.39" height="13.39" fill="#231f20"/>
  <rect x="404.3" y="360.26" width="13.39" height="13.39" fill="#231f20"/>
  <rect x="360.34" y="360.26" width="13.39" height="13.39" fill="#231f20"/>
  <rect x="577.81" y="360.26" width="13.39" height="13.39" fill="#231f20"/>
  <rect x="534.66" y="360.26" width="13.39" height="13.39" fill="#231f20"/>
  <rect x="577.81" y="316.75" width="13.39" height="13.39" fill="#231f20"/>
  <rect x="534.66" y="316.75" width="13.39" height="13.39" fill="#231f20"/>
  <rect x="360.34" y="316.75" width="13.39" height="13.39" fill="#231f20"/>
  <rect x="317.9" y="316.75" width="13.39" height="13.39" fill="#231f20"/>
  <rect x="228.42" y="316.75" width="13.39" height="13.39" fill="#231f20"/>
  <rect x="228.42" y="273.76" width="13.39" height="13.39" fill="#231f20"/>
  <rect x="273.51" y="273.76" width="13.39" height="13.39" fill="#231f20"/>
  <rect x="228.42" y="231.31" width="13.39" height="13.39" fill="#231f20"/>
  <rect x="273.51" y="231.31" width="13.39" height="13.39" fill="#231f20"/>
  <rect x="228.42" y="188.37" width="13.39" height="13.39" fill="#231f20"/>
  <rect x="228.42" y="145.13" width="13.39" height="13.39" fill="#231f20"/>
  <rect x="228.42" y="101.75" width="13.39" height="13.39" fill="#231f20"/>
  <rect x="317.9" y="145.13" width="13.39" height="13.39" fill="#231f20"/>
  <rect x="317.9" y="101.75" width="13.39" height="13.39" fill="#231f20"/>
  <rect x="103.74" y="145.13" width="13.39" height="13.39" fill="#231f20"/>
  <rect x="103.74" y="101.75" width="13.39" height="13.39" fill="#231f20"/>
  <rect x="144.61" y="145.13" width="13.39" height="13.39" fill="#231f20"/>
  <rect x="103.74" y="188.37" width="13.39" height="13.39" fill="#231f20"/>
  <rect x="59.27" y="145.13" width="13.39" height="13.39" fill="#231f20"/>
  <rect x="59.27" y="101.75" width="13.39" height="13.39" fill="#231f20"/>
  <rect x="59.27" y="188.37" width="13.39" height="13.39" fill="#231f20"/>
  <rect x="14.81" y="145.13" width="13.39" height="13.39" fill="#231f20"/>
  <rect x="14.81" y="101.75" width="13.39" height="13.39" fill="#231f20"/>
  <rect x="103.74" y="58.31" width="13.39" height="13.39" fill="#231f20"/>
  <rect x="59.27" y="58.31" width="13.39" height="13.39" fill="#231f20"/>
  <rect x="14.81" y="58.31" width="13.39" height="13.39" fill="#231f20"/>
  <rect x="14.81" y="188.37" width="13.39" height="13.39" fill="#231f20"/>
  <rect x="103.74" y="231.31" width="13.39" height="13.39" fill="#231f20"/>
  <rect x="59.27" y="231.31" width="13.39" height="13.39" fill="#231f20"/>
  <rect x="14.81" y="231.31" width="13.39" height="13.39" fill="#231f20"/>
  <rect x="14.81" y="273.76" width="13.39" height="13.39" fill="#231f20"/>
  <rect x="15.09" y="360.26" width="13.39" height="13.39" fill="#231f20"/>
  <rect x="59.27" y="316.75" width="13.39" height="13.39" fill="#231f20"/>
  <rect x="59.27" y="360.26" width="13.39" height="13.39" fill="#231f20"/>
  <rect x="14.81" y="316.75" width="13.39" height="13.39" fill="#231f20"/>
  <rect x="144.61" y="188.37" width="13.39" height="13.39" fill="#231f20"/>
  <rect x="144.61" y="101.75" width="13.39" height="13.39" fill="#231f20"/>
  <rect x="144.61" y="58.31" width="13.39" height="13.39" fill="#231f20"/>
  <rect x="144.61" y="15.81" width="13.39" height="13.39" fill="#231f20"/>
  <rect x="186.51" y="145.13" width="13.39" height="13.39" fill="#231f20"/>
  <rect x="186.51" y="101.75" width="13.39" height="13.39" fill="#231f20"/>
  <rect x="273.51" y="188.37" width="13.39" height="13.39" fill="#231f20"/>
  <rect x="317.9" y="231.31" width="13.39" height="13.39" fill="#231f20"/>
  <rect x="360.34" y="231.31" width="13.39" height="13.39" fill="#231f20"/>
  <rect x="317.9" y="188.37" width="13.39" height="13.39" fill="#231f20"/>
  <rect x="360.34" y="188.37" width="13.39" height="13.39" fill="#231f20"/>
  <rect x="186.71" y="316.75" width="13.39" height="13.39" fill="#231f20"/>
  <rect x="186.71" y="360.26" width="13.39" height="13.39" fill="#231f20"/>
  <rect x="144.13" y="316.75" width="13.39" height="13.39" fill="#231f20"/>
  <rect x="187.58" y="273.76" width="13.39" height="13.39" fill="#231f20"/>
  <rect x="144.61" y="273.76" width="13.39" height="13.39" fill="#231f20"/>
  <rect x="360.34" y="273.76" width="13.39" height="13.39" fill="#231f20"/>
  <rect x="317.9" y="273.76" width="13.39" height="13.39" fill="#231f20"/>
  <rect x="273.51" y="360.26" width="13.39" height="13.39" fill="#231f20"/>
  <rect x="228.42" y="360.26" width="13.39" height="13.39" fill="#231f20"/>
  <rect x="317.9" y="360.26" width="13.39" height="13.39" fill="#231f20"/>
  <rect x="185.45" y="533.81" width="13.39" height="13.39" fill="#231f20"/>
  <rect x="143.5" y="533.81" width="13.39" height="13.39" fill="#231f20"/>
  <rect x="100.31" y="533.81" width="13.39" height="13.39" fill="#231f20"/>
  <rect x="57.35" y="533.81" width="13.39" height="13.39" fill="#231f20"/>
  <rect x="100.98" y="490.67" width="13.39" height="13.39" fill="#231f20"/>
  <rect x="100.98" y="447.32" width="13.39" height="13.39" fill="#231f20"/>
  <rect x="57.35" y="447.32" width="13.39" height="13.39" fill="#231f20"/>
  <rect x="15.09" y="403.46" width="13.39" height="13.39" fill="#231f20"/>
  <rect x="534.66" y="403.46" width="13.39" height="13.39" fill="#231f20"/>
  <rect x="793.03" y="533.81" width="13.39" height="13.39" fill="#231f20"/>
  <rect x="835.3" y="576.3" width="13.39" height="13.39" fill="#231f20"/>
  <rect x="835.3" y="533.81" width="13.39" height="13.39" fill="#231f20"/>
  <rect x="879.06" y="576.3" width="13.39" height="13.39" fill="#231f20"/>
  <rect x="879.06" y="533.81" width="13.39" height="13.39" fill="#231f20"/>
  <rect x="921.9" y="576.3" width="13.39" height="13.39" fill="#231f20"/>
  <rect x="921.9" y="620.61" width="13.39" height="13.39" fill="#231f20"/>
  <rect x="968.36" y="620.61" width="13.39" height="13.39" fill="#231f20"/>
  <rect x="1008.44" y="620.61" width="13.39" height="13.39" fill="#231f20"/>
  <rect x="968.36" y="490.67" width="13.39" height="13.39" fill="#231f20"/>
  <rect x="1008.44" y="490.67" width="13.39" height="13.39" fill="#231f20"/>
  <rect x="1051.78" y="490.67" width="13.39" height="13.39" fill="#231f20"/>
  <rect x="835.3" y="490.67" width="13.39" height="13.39" fill="#231f20"/>
  <rect x="879.06" y="490.67" width="13.39" height="13.39" fill="#231f20"/>
  <rect x="921.9" y="490.67" width="13.39" height="13.39" fill="#231f20"/>
  <rect x="968.36" y="447.32" width="13.39" height="13.39" fill="#231f20"/>
  <rect x="1008.44" y="447.32" width="13.39" height="13.39" fill="#231f20"/>
  <rect x="1051.78" y="447.32" width="13.39" height="13.39" fill="#231f20"/>
  <rect x="921.9" y="447.32" width="13.39" height="13.39" fill="#231f20"/>
  <rect x="1051.78" y="620.61" width="13.39" height="13.39" fill="#231f20"/>
  <rect x="921.9" y="533.81" width="13.39" height="13.39" fill="#231f20"/>
  <rect x="921.9" y="273.76" width="13.39" height="13.39" fill="#231f20"/>
  <rect x="921.9" y="231.31" width="13.39" height="13.39" fill="#231f20"/>
  <rect x="964.12" y="231.31" width="13.39" height="13.39" fill="#231f20"/>
  <rect x="964.12" y="188.37" width="13.39" height="13.39" fill="#231f20"/>
  <rect x="921.9" y="316.75" width="13.39" height="13.39" fill="#231f20"/>
  <rect x="879.06" y="273.76" width="13.39" height="13.39" fill="#231f20"/>
  <rect x="879.06" y="231.31" width="13.39" height="13.39" fill="#231f20"/>
  <rect x="921.9" y="188.37" width="13.39" height="13.39" fill="#231f20"/>
  <rect x="1051.78" y="188.37" width="13.39" height="13.39" fill="#231f20"/>
  <rect x="1008.44" y="188.37" width="13.39" height="13.39" fill="#231f20"/>
  <rect x="879.06" y="188.37" width="13.39" height="13.39" fill="#231f20"/>
  <rect x="663.15" y="14.8" width="13.39" height="13.39" fill="#231f20"/>
  <rect x="707.24" y="14.8" width="13.39" height="13.39" fill="#231f20"/>
  <rect x="621.01" y="14.8" width="13.39" height="13.39" fill="#231f20"/>
  <rect x="707.24" y="273.76" width="13.39" height="13.39" fill="#231f20"/>
  <rect x="707.24" y="231.31" width="13.39" height="13.39" fill="#231f20"/>
  <rect x="707.24" y="188.37" width="13.39" height="13.39" fill="#231f20"/>
  <rect x="707.24" y="145.13" width="13.39" height="13.39" fill="#231f20"/>
  <rect x="707.24" y="101.75" width="13.39" height="13.39" fill="#231f20"/>
  <rect x="707.24" y="58.31" width="13.39" height="13.39" fill="#231f20"/>
  <rect x="879.06" y="316.75" width="13.39" height="13.39" fill="#231f20"/>
  <rect x="879.06" y="360.26" width="13.39" height="13.39" fill="#231f20"/>
  <rect x="835.3" y="316.75" width="13.39" height="13.39" fill="#231f20"/>
  <rect x="835.3" y="360.26" width="13.39" height="13.39" fill="#231f20"/>
  <rect x="791.81" y="360.26" width="13.39" height="13.39" fill="#231f20"/>
  <rect x="1051.78" y="576.3" width="13.39" height="13.39" fill="#231f20"/>
  <rect x="1051.78" y="533.81" width="13.39" height="13.39" fill="#231f20"/>
  <rect x="835.3" y="620.61" width="13.39" height="13.39" fill="#231f20"/>
  <rect x="620.72" y="706.58" width="13.39" height="13.39" fill="#231f20"/>
  <rect x="705.17" y="706.58" width="13.39" height="13.39" fill="#231f20"/>
  <rect x="705.17" y="663.86" width="13.39" height="13.39" fill="#231f20"/>
  <rect x="747.66" y="706.58" width="13.39" height="13.39" fill="#231f20"/>
  <rect x="705.17" y="749.96" width="13.39" height="13.39" fill="#231f20"/>
  <rect x="618.77" y="836.01" width="13.39" height="13.39" fill="#231f20"/>
  <rect x="274.18" y="878.93" width="13.39" height="13.39" fill="#231f20"/>
  <rect x="274.18" y="836.01" width="13.39" height="13.39" fill="#231f20"/>
  <rect x="274.18" y="922.12" width="13.39" height="13.39" fill="#231f20"/>
  <rect x="274.18" y="1008.8" width="13.39" height="13.39" fill="#231f20"/>
  <rect x="274.18" y="965.46" width="13.39" height="13.39" fill="#231f20"/>
  <rect x="274.18" y="1052.32" width="13.39" height="13.39" fill="#231f20"/>
  <rect x="234.37" y="1052.32" width="13.39" height="13.39" fill="#231f20"/>
  <rect x="273.85" y="793.04" width="13.39" height="13.39" fill="#231f20"/>
  <rect x="230.48" y="793.04" width="13.39" height="13.39" fill="#231f20"/>
  <rect x="188.02" y="793.04" width="13.39" height="13.39" fill="#231f20"/>
  <rect x="188.02" y="836.01" width="13.39" height="13.39" fill="#231f20"/>
  <rect x="101.9" y="793.04" width="13.39" height="13.39" fill="#231f20"/>
  <rect x="57.11" y="793.04" width="13.39" height="13.39" fill="#231f20"/>
  <rect x="13.74" y="793.04" width="13.39" height="13.39" fill="#231f20"/>
  <rect x="101.9" y="836.01" width="13.39" height="13.39" fill="#231f20"/>
  <rect x="57.11" y="836.01" width="13.39" height="13.39" fill="#231f20"/>
  <rect x="13.74" y="836.01" width="13.39" height="13.39" fill="#231f20"/>
  <rect x="230.48" y="577.72" width="13.39" height="13.39" fill="#231f20"/>
  <rect x="187.78" y="577.72" width="13.39" height="13.39" fill="#231f20"/>
  <rect x="230.48" y="490.67" width="13.39" height="13.39" fill="#231f20"/>
</svg>