<?xml version="1.0" encoding="UTF-8"?>
<svg id="_20" data-name="20" xmlns="http://www.w3.org/2000/svg" viewBox="0 0 1080 1080">
  <rect x="476.36" y="477.86" width="40.84" height="40.84" fill="#231f20"/>
  <rect x="519.95" y="477.86" width="40.84" height="40.84" fill="#231f20"/>
  <rect x="519.67" y="521.22" width="40.84" height="40.84" fill="#231f20"/>
  <rect x="519.67" y="564.5" width="40.84" height="40.84" fill="#231f20"/>
  <rect x="994.97" y="694.22" width="40.84" height="40.84" fill="#231f20"/>
  <rect x="951.83" y="694.22" width="40.84" height="40.84" fill="#231f20"/>
  <rect x="908.69" y="694.22" width="40.84" height="40.84" fill="#231f20"/>
  <rect x="951.83" y="650.41" width="40.84" height="40.84" fill="#231f20"/>
  <rect x="951.83" y="607.66" width="40.84" height="40.84" fill="#231f20"/>
  <rect x="994.97" y="736.97" width="40.84" height="40.84" fill="#231f20"/>
  <rect x="994.97" y="563.88" width="40.84" height="40.84" fill="#231f20"/>
  <rect x="1037.9" y="434.45" width="40.84" height="40.84" fill="#231f20"/>
  <rect x="994.97" y="607.66" width="40.84" height="40.84" fill="#231f20"/>
  <rect x="994.97" y="781.12" width="40.84" height="40.84" fill="#231f20"/>
  <rect x="951.83" y="825.13" width="40.84" height="40.84" fill="#231f20"/>
  <rect x="994.97" y="866.52" width="40.84" height="40.84" fill="#231f20"/>
  <rect x="994.97" y="909.65" width="40.84" height="40.84" fill="#231f20"/>
  <rect x="994.97" y="953.3" width="40.84" height="40.84" fill="#231f20"/>
  <rect x="994.81" y="996.31" width="40.84" height="40.84" fill="#231f20"/>
  <rect x="1038.03" y="996.31" width="40.84" height="40.84" fill="#231f20"/>
  <rect x="951.59" y="996.31" width="40.84" height="40.84" fill="#231f20"/>
  <rect x="908.54" y="996.31" width="40.84" height="40.84" fill="#231f20"/>
  <rect x="951.83" y="736.97" width="40.84" height="40.84" fill="#231f20"/>
  <rect x="908.69" y="736.97" width="40.84" height="40.84" fill="#231f20"/>
  <rect x="865.56" y="736.97" width="40.84" height="40.84" fill="#231f20"/>
  <rect x="174.32" y="564.59" width="40.84" height="40.84" fill="#231f20"/>
  <rect x="1.25" y="391.65" width="40.84" height="40.84" fill="#231f20"/>
  <rect x="1.25" y="348.5" width="40.84" height="40.84" fill="#231f20"/>
  <rect x="174.32" y="607.66" width="40.84" height="40.84" fill="#231f20"/>
  <rect x="44.57" y="564.59" width="40.84" height="40.84" fill="#231f20"/>
  <rect x="1.4" y="564.59" width="40.84" height="40.84" fill="#231f20"/>
  <rect x="44.57" y="736.97" width="40.84" height="40.84" fill="#231f20"/>
  <rect x="1.4" y="736.97" width="40.84" height="40.84" fill="#231f20"/>
  <rect x="1.4" y="780.42" width="40.84" height="40.84" fill="#231f20"/>
  <rect x="1.52" y="823.52" width="40.84" height="40.84" fill="#231f20"/>
  <rect x="44.7" y="953.3" width="40.84" height="40.84" fill="#231f20"/>
  <rect x="44.39" y="1039.38" width="40.84" height="40.84" fill="#231f20"/>
  <rect x="1.16" y="1039.38" width="40.84" height="40.84" fill="#231f20"/>
  <rect x="346.78" y="1039.38" width="40.84" height="40.84" fill="#231f20"/>
  <rect x="303.13" y="1039.38" width="40.84" height="40.84" fill="#231f20"/>
  <rect x="433.18" y="1039.38" width="40.84" height="40.84" fill="#231f20"/>
  <rect x="476.08" y="996.31" width="40.84" height="40.84" fill="#231f20"/>
  <rect x="519.51" y="953.3" width="40.84" height="40.84" fill="#231f20"/>
  <rect x="389.53" y="1039.38" width="40.84" height="40.84" fill="#231f20"/>
  <rect x="1.4" y="953.3" width="40.84" height="40.84" fill="#231f20"/>
  <rect x="1.32" y="996.31" width="40.84" height="40.84" fill="#231f20"/>
  <rect x="476.36" y="434.64" width="40.84" height="40.84" fill="#231f20"/>
  <rect x="476.36" y="391.42" width="40.84" height="40.84" fill="#231f20"/>
  <rect x="476.36" y="348.2" width="40.84" height="40.84" fill="#231f20"/>
  <rect x="432.78" y="348.45" width="40.84" height="40.84" fill="#231f20"/>
  <rect x="476.36" y="261.77" width="40.84" height="40.84" fill="#231f20"/>
  <rect x="476.36" y="218.55" width="40.84" height="40.84" fill="#231f20"/>
  <rect x="476.36" y="175.33" width="40.84" height="40.84" fill="#231f20"/>
  <rect x="476.36" y="132.11" width="40.84" height="40.84" fill="#231f20"/>
  <rect x="476.36" y="88.89" width="40.84" height="40.84" fill="#231f20"/>
  <rect x="519.67" y="46.21" width="40.84" height="40.84" fill="#231f20"/>
  <rect x="519.67" y="2.86" width="40.84" height="40.84" fill="#231f20"/>
  <rect x="562.97" y="46.21" width="40.84" height="40.84" fill="#231f20"/>
  <rect x="476.36" y="45.67" width="40.84" height="40.84" fill="#231f20"/>
  <rect x="476.36" y="2.45" width="40.84" height="40.84" fill="#231f20"/>
  <rect x="389.52" y="89.24" width="40.84" height="40.84" fill="#231f20"/>
  <rect x="476.36" y="304.98" width="40.84" height="40.84" fill="#231f20"/>
  <rect x="519.95" y="304.62" width="40.84" height="40.84" fill="#231f20"/>
  <rect x="445.36" y="491.99" width="13.39" height="13.39" fill="#231f20"/>
  <rect x="445.36" y="447.37" width="13.39" height="13.39" fill="#231f20"/>
  <rect x="445.36" y="404.74" width="13.39" height="13.39" fill="#231f20"/>
  <rect x="490.09" y="621.38" width="13.39" height="13.39" fill="#231f20"/>
  <rect x="490.09" y="579.47" width="13.39" height="13.39" fill="#231f20"/>
  <rect x="490.09" y="536.85" width="13.39" height="13.39" fill="#231f20"/>
  <rect x="577.22" y="621.38" width="13.39" height="13.39" fill="#231f20"/>
  <rect x="533.39" y="621.38" width="13.39" height="13.39" fill="#231f20"/>
  <rect x="492.96" y="666.46" width="13.39" height="13.39" fill="#231f20"/>
  <rect x="492.96" y="794.85" width="13.39" height="13.39" fill="#231f20"/>
  <rect x="492.96" y="750.69" width="13.39" height="13.39" fill="#231f20"/>
  <rect x="492.96" y="707.95" width="13.39" height="13.39" fill="#231f20"/>
  <rect x="492.96" y="838.86" width="13.39" height="13.39" fill="#231f20"/>
  <rect x="536.26" y="794.85" width="13.39" height="13.39" fill="#231f20"/>
  <rect x="536.26" y="750.69" width="13.39" height="13.39" fill="#231f20"/>
  <rect x="536.26" y="707.95" width="13.39" height="13.39" fill="#231f20"/>
  <rect x="536.26" y="838.86" width="13.39" height="13.39" fill="#231f20"/>
  <rect x="579.56" y="794.85" width="13.39" height="13.39" fill="#231f20"/>
  <rect x="579.56" y="750.69" width="13.39" height="13.39" fill="#231f20"/>
  <rect x="579.56" y="707.95" width="13.39" height="13.39" fill="#231f20"/>
  <rect x="579.56" y="838.86" width="13.39" height="13.39" fill="#231f20"/>
  <rect x="580.09" y="666.46" width="13.39" height="13.39" fill="#231f20"/>
  <rect x="536.26" y="666.46" width="13.39" height="13.39" fill="#231f20"/>
  <rect x="359.94" y="621.38" width="13.39" height="13.39" fill="#231f20"/>
  <rect x="447.08" y="621.38" width="13.39" height="13.39" fill="#231f20"/>
  <rect x="403.25" y="621.38" width="13.39" height="13.39" fill="#231f20"/>
  <rect x="362.81" y="666.46" width="13.39" height="13.39" fill="#231f20"/>
  <rect x="362.81" y="794.85" width="13.39" height="13.39" fill="#231f20"/>
  <rect x="362.81" y="750.69" width="13.39" height="13.39" fill="#231f20"/>
  <rect x="362.81" y="707.95" width="13.39" height="13.39" fill="#231f20"/>
  <rect x="362.81" y="838.86" width="13.39" height="13.39" fill="#231f20"/>
  <rect x="406.11" y="794.85" width="13.39" height="13.39" fill="#231f20"/>
  <rect x="406.11" y="750.69" width="13.39" height="13.39" fill="#231f20"/>
  <rect x="406.11" y="707.95" width="13.39" height="13.39" fill="#231f20"/>
  <rect x="406.11" y="838.86" width="13.39" height="13.39" fill="#231f20"/>
  <rect x="449.42" y="794.85" width="13.39" height="13.39" fill="#231f20"/>
  <rect x="449.42" y="750.69" width="13.39" height="13.39" fill="#231f20"/>
  <rect x="449.42" y="707.95" width="13.39" height="13.39" fill="#231f20"/>
  <rect x="449.42" y="838.86" width="13.39" height="13.39" fill="#231f20"/>
  <rect x="449.95" y="666.46" width="13.39" height="13.39" fill="#231f20"/>
  <rect x="406.11" y="666.46" width="13.39" height="13.39" fill="#231f20"/>
  <rect x="230.73" y="621.38" width="13.39" height="13.39" fill="#231f20"/>
  <rect x="317.87" y="621.38" width="13.39" height="13.39" fill="#231f20"/>
  <rect x="274.03" y="621.38" width="13.39" height="13.39" fill="#231f20"/>
  <rect x="359.94" y="579.47" width="13.39" height="13.39" fill="#231f20"/>
  <rect x="447.08" y="579.47" width="13.39" height="13.39" fill="#231f20"/>
  <rect x="403.25" y="579.47" width="13.39" height="13.39" fill="#231f20"/>
  <rect x="230.73" y="579.47" width="13.39" height="13.39" fill="#231f20"/>
  <rect x="317.87" y="579.47" width="13.39" height="13.39" fill="#231f20"/>
  <rect x="274.03" y="579.47" width="13.39" height="13.39" fill="#231f20"/>
  <rect x="359.94" y="536.85" width="13.39" height="13.39" fill="#231f20"/>
  <rect x="447.08" y="536.85" width="13.39" height="13.39" fill="#231f20"/>
  <rect x="403.25" y="536.85" width="13.39" height="13.39" fill="#231f20"/>
  <rect x="230.73" y="536.85" width="13.39" height="13.39" fill="#231f20"/>
  <rect x="317.87" y="536.85" width="13.39" height="13.39" fill="#231f20"/>
  <rect x="274.03" y="536.85" width="13.39" height="13.39" fill="#231f20"/>
  <rect x="144.3" y="536.85" width="13.39" height="13.39" fill="#231f20"/>
  <rect x="187.6" y="536.85" width="13.39" height="13.39" fill="#231f20"/>
  <rect x="15.09" y="536.85" width="13.39" height="13.39" fill="#231f20"/>
  <rect x="102.22" y="536.85" width="13.39" height="13.39" fill="#231f20"/>
  <rect x="58.39" y="536.85" width="13.39" height="13.39" fill="#231f20"/>
  <rect x="359.94" y="491.99" width="13.39" height="13.39" fill="#231f20"/>
  <rect x="403.25" y="491.99" width="13.39" height="13.39" fill="#231f20"/>
  <rect x="230.73" y="491.99" width="13.39" height="13.39" fill="#231f20"/>
  <rect x="317.87" y="491.99" width="13.39" height="13.39" fill="#231f20"/>
  <rect x="274.03" y="491.99" width="13.39" height="13.39" fill="#231f20"/>
  <rect x="144.3" y="491.99" width="13.39" height="13.39" fill="#231f20"/>
  <rect x="187.6" y="491.99" width="13.39" height="13.39" fill="#231f20"/>
  <rect x="15.09" y="491.99" width="13.39" height="13.39" fill="#231f20"/>
  <rect x="102.22" y="491.99" width="13.39" height="13.39" fill="#231f20"/>
  <rect x="58.39" y="491.99" width="13.39" height="13.39" fill="#231f20"/>
  <rect x="359.94" y="447.37" width="13.39" height="13.39" fill="#231f20"/>
  <rect x="403.25" y="447.37" width="13.39" height="13.39" fill="#231f20"/>
  <rect x="230.73" y="447.37" width="13.39" height="13.39" fill="#231f20"/>
  <rect x="317.87" y="447.37" width="13.39" height="13.39" fill="#231f20"/>
  <rect x="274.03" y="447.37" width="13.39" height="13.39" fill="#231f20"/>
  <rect x="144.3" y="447.37" width="13.39" height="13.39" fill="#231f20"/>
  <rect x="187.6" y="447.37" width="13.39" height="13.39" fill="#231f20"/>
  <rect x="15.09" y="447.37" width="13.39" height="13.39" fill="#231f20"/>
  <rect x="102.22" y="447.37" width="13.39" height="13.39" fill="#231f20"/>
  <rect x="58.39" y="447.37" width="13.39" height="13.39" fill="#231f20"/>
  <rect x="359.94" y="405.37" width="13.39" height="13.39" fill="#231f20"/>
  <rect x="403.25" y="405.37" width="13.39" height="13.39" fill="#231f20"/>
  <rect x="230.73" y="405.37" width="13.39" height="13.39" fill="#231f20"/>
  <rect x="317.87" y="405.37" width="13.39" height="13.39" fill="#231f20"/>
  <rect x="274.03" y="405.37" width="13.39" height="13.39" fill="#231f20"/>
  <rect x="144.3" y="405.37" width="13.39" height="13.39" fill="#231f20"/>
  <rect x="187.6" y="405.37" width="13.39" height="13.39" fill="#231f20"/>
  <rect x="102.22" y="405.37" width="13.39" height="13.39" fill="#231f20"/>
  <rect x="58.39" y="405.37" width="13.39" height="13.39" fill="#231f20"/>
  <rect x="359.94" y="362.22" width="13.39" height="13.39" fill="#231f20"/>
  <rect x="403.25" y="362.22" width="13.39" height="13.39" fill="#231f20"/>
  <rect x="230.73" y="362.22" width="13.39" height="13.39" fill="#231f20"/>
  <rect x="317.87" y="362.22" width="13.39" height="13.39" fill="#231f20"/>
  <rect x="274.03" y="362.22" width="13.39" height="13.39" fill="#231f20"/>
  <rect x="144.3" y="362.22" width="13.39" height="13.39" fill="#231f20"/>
  <rect x="187.6" y="362.22" width="13.39" height="13.39" fill="#231f20"/>
  <rect x="102.22" y="362.22" width="13.39" height="13.39" fill="#231f20"/>
  <rect x="58.39" y="362.22" width="13.39" height="13.39" fill="#231f20"/>
  <rect x="359.94" y="318.34" width="13.39" height="13.39" fill="#231f20"/>
  <rect x="403.25" y="318.34" width="13.39" height="13.39" fill="#231f20"/>
  <rect x="445.36" y="318.34" width="13.39" height="13.39" fill="#231f20"/>
  <rect x="230.73" y="318.34" width="13.39" height="13.39" fill="#231f20"/>
  <rect x="317.87" y="318.34" width="13.39" height="13.39" fill="#231f20"/>
  <rect x="274.03" y="318.34" width="13.39" height="13.39" fill="#231f20"/>
  <rect x="144.3" y="318.34" width="13.39" height="13.39" fill="#231f20"/>
  <rect x="187.6" y="318.34" width="13.39" height="13.39" fill="#231f20"/>
  <rect x="102.22" y="318.34" width="13.39" height="13.39" fill="#231f20"/>
  <rect x="58.39" y="318.34" width="13.39" height="13.39" fill="#231f20"/>
  <rect x="15.09" y="318.34" width="13.39" height="13.39" fill="#231f20"/>
  <rect x="359.94" y="277.9" width="13.39" height="13.39" fill="#231f20"/>
  <rect x="403.25" y="277.9" width="13.39" height="13.39" fill="#231f20"/>
  <rect x="445.36" y="277.9" width="13.39" height="13.39" fill="#231f20"/>
  <rect x="230.73" y="277.9" width="13.39" height="13.39" fill="#231f20"/>
  <rect x="317.87" y="277.9" width="13.39" height="13.39" fill="#231f20"/>
  <rect x="274.03" y="277.9" width="13.39" height="13.39" fill="#231f20"/>
  <rect x="144.3" y="277.9" width="13.39" height="13.39" fill="#231f20"/>
  <rect x="187.6" y="277.9" width="13.39" height="13.39" fill="#231f20"/>
  <rect x="102.22" y="277.9" width="13.39" height="13.39" fill="#231f20"/>
  <rect x="58.39" y="277.9" width="13.39" height="13.39" fill="#231f20"/>
  <rect x="15.09" y="277.9" width="13.39" height="13.39" fill="#231f20"/>
  <rect x="359.94" y="232.61" width="13.39" height="13.39" fill="#231f20"/>
  <rect x="403.25" y="232.61" width="13.39" height="13.39" fill="#231f20"/>
  <rect x="445.36" y="232.61" width="13.39" height="13.39" fill="#231f20"/>
  <rect x="230.73" y="232.61" width="13.39" height="13.39" fill="#231f20"/>
  <rect x="317.87" y="232.61" width="13.39" height="13.39" fill="#231f20"/>
  <rect x="274.03" y="232.61" width="13.39" height="13.39" fill="#231f20"/>
  <rect x="144.3" y="232.61" width="13.39" height="13.39" fill="#231f20"/>
  <rect x="187.6" y="232.61" width="13.39" height="13.39" fill="#231f20"/>
  <rect x="102.22" y="232.61" width="13.39" height="13.39" fill="#231f20"/>
  <rect x="58.39" y="232.61" width="13.39" height="13.39" fill="#231f20"/>
  <rect x="15.09" y="232.61" width="13.39" height="13.39" fill="#231f20"/>
  <rect x="359.94" y="189.87" width="13.39" height="13.39" fill="#231f20"/>
  <rect x="403.25" y="189.87" width="13.39" height="13.39" fill="#231f20"/>
  <rect x="445.36" y="189.87" width="13.39" height="13.39" fill="#231f20"/>
  <rect x="230.73" y="189.87" width="13.39" height="13.39" fill="#231f20"/>
  <rect x="317.87" y="189.87" width="13.39" height="13.39" fill="#231f20"/>
  <rect x="274.03" y="189.87" width="13.39" height="13.39" fill="#231f20"/>
  <rect x="144.3" y="189.87" width="13.39" height="13.39" fill="#231f20"/>
  <rect x="187.6" y="189.87" width="13.39" height="13.39" fill="#231f20"/>
  <rect x="102.22" y="189.87" width="13.39" height="13.39" fill="#231f20"/>
  <rect x="58.39" y="189.87" width="13.39" height="13.39" fill="#231f20"/>
  <rect x="15.09" y="189.87" width="13.39" height="13.39" fill="#231f20"/>
  <rect x="359.94" y="146.89" width="13.39" height="13.39" fill="#231f20"/>
  <rect x="403.25" y="146.89" width="13.39" height="13.39" fill="#231f20"/>
  <rect x="445.36" y="146.89" width="13.39" height="13.39" fill="#231f20"/>
  <rect x="445.36" y="102.96" width="13.39" height="13.39" fill="#231f20"/>
  <rect x="403.25" y="59.03" width="13.39" height="13.39" fill="#231f20"/>
  <rect x="445.36" y="59.03" width="13.39" height="13.39" fill="#231f20"/>
  <rect x="230.73" y="146.89" width="13.39" height="13.39" fill="#231f20"/>
  <rect x="317.87" y="146.89" width="13.39" height="13.39" fill="#231f20"/>
  <rect x="274.03" y="146.89" width="13.39" height="13.39" fill="#231f20"/>
  <rect x="144.3" y="146.89" width="13.39" height="13.39" fill="#231f20"/>
  <rect x="187.6" y="146.89" width="13.39" height="13.39" fill="#231f20"/>
  <rect x="102.22" y="146.89" width="13.39" height="13.39" fill="#231f20"/>
  <rect x="58.39" y="146.89" width="13.39" height="13.39" fill="#231f20"/>
  <rect x="15.09" y="146.89" width="13.39" height="13.39" fill="#231f20"/>
  <rect x="359.94" y="102.96" width="13.39" height="13.39" fill="#231f20"/>
  <rect x="230.73" y="102.96" width="13.39" height="13.39" fill="#231f20"/>
  <rect x="317.87" y="102.96" width="13.39" height="13.39" fill="#231f20"/>
  <rect x="274.03" y="102.96" width="13.39" height="13.39" fill="#231f20"/>
  <rect x="144.3" y="102.96" width="13.39" height="13.39" fill="#231f20"/>
  <rect x="187.6" y="102.96" width="13.39" height="13.39" fill="#231f20"/>
  <rect x="102.22" y="102.96" width="13.39" height="13.39" fill="#231f20"/>
  <rect x="58.39" y="102.96" width="13.39" height="13.39" fill="#231f20"/>
  <rect x="15.09" y="102.96" width="13.39" height="13.39" fill="#231f20"/>
  <rect x="359.94" y="59.93" width="13.39" height="13.39" fill="#231f20"/>
  <rect x="230.73" y="59.93" width="13.39" height="13.39" fill="#231f20"/>
  <rect x="317.87" y="59.93" width="13.39" height="13.39" fill="#231f20"/>
  <rect x="274.03" y="59.93" width="13.39" height="13.39" fill="#231f20"/>
  <rect x="144.3" y="59.93" width="13.39" height="13.39" fill="#231f20"/>
  <rect x="187.6" y="59.93" width="13.39" height="13.39" fill="#231f20"/>
  <rect x="102.22" y="59.93" width="13.39" height="13.39" fill="#231f20"/>
  <rect x="58.39" y="59.93" width="13.39" height="13.39" fill="#231f20"/>
  <rect x="15.09" y="59.93" width="13.39" height="13.39" fill="#231f20"/>
  <rect x="403.25" y="16.58" width="13.39" height="13.39" fill="#231f20"/>
  <rect x="445.36" y="16.58" width="13.39" height="13.39" fill="#231f20"/>
  <rect x="359.94" y="17.48" width="13.39" height="13.39" fill="#231f20"/>
  <rect x="230.73" y="17.48" width="13.39" height="13.39" fill="#231f20"/>
  <rect x="317.87" y="17.48" width="13.39" height="13.39" fill="#231f20"/>
  <rect x="274.03" y="17.48" width="13.39" height="13.39" fill="#231f20"/>
  <rect x="144.3" y="17.48" width="13.39" height="13.39" fill="#231f20"/>
  <rect x="187.6" y="17.48" width="13.39" height="13.39" fill="#231f20"/>
  <rect x="102.22" y="17.48" width="13.39" height="13.39" fill="#231f20"/>
  <rect x="58.39" y="17.48" width="13.39" height="13.39" fill="#231f20"/>
  <rect x="15.09" y="17.48" width="13.39" height="13.39" fill="#231f20"/>
  <rect x="233.6" y="666.46" width="13.39" height="13.39" fill="#231f20"/>
  <rect x="233.6" y="794.85" width="13.39" height="13.39" fill="#231f20"/>
  <rect x="233.6" y="750.69" width="13.39" height="13.39" fill="#231f20"/>
  <rect x="233.6" y="707.95" width="13.39" height="13.39" fill="#231f20"/>
  <rect x="233.6" y="838.86" width="13.39" height="13.39" fill="#231f20"/>
  <rect x="276.9" y="794.85" width="13.39" height="13.39" fill="#231f20"/>
  <rect x="276.9" y="750.69" width="13.39" height="13.39" fill="#231f20"/>
  <rect x="276.9" y="707.95" width="13.39" height="13.39" fill="#231f20"/>
  <rect x="276.9" y="838.86" width="13.39" height="13.39" fill="#231f20"/>
  <rect x="320.21" y="794.85" width="13.39" height="13.39" fill="#231f20"/>
  <rect x="320.21" y="750.69" width="13.39" height="13.39" fill="#231f20"/>
  <rect x="320.21" y="707.95" width="13.39" height="13.39" fill="#231f20"/>
  <rect x="320.21" y="838.86" width="13.39" height="13.39" fill="#231f20"/>
  <rect x="320.74" y="666.46" width="13.39" height="13.39" fill="#231f20"/>
  <rect x="276.9" y="666.46" width="13.39" height="13.39" fill="#231f20"/>
  <rect x="101.34" y="666.46" width="13.39" height="13.39" fill="#231f20"/>
  <rect x="101.34" y="794.85" width="13.39" height="13.39" fill="#231f20"/>
  <rect x="101.34" y="750.69" width="13.39" height="13.39" fill="#231f20"/>
  <rect x="101.34" y="707.95" width="13.39" height="13.39" fill="#231f20"/>
  <rect x="101.34" y="838.86" width="13.39" height="13.39" fill="#231f20"/>
  <rect x="58.29" y="794.85" width="13.39" height="13.39" fill="#231f20"/>
  <rect x="58.29" y="838.86" width="13.39" height="13.39" fill="#231f20"/>
  <rect x="144.65" y="794.85" width="13.39" height="13.39" fill="#231f20"/>
  <rect x="144.65" y="750.69" width="13.39" height="13.39" fill="#231f20"/>
  <rect x="144.65" y="707.95" width="13.39" height="13.39" fill="#231f20"/>
  <rect x="144.65" y="838.86" width="13.39" height="13.39" fill="#231f20"/>
  <rect x="187.95" y="794.85" width="13.39" height="13.39" fill="#231f20"/>
  <rect x="187.95" y="750.69" width="13.39" height="13.39" fill="#231f20"/>
  <rect x="187.95" y="707.95" width="13.39" height="13.39" fill="#231f20"/>
  <rect x="187.95" y="838.86" width="13.39" height="13.39" fill="#231f20"/>
  <rect x="492.96" y="880.24" width="13.39" height="13.39" fill="#231f20"/>
  <rect x="536.26" y="880.24" width="13.39" height="13.39" fill="#231f20"/>
  <rect x="579.56" y="880.24" width="13.39" height="13.39" fill="#231f20"/>
  <rect x="362.81" y="880.24" width="13.39" height="13.39" fill="#231f20"/>
  <rect x="406.11" y="880.24" width="13.39" height="13.39" fill="#231f20"/>
  <rect x="449.42" y="880.24" width="13.39" height="13.39" fill="#231f20"/>
  <rect x="233.6" y="880.24" width="13.39" height="13.39" fill="#231f20"/>
  <rect x="276.9" y="880.24" width="13.39" height="13.39" fill="#231f20"/>
  <rect x="320.21" y="880.24" width="13.39" height="13.39" fill="#231f20"/>
  <rect x="101.34" y="880.24" width="13.39" height="13.39" fill="#231f20"/>
  <rect x="58.29" y="880.24" width="13.39" height="13.39" fill="#231f20"/>
  <rect x="15.24" y="880.24" width="13.39" height="13.39" fill="#231f20"/>
  <rect x="144.65" y="880.24" width="13.39" height="13.39" fill="#231f20"/>
  <rect x="187.95" y="880.24" width="13.39" height="13.39" fill="#231f20"/>
  <rect x="492.96" y="923.38" width="13.39" height="13.39" fill="#231f20"/>
  <rect x="536.26" y="923.38" width="13.39" height="13.39" fill="#231f20"/>
  <rect x="579.56" y="923.38" width="13.39" height="13.39" fill="#231f20"/>
  <rect x="362.81" y="923.38" width="13.39" height="13.39" fill="#231f20"/>
  <rect x="406.11" y="923.38" width="13.39" height="13.39" fill="#231f20"/>
  <rect x="449.42" y="923.38" width="13.39" height="13.39" fill="#231f20"/>
  <rect x="661.09" y="621.38" width="13.39" height="13.39" fill="#231f20"/>
  <rect x="748.23" y="621.38" width="13.39" height="13.39" fill="#231f20"/>
  <rect x="704.39" y="621.38" width="13.39" height="13.39" fill="#231f20"/>
  <rect x="663.96" y="666.46" width="13.39" height="13.39" fill="#231f20"/>
  <rect x="663.96" y="794.85" width="13.39" height="13.39" fill="#231f20"/>
  <rect x="663.96" y="750.69" width="13.39" height="13.39" fill="#231f20"/>
  <rect x="663.96" y="707.95" width="13.39" height="13.39" fill="#231f20"/>
  <rect x="663.96" y="838.86" width="13.39" height="13.39" fill="#231f20"/>
  <rect x="707.26" y="794.85" width="13.39" height="13.39" fill="#231f20"/>
  <rect x="707.26" y="750.69" width="13.39" height="13.39" fill="#231f20"/>
  <rect x="707.26" y="707.95" width="13.39" height="13.39" fill="#231f20"/>
  <rect x="707.26" y="838.86" width="13.39" height="13.39" fill="#231f20"/>
  <rect x="750.57" y="794.85" width="13.39" height="13.39" fill="#231f20"/>
  <rect x="750.57" y="750.69" width="13.39" height="13.39" fill="#231f20"/>
  <rect x="750.57" y="707.95" width="13.39" height="13.39" fill="#231f20"/>
  <rect x="750.57" y="838.86" width="13.39" height="13.39" fill="#231f20"/>
  <rect x="751.1" y="666.46" width="13.39" height="13.39" fill="#231f20"/>
  <rect x="707.26" y="666.46" width="13.39" height="13.39" fill="#231f20"/>
  <rect x="618.08" y="621.38" width="13.39" height="13.39" fill="#231f20"/>
  <rect x="620.42" y="794.85" width="13.39" height="13.39" fill="#231f20"/>
  <rect x="620.42" y="750.69" width="13.39" height="13.39" fill="#231f20"/>
  <rect x="620.42" y="707.95" width="13.39" height="13.39" fill="#231f20"/>
  <rect x="620.42" y="838.86" width="13.39" height="13.39" fill="#231f20"/>
  <rect x="620.95" y="666.46" width="13.39" height="13.39" fill="#231f20"/>
  <rect x="663.96" y="880.24" width="13.39" height="13.39" fill="#231f20"/>
  <rect x="707.26" y="880.24" width="13.39" height="13.39" fill="#231f20"/>
  <rect x="750.57" y="880.24" width="13.39" height="13.39" fill="#231f20"/>
  <rect x="620.42" y="880.24" width="13.39" height="13.39" fill="#231f20"/>
  <rect x="663.96" y="923.38" width="13.39" height="13.39" fill="#231f20"/>
  <rect x="707.26" y="923.38" width="13.39" height="13.39" fill="#231f20"/>
  <rect x="750.57" y="923.38" width="13.39" height="13.39" fill="#231f20"/>
  <rect x="620.42" y="923.38" width="13.39" height="13.39" fill="#231f20"/>
  <rect x="579.56" y="967.02" width="13.39" height="13.39" fill="#231f20"/>
  <rect x="579.4" y="1010.04" width="13.39" height="13.39" fill="#231f20"/>
  <rect x="579.25" y="1053.1" width="13.39" height="13.39" fill="#231f20"/>
  <rect x="663.96" y="967.02" width="13.39" height="13.39" fill="#231f20"/>
  <rect x="707.26" y="967.02" width="13.39" height="13.39" fill="#231f20"/>
  <rect x="750.57" y="967.02" width="13.39" height="13.39" fill="#231f20"/>
  <rect x="620.42" y="967.02" width="13.39" height="13.39" fill="#231f20"/>
  <rect x="663.8" y="1010.04" width="13.39" height="13.39" fill="#231f20"/>
  <rect x="707.1" y="1010.04" width="13.39" height="13.39" fill="#231f20"/>
  <rect x="750.41" y="1010.04" width="13.39" height="13.39" fill="#231f20"/>
  <rect x="620.26" y="1010.04" width="13.39" height="13.39" fill="#231f20"/>
  <rect x="663.65" y="1053.1" width="13.39" height="13.39" fill="#231f20"/>
  <rect x="706.95" y="1053.1" width="13.39" height="13.39" fill="#231f20"/>
  <rect x="750.25" y="1053.1" width="13.39" height="13.39" fill="#231f20"/>
  <rect x="794.93" y="794.85" width="13.39" height="13.39" fill="#231f20"/>
  <rect x="794.93" y="838.86" width="13.39" height="13.39" fill="#231f20"/>
  <rect x="838.23" y="794.85" width="13.39" height="13.39" fill="#231f20"/>
  <rect x="838.23" y="838.86" width="13.39" height="13.39" fill="#231f20"/>
  <rect x="881.54" y="794.85" width="13.39" height="13.39" fill="#231f20"/>
  <rect x="881.54" y="838.86" width="13.39" height="13.39" fill="#231f20"/>
  <rect x="794.93" y="880.24" width="13.39" height="13.39" fill="#231f20"/>
  <rect x="838.23" y="880.24" width="13.39" height="13.39" fill="#231f20"/>
  <rect x="881.54" y="880.24" width="13.39" height="13.39" fill="#231f20"/>
  <rect x="794.93" y="923.38" width="13.39" height="13.39" fill="#231f20"/>
  <rect x="838.23" y="923.38" width="13.39" height="13.39" fill="#231f20"/>
  <rect x="881.54" y="923.38" width="13.39" height="13.39" fill="#231f20"/>
  <rect x="794.93" y="967.02" width="13.39" height="13.39" fill="#231f20"/>
  <rect x="838.23" y="967.02" width="13.39" height="13.39" fill="#231f20"/>
  <rect x="881.54" y="967.02" width="13.39" height="13.39" fill="#231f20"/>
  <rect x="922.42" y="794.85" width="13.39" height="13.39" fill="#231f20"/>
  <rect x="965.47" y="794.85" width="13.39" height="13.39" fill="#231f20"/>
  <rect x="922.42" y="838.86" width="13.39" height="13.39" fill="#231f20"/>
  <rect x="1009.75" y="838.86" width="13.39" height="13.39" fill="#231f20"/>
  <rect x="1051.99" y="838.86" width="13.39" height="13.39" fill="#231f20"/>
  <rect x="922.42" y="880.24" width="13.39" height="13.39" fill="#231f20"/>
  <rect x="922.42" y="923.38" width="13.39" height="13.39" fill="#231f20"/>
  <rect x="922.42" y="967.02" width="13.39" height="13.39" fill="#231f20"/>
  <rect x="965.56" y="880.24" width="13.39" height="13.39" fill="#231f20"/>
  <rect x="965.56" y="923.38" width="13.39" height="13.39" fill="#231f20"/>
  <rect x="965.56" y="967.02" width="13.39" height="13.39" fill="#231f20"/>
  <rect x="1051.91" y="880.24" width="13.39" height="13.39" fill="#231f20"/>
  <rect x="1051.91" y="923.38" width="13.39" height="13.39" fill="#231f20"/>
  <rect x="1051.91" y="967.02" width="13.39" height="13.39" fill="#231f20"/>
  <rect x="794.77" y="1010.04" width="13.39" height="13.39" fill="#231f20"/>
  <rect x="838.08" y="1010.04" width="13.39" height="13.39" fill="#231f20"/>
  <rect x="881.38" y="1010.04" width="13.39" height="13.39" fill="#231f20"/>
  <rect x="794.62" y="1053.1" width="13.39" height="13.39" fill="#231f20"/>
  <rect x="837.92" y="1053.1" width="13.39" height="13.39" fill="#231f20"/>
  <rect x="838.23" y="491.99" width="13.39" height="13.39" fill="#231f20"/>
  <rect x="838.23" y="534.95" width="13.39" height="13.39" fill="#231f20"/>
  <rect x="838.23" y="579.54" width="13.39" height="13.39" fill="#231f20"/>
  <rect x="838.23" y="621.38" width="13.39" height="13.39" fill="#231f20"/>
  <rect x="838.23" y="666.46" width="13.39" height="13.39" fill="#231f20"/>
  <rect x="838.23" y="707.95" width="13.39" height="13.39" fill="#231f20"/>
  <rect x="879.28" y="491.99" width="13.39" height="13.39" fill="#231f20"/>
  <rect x="879.28" y="534.95" width="13.39" height="13.39" fill="#231f20"/>
  <rect x="879.28" y="579.54" width="13.39" height="13.39" fill="#231f20"/>
  <rect x="879.28" y="621.38" width="13.39" height="13.39" fill="#231f20"/>
  <rect x="879.28" y="666.46" width="13.39" height="13.39" fill="#231f20"/>
  <rect x="922.42" y="491.99" width="13.39" height="13.39" fill="#231f20"/>
  <rect x="922.42" y="534.95" width="13.39" height="13.39" fill="#231f20"/>
  <rect x="922.42" y="579.54" width="13.39" height="13.39" fill="#231f20"/>
  <rect x="965.56" y="491.99" width="13.39" height="13.39" fill="#231f20"/>
  <rect x="965.56" y="534.95" width="13.39" height="13.39" fill="#231f20"/>
  <rect x="1009.63" y="491.99" width="13.39" height="13.39" fill="#231f20"/>
  <rect x="1009.63" y="534.95" width="13.39" height="13.39" fill="#231f20"/>
  <rect x="1009.63" y="404.61" width="13.39" height="13.39" fill="#231f20"/>
  <rect x="1051.62" y="404.61" width="13.39" height="13.39" fill="#231f20"/>
  <rect x="1009.63" y="448.37" width="13.39" height="13.39" fill="#231f20"/>
  <rect x="1052.77" y="491.99" width="13.39" height="13.39" fill="#231f20"/>
  <rect x="1052.77" y="534.95" width="13.39" height="13.39" fill="#231f20"/>
  <rect x="965.56" y="579.54" width="13.39" height="13.39" fill="#231f20"/>
  <rect x="922.42" y="621.38" width="13.39" height="13.39" fill="#231f20"/>
  <rect x="922.42" y="666.46" width="13.39" height="13.39" fill="#231f20"/>
  <rect x="879.28" y="707.95" width="13.39" height="13.39" fill="#231f20"/>
  <rect x="838.23" y="750.69" width="13.39" height="13.39" fill="#231f20"/>
  <rect x="1052.77" y="794.85" width="13.39" height="13.39" fill="#231f20"/>
  <rect x="1052.77" y="581.01" width="13.39" height="13.39" fill="#231f20"/>
  <rect x="1052.77" y="621.38" width="13.39" height="13.39" fill="#231f20"/>
  <rect x="1052.77" y="666.46" width="13.39" height="13.39" fill="#231f20"/>
  <rect x="1008.69" y="666.46" width="13.39" height="13.39" fill="#231f20"/>
  <rect x="1052.77" y="707.95" width="13.39" height="13.39" fill="#231f20"/>
  <rect x="1052.77" y="750.69" width="13.39" height="13.39" fill="#231f20"/>
  <rect x="794.93" y="491.99" width="13.39" height="13.39" fill="#231f20"/>
  <rect x="794.93" y="534.95" width="13.39" height="13.39" fill="#231f20"/>
  <rect x="794.93" y="579.54" width="13.39" height="13.39" fill="#231f20"/>
  <rect x="661.39" y="491.99" width="13.39" height="13.39" fill="#231f20"/>
  <rect x="661.39" y="534.95" width="13.39" height="13.39" fill="#231f20"/>
  <rect x="661.39" y="579.54" width="13.39" height="13.39" fill="#231f20"/>
  <rect x="702.43" y="491.99" width="13.39" height="13.39" fill="#231f20"/>
  <rect x="702.43" y="534.95" width="13.39" height="13.39" fill="#231f20"/>
  <rect x="702.43" y="579.54" width="13.39" height="13.39" fill="#231f20"/>
  <rect x="745.57" y="491.99" width="13.39" height="13.39" fill="#231f20"/>
  <rect x="745.57" y="534.95" width="13.39" height="13.39" fill="#231f20"/>
  <rect x="745.57" y="579.54" width="13.39" height="13.39" fill="#231f20"/>
  <rect x="618.08" y="491.99" width="13.39" height="13.39" fill="#231f20"/>
  <rect x="577.22" y="491.99" width="13.39" height="13.39" fill="#231f20"/>
  <rect x="618.08" y="534.95" width="13.39" height="13.39" fill="#231f20"/>
  <rect x="618.08" y="579.54" width="13.39" height="13.39" fill="#231f20"/>
  <rect x="794.93" y="621.38" width="13.39" height="13.39" fill="#231f20"/>
  <rect x="794.93" y="666.46" width="13.39" height="13.39" fill="#231f20"/>
  <rect x="794.93" y="707.95" width="13.39" height="13.39" fill="#231f20"/>
  <rect x="794.93" y="750.69" width="13.39" height="13.39" fill="#231f20"/>
  <rect x="881.22" y="1053.1" width="13.39" height="13.39" fill="#231f20"/>
  <rect x="620.11" y="1053.1" width="13.39" height="13.39" fill="#231f20"/>
  <rect x="492.23" y="1053.1" width="13.39" height="13.39" fill="#231f20"/>
  <rect x="533.24" y="1010.04" width="13.39" height="13.39" fill="#231f20"/>
  <rect x="533.09" y="1053.1" width="13.39" height="13.39" fill="#231f20"/>
  <rect x="233.6" y="923.38" width="13.39" height="13.39" fill="#231f20"/>
  <rect x="276.9" y="923.38" width="13.39" height="13.39" fill="#231f20"/>
  <rect x="320.21" y="923.38" width="13.39" height="13.39" fill="#231f20"/>
  <rect x="101.34" y="923.38" width="13.39" height="13.39" fill="#231f20"/>
  <rect x="58.29" y="923.38" width="13.39" height="13.39" fill="#231f20"/>
  <rect x="15.24" y="923.38" width="13.39" height="13.39" fill="#231f20"/>
  <rect x="144.65" y="923.38" width="13.39" height="13.39" fill="#231f20"/>
  <rect x="187.95" y="923.38" width="13.39" height="13.39" fill="#231f20"/>
  <rect x="492.96" y="967.02" width="13.39" height="13.39" fill="#231f20"/>
  <rect x="362.81" y="967.02" width="13.39" height="13.39" fill="#231f20"/>
  <rect x="406.11" y="967.02" width="13.39" height="13.39" fill="#231f20"/>
  <rect x="449.42" y="967.02" width="13.39" height="13.39" fill="#231f20"/>
  <rect x="233.6" y="967.02" width="13.39" height="13.39" fill="#231f20"/>
  <rect x="276.9" y="967.02" width="13.39" height="13.39" fill="#231f20"/>
  <rect x="320.21" y="967.02" width="13.39" height="13.39" fill="#231f20"/>
  <rect x="101.34" y="967.02" width="13.39" height="13.39" fill="#231f20"/>
  <rect x="144.65" y="967.02" width="13.39" height="13.39" fill="#231f20"/>
  <rect x="187.95" y="967.02" width="13.39" height="13.39" fill="#231f20"/>
  <rect x="362.65" y="1010.04" width="13.39" height="13.39" fill="#231f20"/>
  <rect x="405.96" y="1010.04" width="13.39" height="13.39" fill="#231f20"/>
  <rect x="449.26" y="1010.04" width="13.39" height="13.39" fill="#231f20"/>
  <rect x="233.44" y="1010.04" width="13.39" height="13.39" fill="#231f20"/>
  <rect x="276.75" y="1010.04" width="13.39" height="13.39" fill="#231f20"/>
  <rect x="320.05" y="1010.04" width="13.39" height="13.39" fill="#231f20"/>
  <rect x="101.19" y="1010.04" width="13.39" height="13.39" fill="#231f20"/>
  <rect x="58.27" y="1010.04" width="13.39" height="13.39" fill="#231f20"/>
  <rect x="144.49" y="1010.04" width="13.39" height="13.39" fill="#231f20"/>
  <rect x="187.79" y="1010.04" width="13.39" height="13.39" fill="#231f20"/>
  <rect x="233.29" y="1053.1" width="13.39" height="13.39" fill="#231f20"/>
  <rect x="276.59" y="1053.1" width="13.39" height="13.39" fill="#231f20"/>
  <rect x="101.03" y="1053.1" width="13.39" height="13.39" fill="#231f20"/>
  <rect x="144.33" y="1053.1" width="13.39" height="13.39" fill="#231f20"/>
  <rect x="187.64" y="1053.1" width="13.39" height="13.39" fill="#231f20"/>
  <rect x="188.48" y="666.46" width="13.39" height="13.39" fill="#231f20"/>
  <rect x="144.65" y="666.46" width="13.39" height="13.39" fill="#231f20"/>
  <rect x="13.75" y="666.46" width="13.39" height="13.39" fill="#231f20"/>
  <rect x="13.75" y="707.95" width="13.39" height="13.39" fill="#231f20"/>
  <rect x="57.05" y="707.95" width="13.39" height="13.39" fill="#231f20"/>
  <rect x="57.05" y="666.46" width="13.39" height="13.39" fill="#231f20"/>
  <rect x="101.34" y="621.38" width="13.39" height="13.39" fill="#231f20"/>
  <rect x="144.65" y="621.38" width="13.39" height="13.39" fill="#231f20"/>
  <rect x="101.34" y="578.31" width="13.39" height="13.39" fill="#231f20"/>
  <rect x="144.65" y="578.31" width="13.39" height="13.39" fill="#231f20"/>
  <rect x="13.75" y="621.38" width="13.39" height="13.39" fill="#231f20"/>
  <rect x="57.05" y="621.38" width="13.39" height="13.39" fill="#231f20"/>
  <rect x="577.22" y="579.54" width="13.39" height="13.39" fill="#231f20"/>
  <rect x="577.22" y="534.95" width="13.39" height="13.39" fill="#231f20"/>
  <rect x="838.23" y="404.61" width="13.39" height="13.39" fill="#231f20"/>
  <rect x="838.23" y="448.37" width="13.39" height="13.39" fill="#231f20"/>
  <rect x="879.28" y="404.61" width="13.39" height="13.39" fill="#231f20"/>
  <rect x="879.28" y="448.37" width="13.39" height="13.39" fill="#231f20"/>
  <rect x="922.42" y="404.61" width="13.39" height="13.39" fill="#231f20"/>
  <rect x="922.42" y="448.37" width="13.39" height="13.39" fill="#231f20"/>
  <rect x="965.56" y="404.61" width="13.39" height="13.39" fill="#231f20"/>
  <rect x="965.56" y="448.37" width="13.39" height="13.39" fill="#231f20"/>
  <rect x="794.93" y="404.61" width="13.39" height="13.39" fill="#231f20"/>
  <rect x="794.93" y="448.37" width="13.39" height="13.39" fill="#231f20"/>
  <rect x="661.39" y="404.61" width="13.39" height="13.39" fill="#231f20"/>
  <rect x="661.39" y="448.37" width="13.39" height="13.39" fill="#231f20"/>
  <rect x="702.43" y="404.61" width="13.39" height="13.39" fill="#231f20"/>
  <rect x="702.43" y="448.37" width="13.39" height="13.39" fill="#231f20"/>
  <rect x="745.57" y="404.61" width="13.39" height="13.39" fill="#231f20"/>
  <rect x="745.57" y="448.37" width="13.39" height="13.39" fill="#231f20"/>
  <rect x="618.08" y="404.61" width="13.39" height="13.39" fill="#231f20"/>
  <rect x="577.22" y="404.61" width="13.39" height="13.39" fill="#231f20"/>
  <rect x="618.08" y="448.37" width="13.39" height="13.39" fill="#231f20"/>
  <rect x="577.22" y="448.37" width="13.39" height="13.39" fill="#231f20"/>
  <rect x="533.67" y="404.61" width="13.39" height="13.39" fill="#231f20"/>
  <rect x="1009.63" y="362.84" width="13.39" height="13.39" fill="#231f20"/>
  <rect x="1051.62" y="362.84" width="13.39" height="13.39" fill="#231f20"/>
  <rect x="838.23" y="362.84" width="13.39" height="13.39" fill="#231f20"/>
  <rect x="879.28" y="362.84" width="13.39" height="13.39" fill="#231f20"/>
  <rect x="922.42" y="362.84" width="13.39" height="13.39" fill="#231f20"/>
  <rect x="965.56" y="362.84" width="13.39" height="13.39" fill="#231f20"/>
  <rect x="794.93" y="362.84" width="13.39" height="13.39" fill="#231f20"/>
  <rect x="661.39" y="362.84" width="13.39" height="13.39" fill="#231f20"/>
  <rect x="702.43" y="362.84" width="13.39" height="13.39" fill="#231f20"/>
  <rect x="745.57" y="362.84" width="13.39" height="13.39" fill="#231f20"/>
  <rect x="618.08" y="362.84" width="13.39" height="13.39" fill="#231f20"/>
  <rect x="577.22" y="362.84" width="13.39" height="13.39" fill="#231f20"/>
  <rect x="1009.63" y="316.47" width="13.39" height="13.39" fill="#231f20"/>
  <rect x="1051.62" y="316.47" width="13.39" height="13.39" fill="#231f20"/>
  <rect x="838.23" y="316.47" width="13.39" height="13.39" fill="#231f20"/>
  <rect x="879.28" y="316.47" width="13.39" height="13.39" fill="#231f20"/>
  <rect x="922.42" y="316.47" width="13.39" height="13.39" fill="#231f20"/>
  <rect x="965.56" y="316.47" width="13.39" height="13.39" fill="#231f20"/>
  <rect x="794.93" y="316.47" width="13.39" height="13.39" fill="#231f20"/>
  <rect x="661.39" y="316.47" width="13.39" height="13.39" fill="#231f20"/>
  <rect x="702.43" y="316.47" width="13.39" height="13.39" fill="#231f20"/>
  <rect x="745.57" y="316.47" width="13.39" height="13.39" fill="#231f20"/>
  <rect x="618.08" y="316.47" width="13.39" height="13.39" fill="#231f20"/>
  <rect x="577.22" y="316.47" width="13.39" height="13.39" fill="#231f20"/>
  <rect x="1009.63" y="274.7" width="13.39" height="13.39" fill="#231f20"/>
  <rect x="1051.62" y="274.7" width="13.39" height="13.39" fill="#231f20"/>
  <rect x="838.23" y="274.7" width="13.39" height="13.39" fill="#231f20"/>
  <rect x="879.28" y="274.7" width="13.39" height="13.39" fill="#231f20"/>
  <rect x="922.42" y="274.7" width="13.39" height="13.39" fill="#231f20"/>
  <rect x="965.56" y="274.7" width="13.39" height="13.39" fill="#231f20"/>
  <rect x="794.93" y="274.7" width="13.39" height="13.39" fill="#231f20"/>
  <rect x="661.39" y="274.7" width="13.39" height="13.39" fill="#231f20"/>
  <rect x="702.43" y="274.7" width="13.39" height="13.39" fill="#231f20"/>
  <rect x="745.57" y="274.7" width="13.39" height="13.39" fill="#231f20"/>
  <rect x="618.08" y="274.7" width="13.39" height="13.39" fill="#231f20"/>
  <rect x="577.22" y="274.7" width="13.39" height="13.39" fill="#231f20"/>
  <rect x="1009.63" y="234.52" width="13.39" height="13.39" fill="#231f20"/>
  <rect x="1051.62" y="234.52" width="13.39" height="13.39" fill="#231f20"/>
  <rect x="838.23" y="234.52" width="13.39" height="13.39" fill="#231f20"/>
  <rect x="879.28" y="234.52" width="13.39" height="13.39" fill="#231f20"/>
  <rect x="922.42" y="234.52" width="13.39" height="13.39" fill="#231f20"/>
  <rect x="965.56" y="234.52" width="13.39" height="13.39" fill="#231f20"/>
  <rect x="794.93" y="234.52" width="13.39" height="13.39" fill="#231f20"/>
  <rect x="661.39" y="234.52" width="13.39" height="13.39" fill="#231f20"/>
  <rect x="702.43" y="234.52" width="13.39" height="13.39" fill="#231f20"/>
  <rect x="745.57" y="234.52" width="13.39" height="13.39" fill="#231f20"/>
  <rect x="618.08" y="234.52" width="13.39" height="13.39" fill="#231f20"/>
  <rect x="577.22" y="234.52" width="13.39" height="13.39" fill="#231f20"/>
  <rect x="1009.63" y="188.17" width="13.39" height="13.39" fill="#231f20"/>
  <rect x="1051.62" y="188.17" width="13.39" height="13.39" fill="#231f20"/>
  <rect x="838.23" y="188.17" width="13.39" height="13.39" fill="#231f20"/>
  <rect x="879.28" y="188.17" width="13.39" height="13.39" fill="#231f20"/>
  <rect x="922.42" y="188.17" width="13.39" height="13.39" fill="#231f20"/>
  <rect x="965.56" y="188.17" width="13.39" height="13.39" fill="#231f20"/>
  <rect x="794.93" y="188.17" width="13.39" height="13.39" fill="#231f20"/>
  <rect x="661.39" y="188.17" width="13.39" height="13.39" fill="#231f20"/>
  <rect x="702.43" y="188.17" width="13.39" height="13.39" fill="#231f20"/>
  <rect x="745.57" y="188.17" width="13.39" height="13.39" fill="#231f20"/>
  <rect x="618.08" y="188.17" width="13.39" height="13.39" fill="#231f20"/>
  <rect x="577.22" y="188.17" width="13.39" height="13.39" fill="#231f20"/>
  <rect x="1009.63" y="146.41" width="13.39" height="13.39" fill="#231f20"/>
  <rect x="1051.62" y="146.41" width="13.39" height="13.39" fill="#231f20"/>
  <rect x="838.23" y="146.41" width="13.39" height="13.39" fill="#231f20"/>
  <rect x="879.28" y="146.41" width="13.39" height="13.39" fill="#231f20"/>
  <rect x="922.42" y="146.41" width="13.39" height="13.39" fill="#231f20"/>
  <rect x="965.56" y="146.41" width="13.39" height="13.39" fill="#231f20"/>
  <rect x="794.93" y="146.41" width="13.39" height="13.39" fill="#231f20"/>
  <rect x="661.39" y="146.41" width="13.39" height="13.39" fill="#231f20"/>
  <rect x="702.43" y="146.41" width="13.39" height="13.39" fill="#231f20"/>
  <rect x="745.57" y="146.41" width="13.39" height="13.39" fill="#231f20"/>
  <rect x="618.08" y="146.41" width="13.39" height="13.39" fill="#231f20"/>
  <rect x="577.22" y="146.41" width="13.39" height="13.39" fill="#231f20"/>
  <rect x="1009.63" y="103.56" width="13.39" height="13.39" fill="#231f20"/>
  <rect x="1051.62" y="103.56" width="13.39" height="13.39" fill="#231f20"/>
  <rect x="1051.62" y="60.07" width="13.39" height="13.39" fill="#231f20"/>
  <rect x="838.23" y="103.56" width="13.39" height="13.39" fill="#231f20"/>
  <rect x="879.28" y="103.56" width="13.39" height="13.39" fill="#231f20"/>
  <rect x="922.42" y="103.56" width="13.39" height="13.39" fill="#231f20"/>
  <rect x="879.28" y="59.93" width="13.39" height="13.39" fill="#231f20"/>
  <rect x="922.42" y="59.93" width="13.39" height="13.39" fill="#231f20"/>
  <rect x="965.56" y="103.56" width="13.39" height="13.39" fill="#231f20"/>
  <rect x="1009.63" y="16.58" width="13.39" height="13.39" fill="#231f20"/>
  <rect x="1051.62" y="16.58" width="13.39" height="13.39" fill="#231f20"/>
  <rect x="838.23" y="16.58" width="13.39" height="13.39" fill="#231f20"/>
  <rect x="879.28" y="16.58" width="13.39" height="13.39" fill="#231f20"/>
  <rect x="922.42" y="16.58" width="13.39" height="13.39" fill="#231f20"/>
  <rect x="965.56" y="16.58" width="13.39" height="13.39" fill="#231f20"/>
  <rect x="794.93" y="103.56" width="13.39" height="13.39" fill="#231f20"/>
  <rect x="661.39" y="103.56" width="13.39" height="13.39" fill="#231f20"/>
  <rect x="702.43" y="103.56" width="13.39" height="13.39" fill="#231f20"/>
  <rect x="745.57" y="103.56" width="13.39" height="13.39" fill="#231f20"/>
  <rect x="618.08" y="103.56" width="13.39" height="13.39" fill="#231f20"/>
  <rect x="794.93" y="62.14" width="13.39" height="13.39" fill="#231f20"/>
  <rect x="661.39" y="62.14" width="13.39" height="13.39" fill="#231f20"/>
  <rect x="702.43" y="62.14" width="13.39" height="13.39" fill="#231f20"/>
  <rect x="745.57" y="62.14" width="13.39" height="13.39" fill="#231f20"/>
  <rect x="618.08" y="62.14" width="13.39" height="13.39" fill="#231f20"/>
  <rect x="577.22" y="103.56" width="13.39" height="13.39" fill="#231f20"/>
  <rect x="794.93" y="16.58" width="13.39" height="13.39" fill="#231f20"/>
  <rect x="661.39" y="16.58" width="13.39" height="13.39" fill="#231f20"/>
  <rect x="702.43" y="16.58" width="13.39" height="13.39" fill="#231f20"/>
  <rect x="745.57" y="16.58" width="13.39" height="13.39" fill="#231f20"/>
  <rect x="618.08" y="16.58" width="13.39" height="13.39" fill="#231f20"/>
  <rect x="577.22" y="16.58" width="13.39" height="13.39" fill="#231f20"/>
  <rect x="533.67" y="274.7" width="13.39" height="13.39" fill="#231f20"/>
  <rect x="533.67" y="234.52" width="13.39" height="13.39" fill="#231f20"/>
  <rect x="533.67" y="188.17" width="13.39" height="13.39" fill="#231f20"/>
  <rect x="533.67" y="146.41" width="13.39" height="13.39" fill="#231f20"/>
  <rect x="533.67" y="103.56" width="13.39" height="13.39" fill="#231f20"/>
  <rect x="533.67" y="362.84" width="13.39" height="13.39" fill="#231f20"/>
  <rect x="533.67" y="448.37" width="13.39" height="13.39" fill="#231f20"/>
</svg>