<?xml version="1.0" encoding="UTF-8"?>
<svg id="_21" data-name="21" xmlns="http://www.w3.org/2000/svg" viewBox="0 0 1080 1080">
  <rect x="475.24" y="562.32" width="40.84" height="40.84" fill="#231f20"/>
  <rect x="604.92" y="302.65" width="40.84" height="40.84" fill="#231f20"/>
  <rect x="648.4" y="302.76" width="40.84" height="40.84" fill="#231f20"/>
  <rect x="604.92" y="389.38" width="40.84" height="40.84" fill="#231f20"/>
  <rect x="561.3" y="389.49" width="40.84" height="40.84" fill="#231f20"/>
  <rect x="648.4" y="260.33" width="40.84" height="40.84" fill="#231f20"/>
  <rect x="691.6" y="260.01" width="40.84" height="40.84" fill="#231f20"/>
  <rect x="734.61" y="259.16" width="40.84" height="40.84" fill="#231f20"/>
  <rect x="777.84" y="259.16" width="40.84" height="40.84" fill="#231f20"/>
  <rect x="734.61" y="216.42" width="40.84" height="40.84" fill="#231f20"/>
  <rect x="777.84" y="216.53" width="40.84" height="40.84" fill="#231f20"/>
  <rect x="820.81" y="259.16" width="40.84" height="40.84" fill="#231f20"/>
  <rect x="820.81" y="216.53" width="40.84" height="40.84" fill="#231f20"/>
  <rect x="734.61" y="173.33" width="40.84" height="40.84" fill="#231f20"/>
  <rect x="777.84" y="173.44" width="40.84" height="40.84" fill="#231f20"/>
  <rect x="820.81" y="173.44" width="40.84" height="40.84" fill="#231f20"/>
  <rect x="864.19" y="173.38" width="40.84" height="40.84" fill="#231f20"/>
  <rect x="906.91" y="173.49" width="40.84" height="40.84" fill="#231f20"/>
  <rect x="950.5" y="173.49" width="40.84" height="40.84" fill="#231f20"/>
  <rect x="993.6" y="173.49" width="40.84" height="40.84" fill="#231f20"/>
  <rect x="1036.54" y="173.49" width="40.84" height="40.84" fill="#231f20"/>
  <rect x="864.19" y="216.47" width="40.84" height="40.84" fill="#231f20"/>
  <rect x="906.91" y="216.58" width="40.84" height="40.84" fill="#231f20"/>
  <rect x="950.5" y="216.58" width="40.84" height="40.84" fill="#231f20"/>
  <rect x="734.61" y="130.13" width="40.84" height="40.84" fill="#231f20"/>
  <rect x="777.84" y="130.24" width="40.84" height="40.84" fill="#231f20"/>
  <rect x="820.81" y="130.24" width="40.84" height="40.84" fill="#231f20"/>
  <rect x="691.6" y="302.28" width="40.84" height="40.84" fill="#231f20"/>
  <rect x="734.61" y="302.82" width="40.84" height="40.84" fill="#231f20"/>
  <rect x="561.3" y="302.65" width="40.84" height="40.84" fill="#231f20"/>
  <rect x="561.3" y="346.04" width="40.84" height="40.84" fill="#231f20"/>
  <rect x="518.5" y="389.16" width="40.84" height="40.84" fill="#231f20"/>
  <rect x="475.24" y="389.79" width="40.84" height="40.84" fill="#231f20"/>
  <rect x="475.24" y="432.91" width="40.84" height="40.84" fill="#231f20"/>
  <rect x="432.05" y="432.56" width="40.84" height="40.84" fill="#231f20"/>
  <rect x="432.05" y="475.68" width="40.84" height="40.84" fill="#231f20"/>
  <rect x="388.72" y="475.68" width="40.84" height="40.84" fill="#231f20"/>
  <rect x="388.72" y="519.06" width="40.84" height="40.84" fill="#231f20"/>
  <rect x="388.72" y="562.44" width="40.84" height="40.84" fill="#231f20"/>
  <rect x="432.05" y="518.97" width="40.84" height="40.84" fill="#231f20"/>
  <rect x="432.05" y="562.35" width="40.84" height="40.84" fill="#231f20"/>
  <rect x="345.07" y="518.8" width="40.84" height="40.84" fill="#231f20"/>
  <rect x="345.07" y="561.96" width="40.84" height="40.84" fill="#231f20"/>
  <rect x="345.07" y="605.82" width="40.84" height="40.84" fill="#231f20"/>
  <rect x="302.49" y="561.93" width="40.84" height="40.84" fill="#231f20"/>
  <rect x="302.49" y="605.79" width="40.84" height="40.84" fill="#231f20"/>
  <rect x="302.49" y="648.64" width="40.84" height="40.84" fill="#231f20"/>
  <rect x="259.35" y="648.6" width="40.84" height="40.84" fill="#231f20"/>
  <rect x="259.35" y="691.51" width="40.84" height="40.84" fill="#231f20"/>
  <rect x="216.15" y="691.48" width="40.84" height="40.84" fill="#231f20"/>
  <rect x="259.35" y="734.45" width="40.84" height="40.84" fill="#231f20"/>
  <rect x="216.15" y="734.42" width="40.84" height="40.84" fill="#231f20"/>
  <rect x="216.15" y="777.85" width="40.84" height="40.84" fill="#231f20"/>
  <rect x="173.03" y="777.59" width="40.84" height="40.84" fill="#231f20"/>
  <rect x="173.03" y="821.02" width="40.84" height="40.84" fill="#231f20"/>
  <rect x="129.59" y="821.22" width="40.84" height="40.84" fill="#231f20"/>
  <rect x="173.03" y="864.46" width="40.84" height="40.84" fill="#231f20"/>
  <rect x="129.59" y="864.24" width="40.84" height="40.84" fill="#231f20"/>
  <rect x="173.03" y="908.33" width="40.84" height="40.84" fill="#231f20"/>
  <rect x="129.59" y="908.12" width="40.84" height="40.84" fill="#231f20"/>
  <rect x="129.59" y="950.89" width="40.84" height="40.84" fill="#231f20"/>
  <rect x="129.59" y="994.21" width="40.84" height="40.84" fill="#231f20"/>
  <rect x="86.03" y="994.21" width="40.84" height="40.84" fill="#231f20"/>
  <rect x="129.59" y="1036.59" width="40.84" height="40.84" fill="#231f20"/>
  <rect x="86.03" y="1036.59" width="40.84" height="40.84" fill="#231f20"/>
  <rect x="488.96" y="533.2" width="13.39" height="13.39" fill="#231f20"/>
  <rect x="488.96" y="315.75" width="13.39" height="13.39" fill="#231f20"/>
  <rect x="488.96" y="272.99" width="13.39" height="13.39" fill="#231f20"/>
  <rect x="532.23" y="228.52" width="13.39" height="13.39" fill="#231f20"/>
  <rect x="315.24" y="228.79" width="13.39" height="13.39" fill="#231f20"/>
  <rect x="315.24" y="187.11" width="13.39" height="13.39" fill="#231f20"/>
  <rect x="274.77" y="143.28" width="13.39" height="13.39" fill="#231f20"/>
  <rect x="274.77" y="101.59" width="13.39" height="13.39" fill="#231f20"/>
  <rect x="274.77" y="56.83" width="13.39" height="13.39" fill="#231f20"/>
  <rect x="274.77" y="15.14" width="13.39" height="13.39" fill="#231f20"/>
  <rect x="575.02" y="187.11" width="13.39" height="13.39" fill="#231f20"/>
  <rect x="575.02" y="142.82" width="13.39" height="13.39" fill="#231f20"/>
  <rect x="619.9" y="142.82" width="13.39" height="13.39" fill="#231f20"/>
  <rect x="619.9" y="99.1" width="13.39" height="13.39" fill="#231f20"/>
  <rect x="619.9" y="56.76" width="13.39" height="13.39" fill="#231f20"/>
  <rect x="661.74" y="56.76" width="13.39" height="13.39" fill="#231f20"/>
  <rect x="661.74" y="15.88" width="13.39" height="13.39" fill="#231f20"/>
  <rect x="575.02" y="228.79" width="13.39" height="13.39" fill="#231f20"/>
  <rect x="532.23" y="316.11" width="13.39" height="13.39" fill="#231f20"/>
  <rect x="488.96" y="359.63" width="13.39" height="13.39" fill="#231f20"/>
  <rect x="532.23" y="359.99" width="13.39" height="13.39" fill="#231f20"/>
  <rect x="402.45" y="402.72" width="13.39" height="13.39" fill="#231f20"/>
  <rect x="402.45" y="446.28" width="13.39" height="13.39" fill="#231f20"/>
  <rect x="358.8" y="447.2" width="13.39" height="13.39" fill="#231f20"/>
  <rect x="358.8" y="490.76" width="13.39" height="13.39" fill="#231f20"/>
  <rect x="316.21" y="490.49" width="13.39" height="13.39" fill="#231f20"/>
  <rect x="316.21" y="534.05" width="13.39" height="13.39" fill="#231f20"/>
  <rect x="273.07" y="577.34" width="13.39" height="13.39" fill="#231f20"/>
  <rect x="273.07" y="620.9" width="13.39" height="13.39" fill="#231f20"/>
  <rect x="229.88" y="620.13" width="13.39" height="13.39" fill="#231f20"/>
  <rect x="229.88" y="663.69" width="13.39" height="13.39" fill="#231f20"/>
  <rect x="99.76" y="920.4" width="13.39" height="13.39" fill="#231f20"/>
  <rect x="99.76" y="963.96" width="13.39" height="13.39" fill="#231f20"/>
  <rect x="57.23" y="1006.57" width="13.39" height="13.39" fill="#231f20"/>
  <rect x="57.23" y="1050.13" width="13.39" height="13.39" fill="#231f20"/>
  <rect x="99.76" y="833.5" width="13.39" height="13.39" fill="#231f20"/>
  <rect x="99.76" y="877.07" width="13.39" height="13.39" fill="#231f20"/>
  <rect x="445.78" y="403.7" width="13.39" height="13.39" fill="#231f20"/>
  <rect x="575.02" y="274.11" width="13.39" height="13.39" fill="#231f20"/>
  <rect x="618.65" y="274.11" width="13.39" height="13.39" fill="#231f20"/>
  <rect x="618.65" y="360.26" width="13.39" height="13.39" fill="#231f20"/>
  <rect x="703.93" y="185.61" width="13.39" height="13.39" fill="#231f20"/>
  <rect x="703.93" y="228.37" width="13.39" height="13.39" fill="#231f20"/>
  <rect x="703.93" y="98.68" width="13.39" height="13.39" fill="#231f20"/>
  <rect x="661.74" y="99.1" width="13.39" height="13.39" fill="#231f20"/>
  <rect x="748.33" y="99.1" width="13.39" height="13.39" fill="#231f20"/>
  <rect x="834.53" y="99.1" width="13.39" height="13.39" fill="#231f20"/>
  <rect x="790.38" y="99.1" width="13.39" height="13.39" fill="#231f20"/>
  <rect x="877.91" y="99.1" width="13.39" height="13.39" fill="#231f20"/>
  <rect x="662.66" y="360.26" width="13.39" height="13.39" fill="#231f20"/>
  <rect x="748.33" y="360.26" width="13.39" height="13.39" fill="#231f20"/>
  <rect x="704.21" y="359.83" width="13.39" height="13.39" fill="#231f20"/>
  <rect x="791.84" y="360.26" width="13.39" height="13.39" fill="#231f20"/>
  <rect x="877.91" y="360.26" width="13.39" height="13.39" fill="#231f20"/>
  <rect x="834.53" y="360.26" width="13.39" height="13.39" fill="#231f20"/>
  <rect x="920.63" y="360.26" width="13.39" height="13.39" fill="#231f20"/>
  <rect x="791.84" y="316.54" width="13.39" height="13.39" fill="#231f20"/>
  <rect x="877.91" y="316.54" width="13.39" height="13.39" fill="#231f20"/>
  <rect x="834.53" y="316.54" width="13.39" height="13.39" fill="#231f20"/>
  <rect x="920.63" y="316.54" width="13.39" height="13.39" fill="#231f20"/>
  <rect x="877.91" y="274.06" width="13.39" height="13.39" fill="#231f20"/>
  <rect x="920.63" y="274.06" width="13.39" height="13.39" fill="#231f20"/>
  <rect x="964.22" y="360.26" width="13.39" height="13.39" fill="#231f20"/>
  <rect x="1007.32" y="360.26" width="13.39" height="13.39" fill="#231f20"/>
  <rect x="964.22" y="316.54" width="13.39" height="13.39" fill="#231f20"/>
  <rect x="1007.32" y="316.54" width="13.39" height="13.39" fill="#231f20"/>
  <rect x="964.22" y="274.06" width="13.39" height="13.39" fill="#231f20"/>
  <rect x="1007.32" y="274.06" width="13.39" height="13.39" fill="#231f20"/>
  <rect x="1050.27" y="360.26" width="13.39" height="13.39" fill="#231f20"/>
  <rect x="662.66" y="403.1" width="13.39" height="13.39" fill="#231f20"/>
  <rect x="748.33" y="403.1" width="13.39" height="13.39" fill="#231f20"/>
  <rect x="704.21" y="402.68" width="13.39" height="13.39" fill="#231f20"/>
  <rect x="791.84" y="403.1" width="13.39" height="13.39" fill="#231f20"/>
  <rect x="877.91" y="403.1" width="13.39" height="13.39" fill="#231f20"/>
  <rect x="834.53" y="403.1" width="13.39" height="13.39" fill="#231f20"/>
  <rect x="920.63" y="403.1" width="13.39" height="13.39" fill="#231f20"/>
  <rect x="964.22" y="403.1" width="13.39" height="13.39" fill="#231f20"/>
  <rect x="1007.32" y="403.1" width="13.39" height="13.39" fill="#231f20"/>
  <rect x="1050.27" y="403.1" width="13.39" height="13.39" fill="#231f20"/>
  <rect x="748.33" y="446.56" width="13.39" height="13.39" fill="#231f20"/>
  <rect x="791.84" y="446.56" width="13.39" height="13.39" fill="#231f20"/>
  <rect x="877.91" y="446.56" width="13.39" height="13.39" fill="#231f20"/>
  <rect x="834.53" y="446.56" width="13.39" height="13.39" fill="#231f20"/>
  <rect x="920.63" y="446.56" width="13.39" height="13.39" fill="#231f20"/>
  <rect x="964.22" y="446.56" width="13.39" height="13.39" fill="#231f20"/>
  <rect x="1007.32" y="446.56" width="13.39" height="13.39" fill="#231f20"/>
  <rect x="1050.27" y="446.56" width="13.39" height="13.39" fill="#231f20"/>
  <rect x="748.33" y="489.4" width="13.39" height="13.39" fill="#231f20"/>
  <rect x="791.84" y="489.4" width="13.39" height="13.39" fill="#231f20"/>
  <rect x="877.91" y="489.4" width="13.39" height="13.39" fill="#231f20"/>
  <rect x="834.53" y="489.4" width="13.39" height="13.39" fill="#231f20"/>
  <rect x="920.63" y="489.4" width="13.39" height="13.39" fill="#231f20"/>
  <rect x="964.22" y="489.4" width="13.39" height="13.39" fill="#231f20"/>
  <rect x="1007.32" y="489.4" width="13.39" height="13.39" fill="#231f20"/>
  <rect x="1050.27" y="489.4" width="13.39" height="13.39" fill="#231f20"/>
  <rect x="748.33" y="532.85" width="13.39" height="13.39" fill="#231f20"/>
  <rect x="791.84" y="532.85" width="13.39" height="13.39" fill="#231f20"/>
  <rect x="877.91" y="532.85" width="13.39" height="13.39" fill="#231f20"/>
  <rect x="834.53" y="532.85" width="13.39" height="13.39" fill="#231f20"/>
  <rect x="920.63" y="532.85" width="13.39" height="13.39" fill="#231f20"/>
  <rect x="964.22" y="532.85" width="13.39" height="13.39" fill="#231f20"/>
  <rect x="1007.32" y="532.85" width="13.39" height="13.39" fill="#231f20"/>
  <rect x="1050.27" y="532.85" width="13.39" height="13.39" fill="#231f20"/>
  <rect x="1050.27" y="316.54" width="13.39" height="13.39" fill="#231f20"/>
  <rect x="1050.27" y="274.06" width="13.39" height="13.39" fill="#231f20"/>
  <rect x="532.23" y="532.58" width="13.39" height="13.39" fill="#231f20"/>
  <rect x="575.02" y="532.85" width="13.39" height="13.39" fill="#231f20"/>
  <rect x="532.23" y="489.6" width="13.39" height="13.39" fill="#231f20"/>
  <rect x="488.96" y="490.23" width="13.39" height="13.39" fill="#231f20"/>
  <rect x="575.02" y="489.87" width="13.39" height="13.39" fill="#231f20"/>
  <rect x="532.23" y="447.12" width="13.39" height="13.39" fill="#231f20"/>
  <rect x="575.02" y="447.39" width="13.39" height="13.39" fill="#231f20"/>
  <rect x="619.15" y="532.85" width="13.39" height="13.39" fill="#231f20"/>
  <rect x="664.02" y="532.85" width="13.39" height="13.39" fill="#231f20"/>
  <rect x="619.15" y="489.87" width="13.39" height="13.39" fill="#231f20"/>
  <rect x="664.02" y="489.87" width="13.39" height="13.39" fill="#231f20"/>
  <rect x="619.15" y="447.39" width="13.39" height="13.39" fill="#231f20"/>
  <rect x="664.02" y="447.39" width="13.39" height="13.39" fill="#231f20"/>
  <rect x="704.21" y="532.42" width="13.39" height="13.39" fill="#231f20"/>
  <rect x="704.21" y="489.45" width="13.39" height="13.39" fill="#231f20"/>
  <rect x="704.21" y="446.96" width="13.39" height="13.39" fill="#231f20"/>
  <rect x="748.33" y="573.67" width="13.39" height="13.39" fill="#231f20"/>
  <rect x="791.84" y="573.67" width="13.39" height="13.39" fill="#231f20"/>
  <rect x="877.91" y="573.67" width="13.39" height="13.39" fill="#231f20"/>
  <rect x="834.53" y="573.67" width="13.39" height="13.39" fill="#231f20"/>
  <rect x="920.63" y="573.67" width="13.39" height="13.39" fill="#231f20"/>
  <rect x="964.22" y="573.67" width="13.39" height="13.39" fill="#231f20"/>
  <rect x="1007.32" y="573.67" width="13.39" height="13.39" fill="#231f20"/>
  <rect x="1050.27" y="573.67" width="13.39" height="13.39" fill="#231f20"/>
  <rect x="748.33" y="616.51" width="13.39" height="13.39" fill="#231f20"/>
  <rect x="791.84" y="616.51" width="13.39" height="13.39" fill="#231f20"/>
  <rect x="877.91" y="616.51" width="13.39" height="13.39" fill="#231f20"/>
  <rect x="834.53" y="616.51" width="13.39" height="13.39" fill="#231f20"/>
  <rect x="920.63" y="616.51" width="13.39" height="13.39" fill="#231f20"/>
  <rect x="964.22" y="616.51" width="13.39" height="13.39" fill="#231f20"/>
  <rect x="1007.32" y="616.51" width="13.39" height="13.39" fill="#231f20"/>
  <rect x="1050.27" y="616.51" width="13.39" height="13.39" fill="#231f20"/>
  <rect x="748.33" y="659.95" width="13.39" height="13.39" fill="#231f20"/>
  <rect x="791.84" y="659.95" width="13.39" height="13.39" fill="#231f20"/>
  <rect x="877.91" y="659.95" width="13.39" height="13.39" fill="#231f20"/>
  <rect x="834.53" y="659.95" width="13.39" height="13.39" fill="#231f20"/>
  <rect x="920.63" y="659.95" width="13.39" height="13.39" fill="#231f20"/>
  <rect x="964.22" y="659.95" width="13.39" height="13.39" fill="#231f20"/>
  <rect x="1007.32" y="659.95" width="13.39" height="13.39" fill="#231f20"/>
  <rect x="1050.27" y="659.95" width="13.39" height="13.39" fill="#231f20"/>
  <rect x="532.23" y="659.68" width="13.39" height="13.39" fill="#231f20"/>
  <rect x="575.02" y="659.95" width="13.39" height="13.39" fill="#231f20"/>
  <rect x="532.23" y="616.71" width="13.39" height="13.39" fill="#231f20"/>
  <rect x="575.02" y="616.98" width="13.39" height="13.39" fill="#231f20"/>
  <rect x="532.23" y="574.23" width="13.39" height="13.39" fill="#231f20"/>
  <rect x="575.02" y="574.5" width="13.39" height="13.39" fill="#231f20"/>
  <rect x="619.15" y="659.95" width="13.39" height="13.39" fill="#231f20"/>
  <rect x="664.02" y="659.95" width="13.39" height="13.39" fill="#231f20"/>
  <rect x="619.15" y="616.98" width="13.39" height="13.39" fill="#231f20"/>
  <rect x="664.02" y="616.98" width="13.39" height="13.39" fill="#231f20"/>
  <rect x="619.15" y="574.5" width="13.39" height="13.39" fill="#231f20"/>
  <rect x="664.02" y="574.5" width="13.39" height="13.39" fill="#231f20"/>
  <rect x="704.21" y="659.53" width="13.39" height="13.39" fill="#231f20"/>
  <rect x="704.21" y="616.55" width="13.39" height="13.39" fill="#231f20"/>
  <rect x="704.21" y="574.07" width="13.39" height="13.39" fill="#231f20"/>
  <rect x="748.33" y="706.89" width="13.39" height="13.39" fill="#231f20"/>
  <rect x="791.84" y="706.89" width="13.39" height="13.39" fill="#231f20"/>
  <rect x="877.91" y="706.89" width="13.39" height="13.39" fill="#231f20"/>
  <rect x="834.53" y="706.89" width="13.39" height="13.39" fill="#231f20"/>
  <rect x="920.63" y="706.89" width="13.39" height="13.39" fill="#231f20"/>
  <rect x="964.22" y="706.89" width="13.39" height="13.39" fill="#231f20"/>
  <rect x="1007.32" y="706.89" width="13.39" height="13.39" fill="#231f20"/>
  <rect x="1050.27" y="706.89" width="13.39" height="13.39" fill="#231f20"/>
  <rect x="748.33" y="749.73" width="13.39" height="13.39" fill="#231f20"/>
  <rect x="791.84" y="749.73" width="13.39" height="13.39" fill="#231f20"/>
  <rect x="877.91" y="749.73" width="13.39" height="13.39" fill="#231f20"/>
  <rect x="834.53" y="749.73" width="13.39" height="13.39" fill="#231f20"/>
  <rect x="920.63" y="749.73" width="13.39" height="13.39" fill="#231f20"/>
  <rect x="964.22" y="749.73" width="13.39" height="13.39" fill="#231f20"/>
  <rect x="1007.32" y="749.73" width="13.39" height="13.39" fill="#231f20"/>
  <rect x="1050.27" y="749.73" width="13.39" height="13.39" fill="#231f20"/>
  <rect x="748.33" y="793.17" width="13.39" height="13.39" fill="#231f20"/>
  <rect x="791.84" y="793.17" width="13.39" height="13.39" fill="#231f20"/>
  <rect x="877.91" y="793.17" width="13.39" height="13.39" fill="#231f20"/>
  <rect x="834.53" y="793.17" width="13.39" height="13.39" fill="#231f20"/>
  <rect x="920.63" y="793.17" width="13.39" height="13.39" fill="#231f20"/>
  <rect x="964.22" y="793.17" width="13.39" height="13.39" fill="#231f20"/>
  <rect x="1007.32" y="793.17" width="13.39" height="13.39" fill="#231f20"/>
  <rect x="1050.27" y="793.17" width="13.39" height="13.39" fill="#231f20"/>
  <rect x="532.23" y="792.9" width="13.39" height="13.39" fill="#231f20"/>
  <rect x="575.02" y="793.17" width="13.39" height="13.39" fill="#231f20"/>
  <rect x="532.23" y="749.93" width="13.39" height="13.39" fill="#231f20"/>
  <rect x="575.02" y="750.2" width="13.39" height="13.39" fill="#231f20"/>
  <rect x="532.23" y="707.44" width="13.39" height="13.39" fill="#231f20"/>
  <rect x="575.02" y="707.71" width="13.39" height="13.39" fill="#231f20"/>
  <rect x="619.15" y="793.17" width="13.39" height="13.39" fill="#231f20"/>
  <rect x="664.02" y="793.17" width="13.39" height="13.39" fill="#231f20"/>
  <rect x="619.15" y="750.2" width="13.39" height="13.39" fill="#231f20"/>
  <rect x="664.02" y="750.2" width="13.39" height="13.39" fill="#231f20"/>
  <rect x="619.15" y="707.71" width="13.39" height="13.39" fill="#231f20"/>
  <rect x="664.02" y="707.71" width="13.39" height="13.39" fill="#231f20"/>
  <rect x="704.21" y="792.74" width="13.39" height="13.39" fill="#231f20"/>
  <rect x="704.21" y="749.77" width="13.39" height="13.39" fill="#231f20"/>
  <rect x="704.21" y="707.29" width="13.39" height="13.39" fill="#231f20"/>
  <rect x="748.33" y="833.99" width="13.39" height="13.39" fill="#231f20"/>
  <rect x="791.84" y="833.99" width="13.39" height="13.39" fill="#231f20"/>
  <rect x="877.91" y="833.99" width="13.39" height="13.39" fill="#231f20"/>
  <rect x="834.53" y="833.99" width="13.39" height="13.39" fill="#231f20"/>
  <rect x="920.63" y="833.99" width="13.39" height="13.39" fill="#231f20"/>
  <rect x="964.22" y="833.99" width="13.39" height="13.39" fill="#231f20"/>
  <rect x="1007.32" y="833.99" width="13.39" height="13.39" fill="#231f20"/>
  <rect x="1050.27" y="833.99" width="13.39" height="13.39" fill="#231f20"/>
  <rect x="748.33" y="876.84" width="13.39" height="13.39" fill="#231f20"/>
  <rect x="791.84" y="876.84" width="13.39" height="13.39" fill="#231f20"/>
  <rect x="877.91" y="876.84" width="13.39" height="13.39" fill="#231f20"/>
  <rect x="834.53" y="876.84" width="13.39" height="13.39" fill="#231f20"/>
  <rect x="920.63" y="876.84" width="13.39" height="13.39" fill="#231f20"/>
  <rect x="964.22" y="876.84" width="13.39" height="13.39" fill="#231f20"/>
  <rect x="1007.32" y="876.84" width="13.39" height="13.39" fill="#231f20"/>
  <rect x="1050.27" y="876.84" width="13.39" height="13.39" fill="#231f20"/>
  <rect x="748.33" y="920.28" width="13.39" height="13.39" fill="#231f20"/>
  <rect x="791.84" y="920.28" width="13.39" height="13.39" fill="#231f20"/>
  <rect x="877.91" y="920.28" width="13.39" height="13.39" fill="#231f20"/>
  <rect x="834.53" y="920.28" width="13.39" height="13.39" fill="#231f20"/>
  <rect x="920.63" y="920.28" width="13.39" height="13.39" fill="#231f20"/>
  <rect x="964.22" y="920.28" width="13.39" height="13.39" fill="#231f20"/>
  <rect x="1007.32" y="920.28" width="13.39" height="13.39" fill="#231f20"/>
  <rect x="1050.27" y="920.28" width="13.39" height="13.39" fill="#231f20"/>
  <rect x="532.23" y="920.01" width="13.39" height="13.39" fill="#231f20"/>
  <rect x="575.02" y="920.28" width="13.39" height="13.39" fill="#231f20"/>
  <rect x="532.23" y="877.04" width="13.39" height="13.39" fill="#231f20"/>
  <rect x="575.02" y="877.3" width="13.39" height="13.39" fill="#231f20"/>
  <rect x="532.23" y="834.55" width="13.39" height="13.39" fill="#231f20"/>
  <rect x="575.02" y="834.82" width="13.39" height="13.39" fill="#231f20"/>
  <rect x="619.15" y="920.28" width="13.39" height="13.39" fill="#231f20"/>
  <rect x="664.02" y="920.28" width="13.39" height="13.39" fill="#231f20"/>
  <rect x="619.15" y="877.3" width="13.39" height="13.39" fill="#231f20"/>
  <rect x="664.02" y="877.3" width="13.39" height="13.39" fill="#231f20"/>
  <rect x="619.15" y="834.82" width="13.39" height="13.39" fill="#231f20"/>
  <rect x="402.45" y="659.95" width="13.39" height="13.39" fill="#231f20"/>
  <rect x="445.78" y="659.95" width="13.39" height="13.39" fill="#231f20"/>
  <rect x="402.45" y="616.98" width="13.39" height="13.39" fill="#231f20"/>
  <rect x="445.78" y="616.98" width="13.39" height="13.39" fill="#231f20"/>
  <rect x="488.96" y="660.31" width="13.39" height="13.39" fill="#231f20"/>
  <rect x="488.96" y="617.34" width="13.39" height="13.39" fill="#231f20"/>
  <rect x="402.45" y="793.17" width="13.39" height="13.39" fill="#231f20"/>
  <rect x="445.78" y="793.17" width="13.39" height="13.39" fill="#231f20"/>
  <rect x="402.45" y="750.2" width="13.39" height="13.39" fill="#231f20"/>
  <rect x="445.78" y="750.2" width="13.39" height="13.39" fill="#231f20"/>
  <rect x="402.45" y="707.71" width="13.39" height="13.39" fill="#231f20"/>
  <rect x="445.78" y="707.71" width="13.39" height="13.39" fill="#231f20"/>
  <rect x="488.96" y="793.53" width="13.39" height="13.39" fill="#231f20"/>
  <rect x="488.96" y="750.56" width="13.39" height="13.39" fill="#231f20"/>
  <rect x="488.96" y="708.07" width="13.39" height="13.39" fill="#231f20"/>
  <rect x="402.45" y="920.28" width="13.39" height="13.39" fill="#231f20"/>
  <rect x="445.78" y="920.28" width="13.39" height="13.39" fill="#231f20"/>
  <rect x="402.45" y="877.3" width="13.39" height="13.39" fill="#231f20"/>
  <rect x="445.78" y="877.3" width="13.39" height="13.39" fill="#231f20"/>
  <rect x="402.45" y="834.82" width="13.39" height="13.39" fill="#231f20"/>
  <rect x="358.8" y="659.95" width="13.39" height="13.39" fill="#231f20"/>
  <rect x="358.8" y="793.17" width="13.39" height="13.39" fill="#231f20"/>
  <rect x="358.8" y="750.2" width="13.39" height="13.39" fill="#231f20"/>
  <rect x="358.8" y="707.71" width="13.39" height="13.39" fill="#231f20"/>
  <rect x="358.8" y="920.28" width="13.39" height="13.39" fill="#231f20"/>
  <rect x="358.8" y="877.3" width="13.39" height="13.39" fill="#231f20"/>
  <rect x="358.8" y="834.82" width="13.39" height="13.39" fill="#231f20"/>
  <rect x="316.21" y="793.17" width="13.39" height="13.39" fill="#231f20"/>
  <rect x="316.21" y="750.2" width="13.39" height="13.39" fill="#231f20"/>
  <rect x="316.21" y="707.71" width="13.39" height="13.39" fill="#231f20"/>
  <rect x="316.21" y="920.28" width="13.39" height="13.39" fill="#231f20"/>
  <rect x="316.21" y="877.3" width="13.39" height="13.39" fill="#231f20"/>
  <rect x="316.21" y="834.82" width="13.39" height="13.39" fill="#231f20"/>
  <rect x="273.07" y="793.17" width="13.39" height="13.39" fill="#231f20"/>
  <rect x="273.07" y="920.28" width="13.39" height="13.39" fill="#231f20"/>
  <rect x="273.07" y="877.3" width="13.39" height="13.39" fill="#231f20"/>
  <rect x="273.07" y="834.82" width="13.39" height="13.39" fill="#231f20"/>
  <rect x="229.88" y="920.28" width="13.39" height="13.39" fill="#231f20"/>
  <rect x="229.88" y="877.3" width="13.39" height="13.39" fill="#231f20"/>
  <rect x="229.88" y="834.82" width="13.39" height="13.39" fill="#231f20"/>
  <rect x="445.78" y="834.82" width="13.39" height="13.39" fill="#231f20"/>
  <rect x="488.96" y="920.64" width="13.39" height="13.39" fill="#231f20"/>
  <rect x="488.96" y="877.66" width="13.39" height="13.39" fill="#231f20"/>
  <rect x="488.96" y="835.18" width="13.39" height="13.39" fill="#231f20"/>
  <rect x="664.02" y="834.82" width="13.39" height="13.39" fill="#231f20"/>
  <rect x="704.21" y="919.85" width="13.39" height="13.39" fill="#231f20"/>
  <rect x="748.33" y="964.62" width="13.39" height="13.39" fill="#231f20"/>
  <rect x="791.84" y="964.62" width="13.39" height="13.39" fill="#231f20"/>
  <rect x="877.91" y="964.62" width="13.39" height="13.39" fill="#231f20"/>
  <rect x="834.53" y="964.62" width="13.39" height="13.39" fill="#231f20"/>
  <rect x="920.63" y="964.62" width="13.39" height="13.39" fill="#231f20"/>
  <rect x="964.22" y="964.62" width="13.39" height="13.39" fill="#231f20"/>
  <rect x="1007.32" y="964.62" width="13.39" height="13.39" fill="#231f20"/>
  <rect x="1050.27" y="964.62" width="13.39" height="13.39" fill="#231f20"/>
  <rect x="532.23" y="964.35" width="13.39" height="13.39" fill="#231f20"/>
  <rect x="575.02" y="964.62" width="13.39" height="13.39" fill="#231f20"/>
  <rect x="619.15" y="964.62" width="13.39" height="13.39" fill="#231f20"/>
  <rect x="664.02" y="964.62" width="13.39" height="13.39" fill="#231f20"/>
  <rect x="445.78" y="964.62" width="13.39" height="13.39" fill="#231f20"/>
  <rect x="358.8" y="964.62" width="13.39" height="13.39" fill="#231f20"/>
  <rect x="316.21" y="964.62" width="13.39" height="13.39" fill="#231f20"/>
  <rect x="273.07" y="964.62" width="13.39" height="13.39" fill="#231f20"/>
  <rect x="229.88" y="964.62" width="13.39" height="13.39" fill="#231f20"/>
  <rect x="186.75" y="964.39" width="13.39" height="13.39" fill="#231f20"/>
  <rect x="488.96" y="964.98" width="13.39" height="13.39" fill="#231f20"/>
  <rect x="704.21" y="964.19" width="13.39" height="13.39" fill="#231f20"/>
  <rect x="748.33" y="1007.93" width="13.39" height="13.39" fill="#231f20"/>
  <rect x="791.84" y="1007.93" width="13.39" height="13.39" fill="#231f20"/>
  <rect x="877.91" y="1007.93" width="13.39" height="13.39" fill="#231f20"/>
  <rect x="834.53" y="1007.93" width="13.39" height="13.39" fill="#231f20"/>
  <rect x="920.63" y="1007.93" width="13.39" height="13.39" fill="#231f20"/>
  <rect x="964.22" y="1007.93" width="13.39" height="13.39" fill="#231f20"/>
  <rect x="1007.32" y="1007.93" width="13.39" height="13.39" fill="#231f20"/>
  <rect x="1050.27" y="1007.93" width="13.39" height="13.39" fill="#231f20"/>
  <rect x="532.23" y="1007.66" width="13.39" height="13.39" fill="#231f20"/>
  <rect x="575.02" y="1007.93" width="13.39" height="13.39" fill="#231f20"/>
  <rect x="619.15" y="1007.93" width="13.39" height="13.39" fill="#231f20"/>
  <rect x="664.02" y="1007.93" width="13.39" height="13.39" fill="#231f20"/>
  <rect x="445.78" y="1007.93" width="13.39" height="13.39" fill="#231f20"/>
  <rect x="358.8" y="1007.93" width="13.39" height="13.39" fill="#231f20"/>
  <rect x="316.21" y="1007.93" width="13.39" height="13.39" fill="#231f20"/>
  <rect x="273.07" y="1007.93" width="13.39" height="13.39" fill="#231f20"/>
  <rect x="229.88" y="1007.93" width="13.39" height="13.39" fill="#231f20"/>
  <rect x="186.75" y="1007.7" width="13.39" height="13.39" fill="#231f20"/>
  <rect x="488.96" y="1008.29" width="13.39" height="13.39" fill="#231f20"/>
  <rect x="704.21" y="1007.51" width="13.39" height="13.39" fill="#231f20"/>
  <rect x="748.33" y="1050.04" width="13.39" height="13.39" fill="#231f20"/>
  <rect x="791.84" y="1050.04" width="13.39" height="13.39" fill="#231f20"/>
  <rect x="877.91" y="1050.04" width="13.39" height="13.39" fill="#231f20"/>
  <rect x="834.53" y="1050.04" width="13.39" height="13.39" fill="#231f20"/>
  <rect x="920.63" y="1050.04" width="13.39" height="13.39" fill="#231f20"/>
  <rect x="964.22" y="1050.04" width="13.39" height="13.39" fill="#231f20"/>
  <rect x="1007.32" y="1050.04" width="13.39" height="13.39" fill="#231f20"/>
  <rect x="1050.27" y="1050.04" width="13.39" height="13.39" fill="#231f20"/>
  <rect x="532.23" y="1049.77" width="13.39" height="13.39" fill="#231f20"/>
  <rect x="575.02" y="1050.04" width="13.39" height="13.39" fill="#231f20"/>
  <rect x="619.15" y="1050.04" width="13.39" height="13.39" fill="#231f20"/>
  <rect x="664.02" y="1050.04" width="13.39" height="13.39" fill="#231f20"/>
  <rect x="445.78" y="1050.04" width="13.39" height="13.39" fill="#231f20"/>
  <rect x="358.8" y="1050.04" width="13.39" height="13.39" fill="#231f20"/>
  <rect x="402.45" y="1050.04" width="13.39" height="13.39" fill="#231f20"/>
  <rect x="316.21" y="1050.04" width="13.39" height="13.39" fill="#231f20"/>
  <rect x="273.07" y="1050.04" width="13.39" height="13.39" fill="#231f20"/>
  <rect x="229.88" y="1050.04" width="13.39" height="13.39" fill="#231f20"/>
  <rect x="186.75" y="1049.81" width="13.39" height="13.39" fill="#231f20"/>
  <rect x="488.96" y="1050.4" width="13.39" height="13.39" fill="#231f20"/>
  <rect x="704.21" y="1049.61" width="13.39" height="13.39" fill="#231f20"/>
  <rect x="704.21" y="876.88" width="13.39" height="13.39" fill="#231f20"/>
  <rect x="704.21" y="834.4" width="13.39" height="13.39" fill="#231f20"/>
  <rect x="1007.32" y="232.68" width="13.39" height="13.39" fill="#231f20"/>
  <rect x="1050.27" y="232.68" width="13.39" height="13.39" fill="#231f20"/>
  <rect x="877.91" y="142.82" width="13.39" height="13.39" fill="#231f20"/>
  <rect x="920.63" y="142.82" width="13.39" height="13.39" fill="#231f20"/>
  <rect x="964.22" y="142.82" width="13.39" height="13.39" fill="#231f20"/>
  <rect x="1007.32" y="142.82" width="13.39" height="13.39" fill="#231f20"/>
  <rect x="1050.27" y="142.82" width="13.39" height="13.39" fill="#231f20"/>
  <rect x="1007.32" y="97.1" width="13.39" height="13.39" fill="#231f20"/>
  <rect x="1050.27" y="97.1" width="13.39" height="13.39" fill="#231f20"/>
  <rect x="703.93" y="142.4" width="13.39" height="13.39" fill="#231f20"/>
  <rect x="662.13" y="228.79" width="13.39" height="13.39" fill="#231f20"/>
</svg>