<?xml version="1.0" encoding="UTF-8"?>
<svg id="_22" data-name="22" xmlns="http://www.w3.org/2000/svg" viewBox="0 0 1080 1080">
  <rect x="87.57" y="606.55" width="40.84" height="40.84" fill="#231f20"/>
  <rect x="130.99" y="606.55" width="40.84" height="40.84" fill="#231f20"/>
  <rect x="217.34" y="736.12" width="40.84" height="40.84" fill="#231f20"/>
  <rect x="260.75" y="736.12" width="40.84" height="40.84" fill="#231f20"/>
  <rect x="433.35" y="649.78" width="40.84" height="40.84" fill="#231f20"/>
  <rect x="303.46" y="692.95" width="40.84" height="40.84" fill="#231f20"/>
  <rect x="476.97" y="649.78" width="40.84" height="40.84" fill="#231f20"/>
  <rect x="520.37" y="649.78" width="40.84" height="40.84" fill="#231f20"/>
  <rect x="433.35" y="694.23" width="40.84" height="40.84" fill="#231f20"/>
  <rect x="476.97" y="694.23" width="40.84" height="40.84" fill="#231f20"/>
  <rect x="346.94" y="649.78" width="40.84" height="40.84" fill="#231f20"/>
  <rect x="217.34" y="649.78" width="40.84" height="40.84" fill="#231f20"/>
  <rect x="390.35" y="649.78" width="40.84" height="40.84" fill="#231f20"/>
  <rect x="346.94" y="694.23" width="40.84" height="40.84" fill="#231f20"/>
  <rect x="390.35" y="694.23" width="40.84" height="40.84" fill="#231f20"/>
  <rect x="520.37" y="694.23" width="40.84" height="40.84" fill="#231f20"/>
  <rect x="433.35" y="606.31" width="40.84" height="40.84" fill="#231f20"/>
  <rect x="389.93" y="606.31" width="40.84" height="40.84" fill="#231f20"/>
  <rect x="476.97" y="606.31" width="40.84" height="40.84" fill="#231f20"/>
  <rect x="520.37" y="606.31" width="40.84" height="40.84" fill="#231f20"/>
  <rect x="563.18" y="606.31" width="40.84" height="40.84" fill="#231f20"/>
  <rect x="606.46" y="606.31" width="40.84" height="40.84" fill="#231f20"/>
  <rect x="433.35" y="563.32" width="40.84" height="40.84" fill="#231f20"/>
  <rect x="476.97" y="563.32" width="40.84" height="40.84" fill="#231f20"/>
  <rect x="520.37" y="563.32" width="40.84" height="40.84" fill="#231f20"/>
  <rect x="563.18" y="563.32" width="40.84" height="40.84" fill="#231f20"/>
  <rect x="433.35" y="520.25" width="40.84" height="40.84" fill="#231f20"/>
  <rect x="476.97" y="520.25" width="40.84" height="40.84" fill="#231f20"/>
  <rect x="520.37" y="520.25" width="40.84" height="40.84" fill="#231f20"/>
  <rect x="433.35" y="477.18" width="40.84" height="40.84" fill="#231f20"/>
  <rect x="389.93" y="477.18" width="40.84" height="40.84" fill="#231f20"/>
  <rect x="346.52" y="477.18" width="40.84" height="40.84" fill="#231f20"/>
  <rect x="346.52" y="433.86" width="40.84" height="40.84" fill="#231f20"/>
  <rect x="476.97" y="477.18" width="40.84" height="40.84" fill="#231f20"/>
  <rect x="520.37" y="477.18" width="40.84" height="40.84" fill="#231f20"/>
  <rect x="563.18" y="520.25" width="40.84" height="40.84" fill="#231f20"/>
  <rect x="563.18" y="477.18" width="40.84" height="40.84" fill="#231f20"/>
  <rect x="476.97" y="433.86" width="40.84" height="40.84" fill="#231f20"/>
  <rect x="520.37" y="433.86" width="40.84" height="40.84" fill="#231f20"/>
  <rect x="389.93" y="433.86" width="40.84" height="40.84" fill="#231f20"/>
  <rect x="433.35" y="433.86" width="40.84" height="40.84" fill="#231f20"/>
  <rect x="563.18" y="433.86" width="40.84" height="40.84" fill="#231f20"/>
  <rect x="520.37" y="390.55" width="40.84" height="40.84" fill="#231f20"/>
  <rect x="563.18" y="390.55" width="40.84" height="40.84" fill="#231f20"/>
  <rect x="520.37" y="347.23" width="40.84" height="40.84" fill="#231f20"/>
  <rect x="476.97" y="347.23" width="40.84" height="40.84" fill="#231f20"/>
  <rect x="389.82" y="347.23" width="40.84" height="40.84" fill="#231f20"/>
  <rect x="563.18" y="347.23" width="40.84" height="40.84" fill="#231f20"/>
  <rect x="520.37" y="303.91" width="40.84" height="40.84" fill="#231f20"/>
  <rect x="476.97" y="303.91" width="40.84" height="40.84" fill="#231f20"/>
  <rect x="433.35" y="303.91" width="40.84" height="40.84" fill="#231f20"/>
  <rect x="563.18" y="303.91" width="40.84" height="40.84" fill="#231f20"/>
  <rect x="822.46" y="303.91" width="40.84" height="40.84" fill="#231f20"/>
  <rect x="909.83" y="347.23" width="40.84" height="40.84" fill="#231f20"/>
  <rect x="909.83" y="303.91" width="40.84" height="40.84" fill="#231f20"/>
  <rect x="520.37" y="260.6" width="40.84" height="40.84" fill="#231f20"/>
  <rect x="433.35" y="260.6" width="40.84" height="40.84" fill="#231f20"/>
  <rect x="563.18" y="260.6" width="40.84" height="40.84" fill="#231f20"/>
  <rect x="606.46" y="260.6" width="40.84" height="40.84" fill="#231f20"/>
  <rect x="520.37" y="217.28" width="40.84" height="40.84" fill="#231f20"/>
  <rect x="476.97" y="217.28" width="40.84" height="40.84" fill="#231f20"/>
  <rect x="433.35" y="217.28" width="40.84" height="40.84" fill="#231f20"/>
  <rect x="563.18" y="217.28" width="40.84" height="40.84" fill="#231f20"/>
  <rect x="606.46" y="217.28" width="40.84" height="40.84" fill="#231f20"/>
  <rect x="520.37" y="173.96" width="40.84" height="40.84" fill="#231f20"/>
  <rect x="563.18" y="173.96" width="40.84" height="40.84" fill="#231f20"/>
  <rect x="606.46" y="87.33" width="40.84" height="40.84" fill="#231f20"/>
  <rect x="606.46" y="44.66" width="40.84" height="40.84" fill="#231f20"/>
  <rect x="563.18" y="44.66" width="40.84" height="40.84" fill="#231f20"/>
  <rect x="606.46" y=".67" width="40.84" height="40.84" fill="#231f20"/>
  <rect x="563.18" y=".67" width="40.84" height="40.84" fill="#231f20"/>
  <rect x="520.37" y=".67" width="40.84" height="40.84" fill="#231f20"/>
  <rect x="476.65" y=".67" width="40.84" height="40.84" fill="#231f20"/>
  <rect x="606.46" y="433.86" width="40.84" height="40.84" fill="#231f20"/>
  <rect x="822.46" y="390.55" width="40.84" height="40.84" fill="#231f20"/>
  <rect x="433.35" y="736.12" width="40.84" height="40.84" fill="#231f20"/>
  <rect x="476.97" y="736.12" width="40.84" height="40.84" fill="#231f20"/>
  <rect x="520.37" y="736.12" width="40.84" height="40.84" fill="#231f20"/>
  <rect x="433.35" y="779.66" width="40.84" height="40.84" fill="#231f20"/>
  <rect x="476.97" y="779.66" width="40.84" height="40.84" fill="#231f20"/>
  <rect x="520.37" y="779.66" width="40.84" height="40.84" fill="#231f20"/>
  <rect x="433.35" y="823.19" width="40.84" height="40.84" fill="#231f20"/>
  <rect x="476.97" y="823.19" width="40.84" height="40.84" fill="#231f20"/>
  <rect x="520.37" y="823.19" width="40.84" height="40.84" fill="#231f20"/>
  <rect x="433.35" y="866.73" width="40.84" height="40.84" fill="#231f20"/>
  <rect x="389.93" y="866.73" width="40.84" height="40.84" fill="#231f20"/>
  <rect x="389.93" y="824.14" width="40.84" height="40.84" fill="#231f20"/>
  <rect x="389.93" y="909.32" width="40.84" height="40.84" fill="#231f20"/>
  <rect x="433.35" y="909.32" width="40.84" height="40.84" fill="#231f20"/>
  <rect x="563.18" y="909.32" width="40.84" height="40.84" fill="#231f20"/>
  <rect x="606.46" y="866.73" width="40.84" height="40.84" fill="#231f20"/>
  <rect x="563.18" y="866.73" width="40.84" height="40.84" fill="#231f20"/>
  <rect x="433.35" y="952.54" width="40.84" height="40.84" fill="#231f20"/>
  <rect x="433.35" y="995.34" width="40.84" height="40.84" fill="#231f20"/>
  <rect x="476.97" y="952.54" width="40.84" height="40.84" fill="#231f20"/>
  <rect x="476.97" y="866.73" width="40.84" height="40.84" fill="#231f20"/>
  <rect x="520.37" y="866.73" width="40.84" height="40.84" fill="#231f20"/>
  <rect x="779.05" y="649.78" width="40.84" height="40.84" fill="#231f20"/>
  <rect x="778.52" y="606.31" width="40.84" height="40.84" fill="#231f20"/>
  <rect x="735.11" y="606.31" width="40.84" height="40.84" fill="#231f20"/>
  <rect x="778.52" y="562.85" width="40.84" height="40.84" fill="#231f20"/>
  <rect x="822.46" y="649.78" width="40.84" height="40.84" fill="#231f20"/>
  <rect x="779.05" y="693.03" width="40.84" height="40.84" fill="#231f20"/>
  <rect x="822.46" y="693.03" width="40.84" height="40.84" fill="#231f20"/>
  <rect x="779.05" y="736.04" width="40.84" height="40.84" fill="#231f20"/>
  <rect x="822.46" y="736.04" width="40.84" height="40.84" fill="#231f20"/>
  <rect x="779.05" y="779.06" width="40.84" height="40.84" fill="#231f20"/>
  <rect x="822.46" y="779.06" width="40.84" height="40.84" fill="#231f20"/>
  <rect x="822.14" y="822.07" width="40.84" height="40.84" fill="#231f20"/>
  <rect x="822.14" y="865.09" width="40.84" height="40.84" fill="#231f20"/>
  <rect x="865.55" y="822.07" width="40.84" height="40.84" fill="#231f20"/>
  <rect x="821.94" y="606.31" width="40.84" height="40.84" fill="#231f20"/>
  <rect x="821.94" y="562.85" width="40.84" height="40.84" fill="#231f20"/>
  <rect x="952" y="649.78" width="40.84" height="40.84" fill="#231f20"/>
  <rect x="951.48" y="606.31" width="40.84" height="40.84" fill="#231f20"/>
  <rect x="995.42" y="649.78" width="40.84" height="40.84" fill="#231f20"/>
  <rect x="952" y="693.24" width="40.84" height="40.84" fill="#231f20"/>
  <rect x="995.42" y="693.24" width="40.84" height="40.84" fill="#231f20"/>
  <rect x="994.89" y="606.31" width="40.84" height="40.84" fill="#231f20"/>
  <rect x="994.89" y="562.85" width="40.84" height="40.84" fill="#231f20"/>
  <rect x="217.34" y="779.27" width="40.84" height="40.84" fill="#231f20"/>
  <rect x="87.57" y="779.27" width="40.84" height="40.84" fill="#231f20"/>
  <rect x="260.75" y="779.27" width="40.84" height="40.84" fill="#231f20"/>
  <rect x="87.57" y="563.32" width="40.84" height="40.84" fill="#231f20"/>
  <rect x="259.47" y="433.86" width="40.84" height="40.84" fill="#231f20"/>
  <rect x="259.47" y="390.64" width="40.84" height="40.84" fill="#231f20"/>
  <rect x="259.47" y="347.41" width="40.84" height="40.84" fill="#231f20"/>
  <rect x="303.1" y="347.41" width="40.84" height="40.84" fill="#231f20"/>
  <rect x="259.47" y="304.18" width="40.84" height="40.84" fill="#231f20"/>
  <rect x="259.47" y="260.96" width="40.84" height="40.84" fill="#231f20"/>
  <rect x="44.16" y="606.55" width="40.84" height="40.84" fill="#231f20"/>
  <rect x="44.16" y="649.78" width="40.84" height="40.84" fill="#231f20"/>
  <rect x="44.16" y="694.23" width="40.84" height="40.84" fill="#231f20"/>
  <rect x="44.16" y="563.32" width="40.84" height="40.84" fill="#231f20"/>
  <rect x="188.51" y="620.27" width="13.39" height="13.39" fill="#231f20"/>
  <rect x="231.07" y="620.27" width="13.39" height="13.39" fill="#231f20"/>
  <rect x="274.48" y="620.27" width="13.39" height="13.39" fill="#231f20"/>
  <rect x="314.89" y="620.27" width="13.39" height="13.39" fill="#231f20"/>
  <rect x="360.24" y="620.27" width="13.39" height="13.39" fill="#231f20"/>
  <rect x="274.48" y="663.5" width="13.39" height="13.39" fill="#231f20"/>
  <rect x="314.89" y="663.5" width="13.39" height="13.39" fill="#231f20"/>
  <rect x="404.08" y="533.68" width="13.39" height="13.39" fill="#231f20"/>
  <rect x="359.89" y="533.68" width="13.39" height="13.39" fill="#231f20"/>
  <rect x="274.87" y="491.7" width="13.39" height="13.39" fill="#231f20"/>
  <rect x="230.68" y="491.7" width="13.39" height="13.39" fill="#231f20"/>
  <rect x="404.08" y="404.27" width="13.39" height="13.39" fill="#231f20"/>
  <rect x="359.89" y="404.27" width="13.39" height="13.39" fill="#231f20"/>
  <rect x="490.7" y="404.27" width="13.39" height="13.39" fill="#231f20"/>
  <rect x="447.07" y="404.27" width="13.39" height="13.39" fill="#231f20"/>
  <rect x="490.7" y="187.69" width="13.39" height="13.39" fill="#231f20"/>
  <rect x="447.07" y="187.69" width="13.39" height="13.39" fill="#231f20"/>
  <rect x="404.58" y="187.69" width="13.39" height="13.39" fill="#231f20"/>
  <rect x="360.06" y="187.69" width="13.39" height="13.39" fill="#231f20"/>
  <rect x="360.06" y="145.07" width="13.39" height="13.39" fill="#231f20"/>
  <rect x="534.09" y="57.42" width="13.39" height="13.39" fill="#231f20"/>
  <rect x="490.86" y="57.42" width="13.39" height="13.39" fill="#231f20"/>
  <rect x="448.37" y="57.42" width="13.39" height="13.39" fill="#231f20"/>
  <rect x="448.37" y="18.25" width="13.39" height="13.39" fill="#231f20"/>
  <rect x="576.9" y="144.69" width="13.39" height="13.39" fill="#231f20"/>
  <rect x="576.9" y="101.4" width="13.39" height="13.39" fill="#231f20"/>
  <rect x="620.19" y="144.69" width="13.39" height="13.39" fill="#231f20"/>
  <rect x="620.19" y="187.69" width="13.39" height="13.39" fill="#231f20"/>
  <rect x="661.6" y="100.02" width="13.39" height="13.39" fill="#231f20"/>
  <rect x="661.6" y="145.07" width="13.39" height="13.39" fill="#231f20"/>
  <rect x="705.22" y="56.61" width="13.39" height="13.39" fill="#231f20"/>
  <rect x="705.22" y="100.02" width="13.39" height="13.39" fill="#231f20"/>
  <rect x="748.84" y="56.61" width="13.39" height="13.39" fill="#231f20"/>
  <rect x="748.84" y="100.02" width="13.39" height="13.39" fill="#231f20"/>
  <rect x="836.09" y="56.61" width="13.39" height="13.39" fill="#231f20"/>
  <rect x="836.09" y="100.02" width="13.39" height="13.39" fill="#231f20"/>
  <rect x="879.29" y="56.61" width="13.39" height="13.39" fill="#231f20"/>
  <rect x="836.09" y="14.4" width="13.39" height="13.39" fill="#231f20"/>
  <rect x="879.29" y="14.4" width="13.39" height="13.39" fill="#231f20"/>
  <rect x="879.29" y="100.02" width="13.39" height="13.39" fill="#231f20"/>
  <rect x="880.17" y="143.69" width="13.39" height="13.39" fill="#231f20"/>
  <rect x="923.38" y="143.69" width="13.39" height="13.39" fill="#231f20"/>
  <rect x="923.38" y="100.02" width="13.39" height="13.39" fill="#231f20"/>
  <rect x="923.55" y="275.01" width="13.39" height="13.39" fill="#231f20"/>
  <rect x="923.55" y="231.34" width="13.39" height="13.39" fill="#231f20"/>
  <rect x="966.58" y="275.01" width="13.39" height="13.39" fill="#231f20"/>
  <rect x="966.58" y="231.34" width="13.39" height="13.39" fill="#231f20"/>
  <rect x="836.09" y="275.01" width="13.39" height="13.39" fill="#231f20"/>
  <rect x="836.09" y="231.34" width="13.39" height="13.39" fill="#231f20"/>
  <rect x="879.12" y="275.01" width="13.39" height="13.39" fill="#231f20"/>
  <rect x="879.12" y="231.34" width="13.39" height="13.39" fill="#231f20"/>
  <rect x="879.12" y="362.09" width="13.39" height="13.39" fill="#231f20"/>
  <rect x="879.12" y="317.74" width="13.39" height="13.39" fill="#231f20"/>
  <rect x="966.58" y="362.55" width="13.39" height="13.39" fill="#231f20"/>
  <rect x="966.58" y="318.88" width="13.39" height="13.39" fill="#231f20"/>
  <rect x="922.14" y="404.93" width="13.39" height="13.39" fill="#231f20"/>
  <rect x="966.58" y="404.93" width="13.39" height="13.39" fill="#231f20"/>
  <rect x="922.14" y="492.47" width="13.39" height="13.39" fill="#231f20"/>
  <rect x="922.14" y="448.79" width="13.39" height="13.39" fill="#231f20"/>
  <rect x="965.73" y="448.79" width="13.39" height="13.39" fill="#231f20"/>
  <rect x="965.73" y="492.47" width="13.39" height="13.39" fill="#231f20"/>
  <rect x="1010.67" y="448.79" width="13.39" height="13.39" fill="#231f20"/>
  <rect x="1010.67" y="492.47" width="13.39" height="13.39" fill="#231f20"/>
  <rect x="1010.67" y="535.25" width="13.39" height="13.39" fill="#231f20"/>
  <rect x="965.73" y="535.25" width="13.39" height="13.39" fill="#231f20"/>
  <rect x="1010.67" y="362.55" width="13.39" height="13.39" fill="#231f20"/>
  <rect x="1010.67" y="405.67" width="13.39" height="13.39" fill="#231f20"/>
  <rect x="792.33" y="362.09" width="13.39" height="13.39" fill="#231f20"/>
  <rect x="836.41" y="362.09" width="13.39" height="13.39" fill="#231f20"/>
  <rect x="748.62" y="362.09" width="13.39" height="13.39" fill="#231f20"/>
  <rect x="620.19" y="404.93" width="13.39" height="13.39" fill="#231f20"/>
  <rect x="705.91" y="362.09" width="13.39" height="13.39" fill="#231f20"/>
  <rect x="748.62" y="404.27" width="13.39" height="13.39" fill="#231f20"/>
  <rect x="748.62" y="490.91" width="13.39" height="13.39" fill="#231f20"/>
  <rect x="705.91" y="404.27" width="13.39" height="13.39" fill="#231f20"/>
  <rect x="662.68" y="404.27" width="13.39" height="13.39" fill="#231f20"/>
  <rect x="662.68" y="447.59" width="13.39" height="13.39" fill="#231f20"/>
  <rect x="835.66" y="447.59" width="13.39" height="13.39" fill="#231f20"/>
  <rect x="748.62" y="317.38" width="13.39" height="13.39" fill="#231f20"/>
  <rect x="705.91" y="318.51" width="13.39" height="13.39" fill="#231f20"/>
  <rect x="1010.67" y="318.88" width="13.39" height="13.39" fill="#231f20"/>
  <rect x="1010.67" y="143.69" width="13.39" height="13.39" fill="#231f20"/>
  <rect x="1010.67" y="100.02" width="13.39" height="13.39" fill="#231f20"/>
  <rect x="534.09" y="144.69" width="13.39" height="13.39" fill="#231f20"/>
  <rect x="447.07" y="361.13" width="13.39" height="13.39" fill="#231f20"/>
  <rect x="360.24" y="361.13" width="13.39" height="13.39" fill="#231f20"/>
  <rect x="316.65" y="317.94" width="13.39" height="13.39" fill="#231f20"/>
  <rect x="317" y="274.81" width="13.39" height="13.39" fill="#231f20"/>
  <rect x="360.06" y="317.94" width="13.39" height="13.39" fill="#231f20"/>
  <rect x="360.42" y="274.81" width="13.39" height="13.39" fill="#231f20"/>
  <rect x="403.48" y="317.94" width="13.39" height="13.39" fill="#231f20"/>
  <rect x="403.83" y="274.81" width="13.39" height="13.39" fill="#231f20"/>
  <rect x="273.19" y="229.74" width="13.39" height="13.39" fill="#231f20"/>
  <rect x="318.24" y="229.74" width="13.39" height="13.39" fill="#231f20"/>
  <rect x="273.19" y="187.69" width="13.39" height="13.39" fill="#231f20"/>
  <rect x="317" y="187.69" width="13.39" height="13.39" fill="#231f20"/>
  <rect x="273.19" y="143.65" width="13.39" height="13.39" fill="#231f20"/>
  <rect x="318.24" y="143.65" width="13.39" height="13.39" fill="#231f20"/>
  <rect x="231.38" y="187.69" width="13.39" height="13.39" fill="#231f20"/>
  <rect x="231.38" y="143.65" width="13.39" height="13.39" fill="#231f20"/>
  <rect x="273.19" y="101.4" width="13.39" height="13.39" fill="#231f20"/>
  <rect x="318.24" y="101.4" width="13.39" height="13.39" fill="#231f20"/>
  <rect x="231.38" y="101.4" width="13.39" height="13.39" fill="#231f20"/>
  <rect x="404.08" y="229.74" width="13.39" height="13.39" fill="#231f20"/>
  <rect x="490.7" y="274.81" width="13.39" height="13.39" fill="#231f20"/>
  <rect x="404.08" y="576.01" width="13.39" height="13.39" fill="#231f20"/>
  <rect x="360.67" y="576.01" width="13.39" height="13.39" fill="#231f20"/>
  <rect x="316.61" y="576.01" width="13.39" height="13.39" fill="#231f20"/>
  <rect x="273.19" y="576.01" width="13.39" height="13.39" fill="#231f20"/>
  <rect x="232.25" y="576.01" width="13.39" height="13.39" fill="#231f20"/>
  <rect x="188.19" y="576.01" width="13.39" height="13.39" fill="#231f20"/>
  <rect x="144.78" y="576.01" width="13.39" height="13.39" fill="#231f20"/>
  <rect x="232.25" y="533.68" width="13.39" height="13.39" fill="#231f20"/>
  <rect x="273.19" y="533.68" width="13.39" height="13.39" fill="#231f20"/>
  <rect x="188.19" y="533.68" width="13.39" height="13.39" fill="#231f20"/>
  <rect x="144.78" y="533.68" width="13.39" height="13.39" fill="#231f20"/>
  <rect x="100.01" y="533.68" width="13.39" height="13.39" fill="#231f20"/>
  <rect x="56.6" y="533.68" width="13.39" height="13.39" fill="#231f20"/>
  <rect x="144.78" y="491.7" width="13.39" height="13.39" fill="#231f20"/>
  <rect x="187.73" y="491.7" width="13.39" height="13.39" fill="#231f20"/>
  <rect x="100.01" y="491.7" width="13.39" height="13.39" fill="#231f20"/>
  <rect x="56.6" y="491.7" width="13.39" height="13.39" fill="#231f20"/>
  <rect x="144.78" y="447.88" width="13.39" height="13.39" fill="#231f20"/>
  <rect x="100.01" y="447.88" width="13.39" height="13.39" fill="#231f20"/>
  <rect x="56.6" y="447.88" width="13.39" height="13.39" fill="#231f20"/>
  <rect x="318.24" y="448.87" width="13.39" height="13.39" fill="#231f20"/>
  <rect x="318.24" y="404.27" width="13.39" height="13.39" fill="#231f20"/>
  <rect x="319.01" y="491.7" width="13.39" height="13.39" fill="#231f20"/>
  <rect x="231.07" y="706.68" width="13.39" height="13.39" fill="#231f20"/>
  <rect x="274.48" y="706.68" width="13.39" height="13.39" fill="#231f20"/>
  <rect x="144.67" y="706.68" width="13.39" height="13.39" fill="#231f20"/>
  <rect x="188.08" y="706.68" width="13.39" height="13.39" fill="#231f20"/>
  <rect x="144.67" y="663.5" width="13.39" height="13.39" fill="#231f20"/>
  <rect x="101.3" y="706.68" width="13.39" height="13.39" fill="#231f20"/>
  <rect x="317.66" y="836.92" width="13.39" height="13.39" fill="#231f20"/>
  <rect x="361.07" y="836.92" width="13.39" height="13.39" fill="#231f20"/>
  <rect x="231.26" y="836.92" width="13.39" height="13.39" fill="#231f20"/>
  <rect x="231.26" y="880.45" width="13.39" height="13.39" fill="#231f20"/>
  <rect x="274.67" y="836.92" width="13.39" height="13.39" fill="#231f20"/>
  <rect x="317.66" y="925.77" width="13.39" height="13.39" fill="#231f20"/>
  <rect x="361.07" y="925.77" width="13.39" height="13.39" fill="#231f20"/>
  <rect x="490.7" y="923.36" width="13.39" height="13.39" fill="#231f20"/>
  <rect x="534.09" y="923.36" width="13.39" height="13.39" fill="#231f20"/>
  <rect x="663.17" y="879.83" width="13.39" height="13.39" fill="#231f20"/>
  <rect x="706.58" y="879.83" width="13.39" height="13.39" fill="#231f20"/>
  <rect x="749.47" y="879.83" width="13.39" height="13.39" fill="#231f20"/>
  <rect x="706.58" y="793.16" width="13.39" height="13.39" fill="#231f20"/>
  <rect x="749.47" y="793.16" width="13.39" height="13.39" fill="#231f20"/>
  <rect x="706.58" y="749.77" width="13.39" height="13.39" fill="#231f20"/>
  <rect x="576.9" y="793.16" width="13.39" height="13.39" fill="#231f20"/>
  <rect x="576.9" y="749.77" width="13.39" height="13.39" fill="#231f20"/>
  <rect x="576.9" y="708.24" width="13.39" height="13.39" fill="#231f20"/>
  <rect x="620.19" y="749.77" width="13.39" height="13.39" fill="#231f20"/>
  <rect x="620.19" y="708.24" width="13.39" height="13.39" fill="#231f20"/>
  <rect x="663.17" y="708.24" width="13.39" height="13.39" fill="#231f20"/>
  <rect x="576.9" y="664.85" width="13.39" height="13.39" fill="#231f20"/>
  <rect x="620.19" y="664.85" width="13.39" height="13.39" fill="#231f20"/>
  <rect x="620.19" y="535.25" width="13.39" height="13.39" fill="#231f20"/>
  <rect x="620.19" y="491.86" width="13.39" height="13.39" fill="#231f20"/>
  <rect x="662.24" y="664.85" width="13.39" height="13.39" fill="#231f20"/>
  <rect x="662.24" y="620.04" width="13.39" height="13.39" fill="#231f20"/>
  <rect x="749.81" y="708.24" width="13.39" height="13.39" fill="#231f20"/>
  <rect x="749.81" y="664.85" width="13.39" height="13.39" fill="#231f20"/>
  <rect x="706.58" y="664.85" width="13.39" height="13.39" fill="#231f20"/>
  <rect x="749.81" y="533.98" width="13.39" height="13.39" fill="#231f20"/>
  <rect x="792.77" y="533.98" width="13.39" height="13.39" fill="#231f20"/>
  <rect x="835.66" y="533.98" width="13.39" height="13.39" fill="#231f20"/>
  <rect x="878.82" y="577.14" width="13.39" height="13.39" fill="#231f20"/>
  <rect x="922.14" y="577.14" width="13.39" height="13.39" fill="#231f20"/>
  <rect x="878.82" y="620.04" width="13.39" height="13.39" fill="#231f20"/>
  <rect x="922.14" y="620.04" width="13.39" height="13.39" fill="#231f20"/>
  <rect x="878.82" y="662.47" width="13.39" height="13.39" fill="#231f20"/>
  <rect x="922.14" y="662.47" width="13.39" height="13.39" fill="#231f20"/>
  <rect x="878.82" y="705.37" width="13.39" height="13.39" fill="#231f20"/>
  <rect x="922.14" y="705.37" width="13.39" height="13.39" fill="#231f20"/>
  <rect x="878.82" y="750.13" width="13.39" height="13.39" fill="#231f20"/>
  <rect x="922.14" y="750.13" width="13.39" height="13.39" fill="#231f20"/>
  <rect x="878.82" y="793.02" width="13.39" height="13.39" fill="#231f20"/>
  <rect x="922.14" y="793.02" width="13.39" height="13.39" fill="#231f20"/>
  <rect x="922.14" y="835.89" width="13.39" height="13.39" fill="#231f20"/>
  <rect x="922.14" y="878.79" width="13.39" height="13.39" fill="#231f20"/>
  <rect x="879.28" y="878.79" width="13.39" height="13.39" fill="#231f20"/>
  <rect x="965.51" y="750.13" width="13.39" height="13.39" fill="#231f20"/>
  <rect x="1008.83" y="750.13" width="13.39" height="13.39" fill="#231f20"/>
  <rect x="965.51" y="793.02" width="13.39" height="13.39" fill="#231f20"/>
  <rect x="1008.83" y="793.02" width="13.39" height="13.39" fill="#231f20"/>
  <rect x="965.73" y="577.14" width="13.39" height="13.39" fill="#231f20"/>
  <rect x="749.81" y="576.57" width="13.39" height="13.39" fill="#231f20"/>
  <rect x="620.19" y="576.57" width="13.39" height="13.39" fill="#231f20"/>
  <rect x="706.58" y="620.04" width="13.39" height="13.39" fill="#231f20"/>
  <rect x="749.47" y="749.77" width="13.39" height="13.39" fill="#231f20"/>
  <rect x="792.88" y="879.83" width="13.39" height="13.39" fill="#231f20"/>
  <rect x="749.47" y="837.86" width="13.39" height="13.39" fill="#231f20"/>
  <rect x="792.88" y="837.86" width="13.39" height="13.39" fill="#231f20"/>
  <rect x="620.19" y="837.86" width="13.39" height="13.39" fill="#231f20"/>
  <rect x="661.3" y="837.86" width="13.39" height="13.39" fill="#231f20"/>
  <rect x="534.09" y="966.27" width="13.39" height="13.39" fill="#231f20"/>
  <rect x="534.09" y="1008.09" width="13.39" height="13.39" fill="#231f20"/>
  <rect x="576.9" y="966.27" width="13.39" height="13.39" fill="#231f20"/>
  <rect x="620.19" y="966.27" width="13.39" height="13.39" fill="#231f20"/>
  <rect x="620.19" y="925.77" width="13.39" height="13.39" fill="#231f20"/>
  <rect x="361.07" y="881.34" width="13.39" height="13.39" fill="#231f20"/>
  <rect x="274.67" y="925.77" width="13.39" height="13.39" fill="#231f20"/>
  <rect x="231.07" y="925.77" width="13.39" height="13.39" fill="#231f20"/>
  <rect x="274.67" y="966.27" width="13.39" height="13.39" fill="#231f20"/>
  <rect x="231.07" y="966.27" width="13.39" height="13.39" fill="#231f20"/>
  <rect x="188.08" y="925.77" width="13.39" height="13.39" fill="#231f20"/>
  <rect x="144.67" y="925.77" width="13.39" height="13.39" fill="#231f20"/>
  <rect x="101.25" y="925.77" width="13.39" height="13.39" fill="#231f20"/>
  <rect x="187.89" y="836.92" width="13.39" height="13.39" fill="#231f20"/>
  <rect x="144.67" y="749.85" width="13.39" height="13.39" fill="#231f20"/>
  <rect x="188.08" y="749.85" width="13.39" height="13.39" fill="#231f20"/>
  <rect x="144.67" y="792.99" width="13.39" height="13.39" fill="#231f20"/>
  <rect x="188.08" y="792.99" width="13.39" height="13.39" fill="#231f20"/>
  <rect x="144.67" y="966" width="13.39" height="13.39" fill="#231f20"/>
  <rect x="188.08" y="966" width="13.39" height="13.39" fill="#231f20"/>
  <rect x="144.67" y="1009.15" width="13.39" height="13.39" fill="#231f20"/>
  <rect x="188.08" y="1009.15" width="13.39" height="13.39" fill="#231f20"/>
  <rect x="144.67" y="1051.93" width="13.39" height="13.39" fill="#231f20"/>
  <rect x="188.08" y="1051.93" width="13.39" height="13.39" fill="#231f20"/>
  <rect x="231.49" y="1009.15" width="13.39" height="13.39" fill="#231f20"/>
  <rect x="274.9" y="1009.15" width="13.39" height="13.39" fill="#231f20"/>
  <rect x="231.49" y="1051.93" width="13.39" height="13.39" fill="#231f20"/>
  <rect x="274.9" y="1051.93" width="13.39" height="13.39" fill="#231f20"/>
  <rect x="317.27" y="1009.15" width="13.39" height="13.39" fill="#231f20"/>
  <rect x="317.27" y="1051.93" width="13.39" height="13.39" fill="#231f20"/>
  <rect x="403.65" y="966.18" width="13.39" height="13.39" fill="#231f20"/>
  <rect x="403.65" y="1008.97" width="13.39" height="13.39" fill="#231f20"/>
  <rect x="490.7" y="1008.09" width="13.39" height="13.39" fill="#231f20"/>
  <rect x="490.7" y="1050.87" width="13.39" height="13.39" fill="#231f20"/>
  <rect x="101.3" y="749.85" width="13.39" height="13.39" fill="#231f20"/>
  <rect x="360.64" y="749.99" width="13.39" height="13.39" fill="#231f20"/>
  <rect x="404.06" y="749.99" width="13.39" height="13.39" fill="#231f20"/>
  <rect x="317.27" y="749.99" width="13.39" height="13.39" fill="#231f20"/>
  <rect x="360.64" y="793.16" width="13.39" height="13.39" fill="#231f20"/>
  <rect x="404.06" y="793.16" width="13.39" height="13.39" fill="#231f20"/>
  <rect x="317.27" y="793.16" width="13.39" height="13.39" fill="#231f20"/>
  <rect x="101.3" y="663.5" width="13.39" height="13.39" fill="#231f20"/>
  <rect x="188.08" y="663.5" width="13.39" height="13.39" fill="#231f20"/>
  <rect x="231.38" y="229.74" width="13.39" height="13.39" fill="#231f20"/>
  <rect x="230.94" y="316.14" width="13.39" height="13.39" fill="#231f20"/>
  <rect x="230.75" y="447.88" width="13.39" height="13.39" fill="#231f20"/>
  <rect x="187.76" y="447.88" width="13.39" height="13.39" fill="#231f20"/>
  <rect x="230.94" y="359.31" width="13.39" height="13.39" fill="#231f20"/>
  <rect x="230.94" y="402.46" width="13.39" height="13.39" fill="#231f20"/>
  <rect x="188.19" y="402.46" width="13.39" height="13.39" fill="#231f20"/>
  <rect x="230.94" y="272.96" width="13.39" height="13.39" fill="#231f20"/>
  <rect x="101.82" y="187.69" width="13.39" height="13.39" fill="#231f20"/>
  <rect x="58.49" y="187.69" width="13.39" height="13.39" fill="#231f20"/>
  <rect x="15.58" y="187.69" width="13.39" height="13.39" fill="#231f20"/>
  <rect x="101.82" y="229.74" width="13.39" height="13.39" fill="#231f20"/>
  <rect x="101.82" y="59.35" width="13.39" height="13.39" fill="#231f20"/>
  <rect x="101.82" y="101.4" width="13.39" height="13.39" fill="#231f20"/>
  <rect x="58.49" y="59.35" width="13.39" height="13.39" fill="#231f20"/>
  <rect x="101.82" y="18.25" width="13.39" height="13.39" fill="#231f20"/>
  <rect x="58.49" y="18.25" width="13.39" height="13.39" fill="#231f20"/>
  <rect x="58.49" y="101.4" width="13.39" height="13.39" fill="#231f20"/>
  <rect x="15.58" y="59.35" width="13.39" height="13.39" fill="#231f20"/>
  <rect x="15.58" y="101.4" width="13.39" height="13.39" fill="#231f20"/>
  <rect x="101.39" y="272.96" width="13.39" height="13.39" fill="#231f20"/>
  <rect x="58.49" y="272.96" width="13.39" height="13.39" fill="#231f20"/>
  <rect x="58.49" y="316.14" width="13.39" height="13.39" fill="#231f20"/>
</svg>