<?xml version="1.0" encoding="UTF-8"?>
<svg id="_23" data-name="23" xmlns="http://www.w3.org/2000/svg" viewBox="0 0 1080 1080">
  <rect x="563.11" y="518.86" width="40.84" height="40.84" fill="#231f20"/>
  <rect x="346.91" y="518.86" width="40.84" height="40.84" fill="#231f20"/>
  <rect x="346.91" y="561.98" width="40.84" height="40.84" fill="#231f20"/>
  <rect x="649.26" y="561.98" width="40.84" height="40.84" fill="#231f20"/>
  <rect x="820.8" y="561.98" width="40.84" height="40.84" fill="#231f20"/>
  <rect x="303.42" y="518.86" width="40.84" height="40.84" fill="#231f20"/>
  <rect x="259.93" y="475.74" width="40.84" height="40.84" fill="#231f20"/>
  <rect x="216.44" y="475.74" width="40.84" height="40.84" fill="#231f20"/>
  <rect x="259.93" y="432.62" width="40.84" height="40.84" fill="#231f20"/>
  <rect x="303.72" y="475.74" width="40.84" height="40.84" fill="#231f20"/>
  <rect x="303.72" y="432.62" width="40.84" height="40.84" fill="#231f20"/>
  <rect x="563.11" y="432.62" width="40.84" height="40.84" fill="#231f20"/>
  <rect x="563.11" y="389.5" width="40.84" height="40.84" fill="#231f20"/>
  <rect x="563.11" y="346.38" width="40.84" height="40.84" fill="#231f20"/>
  <rect x="519.58" y="346.38" width="40.84" height="40.84" fill="#231f20"/>
  <rect x="519.26" y="303.26" width="40.84" height="40.84" fill="#231f20"/>
  <rect x="563.11" y="303.26" width="40.84" height="40.84" fill="#231f20"/>
  <rect x="519.26" y="260.14" width="40.84" height="40.84" fill="#231f20"/>
  <rect x="519.58" y="217.02" width="40.84" height="40.84" fill="#231f20"/>
  <rect x="519.58" y="173.9" width="40.84" height="40.84" fill="#231f20"/>
  <rect x="519.58" y="130.85" width="40.84" height="40.84" fill="#231f20"/>
  <rect x="519.58" y="87.73" width="40.84" height="40.84" fill="#231f20"/>
  <rect x="519.58" y="44.65" width="40.84" height="40.84" fill="#231f20"/>
  <rect x="519.58" y="1.54" width="40.84" height="40.84" fill="#231f20"/>
  <rect x="303.72" y="260.21" width="40.84" height="40.84" fill="#231f20"/>
  <rect x="303.72" y="217.09" width="40.84" height="40.84" fill="#231f20"/>
  <rect x="303.72" y="173.22" width="40.84" height="40.84" fill="#231f20"/>
  <rect x="303.72" y="130.1" width="40.84" height="40.84" fill="#231f20"/>
  <rect x="303.72" y="44.65" width="40.84" height="40.84" fill="#231f20"/>
  <rect x="216.44" y="432.62" width="40.84" height="40.84" fill="#231f20"/>
  <rect x="303.42" y="561.98" width="40.84" height="40.84" fill="#231f20"/>
  <rect x="303.72" y="605.1" width="40.84" height="40.84" fill="#231f20"/>
  <rect x="260.23" y="605.1" width="40.84" height="40.84" fill="#231f20"/>
  <rect x="303.72" y="648.22" width="40.84" height="40.84" fill="#231f20"/>
  <rect x="260.23" y="648.22" width="40.84" height="40.84" fill="#231f20"/>
  <rect x="303.72" y="691.34" width="40.84" height="40.84" fill="#231f20"/>
  <rect x="260.23" y="691.34" width="40.84" height="40.84" fill="#231f20"/>
  <rect x="303.72" y="734.46" width="40.84" height="40.84" fill="#231f20"/>
  <rect x="260.23" y="734.46" width="40.84" height="40.84" fill="#231f20"/>
  <rect x="216.75" y="734.46" width="40.84" height="40.84" fill="#231f20"/>
  <rect x="303.72" y="777.58" width="40.84" height="40.84" fill="#231f20"/>
  <rect x="260.23" y="777.58" width="40.84" height="40.84" fill="#231f20"/>
  <rect x="303.72" y="820.71" width="40.84" height="40.84" fill="#231f20"/>
  <rect x="260.23" y="820.71" width="40.84" height="40.84" fill="#231f20"/>
  <rect x="303.72" y="864.55" width="40.84" height="40.84" fill="#231f20"/>
  <rect x="260.23" y="864.55" width="40.84" height="40.84" fill="#231f20"/>
  <rect x="216.75" y="777.58" width="40.84" height="40.84" fill="#231f20"/>
  <rect x="216.75" y="864.55" width="40.84" height="40.84" fill="#231f20"/>
  <rect x="303.72" y="907.98" width="40.84" height="40.84" fill="#231f20"/>
  <rect x="260.23" y="907.98" width="40.84" height="40.84" fill="#231f20"/>
  <rect x="303.72" y="951.41" width="40.84" height="40.84" fill="#231f20"/>
  <rect x="303.72" y="993.95" width="40.84" height="40.84" fill="#231f20"/>
  <rect x="303.72" y="1037.38" width="40.84" height="40.84" fill="#231f20"/>
  <rect x="260.23" y="951.41" width="40.84" height="40.84" fill="#231f20"/>
  <rect x="216.75" y="907.98" width="40.84" height="40.84" fill="#231f20"/>
  <rect x="707.46" y="575.71" width="13.39" height="13.39" fill="#231f20"/>
  <rect x="707.46" y="618.83" width="13.39" height="13.39" fill="#231f20"/>
  <rect x="793.03" y="575.71" width="13.39" height="13.39" fill="#231f20"/>
  <rect x="793.03" y="618.83" width="13.39" height="13.39" fill="#231f20"/>
  <rect x="834.52" y="663.09" width="13.39" height="13.39" fill="#231f20"/>
  <rect x="834.52" y="706.21" width="13.39" height="13.39" fill="#231f20"/>
  <rect x="834.52" y="618.83" width="13.39" height="13.39" fill="#231f20"/>
  <rect x="834.52" y="791.88" width="13.39" height="13.39" fill="#231f20"/>
  <rect x="793.03" y="791.88" width="13.39" height="13.39" fill="#231f20"/>
  <rect x="834.52" y="835" width="13.39" height="13.39" fill="#231f20"/>
  <rect x="834.52" y="747.62" width="13.39" height="13.39" fill="#231f20"/>
  <rect x="793.03" y="706.21" width="13.39" height="13.39" fill="#231f20"/>
  <rect x="793.03" y="747.62" width="13.39" height="13.39" fill="#231f20"/>
  <rect x="748.15" y="706.21" width="13.39" height="13.39" fill="#231f20"/>
  <rect x="748.15" y="747.62" width="13.39" height="13.39" fill="#231f20"/>
  <rect x="834.52" y="878.59" width="13.39" height="13.39" fill="#231f20"/>
  <rect x="834.52" y="964.26" width="13.39" height="13.39" fill="#231f20"/>
  <rect x="834.52" y="1007.38" width="13.39" height="13.39" fill="#231f20"/>
  <rect x="834.52" y="1051.1" width="13.39" height="13.39" fill="#231f20"/>
  <rect x="834.52" y="920" width="13.39" height="13.39" fill="#231f20"/>
  <rect x="877.4" y="663.09" width="13.39" height="13.39" fill="#231f20"/>
  <rect x="877.4" y="706.21" width="13.39" height="13.39" fill="#231f20"/>
  <rect x="877.4" y="618.83" width="13.39" height="13.39" fill="#231f20"/>
  <rect x="877.4" y="575.71" width="13.39" height="13.39" fill="#231f20"/>
  <rect x="877.4" y="791.88" width="13.39" height="13.39" fill="#231f20"/>
  <rect x="962.45" y="791.88" width="13.39" height="13.39" fill="#231f20"/>
  <rect x="920.96" y="791.88" width="13.39" height="13.39" fill="#231f20"/>
  <rect x="1005.33" y="791.88" width="13.39" height="13.39" fill="#231f20"/>
  <rect x="962.45" y="747.62" width="13.39" height="13.39" fill="#231f20"/>
  <rect x="920.96" y="747.62" width="13.39" height="13.39" fill="#231f20"/>
  <rect x="1005.33" y="747.62" width="13.39" height="13.39" fill="#231f20"/>
  <rect x="1052.52" y="791.88" width="13.39" height="13.39" fill="#231f20"/>
  <rect x="1052.52" y="747.62" width="13.39" height="13.39" fill="#231f20"/>
  <rect x="962.45" y="705.07" width="13.39" height="13.39" fill="#231f20"/>
  <rect x="920.96" y="705.07" width="13.39" height="13.39" fill="#231f20"/>
  <rect x="1005.33" y="705.07" width="13.39" height="13.39" fill="#231f20"/>
  <rect x="1052.52" y="705.07" width="13.39" height="13.39" fill="#231f20"/>
  <rect x="962.45" y="619.97" width="13.39" height="13.39" fill="#231f20"/>
  <rect x="920.96" y="619.97" width="13.39" height="13.39" fill="#231f20"/>
  <rect x="920.27" y="575.71" width="13.39" height="13.39" fill="#231f20"/>
  <rect x="967.46" y="575.71" width="13.39" height="13.39" fill="#231f20"/>
  <rect x="877.4" y="835" width="13.39" height="13.39" fill="#231f20"/>
  <rect x="920.27" y="835" width="13.39" height="13.39" fill="#231f20"/>
  <rect x="963.14" y="835" width="13.39" height="13.39" fill="#231f20"/>
  <rect x="962.45" y="920.57" width="13.39" height="13.39" fill="#231f20"/>
  <rect x="920.96" y="920.57" width="13.39" height="13.39" fill="#231f20"/>
  <rect x="1005.33" y="920.57" width="13.39" height="13.39" fill="#231f20"/>
  <rect x="962.45" y="876.31" width="13.39" height="13.39" fill="#231f20"/>
  <rect x="920.96" y="876.31" width="13.39" height="13.39" fill="#231f20"/>
  <rect x="1005.33" y="876.31" width="13.39" height="13.39" fill="#231f20"/>
  <rect x="920.27" y="963.69" width="13.39" height="13.39" fill="#231f20"/>
  <rect x="963.14" y="963.69" width="13.39" height="13.39" fill="#231f20"/>
  <rect x="877.4" y="747.62" width="13.39" height="13.39" fill="#231f20"/>
  <rect x="531.97" y="836.14" width="13.39" height="13.39" fill="#231f20"/>
  <rect x="531.97" y="791.88" width="13.39" height="13.39" fill="#231f20"/>
  <rect x="574.85" y="836.14" width="13.39" height="13.39" fill="#231f20"/>
  <rect x="574.85" y="791.88" width="13.39" height="13.39" fill="#231f20"/>
  <rect x="877.4" y="878.59" width="13.39" height="13.39" fill="#231f20"/>
  <rect x="877.4" y="964.26" width="13.39" height="13.39" fill="#231f20"/>
  <rect x="963.14" y="1007.1" width="13.39" height="13.39" fill="#231f20"/>
  <rect x="1006.02" y="1007.1" width="13.39" height="13.39" fill="#231f20"/>
  <rect x="920.27" y="1007.67" width="13.39" height="13.39" fill="#231f20"/>
  <rect x="877.4" y="1007.38" width="13.39" height="13.39" fill="#231f20"/>
  <rect x="963.14" y="1050.82" width="13.39" height="13.39" fill="#231f20"/>
  <rect x="1006.02" y="1050.82" width="13.39" height="13.39" fill="#231f20"/>
  <rect x="920.27" y="1051.39" width="13.39" height="13.39" fill="#231f20"/>
  <rect x="877.4" y="1051.1" width="13.39" height="13.39" fill="#231f20"/>
  <rect x="877.4" y="920" width="13.39" height="13.39" fill="#231f20"/>
  <rect x="362.29" y="663.09" width="13.39" height="13.39" fill="#231f20"/>
  <rect x="362.29" y="706.21" width="13.39" height="13.39" fill="#231f20"/>
  <rect x="362.29" y="618.83" width="13.39" height="13.39" fill="#231f20"/>
  <rect x="230.47" y="663.09" width="13.39" height="13.39" fill="#231f20"/>
  <rect x="230.47" y="706.21" width="13.39" height="13.39" fill="#231f20"/>
  <rect x="230.47" y="618.83" width="13.39" height="13.39" fill="#231f20"/>
  <rect x="187.66" y="663.09" width="13.39" height="13.39" fill="#231f20"/>
  <rect x="187.66" y="618.83" width="13.39" height="13.39" fill="#231f20"/>
  <rect x="144.85" y="663.09" width="13.39" height="13.39" fill="#231f20"/>
  <rect x="144.85" y="618.83" width="13.39" height="13.39" fill="#231f20"/>
  <rect x="145.15" y="748.2" width="13.39" height="13.39" fill="#231f20"/>
  <rect x="144.85" y="703.36" width="13.39" height="13.39" fill="#231f20"/>
  <rect x="187.66" y="791.59" width="13.39" height="13.39" fill="#231f20"/>
  <rect x="144.96" y="791.59" width="13.39" height="13.39" fill="#231f20"/>
  <rect x="54.99" y="748.2" width="13.39" height="13.39" fill="#231f20"/>
  <rect x="12.29" y="748.2" width="13.39" height="13.39" fill="#231f20"/>
  <rect x="54.69" y="791.59" width="13.39" height="13.39" fill="#231f20"/>
  <rect x="11.99" y="791.59" width="13.39" height="13.39" fill="#231f20"/>
  <rect x="144.96" y="834.43" width="13.39" height="13.39" fill="#231f20"/>
  <rect x="187.66" y="878.59" width="13.39" height="13.39" fill="#231f20"/>
  <rect x="230.47" y="836.14" width="13.39" height="13.39" fill="#231f20"/>
  <rect x="144.96" y="878.59" width="13.39" height="13.39" fill="#231f20"/>
  <rect x="102.25" y="878.59" width="13.39" height="13.39" fill="#231f20"/>
  <rect x="59.55" y="878.59" width="13.39" height="13.39" fill="#231f20"/>
  <rect x="14.25" y="878.59" width="13.39" height="13.39" fill="#231f20"/>
  <rect x="187.66" y="921.71" width="13.39" height="13.39" fill="#231f20"/>
  <rect x="144.96" y="921.71" width="13.39" height="13.39" fill="#231f20"/>
  <rect x="102.25" y="921.71" width="13.39" height="13.39" fill="#231f20"/>
  <rect x="59.55" y="921.71" width="13.39" height="13.39" fill="#231f20"/>
  <rect x="14.25" y="921.71" width="13.39" height="13.39" fill="#231f20"/>
  <rect x="187.96" y="748.2" width="13.39" height="13.39" fill="#231f20"/>
  <rect x="403.19" y="618.83" width="13.39" height="13.39" fill="#231f20"/>
  <rect x="403.19" y="530.1" width="13.39" height="13.39" fill="#231f20"/>
  <rect x="444.08" y="530.1" width="13.39" height="13.39" fill="#231f20"/>
  <rect x="491.25" y="530.1" width="13.39" height="13.39" fill="#231f20"/>
  <rect x="532.15" y="530.1" width="13.39" height="13.39" fill="#231f20"/>
  <rect x="403.19" y="489.47" width="13.39" height="13.39" fill="#231f20"/>
  <rect x="360.63" y="489.47" width="13.39" height="13.39" fill="#231f20"/>
  <rect x="360.63" y="446.34" width="13.39" height="13.39" fill="#231f20"/>
  <rect x="317.14" y="404.36" width="13.39" height="13.39" fill="#231f20"/>
  <rect x="317.14" y="361.24" width="13.39" height="13.39" fill="#231f20"/>
  <rect x="317.14" y="316.65" width="13.39" height="13.39" fill="#231f20"/>
  <rect x="273.96" y="404.36" width="13.39" height="13.39" fill="#231f20"/>
  <rect x="273.96" y="361.24" width="13.39" height="13.39" fill="#231f20"/>
  <rect x="273.96" y="316.65" width="13.39" height="13.39" fill="#231f20"/>
  <rect x="14.63" y="404.36" width="13.39" height="13.39" fill="#231f20"/>
  <rect x="14.63" y="361.24" width="13.39" height="13.39" fill="#231f20"/>
  <rect x="14.63" y="316.65" width="13.39" height="13.39" fill="#231f20"/>
  <rect x="58.67" y="404.36" width="13.39" height="13.39" fill="#231f20"/>
  <rect x="58.67" y="361.24" width="13.39" height="13.39" fill="#231f20"/>
  <rect x="58.67" y="316.65" width="13.39" height="13.39" fill="#231f20"/>
  <rect x="273.66" y="145.31" width="13.39" height="13.39" fill="#231f20"/>
  <rect x="273.66" y="102.19" width="13.39" height="13.39" fill="#231f20"/>
  <rect x="273.66" y="57.59" width="13.39" height="13.39" fill="#231f20"/>
  <rect x="360.63" y="404.36" width="13.39" height="13.39" fill="#231f20"/>
  <rect x="360.63" y="361.24" width="13.39" height="13.39" fill="#231f20"/>
  <rect x="360.63" y="316.65" width="13.39" height="13.39" fill="#231f20"/>
  <rect x="489.43" y="144.57" width="13.39" height="13.39" fill="#231f20"/>
  <rect x="489.43" y="314.87" width="13.39" height="13.39" fill="#231f20"/>
  <rect x="489.43" y="272.89" width="13.39" height="13.39" fill="#231f20"/>
  <rect x="489.43" y="229.77" width="13.39" height="13.39" fill="#231f20"/>
  <rect x="489.43" y="185.17" width="13.39" height="13.39" fill="#231f20"/>
  <rect x="360.63" y="100.02" width="13.39" height="13.39" fill="#231f20"/>
  <rect x="317.45" y="100.02" width="13.39" height="13.39" fill="#231f20"/>
  <rect x="317.45" y="15.27" width="13.39" height="13.39" fill="#231f20"/>
  <rect x="360.63" y="270.32" width="13.39" height="13.39" fill="#231f20"/>
  <rect x="360.63" y="228.34" width="13.39" height="13.39" fill="#231f20"/>
  <rect x="360.63" y="185.21" width="13.39" height="13.39" fill="#231f20"/>
  <rect x="360.63" y="140.62" width="13.39" height="13.39" fill="#231f20"/>
  <rect x="444.08" y="489.47" width="13.39" height="13.39" fill="#231f20"/>
  <rect x="491.25" y="489.47" width="13.39" height="13.39" fill="#231f20"/>
  <rect x="532.15" y="489.47" width="13.39" height="13.39" fill="#231f20"/>
  <rect x="101.22" y="532.59" width="13.39" height="13.39" fill="#231f20"/>
  <rect x="58.67" y="532.59" width="13.39" height="13.39" fill="#231f20"/>
  <rect x="14.63" y="532.59" width="13.39" height="13.39" fill="#231f20"/>
  <rect x="142.12" y="532.59" width="13.39" height="13.39" fill="#231f20"/>
  <rect x="189.29" y="532.59" width="13.39" height="13.39" fill="#231f20"/>
  <rect x="142.12" y="489.47" width="13.39" height="13.39" fill="#231f20"/>
  <rect x="189.29" y="489.47" width="13.39" height="13.39" fill="#231f20"/>
  <rect x="230.19" y="532.59" width="13.39" height="13.39" fill="#231f20"/>
  <rect x="577.65" y="489.47" width="13.39" height="13.39" fill="#231f20"/>
  <rect x="620.03" y="489.47" width="13.39" height="13.39" fill="#231f20"/>
  <rect x="577.66" y="575.71" width="13.39" height="13.39" fill="#231f20"/>
  <rect x="618.56" y="575.71" width="13.39" height="13.39" fill="#231f20"/>
  <rect x="707.25" y="530.1" width="13.39" height="13.39" fill="#231f20"/>
  <rect x="748.15" y="530.1" width="13.39" height="13.39" fill="#231f20"/>
  <rect x="620.03" y="446.34" width="13.39" height="13.39" fill="#231f20"/>
  <rect x="532.15" y="447.48" width="13.39" height="13.39" fill="#231f20"/>
  <rect x="532.15" y="404.36" width="13.39" height="13.39" fill="#231f20"/>
  <rect x="662.4" y="446.34" width="13.39" height="13.39" fill="#231f20"/>
  <rect x="662.4" y="489.47" width="13.39" height="13.39" fill="#231f20"/>
  <rect x="662.4" y="530.1" width="13.39" height="13.39" fill="#231f20"/>
  <rect x="836.5" y="530.1" width="13.39" height="13.39" fill="#231f20"/>
  <rect x="836.5" y="489.47" width="13.39" height="13.39" fill="#231f20"/>
  <rect x="877.4" y="530.1" width="13.39" height="13.39" fill="#231f20"/>
  <rect x="836.5" y="405.04" width="13.39" height="13.39" fill="#231f20"/>
  <rect x="836.5" y="448.16" width="13.39" height="13.39" fill="#231f20"/>
  <rect x="836.5" y="360.78" width="13.39" height="13.39" fill="#231f20"/>
  <rect x="836.5" y="317.66" width="13.39" height="13.39" fill="#231f20"/>
  <rect x="1052.52" y="405.04" width="13.39" height="13.39" fill="#231f20"/>
  <rect x="1052.52" y="448.16" width="13.39" height="13.39" fill="#231f20"/>
  <rect x="1052.52" y="360.78" width="13.39" height="13.39" fill="#231f20"/>
  <rect x="1052.52" y="317.66" width="13.39" height="13.39" fill="#231f20"/>
  <rect x="1012.02" y="405.04" width="13.39" height="13.39" fill="#231f20"/>
  <rect x="1012.02" y="448.16" width="13.39" height="13.39" fill="#231f20"/>
  <rect x="1012.02" y="360.78" width="13.39" height="13.39" fill="#231f20"/>
  <rect x="1012.02" y="317.66" width="13.39" height="13.39" fill="#231f20"/>
  <rect x="1010.6" y="231.88" width="13.39" height="13.39" fill="#231f20"/>
  <rect x="1010.6" y="188.76" width="13.39" height="13.39" fill="#231f20"/>
  <rect x="965.95" y="231.88" width="13.39" height="13.39" fill="#231f20"/>
  <rect x="923.55" y="231.88" width="13.39" height="13.39" fill="#231f20"/>
  <rect x="878.9" y="231.88" width="13.39" height="13.39" fill="#231f20"/>
  <rect x="965.95" y="188.76" width="13.39" height="13.39" fill="#231f20"/>
  <rect x="922.83" y="99.43" width="13.39" height="13.39" fill="#231f20"/>
  <rect x="878.18" y="99.43" width="13.39" height="13.39" fill="#231f20"/>
  <rect x="836.5" y="272.05" width="13.39" height="13.39" fill="#231f20"/>
  <rect x="836.5" y="230.74" width="13.39" height="13.39" fill="#231f20"/>
  <rect x="836.5" y="186.48" width="13.39" height="13.39" fill="#231f20"/>
  <rect x="836.5" y="143.36" width="13.39" height="13.39" fill="#231f20"/>
  <rect x="836.5" y="99.43" width="13.39" height="13.39" fill="#231f20"/>
  <rect x="795.43" y="230.74" width="13.39" height="13.39" fill="#231f20"/>
  <rect x="795.43" y="186.48" width="13.39" height="13.39" fill="#231f20"/>
  <rect x="795.43" y="143.36" width="13.39" height="13.39" fill="#231f20"/>
  <rect x="795.43" y="99.43" width="13.39" height="13.39" fill="#231f20"/>
  <rect x="748.15" y="230.74" width="13.39" height="13.39" fill="#231f20"/>
  <rect x="748.15" y="186.48" width="13.39" height="13.39" fill="#231f20"/>
  <rect x="748.15" y="143.36" width="13.39" height="13.39" fill="#231f20"/>
  <rect x="620.03" y="230.17" width="13.39" height="13.39" fill="#231f20"/>
  <rect x="662.4" y="273.29" width="13.39" height="13.39" fill="#231f20"/>
  <rect x="662.4" y="230.17" width="13.39" height="13.39" fill="#231f20"/>
  <rect x="748.15" y="99.43" width="13.39" height="13.39" fill="#231f20"/>
  <rect x="836.5" y="58.59" width="13.39" height="13.39" fill="#231f20"/>
  <rect x="836.5" y="12.98" width="13.39" height="13.39" fill="#231f20"/>
  <rect x="795.43" y="58.59" width="13.39" height="13.39" fill="#231f20"/>
  <rect x="795.43" y="12.98" width="13.39" height="13.39" fill="#231f20"/>
  <rect x="748.15" y="58.59" width="13.39" height="13.39" fill="#231f20"/>
  <rect x="748.15" y="12.98" width="13.39" height="13.39" fill="#231f20"/>
  <rect x="791.65" y="530.1" width="13.39" height="13.39" fill="#231f20"/>
  <rect x="707.25" y="489.47" width="13.39" height="13.39" fill="#231f20"/>
  <rect x="748.15" y="489.47" width="13.39" height="13.39" fill="#231f20"/>
  <rect x="791.65" y="489.47" width="13.39" height="13.39" fill="#231f20"/>
  <rect x="403.19" y="575.71" width="13.39" height="13.39" fill="#231f20"/>
  <rect x="273.54" y="532.59" width="13.39" height="13.39" fill="#231f20"/>
  <rect x="273.96" y="575.71" width="13.39" height="13.39" fill="#231f20"/>
  <rect x="362.29" y="791.88" width="13.39" height="13.39" fill="#231f20"/>
  <rect x="362.29" y="835" width="13.39" height="13.39" fill="#231f20"/>
  <rect x="362.29" y="747.62" width="13.39" height="13.39" fill="#231f20"/>
  <rect x="362.29" y="878.59" width="13.39" height="13.39" fill="#231f20"/>
  <rect x="362.29" y="964.26" width="13.39" height="13.39" fill="#231f20"/>
  <rect x="362.29" y="1007.38" width="13.39" height="13.39" fill="#231f20"/>
  <rect x="362.29" y="1051.1" width="13.39" height="13.39" fill="#231f20"/>
  <rect x="275.3" y="1007.38" width="13.39" height="13.39" fill="#231f20"/>
  <rect x="275.3" y="1051.1" width="13.39" height="13.39" fill="#231f20"/>
  <rect x="362.29" y="920" width="13.39" height="13.39" fill="#231f20"/>
  <rect x="793.03" y="878.59" width="13.39" height="13.39" fill="#231f20"/>
  <rect x="793.03" y="964.26" width="13.39" height="13.39" fill="#231f20"/>
  <rect x="793.03" y="920" width="13.39" height="13.39" fill="#231f20"/>
  <rect x="748.15" y="878.59" width="13.39" height="13.39" fill="#231f20"/>
  <rect x="748.15" y="964.26" width="13.39" height="13.39" fill="#231f20"/>
  <rect x="705.57" y="964.26" width="13.39" height="13.39" fill="#231f20"/>
  <rect x="660.7" y="964.26" width="13.39" height="13.39" fill="#231f20"/>
  <rect x="490.64" y="1050.82" width="13.39" height="13.39" fill="#231f20"/>
  <rect x="448.06" y="1050.82" width="13.39" height="13.39" fill="#231f20"/>
  <rect x="403.19" y="1050.82" width="13.39" height="13.39" fill="#231f20"/>
  <rect x="748.15" y="920" width="13.39" height="13.39" fill="#231f20"/>
  <rect x="662.98" y="618.83" width="13.39" height="13.39" fill="#231f20"/>
</svg>