<?xml version="1.0" encoding="UTF-8"?>
<svg id="_24" data-name="24" xmlns="http://www.w3.org/2000/svg" viewBox="0 0 1080 1080">
  <rect x="475.67" y="605.54" width="40.84" height="40.84" fill="#231f20"/>
  <rect x="475.67" y="562.29" width="40.84" height="40.84" fill="#231f20"/>
  <rect x="475.67" y="519.03" width="40.84" height="40.84" fill="#231f20"/>
  <rect x="432.29" y="562.29" width="40.84" height="40.84" fill="#231f20"/>
  <rect x="432.29" y="605.54" width="40.84" height="40.84" fill="#231f20"/>
  <rect x="390.03" y="562.29" width="40.84" height="40.84" fill="#231f20"/>
  <rect x="390.03" y="605.54" width="40.84" height="40.84" fill="#231f20"/>
  <rect x="346.39" y="605.54" width="40.84" height="40.84" fill="#231f20"/>
  <rect x="390.03" y="648.8" width="40.84" height="40.84" fill="#231f20"/>
  <rect x="518.76" y="605.54" width="40.84" height="40.84" fill="#231f20"/>
  <rect x="518.76" y="562.29" width="40.84" height="40.84" fill="#231f20"/>
  <rect x="432.29" y="519.04" width="40.84" height="40.84" fill="#231f20"/>
  <rect x="475.67" y="475.77" width="40.84" height="40.84" fill="#231f20"/>
  <rect x="475.67" y="432.51" width="40.84" height="40.84" fill="#231f20"/>
  <rect x="475.67" y="389.24" width="40.84" height="40.84" fill="#231f20"/>
  <rect x="475.67" y="345.97" width="40.84" height="40.84" fill="#231f20"/>
  <rect x="432.29" y="475.78" width="40.84" height="40.84" fill="#231f20"/>
  <rect x="432.29" y="432.51" width="40.84" height="40.84" fill="#231f20"/>
  <rect x="475.67" y="648.8" width="40.84" height="40.84" fill="#231f20"/>
  <rect x="475.67" y="691.58" width="40.84" height="40.84" fill="#231f20"/>
  <rect x="475.67" y="735.26" width="40.84" height="40.84" fill="#231f20"/>
  <rect x="518.76" y="648.8" width="40.84" height="40.84" fill="#231f20"/>
  <rect x="518.76" y="691.58" width="40.84" height="40.84" fill="#231f20"/>
  <rect x="518.76" y="735.26" width="40.84" height="40.84" fill="#231f20"/>
  <rect x="475.67" y="778.41" width="40.84" height="40.84" fill="#231f20"/>
  <rect x="518.76" y="778.41" width="40.84" height="40.84" fill="#231f20"/>
  <rect x="518.76" y="821.56" width="40.84" height="40.84" fill="#231f20"/>
  <rect x="432.29" y="648.8" width="40.84" height="40.84" fill="#231f20"/>
  <rect x="432.29" y="691.58" width="40.84" height="40.84" fill="#231f20"/>
  <rect x="360.12" y="576.01" width="13.39" height="13.39" fill="#231f20"/>
  <rect x="489.39" y="835.28" width="13.39" height="13.39" fill="#231f20"/>
  <rect x="446.01" y="792.13" width="13.39" height="13.39" fill="#231f20"/>
  <rect x="446.01" y="748.98" width="13.39" height="13.39" fill="#231f20"/>
  <rect x="489.39" y="878.27" width="13.39" height="13.39" fill="#231f20"/>
  <rect x="532.49" y="878.27" width="13.39" height="13.39" fill="#231f20"/>
  <rect x="489.39" y="921.78" width="13.39" height="13.39" fill="#231f20"/>
  <rect x="446.01" y="921.78" width="13.39" height="13.39" fill="#231f20"/>
  <rect x="446.01" y="1008.18" width="13.39" height="13.39" fill="#231f20"/>
  <rect x="446.01" y="1048.32" width="13.39" height="13.39" fill="#231f20"/>
  <rect x="404.18" y="921.78" width="13.39" height="13.39" fill="#231f20"/>
  <rect x="532.49" y="921.78" width="13.39" height="13.39" fill="#231f20"/>
  <rect x="532.49" y="964.63" width="13.39" height="13.39" fill="#231f20"/>
  <rect x="575.24" y="964.63" width="13.39" height="13.39" fill="#231f20"/>
  <rect x="230.95" y="964.63" width="13.39" height="13.39" fill="#231f20"/>
  <rect x="274.11" y="964.63" width="13.39" height="13.39" fill="#231f20"/>
  <rect x="575.24" y="921.78" width="13.39" height="13.39" fill="#231f20"/>
  <rect x="576.66" y="878.27" width="13.39" height="13.39" fill="#231f20"/>
  <rect x="619.3" y="878.27" width="13.39" height="13.39" fill="#231f20"/>
  <rect x="575.24" y="1005.84" width="13.39" height="13.39" fill="#231f20"/>
  <rect x="575.24" y="1050.67" width="13.39" height="13.39" fill="#231f20"/>
  <rect x="705.25" y="1005.84" width="13.39" height="13.39" fill="#231f20"/>
  <rect x="705.25" y="1050.67" width="13.39" height="13.39" fill="#231f20"/>
  <rect x="748.52" y="1007.15" width="13.39" height="13.39" fill="#231f20"/>
  <rect x="748.52" y="1051.98" width="13.39" height="13.39" fill="#231f20"/>
  <rect x="532.49" y="1008.88" width="13.39" height="11.99" fill="#231f20"/>
  <rect x="532.49" y="1049.02" width="13.39" height="11.99" fill="#231f20"/>
  <rect x="274.11" y="1010.19" width="13.39" height="11.99" fill="#231f20"/>
  <rect x="274.11" y="1050.33" width="13.39" height="11.99" fill="#231f20"/>
  <rect x="144.77" y="966.03" width="13.39" height="13.39" fill="#231f20"/>
  <rect x="144.77" y="1011.59" width="13.39" height="11.99" fill="#231f20"/>
  <rect x="102.2" y="1051.73" width="13.39" height="11.99" fill="#231f20"/>
  <rect x="58.6" y="1051.73" width="13.39" height="11.99" fill="#231f20"/>
  <rect x="403.76" y="532.7" width="13.39" height="13.39" fill="#231f20"/>
  <rect x="403.76" y="489.44" width="13.39" height="13.39" fill="#231f20"/>
  <rect x="403.76" y="446.23" width="13.39" height="13.39" fill="#231f20"/>
  <rect x="100.91" y="404.55" width="13.39" height="13.39" fill="#231f20"/>
  <rect x="143.4" y="406.35" width="13.39" height="13.39" fill="#231f20"/>
  <rect x="100.91" y="361.34" width="13.39" height="13.39" fill="#231f20"/>
  <rect x="532.49" y="532.76" width="13.39" height="13.39" fill="#231f20"/>
  <rect x="446.01" y="402.96" width="13.39" height="13.39" fill="#231f20"/>
  <rect x="446.01" y="359.69" width="13.39" height="13.39" fill="#231f20"/>
  <rect x="446.01" y="315.96" width="13.39" height="13.39" fill="#231f20"/>
  <rect x="446.01" y="274.02" width="13.39" height="13.39" fill="#231f20"/>
  <rect x="446.01" y="229.77" width="13.39" height="13.39" fill="#231f20"/>
  <rect x="489.39" y="229.77" width="13.39" height="13.39" fill="#231f20"/>
  <rect x="403.76" y="229.77" width="13.39" height="13.39" fill="#231f20"/>
  <rect x="360.12" y="229.77" width="13.39" height="13.39" fill="#231f20"/>
  <rect x="403.76" y="186.98" width="13.39" height="13.39" fill="#231f20"/>
  <rect x="403.76" y="144.2" width="13.39" height="13.39" fill="#231f20"/>
  <rect x="403.76" y="101.42" width="13.39" height="13.39" fill="#231f20"/>
  <rect x="489.39" y="186.98" width="13.39" height="13.39" fill="#231f20"/>
  <rect x="489.39" y="144.2" width="13.39" height="13.39" fill="#231f20"/>
  <rect x="836.33" y="101.42" width="13.39" height="13.39" fill="#231f20"/>
  <rect x="446.01" y="144.2" width="13.39" height="13.39" fill="#231f20"/>
  <rect x="489.39" y="101.42" width="13.39" height="13.39" fill="#231f20"/>
  <rect x="792.01" y="101.42" width="13.39" height="13.39" fill="#231f20"/>
  <rect x="836.33" y="144.17" width="13.39" height="13.39" fill="#231f20"/>
  <rect x="792.01" y="144.17" width="13.39" height="13.39" fill="#231f20"/>
  <rect x="836.33" y="58.63" width="13.39" height="13.39" fill="#231f20"/>
  <rect x="878.24" y="58.63" width="13.39" height="13.39" fill="#231f20"/>
  <rect x="878.24" y="101.39" width="13.39" height="13.39" fill="#231f20"/>
  <rect x="878.24" y="15.85" width="13.39" height="13.39" fill="#231f20"/>
  <rect x="792.01" y="58.63" width="13.39" height="13.39" fill="#231f20"/>
  <rect x="750.32" y="101.42" width="13.39" height="13.39" fill="#231f20"/>
  <rect x="706.01" y="101.42" width="13.39" height="13.39" fill="#231f20"/>
  <rect x="750.32" y="58.63" width="13.39" height="13.39" fill="#231f20"/>
  <rect x="706.01" y="58.63" width="13.39" height="13.39" fill="#231f20"/>
  <rect x="750.21" y="186.95" width="13.39" height="13.39" fill="#231f20"/>
  <rect x="705.89" y="186.95" width="13.39" height="13.39" fill="#231f20"/>
  <rect x="750.21" y="144.17" width="13.39" height="13.39" fill="#231f20"/>
  <rect x="705.89" y="144.17" width="13.39" height="13.39" fill="#231f20"/>
  <rect x="662.51" y="101.42" width="13.39" height="13.39" fill="#231f20"/>
  <rect x="662.39" y="186.95" width="13.39" height="13.39" fill="#231f20"/>
  <rect x="705.89" y="315.96" width="13.39" height="13.39" fill="#231f20"/>
  <rect x="705.6" y="359.69" width="13.39" height="13.39" fill="#231f20"/>
  <rect x="662.1" y="359.69" width="13.39" height="13.39" fill="#231f20"/>
  <rect x="964.89" y="661.08" width="13.39" height="13.39" fill="#231f20"/>
  <rect x="964.6" y="704.81" width="13.39" height="13.39" fill="#231f20"/>
  <rect x="576.8" y="749.85" width="13.39" height="13.39" fill="#231f20"/>
  <rect x="576.51" y="793.57" width="13.39" height="13.39" fill="#231f20"/>
  <rect x="619.44" y="749.85" width="13.39" height="13.39" fill="#231f20"/>
  <rect x="619.15" y="793.57" width="13.39" height="13.39" fill="#231f20"/>
  <rect x="662.39" y="144.17" width="13.39" height="13.39" fill="#231f20"/>
  <rect x="620.11" y="15.91" width="13.39" height="13.39" fill="#231f20"/>
  <rect x="620" y="58.66" width="13.39" height="13.39" fill="#231f20"/>
  <rect x="360.12" y="144.2" width="13.39" height="13.39" fill="#231f20"/>
  <rect x="360.12" y="101.42" width="13.39" height="13.39" fill="#231f20"/>
  <rect x="360.12" y="56.27" width="13.39" height="13.39" fill="#231f20"/>
  <rect x="360.12" y="14.38" width="13.39" height="13.39" fill="#231f20"/>
  <rect x="316.39" y="14.38" width="13.39" height="13.39" fill="#231f20"/>
  <rect x="489.39" y="315.96" width="13.39" height="13.39" fill="#231f20"/>
</svg>