<?xml version="1.0" encoding="UTF-8"?>
<svg id="_25" data-name="25" xmlns="http://www.w3.org/2000/svg" viewBox="0 0 1080 1080">
  <rect x="519.32" y="1037.84" width="40.84" height="40.84" fill="#231f20"/>
  <rect x="519.32" y="995.07" width="40.84" height="40.84" fill="#231f20"/>
  <rect x="519.32" y="951.86" width="40.84" height="40.84" fill="#231f20"/>
  <rect x="519.32" y="908.4" width="40.84" height="40.84" fill="#231f20"/>
  <rect x="519.32" y="865.23" width="40.84" height="40.84" fill="#231f20"/>
  <rect x="519.32" y="822.46" width="40.84" height="40.84" fill="#231f20"/>
  <rect x="519.32" y="778.82" width="40.84" height="40.84" fill="#231f20"/>
  <rect x="519.32" y="736.05" width="40.84" height="40.84" fill="#231f20"/>
  <rect x="519.32" y="692.53" width="40.84" height="40.84" fill="#231f20"/>
  <rect x="519.32" y="649.24" width="40.84" height="40.84" fill="#231f20"/>
  <rect x="519.32" y="606.47" width="40.84" height="40.84" fill="#231f20"/>
  <rect x="562.62" y="778.82" width="40.84" height="40.84" fill="#231f20"/>
  <rect x="562.62" y="736.05" width="40.84" height="40.84" fill="#231f20"/>
  <rect x="562.62" y="692.53" width="40.84" height="40.84" fill="#231f20"/>
  <rect x="562.62" y="649.16" width="40.84" height="40.84" fill="#231f20"/>
  <rect x="562.62" y="606.39" width="40.84" height="40.84" fill="#231f20"/>
  <rect x="519.32" y="563.16" width="40.84" height="40.84" fill="#231f20"/>
  <rect x="562.62" y="563.09" width="40.84" height="40.84" fill="#231f20"/>
  <rect x="519.32" y="519.63" width="40.84" height="40.84" fill="#231f20"/>
  <rect x="519.32" y="476.86" width="40.84" height="40.84" fill="#231f20"/>
  <rect x="519.32" y="433.21" width="40.84" height="40.84" fill="#231f20"/>
  <rect x="519.32" y="390.6" width="40.84" height="40.84" fill="#231f20"/>
  <rect x="519.32" y="347.02" width="40.84" height="40.84" fill="#231f20"/>
  <rect x="519.32" y="304.06" width="40.84" height="40.84" fill="#231f20"/>
  <rect x="519.26" y="260.62" width="40.84" height="40.84" fill="#231f20"/>
  <rect x="519.26" y="217.39" width="40.84" height="40.84" fill="#231f20"/>
  <rect x="519.32" y="174.18" width="40.84" height="40.84" fill="#231f20"/>
  <rect x="519.32" y="131.61" width="40.84" height="40.84" fill="#231f20"/>
  <rect x="562.55" y="260.62" width="40.84" height="40.84" fill="#231f20"/>
  <rect x="562.55" y="217.39" width="40.84" height="40.84" fill="#231f20"/>
  <rect x="562.62" y="174.18" width="40.84" height="40.84" fill="#231f20"/>
  <rect x="562.62" y="131.61" width="40.84" height="40.84" fill="#231f20"/>
  <rect x="605.92" y="174.18" width="40.84" height="40.84" fill="#231f20"/>
  <rect x="605.92" y="131.61" width="40.84" height="40.84" fill="#231f20"/>
  <rect x="519.32" y="88.44" width="40.84" height="40.84" fill="#231f20"/>
  <rect x="562.62" y="88.44" width="40.84" height="40.84" fill="#231f20"/>
  <rect x="605.92" y="88.44" width="40.84" height="40.84" fill="#231f20"/>
  <rect x="865.58" y="88.44" width="40.84" height="40.84" fill="#231f20"/>
  <rect x="865.58" y="45.14" width="40.84" height="40.84" fill="#231f20"/>
  <rect x="822.31" y="45.14" width="40.84" height="40.84" fill="#231f20"/>
  <rect x="779.03" y="45.14" width="40.84" height="40.84" fill="#231f20"/>
  <rect x="735.76" y="45.14" width="40.84" height="40.84" fill="#231f20"/>
  <rect x="822.31" y="88.44" width="40.84" height="40.84" fill="#231f20"/>
  <rect x="908.85" y="88.44" width="40.84" height="40.84" fill="#231f20"/>
  <rect x="519.32" y="45.14" width="40.84" height="40.84" fill="#231f20"/>
  <rect x="475.79" y="45.14" width="40.84" height="40.84" fill="#231f20"/>
  <rect x="562.62" y="45.14" width="40.84" height="40.84" fill="#231f20"/>
  <rect x="605.92" y="45.14" width="40.84" height="40.84" fill="#231f20"/>
  <rect x="519.32" y="1.85" width="40.84" height="40.84" fill="#231f20"/>
  <rect x="562.62" y="1.85" width="40.84" height="40.84" fill="#231f20"/>
  <rect x="432.92" y="1.85" width="40.84" height="40.84" fill="#231f20"/>
  <rect x="476.08" y="1.85" width="40.84" height="40.84" fill="#231f20"/>
  <rect x="605.92" y="1.85" width="40.84" height="40.84" fill="#231f20"/>
  <rect x="648.35" y="45.14" width="40.84" height="40.84" fill="#231f20"/>
  <rect x="648.35" y="1.85" width="40.84" height="40.84" fill="#231f20"/>
  <rect x="576.34" y="836.19" width="13.39" height="13.39" fill="#231f20"/>
  <rect x="576.34" y="878.95" width="13.39" height="13.39" fill="#231f20"/>
  <rect x="576.34" y="922.93" width="13.39" height="13.39" fill="#231f20"/>
  <rect x="576.34" y="965.7" width="13.39" height="13.39" fill="#231f20"/>
  <rect x="576.34" y="1007.83" width="13.39" height="13.39" fill="#231f20"/>
  <rect x="576.34" y="1050.6" width="13.39" height="13.39" fill="#231f20"/>
  <rect x="619.64" y="576.18" width="13.39" height="13.39" fill="#231f20"/>
  <rect x="619.64" y="618.94" width="13.39" height="13.39" fill="#231f20"/>
  <rect x="619.64" y="662.92" width="13.39" height="13.39" fill="#231f20"/>
  <rect x="619.64" y="706.25" width="13.39" height="13.39" fill="#231f20"/>
  <rect x="619.64" y="749.78" width="13.39" height="13.39" fill="#231f20"/>
  <rect x="619.64" y="792.55" width="13.39" height="13.39" fill="#231f20"/>
  <rect x="490.41" y="579.64" width="13.39" height="13.39" fill="#231f20"/>
  <rect x="490.41" y="622.41" width="13.39" height="13.39" fill="#231f20"/>
  <rect x="490.41" y="666.38" width="13.39" height="13.39" fill="#231f20"/>
  <rect x="490.41" y="706.25" width="13.39" height="13.39" fill="#231f20"/>
  <rect x="490.41" y="749.78" width="13.39" height="13.39" fill="#231f20"/>
  <rect x="490.41" y="792.55" width="13.39" height="13.39" fill="#231f20"/>
  <rect x="576.34" y="318.71" width="13.39" height="13.39" fill="#231f20"/>
  <rect x="576.34" y="361.48" width="13.39" height="13.39" fill="#231f20"/>
  <rect x="619.57" y="231.11" width="13.39" height="13.39" fill="#231f20"/>
  <rect x="619.57" y="272.5" width="13.39" height="13.39" fill="#231f20"/>
  <rect x="662.08" y="102.16" width="13.39" height="13.39" fill="#231f20"/>
  <rect x="662.08" y="145.34" width="13.39" height="13.39" fill="#231f20"/>
  <rect x="706.21" y="15.58" width="13.39" height="13.39" fill="#231f20"/>
  <rect x="706.21" y="58.86" width="13.39" height="13.39" fill="#231f20"/>
  <rect x="749.49" y="15.58" width="13.39" height="13.39" fill="#231f20"/>
  <rect x="749.49" y="102.16" width="13.39" height="13.39" fill="#231f20"/>
  <rect x="792.76" y="102.16" width="13.39" height="13.39" fill="#231f20"/>
  <rect x="879.3" y="145.34" width="13.39" height="13.39" fill="#231f20"/>
  <rect x="922.58" y="145.34" width="13.39" height="13.39" fill="#231f20"/>
  <rect x="922.58" y="58.86" width="13.39" height="13.39" fill="#231f20"/>
  <rect x="576.34" y="405.45" width="13.39" height="13.39" fill="#231f20"/>
  <rect x="576.34" y="448.22" width="13.39" height="13.39" fill="#231f20"/>
  <rect x="576.34" y="490.36" width="13.39" height="13.39" fill="#231f20"/>
  <rect x="576.34" y="533.13" width="13.39" height="13.39" fill="#231f20"/>
</svg>