<?xml version="1.0" encoding="UTF-8"?>
<svg id="_26" data-name="26" xmlns="http://www.w3.org/2000/svg" viewBox="0 0 1080 1080">
  <rect x="563.01" y="303.25" width="40.84" height="40.84" fill="#231f20"/>
  <rect x="519.62" y="302.52" width="40.84" height="40.84" fill="#231f20"/>
  <rect x="563.01" y="259.88" width="40.84" height="40.84" fill="#231f20"/>
  <rect x="605.87" y="259.88" width="40.84" height="40.84" fill="#231f20"/>
  <rect x="519.62" y="259.88" width="40.84" height="40.84" fill="#231f20"/>
  <rect x="563.01" y="217.69" width="40.84" height="40.84" fill="#231f20"/>
  <rect x="605.87" y="217.69" width="40.84" height="40.84" fill="#231f20"/>
  <rect x="519.62" y="217.69" width="40.84" height="40.84" fill="#231f20"/>
  <rect x="476.24" y="259.88" width="40.84" height="40.84" fill="#231f20"/>
  <rect x="563.01" y="43.77" width="40.84" height="40.84" fill="#231f20"/>
  <rect x="605.87" y="43.77" width="40.84" height="40.84" fill="#231f20"/>
  <rect x="519.62" y="43.77" width="40.84" height="40.84" fill="#231f20"/>
  <rect x="476.24" y="43.77" width="40.84" height="40.84" fill="#231f20"/>
  <rect x="563.01" y="86.77" width="40.84" height="40.84" fill="#231f20"/>
  <rect x="519.62" y="86.77" width="40.84" height="40.84" fill="#231f20"/>
  <rect x="476.24" y="86.77" width="40.84" height="40.84" fill="#231f20"/>
  <rect x="563.01" y="129.76" width="40.84" height="40.84" fill="#231f20"/>
  <rect x="519.62" y="129.76" width="40.84" height="40.84" fill="#231f20"/>
  <rect x="476.24" y="129.76" width="40.84" height="40.84" fill="#231f20"/>
  <rect x="563.01" y="345.67" width="40.84" height="40.84" fill="#231f20"/>
  <rect x="605.87" y="303.25" width="40.84" height="40.84" fill="#231f20"/>
  <rect x="605.87" y="345.67" width="40.84" height="40.84" fill="#231f20"/>
  <rect x="519.62" y="345.89" width="40.84" height="40.84" fill="#231f20"/>
  <rect x="563.01" y="389.26" width="40.84" height="40.84" fill="#231f20"/>
  <rect x="605.87" y="389.26" width="40.84" height="40.84" fill="#231f20"/>
  <rect x="519.62" y="389.49" width="40.84" height="40.84" fill="#231f20"/>
  <rect x="476.24" y="302.52" width="40.84" height="40.84" fill="#231f20"/>
  <rect x="476.24" y="345.89" width="40.84" height="40.84" fill="#231f20"/>
  <rect x="476.24" y="389.49" width="40.84" height="40.84" fill="#231f20"/>
  <rect x="563.01" y="432.52" width="40.84" height="40.84" fill="#231f20"/>
  <rect x="605.87" y="432.52" width="40.84" height="40.84" fill="#231f20"/>
  <rect x="519.62" y="432.74" width="40.84" height="40.84" fill="#231f20"/>
  <rect x="563.01" y="475.99" width="40.84" height="40.84" fill="#231f20"/>
  <rect x="605.87" y="475.99" width="40.84" height="40.84" fill="#231f20"/>
  <rect x="519.62" y="476.22" width="40.84" height="40.84" fill="#231f20"/>
  <rect x="563.01" y="691.72" width="40.84" height="40.84" fill="#231f20"/>
  <rect x="605.87" y="691.72" width="40.84" height="40.84" fill="#231f20"/>
  <rect x="519.62" y="691.94" width="40.84" height="40.84" fill="#231f20"/>
  <rect x="563.01" y="648.44" width="40.84" height="40.84" fill="#231f20"/>
  <rect x="605.87" y="648.44" width="40.84" height="40.84" fill="#231f20"/>
  <rect x="519.62" y="648.66" width="40.84" height="40.84" fill="#231f20"/>
  <rect x="261.09" y="648.66" width="40.84" height="40.84" fill="#231f20"/>
  <rect x="476.24" y="691.94" width="40.84" height="40.84" fill="#231f20"/>
  <rect x="476.24" y="648.66" width="40.84" height="40.84" fill="#231f20"/>
  <rect x="563.01" y="606.27" width="40.84" height="40.84" fill="#231f20"/>
  <rect x="605.87" y="606.27" width="40.84" height="40.84" fill="#231f20"/>
  <rect x="519.62" y="606.49" width="40.84" height="40.84" fill="#231f20"/>
  <rect x="476.24" y="606.49" width="40.84" height="40.84" fill="#231f20"/>
  <rect x="261.09" y="605.55" width="40.84" height="40.84" fill="#231f20"/>
  <rect x="261.09" y="778.07" width="40.84" height="40.84" fill="#231f20"/>
  <rect x="218.12" y="864.65" width="40.84" height="40.84" fill="#231f20"/>
  <rect x="261.09" y="864.65" width="40.84" height="40.84" fill="#231f20"/>
  <rect x="218.12" y="778.07" width="40.84" height="40.84" fill="#231f20"/>
  <rect x="261.09" y="994.37" width="40.84" height="40.84" fill="#231f20"/>
  <rect x="218.12" y="994.37" width="40.84" height="40.84" fill="#231f20"/>
  <rect x="261.09" y="734.96" width="40.84" height="40.84" fill="#231f20"/>
  <rect x="476.24" y="432.74" width="40.84" height="40.84" fill="#231f20"/>
  <rect x="563.01" y="734.99" width="40.84" height="40.84" fill="#231f20"/>
  <rect x="605.87" y="734.99" width="40.84" height="40.84" fill="#231f20"/>
  <rect x="519.62" y="735.22" width="40.84" height="40.84" fill="#231f20"/>
  <rect x="476.24" y="735.22" width="40.84" height="40.84" fill="#231f20"/>
  <rect x="563.01" y="778.37" width="40.84" height="40.84" fill="#231f20"/>
  <rect x="519.62" y="778.6" width="40.84" height="40.84" fill="#231f20"/>
  <rect x="476.24" y="778.6" width="40.84" height="40.84" fill="#231f20"/>
  <rect x="563.01" y="821.97" width="40.84" height="40.84" fill="#231f20"/>
  <rect x="519.62" y="822.2" width="40.84" height="40.84" fill="#231f20"/>
  <rect x="563.01" y="864.49" width="40.84" height="40.84" fill="#231f20"/>
  <rect x="605.87" y="821.97" width="40.84" height="40.84" fill="#231f20"/>
  <rect x="605.87" y="864.49" width="40.84" height="40.84" fill="#231f20"/>
  <rect x="519.62" y="864.49" width="40.84" height="40.84" fill="#231f20"/>
  <rect x="563.01" y="907.98" width="40.84" height="40.84" fill="#231f20"/>
  <rect x="605.87" y="907.98" width="40.84" height="40.84" fill="#231f20"/>
  <rect x="519.62" y="907.98" width="40.84" height="40.84" fill="#231f20"/>
  <rect x="563.01" y="951.47" width="40.84" height="40.84" fill="#231f20"/>
  <rect x="519.62" y="951.47" width="40.84" height="40.84" fill="#231f20"/>
  <rect x="476.24" y="951.47" width="40.84" height="40.84" fill="#231f20"/>
  <rect x="563.01" y="994.37" width="40.84" height="40.84" fill="#231f20"/>
  <rect x="519.62" y="994.37" width="40.84" height="40.84" fill="#231f20"/>
  <rect x="563.01" y="1037.56" width="40.84" height="40.84" fill="#231f20"/>
  <rect x="519.62" y="1037.56" width="40.84" height="40.84" fill="#231f20"/>
  <rect x="663.14" y="316.25" width="13.39" height="13.39" fill="#231f20"/>
  <rect x="663.14" y="359.39" width="13.39" height="13.39" fill="#231f20"/>
  <rect x="663.14" y="230.26" width="13.39" height="13.39" fill="#231f20"/>
  <rect x="663.14" y="273.41" width="13.39" height="13.39" fill="#231f20"/>
  <rect x="663.14" y="143.48" width="13.39" height="13.39" fill="#231f20"/>
  <rect x="663.14" y="57.5" width="13.39" height="13.39" fill="#231f20"/>
  <rect x="663.14" y="100.65" width="13.39" height="13.39" fill="#231f20"/>
  <rect x="619.6" y="143.48" width="13.39" height="13.39" fill="#231f20"/>
  <rect x="619.6" y="100.65" width="13.39" height="13.39" fill="#231f20"/>
  <rect x="663.14" y="401.83" width="13.39" height="13.39" fill="#231f20"/>
  <rect x="663.14" y="444.98" width="13.39" height="13.39" fill="#231f20"/>
  <rect x="663.14" y="489.87" width="13.39" height="13.39" fill="#231f20"/>
  <rect x="663.14" y="532.83" width="13.39" height="13.39" fill="#231f20"/>
  <rect x="663.14" y="575.46" width="13.39" height="13.39" fill="#231f20"/>
  <rect x="707.02" y="444.98" width="13.39" height="13.39" fill="#231f20"/>
  <rect x="707.02" y="489.87" width="13.39" height="13.39" fill="#231f20"/>
  <rect x="707.02" y="532.83" width="13.39" height="13.39" fill="#231f20"/>
  <rect x="707.02" y="575.46" width="13.39" height="13.39" fill="#231f20"/>
  <rect x="663.14" y="619.59" width="13.39" height="13.39" fill="#231f20"/>
  <rect x="663.14" y="662.55" width="13.39" height="13.39" fill="#231f20"/>
  <rect x="663.14" y="705.18" width="13.39" height="13.39" fill="#231f20"/>
  <rect x="663.14" y="836.43" width="13.39" height="13.39" fill="#231f20"/>
  <rect x="663.14" y="880.56" width="13.39" height="13.39" fill="#231f20"/>
  <rect x="663.14" y="923.52" width="13.39" height="13.39" fill="#231f20"/>
  <rect x="663.14" y="966.15" width="13.39" height="13.39" fill="#231f20"/>
  <rect x="447.57" y="617.72" width="13.39" height="13.39" fill="#231f20"/>
  <rect x="447.57" y="661.85" width="13.39" height="13.39" fill="#231f20"/>
  <rect x="317.34" y="661.85" width="13.39" height="13.39" fill="#231f20"/>
  <rect x="231.85" y="661.85" width="13.39" height="13.39" fill="#231f20"/>
  <rect x="447.57" y="704.81" width="13.39" height="13.39" fill="#231f20"/>
  <rect x="274.82" y="704.81" width="13.39" height="13.39" fill="#231f20"/>
  <rect x="447.57" y="747.44" width="13.39" height="13.39" fill="#231f20"/>
  <rect x="231.85" y="747.44" width="13.39" height="13.39" fill="#231f20"/>
  <rect x="447.57" y="792.1" width="13.39" height="13.39" fill="#231f20"/>
  <rect x="489.97" y="835.42" width="13.39" height="13.39" fill="#231f20"/>
  <rect x="489.97" y="878.38" width="13.39" height="13.39" fill="#231f20"/>
  <rect x="489.97" y="921.01" width="13.39" height="13.39" fill="#231f20"/>
  <rect x="619.6" y="575.46" width="13.39" height="13.39" fill="#231f20"/>
  <rect x="663.14" y="750.36" width="13.39" height="13.39" fill="#231f20"/>
  <rect x="663.14" y="792.99" width="13.39" height="13.39" fill="#231f20"/>
  <rect x="707.02" y="619.59" width="13.39" height="13.39" fill="#231f20"/>
  <rect x="707.02" y="662.55" width="13.39" height="13.39" fill="#231f20"/>
  <rect x="707.02" y="705.18" width="13.39" height="13.39" fill="#231f20"/>
  <rect x="707.02" y="836.43" width="13.39" height="13.39" fill="#231f20"/>
  <rect x="707.02" y="880.56" width="13.39" height="13.39" fill="#231f20"/>
  <rect x="707.02" y="923.52" width="13.39" height="13.39" fill="#231f20"/>
  <rect x="707.02" y="750.36" width="13.39" height="13.39" fill="#231f20"/>
  <rect x="707.02" y="792.99" width="13.39" height="13.39" fill="#231f20"/>
  <rect x="619.6" y="792.99" width="13.39" height="13.39" fill="#231f20"/>
  <rect x="576.74" y="575.46" width="13.39" height="13.39" fill="#231f20"/>
  <rect x="533.35" y="575.46" width="13.39" height="13.39" fill="#231f20"/>
  <rect x="489.97" y="575.46" width="13.39" height="13.39" fill="#231f20"/>
  <rect x="447.57" y="575.46" width="13.39" height="13.39" fill="#231f20"/>
  <rect x="317.34" y="617.72" width="13.39" height="13.39" fill="#231f20"/>
  <rect x="317.34" y="575.46" width="13.39" height="13.39" fill="#231f20"/>
  <rect x="317.34" y="790.86" width="13.39" height="13.39" fill="#231f20"/>
  <rect x="231.85" y="617.72" width="13.39" height="13.39" fill="#231f20"/>
  <rect x="274.82" y="575.46" width="13.39" height="13.39" fill="#231f20"/>
  <rect x="231.85" y="575.46" width="13.39" height="13.39" fill="#231f20"/>
  <rect x="317.34" y="534.07" width="13.39" height="13.39" fill="#231f20"/>
  <rect x="274.82" y="534.07" width="13.39" height="13.39" fill="#231f20"/>
  <rect x="317.34" y="489.72" width="13.39" height="13.39" fill="#231f20"/>
  <rect x="274.82" y="489.72" width="13.39" height="13.39" fill="#231f20"/>
  <rect x="231.85" y="534.07" width="13.39" height="13.39" fill="#231f20"/>
  <rect x="447.57" y="876.98" width="13.39" height="13.39" fill="#231f20"/>
  <rect x="447.57" y="921.11" width="13.39" height="13.39" fill="#231f20"/>
  <rect x="361.35" y="876.98" width="13.39" height="13.39" fill="#231f20"/>
  <rect x="361.35" y="921.11" width="13.39" height="13.39" fill="#231f20"/>
  <rect x="447.57" y="964.07" width="13.39" height="13.39" fill="#231f20"/>
  <rect x="447.57" y="1006.7" width="13.39" height="13.39" fill="#231f20"/>
  <rect x="447.57" y="1051.36" width="13.39" height="13.39" fill="#231f20"/>
  <rect x="619.6" y="964.07" width="13.39" height="13.39" fill="#231f20"/>
  <rect x="619.6" y="1006.7" width="13.39" height="13.39" fill="#231f20"/>
  <rect x="619.6" y="1051.36" width="13.39" height="13.39" fill="#231f20"/>
  <rect x="489.97" y="1006.7" width="13.39" height="13.39" fill="#231f20"/>
  <rect x="489.97" y="1051.36" width="13.39" height="13.39" fill="#231f20"/>
  <rect x="361.35" y="1051.36" width="13.39" height="13.39" fill="#231f20"/>
  <rect x="404.39" y="1051.36" width="13.39" height="13.39" fill="#231f20"/>
  <rect x="447.57" y="834.72" width="13.39" height="13.39" fill="#231f20"/>
  <rect x="274.82" y="835.42" width="13.39" height="13.39" fill="#231f20"/>
  <rect x="231.85" y="834.72" width="13.39" height="13.39" fill="#231f20"/>
  <rect x="274.82" y="923.87" width="13.39" height="13.39" fill="#231f20"/>
  <rect x="231.85" y="923.17" width="13.39" height="13.39" fill="#231f20"/>
  <rect x="274.82" y="965.55" width="13.39" height="13.39" fill="#231f20"/>
  <rect x="231.85" y="964.85" width="13.39" height="13.39" fill="#231f20"/>
  <rect x="619.6" y="532.83" width="13.39" height="13.39" fill="#231f20"/>
  <rect x="576.74" y="532.83" width="13.39" height="13.39" fill="#231f20"/>
  <rect x="533.35" y="532.83" width="13.39" height="13.39" fill="#231f20"/>
  <rect x="489.97" y="490.2" width="13.39" height="13.39" fill="#231f20"/>
  <rect x="489.97" y="532.02" width="13.39" height="13.39" fill="#231f20"/>
  <rect x="663.14" y="187.86" width="13.39" height="13.39" fill="#231f20"/>
  <rect x="834.64" y="230.26" width="13.39" height="13.39" fill="#231f20"/>
  <rect x="749.64" y="230.26" width="13.39" height="13.39" fill="#231f20"/>
  <rect x="965.7" y="230.26" width="13.39" height="13.39" fill="#231f20"/>
  <rect x="834.64" y="143.48" width="13.39" height="13.39" fill="#231f20"/>
  <rect x="877.67" y="100.65" width="13.39" height="13.39" fill="#231f20"/>
  <rect x="922.32" y="100.65" width="13.39" height="13.39" fill="#231f20"/>
  <rect x="877.67" y="143.48" width="13.39" height="13.39" fill="#231f20"/>
  <rect x="922.32" y="143.48" width="13.39" height="13.39" fill="#231f20"/>
  <rect x="834.64" y="316.25" width="13.39" height="13.39" fill="#231f20"/>
  <rect x="834.64" y="402.99" width="13.39" height="13.39" fill="#231f20"/>
  <rect x="834.64" y="359.62" width="13.39" height="13.39" fill="#231f20"/>
  <rect x="792.49" y="359.39" width="13.39" height="13.39" fill="#231f20"/>
  <rect x="834.64" y="273.41" width="13.39" height="13.39" fill="#231f20"/>
  <rect x="877.67" y="316.25" width="13.39" height="13.39" fill="#231f20"/>
  <rect x="877.67" y="273.61" width="13.39" height="13.39" fill="#231f20"/>
  <rect x="965.7" y="361.96" width="13.39" height="13.39" fill="#231f20"/>
  <rect x="792.49" y="402.99" width="13.39" height="13.39" fill="#231f20"/>
  <rect x="792.49" y="446.24" width="13.39" height="13.39" fill="#231f20"/>
  <rect x="877.67" y="444.98" width="13.39" height="13.39" fill="#231f20"/>
  <rect x="877.67" y="488.58" width="13.39" height="13.39" fill="#231f20"/>
  <rect x="877.67" y="531.83" width="13.39" height="13.39" fill="#231f20"/>
  <rect x="922.32" y="316.25" width="13.39" height="13.39" fill="#231f20"/>
  <rect x="965.7" y="316.25" width="13.39" height="13.39" fill="#231f20"/>
  <rect x="922.32" y="361.96" width="13.39" height="13.39" fill="#231f20"/>
  <rect x="834.64" y="187.86" width="13.39" height="13.39" fill="#231f20"/>
  <rect x="619.6" y="187.86" width="13.39" height="13.39" fill="#231f20"/>
  <rect x="576.74" y="187.86" width="13.39" height="13.39" fill="#231f20"/>
  <rect x="533.35" y="187.86" width="13.39" height="13.39" fill="#231f20"/>
  <rect x="489.97" y="187.04" width="13.39" height="13.39" fill="#231f20"/>
  <rect x="663.14" y="14.64" width="13.39" height="13.39" fill="#231f20"/>
  <rect x="619.6" y="14.64" width="13.39" height="13.39" fill="#231f20"/>
  <rect x="576.74" y="14.64" width="13.39" height="13.39" fill="#231f20"/>
  <rect x="533.35" y="14.64" width="13.39" height="13.39" fill="#231f20"/>
  <rect x="489.97" y="13.82" width="13.39" height="13.39" fill="#231f20"/>
  <rect x="489.97" y="230.26" width="13.39" height="13.39" fill="#231f20"/>
  <rect x="447.57" y="187.04" width="13.39" height="13.39" fill="#231f20"/>
  <rect x="447.57" y="230.26" width="13.39" height="13.39" fill="#231f20"/>
  <rect x="447.57" y="99.3" width="13.39" height="13.39" fill="#231f20"/>
  <rect x="447.57" y="142.52" width="13.39" height="13.39" fill="#231f20"/>
  <rect x="404.39" y="187.04" width="13.39" height="13.39" fill="#231f20"/>
  <rect x="404.39" y="230.26" width="13.39" height="13.39" fill="#231f20"/>
  <rect x="404.39" y="142.52" width="13.39" height="13.39" fill="#231f20"/>
  <rect x="447.57" y="14.23" width="13.39" height="13.39" fill="#231f20"/>
  <rect x="447.57" y="57.45" width="13.39" height="13.39" fill="#231f20"/>
  <rect x="447.57" y="403.99" width="13.39" height="13.39" fill="#231f20"/>
  <rect x="447.57" y="447.21" width="13.39" height="13.39" fill="#231f20"/>
  <rect x="447.57" y="316.25" width="13.39" height="13.39" fill="#231f20"/>
  <rect x="447.57" y="359.47" width="13.39" height="13.39" fill="#231f20"/>
  <rect x="404.39" y="403.99" width="13.39" height="13.39" fill="#231f20"/>
  <rect x="404.39" y="447.21" width="13.39" height="13.39" fill="#231f20"/>
  <rect x="404.39" y="316.25" width="13.39" height="13.39" fill="#231f20"/>
  <rect x="404.39" y="359.47" width="13.39" height="13.39" fill="#231f20"/>
  <rect x="361.35" y="403.99" width="13.39" height="13.39" fill="#231f20"/>
  <rect x="317.34" y="403.99" width="13.39" height="13.39" fill="#231f20"/>
  <rect x="274.82" y="403.99" width="13.39" height="13.39" fill="#231f20"/>
  <rect x="231.85" y="403.99" width="13.39" height="13.39" fill="#231f20"/>
  <rect x="187.7" y="403.99" width="13.39" height="13.39" fill="#231f20"/>
  <rect x="361.35" y="447.21" width="13.39" height="13.39" fill="#231f20"/>
  <rect x="361.35" y="316.25" width="13.39" height="13.39" fill="#231f20"/>
  <rect x="361.35" y="359.47" width="13.39" height="13.39" fill="#231f20"/>
  <rect x="187.7" y="490.85" width="13.39" height="13.39" fill="#231f20"/>
  <rect x="187.7" y="534.07" width="13.39" height="13.39" fill="#231f20"/>
  <rect x="187.7" y="446.33" width="13.39" height="13.39" fill="#231f20"/>
  <rect x="447.57" y="231.18" width="13.39" height="13.39" fill="#231f20"/>
  <rect x="447.57" y="274.4" width="13.39" height="13.39" fill="#231f20"/>
  <rect x="447.57" y="490.2" width="13.39" height="13.39" fill="#231f20"/>
  <rect x="404.39" y="490.2" width="13.39" height="13.39" fill="#231f20"/>
</svg>