<?xml version="1.0" encoding="UTF-8"?>
<svg id="_27" data-name="27" xmlns="http://www.w3.org/2000/svg" viewBox="0 0 1080 1080">
  <rect x="519.58" y="778.37" width="40.84" height="40.84" fill="#231f20"/>
  <rect x="476.34" y="778.37" width="40.84" height="40.84" fill="#231f20"/>
  <rect x="519.58" y="821.52" width="40.84" height="40.84" fill="#231f20"/>
  <rect x="476.34" y="821.52" width="40.84" height="40.84" fill="#231f20"/>
  <rect x="519.58" y="864.68" width="40.84" height="40.84" fill="#231f20"/>
  <rect x="476.34" y="864.68" width="40.84" height="40.84" fill="#231f20"/>
  <rect x="519.58" y="907.83" width="40.84" height="40.84" fill="#231f20"/>
  <rect x="476.34" y="907.83" width="40.84" height="40.84" fill="#231f20"/>
  <rect x="519.58" y="950.99" width="40.84" height="40.84" fill="#231f20"/>
  <rect x="476.34" y="950.99" width="40.84" height="40.84" fill="#231f20"/>
  <rect x="519.58" y="994.14" width="40.84" height="40.84" fill="#231f20"/>
  <rect x="476.34" y="994.14" width="40.84" height="40.84" fill="#231f20"/>
  <rect x="519.58" y="1037.3" width="40.84" height="40.84" fill="#231f20"/>
  <rect x="562.37" y="778.37" width="40.84" height="40.84" fill="#231f20"/>
  <rect x="562.37" y="821.52" width="40.84" height="40.84" fill="#231f20"/>
  <rect x="562.37" y="864.68" width="40.84" height="40.84" fill="#231f20"/>
  <rect x="562.37" y="907.83" width="40.84" height="40.84" fill="#231f20"/>
  <rect x="562.37" y="950.99" width="40.84" height="40.84" fill="#231f20"/>
  <rect x="562.37" y="994.14" width="40.84" height="40.84" fill="#231f20"/>
  <rect x="562.37" y="1037.3" width="40.84" height="40.84" fill="#231f20"/>
  <rect x="605.44" y="778.37" width="40.84" height="40.84" fill="#231f20"/>
  <rect x="519.58" y="735.21" width="40.84" height="40.84" fill="#231f20"/>
  <rect x="476.34" y="735.21" width="40.84" height="40.84" fill="#231f20"/>
  <rect x="433.11" y="778.37" width="40.84" height="40.84" fill="#231f20"/>
  <rect x="433.11" y="821.52" width="40.84" height="40.84" fill="#231f20"/>
  <rect x="433.11" y="735.21" width="40.84" height="40.84" fill="#231f20"/>
  <rect x="389.75" y="778.37" width="40.84" height="40.84" fill="#231f20"/>
  <rect x="389.75" y="735.21" width="40.84" height="40.84" fill="#231f20"/>
  <rect x="562.37" y="735.21" width="40.84" height="40.84" fill="#231f20"/>
  <rect x="605.44" y="735.21" width="40.84" height="40.84" fill="#231f20"/>
  <rect x="519.58" y="692.06" width="40.84" height="40.84" fill="#231f20"/>
  <rect x="476.34" y="692.06" width="40.84" height="40.84" fill="#231f20"/>
  <rect x="433.11" y="692.06" width="40.84" height="40.84" fill="#231f20"/>
  <rect x="389.75" y="692.06" width="40.84" height="40.84" fill="#231f20"/>
  <rect x="562.37" y="692.06" width="40.84" height="40.84" fill="#231f20"/>
  <rect x="605.44" y="692.06" width="40.84" height="40.84" fill="#231f20"/>
  <rect x="519.58" y="648.9" width="40.84" height="40.84" fill="#231f20"/>
  <rect x="476.34" y="648.9" width="40.84" height="40.84" fill="#231f20"/>
  <rect x="433.11" y="648.9" width="40.84" height="40.84" fill="#231f20"/>
  <rect x="389.75" y="648.9" width="40.84" height="40.84" fill="#231f20"/>
  <rect x="562.37" y="648.9" width="40.84" height="40.84" fill="#231f20"/>
  <rect x="605.44" y="648.9" width="40.84" height="40.84" fill="#231f20"/>
  <rect x="519.58" y="605.75" width="40.84" height="40.84" fill="#231f20"/>
  <rect x="476.34" y="605.75" width="40.84" height="40.84" fill="#231f20"/>
  <rect x="562.37" y="605.75" width="40.84" height="40.84" fill="#231f20"/>
  <rect x="605.44" y="605.75" width="40.84" height="40.84" fill="#231f20"/>
  <rect x="605.44" y="821.52" width="40.84" height="40.84" fill="#231f20"/>
  <rect x="605.44" y="864.68" width="40.84" height="40.84" fill="#231f20"/>
  <rect x="605.44" y="907.83" width="40.84" height="40.84" fill="#231f20"/>
  <rect x="605.44" y="950.99" width="40.84" height="40.84" fill="#231f20"/>
  <rect x="605.44" y="994.14" width="40.84" height="40.84" fill="#231f20"/>
  <rect x="605.44" y="1037.3" width="40.84" height="40.84" fill="#231f20"/>
  <rect x="476.34" y="1037.3" width="40.84" height="40.84" fill="#231f20"/>
  <rect x="360.11" y="662.63" width="13.39" height="13.39" fill="#231f20"/>
  <rect x="360.11" y="705.78" width="13.39" height="13.39" fill="#231f20"/>
  <rect x="446.83" y="576.35" width="13.39" height="13.39" fill="#231f20"/>
  <rect x="446.83" y="619.51" width="13.39" height="13.39" fill="#231f20"/>
  <rect x="403.47" y="619.51" width="13.39" height="13.39" fill="#231f20"/>
  <rect x="533.3" y="576.35" width="13.39" height="13.39" fill="#231f20"/>
  <rect x="576.1" y="576.35" width="13.39" height="13.39" fill="#231f20"/>
  <rect x="619.16" y="576.35" width="13.39" height="13.39" fill="#231f20"/>
  <rect x="490.07" y="576.35" width="13.39" height="13.39" fill="#231f20"/>
  <rect x="360.11" y="748.94" width="13.39" height="13.39" fill="#231f20"/>
  <rect x="360.11" y="792.09" width="13.39" height="13.39" fill="#231f20"/>
  <rect x="403.47" y="835.25" width="13.39" height="13.39" fill="#231f20"/>
  <rect x="403.47" y="878.4" width="13.39" height="13.39" fill="#231f20"/>
  <rect x="446.83" y="878.4" width="13.39" height="13.39" fill="#231f20"/>
  <rect x="446.83" y="921.56" width="13.39" height="13.39" fill="#231f20"/>
  <rect x="403.47" y="921.56" width="13.39" height="13.39" fill="#231f20"/>
  <rect x="446.83" y="964.71" width="13.39" height="13.39" fill="#231f20"/>
  <rect x="360.11" y="835.25" width="13.39" height="13.39" fill="#231f20"/>
  <rect x="188.43" y="835.25" width="13.39" height="13.39" fill="#231f20"/>
  <rect x="188.43" y="878.4" width="13.39" height="13.39" fill="#231f20"/>
  <rect x="188.43" y="921.56" width="13.39" height="13.39" fill="#231f20"/>
  <rect x="188.43" y="964.71" width="13.39" height="13.39" fill="#231f20"/>
  <rect x="188.43" y="1007.87" width="13.39" height="13.39" fill="#231f20"/>
  <rect x="663.58" y="662.63" width="13.39" height="13.39" fill="#231f20"/>
  <rect x="663.58" y="705.78" width="13.39" height="13.39" fill="#231f20"/>
  <rect x="663.58" y="576.35" width="13.39" height="13.39" fill="#231f20"/>
  <rect x="446.83" y="533.2" width="13.39" height="13.39" fill="#231f20"/>
  <rect x="533.3" y="533.2" width="13.39" height="13.39" fill="#231f20"/>
  <rect x="576.1" y="533.2" width="13.39" height="13.39" fill="#231f20"/>
  <rect x="619.16" y="533.2" width="13.39" height="13.39" fill="#231f20"/>
  <rect x="490.07" y="533.2" width="13.39" height="13.39" fill="#231f20"/>
  <rect x="663.58" y="533.2" width="13.39" height="13.39" fill="#231f20"/>
  <rect x="446.83" y="490.04" width="13.39" height="13.39" fill="#231f20"/>
  <rect x="533.3" y="490.04" width="13.39" height="13.39" fill="#231f20"/>
  <rect x="576.1" y="490.04" width="13.39" height="13.39" fill="#231f20"/>
  <rect x="619.16" y="490.04" width="13.39" height="13.39" fill="#231f20"/>
  <rect x="490.07" y="490.04" width="13.39" height="13.39" fill="#231f20"/>
  <rect x="231.81" y="576.35" width="13.39" height="13.39" fill="#231f20"/>
  <rect x="318.72" y="576.35" width="13.39" height="13.39" fill="#231f20"/>
  <rect x="360.11" y="576.35" width="13.39" height="13.39" fill="#231f20"/>
  <rect x="403.47" y="576.35" width="13.39" height="13.39" fill="#231f20"/>
  <rect x="275.2" y="576.35" width="13.39" height="13.39" fill="#231f20"/>
  <rect x="101.52" y="576.35" width="13.39" height="13.39" fill="#231f20"/>
  <rect x="188.43" y="576.35" width="13.39" height="13.39" fill="#231f20"/>
  <rect x="144.9" y="576.35" width="13.39" height="13.39" fill="#231f20"/>
  <rect x="101.52" y="619.47" width="13.39" height="13.39" fill="#231f20"/>
  <rect x="188.43" y="619.47" width="13.39" height="13.39" fill="#231f20"/>
  <rect x="144.9" y="619.47" width="13.39" height="13.39" fill="#231f20"/>
  <rect x="101.52" y="662.63" width="13.39" height="13.39" fill="#231f20"/>
  <rect x="188.43" y="662.63" width="13.39" height="13.39" fill="#231f20"/>
  <rect x="144.9" y="662.63" width="13.39" height="13.39" fill="#231f20"/>
  <rect x="101.52" y="705.78" width="13.39" height="13.39" fill="#231f20"/>
  <rect x="188.43" y="705.78" width="13.39" height="13.39" fill="#231f20"/>
  <rect x="144.9" y="705.78" width="13.39" height="13.39" fill="#231f20"/>
  <rect x="101.52" y="748.94" width="13.39" height="13.39" fill="#231f20"/>
  <rect x="144.9" y="748.94" width="13.39" height="13.39" fill="#231f20"/>
  <rect x="231.81" y="533.2" width="13.39" height="13.39" fill="#231f20"/>
  <rect x="318.72" y="533.2" width="13.39" height="13.39" fill="#231f20"/>
  <rect x="360.11" y="533.2" width="13.39" height="13.39" fill="#231f20"/>
  <rect x="403.47" y="533.2" width="13.39" height="13.39" fill="#231f20"/>
  <rect x="275.2" y="533.2" width="13.39" height="13.39" fill="#231f20"/>
  <rect x="231.81" y="490.04" width="13.39" height="13.39" fill="#231f20"/>
  <rect x="318.72" y="490.04" width="13.39" height="13.39" fill="#231f20"/>
  <rect x="360.11" y="490.04" width="13.39" height="13.39" fill="#231f20"/>
  <rect x="403.47" y="490.04" width="13.39" height="13.39" fill="#231f20"/>
  <rect x="275.2" y="490.04" width="13.39" height="13.39" fill="#231f20"/>
  <rect x="275.2" y="446.89" width="13.39" height="13.39" fill="#231f20"/>
  <rect x="275.2" y="403.73" width="13.39" height="13.39" fill="#231f20"/>
  <rect x="275.2" y="360.58" width="13.39" height="13.39" fill="#231f20"/>
  <rect x="275.2" y="317.11" width="13.39" height="13.39" fill="#231f20"/>
  <rect x="275.2" y="273.95" width="13.39" height="13.39" fill="#231f20"/>
  <rect x="231.81" y="317.22" width="13.39" height="13.39" fill="#231f20"/>
  <rect x="231.81" y="274.07" width="13.39" height="13.39" fill="#231f20"/>
  <rect x="360.11" y="100.72" width="13.39" height="13.39" fill="#231f20"/>
  <rect x="360.11" y="57.56" width="13.39" height="13.39" fill="#231f20"/>
  <rect x="360.11" y="446.89" width="13.39" height="13.39" fill="#231f20"/>
  <rect x="446.83" y="446.89" width="13.39" height="13.39" fill="#231f20"/>
  <rect x="403.47" y="446.89" width="13.39" height="13.39" fill="#231f20"/>
  <rect x="360.11" y="403.73" width="13.39" height="13.39" fill="#231f20"/>
  <rect x="446.83" y="403.73" width="13.39" height="13.39" fill="#231f20"/>
  <rect x="403.47" y="403.73" width="13.39" height="13.39" fill="#231f20"/>
  <rect x="360.11" y="360.58" width="13.39" height="13.39" fill="#231f20"/>
  <rect x="446.83" y="360.58" width="13.39" height="13.39" fill="#231f20"/>
  <rect x="403.47" y="360.58" width="13.39" height="13.39" fill="#231f20"/>
  <rect x="490.07" y="446.89" width="13.39" height="13.39" fill="#231f20"/>
  <rect x="576.1" y="446.89" width="13.39" height="13.39" fill="#231f20"/>
  <rect x="533.3" y="446.89" width="13.39" height="13.39" fill="#231f20"/>
  <rect x="490.07" y="403.73" width="13.39" height="13.39" fill="#231f20"/>
  <rect x="576.1" y="403.73" width="13.39" height="13.39" fill="#231f20"/>
  <rect x="533.3" y="403.73" width="13.39" height="13.39" fill="#231f20"/>
  <rect x="490.07" y="360.58" width="13.39" height="13.39" fill="#231f20"/>
  <rect x="490.07" y="317.42" width="13.39" height="13.39" fill="#231f20"/>
  <rect x="490.07" y="274.27" width="13.39" height="13.39" fill="#231f20"/>
  <rect x="490.07" y="231.11" width="13.39" height="13.39" fill="#231f20"/>
  <rect x="490.07" y="187.96" width="13.39" height="13.39" fill="#231f20"/>
  <rect x="490.07" y="144.8" width="13.39" height="13.39" fill="#231f20"/>
  <rect x="446.83" y="317.42" width="13.39" height="13.39" fill="#231f20"/>
  <rect x="446.83" y="274.27" width="13.39" height="13.39" fill="#231f20"/>
  <rect x="446.83" y="231.11" width="13.39" height="13.39" fill="#231f20"/>
  <rect x="446.83" y="187.96" width="13.39" height="13.39" fill="#231f20"/>
  <rect x="446.83" y="144.8" width="13.39" height="13.39" fill="#231f20"/>
  <rect x="403.47" y="317.42" width="13.39" height="13.39" fill="#231f20"/>
  <rect x="403.47" y="274.27" width="13.39" height="13.39" fill="#231f20"/>
  <rect x="403.47" y="231.11" width="13.39" height="13.39" fill="#231f20"/>
  <rect x="403.47" y="187.96" width="13.39" height="13.39" fill="#231f20"/>
  <rect x="403.47" y="144.8" width="13.39" height="13.39" fill="#231f20"/>
  <rect x="576.1" y="360.58" width="13.39" height="13.39" fill="#231f20"/>
  <rect x="533.3" y="360.58" width="13.39" height="13.39" fill="#231f20"/>
  <rect x="533.3" y="317.42" width="13.39" height="13.39" fill="#231f20"/>
  <rect x="533.3" y="274.27" width="13.39" height="13.39" fill="#231f20"/>
  <rect x="533.3" y="231.11" width="13.39" height="13.39" fill="#231f20"/>
  <rect x="533.3" y="187.96" width="13.39" height="13.39" fill="#231f20"/>
  <rect x="707.86" y="187.96" width="13.39" height="13.39" fill="#231f20"/>
  <rect x="533.3" y="144.8" width="13.39" height="13.39" fill="#231f20"/>
  <rect x="664.48" y="144.8" width="13.39" height="13.39" fill="#231f20"/>
  <rect x="619.16" y="144.8" width="13.39" height="13.39" fill="#231f20"/>
  <rect x="576.1" y="144.8" width="13.39" height="13.39" fill="#231f20"/>
  <rect x="707.86" y="144.8" width="13.39" height="13.39" fill="#231f20"/>
  <rect x="705.61" y="14.41" width="13.39" height="13.39" fill="#231f20"/>
  <rect x="662.12" y="14.41" width="13.39" height="13.39" fill="#231f20"/>
  <rect x="619.16" y="14.41" width="13.39" height="13.39" fill="#231f20"/>
  <rect x="749" y="14.41" width="13.39" height="13.39" fill="#231f20"/>
  <rect x="749.05" y="57.56" width="13.39" height="13.39" fill="#231f20"/>
  <rect x="705.56" y="57.56" width="13.39" height="13.39" fill="#231f20"/>
  <rect x="792.44" y="57.56" width="13.39" height="13.39" fill="#231f20"/>
  <rect x="490.07" y="101.65" width="13.39" height="13.39" fill="#231f20"/>
  <rect x="446.83" y="101.65" width="13.39" height="13.39" fill="#231f20"/>
  <rect x="403.47" y="101.65" width="13.39" height="13.39" fill="#231f20"/>
  <rect x="533.3" y="101.65" width="13.39" height="13.39" fill="#231f20"/>
  <rect x="490.07" y="58.49" width="13.39" height="13.39" fill="#231f20"/>
  <rect x="446.83" y="58.49" width="13.39" height="13.39" fill="#231f20"/>
  <rect x="403.47" y="58.49" width="13.39" height="13.39" fill="#231f20"/>
  <rect x="360.11" y="13.94" width="13.39" height="13.39" fill="#231f20"/>
  <rect x="490.07" y="14.87" width="13.39" height="13.39" fill="#231f20"/>
  <rect x="446.83" y="14.87" width="13.39" height="13.39" fill="#231f20"/>
  <rect x="403.47" y="14.87" width="13.39" height="13.39" fill="#231f20"/>
  <rect x="533.3" y="58.49" width="13.39" height="13.39" fill="#231f20"/>
  <rect x="619.16" y="446.89" width="13.39" height="13.39" fill="#231f20"/>
  <rect x="707.03" y="446.89" width="13.39" height="13.39" fill="#231f20"/>
  <rect x="663.51" y="446.89" width="13.39" height="13.39" fill="#231f20"/>
  <rect x="619.16" y="403.73" width="13.39" height="13.39" fill="#231f20"/>
  <rect x="707.03" y="403.73" width="13.39" height="13.39" fill="#231f20"/>
  <rect x="663.51" y="403.73" width="13.39" height="13.39" fill="#231f20"/>
  <rect x="619.16" y="360.58" width="13.39" height="13.39" fill="#231f20"/>
  <rect x="707.03" y="360.58" width="13.39" height="13.39" fill="#231f20"/>
  <rect x="750.55" y="446.89" width="13.39" height="13.39" fill="#231f20"/>
  <rect x="921.77" y="446.89" width="13.39" height="13.39" fill="#231f20"/>
  <rect x="878.24" y="446.89" width="13.39" height="13.39" fill="#231f20"/>
  <rect x="965.29" y="446.89" width="13.39" height="13.39" fill="#231f20"/>
  <rect x="750.55" y="403.73" width="13.39" height="13.39" fill="#231f20"/>
  <rect x="750.55" y="360.58" width="13.39" height="13.39" fill="#231f20"/>
  <rect x="921.77" y="230.18" width="13.39" height="13.39" fill="#231f20"/>
  <rect x="921.77" y="187.03" width="13.39" height="13.39" fill="#231f20"/>
  <rect x="921.77" y="143.87" width="13.39" height="13.39" fill="#231f20"/>
  <rect x="965.66" y="100.72" width="13.39" height="13.39" fill="#231f20"/>
  <rect x="965.66" y="57.56" width="13.39" height="13.39" fill="#231f20"/>
  <rect x="965.66" y="14.41" width="13.39" height="13.39" fill="#231f20"/>
  <rect x="921.77" y="100.72" width="13.39" height="13.39" fill="#231f20"/>
  <rect x="921.77" y="57.56" width="13.39" height="13.39" fill="#231f20"/>
  <rect x="921.77" y="14.41" width="13.39" height="13.39" fill="#231f20"/>
  <rect x="663.51" y="360.58" width="13.39" height="13.39" fill="#231f20"/>
  <rect x="879.31" y="274.27" width="13.39" height="13.39" fill="#231f20"/>
  <rect x="879.31" y="230.18" width="13.39" height="13.39" fill="#231f20"/>
  <rect x="966.22" y="274.27" width="13.39" height="13.39" fill="#231f20"/>
  <rect x="1009.74" y="274.27" width="13.39" height="13.39" fill="#231f20"/>
  <rect x="966.22" y="316.62" width="13.39" height="13.39" fill="#231f20"/>
  <rect x="1009.74" y="316.62" width="13.39" height="13.39" fill="#231f20"/>
  <rect x="1051.72" y="360.75" width="13.39" height="13.39" fill="#231f20"/>
  <rect x="1051.72" y="403.11" width="13.39" height="13.39" fill="#231f20"/>
  <rect x="922.69" y="274.27" width="13.39" height="13.39" fill="#231f20"/>
  <rect x="576.1" y="274.27" width="13.39" height="13.39" fill="#231f20"/>
  <rect x="619.16" y="274.27" width="13.39" height="13.39" fill="#231f20"/>
  <rect x="619.16" y="317.42" width="13.39" height="13.39" fill="#231f20"/>
  <rect x="619.16" y="231.11" width="13.39" height="13.39" fill="#231f20"/>
  <rect x="663.65" y="231.11" width="13.39" height="13.39" fill="#231f20"/>
  <rect x="663.51" y="274.27" width="13.39" height="13.39" fill="#231f20"/>
  <rect x="663.58" y="490.04" width="13.39" height="13.39" fill="#231f20"/>
  <rect x="751.87" y="490.04" width="13.39" height="13.39" fill="#231f20"/>
  <rect x="796.79" y="490.04" width="13.39" height="13.39" fill="#231f20"/>
  <rect x="663.58" y="619.51" width="13.39" height="13.39" fill="#231f20"/>
  <rect x="794.08" y="576.35" width="13.39" height="13.39" fill="#231f20"/>
  <rect x="794.08" y="619.51" width="13.39" height="13.39" fill="#231f20"/>
  <rect x="663.58" y="748.94" width="13.39" height="13.39" fill="#231f20"/>
  <rect x="707.03" y="662.63" width="13.39" height="13.39" fill="#231f20"/>
  <rect x="707.03" y="705.78" width="13.39" height="13.39" fill="#231f20"/>
  <rect x="750.55" y="662.63" width="13.39" height="13.39" fill="#231f20"/>
  <rect x="750.55" y="705.78" width="13.39" height="13.39" fill="#231f20"/>
  <rect x="707.03" y="748.94" width="13.39" height="13.39" fill="#231f20"/>
  <rect x="663.58" y="792.09" width="13.39" height="13.39" fill="#231f20"/>
  <rect x="663.58" y="835.25" width="13.39" height="13.39" fill="#231f20"/>
  <rect x="663.58" y="878.4" width="13.39" height="13.39" fill="#231f20"/>
  <rect x="663.58" y="921.56" width="13.39" height="13.39" fill="#231f20"/>
  <rect x="663.58" y="964.71" width="13.39" height="13.39" fill="#231f20"/>
</svg>