<?xml version="1.0" encoding="UTF-8"?>
<svg id="_5" data-name="5" xmlns="http://www.w3.org/2000/svg" viewBox="0 0 1080 1080">
  <rect x="303.22" y="995.01" width="40.81" height="40.81" fill="#231f20"/>
  <rect x="260.4" y="995.01" width="40.81" height="40.81" fill="#231f20"/>
  <rect x="346.05" y="995.01" width="40.81" height="40.81" fill="#231f20"/>
  <rect x="217.58" y="995.01" width="40.81" height="40.81" fill="#231f20"/>
  <rect x="217.03" y="951.58" width="40.81" height="40.81" fill="#231f20"/>
  <rect x="174.3" y="951.58" width="40.81" height="40.81" fill="#231f20"/>
  <rect x="303.1" y="951.58" width="40.81" height="40.81" fill="#231f20"/>
  <rect x="260.38" y="951.58" width="40.81" height="40.81" fill="#231f20"/>
  <rect x="346.05" y="951.58" width="40.81" height="40.81" fill="#231f20"/>
  <rect x="432.12" y="951.58" width="40.81" height="40.81" fill="#231f20"/>
  <rect x="389.4" y="951.58" width="40.81" height="40.81" fill="#231f20"/>
  <rect x="217.03" y="908.43" width="40.81" height="40.81" fill="#231f20"/>
  <rect x="174.3" y="908.43" width="40.81" height="40.81" fill="#231f20"/>
  <rect x="303.1" y="908.43" width="40.81" height="40.81" fill="#231f20"/>
  <rect x="260.38" y="908.43" width="40.81" height="40.81" fill="#231f20"/>
  <rect x="346.05" y="908.43" width="40.81" height="40.81" fill="#231f20"/>
  <rect x="432.12" y="908.43" width="40.81" height="40.81" fill="#231f20"/>
  <rect x="475.79" y="908.43" width="40.81" height="40.81" fill="#231f20"/>
  <rect x="389.4" y="908.43" width="40.81" height="40.81" fill="#231f20"/>
  <rect x="217.03" y="865.4" width="40.81" height="40.81" fill="#231f20"/>
  <rect x="217.03" y="822.48" width="40.81" height="40.81" fill="#231f20"/>
  <rect x="260.4" y="822.48" width="40.81" height="40.81" fill="#231f20"/>
  <rect x="303.1" y="865.4" width="40.81" height="40.81" fill="#231f20"/>
  <rect x="260.38" y="865.4" width="40.81" height="40.81" fill="#231f20"/>
  <rect x="346.05" y="865.4" width="40.81" height="40.81" fill="#231f20"/>
  <rect x="432.12" y="865.4" width="40.81" height="40.81" fill="#231f20"/>
  <rect x="475.79" y="865.4" width="40.81" height="40.81" fill="#231f20"/>
  <rect x="389.4" y="865.4" width="40.81" height="40.81" fill="#231f20"/>
  <rect x="303.1" y="822.48" width="40.81" height="40.81" fill="#231f20"/>
  <rect x="346.05" y="822.48" width="40.81" height="40.81" fill="#231f20"/>
  <rect x="432.12" y="822.48" width="40.81" height="40.81" fill="#231f20"/>
  <rect x="475.79" y="822.48" width="40.81" height="40.81" fill="#231f20"/>
  <rect x="519.45" y="865.4" width="40.81" height="40.81" fill="#231f20"/>
  <rect x="519.45" y="822.48" width="40.81" height="40.81" fill="#231f20"/>
  <rect x="389.4" y="822.48" width="40.81" height="40.81" fill="#231f20"/>
  <rect x="217.03" y="779.11" width="40.81" height="40.81" fill="#231f20"/>
  <rect x="260.4" y="779.11" width="40.81" height="40.81" fill="#231f20"/>
  <rect x="303.1" y="779.11" width="40.81" height="40.81" fill="#231f20"/>
  <rect x="346.05" y="779.11" width="40.81" height="40.81" fill="#231f20"/>
  <rect x="432.12" y="779.11" width="40.81" height="40.81" fill="#231f20"/>
  <rect x="475.79" y="779.11" width="40.81" height="40.81" fill="#231f20"/>
  <rect x="389.4" y="779.11" width="40.81" height="40.81" fill="#231f20"/>
  <rect x="217.03" y="736.14" width="40.81" height="40.81" fill="#231f20"/>
  <rect x="260.4" y="736.14" width="40.81" height="40.81" fill="#231f20"/>
  <rect x="303.1" y="736.14" width="40.81" height="40.81" fill="#231f20"/>
  <rect x="346.05" y="736.14" width="40.81" height="40.81" fill="#231f20"/>
  <rect x="432.12" y="736.14" width="40.81" height="40.81" fill="#231f20"/>
  <rect x="475.79" y="736.14" width="40.81" height="40.81" fill="#231f20"/>
  <rect x="389.4" y="736.14" width="40.81" height="40.81" fill="#231f20"/>
  <rect x="217.03" y="693.08" width="40.81" height="40.81" fill="#231f20"/>
  <rect x="260.4" y="693.08" width="40.81" height="40.81" fill="#231f20"/>
  <rect x="303.1" y="693.08" width="40.81" height="40.81" fill="#231f20"/>
  <rect x="346.05" y="693.08" width="40.81" height="40.81" fill="#231f20"/>
  <rect x="432.12" y="693.08" width="40.81" height="40.81" fill="#231f20"/>
  <rect x="475.79" y="693.08" width="40.81" height="40.81" fill="#231f20"/>
  <rect x="518.9" y="693.08" width="40.81" height="40.81" fill="#231f20"/>
  <rect x="389.4" y="693.08" width="40.81" height="40.81" fill="#231f20"/>
  <rect x="260.4" y="649.94" width="40.81" height="40.81" fill="#231f20"/>
  <rect x="303.1" y="649.94" width="40.81" height="40.81" fill="#231f20"/>
  <rect x="346.05" y="649.94" width="40.81" height="40.81" fill="#231f20"/>
  <rect x="432.12" y="649.94" width="40.81" height="40.81" fill="#231f20"/>
  <rect x="475.79" y="649.94" width="40.81" height="40.81" fill="#231f20"/>
  <rect x="389.4" y="649.94" width="40.81" height="40.81" fill="#231f20"/>
  <rect x="303.1" y="606.75" width="40.81" height="40.81" fill="#231f20"/>
  <rect x="346.05" y="606.75" width="40.81" height="40.81" fill="#231f20"/>
  <rect x="432.12" y="606.75" width="40.81" height="40.81" fill="#231f20"/>
  <rect x="475.79" y="606.75" width="40.81" height="40.81" fill="#231f20"/>
  <rect x="518.9" y="649.94" width="40.81" height="40.81" fill="#231f20"/>
  <rect x="562.56" y="649.94" width="40.81" height="40.81" fill="#231f20"/>
  <rect x="518.9" y="606.75" width="40.81" height="40.81" fill="#231f20"/>
  <rect x="562.56" y="606.75" width="40.81" height="40.81" fill="#231f20"/>
  <rect x="389.4" y="606.75" width="40.81" height="40.81" fill="#231f20"/>
  <rect x="432.12" y="563.16" width="40.81" height="40.81" fill="#231f20"/>
  <rect x="475.79" y="563.16" width="40.81" height="40.81" fill="#231f20"/>
  <rect x="518.9" y="563.16" width="40.81" height="40.81" fill="#231f20"/>
  <rect x="563.11" y="563.16" width="40.81" height="40.81" fill="#231f20"/>
  <rect x="389.4" y="563.16" width="40.81" height="40.81" fill="#231f20"/>
  <rect x="432.12" y="519.57" width="40.81" height="40.81" fill="#231f20"/>
  <rect x="475.79" y="519.57" width="40.81" height="40.81" fill="#231f20"/>
  <rect x="518.9" y="519.57" width="40.81" height="40.81" fill="#231f20"/>
  <rect x="563.11" y="519.57" width="40.81" height="40.81" fill="#231f20"/>
  <rect x="432.12" y="476.32" width="40.81" height="40.81" fill="#231f20"/>
  <rect x="475.79" y="476.32" width="40.81" height="40.81" fill="#231f20"/>
  <rect x="518.9" y="476.32" width="40.81" height="40.81" fill="#231f20"/>
  <rect x="563.11" y="476.32" width="40.81" height="40.81" fill="#231f20"/>
  <rect x="432.12" y="433.44" width="40.81" height="40.81" fill="#231f20"/>
  <rect x="475.79" y="433.44" width="40.81" height="40.81" fill="#231f20"/>
  <rect x="518.9" y="433.44" width="40.81" height="40.81" fill="#231f20"/>
  <rect x="562.04" y="433.44" width="40.81" height="40.81" fill="#231f20"/>
  <rect x="604.72" y="433.44" width="40.81" height="40.81" fill="#231f20"/>
  <rect x="648.39" y="433.44" width="40.81" height="40.81" fill="#231f20"/>
  <rect x="691.5" y="433.44" width="40.81" height="40.81" fill="#231f20"/>
  <rect x="735.04" y="433.44" width="40.81" height="40.81" fill="#231f20"/>
  <rect x="778.65" y="433.44" width="40.81" height="40.81" fill="#231f20"/>
  <rect x="821.79" y="433.44" width="40.81" height="40.81" fill="#231f20"/>
  <rect x="432.12" y="390.58" width="40.81" height="40.81" fill="#231f20"/>
  <rect x="388.99" y="390.58" width="40.81" height="40.81" fill="#231f20"/>
  <rect x="475.79" y="390.58" width="40.81" height="40.81" fill="#231f20"/>
  <rect x="518.9" y="390.58" width="40.81" height="40.81" fill="#231f20"/>
  <rect x="562.04" y="390.58" width="40.81" height="40.81" fill="#231f20"/>
  <rect x="604.72" y="390.58" width="40.81" height="40.81" fill="#231f20"/>
  <rect x="648.39" y="390.58" width="40.81" height="40.81" fill="#231f20"/>
  <rect x="691.5" y="390.58" width="40.81" height="40.81" fill="#231f20"/>
  <rect x="735.04" y="390.58" width="40.81" height="40.81" fill="#231f20"/>
  <rect x="778.65" y="390.58" width="40.81" height="40.81" fill="#231f20"/>
  <rect x="821.79" y="390.58" width="40.81" height="40.81" fill="#231f20"/>
  <rect x="432.39" y="347.04" width="40.81" height="40.81" fill="#231f20"/>
  <rect x="389.26" y="347.04" width="40.81" height="40.81" fill="#231f20"/>
  <rect x="346.74" y="347.04" width="40.81" height="40.81" fill="#231f20"/>
  <rect x="303.61" y="347.04" width="40.81" height="40.81" fill="#231f20"/>
  <rect x="476.06" y="347.04" width="40.81" height="40.81" fill="#231f20"/>
  <rect x="519.16" y="347.04" width="40.81" height="40.81" fill="#231f20"/>
  <rect x="562.31" y="347.04" width="40.81" height="40.81" fill="#231f20"/>
  <rect x="604.99" y="347.04" width="40.81" height="40.81" fill="#231f20"/>
  <rect x="648.66" y="347.04" width="40.81" height="40.81" fill="#231f20"/>
  <rect x="691.77" y="347.04" width="40.81" height="40.81" fill="#231f20"/>
  <rect x="735.31" y="347.04" width="40.81" height="40.81" fill="#231f20"/>
  <rect x="778.92" y="347.04" width="40.81" height="40.81" fill="#231f20"/>
  <rect x="822.05" y="347.04" width="40.81" height="40.81" fill="#231f20"/>
  <rect x="432.12" y="303.97" width="40.81" height="40.81" fill="#231f20"/>
  <rect x="388.99" y="303.97" width="40.81" height="40.81" fill="#231f20"/>
  <rect x="346.48" y="303.97" width="40.81" height="40.81" fill="#231f20"/>
  <rect x="303.34" y="303.97" width="40.81" height="40.81" fill="#231f20"/>
  <rect x="260.16" y="303.97" width="40.81" height="40.81" fill="#231f20"/>
  <rect x="475.79" y="303.97" width="40.81" height="40.81" fill="#231f20"/>
  <rect x="518.9" y="303.97" width="40.81" height="40.81" fill="#231f20"/>
  <rect x="562.04" y="303.97" width="40.81" height="40.81" fill="#231f20"/>
  <rect x="604.72" y="303.97" width="40.81" height="40.81" fill="#231f20"/>
  <rect x="648.39" y="303.97" width="40.81" height="40.81" fill="#231f20"/>
  <rect x="691.5" y="303.97" width="40.81" height="40.81" fill="#231f20"/>
  <rect x="735.04" y="303.97" width="40.81" height="40.81" fill="#231f20"/>
  <rect x="778.65" y="303.97" width="40.81" height="40.81" fill="#231f20"/>
  <rect x="821.79" y="303.97" width="40.81" height="40.81" fill="#231f20"/>
  <rect x="432.12" y="261.38" width="40.81" height="40.81" fill="#231f20"/>
  <rect x="388.99" y="261.38" width="40.81" height="40.81" fill="#231f20"/>
  <rect x="346.48" y="261.38" width="40.81" height="40.81" fill="#231f20"/>
  <rect x="303.34" y="261.38" width="40.81" height="40.81" fill="#231f20"/>
  <rect x="260.16" y="261.38" width="40.81" height="40.81" fill="#231f20"/>
  <rect x="216.99" y="261.38" width="40.81" height="40.81" fill="#231f20"/>
  <rect x="475.79" y="261.38" width="40.81" height="40.81" fill="#231f20"/>
  <rect x="518.9" y="261.38" width="40.81" height="40.81" fill="#231f20"/>
  <rect x="562.04" y="261.38" width="40.81" height="40.81" fill="#231f20"/>
  <rect x="604.72" y="261.38" width="40.81" height="40.81" fill="#231f20"/>
  <rect x="648.39" y="261.38" width="40.81" height="40.81" fill="#231f20"/>
  <rect x="691.5" y="261.38" width="40.81" height="40.81" fill="#231f20"/>
  <rect x="735.04" y="261.38" width="40.81" height="40.81" fill="#231f20"/>
  <rect x="778.65" y="261.38" width="40.81" height="40.81" fill="#231f20"/>
  <rect x="821.79" y="261.38" width="40.81" height="40.81" fill="#231f20"/>
  <rect x="864.98" y="261.38" width="40.81" height="40.81" fill="#231f20"/>
  <rect x="432.12" y="218.46" width="40.81" height="40.81" fill="#231f20"/>
  <rect x="388.99" y="218.46" width="40.81" height="40.81" fill="#231f20"/>
  <rect x="346.48" y="218.46" width="40.81" height="40.81" fill="#231f20"/>
  <rect x="303.34" y="218.46" width="40.81" height="40.81" fill="#231f20"/>
  <rect x="260.16" y="218.46" width="40.81" height="40.81" fill="#231f20"/>
  <rect x="216.99" y="218.46" width="40.81" height="40.81" fill="#231f20"/>
  <rect x="475.79" y="218.46" width="40.81" height="40.81" fill="#231f20"/>
  <rect x="518.9" y="218.46" width="40.81" height="40.81" fill="#231f20"/>
  <rect x="562.04" y="218.46" width="40.81" height="40.81" fill="#231f20"/>
  <rect x="432.47" y="175.15" width="40.81" height="40.81" fill="#231f20"/>
  <rect x="389.33" y="175.15" width="40.81" height="40.81" fill="#231f20"/>
  <rect x="346.82" y="175.15" width="40.81" height="40.81" fill="#231f20"/>
  <rect x="303.68" y="175.15" width="40.81" height="40.81" fill="#231f20"/>
  <rect x="260.51" y="175.15" width="40.81" height="40.81" fill="#231f20"/>
  <rect x="389.38" y="131.33" width="40.81" height="40.81" fill="#231f20"/>
  <rect x="346.87" y="131.33" width="40.81" height="40.81" fill="#231f20"/>
  <rect x="303.73" y="131.33" width="40.81" height="40.81" fill="#231f20"/>
  <rect x="260.56" y="131.33" width="40.81" height="40.81" fill="#231f20"/>
  <rect x="388.99" y="89.06" width="40.81" height="40.81" fill="#231f20"/>
  <rect x="432.12" y="89.06" width="40.81" height="40.81" fill="#231f20"/>
  <rect x="346.48" y="89.06" width="40.81" height="40.81" fill="#231f20"/>
  <rect x="303.34" y="89.06" width="40.81" height="40.81" fill="#231f20"/>
  <rect x="388.99" y="45" width="40.81" height="40.81" fill="#231f20"/>
  <rect x="432.12" y="45" width="40.81" height="40.81" fill="#231f20"/>
  <rect x="346.48" y="45" width="40.81" height="40.81" fill="#231f20"/>
  <rect x="303.34" y="45" width="40.81" height="40.81" fill="#231f20"/>
  <rect x="260.16" y="89.06" width="40.81" height="40.81" fill="#231f20"/>
  <rect x="217.33" y="175.15" width="40.81" height="40.81" fill="#231f20"/>
  <rect x="476.13" y="175.15" width="40.81" height="40.81" fill="#231f20"/>
  <rect x="519.24" y="175.15" width="40.81" height="40.81" fill="#231f20"/>
  <rect x="562.38" y="175.15" width="40.81" height="40.81" fill="#231f20"/>
  <rect x="604.72" y="218.46" width="40.81" height="40.81" fill="#231f20"/>
  <rect x="648.39" y="218.46" width="40.81" height="40.81" fill="#231f20"/>
  <rect x="691.5" y="218.46" width="40.81" height="40.81" fill="#231f20"/>
  <rect x="735.04" y="218.46" width="40.81" height="40.81" fill="#231f20"/>
  <rect x="778.65" y="218.46" width="40.81" height="40.81" fill="#231f20"/>
  <rect x="821.79" y="218.46" width="40.81" height="40.81" fill="#231f20"/>
  <rect x="864.98" y="218.46" width="40.81" height="40.81" fill="#231f20"/>
  <rect x="605.07" y="175.15" width="40.81" height="40.81" fill="#231f20"/>
  <rect x="648.73" y="175.15" width="40.81" height="40.81" fill="#231f20"/>
  <rect x="691.84" y="175.15" width="40.81" height="40.81" fill="#231f20"/>
  <rect x="735.38" y="175.15" width="40.81" height="40.81" fill="#231f20"/>
  <rect x="778.99" y="175.15" width="40.81" height="40.81" fill="#231f20"/>
  <rect x="822.13" y="175.15" width="40.81" height="40.81" fill="#231f20"/>
  <rect x="605.23" y="131.33" width="40.81" height="40.81" fill="#231f20"/>
  <rect x="648.89" y="131.33" width="40.81" height="40.81" fill="#231f20"/>
  <rect x="692" y="131.33" width="40.81" height="40.81" fill="#231f20"/>
  <rect x="735.44" y="131.33" width="40.81" height="40.81" fill="#231f20"/>
  <rect x="779.04" y="131.33" width="40.81" height="40.81" fill="#231f20"/>
  <rect x="822.18" y="131.33" width="40.81" height="40.81" fill="#231f20"/>
  <rect x="647.62" y="89.06" width="40.81" height="40.81" fill="#231f20"/>
  <rect x="690.73" y="89.06" width="40.81" height="40.81" fill="#231f20"/>
  <rect x="735.04" y="89.06" width="40.81" height="40.81" fill="#231f20"/>
  <rect x="778.65" y="89.06" width="40.81" height="40.81" fill="#231f20"/>
  <rect x="821.79" y="89.06" width="40.81" height="40.81" fill="#231f20"/>
  <rect x="821.79" y="45" width="40.81" height="40.81" fill="#231f20"/>
  <rect x="865.32" y="175.15" width="40.81" height="40.81" fill="#231f20"/>
  <rect x="778.65" y="476.54" width="40.81" height="40.81" fill="#231f20"/>
  <rect x="821.79" y="476.54" width="40.81" height="40.81" fill="#231f20"/>
  <rect x="389.4" y="519.57" width="40.81" height="40.81" fill="#231f20"/>
  <rect x="389.4" y="995.01" width="40.81" height="40.81" fill="#231f20"/>
  <rect x="346.05" y="1037.97" width="40.81" height="40.81" fill="#231f20"/>
  <rect x="389.4" y="1037.97" width="40.81" height="40.81" fill="#231f20"/>
  <rect x="230.74" y="1051.68" width="13.38" height="13.38" fill="#231f20"/>
  <rect x="274.1" y="1051.68" width="13.38" height="13.38" fill="#231f20"/>
  <rect x="314.95" y="1051.68" width="13.38" height="13.38" fill="#231f20"/>
  <rect x="445.84" y="1051.68" width="13.38" height="13.38" fill="#231f20"/>
  <rect x="445.84" y="1008.73" width="13.38" height="13.38" fill="#231f20"/>
  <rect x="489.5" y="1051.68" width="13.38" height="13.38" fill="#231f20"/>
  <rect x="489.5" y="1008.73" width="13.38" height="13.38" fill="#231f20"/>
  <rect x="532.86" y="1051.68" width="13.38" height="13.38" fill="#231f20"/>
  <rect x="532.86" y="1008.73" width="13.38" height="13.38" fill="#231f20"/>
  <rect x="489.5" y="965.29" width="13.38" height="13.38" fill="#231f20"/>
  <rect x="532.86" y="965.29" width="13.38" height="13.38" fill="#231f20"/>
  <rect x="532.86" y="922.15" width="13.38" height="13.38" fill="#231f20"/>
  <rect x="576.12" y="879.11" width="13.38" height="13.38" fill="#231f20"/>
  <rect x="576.12" y="836.19" width="13.38" height="13.38" fill="#231f20"/>
  <rect x="576.12" y="792.82" width="13.38" height="13.38" fill="#231f20"/>
  <rect x="533.16" y="792.82" width="13.38" height="13.38" fill="#231f20"/>
  <rect x="533.16" y="749.85" width="13.38" height="13.38" fill="#231f20"/>
  <rect x="576.12" y="749.85" width="13.38" height="13.38" fill="#231f20"/>
  <rect x="620.46" y="879.11" width="13.38" height="13.38" fill="#231f20"/>
  <rect x="620.46" y="836.19" width="13.38" height="13.38" fill="#231f20"/>
  <rect x="620.46" y="792.82" width="13.38" height="13.38" fill="#231f20"/>
  <rect x="662.29" y="879.11" width="13.38" height="13.38" fill="#231f20"/>
  <rect x="576.12" y="922.15" width="13.38" height="13.38" fill="#231f20"/>
  <rect x="620.46" y="922.15" width="13.38" height="13.38" fill="#231f20"/>
  <rect x="662.29" y="922.15" width="13.38" height="13.38" fill="#231f20"/>
  <rect x="662.29" y="836.19" width="13.38" height="13.38" fill="#231f20"/>
  <rect x="662.29" y="792.82" width="13.38" height="13.38" fill="#231f20"/>
  <rect x="620.46" y="749.85" width="13.38" height="13.38" fill="#231f20"/>
  <rect x="576.12" y="706.8" width="13.38" height="13.38" fill="#231f20"/>
  <rect x="620.46" y="706.8" width="13.38" height="13.38" fill="#231f20"/>
  <rect x="620.46" y="663.65" width="13.38" height="13.38" fill="#231f20"/>
  <rect x="662.29" y="749.85" width="13.38" height="13.38" fill="#231f20"/>
  <rect x="705.21" y="836.19" width="13.38" height="13.38" fill="#231f20"/>
  <rect x="705.21" y="792.82" width="13.38" height="13.38" fill="#231f20"/>
  <rect x="705.21" y="749.85" width="13.38" height="13.38" fill="#231f20"/>
  <rect x="749.43" y="836.19" width="13.38" height="13.38" fill="#231f20"/>
  <rect x="749.43" y="792.82" width="13.38" height="13.38" fill="#231f20"/>
  <rect x="792.48" y="836.19" width="13.38" height="13.38" fill="#231f20"/>
  <rect x="705.21" y="879.11" width="13.38" height="13.38" fill="#231f20"/>
  <rect x="749.43" y="879.11" width="13.38" height="13.38" fill="#231f20"/>
  <rect x="792.48" y="879.11" width="13.38" height="13.38" fill="#231f20"/>
  <rect x="791.9" y="965.29" width="13.38" height="13.38" fill="#231f20"/>
  <rect x="836.11" y="965.29" width="13.38" height="13.38" fill="#231f20"/>
  <rect x="879.17" y="965.29" width="13.38" height="13.38" fill="#231f20"/>
  <rect x="791.9" y="1008.73" width="13.38" height="13.38" fill="#231f20"/>
  <rect x="836.11" y="1008.73" width="13.38" height="13.38" fill="#231f20"/>
  <rect x="879.17" y="1008.73" width="13.38" height="13.38" fill="#231f20"/>
  <rect x="660.96" y="1008.73" width="13.38" height="13.38" fill="#231f20"/>
  <rect x="660.96" y="965.29" width="13.38" height="13.38" fill="#231f20"/>
  <rect x="705.18" y="1008.73" width="13.38" height="13.38" fill="#231f20"/>
  <rect x="748.23" y="1008.73" width="13.38" height="13.38" fill="#231f20"/>
  <rect x="791.9" y="1051.68" width="13.38" height="13.38" fill="#231f20"/>
  <rect x="836.11" y="1051.68" width="13.38" height="13.38" fill="#231f20"/>
  <rect x="879.17" y="1051.68" width="13.38" height="13.38" fill="#231f20"/>
  <rect x="920.37" y="1008.73" width="13.38" height="13.38" fill="#231f20"/>
  <rect x="920.37" y="1051.68" width="13.38" height="13.38" fill="#231f20"/>
  <rect x="660.96" y="1051.68" width="13.38" height="13.38" fill="#231f20"/>
  <rect x="620.46" y="1008.73" width="13.38" height="13.38" fill="#231f20"/>
  <rect x="620.46" y="1051.68" width="13.38" height="13.38" fill="#231f20"/>
  <rect x="705.18" y="1051.68" width="13.38" height="13.38" fill="#231f20"/>
  <rect x="748.23" y="1051.68" width="13.38" height="13.38" fill="#231f20"/>
  <rect x="791.9" y="922.15" width="13.38" height="13.38" fill="#231f20"/>
  <rect x="836.11" y="922.15" width="13.38" height="13.38" fill="#231f20"/>
  <rect x="879.17" y="922.15" width="13.38" height="13.38" fill="#231f20"/>
  <rect x="920.37" y="965.29" width="13.38" height="13.38" fill="#231f20"/>
  <rect x="920.37" y="922.15" width="13.38" height="13.38" fill="#231f20"/>
  <rect x="792.48" y="792.82" width="13.38" height="13.38" fill="#231f20"/>
  <rect x="835.53" y="836.19" width="13.38" height="13.38" fill="#231f20"/>
  <rect x="835.53" y="792.82" width="13.38" height="13.38" fill="#231f20"/>
  <rect x="749.43" y="749.85" width="13.38" height="13.38" fill="#231f20"/>
  <rect x="662.29" y="706.8" width="13.38" height="13.38" fill="#231f20"/>
  <rect x="662.29" y="663.65" width="13.38" height="13.38" fill="#231f20"/>
  <rect x="662.29" y="620.46" width="13.38" height="13.38" fill="#231f20"/>
  <rect x="662.29" y="576.88" width="13.38" height="13.38" fill="#231f20"/>
  <rect x="620.46" y="620.46" width="13.38" height="13.38" fill="#231f20"/>
  <rect x="620.46" y="576.88" width="13.38" height="13.38" fill="#231f20"/>
  <rect x="620.46" y="533.28" width="13.38" height="13.38" fill="#231f20"/>
  <rect x="620.46" y="490.04" width="13.38" height="13.38" fill="#231f20"/>
  <rect x="662.1" y="490.04" width="13.38" height="13.38" fill="#231f20"/>
  <rect x="662.1" y="533.28" width="13.38" height="13.38" fill="#231f20"/>
  <rect x="705.21" y="490.04" width="13.38" height="13.38" fill="#231f20"/>
  <rect x="748.75" y="489.61" width="13.38" height="13.38" fill="#231f20"/>
  <rect x="748.75" y="533.28" width="13.38" height="13.38" fill="#231f20"/>
  <rect x="792.36" y="533.28" width="13.38" height="13.38" fill="#231f20"/>
  <rect x="835.5" y="533.28" width="13.38" height="13.38" fill="#231f20"/>
  <rect x="878.69" y="533.28" width="13.38" height="13.38" fill="#231f20"/>
  <rect x="878.69" y="490.04" width="13.38" height="13.38" fill="#231f20"/>
  <rect x="878.69" y="448.59" width="13.38" height="13.38" fill="#231f20"/>
  <rect x="878.69" y="404.38" width="13.38" height="13.38" fill="#231f20"/>
  <rect x="921.79" y="448.59" width="13.38" height="13.38" fill="#231f20"/>
  <rect x="921.79" y="404.38" width="13.38" height="13.38" fill="#231f20"/>
  <rect x="965.5" y="404.38" width="13.38" height="13.38" fill="#231f20"/>
  <rect x="1009.21" y="404.38" width="13.38" height="13.38" fill="#231f20"/>
  <rect x="1051.58" y="361.55" width="13.38" height="13.38" fill="#231f20"/>
  <rect x="878.69" y="361.55" width="13.38" height="13.38" fill="#231f20"/>
  <rect x="878.69" y="318.72" width="13.38" height="13.38" fill="#231f20"/>
  <rect x="921.79" y="275.92" width="13.38" height="13.38" fill="#231f20"/>
  <rect x="921.79" y="230.36" width="13.38" height="13.38" fill="#231f20"/>
  <rect x="922.39" y="188.92" width="13.38" height="13.38" fill="#231f20"/>
  <rect x="965.5" y="230.27" width="13.38" height="13.38" fill="#231f20"/>
  <rect x="966.1" y="188.82" width="13.38" height="13.38" fill="#231f20"/>
  <rect x="1009.21" y="230.27" width="13.38" height="13.38" fill="#231f20"/>
  <rect x="1009.21" y="189.27" width="13.38" height="13.38" fill="#231f20"/>
  <rect x="1051.58" y="273.1" width="13.38" height="13.38" fill="#231f20"/>
  <rect x="1051.58" y="232.1" width="13.38" height="13.38" fill="#231f20"/>
  <rect x="879.09" y="145.04" width="13.38" height="13.38" fill="#231f20"/>
  <rect x="878.69" y="58.71" width="13.38" height="13.38" fill="#231f20"/>
  <rect x="878.69" y="15.38" width="13.38" height="13.38" fill="#231f20"/>
  <rect x="921.79" y="15.38" width="13.38" height="13.38" fill="#231f20"/>
  <rect x="835.5" y="15.38" width="13.38" height="13.38" fill="#231f20"/>
  <rect x="792.36" y="58.71" width="13.38" height="13.38" fill="#231f20"/>
  <rect x="748.75" y="58.71" width="13.38" height="13.38" fill="#231f20"/>
  <rect x="705.32" y="58.71" width="13.38" height="13.38" fill="#231f20"/>
  <rect x="661.33" y="58.71" width="13.38" height="13.38" fill="#231f20"/>
  <rect x="619.41" y="102.77" width="13.38" height="13.38" fill="#231f20"/>
  <rect x="575.56" y="145.04" width="13.38" height="13.38" fill="#231f20"/>
  <rect x="533.25" y="145.04" width="13.38" height="13.38" fill="#231f20"/>
  <rect x="489.9" y="145.04" width="13.38" height="13.38" fill="#231f20"/>
  <rect x="446.23" y="145.04" width="13.38" height="13.38" fill="#231f20"/>
  <rect x="489.5" y="102.77" width="13.38" height="13.38" fill="#231f20"/>
  <rect x="489.5" y="58.71" width="13.38" height="13.38" fill="#231f20"/>
  <rect x="489.5" y="15.38" width="13.38" height="13.38" fill="#231f20"/>
  <rect x="445.84" y="15.38" width="13.38" height="13.38" fill="#231f20"/>
  <rect x="402.7" y="15.38" width="13.38" height="13.38" fill="#231f20"/>
  <rect x="360.19" y="15.38" width="13.38" height="13.38" fill="#231f20"/>
  <rect x="317.05" y="15.38" width="13.38" height="13.38" fill="#231f20"/>
  <rect x="273.88" y="58.71" width="13.38" height="13.38" fill="#231f20"/>
  <rect x="231.1" y="145.04" width="13.38" height="13.38" fill="#231f20"/>
  <rect x="188.27" y="188.92" width="13.38" height="13.38" fill="#231f20"/>
  <rect x="187.67" y="232.2" width="13.38" height="13.38" fill="#231f20"/>
  <rect x="187.67" y="274.11" width="13.38" height="13.38" fill="#231f20"/>
  <rect x="14.94" y="146.54" width="13.38" height="13.38" fill="#231f20"/>
  <rect x="56.92" y="146.54" width="13.38" height="13.38" fill="#231f20"/>
  <rect x="56.92" y="102.77" width="13.38" height="13.38" fill="#231f20"/>
  <rect x="101.59" y="102.77" width="13.38" height="13.38" fill="#231f20"/>
  <rect x="101.59" y="58.71" width="13.38" height="13.38" fill="#231f20"/>
  <rect x="14.94" y="189.37" width="13.38" height="13.38" fill="#231f20"/>
  <rect x="56.92" y="189.37" width="13.38" height="13.38" fill="#231f20"/>
  <rect x="14.94" y="231.29" width="13.38" height="13.38" fill="#231f20"/>
  <rect x="187.67" y="706.8" width="13.38" height="13.38" fill="#231f20"/>
  <rect x="187.67" y="749.85" width="13.38" height="13.38" fill="#231f20"/>
  <rect x="187.67" y="792.82" width="13.38" height="13.38" fill="#231f20"/>
  <rect x="187.67" y="836.19" width="13.38" height="13.38" fill="#231f20"/>
  <rect x="100.6" y="792.82" width="13.38" height="13.38" fill="#231f20"/>
  <rect x="100.6" y="836.19" width="13.38" height="13.38" fill="#231f20"/>
  <rect x="187.67" y="879.11" width="13.38" height="13.38" fill="#231f20"/>
  <rect x="144.04" y="922.15" width="13.38" height="13.38" fill="#231f20"/>
  <rect x="144.04" y="965.29" width="13.38" height="13.38" fill="#231f20"/>
  <rect x="188.02" y="1008.73" width="13.38" height="13.38" fill="#231f20"/>
  <rect x="230.7" y="317.47" width="13.38" height="13.38" fill="#231f20"/>
  <rect x="230.7" y="360.28" width="13.38" height="13.38" fill="#231f20"/>
  <rect x="273.88" y="360.28" width="13.38" height="13.38" fill="#231f20"/>
  <rect x="317.05" y="404.38" width="13.38" height="13.38" fill="#231f20"/>
  <rect x="360.19" y="404.38" width="13.38" height="13.38" fill="#231f20"/>
  <rect x="402.7" y="447.65" width="13.38" height="13.38" fill="#231f20"/>
  <rect x="402.7" y="490.93" width="13.38" height="13.38" fill="#231f20"/>
  <rect x="360.19" y="533.28" width="13.38" height="13.38" fill="#231f20"/>
  <rect x="360.19" y="576.88" width="13.38" height="13.38" fill="#231f20"/>
  <rect x="317.05" y="576.88" width="13.38" height="13.38" fill="#231f20"/>
  <rect x="274.11" y="576.88" width="13.38" height="13.38" fill="#231f20"/>
  <rect x="274.11" y="620.46" width="13.38" height="13.38" fill="#231f20"/>
  <rect x="230.74" y="620.46" width="13.38" height="13.38" fill="#231f20"/>
  <rect x="230.74" y="663.65" width="13.38" height="13.38" fill="#231f20"/>
  <rect x="231.99" y="533.28" width="13.38" height="13.38" fill="#231f20"/>
  <rect x="231.99" y="576.88" width="13.38" height="13.38" fill="#231f20"/>
  <rect x="187.67" y="576.88" width="13.38" height="13.38" fill="#231f20"/>
</svg>