<?xml version="1.0" encoding="UTF-8"?>
<svg id="_6" data-name="6" xmlns="http://www.w3.org/2000/svg" viewBox="0 0 1080 1080">
  <rect x="127.04" y="44.86" width="40.84" height="40.84" fill="#231f20"/>
  <rect x="84.19" y="44.86" width="40.84" height="40.84" fill="#231f20"/>
  <rect x="127.04" y="88.48" width="40.84" height="40.84" fill="#231f20"/>
  <rect x="84.19" y="88.48" width="40.84" height="40.84" fill="#231f20"/>
  <rect x="170.78" y="44.86" width="40.84" height="40.84" fill="#231f20"/>
  <rect x="170.78" y="88.48" width="40.84" height="40.84" fill="#231f20"/>
  <rect x="214.53" y="44.86" width="40.84" height="40.84" fill="#231f20"/>
  <rect x="214.53" y="88.48" width="40.84" height="40.84" fill="#231f20"/>
  <rect x="256.84" y="44.86" width="40.84" height="40.84" fill="#231f20"/>
  <rect x="256.84" y="88.48" width="40.84" height="40.84" fill="#231f20"/>
  <rect x="170.78" y="131.64" width="40.84" height="40.84" fill="#231f20"/>
  <rect x="214.53" y="131.64" width="40.84" height="40.84" fill="#231f20"/>
  <rect x="256.84" y="131.64" width="40.84" height="40.84" fill="#231f20"/>
  <rect x="170.78" y="175.35" width="40.84" height="40.84" fill="#231f20"/>
  <rect x="41.34" y="217.89" width="40.84" height="40.84" fill="#231f20"/>
  <rect x="214.53" y="175.35" width="40.84" height="40.84" fill="#231f20"/>
  <rect x="256.84" y="175.35" width="40.84" height="40.84" fill="#231f20"/>
  <rect x="300.47" y="175.35" width="40.84" height="40.84" fill="#231f20"/>
  <rect x="473.22" y="44.86" width="40.84" height="40.84" fill="#231f20"/>
  <rect x="430.25" y="44.86" width="40.84" height="40.84" fill="#231f20"/>
  <rect x="473.22" y="88.48" width="40.84" height="40.84" fill="#231f20"/>
  <rect x="343.87" y="88.48" width="40.84" height="40.84" fill="#231f20"/>
  <rect x="473.22" y="131.64" width="40.84" height="40.84" fill="#231f20"/>
  <rect x="343.87" y="131.64" width="40.84" height="40.84" fill="#231f20"/>
  <rect x="473.22" y="175.35" width="40.84" height="40.84" fill="#231f20"/>
  <rect x="516.43" y="44.86" width="40.84" height="40.84" fill="#231f20"/>
  <rect x="473.22" y="1.64" width="40.84" height="40.84" fill="#231f20"/>
  <rect x="516.43" y="1.64" width="40.84" height="40.84" fill="#231f20"/>
  <rect x="516.43" y="88.48" width="40.84" height="40.84" fill="#231f20"/>
  <rect x="516.43" y="131.64" width="40.84" height="40.84" fill="#231f20"/>
  <rect x="516.43" y="175.35" width="40.84" height="40.84" fill="#231f20"/>
  <rect x="559.64" y="44.86" width="40.84" height="40.84" fill="#231f20"/>
  <rect x="559.64" y="1.64" width="40.84" height="40.84" fill="#231f20"/>
  <rect x="559.64" y="88.48" width="40.84" height="40.84" fill="#231f20"/>
  <rect x="559.64" y="131.64" width="40.84" height="40.84" fill="#231f20"/>
  <rect x="602.84" y="44.86" width="40.84" height="40.84" fill="#231f20"/>
  <rect x="602.84" y="1.64" width="40.84" height="40.84" fill="#231f20"/>
  <rect x="602.84" y="88.48" width="40.84" height="40.84" fill="#231f20"/>
  <rect x="602.84" y="131.64" width="40.84" height="40.84" fill="#231f20"/>
  <rect x="646.05" y="44.86" width="40.84" height="40.84" fill="#231f20"/>
  <rect x="646.05" y="1.64" width="40.84" height="40.84" fill="#231f20"/>
  <rect x="646.05" y="88.48" width="40.84" height="40.84" fill="#231f20"/>
  <rect x="646.05" y="131.64" width="40.84" height="40.84" fill="#231f20"/>
  <rect x="689.26" y="44.86" width="40.84" height="40.84" fill="#231f20"/>
  <rect x="689.26" y="1.64" width="40.84" height="40.84" fill="#231f20"/>
  <rect x="689.26" y="88.48" width="40.84" height="40.84" fill="#231f20"/>
  <rect x="689.26" y="131.64" width="40.84" height="40.84" fill="#231f20"/>
  <rect x="732.47" y="44.86" width="40.84" height="40.84" fill="#231f20"/>
  <rect x="732.47" y="1.64" width="40.84" height="40.84" fill="#231f20"/>
  <rect x="732.47" y="88.48" width="40.84" height="40.84" fill="#231f20"/>
  <rect x="732.47" y="131.64" width="40.84" height="40.84" fill="#231f20"/>
  <rect x="775.68" y="44.86" width="40.84" height="40.84" fill="#231f20"/>
  <rect x="775.68" y="1.64" width="40.84" height="40.84" fill="#231f20"/>
  <rect x="775.68" y="88.48" width="40.84" height="40.84" fill="#231f20"/>
  <rect x="818.89" y="44.86" width="40.84" height="40.84" fill="#231f20"/>
  <rect x="818.89" y="1.64" width="40.84" height="40.84" fill="#231f20"/>
  <rect x="818.89" y="88.48" width="40.84" height="40.84" fill="#231f20"/>
  <rect x="818.89" y="131.64" width="40.84" height="40.84" fill="#231f20"/>
  <rect x="775.68" y="131.64" width="40.84" height="40.84" fill="#231f20"/>
  <rect x="862.02" y="131.64" width="40.84" height="40.84" fill="#231f20"/>
  <rect x="862.02" y="175.35" width="40.84" height="40.84" fill="#231f20"/>
  <rect x="905.22" y="131.64" width="40.84" height="40.84" fill="#231f20"/>
  <rect x="948.43" y="131.64" width="40.84" height="40.84" fill="#231f20"/>
  <rect x="862.09" y="217.89" width="40.84" height="40.84" fill="#231f20"/>
  <rect x="948.51" y="217.89" width="40.84" height="40.84" fill="#231f20"/>
  <rect x="905.3" y="217.89" width="40.84" height="40.84" fill="#231f20"/>
  <rect x="559.64" y="175.35" width="40.84" height="40.84" fill="#231f20"/>
  <rect x="559.64" y="217.89" width="40.84" height="40.84" fill="#231f20"/>
  <rect x="473.22" y="217.89" width="40.84" height="40.84" fill="#231f20"/>
  <rect x="516.43" y="217.89" width="40.84" height="40.84" fill="#231f20"/>
  <rect x="559.64" y="261.22" width="40.84" height="40.84" fill="#231f20"/>
  <rect x="473.22" y="261.22" width="40.84" height="40.84" fill="#231f20"/>
  <rect x="516.43" y="261.22" width="40.84" height="40.84" fill="#231f20"/>
  <rect x="559.64" y="303.65" width="40.84" height="40.84" fill="#231f20"/>
  <rect x="473.22" y="303.65" width="40.84" height="40.84" fill="#231f20"/>
  <rect x="516.43" y="303.65" width="40.84" height="40.84" fill="#231f20"/>
  <rect x="559.64" y="347.74" width="40.84" height="40.84" fill="#231f20"/>
  <rect x="602.84" y="217.89" width="40.84" height="40.84" fill="#231f20"/>
  <rect x="602.84" y="175.35" width="40.84" height="40.84" fill="#231f20"/>
  <rect x="602.84" y="261.22" width="40.84" height="40.84" fill="#231f20"/>
  <rect x="602.84" y="303.65" width="40.84" height="40.84" fill="#231f20"/>
  <rect x="602.84" y="347.74" width="40.84" height="40.84" fill="#231f20"/>
  <rect x="473.22" y="347.74" width="40.84" height="40.84" fill="#231f20"/>
  <rect x="516.43" y="347.74" width="40.84" height="40.84" fill="#231f20"/>
  <rect x="559.64" y="391.25" width="40.84" height="40.84" fill="#231f20"/>
  <rect x="473.22" y="391.25" width="40.84" height="40.84" fill="#231f20"/>
  <rect x="516.43" y="391.25" width="40.84" height="40.84" fill="#231f20"/>
  <rect x="559.64" y="434" width="40.84" height="40.84" fill="#231f20"/>
  <rect x="473.22" y="434" width="40.84" height="40.84" fill="#231f20"/>
  <rect x="516.43" y="434" width="40.84" height="40.84" fill="#231f20"/>
  <rect x="559.64" y="477.11" width="40.84" height="40.84" fill="#231f20"/>
  <rect x="473.22" y="477.11" width="40.84" height="40.84" fill="#231f20"/>
  <rect x="516.43" y="477.11" width="40.84" height="40.84" fill="#231f20"/>
  <rect x="559.64" y="520.4" width="40.84" height="40.84" fill="#231f20"/>
  <rect x="473.22" y="520.4" width="40.84" height="40.84" fill="#231f20"/>
  <rect x="516.43" y="520.4" width="40.84" height="40.84" fill="#231f20"/>
  <rect x="559.64" y="563.38" width="40.84" height="40.84" fill="#231f20"/>
  <rect x="473.22" y="563.38" width="40.84" height="40.84" fill="#231f20"/>
  <rect x="516.43" y="563.38" width="40.84" height="40.84" fill="#231f20"/>
  <rect x="559.64" y="606.99" width="40.84" height="40.84" fill="#231f20"/>
  <rect x="602.84" y="391.25" width="40.84" height="40.84" fill="#231f20"/>
  <rect x="602.84" y="434" width="40.84" height="40.84" fill="#231f20"/>
  <rect x="602.84" y="477.11" width="40.84" height="40.84" fill="#231f20"/>
  <rect x="602.84" y="520.4" width="40.84" height="40.84" fill="#231f20"/>
  <rect x="646.05" y="520.4" width="40.84" height="40.84" fill="#231f20"/>
  <rect x="602.84" y="563.38" width="40.84" height="40.84" fill="#231f20"/>
  <rect x="646.05" y="563.38" width="40.84" height="40.84" fill="#231f20"/>
  <rect x="602.84" y="606.99" width="40.84" height="40.84" fill="#231f20"/>
  <rect x="646.05" y="606.99" width="40.84" height="40.84" fill="#231f20"/>
  <rect x="473.22" y="606.99" width="40.84" height="40.84" fill="#231f20"/>
  <rect x="516.43" y="606.99" width="40.84" height="40.84" fill="#231f20"/>
  <rect x="602.84" y="692.8" width="40.84" height="40.84" fill="#231f20"/>
  <rect x="516.43" y="692.8" width="40.84" height="40.84" fill="#231f20"/>
  <rect x="559.64" y="692.8" width="40.84" height="40.84" fill="#231f20"/>
  <rect x="602.84" y="650.23" width="40.84" height="40.84" fill="#231f20"/>
  <rect x="516.43" y="650.23" width="40.84" height="40.84" fill="#231f20"/>
  <rect x="559.64" y="650.23" width="40.84" height="40.84" fill="#231f20"/>
  <rect x="559.64" y="735.84" width="40.84" height="40.84" fill="#231f20"/>
  <rect x="516.43" y="735.84" width="40.84" height="40.84" fill="#231f20"/>
  <rect x="559.64" y="779.81" width="40.84" height="40.84" fill="#231f20"/>
  <rect x="516.43" y="779.81" width="40.84" height="40.84" fill="#231f20"/>
  <rect x="559.64" y="822.9" width="40.84" height="40.84" fill="#231f20"/>
  <rect x="602.84" y="735.84" width="40.84" height="40.84" fill="#231f20"/>
  <rect x="602.84" y="779.81" width="40.84" height="40.84" fill="#231f20"/>
  <rect x="646.05" y="692.8" width="40.84" height="40.84" fill="#231f20"/>
  <rect x="646.05" y="650.23" width="40.84" height="40.84" fill="#231f20"/>
  <rect x="646.05" y="735.84" width="40.84" height="40.84" fill="#231f20"/>
  <rect x="646.05" y="779.81" width="40.84" height="40.84" fill="#231f20"/>
  <rect x="602.84" y="822.9" width="40.84" height="40.84" fill="#231f20"/>
  <rect x="516.43" y="822.9" width="40.84" height="40.84" fill="#231f20"/>
  <rect x="602.84" y="909.46" width="40.84" height="40.84" fill="#231f20"/>
  <rect x="516.43" y="909.46" width="40.84" height="40.84" fill="#231f20"/>
  <rect x="559.64" y="909.46" width="40.84" height="40.84" fill="#231f20"/>
  <rect x="602.84" y="865.71" width="40.84" height="40.84" fill="#231f20"/>
  <rect x="516.43" y="865.71" width="40.84" height="40.84" fill="#231f20"/>
  <rect x="473.22" y="692.8" width="40.84" height="40.84" fill="#231f20"/>
  <rect x="473.22" y="650.23" width="40.84" height="40.84" fill="#231f20"/>
  <rect x="473.22" y="735.84" width="40.84" height="40.84" fill="#231f20"/>
  <rect x="473.22" y="779.81" width="40.84" height="40.84" fill="#231f20"/>
  <rect x="473.22" y="822.9" width="40.84" height="40.84" fill="#231f20"/>
  <rect x="473.22" y="865.71" width="40.84" height="40.84" fill="#231f20"/>
  <rect x="559.64" y="865.71" width="40.84" height="40.84" fill="#231f20"/>
  <rect x="559.64" y="952.22" width="40.84" height="40.84" fill="#231f20"/>
  <rect x="602.84" y="952.22" width="40.84" height="40.84" fill="#231f20"/>
  <rect x="516.43" y="952.22" width="40.84" height="40.84" fill="#231f20"/>
  <rect x="602.84" y="1039.16" width="40.84" height="40.84" fill="#231f20"/>
  <rect x="516.43" y="1039.16" width="40.84" height="40.84" fill="#231f20"/>
  <rect x="559.64" y="1039.16" width="40.84" height="40.84" fill="#231f20"/>
  <rect x="602.84" y="995.08" width="40.84" height="40.84" fill="#231f20"/>
  <rect x="646.05" y="822.9" width="40.84" height="40.84" fill="#231f20"/>
  <rect x="646.05" y="909.46" width="40.84" height="40.84" fill="#231f20"/>
  <rect x="646.05" y="865.71" width="40.84" height="40.84" fill="#231f20"/>
  <rect x="646.05" y="952.22" width="40.84" height="40.84" fill="#231f20"/>
  <rect x="646.05" y="1039.16" width="40.84" height="40.84" fill="#231f20"/>
  <rect x="646.05" y="995.08" width="40.84" height="40.84" fill="#231f20"/>
  <rect x="516.43" y="995.08" width="40.84" height="40.84" fill="#231f20"/>
  <rect x="473.22" y="909.46" width="40.84" height="40.84" fill="#231f20"/>
  <rect x="473.22" y="952.22" width="40.84" height="40.84" fill="#231f20"/>
  <rect x="473.22" y="995.08" width="40.84" height="40.84" fill="#231f20"/>
  <rect x="559.64" y="995.08" width="40.84" height="40.84" fill="#231f20"/>
  <rect x="905.3" y="477.11" width="40.84" height="40.84" fill="#231f20"/>
  <rect x="905.3" y="606.99" width="40.84" height="40.84" fill="#231f20"/>
  <rect x="905.22" y="735.84" width="40.84" height="40.84" fill="#231f20"/>
  <rect x="905.3" y="520.4" width="40.84" height="40.84" fill="#231f20"/>
  <rect x="862.44" y="520.4" width="40.84" height="40.84" fill="#231f20"/>
  <rect x="905.3" y="391.25" width="40.84" height="40.84" fill="#231f20"/>
  <rect x="905.3" y="434" width="40.84" height="40.84" fill="#231f20"/>
  <rect x="862.02" y="477.11" width="40.84" height="40.84" fill="#231f20"/>
  <rect x="862.02" y="391.25" width="40.84" height="40.84" fill="#231f20"/>
  <rect x="862.02" y="434" width="40.84" height="40.84" fill="#231f20"/>
  <rect x="862.09" y="303.65" width="40.84" height="40.84" fill="#231f20"/>
  <rect x="862.09" y="347.74" width="40.84" height="40.84" fill="#231f20"/>
  <rect x="905.3" y="650.23" width="40.84" height="40.84" fill="#231f20"/>
  <rect x="905.22" y="779.81" width="40.84" height="40.84" fill="#231f20"/>
  <rect x="905.3" y="563.38" width="40.84" height="40.84" fill="#231f20"/>
  <rect x="905.3" y="693.22" width="40.84" height="40.84" fill="#231f20"/>
  <rect x="905.22" y="822.9" width="40.84" height="40.84" fill="#231f20"/>
  <rect x="905.65" y="952.22" width="40.84" height="40.84" fill="#231f20"/>
  <rect x="905.72" y="865.71" width="40.84" height="40.84" fill="#231f20"/>
  <rect x="905.65" y="995.53" width="40.84" height="40.84" fill="#231f20"/>
  <rect x="905.72" y="909.46" width="40.84" height="40.84" fill="#231f20"/>
  <rect x="905.65" y="1038.47" width="40.84" height="40.84" fill="#231f20"/>
  <rect x="949.18" y="822.9" width="40.84" height="40.84" fill="#231f20"/>
  <rect x="949.6" y="952.22" width="40.84" height="40.84" fill="#231f20"/>
  <rect x="949.68" y="865.71" width="40.84" height="40.84" fill="#231f20"/>
  <rect x="949.6" y="995.53" width="40.84" height="40.84" fill="#231f20"/>
  <rect x="949.68" y="909.46" width="40.84" height="40.84" fill="#231f20"/>
  <rect x="949.6" y="1038.47" width="40.84" height="40.84" fill="#231f20"/>
  <rect x="948.26" y="563.38" width="40.84" height="40.84" fill="#231f20"/>
  <rect x="948.68" y="692.23" width="40.84" height="40.84" fill="#231f20"/>
  <rect x="948.76" y="606.99" width="40.84" height="40.84" fill="#231f20"/>
  <rect x="948.68" y="735.84" width="40.84" height="40.84" fill="#231f20"/>
  <rect x="948.76" y="650.23" width="40.84" height="40.84" fill="#231f20"/>
  <rect x="948.68" y="779.81" width="40.84" height="40.84" fill="#231f20"/>
  <rect x="140.76" y="15.37" width="13.39" height="13.39" fill="#231f20"/>
  <rect x="141.11" y="145.36" width="13.39" height="13.39" fill="#231f20"/>
  <rect x="99.53" y="15.37" width="13.39" height="13.39" fill="#231f20"/>
  <rect x="98.09" y="145.36" width="13.39" height="13.39" fill="#231f20"/>
  <rect x="141.11" y="189.07" width="13.39" height="13.39" fill="#231f20"/>
  <rect x="98.09" y="189.07" width="13.39" height="13.39" fill="#231f20"/>
  <rect x="55.07" y="145.36" width="13.39" height="13.39" fill="#231f20"/>
  <rect x="55.07" y="102.21" width="13.39" height="13.39" fill="#231f20"/>
  <rect x="10.61" y="102.21" width="13.39" height="13.39" fill="#231f20"/>
  <rect x="55.07" y="58.58" width="13.39" height="13.39" fill="#231f20"/>
  <rect x="55.07" y="189.07" width="13.39" height="13.39" fill="#231f20"/>
  <rect x="141.11" y="231.61" width="13.39" height="13.39" fill="#231f20"/>
  <rect x="98.09" y="231.61" width="13.39" height="13.39" fill="#231f20"/>
  <rect x="141.11" y="274.88" width="13.39" height="13.39" fill="#231f20"/>
  <rect x="98.09" y="274.88" width="13.39" height="13.39" fill="#231f20"/>
  <rect x="55.07" y="275.96" width="13.39" height="13.39" fill="#231f20"/>
  <rect x="141.11" y="317.38" width="13.39" height="13.39" fill="#231f20"/>
  <rect x="98.09" y="317.38" width="13.39" height="13.39" fill="#231f20"/>
  <rect x="55.07" y="318.95" width="13.39" height="13.39" fill="#231f20"/>
  <rect x="141.11" y="361.47" width="13.39" height="13.39" fill="#231f20"/>
  <rect x="184.51" y="231.61" width="13.39" height="13.39" fill="#231f20"/>
  <rect x="184.51" y="274.88" width="13.39" height="13.39" fill="#231f20"/>
  <rect x="184.51" y="317.38" width="13.39" height="13.39" fill="#231f20"/>
  <rect x="184.51" y="361.47" width="13.39" height="13.39" fill="#231f20"/>
  <rect x="227.91" y="231.61" width="13.39" height="13.39" fill="#231f20"/>
  <rect x="270.13" y="231.61" width="13.39" height="13.39" fill="#231f20"/>
  <rect x="314.79" y="58.58" width="13.39" height="13.39" fill="#231f20"/>
  <rect x="358.19" y="58.58" width="13.39" height="13.39" fill="#231f20"/>
  <rect x="400.41" y="58.58" width="13.39" height="13.39" fill="#231f20"/>
  <rect x="401" y="102.21" width="13.39" height="13.39" fill="#231f20"/>
  <rect x="401" y="15.37" width="13.39" height="13.39" fill="#231f20"/>
  <rect x="403.1" y="189.07" width="13.39" height="13.39" fill="#231f20"/>
  <rect x="358.25" y="189.07" width="13.39" height="13.39" fill="#231f20"/>
  <rect x="443.97" y="189.07" width="13.39" height="13.39" fill="#231f20"/>
  <rect x="443.97" y="145.36" width="13.39" height="13.39" fill="#231f20"/>
  <rect x="443.97" y="102.21" width="13.39" height="13.39" fill="#231f20"/>
  <rect x="919.03" y="361.47" width="13.39" height="13.39" fill="#231f20"/>
  <rect x="919.03" y="317.38" width="13.39" height="13.39" fill="#231f20"/>
  <rect x="919.03" y="274.91" width="13.39" height="13.39" fill="#231f20"/>
  <rect x="876.17" y="102.21" width="13.39" height="13.39" fill="#231f20"/>
  <rect x="876.17" y="58.58" width="13.39" height="13.39" fill="#231f20"/>
  <rect x="876.17" y="15.37" width="13.39" height="13.39" fill="#231f20"/>
  <rect x="918.95" y="58.58" width="13.39" height="13.39" fill="#231f20"/>
  <rect x="918.95" y="15.37" width="13.39" height="13.39" fill="#231f20"/>
  <rect x="875.82" y="274.91" width="13.39" height="13.39" fill="#231f20"/>
  <rect x="962.23" y="361.47" width="13.39" height="13.39" fill="#231f20"/>
  <rect x="962.23" y="317.38" width="13.39" height="13.39" fill="#231f20"/>
  <rect x="962.23" y="274.91" width="13.39" height="13.39" fill="#231f20"/>
  <rect x="919.03" y="189.07" width="13.39" height="13.39" fill="#231f20"/>
  <rect x="962.23" y="189.07" width="13.39" height="13.39" fill="#231f20"/>
  <rect x="1048.51" y="189.07" width="13.39" height="13.39" fill="#231f20"/>
  <rect x="1006.11" y="189.07" width="13.39" height="13.39" fill="#231f20"/>
  <rect x="962.23" y="490.84" width="13.39" height="13.39" fill="#231f20"/>
  <rect x="962.23" y="534.12" width="13.39" height="13.39" fill="#231f20"/>
  <rect x="962.23" y="447.73" width="13.39" height="13.39" fill="#231f20"/>
  <rect x="962.23" y="404.97" width="13.39" height="13.39" fill="#231f20"/>
  <rect x="1048.51" y="361.47" width="13.39" height="13.39" fill="#231f20"/>
  <rect x="1048.51" y="317.38" width="13.39" height="13.39" fill="#231f20"/>
  <rect x="1048.51" y="274.91" width="13.39" height="13.39" fill="#231f20"/>
  <rect x="1048.51" y="447.73" width="13.39" height="13.39" fill="#231f20"/>
  <rect x="1048.51" y="404.97" width="13.39" height="13.39" fill="#231f20"/>
  <rect x="403.69" y="145.36" width="13.39" height="13.39" fill="#231f20"/>
  <rect x="443.22" y="15.37" width="13.39" height="13.39" fill="#231f20"/>
  <rect x="227.91" y="274.88" width="13.39" height="13.39" fill="#231f20"/>
  <rect x="315.39" y="102.21" width="13.39" height="13.39" fill="#231f20"/>
  <rect x="315.39" y="145.36" width="13.39" height="13.39" fill="#231f20"/>
  <rect x="227.91" y="317.38" width="13.39" height="13.39" fill="#231f20"/>
  <rect x="227.91" y="361.47" width="13.39" height="13.39" fill="#231f20"/>
  <rect x="141.11" y="404.97" width="13.39" height="13.39" fill="#231f20"/>
  <rect x="184.51" y="404.97" width="13.39" height="13.39" fill="#231f20"/>
  <rect x="227.91" y="404.97" width="13.39" height="13.39" fill="#231f20"/>
  <rect x="141.11" y="447.73" width="13.39" height="13.39" fill="#231f20"/>
  <rect x="98.09" y="447.73" width="13.39" height="13.39" fill="#231f20"/>
  <rect x="55.07" y="447.73" width="13.39" height="13.39" fill="#231f20"/>
  <rect x="55.07" y="404.97" width="13.39" height="13.39" fill="#231f20"/>
  <rect x="184.51" y="447.73" width="13.39" height="13.39" fill="#231f20"/>
  <rect x="227.91" y="447.73" width="13.39" height="13.39" fill="#231f20"/>
  <rect x="141.11" y="490.84" width="13.39" height="13.39" fill="#231f20"/>
  <rect x="98.09" y="490.84" width="13.39" height="13.39" fill="#231f20"/>
  <rect x="55.07" y="490.84" width="13.39" height="13.39" fill="#231f20"/>
  <rect x="184.51" y="490.84" width="13.39" height="13.39" fill="#231f20"/>
  <rect x="227.91" y="490.84" width="13.39" height="13.39" fill="#231f20"/>
  <rect x="141.11" y="534.12" width="13.39" height="13.39" fill="#231f20"/>
  <rect x="98.09" y="534.12" width="13.39" height="13.39" fill="#231f20"/>
  <rect x="55.07" y="534.12" width="13.39" height="13.39" fill="#231f20"/>
  <rect x="184.51" y="534.12" width="13.39" height="13.39" fill="#231f20"/>
  <rect x="227.91" y="534.12" width="13.39" height="13.39" fill="#231f20"/>
  <rect x="141.11" y="577.11" width="13.39" height="13.39" fill="#231f20"/>
  <rect x="98.09" y="577.11" width="13.39" height="13.39" fill="#231f20"/>
  <rect x="55.07" y="577.11" width="13.39" height="13.39" fill="#231f20"/>
  <rect x="184.51" y="577.11" width="13.39" height="13.39" fill="#231f20"/>
  <rect x="227.91" y="577.11" width="13.39" height="13.39" fill="#231f20"/>
  <rect x="141.11" y="620.71" width="13.39" height="13.39" fill="#231f20"/>
  <rect x="98.09" y="620.71" width="13.39" height="13.39" fill="#231f20"/>
  <rect x="55.07" y="620.71" width="13.39" height="13.39" fill="#231f20"/>
  <rect x="184.51" y="620.71" width="13.39" height="13.39" fill="#231f20"/>
  <rect x="227.91" y="620.71" width="13.39" height="13.39" fill="#231f20"/>
  <rect x="270.13" y="620.71" width="13.39" height="13.39" fill="#231f20"/>
  <rect x="141.11" y="663.95" width="13.39" height="13.39" fill="#231f20"/>
  <rect x="98.09" y="663.95" width="13.39" height="13.39" fill="#231f20"/>
  <rect x="55.07" y="663.95" width="13.39" height="13.39" fill="#231f20"/>
  <rect x="55.07" y="750.57" width="13.39" height="13.39" fill="#231f20"/>
  <rect x="55.07" y="793.53" width="13.39" height="13.39" fill="#231f20"/>
  <rect x="55.07" y="836.62" width="13.39" height="13.39" fill="#231f20"/>
  <rect x="98.09" y="750.57" width="13.39" height="13.39" fill="#231f20"/>
  <rect x="98.09" y="793.53" width="13.39" height="13.39" fill="#231f20"/>
  <rect x="141.11" y="750.57" width="13.39" height="13.39" fill="#231f20"/>
  <rect x="141.11" y="793.53" width="13.39" height="13.39" fill="#231f20"/>
  <rect x="98.09" y="836.62" width="13.39" height="13.39" fill="#231f20"/>
  <rect x="184.51" y="663.95" width="13.39" height="13.39" fill="#231f20"/>
  <rect x="227.91" y="663.95" width="13.39" height="13.39" fill="#231f20"/>
  <rect x="270.13" y="663.95" width="13.39" height="13.39" fill="#231f20"/>
  <rect x="270.13" y="793.53" width="13.39" height="13.39" fill="#231f20"/>
  <rect x="270.13" y="836.62" width="13.39" height="13.39" fill="#231f20"/>
  <rect x="227.91" y="750.57" width="13.39" height="13.39" fill="#231f20"/>
  <rect x="270.13" y="750.57" width="13.39" height="13.39" fill="#231f20"/>
  <rect x="270.13" y="1009.43" width="13.39" height="13.39" fill="#231f20"/>
  <rect x="270.13" y="1052.68" width="13.39" height="13.39" fill="#231f20"/>
  <rect x="270.13" y="966.84" width="13.39" height="13.39" fill="#231f20"/>
  <rect x="270.13" y="534.12" width="13.39" height="13.39" fill="#231f20"/>
  <rect x="270.13" y="577.11" width="13.39" height="13.39" fill="#231f20"/>
  <rect x="270.13" y="317.38" width="13.39" height="13.39" fill="#231f20"/>
  <rect x="270.13" y="361.47" width="13.39" height="13.39" fill="#231f20"/>
  <rect x="270.13" y="404.97" width="13.39" height="13.39" fill="#231f20"/>
  <rect x="270.13" y="447.73" width="13.39" height="13.39" fill="#231f20"/>
  <rect x="270.13" y="490.84" width="13.39" height="13.39" fill="#231f20"/>
  <rect x="55.07" y="362.36" width="13.39" height="13.39" fill="#231f20"/>
</svg>