<?xml version="1.0" encoding="UTF-8"?>
<svg id="_7" data-name="7" xmlns="http://www.w3.org/2000/svg" viewBox="0 0 1080 1080">
  <rect x="659.34" y="972.54" width="13.39" height="13.39" transform="translate(1645.27 313.2) rotate(90)" fill="#231f20"/>
  <rect x="703.83" y="972.54" width="13.39" height="13.39" transform="translate(1689.76 268.7) rotate(90)" fill="#231f20"/>
  <rect x="703.83" y="1015.27" width="13.39" height="13.39" transform="translate(1732.5 311.44) rotate(90)" fill="#231f20"/>
  <rect x="746.95" y="1015.27" width="13.39" height="13.39" transform="translate(1775.62 268.32) rotate(90)" fill="#231f20"/>
  <rect x="878.05" y="669.34" width="13.39" height="13.39" transform="translate(1560.79 -208.71) rotate(90)" fill="#231f20"/>
  <rect x="878.05" y="712.91" width="13.39" height="13.39" transform="translate(1604.36 -165.14) rotate(90)" fill="#231f20"/>
  <rect x="922.43" y="712.91" width="13.39" height="13.39" transform="translate(1648.74 -209.51) rotate(90)" fill="#231f20"/>
  <rect x="833.68" y="669.34" width="13.39" height="13.39" transform="translate(1516.41 -164.34) rotate(90)" fill="#231f20"/>
  <rect x="789.84" y="669.34" width="13.39" height="13.39" transform="translate(1472.58 -120.5) rotate(90)" fill="#231f20"/>
  <rect x="746.95" y="669.34" width="13.39" height="13.39" transform="translate(1429.69 -77.61) rotate(90)" fill="#231f20"/>
  <rect x="703.83" y="669.34" width="13.39" height="13.39" transform="translate(1386.57 -34.49) rotate(90)" fill="#231f20"/>
  <rect x="659.34" y="669.34" width="13.39" height="13.39" transform="translate(1342.07 10) rotate(90)" fill="#231f20"/>
  <rect x="616.92" y="669.34" width="13.39" height="13.39" transform="translate(1299.65 52.42) rotate(90)" fill="#231f20"/>
  <rect x="574.7" y="669.34" width="13.39" height="13.39" transform="translate(1257.44 94.64) rotate(90)" fill="#231f20"/>
  <rect x="616.92" y="625.8" width="13.39" height="13.39" transform="translate(1256.12 8.88) rotate(90)" fill="#231f20"/>
  <rect x="616.92" y="582.41" width="13.39" height="13.39" transform="translate(1212.72 -34.51) rotate(90)" fill="#231f20"/>
  <rect x="616.92" y="539.73" width="13.39" height="13.39" transform="translate(1170.04 -77.19) rotate(90)" fill="#231f20"/>
  <rect x="574.7" y="539.73" width="13.39" height="13.39" transform="translate(1127.82 -34.98) rotate(90)" fill="#231f20"/>
  <rect x="616.92" y="495.59" width="13.39" height="13.39" transform="translate(1125.9 -121.33) rotate(90)" fill="#231f20"/>
  <rect x="659.34" y="625.8" width="13.39" height="13.39" transform="translate(1298.53 -33.53) rotate(90)" fill="#231f20"/>
  <rect x="659.34" y="755.41" width="13.39" height="13.39" transform="translate(1428.14 96.07) rotate(90)" fill="#231f20"/>
  <rect x="659.34" y="712.91" width="13.39" height="13.39" transform="translate(1385.65 53.58) rotate(90)" fill="#231f20"/>
  <rect x="703.83" y="712.91" width="13.39" height="13.39" transform="translate(1430.14 9.08) rotate(90)" fill="#231f20"/>
  <rect x="746.95" y="712.91" width="13.39" height="13.39" transform="translate(1473.26 -34.04) rotate(90)" fill="#231f20"/>
  <rect x="659.34" y="842.08" width="13.39" height="13.39" transform="translate(1514.81 182.75) rotate(90)" fill="#231f20"/>
  <rect x="659.34" y="798.32" width="13.39" height="13.39" transform="translate(1471.05 138.98) rotate(90)" fill="#231f20"/>
  <rect x="659.34" y="928.98" width="13.39" height="13.39" transform="translate(1601.71 269.64) rotate(90)" fill="#231f20"/>
  <rect x="659.34" y="885.56" width="13.39" height="13.39" transform="translate(1558.29 226.23) rotate(90)" fill="#231f20"/>
  <rect x="616.92" y="928.98" width="13.39" height="13.39" transform="translate(1559.29 312.06) rotate(90)" fill="#231f20"/>
  <rect x="616.92" y="885.56" width="13.39" height="13.39" transform="translate(1515.87 268.64) rotate(90)" fill="#231f20"/>
  <rect x="616.92" y="1015.27" width="13.39" height="13.39" transform="translate(1645.58 398.35) rotate(90)" fill="#231f20"/>
  <rect x="616.92" y="972.54" width="13.39" height="13.39" transform="translate(1602.85 355.62) rotate(90)" fill="#231f20"/>
  <rect x="789.84" y="972.54" width="13.39" height="13.39" transform="translate(1775.77 182.7) rotate(90)" fill="#231f20"/>
  <rect x="836.02" y="972.54" width="13.39" height="13.39" transform="translate(1821.95 136.51) rotate(90)" fill="#231f20"/>
  <rect x="746.95" y="972.54" width="13.39" height="13.39" transform="translate(1732.88 225.58) rotate(90)" fill="#231f20"/>
  <rect x="531.96" y="928.98" width="13.39" height="13.39" transform="translate(1474.34 397.02) rotate(90)" fill="#231f20"/>
  <rect x="531.96" y="885.56" width="13.39" height="13.39" transform="translate(1430.92 353.6) rotate(90)" fill="#231f20"/>
  <rect x="488.75" y="885.56" width="13.39" height="13.39" transform="translate(1387.71 396.81) rotate(90)" fill="#231f20"/>
  <rect x="574.7" y="1015.27" width="13.39" height="13.39" transform="translate(1603.36 440.57) rotate(90)" fill="#231f20"/>
  <rect x="574.7" y="1059.06" width="13.39" height="13.39" transform="translate(1647.16 484.36) rotate(90)" fill="#231f20"/>
  <rect x="531.96" y="1059.06" width="13.39" height="13.39" transform="translate(1604.42 527.1) rotate(90)" fill="#231f20"/>
  <rect x="659.34" y="1059.06" width="13.39" height="13.39" transform="translate(1731.8 399.73) rotate(90)" fill="#231f20"/>
  <rect x="703.83" y="1059.06" width="13.39" height="13.39" transform="translate(1776.29 355.23) rotate(90)" fill="#231f20"/>
  <rect x="659.34" y="1015.27" width="13.39" height="13.39" transform="translate(1688 355.93) rotate(90)" fill="#231f20"/>
  <rect x="834.37" y="1015.27" width="13.39" height="13.39" transform="translate(1863.03 180.9) rotate(90)" fill="#231f20"/>
  <rect x="834.37" y="1059.06" width="13.39" height="13.39" transform="translate(1906.83 224.7) rotate(90)" fill="#231f20"/>
  <rect x="789.87" y="1015.27" width="13.39" height="13.39" transform="translate(1818.53 225.4) rotate(90)" fill="#231f20"/>
  <rect x="616.92" y="1059.06" width="13.39" height="13.39" transform="translate(1689.38 442.15) rotate(90)" fill="#231f20"/>
  <rect x="488.75" y="1015.27" width="13.39" height="13.39" transform="translate(1517.42 526.52) rotate(90)" fill="#231f20"/>
  <rect x="488.75" y="929.05" width="13.39" height="13.39" transform="translate(1431.2 440.3) rotate(90)" fill="#231f20"/>
  <rect x="445.78" y="972.54" width="13.39" height="13.39" transform="translate(1431.71 526.76) rotate(90)" fill="#231f20"/>
  <rect x="574.7" y="972.54" width="13.39" height="13.39" transform="translate(1560.63 397.83) rotate(90)" fill="#231f20"/>
  <rect x="531.96" y="972.54" width="13.39" height="13.39" transform="translate(1517.89 440.57) rotate(90)" fill="#231f20"/>
  <rect x="230.14" y="972.54" width="13.39" height="13.39" transform="translate(1216.07 742.4) rotate(90)" fill="#231f20"/>
  <rect x="185.41" y="972.54" width="13.39" height="13.39" transform="translate(1171.34 787.13) rotate(90)" fill="#231f20"/>
  <rect x="185.41" y="928.98" width="13.39" height="13.39" transform="translate(1127.78 743.58) rotate(90)" fill="#231f20"/>
  <rect x="185.41" y="1059.06" width="13.39" height="13.39" transform="translate(1257.86 873.66) rotate(90)" fill="#231f20"/>
  <rect x="274.21" y="1059.06" width="13.39" height="13.39" transform="translate(1346.66 784.86) rotate(90)" fill="#231f20"/>
  <rect x="274.21" y="1015.27" width="13.39" height="13.39" transform="translate(1302.87 741.06) rotate(90)" fill="#231f20"/>
  <rect x="185.41" y="1015.27" width="13.39" height="13.39" transform="translate(1214.07 829.86) rotate(90)" fill="#231f20"/>
  <rect x="274.21" y="972.54" width="13.39" height="13.39" transform="translate(1260.14 698.33) rotate(90)" fill="#231f20"/>
  <rect x="574.7" y="625.8" width="13.39" height="13.39" transform="translate(1213.9 51.1) rotate(90)" fill="#231f20"/>
  <rect x="531.96" y="669.34" width="13.39" height="13.39" transform="translate(1214.7 137.38) rotate(90)" fill="#231f20"/>
  <rect x="531.96" y="625.8" width="13.39" height="13.39" transform="translate(1171.16 93.84) rotate(90)" fill="#231f20"/>
  <rect x="445.78" y="669.34" width="13.39" height="13.39" transform="translate(1128.52 223.56) rotate(90)" fill="#231f20"/>
  <rect x="488.75" y="625.8" width="13.39" height="13.39" transform="translate(1127.95 137.05) rotate(90)" fill="#231f20"/>
  <rect x="445.78" y="625.8" width="13.39" height="13.39" transform="translate(1084.98 180.02) rotate(90)" fill="#231f20"/>
  <rect x="445.78" y="755.41" width="13.39" height="13.39" transform="translate(1214.58 309.63) rotate(90)" fill="#231f20"/>
  <rect x="445.78" y="712.91" width="13.39" height="13.39" transform="translate(1172.09 267.13) rotate(90)" fill="#231f20"/>
  <rect x="445.78" y="842.08" width="13.39" height="13.39" transform="translate(1301.26 396.3) rotate(90)" fill="#231f20"/>
  <rect x="445.78" y="798.32" width="13.39" height="13.39" transform="translate(1257.49 352.54) rotate(90)" fill="#231f20"/>
  <rect x="404.18" y="798.32" width="13.39" height="13.39" transform="translate(1215.89 394.14) rotate(90)" fill="#231f20"/>
  <rect x="574.7" y="755.41" width="13.39" height="13.39" transform="translate(1343.5 180.7) rotate(90)" fill="#231f20"/>
  <rect x="617.02" y="755.41" width="13.39" height="13.39" transform="translate(1385.82 138.39) rotate(90)" fill="#231f20"/>
  <rect x="574.7" y="712.91" width="13.39" height="13.39" transform="translate(1301.01 138.21) rotate(90)" fill="#231f20"/>
  <rect x="574.7" y="798.32" width="13.39" height="13.39" transform="translate(1386.41 223.61) rotate(90)" fill="#231f20"/>
  <rect x="531.96" y="755.41" width="13.39" height="13.39" transform="translate(1300.76 223.44) rotate(90)" fill="#231f20"/>
  <rect x="531.96" y="712.91" width="13.39" height="13.39" transform="translate(1258.27 180.95) rotate(90)" fill="#231f20"/>
  <rect x="531.96" y="798.32" width="13.39" height="13.39" transform="translate(1343.67 266.35) rotate(90)" fill="#231f20"/>
  <rect x="404.18" y="885.56" width="13.39" height="13.39" transform="translate(1303.13 481.38) rotate(90)" fill="#231f20"/>
  <rect x="404.18" y="842.08" width="13.39" height="13.39" transform="translate(1259.65 437.91) rotate(90)" fill="#231f20"/>
  <rect x="445.78" y="885.56" width="13.39" height="13.39" transform="translate(1344.74 439.78) rotate(90)" fill="#231f20"/>
  <rect x="359.84" y="885.56" width="13.39" height="13.39" transform="translate(1258.8 525.72) rotate(90)" fill="#231f20"/>
  <rect x="317.2" y="885.56" width="13.39" height="13.39" transform="translate(1216.16 568.36) rotate(90)" fill="#231f20"/>
  <rect x="230.14" y="885.56" width="13.39" height="13.39" transform="translate(1129.09 655.43) rotate(90)" fill="#231f20"/>
  <rect x="230.14" y="842.08" width="13.39" height="13.39" transform="translate(1085.61 611.95) rotate(90)" fill="#231f20"/>
  <rect x="274.21" y="885.56" width="13.39" height="13.39" transform="translate(1173.16 611.36) rotate(90)" fill="#231f20"/>
  <rect x="230.14" y="928.98" width="13.39" height="13.39" transform="translate(1172.51 698.84) rotate(90)" fill="#231f20"/>
  <rect x="274.21" y="928.98" width="13.39" height="13.39" transform="translate(1216.58 654.78) rotate(90)" fill="#231f20"/>
  <rect x="185.41" y="885.56" width="13.39" height="13.39" transform="translate(1084.36 700.16) rotate(90)" fill="#231f20"/>
  <rect x="142.92" y="885.56" width="13.39" height="13.39" transform="translate(1041.87 742.64) rotate(90)" fill="#231f20"/>
  <rect x="12.47" y="885.56" width="13.39" height="13.39" transform="translate(911.43 873.09) rotate(90)" fill="#231f20"/>
  <rect x="142.92" y="972.54" width="13.39" height="13.39" transform="translate(1128.85 829.62) rotate(90)" fill="#231f20"/>
  <rect x="142.92" y="928.98" width="13.39" height="13.39" transform="translate(1085.29 786.06) rotate(90)" fill="#231f20"/>
  <rect x="12.47" y="928.98" width="13.39" height="13.39" transform="translate(954.85 916.51) rotate(90)" fill="#231f20"/>
  <rect x="56.03" y="885.56" width="13.39" height="13.39" transform="translate(954.99 829.53) rotate(90)" fill="#231f20"/>
  <rect x="56.03" y="928.98" width="13.39" height="13.39" transform="translate(998.41 872.95) rotate(90)" fill="#231f20"/>
  <rect x="185.41" y="842.08" width="13.39" height="13.39" transform="translate(1040.88 656.68) rotate(90)" fill="#231f20"/>
  <rect x="142.92" y="842.08" width="13.39" height="13.39" transform="translate(998.39 699.17) rotate(90)" fill="#231f20"/>
  <rect x="185.41" y="798.32" width="13.39" height="13.39" transform="translate(997.12 612.91) rotate(90)" fill="#231f20"/>
  <rect x="142.92" y="798.32" width="13.39" height="13.39" transform="translate(954.63 655.4) rotate(90)" fill="#231f20"/>
  <rect x="100.43" y="798.32" width="13.39" height="13.39" transform="translate(912.14 697.89) rotate(90)" fill="#231f20"/>
  <rect x="57.94" y="798.32" width="13.39" height="13.39" transform="translate(869.65 740.37) rotate(90)" fill="#231f20"/>
  <rect x="185.41" y="755.41" width="13.39" height="13.39" transform="translate(954.21 570) rotate(90)" fill="#231f20"/>
  <rect x="142.92" y="755.41" width="13.39" height="13.39" transform="translate(911.72 612.49) rotate(90)" fill="#231f20"/>
  <rect x="100.43" y="755.41" width="13.39" height="13.39" transform="translate(869.23 654.98) rotate(90)" fill="#231f20"/>
  <rect x="57.94" y="755.41" width="13.39" height="13.39" transform="translate(826.74 697.46) rotate(90)" fill="#231f20"/>
  <rect x="185.41" y="712.91" width="13.39" height="13.39" transform="translate(911.71 527.51) rotate(90)" fill="#231f20"/>
  <rect x="142.92" y="712.91" width="13.39" height="13.39" transform="translate(869.23 570) rotate(90)" fill="#231f20"/>
  <rect x="99.61" y="712.91" width="13.39" height="13.39" transform="translate(825.91 613.31) rotate(90)" fill="#231f20"/>
  <rect x="57.12" y="712.91" width="13.39" height="13.39" transform="translate(783.43 655.8) rotate(90)" fill="#231f20"/>
  <rect x="185.41" y="669.34" width="13.39" height="13.39" transform="translate(868.14 483.94) rotate(90)" fill="#231f20"/>
  <rect x="142.92" y="669.34" width="13.39" height="13.39" transform="translate(825.65 526.42) rotate(90)" fill="#231f20"/>
  <rect x="56.03" y="842.08" width="13.39" height="13.39" transform="translate(911.51 786.05) rotate(90)" fill="#231f20"/>
  <rect x="99.58" y="842.08" width="13.39" height="13.39" transform="translate(955.06 742.5) rotate(90)" fill="#231f20"/>
  <rect x="317.2" y="842.08" width="13.39" height="13.39" transform="translate(1172.68 524.88) rotate(90)" fill="#231f20"/>
  <rect x="317.2" y="972.54" width="13.39" height="13.39" transform="translate(1303.13 655.34) rotate(90)" fill="#231f20"/>
  <rect x="317.2" y="928.98" width="13.39" height="13.39" transform="translate(1259.57 611.78) rotate(90)" fill="#231f20"/>
  <rect x="317.2" y="1059.06" width="13.39" height="13.39" transform="translate(1389.66 741.87) rotate(90)" fill="#231f20"/>
  <rect x="317.2" y="1015.27" width="13.39" height="13.39" transform="translate(1345.86 698.07) rotate(90)" fill="#231f20"/>
  <rect x="445.78" y="1015.27" width="13.39" height="13.39" transform="translate(1474.44 569.49) rotate(90)" fill="#231f20"/>
  <rect x="12.47" y="842.08" width="13.39" height="13.39" transform="translate(867.95 829.61) rotate(90)" fill="#231f20"/>
  <rect x="142.92" y="1059.06" width="13.39" height="13.39" transform="translate(1215.38 916.15) rotate(90)" fill="#231f20"/>
  <rect x="12.47" y="1059.06" width="13.39" height="13.39" transform="translate(1084.93 1046.59) rotate(90)" fill="#231f20"/>
  <rect x="142.92" y="1015.27" width="13.39" height="13.39" transform="translate(1171.58 872.35) rotate(90)" fill="#231f20"/>
  <rect x="99.72" y="972.54" width="13.39" height="13.39" transform="translate(1085.65 872.81) rotate(90)" fill="#231f20"/>
  <rect x="12.47" y="972.54" width="13.39" height="13.39" transform="translate(998.4 960.06) rotate(90)" fill="#231f20"/>
  <rect x="99.72" y="1015.27" width="13.39" height="13.39" transform="translate(1128.39 915.55) rotate(90)" fill="#231f20"/>
  <rect x="56.88" y="1015.27" width="13.39" height="13.39" transform="translate(1085.54 958.39) rotate(90)" fill="#231f20"/>
  <rect x="56.88" y="1059.06" width="13.39" height="13.39" transform="translate(1129.34 1002.19) rotate(90)" fill="#231f20"/>
  <rect x="317.2" y="625.8" width="13.39" height="13.39" transform="translate(956.4 308.6) rotate(90)" fill="#231f20"/>
  <rect x="317.2" y="712.91" width="13.39" height="13.39" transform="translate(1043.51 395.72) rotate(90)" fill="#231f20"/>
  <rect x="359.84" y="712.91" width="13.39" height="13.39" transform="translate(1086.15 353.07) rotate(90)" fill="#231f20"/>
  <rect x="317.2" y="669.34" width="13.39" height="13.39" transform="translate(999.93 352.14) rotate(90)" fill="#231f20"/>
  <rect x="361.01" y="669.34" width="13.39" height="13.39" transform="translate(1043.75 308.33) rotate(90)" fill="#231f20"/>
  <rect x="361.01" y="495.59" width="13.39" height="13.39" transform="translate(870 134.58) rotate(90)" fill="#231f20"/>
  <rect x="361.01" y="453.19" width="13.39" height="13.39" transform="translate(827.59 92.17) rotate(90)" fill="#231f20"/>
  <rect x="361.01" y="539.73" width="13.39" height="13.39" transform="translate(914.13 178.71) rotate(90)" fill="#231f20"/>
  <rect x="317.13" y="495.59" width="13.39" height="13.39" transform="translate(826.12 178.46) rotate(90)" fill="#231f20"/>
  <rect x="273.63" y="495.59" width="13.39" height="13.39" transform="translate(782.62 221.96) rotate(90)" fill="#231f20"/>
  <rect x="317.13" y="539.73" width="13.39" height="13.39" transform="translate(870.25 222.59) rotate(90)" fill="#231f20"/>
  <rect x="273.63" y="539.73" width="13.39" height="13.39" transform="translate(826.75 266.09) rotate(90)" fill="#231f20"/>
  <rect x="361.01" y="582.41" width="13.39" height="13.39" transform="translate(956.81 221.4) rotate(90)" fill="#231f20"/>
  <rect x="404.13" y="495.59" width="13.39" height="13.39" transform="translate(913.11 91.46) rotate(90)" fill="#231f20"/>
  <rect x="404.13" y="453.19" width="13.39" height="13.39" transform="translate(870.71 49.06) rotate(90)" fill="#231f20"/>
  <rect x="404.13" y="539.73" width="13.39" height="13.39" transform="translate(957.25 135.6) rotate(90)" fill="#231f20"/>
  <rect x="404.13" y="366.28" width="13.39" height="13.39" transform="translate(783.8 -37.84) rotate(90)" fill="#231f20"/>
  <rect x="404.13" y="322.54" width="13.39" height="13.39" transform="translate(740.06 -81.59) rotate(90)" fill="#231f20"/>
  <rect x="404.13" y="409.99" width="13.39" height="13.39" transform="translate(827.51 5.86) rotate(90)" fill="#231f20"/>
  <rect x="317.2" y="798.32" width="13.39" height="13.39" transform="translate(1128.91 481.12) rotate(90)" fill="#231f20"/>
  <rect x="317.2" y="755.41" width="13.39" height="13.39" transform="translate(1086 438.21) rotate(90)" fill="#231f20"/>
  <rect x="274.21" y="712.91" width="13.39" height="13.39" transform="translate(1000.51 438.71) rotate(90)" fill="#231f20"/>
  <rect x="274.21" y="755.41" width="13.39" height="13.39" transform="translate(1043.01 481.2) rotate(90)" fill="#231f20"/>
  <rect x="359.84" y="755.41" width="13.39" height="13.39" transform="translate(1128.64 395.57) rotate(90)" fill="#231f20"/>
  <rect x="274.21" y="842.08" width="13.39" height="13.39" transform="translate(1129.68 567.88) rotate(90)" fill="#231f20"/>
  <rect x="404.13" y="625.8" width="13.39" height="13.39" transform="translate(1043.32 221.68) rotate(90)" fill="#231f20"/>
  <rect x="404.13" y="582.76" width="13.39" height="13.39" transform="translate(1000.29 178.64) rotate(90)" fill="#231f20"/>
  <rect x="361.01" y="625.8" width="13.39" height="13.39" transform="translate(1000.21 264.79) rotate(90)" fill="#231f20"/>
  <rect x="185.41" y="625.8" width="13.39" height="13.39" transform="translate(824.6 440.4) rotate(90)" fill="#231f20"/>
  <rect x="142.92" y="625.8" width="13.39" height="13.39" transform="translate(782.11 482.89) rotate(90)" fill="#231f20"/>
  <rect x="100.43" y="625.8" width="13.39" height="13.39" transform="translate(739.63 525.37) rotate(90)" fill="#231f20"/>
  <rect x="274.21" y="625.8" width="13.39" height="13.39" transform="translate(913.4 351.6) rotate(90)" fill="#231f20"/>
  <rect x="274.21" y="669.34" width="13.39" height="13.39" transform="translate(956.94 395.14) rotate(90)" fill="#231f20"/>
  <rect x="574.7" y="281.38" width="13.39" height="13.39" transform="translate(869.47 -293.32) rotate(90)" fill="#231f20"/>
  <rect x="531.96" y="281.38" width="13.39" height="13.39" transform="translate(826.73 -250.58) rotate(90)" fill="#231f20"/>
  <rect x="488.75" y="281.38" width="13.39" height="13.39" transform="translate(783.53 -207.38) rotate(90)" fill="#231f20"/>
  <rect x="445.78" y="281.38" width="13.39" height="13.39" transform="translate(740.55 -164.4) rotate(90)" fill="#231f20"/>
  <rect x="746.95" y="237.07" width="13.39" height="13.39" transform="translate(997.41 -509.89) rotate(90)" fill="#231f20"/>
  <rect x="703.83" y="237.07" width="13.39" height="13.39" transform="translate(954.3 -466.77) rotate(90)" fill="#231f20"/>
  <rect x="703.83" y="193.24" width="13.39" height="13.39" transform="translate(910.47 -510.59) rotate(90)" fill="#231f20"/>
  <rect x="659.34" y="237.07" width="13.39" height="13.39" transform="translate(909.8 -422.27) rotate(90)" fill="#231f20"/>
  <rect x="877.35" y="195.11" width="13.39" height="13.39" transform="translate(1085.85 -682.23) rotate(90)" fill="#231f20"/>
  <rect x="834.58" y="195.11" width="13.39" height="13.39" transform="translate(1043.08 -639.46) rotate(90)" fill="#231f20"/>
  <rect x="877.35" y="237.07" width="13.39" height="13.39" transform="translate(1127.81 -640.28) rotate(90)" fill="#231f20"/>
  <rect x="877.35" y="107.98" width="13.39" height="13.39" transform="translate(998.72 -769.36) rotate(90)" fill="#231f20"/>
  <rect x="877.35" y="149.94" width="13.39" height="13.39" transform="translate(1040.68 -727.41) rotate(90)" fill="#231f20"/>
  <rect x="877.35" y="18.53" width="13.39" height="13.39" transform="translate(909.27 -858.82) rotate(90)" fill="#231f20"/>
  <rect x="877.35" y="60.48" width="13.39" height="13.39" transform="translate(951.22 -816.86) rotate(90)" fill="#231f20"/>
  <rect x="922.43" y="105.66" width="13.39" height="13.39" transform="translate(1041.48 -816.77) rotate(90)" fill="#231f20"/>
  <rect x="922.43" y="147.61" width="13.39" height="13.39" transform="translate(1083.44 -774.82) rotate(90)" fill="#231f20"/>
  <rect x="922.43" y="18.53" width="13.39" height="13.39" transform="translate(954.35 -903.9) rotate(90)" fill="#231f20"/>
  <rect x="964.18" y="18.53" width="13.39" height="13.39" transform="translate(996.1 -945.65) rotate(90)" fill="#231f20"/>
  <rect x="1009.26" y="18.53" width="13.39" height="13.39" transform="translate(1041.18 -990.73) rotate(90)" fill="#231f20"/>
  <rect x="922.43" y="60.48" width="13.39" height="13.39" transform="translate(996.31 -861.95) rotate(90)" fill="#231f20"/>
  <rect x="834.58" y="237.07" width="13.39" height="13.39" transform="translate(1085.04 -597.51) rotate(90)" fill="#231f20"/>
  <rect x="789.84" y="237.07" width="13.39" height="13.39" transform="translate(1040.3 -552.77) rotate(90)" fill="#231f20"/>
  <rect x="789.84" y="195.11" width="13.39" height="13.39" transform="translate(998.35 -594.73) rotate(90)" fill="#231f20"/>
  <rect x="1010.67" y="195.11" width="13.39" height="13.39" transform="translate(1219.18 -815.56) rotate(90)" fill="#231f20"/>
  <rect x="1053.44" y="195.11" width="13.39" height="13.39" transform="translate(1261.95 -858.33) rotate(90)" fill="#231f20"/>
  <rect x="967.9" y="195.11" width="13.39" height="13.39" transform="translate(1176.41 -772.79) rotate(90)" fill="#231f20"/>
  <rect x="922.43" y="195.11" width="13.39" height="13.39" transform="translate(1130.94 -727.32) rotate(90)" fill="#231f20"/>
  <rect x="659.34" y="281.38" width="13.39" height="13.39" transform="translate(954.11 -377.96) rotate(90)" fill="#231f20"/>
  <rect x="703.83" y="281.38" width="13.39" height="13.39" transform="translate(998.61 -422.46) rotate(90)" fill="#231f20"/>
  <rect x="616.92" y="281.38" width="13.39" height="13.39" transform="translate(911.69 -335.54) rotate(90)" fill="#231f20"/>
  <rect x="659.34" y="63.76" width="13.39" height="13.39" transform="translate(736.49 -595.57) rotate(90)" fill="#231f20"/>
  <rect x="616.92" y="63.76" width="13.39" height="13.39" transform="translate(694.08 -553.16) rotate(90)" fill="#231f20"/>
  <rect x="317.19" y="281.52" width="13.39" height="13.39" transform="translate(612.1 -35.67) rotate(90)" fill="#231f20"/>
  <rect x="404.13" y="281.15" width="13.39" height="13.39" transform="translate(698.67 -122.98) rotate(90)" fill="#231f20"/>
  <rect x="362.51" y="281.15" width="13.39" height="13.39" transform="translate(657.05 -81.37) rotate(90)" fill="#231f20"/>
  <rect x="445.78" y="237.09" width="13.39" height="13.39" transform="translate(696.27 -208.69) rotate(90)" fill="#231f20"/>
  <rect x="445.78" y="193.24" width="13.39" height="13.39" transform="translate(652.42 -252.54) rotate(90)" fill="#231f20"/>
  <rect x="488.75" y="193.24" width="13.39" height="13.39" transform="translate(695.39 -295.51) rotate(90)" fill="#231f20"/>
  <rect x="404.13" y="193.24" width="13.39" height="13.39" transform="translate(610.76 -210.88) rotate(90)" fill="#231f20"/>
  <rect x="404.13" y="236.86" width="13.39" height="13.39" transform="translate(654.38 -167.27) rotate(90)" fill="#231f20"/>
  <rect x="404.13" y="149.65" width="13.39" height="13.39" transform="translate(567.17 -254.48) rotate(90)" fill="#231f20"/>
  <rect x="404.13" y="107.57" width="13.39" height="13.39" transform="translate(525.09 -296.56) rotate(90)" fill="#231f20"/>
  <rect x="404.13" y="63.76" width="13.39" height="13.39" transform="translate(481.29 -340.36) rotate(90)" fill="#231f20"/>
  <rect x="445.78" y="149.65" width="13.39" height="13.39" transform="translate(608.82 -296.13) rotate(90)" fill="#231f20"/>
  <rect x="445.78" y="107.57" width="13.39" height="13.39" transform="translate(566.74 -338.21) rotate(90)" fill="#231f20"/>
  <rect x="445.78" y="63.76" width="13.39" height="13.39" transform="translate(522.94 -382.02) rotate(90)" fill="#231f20"/>
  <rect x="445.78" y="21.2" width="13.39" height="13.39" transform="translate(480.37 -424.58) rotate(90)" fill="#231f20"/>
  <rect x="488.75" y="21.2" width="13.39" height="13.39" transform="translate(523.35 -467.55) rotate(90)" fill="#231f20"/>
  <rect x="404.13" y="21.2" width="13.39" height="13.39" transform="translate(438.72 -382.93) rotate(90)" fill="#231f20"/>
  <rect x="361.17" y="236.86" width="13.39" height="13.39" transform="translate(611.42 -124.31) rotate(90)" fill="#231f20"/>
  <rect x="274.21" y="281.15" width="13.39" height="13.39" transform="translate(568.75 6.94) rotate(90)" fill="#231f20"/>
  <rect x="230.14" y="323.32" width="13.39" height="13.39" transform="translate(566.85 93.19) rotate(90)" fill="#231f20"/>
  <rect x="230.14" y="281.52" width="13.39" height="13.39" transform="translate(525.05 51.38) rotate(90)" fill="#231f20"/>
  <rect x="273.66" y="237.05" width="13.39" height="13.39" transform="translate(524.1 -36.62) rotate(90)" fill="#231f20"/>
  <rect x="230.68" y="236.68" width="13.39" height="13.39" transform="translate(480.75 6) rotate(90)" fill="#231f20"/>
  <rect x="230.68" y="193.24" width="13.39" height="13.39" transform="translate(437.32 -37.44) rotate(90)" fill="#231f20"/>
  <rect x="231.21" y="152.45" width="13.39" height="13.39" transform="translate(397.05 -78.77) rotate(90)" fill="#231f20"/>
  <rect x="274.21" y="322.95" width="13.39" height="13.39" transform="translate(610.55 48.75) rotate(90)" fill="#231f20"/>
  <rect x="317.13" y="323.32" width="13.39" height="13.39" transform="translate(653.85 6.19) rotate(90)" fill="#231f20"/>
  <rect x="361.2" y="322.95" width="13.39" height="13.39" transform="translate(697.55 -38.25) rotate(90)" fill="#231f20"/>
  <rect x="185.41" y="322.95" width="13.39" height="13.39" transform="translate(521.75 137.55) rotate(90)" fill="#231f20"/>
  <rect x="185.41" y="409.99" width="13.39" height="13.39" transform="translate(608.79 224.58) rotate(90)" fill="#231f20"/>
  <rect x="185.41" y="366.28" width="13.39" height="13.39" transform="translate(565.08 180.88) rotate(90)" fill="#231f20"/>
  <rect x="230.14" y="409.99" width="13.39" height="13.39" transform="translate(653.52 179.85) rotate(90)" fill="#231f20"/>
  <rect x="230.14" y="366.28" width="13.39" height="13.39" transform="translate(609.81 136.15) rotate(90)" fill="#231f20"/>
  <rect x="274.21" y="409.99" width="13.39" height="13.39" transform="translate(697.59 135.78) rotate(90)" fill="#231f20"/>
  <rect x="274.21" y="366.28" width="13.39" height="13.39" transform="translate(653.88 92.08) rotate(90)" fill="#231f20"/>
  <rect x="317.2" y="409.99" width="13.39" height="13.39" transform="translate(740.58 92.79) rotate(90)" fill="#231f20"/>
  <rect x="317.2" y="366.28" width="13.39" height="13.39" transform="translate(696.88 49.08) rotate(90)" fill="#231f20"/>
  <rect x="230.14" y="625.8" width="13.39" height="13.39" transform="translate(869.33 395.67) rotate(90)" fill="#231f20"/>
  <rect x="230.14" y="669.34" width="13.39" height="13.39" transform="translate(912.87 439.21) rotate(90)" fill="#231f20"/>
  <rect x="185.41" y="582.41" width="13.39" height="13.39" transform="translate(781.21 397) rotate(90)" fill="#231f20"/>
  <rect x="230.14" y="582.41" width="13.39" height="13.39" transform="translate(825.94 352.27) rotate(90)" fill="#231f20"/>
  <rect x="185.41" y="539.73" width="13.39" height="13.39" transform="translate(738.53 354.32) rotate(90)" fill="#231f20"/>
  <rect x="230.14" y="539.73" width="13.39" height="13.39" transform="translate(783.26 309.59) rotate(90)" fill="#231f20"/>
  <rect x="185.41" y="453.19" width="13.39" height="13.39" transform="translate(651.99 267.78) rotate(90)" fill="#231f20"/>
  <rect x="142.92" y="453.19" width="13.39" height="13.39" transform="translate(609.5 310.27) rotate(90)" fill="#231f20"/>
  <rect x="142.92" y="495.59" width="13.39" height="13.39" transform="translate(651.9 352.67) rotate(90)" fill="#231f20"/>
  <rect x="230.14" y="495.59" width="13.39" height="13.39" transform="translate(739.12 265.45) rotate(90)" fill="#231f20"/>
  <rect x="230.14" y="453.19" width="13.39" height="13.39" transform="translate(696.72 223.05) rotate(90)" fill="#231f20"/>
  <rect x="274.21" y="453.19" width="13.39" height="13.39" transform="translate(740.79 178.98) rotate(90)" fill="#231f20"/>
  <rect x="317.19" y="453.19" width="13.39" height="13.39" transform="translate(783.77 136) rotate(90)" fill="#231f20"/>
  <rect x="488.75" y="582.41" width="13.39" height="13.39" transform="translate(1084.56 93.66) rotate(90)" fill="#231f20"/>
  <rect x="488.75" y="539.73" width="13.39" height="13.39" transform="translate(1041.87 50.97) rotate(90)" fill="#231f20"/>
  <rect x="574.7" y="495.59" width="13.39" height="13.39" transform="translate(1083.69 -79.11) rotate(90)" fill="#231f20"/>
  <rect x="616.92" y="453.19" width="13.39" height="13.39" transform="translate(1083.5 -163.73) rotate(90)" fill="#231f20"/>
  <rect x="574.7" y="453.19" width="13.39" height="13.39" transform="translate(1041.28 -121.52) rotate(90)" fill="#231f20"/>
  <rect x="531.96" y="495.59" width="13.39" height="13.39" transform="translate(1040.95 -36.37) rotate(90)" fill="#231f20"/>
  <rect x="531.96" y="453.19" width="13.39" height="13.39" transform="translate(998.54 -78.78) rotate(90)" fill="#231f20"/>
  <rect x="488.75" y="495.59" width="13.39" height="13.39" transform="translate(997.74 6.84) rotate(90)" fill="#231f20"/>
  <rect x="790.44" y="495.59" width="13.39" height="13.39" transform="translate(1299.43 -294.85) rotate(90)" fill="#231f20"/>
  <rect x="748.23" y="495.59" width="13.39" height="13.39" transform="translate(1257.21 -252.64) rotate(90)" fill="#231f20"/>
  <rect x="705.49" y="495.59" width="13.39" height="13.39" transform="translate(1214.47 -209.9) rotate(90)" fill="#231f20"/>
  <rect x="662.28" y="495.59" width="13.39" height="13.39" transform="translate(1171.26 -166.69) rotate(90)" fill="#231f20"/>
  <rect x="876.71" y="495.59" width="13.39" height="13.39" transform="translate(1385.69 -381.12) rotate(90)" fill="#231f20"/>
  <rect x="834.49" y="495.59" width="13.39" height="13.39" transform="translate(1343.48 -338.9) rotate(90)" fill="#231f20"/>
  <rect x="965.28" y="495.59" width="13.39" height="13.39" transform="translate(1474.26 -469.69) rotate(90)" fill="#231f20"/>
  <rect x="922.07" y="495.59" width="13.39" height="13.39" transform="translate(1431.05 -426.48) rotate(90)" fill="#231f20"/>
  <rect x="876.71" y="453.19" width="13.39" height="13.39" transform="translate(1343.29 -423.52) rotate(90)" fill="#231f20"/>
  <rect x="834.49" y="453.19" width="13.39" height="13.39" transform="translate(1301.07 -381.3) rotate(90)" fill="#231f20"/>
  <rect x="834.49" y="582.47" width="13.39" height="13.39" transform="translate(1430.35 -252.02) rotate(90)" fill="#231f20"/>
  <rect x="877.35" y="582.47" width="13.39" height="13.39" transform="translate(1473.21 -294.88) rotate(90)" fill="#231f20"/>
  <rect x="834.49" y="540.06" width="13.39" height="13.39" transform="translate(1387.95 -294.43) rotate(90)" fill="#231f20"/>
  <rect x="965.28" y="453.19" width="13.39" height="13.39" transform="translate(1431.86 -512.09) rotate(90)" fill="#231f20"/>
  <rect x="965.28" y="409.36" width="13.39" height="13.39" transform="translate(1388.03 -555.91) rotate(90)" fill="#231f20"/>
  <rect x="922.07" y="409.36" width="13.39" height="13.39" transform="translate(1344.82 -512.71) rotate(90)" fill="#231f20"/>
  <rect x="965.28" y="366.96" width="13.39" height="13.39" transform="translate(1345.63 -598.32) rotate(90)" fill="#231f20"/>
  <rect x="922.07" y="453.19" width="13.39" height="13.39" transform="translate(1388.65 -468.88) rotate(90)" fill="#231f20"/>
  <rect x="703.19" y="453.19" width="13.39" height="13.39" transform="translate(1169.77 -250) rotate(90)" fill="#231f20"/>
  <rect x="660.97" y="453.19" width="13.39" height="13.39" transform="translate(1127.55 -207.78) rotate(90)" fill="#231f20"/>
  <rect x="661.41" y="409.99" width="13.39" height="13.39" transform="translate(1084.79 -251.42) rotate(90)" fill="#231f20"/>
  <rect x="661.41" y="367.28" width="13.39" height="13.39" transform="translate(1042.08 -294.12) rotate(90)" fill="#231f20"/>
  <rect x="661.41" y="322.54" width="13.39" height="13.39" transform="translate(997.34 -338.87) rotate(90)" fill="#231f20"/>
  <rect x="703.19" y="409.99" width="13.39" height="13.39" transform="translate(1126.57 -293.2) rotate(90)" fill="#231f20"/>
  <rect x="748.7" y="409.99" width="13.39" height="13.39" transform="translate(1172.08 -338.71) rotate(90)" fill="#231f20"/>
  <rect x="790.48" y="409.99" width="13.39" height="13.39" transform="translate(1213.86 -380.49) rotate(90)" fill="#231f20"/>
  <rect x="703.19" y="367.28" width="13.39" height="13.39" transform="translate(1083.86 -335.9) rotate(90)" fill="#231f20"/>
  <rect x="703.19" y="322.54" width="13.39" height="13.39" transform="translate(1039.12 -380.65) rotate(90)" fill="#231f20"/>
  <rect x="791.76" y="453.19" width="13.39" height="13.39" transform="translate(1258.34 -338.57) rotate(90)" fill="#231f20"/>
  <rect x="748.55" y="453.19" width="13.39" height="13.39" transform="translate(1215.13 -295.36) rotate(90)" fill="#231f20"/>
  <rect x="531.96" y="409.99" width="13.39" height="13.39" transform="translate(955.34 -121.98) rotate(90)" fill="#231f20"/>
  <rect x="574.7" y="409.99" width="13.39" height="13.39" transform="translate(998.08 -164.71) rotate(90)" fill="#231f20"/>
  <rect x="531.96" y="369.03" width="13.39" height="13.39" transform="translate(914.38 -162.94) rotate(90)" fill="#231f20"/>
  <rect x="488.75" y="409.99" width="13.39" height="13.39" transform="translate(912.13 -78.77) rotate(90)" fill="#231f20"/>
  <rect x="488.75" y="453.19" width="13.39" height="13.39" transform="translate(955.33 -35.57) rotate(90)" fill="#231f20"/>
  <rect x="488.75" y="369.03" width="13.39" height="13.39" transform="translate(871.17 -119.73) rotate(90)" fill="#231f20"/>
  <rect x="488.75" y="323.38" width="13.39" height="13.39" transform="translate(825.53 -165.38) rotate(90)" fill="#231f20"/>
  <rect x="531.96" y="323.14" width="13.39" height="13.39" transform="translate(868.49 -208.82) rotate(90)" fill="#231f20"/>
  <rect x="574.7" y="149.65" width="13.39" height="13.39" transform="translate(737.75 -425.05) rotate(90)" fill="#231f20"/>
  <rect x="574.7" y="237.07" width="13.39" height="13.39" transform="translate(825.16 -337.63) rotate(90)" fill="#231f20"/>
  <rect x="574.7" y="191.18" width="13.39" height="13.39" transform="translate(779.27 -383.52) rotate(90)" fill="#231f20"/>
  <rect x="574.7" y="21.2" width="13.39" height="13.39" transform="translate(609.29 -553.5) rotate(90)" fill="#231f20"/>
  <rect x="574.7" y="107.57" width="13.39" height="13.39" transform="translate(695.66 -467.14) rotate(90)" fill="#231f20"/>
  <rect x="574.7" y="63.76" width="13.39" height="13.39" transform="translate(651.86 -510.94) rotate(90)" fill="#231f20"/>
  <rect x="531.73" y="21.2" width="13.39" height="13.39" transform="translate(566.32 -510.53) rotate(90)" fill="#231f20"/>
  <rect x="531.73" y="107.57" width="13.39" height="13.39" transform="translate(652.69 -424.16) rotate(90)" fill="#231f20"/>
  <rect x="531.73" y="63.76" width="13.39" height="13.39" transform="translate(608.89 -467.96) rotate(90)" fill="#231f20"/>
  <rect x="703.83" y="149.65" width="13.39" height="13.39" transform="translate(866.88 -554.18) rotate(90)" fill="#231f20"/>
  <rect x="660.97" y="149.65" width="13.39" height="13.39" transform="translate(824.01 -511.32) rotate(90)" fill="#231f20"/>
  <rect x="660.97" y="106.71" width="13.39" height="13.39" transform="translate(781.07 -554.26) rotate(90)" fill="#231f20"/>
  <rect x="703.83" y="21.2" width="13.39" height="13.39" transform="translate(738.43 -682.64) rotate(90)" fill="#231f20"/>
  <rect x="703.83" y="107.57" width="13.39" height="13.39" transform="translate(824.79 -596.27) rotate(90)" fill="#231f20"/>
  <rect x="703.83" y="63.76" width="13.39" height="13.39" transform="translate(780.99 -640.07) rotate(90)" fill="#231f20"/>
  <rect x="746.95" y="21.2" width="13.39" height="13.39" transform="translate(781.55 -725.75) rotate(90)" fill="#231f20"/>
  <rect x="789.84" y="21.2" width="13.39" height="13.39" transform="translate(824.43 -768.64) rotate(90)" fill="#231f20"/>
  <rect x="746.95" y="63.76" width="13.39" height="13.39" transform="translate(824.11 -683.19) rotate(90)" fill="#231f20"/>
  <rect x="445.78" y="582.41" width="13.39" height="13.39" transform="translate(1041.58 136.63) rotate(90)" fill="#231f20"/>
  <rect x="445.78" y="539.73" width="13.39" height="13.39" transform="translate(998.9 93.95) rotate(90)" fill="#231f20"/>
  <rect x="445.78" y="495.59" width="13.39" height="13.39" transform="translate(954.77 49.81) rotate(90)" fill="#231f20"/>
  <rect x="445.78" y="409.99" width="13.39" height="13.39" transform="translate(869.16 -35.79) rotate(90)" fill="#231f20"/>
  <rect x="445.78" y="367.51" width="13.39" height="13.39" transform="translate(826.69 -78.27) rotate(90)" fill="#231f20"/>
</svg>