<?xml version="1.0" encoding="UTF-8"?>
<svg id="_8" data-name="8" xmlns="http://www.w3.org/2000/svg" viewBox="0 0 1080 1080">
  <rect x="215.9" y="217.94" width="40.84" height="40.84" fill="#231f20"/>
  <rect x="215.9" y="261.43" width="40.84" height="40.84" fill="#231f20"/>
  <rect x="215.59" y="131.96" width="40.84" height="40.84" fill="#231f20"/>
  <rect x="215.9" y="174.8" width="40.84" height="40.84" fill="#231f20"/>
  <rect x="302.47" y="89.01" width="40.84" height="40.84" fill="#231f20"/>
  <rect x="302.47" y="1.86" width="40.84" height="40.84" fill="#231f20"/>
  <rect x="302.47" y="45.44" width="40.84" height="40.84" fill="#231f20"/>
  <rect x="518.32" y="45.44" width="40.84" height="40.84" fill="#231f20"/>
  <rect x="518.32" y="1.86" width="40.84" height="40.84" fill="#231f20"/>
  <rect x="518.32" y="89.01" width="40.84" height="40.84" fill="#231f20"/>
  <rect x="518.32" y="132.04" width="40.84" height="40.84" fill="#231f20"/>
  <rect x="518.32" y="174.39" width="40.84" height="40.84" fill="#231f20"/>
  <rect x="474.93" y="217.94" width="40.84" height="40.84" fill="#231f20"/>
  <rect x="518.6" y="217.94" width="40.84" height="40.84" fill="#231f20"/>
  <rect x="475.05" y="261.43" width="40.84" height="40.84" fill="#231f20"/>
  <rect x="475.05" y="304.04" width="40.84" height="40.84" fill="#231f20"/>
  <rect x="388.84" y="347.64" width="40.84" height="40.84" fill="#231f20"/>
  <rect x="345.36" y="347.64" width="40.84" height="40.84" fill="#231f20"/>
  <rect x="302.97" y="347.64" width="40.84" height="40.84" fill="#231f20"/>
  <rect x="345.36" y="390.78" width="40.84" height="40.84" fill="#231f20"/>
  <rect x="43.5" y="347.64" width="40.84" height="40.84" fill="#231f20"/>
  <rect x="43.5" y="390.78" width="40.84" height="40.84" fill="#231f20"/>
  <rect x=".02" y="347.64" width="40.84" height="40.84" fill="#231f20"/>
  <rect x=".02" y="390.78" width="40.84" height="40.84" fill="#231f20"/>
  <rect x="648.04" y="390.78" width="40.84" height="40.84" fill="#231f20"/>
  <rect x="690.36" y="347.64" width="40.84" height="40.84" fill="#231f20"/>
  <rect x="734.39" y="131.62" width="40.84" height="40.84" fill="#231f20"/>
  <rect x="820.52" y="132.04" width="40.84" height="40.84" fill="#231f20"/>
  <rect x="820.52" y="89.01" width="40.84" height="40.84" fill="#231f20"/>
  <rect x="648.26" y="89.01" width="40.84" height="40.84" fill="#231f20"/>
  <rect x="648.26" y="132.04" width="40.84" height="40.84" fill="#231f20"/>
  <rect x="604.84" y="132.04" width="40.84" height="40.84" fill="#231f20"/>
  <rect x="561.58" y="132.04" width="40.84" height="40.84" fill="#231f20"/>
  <rect x="648.26" y="45.44" width="40.84" height="40.84" fill="#231f20"/>
  <rect x="648.26" y="1.86" width="40.84" height="40.84" fill="#231f20"/>
  <rect x="821.08" y="217.94" width="40.84" height="40.84" fill="#231f20"/>
  <rect x="734.39" y="175.37" width="40.84" height="40.84" fill="#231f20"/>
  <rect x="734.39" y="217.94" width="40.84" height="40.84" fill="#231f20"/>
  <rect x="734.39" y="261.43" width="40.84" height="40.84" fill="#231f20"/>
  <rect x="777.56" y="304.04" width="40.84" height="40.84" fill="#231f20"/>
  <rect x="777.56" y="347.64" width="40.84" height="40.84" fill="#231f20"/>
  <rect x="863.88" y="390.78" width="40.84" height="40.84" fill="#231f20"/>
  <rect x="820.74" y="390.78" width="40.84" height="40.84" fill="#231f20"/>
  <rect x="820.74" y="434.29" width="40.84" height="40.84" fill="#231f20"/>
  <rect x="863.88" y="434.29" width="40.84" height="40.84" fill="#231f20"/>
  <rect x="734.39" y="390.78" width="40.84" height="40.84" fill="#231f20"/>
  <rect x="691.37" y="217.94" width="40.84" height="40.84" fill="#231f20"/>
  <rect x="604.56" y="434.29" width="40.84" height="40.84" fill="#231f20"/>
  <rect x="561.66" y="304.04" width="40.84" height="40.84" fill="#231f20"/>
  <rect x="561.66" y="261.43" width="40.84" height="40.84" fill="#231f20"/>
  <rect x="604.84" y="217.94" width="40.84" height="40.84" fill="#231f20"/>
  <rect x="518.18" y="347.64" width="40.84" height="40.84" fill="#231f20"/>
  <rect x="474.93" y="390.78" width="40.84" height="40.84" fill="#231f20"/>
  <rect x="215.59" y="520.32" width="40.84" height="40.84" fill="#231f20"/>
  <rect x="172.57" y="520.32" width="40.84" height="40.84" fill="#231f20"/>
  <rect x="215.59" y="564.12" width="40.84" height="40.84" fill="#231f20"/>
  <rect x="172.57" y="564.12" width="40.84" height="40.84" fill="#231f20"/>
  <rect x="172.57" y="606.93" width="40.84" height="40.84" fill="#231f20"/>
  <rect x="129.54" y="520.32" width="40.84" height="40.84" fill="#231f20"/>
  <rect x="86.52" y="520.32" width="40.84" height="40.84" fill="#231f20"/>
  <rect x=".47" y="520.32" width="40.84" height="40.84" fill="#231f20"/>
  <rect x="129.54" y="606.93" width="40.84" height="40.84" fill="#231f20"/>
  <rect x="86.52" y="606.93" width="40.84" height="40.84" fill="#231f20"/>
  <rect x="172.57" y="650.21" width="40.84" height="40.84" fill="#231f20"/>
  <rect x="129.54" y="650.21" width="40.84" height="40.84" fill="#231f20"/>
  <rect x="86.52" y="650.21" width="40.84" height="40.84" fill="#231f20"/>
  <rect x="43.49" y="606.93" width="40.84" height="40.84" fill="#231f20"/>
  <rect y="606.93" width="40.84" height="40.84" fill="#231f20"/>
  <rect y="650.21" width="40.84" height="40.84" fill="#231f20"/>
  <rect y="692.62" width="40.84" height="40.84" fill="#231f20"/>
  <rect x="43.23" y="736.16" width="40.84" height="40.84" fill="#231f20"/>
  <rect x="258.62" y="822.62" width="40.84" height="40.84" fill="#231f20"/>
  <rect x="215.59" y="822.62" width="40.84" height="40.84" fill="#231f20"/>
  <rect x="172.57" y="822.62" width="40.84" height="40.84" fill="#231f20"/>
  <rect x="129.54" y="822.62" width="40.84" height="40.84" fill="#231f20"/>
  <rect x="86.52" y="822.62" width="40.84" height="40.84" fill="#231f20"/>
  <rect x="43.49" y="822.62" width="40.84" height="40.84" fill="#231f20"/>
  <rect x=".47" y="822.62" width="40.84" height="40.84" fill="#231f20"/>
  <rect x="258.62" y="779.34" width="40.84" height="40.84" fill="#231f20"/>
  <rect x="302.61" y="779.34" width="40.84" height="40.84" fill="#231f20"/>
  <rect x="345.64" y="692.62" width="40.84" height="40.84" fill="#231f20"/>
  <rect x="302.61" y="822.62" width="40.84" height="40.84" fill="#231f20"/>
  <rect x="215.59" y="779.34" width="40.84" height="40.84" fill="#231f20"/>
  <rect x="172.57" y="779.34" width="40.84" height="40.84" fill="#231f20"/>
  <rect x="475.26" y="779.34" width="40.84" height="40.84" fill="#231f20"/>
  <rect x="647.92" y="909.39" width="40.84" height="40.84" fill="#231f20"/>
  <rect x="777.5" y="909.39" width="40.84" height="40.84" fill="#231f20"/>
  <rect x="820.63" y="909.39" width="40.84" height="40.84" fill="#231f20"/>
  <rect x="993.16" y="736.16" width="40.84" height="40.84" fill="#231f20"/>
  <rect x="777.5" y="952.39" width="40.84" height="40.84" fill="#231f20"/>
  <rect x="734.37" y="952.39" width="40.84" height="40.84" fill="#231f20"/>
  <rect x="561.66" y="909.39" width="40.84" height="40.84" fill="#231f20"/>
  <rect x="432.24" y="779.34" width="40.84" height="40.84" fill="#231f20"/>
  <rect x="389.21" y="779.34" width="40.84" height="40.84" fill="#231f20"/>
  <rect x="129.54" y="779.34" width="40.84" height="40.84" fill="#231f20"/>
  <rect x="86.52" y="779.34" width="40.84" height="40.84" fill="#231f20"/>
  <rect x="43.49" y="779.34" width="40.84" height="40.84" fill="#231f20"/>
  <rect y="779.34" width="40.84" height="40.84" fill="#231f20"/>
  <rect x="258.62" y="866.12" width="40.84" height="40.84" fill="#231f20"/>
  <rect x="215.59" y="866.12" width="40.84" height="40.84" fill="#231f20"/>
  <rect x="172.57" y="866.12" width="40.84" height="40.84" fill="#231f20"/>
  <rect x="129.54" y="866.12" width="40.84" height="40.84" fill="#231f20"/>
  <rect x="86.52" y="866.12" width="40.84" height="40.84" fill="#231f20"/>
  <rect x="43.49" y="866.12" width="40.84" height="40.84" fill="#231f20"/>
  <rect x=".47" y="866.12" width="40.84" height="40.84" fill="#231f20"/>
  <rect x="86.52" y="909.39" width="40.84" height="40.84" fill="#231f20"/>
  <rect x="43.49" y="909.39" width="40.84" height="40.84" fill="#231f20"/>
  <rect x=".47" y="909.39" width="40.84" height="40.84" fill="#231f20"/>
  <rect x="86.52" y="952.39" width="40.84" height="40.84" fill="#231f20"/>
  <rect x="43.49" y="952.39" width="40.84" height="40.84" fill="#231f20"/>
  <rect x=".47" y="952.39" width="40.84" height="40.84" fill="#231f20"/>
  <rect x="86.52" y="995.48" width="40.84" height="40.84" fill="#231f20"/>
  <rect x="43.49" y="995.48" width="40.84" height="40.84" fill="#231f20"/>
  <rect x=".47" y="995.48" width="40.84" height="40.84" fill="#231f20"/>
  <rect x="86.52" y="1039.16" width="40.84" height="40.84" fill="#231f20"/>
  <rect x="43.49" y="1039.16" width="40.84" height="40.84" fill="#231f20"/>
  <rect x=".47" y="1039.16" width="40.84" height="40.84" fill="#231f20"/>
  <rect x="172.84" y="217.94" width="40.84" height="40.84" fill="#231f20"/>
  <rect x="172.53" y="131.96" width="40.84" height="40.84" fill="#231f20"/>
  <rect x="172.84" y="174.8" width="40.84" height="40.84" fill="#231f20"/>
  <rect x="86.49" y="174.8" width="40.84" height="40.84" fill="#231f20"/>
  <rect x=".25" y="2.47" width="40.84" height="40.84" fill="#231f20"/>
  <rect x="43.27" y="2.47" width="40.84" height="40.84" fill="#231f20"/>
  <rect x="43.14" y="45.44" width="40.84" height="40.84" fill="#231f20"/>
  <rect x="86.49" y="217.94" width="40.84" height="40.84" fill="#231f20"/>
  <rect x="129.47" y="217.94" width="40.84" height="40.84" fill="#231f20"/>
  <rect x="445.17" y="189.09" width="13.39" height="13.39" fill="#231f20"/>
  <rect x="403.22" y="189.09" width="13.39" height="13.39" fill="#231f20"/>
  <rect x="358.64" y="189.09" width="13.39" height="13.39" fill="#231f20"/>
  <rect x="316.7" y="189.09" width="13.39" height="13.39" fill="#231f20"/>
  <rect x="445.17" y="145.76" width="13.39" height="13.39" fill="#231f20"/>
  <rect x="403.22" y="145.76" width="13.39" height="13.39" fill="#231f20"/>
  <rect x="358.64" y="145.76" width="13.39" height="13.39" fill="#231f20"/>
  <rect x="445.17" y="103.98" width="13.39" height="13.39" fill="#231f20"/>
  <rect x="403.22" y="103.98" width="13.39" height="13.39" fill="#231f20"/>
  <rect x="358.64" y="103.98" width="13.39" height="13.39" fill="#231f20"/>
  <rect x="445.17" y="60.65" width="13.39" height="13.39" fill="#231f20"/>
  <rect x="403.22" y="60.65" width="13.39" height="13.39" fill="#231f20"/>
  <rect x="358.64" y="60.65" width="13.39" height="13.39" fill="#231f20"/>
  <rect x="445.17" y="15.59" width="13.39" height="13.39" fill="#231f20"/>
  <rect x="748.11" y="104.16" width="13.39" height="13.39" fill="#231f20"/>
  <rect x="748.11" y="60.83" width="13.39" height="13.39" fill="#231f20"/>
  <rect x="705.09" y="190.33" width="13.39" height="13.39" fill="#231f20"/>
  <rect x="661.98" y="190.33" width="13.39" height="13.39" fill="#231f20"/>
  <rect x="661.98" y="231.66" width="13.39" height="13.39" fill="#231f20"/>
  <rect x="575.45" y="231.66" width="13.39" height="13.39" fill="#231f20"/>
  <rect x="705.09" y="147.01" width="13.39" height="13.39" fill="#231f20"/>
  <rect x="705.22" y="317.76" width="13.39" height="13.39" fill="#231f20"/>
  <rect x="748.11" y="317.76" width="13.39" height="13.39" fill="#231f20"/>
  <rect x="705.09" y="275.15" width="13.39" height="13.39" fill="#231f20"/>
  <rect x="532.04" y="275.15" width="13.39" height="13.39" fill="#231f20"/>
  <rect x="618.57" y="275.15" width="13.39" height="13.39" fill="#231f20"/>
  <rect x="618.57" y="317.76" width="13.39" height="13.39" fill="#231f20"/>
  <rect x="661.83" y="275.15" width="13.39" height="13.39" fill="#231f20"/>
  <rect x="661.77" y="361.36" width="13.39" height="13.39" fill="#231f20"/>
  <rect x="618.29" y="404.5" width="13.39" height="13.39" fill="#231f20"/>
  <rect x="575.38" y="448.01" width="13.39" height="13.39" fill="#231f20"/>
  <rect x="575.38" y="490.48" width="13.39" height="13.39" fill="#231f20"/>
  <rect x="661.77" y="317.76" width="13.39" height="13.39" fill="#231f20"/>
  <rect x="748.11" y="15.76" width="13.39" height="13.39" fill="#231f20"/>
  <rect x="834.8" y="60.83" width="13.39" height="13.39" fill="#231f20"/>
  <rect x="834.8" y="15.76" width="13.39" height="13.39" fill="#231f20"/>
  <rect x="706.01" y="60.83" width="13.39" height="13.39" fill="#231f20"/>
  <rect x="706.01" y="15.76" width="13.39" height="13.39" fill="#231f20"/>
  <rect x="403.22" y="15.59" width="13.39" height="13.39" fill="#231f20"/>
  <rect x="358.64" y="15.59" width="13.39" height="13.39" fill="#231f20"/>
  <rect x="316.7" y="145.76" width="13.39" height="13.39" fill="#231f20"/>
  <rect x="273.74" y="189.09" width="13.39" height="13.39" fill="#231f20"/>
  <rect x="445.17" y="231.66" width="13.39" height="13.39" fill="#231f20"/>
  <rect x="403.22" y="231.66" width="13.39" height="13.39" fill="#231f20"/>
  <rect x="358.64" y="231.66" width="13.39" height="13.39" fill="#231f20"/>
  <rect x="316.7" y="231.66" width="13.39" height="13.39" fill="#231f20"/>
  <rect x="273.74" y="231.66" width="13.39" height="13.39" fill="#231f20"/>
  <rect x="403.22" y="275.15" width="13.39" height="13.39" fill="#231f20"/>
  <rect x="358.64" y="275.15" width="13.39" height="13.39" fill="#231f20"/>
  <rect x="316.7" y="275.15" width="13.39" height="13.39" fill="#231f20"/>
  <rect x="273.74" y="275.15" width="13.39" height="13.39" fill="#231f20"/>
  <rect x="185.65" y="275.15" width="13.39" height="13.39" fill="#231f20"/>
  <rect x="143.7" y="275.15" width="13.39" height="13.39" fill="#231f20"/>
  <rect x="100.74" y="275.15" width="13.39" height="13.39" fill="#231f20"/>
  <rect x="56.79" y="275.15" width="13.39" height="13.39" fill="#231f20"/>
  <rect x="185.65" y="317.76" width="13.39" height="13.39" fill="#231f20"/>
  <rect x="143.7" y="317.76" width="13.39" height="13.39" fill="#231f20"/>
  <rect x="100.74" y="317.76" width="13.39" height="13.39" fill="#231f20"/>
  <rect x="56.79" y="317.76" width="13.39" height="13.39" fill="#231f20"/>
  <rect x="13.74" y="317.76" width="13.39" height="13.39" fill="#231f20"/>
  <rect x="13.84" y="275.15" width="13.39" height="13.39" fill="#231f20"/>
  <rect x="56.79" y="189.21" width="13.39" height="13.39" fill="#231f20"/>
  <rect x="56.79" y="231.66" width="13.39" height="13.39" fill="#231f20"/>
  <rect x="13.84" y="231.66" width="13.39" height="13.39" fill="#231f20"/>
  <rect x="13.84" y="189.21" width="13.39" height="13.39" fill="#231f20"/>
  <rect x="56.79" y="145.76" width="13.39" height="13.39" fill="#231f20"/>
  <rect x="13.84" y="145.76" width="13.39" height="13.39" fill="#231f20"/>
  <rect x="56.79" y="101.89" width="13.39" height="13.39" fill="#231f20"/>
  <rect x="13.84" y="101.89" width="13.39" height="13.39" fill="#231f20"/>
  <rect x="144.26" y="145.76" width="13.39" height="13.39" fill="#231f20"/>
  <rect x="144.26" y="189.21" width="13.39" height="13.39" fill="#231f20"/>
  <rect x="101.3" y="145.76" width="13.39" height="13.39" fill="#231f20"/>
  <rect x="144.26" y="101.89" width="13.39" height="13.39" fill="#231f20"/>
  <rect x="101.3" y="101.89" width="13.39" height="13.39" fill="#231f20"/>
  <rect x="144.26" y="60.67" width="13.39" height="13.39" fill="#231f20"/>
  <rect x="101.3" y="60.67" width="13.39" height="13.39" fill="#231f20"/>
  <rect x="144.26" y="16.81" width="13.39" height="13.39" fill="#231f20"/>
  <rect x="101.3" y="16.81" width="13.39" height="13.39" fill="#231f20"/>
  <rect x="231.72" y="60.67" width="13.39" height="13.39" fill="#231f20"/>
  <rect x="188.76" y="60.67" width="13.39" height="13.39" fill="#231f20"/>
  <rect x="231.72" y="16.81" width="13.39" height="13.39" fill="#231f20"/>
  <rect x="273.74" y="60.67" width="13.39" height="13.39" fill="#231f20"/>
  <rect x="231.72" y="101.89" width="13.39" height="13.39" fill="#231f20"/>
  <rect x="188.76" y="101.89" width="13.39" height="13.39" fill="#231f20"/>
  <rect x="273.74" y="101.89" width="13.39" height="13.39" fill="#231f20"/>
  <rect x="273.74" y="145.49" width="13.39" height="13.39" fill="#231f20"/>
  <rect x="273.74" y="16.81" width="13.39" height="13.39" fill="#231f20"/>
  <rect x="188.76" y="16.81" width="13.39" height="13.39" fill="#231f20"/>
  <rect x="13.84" y="59.71" width="13.39" height="13.39" fill="#231f20"/>
  <rect x="358.64" y="317.76" width="13.39" height="13.39" fill="#231f20"/>
  <rect x="316.7" y="317.76" width="13.39" height="13.39" fill="#231f20"/>
  <rect x="445.03" y="317.76" width="13.39" height="13.39" fill="#231f20"/>
  <rect x="445.03" y="361.36" width="13.39" height="13.39" fill="#231f20"/>
  <rect x="403.08" y="317.76" width="13.39" height="13.39" fill="#231f20"/>
  <rect x="273.74" y="317.76" width="13.39" height="13.39" fill="#231f20"/>
  <rect x="229.31" y="317.76" width="13.39" height="13.39" fill="#231f20"/>
  <rect x="185.65" y="361.36" width="13.39" height="13.39" fill="#231f20"/>
  <rect x="143.7" y="361.36" width="13.39" height="13.39" fill="#231f20"/>
  <rect x="101.3" y="361.36" width="13.39" height="13.39" fill="#231f20"/>
  <rect x="273.74" y="361.36" width="13.39" height="13.39" fill="#231f20"/>
  <rect x="229.31" y="361.36" width="13.39" height="13.39" fill="#231f20"/>
  <rect x="229.31" y="404.5" width="13.39" height="13.39" fill="#231f20"/>
  <rect x="273.74" y="404.5" width="13.39" height="13.39" fill="#231f20"/>
  <rect x="316.7" y="404.5" width="13.39" height="13.39" fill="#231f20"/>
  <rect x="143.27" y="404.5" width="13.39" height="13.39" fill="#231f20"/>
  <rect x="100.74" y="404.5" width="13.39" height="13.39" fill="#231f20"/>
  <rect x="186.53" y="404.5" width="13.39" height="13.39" fill="#231f20"/>
  <rect x="98.41" y="448.01" width="13.39" height="13.39" fill="#231f20"/>
  <rect x="142.84" y="448.01" width="13.39" height="13.39" fill="#231f20"/>
  <rect x="185.65" y="448.01" width="13.39" height="13.39" fill="#231f20"/>
  <rect x="229.31" y="620.65" width="13.39" height="13.39" fill="#231f20"/>
  <rect x="229.31" y="663.93" width="13.39" height="13.39" fill="#231f20"/>
  <rect x="229.31" y="706.34" width="13.39" height="13.39" fill="#231f20"/>
  <rect x="229.05" y="749.88" width="13.39" height="13.39" fill="#231f20"/>
  <rect x="13.72" y="490.48" width="13.39" height="13.39" fill="#231f20"/>
  <rect x="57.22" y="490.48" width="13.39" height="13.39" fill="#231f20"/>
  <rect x="57.22" y="534.04" width="13.39" height="13.39" fill="#231f20"/>
  <rect x="98.91" y="490.48" width="13.39" height="13.39" fill="#231f20"/>
  <rect x="143.66" y="490.48" width="13.39" height="13.39" fill="#231f20"/>
  <rect x="187.16" y="490.48" width="13.39" height="13.39" fill="#231f20"/>
  <rect x="228.85" y="490.48" width="13.39" height="13.39" fill="#231f20"/>
  <rect x="316.05" y="490.48" width="13.39" height="13.39" fill="#231f20"/>
  <rect x="359.55" y="490.48" width="13.39" height="13.39" fill="#231f20"/>
  <rect x="401.24" y="490.48" width="13.39" height="13.39" fill="#231f20"/>
  <rect x="403.21" y="448.01" width="13.39" height="13.39" fill="#231f20"/>
  <rect x="444.9" y="448.01" width="13.39" height="13.39" fill="#231f20"/>
  <rect x="444.9" y="490.48" width="13.39" height="13.39" fill="#231f20"/>
  <rect x="488.4" y="448.01" width="13.39" height="13.39" fill="#231f20"/>
  <rect x="532.33" y="448.01" width="13.39" height="13.39" fill="#231f20"/>
  <rect x="575.38" y="404.5" width="13.39" height="13.39" fill="#231f20"/>
  <rect x="618.29" y="361.36" width="13.39" height="13.39" fill="#231f20"/>
  <rect x="575.38" y="361.36" width="13.39" height="13.39" fill="#231f20"/>
  <rect x="532.33" y="404.5" width="13.39" height="13.39" fill="#231f20"/>
  <rect x="13.72" y="577.85" width="13.39" height="13.39" fill="#231f20"/>
  <rect x="57.22" y="577.85" width="13.39" height="13.39" fill="#231f20"/>
  <rect x="57.22" y="663.93" width="13.39" height="13.39" fill="#231f20"/>
  <rect x="98.91" y="577.85" width="13.39" height="13.39" fill="#231f20"/>
  <rect x="142.41" y="577.85" width="13.39" height="13.39" fill="#231f20"/>
  <rect x="58.5" y="706.34" width="13.39" height="13.39" fill="#231f20"/>
  <rect x="102" y="706.34" width="13.39" height="13.39" fill="#231f20"/>
  <rect x="143.69" y="706.34" width="13.39" height="13.39" fill="#231f20"/>
  <rect x="187.19" y="706.34" width="13.39" height="13.39" fill="#231f20"/>
  <rect x="101.73" y="749.88" width="13.39" height="13.39" fill="#231f20"/>
  <rect x="13.92" y="749.88" width="13.39" height="13.39" fill="#231f20"/>
  <rect x="143.42" y="749.88" width="13.39" height="13.39" fill="#231f20"/>
  <rect x="186.92" y="749.88" width="13.39" height="13.39" fill="#231f20"/>
  <rect x="359.09" y="749.88" width="13.39" height="13.39" fill="#231f20"/>
  <rect x="273.47" y="749.88" width="13.39" height="13.39" fill="#231f20"/>
  <rect x="316.97" y="749.88" width="13.39" height="13.39" fill="#231f20"/>
  <rect x="273.74" y="706.34" width="13.39" height="13.39" fill="#231f20"/>
  <rect x="317.24" y="706.34" width="13.39" height="13.39" fill="#231f20"/>
  <rect x="445.67" y="706.34" width="13.39" height="13.39" fill="#231f20"/>
  <rect x="403.54" y="706.34" width="13.39" height="13.39" fill="#231f20"/>
  <rect x="490.09" y="706.34" width="13.39" height="13.39" fill="#231f20"/>
  <rect x="533.59" y="706.34" width="13.39" height="13.39" fill="#231f20"/>
  <rect x="445.67" y="663.93" width="13.39" height="13.39" fill="#231f20"/>
  <rect x="403.54" y="663.93" width="13.39" height="13.39" fill="#231f20"/>
  <rect x="490.09" y="663.93" width="13.39" height="13.39" fill="#231f20"/>
  <rect x="533.59" y="663.93" width="13.39" height="13.39" fill="#231f20"/>
  <rect x="533.59" y="620.65" width="13.39" height="13.39" fill="#231f20"/>
  <rect x="575.38" y="620.65" width="13.39" height="13.39" fill="#231f20"/>
  <rect x="618.43" y="577.85" width="13.39" height="13.39" fill="#231f20"/>
  <rect x="618.43" y="620.65" width="13.39" height="13.39" fill="#231f20"/>
  <rect x="575.38" y="577.85" width="13.39" height="13.39" fill="#231f20"/>
  <rect x="488.4" y="577.85" width="13.39" height="13.39" fill="#231f20"/>
  <rect x="446.9" y="577.85" width="13.39" height="13.39" fill="#231f20"/>
  <rect x="445.4" y="749.88" width="13.39" height="13.39" fill="#231f20"/>
  <rect x="403.27" y="749.88" width="13.39" height="13.39" fill="#231f20"/>
  <rect x="489.82" y="749.88" width="13.39" height="13.39" fill="#231f20"/>
  <rect x="533.32" y="749.88" width="13.39" height="13.39" fill="#231f20"/>
  <rect x="575.38" y="706.34" width="13.39" height="13.39" fill="#231f20"/>
  <rect x="620.25" y="706.34" width="13.39" height="13.39" fill="#231f20"/>
  <rect x="662.04" y="706.34" width="13.39" height="13.39" fill="#231f20"/>
  <rect x="575.11" y="749.88" width="13.39" height="13.39" fill="#231f20"/>
  <rect x="575.38" y="793.06" width="13.39" height="13.39" fill="#231f20"/>
  <rect x="575.38" y="836.35" width="13.39" height="13.39" fill="#231f20"/>
  <rect x="617.17" y="793.06" width="13.39" height="13.39" fill="#231f20"/>
  <rect x="662.32" y="793.06" width="13.39" height="13.39" fill="#231f20"/>
  <rect x="704.11" y="793.06" width="13.39" height="13.39" fill="#231f20"/>
  <rect x="662.06" y="749.88" width="13.39" height="13.39" fill="#231f20"/>
  <rect x="703.85" y="749.88" width="13.39" height="13.39" fill="#231f20"/>
  <rect x="878.42" y="793.06" width="13.39" height="13.39" fill="#231f20"/>
  <rect x="878.15" y="749.88" width="13.39" height="13.39" fill="#231f20"/>
  <rect x="921.17" y="793.06" width="13.39" height="13.39" fill="#231f20"/>
  <rect x="964" y="793.06" width="13.39" height="13.39" fill="#231f20"/>
  <rect x="963.73" y="749.88" width="13.39" height="13.39" fill="#231f20"/>
  <rect x="920.9" y="749.88" width="13.39" height="13.39" fill="#231f20"/>
  <rect x="878.42" y="879.84" width="13.39" height="13.39" fill="#231f20"/>
  <rect x="835.5" y="879.84" width="13.39" height="13.39" fill="#231f20"/>
  <rect x="878.42" y="836.35" width="13.39" height="13.39" fill="#231f20"/>
  <rect x="921.17" y="836.35" width="13.39" height="13.39" fill="#231f20"/>
  <rect x="921.17" y="879.84" width="13.39" height="13.39" fill="#231f20"/>
  <rect x="878.42" y="966.12" width="13.39" height="13.39" fill="#231f20"/>
  <rect x="878.42" y="1009.2" width="13.39" height="13.39" fill="#231f20"/>
  <rect x="834.35" y="1009.2" width="13.39" height="13.39" fill="#231f20"/>
  <rect x="921.17" y="966.12" width="13.39" height="13.39" fill="#231f20"/>
  <rect x="921.17" y="923.11" width="13.39" height="13.39" fill="#231f20"/>
  <rect x="964" y="966.12" width="13.39" height="13.39" fill="#231f20"/>
  <rect x="1008.23" y="1009.2" width="13.39" height="13.39" fill="#231f20"/>
  <rect x="1008.23" y="923.11" width="13.39" height="13.39" fill="#231f20"/>
  <rect x="1008.23" y="879.84" width="13.39" height="13.39" fill="#231f20"/>
  <rect x="1008.23" y="836.35" width="13.39" height="13.39" fill="#231f20"/>
  <rect x="1050.3" y="836.35" width="13.39" height="13.39" fill="#231f20"/>
  <rect x="964" y="923.11" width="13.39" height="13.39" fill="#231f20"/>
  <rect x="748.44" y="749.88" width="13.39" height="13.39" fill="#231f20"/>
  <rect x="834.46" y="663.93" width="13.39" height="13.39" fill="#231f20"/>
  <rect x="790.5" y="663.93" width="13.39" height="13.39" fill="#231f20"/>
  <rect x="877.97" y="620.65" width="13.39" height="13.39" fill="#231f20"/>
  <rect x="834.01" y="620.65" width="13.39" height="13.39" fill="#231f20"/>
  <rect x="921.57" y="577.85" width="13.39" height="13.39" fill="#231f20"/>
  <rect x="878.42" y="577.85" width="13.39" height="13.39" fill="#231f20"/>
  <rect x="921.57" y="534.04" width="13.39" height="13.39" fill="#231f20"/>
  <rect x="921.57" y="706.34" width="13.39" height="13.39" fill="#231f20"/>
  <rect x="878.42" y="706.34" width="13.39" height="13.39" fill="#231f20"/>
  <rect x="1007.15" y="706.34" width="13.39" height="13.39" fill="#231f20"/>
  <rect x="964" y="706.34" width="13.39" height="13.39" fill="#231f20"/>
  <rect x="1007.15" y="663.93" width="13.39" height="13.39" fill="#231f20"/>
  <rect x="1050.3" y="620.65" width="13.39" height="13.39" fill="#231f20"/>
  <rect x="1050.3" y="577.85" width="13.39" height="13.39" fill="#231f20"/>
  <rect x="1050.3" y="534.04" width="13.39" height="13.39" fill="#231f20"/>
  <rect x="1050.3" y="490.48" width="13.39" height="13.39" fill="#231f20"/>
  <rect x="1050.3" y="448.01" width="13.39" height="13.39" fill="#231f20"/>
  <rect x="1050.3" y="404.5" width="13.39" height="13.39" fill="#231f20"/>
  <rect x="964.36" y="620.65" width="13.39" height="13.39" fill="#231f20"/>
  <rect x="964.36" y="577.85" width="13.39" height="13.39" fill="#231f20"/>
  <rect x="1008.23" y="620.65" width="13.39" height="13.39" fill="#231f20"/>
  <rect x="1008.23" y="577.85" width="13.39" height="13.39" fill="#231f20"/>
  <rect x="1008.23" y="793.06" width="13.39" height="13.39" fill="#231f20"/>
  <rect x="964" y="663.93" width="13.39" height="13.39" fill="#231f20"/>
  <rect x="921.57" y="663.93" width="13.39" height="13.39" fill="#231f20"/>
  <rect x="921.57" y="490.48" width="13.39" height="13.39" fill="#231f20"/>
  <rect x="964.19" y="490.48" width="13.39" height="13.39" fill="#231f20"/>
  <rect x="964.19" y="448.01" width="13.39" height="13.39" fill="#231f20"/>
  <rect x="921.17" y="448.01" width="13.39" height="13.39" fill="#231f20"/>
  <rect x="964.19" y="404.5" width="13.39" height="13.39" fill="#231f20"/>
  <rect x="964.19" y="361.36" width="13.39" height="13.39" fill="#231f20"/>
  <rect x="1007.58" y="404.5" width="13.39" height="13.39" fill="#231f20"/>
  <rect x="1007.58" y="361.36" width="13.39" height="13.39" fill="#231f20"/>
  <rect x="1007.58" y="317.76" width="13.39" height="13.39" fill="#231f20"/>
  <rect x="834.24" y="361.36" width="13.39" height="13.39" fill="#231f20"/>
  <rect x="834.24" y="317.76" width="13.39" height="13.39" fill="#231f20"/>
  <rect x="877.21" y="361.36" width="13.39" height="13.39" fill="#231f20"/>
  <rect x="877.21" y="317.76" width="13.39" height="13.39" fill="#231f20"/>
  <rect x="1007.58" y="275.15" width="13.39" height="13.39" fill="#231f20"/>
  <rect x="921.57" y="317.76" width="13.39" height="13.39" fill="#231f20"/>
  <rect x="921.57" y="275.15" width="13.39" height="13.39" fill="#231f20"/>
  <rect x="1049.22" y="275.15" width="13.39" height="13.39" fill="#231f20"/>
  <rect x="1007.58" y="231.66" width="13.39" height="13.39" fill="#231f20"/>
  <rect x="1007.58" y="188.86" width="13.39" height="13.39" fill="#231f20"/>
  <rect x="1007.58" y="146.43" width="13.39" height="13.39" fill="#231f20"/>
  <rect x="964.19" y="188.86" width="13.39" height="13.39" fill="#231f20"/>
  <rect x="964.19" y="146.43" width="13.39" height="13.39" fill="#231f20"/>
  <rect x="964.19" y="100.8" width="13.39" height="13.39" fill="#231f20"/>
  <rect x="964.19" y="58.36" width="13.39" height="13.39" fill="#231f20"/>
  <rect x="921.17" y="58.36" width="13.39" height="13.39" fill="#231f20"/>
  <rect x="921.17" y="231.66" width="13.39" height="13.39" fill="#231f20"/>
  <rect x="921.17" y="188.86" width="13.39" height="13.39" fill="#231f20"/>
  <rect x="921.17" y="146.43" width="13.39" height="13.39" fill="#231f20"/>
  <rect x="877.79" y="146.43" width="13.39" height="13.39" fill="#231f20"/>
  <rect x="834.8" y="188.69" width="13.39" height="13.39" fill="#231f20"/>
  <rect x="792.49" y="231.66" width="13.39" height="13.39" fill="#231f20"/>
  <rect x="792.49" y="275.15" width="13.39" height="13.39" fill="#231f20"/>
  <rect x="1049.22" y="231.66" width="13.39" height="13.39" fill="#231f20"/>
  <rect x="1049.22" y="188.86" width="13.39" height="13.39" fill="#231f20"/>
  <rect x="1049.22" y="146.43" width="13.39" height="13.39" fill="#231f20"/>
  <rect x="1049.22" y="102.33" width="13.39" height="13.39" fill="#231f20"/>
  <rect x="1049.22" y="60.65" width="13.39" height="13.39" fill="#231f20"/>
  <rect x="1049.22" y="15.59" width="13.39" height="13.39" fill="#231f20"/>
  <rect x="1007.58" y="15.59" width="13.39" height="13.39" fill="#231f20"/>
  <rect x="877.21" y="534.04" width="13.39" height="13.39" fill="#231f20"/>
  <rect x="833.06" y="534.04" width="13.39" height="13.39" fill="#231f20"/>
  <rect x="833.06" y="490.48" width="13.39" height="13.39" fill="#231f20"/>
  <rect x="789.1" y="490.48" width="13.39" height="13.39" fill="#231f20"/>
  <rect x="789.1" y="534.04" width="13.39" height="13.39" fill="#231f20"/>
  <rect x="748.11" y="534.04" width="13.39" height="13.39" fill="#231f20"/>
  <rect x="748.11" y="577.85" width="13.39" height="13.39" fill="#231f20"/>
  <rect x="789.1" y="404.5" width="13.39" height="13.39" fill="#231f20"/>
  <rect x="789.1" y="448.01" width="13.39" height="13.39" fill="#231f20"/>
  <rect x="748.11" y="490.48" width="13.39" height="13.39" fill="#231f20"/>
  <rect x="748.11" y="448.01" width="13.39" height="13.39" fill="#231f20"/>
  <rect x="705.52" y="490.48" width="13.39" height="13.39" fill="#231f20"/>
  <rect x="661.32" y="490.48" width="13.39" height="13.39" fill="#231f20"/>
  <rect x="661.32" y="534.04" width="13.39" height="13.39" fill="#231f20"/>
  <rect x="703.91" y="534.04" width="13.39" height="13.39" fill="#231f20"/>
  <rect x="618.73" y="534.04" width="13.39" height="13.39" fill="#231f20"/>
  <rect x="531.9" y="534.04" width="13.39" height="13.39" fill="#231f20"/>
  <rect x="531.9" y="490.48" width="13.39" height="13.39" fill="#231f20"/>
  <rect x="705.52" y="448.01" width="13.39" height="13.39" fill="#231f20"/>
  <rect x="748.71" y="706.34" width="13.39" height="13.39" fill="#231f20"/>
  <rect x="790.5" y="706.34" width="13.39" height="13.39" fill="#231f20"/>
  <rect x="705.52" y="663.93" width="13.39" height="13.39" fill="#231f20"/>
  <rect x="662.32" y="620.65" width="13.39" height="13.39" fill="#231f20"/>
  <rect x="705.52" y="620.65" width="13.39" height="13.39" fill="#231f20"/>
  <rect x="747.31" y="620.65" width="13.39" height="13.39" fill="#231f20"/>
  <rect x="617.17" y="836.35" width="13.39" height="13.39" fill="#231f20"/>
  <rect x="358.01" y="879.84" width="13.39" height="13.39" fill="#231f20"/>
  <rect x="315.88" y="879.84" width="13.39" height="13.39" fill="#231f20"/>
  <rect x="444.31" y="879.84" width="13.39" height="13.39" fill="#231f20"/>
  <rect x="402.19" y="879.84" width="13.39" height="13.39" fill="#231f20"/>
  <rect x="358.01" y="923.11" width="13.39" height="13.39" fill="#231f20"/>
  <rect x="315.88" y="923.11" width="13.39" height="13.39" fill="#231f20"/>
  <rect x="402.19" y="923.11" width="13.39" height="13.39" fill="#231f20"/>
  <rect x="444.31" y="923.11" width="13.39" height="13.39" fill="#231f20"/>
  <rect x="229.55" y="923.11" width="13.39" height="13.39" fill="#231f20"/>
  <rect x="187.43" y="923.11" width="13.39" height="13.39" fill="#231f20"/>
  <rect x="143.69" y="923.11" width="13.39" height="13.39" fill="#231f20"/>
  <rect x="143.69" y="966.12" width="13.39" height="13.39" fill="#231f20"/>
  <rect x="273.74" y="923.11" width="13.39" height="13.39" fill="#231f20"/>
  <rect x="358.01" y="1009.2" width="13.39" height="13.39" fill="#231f20"/>
  <rect x="315.88" y="1009.2" width="13.39" height="13.39" fill="#231f20"/>
  <rect x="402.19" y="1009.2" width="13.39" height="13.39" fill="#231f20"/>
  <rect x="488.63" y="1009.2" width="13.39" height="13.39" fill="#231f20"/>
  <rect x="446.51" y="1009.2" width="13.39" height="13.39" fill="#231f20"/>
  <rect x="532.82" y="1009.2" width="13.39" height="13.39" fill="#231f20"/>
  <rect x="488.63" y="966.12" width="13.39" height="13.39" fill="#231f20"/>
  <rect x="446.51" y="966.12" width="13.39" height="13.39" fill="#231f20"/>
  <rect x="532.82" y="966.12" width="13.39" height="13.39" fill="#231f20"/>
  <rect x="577" y="1009.2" width="13.39" height="13.39" fill="#231f20"/>
  <rect x="617.17" y="1009.2" width="13.39" height="13.39" fill="#231f20"/>
  <rect x="577" y="966.12" width="13.39" height="13.39" fill="#231f20"/>
  <rect x="617.17" y="966.12" width="13.39" height="13.39" fill="#231f20"/>
  <rect x="617.17" y="923.11" width="13.39" height="13.39" fill="#231f20"/>
  <rect x="661.13" y="1009.2" width="13.39" height="13.39" fill="#231f20"/>
  <rect x="705.31" y="1009.2" width="13.39" height="13.39" fill="#231f20"/>
  <rect x="577" y="1052.89" width="13.39" height="13.39" fill="#231f20"/>
  <rect x="617.17" y="1052.89" width="13.39" height="13.39" fill="#231f20"/>
  <rect x="661.13" y="1052.89" width="13.39" height="13.39" fill="#231f20"/>
  <rect x="533.59" y="1052.89" width="13.39" height="13.39" fill="#231f20"/>
  <rect x="661.13" y="966.12" width="13.39" height="13.39" fill="#231f20"/>
  <rect x="705.31" y="966.12" width="13.39" height="13.39" fill="#231f20"/>
  <rect x="705.31" y="923.11" width="13.39" height="13.39" fill="#231f20"/>
  <rect x="705.31" y="879.84" width="13.39" height="13.39" fill="#231f20"/>
  <rect x="748.09" y="879.84" width="13.39" height="13.39" fill="#231f20"/>
  <rect x="705.31" y="836.35" width="13.39" height="13.39" fill="#231f20"/>
  <rect x="748.09" y="836.35" width="13.39" height="13.39" fill="#231f20"/>
  <rect x="791.22" y="879.84" width="13.39" height="13.39" fill="#231f20"/>
  <rect x="792.37" y="836.35" width="13.39" height="13.39" fill="#231f20"/>
  <rect x="835.5" y="836.35" width="13.39" height="13.39" fill="#231f20"/>
  <rect x="791.22" y="793.06" width="13.39" height="13.39" fill="#231f20"/>
  <rect x="748.09" y="923.11" width="13.39" height="13.39" fill="#231f20"/>
  <rect x="662.32" y="879.84" width="13.39" height="13.39" fill="#231f20"/>
  <rect x="273.74" y="1009.2" width="13.39" height="13.39" fill="#231f20"/>
  <rect x="228.13" y="1052.89" width="13.39" height="13.39" fill="#231f20"/>
  <rect x="186.01" y="1052.89" width="13.39" height="13.39" fill="#231f20"/>
  <rect x="272.31" y="1052.89" width="13.39" height="13.39" fill="#231f20"/>
  <rect x="143.86" y="1052.89" width="13.39" height="13.39" fill="#231f20"/>
  <rect x="228.13" y="1009.2" width="13.39" height="13.39" fill="#231f20"/>
  <rect x="186.01" y="1009.2" width="13.39" height="13.39" fill="#231f20"/>
  <rect x="273.74" y="966.12" width="13.39" height="13.39" fill="#231f20"/>
  <rect x="228.13" y="966.12" width="13.39" height="13.39" fill="#231f20"/>
  <rect x="186.01" y="966.12" width="13.39" height="13.39" fill="#231f20"/>
  <rect x="143.86" y="1009.2" width="13.39" height="13.39" fill="#231f20"/>
  <rect x="488.74" y="879.84" width="13.39" height="13.39" fill="#231f20"/>
  <rect x="532.23" y="879.84" width="13.39" height="13.39" fill="#231f20"/>
  <rect x="273.74" y="663.93" width="13.39" height="13.39" fill="#231f20"/>
  <rect x="317.24" y="663.93" width="13.39" height="13.39" fill="#231f20"/>
  <rect x="273.74" y="620.65" width="13.39" height="13.39" fill="#231f20"/>
  <rect x="317.24" y="620.65" width="13.39" height="13.39" fill="#231f20"/>
  <rect x="358.97" y="620.65" width="13.39" height="13.39" fill="#231f20"/>
  <rect x="403.4" y="620.65" width="13.39" height="13.39" fill="#231f20"/>
  <rect x="446.9" y="620.65" width="13.39" height="13.39" fill="#231f20"/>
  <rect x="273.74" y="577.85" width="13.39" height="13.39" fill="#231f20"/>
  <rect x="317.24" y="577.85" width="13.39" height="13.39" fill="#231f20"/>
  <rect x="273.74" y="534.04" width="13.39" height="13.39" fill="#231f20"/>
  <rect x="317.24" y="534.04" width="13.39" height="13.39" fill="#231f20"/>
  <rect x="359.36" y="793.06" width="13.39" height="13.39" fill="#231f20"/>
  <rect x="359.36" y="836.35" width="13.39" height="13.39" fill="#231f20"/>
  <rect x="13.72" y="448.01" width="13.39" height="13.39" fill="#231f20"/>
</svg>