<?xml version="1.0" encoding="UTF-8"?>
<svg id="_9" data-name="9" xmlns="http://www.w3.org/2000/svg" viewBox="0 0 1080 1080">
  <rect x="734.49" y="353.24" width="40.84" height="40.84" fill="#231f20"/>
  <rect x="604.88" y="483.28" width="40.84" height="40.84" fill="#231f20"/>
  <rect x="432.35" y="483.28" width="40.84" height="40.84" fill="#231f20"/>
  <rect x="302.41" y="396.97" width="40.84" height="40.84" fill="#231f20"/>
  <rect x="345.44" y="396.97" width="40.84" height="40.84" fill="#231f20"/>
  <rect x="345.44" y="267.41" width="40.84" height="40.84" fill="#231f20"/>
  <rect x="302.41" y="267.41" width="40.84" height="40.84" fill="#231f20"/>
  <rect x="86.42" y="526.31" width="40.84" height="40.84" fill="#231f20"/>
  <rect x="345.44" y="310.22" width="40.84" height="40.84" fill="#231f20"/>
  <rect x="259.39" y="612.47" width="40.84" height="40.84" fill="#231f20"/>
  <rect x="43.06" y="785.2" width="40.84" height="40.84" fill="#231f20"/>
  <rect x="86.45" y="785.2" width="40.84" height="40.84" fill="#231f20"/>
  <rect x="129.83" y="785.2" width="40.84" height="40.84" fill="#231f20"/>
  <rect x="129.83" y="828.58" width="40.84" height="40.84" fill="#231f20"/>
  <rect x="129.83" y="871.95" width="40.84" height="40.84" fill="#231f20"/>
  <rect x="43.06" y="828.58" width="40.84" height="40.84" fill="#231f20"/>
  <rect x="43.06" y="871.95" width="40.84" height="40.84" fill="#231f20"/>
  <rect x="86.45" y="828.58" width="40.84" height="40.84" fill="#231f20"/>
  <rect x="86.45" y="871.95" width="40.84" height="40.84" fill="#231f20"/>
  <rect x="259.39" y="569.67" width="40.84" height="40.84" fill="#231f20"/>
  <rect x="345.87" y="612.47" width="40.84" height="40.84" fill="#231f20"/>
  <rect y="785.2" width="40.84" height="40.84" fill="#231f20"/>
  <rect y="828.58" width="40.84" height="40.84" fill="#231f20"/>
  <rect y="871.95" width="40.84" height="40.84" fill="#231f20"/>
  <rect x="302.38" y="612.47" width="40.84" height="40.84" fill="#231f20"/>
  <rect x="302.41" y="310.22" width="40.84" height="40.84" fill="#231f20"/>
  <rect x="1036.92" y="483.08" width="40.84" height="40.84" fill="#231f20"/>
  <rect x="993.62" y="483.08" width="40.84" height="40.84" fill="#231f20"/>
  <rect x="993.62" y="526.31" width="40.84" height="40.84" fill="#231f20"/>
  <rect x="1036.92" y="439.85" width="40.84" height="40.84" fill="#231f20"/>
  <rect x="1036.92" y="526.31" width="40.84" height="40.84" fill="#231f20"/>
  <rect x="1036.92" y="655.79" width="40.84" height="40.84" fill="#231f20"/>
  <rect x="1036.92" y="742.03" width="40.84" height="40.84" fill="#231f20"/>
  <rect x="1036.92" y="785.18" width="40.84" height="40.84" fill="#231f20"/>
  <rect x="1036.92" y="612.47" width="40.84" height="40.84" fill="#231f20"/>
  <rect x=".09" y="483.28" width="40.84" height="40.84" fill="#231f20"/>
  <rect x="777.65" y="267.41" width="40.84" height="40.84" fill="#231f20"/>
  <rect x="907.04" y="267.68" width="40.84" height="40.84" fill="#231f20"/>
  <rect x="950.5" y="51.47" width="40.84" height="40.84" fill="#231f20"/>
  <rect x="648.22" y="224.46" width="40.84" height="40.84" fill="#231f20"/>
  <rect x="734.49" y="396.97" width="40.84" height="40.84" fill="#231f20"/>
  <rect x="834.21" y="192.35" width="13.39" height="13.39" fill="#231f20"/>
  <rect x="791.38" y="192.35" width="13.39" height="13.39" fill="#231f20"/>
  <rect x="791.38" y="150.93" width="13.39" height="13.39" fill="#231f20"/>
  <rect x="748.54" y="150.93" width="13.39" height="13.39" fill="#231f20"/>
  <rect x="748.54" y="109.52" width="13.39" height="13.39" fill="#231f20"/>
  <rect x="704.86" y="150.93" width="13.39" height="13.39" fill="#231f20"/>
  <rect x="661.23" y="150.93" width="13.39" height="13.39" fill="#231f20"/>
  <rect x="618.39" y="150.93" width="13.39" height="13.39" fill="#231f20"/>
  <rect x="574.71" y="150.93" width="13.39" height="13.39" fill="#231f20"/>
  <rect x="532.63" y="150.93" width="13.39" height="13.39" fill="#231f20"/>
  <rect x="489.8" y="150.93" width="13.39" height="13.39" fill="#231f20"/>
  <rect x="446.12" y="150.93" width="13.39" height="13.39" fill="#231f20"/>
  <rect x="704.86" y="109.52" width="13.39" height="13.39" fill="#231f20"/>
  <rect x="834.21" y="150.93" width="13.39" height="13.39" fill="#231f20"/>
  <rect x="748.54" y="192.35" width="13.39" height="13.39" fill="#231f20"/>
  <rect x="705.52" y="192.35" width="13.39" height="13.39" fill="#231f20"/>
  <rect x="662.68" y="192.35" width="13.39" height="13.39" fill="#231f20"/>
  <rect x="619.85" y="192.35" width="13.39" height="13.39" fill="#231f20"/>
  <rect x="575.14" y="192.35" width="13.39" height="13.39" fill="#231f20"/>
  <rect x="965.04" y="192.35" width="13.39" height="13.39" fill="#231f20"/>
  <rect x="879.37" y="238.18" width="13.39" height="13.39" fill="#231f20"/>
  <rect x="922.2" y="150.93" width="13.39" height="13.39" fill="#231f20"/>
  <rect x="879.37" y="150.93" width="13.39" height="13.39" fill="#231f20"/>
  <rect x="965.04" y="150.93" width="13.39" height="13.39" fill="#231f20"/>
  <rect x="791.38" y="109.52" width="13.39" height="13.39" fill="#231f20"/>
  <rect x="834.21" y="109.52" width="13.39" height="13.39" fill="#231f20"/>
  <rect x="922.2" y="109.52" width="13.39" height="13.39" fill="#231f20"/>
  <rect x="879.37" y="109.52" width="13.39" height="13.39" fill="#231f20"/>
  <rect x="922.2" y="65.19" width="13.39" height="13.39" fill="#231f20"/>
  <rect x="879.37" y="65.19" width="13.39" height="13.39" fill="#231f20"/>
  <rect x="791.18" y="65.19" width="13.39" height="13.39" fill="#231f20"/>
  <rect x="748.35" y="65.19" width="13.39" height="13.39" fill="#231f20"/>
  <rect x="705.52" y="65.19" width="13.39" height="13.39" fill="#231f20"/>
  <rect x="662.68" y="65.19" width="13.39" height="13.39" fill="#231f20"/>
  <rect x="617.97" y="65.19" width="13.39" height="13.39" fill="#231f20"/>
  <rect x="575.14" y="65.19" width="13.39" height="13.39" fill="#231f20"/>
  <rect x="532.3" y="65.19" width="13.39" height="13.39" fill="#231f20"/>
  <rect x="489.47" y="65.19" width="13.39" height="13.39" fill="#231f20"/>
  <rect x="445.4" y="65.19" width="13.39" height="13.39" fill="#231f20"/>
  <rect x="400.97" y="65.19" width="13.39" height="13.39" fill="#231f20"/>
  <rect x="445.4" y="109.52" width="13.39" height="13.39" fill="#231f20"/>
  <rect x="401.69" y="150.93" width="13.39" height="13.39" fill="#231f20"/>
  <rect x="400.97" y="109.52" width="13.39" height="13.39" fill="#231f20"/>
  <rect x="662.68" y="20.87" width="13.39" height="13.39" fill="#231f20"/>
  <rect x="617.97" y="20.87" width="13.39" height="13.39" fill="#231f20"/>
  <rect x="575.14" y="20.87" width="13.39" height="13.39" fill="#231f20"/>
  <rect x="532.3" y="20.87" width="13.39" height="13.39" fill="#231f20"/>
  <rect x="489.47" y="20.87" width="13.39" height="13.39" fill="#231f20"/>
  <rect x="446.12" y="20.87" width="13.39" height="13.39" fill="#231f20"/>
  <rect x="662.68" y="109.52" width="13.39" height="13.39" fill="#231f20"/>
  <rect x="617.97" y="109.52" width="13.39" height="13.39" fill="#231f20"/>
  <rect x="575.14" y="109.52" width="13.39" height="13.39" fill="#231f20"/>
  <rect x="532.3" y="195.33" width="13.39" height="13.39" fill="#231f20"/>
  <rect x="489.47" y="195.33" width="13.39" height="13.39" fill="#231f20"/>
  <rect x="965.04" y="109.52" width="13.39" height="13.39" fill="#231f20"/>
  <rect x="1008.81" y="65.48" width="13.39" height="13.39" fill="#231f20"/>
  <rect x="1051.64" y="65.48" width="13.39" height="13.39" fill="#231f20"/>
  <rect x="1008.81" y="109.52" width="13.39" height="13.39" fill="#231f20"/>
  <rect x="1051.64" y="109.52" width="13.39" height="13.39" fill="#231f20"/>
  <rect x="1008.81" y="24.07" width="13.39" height="13.39" fill="#231f20"/>
  <rect x="1051.64" y="24.07" width="13.39" height="13.39" fill="#231f20"/>
  <rect x="921.13" y="24.07" width="13.39" height="13.39" fill="#231f20"/>
  <rect x="963.97" y="24.07" width="13.39" height="13.39" fill="#231f20"/>
  <rect x="836.54" y="24.07" width="13.39" height="13.39" fill="#231f20"/>
  <rect x="879.37" y="24.07" width="13.39" height="13.39" fill="#231f20"/>
  <rect x="879.37" y="192.35" width="13.39" height="13.39" fill="#231f20"/>
  <rect x="834.21" y="238.06" width="13.39" height="13.39" fill="#231f20"/>
  <rect x="920.76" y="238.06" width="13.39" height="13.39" fill="#231f20"/>
  <rect x="920.76" y="324.38" width="13.39" height="13.39" fill="#231f20"/>
  <rect x="964.22" y="324.38" width="13.39" height="13.39" fill="#231f20"/>
  <rect x="964.22" y="238.06" width="13.39" height="13.39" fill="#231f20"/>
  <rect x="1007.21" y="238.06" width="13.39" height="13.39" fill="#231f20"/>
  <rect x="1050.67" y="238.06" width="13.39" height="13.39" fill="#231f20"/>
  <rect x="964.22" y="281.4" width="13.39" height="13.39" fill="#231f20"/>
  <rect x="1051.62" y="324.74" width="13.39" height="13.39" fill="#231f20"/>
  <rect x="1051.62" y="281.4" width="13.39" height="13.39" fill="#231f20"/>
  <rect x="1008.81" y="281.4" width="13.39" height="13.39" fill="#231f20"/>
  <rect x="1051.94" y="410.2" width="13.39" height="13.39" fill="#231f20"/>
  <rect x="1007.35" y="453.57" width="13.39" height="13.39" fill="#231f20"/>
  <rect x="964.22" y="453.57" width="13.39" height="13.39" fill="#231f20"/>
  <rect x="964.22" y="496.8" width="13.39" height="13.39" fill="#231f20"/>
  <rect x="922.2" y="496.8" width="13.39" height="13.39" fill="#231f20"/>
  <rect x="964.22" y="540.03" width="13.39" height="13.39" fill="#231f20"/>
  <rect x="922.2" y="540.03" width="13.39" height="13.39" fill="#231f20"/>
  <rect x="878.98" y="496.8" width="13.39" height="13.39" fill="#231f20"/>
  <rect x="878.98" y="540.03" width="13.39" height="13.39" fill="#231f20"/>
  <rect x="834.6" y="496.8" width="13.39" height="13.39" fill="#231f20"/>
  <rect x="834.6" y="540.03" width="13.39" height="13.39" fill="#231f20"/>
  <rect x="792.28" y="496.8" width="13.39" height="13.39" fill="#231f20"/>
  <rect x="749.48" y="496.8" width="13.39" height="13.39" fill="#231f20"/>
  <rect x="707.14" y="496.8" width="13.39" height="13.39" fill="#231f20"/>
  <rect x="662.58" y="496.8" width="13.39" height="13.39" fill="#231f20"/>
  <rect x="576.74" y="496.8" width="13.39" height="13.39" fill="#231f20"/>
  <rect x="532.18" y="496.8" width="13.39" height="13.39" fill="#231f20"/>
  <rect x="489.21" y="496.8" width="13.39" height="13.39" fill="#231f20"/>
  <rect x="489.21" y="453.57" width="13.39" height="13.39" fill="#231f20"/>
  <rect x="446.07" y="453.57" width="13.39" height="13.39" fill="#231f20"/>
  <rect x="446.07" y="409.77" width="13.39" height="13.39" fill="#231f20"/>
  <rect x="402.93" y="453.57" width="13.39" height="13.39" fill="#231f20"/>
  <rect x="358.42" y="453.57" width="13.39" height="13.39" fill="#231f20"/>
  <rect x="316.1" y="453.57" width="13.39" height="13.39" fill="#231f20"/>
  <rect x="402.93" y="410.7" width="13.39" height="13.39" fill="#231f20"/>
  <rect x="273.11" y="453.57" width="13.39" height="13.39" fill="#231f20"/>
  <rect x="273.11" y="410.7" width="13.39" height="13.39" fill="#231f20"/>
  <rect x="359.37" y="366.85" width="13.39" height="13.39" fill="#231f20"/>
  <rect x="316.23" y="366.85" width="13.39" height="13.39" fill="#231f20"/>
  <rect x="402.93" y="366.85" width="13.39" height="13.39" fill="#231f20"/>
  <rect x="402.93" y="496.8" width="13.39" height="13.39" fill="#231f20"/>
  <rect x="358.18" y="496.8" width="13.39" height="13.39" fill="#231f20"/>
  <rect x="922.2" y="453.57" width="13.39" height="13.39" fill="#231f20"/>
  <rect x="878.98" y="453.57" width="13.39" height="13.39" fill="#231f20"/>
  <rect x="834.6" y="453.57" width="13.39" height="13.39" fill="#231f20"/>
  <rect x="792.28" y="453.57" width="13.39" height="13.39" fill="#231f20"/>
  <rect x="922.2" y="410.7" width="13.39" height="13.39" fill="#231f20"/>
  <rect x="878.98" y="410.7" width="13.39" height="13.39" fill="#231f20"/>
  <rect x="834.6" y="410.7" width="13.39" height="13.39" fill="#231f20"/>
  <rect x="792.28" y="410.7" width="13.39" height="13.39" fill="#231f20"/>
  <rect x="878.98" y="366.96" width="13.39" height="13.39" fill="#231f20"/>
  <rect x="834.6" y="366.96" width="13.39" height="13.39" fill="#231f20"/>
  <rect x="792.28" y="366.96" width="13.39" height="13.39" fill="#231f20"/>
  <rect x="834.6" y="324.74" width="13.39" height="13.39" fill="#231f20"/>
  <rect x="834.6" y="281.13" width="13.39" height="13.39" fill="#231f20"/>
  <rect x="878.98" y="281.13" width="13.39" height="13.39" fill="#231f20"/>
  <rect x="792.28" y="324.74" width="13.39" height="13.39" fill="#231f20"/>
  <rect x="749.48" y="453.57" width="13.39" height="13.39" fill="#231f20"/>
  <rect x="707.14" y="453.57" width="13.39" height="13.39" fill="#231f20"/>
  <rect x="662.58" y="453.57" width="13.39" height="13.39" fill="#231f20"/>
  <rect x="792.28" y="540.03" width="13.39" height="13.39" fill="#231f20"/>
  <rect x="964.22" y="583.06" width="13.39" height="13.39" fill="#231f20"/>
  <rect x="1007.16" y="626.08" width="13.39" height="13.39" fill="#231f20"/>
  <rect x="1007.16" y="669.14" width="13.39" height="13.39" fill="#231f20"/>
  <rect x="964.22" y="626.08" width="13.39" height="13.39" fill="#231f20"/>
  <rect x="964.22" y="669.14" width="13.39" height="13.39" fill="#231f20"/>
  <rect x="922.2" y="626.08" width="13.39" height="13.39" fill="#231f20"/>
  <rect x="922.2" y="669.14" width="13.39" height="13.39" fill="#231f20"/>
  <rect x="878.98" y="626.08" width="13.39" height="13.39" fill="#231f20"/>
  <rect x="878.98" y="669.14" width="13.39" height="13.39" fill="#231f20"/>
  <rect x="834.6" y="626.08" width="13.39" height="13.39" fill="#231f20"/>
  <rect x="792.28" y="626.08" width="13.39" height="13.39" fill="#231f20"/>
  <rect x="749.48" y="626.08" width="13.39" height="13.39" fill="#231f20"/>
  <rect x="834.6" y="669.14" width="13.39" height="13.39" fill="#231f20"/>
  <rect x="792.28" y="669.14" width="13.39" height="13.39" fill="#231f20"/>
  <rect x="749.48" y="669.14" width="13.39" height="13.39" fill="#231f20"/>
  <rect x="922.2" y="712.42" width="13.39" height="13.39" fill="#231f20"/>
  <rect x="1051.04" y="712.42" width="13.39" height="13.39" fill="#231f20"/>
  <rect x="878.98" y="712.42" width="13.39" height="13.39" fill="#231f20"/>
  <rect x="834.6" y="712.42" width="13.39" height="13.39" fill="#231f20"/>
  <rect x="792.28" y="712.42" width="13.39" height="13.39" fill="#231f20"/>
  <rect x="749.48" y="712.42" width="13.39" height="13.39" fill="#231f20"/>
  <rect x="922.2" y="583.06" width="13.39" height="13.39" fill="#231f20"/>
  <rect x="1048.74" y="583.06" width="13.39" height="13.39" fill="#231f20"/>
  <rect x="1007.16" y="583.06" width="13.39" height="13.39" fill="#231f20"/>
  <rect x="878.98" y="583.06" width="13.39" height="13.39" fill="#231f20"/>
  <rect x="834.6" y="583.06" width="13.39" height="13.39" fill="#231f20"/>
  <rect x="792.28" y="583.06" width="13.39" height="13.39" fill="#231f20"/>
  <rect x="749.48" y="540.03" width="13.39" height="13.39" fill="#231f20"/>
  <rect x="708.21" y="540.03" width="13.39" height="13.39" fill="#231f20"/>
  <rect x="662.58" y="540.03" width="13.39" height="13.39" fill="#231f20"/>
  <rect x="618.61" y="540.03" width="13.39" height="13.39" fill="#231f20"/>
  <rect x="576.94" y="540.03" width="13.39" height="13.39" fill="#231f20"/>
  <rect x="532.18" y="540.03" width="13.39" height="13.39" fill="#231f20"/>
  <rect x="489.21" y="540.03" width="13.39" height="13.39" fill="#231f20"/>
  <rect x="445.36" y="540.03" width="13.39" height="13.39" fill="#231f20"/>
  <rect x="402.93" y="540.03" width="13.39" height="13.39" fill="#231f20"/>
  <rect x="358.18" y="540.03" width="13.39" height="13.39" fill="#231f20"/>
  <rect x="315.21" y="540.03" width="13.39" height="13.39" fill="#231f20"/>
  <rect x="273.11" y="540.03" width="13.39" height="13.39" fill="#231f20"/>
  <rect x="273.11" y="497" width="13.39" height="13.39" fill="#231f20"/>
  <rect x="230.76" y="453.57" width="13.39" height="13.39" fill="#231f20"/>
  <rect x="230.76" y="540.03" width="13.39" height="13.39" fill="#231f20"/>
  <rect x="230.76" y="497" width="13.39" height="13.39" fill="#231f20"/>
  <rect x="100.39" y="582.86" width="13.39" height="13.39" fill="#231f20"/>
  <rect x="230.76" y="669.31" width="13.39" height="13.39" fill="#231f20"/>
  <rect x="230.76" y="626.28" width="13.39" height="13.39" fill="#231f20"/>
  <rect x="315.21" y="497" width="13.39" height="13.39" fill="#231f20"/>
  <rect x="749.48" y="583.06" width="13.39" height="13.39" fill="#231f20"/>
  <rect x="708.21" y="583.06" width="13.39" height="13.39" fill="#231f20"/>
  <rect x="707.14" y="626.08" width="13.39" height="13.39" fill="#231f20"/>
  <rect x="662.58" y="626.08" width="13.39" height="13.39" fill="#231f20"/>
  <rect x="618.61" y="626.08" width="13.39" height="13.39" fill="#231f20"/>
  <rect x="576.94" y="626.08" width="13.39" height="13.39" fill="#231f20"/>
  <rect x="532.18" y="626.08" width="13.39" height="13.39" fill="#231f20"/>
  <rect x="489.21" y="626.08" width="13.39" height="13.39" fill="#231f20"/>
  <rect x="445.36" y="626.08" width="13.39" height="13.39" fill="#231f20"/>
  <rect x="403.02" y="626.08" width="13.39" height="13.39" fill="#231f20"/>
  <rect x="708.21" y="669.14" width="13.39" height="13.39" fill="#231f20"/>
  <rect x="662.58" y="669.14" width="13.39" height="13.39" fill="#231f20"/>
  <rect x="618.61" y="669.14" width="13.39" height="13.39" fill="#231f20"/>
  <rect x="576.94" y="669.14" width="13.39" height="13.39" fill="#231f20"/>
  <rect x="532.18" y="669.14" width="13.39" height="13.39" fill="#231f20"/>
  <rect x="489.39" y="669.14" width="13.39" height="13.39" fill="#231f20"/>
  <rect x="445.42" y="669.14" width="13.39" height="13.39" fill="#231f20"/>
  <rect x="403.74" y="669.14" width="13.39" height="13.39" fill="#231f20"/>
  <rect x="358.99" y="669.14" width="13.39" height="13.39" fill="#231f20"/>
  <rect x="317.25" y="669.14" width="13.39" height="13.39" fill="#231f20"/>
  <rect x="272.5" y="669.14" width="13.39" height="13.39" fill="#231f20"/>
  <rect x="230.76" y="712.42" width="13.39" height="13.39" fill="#231f20"/>
  <rect x="662.58" y="712.25" width="13.39" height="13.39" fill="#231f20"/>
  <rect x="618.61" y="712.25" width="13.39" height="13.39" fill="#231f20"/>
  <rect x="576.94" y="712.25" width="13.39" height="13.39" fill="#231f20"/>
  <rect x="532.18" y="712.25" width="13.39" height="13.39" fill="#231f20"/>
  <rect x="489.39" y="712.25" width="13.39" height="13.39" fill="#231f20"/>
  <rect x="445.42" y="712.25" width="13.39" height="13.39" fill="#231f20"/>
  <rect x="403.74" y="712.25" width="13.39" height="13.39" fill="#231f20"/>
  <rect x="358.99" y="712.25" width="13.39" height="13.39" fill="#231f20"/>
  <rect x="317.25" y="712.25" width="13.39" height="13.39" fill="#231f20"/>
  <rect x="272.5" y="712.25" width="13.39" height="13.39" fill="#231f20"/>
  <rect x="708.21" y="712.34" width="13.39" height="13.39" fill="#231f20"/>
  <rect x="922.2" y="756.63" width="13.39" height="13.39" fill="#231f20"/>
  <rect x="878.98" y="756.63" width="13.39" height="13.39" fill="#231f20"/>
  <rect x="834.6" y="756.63" width="13.39" height="13.39" fill="#231f20"/>
  <rect x="792.28" y="756.63" width="13.39" height="13.39" fill="#231f20"/>
  <rect x="749.48" y="756.63" width="13.39" height="13.39" fill="#231f20"/>
  <rect x="230.76" y="756.63" width="13.39" height="13.39" fill="#231f20"/>
  <rect x="662.58" y="756.47" width="13.39" height="13.39" fill="#231f20"/>
  <rect x="618.61" y="756.47" width="13.39" height="13.39" fill="#231f20"/>
  <rect x="576.94" y="756.47" width="13.39" height="13.39" fill="#231f20"/>
  <rect x="532.18" y="756.47" width="13.39" height="13.39" fill="#231f20"/>
  <rect x="489.39" y="756.47" width="13.39" height="13.39" fill="#231f20"/>
  <rect x="445.42" y="756.47" width="13.39" height="13.39" fill="#231f20"/>
  <rect x="403.74" y="756.47" width="13.39" height="13.39" fill="#231f20"/>
  <rect x="358.99" y="756.47" width="13.39" height="13.39" fill="#231f20"/>
  <rect x="317.25" y="756.47" width="13.39" height="13.39" fill="#231f20"/>
  <rect x="272.5" y="756.47" width="13.39" height="13.39" fill="#231f20"/>
  <rect x="230.76" y="799.09" width="13.39" height="13.39" fill="#231f20"/>
  <rect x="618.61" y="798.93" width="13.39" height="13.39" fill="#231f20"/>
  <rect x="576.94" y="798.93" width="13.39" height="13.39" fill="#231f20"/>
  <rect x="532.18" y="798.93" width="13.39" height="13.39" fill="#231f20"/>
  <rect x="489.39" y="798.93" width="13.39" height="13.39" fill="#231f20"/>
  <rect x="445.42" y="798.93" width="13.39" height="13.39" fill="#231f20"/>
  <rect x="403.74" y="798.93" width="13.39" height="13.39" fill="#231f20"/>
  <rect x="358.99" y="798.93" width="13.39" height="13.39" fill="#231f20"/>
  <rect x="317.25" y="798.93" width="13.39" height="13.39" fill="#231f20"/>
  <rect x="272.5" y="798.93" width="13.39" height="13.39" fill="#231f20"/>
  <rect x="708.21" y="756.55" width="13.39" height="13.39" fill="#231f20"/>
  <rect x="922.2" y="799.01" width="13.39" height="13.39" fill="#231f20"/>
  <rect x="963.34" y="799.01" width="13.39" height="13.39" fill="#231f20"/>
  <rect x="963.34" y="756.63" width="13.39" height="13.39" fill="#231f20"/>
  <rect x="878.98" y="799.01" width="13.39" height="13.39" fill="#231f20"/>
  <rect x="834.6" y="799.01" width="13.39" height="13.39" fill="#231f20"/>
  <rect x="792.28" y="799.01" width="13.39" height="13.39" fill="#231f20"/>
  <rect x="749.48" y="799.01" width="13.39" height="13.39" fill="#231f20"/>
  <rect x="662.58" y="798.84" width="13.39" height="13.39" fill="#231f20"/>
  <rect x="708.21" y="798.93" width="13.39" height="13.39" fill="#231f20"/>
  <rect x="230.76" y="842.43" width="13.39" height="13.39" fill="#231f20"/>
  <rect x="186.3" y="669.31" width="13.39" height="13.39" fill="#231f20"/>
  <rect x="186.3" y="712.42" width="13.39" height="13.39" fill="#231f20"/>
  <rect x="186.3" y="756.63" width="13.39" height="13.39" fill="#231f20"/>
  <rect x="186.3" y="799.09" width="13.39" height="13.39" fill="#231f20"/>
  <rect x="186.3" y="842.43" width="13.39" height="13.39" fill="#231f20"/>
  <rect x="618.61" y="842.26" width="13.39" height="13.39" fill="#231f20"/>
  <rect x="576.94" y="842.26" width="13.39" height="13.39" fill="#231f20"/>
  <rect x="532.18" y="842.26" width="13.39" height="13.39" fill="#231f20"/>
  <rect x="489.39" y="842.26" width="13.39" height="13.39" fill="#231f20"/>
  <rect x="445.42" y="842.26" width="13.39" height="13.39" fill="#231f20"/>
  <rect x="403.74" y="842.26" width="13.39" height="13.39" fill="#231f20"/>
  <rect x="358.99" y="842.26" width="13.39" height="13.39" fill="#231f20"/>
  <rect x="317.25" y="842.26" width="13.39" height="13.39" fill="#231f20"/>
  <rect x="272.5" y="842.26" width="13.39" height="13.39" fill="#231f20"/>
  <rect x="922.2" y="842.34" width="13.39" height="13.39" fill="#231f20"/>
  <rect x="878.98" y="842.34" width="13.39" height="13.39" fill="#231f20"/>
  <rect x="834.6" y="842.34" width="13.39" height="13.39" fill="#231f20"/>
  <rect x="792.28" y="842.34" width="13.39" height="13.39" fill="#231f20"/>
  <rect x="749.48" y="842.34" width="13.39" height="13.39" fill="#231f20"/>
  <rect x="662.58" y="842.18" width="13.39" height="13.39" fill="#231f20"/>
  <rect x="708.21" y="842.26" width="13.39" height="13.39" fill="#231f20"/>
  <rect x="230.76" y="885.8" width="13.39" height="13.39" fill="#231f20"/>
  <rect x="186.3" y="885.8" width="13.39" height="13.39" fill="#231f20"/>
  <rect x="618.61" y="885.63" width="13.39" height="13.39" fill="#231f20"/>
  <rect x="576.94" y="885.63" width="13.39" height="13.39" fill="#231f20"/>
  <rect x="532.18" y="885.63" width="13.39" height="13.39" fill="#231f20"/>
  <rect x="489.39" y="885.63" width="13.39" height="13.39" fill="#231f20"/>
  <rect x="445.42" y="885.63" width="13.39" height="13.39" fill="#231f20"/>
  <rect x="403.74" y="885.63" width="13.39" height="13.39" fill="#231f20"/>
  <rect x="358.99" y="885.63" width="13.39" height="13.39" fill="#231f20"/>
  <rect x="317.25" y="885.63" width="13.39" height="13.39" fill="#231f20"/>
  <rect x="272.5" y="885.63" width="13.39" height="13.39" fill="#231f20"/>
  <rect x="922.2" y="885.72" width="13.39" height="13.39" fill="#231f20"/>
  <rect x="878.98" y="885.72" width="13.39" height="13.39" fill="#231f20"/>
  <rect x="834.6" y="885.72" width="13.39" height="13.39" fill="#231f20"/>
  <rect x="792.28" y="885.72" width="13.39" height="13.39" fill="#231f20"/>
  <rect x="922.2" y="929.59" width="13.39" height="13.39" fill="#231f20"/>
  <rect x="878.98" y="929.59" width="13.39" height="13.39" fill="#231f20"/>
  <rect x="834.6" y="929.59" width="13.39" height="13.39" fill="#231f20"/>
  <rect x="792.28" y="929.59" width="13.39" height="13.39" fill="#231f20"/>
  <rect x="749.48" y="885.72" width="13.39" height="13.39" fill="#231f20"/>
  <rect x="662.58" y="885.55" width="13.39" height="13.39" fill="#231f20"/>
  <rect x="230.76" y="929.71" width="13.39" height="13.39" fill="#231f20"/>
  <rect x="186.3" y="929.71" width="13.39" height="13.39" fill="#231f20"/>
  <rect x="618.61" y="929.55" width="13.39" height="13.39" fill="#231f20"/>
  <rect x="576.94" y="929.55" width="13.39" height="13.39" fill="#231f20"/>
  <rect x="532.18" y="929.55" width="13.39" height="13.39" fill="#231f20"/>
  <rect x="489.39" y="929.55" width="13.39" height="13.39" fill="#231f20"/>
  <rect x="445.42" y="929.55" width="13.39" height="13.39" fill="#231f20"/>
  <rect x="403.74" y="929.55" width="13.39" height="13.39" fill="#231f20"/>
  <rect x="358.99" y="929.55" width="13.39" height="13.39" fill="#231f20"/>
  <rect x="317.25" y="929.55" width="13.39" height="13.39" fill="#231f20"/>
  <rect x="272.5" y="929.55" width="13.39" height="13.39" fill="#231f20"/>
  <rect x="662.58" y="929.46" width="13.39" height="13.39" fill="#231f20"/>
  <rect x="704.58" y="929.55" width="13.39" height="13.39" fill="#231f20"/>
  <rect x="749.48" y="929.46" width="13.39" height="13.39" fill="#231f20"/>
  <rect x="230.76" y="973.87" width="13.39" height="13.39" fill="#231f20"/>
  <rect x="186.3" y="973.87" width="13.39" height="13.39" fill="#231f20"/>
  <rect x="618.61" y="973.71" width="13.39" height="13.39" fill="#231f20"/>
  <rect x="576.94" y="973.71" width="13.39" height="13.39" fill="#231f20"/>
  <rect x="532.18" y="973.71" width="13.39" height="13.39" fill="#231f20"/>
  <rect x="489.39" y="973.71" width="13.39" height="13.39" fill="#231f20"/>
  <rect x="445.42" y="973.71" width="13.39" height="13.39" fill="#231f20"/>
  <rect x="403.74" y="973.71" width="13.39" height="13.39" fill="#231f20"/>
  <rect x="358.99" y="973.71" width="13.39" height="13.39" fill="#231f20"/>
  <rect x="317.25" y="973.71" width="13.39" height="13.39" fill="#231f20"/>
  <rect x="272.5" y="973.71" width="13.39" height="13.39" fill="#231f20"/>
  <rect x="56.17" y="929.71" width="13.39" height="13.39" fill="#231f20"/>
  <rect x="11.71" y="929.71" width="13.39" height="13.39" fill="#231f20"/>
  <rect x="142.66" y="929.55" width="13.39" height="13.39" fill="#231f20"/>
  <rect x="97.91" y="929.55" width="13.39" height="13.39" fill="#231f20"/>
  <rect x="56.17" y="973.87" width="13.39" height="13.39" fill="#231f20"/>
  <rect x="11.71" y="973.87" width="13.39" height="13.39" fill="#231f20"/>
  <rect x="142.66" y="973.71" width="13.39" height="13.39" fill="#231f20"/>
  <rect x="97.91" y="973.71" width="13.39" height="13.39" fill="#231f20"/>
  <rect x="662.58" y="973.62" width="13.39" height="13.39" fill="#231f20"/>
  <rect x="704.58" y="973.71" width="13.39" height="13.39" fill="#231f20"/>
  <rect x="749.48" y="973.62" width="13.39" height="13.39" fill="#231f20"/>
  <rect x="232.67" y="1016.37" width="13.39" height="13.39" fill="#231f20"/>
  <rect x="188.21" y="1016.37" width="13.39" height="13.39" fill="#231f20"/>
  <rect x="620.52" y="1016.21" width="13.39" height="13.39" fill="#231f20"/>
  <rect x="578.85" y="1016.21" width="13.39" height="13.39" fill="#231f20"/>
  <rect x="534.1" y="1016.21" width="13.39" height="13.39" fill="#231f20"/>
  <rect x="491.31" y="1016.21" width="13.39" height="13.39" fill="#231f20"/>
  <rect x="447.33" y="1016.21" width="13.39" height="13.39" fill="#231f20"/>
  <rect x="405.66" y="1016.21" width="13.39" height="13.39" fill="#231f20"/>
  <rect x="360.91" y="1016.21" width="13.39" height="13.39" fill="#231f20"/>
  <rect x="319.17" y="1016.21" width="13.39" height="13.39" fill="#231f20"/>
  <rect x="274.41" y="1016.21" width="13.39" height="13.39" fill="#231f20"/>
  <rect x="58.08" y="1016.37" width="13.39" height="13.39" fill="#231f20"/>
  <rect x="13.62" y="1016.37" width="13.39" height="13.39" fill="#231f20"/>
  <rect x="144.58" y="1016.21" width="13.39" height="13.39" fill="#231f20"/>
  <rect x="99.83" y="1016.21" width="13.39" height="13.39" fill="#231f20"/>
  <rect x="664.5" y="1016.12" width="13.39" height="13.39" fill="#231f20"/>
  <rect x="706.49" y="1016.21" width="13.39" height="13.39" fill="#231f20"/>
  <rect x="749.48" y="1016.12" width="13.39" height="13.39" fill="#231f20"/>
  <rect x="232.67" y="1059.12" width="13.39" height="13.39" fill="#231f20"/>
  <rect x="188.21" y="1059.12" width="13.39" height="13.39" fill="#231f20"/>
  <rect x="620.52" y="1058.95" width="13.39" height="13.39" fill="#231f20"/>
  <rect x="578.85" y="1058.95" width="13.39" height="13.39" fill="#231f20"/>
  <rect x="534.1" y="1058.95" width="13.39" height="13.39" fill="#231f20"/>
  <rect x="491.31" y="1058.95" width="13.39" height="13.39" fill="#231f20"/>
  <rect x="447.33" y="1058.95" width="13.39" height="13.39" fill="#231f20"/>
  <rect x="405.66" y="1058.95" width="13.39" height="13.39" fill="#231f20"/>
  <rect x="360.91" y="1058.95" width="13.39" height="13.39" fill="#231f20"/>
  <rect x="319.17" y="1058.95" width="13.39" height="13.39" fill="#231f20"/>
  <rect x="274.41" y="1058.95" width="13.39" height="13.39" fill="#231f20"/>
  <rect x="58.08" y="1059.12" width="13.39" height="13.39" fill="#231f20"/>
  <rect x="13.62" y="1059.12" width="13.39" height="13.39" fill="#231f20"/>
  <rect x="144.58" y="1058.95" width="13.39" height="13.39" fill="#231f20"/>
  <rect x="99.83" y="1058.95" width="13.39" height="13.39" fill="#231f20"/>
  <rect x="664.5" y="1058.87" width="13.39" height="13.39" fill="#231f20"/>
  <rect x="706.49" y="1058.95" width="13.39" height="13.39" fill="#231f20"/>
  <rect x="749.48" y="1058.87" width="13.39" height="13.39" fill="#231f20"/>
  <rect x="877.18" y="973.71" width="13.39" height="13.39" fill="#231f20"/>
  <rect x="835.5" y="973.71" width="13.39" height="13.39" fill="#231f20"/>
  <rect x="790.75" y="973.71" width="13.39" height="13.39" fill="#231f20"/>
  <rect x="921.15" y="973.62" width="13.39" height="13.39" fill="#231f20"/>
  <rect x="963.34" y="973.71" width="13.39" height="13.39" fill="#231f20"/>
  <rect x="1007.26" y="973.62" width="13.39" height="13.39" fill="#231f20"/>
  <rect x="879.09" y="1016.21" width="13.39" height="13.39" fill="#231f20"/>
  <rect x="837.42" y="1016.21" width="13.39" height="13.39" fill="#231f20"/>
  <rect x="792.67" y="1016.21" width="13.39" height="13.39" fill="#231f20"/>
  <rect x="923.07" y="1016.12" width="13.39" height="13.39" fill="#231f20"/>
  <rect x="963.34" y="1016.21" width="13.39" height="13.39" fill="#231f20"/>
  <rect x="1007.26" y="1016.12" width="13.39" height="13.39" fill="#231f20"/>
  <rect x="879.09" y="1058.95" width="13.39" height="13.39" fill="#231f20"/>
  <rect x="837.42" y="1058.95" width="13.39" height="13.39" fill="#231f20"/>
  <rect x="792.67" y="1058.95" width="13.39" height="13.39" fill="#231f20"/>
  <rect x="923.07" y="1058.87" width="13.39" height="13.39" fill="#231f20"/>
  <rect x="963.34" y="1058.95" width="13.39" height="13.39" fill="#231f20"/>
  <rect x="1007.26" y="1058.87" width="13.39" height="13.39" fill="#231f20"/>
  <rect x="963.34" y="842.61" width="13.39" height="13.39" fill="#231f20"/>
  <rect x="1007.26" y="842.52" width="13.39" height="13.39" fill="#231f20"/>
  <rect x="1007.26" y="798.9" width="13.39" height="13.39" fill="#231f20"/>
  <rect x="963.34" y="885.1" width="13.39" height="13.39" fill="#231f20"/>
  <rect x="1007.26" y="885.02" width="13.39" height="13.39" fill="#231f20"/>
  <rect x="963.34" y="927.85" width="13.39" height="13.39" fill="#231f20"/>
  <rect x="1007.26" y="927.77" width="13.39" height="13.39" fill="#231f20"/>
  <rect x="1051.04" y="973.62" width="13.39" height="13.39" fill="#231f20"/>
  <rect x="1051.04" y="1016.12" width="13.39" height="13.39" fill="#231f20"/>
  <rect x="1051.04" y="1058.87" width="13.39" height="13.39" fill="#231f20"/>
  <rect x="1051.04" y="842.52" width="13.39" height="13.39" fill="#231f20"/>
  <rect x="1051.04" y="885.02" width="13.39" height="13.39" fill="#231f20"/>
  <rect x="1051.04" y="927.77" width="13.39" height="13.39" fill="#231f20"/>
  <rect x="662.58" y="583.06" width="13.39" height="13.39" fill="#231f20"/>
  <rect x="618.61" y="583.06" width="13.39" height="13.39" fill="#231f20"/>
  <rect x="576.94" y="583.06" width="13.39" height="13.39" fill="#231f20"/>
  <rect x="532.18" y="583.06" width="13.39" height="13.39" fill="#231f20"/>
  <rect x="489.21" y="583.06" width="13.39" height="13.39" fill="#231f20"/>
  <rect x="445.36" y="583.06" width="13.39" height="13.39" fill="#231f20"/>
  <rect x="403.02" y="583.06" width="13.39" height="13.39" fill="#231f20"/>
  <rect x="358.42" y="583.06" width="13.39" height="13.39" fill="#231f20"/>
  <rect x="316.17" y="583.06" width="13.39" height="13.39" fill="#231f20"/>
  <rect x="1051.62" y="367.17" width="13.39" height="13.39" fill="#231f20"/>
  <rect x="791.38" y="238.06" width="13.39" height="13.39" fill="#231f20"/>
  <rect x="748.54" y="238.06" width="13.39" height="13.39" fill="#231f20"/>
  <rect x="706.65" y="238.06" width="13.39" height="13.39" fill="#231f20"/>
  <rect x="706.65" y="281.13" width="13.39" height="13.39" fill="#231f20"/>
  <rect x="748.54" y="281.13" width="13.39" height="13.39" fill="#231f20"/>
  <rect x="748.54" y="322.99" width="13.39" height="13.39" fill="#231f20"/>
  <rect x="706.65" y="322.99" width="13.39" height="13.39" fill="#231f20"/>
  <rect x="706.65" y="367.91" width="13.39" height="13.39" fill="#231f20"/>
  <rect x="706.65" y="409.77" width="13.39" height="13.39" fill="#231f20"/>
  <rect x="662.58" y="281.13" width="13.39" height="13.39" fill="#231f20"/>
  <rect x="619.01" y="281.13" width="13.39" height="13.39" fill="#231f20"/>
  <rect x="574.94" y="281.13" width="13.39" height="13.39" fill="#231f20"/>
  <rect x="662.58" y="322.99" width="13.39" height="13.39" fill="#231f20"/>
  <rect x="618.61" y="322.99" width="13.39" height="13.39" fill="#231f20"/>
  <rect x="574.54" y="322.99" width="13.39" height="13.39" fill="#231f20"/>
  <rect x="533.45" y="322.99" width="13.39" height="13.39" fill="#231f20"/>
  <rect x="533.45" y="365.97" width="13.39" height="13.39" fill="#231f20"/>
  <rect x="576.94" y="365.97" width="13.39" height="13.39" fill="#231f20"/>
  <rect x="489.21" y="365.97" width="13.39" height="13.39" fill="#231f20"/>
  <rect x="533.45" y="409.77" width="13.39" height="13.39" fill="#231f20"/>
  <rect x="489.21" y="409.77" width="13.39" height="13.39" fill="#231f20"/>
  <rect x="489.38" y="322.99" width="13.39" height="13.39" fill="#231f20"/>
  <rect x="445.4" y="322.99" width="13.39" height="13.39" fill="#231f20"/>
  <rect x="401.33" y="322.99" width="13.39" height="13.39" fill="#231f20"/>
  <rect x="533.45" y="281.13" width="13.39" height="13.39" fill="#231f20"/>
  <rect x="489.38" y="281.13" width="13.39" height="13.39" fill="#231f20"/>
  <rect x="445.4" y="281.13" width="13.39" height="13.39" fill="#231f20"/>
  <rect x="401.33" y="281.13" width="13.39" height="13.39" fill="#231f20"/>
  <rect x="619.01" y="238.18" width="13.39" height="13.39" fill="#231f20"/>
  <rect x="574.94" y="238.18" width="13.39" height="13.39" fill="#231f20"/>
  <rect x="533.45" y="238.18" width="13.39" height="13.39" fill="#231f20"/>
  <rect x="489.38" y="238.18" width="13.39" height="13.39" fill="#231f20"/>
  <rect x="445.4" y="238.18" width="13.39" height="13.39" fill="#231f20"/>
  <rect x="401.33" y="238.18" width="13.39" height="13.39" fill="#231f20"/>
  <rect x="446.23" y="192.35" width="13.39" height="13.39" fill="#231f20"/>
  <rect x="402.16" y="192.35" width="13.39" height="13.39" fill="#231f20"/>
  <rect x="360.25" y="238.18" width="13.39" height="13.39" fill="#231f20"/>
  <rect x="316.18" y="238.18" width="13.39" height="13.39" fill="#231f20"/>
  <rect x="274.68" y="238.18" width="13.39" height="13.39" fill="#231f20"/>
  <rect x="230.61" y="238.18" width="13.39" height="13.39" fill="#231f20"/>
  <rect x="186.64" y="238.18" width="13.39" height="13.39" fill="#231f20"/>
  <rect x="142.57" y="238.18" width="13.39" height="13.39" fill="#231f20"/>
  <rect x="274.68" y="281.04" width="13.39" height="13.39" fill="#231f20"/>
  <rect x="230.61" y="281.04" width="13.39" height="13.39" fill="#231f20"/>
  <rect x="186.64" y="281.04" width="13.39" height="13.39" fill="#231f20"/>
  <rect x="142.57" y="281.04" width="13.39" height="13.39" fill="#231f20"/>
  <rect x="101.53" y="238.18" width="13.39" height="13.39" fill="#231f20"/>
  <rect x="57.56" y="238.18" width="13.39" height="13.39" fill="#231f20"/>
  <rect x="13.48" y="238.18" width="13.39" height="13.39" fill="#231f20"/>
  <rect x="316.18" y="195.33" width="13.39" height="13.39" fill="#231f20"/>
  <rect x="274.68" y="195.33" width="13.39" height="13.39" fill="#231f20"/>
  <rect x="230.61" y="195.33" width="13.39" height="13.39" fill="#231f20"/>
  <rect x="186.64" y="195.33" width="13.39" height="13.39" fill="#231f20"/>
  <rect x="142.57" y="195.33" width="13.39" height="13.39" fill="#231f20"/>
  <rect x="101.53" y="195.33" width="13.39" height="13.39" fill="#231f20"/>
  <rect x="57.56" y="195.33" width="13.39" height="13.39" fill="#231f20"/>
  <rect x="13.48" y="195.33" width="13.39" height="13.39" fill="#231f20"/>
  <rect x="274.68" y="153.37" width="13.39" height="13.39" fill="#231f20"/>
  <rect x="230.61" y="153.37" width="13.39" height="13.39" fill="#231f20"/>
  <rect x="186.64" y="153.37" width="13.39" height="13.39" fill="#231f20"/>
  <rect x="142.57" y="153.37" width="13.39" height="13.39" fill="#231f20"/>
  <rect x="101.53" y="153.37" width="13.39" height="13.39" fill="#231f20"/>
  <rect x="57.56" y="153.37" width="13.39" height="13.39" fill="#231f20"/>
  <rect x="13.48" y="153.37" width="13.39" height="13.39" fill="#231f20"/>
  <rect x="274.68" y="108.2" width="13.39" height="13.39" fill="#231f20"/>
  <rect x="230.61" y="108.2" width="13.39" height="13.39" fill="#231f20"/>
  <rect x="274.68" y="64.93" width="13.39" height="13.39" fill="#231f20"/>
  <rect x="230.61" y="64.93" width="13.39" height="13.39" fill="#231f20"/>
  <rect x="318.66" y="20.53" width="13.39" height="13.39" fill="#231f20"/>
  <rect x="318.66" y="64.93" width="13.39" height="13.39" fill="#231f20"/>
  <rect x="274.59" y="20.53" width="13.39" height="13.39" fill="#231f20"/>
  <rect x="13.48" y="20.53" width="13.39" height="13.39" fill="#231f20"/>
  <rect x="57.56" y="20.53" width="13.39" height="13.39" fill="#231f20"/>
  <rect x="186.64" y="108.2" width="13.39" height="13.39" fill="#231f20"/>
  <rect x="142.57" y="108.2" width="13.39" height="13.39" fill="#231f20"/>
  <rect x="101.53" y="108.2" width="13.39" height="13.39" fill="#231f20"/>
  <rect x="57.56" y="108.2" width="13.39" height="13.39" fill="#231f20"/>
  <rect x="13.48" y="108.2" width="13.39" height="13.39" fill="#231f20"/>
  <rect x="57.56" y="64.36" width="13.39" height="13.39" fill="#231f20"/>
  <rect x="13.48" y="64.36" width="13.39" height="13.39" fill="#231f20"/>
  <rect x="101.53" y="281.04" width="13.39" height="13.39" fill="#231f20"/>
  <rect x="57.56" y="281.04" width="13.39" height="13.39" fill="#231f20"/>
  <rect x="13.48" y="281.04" width="13.39" height="13.39" fill="#231f20"/>
  <rect x="274.68" y="322.99" width="13.39" height="13.39" fill="#231f20"/>
  <rect x="230.61" y="322.99" width="13.39" height="13.39" fill="#231f20"/>
  <rect x="186.64" y="322.99" width="13.39" height="13.39" fill="#231f20"/>
  <rect x="142.57" y="322.99" width="13.39" height="13.39" fill="#231f20"/>
  <rect x="101.53" y="322.99" width="13.39" height="13.39" fill="#231f20"/>
  <rect x="57.56" y="322.99" width="13.39" height="13.39" fill="#231f20"/>
  <rect x="13.48" y="322.99" width="13.39" height="13.39" fill="#231f20"/>
  <rect x="274.68" y="366.85" width="13.39" height="13.39" fill="#231f20"/>
  <rect x="230.61" y="366.85" width="13.39" height="13.39" fill="#231f20"/>
  <rect x="186.64" y="366.85" width="13.39" height="13.39" fill="#231f20"/>
  <rect x="142.57" y="366.85" width="13.39" height="13.39" fill="#231f20"/>
  <rect x="101.53" y="366.85" width="13.39" height="13.39" fill="#231f20"/>
  <rect x="57.56" y="366.85" width="13.39" height="13.39" fill="#231f20"/>
  <rect x="13.48" y="366.85" width="13.39" height="13.39" fill="#231f20"/>
  <rect x="230.61" y="410.83" width="13.39" height="13.39" fill="#231f20"/>
  <rect x="186.64" y="410.83" width="13.39" height="13.39" fill="#231f20"/>
  <rect x="142.57" y="410.83" width="13.39" height="13.39" fill="#231f20"/>
  <rect x="101.53" y="410.83" width="13.39" height="13.39" fill="#231f20"/>
  <rect x="57.56" y="410.83" width="13.39" height="13.39" fill="#231f20"/>
  <rect x="13.48" y="410.83" width="13.39" height="13.39" fill="#231f20"/>
  <rect x="186.64" y="453.57" width="13.39" height="13.39" fill="#231f20"/>
  <rect x="142.57" y="453.57" width="13.39" height="13.39" fill="#231f20"/>
  <rect x="101.53" y="453.57" width="13.39" height="13.39" fill="#231f20"/>
  <rect x="57.56" y="453.57" width="13.39" height="13.39" fill="#231f20"/>
  <rect x="186.64" y="497" width="13.39" height="13.39" fill="#231f20"/>
  <rect x="142.57" y="497" width="13.39" height="13.39" fill="#231f20"/>
  <rect x="186.64" y="540.03" width="13.39" height="13.39" fill="#231f20"/>
  <rect x="142.57" y="540.03" width="13.39" height="13.39" fill="#231f20"/>
  <rect x="56.26" y="583.15" width="13.39" height="13.39" fill="#231f20"/>
  <rect x="12.19" y="583.15" width="13.39" height="13.39" fill="#231f20"/>
  <rect x="230.39" y="582.86" width="13.39" height="13.39" fill="#231f20"/>
  <rect x="186.27" y="583.15" width="13.39" height="13.39" fill="#231f20"/>
  <rect x="142.2" y="583.15" width="13.39" height="13.39" fill="#231f20"/>
  <rect x="186.64" y="626.19" width="13.39" height="13.39" fill="#231f20"/>
  <rect x="142.57" y="626.19" width="13.39" height="13.39" fill="#231f20"/>
  <rect x="101.65" y="626.28" width="13.39" height="13.39" fill="#231f20"/>
  <rect x="57.53" y="626.19" width="13.39" height="13.39" fill="#231f20"/>
  <rect x="13.46" y="626.19" width="13.39" height="13.39" fill="#231f20"/>
  <rect x="100.39" y="669.5" width="13.39" height="13.39" fill="#231f20"/>
  <rect x="56.26" y="669.8" width="13.39" height="13.39" fill="#231f20"/>
  <rect x="12.19" y="669.8" width="13.39" height="13.39" fill="#231f20"/>
  <rect x="142.2" y="669.8" width="13.39" height="13.39" fill="#231f20"/>
  <rect x="142.57" y="712.83" width="13.39" height="13.39" fill="#231f20"/>
  <rect x="101.65" y="712.93" width="13.39" height="13.39" fill="#231f20"/>
  <rect x="57.53" y="712.83" width="13.39" height="13.39" fill="#231f20"/>
  <rect x="13.46" y="712.83" width="13.39" height="13.39" fill="#231f20"/>
  <rect x="142.57" y="756.59" width="13.39" height="13.39" fill="#231f20"/>
  <rect x="101.65" y="756.68" width="13.39" height="13.39" fill="#231f20"/>
  <rect x="57.53" y="756.59" width="13.39" height="13.39" fill="#231f20"/>
  <rect x="13.46" y="756.59" width="13.39" height="13.39" fill="#231f20"/>
  <rect x="56.29" y="540.03" width="13.39" height="13.39" fill="#231f20"/>
  <rect x="12.22" y="540.03" width="13.39" height="13.39" fill="#231f20"/>
  <rect x="101.53" y="497" width="13.39" height="13.39" fill="#231f20"/>
  <rect x="57.56" y="497" width="13.39" height="13.39" fill="#231f20"/>
  <rect x="13.48" y="453.57" width="13.39" height="13.39" fill="#231f20"/>
  <rect x="662.58" y="367.91" width="13.39" height="13.39" fill="#231f20"/>
  <rect x="662.58" y="410.83" width="13.39" height="13.39" fill="#231f20"/>
  <rect x="618.61" y="453.57" width="13.39" height="13.39" fill="#231f20"/>
  <rect x="576.94" y="453.57" width="13.39" height="13.39" fill="#231f20"/>
  <rect x="618.61" y="367.91" width="13.39" height="13.39" fill="#231f20"/>
  <rect x="618.61" y="409.77" width="13.39" height="13.39" fill="#231f20"/>
  <rect x="576.94" y="410.83" width="13.39" height="13.39" fill="#231f20"/>
</svg>